<?xml version="1.0" encoding="UTF-8"?>
<svg id="Camada_1" data-name="Camada 1" xmlns="http://www.w3.org/2000/svg" viewBox="0 0 1340.27 1361.8">
  <defs>
    <style>
      .cls-1 {
        fill: #e69442;
      }

      .cls-1, .cls-2, .cls-3, .cls-4, .cls-5, .cls-6 {
        stroke-width: 0px;
      }

      .cls-2 {
        fill: #568f32;
      }

      .cls-3 {
        fill: #060705;
      }

      .cls-4 {
        fill: #fdfefd;
      }

      .cls-5 {
        fill: #2e6936;
      }

      .cls-6 {
        fill: #5da158;
      }
    </style>
  </defs>
  <g id="Green">
    <g>
      <path class="cls-3" d="M125.15,722.74c-24.18,19.35-42.6,43.53-58.27,69.94-9.95,16.77-18.71,34.11-24.5,52.86-2.47,8.01-9.59,12.8-17.06,12.34-8.22-.51-14.84-6.55-16.52-15.04-1.29-6.54-.76-13.17-.69-19.74.2-21.26.97-42.55,4.16-63.58,4.98-32.9,13.13-64.94,27.01-95.43,15.74-34.58,37.17-64.65,66.9-88.57,31.47-25.32,67.24-39.76,107.52-43.64,23.45-2.26,46.44-.27,68.87,6.22,36.7,10.62,66.64,31.66,91.18,60.87,15.91,18.95,27.19,40.44,36.69,63.02,3.37,8,6.2,16.23,9.47,24.89,3.11-3.31,4.56-5.39,1.7-9.33-4.54-6.26-4.87-13.57-2.28-20.92,1.57-4.44,4.19-8.19,7.12-11.85,21.82-27.2,34.3-58.19,37.67-92.91,2.61-26.9.8-53.74-1.23-80.53-1.98-26.11-3.32-52.2-1.78-78.34.77-12.92,2.43-25.77,4.94-38.49.36-1.86,1.24-3.68.38-6.02-6.42-.29-12.96-.52-19.49-.89-5.65-.31-11.1-1.64-16.27-3.95-23.07-10.33-32.37-27.94-29.35-54.12,2.9-25.15,16.45-44.98,35.27-61.43,7.01-6.12,14.41-11.66,22.44-16.23-.53-2.67-2.94-2.62-4.51-3.47-8.91-4.8-17.05-10.74-23.42-18.49-16.49-20.05-16.84-43.86-1.5-65.56,8.22-11.63,18.88-20.15,32.02-25.89,29.39-12.84,59.78-15,91.1-9.78,11.38,1.9,22.3,5.15,33.05,9.16,2,.75,3.89,2.09,6.79,1.73-1.59-5.3-3.3-10.45-4.67-15.69-3.25-12.43-2.73-24.74,2.34-36.6,8.19-19.16,23.24-29.55,43.44-32.94,20.58-3.45,40.42.14,59.66,7.23,32.73,12.08,59.25,32.56,79.97,60.6,28.27,38.25,37.7,81.46,32.83,128.08-.94,8.98-.36,15.03,7.88,20.75,10.18,7.05,18.71,16.42,26.2,26.48,1.36,1.83,2.7,3.14,5.25,3.37,5.05.44,9.16,3.28,12.93,6.39,6.46,5.34,7.39,11.98,2.3,18.66-1.95,2.56-1.93,4.15-.61,7.02,7.67,16.66,13.87,33.87,17.13,51.97.84,4.66,2.5,7.66,6.99,10.02,20.24,10.64,35.7,26.5,46.53,46.44,7.94,14.62,13.54,30.27,14.11,47.28.23,6.93-2.44,12.29-7.9,16.41-3.7,2.79-7.6,4.1-12.31,2.85-5.65-1.5-11.41-2.61-17.11-3.95-1.88-.44-3.7-1.19-6.35-.4,4.73,15.03,8.68,30.25,15.21,44.61,10.89,23.93,24.69,46,42.29,65.63,6.05,6.75,12.78,12.78,19.4,18.94,2.32,2.16,4.66,4.31,6.95,6.52,6.36,6.14,9.68,13.51,8.25,22.43-.55,3.42.5,4.85,3.73,5.61,13.66,3.22,26.97,3.83,39.64-3.78,2.63-1.58,3.19-2.78,1.86-5.6-3.69-7.85-3.15-16.19-1.97-24.46.75-5.31,1.77-10.6,3.08-15.8.69-2.75-.21-3.68-2.48-5.02-20.8-12.24-38.27-28.29-50.03-49.36-15.65-28.02-18.47-57.33-3.86-86.92,5.61-11.37,13.61-20.94,25.05-26.91,2.95-1.54,3.62-3.22,3.6-6.21-.1-12.49.61-24.94,4.12-37.01,12.72-43.79,39.67-73.12,85.24-83.37,23.03-5.18,46.06-4.58,69.07.04,39.78,7.99,76.64,22.61,108.44,48.43,15.13,12.28,27.88,26.68,37.32,43.8,9.59,17.38,14.49,36.19,15.93,55.89,2.52,34.4-5.14,66.95-18.59,98.32-8.99,20.98-20.59,40.44-35.65,57.69-2.15,2.46-2.51,5.1-2.51,8.1-.02,12.24-1.14,24.39-3.26,36.44-1.1,6.28-3.16,12.28-5.73,18.09-3.14,7.11-7.66,13.1-15.06,16.24-4.82,2.05-6.43,5.78-7.34,10.68-6.63,35.44-19.97,68.27-39.36,98.64-7.92,12.4-17.19,23.71-27.79,33.96-10.11,9.78-21.49,12.78-34.74,6.81-11.74,17.03-26.37,30.83-44.06,41.33-5.49,3.26-11.32,5.74-17.75,6.45-17.98,1.98-25.85-3.51-31.65-17.17-1.54-.96-2.78.15-4.04.72-13.59,6.19-27.78,10.67-42.25,14.16-3.98.96-5.47,2.64-6.31,6.51-7.4,34.14-20.69,65.99-37.62,96.46-14.22,25.61-32.43,48.17-52.1,69.65-2.52,2.75-3.46,5.02-2.91,8.96,3.5,24.76,1.7,49.3-5.61,73.19-4.02,13.15-10.39,25.45-20.59,34.98-5.04,4.71-5.02,8.82-2.38,14.46,7.22,15.45,12.31,31.86,21.55,46.4,4.87,7.66,11.13,13.03,20.4,13.72,6.81.51,13.63.37,20.42-1.05,13.6-2.85,27.12-6.67,41.17-6.25,13.19.39,26.38-1.41,39.53.04,30.8,3.39,56.76,29.26,60.32,59.97,1.2,10.34-3.54,19.34-17.07,19.33-95.08-.08-190.16-.06-285.24-.13-12.32,0-18.97-7.09-18.56-19.33.75-22.13,19.29-44.07,42.07-49.62,4.95-1.21,10.01-1.96,15.35-2.99-5.85-14.94-11.59-29.6-17.33-44.28-1.26-3.22-3.53-4.79-6.97-5.69-17.83-4.68-34.72-11.5-49.23-23.27-5.31-4.31-10.91-8.28-15.58-13.31-2.09-2.25-4.18-2.81-7.14-2.15-24.52,5.48-49.41,6.21-74.35,5.14-6.24-.27-10.56,1.69-14.87,5.85-9.69,9.36-20.51,17.19-32.38,23.72-12.6,6.94-25.98,11.01-40.1,13-2.19.31-4.38.22-5.58,2.65-5.49,11.12-11.12,22.18-14.12,34.32-.21.84-.79,1.83.37,3.13,4.56.98,9.7.46,14.68,1.8,13.05,3.53,23.5,10.53,30.86,21.89,6.76,10.43,10.93,21.81,11.35,34.33.43,12.86-5.44,19.03-18.43,19.12-23.95.15-47.91.06-71.86.06-44.97,0-89.95,0-134.92-.03-4.39,0-8.81.21-13.1-1.1-7.04-2.15-10.77-6.36-11.07-13.66-.92-22.47,8.86-39.54,27.13-51.98,8.86-6.03,18.93-8.7,29.56-9.76,7.75-.77,15.56-.71,23.27-2.33,11.32-2.39,20.13-8.2,27.13-17.27,7.11-9.2,11.58-19.74,16.02-30.31,2.36-5.62,4.31-11.41,6.74-16.99.9-2.08.74-3.47-.48-5.33-12.26-18.6-16.44-39.41-16.25-61.3.03-3.46-1.47-5.3-3.85-7.26-15.36-12.58-29.32-26.53-41.63-42.16-8.65-10.98-15.33-23.2-22.77-34.89-2.26-.08-2.66,2-3.82,3.11-9.93,9.53-27.32,10.05-39.84.71-8.89-6.63-16.21-14.87-21.69-24.56-8.76-15.48-14.35-32.03-15.88-49.82-.23-2.67-.64-4.15-3.88-4.9-10.14-2.33-15.51-9.28-17.32-19.39-.82-4.59-.35-9.2-.39-15.02-8.41,4.57-14.62,10.2-20.49,16.31-10.11,10.53-15.55,23.52-19.63,37.2-6.24,20.91-6.61,42.35-5.43,63.91.24,4.43.2,8.73-1.6,12.94-5.75,13.5-22.3,15.97-31.58,4.61-20.14-24.67-35.55-51.8-44.15-82.7-5.22-18.75-4.99-37.63-3.17-56.67.68-7.12,1.41-14.27,6.22-21.59-3.79,1.71-5.23,3.79-6.55,5.61-16.11,22.3-28.19,46.7-37.14,72.67-3.58,10.38-6.82,20.85-9.62,31.48-2.56,9.73-8.44,14.11-17.82,14.15-8.89.04-15.87-5.43-18.11-14.98-7.68-32.71-12.14-65.79-10.4-99.49,1.73-33.4,8.18-65.76,20.73-96.88,8.38-20.78,20.24-39.33,34.4-56.54,1.39-1.69,2.73-3.42,4.09-5.12,1.52.1,2.39-1.25,2.01-2.08-.5-1.07-1.67.01-2.37.5-.52.36-.79,1.07-1.18,1.62ZM889.19,386.99c-.53-.38-1.06-.76-1.6-1.14-.26-.41-.61-.51-1.05-.31-.52-.65-.81-1.55-1.84-1.63l.15.1c-8.65-7.96-18.88-12.97-30.11-16.11l.02.02c-1.77-.65-3.55-1.3-5.32-1.94-1.19-2.12-3.16.26-4.54-.79-17.1-6.39-34.34-8.66-51.87-1.66-6.09.87-10.59,4.64-14.95,8.48-5.33,4.7-9.58,10.39-13.67,16.18-5.91,8.36-11.74,16.79-17.67,25.14-4.41,6.21-9.58,11.86-16.08,15.77-9.18,5.51-18.61,10.73-29.47,12.4-1.21.19-2.34.59-2.91,1.84,7.23,4.36,24.89,9.56,36.06,11.08,19.41,2.65,38.45-.12,57.42-3.68,19.87-3.73,39.35-9.32,59.5-11.8,20.24-2.49,40.32-3.21,60.44.83,2.62.53,5.29,2.47,8.49.91-1.2-3.37-.61-7-3.09-9.74-.31-1.12-.06-2.54-1.58-3.03l.14.17c.12-3.38-1.41-6.2-3.09-8.96l.14.19c-.23-1.2-.62-2.31-1.62-3.11l.17.12c-4.54-10.19-10.83-19.11-19.22-26.51l.11.18c-.54-.54-1.08-1.08-1.62-1.62l.15.15c-.53-.52-1.07-1.05-1.6-1.57l.12.07ZM485.28,1194.91c-.95.6-1.2,1.55-1.3,2.58l-.21.31c-.94.59-1.21,1.52-1.32,2.54l-.22.31c-.3.43-.59.86-.89,1.29-3.68,5.07-5.39,11.2-9.14,16.28-10.68,14.46-24.92,23.45-42.03,28.25-2.17-.17-4.31-.18-6.21,1.16-7.56.41-15.12.74-22.67,1.23-15.85,1.05-25.25,10.24-30.56,24.47-1.77,4.74-1.37,5.29,3.98,5.31,13.92.06,27.84.05,41.76.04,6.94,0,7.11.01,8.84-6.58,2.68-10.19,7.28-19.06,16.17-25.23,11.1-7.71,22.94-9.46,36.9-4.57-6.03,2.34-10.98,4.13-15.82,6.18-3.77,1.6-8.3,2.7-10.91,5.5-4.9,5.27-9.48,11.07-10.8,18.69-.97,5.6-1.01,5.98,4.53,6,15.39.05,30.78-.14,46.16.11,4.18.07,5.48-1.68,6.14-5.34,1.16-6.39,1.97-12.81,2.32-20.12,3.5,2.94,6.01,6.03,6.33,9.44.44,4.7,3.62,8.29,4.02,12.84.21,2.41,1.86,3.22,4.11,3.09.49-.03.98.02,1.46.02,16.36-.02,32.73-.03,49.09-.08,2.36,0,5.68.45,4.47-3.53-5.19-17.12-14.95-28.85-35.42-26.53-5.29.6-10.55,1.47-16.74,2.34,1.53-3.61-.03-6.09-1.64-8.46-3.93-5.82-4.41-12.24-3.76-18.97.48-4.91,2.12-9.51,3.49-14.18,3.64-7.89,7.27-15.79,10.95-23.67,1.06-2.28.54-3.66-1.96-4.27-9.23-2.25-17.97-5.76-26.39-10.14-3.24-1.68-4.4.1-4.58,3.12-2.25,5.91-4.49,11.82-6.74,17.72-.94.57-1.13,1.51-1.21,2.5l-.21.33ZM877.48,1029.42l.03-.02c2,.02,2.93-1.3,3.62-2.91l.2.06c7.76-6.09,13.26-14.27,19.77-21.51,18.88-21.01,33.96-44.59,46.52-69.81,12.66-25.42,22.29-51.95,27.76-79.85,4-20.41,5.68-41,4-61.86-.92-11.42-3.33-22.59-4.61-34.51,5.13,4.47,9.89,8.61,14.64,12.75,4.83,4.22,9.25,8.98,15.5,12.76.19-2.26.38-3.22.33-4.16-.11-2.19-.21-4.4-.53-6.57-4.92-33.21-16.22-64.17-33.01-93.15-7.94-13.72-17.87-26.12-26.76-39.21-2.67-3.93-5.94-5.31-7.74-3.61-2.61,2.46-.15,5.12.55,7.41,3.6,11.82,4.84,23.86,4.11,36.14-.37,6.17-1.7,12.06-5.18,17.3-3.35.59-6.77,1.93-10.03,1.63-9.51-.88-18.47-3.71-26.9-8.48-5.59-3.16-10.6-7.43-16.69-9.78-1.35,1.71-1.2,3.2-1.2,4.61-.04,10.53-1.7,20.85-4.64,30.91-3.03,10.37-7.56,20.1-14.88,28.2-4.84,5.36-6.95,5.75-13.46,2.83-11.4-5.1-21.65-12.12-31.74-19.4-2.64-1.91-5.26-3.84-7.89-5.76,2.07,10.4,4.85,20.16,6.6,30.15,1.79,11.27,3.79,22.49,4.87,33.89,2.01,21.26.99,42.33-2.97,63.22-4.17,21.96-14.56,41.13-28.04,58.74-2.72.35-4.05,2.63-5.66,4.34-9.56,10.12-21.04,17.41-33.74,22.81-21.6,9.19-43.1,10.05-63.72-2.48-5.16-3.13-8.99-3.23-14.06-.42-14.98,8.31-30.94,13.22-48.33,11.98-3.24-.23-5.54,1.04-7.72,3.29-5.43,5.61-11.07,10.99-17.11,15.99-13.98,11.53-29.49,19.83-47.22,23.9-4.14.95-8.3,1.28-12.31.26-2.92-.74-4.98-.21-7.47,1.28-16.19,9.7-33.34,17.26-51.58,22.22-8.73,2.37-17.66,3.39-26.66,4.16-7.32.63-14.56,1.14-21.85-.14-2.77-.49-5.59-.81-9.28.08,12.73,18.89,26.72,35.51,44.86,49.17,5.52-12.55,7.28-26.54,18.26-36.44.47,1.46.93,2.15.85,2.77-.96,7.48-1.83,14.98-3.06,22.43-3.49,21.09-4.68,42.19.62,63.13,2.97,11.71,7.8,22.52,17.52,30.54,15.96,13.15,34.75,14.99,54,12.58,20.43-2.55,37.59-13.14,53.46-25.67,13.28-10.49,24.44-22.99,34.53-36.63,4.57-6.18,8.88-12.81,14.9-17.88l-.06-.07c-1.54,11.68-6.2,22.27-11.52,32.61-2.36,4.6-2.05,5.4,3.18,5.48,17.55.3,35.01-.04,52.49-2.56,32.85-4.73,64.07-14.45,93.82-28.98,19.78-9.66,38.28-21.44,55.64-34.97,8.24-6.42,16.86-12.45,23.55-20.66.88-.46,1.68-.97,1.48-2.16ZM706.46,463.02c-.26-.1-.52-.2-.79-.29-3.61-2.32-7.53-3.86-13.05-6.05,2.96,4.43,4.84,7.35,8.04,9.14.8.91,1.49,1.98,2.43,2.72,18.36,14.55,38.57,25.63,61.02,32.54,21.01,6.46,40.35,2.41,59.03-8.33,16.53-9.5,30.21-22.26,43.27-35.85,1.02-1.06,3.12-1.68,2.36-4.04-4.41-.09-8.79,0-13.14.77-15.37,2.71-30.69,5.67-45.91,9.19-18.55,4.3-37.19,8.12-56.42,7.75-11.78-.22-23.27-2.43-34.8-4.53-1.7-2.06-4.01-1.46-6.2-1.44-.71-.23-1.43-.46-2.14-.69-1.06-1.03-2.36-1.09-3.72-.9ZM1081.2,629.05c-.02.92.56,1.34,1.34,1.59,8.26,6.09,17.61,10.18,26.82,14.48,16.19,7.55,33.32,11.68,51.07,13.32,2.36,1.83,5.14,1.16,7.77,1.23,10.24.29,20.5.03,30.61-1.5,12.78-1.94,25.21-5.32,36.88-11.12,4.81-2.39,8-6.02,10.09-11.01,3.73-8.92,4.66-18.34,5.51-27.78.4-4.51.07-9.09.07-13.85-1.54.14-2.32.02-2.91.3-11.36,5.34-23.35,7.98-35.78,9.62-21.3,2.81-41.68-.24-61.56-7.84-7.31-2.79-14.22-6.37-20.89-10.45-2.45-1.5-4.88-3.5-8.02-3.13-11.67,1.41-23.4.26-35.08.8-2.9-.44-5.8-.89-8.7-1.33-3.5-1.06-6.97-2.23-10.5-3.14-4.34-1.11-5.18-.61-5.99,3.68-.99,5.27-1.95,10.56-2.55,15.89-.52,4.61-.99,9.5,2.05,13.45,5.37,6.96,11.54,13.12,19.77,16.78h.02ZM528.45,838.59v.04c.03-1.2.33-2.46.05-3.58-5.52-21.67-7.51-43.7-6.84-66.02.05-1.6.54-3.42-1.34-4.99-1.63.46-3.53.84-5.3,1.54-12.08,4.76-23.28,11.19-33.68,18.87-5.81,4.29-9.46,10.47-11.91,17.24-1.75,4.82-2.96,9.8-3.51,14.93-.2.44-.55.87-.57,1.32-1.01,19.16-1.5,38.31,3.09,57.16,3.06,12.54,6.81,24.81,14.59,35.41.62,5.21,3.08,9.68,5.79,14.02,7.29,11.66,16.61,21.61,26.63,30.89,3.9,3.61,8.35,6.82,13.01,9.34,6.6,3.57,13.5,6.38,21.52,4.93,20.33-3.66,34.42-16.85,48.39-30.08-1.36-3.26-3.88-3.98-5.84-5.35-7.41-5.17-14.29-11.02-20.41-17.62-10.14-10.93-18.2-23.43-25.78-36.22-1.22-2.06-1.79-4.62-4.37-5.6-3.96-11.15-7.91-22.3-11.87-33.45-.24-1.12.13-2.59-1.66-2.79ZM469.78,121.51l-.09.05c-5.99,1.69-11.13,5.09-15.58,9.16-9.42,8.61-13.74,19.22-10.89,32.19,1.79,8.15,7.08,13.65,13.28,18.6,11.97,9.57,26.44,13.34,40.7,17.43,7.31,2.09,14.12,5.36,21.24,7.84,1.43.5,2.47,1.68,2.53,3.3.07,1.92-1.52,2.23-2.91,2.68-2.55.83-5.05,1.87-7.64,2.5-17.53,4.27-33.52,11.98-48.12,22.37-19.04,13.55-33.37,30.57-37.41,54.55-2.81,16.65,6.24,28.6,20.5,31.05,10.89,1.87,22.38,1.68,33.44-1.24,3.51-.93,6.07-2.48,7.05-6.43.81-3.27,2.31-6.42,3.83-9.46,10-20.06,23.33-37.64,39.58-53.08,16.67-15.84,35.56-27.97,57.37-35.51,13.19-4.56,26.7-7.23,40.56-8.8,14.44-1.63,28.79-1.42,42.85,1.67,10.67,2.35,21.15,5.93,31.38,9.84,11.14,4.26,21.93,9.23,31.66,16.57,9.38,7.08,18.34,14.52,26.64,22.81,4.53,4.53,5.92,3.96,7.69-2.64,8.33-14.59,13.2-30.21,15.21-46.94,3.15-26.18.85-51.67-8.24-76.41-10.26-27.92-27.55-50.73-51.1-68.85-10.51-8.08-21.68-15.29-34.11-19.75-19.18-6.88-38.81-11.77-59.31-5.33-13.93,5.2-22.67,18.47-20.56,31.65,1.04,6.49,2.93,12.76,5.22,18.97,4.81,13.03,11.58,25.28,15.2,38.76,2.18,8.12,4.86,16.17,3.76,25.71-6.42-5.16-11.76-10.44-18.18-14.28-.91-.8-1.74-1.72-2.74-2.39-31.12-21.11-65.43-30.72-102.99-28.06-12.92.92-25.65,3.06-37.03,9.97-1.23-.07-2.23.28-2.79,1.48ZM104.43,812.2c-1.65.34-1.34,1.79-1.63,2.89-1.82,2.14-2.07,4.86-2.79,7.41-2.42,8.68-4.34,17.49-5.57,26.4-1.66,12.06-3.14,24.1-3.38,36.35-.4,20.57,1.57,40.88,4.84,61.11.2,1.23.55,2.35,2,2.88,2.11-.9,2.06-3.13,2.6-4.88,3.19-10.24,6.68-20.36,11.13-30.14,5.66-12.44,12.03-24.49,19.52-35.94,7.88-12.06,16.79-23.2,26.5-33.92,11.34-12.53,24.4-22.48,38.96-30.42,21.22-11.57,44.35-15.64,68.39-14.95,4.12.12,7.94,1.11,11.61,3.6-4.86.81-9.23,2.69-13.84,3.86-19.13,4.84-35.75,14.32-49.58,28.28-10.99,11.08-18.33,24.55-23.08,39.43-8.65,27.09-9.17,54.07.77,81.01,6.2,16.79,14.34,32.56,24.38,47.36.42.61,1.16.7,2.02.11.25-8.63.56-17.37,1.1-26.12,1.3-21.35,6.71-41.38,17.15-59.9,11.74-20.81,27.76-37.05,51.54-43.79,4.99-1.42,7.84-3.93,9.23-9.02,5.22-19.19,13.76-36.99,23.59-54.18,7.26-12.69,15.13-25,23.61-36.95,9.2-12.96,19.85-24.67,30.05-36.77,7.08-8.4,14.74-16.3,22.74-23.83,3.12-2.93,3.62-6.04,2.27-9.91-1.37-3.91-2.44-7.92-3.63-11.89-4.91-16.38-11.39-32.08-20.4-46.66-.55-1.82-1.02-3.69-3.08-4.47l.05.03c-.04-.48.07-1.06-.15-1.43-9.82-16.39-20.66-31.82-35.61-44.2-36.47-30.21-78.05-42.94-125.11-38.03-21.89,2.28-42.48,9.15-61.76,19.29-27.31,14.35-48.86,35.45-66.19,60.83-3.94,5.77-8.48,11.33-10.57,18.23l.06-.04c-2.72,1.66-3.47,4.6-4.66,7.24-.68.99-1.48,1.91-2.03,2.97-15.42,29.51-23,61.39-28.62,93.91-2.03,11.77-2.31,23.69-3.89,35.49-.45,3.33-.44,6.83.32,10.85,2.67-2.49,3.49-4.84,4.38-7.07,3.01-7.5,7.31-14.29,11.24-21.29,7.76-13.86,17.56-26.3,27.29-38.77,9.34-11.97,20.25-22.44,32.23-31.67,13.55-10.43,28.37-18.66,43.96-25.89,17.65-8.19,36.06-11.37,55.08-12.46,8.03-.46,15.94,1.32,23.87,2.54,31.36,4.85,56.9,20.48,78.92,42.59,1.04,1.04,2.99,2.01,1.62,4.15-1.46-.33-2.85-.64-4.23-.95-15.76-10.08-32.59-17.65-51.02-21.32-10.56-2.1-21.07-3.42-31.92-.86-14.1,3.34-27.5,8.18-40.48,14.63-17.4,8.64-31.94,20.88-44.39,35.41-15.74,18.38-26.48,39.77-34.42,62.57-.72,2.08-1.59,4.11-1.05,6.39l.05-.07ZM1106.16,480.79c1.7-13.96-2.55-26-12.44-35.8-16.53-16.39-36.85-22.28-59.57-19.55-12.31,1.48-23,6.81-29,18.48-3.56,6.92-6.33,14.25-6.73,22.21-2.96,17.3,2.96,32.62,10.81,47.41,6.43,12.11,16.55,21.33,27.06,29.41,26.51,20.36,57.02,29.68,90.51,28.87,2.79-.07,5.08.49,7.46,2.18,5.95,4.24,12.4,7.54,19.38,10,9.01,3.18,18.27,5.2,27.64,6.45,11.58,1.54,23.28,1.2,34.87-.4,15.67-2.17,29.23-9.12,41.06-19.35,8.48-7.33,16.16-15.47,20.67-26.03,4.04-4.03,6.23-9.24,8.83-14.15,11.61-21.95,17.97-45.66,21.61-69.99,1.74-11.66,1.92-23.72-.74-35.51-.28-2.07.75-4.53-1.8-5.91l.04.08c.52-3.22-.21-6.24-1.04-9.35-7.62-28.8-25.68-49.97-49.03-67.26-15.84-11.73-33.52-20.07-51.98-26.49-29.72-10.34-60.08-16.87-91.87-11.61-25.04,4.14-45.16,15.76-59.61,37.14-9.56,14.16-14.36,29.77-16.61,46.36-.68,5.05-1.77,10.12-1.25,15.3.26,2.58.56,5.13,4.28,4.02,9.04.17,18.03.85,26.81,3.2,18.44,4.94,34.13,14.25,45.9,29.52,6.03,7.82,9.66,16.84,12.18,26.32.63,8.34.11,16.56-2.5,24.58-1.99,6.09-2.08,6.46,4.19,8.99,19.83,8.01,40.14,13.22,61.88,10.37,18.4-2.41,33.17-10.55,44.06-25.74,12.62-17.58,18.14-37.55,20.25-58.71.29-2.87.12-5.78,3.06-7.6,2.49,2.28,3.27,5.11,4.28,7.85,4.46,12.08,3.03,24.29-.22,36.76,8.77-.78,12.71-9.02,20.84-10.44-3.21,12.79-10.1,21.46-21.66,25.82-4.46,1.68-7.17,4.24-9.32,8.42-13.66,26.45-35.98,39.3-65.27,41.28-17.08,1.16-33.51-1.84-49.77-6.52-1.58-.46-3.18-1.52-4.64.23,3.73,15.72,3.52,20.53-1.28,26.16-.52-.9-1.28-1.67-1.43-2.56-1.93-11.13-8.98-19.25-16-27.38-3.26-3.77-3.78-3.9-7.9-1.19-18.63,12.25-37.54,11.92-56.56,1.16-5.03-2.85-9.62-6.41-11.14-13.82,4.24,1.09,7.78,1.72,11.13,2.92,8.68,3.13,17.68,4.23,26.69,3.05,19.3-2.53,30.03-9.15,33.76-27.71.03-.48.06-.97.09-1.45ZM730.78,868.06l-.08-.08c.98,7.99-4.72,14.11-6.27,21.45,9.41,2.44,18.2-1.59,27.66-2.2-.99,4.44-3.69,6.55-6.44,8.53-7.4,5.32-15.81,7.74-24.79,7.28-5.38-.28-9.45,1.56-13.13,5.03-2.49,2.34-4.92,4.75-7.4,7.12-2.23,2.13-1.73,3.58.89,4.97,8.68,4.61,17.96,4.48,27.18,3.07,16.79-2.57,30.21-11.86,42.59-22.82,3.81-3.37,7.41-7.09,9.39-11.97,8.54-10.89,13.97-23.3,17.74-36.51,5.8-21.55,5.34-43.48,3.9-65.45-1.14-17.38-5.23-34.27-9.73-50.95-6.27-23.25-16.02-45.11-31.41-63.91-18.57-22.7-41.87-32.53-71.37-25.49-18.42,4.4-34.15,14.02-49.81,23.95-4.38,2.69-8.32,5.91-11.8,9.71-4.07,4.45-8.99,7.68-15.11,10.62,1.2-6.67,4.29-11.6,7.18-16.62,2.25-3.91,2.18-3.82-1.75-5.58-2.88-1.29-6.53-1.46-8.45-4.92,5.22-3.35,10.61-4.8,16.29-4.73,4.43.06,7.94-1.35,11.26-4.23,5.34-4.62,11.35-8.36,17.51-11.83,3.1-1.23,6.36-2.16,9.39-5.16-7.88-6.48-16.49-9.15-25.96-8.17-17.74,1.83-33.55,8.55-46.75,20.64-25.52,23.37-40.65,52.74-48.68,86.02-4.09,16.94-5.95,34.12-4.21,51.57-.24.44-.33.9-.26,1.39-2.46,7.52-.39,15.18,1.03,22.22,6.76,33.42,19.8,64.24,41.49,90.93,5.71,7.02,12.47,13.07,20.23,17.84,14.59,8.96,30.29,8.57,45.91,4.13,22.23-6.32,41.01-18.93,58.27-34,8.43-7.36,17-14.56,25.51-21.83ZM846.87,613.93c15.79-4.16,24.95-18.25,22.58-34.37-1.68-11.41-5.97-21.52-13.57-30.27-10.43-12.02-19.89-24.73-26.95-39.09-1.37-2.64-3.2-1.29-4.96-.56-5.84,2.43-11.54,5.24-17.74,6.73-12.84,3.09-25.62,5.3-38.77,1.18-9.77-3.06-19.46-6.28-28.9-10.22-2.37-.99-4.67-2.37-7.62-1.9-.73,5.29-1.17,10.38-2.17,15.36-3.83,19.15-6.27,38.4-5.44,57.98.6,14.22,4.02,27.52,13.38,38.59,9.31,11.02,20.36,19.48,35.24,21.51,20.6-.3,31.56-14.1,35.26-29.07,2.2-8.9,1.93-17.82.51-26.77-2.35-14.78-7.69-28.57-13.97-42.05.24-1.99.82-2.43,2.63-1.02,4.89,3.83,7.38,9.5,11.2,14.15,2.43,2.95,5.08,5.65,7.02,9.12,6.58,11.79,9.85,24.25,8.56,37.71-.53,5.54,2.12,8.6,6.7,10.79,5.45,2.61,11.12,3.24,17.02,2.18ZM1163.28,677.5c-1.21-.18-2.41-.39-3.62-.52-24.99-2.69-48.87-9.12-71.05-21.22-9.25-5.04-17.81-11.1-25.96-17.73-2.57-2.09-4.51-2.77-7.62-.38-23.9,18.36-49.64,19.32-76.62,7.64-1.63-.71-3.17-2.49-5.4-1.33.18,2.66,2.1,4.33,3.33,6.34,4.06,6.67,8.5,13.14,12.25,19.98,13.21,24.07,23.41,49.34,29.87,76.1.72,2.97.37,6.35,2.51,8.95,1.97,10.05,3.62,20.2,2.88,30.45-.94,13.16-7.95,21.6-21.91,18.36-.67-.16-1.41-.02-2.35-.02-1.27,5.36-.31,10.75-.69,16.05-.3,4.13-1.01,8.23-1.12,12.36-.12,4.54.35,4.88,4.47,3.91,5.45-1.29,10.92-2.57,16.24-4.29,22.02-7.14,42.01-18.23,60.74-31.71,1.28-.92,2.23-2.73,5.11-1.59-1.51,4.47-2.97,9.02-4.57,13.51-2.38,6.66-5.2,13.17-7.22,19.93-2.19,7.33-1.03,8.22,6.26,6.79,3.95-.78,7.29-2.62,10.65-4.63,15.62-9.35,27.44-22.56,37.6-37.35,8.56-12.47,16.23-25.52,23.82-38.59,1.3-2.24,2.29-4.71,4.84-6.43,0,3.57.48,6.79-.09,9.82-1.75,9.22-.85,18.51-1.17,27.76-.05,1.58-.63,3.71,1.39,4.48,1.76.67,3.33-.65,4.59-1.69,5.08-4.23,10.01-8.73,13.85-14.08,21.75-30.26,37.14-63.48,45.73-99.79,1.24-5.22.34-6.09-5.1-4.95-10.51,2.21-21.02,4.15-31.85,3.85-6.59-.18-13.19.03-19.78.07ZM500.34,751.92c6.42-2.27,12.78-4.7,19.27-6.72,2.92-.91,3.83-2.93,4.09-5.38.88-8.55,3.21-16.74,6.27-24.68,1.49-3.86.97-6.95-.99-10.33-4.06-7.01-6.58-14.64-8.14-22.57-1.6-8.07-3.09-16.16-4.63-24.24-.5.06-1.06-.03-1.42.2-15.8,10.35-32.97,17.74-50.94,23.34-4.51,1.4-8.39,3.77-11.77,7.01-1.98,1.4-4.04,2.7-5.94,4.21-11.25,8.99-21.95,18.61-32.21,28.72-33.73,33.24-63.66,69.35-84.28,112.39-8.97,18.72-16.41,38.02-18.19,59.01-.33,4.25-.73,8.5.21,13.63,9.04-6.01,12.89-15.59,21.46-22.15-.65,6.4-.95,11.67-1.75,16.85-1.95,12.65-1.8,25.24.46,37.83,2.21,12.32,5.91,24.14,12.09,35.05,4.62,8.16,10.69,15.1,18.71,20.16,1.91,1.2,4.15,2.21,6.19.91,2.28-1.45,2.57-3.95,2.03-6.54-.74-3.57-1.78-7.14-1.99-10.74-.24-3.96-2.71-7.74-1.16-12.45,3.04,2.34,5.75,4.35,8.37,6.46,19.45,15.6,41.67,24.18,66.53,25.11,23.22.87,44.83-5.52,65.11-16.59,5.87-3.2,5.91-4.42-.02-8.28-8.3-5.4-14.69-12.67-21.15-20.05-6.96-7.95-11.59-17.49-18.51-25.4-1.01-2.21-1.98-4.44-3.04-6.62-11.52-23.77-18.02-48.89-19.68-75.21-.74-11.74.41-23.35,3.36-34.81,1.8-6.97,1.08-7.52-6.19-6.62-.97.12-1.92.35-2.89.48-17.81,2.45-33.42,10.25-48.32,19.8-2.34,1.5-4.73,2.9-7.1,4.35,2.45-4.84,5.58-8.8,8.92-12.56,2.91-3.28,6.08-6.31,9.58-9.02,14.01-10.87,29.84-17.43,47.34-19.87,3.92-.55,6.8-1.91,9.07-5.15,6.46-9.24,15.54-15.38,25.19-20.78,5.32-2.97,10.7-5.83,16.05-8.73ZM594.44,231.59c-.95.13-1.97.09-2.85.41-17.62,6.43-33.51,15.77-47.39,28.43-13.63,12.43-25.05,26.67-33.99,42.81-7.23,13.05-13.39,26.62-17.33,41.04-5.67,20.79-8.29,42.06-8.5,63.56-.14,14.14-.2,28.26.99,42.43,1.41,16.74,2.51,33.56,2.91,50.35.54,22.89,1.85,45.84-2.35,68.65-5.38,29.22-15.48,56.36-33.28,80.37-2.61,3.53-5.14,7.12-7.89,10.55-2.17,2.7-.83,4,1.71,4.68,4.8,1.28,9.78,1.3,14.53.29,13.94-2.97,26.94-8.43,39.1-15.87,9.22-5.65,17.35-12.6,24.79-20.44,1.68-1.77,3.1-4.25,6.39-4.57,0,11.64-.11,22.88.03,34.11.12,9.59,2.64,18.78,5.23,27.93.31,1.1.79,2.36,2.69,2.35.45-.6,1.19-1.28,1.55-2.11,4.97-11.56,12.31-21.63,20.1-31.34,8.4-10.48,17.41-20.31,29.18-27.32,11.97-7.14,24.04-13.8,37.99-16.16,4.89-.1,9.78-.42,14.66-.27,14.38.44,27.5,4.16,37.46,15.38,1.46,1.64,2.85,2.35,5.08,1.77,12.41-3.19,25.03-3.19,37.62-1.89.55-2.01-.84-2.95-1.54-4.16-5.15-8.92-9.35-18.14-11.28-28.43-2.88-15.33-2.22-30.63-.43-45.93,1.78-15.27,4.14-30.46,7.76-45.42.79-3.27-.1-5.53-3.05-7.4-3.5-2.21-6.63-5-10.05-7.36-16.09-11.1-29.89-24.36-39.62-41.53-.29-.52-1.12-.73-1.89-1.2-5.99,6.84-9.37,15.11-13.93,22.79-3.83-14.3.36-26.44,9.63-37.07,8.79-10.08,19.09-13.73,28.76-10.61-2.14,3.14-6.16,4.74-7.77,9.51,10.95-1.13,21-2.42,30.48-6.61,13.89-6.14,24.07-16.49,32.56-28.71,4.46-6.42,8.48-13.14,13.05-19.48,11.08-15.37,24.89-26.77,44.42-29.49,1.69-.24,3.33-.84,5.02-.98,2.39-.2,3.38-1.39,3.6-3.71.4-4.21,2-8.04,4.23-11.59,4.69-7.44,12.75-7.81,18.07-.82,3.32,4.36,5.13,9.42,6.36,14.69.45,1.93.78,3.76,2.81,4.83,4.31,2.25,8.76,3.62,14.33,3.67-2.69-21.45-11.2-39.96-19.31-59.16-4.62,2.58-7.74,5.51-10.31,9.1-4.13,5.76-8.32,11.47-12.43,17.24-2.94,4.13-6.92,6.22-11.92,5.75-7.08-.67-9.45-6.9-6.16-11.45,3.15-4.36,5.66-9.18,7.57-14.2,3.77-9.87,7.88-19.48,15.57-27.06,1.75-1.72,1.61-3.36.13-5.13-7.27-8.69-16.33-15.4-25-22.53-1.52-1.25-2.68-.34-3.3,1.32-.34.91-.76,1.81-.99,2.76-3.02,12.37-10.75,22.39-16.74,33.26-2.81,5.11-6.4,5.3-10.69,1.29-1.07-1-1.96-2.18-2.94-3.27-18.62-20.98-40.32-37.59-66.88-47.36-32.11-11.81-64.27-13.25-96.54-.66ZM868.51,653c5.77,2.57,9.69,5.79,13.46,9.24,10.6,9.69,22.64,16.9,36.35,21.33,8.42,2.72,8.6,2.62,8.83-6.02.53-19.8-5.02-38.04-14.03-55.42-1.15-2.22-2.9-4.33-2.84-6.98.74-.23.99-.4,1.17-.35,1.87.51,3.74,1.05,5.61,1.6,15.37,4.5,30.92,7.02,46.94,4.16,1.84-.33,4.43.39,5.05-1.96.57-2.15-1.84-3.19-3.12-4.57-2.16-2.33-4.39-4.6-6.71-6.76-16.18-15.02-30.6-31.56-42.57-50.13-13-20.17-24.11-41.25-30.51-64.59-2.23-8.13-4.21-16.4-7.59-24.39-1.05.56-1.81.76-2.29,1.24-10.36,10.39-21.04,20.41-33.11,28.82-2.21,1.54-2.34,3.16-1.38,5.62,3.36,8.57,8.76,15.75,14.8,22.52,6.02,6.76,11.81,13.7,16.56,21.41,8.69,14.11,13.33,29.05,10.46,45.98-3.54,20.91-22.18,35.08-39.97,35.46-8.68.19-16.8-1.28-24.51-5.9-10.27,19.91-25.52,31.07-48.62,29.53,1.02,3.92,3.09,6,4.93,8.17,3.8,4.48,7.48,9.07,10.42,14.14,7.85,13.5,18.66,24.32,30.44,34.28,10.09,8.53,20.86,16.1,32.6,22.25,2.84,1.49,4.89,1.56,6.61-1.63,2.89-5.37,5.77-10.68,7.5-16.62,4.07-13.96,5.33-28.24,5.51-42.68.07-5.6.01-11.2.01-17.74ZM782.39,1274.14c2.57,0,4.02,0,5.47,0,23.46.12,46.92.32,70.39.34,48.89.03,97.78-.04,146.66-.09,10.14,0,10.68-.94,5.97-9.91-8.97-17.07-26.88-25.38-47.05-21.63-6.47,1.2-12.84,2.99-19.29,4.34-10.58,2.21-21.33,3.55-32.01,1.5-17.95-3.44-30.74-14.17-39.62-29.82-4.34-7.65-7.96-15.67-11.4-23.77-3.15-7.41-6.37-14.8-9.37-22.27-1.25-3.13-2.77-4.06-6.06-2.57-7.82,3.55-16.29,4.9-25.17,6.39,5.16,13.3,10.13,26.28,15.23,39.21,1.89,4.79,3.4,9.65,4.07,14.78,1.23,9.36-2.45,15.02-11.4,17.51-6.4,1.78-13.03,1.9-19.54,2.91-13.25,2.05-22.15,9.18-26.87,23.08ZM881.57,1056.22c-6.31,3.41-10.72,7.63-15.43,11.38-19.54,15.55-40.64,28.71-63.04,39.55-15.31,7.41-30.94,14.38-47.5,18.82-2.42.65-5.09,1.16-6.64,3.83,7.13,5.32,14.16,10.23,21.79,13.99,15.9,7.81,32.38,13.34,50.58,10.41,24.42-3.93,42.49-16.15,51.88-39.64,7.36-18.41,9.84-37.58,8.36-58.34ZM1012.49,1241.82c9.93,8.1,14.71,18.26,17.28,29.61.36,1.6,1.12,2.72,2.85,2.74,6.4.08,12.83.53,19.23-.29-2.07-17.69-21.99-31.16-39.36-32.07Z"/>
      <path class="cls-6" d="M125.15,722.74c.38-.55.66-1.26,1.18-1.62.71-.49,1.87-1.57,2.37-.5.39.83-.48,2.18-2.01,2.08-.51.01-1.03.03-1.54.04Z"/>
      <path class="cls-6" d="M594.44,231.59c32.27-12.59,64.43-11.15,96.54.66,26.56,9.77,48.26,26.39,66.88,47.36.97,1.1,1.87,2.28,2.94,3.27,4.3,4.01,7.88,3.82,10.69-1.29,5.98-10.87,13.72-20.89,16.74-33.26.23-.94.65-1.84.99-2.76.62-1.65,1.78-2.57,3.3-1.32,8.67,7.14,17.72,13.85,25,22.53,1.48,1.77,1.62,3.4-.13,5.13-7.69,7.58-11.8,17.2-15.57,27.06-1.92,5.02-4.42,9.84-7.57,14.2-3.29,4.55-.93,10.79,6.16,11.45,5,.47,8.99-1.62,11.92-5.75,4.1-5.77,8.3-11.49,12.43-17.24,2.57-3.59,5.7-6.52,10.31-9.1,8.12,19.2,16.62,37.71,19.31,59.16-5.56-.06-10.02-1.42-14.33-3.67-2.03-1.06-2.36-2.89-2.81-4.83-1.23-5.27-3.04-10.33-6.36-14.69-5.32-7-13.38-6.63-18.07.82-2.24,3.55-3.83,7.38-4.23,11.59-.22,2.32-1.21,3.51-3.6,3.71-1.69.14-3.33.74-5.02.98-19.53,2.72-33.34,14.13-44.42,29.49-4.57,6.33-8.59,13.06-13.05,19.48-8.49,12.22-18.67,22.58-32.56,28.71-9.48,4.19-19.53,5.48-30.48,6.61,1.61-4.77,5.63-6.38,7.77-9.51-9.66-3.12-19.96.53-28.76,10.61-9.27,10.63-13.45,22.77-9.63,37.07,4.56-7.68,7.93-15.95,13.93-22.79.77.47,1.6.68,1.89,1.2,9.74,17.16,23.53,30.43,39.62,41.53,3.42,2.36,6.54,5.15,10.05,7.36,2.95,1.86,3.84,4.13,3.05,7.4-3.61,14.96-5.97,30.15-7.76,45.42-1.79,15.31-2.45,30.6.43,45.93,1.93,10.29,6.13,19.5,11.28,28.43.7,1.21,2.09,2.15,1.54,4.16-12.59-1.3-25.21-1.3-37.62,1.89-2.23.57-3.62-.13-5.08-1.77-9.96-11.22-23.08-14.94-37.46-15.38-4.88-.15-9.77.17-14.66.27-3.59-8.64-5.2-17.87-7.69-27.73-7.31,13.83-17.03,24.35-27.66,34.07-2.88,2.63-6.21,4.7-10.05,5.77-4.58,1.28-6.9.26-8.7-4.06-.65-1.56-1.2-3.22-1.46-4.89-2.37-15.12-5.19-30.2-4.56-45.63.07-1.74.66-3.75-1.37-6.01-9.98,18.08-24.05,30.58-44.33,37.05,3.03-17.09,6.19-33.24,8.16-49.59,1.26-10.5,1.53-21.01.44-31.35-1.32-12.54-2.31-25.12-3.93-37.63-1.31-10.11-2.32-20.27-3.43-30.4-1.59-14.48-3.88-28.88-3.89-43.5,0-11.2.49-22.36,1.12-33.55.6-10.5,1.95-20.83,3.99-31.04,4.39-21.89,12.13-42.58,24.08-61.56,9.38-14.91,19.7-28.88,34.5-39.2,4.1-2.86,9.8-4.91,11.2-10.89ZM691.43,335.36c-19.11,11.02-18.54,27.57-15.39,44.9-3.01,1.41-5.87.38-8.74.09-15.7-1.55-30.71,1.1-44.72,8.26-4.31,2.2-9.01,4.79-10.52,10.8,3.65.43,6.56-.87,9.52-1.66,12.6-3.35,25.41-4.36,38.4-4.06,16.67.39,32.1,5.46,47.27,11.78,2.54,1.06,5.15,2.97,8.23,1.24-.08-2.44-1.31-4.43-2.92-5.79-4.48-3.77-3.85-7.22-1.04-11.95,6.3-10.6,7.58-21.94,3.07-33.75-1.62-4.24-3.95-8.16-6.58-13.25,4.64.7,7.96,1.4,11.31,1.67,7.14.57,13.66-.89,18.29-6.93,3.06-3.99,2.6-5.82-2.19-7.41-10.12-3.37-18.76-9.21-27.34-15.33-10.52-7.5-20.44-15.99-32.2-21.59-23.62-11.24-42.97-7.66-60.32,9.51-2.76,2.73-5.12,5.86-3.26,9.68,1.85,3.82,5.74,2.59,9.12,2.3,8.76-.74,17.6-1.89,26.23.5,15.43,4.26,29.38,11.69,43.76,20.99Z"/>
      <path class="cls-5" d="M307.65,715.44c1.39.31,2.77.62,4.23.95,1.37-2.14-.58-3.1-1.62-4.15-22.03-22.11-47.56-37.74-78.92-42.59-7.92-1.23-15.84-3-23.87-2.54-19.02,1.09-37.43,4.27-55.08,12.46-15.59,7.23-30.41,15.47-43.96,25.89-11.99,9.23-22.89,19.7-32.23,31.67-9.74,12.47-19.53,24.92-27.29,38.77-3.92,7-8.23,13.8-11.24,21.29-.89,2.22-1.71,4.58-4.38,7.07-.76-4.02-.77-7.52-.32-10.85,1.58-11.8,1.86-23.72,3.89-35.49,5.62-32.52,13.21-64.4,28.62-93.91.55-1.06,1.35-1.98,2.03-2.97,3.8-.97,4.04-4.22,4.66-7.24,0,0-.06.04-.06.04,1.69.07,2.44-1.15,3.49-2.22,9.06-9.23,17.63-19.07,27.49-27.37,17.77-14.96,37.48-26.87,58.96-36.15,23.51-10.15,48.25-12.64,73.22-14.69,8.78,2.49,17.88.89,26.84,2.44,22.15,3.82,42.64,11.69,61.97,22.87,7.85,4.54,14.35,10.92,21.08,16.86,7.82,6.9,16.62,12.87,22.6,21.72.87,1.28,2.14,1.96,3.74,1.88,0,0-.05-.03-.05-.03-.11,2.27,1.06,3.66,3.08,4.47,9.02,14.59,15.5,30.28,20.4,46.66,1.19,3.97,2.26,7.98,3.63,11.89,1.35,3.87.85,6.98-2.27,9.91-8.01,7.53-15.66,15.42-22.74,23.83-10.2,12.1-20.85,23.82-30.05,36.77-8.48,11.95-16.35,24.25-23.61,36.95-9.84,17.19-18.38,34.99-23.59,54.18-1.38,5.09-4.23,7.61-9.23,9.02-23.78,6.74-39.8,22.98-51.54,43.79-10.45,18.52-15.85,38.55-17.15,59.9-.53,8.75-.85,17.5-1.1,26.12-.85.59-1.6.5-2.02-.11-10.04-14.8-18.18-30.57-24.38-47.36-9.94-26.93-9.42-53.91-.77-81.01,4.75-14.88,12.09-28.34,23.08-39.43,13.84-13.95,30.46-23.44,49.58-28.28,4.61-1.16,8.98-3.05,13.84-3.86-3.67-2.48-7.49-3.48-11.61-3.6-24.04-.69-47.17,3.38-68.39,14.95-14.56,7.94-27.62,17.89-38.96,30.42-9.71,10.73-18.62,21.86-26.5,33.92-7.49,11.45-13.86,23.49-19.52,35.94-4.44,9.78-7.94,19.9-11.13,30.14-.54,1.75-.49,3.98-2.6,4.88-1.44-.53-1.8-1.65-2-2.88-3.27-20.24-5.24-40.54-4.84-61.11.24-12.24,1.72-24.29,3.38-36.35,1.23-8.92,3.14-17.72,5.57-26.4.71-2.55.97-5.27,2.79-7.41,3.07.46,1.04-1.96,1.62-2.89,0,0-.05.07-.05.07,2.6-.99,3.29-3.52,4.29-5.66,5.38-11.52,12.14-22.19,19.98-32.17,3.91-4.96,8.25-9.58,12.19-14.52,7.49-9.4,16.57-17.16,26.06-24.31,19.17-14.45,40.89-23.16,64.57-27.13,11.6-1.95,23.3-2.89,34.86-1.16,12.91,1.93,26.05,3.15,38.39,7.99.85.34,1.93.1,2.9.13Z"/>
      <path class="cls-6" d="M936.67,698.69c3.48-5.24,4.81-11.13,5.18-17.3.73-12.29-.51-24.32-4.11-36.14-.7-2.3-3.16-4.95-.55-7.41,1.8-1.69,5.06-.32,7.74,3.61,8.9,13.09,18.82,25.49,26.76,39.21,16.78,28.98,28.09,59.95,33.01,93.15.32,2.17.42,4.37.53,6.57.05.94-.14,1.9-.33,4.16-6.24-3.78-10.66-8.55-15.5-12.76-4.75-4.15-9.51-8.29-14.64-12.75,1.29,11.93,3.7,23.1,4.61,34.51,1.68,20.86,0,41.45-4,61.86-5.46,27.9-15.09,54.44-27.76,79.85-12.56,25.22-27.64,48.8-46.52,69.81-6.51,7.24-12,15.42-19.76,21.51.03-2.44.19-4.76,1.85-6.84,3.17-3.96,6.26-7.99,9.17-12.14,3.28-4.69,7.69-8.74,8.67-14.79.79-.21,1.23-.73,1.39-1.52.21-.26.42-.52.64-.78-.25.22-.5.44-.75.66-.79.16-1.27.65-1.5,1.41-1.55.13-2.76.89-3.8,1.99-4.55,4.8-9.76,8.87-15.11,12.67-19.96,14.17-41.42,25.6-64.44,34-19.05,6.95-38.68,11.17-58.87,13.29-13.76,1.45-27.27,3.27-41.31,1.57-19.81-2.4-38.54-7.32-56.47-16.12-13.59-6.67-23.12-17.73-33.17-28.31-3.25-3.42-2.82-4.72.82-6.71,15.11-8.26,28.61-18.56,40.11-31.42.65-.73,1.37-1.39,2.02-2.13,1.44-1.63,2.93-1.92,5.17-1.27,9.14,2.62,18.28,3.33,27.98,2.36,16.99-1.69,32.28-7.27,46.2-16.63,15.57-10.47,27.62-24.45,37.59-40.26,1.17-1.86,2.19-3.83,2.18-6.13,13.48-17.61,23.87-36.78,28.04-58.74,3.96-20.89,4.98-41.97,2.97-63.22-1.08-11.4-3.08-22.62-4.87-33.89,3.45,2.27,6.86,4.63,10.37,6.8,8.7,5.38,17.3,10.95,26.57,15.35,2.84,1.35,5.41,2.03,8.07-.42,10.52-9.68,19.06-20.84,25.2-33.76,4.24-8.93,7.48-18.25,9.5-28.52,2.45,1.56,4.27,2.74,6.11,3.88,7.92,4.88,16.75,7.84,25.11,11.8,3.27,1.55,5.02.58,5.59-2.89,1.49-9.04,4.05-17.92,4.31-27.16ZM848.94,889.76c-1.27,11.95-.87,23.78,1.94,35.38,1.51,6.21,4.31,7.47,10.18,5.21,4.82-1.85,8.94-4.86,12.86-8.24,11.07-9.52,17.64-21.92,22.79-35.23,2.3-5.95,4.29-12.02,6.62-18.58,1.72,1.83,2.94,2.99,4.01,4.29,1.08,1.31,1.88,2.86,3.02,4.12,3.69,4.1,7.16,4.28,11.38.66,3.57-3.06,6.62-6.66,8.26-11.03,8.85-23.46,10.72-47.3,3.42-71.56-1.17-3.9-2.84-7.52-5.86-10.63,2.09,27.99,3.53,55.69-11.09,81.74-7.35-9.59-12.3-19.95-21.49-28.47-1.52,33.56-12.64,61.94-36.44,86.15.03-6.91-1.55-12.3-3.45-17.54-1.96-5.41-2.44-11.33-6.15-16.29Z"/>
      <path class="cls-2" d="M538.33,788.77c-.06-.49.02-.96.26-1.39,3.1-3.28,1.19-7.48,2-11.2,5.67-26.05,13.26-51.37,25.68-75.16,6.84-13.11,14.9-25.14,25.73-35.26,17.69-16.54,37.68-26.81,62.8-23.27-6.15,3.47-12.16,7.2-17.51,11.83-3.32,2.88-6.82,4.29-11.26,4.23-5.67-.07-11.06,1.38-16.29,4.73,1.91,3.47,5.57,3.63,8.45,4.92,3.94,1.76,4.01,1.67,1.75,5.58-2.89,5.02-5.98,9.94-7.18,16.62,6.12-2.93,11.04-6.17,15.11-10.62,3.48-3.8,7.42-7.02,11.8-9.71.83,1.28,1.88,1.22,3.14.66,13.84-6.25,28.25-10.42,43.4-12,5.86-.61,11.84-1.13,17.53-.07,16.98,3.18,30.78,12.03,41.33,25.63,12,15.47,21.76,32.37,29.52,50.32,7.07,16.34,12.32,33.35,16.32,50.69,2.84,12.3,4.98,24.72,6.1,37.36.57,6.36,1.13,12.44-.06,18.8-.62,3.32-1.7,7.27,1.14,10.47-3.77,13.21-9.2,25.62-17.74,36.51-3.72-.63-2.7-3.58-2.62-5.8.21-5.93-.32-11.74-2.85-17.12-6.62-14.13-17.95-18.42-33.82-17.71-9.63.43-19.08,3.27-28.18,7.01-12.67,5.21-24.45,12.18-36.9,17.78-15.63,7.03-31.71,11.79-49.23,11.7-23.1-.11-40.54-11.46-55.19-27.35-12.49-13.54-19.76-30.5-25.95-47.8-2.43-6.79-3.82-13.96-7.31-20.37ZM712.45,709.73c7.83.9,12.6-3.52,14.05-13.19,2.01-13.38-15.85-30.19-28.97-28.4-10.62,1.45-15.79,7.2-13.24,17.65,1.33,5.44,4.35,9.99,8.06,13.66,5.48,5.4,11.35,10.9,20.1,10.29ZM730.52,730.16c4.1.4,6.56-1.85,7.06-6.46.42-3.91-3.46-9.07-7.25-9.63-3.67-.54-7.92,3.38-8.2,7.58-.27,3.96,3.78,8.06,8.39,8.52Z"/>
      <path class="cls-5" d="M615.33,140.51c6.42,3.83,11.76,9.11,18.18,14.28,1.1-9.54-1.59-17.59-3.76-25.71-3.62-13.48-10.39-25.74-15.2-38.76-2.29-6.2-4.18-12.48-5.22-18.97-2.11-13.18,6.63-26.45,20.56-31.65,1.75,1.98,4.13,2.29,6.56,2.76,19.41,3.75,37.23,11.53,53.76,22.15,15.01,9.65,28.59,20.96,40.14,34.83,10.56,12.68,19.53,26.21,26.04,41.29,14.21,32.9,16.61,67.31,12.69,102.51-.51,4.58-2.38,9.01-1.63,13.73-1.77,6.6-3.15,7.17-7.69,2.64-8.3-8.3-17.26-15.73-26.64-22.81-9.72-7.34-20.52-12.31-31.66-16.57-10.23-3.91-20.7-7.5-31.38-9.84-14.07-3.09-28.42-3.3-42.85-1.67-13.86,1.57-27.37,4.24-40.56,8.8-21.81,7.54-40.7,19.67-57.37,35.51-16.25,15.44-29.58,33.01-39.58,53.08-1.52,3.04-3.02,6.19-3.83,9.46-.97,3.95-3.54,5.5-7.05,6.43-11.06,2.92-22.56,3.11-33.44,1.24-14.26-2.45-23.31-14.4-20.5-31.05,4.05-23.98,18.38-41,37.41-54.55,14.6-10.39,30.59-18.1,48.12-22.37,2.6-.63,5.09-1.67,7.64-2.5,1.39-.45,2.98-.77,2.91-2.68-.06-1.62-1.1-2.8-2.53-3.3-7.13-2.48-13.94-5.75-21.24-7.84-14.27-4.09-28.74-7.86-40.7-17.43-6.2-4.96-11.49-10.45-13.28-18.6-2.85-12.97,1.46-23.58,10.89-32.19,4.45-4.06,9.59-7.47,15.58-9.16,0,1.47-.05,2.93-.02,4.4.16,6.06.34,6.33,6.37,4.25,12.3-4.26,25.06-6.23,37.91-7.08,28.27-1.86,55.89,1.6,82.72,11.11,6.17,2.19,12.07,5.31,18.66,6.27Z"/>
      <path class="cls-5" d="M901.02,992.8c-.98,6.04-5.4,10.1-8.68,14.78-2.91,4.15-6,8.18-9.17,12.14-1.66,2.08-1.82,4.4-1.85,6.84,0,0-.2-.06-.2-.06-2.44-.56-3.78.24-3.62,2.91,0,0-.03.02-.03.02-1.28.18-1.53,1.07-1.48,2.16-6.69,8.2-15.31,14.23-23.55,20.66-17.36,13.53-35.86,25.31-55.64,34.97-29.74,14.53-60.96,24.25-93.82,28.98-17.47,2.52-34.94,2.85-52.49,2.56-5.23-.09-5.55-.89-3.18-5.48,5.32-10.34,9.97-20.93,11.52-32.61.11-.16.23-.32.34-.48-.09.18-.18.36-.27.54-6.02,5.07-10.33,11.7-14.9,17.88-10.08,13.65-21.25,26.15-34.53,36.63-15.86,12.53-33.02,23.11-53.46,25.67-19.25,2.41-38.04.57-54-12.58-9.73-8.02-14.56-18.83-17.52-30.54-5.3-20.94-4.12-42.03-.62-63.13,1.23-7.44,2.1-14.94,3.06-22.43.08-.62-.38-1.3-.85-2.77-10.97,9.9-12.73,23.89-18.26,36.44-18.14-13.66-32.13-30.27-44.86-49.17,3.69-.89,6.51-.57,9.28-.08,7.29,1.28,14.53.77,21.85.14,9.01-.78,17.94-1.79,26.66-4.16,18.24-4.96,35.39-12.52,51.58-22.22,2.49-1.49,4.55-2.02,7.47-1.28,4.01,1.02,8.17.69,12.31-.26,17.73-4.07,33.24-12.37,47.22-23.9,6.05-4.99,11.68-10.37,17.11-15.99,2.18-2.25,4.48-3.52,7.72-3.29,17.39,1.24,33.35-3.67,48.33-11.98,5.07-2.81,8.91-2.72,14.06.42,20.62,12.53,42.12,11.68,63.72,2.48,12.7-5.41,24.18-12.69,33.74-22.81,1.61-1.71,2.94-3.99,5.67-4.34,0,2.31-1.01,4.27-2.18,6.13-9.97,15.81-22.01,29.79-37.59,40.26-13.92,9.36-29.22,14.94-46.2,16.63-9.7.97-18.84.26-27.98-2.36-2.25-.64-3.73-.36-5.17,1.27-.65.73-1.37,1.4-2.02,2.13-11.5,12.86-25,23.16-40.11,31.42-3.64,1.99-4.08,3.29-.82,6.71,10.05,10.57,19.58,21.64,33.17,28.31,17.93,8.8,36.66,13.72,56.47,16.12,14.04,1.7,27.54-.12,41.31-1.57,20.19-2.12,39.81-6.34,58.87-13.29,23.03-8.4,44.48-19.83,64.44-34,5.34-3.79,10.56-7.86,15.11-12.67,1.04-1.09,2.25-1.86,3.8-1.99l.23.23Z"/>
      <path class="cls-6" d="M311.47,892.88c1.78-20.99,9.22-40.28,18.19-59.01,20.61-43.03,50.55-79.15,84.28-112.39,10.26-10.11,20.96-19.73,32.21-28.72,1.89-1.51,3.95-2.81,5.94-4.21.44,1.83-.68,3.92,1.31,5.97,8.88-2.52,18.28-2.81,27.73-2.58,2.7.07,5.24.42,7.77,1.53,9.46,4.16,13.97,11.59,14.56,21.64.73,12.41-.37,24.68-3.11,36.8-5.35,2.91-10.74,5.76-16.05,8.73-9.65,5.4-18.74,11.53-25.19,20.78-2.26,3.24-5.15,4.6-9.07,5.15-17.49,2.44-33.32,9-47.34,19.87-3.5,2.71-6.66,5.74-9.58,9.02-3.34,3.76-6.47,7.72-8.92,12.56,2.37-1.45,4.77-2.86,7.1-4.35,14.9-9.55,30.51-17.35,48.32-19.8.97-.13,1.92-.36,2.89-.48,7.27-.89,7.99-.35,6.19,6.62-2.95,11.46-4.11,23.07-3.36,34.81,1.67,26.32,8.16,51.44,19.68,75.21,1.06,2.19,2.03,4.42,3.04,6.62-18.75,6.32-37.16,6.49-55.19-2.69-3.44-1.75-6.7-4.04-10.67-4.62-.24-.72-.46-.84-.57-.33-.01.05.4.19.61.28-.01,2.63,1.35,4.74,2.98,6.51,3.64,3.94,6.5,8.54,10.56,12.12,1.81,1.6,3.48,3.4,4.5,5.71,1.5,3.4.85,4.85-2.66,6.01-3.27,1.09-6.23-.35-9.3-.96-14.57-2.9-27.09-9.37-36.63-21.01-1.85-2.25-3.46-4.72-5.47-6.82-1.39-1.45-2.52-4.24-5.06-3.21-2.1.85-1.38,3.41-1.42,5.3-.07,3.29-.02,6.59-.02,10.46-4.84-3.47-4.91-3.44-6.55-6.68-8.86-17.5-11.66-35.95-8.62-55.31.51-3.23.73-6.48.17-9.54-10.2,9.77-20.06,19.16-29.81,28.67-1.06,1.03-1.75,2.32-3.43,2.32Z"/>
      <path class="cls-5" d="M1106.07,482.25c-3.73,18.56-14.46,25.18-33.76,27.71-9.01,1.18-18.01.08-26.69-3.05-3.34-1.2-6.89-1.83-11.13-2.92,1.52,7.41,6.1,10.97,11.14,13.82,19.03,10.77,37.93,11.09,56.56-1.16,4.12-2.71,4.64-2.58,7.9,1.19,7.02,8.13,14.06,16.25,16,27.38.15.88.91,1.66,1.43,2.56,4.8-5.63,5.01-10.45,1.28-26.16,1.46-1.75,3.05-.69,4.64-.23,16.26,4.68,32.7,7.68,49.77,6.52,29.29-1.98,51.61-14.83,65.27-41.28,2.16-4.18,4.86-6.74,9.32-8.42,11.56-4.36,18.45-13.03,21.66-25.82-8.13,1.43-12.07,9.66-20.84,10.44,3.25-12.48,4.68-24.68.22-36.76-1.01-2.74-1.8-5.57-4.28-7.85-2.94,1.82-2.77,4.73-3.06,7.6-2.12,21.16-7.63,41.13-20.25,58.71-10.9,15.19-25.67,23.32-44.06,25.74-21.74,2.85-42.05-2.36-61.88-10.37-6.27-2.53-6.18-2.9-4.19-8.99,2.62-8.02,3.14-16.24,2.51-24.58,1.53-.17,2.83.51,4.2,1.07,19.55,7.92,39.59,11.58,60.71,7.68,15.06-2.78,26.78-9.87,33.7-23.89,4.97-10.06,10.12-19.9,17.13-28.85,6.65-8.49,15.3-12.57,25.25-14.73,3.92-.85,7.77.07,10.99,2.81,6.45,5.47,11.6,11.85,14.03,20.12,2.48,8.42,4.15,16.95,4.38,25.8.37,14.17-.1,28.27-3.08,42.16-2.14,9.97-3.95,19.99-7.86,29.57-2.16,5.31-5.21,10.54-5.19,16.61-4.51,10.57-12.19,18.71-20.67,26.03-11.82,10.22-25.39,17.17-41.06,19.35-11.59,1.61-23.29,1.95-34.87.4-9.37-1.25-18.63-3.26-27.64-6.45-6.97-2.46-13.42-5.76-19.38-10-2.38-1.69-4.67-2.25-7.46-2.18-33.49.81-64-8.5-90.51-28.87-10.51-8.07-20.63-17.3-27.06-29.41-7.85-14.79-13.77-30.11-10.81-47.41,1.97,0,2.22-2.16,3.63-2.87,2.39,1.22,5.11,2.05,7.13,3.72,9.89,8.17,21.39,13.53,32.78,19.03,14.06,6.79,28.86,8.67,44.13,4.94,7.12-1.74,13.42-5.56,19.98-8.7Z"/>
      <path class="cls-2" d="M1277.88,544.66c-.02-6.07,3.03-11.29,5.19-16.61,3.9-9.58,5.72-19.61,7.86-29.57,2.98-13.88,3.44-27.99,3.08-42.16-.23-8.84-1.91-17.37-4.38-25.8-2.43-8.27-7.58-14.64-14.03-20.12-3.22-2.73-7.07-3.66-10.99-2.81-9.95,2.16-18.6,6.23-25.25,14.73-7.01,8.95-12.16,18.79-17.13,28.85-6.93,14.02-18.64,21.11-33.7,23.89-21.12,3.9-41.15.23-60.71-7.68-1.37-.55-2.67-1.23-4.2-1.07-2.52-9.49-6.15-18.5-12.18-26.32-11.77-15.27-27.46-24.58-45.9-29.52-8.78-2.35-17.77-3.03-26.81-3.2,1.85-11.1,5.07-21.91,9.28-32.24,8.65-21.19,22.59-37.41,45.38-44.25.7.78.35,1.46.23,2.17-2.2,12.11,2.16,19.32,14.03,22.4,6.67,1.73,13.55,1.32,20.31.17,3.6-.61,7.1-1.68,10.29-3.6,8.13-4.9,8.63-15.74.91-21.26-2.24-1.6-4.56-3.11-6.97-4.75,3.23-2.49,6.52-2.22,9.61-1.79,11.31,1.57,22.48,3.89,33.6,6.5,23.89,5.59,46.42,14.67,68.14,25.97,24.44,12.71,43.38,31.11,57.75,54.47,1.63,2.65,1.37,6.34,4.53,8.1,0,0-.04-.08-.04-.08.04,2.14-1.02,4.61,1.8,5.91,2.65,11.78,2.48,23.85.74,35.51-3.64,24.33-9.99,48.04-21.61,69.99-2.6,4.91-4.79,10.12-8.83,14.15ZM1162.13,357.7c5.62.18,8.51-1.95,8.69-6.41.19-4.8-2.9-7.27-8.8-7.02-4.47.19-8.63,3.49-8.86,7.02-.23,3.68,3.32,6.21,8.98,6.4Z"/>
      <path class="cls-5" d="M594.44,231.59c-1.39,5.98-7.1,8.03-11.2,10.89-14.79,10.32-25.11,24.29-34.5,39.2-11.95,18.98-19.69,39.67-24.08,61.56-2.05,10.21-3.4,20.54-3.99,31.04-.63,11.19-1.12,22.36-1.12,33.55,0,14.62,2.3,29.02,3.89,43.5,1.11,10.13,2.12,20.29,3.43,30.4,1.62,12.51,2.62,25.1,3.93,37.63,1.09,10.34.82,20.85-.44,31.35-1.96,16.35-5.12,32.5-8.16,49.59,20.28-6.47,34.36-18.97,44.33-37.05,2.03,2.26,1.44,4.27,1.37,6.01-.63,15.43,2.2,30.51,4.56,45.63.26,1.67.81,3.33,1.46,4.89,1.8,4.32,4.12,5.33,8.7,4.06,3.84-1.07,7.18-3.14,10.05-5.77,10.64-9.73,20.36-20.24,27.66-34.07,2.5,9.85,4.1,19.09,7.69,27.73-13.95,2.37-26.03,9.03-37.99,16.16-11.77,7.02-20.78,16.85-29.18,27.32-7.79,9.72-15.13,19.78-20.1,31.34-.36.84-1.1,1.51-1.55,2.11-1.89.02-2.37-1.25-2.69-2.35-2.6-9.15-5.11-18.34-5.23-27.93-.14-11.23-.03-22.46-.03-34.11-3.29.32-4.71,2.8-6.39,4.57-7.43,7.84-15.56,14.79-24.79,20.44-12.16,7.44-25.16,12.91-39.1,15.87-4.75,1.01-9.73,1-14.53-.29-2.54-.68-3.87-1.98-1.71-4.68,2.74-3.42,5.27-7.02,7.89-10.55,17.8-24.01,27.89-51.15,33.28-80.37,4.2-22.82,2.9-45.77,2.35-68.65-.4-16.79-1.5-33.61-2.91-50.35-1.19-14.17-1.13-28.29-.99-42.43.21-21.5,2.83-42.77,8.5-63.56,3.94-14.43,10.1-27.99,17.33-41.04,8.94-16.14,20.36-30.38,33.99-42.81,13.87-12.65,29.77-22,47.39-28.43.88-.32,1.9-.28,2.85-.41Z"/>
      <path class="cls-6" d="M868.51,653c0,6.55.06,12.15-.01,17.74-.18,14.44-1.44,28.72-5.51,42.68-1.73,5.94-4.61,11.25-7.5,16.62-1.71,3.19-3.77,3.12-6.61,1.63-11.74-6.15-22.51-13.72-32.6-22.25-11.78-9.96-22.6-20.78-30.44-34.28-2.94-5.06-6.63-9.65-10.42-14.14-1.84-2.17-3.91-4.25-4.93-8.17,23.1,1.54,38.35-9.61,48.62-29.53,7.71,4.62,15.82,6.08,24.51,5.9,17.8-.38,36.43-14.55,39.97-35.46,2.87-16.93-1.78-31.87-10.46-45.98-4.75-7.71-10.54-14.65-16.56-21.41-6.03-6.77-11.44-13.95-14.8-22.52-.96-2.46-.83-4.08,1.38-5.62,12.08-8.41,22.75-18.43,33.11-28.82.48-.48,1.24-.68,2.29-1.24,3.37,7.99,5.36,16.25,7.59,24.39,6.4,23.34,17.51,44.42,30.51,64.59,11.97,18.57,26.38,35.11,42.57,50.13,2.33,2.16,4.55,4.43,6.71,6.76,1.27,1.37,3.68,2.42,3.12,4.57-.62,2.35-3.21,1.63-5.05,1.96-16.02,2.87-31.57.34-46.94-4.16-1.86-.55-3.73-1.09-5.61-1.6-.19-.05-.43.12-1.17.35-.07,2.65,1.68,4.76,2.84,6.98,9,17.39,14.56,35.62,14.03,55.42-.23,8.64-.4,8.74-8.83,6.02-13.71-4.43-25.75-11.63-36.35-21.33-3.77-3.45-7.69-6.67-13.46-9.24Z"/>
      <path class="cls-5" d="M1163.28,677.5c6.6-.04,13.2-.26,19.78-.07,10.83.3,21.34-1.64,31.85-3.85,5.44-1.14,6.34-.27,5.1,4.95-8.59,36.31-23.98,69.53-45.73,99.79-3.84,5.35-8.77,9.85-13.85,14.08-1.26,1.05-2.83,2.37-4.59,1.69-2.02-.77-1.45-2.9-1.39-4.48.32-9.25-.58-18.54,1.17-27.76.57-3.02.09-6.25.09-9.82-2.56,1.73-3.54,4.2-4.84,6.43-7.6,13.08-15.26,26.12-23.82,38.59-10.15,14.79-21.97,28-37.6,37.35-3.36,2.01-6.7,3.86-10.65,4.63-7.29,1.44-8.45.54-6.26-6.79,2.02-6.76,4.84-13.28,7.22-19.93,1.61-4.5,3.07-9.04,4.57-13.51-2.87-1.14-3.83.67-5.11,1.59-18.73,13.49-38.72,24.58-60.74,31.71-5.32,1.72-10.79,3-16.24,4.29-4.11.98-4.59.64-4.47-3.91.11-4.13.82-8.23,1.12-12.36.38-5.3-.58-10.69.69-16.05.94,0,1.68-.14,2.35.02,13.95,3.24,20.96-5.2,21.91-18.36.73-10.25-.91-20.39-2.88-30.45,11.43,4.05,22.53,2.31,33.33-2.24,11.07-4.66,21.19-11,30.6-18.48,2.84-2.26,5.76-4.41,8.64-6.61-1.58,5.8-4.02,10.56-6.33,15.4-1.36,2.86-2.6,5.78-3.72,8.74-1.14,3.03-2.09,6.74.14,9.05,2.64,2.74,6.29.96,9.54-.24,17.37-6.41,30.23-18.88,41.47-32.69,12.34-15.16,21.15-32.67,28.65-50.74Z"/>
      <path class="cls-6" d="M1163.28,677.5c-7.5,18.08-16.31,35.58-28.65,50.74-11.25,13.81-24.1,26.29-41.47,32.69-3.25,1.2-6.9,2.99-9.54.24-2.23-2.32-1.28-6.03-.14-9.05,1.12-2.96,2.35-5.89,3.72-8.74,2.31-4.83,4.76-9.6,6.33-15.4-2.88,2.2-5.8,4.35-8.64,6.61-9.41,7.48-19.53,13.82-30.6,18.48-10.79,4.54-21.9,6.29-33.33,2.24-2.14-2.6-1.79-5.98-2.51-8.95-6.46-26.76-16.66-52.02-29.87-76.1-3.75-6.84-8.19-13.3-12.25-19.98-1.22-2.01-3.15-3.68-3.33-6.34,2.23-1.15,3.77.63,5.4,1.33,26.98,11.68,52.72,10.72,76.62-7.64,3.1-2.38,5.05-1.71,7.62.38,8.15,6.64,16.71,12.69,25.96,17.73,22.18,12.1,46.06,18.53,71.05,21.22,1.21.13,2.41.35,3.62.52Z"/>
      <path class="cls-1" d="M844.91,365.17c1.37,1.05,3.35-1.33,4.54.79,1.16,2.32,3.6,1.15,5.32,1.94,0,0-.02-.02,0-.02.44.91,2.29,1.94.32,2.74-1.51.61-3.42.15-5.04.56-3.13.79-4.7,6.29-2.04,7.45,5.28,2.32,10.55,6.69,16.48,5.03,7.06-1.97,13.63-2.02,20.39.32,0,0-.15-.1-.15-.1.61.54,1.22,1.09,1.84,1.63.44-.2.79-.1,1.05.31.85-.07,1.43.24,1.6,1.14,0,0-.12-.07-.12-.07.53.52,1.07,1.05,1.6,1.57,0,0-.15-.15-.15-.15.54.54,1.08,1.08,1.62,1.62,0,0-.11-.18-.11-.18,1.42,5.03,1.61,11.01,4.56,14.85,3.69,4.8,9.67,7.85,14.66,11.66,0,0-.17-.12-.17-.12.81.89.24,2.51,1.62,3.11,0,0-.14-.19-.14-.19.43,3.19.1,6.65,3.09,8.96,0,0-.14-.17-.14-.17.53,1.01,1.05,2.02,1.58,3.03,2.48,2.74,1.89,6.37,3.09,9.74-3.2,1.55-5.87-.39-8.49-.91-20.12-4.04-40.2-3.32-60.44-.83-20.15,2.48-39.63,8.07-59.5,11.8-18.97,3.56-38.01,6.34-57.42,3.68-11.17-1.53-28.82-6.72-36.06-11.09.57-1.25,1.7-1.65,2.91-1.83,10.86-1.67,20.29-6.89,29.47-12.4,6.5-3.9,11.67-9.56,16.08-15.77,5.93-8.35,11.76-16.78,17.67-25.14,4.09-5.78,8.34-11.47,13.67-16.18,4.35-3.84,8.86-7.61,14.95-8.48,6.07-.69,12.03.74,18.01.95,9.35.33,18.74,1.76,28.14.35,1.82-.27,3.87-.64,5.71.36ZM797.66,381.59c-6.31-.06-10.87,3.79-10.52,8.34.32,4.1,3.73,5.87,10.3,4.95,4.12-.58,8.11-1.02,12.18.38,1.76.61,3.99,1.06,5.29-.95,1.49-2.31.04-4.21-1.54-5.76-4.52-4.45-10.19-6.31-15.71-6.96Z"/>
      <path class="cls-5" d="M771.95,638.88c-14.88-2.04-25.93-10.5-35.24-21.51-9.36-11.08-12.78-24.38-13.38-38.59-.83-19.58,1.62-38.84,5.44-57.98,1-4.98,1.44-10.08,2.17-15.36,2.95-.47,5.25.91,7.62,1.9,9.45,3.95,19.13,7.16,28.9,10.22,13.15,4.12,25.93,1.91,38.77-1.18,6.2-1.49,11.89-4.31,17.74-6.73,1.75-.73,3.58-2.08,4.96.56-3.1,5.47.14,10.28,1.87,15.07,3.33,9.2,8.82,17.28,14.5,25.16,5.2,7.24,8.46,15.21,10.36,23.87,3.2,14.61,1.14,27.97-8.78,39.62-5.9,1.06-11.57.42-17.02-2.18-4.58-2.19-7.23-5.25-6.7-10.79,1.29-13.47-1.97-25.92-8.56-37.71-1.93-3.47-4.59-6.17-7.02-9.12-3.82-4.65-6.31-10.32-11.2-14.15-1.81-1.41-2.39-.98-2.63,1.02-2.69,3.02-1.3,6.43-.76,9.65,2.25,13.63,4.58,27.3,3.71,41.15-1.11,17.65-7.32,33.01-22.19,43.83-1.2.87-2.5,1.54-2.55,3.26Z"/>
      <path class="cls-5" d="M538.33,788.77c3.5,6.41,4.88,13.58,7.31,20.37,6.19,17.3,13.46,34.26,25.95,47.8,14.65,15.89,32.09,27.24,55.19,27.35,17.51.08,33.6-4.67,49.23-11.7,12.45-5.6,24.24-12.57,36.9-17.78,9.1-3.74,18.55-6.58,28.18-7.01,15.87-.71,27.2,3.58,33.82,17.71,2.52,5.38,3.06,11.2,2.85,17.12-.08,2.21-1.1,5.17,2.62,5.8-1.99,4.88-5.58,8.59-9.4,11.97-12.37,10.96-25.79,20.25-42.59,22.82-9.22,1.41-18.5,1.54-27.18-3.07-2.62-1.39-3.12-2.85-.89-4.97,2.47-2.36,4.9-4.77,7.4-7.12,3.68-3.46,7.75-5.3,13.13-5.03,8.98.46,17.39-1.96,24.79-7.28,2.76-1.98,5.45-4.1,6.44-8.53-9.46.62-18.25,4.64-27.66,2.2,1.55-7.34,7.25-13.46,6.27-21.45.69-.17.82-.36.37-.48-.04-.01-.19.37-.29.56-8.51,7.27-17.08,14.47-25.51,21.83-17.26,15.07-36.03,27.68-58.27,34-15.62,4.44-31.32,4.83-45.91-4.13-7.76-4.77-14.53-10.82-20.23-17.84-21.69-26.69-34.74-57.51-41.49-90.93-1.42-7.04-3.49-14.71-1.03-22.22Z"/>
      <path class="cls-5" d="M402.19,919.37c3.97.58,7.23,2.87,10.67,4.62,18.03,9.18,36.44,9.01,55.19,2.69,6.92,7.91,11.55,17.45,18.51,25.4,6.46,7.38,12.86,14.65,21.15,20.05,5.93,3.86,5.89,5.07.02,8.28-20.29,11.08-41.89,17.46-65.11,16.59-24.86-.93-47.08-9.51-66.53-25.11-2.63-2.11-5.33-4.11-8.37-6.46-1.55,4.71.92,8.49,1.16,12.45.21,3.61,1.25,7.17,1.99,10.74.54,2.59.26,5.09-2.03,6.54-2.05,1.3-4.29.29-6.19-.91-8.02-5.06-14.09-12.01-18.71-20.16-6.18-10.91-9.88-22.73-12.09-35.05-2.26-12.59-2.41-25.18-.46-37.83.8-5.19,1.1-10.45,1.75-16.85-8.56,6.56-12.42,16.15-21.46,22.15-.94-5.13-.54-9.38-.21-13.63,1.68,0,2.37-1.29,3.43-2.32,9.75-9.5,19.62-18.9,29.81-28.67.56,3.06.34,6.31-.17,9.54-3.04,19.36-.24,37.81,8.62,55.31,1.64,3.24,1.71,3.2,6.55,6.68,0-3.86-.05-7.16.02-10.46.04-1.89-.68-4.44,1.42-5.3,2.54-1.03,3.67,1.76,5.06,3.21,2,2.1,3.62,4.57,5.47,6.82,9.55,11.64,22.07,18.11,36.63,21.01,3.07.61,6.03,2.05,9.3.96,3.51-1.16,4.16-2.62,2.66-6.01-1.02-2.31-2.69-4.11-4.5-5.71-4.06-3.58-6.92-8.19-10.56-12.12-1.64-1.77-2.99-3.88-2.98-6.51l-.04.04Z"/>
      <path class="cls-1" d="M782.39,1274.14c4.72-13.9,13.63-21.03,26.87-23.08,6.51-1.01,13.13-1.13,19.54-2.91,8.95-2.49,12.64-8.15,11.4-17.51-.67-5.13-2.18-9.98-4.07-14.78-5.1-12.93-10.08-25.91-15.23-39.21,8.88-1.49,17.34-2.84,25.17-6.39,3.29-1.49,4.81-.56,6.06,2.57,3,7.47,6.22,14.86,9.37,22.27,3.44,8.09,7.06,16.11,11.4,23.77,8.88,15.65,21.67,26.38,39.62,29.82,10.69,2.05,21.43.7,32.01-1.5,6.45-1.35,12.81-3.13,19.29-4.34,20.18-3.75,38.08,4.57,47.05,21.63,4.71,8.97,4.17,9.9-5.97,9.91-48.89.04-97.78.11-146.66.09-23.46-.01-46.92-.22-70.39-.34-1.45,0-2.9,0-5.47,0Z"/>
      <path class="cls-2" d="M530.11,841.39c3.96,11.15,7.91,22.3,11.87,33.45-.63,2.78.76,5.28,1.4,7.79,1.62,6.38,2.7,12.61,1.17,19.24-2.06,8.96-6.5,16.08-14.37,20.93-8.87,5.46-18.07,4.15-27.41,1.42-6.28-1.84-11.65-4.88-15.28-10.46-1.12-1.72-2.19-3.22-4.45-3.25-7.78-10.6-11.54-22.87-14.59-35.41-4.6-18.85-4.11-38-3.09-57.16.02-.45.38-.88.57-1.32.64-.31,1.64-.46,1.88-.97,3-6.44,8.41-10.56,13.9-14.59,7.85-5.76,15.95-11.1,25.33-14.09,5.45-1.73,5.45-1.59,6.73,3.71,1.87,7.74,1.46,15.83,4.2,23.48,3.01,8.39,5.42,16.99,10.49,24.47,0,0,0-.04,0-.04.6.9-1.87,3.63,1.66,2.79Z"/>
      <path class="cls-1" d="M486.69,1192.08c2.25-5.91,4.49-11.82,6.74-17.72,6.73,1.76,13.78,2.87,18.16,9.31.43.63,1.76.6,2.63.97,5.04,2.1,6.67,4.95,5.27,10.23-.67,2.52-1.72,5.19-3.38,7.13-2.18,2.53-1.44,4.8-.67,7.32-1.37,4.68-3.01,9.27-3.49,14.18-.65,6.73-.17,13.15,3.76,18.97,1.6,2.37,3.17,4.85,1.64,8.46,6.19-.87,11.45-1.74,16.74-2.34,20.47-2.32,30.23,9.41,35.42,26.53,1.21,3.98-2.12,3.53-4.47,3.53-16.36.05-32.73.06-49.09.08-.49,0-.98-.05-1.46-.02-2.25.13-3.9-.68-4.11-3.09-.41-4.56-3.59-8.14-4.02-12.84-.32-3.41-2.83-6.5-6.33-9.44-.35,7.31-1.16,13.73-2.32,20.12-.66,3.66-1.96,5.4-6.14,5.34-15.38-.25-30.77-.05-46.16-.11-5.54-.02-5.5-.4-4.53-6,1.32-7.62,5.9-13.42,10.8-18.69,2.61-2.8,7.13-3.9,10.91-5.5,4.84-2.05,9.79-3.84,15.82-6.18-13.96-4.89-25.81-3.14-36.9,4.57-8.88,6.17-13.48,15.04-16.17,25.23-1.73,6.59-1.9,6.57-8.84,6.58-13.92.01-27.84.02-41.76-.04-5.35-.02-5.74-.58-3.98-5.31,5.31-14.23,14.72-23.42,30.56-24.47,7.55-.5,15.11-.83,22.67-1.23,2.21.38,4.41.69,6.21-1.16,17.11-4.8,31.35-13.79,42.03-28.25,3.76-5.08,5.47-11.22,9.14-16.28.82-.07,1.09-.52.89-1.3,0,0,.22-.31.22-.31,1.44-.33,1.6-1.32,1.32-2.54,0,0,.21-.31.21-.31,1.41-.37,1.64-1.33,1.3-2.58,0,0,.21-.33.21-.33,1.36-.37,1.65-1.26,1.21-2.5Z"/>
      <path class="cls-6" d="M1305.82,419.18c-3.16-1.76-2.9-5.45-4.53-8.1-14.37-23.36-33.31-41.76-57.75-54.47-21.73-11.3-44.26-20.38-68.14-25.97-11.12-2.6-22.29-4.93-33.6-6.5-3.09-.43-6.38-.7-9.61,1.79,2.42,1.64,4.73,3.14,6.97,4.75,7.72,5.52,7.22,16.36-.91,21.26-3.2,1.93-6.69,2.99-10.29,3.6-6.76,1.15-13.64,1.57-20.31-.17-11.88-3.08-16.23-10.3-14.03-22.4.13-.71.48-1.39-.23-2.17-22.78,6.85-36.73,23.06-45.38,44.25-4.22,10.33-7.43,21.13-9.28,32.24-3.72,1.11-4.02-1.44-4.28-4.02-.52-5.17.56-10.25,1.25-15.3,2.25-16.59,7.04-32.21,16.61-46.36,14.45-21.38,34.57-33,59.61-37.14,31.8-5.26,62.15,1.27,91.87,11.61,18.46,6.42,36.14,14.76,51.98,26.49,23.35,17.3,41.41,38.46,49.03,67.26.82,3.11,1.56,6.14,1.04,9.35Z"/>
      <path class="cls-5" d="M881.57,1056.22c1.48,20.76-1,39.93-8.36,58.34-9.39,23.49-27.45,35.71-51.88,39.64-18.2,2.93-34.68-2.6-50.58-10.41-7.63-3.75-14.66-8.67-21.79-13.99,1.54-2.67,4.21-3.18,6.64-3.83,16.56-4.45,32.19-11.41,47.5-18.82,22.4-10.84,43.5-24,63.04-39.55,4.71-3.75,9.12-7.97,15.43-11.38Z"/>
      <path class="cls-6" d="M371.5,639.17c-1.6.08-2.87-.6-3.74-1.88-5.98-8.85-14.79-14.82-22.6-21.72-6.72-5.93-13.23-12.32-21.08-16.86-19.33-11.17-39.82-19.05-61.97-22.87-8.96-1.55-18.06.05-26.84-2.44-24.97,2.05-49.71,4.54-73.22,14.69-21.48,9.28-41.2,21.2-58.96,36.15-9.86,8.3-18.42,18.14-27.49,27.37-1.05,1.07-1.8,2.29-3.49,2.22,2.09-6.9,6.63-12.45,10.57-18.23,17.32-25.38,38.87-46.48,66.19-60.83,19.28-10.13,39.87-17,61.76-19.29,47.06-4.9,88.64,7.83,125.11,38.03,14.95,12.38,25.8,27.82,35.61,44.2.22.37.11.95.15,1.43Z"/>
      <path class="cls-2" d="M1160.43,658.44c-17.75-1.64-34.88-5.77-51.07-13.32-9.21-4.3-18.57-8.38-26.82-14.48,1.61-2.26-.4-1.47-1.34-1.59,0,0-.02-.01-.02-.01.19-1.29-.15-2.43-1.03-3.37-5.67-6-6.81-13.49-5.95-21.12.83-7.45,2.76-14.78,4.21-22.16,2.9.44,5.8.89,8.7,1.33,1.58,1.59,3.66,1.47,5.52,1.21,6.38-.91,11,2.07,15.87,5.74,15.28,11.5,31.78,20.78,50.72,24.88,5.68,1.23,11.43,2.19,17.19,3.03,3.34.49,4.44,2.29,4.59,5.43.44,9.27-1.87,17.82-6.14,25.97-3.07,5.86-7.23,9.72-14.42,8.47Z"/>
      <path class="cls-5" d="M1160.43,658.44c7.2,1.24,11.35-2.61,14.42-8.47,4.26-8.15,6.58-16.7,6.14-25.97-.15-3.14-1.25-4.95-4.59-5.43-5.75-.84-11.5-1.8-17.19-3.03-18.94-4.1-35.44-13.38-50.72-24.88-4.87-3.67-9.5-6.64-15.87-5.74-1.86.27-3.94.39-5.52-1.21,11.69-.54,23.41.61,35.08-.8,3.14-.38,5.57,1.63,8.02,3.13,6.67,4.09,13.58,7.66,20.89,10.45,19.88,7.6,40.26,10.65,61.56,7.84,12.42-1.64,24.42-4.28,35.78-9.62.59-.28,1.37-.16,2.91-.3,0,4.76.34,9.34-.07,13.85-.85,9.43-1.78,18.86-5.51,27.78-2.09,4.99-5.28,8.62-10.09,11.01-11.67,5.8-24.1,9.18-36.88,11.12-10.11,1.53-20.37,1.8-30.61,1.5-2.63-.08-5.41.6-7.77-1.23Z"/>
      <path class="cls-6" d="M767.44,256.97c-.76-4.72,1.12-9.15,1.63-13.73,3.93-35.2,1.52-69.61-12.69-102.51-6.51-15.08-15.48-28.61-26.04-41.29-11.55-13.87-25.12-25.18-40.14-34.83-16.53-10.62-34.35-18.4-53.76-22.15-2.44-.47-4.81-.79-6.56-2.76,20.5-6.44,40.14-1.55,59.32,5.33,12.43,4.46,23.6,11.67,34.11,19.75,23.55,18.11,40.84,40.93,51.1,68.85,9.09,24.74,11.39,50.23,8.24,76.41-2.01,16.74-6.87,32.35-15.21,46.94Z"/>
      <path class="cls-5" d="M483.03,910.51c2.26.03,3.33,1.53,4.45,3.25,3.63,5.58,9,8.62,15.28,10.46,9.34,2.73,18.54,4.05,27.41-1.42,7.87-4.85,12.31-11.98,14.37-20.93,1.53-6.62.45-12.86-1.17-19.24-.64-2.51-2.03-5.01-1.4-7.79,2.59.98,3.16,3.54,4.38,5.6,7.59,12.79,15.64,25.29,25.78,36.22,6.12,6.6,12.99,12.45,20.41,17.62,1.96,1.36,4.48,2.08,5.84,5.35-13.97,13.23-28.06,26.42-48.39,30.08-8.02,1.45-14.91-1.36-21.52-4.93-4.67-2.52-9.12-5.73-13.01-9.34-10.02-9.28-19.34-19.23-26.63-30.89-2.72-4.34-5.17-8.81-5.79-14.02Z"/>
      <path class="cls-1" d="M710.17,463.92c.71.23,1.43.46,2.14.69,1.66,2.23,4,1.52,6.2,1.44,11.52,2.1,23.01,4.31,34.8,4.53,19.23.37,37.87-3.46,56.42-7.75,15.22-3.52,30.53-6.48,45.91-9.19,4.35-.77,8.73-.86,13.14-.77.76,2.36-1.34,2.97-2.36,4.04-13.06,13.59-26.73,26.35-43.27,35.85-18.68,10.74-38.02,14.79-59.03,8.33-22.46-6.9-42.66-17.99-61.02-32.54-.94-.74-1.63-1.81-2.42-2.71.65-2.67,2.97-2.66,5-3.1.26.09.53.19.78.29.86,1.87,2.24,1.58,3.72.9Z"/>
      <path class="cls-6" d="M798.12,851.92c-2.84-3.2-1.76-7.15-1.14-10.47,1.19-6.36.62-12.44.06-18.8-1.13-12.64-3.27-25.05-6.1-37.36-4-17.34-9.25-34.35-16.32-50.69-7.76-17.95-17.52-34.84-29.52-50.32-10.55-13.6-24.36-22.45-41.33-25.63-5.69-1.06-11.67-.54-17.53.07-15.14,1.58-29.55,5.75-43.4,12-1.26.57-2.31.62-3.14-.66,15.67-9.92,31.39-19.55,49.81-23.94,29.49-7.04,52.8,2.8,71.37,25.49,15.39,18.81,25.14,40.66,31.41,63.91,4.5,16.68,8.59,33.57,9.73,50.95,1.44,21.98,1.9,43.9-3.9,65.45Z"/>
      <path class="cls-2" d="M1106.07,482.25c-6.56,3.14-12.86,6.96-19.98,8.7-15.27,3.72-30.07,1.85-44.13-4.94-11.39-5.5-22.89-10.86-32.78-19.03-2.02-1.67-4.73-2.5-7.13-3.72,5.91-11.09,13.53-20.41,26.68-22.7,8.25-1.44,16.42-2.59,25.15-1.1,14.05,2.4,26.18,8.39,37.74,16.09,2.39,1.59,4.15,4,5.91,6.38,4.22,5.71,6.57,12.21,8.63,18.87-.03.48-.06.97-.09,1.45Z"/>
      <path class="cls-5" d="M936.67,698.69c-.26,9.24-2.82,18.11-4.31,27.16-.57,3.47-2.32,4.44-5.59,2.89-8.36-3.96-17.19-6.92-25.11-11.8-1.84-1.14-3.66-2.32-6.11-3.88-2.02,10.26-5.26,19.58-9.5,28.52-6.13,12.92-14.67,24.08-25.2,33.76-2.66,2.44-5.23,1.76-8.07.42-9.27-4.4-17.87-9.97-26.57-15.35-3.52-2.17-6.92-4.53-10.37-6.8-1.75-10-4.53-19.75-6.6-30.15,2.63,1.92,5.25,3.86,7.89,5.76,10.08,7.28,20.34,14.3,31.74,19.4,6.51,2.92,8.62,2.53,13.46-2.83,7.32-8.11,11.85-17.84,14.88-28.2,2.94-10.06,4.6-20.38,4.64-30.91,0-1.41-.14-2.9,1.2-4.61,6.09,2.35,11.1,6.62,16.69,9.78,8.43,4.77,17.39,7.59,26.9,8.48,3.27.3,6.68-1.04,10.03-1.63Z"/>
      <path class="cls-6" d="M307.65,715.44c-.97-.03-2.05.21-2.9-.13-12.34-4.85-25.49-6.06-38.39-7.99-11.56-1.73-23.27-.79-34.86,1.16-23.68,3.98-45.4,12.69-64.57,27.13-9.49,7.15-18.57,14.9-26.06,24.31-3.94,4.94-8.28,9.56-12.19,14.52-7.85,9.97-14.6,20.64-19.98,32.17-1,2.14-1.69,4.67-4.29,5.66-.54-2.28.32-4.31,1.05-6.39,7.94-22.8,18.67-44.19,34.42-62.57,12.45-14.53,26.98-26.77,44.39-35.41,12.98-6.45,26.38-11.29,40.48-14.63,10.84-2.57,21.35-1.25,31.92.86,18.42,3.67,35.26,11.24,51.02,21.32Z"/>
      <path class="cls-5" d="M500.34,751.92c2.74-12.12,3.84-24.39,3.11-36.8-.59-10.05-5.1-17.48-14.56-21.64-2.53-1.11-5.07-1.46-7.77-1.53-9.45-.23-18.84.05-27.73,2.58-1.99-2.04-.87-4.14-1.31-5.97,3.38-3.25,7.26-5.61,11.77-7.01,17.98-5.6,35.14-12.99,50.94-23.34.35-.23.92-.14,1.42-.2,1.54,8.08,3.03,16.17,4.63,24.24,1.57,7.93,4.08,15.55,8.14,22.57,1.96,3.38,2.47,6.46.99,10.33-3.06,7.94-5.38,16.14-6.27,24.68-.25,2.44-1.17,4.47-4.09,5.38-6.49,2.02-12.86,4.46-19.27,6.72Z"/>
      <path class="cls-6" d="M654.81,642.49c-25.12-3.54-45.11,6.73-62.8,23.27-10.83,10.12-18.88,22.15-25.73,35.26-12.41,23.78-20.01,49.1-25.68,75.16-.81,3.73,1.09,7.92-2,11.2-1.74-17.44.12-34.62,4.21-51.57,8.04-33.28,23.16-62.66,48.68-86.02,13.2-12.09,29.01-18.81,46.75-20.64,9.47-.97,18.08,1.7,25.96,8.17-3.03,3-6.3,3.93-9.39,5.16Z"/>
      <path class="cls-6" d="M615.33,140.51c-6.59-.96-12.49-4.08-18.66-6.27-26.83-9.51-54.45-12.97-82.72-11.11-12.85.85-25.61,2.82-37.91,7.08-6.02,2.08-6.2,1.82-6.37-4.25-.04-1.47,0-2.93.02-4.4,0,0,.09-.05.09-.05,1.25.1,2.19-.37,2.79-1.48,11.38-6.91,24.11-9.05,37.03-9.97,37.56-2.66,71.87,6.95,102.99,28.06,1,.68,1.83,1.59,2.74,2.39Z"/>
      <path class="cls-6" d="M1106.16,480.79c-2.06-6.66-4.41-13.15-8.63-18.87-1.76-2.38-3.52-4.79-5.91-6.38-11.56-7.7-23.69-13.69-37.74-16.09-8.72-1.49-16.89-.34-25.15,1.1-13.15,2.29-20.77,11.61-26.68,22.7-1.4.71-1.65,2.88-3.63,2.87.4-7.96,3.16-15.28,6.72-22.21,6-11.66,16.69-17,29-18.48,22.72-2.73,43.04,3.17,59.57,19.55,9.88,9.8,14.14,21.84,12.44,35.8Z"/>
      <path class="cls-6" d="M528.46,838.63c-5.08-7.48-7.48-16.08-10.49-24.47-2.74-7.65-2.34-15.74-4.2-23.48-1.28-5.29-1.28-5.44-6.73-3.71-9.39,2.98-17.48,8.33-25.33,14.09-5.5,4.03-10.9,8.15-13.9,14.59-.23.5-1.23.65-1.88.97.54-5.12,1.76-10.1,3.51-14.93,2.45-6.77,6.1-12.95,11.91-17.24,10.41-7.69,21.6-14.11,33.68-18.87,1.78-.7,3.68-1.08,5.3-1.54,1.88,1.57,1.39,3.39,1.34,4.99-.68,22.32,1.32,44.34,6.84,66.02.28,1.12-.01,2.38-.04,3.58Z"/>
      <path class="cls-6" d="M771.95,638.88c.05-1.72,1.36-2.39,2.55-3.26,14.87-10.81,21.07-26.17,22.19-43.83.87-13.85-1.46-27.52-3.71-41.15-.53-3.23-1.92-6.63.76-9.65,6.28,13.47,11.62,27.26,13.97,42.05,1.42,8.96,1.69,17.87-.51,26.77-3.7,14.96-14.66,28.77-35.26,29.07Z"/>
      <path class="cls-6" d="M846.87,613.93c9.93-11.66,11.99-25.02,8.78-39.62-1.9-8.66-5.16-16.63-10.36-23.87-5.67-7.89-11.17-15.96-14.5-25.16-1.73-4.79-4.96-9.6-1.87-15.07,7.06,14.35,16.52,27.07,26.95,39.09,7.6,8.75,11.89,18.87,13.57,30.27,2.37,16.11-6.78,30.2-22.58,34.37Z"/>
      <path class="cls-6" d="M1078.4,582.39c-1.45,7.38-3.38,14.71-4.21,22.16-.85,7.63.28,15.12,5.95,21.12.89.94,1.22,2.08,1.03,3.37-8.23-3.66-14.39-9.82-19.77-16.78-3.05-3.95-2.57-8.84-2.05-13.45.6-5.33,1.55-10.62,2.55-15.89.81-4.29,1.66-4.79,5.99-3.68,3.54.91,7.01,2.08,10.5,3.14Z"/>
      <path class="cls-1" d="M1012.49,1241.82c17.37.91,37.3,14.38,39.36,32.07-6.4.82-12.83.37-19.23.29-1.73-.02-2.49-1.14-2.85-2.74-2.57-11.35-7.35-21.51-17.28-29.61Z"/>
      <path class="cls-4" d="M884.86,384c-6.77-2.34-13.34-2.29-20.39-.32-5.93,1.65-11.2-2.72-16.48-5.03-2.66-1.17-1.09-6.66,2.04-7.45,1.63-.41,3.54.05,5.04-.56,1.97-.8.13-1.83-.32-2.74,11.22,3.14,21.45,8.14,30.1,16.11Z"/>
      <path class="cls-2" d="M515.43,1209.31c-.77-2.52-1.51-4.79.67-7.32,1.66-1.93,2.71-4.61,3.38-7.13,1.4-5.28-.23-8.12-5.27-10.23-.87-.36-2.2-.34-2.63-.97-4.38-6.44-11.42-7.55-18.16-9.31.18-3.03,1.35-4.81,4.59-3.12,8.42,4.38,17.16,7.89,26.39,10.14,2.51.61,3.03,1.99,1.96,4.27-3.68,7.88-7.3,15.78-10.95,23.67Z"/>
      <path class="cls-4" d="M844.91,365.17c-1.84-1-3.89-.63-5.71-.36-9.41,1.41-18.79-.02-28.14-.35-5.98-.21-11.94-1.64-18.01-.95,17.53-7,34.77-4.73,51.87,1.66Z"/>
      <path class="cls-4" d="M911.26,416.29c-4.99-3.81-10.96-6.85-14.66-11.66-2.96-3.85-3.15-9.82-4.56-14.85,8.39,7.4,14.68,16.32,19.22,26.51Z"/>
      <path class="cls-2" d="M705.67,462.74c-2.03.45-4.35.43-5,3.1-3.21-1.79-5.1-4.72-8.05-9.15,5.52,2.19,9.44,3.73,13.05,6.05Z"/>
      <path class="cls-6" d="M72.17,653.8c-.62,3.02-.86,6.27-4.66,7.24,1.19-2.64,1.94-5.58,4.66-7.24Z"/>
      <path class="cls-4" d="M915.67,428.05c-2.99-2.31-2.66-5.77-3.09-8.96,1.68,2.76,3.21,5.58,3.09,8.96Z"/>
      <path class="cls-2" d="M718.51,466.05c-2.2.09-4.55.8-6.2-1.44,2.19-.02,4.5-.62,6.2,1.44Z"/>
      <path class="cls-6" d="M374.53,643.61c-2.01-.81-3.19-2.2-3.08-4.47,2.06.78,2.53,2.65,3.08,4.47Z"/>
      <path class="cls-6" d="M1307.58,425.01c-2.82-1.29-1.76-3.77-1.8-5.91,2.55,1.37,1.52,3.84,1.8,5.91Z"/>
      <path class="cls-6" d="M430.16,1246.48c-1.8,1.85-4,1.53-6.21,1.16,1.89-1.34,4.03-1.33,6.21-1.16Z"/>
      <path class="cls-6" d="M104.43,812.2c-.59.94,1.45,3.35-1.62,2.89.29-1.11-.03-2.55,1.62-2.89Z"/>
      <path class="cls-6" d="M530.11,841.39c-3.53.84-1.06-1.89-1.66-2.79,1.79.2,1.42,1.67,1.66,2.79Z"/>
      <path class="cls-6" d="M877.51,1029.41c-.16-2.67,1.18-3.48,3.62-2.91-.68,1.62-1.61,2.93-3.62,2.91Z"/>
      <path class="cls-4" d="M854.76,367.91c-1.72-.8-4.16.37-5.32-1.94,1.77.65,3.55,1.3,5.32,1.94Z"/>
      <path class="cls-2" d="M710.17,463.92c-1.48.68-2.86.97-3.72-.9,1.36-.19,2.66-.13,3.72.9Z"/>
      <path class="cls-5" d="M472.57,120.03c-.6,1.11-1.55,1.58-2.79,1.48.56-1.2,1.56-1.56,2.79-1.48Z"/>
      <path class="cls-4" d="M917.11,430.91c-.53-1.01-1.05-2.02-1.58-3.03,1.52.49,1.27,1.91,1.58,3.03Z"/>
      <path class="cls-4" d="M912.71,419.28c-1.38-.6-.8-2.22-1.62-3.11,1,.8,1.38,1.91,1.62,3.11Z"/>
      <path class="cls-6" d="M483.76,1197.8c.29,1.22.12,2.22-1.32,2.54.11-1.02.38-1.95,1.32-2.54Z"/>
      <path class="cls-6" d="M486.69,1192.08c.44,1.24.15,2.13-1.21,2.5.08-.99.26-1.93,1.21-2.5Z"/>
      <path class="cls-6" d="M485.28,1194.91c.34,1.25.1,2.21-1.3,2.58.1-1.03.35-1.98,1.3-2.58Z"/>
      <path class="cls-6" d="M1081.2,629.05c.93.12,2.95-.68,1.34,1.59-.78-.25-1.36-.66-1.34-1.59Z"/>
      <path class="cls-4" d="M886.54,385.54c-.61-.54-1.22-1.09-1.84-1.63,1.03.08,1.32.98,1.84,1.63Z"/>
      <path class="cls-4" d="M892.15,389.96c-.54-.54-1.08-1.08-1.62-1.62.54.54,1.08,1.08,1.62,1.62Z"/>
      <path class="cls-6" d="M876,1031.59c-.05-1.09.2-1.98,1.48-2.16.19,1.19-.6,1.71-1.48,2.16Z"/>
      <path class="cls-6" d="M482.23,1200.65c.2.78-.07,1.23-.89,1.3.3-.43.6-.86.89-1.3Z"/>
      <path class="cls-4" d="M890.68,388.49c-.53-.52-1.07-1.05-1.6-1.57.53.52,1.07,1.05,1.6,1.57Z"/>
      <path class="cls-4" d="M889.19,386.99c-.16-.9-.75-1.21-1.6-1.14.53.38,1.06.76,1.6,1.14Z"/>
      <path class="cls-3" d="M691.43,335.36c-14.38-9.29-28.33-16.72-43.76-20.99-8.64-2.39-17.47-1.24-26.23-.5-3.38.29-7.27,1.51-9.12-2.3-1.86-3.82.5-6.95,3.26-9.68,17.35-17.17,36.7-20.75,60.32-9.51,11.76,5.6,21.68,14.09,32.2,21.59,8.58,6.11,17.22,11.96,27.34,15.33,4.78,1.59,5.24,3.42,2.19,7.41-4.63,6.05-11.15,7.5-18.29,6.93-3.35-.27-6.67-.97-11.31-1.67,2.63,5.09,4.96,9.01,6.58,13.25,4.51,11.81,3.24,23.16-3.07,33.75-2.81,4.73-3.44,8.17,1.04,11.95,1.61,1.36,2.84,3.35,2.92,5.79-3.08,1.74-5.69-.18-8.23-1.24-15.17-6.32-30.6-11.39-47.27-11.78-13-.3-25.81.71-38.4,4.06-2.96.79-5.88,2.09-9.52,1.66,1.52-6.01,6.21-8.59,10.52-10.8,14.01-7.17,29.02-9.81,44.72-8.26,2.87.28,5.73,1.31,8.74-.09-3.15-17.33-3.72-33.88,15.39-44.9Z"/>
      <path class="cls-5" d="M848.94,889.76c3.71,4.95,4.19,10.88,6.15,16.29,1.9,5.24,3.48,10.63,3.45,17.54,23.8-24.2,34.92-52.59,36.44-86.15,9.18,8.52,14.14,18.88,21.49,28.47,14.62-26.05,13.18-53.74,11.09-81.74,3.02,3.1,4.69,6.73,5.86,10.63,7.3,24.25,5.43,48.1-3.42,71.56-1.65,4.36-4.69,7.97-8.26,11.03-4.22,3.62-7.7,3.44-11.38-.66-1.13-1.26-1.94-2.81-3.02-4.12-1.07-1.3-2.29-2.47-4.01-4.29-2.32,6.56-4.31,12.63-6.62,18.58-5.15,13.31-11.72,25.71-22.79,35.23-3.92,3.37-8.05,6.39-12.86,8.24-5.87,2.25-8.67,1-10.18-5.21-2.81-11.6-3.21-23.43-1.94-35.38Z"/>
      <path class="cls-5" d="M902.29,991.16c.25-.22.5-.44.75-.66-.21.26-.42.52-.64.77,0,0-.12-.12-.12-.12Z"/>
      <path class="cls-5" d="M900.78,992.57c.24-.75.72-1.24,1.5-1.41,0,0,.11.11.12.11-.16.79-.6,1.31-1.39,1.52,0,0-.23-.23-.23-.23Z"/>
      <path class="cls-6" d="M712.45,709.73c-8.75.61-14.63-4.89-20.1-10.29-3.72-3.66-6.73-8.22-8.06-13.66-2.55-10.44,2.62-16.2,13.24-17.65,13.13-1.79,30.99,15.02,28.97,28.4-1.45,9.66-6.22,14.09-14.05,13.19Z"/>
      <path class="cls-6" d="M730.52,730.16c-4.61-.45-8.66-4.56-8.39-8.52.28-4.2,4.53-8.12,8.2-7.58,3.78.56,7.67,5.72,7.25,9.63-.5,4.62-2.96,6.87-7.06,6.46Z"/>
      <path class="cls-3" d="M658.9,1080.72c.09-.18.18-.36.27-.54-.11.16-.23.32-.34.48,0,0,.06.07.06.07Z"/>
      <path class="cls-5" d="M402.24,919.32c-.21-.1-.62-.23-.61-.28.11-.51.33-.4.57.33,0,0,.04-.04.04-.04Z"/>
      <path class="cls-6" d="M1162.13,357.7c-5.65-.18-9.21-2.72-8.98-6.4.22-3.53,4.39-6.84,8.86-7.02,5.9-.25,8.99,2.21,8.8,7.02-.17,4.46-3.07,6.59-8.69,6.41Z"/>
      <path class="cls-3" d="M797.66,381.59c5.53.65,11.2,2.51,15.71,6.96,1.57,1.55,3.03,3.45,1.54,5.76-1.3,2.01-3.53,1.55-5.29.95-4.07-1.4-8.06-.96-12.18-.38-6.58.92-9.99-.85-10.3-4.95-.35-4.55,4.21-8.4,10.52-8.34Z"/>
      <path class="cls-3" d="M730.78,868.06c.1-.2.25-.58.29-.56.44.13.31.31-.37.48,0,0,.08.08.08.08Z"/>
    </g>
  </g>
</svg>