<?xml version="1.0" encoding="UTF-8"?>
<svg id="Camada_1" data-name="Camada 1" xmlns="http://www.w3.org/2000/svg" viewBox="0 0 1340.27 1361.8">
  <defs>
    <style>
      .cls-1 {
        fill: #c7932a;
      }

      .cls-1, .cls-2, .cls-3, .cls-4, .cls-5 {
        stroke-width: 0px;
      }

      .cls-2 {
        fill: #0a0806;
      }

      .cls-3 {
        fill: #f8cb16;
      }

      .cls-4 {
        fill: #f1d644;
      }

      .cls-5 {
        fill: #8d6619;
      }
    </style>
  </defs>
  <g id="yellow">
    <g>
      <path class="cls-2" d="M176.89,873.35c-18.29,22.41-30.09,48.27-39.65,75.26-3.67,10.37-6.73,20.96-9.53,31.63-2.04,7.75-8.21,12.19-16.35,12.44-8.15.26-15.29-4.38-17.69-11.92-3.5-11-5.18-22.42-7.06-33.76-5.26-31.7-6.42-63.53-1.51-95.37,5.19-33.64,14.32-66.03,32.16-95.45,5.7-9.4,12.47-18.04,19.16-26.71,2.2-1.4,3.46-3.65,5.07-5.6,1.85-.61,2.53-2.17,3.73-4.11-2.2.76-3.45,1.63-4.17,3.14-2.19,1.2-4.12,2.7-5.63,4.71-12.13,9.57-22.21,21.11-31.61,33.26-17.72,22.9-32.3,47.61-42.68,74.71-1.03,2.69-1.9,5.44-2.79,8.18-3.03,9.32-10.1,14.37-18.69,13.31-8.31-1.02-14.91-8.18-15.16-17.46-.4-14.65-.37-29.32.41-43.97,1.37-25.48,4.91-50.74,11.21-75.41,11.19-43.77,29.4-84.19,60.24-118.06,19.33-21.23,41.94-38.16,68.06-49.89,19.74-8.86,40.64-13.93,62.43-15.69,20.82-1.68,41.26-.21,61.46,4.55,25.4,5.98,47.93,17.99,68.16,34.32,15.42,12.45,29.11,26.63,39.7,43.42,9.96,15.8,18.58,32.38,25.09,49.97,2.4,6.5,4.99,12.93,7.53,19.47,4.51-4.53,4.35-4.44,1.51-9.2-3.46-5.78-4.77-11.91-2.42-18.59,1.62-4.61,3.97-8.68,7.08-12.42,23.53-28.26,35.59-60.98,38.02-97.51,1.94-29.12-.24-58.1-2.49-87.07-2.79-35.83-2.47-71.47,5.25-107.7-5.58,0-10.81.18-16.03-.03-16.72-.67-31.1-6.61-40.91-20.56-9.23-13.12-10.76-28.06-7.11-43.4,5.23-21.96,17.3-39.81,34.26-54.45,4.88-4.22,10.05-8.12,15-12.26,1.98-1.66,4.99-1.25,6.66-3.55-1.56-1.95-3.95-2.63-6.01-3.79-12.53-7.04-22.78-16.32-29.34-29.34-5.23-10.38-5.9-21.33-2.9-32.23,6.48-23.53,22.51-38.48,44.61-47.48,27-11,54.94-12.64,83.5-8.4,12.65,1.88,24.76,5.49,36.57,10.28,1.32.54,2.59,1.24,4.79.78-1.36-4.43-2.86-8.8-4.03-13.25-3.72-14.14-3.65-27.99,3.3-41.33,8.9-17.09,23.23-26.38,41.99-29.12,22.26-3.25,43.5,1.14,64,9.57,29.83,12.27,53.61,32.09,72.98,57.83,19.4,25.77,28.53,55.01,32.27,86.5,1.89,15.9.92,31.65-1.4,47.38-.43,2.94.02,4.75,2.58,6.66,11.77,8.8,22.52,18.72,31.37,30.53,1.58,2.1,3.51,3.16,5.92,3.62,4.11.79,7.56,3,10.93,5.28,7.12,4.83,9.17,14.08,3.73,19.92-2.09,2.25-1.5,4.01-.48,6.43,7.27,17.25,14.08,34.68,17.15,53.26.53,3.21,1.93,5.06,4.62,6.66,5.35,3.2,10.67,6.49,15.69,10.17,17.26,12.65,29.74,28.91,37.4,49.03,4.04,10.61,7.31,21.23,8.32,32.6.8,9.07-2.82,15.24-10.6,19.43-2.65,1.43-5.14,1.93-8.22,1.18-7.63-1.86-15.37-3.27-23.35-4.92-.74,2.58.68,4.43,1.18,6.37,7.8,30.04,20.76,57.7,38.81,82.92,9.68,13.52,21.01,25.61,33.36,36.74,3.21,2.89,6.18,6.04,9.27,9.07,6.93,6.78,9.42,14.81,6.59,24.88,14.4,4.53,28.48,5.95,42.32-1.72,2.76-1.53,3.72-2.94,2.31-6.64-2.55-6.72-3.3-13.99-2.02-21.24.96-5.44,1.98-10.87,3.15-16.27.68-3.13.25-4.97-2.98-6.87-15.04-8.85-27.55-20.6-38.79-33.97-12-14.27-18.51-30.75-21.38-48.78-3.79-23.76,2.35-45.15,16.78-64.28,4.13-5.47,9.44-9.64,15.39-12.78,3.04-1.61,3.94-3.36,4.02-6.62.3-12.24.66-24.53,4.22-36.38,6.09-20.27,15.45-38.57,30.88-53.59,25.14-24.48,56.03-31.85,89.78-31.4,26,.35,50.68,6.88,74.91,15.74,22.03,8.06,42.49,18.92,60.82,33.58,16.1,12.87,29.72,28,39.41,46.31,8.17,15.44,12.62,32.08,14.35,49.46,3.6,36.11-4.49,70.13-18.8,102.91-8.48,19.42-19.1,37.65-33.19,53.64-2.22,2.52-3.07,5.2-3.04,8.51.09,10.59-1.04,21.09-2.61,31.57-1.18,7.9-3.78,15.32-6.89,22.62-3.04,7.14-7.87,12.61-14.97,15.84-3.87,1.76-5.66,4.53-6.35,8.73-4.5,27.24-14.29,52.68-26.67,77.22-10.13,20.09-22.74,38.33-38.88,54.12-9.44,9.24-19.99,12.96-32.71,8.21-3.23-1.21-3.55,1.29-4.74,2.87-11.57,15.31-25.3,28.21-42.11,37.68-5.52,3.11-11.39,5.02-17.68,5.65-14.59,1.46-23.92-2.48-29.45-17.35-8.29,3.01-16.59,6.02-24.89,9.04-6.54,2.38-13.15,4.67-20,5.79-4.51.74-6.42,2.8-7.23,7.11-3.07,16.32-8.11,32.09-14.34,47.44-13.34,32.84-29.96,63.84-52.71,91.26-6.75,8.13-13.56,16.23-20.71,24.01-2.74,2.98-3.49,5.83-2.98,9.67,2.08,15.55,2.1,31.12-.11,46.69-3.28,23.06-10.52,44.34-27.49,61.19-2.85,2.83-3.14,5.21-1.53,8.81,6.95,15.52,12.34,31.71,20.75,46.62,6.34,11.24,15.39,16.31,28.31,15.88,8.99-.3,17.65-2.05,26.29-4,12.98-2.92,26.06-4.04,39.33-3.45,9.34.42,18.65-1.35,28.04,0,28.04,4.04,53.25,26.25,57.76,56.32.14.95.24,1.91.3,2.87.73,12.44-4.25,18.7-16.84,18.72-24.76.03-49.51-.03-74.27-.03-67.54,0-135.07,0-202.61,0-1.68,0-3.37.06-5.05-.02-9.6-.46-15.71-6.2-16.3-15.76-.85-13.82,5.05-25.17,13.75-35.29,9-10.47,20.62-16.19,34.18-18.17,2.84-.42,5.74-.56,8.49-1.78-5.7-13.99-11.47-27.91-17.03-41.91-1.66-4.17-4.3-6.51-8.72-7.55-24.25-5.73-44.7-18.23-62.28-35.63-1.98-1.97-3.81-2.43-6.39-1.82-24.56,5.77-49.54,5.88-74.54,5.06-4.93-.16-8.61.97-12.14,4.48-11.3,11.29-24.42,20.07-38.63,27.34-10.82,5.53-22.34,8.55-34.3,10.04-2.58.32-4.5.91-5.75,3.43-5.2,10.54-10.09,21.21-13.8,32.39-.29.87-.14,1.88-.2,2.98,2.52,1.28,5.23.7,7.76.97,35.42,3.77,50.68,38.13,48.85,61.19-.68,8.56-4.9,12.82-13.56,14.12-2.59.39-5.27.28-7.92.28-67.3.01-134.59,0-201.89,0-.96,0-1.92.02-2.88-.02-14.32-.63-19.62-6.74-18.97-20.36,1.19-24.91,21.2-48.04,45.51-53.06,6.85-1.41,13.78-2.39,20.7-2.5,23.38-.37,38.61-12.47,48.26-32.76,5.04-10.6,9.63-21.4,13.52-32.5.65-1.85.42-3.09-.55-4.58-12.13-18.57-15.57-39.49-16.31-61.1-.1-2.85-.84-4.82-3.18-6.69-24.71-19.68-44.93-43.23-60.46-70.77-1.06-1.87-1.91-3.89-3.6-5.34-13.64,13.79-31.08,14.18-46.01,1.27-14.3-12.37-22.69-28.35-28.41-45.94-2.52-7.76-4.3-15.74-4.87-23.93-.16-2.37-.33-4.28-3.59-5.21-10.93-3.14-16.72-10.63-17.54-21.88-.26-3.57-.04-7.17-.04-10.54-2.37-1.56-3.45.34-4.67,1.19-14.82,10.25-25.56,23.49-31.75,40.7-6.7,18.62-9.2,37.69-8.8,57.3.13,6.49.66,12.98.54,19.45-.22,11.87-9.2,20.31-20.29,19.41-5.34-.43-9.59-2.99-12.89-7.05-21.01-25.85-37.18-54.32-44.51-87.04-4.89-21.85-4.14-43.89,1.6-65.64,1.18-.27,1.21-1.37,1.44-2.22.25-.94,1.7-2.23.07-2.82-.99-.35-2.12.73-2.3,2.11ZM762.84,267.27l-.12-.12c.2.84.73,1.35,1.56,1.55l-.11-.06c.81,1.44,1.74,3,3.59,2.76,1.28-.17,1.6-1.42,1.09-2.68h-.18c3.08-.91,2.85-3.48,2.95-5.88l-.07.12c5.61-6.22,8.14-14,10.12-21.8,4.98-19.67,6.99-39.57,4.42-59.91-6.12-48.53-29.89-85.85-70.8-112.25-9.42-6.07-19.22-11.84-30.53-14.05-11.83-4.29-24.17-6.24-36.58-5.31-25.32,1.88-38.98,21.85-30.02,46.15,1.99,5.39,3.99,10.77,6.16,16.09,5.17,12.63,10.41,25.21,13.51,38.57,1.21,5.2,1.59,10.42,2.13,17.34-5.66-5.74-9.69-10.54-15.5-13.1-1.5-2.05-3.31-3.7-5.83-4.43l.1.06c-.61-1.41-1.96-2.03-3.1-2.88-9.71-7.28-20.91-11.56-32.05-16.02-22.3-8.91-45.53-11.29-69.21-9.48-12.72.97-25.01,4.21-36.06,11.06-11.61,4.15-20.36,11.37-24.78,23.2-4.6,9.43-2.63,24.37,5.14,31.27,8.02,7.13,16.76,12.76,26.94,16.13,11.84,3.93,23.7,7.78,35.51,11.79,3.06,1.04,6.34,2.07,7.85,6.17-5.85,1.79-11.34,3.29-16.72,5.14-22.28,7.65-42.81,18.21-58.97,35.94-10.62,11.64-17.97,24.96-19.7,40.78-1.64,15,5.28,24.39,20.48,28.4,10.68,2.82,21.88.98,32.79-.94,3.98-.7,6.2-2.67,7.54-6.57,7.99-23.28,22.97-42.1,39.96-59.15,20.72-20.79,45.67-34.86,74.38-41.8,15.68-3.79,31.5-5.34,47.72-4.32,9.15.58,18.02,2.29,27,3.64,1.12.4,2.23.84,3.36,1.19,24.56,7.63,47.83,17.63,66.67,35.9,1.33,1.29,2.56,2.87,4.63,3.15.85,1.24,1.81,2.35,3.26,2.92l-.08-.13c.2.85.72,1.37,1.57,1.56ZM458.53,692.53h-.02c-.86.09-1.4.5-1.46,1.42l-.16-.08c-2.36.79-3.91,2.71-5.73,4.22-9.44,7.78-18.37,16.12-27.15,24.64-19.67,19.09-37.99,39.42-54.06,61.58-16.81,23.16-30.66,48.1-40.18,75.21-3.64,10.36-6.98,20.89-7.02,32.08-1.92,4.29-.74,8.65-1.05,13.72,9.33-5.27,13.19-14.73,21.27-21.07.49,4.51.02,7.98-.59,11.47-3.07,17.53-2.65,34.93,2.4,52.08,3.82,12.98,8.7,25.46,18.08,35.65,3.13,3.4,6.76,6.18,10.88,8.19,5.04,2.47,7.18,1.09,7.06-4.43-.06-2.62-.59-5.24-.95-7.85-.75-5.42-2.69-10.65-2.87-17.22,20.58,18.06,43.29,29.75,70.15,31.69,26.6,1.93,50.9-5.05,73.47-19.01-1.33-2.63-3.05-3.62-4.64-4.61-6.83-4.24-12.29-9.95-17.61-15.86-8.23-9.15-14.64-19.61-21.72-29.6-1.67-3.44-3.37-6.88-5.02-10.33-8.17-17.03-12.99-35.07-15.8-53.65-2.08-13.75-2.77-27.59-.41-41.42.9-5.3,2.03-10.56,3.13-16.21-24.53,1.08-44.54,12.08-64.22,24.3-.14-.79-.28-1.08-.19-1.2,15.57-21.38,36.13-34.76,62.54-38.42,4.56-.63,8.11-2.12,11.06-5.75,5.02-6.17,10.67-11.73,17.61-15.8,7.44-4.35,14.89-8.68,22.34-13.02,6.59-2.15,13.16-4.37,19.79-6.4,2.47-.76,3.19-2.24,3.5-4.67,1.14-8.83,3.35-17.42,6.6-25.7,1.25-3.19.98-5.89-.74-8.83-2.79-4.77-4.64-9.97-6.38-15.22-3.41-10.29-4.59-20.97-5.91-31.44-.91-.57-1.56-.18-2.16.19-13.75,8.43-28.31,15.02-43.59,20.29-6.66,2.3-13.67,4.58-18.93,9.86-.74.07-1.15.49-1.29,1.2ZM380.57,740.23l.2-.22c.35-.39.7-.78,1.04-1.17l.38-.06.05-.38c.32-.34.64-.68.96-1.01.98-.25,1.6-.83,1.75-1.86,7.22-7.3,14.33-14.71,21.7-21.86,3.02-2.93,3.52-5.69,2.04-9.62-2.61-6.95-4.33-14.24-6.95-21.19-5.33-14.1-10.62-28.25-19.51-40.66-15.53-28.94-37.65-51.35-67.03-66.09-18.27-9.17-37.82-14.29-58.22-16.56-17.84-1.99-35.4-.2-52.63,3.62-18.79,4.16-36.74,11.38-52.86,21.95-25.67,16.83-45.88,39.13-61.74,65.38-.84,1.39-2.17,2.64-1.9,4.53l.03-.02c-1.04.04-1.31.78-1.44,1.62-5.93,8.45-9.9,17.97-13.92,27.33-13.82,32.18-19.84,66.25-23.11,100.9-.55,3.91-1.74,7.84.35,11.68,1.24,1.65,2.56,1.08,3.9.15.61-.71,1.42-1.32,1.81-2.13,8.24-17.12,18.16-33.12,29.91-48.12,15.52-19.82,32.76-37.78,54.81-50.13,18.13-10.15,36.28-20.55,57.54-23.6,24.67-3.54,48.78-2.83,72.04,6.96,17.85,7.51,33.92,17.84,47.98,31.19,2.19,2.08,5.04,4.03,3.82,7.86-.48-.08-.96-.17-1.44-.25l.08.05c-.45-.54-.79-1.25-1.35-1.61-13.04-8.26-26.92-14.7-41.9-18.49-10.68-2.7-21.45-5.97-32.62-4.24-25.63,3.98-48.92,14.18-69.25,29.96-24.61,19.1-40.98,44.53-51.69,73.66-8.14,17.51-12.82,35.99-15.34,55.05-3.41,25.81-3.75,51.62.45,77.4.04,5.93,1.31,11.58,3.24,16.9,1.48.1,1.8-.51,2.07-1.19.97-2.45,2.13-4.84,2.87-7.36,6.65-22.48,17.44-42.98,29.74-62.78,7.36-11.83,16.24-22.49,25.33-32.98,3.43-3.32,6.87-6.63,10.3-9.95,1.76-.32,2.89-1.62,4.17-2.69,14.32-11.98,30.04-21.23,48.44-25.54,13.31-3.12,26.65-5.92,40.41-5.19,4.67.25,9.65,0,13.2,4.09-13.17,2.03-25.55,6.56-37.45,12.36-11.79,5.75-22.46,13.42-30.27,23.86-20.59,27.52-28.06,58.81-22.2,92.53,3.97,22.83,13.28,43.94,26.77,63,.71,2.46,1.51,4.82,4.24,5.52,1.57-1.6,1.1-3.11,1.12-4.49.09-9.35.37-18.66,1.36-28.01,2.15-20.37,7.89-39.5,18.64-56.91,11.96-19.38,27.58-34.34,50.81-39.32.47-.1.91-.32,1.38-.39,2.44-.34,3.84-1.71,4.35-4.12,3.43-16.11,10.65-30.65,17.89-45.32,7.14-14.46,15.3-28.2,24.15-41.6,5.34-7.17,10.68-14.34,16.02-21.51,5.03-5.55,10.55-10.7,14.22-17.37.42-.51.85-1.02,1.27-1.53ZM49.03,803.65c.57-.38,1.27-.67,1.7-1.18.78-.92,1.33-2.03.75-3.26-.14-.3-.79-.61-1.13-.54-1.51.31-1.52,1.63-1.6,2.79-.04.7.14,1.42.23,2.13-.62.25-.7.47-.23.58.05.01.19-.34.29-.52ZM525.93,1194.55c.81-.54,1.03-1.33.95-2.25l.31-.6c3.28-4.66,5.55-9.79,7.45-15.44-9.91-2.67-19.29-5.52-27.83-10.51-2.9-1.69-4.67-1.29-5.89,2.16-2.22,6.31-5.02,12.41-6.66,18.92-2.62,4.86-5.21,9.73-7.87,14.56-13.55,24.74-34.06,38.42-62.59,39.43-5.52.19-11.03.69-16.54,1.09-13.17.96-27.2,15.7-27.34,28.36.65.19,1.33.54,2.01.55,15.62.08,31.24.05,46.86.24,3.43.04,4.76-1.62,5.22-4.56.59-3.84,2.19-7.35,3.59-10.91,6.7-17,23.56-24.09,39.19-23.33,3.19.16,6.16,1.18,8.99,3.16-6.5,2.62-12.56,4.92-18.51,7.48-9.8,4.2-15.44,11.86-17.72,22.12-1.25,5.62-1.2,5.8,4.4,5.85,14.66.13,29.32.11,43.98.12,6.86,0,6.95-.02,8.1-7.04.91-5.53,1.53-11.11,2.34-17.07,5.09,5.22,7.06,8.18,8.75,17.54,1.34,7.45,3.03,6.57,8.62,6.59,14.42.04,28.84,0,43.26,0,1.68,0,3.36.03,5.04-.03,2.14-.07,3.21-1.28,2.54-3.29-4.43-13.17-12.62-27.65-31.35-26.42-6.42.42-12.83.99-19.79,2.15.15-3.54-.99-6.4-2.65-9.02-4.3-6.78-4.28-14.09-2.7-21.56.69-3.28,1.74-6.49,2.63-9.73,1.61-2.32,2.52-4.89,2.77-7.7.32-.2.47-.48.45-.86ZM1006.3,514.04c-.07,2.02.63,3.63,2.46,4.65,10.44,18.38,26.47,30.77,44.46,40.82,13.74,7.68,28.85,11.73,44.19,14.85,8.21,1.67,16.46,3.69,24.88,2.07,3.92-.75,6.87.3,10.01,2.48,8.15,5.68,17.2,9.54,26.8,12.03,17.39,4.51,35.01,6.24,52.8,3.09,26.7-4.72,46.34-19.57,59.96-42.75.06-.48.11-.97.17-1.45,0,0-.08.09-.08.09,2.6-.81,3.23-3.33,4.38-5.28,8.09-13.69,14.27-28.16,18.81-43.46,5.43-18.31,9.35-36.74,8.31-55.95-1.56-28.48-10.63-54.06-30.43-75.05-15.47-16.4-33.76-29.06-54.37-38.26-18.24-8.14-37.23-13.87-56.86-17.59-24.25-4.58-48.1-4.49-71.62,4.16-11.07,4.07-20.6,10.21-28.67,18.61-14.76,15.37-23.17,33.86-26.32,54.87-.96,6.43-1.66,12.85-1.4,19.35.08,2.08.44,4.01,3.35,2.93,4.52.38,9.03.85,13.55,1.14,27.53,1.78,61.75,20.76,69.88,56.37,0,9.33,1.08,18.79-3.06,27.65-.89,1.9-.48,3.19,1.37,4.08,1.94.94,3.84,2,5.84,2.81,13.66,5.55,27.79,9.32,42.55,10.03,29.49,1.41,52.26-9.42,66.27-36.54,7.74-14.98,11.22-31.04,13.74-47.45.38-2.48.03-5.2,2.93-7.1,8.73,13.93,5.68,28.77,3.94,43.8,8.47-1.11,12.27-9.06,20-11.18-2.59,12.56-9.2,21.13-20.54,25.46-4.89,1.87-7.86,4.77-10.1,9.39-5.22,10.76-12.76,19.65-22.76,26.42-16.62,11.25-35.2,14.48-54.81,13.89-10.18-.31-19.87-3.08-29.68-5.35-3.01-.7-6.54-3.38-8.85-1.86-3.48,2.28.27,6.01.3,9.16.06,5.79,1.3,11.72-2.13,16.94-1.89-.43-1.95-1.46-2.12-2.36-1.79-9.52-6.44-17.39-13.27-24.21-6.14-6.13-5.99-6.28-13.29-1.86-18.23,11.04-42.29,9.01-57.64-4.95-2.39-2.18-5.25-4.24-5.13-8.32,3.88-.29,7.27.94,10.56,2.15,8.31,3.06,16.86,3.63,25.55,2.78,8.48-.83,16.68-2.75,23.32-8.46,5.74-4.93,10.75-10.44,9.36-18.99,1.75-3.8,1.85-7.6,1.13-11.77-2.26-13.01-8.96-23.09-19.44-30.74-13.86-10.11-29.46-14.89-46.59-13.44-11.37.96-22.58,3.46-29.91,13.34-6.19,8.35-9.88,17.88-10.24,28.46-1.28,1.92-1.31,4.1-1.22,6.26.48,12.13,2.76,23.76,9.61,34.09l.05.15ZM831.56,1190.73c.38,4.16,1.42,8.08,4.25,11.33.04.42.19.79.45,1.12-.42,2.58,1.19,4.55,2.01,6.76,1.98,5.38,4.01,10.71,3.84,16.64-.22,7.95-3,11.71-10.77,13.86-6.02,1.66-12.29,1.74-18.39,2.89-5.08.96-10.5,1.22-14.49,5.27-.42.14-.77.38-1.05.72-1.57.24-2.48,1.18-2.83,2.7-1.27.73-2.3,1.7-2.93,3.04-3.07,1.18-3.65,4.22-4.8,6.72-1.73,3.75-1.17,4.73,2.84,4.83,4.49.12,9,.58,13.47-.32.98,0,1.97.02,2.95.03,14.4.78,28.8.82,43.2.04,3.12.14,6.24.41,9.35.41,48.29.01,96.58-.01,144.87-.03,2.16,0,4.33.07,6.48-.1,3.71-.29,4.08-.91,2.81-4.55-.47-1.35-1.1-2.66-1.78-3.93-9.86-18.33-27.25-26.59-47.68-22.51-5.88,1.17-11.66,2.81-17.51,4.11-10.63,2.37-21.42,3.56-32.17,1.57-17.11-3.17-29.44-13.26-38.42-27.88-7.07-11.52-11.16-24.44-17.31-36.38.19-.73.01-1.29-.74-1.59l-.24-.42c-.19-3.44-1.97-6.35-3.22-9.43-.7-1.73-1.8-2.79-3.88-2-7.86,2.97-15.96,4.99-24.29,6.11-2.32.31-2.77,1.9-1.87,3.63,2.86,5.49,3.81,11.82,7.58,16.9l.25.47ZM536.49,839.58l.04.05c.6-3.78-2.05-6.81-2.52-10.2-2.51-18.05-5.92-36.03-4.9-54.41.18-3.24.44-6.57-.56-10.22-1.7.54-3.07.91-4.38,1.4-8.77,3.3-16.82,8.02-25.08,12.36-12.79,6.72-20.62,17.3-23.4,31.14-5.3,26.42-3.49,52.57,5.1,78.15,1.97,5.86,4.17,11.72,7.96,16.76l-.21.14c.18.93.18,1.95.57,2.79,10.36,22.59,25.69,41,46.43,54.77,11.28,7.49,23.03,7.33,34.86,1.32,11.47-5.83,21.16-14.07,30.42-22.85,4.44-4.21,4.53-4.38-.45-7.66-17-11.21-29.88-26.16-40.41-43.41-3.47-5.69-6.18-11.87-10.57-16.99-3.19-7.66-6.38-15.32-9.56-22.98-.75-3.5-.98-7.17-3.32-10.15ZM915.77,434.36h.03c.22-1.92.48-3.88-.5-5.64-3.47-6.21-5.6-13.09-10.08-18.81-12.33-15.76-27.02-27.68-46.59-34.02-10.69-3.46-21.24-7.17-32.34-8.53-13.49-1.65-26.72-.55-38.28,7.89-3.79.69-5.97,3.64-8.47,6.1-6.87,6.77-12.1,14.82-17.68,22.61-7.1,9.91-13.55,20.35-22.81,28.54-11.55,7.49-24.03,12.96-37.33,16.88,30.78,15.11,62.37,14.94,94.52,7.07,5.76-.45,11.27-2.1,16.84-3.44,19.55-4.71,39.28-8.36,59.39-9.56,16.04-.96,31.88.93,48.33,4.27-.72-3.95-.68-7.45-2.91-10.45-.19-1.34-.42-2.66-2.12-2.9ZM545.09,785c.04.49.08.99.12,1.48.08.89.16,1.78.24,2.67-1.14,1.17-1,2.66-.93,4.07.36,7.44.85,14.86,2.63,22.15,4.19,17.09,9.85,33.69,17.44,49.54,9.22,19.26,21.45,36.34,38.09,50.02,7.73,6.35,16.64,9.29,26.55,9.77,15.83.77,30.46-3.2,44.23-10.77,16.51-9.07,31.57-20.12,45.34-32.96,2.63-2.46,5.37-4.81,8.15-7.09,2.63-2.15,4.64-5.16,8.74-6.89-1.18,8.08-5.34,14.13-7.55,20.84,3.09,2.72,6.52,2.06,9.76,1.43,4.7-.92,9.33-2.26,13.99-3.39,1.14-.27,2.53-.88,3.34.27,1.01,1.43-.05,2.72-1,3.8-3.74,4.24-8.22,7.35-13.74,8.82-5.82,1.55-11.71,2.64-17.75,2.75-1.9.04-4.09-.54-5.58.84-4.87,4.52-10.63,8.15-14.92,14.31,6.42,3.97,13,5.59,20.01,5.71,24.45.41,41.97-12.68,57.52-29.6,1.51-3.61,4.88-5.76,6.92-9.03,12.64-20.27,18.68-42.42,19.01-66.15.31-22.13-2.05-43.95-6.81-65.67-5.19-23.72-13.89-45.75-26.46-66.44-5.18-8.53-11.71-15.71-19.12-22.26-16.49-14.58-35.6-19.36-56.86-14.49-23.6,5.4-44.16,16.97-62.31,32.86-4.18,3.66-8.48,7.03-13.33,9.73-2.03,1.13-1.6-.66-1.92-1.57,0,0-.13.11-.13.11,3-5.63,6-11.27,9.1-17.07-3.66-2.93-8.51-3.32-12.2-6.56,5.18-3.85,10.53-5.57,16.42-5.33,3.82.16,6.93-1.11,9.98-3.27,7.36-5.21,14.57-10.69,22.96-14.28,1.44-.62,3.18-1.32,3.45-3.69-7-5.53-15.17-7.71-24.07-7.1-16.3,1.12-30.57,7.36-43.34,17.43-13.24,10.44-23.23,23.79-31.39,38.1-17.05,29.87-25.58,62.25-24.59,96.88ZM702.26,466.17c-.18-.72-.68-1.08-1.37-1.04-.16,0-.29.49-.44.76.58.13,1.16.25,1.74.38-.27,3.45,2.44,4.98,4.53,6.8,18.76,16.46,40.57,27.48,64.36,34.27,17.42,4.97,34.49,1.84,50.16-6.87,17.96-9.98,33.9-22.72,47.83-37.88.9-.98,2.44-1.71,1.7-3.87-4.2.29-8.47.42-12.78.93-19.6,2.34-38.59,7.64-57.85,11.67-22.25,4.66-44.55,6.65-67.2,2.33-10.39-1.98-20.54-4.67-30.68-7.5ZM1093.42,587.91c-9.15-.29-18.1-1.75-26.93-4.2-4.73-1.31-5.39-.8-6.33,3.92-.8,3.99-1.04,8.1-1.91,12.07-2.4,11.03,2.16,18.84,10.59,25.53,25.69,20.39,54.87,32.04,87.31,35.85,1.21.91,2.63,1.12,4.08,1.19,21.06,1.13,41.59-1.37,61.71-8.04,13.8-4.58,21.65-13.36,23.39-27.86,1.13-9.46,1.4-18.85.85-27.97-1.31-.36-1.58-.53-1.77-.46-.91.3-1.81.63-2.68,1.02-20.48,9.19-41.89,11.79-64.02,8.86-18.09-2.4-34.8-8.79-50.48-18.02-2.27-1.33-4.32-2.94-7.22-2.81-8.86.38-17.73.62-26.6.92ZM795.69,544.27c.65-.34,1.34-.63,1.98-.06,18.54,16.69,29.72,36.69,27.86,62.46-.14,1.97-.66,3.92,1.21,5.23,4.28,3,8.44,6.45,14.28,5.22,14.91.94,24.15-5.41,28.53-19.58,2.98-9.64,1.51-18.98-2.07-28.1-2.65-6.77-6.79-12.63-11.62-18.04-8.97-10.04-17.14-20.65-22.88-32.95-.5-1.08-1.23-2.05-1.78-3.11-1.59-3.1-3.27-1.75-4.97-.14-2.58-.23-4.5,1.46-6.69,2.34-18.89,7.59-37.96,9.75-57.44,2.16-7.59-2.96-15.25-5.75-22.91-8.54-1.45-.53-2.82-2.07-4.52-.78-1.58,10.26-3.38,20.41-4.65,30.62-2.04,16.42-4.2,32.86-1.94,49.47,3.32,24.35,17.15,40.37,39.36,49.77,2.17.97,4.26,1.84,6.81,1.77,19.17-.51,31.39-11.45,35.86-29.34,2.39-9.57,1.34-19.09-.36-28.59-2.52-14.02-7.78-27.1-14.08-39.8ZM975.95,647.29c-1.1-1.31-2.46-1.93-4.61-1.57,1.12,1.72,1.77,3.44,3.45,4.46.69,1.26,1.28,2.57,2.07,3.77,18.92,28.66,32.35,59.68,40.18,93.13.7,3.01,1.98,5.88,2.98,8.82,1.64,9.44,3.36,18.9,3.4,28.49.05,13.24-8.08,22.67-21.04,19.53-3.84-.93-4.43,1.07-4.43,4.28.01,7.92-.24,15.84-.29,23.77-.01,1.55-.62,3.38,1.65,4.8,29.86-6.41,56.92-19.68,82.62-39.02-.56,7.11-3.14,12.02-4.91,17.12-2.21,6.34-4.8,12.56-6.79,18.96-1.32,4.26.27,5.85,4.76,5.28,4.57-.58,8.89-2.09,12.75-4.64,7.84-5.16,15.23-10.86,21.52-17.9,11.89-13.31,21.66-28.1,30.5-43.55,3.61-6.32,7.47-12.5,11.21-18.75.97,5,1.1,9.5.94,13.99-.26,7.43-1.63,14.81-1.22,22.28.28,5.18,1.83,6.03,6.12,2.96,5.1-3.66,9.23-8.38,13.01-13.36,15.91-21.01,27.97-44.14,37.39-68.67,3.96-10.32,6.63-21.04,9.15-31.78.96-4.09.3-4.66-3.88-4.23-.71.07-1.42.22-2.12.38-16.71,3.93-33.62,5.25-50.73,3.82-1.88-.32-3.74-.75-5.63-.93-34.54-3.16-65.39-15.49-92.48-37.16-4.23-3.38-4.19-3.33-8.47-.27-11.08,7.91-22.95,13.51-36.92,14.31-12.74.73-24.73-1.56-36.33-6.57-.26-.68-.69-1.08-1.48-.85-.79-.3-1.58-.6-2.37-.9ZM876.83,1028.65l.13.1c10.36-8.02,18.03-18.55,26.37-28.43,41.46-49.1,67.52-105.13,75.06-169.22,1.74-14.77,1.95-29.72-.19-44.58-1.19-8.22-2.23-16.46-3.43-25.33,10.84,6.84,18.45,16.33,28.19,23.03,2.04-1.55,1.29-3.31,1.22-4.92-.55-13.08-4.04-25.54-7.7-38-6.3-21.4-15.34-41.66-26.53-60.83-7.34-12.59-16.3-24.24-24.57-36.28-.8-1.17-1.77-2.33-2.92-3.13-1.2-.83-2.85-.92-4.18-.41-1.82.69-1.15,2.47-.89,3.74,1.07,5.17,2.49,10.27,3.47,15.46,2.53,13.39,3.53,26.71-2.69,39.52-6.88,3.6-13.96,2.73-21.04.86-9.38-2.48-17.9-6.84-26.05-12.05-2.06-1.32-3.85-3.64-7.11-2.93-.1,2.09-.12,4-.28,5.9-1.11,13.23-3.51,26.18-8.83,38.42-2.88,6.63-6.28,12.97-11.66,18.02-5.08,4.78-5.05,4.85-11.24,2.16-6.84-2.98-13.41-6.44-19.64-10.57-6.58-4.36-13.23-8.62-20.92-13.61,2.58,10.46,4.9,19.87,7.22,29.27.22,2.13.28,4.3.7,6.4,5.17,25.89,5.86,51.9,2.52,78.09-2.37,18.57-7.37,36.17-17.86,51.86-4.39,6.56-9.29,12.78-13.95,19.15-.78.51-1.71.88-2.32,1.55-8.06,8.86-18.05,15.07-28.62,20.31-13.99,6.94-28.57,11.03-44.51,8.44-9.18-1.49-17.63-4.6-25.38-9.61-3.15-2.04-5.82-2.28-9.25-.36-15.59,8.73-32.28,13.51-50.3,12.71-3.2-.14-5.4,1.08-7.53,3.32-3.81,3.99-7.82,7.8-11.87,11.56-13.03,12.1-27.83,21.23-44.89,26.49-6.28,1.94-12.73,2.75-19.19,1.38-2.66-.56-4.48.17-6.65,1.39-11.29,6.35-22.67,12.52-34.92,16.95-21.08,7.61-42.69,10.93-65.07,8.67-2.24-.23-4.55-.93-7.88.45,13.11,18.29,26.47,35.22,44.75,48.5,5.52-12.49,7.1-26.06,17.49-35.81.8,3,.36,5.13.14,7.26-1.36,13.36-3.66,26.6-4.7,40.03-1.27,16.59.7,32.56,6.23,48.15,5.12,14.45,14.86,24.52,29.28,29.73,23.9,8.64,46.85,5.14,68.75-6.58,16.47-8.81,30.31-21.05,42.92-34.75,10.26-11.15,18.87-23.6,28.26-35.44l-.04.03c-2.33,13.62-8.17,25.98-14.23,38.24,2.71,1.41,5.14.93,7.47.93,13.42-.02,26.83.36,40.21-1.43,23.54-3.16,46.8-7.29,69.19-15.65,26.65-9.95,51.65-22.96,74.9-39.28,11.74-8.24,23.25-16.84,33.17-27.32.79-.22,1.34-.67,1.41-1.55ZM599.88,241.5c-11.86,3.39-22.79,8.88-32.86,15.82-26.86,18.52-45.47,43.71-58.37,73.41-6.94,15.97-11.44,32.54-13.45,49.84-2.25,19.34-3.9,38.71-2.89,58.2.7,13.42,1.57,26.84,2.61,40.25,1.07,13.9.9,27.85,1.73,41.75,1.61,27.12-.87,53.69-9.41,79.61-5.43,16.48-12.41,32.1-22.32,46.5-4.28,6.23-9.14,12.13-13.2,18.87,6.28,3.05,12.4,3.22,18.56,1.7,21.53-5.31,40.94-14.59,56.61-30.72,3.22-3.31,6.77-6.16,10.96-9.32,1.05,22.23-.64,43.95,7.48,65.27,4.68-5.42,6.3-11.57,9.62-16.75,10.63-16.6,22.53-32.06,39.08-43.19,9.8-6.59,19.91-12.77,31.73-15.47,3.48-.79,7.24-.47,10.45-2.39,3.84-.02,7.71-.32,11.52,0,14.14,1.16,27.64,4.15,37.55,15.5,2,2.29,4.18,2.13,6.5,1.47,11.77-3.37,23.72-3.08,36.14-1.89-2.22-4.01-4.41-7.71-6.37-11.53-8.76-17.06-10.18-35.27-8.6-54.03,1.59-18.93,4.5-37.66,8.6-56.19.73-3.29.34-5.51-2.42-7.45-3.14-2.21-6.08-4.7-9.19-6.95-9.53-6.89-19.3-13.45-26.76-22.82-5.23-6.56-10.4-13.14-14.71-20.64-3.3,3.64-5.53,7.6-7.95,11.45-2.33,3.7-2.65,8.6-6.55,11.66-4.23-11.47,1.52-28.85,12.48-38.58,9.33-8.28,18.79-11.14,25.56-7.56-2.54,3.1-6.9,4.6-8.12,9.48,4.71-.64,9.11-1.27,13.52-1.84,16.52-2.15,29.76-10.18,40.62-22.54,7.8-8.88,13.74-19.08,20.55-28.66,11.4-16.04,25.6-27.73,45.93-30.47,6.41-.86,6,.29,7.28-6.66.53-2.9,1.67-5.5,3.01-8.05,4.45-8.45,12.35-9.21,18.43-1.76,3.26,4,4.92,8.73,6.14,13.68.56,2.27.85,4.9,3.5,5.93,3.93,1.52,7.95,2.73,12.24,2.69.35-12.7-10.61-46.01-18.55-57.22-1.35.02-2.08,1.07-2.97,1.84-7.59,6.51-12.45,15.21-18.27,23.11-2.69,3.65-5.69,5.52-10.12,5.68-8.65.32-11.09-3.24-7.32-10.96,2.63-5.39,5.67-10.61,7.83-16.18,3.34-8.58,7.26-16.74,13.59-23.53,2.17-2.33,2.53-4.09.19-6.68-6.98-7.71-15.49-13.62-23.2-20.47-1.29-1.15-2.67-.99-3.48.72-.72,1.51-1.41,3.05-1.98,4.63-3.86,10.69-10.15,20.11-15.78,29.85-3.36,5.81-6.53,5.94-11.41,1.22-.86-.83-1.54-1.84-2.35-2.73-8.62-9.4-17.74-18.29-27.97-25.93-19.78-14.77-41.98-23.96-66.24-28.28-23.1-4.11-45.41-1.01-67.16,7.3ZM869.76,655.98c5.3,1.8,8.45,4.74,11.63,7.52,10.96,9.56,22.97,17.29,36.74,22.23,8.6,3.09,9.6,2.6,9.92-6.22,0-.24.01-.48.01-.72,0-18.89-5-36.48-13.83-53.08-1.16-2.18-3.25-4.07-2.4-7.83,18.92,6.3,37.69,10.11,57.28,4.91-.42-3.28-2.5-5.02-4.34-6.84-5.63-5.58-11.47-10.94-16.94-16.66-29.37-30.72-50.7-66.13-62.28-107.21-1.66-5.9-2.81-11.98-5.21-17.59-.9.16-1.51.08-1.8.34-10.82,9.87-21.28,20.16-33.29,28.63-2.28,1.61-2.21,3.41-1.33,5.62,2.59,6.54,6.25,12.42,10.79,17.77,6.37,7.51,12.77,15,18.39,23.1,9.06,13.06,13.59,27.35,12.32,43.42-1.69,21.33-18.01,37.58-39.3,38.95-8.8.57-16.98-1.39-25.06-5.75-1.01,3.56-3.26,5.77-4.95,8.36-7.14,10.94-16.84,18.24-30.02,20.23-3.89.59-7.83.82-12.33,1.28,5.65,8.01,10.91,15.43,16.13,22.88,2.48,3.54,4.56,7.39,7.35,10.66,13.67,16,29.29,29.69,47.76,40.03,10.11,5.66,11.04,5.63,15.92-4.85,5.55-11.91,7.9-24.65,8.68-37.66.6-10.06.62-20.14.17-31.51ZM751.44,1123.64c16.66,12.55,33.07,21.49,52.14,25.1,19.77,3.74,37.31-2.21,52.79-13.56,11.69-8.57,18.24-21.38,21.99-35.45,2.48-9.29,4.14-18.75,5.15-28.28.64-6.06,1.27-12.29-1.03-19.42-13.67,10.38-26.16,21.21-40.21,29.8-13.91,8.51-27.83,17.02-42.81,23.61-15.11,6.65-30.41,12.8-48.02,18.2ZM1050.32,1265.97c-.91-16.32-21.66-31.61-38.11-30.7,8.02,6.31,12.42,14.34,14.97,23.47.45,1.61.85,3.23,1.25,4.86.44,1.81,1.35,3.02,3.41,2.96,6.16-.19,12.36.63,18.48-.59Z"/>
      <path class="cls-4" d="M135.41,727.61c1.51-2.01,3.45-3.51,5.63-4.71-.03.4.12.72.44.97-1.61,1.95-2.87,4.2-5.07,5.6-.73-.4-1.11-1-1-1.86Z"/>
      <path class="cls-1" d="M176.89,873.35c.17-1.38,1.31-2.46,2.3-2.11,1.63.59.18,1.88-.07,2.82-.22.85-.26,1.95-1.44,2.22-.26-.98-.53-1.95-.79-2.92Z"/>
      <path class="cls-4" d="M599.88,241.5c21.75-8.31,44.05-11.41,67.16-7.3,24.27,4.31,46.47,13.5,66.24,28.28,10.23,7.64,19.35,16.52,27.97,25.93.81.88,1.49,1.9,2.35,2.73,4.88,4.72,8.05,4.6,11.41-1.22,5.63-9.74,11.93-19.16,15.78-29.85.57-1.58,1.26-3.12,1.98-4.63.82-1.71,2.19-1.86,3.48-.72,7.71,6.84,16.23,12.76,23.2,20.47,2.34,2.59,1.99,4.36-.19,6.68-6.33,6.78-10.25,14.95-13.59,23.53-2.17,5.57-5.21,10.79-7.83,16.18-3.77,7.72-1.33,11.28,7.32,10.96,4.43-.16,7.43-2.03,10.12-5.68,5.82-7.9,10.68-16.6,18.27-23.11.89-.76,1.62-1.81,2.97-1.84,7.94,11.21,18.9,44.52,18.55,57.22-4.29.04-8.3-1.17-12.24-2.69-2.65-1.02-2.94-3.66-3.5-5.93-1.22-4.95-2.88-9.68-6.14-13.68-6.08-7.45-13.99-6.69-18.43,1.76-1.34,2.55-2.48,5.15-3.01,8.05-1.28,6.95-.87,5.8-7.28,6.66-20.33,2.73-34.53,14.42-45.93,30.47-6.81,9.58-12.76,19.79-20.55,28.66-10.85,12.36-24.1,20.39-40.62,22.54-4.41.57-8.81,1.2-13.52,1.84,1.22-4.88,5.59-6.37,8.12-9.48-6.77-3.58-16.23-.71-25.56,7.56-10.96,9.72-16.71,27.11-12.48,38.58,3.91-3.06,4.23-7.96,6.55-11.66,2.42-3.85,4.65-7.82,7.95-11.45,4.31,7.5,9.49,14.08,14.71,20.64,7.46,9.37,17.23,15.93,26.76,22.82,3.11,2.25,6.05,4.74,9.19,6.95,2.76,1.94,3.15,4.16,2.42,7.45-4.1,18.53-7.01,37.25-8.6,56.19-1.57,18.75-.16,36.96,8.6,54.03,1.96,3.82,4.14,7.52,6.37,11.53-12.43-1.2-24.38-1.48-36.14,1.89-2.32.66-4.5.82-6.5-1.47-9.91-11.35-23.41-14.34-37.55-15.5-3.81-.31-7.68-.01-11.52,0-1.48-.65-3.09,0-3.58-3.07-1.25-7.85-3.73-15.51-5.92-24.06-3.13,5.28-7.22,8.85-9.95,13.11-4.18,6.53-8.84,12.46-14.4,17.72-3.29,3.11-6.71,6.17-11.04,7.85-5.94,2.31-8.25,1.25-10.44-4.66-.42-1.12-.87-2.25-1.09-3.42-3.11-15.9-7.53-31.69-4.51-48.18.19-1.05.48-2.35-.63-3.27-.23,0-.59-.1-.68.01-1.43,1.91-2.89,3.8-4.22,5.77-8.62,12.78-19.35,23.08-33.76,29.19-4.45,1.89-5.71,1.16-5.25-3.77.34-3.56.81-7.15,1.66-10.63,5.06-20.66,6.19-41.64,5.52-62.79-.12-3.83-.14-7.68-.54-11.49-.66-6.41-2.04-12.78-2.29-19.2-.41-10.56-2.88-20.83-3.58-31.35-.71-10.71-3.3-21.35-3.43-32.04-.16-12.88-1.45-25.69-.6-38.68,1.2-18.19,2.54-36.27,7.77-53.79,3.08-10.3,6.85-20.4,10.54-30.51,2.07-5.67,6.07-10.31,9.19-15.41,7.25-11.83,14.92-23.32,25.56-32.62,5.6-4.9,11.24-9.68,17.41-13.82,1.6-1.08,3.7-1.76,1.96-4.29ZM648.78,295.83c-9.86.63-17.1,6.53-24.39,12.24-2.05,1.61-3.97,3.56-5.42,5.71-3.01,4.48-1.33,8.18,4.04,8.55,3.8.26,7.71-.09,11.48-.72,10.1-1.68,19.58.22,28.75,4.38,5.24,2.38,10.54,4.65,15.66,7.26,5.7,2.9,11.34,5.98,16.29,10.31-9.53,7.75-11.6,10.05-13.45,16.7-1.88,6.73-2.93,13.6-1.59,20.64.47,2.45.6,4.97.92,7.77-2.91-.19-5.05-.28-7.18-.49-13.08-1.27-25.79,0-38.27,4.4-6.04,2.13-10.97,5.65-15.7,9.66-1.15.98-1.79,2.46-.85,3.83.86,1.25,2.14.34,3.26.05,4.4-1.16,8.74-2.61,13.21-3.39,26.46-4.65,51.99-1.9,76.37,9.84,2.29,1.1,4.66,2.74,7.5,1.23.4-3.33-1.73-5.42-3.86-7.26-2.87-2.49-2.87-4.54-.98-7.95,6.85-12.34,8.99-25.27,2.92-38.68-1.36-3-2.84-5.94-4.58-9.55,4.52.39,8.29.71,12.07,1.04,5.26.46,10.02-.75,14.05-4.29,5.21-4.57,4.69-7.71-1.85-10.27-5.32-2.09-10.63-4.29-15.3-7.54-8.65-6.01-16.98-12.46-25.55-18.58-9.95-7.11-20.41-13.21-32.82-14.97-4.91-1.83-9.81-1.85-14.7.08Z"/>
      <path class="cls-4" d="M790.03,910.32c4.67-6.37,9.56-12.59,13.95-19.15,10.5-15.69,15.49-33.29,17.86-51.86,3.34-26.19,2.65-52.19-2.52-78.09-.42-2.09-.47-4.26-.7-6.4.66.28,1.46.4,1.95.86,9.53,8.7,21.45,13.52,32.34,20,5.04,3,7.63,2.95,11.04-.39,10.37-10.15,19.06-21.44,24.61-35.07,2.63-6.45,5.22-12.85,6.92-19.61.94-3.75,2.21-4.24,5.53-2.69.86.4,1.58,1.1,2.42,1.56,7.19,3.88,14.72,7.04,22.38,9.83,5.15,1.87,6.29,1.19,7.48-3.96,1.98-8.59,4.14-17.16,4.87-25.99,6.22-12.81,5.22-26.14,2.69-39.52-.98-5.19-2.4-10.29-3.47-15.46-.26-1.27-.93-3.04.89-3.74,1.34-.51,2.99-.42,4.18.41,1.15.79,2.11,1.96,2.92,3.13,8.28,12.04,17.23,23.69,24.57,36.28,11.18,19.17,20.23,39.43,26.53,60.83,3.67,12.46,7.16,24.93,7.7,38,.07,1.61.83,3.37-1.22,4.92-9.73-6.69-17.35-16.18-28.19-23.03,1.19,8.87,2.24,17.11,3.43,25.33,2.14,14.86,1.93,29.81.19,44.58-7.55,64.09-33.61,120.12-75.06,169.22-8.34,9.88-16.01,20.42-26.37,28.43-.27-2.64,1.28-4.54,2.72-6.43,2.17-2.85,4.59-5.51,6.7-8.41,5.73-7.89,12.66-14.97,16.47-24.16,1.73-1.17,3.29-2.45,3.98-5.58-2.66,1.62-3.98,3.04-4.31,5.3-1.55.09-2.63,1.02-3.73,1.98-23.53,20.73-50.61,35.35-79.94,45.98-15.34,5.56-31.09,9.51-47.3,11.64-16.07,2.11-31.97,4.8-48.42,2.87-15.57-1.83-30.74-4.81-45.22-10.65-9.54-3.85-18.48-8.89-26.84-15.16-6.68-5.01-11.07-11.92-16.97-17.52-3.96-3.75-3.37-4.99,1.59-7.97,14.62-8.78,28.95-17.96,39.5-31.79,1.31-1.72,2.76-2.46,4.96-1.74,9.19,3.04,18.45,3.63,28.19,2.61,11.38-1.18,22.18-3.78,32.37-8.75,21.62-10.53,37.37-27.26,49.45-47.72.53-.89,1.61-2.04-.14-2.93ZM850.93,886.29c-.99,2.46-1.41,3.06-1.46,3.69-.72,9.63,1.33,19.07,1.97,28.61.14,2.11,1.08,4.16,1.53,6.27.73,3.43,2.73,4.76,6.21,4.35,1.93-.23,3.87-.3,5.51-1.39,9.62-6.38,19.04-12.92,24.55-23.64,5.16-10.04,10.11-20.15,13.23-31.05.51-1.77.63-3.74,2.42-4.96,2.14,2.3,4.19,4.64,6.37,6.84,4.78,4.82,7.72,4.8,12.82.15,2-1.82,3.26-4.1,4.58-6.4,7.26-12.65,8.63-26.73,10.02-40.8.98-9.93-.78-19.63-3.36-29.11-1.51-5.53-2.93-11.38-7.63-15.82-1.48,4.91.88,9.02.86,13.29-.06,14.13,1.21,28.29-1.33,42.36-1.37,7.61-3.56,14.91-7.14,21.73-2.37,4.52-3.7,4.52-6.13.13-3.85-6.97-8.81-13.12-13.65-19.37-.95-1.23-1.87-2.96-4.43-1.94-2.01,30.54-11.69,58.08-34.29,81.1-3.84-11.29-5.17-22.51-10.66-34.03Z"/>
      <path class="cls-1" d="M902.84,989.74c-3.81,9.2-10.74,16.27-16.47,24.16-2.1,2.9-4.53,5.56-6.7,8.41-1.44,1.89-2.99,3.79-2.72,6.43,0,0-.13-.09-.13-.09-.79.22-2.65-.53-1.41,1.55-9.92,10.48-21.43,19.09-33.17,27.32-23.25,16.31-48.25,29.32-74.9,39.28-22.39,8.36-45.65,12.5-69.19,15.65-13.37,1.79-26.79,1.42-40.21,1.43-2.33,0-4.76.49-7.47-.93,6.06-12.27,11.9-24.63,14.23-38.25,0,0,.21-.18.21-.18l-.17.15c-9.39,11.84-18.01,24.29-28.26,35.44-12.6,13.7-26.45,25.95-42.92,34.75-21.9,11.71-44.84,15.22-68.75,6.58-14.42-5.21-24.16-15.28-29.28-29.73-5.53-15.59-7.5-31.56-6.23-48.15,1.03-13.43,3.34-26.66,4.7-40.03.22-2.13.66-4.26-.14-7.26-10.39,9.75-11.97,23.32-17.49,35.81-18.28-13.28-31.63-30.21-44.75-48.5,3.32-1.38,5.64-.68,7.88-.45,22.38,2.26,43.99-1.05,65.07-8.67,12.25-4.42,23.63-10.59,34.92-16.95,2.17-1.22,3.99-1.96,6.65-1.39,6.46,1.37,12.91.55,19.19-1.38,17.06-5.26,31.87-14.39,44.89-26.49,4.05-3.76,8.06-7.57,11.87-11.56,2.14-2.24,4.34-3.46,7.53-3.32,18.02.8,34.7-3.98,50.3-12.71,3.43-1.92,6.11-1.68,9.25.36,7.75,5.01,16.19,8.12,25.38,9.61,15.93,2.58,30.52-1.5,44.51-8.44,10.57-5.24,20.56-11.45,28.62-20.31.61-.67,1.54-1.04,2.32-1.55,1.75.89.67,2.04.14,2.93-12.08,20.46-27.83,37.19-49.45,47.72-10.19,4.97-20.99,7.56-32.37,8.75-9.74,1.01-19,.43-28.19-2.61-2.19-.73-3.64.02-4.96,1.74-10.55,13.84-24.88,23.01-39.5,31.79-4.97,2.98-5.55,4.22-1.59,7.97,5.9,5.6,10.29,12.5,16.97,17.52,8.36,6.27,17.29,11.31,26.84,15.16,14.48,5.84,29.64,8.82,45.22,10.65,16.45,1.93,32.35-.76,48.42-2.87,16.2-2.13,31.96-6.08,47.3-11.64,29.33-10.63,56.4-25.25,79.94-45.98,1.1-.97,2.18-1.89,3.73-1.98l.32.29Z"/>
      <path class="cls-3" d="M545.45,789.15c-.08-.89-.16-1.78-.24-2.68.38-.35.77-.7,1.15-1.05,1.95-1.6,1.63-3.84,1.7-5.97.28-7.92,1.66-15.65,4.06-23.19,2.24-7.05,5.25-13.92,6.87-21.11,3.38-15.01,11.02-28.11,18.31-41.22,4.1-7.36,9.13-14.51,15.22-20.75,11.24-11.52,24.17-20.11,39.6-24.72,3.85-1.15,7.76-2.56,11.94-2.05,1.19.14,2.45.12,2.97,1.51.49,1.29.04,2.52-.97,3.19-4.95,3.27-9.52,7.29-16.14,6.91-6.32-.37-11.56,2.66-16.42,6.27-2.68,1.99-2.55,3.52.47,5.2,4.85,2.69,6.72,6.18,4.98,11.81-.81,2.63-.17,5.7-.18,8.57,0,0,.13-.11.13-.11-2.74,1.04-4.12,2.87-2.15,5.47,1.62,2.14,2.95-.32,4.21-1,6.53-3.51,12.73-7.35,18.2-12.6,4.93-4.74,10.59-9.01,17.93-9.89,1.61-.19,3.37-.79,4.67-1.74,8-5.89,17.2-6.38,26.59-6.31,2.2.02,3.58.91,4.5,2.86.93,1.97-.11,3.26-1.39,4.39-2.48,2.19-3.38,4.79-3.77,8.14-.84,7.1,0,13.21,4.32,19.42,7.45,10.69,17.03,15.51,29.88,14.28,2.06-.2,3.68-.93,5.03-2.4,3.17-3.43,5.09-7.32,5.63-12.1,1.38-12.08-8.09-23.61-21.64-28.7-1.84-.69-4.14-.82-3.73-3.36.38-2.33,2.59-2.45,4.58-2.48,1.48-.02,2.78.54,4.14,1.04,12.14,4.47,22.3,11.79,31.03,21.24,1.48,1.6,3.19,3.13,2.87,5.54-.52,3.98,1.56,6.16,4.7,8.03,1.38.82,2.52,2.25,3.44,3.62,6.53,9.67,13.48,19.13,16.52,30.69.24.9.94,1.66,1.25,2.55,1.7,4.94,4.77,9.19,6.43,14.25,2.24,6.82,3.51,13.86,5.77,20.64,6.16,18.47,9.62,37.38,9.56,56.89-.02,6.48-.03,12.96-.03,19.44,0,9.3-3.75,17.56-7.66,25.63-2.44,5.05-4.29,5.17-9.37,2.6-.72-17.08-11.91-27.28-26.56-28.84-8.12-.86-16.16.32-24.14,2.41-13.14,3.43-25.03,9.59-36.83,15.95-11.02,5.94-22.56,10.52-34.49,14.06-10.39,3.09-21.15,4.54-31.94,3.19-19.19-2.41-34.74-12.4-47.41-26.24-13.77-15.05-21.86-33.57-28.25-52.83-1.61-4.86-1.51-10.4-5.37-14.43ZM742.66,723.63c.01-4.05-.74-8.61-5.08-10.48-3.64-1.57-7.54.03-10.39,2.98-3.48,3.59-2.52,11.28,1.78,15.36,4.61,4.37,10.14,3.57,12.96-1.87.93-1.79.61-3.71.73-5.99Z"/>
      <path class="cls-1" d="M624.45,154.68c5.81,2.56,9.84,7.36,15.5,13.1-.54-6.92-.92-12.14-2.13-17.34-3.1-13.35-8.34-25.94-13.51-38.57-2.17-5.31-4.18-10.7-6.16-16.09-8.96-24.3,4.7-44.27,30.02-46.15,12.41-.92,24.75,1.03,36.59,5.31-3.6,1.69-7.44,1.58-11.29,1.56-2.64-.01-5.27.07-7.91.18-1.05.05-1.8.74-2.02,1.73-.21.97.06,2.02.93,2.54,1.21.72,2.58,1.17,3.85,1.81,7.71,3.85,15.58,7.37,22.96,11.91,18.55,11.42,34.43,25.8,48.02,42.75,10.26,12.81,18.32,26.88,23.67,42.43,5.37,15.63,9.42,31.43,10.42,48.15.92,15.33,1.75,30.52-.42,45.77-.44,3.06-2.01,5.95-1.43,9.16,0,0,.07-.12.07-.12-2.67,1.11-2.98,3.41-2.95,5.88,0,0,.18,0,.18,0-1.56-.03-3.12-.05-4.67-.08,0,0,.11.06.11.06-.52-.52-1.04-1.03-1.56-1.55,0,0,.12.12.12.12-.52-.52-1.05-1.04-1.57-1.56,0,0,.08.13.08.13-.19-1.97-1.38-2.83-3.26-2.92-2.07-.27-3.3-1.85-4.63-3.15-18.83-18.27-42.11-28.27-66.67-35.9-1.13-.35-2.24-.79-3.36-1.19-3.29-2.33-6.78-3.86-10.83-4.85-6.06-1.48-12.18-2.36-18.29-3.39-11.32-1.91-22.75-2.74-34.19-3.48-4.16-.27-8.02,1.55-12.1,1.33-9.21-.49-18.15,1.12-26.87,3.78-3.98,1.21-6.78.07-8.63-3.06-4.73-8.02-12.84-11.21-20.58-14.9-9.59-4.57-20.07-6.22-30.25-8.82-15.17-3.86-27.85-11.31-36.77-24.56-2.9-4.3-4.25-8.96-5.06-14.02-1.03-6.53-2.12-7.01-7.9-4.15-6.21,3.08-12.31,6.4-18.46,9.62,4.42-11.83,13.17-19.04,24.78-23.2.13.95.33,1.89.37,2.84.36,7.81.44,8.03,7.49,5.43,10.65-3.92,21.76-6.05,32.9-6.53,14.05-.61,28.17-1.19,42.3.92,17.54,2.63,34.73,6.29,51.17,13.04,2.01.82,3.95,1.73,6.18,1.61,0,0-.1-.06-.1-.06,1.3,2.33,3.13,3.95,5.83,4.43Z"/>
      <path class="cls-4" d="M507.63,753.26c-7.45,4.34-14.9,8.67-22.34,13.02-6.94,4.06-12.6,9.63-17.61,15.8-2.95,3.63-6.5,5.12-11.06,5.75-26.41,3.66-46.96,17.04-62.54,38.42-.09.12.06.41.19,1.2,19.68-12.22,39.69-23.23,64.22-24.3-1.1,5.65-2.23,10.91-3.13,16.21-2.35,13.82-1.67,27.67.41,41.42,2.81,18.58,7.63,36.62,15.8,53.65,1.66,3.45,3.35,6.89,5.02,10.33-11.18,2.22-22.06,5.49-33.91,3.42-11.47-2-21.48-7.35-32.4-12,.25,2.51,1.28,3.75,2.24,5.1,3.36,4.71,7.32,8.88,11.45,12.91,1.71,1.67,3.47,3.31,4.58,5.52,2.39,4.79,1.42,6.57-3.89,6.79-10.48.43-19.75-3.43-28.51-8.57-4.31-2.53-8.7-5.12-11.88-9.21-3.09-3.97-6.23-7.89-9.43-11.77-.88-1.07-1.93-2.29-3.85-1.09-1.31,4.86.4,10.22-1.23,15.83-2.88-1.66-3.97-3.99-5.29-6.15-5.36-8.74-7.72-18.52-9.71-28.39-1.48-7.32-2-14.61-.34-22.08,1.04-4.72.04-9.71,1.1-14.66-1.09.13-1.72.02-1.97.27-8.34,8.26-17.27,15.93-24.44,25.34-1.69,2.21-3.32,4.79-6.36,5.6.04-11.2,3.38-21.72,7.02-32.08,9.52-27.11,23.38-52.04,40.18-75.21,16.08-22.16,34.39-42.49,54.06-61.58,8.78-8.52,17.71-16.86,27.15-24.64,1.83-1.51,3.38-3.42,5.73-4.21.78,1.51-.18,3.39,1.21,5.02,9.33-3.97,19.16-5.37,29.34-4.95,11.09.46,19.01,6.22,22.07,16.93,1.9,6.66,2.54,13.34,1.61,20.5-.95,7.35-2.37,14.59-3.48,21.89Z"/>
      <path class="cls-1" d="M1102.91,487.7c1.39,8.55-3.62,14.06-9.36,18.99-6.65,5.7-14.85,7.63-23.32,8.46-8.69.85-17.24.27-25.55-2.78-3.29-1.21-6.68-2.43-10.56-2.15-.12,4.08,2.74,6.14,5.13,8.32,15.35,13.96,39.42,15.99,57.64,4.95,7.3-4.42,7.15-4.27,13.29,1.86,6.83,6.82,11.48,14.69,13.27,24.21.17.9.23,1.93,2.12,2.36,3.43-5.22,2.19-11.15,2.13-16.94-.03-3.15-3.78-6.88-.3-9.16,2.31-1.52,5.84,1.17,8.85,1.86,9.8,2.27,19.5,5.04,29.68,5.35,19.61.6,38.19-2.63,54.81-13.89,10-6.77,17.54-15.67,22.76-26.42,2.24-4.62,5.21-7.52,10.1-9.39,11.34-4.33,17.95-12.9,20.54-25.46-7.73,2.12-11.52,10.07-20,11.18,1.74-15.02,4.79-29.87-3.94-43.8-2.91,1.9-2.55,4.61-2.93,7.1-2.52,16.41-6,32.47-13.74,47.45-14,27.12-36.78,37.94-66.27,36.54-14.75-.7-28.89-4.48-42.55-10.03-2-.81-3.89-1.87-5.84-2.81-1.85-.9-2.26-2.19-1.37-4.08,4.14-8.86,3.06-18.32,3.06-27.65,3.42,1.09,6.96,1.9,10.23,3.33,13.94,6.08,28.5,7.97,43.56,6.93,20.21-1.39,36.63-8.7,45.45-28.39,3.23-7.22,6.89-14.25,11.7-20.6,6.37-8.4,14.09-15.02,24.44-18.01,6.42-1.85,11.97-.88,17.25,3.87,8.27,7.45,10.35,17.53,13.07,27.42,2.52,9.16,1.27,18.58,1.58,27.89.47,14.21-1.58,28.13-4.97,41.87-.52,2.12-.95,4.19-.9,6.36-3.01,7.57-5.98,15.15-9.07,22.69-.64,1.57-1.04,3.09-.93,4.77,0,0,.08-.09.08-.08-1.03.37-1.13.85-.17,1.45-13.62,23.18-33.26,38.03-59.96,42.75-17.8,3.15-35.42,1.42-52.8-3.09-9.6-2.49-18.65-6.35-26.8-12.03-3.14-2.19-6.08-3.24-10.01-2.48-8.42,1.62-16.67-.4-24.88-2.07-15.34-3.13-30.46-7.18-44.19-14.85-17.99-10.05-34.02-22.44-44.46-40.83.58-2.29,1.09-4.55-2.46-4.65,0,0-.05-.15-.05-.15.81-2.79-.47-5.35-1.56-7.59-5.08-10.46-6.2-21.48-5.46-32.86.45-1.59,1.63-2.5,3-3.24,9.38,3.2,17.01,9.59,25.61,14.23,9.98,5.38,20.1,9.86,31.12,12.41,6.62,1.54,13.19,1.26,19.87.31,8.53-1.21,15.63-5.54,22.87-9.66.4.07.8.14,1.21.2Z"/>
      <path class="cls-3" d="M1281.95,522.46c-.04-2.17.38-4.24.9-6.36,3.39-13.74,5.44-27.67,4.97-41.87-.31-9.31.94-18.73-1.58-27.89-2.72-9.89-4.8-19.97-13.07-27.42-5.28-4.75-10.83-5.72-17.25-3.87-10.35,2.99-18.08,9.61-24.44,18.01-4.81,6.34-8.47,13.37-11.7,20.6-8.82,19.69-25.24,27-45.45,28.39-15.06,1.03-29.62-.86-43.56-6.93-3.27-1.43-6.81-2.24-10.23-3.33-8.13-35.61-42.34-54.59-69.88-56.37-4.52-.29-9.03-.76-13.55-1.14.65-9.94,4.36-19.08,7.62-28.29,5.65-15.93,14.73-29.56,28.9-39.21,5.59-3.81,11.5-7.25,18.75-8.26-2.88,13.33,2.07,20.14,10.07,23.24,11.48,4.44,23.24,3.82,33.43-3.96,8.61-6.58,8.23-13.32-.48-19.8-1.83-1.36-4.3-2.14-3.91-5.43,1.66-.12,3.07-.31,4.48-.31,10.83-.02,21.29,2.49,31.74,4.91,6.74,1.56,13.59,2.85,20.11,5.09,10.4,3.58,20.61,7.74,30.82,11.84,10.68,4.29,20.95,9.5,30.68,15.62,12.44,7.83,22.58,18.39,33.23,28.42,11.15,10.5,16.72,23.42,17.87,38.04,1.53,19.39.06,38.65-5.49,57.54-1.94,6.59-5.47,12.58-6.34,19.69-.36,2.98-1.22,8.46-6.64,9.08ZM1160.41,350.79c-6.71-.12-11.85,2.97-12.26,7.37-.32,3.4,6.66,9.64,10.97,9.81,4.51.18,10.24-4.91,10.3-9.14.06-4.56-3.74-7.94-9.01-8.04Z"/>
      <path class="cls-1" d="M599.88,241.5c1.75,2.53-.35,3.22-1.96,4.29-6.17,4.14-11.81,8.91-17.41,13.82-10.63,9.31-18.3,20.79-25.56,32.62-3.12,5.1-7.12,9.74-9.19,15.41-3.7,10.11-7.46,20.21-10.54,30.51-5.24,17.51-6.57,35.59-7.77,53.79-.86,12.98.43,25.8.6,38.68.14,10.69,2.72,21.33,3.43,32.04.7,10.52,3.17,20.8,3.58,31.35.25,6.42,1.63,12.78,2.29,19.2.39,3.81.42,7.66.54,11.49.67,21.15-.46,42.13-5.52,62.79-.85,3.47-1.32,7.06-1.66,10.63-.47,4.92.79,5.65,5.25,3.77,14.41-6.1,25.14-16.41,33.76-29.19,1.33-1.97,2.79-3.86,4.22-5.77.08-.11.44-.01.68-.01,1.11.93.83,2.23.63,3.27-3.02,16.49,1.4,32.27,4.51,48.18.23,1.17.68,2.3,1.09,3.42,2.19,5.91,4.5,6.96,10.44,4.66,4.33-1.68,7.75-4.74,11.04-7.85,5.57-5.26,10.23-11.19,14.4-17.72,2.73-4.26,6.82-7.83,9.95-13.11,2.2,8.54,4.68,16.2,5.92,24.06.49,3.08,2.1,2.43,3.58,3.07-3.21,1.92-6.97,1.59-10.45,2.39-11.82,2.7-21.92,8.88-31.73,15.47-16.55,11.12-28.45,26.59-39.08,43.19-3.32,5.18-4.95,11.33-9.62,16.75-8.12-21.31-6.43-43.04-7.48-65.27-4.19,3.16-7.75,6.01-10.96,9.32-15.67,16.13-35.08,25.41-56.61,30.72-6.16,1.52-12.28,1.35-18.56-1.7,4.06-6.74,8.91-12.64,13.2-18.87,9.91-14.4,16.89-30.02,22.32-46.5,8.54-25.92,11.02-52.48,9.41-79.61-.82-13.9-.65-27.85-1.73-41.75-1.04-13.4-1.91-26.82-2.61-40.25-1.01-19.49.64-38.85,2.89-58.2,2.01-17.31,6.51-33.88,13.45-49.84,12.9-29.7,31.52-54.9,58.37-73.41,10.07-6.94,21-12.44,32.86-15.82Z"/>
      <path class="cls-5" d="M49.74,796.52c-2.09-3.83-.9-7.76-.35-11.68.92,0,1.58,2.88,2.3.82.9-2.62.24-5.64,1.07-8.49,4.28-14.72,9.3-29.11,15.61-43.15,13.03-28.99,30.11-55.09,53.14-77.03,13.76-13.11,28.53-24.94,46.89-31.27,3.39-1.17,6.65-2.89,10.12-3.64,3.45-.75,6.65-2.88,11.83-2.55-25.55,19.04-43.17,42-50.54,71.81,2.11,1.35,3.11.46,4.21.12,7.63-2.34,13.9-7.53,21.39-10.19,3.27-1.16,4.62-3.9,5.32-7.15,2.8-12.89,8.6-24.3,17.21-34.28,11.62-13.49,25.38-23.42,43.72-25.08,20.82-1.89,40.77,2.12,59.27,11.49,23.51,11.9,44.49,27.48,60.81,48.43,14.34,18.41,26.16,38.37,33.21,60.85-.15,1.03-.77,1.61-1.75,1.86-.27.39-.59.73-.96,1.02l-.05.38s-.38.06-.37.06c-.35.39-.7.78-1.05,1.18,0,0-.2.22-.2.22-.42.51-.85,1.02-1.27,1.53-3.67,6.66-9.19,11.82-14.22,17.37-1.4-3.08-3.48-5.63-5.89-7.99-7.65-7.49-14.84-15.52-23.51-21.84-4.53-3.3-7.92-8.43-14.05-9.34-.06-.42-.08-.84-.07-1.26,1.22-3.82-1.63-5.78-3.82-7.86-14.06-13.35-30.13-23.68-47.98-31.19-23.27-9.79-47.37-10.5-72.04-6.96-21.26,3.05-39.41,13.45-57.54,23.6-22.06,12.35-39.29,30.32-54.81,50.13-11.75,15-21.67,31-29.91,48.12-.39.81-1.2,1.42-1.81,2.13-.89-1.71,2.07-4.92-1.42-5.29-2.73-.29-1.26,3.02-2.21,4.48-.13.2-.18.44-.27.66Z"/>
      <path class="cls-1" d="M384.94,735.53c-7.05-22.48-18.87-42.44-33.21-60.85-16.32-20.95-37.3-36.52-60.81-48.43-18.49-9.36-38.44-13.38-59.27-11.49-18.34,1.66-32.09,11.59-43.72,25.08-8.6,9.99-14.4,21.4-17.21,34.28-.71,3.24-2.05,5.98-5.32,7.15-7.49,2.66-13.75,7.85-21.39,10.19-1.1.34-2.1,1.23-4.21-.12,7.37-29.82,24.99-52.78,50.54-71.81-5.18-.33-8.38,1.8-11.83,2.55-3.47.75-6.73,2.47-10.12,3.64-18.37,6.32-33.14,18.16-46.89,31.27-23.03,21.95-40.11,48.04-53.14,77.03-6.31,14.04-11.32,28.43-15.61,43.15-.83,2.85-.17,5.88-1.07,8.49-.71,2.07-1.37-.82-2.3-.82,3.27-34.65,9.29-68.72,23.11-100.9,4.02-9.36,7.99-18.88,13.92-27.33,2.1.9,1.1-.96,1.44-1.62,0,0-.03.02-.03.02,2.14-.02,3.61-1.29,4.75-2.86,8.64-12,20.04-21.44,31.37-30.41,19.77-15.65,41.7-28.02,65.98-35.68,7.76-2.45,15.76-3.84,23.71-5.49,10.82-2.25,21.93-3.15,32.73-2.86,9.15.24,18.53.58,27.8,2.05,22.14,3.51,42.6,11.19,61.29,23.21,16.38,10.53,30.51,23.86,43.46,38.4,1.04,1.17,1.71,2.4,3.29.84,8.89,12.41,14.18,26.56,19.51,40.66,2.63,6.95,4.35,14.23,6.95,21.19,1.48,3.94.98,6.69-2.04,9.62-7.37,7.15-14.48,14.56-21.7,21.86Z"/>
      <path class="cls-4" d="M869.76,655.98c.44,11.37.42,21.45-.17,31.51-.77,13.02-3.12,25.76-8.68,37.66-4.89,10.48-5.81,10.51-15.92,4.85-18.46-10.33-34.08-24.03-47.76-40.03-2.79-3.26-4.87-7.12-7.35-10.66-5.22-7.45-10.47-14.87-16.13-22.88,4.51-.46,8.45-.7,12.33-1.28,13.18-1.98,22.88-9.28,30.02-20.23,1.69-2.59,3.94-4.8,4.95-8.36,8.08,4.36,16.26,6.32,25.06,5.75,21.29-1.37,37.61-17.61,39.3-38.95,1.27-16.07-3.26-30.36-12.32-43.42-5.62-8.1-12.02-15.59-18.39-23.1-4.54-5.35-8.2-11.23-10.79-17.77-.88-2.21-.95-4.02,1.33-5.62,12.01-8.47,22.47-18.76,33.29-28.63.29-.27.9-.18,1.8-.34,2.4,5.61,3.54,11.69,5.21,17.59,11.58,41.08,32.91,76.49,62.28,107.21,5.47,5.72,11.32,11.09,16.94,16.66,1.85,1.83,3.92,3.56,4.34,6.84-19.59,5.2-38.35,1.39-57.28-4.91-.85,3.75,1.24,5.65,2.4,7.83,8.83,16.59,13.84,34.18,13.83,53.08,0,.24,0,.48-.01.72-.31,8.83-1.31,9.31-9.92,6.22-13.77-4.94-25.79-12.67-36.74-22.23-3.18-2.78-6.33-5.72-11.63-7.52Z"/>
      <path class="cls-1" d="M1159.63,679.65c17.12,1.44,34.02.11,50.73-3.82.7-.16,1.41-.31,2.12-.38,4.18-.43,4.84.15,3.88,4.23-2.52,10.74-5.19,21.46-9.15,31.78-9.42,24.54-21.47,47.66-37.39,68.67-3.78,4.98-7.9,9.71-13.01,13.36-4.29,3.08-5.84,2.22-6.12-2.96-.41-7.47.95-14.84,1.22-22.28.16-4.49.03-8.99-.94-13.99-3.74,6.24-7.6,12.43-11.21,18.75-8.84,15.45-18.61,30.23-30.5,43.55-6.29,7.04-13.68,12.74-21.52,17.9-3.87,2.55-8.18,4.06-12.75,4.64-4.49.57-6.09-1.02-4.76-5.28,1.99-6.41,4.58-12.62,6.79-18.96,1.78-5.1,4.35-10,4.91-17.12-25.7,19.35-52.76,32.61-82.62,39.02-2.27-1.42-1.66-3.25-1.65-4.8.06-7.92.31-15.84.29-23.77,0-3.21.59-5.21,4.43-4.28,12.96,3.14,21.09-6.29,21.04-19.53-.04-9.59-1.75-19.05-3.4-28.49.96.07,1.96-.03,2.86.23,9.85,2.79,19.58,2.09,28.83-1.95,13.23-5.78,25.48-13.29,36.48-22.74,1.13-.97,1.9-2.99,4.02-1.98.75,1.46-.42,2.24-.95,3.23-3.86,7.19-7.89,14.28-10.15,22.21-.67,2.34-1.85,4.67.06,6.77,2.09,2.29,4.84,1.83,7.36.83,13.13-5.2,24.55-13.09,34.29-23.19,7.65-7.93,14.22-16.8,19.73-26.42,6.2-10.83,12.42-21.63,17.05-33.25Z"/>
      <path class="cls-5" d="M349.06,780.64c-8.85,13.4-17.02,27.14-24.15,41.6-7.24,14.68-14.46,29.21-17.89,45.32-.51,2.41-1.91,3.78-4.35,4.12-.47.07-.92.29-1.38.39-23.22,4.98-38.84,19.94-50.81,39.32-10.75,17.41-16.5,36.54-18.64,56.91-.98,9.34-1.27,18.65-1.36,28.01-.01,1.38.45,2.89-1.12,4.49-2.73-.7-3.53-3.06-4.24-5.52,2.42-2.51.48-4.94-.2-7.35-4.81-17.07-8.4-34.31-8.66-52.15-.06-4.39,1.57-8.44,1.49-12.81-.34-17.09,5.52-32.73,13.99-46.9,9.57-16.01,22.92-28.83,40.26-36.82,13.18-6.07,26.84-10.26,41.53-9.52,4.48.22,7.36-1.07,8.77-5.39.37-1.13,1.11-2.14,1.52-3.26,1.7-4.7,1.15-6.39-3.37-8.69-10.1-5.14-20.51-9.31-32.17-8.84-3.55-4.09-8.53-3.84-13.2-4.09-13.77-.73-27.1,2.07-40.41,5.19-18.4,4.31-34.12,13.57-48.44,25.54-1.28,1.07-2.41,2.36-4.17,2.69-.16-3.11.09-6.31-.54-9.32-3.25-15.53-.5-30.4,4.44-45.1,2.23-6.64,6.29-11.7,12.11-15.54,14.99-9.89,31.71-14.44,49.38-15.46,17.8-1.03,35.19.96,52.32,6.67,15.13,5.05,29.46,11.17,42.31,20.73,2.45,1.83,3.35,5.47,6.98,5.8Z"/>
      <path class="cls-4" d="M1159.63,679.65c-4.63,11.63-10.84,22.43-17.05,33.25-5.52,9.63-12.08,18.49-19.73,26.42-9.74,10.1-21.16,17.99-34.29,23.19-2.52,1-5.27,1.46-7.36-.83-1.92-2.1-.73-4.43-.06-6.77,2.26-7.93,6.29-15.03,10.15-22.21.53-.99,1.7-1.77.95-3.23-2.11-1.01-2.89,1-4.02,1.98-11,9.45-23.25,16.95-36.48,22.74-9.26,4.04-18.98,4.75-28.83,1.95-.9-.26-1.91-.16-2.86-.23-1.01-2.94-2.28-5.81-2.98-8.82-7.83-33.45-21.26-64.47-40.18-93.13-.79-1.19-1.39-2.51-2.07-3.76.38-.96.77-1.93,1.15-2.9.79.3,1.58.6,2.36.9.2.79.68,1.11,1.49.85,11.6,5.01,23.59,7.29,36.33,6.57,13.97-.8,25.84-6.4,36.92-14.31,4.28-3.06,4.24-3.12,8.47.27,27.09,21.68,57.94,34,92.48,37.16,1.89.17,3.76.61,5.63.93Z"/>
      <path class="cls-5" d="M453.52,156.19c6.15-3.22,12.24-6.54,18.46-9.62,5.78-2.87,6.87-2.39,7.9,4.15.8,5.06,2.16,9.72,5.06,14.02,8.92,13.24,21.59,20.69,36.77,24.56,10.18,2.59,20.66,4.25,30.25,8.82,7.75,3.69,15.85,6.87,20.58,14.9,1.84,3.13,4.65,4.27,8.63,3.06,8.72-2.66,17.66-4.27,26.87-3.78,4.08.22,7.93-1.6,12.1-1.33,11.44.73,22.87,1.57,34.19,3.48,6.11,1.03,12.23,1.91,18.29,3.39,4.05.99,7.54,2.52,10.83,4.85-8.98-1.35-17.85-3.06-27-3.64-16.22-1.02-32.04.52-47.72,4.32-28.7,6.94-53.66,21.01-74.38,41.8-16.99,17.05-31.97,35.87-39.96,59.15-1.34,3.9-3.56,5.87-7.54,6.57-10.91,1.92-22.11,3.76-32.79.94-15.19-4.01-22.12-13.4-20.48-28.4,1.73-15.82,9.08-29.13,19.7-40.78,16.16-17.72,36.69-28.29,58.97-35.94,5.38-1.85,10.88-3.35,16.72-5.14-1.51-4.1-4.79-5.13-7.85-6.17-11.81-4.01-23.67-7.87-35.51-11.79-10.18-3.38-18.92-9-26.94-16.13-7.77-6.9-9.74-21.84-5.14-31.27Z"/>
      <path class="cls-1" d="M349.06,780.64c-3.62-.33-4.52-3.98-6.98-5.8-12.84-9.56-27.17-15.69-42.31-20.73-17.13-5.71-34.52-7.7-52.32-6.67-17.68,1.03-34.39,5.57-49.38,15.46-5.82,3.84-9.88,8.9-12.11,15.54-4.94,14.7-7.69,29.57-4.44,45.1.63,3.01.38,6.21.54,9.32-3.43,3.32-6.87,6.63-10.3,9.95-2.21-.92-3.21-2.92-3.9-4.93-2.57-7.53-3.84-15.38-3.2-23.25.61-7.6,2.67-14.99,5.84-22.07,2.47-5.51,4.34-11.28,6.48-16.94-.43-.31-.85-.61-1.28-.92-4.69,4.27-9.71,8.23-13.97,12.89-4.17,4.56-7.43,9.94-11.31,14.78-11.8,14.71-21.11,30.7-26.29,48.98-2.28,8.05-5.04,15.96-7.44,23.98-4.41,14.69-7.78,29.54-7.24,45.05.11,3.26.96,6.72-.93,9.84-4.21-25.77-3.86-51.59-.45-77.4,2.52-19.05,7.2-37.54,15.34-55.05,4.68-.01,6.57-3.53,8.35-6.91,4.94-9.39,11.39-17.8,18.45-25.54,11.79-12.93,24.51-24.79,39.34-34.57,20.63-13.6,43.27-20.4,67.42-22.24,20.48-1.56,40.55,1.64,59.73,9.44,1.07.44,2.35.37,3.54.54,0,0-.08-.05-.08-.05.5.5,1.01,1.01,1.51,1.51,6.13.91,9.52,6.04,14.05,9.34,8.68,6.32,15.86,14.35,23.51,21.84,2.42,2.37,4.49,4.92,5.89,7.99-5.34,7.17-10.68,14.34-16.02,21.51Z"/>
      <path class="cls-1" d="M841.03,617.12c-5.84,1.23-10-2.22-14.28-5.22-1.87-1.31-1.35-3.26-1.21-5.23,1.86-25.77-9.32-45.77-27.86-62.46-.64-.58-1.33-.28-1.98.06-1.82,2.11-1.44,4.73-.71,6.86,2.29,6.64,2.31,13.63,3.6,20.41,1.11,5.83,1.82,11.88,1.63,17.79-.44,13.81-3.65,27.07-11.6,38.59-4.49,6.51-9.71,12.8-19.18,11.54-.61-.08-1.31.5-1.97.77-22.21-9.4-36.04-25.42-39.36-49.77-2.26-16.6-.1-33.05,1.94-49.47,1.27-10.21,3.07-20.36,4.65-30.62,1.7-1.29,3.07.25,4.52.78,7.66,2.79,15.31,5.58,22.91,8.54,19.48,7.59,38.54,5.43,57.44-2.16,2.19-.88,4.11-2.56,6.69-2.34,2.78-.19,2.75,1.88,3.22,3.77,1.91,7.7,4.97,14.97,9.06,21.75,3.45,5.71,7.49,11.09,10.78,16.89,8.1,14.25,13.1,29.01,7.59,45.7-2.65,8.02-6.74,13.6-15.86,13.82Z"/>
      <path class="cls-1" d="M545.45,789.15c3.86,4.03,3.76,9.57,5.37,14.43,6.39,19.26,14.47,37.78,28.25,52.83,12.67,13.84,28.21,23.83,47.41,26.24,10.79,1.36,21.55-.1,31.94-3.19,11.93-3.55,23.47-8.13,34.49-14.06,11.8-6.36,23.7-12.52,36.83-15.95,7.98-2.08,16.02-3.27,24.14-2.41,14.65,1.56,25.84,11.75,26.56,28.84-.9,5.61-3.22,11.16-.65,16.9-15.54,16.92-33.07,30.01-57.52,29.6-7.01-.12-13.59-1.74-20.01-5.71,4.29-6.16,10.05-9.79,14.92-14.31,1.49-1.38,3.68-.8,5.58-.84,6.04-.12,11.93-1.2,17.75-2.75,5.52-1.47,10-4.58,13.74-8.82.95-1.08,2-2.36,1-3.8-.81-1.15-2.2-.55-3.34-.27-4.67,1.13-9.29,2.47-13.99,3.39-3.24.63-6.67,1.29-9.76-1.43,2.2-6.71,6.37-12.76,7.55-20.84-4.1,1.72-6.11,4.73-8.74,6.89-2.78,2.28-5.52,4.63-8.15,7.09-13.77,12.84-28.83,23.89-45.34,32.96-13.77,7.56-28.41,11.54-44.23,10.77-9.91-.48-18.82-3.41-26.55-9.77-16.64-13.68-28.88-30.77-38.09-50.02-7.59-15.85-13.25-32.45-17.44-49.54-1.79-7.29-2.27-14.7-2.63-22.15-.07-1.42-.21-2.91.93-4.07Z"/>
      <path class="cls-1" d="M322.74,891.6c3.04-.81,4.67-3.39,6.36-5.6,7.17-9.4,16.1-17.08,24.44-25.34.26-.25.88-.14,1.97-.27-1.06,4.94-.06,9.94-1.1,14.66-1.65,7.47-1.13,14.77.34,22.08,1.99,9.88,4.36,19.65,9.71,28.39,1.32,2.16,2.42,4.49,5.29,6.15,1.62-5.61-.08-10.97,1.23-15.83,1.92-1.19,2.97.03,3.85,1.09,3.2,3.88,6.34,7.8,9.43,11.77,3.18,4.09,7.57,6.68,11.88,9.21,8.77,5.14,18.03,9,28.51,8.57,5.3-.22,6.28-2.01,3.89-6.79-1.11-2.21-2.86-3.85-4.58-5.52-4.12-4.03-8.08-8.19-11.45-12.91-.96-1.35-1.99-2.59-2.24-5.1,10.92,4.64,20.93,10,32.4,12,11.86,2.06,22.73-1.2,33.91-3.42,7.08,9.99,13.49,20.46,21.72,29.6,5.32,5.91,10.78,11.63,17.61,15.86,1.59.99,3.31,1.99,4.64,4.61-22.57,13.96-46.87,20.94-73.47,19.01-26.85-1.95-49.56-13.63-70.15-31.69.18,6.57,2.12,11.8,2.87,17.22.36,2.61.89,5.22.95,7.85.12,5.52-2.01,6.89-7.06,4.43-4.11-2.01-7.75-4.79-10.88-8.19-9.38-10.19-14.25-22.67-18.08-35.65-5.05-17.15-5.46-34.55-2.4-52.08.61-3.5,1.08-6.97.59-11.47-8.08,6.34-11.94,15.8-21.27,21.07.31-5.07-.87-9.43,1.05-13.72Z"/>
      <path class="cls-1" d="M739.05,432.5c9.26-8.19,15.71-18.63,22.81-28.54,5.58-7.79,10.82-15.84,17.68-22.61,2.49-2.46,4.68-5.41,8.47-6.1,2.63.04,5.27.23,7.9.1,12.56-.64,24.68,1.6,36.65,5.22,13.98,4.22,27.12,10.26,39.81,17.4,8.57,4.82,16.76,10.11,23.41,17.45,4.8,5.3,9.56,10.66,14.01,16.25,1.71,2.15,3.32,3.3,6.01,2.69,0,0-.03,0-.03,0-.29,1.69.47,2.62,2.12,2.9,2.23,3,2.19,6.5,2.91,10.45-16.45-3.34-32.28-5.23-48.33-4.27-20.11,1.21-39.83,4.85-59.39,9.56-5.57,1.34-11.09,2.99-16.84,3.44-2.13-.19-4.44.1-6.35-.65-9.09-3.58-18.74-5.21-28.12-7.48-10.03-2.42-16.98-7.92-22.72-15.82ZM797.41,402.26c2.81-.36,5.64-1.05,8.46-1,2.81.05,5.6,1.07,8.42,1.25,3,.2,4.16-1.94,2.84-4.75-2.83-6.04-16.15-10.77-22.01-7.83-3.1,1.56-5.29,5.41-4.48,8.18.98,3.35,3.77,3.94,6.78,4.14ZM872.1,408.17c-.06-3.15-4.4-6.88-8.08-6.95-3.02-.06-4.67,1.7-4.71,5.03-.05,3.66,3.28,6.69,7.06,6.42,2.81-.2,5.77-2.52,5.73-4.5ZM823.94,397.19c-.25,1.82-1.07,3.69.32,5.94.75-2.4.78-4.19-.32-5.94Z"/>
      <path class="cls-1" d="M857.97,1177.06c6.15,11.94,10.24,24.86,17.31,36.38,8.98,14.63,21.31,24.72,38.42,27.88,10.75,1.99,21.54.8,32.17-1.57,5.85-1.3,11.63-2.94,17.51-4.11,20.43-4.08,37.82,4.18,47.68,22.51.68,1.27,1.32,2.58,1.78,3.93,1.26,3.65.9,4.26-2.81,4.55-2.15.17-4.32.1-6.48.1-48.29.02-96.58.04-144.87.03-3.12,0-6.24-.27-9.35-.41-1.04-1.27-2.48-1.29-3.93-1.29-11.77,0-23.54-.02-35.32-.02-1.45,0-2.9.01-3.95,1.27-.98,0-1.97-.02-2.95-.03-2.56-2.45-5.89-.57-8.7-1.55-2.48-.87-5.37-1.68-2.44-5.19,1.33-1.59.47-3.06-.38-4.49.63-1.34,1.67-2.31,2.93-3.04,1.93.13,2.81-.83,2.83-2.7.28-.34.63-.58,1.05-.72,8.75-1.09,17.57-1.18,26.33-.76,9.49.45,15.12-4.87,19-12.24,4.2-7.98,5.05-16.67,2.6-25.54-.35-1.25-.84-2.49-2.16-2.45-3.6.09-5.07-3.41-7.97-4.44-.26-.33-.41-.71-.45-1.13.3-4.42.04-8.63-4.25-11.33,0,0-.25-.47-.24-.47,1.07-2.09.75-4.14-.06-6.23-.61-1.56-1.16-3.14-1.56-4.76-1.27-5.16-.37-6.6,4.92-8.03,3.22-.87,6.39-2.07,9.66-2.54,4.11-.59,8.29-.62,9.89,4.62.38,1.24,1.49,1.8,2.82,1.73,0,0,.24.42.23.42-.41.84.03,1.27.74,1.59Z"/>
      <path class="cls-3" d="M539.82,849.73c3.19,7.66,6.38,15.32,9.57,22.98-2.58,2.35-.19,4.66.54,6.5,2.09,5.29,2.79,10.67,2.4,16.23-.77,11.04-5.95,19.61-15.35,25.34-5.65,3.44-11.63,4.04-18.57,3-11.02-1.66-19.26-6.72-25.89-15.17-1.15-1.47-1.68-3.56-3.96-3.85,0,0,.21-.14.21-.14.41-2.98-.5-5.62-1.82-8.26-1.28-2.55-2.51-5.21-3.22-7.96-4.78-18.52-9.29-37.16-7.74-56.46,1.09-13.56,1.89-20.16,12.61-28.77,3.35-2.69,6.72-5.35,10.09-8.02,4.97-3.93,11.12-5.5,16.72-8.15,3.5-1.65,5.78-.28,6.41,3.19,1.1,6.09,2.64,12.19,2.85,18.33.33,9.85,5.48,18.01,8.27,26.99.56,1.79,1.44,3.61,3.62,4.14,0,0-.04-.05-.04-.05-.17,3.8-.8,7.75,3.32,10.15Z"/>
      <path class="cls-1" d="M522.71,1203.1c-.89,3.24-1.93,6.45-2.63,9.73-1.58,7.47-1.59,14.79,2.7,21.56,1.66,2.62,2.8,5.47,2.65,9.02,6.97-1.16,13.37-1.73,19.79-2.15,18.73-1.24,26.92,13.25,31.35,26.42.68,2.01-.4,3.22-2.54,3.29-1.68.06-3.36.03-5.04.03-14.42,0-28.84.05-43.26,0-5.6-.02-7.28.86-8.62-6.59-1.69-9.36-3.66-12.32-8.75-17.54-.81,5.96-1.43,11.54-2.34,17.07-1.15,7.02-1.25,7.04-8.1,7.04-14.66,0-29.32.01-43.98-.12-5.6-.05-5.65-.24-4.4-5.85,2.28-10.26,7.92-17.92,17.72-22.12,5.95-2.55,12.01-4.86,18.51-7.48-2.84-1.98-5.8-3-8.99-3.16-15.64-.77-32.49,6.33-39.19,23.33-1.4,3.56-3,7.06-3.59,10.91-.45,2.94-1.79,4.6-5.22,4.56-15.62-.19-31.24-.15-46.86-.24-.68,0-1.35-.36-2.01-.55.14-12.66,14.17-27.4,27.34-28.36,5.51-.4,11.02-.9,16.54-1.09,28.53-1.01,49.03-14.69,62.59-39.43,2.65-4.84,5.25-9.71,7.87-14.56,2.95.2,4.58-1.19,4.52-4.13-.05-2.48,1.02-4.62,1.67-6.89.5-1.77,1.79-2.76,3.63-2.96,4.27-.45,19.12,6.35,20.47,10.02,1.06,2.88,1.77,5.88,2.64,8.83,0,0-.31.6-.31.6-1.99.05-1.8,1.01-.95,2.25.02.38-.13.66-.45.85-5.31,1.67-5.85,3.16-2.77,7.7Z"/>
      <path class="cls-4" d="M1281.95,522.46c5.42-.62,6.27-6.1,6.64-9.08.87-7.11,4.4-13.1,6.34-19.69,5.55-18.89,7.02-38.15,5.49-57.54-1.15-14.62-6.72-27.53-17.87-38.04-10.64-10.03-20.79-20.59-33.23-28.42-9.73-6.12-20-11.33-30.68-15.62-10.21-4.1-20.42-8.26-30.82-11.84-6.52-2.24-13.37-3.54-20.11-5.09-10.46-2.42-20.91-4.92-31.74-4.91-1.41,0-2.82.19-4.48.31-.39,3.29,2.08,4.06,3.91,5.43,8.71,6.48,9.1,13.23.48,19.8-10.19,7.78-21.95,8.41-33.43,3.96-8-3.1-12.95-9.91-10.07-23.24-7.25,1.02-13.16,4.46-18.75,8.26-14.17,9.66-23.25,23.28-28.9,39.21-3.27,9.21-6.98,18.35-7.62,28.29-2.91,1.08-3.27-.86-3.35-2.93-.26-6.5.44-12.92,1.4-19.35,3.15-21.02,11.56-39.5,26.32-54.87,8.06-8.4,17.6-14.54,28.67-18.61,23.52-8.64,47.37-8.74,71.62-4.16,19.63,3.71,38.62,9.45,56.86,17.59,20.61,9.2,38.9,21.86,54.37,38.26,19.81,20.99,28.88,46.56,30.43,75.05,1.05,19.2-2.87,37.64-8.31,55.95-4.54,15.3-10.72,29.77-18.81,43.46-1.16,1.96-1.78,4.48-4.38,5.28-.11-1.67.29-3.2.93-4.77,3.08-7.54,6.05-15.12,9.07-22.69Z"/>
      <path class="cls-4" d="M779.79,892.79c-2.57-5.74-.25-11.29.65-16.9,5.09,2.57,6.93,2.45,9.38-2.6,3.9-8.07,7.65-16.33,7.66-25.63,0-6.48.01-12.96.03-19.44.06-19.51-3.4-38.42-9.56-56.89-2.26-6.78-3.52-13.82-5.77-20.64-1.66-5.06-4.73-9.31-6.43-14.25-.31-.89-1.01-1.65-1.25-2.55-3.04-11.56-10-21.01-16.52-30.69-.92-1.37-2.06-2.8-3.44-3.62-3.13-1.86-5.22-4.05-4.7-8.03.32-2.4-1.39-3.93-2.87-5.54-8.73-9.44-18.89-16.77-31.03-21.24-1.36-.5-2.66-1.06-4.14-1.04-1.99.03-4.2.15-4.58,2.48-.41,2.54,1.89,2.67,3.73,3.36,13.54,5.08,23.02,16.61,21.64,28.7-.55,4.79-2.46,8.67-5.63,12.1-1.35,1.46-2.97,2.2-5.03,2.4-12.86,1.23-22.44-3.59-29.88-14.28-4.32-6.21-5.16-12.32-4.32-19.42.39-3.34,1.29-5.95,3.77-8.14,1.27-1.13,2.32-2.42,1.39-4.39-.93-1.95-2.3-2.84-4.5-2.86-9.39-.07-18.59.42-26.59,6.31-1.29.95-3.05,1.55-4.67,1.74-7.34.88-13,5.15-17.93,9.89-5.47,5.25-11.66,9.1-18.2,12.6-1.27.68-2.59,3.14-4.21,1-1.97-2.59-.59-4.43,2.15-5.47.32.91-.11,2.69,1.92,1.57,4.85-2.69,9.16-6.07,13.33-9.73,18.15-15.89,38.71-27.46,62.31-32.86,21.26-4.87,40.36-.1,56.86,14.49,7.41,6.55,13.94,13.72,19.12,22.26,12.57,20.69,21.26,42.72,26.46,66.44,4.76,21.72,7.12,43.54,6.81,65.67-.33,23.73-6.37,45.88-19.01,66.15-2.04,3.27-5.41,5.42-6.92,9.03Z"/>
      <path class="cls-1" d="M288.28,803.53c11.66-.48,22.07,3.7,32.17,8.84,4.52,2.3,5.08,3.99,3.37,8.69-.41,1.12-1.15,2.13-1.52,3.26-1.41,4.32-4.3,5.61-8.77,5.39-14.69-.74-28.35,3.45-41.53,9.52-17.34,7.99-30.69,20.82-40.26,36.82-8.47,14.18-14.34,29.81-13.99,46.9.09,4.37-1.55,8.43-1.49,12.81.26,17.84,3.85,35.09,8.66,52.15.68,2.41,2.62,4.84.2,7.35-13.49-19.06-22.8-40.17-26.77-63-5.87-33.72,1.61-65.01,22.2-92.53,7.81-10.44,18.48-18.12,30.27-23.86,11.9-5.8,24.28-10.32,37.45-12.36Z"/>
      <path class="cls-1" d="M751.44,1123.64c17.61-5.39,32.91-11.55,48.02-18.2,14.98-6.59,28.9-15.1,42.81-23.61,14.05-8.59,26.54-19.42,40.21-29.8,2.3,7.13,1.67,13.36,1.03,19.42-1,9.53-2.67,18.98-5.15,28.28-3.75,14.06-10.29,26.88-21.99,35.45-15.48,11.34-33.02,17.3-52.79,13.56-19.07-3.61-35.48-12.55-52.14-25.1Z"/>
      <path class="cls-4" d="M382.22,642.2c-1.58,1.56-2.25.33-3.29-.84-12.95-14.54-27.08-27.86-43.46-38.4-18.7-12.03-39.15-19.7-61.29-23.21-9.27-1.47-18.65-1.81-27.8-2.05-10.79-.29-21.91.61-32.73,2.86-7.95,1.65-15.95,3.05-23.71,5.49-24.28,7.66-46.22,20.04-65.98,35.68-11.34,8.97-22.73,18.41-31.37,30.41-1.14,1.58-2.6,2.84-4.75,2.86-.26-1.88,1.06-3.13,1.9-4.53,15.86-26.25,36.08-48.55,61.74-65.38,16.12-10.57,34.07-17.78,52.86-21.95,17.24-3.82,34.79-5.61,52.63-3.62,20.4,2.28,39.95,7.4,58.22,16.56,29.38,14.75,51.49,37.16,67.03,66.09Z"/>
      <path class="cls-1" d="M1093.43,587.91c8.86-.3,17.73-.54,26.59-.92,2.89-.12,4.95,1.48,7.22,2.81,15.67,9.23,32.38,15.63,50.48,18.02,22.13,2.93,43.54.33,64.02-8.86.87-.39,1.78-.72,2.68-1.02.19-.06.46.11,1.77.46.55,9.12.28,18.51-.85,27.97-1.74,14.5-9.58,23.29-23.39,27.86-20.11,6.67-40.64,9.16-61.71,8.04-1.45-.08-2.87-.29-4.08-1.19,3.26-1.31,7.19,1.35,10.15-1.7,6.71-8.79,11.26-18.26,10.44-29.77-.48-6.7-1.06-7.75-7.7-8.89-1.17-.2-2.4-.07-3.59-.23-12.69-1.65-24.8-5.48-36.26-10.95-10.81-5.16-20.45-12.38-30.21-19.31-1.25-2.23-4.13-.53-5.56-2.32Z"/>
      <path class="cls-1" d="M488.54,904.75c2.28.3,2.81,2.38,3.96,3.85,6.64,8.45,14.87,13.51,25.89,15.17,6.94,1.04,12.92.44,18.57-3,9.39-5.72,14.58-14.29,15.35-25.34.38-5.55-.31-10.94-2.4-16.23-.73-1.84-3.12-4.15-.54-6.5,4.38,5.12,7.09,11.3,10.57,16.99,10.54,17.25,23.41,32.2,40.41,43.41,4.98,3.29,4.89,3.46.45,7.66-9.26,8.78-18.95,17.03-30.42,22.85-11.83,6.01-23.57,6.17-34.86-1.32-20.74-13.76-36.07-32.18-46.43-54.77-.38-.84-.39-1.85-.57-2.79Z"/>
      <path class="cls-1" d="M702.25,466.17c10.14,2.83,20.29,5.52,30.68,7.5,22.65,4.31,44.95,2.32,67.2-2.33,19.25-4.03,38.24-9.33,57.85-11.67,4.31-.52,8.58-.65,12.78-.93.74,2.16-.81,2.89-1.7,3.87-13.93,15.16-29.87,27.91-47.83,37.88-15.67,8.7-32.74,11.84-50.16,6.87-23.79-6.79-45.6-17.81-64.36-34.27-2.08-1.83-4.8-3.36-4.53-6.8l.07-.1Z"/>
      <path class="cls-4" d="M771.55,262.96c-.58-3.21.99-6.1,1.43-9.16,2.17-15.25,1.33-30.44.42-45.77-1-16.72-5.05-32.52-10.42-48.15-5.34-15.56-13.4-29.62-23.67-42.43-13.59-16.96-29.46-31.33-48.02-42.75-7.38-4.54-15.24-8.06-22.96-11.91-1.27-.63-2.64-1.09-3.85-1.81-.88-.52-1.15-1.57-.93-2.54.22-.99.97-1.69,2.02-1.73,2.63-.12,5.27-.2,7.91-.18,3.84.02,7.69.13,11.29-1.56,11.31,2.2,21.11,7.97,30.53,14.05,40.91,26.39,64.68,63.72,70.8,112.25,2.57,20.34.56,40.24-4.42,59.91-1.98,7.8-4.51,15.57-10.12,21.8Z"/>
      <path class="cls-5" d="M108.5,930.21c1.89-3.12,1.04-6.58.93-9.84-.53-15.51,2.83-30.37,7.24-45.05,2.41-8.02,5.16-15.93,7.44-23.98,5.18-18.27,14.49-34.27,26.29-48.98,3.88-4.84,7.14-10.21,11.31-14.78,4.26-4.66,9.28-8.63,13.97-12.89.43.31.85.61,1.28.92-2.14,5.66-4.01,11.43-6.48,16.94-3.17,7.07-5.23,14.46-5.84,22.07-.63,7.86.63,15.72,3.2,23.25.69,2.02,1.69,4.01,3.9,4.93-9.09,10.49-17.98,21.15-25.33,32.98-12.3,19.8-23.09,40.3-29.74,62.78-.74,2.52-1.9,4.91-2.87,7.36-.27.67-.59,1.29-2.07,1.19-1.93-5.32-3.2-10.97-3.24-16.9Z"/>
      <path class="cls-1" d="M938.17,699.36c-.73,8.83-2.88,17.4-4.87,25.99-1.19,5.15-2.33,5.84-7.48,3.96-7.66-2.79-15.19-5.94-22.38-9.83-.84-.45-1.56-1.16-2.42-1.56-3.32-1.55-4.59-1.06-5.53,2.69-1.7,6.77-4.3,13.16-6.92,19.61-5.55,13.63-14.25,24.91-24.61,35.07-3.41,3.34-6,3.38-11.04.39-10.89-6.48-22.81-11.3-32.34-20-.5-.45-1.3-.58-1.95-.86-2.32-9.41-4.64-18.81-7.22-29.27,7.69,5,14.34,9.25,20.92,13.61,6.23,4.13,12.8,7.59,19.64,10.57,6.19,2.69,6.16,2.62,11.24-2.16,5.38-5.06,8.78-11.39,11.66-18.02,5.32-12.25,7.71-25.2,8.83-38.42.16-1.9.18-3.81.28-5.9,3.26-.7,5.06,1.62,7.11,2.93,8.14,5.21,16.67,9.57,26.05,12.05,7.08,1.87,14.16,2.75,21.04-.86Z"/>
      <path class="cls-1" d="M507.63,753.26c1.12-7.3,2.53-14.54,3.48-21.89.93-7.16.28-13.84-1.61-20.5-3.05-10.72-10.98-16.47-22.07-16.93-10.18-.42-20.02.98-29.34,4.95-1.38-1.62-.42-3.51-1.21-5.02,0,0,.16.07.16.07.8-.15,1.23-.67,1.46-1.41,0,0,.02,0,.02,0,.43-.4.86-.8,1.29-1.2,5.26-5.28,12.27-7.56,18.93-9.86,15.27-5.27,29.83-11.86,43.59-20.29.6-.37,1.25-.76,2.16-.19,1.32,10.47,2.5,21.15,5.91,31.44,1.74,5.25,3.59,10.45,6.38,15.22,1.72,2.94,1.99,5.64.74,8.83-3.25,8.28-5.46,16.88-6.6,25.7-.31,2.42-1.03,3.91-3.5,4.67-6.63,2.03-13.2,4.25-19.79,6.4Z"/>
      <path class="cls-4" d="M320.2,718.5c-1.18-.17-2.46-.1-3.54-.54-19.18-7.8-39.25-11-59.73-9.44-24.15,1.84-46.79,8.64-67.42,22.24-14.82,9.77-27.55,21.64-39.34,34.57-7.05,7.73-13.5,16.14-18.45,25.54-1.78,3.39-3.67,6.9-8.35,6.91,10.71-29.13,27.08-54.56,51.69-73.66,20.33-15.78,43.62-25.98,69.25-29.96,11.16-1.73,21.94,1.54,32.62,4.24,14.98,3.79,28.86,10.23,41.9,18.49.56.36.91,1.06,1.35,1.61Z"/>
      <path class="cls-4" d="M618.78,689.88c.02-2.87-.63-5.95.18-8.57,1.74-5.63-.14-9.12-4.98-11.81-3.02-1.68-3.15-3.2-.47-5.2,4.86-3.61,10.1-6.64,16.42-6.27,6.62.38,11.19-3.64,16.14-6.91,1.01-.67,1.45-1.89.97-3.19-.52-1.39-1.78-1.36-2.97-1.51-4.18-.51-8.09.9-11.94,2.05-15.43,4.61-28.36,13.2-39.6,24.72-6.1,6.25-11.12,13.39-15.22,20.75-7.3,13.1-14.93,26.21-18.31,41.22-1.62,7.19-4.63,14.05-6.87,21.11-2.39,7.54-3.77,15.27-4.06,23.19-.08,2.13.25,4.38-1.7,5.97-.39-.24-.82-.38-1.27-.43-1-34.63,7.54-67.01,24.59-96.88,8.17-14.31,18.15-27.67,31.39-38.1,12.77-10.06,27.04-16.31,43.34-17.43,8.9-.61,17.07,1.57,24.07,7.1-.27,2.37-2.01,3.07-3.45,3.69-8.39,3.59-15.6,9.06-22.96,14.28-3.05,2.16-6.16,3.43-9.98,3.27-5.89-.25-11.23,1.47-16.42,5.33,3.69,3.24,8.54,3.63,12.2,6.56-3.09,5.81-6.1,11.44-9.1,17.07Z"/>
      <path class="cls-4" d="M915.8,434.35c-2.69.61-4.29-.54-6.01-2.69-4.45-5.59-9.21-10.95-14.01-16.25-6.65-7.33-14.83-12.63-23.41-17.45-12.7-7.13-25.84-13.17-39.81-17.4-11.97-3.62-24.08-5.86-36.65-5.22-2.62.13-5.26-.06-7.9-.1,11.56-8.43,24.78-9.54,38.28-7.89,11.1,1.36,21.65,5.07,32.34,8.53,19.57,6.33,34.26,18.25,46.59,34.02,4.47,5.72,6.6,12.61,10.08,18.81.98,1.75.72,3.72.5,5.63Z"/>
      <path class="cls-4" d="M536.53,839.63c-2.18-.52-3.07-2.35-3.62-4.14-2.79-8.97-7.93-17.13-8.27-26.99-.21-6.14-1.75-12.24-2.85-18.33-.62-3.46-2.91-4.84-6.41-3.19-5.6,2.65-11.74,4.22-16.72,8.15-3.37,2.66-6.74,5.33-10.09,8.02-10.72,8.61-11.52,15.21-12.61,28.77-1.55,19.3,2.96,37.95,7.74,56.46.71,2.75,1.94,5.41,3.22,7.96,1.33,2.64,2.23,5.28,1.82,8.26-3.79-5.04-5.99-10.9-7.96-16.76-8.6-25.57-10.4-51.72-5.1-78.15,2.78-13.85,10.61-24.43,23.4-31.14,8.26-4.34,16.31-9.06,25.08-12.36,1.32-.5,2.68-.86,4.38-1.4,1,3.65.74,6.98.56,10.22-1.03,18.38,2.39,36.36,4.9,54.41.47,3.39,3.12,6.42,2.52,10.2Z"/>
      <path class="cls-4" d="M618.72,150.31c-2.23.12-4.18-.78-6.18-1.61-16.44-6.75-33.63-10.41-51.17-13.04-14.12-2.11-28.24-1.53-42.3-.92-11.13.48-22.25,2.61-32.9,6.53-7.05,2.6-7.13,2.37-7.49-5.43-.04-.95-.24-1.9-.37-2.84,11.05-6.85,23.34-10.08,36.06-11.06,23.68-1.81,46.91.56,69.21,9.48,11.14,4.45,22.33,8.74,32.05,16.02,1.14.85,2.49,1.47,3.1,2.88Z"/>
      <path class="cls-4" d="M1002.23,470.2c-1.37.74-2.55,1.65-3,3.24-.45.09-.91.13-1.37.1.36-10.58,4.05-20.11,10.24-28.46,7.33-9.88,18.54-12.38,29.91-13.34,17.12-1.45,32.73,3.33,46.59,13.44,10.48,7.65,17.18,17.73,19.44,30.74.73,4.18.62,7.98-1.13,11.77-.4-.06-.81-.12-1.21-.19.93-10.49-3.64-19.27-11.13-25.38-13.44-10.97-29.33-16.8-46.9-17.5-9.27-.37-17.91,2.7-26.79,4.51-2,.41-3.64,1.87-4.4,3.5-1.95,4.2-4.87,7.55-7.94,10.91-1.61,1.76-2.45,4.12-2.3,6.66Z"/>
      <path class="cls-5" d="M739.05,432.5c5.74,7.9,12.7,13.4,22.72,15.82,9.39,2.26,19.03,3.9,28.12,7.48,1.91.75,4.22.46,6.35.65-32.15,7.88-63.74,8.04-94.52-7.07,13.3-3.91,25.78-9.39,37.33-16.88Z"/>
      <path class="cls-4" d="M767.46,640.22c.66-.27,1.36-.85,1.97-.77,9.48,1.26,14.69-5.03,19.18-11.54,7.95-11.52,11.15-24.77,11.6-38.59.19-5.92-.51-11.96-1.63-17.79-1.29-6.78-1.31-13.78-3.6-20.41-.73-2.12-1.11-4.74.71-6.86,6.3,12.7,11.55,25.77,14.08,39.8,1.71,9.5,2.76,19.02.36,28.59-4.47,17.89-16.7,28.83-35.86,29.34-2.55.07-4.64-.79-6.81-1.77Z"/>
      <path class="cls-4" d="M841.03,617.12c9.12-.22,13.21-5.8,15.86-13.82,5.51-16.69.51-31.45-7.59-45.7-3.3-5.8-7.33-11.18-10.78-16.89-4.1-6.78-7.16-14.04-9.06-21.75-.47-1.89-.44-3.96-3.22-3.77,1.7-1.61,3.38-2.96,4.97.14.54,1.06,1.27,2.03,1.78,3.11,5.74,12.3,13.91,22.91,22.88,32.95,4.83,5.41,8.97,11.27,11.62,18.04,3.58,9.12,5.05,18.46,2.07,28.1-4.38,14.17-13.63,20.52-28.53,19.58Z"/>
      <path class="cls-4" d="M1166.31,659.38c-2.97,3.05-6.89.4-10.15,1.7-32.45-3.81-61.63-15.46-87.32-35.85-8.43-6.69-12.99-14.5-10.59-25.53.87-3.97,1.11-8.08,1.91-12.07.94-4.72,1.6-5.23,6.33-3.92,8.83,2.45,17.78,3.9,26.93,4.2,1.44,1.78,4.32.09,5.56,2.31-5.24,1.54-10.4.08-15.52-.65-6.15-.87-6.87-.59-8.59,5.3-.95,3.27-.97,6.69-1.17,9.94-.91,14.59-.73,21.64,12.02,29.41,2.04,1.25,4.05,2.57,6.18,3.65,16.47,8.33,33.49,15.12,51.7,18.68,7.52,1.47,14.97,3.19,22.7,2.82Z"/>
      <path class="cls-1" d="M1050.32,1265.97c-6.12,1.22-12.32.4-18.48.59-2.06.06-2.97-1.15-3.41-2.96-.39-1.62-.79-3.25-1.25-4.86-2.55-9.13-6.95-17.16-14.97-23.47,16.45-.91,37.2,14.38,38.11,30.7Z"/>
      <path class="cls-5" d="M836.26,1203.18c2.89,1.03,4.37,4.53,7.97,4.44,1.33-.03,1.82,1.2,2.16,2.45,2.45,8.86,1.6,17.56-2.6,25.54-3.88,7.37-9.51,12.69-19,12.24-8.77-.42-17.58-.34-26.33.76,3.99-4.05,9.42-4.31,14.49-5.27,6.09-1.15,12.36-1.23,18.39-2.89,7.77-2.15,10.55-5.91,10.77-13.86.17-5.93-1.86-11.26-3.84-16.64-.82-2.21-2.42-4.19-2.01-6.76Z"/>
      <path class="cls-5" d="M527.19,1191.7c-.87-2.95-1.58-5.95-2.64-8.83-1.35-3.67-16.2-10.46-20.47-10.02-1.84.19-3.12,1.18-3.63,2.96-.65,2.27-1.72,4.41-1.67,6.89.06,2.94-1.57,4.34-4.52,4.13,1.64-6.51,4.44-12.61,6.66-18.92,1.22-3.46,2.99-3.85,5.89-2.16,8.54,4.99,17.93,7.84,27.83,10.51-1.9,5.65-4.17,10.78-7.45,15.44Z"/>
      <path class="cls-5" d="M856.99,1175.04c-1.34.06-2.45-.5-2.82-1.73-1.6-5.24-5.78-5.21-9.89-4.62-3.27.47-6.45,1.66-9.66,2.54-5.28,1.44-6.19,2.87-4.92,8.03.4,1.62.96,3.21,1.56,4.76.81,2.09,1.13,4.14.06,6.23-3.77-5.07-4.73-11.41-7.58-16.9-.9-1.73-.46-3.32,1.87-3.63,8.33-1.12,16.43-3.15,24.29-6.11,2.09-.79,3.19.27,3.88,2,1.24,3.08,3.03,5.99,3.22,9.43Z"/>
      <path class="cls-5" d="M997.86,473.54c.46.03.92,0,1.37-.1-.75,11.38.38,22.4,5.46,32.86,1.09,2.24,2.37,4.8,1.56,7.59-6.85-10.34-9.13-21.97-9.61-34.09-.09-2.16-.06-4.34,1.22-6.26Z"/>
      <path class="cls-5" d="M791.65,1255.05c.85,1.44,1.72,2.9.38,4.49-2.93,3.51-.04,4.32,2.44,5.19,2.8.98,6.14-.9,8.7,1.55-4.47.9-8.99.43-13.48.32-4.01-.11-4.57-1.08-2.84-4.83,1.15-2.5,1.73-5.54,4.8-6.72Z"/>
      <path class="cls-5" d="M806.12,1266.31c1.05-1.26,2.5-1.27,3.95-1.27,11.77,0,23.54.02,35.32.02,1.46,0,2.9.02,3.93,1.29-14.4.78-28.8.74-43.2-.04Z"/>
      <path class="cls-5" d="M522.71,1203.1c-3.08-4.54-2.55-6.03,2.77-7.7-.25,2.82-1.16,5.38-2.77,7.7Z"/>
      <path class="cls-5" d="M831.56,1190.73c4.29,2.69,4.55,6.91,4.25,11.33-2.83-3.25-3.87-7.16-4.25-11.33Z"/>
      <path class="cls-1" d="M49.74,796.52c.09-.22.14-.46.27-.66.94-1.45-.53-4.77,2.21-4.48,3.49.37.53,3.58,1.42,5.29-1.34.93-2.66,1.51-3.9-.15Z"/>
      <path class="cls-4" d="M539.82,849.73c-4.12-2.4-3.5-6.35-3.32-10.15,2.34,2.98,2.57,6.65,3.32,10.15Z"/>
      <path class="cls-1" d="M975.95,647.29c-.38.97-.77,1.93-1.15,2.9-1.68-1.03-2.34-2.75-3.45-4.47,2.15-.36,3.5.26,4.61,1.57Z"/>
      <path class="cls-4" d="M624.45,154.68c-2.7-.48-4.53-2.1-5.83-4.43,2.51.72,4.32,2.37,5.83,4.43Z"/>
      <path class="cls-5" d="M1006.3,514.04c3.56.1,3.04,2.36,2.46,4.65-1.83-1.01-2.53-2.63-2.46-4.65Z"/>
      <path class="cls-5" d="M141.48,723.86c-.32-.24-.46-.57-.44-.97.72-1.51,1.96-2.38,4.17-3.14-1.2,1.94-1.88,3.5-3.73,4.11Z"/>
      <path class="cls-4" d="M768.67,268.72c-.04-2.47.27-4.77,2.95-5.88-.1,2.4.14,4.97-2.95,5.88Z"/>
      <path class="cls-5" d="M48.97,803.59c-.08-.71-.27-1.43-.23-2.13.07-1.16.09-2.48,1.6-2.79.34-.07.99.24,1.13.54.58,1.23.03,2.34-.75,3.26-.43.51-1.12.79-1.7,1.18,0,0-.06-.06-.06-.06Z"/>
      <path class="cls-4" d="M764.17,268.64c1.56.03,3.11.05,4.67.08.51,1.26.2,2.51-1.08,2.68-1.85.24-2.78-1.32-3.59-2.76Z"/>
      <path class="cls-4" d="M758.09,262.92c1.87.09,3.07.94,3.26,2.92-1.44-.57-2.41-1.68-3.26-2.92Z"/>
      <path class="cls-5" d="M797.42,1249.31c-.02,1.87-.9,2.83-2.83,2.7.35-1.52,1.26-2.46,2.83-2.7Z"/>
      <path class="cls-1" d="M702.19,466.26c-.58-.13-1.16-.25-1.74-.38.15-.27.28-.75.44-.76.7-.04,1.2.32,1.37,1.04,0,0-.07.1-.07.1Z"/>
      <path class="cls-4" d="M917.88,437.26c-1.65-.28-2.4-1.21-2.12-2.9,1.7.25,1.92,1.56,2.12,2.9Z"/>
      <path class="cls-4" d="M875.42,1030.2c-1.24-2.08.62-1.32,1.41-1.55-.07.88-.62,1.33-1.41,1.55Z"/>
      <path class="cls-1" d="M979.79,649.04c-.81.26-1.29-.06-1.49-.85.8-.23,1.22.17,1.49.85Z"/>
      <path class="cls-5" d="M525.93,1194.55c-.85-1.24-1.04-2.2.95-2.25.08.92-.14,1.71-.95,2.25Z"/>
      <path class="cls-4" d="M87.87,654.99c-.34.66.65,2.52-1.44,1.62.14-.85.4-1.58,1.44-1.62Z"/>
      <path class="cls-5" d="M49.03,803.65c-.1.18-.24.53-.29.52-.47-.11-.39-.33.23-.58,0,0,.06.06.06.06Z"/>
      <path class="cls-1" d="M545.09,785c.46.04.88.19,1.27.43-.39.35-.77.7-1.15,1.05-.04-.49-.08-.99-.12-1.48Z"/>
      <path class="cls-4" d="M1271.87,551.28c-.96-.6-.86-1.08.17-1.45-.06.48-.11.97-.17,1.45Z"/>
      <path class="cls-1" d="M380.76,740.02c.35-.39.7-.79,1.05-1.18-.35.39-.7.78-1.05,1.18Z"/>
      <path class="cls-1" d="M379.3,741.76c.42-.51.85-1.02,1.27-1.53-.42.51-.85,1.02-1.27,1.53Z"/>
      <path class="cls-1" d="M382.23,738.4c.37-.29.69-.63.96-1.02-.32.34-.64.68-.96,1.02Z"/>
      <path class="cls-4" d="M321.62,719.96c-.5-.5-1-1.01-1.51-1.51.48.08.96.17,1.44.25-.02.42,0,.84.07,1.26Z"/>
      <path class="cls-4" d="M458.5,692.54c-.23.74-.66,1.26-1.46,1.41.06-.91.6-1.33,1.46-1.41Z"/>
      <path class="cls-4" d="M459.82,691.34c-.43.4-.86.8-1.29,1.2.14-.71.55-1.13,1.29-1.2Z"/>
      <path class="cls-5" d="M857.97,1177.06c-.71-.32-1.15-.75-.74-1.59.75.3.93.86.74,1.59Z"/>
      <path class="cls-4" d="M762.72,267.15c.52.52,1.04,1.03,1.56,1.55-.83-.2-1.36-.71-1.56-1.55Z"/>
      <path class="cls-4" d="M761.27,265.71c.52.52,1.05,1.04,1.57,1.56-.85-.19-1.37-.71-1.57-1.56Z"/>
      <path class="cls-2" d="M663.48,295.75c12.41,1.76,22.87,7.86,32.82,14.97,8.57,6.12,16.9,12.57,25.55,18.58,4.68,3.25,9.98,5.45,15.3,7.54,6.54,2.57,7.07,5.7,1.85,10.27-4.03,3.53-8.79,4.75-14.05,4.29-3.77-.33-7.54-.65-12.07-1.04,1.74,3.61,3.22,6.55,4.58,9.55,6.06,13.41,3.92,26.34-2.92,38.68-1.89,3.4-1.89,5.46.98,7.95,2.13,1.85,4.27,3.93,3.86,7.26-2.84,1.51-5.21-.13-7.5-1.23-24.38-11.74-49.91-14.49-76.37-9.84-4.46.78-8.81,2.23-13.21,3.39-1.12.3-2.4,1.2-3.26-.05-.94-1.37-.31-2.85.85-3.83,4.73-4.01,9.66-7.53,15.7-9.66,12.48-4.4,25.2-5.68,38.27-4.4,2.13.21,4.28.29,7.18.49-.32-2.8-.45-5.32-.92-7.77-1.34-7.04-.29-13.9,1.59-20.64,1.86-6.65,3.92-8.95,13.45-16.7-4.95-4.34-10.59-7.41-16.29-10.31-5.12-2.61-10.42-4.88-15.66-7.26-9.17-4.16-18.64-6.06-28.75-4.38-3.77.63-7.68.98-11.48.72-5.37-.37-7.05-4.07-4.04-8.55,1.45-2.15,3.37-4.11,5.42-5.71,7.29-5.71,14.53-11.61,24.39-12.24,4.9.41,9.8.43,14.7-.08Z"/>
      <path class="cls-5" d="M663.48,295.75c-4.9.52-9.8.49-14.7.08,4.89-1.94,9.79-1.92,14.7-.08Z"/>
      <path class="cls-1" d="M850.93,886.29c5.5,11.52,6.83,22.74,10.66,34.03,22.6-23.02,32.28-50.56,34.29-81.1,2.56-1.02,3.48.71,4.43,1.94,4.84,6.25,9.8,12.4,13.65,19.37,2.42,4.39,3.75,4.39,6.13-.13,3.58-6.81,5.77-14.12,7.14-21.73,2.54-14.07,1.27-28.23,1.33-42.36.02-4.27-2.34-8.37-.86-13.29,4.7,4.44,6.13,10.29,7.63,15.82,2.58,9.48,4.34,19.18,3.36,29.11-1.39,14.07-2.76,28.15-10.02,40.8-1.32,2.3-2.58,4.58-4.58,6.4-5.11,4.65-8.04,4.67-12.82-.15-2.18-2.2-4.23-4.53-6.37-6.84-1.79,1.22-1.91,3.19-2.42,4.96-3.12,10.9-8.08,21.01-13.23,31.05-5.51,10.72-14.93,17.26-24.55,23.64-1.64,1.09-3.59,1.17-5.51,1.39-3.49.41-5.49-.92-6.21-4.35-.45-2.11-1.39-4.15-1.53-6.27-.64-9.54-2.7-18.98-1.97-28.61.05-.63.47-1.23,1.46-3.69Z"/>
      <path class="cls-1" d="M902.52,989.46c.33-2.25,1.65-3.68,4.31-5.3-.7,3.13-2.26,4.41-3.98,5.58,0,0-.32-.28-.32-.28Z"/>
      <polygon class="cls-2" points="664.76 1074.68 664.93 1074.53 664.72 1074.71 664.76 1074.68"/>
      <path class="cls-4" d="M742.66,723.63c-.12,2.28.19,4.2-.73,5.99-2.82,5.43-8.35,6.24-12.96,1.87-4.3-4.08-5.26-11.77-1.78-15.36,2.86-2.95,6.75-4.55,10.39-2.98,4.34,1.87,5.09,6.42,5.08,10.48Z"/>
      <path class="cls-3" d="M1002.23,470.2c-.14-2.54.7-4.9,2.3-6.66,3.07-3.36,5.99-6.71,7.94-10.91.76-1.63,2.4-3.09,4.4-3.5,8.87-1.82,17.51-4.89,26.79-4.51,17.57.71,33.46,6.54,46.9,17.5,7.49,6.11,12.06,14.89,11.13,25.38-7.24,4.11-14.35,8.45-22.87,9.65-6.68.94-13.25,1.22-19.87-.31-11.02-2.56-21.14-7.03-31.12-12.41-8.6-4.64-16.23-11.03-25.61-14.23Z"/>
      <path class="cls-4" d="M1160.41,350.79c5.27.09,9.06,3.48,9.01,8.04-.05,4.23-5.79,9.32-10.3,9.14-4.31-.17-11.29-6.41-10.97-9.81.41-4.4,5.55-7.49,12.26-7.37Z"/>
      <path class="cls-2" d="M797.41,402.26c-3.01-.2-5.79-.79-6.78-4.14-.81-2.77,1.38-6.62,4.48-8.18,5.87-2.94,19.19,1.79,22.01,7.83,1.32,2.81.16,4.95-2.84,4.75-2.82-.19-5.61-1.2-8.42-1.25-2.82-.05-5.65.64-8.46,1Z"/>
      <path class="cls-4" d="M872.1,408.17c.04,1.98-2.92,4.3-5.73,4.5-3.78.27-7.11-2.76-7.06-6.42.04-3.33,1.69-5.09,4.71-5.03,3.68.07,8.02,3.81,8.08,6.95Z"/>
      <path class="cls-4" d="M823.94,397.19c1.1,1.75,1.07,3.55.32,5.94-1.39-2.25-.57-4.13-.32-5.94Z"/>
      <path class="cls-3" d="M1166.31,659.38c-7.73.37-15.19-1.35-22.7-2.82-18.21-3.56-35.23-10.35-51.7-18.68-2.13-1.08-4.14-2.4-6.18-3.65-12.75-7.78-12.94-14.83-12.02-29.41.2-3.25.22-6.67,1.17-9.94,1.72-5.89,2.44-6.17,8.59-5.3,5.11.72,10.28,2.19,15.52.65,9.76,6.93,19.4,14.14,30.21,19.31,11.46,5.47,23.57,9.31,36.26,10.95,1.19.15,2.41.03,3.59.23,6.65,1.14,7.23,2.2,7.7,8.89.82,11.51-3.73,20.98-10.44,29.77Z"/>
    </g>
  </g>
</svg>