<?xml version="1.0" encoding="UTF-8"?>
<svg id="Camada_1" data-name="Camada 1" xmlns="http://www.w3.org/2000/svg" viewBox="0 0 1340.27 1361.8">
  <defs>
    <style>
      .cls-1 {
        fill: #3e111b;
      }

      .cls-1, .cls-2, .cls-3, .cls-4, .cls-5 {
        stroke-width: 0px;
      }

      .cls-2 {
        fill: #751c2c;
      }

      .cls-3 {
        fill: #090605;
      }

      .cls-4 {
        fill: #d3403b;
      }

      .cls-5 {
        fill: #de7e79;
      }
    </style>
  </defs>
  <g id="Red">
    <g>
      <path class="cls-3" d="M118.15,718.35c-19.08,14.93-34.38,33.28-47.91,53.19-14.78,21.76-26.99,44.82-35.59,69.77-4.96,14.4-19.94,18.19-29.9,8.07-3.56-3.62-4.64-8.09-4.68-12.89-.08-10.39-.14-20.78.03-31.16.56-35.03,5.34-69.48,15.12-103.13,7.33-25.23,17.38-49.31,30.99-71.91,23.21-38.54,54.43-68.5,95.34-87.37,44.77-20.65,91.48-24.56,138.84-10.5,35.76,10.62,65.03,31.71,88.93,60.32,20.11,24.07,33.55,51.69,43.72,81.09.8,2.32,1.59,4.65,2.39,7.01,5.8-3.24,5.86-3.28,2.9-7.64-4.84-7.14-5.29-14.64-2.19-22.56,1.84-4.7,4.97-8.5,8.05-12.37,21.22-26.62,33.07-57.09,36.82-90.78,3.03-27.19,1.01-54.36-1.02-81.5-2.4-32.09-4.27-64.18-.59-96.31,1.15-10.06,2.99-20,5.01-30.46-6.38,0-12.31.36-18.18-.07-18.04-1.32-33.03-8.53-42.49-24.5-6.53-11.03-7.81-23.35-6.03-35.91,3.49-24.74,16.69-44.03,34.64-60.5,5.84-5.35,12.34-9.9,18.97-14.23,1.61-1.05,3.68-1.59,4.65-3.81-8.45-4.11-16.28-9.24-23.08-15.72-17.1-16.3-22.11-35.35-14.64-56.63,3.85-10.96,10.42-20.12,19.13-27.8,15.37-13.55,33.94-19.93,53.57-23.61,30.36-5.68,60.05-2.43,89.06,7.87,3.48,1.24,6.95,2.49,10.39,3.72,1.93-1.95-.12-3.33-.62-4.69-6.12-16.82-7.91-33.61-.32-50.52,6.71-14.93,18.26-24.38,33.61-29.18,16.23-5.09,32.76-4.31,49.16-.91,39.13,8.11,70.44,29.12,95.73,59.45,33.78,40.53,45.09,87.67,39.3,139.35-.89,7.97-.43,13.27,7.1,18.3,10.67,7.14,19.4,16.86,27.1,27.24,1.46,1.97,2.9,3.05,5.21,3.51,4.95.98,9.25,3.47,13.24,6.41,7.15,5.27,8.33,12.34,2.66,19.16-2.29,2.75-1.73,4.45-.51,7.11,8.03,17.58,14.62,35.65,17.69,54.82.57,3.58,2.5,5.47,5.57,7.13,19.8,10.73,35.69,25.63,46.87,45.27,7.76,13.64,13.3,28.14,15.21,43.83.56,4.64.95,9.34-.54,13.97-2.88,8.95-11.04,13.87-20.12,11.96-3.87-.81-7.73-1.63-11.58-2.53-3.59-.84-7.15-1.78-10.62-2.65-2.12,1.82-.32,3.35.11,4.79,7.2,23.93,15.57,47.29,28.57,68.92,13.79,22.94,30.86,42.9,50.75,60.61,1.66,1.48,3.3,2.99,4.89,4.54,6.22,6.08,9.13,13.38,8.02,22.13-.27,2.14-1.16,4.26,2.13,5.27,13.77,4.26,27.22,4.39,40.28-2.43,3.05-1.59,4.85-2.96,3.09-7.37-3.87-9.72-2.81-19.91-.72-29.97.9-4.32,3.23-9.29,1.9-12.84-1.17-3.13-6.6-4.58-10.01-6.98-17.82-12.53-33.43-27.46-43.76-46.71-13.82-25.76-17.35-52.95-6.05-80.74,5.72-14.06,14.65-25.8,28.46-33.01,2.86-1.49,3.7-3.07,3.59-6.28-.5-13.66.61-27.21,4.66-40.34,12.83-41.56,38.85-69.71,81.89-80.74,27.03-6.92,53.94-5.4,80.79.6,24.7,5.52,48.37,13.98,70.66,26.06,27.19,14.73,50.34,33.95,66.8,60.57,11.7,18.93,17.46,39.72,19.12,61.68,2.44,32.44-4.13,63.43-16.11,93.43-7.55,18.91-17.25,36.65-29.34,53.05-1.32,1.79-2.35,3.95-4.03,5.29-7.35,5.89-8.2,13.72-8.25,22.46-.08,14.35-1.77,28.57-6.65,42.28-3.45,9.71-8.72,17.75-18.36,22.12-4.11,1.86-5.53,4.84-6.32,9.1-8.02,43.25-25.29,82.49-51.92,117.53-5.84,7.69-12.48,14.72-19.93,20.91-8.51,7.08-18.03,9.19-28.29,4.67-3.59-1.58-4.16.59-5.6,2.53-11.34,15.25-24.97,28.03-41.3,37.85-4.67,2.81-9.62,5.03-14.91,6.43-17.17,4.56-28.83-.86-36.26-17.06-.87.19-1.86.22-2.69.61-14.13,6.7-28.91,11.49-44.24,14.42-3.57.68-4.94,2.1-5.68,5.48-7.48,34.01-19.97,66.09-36.97,96.5-14.82,26.5-33.02,50.45-53.52,72.7-3.14,3.41-4.14,6.31-3.5,11.03,3.27,24.32,1.6,48.43-5.7,71.9-4.21,13.55-10.42,26.27-21.02,36.15-4.31,4.02-5.47,7.62-2.77,13.3,5.73,12.03,10.6,24.46,15.99,36.66,1.59,3.6,3.7,6.98,5.63,10.43,7.02,12.59,18.06,16.82,31.88,15.36,8.37-.88,16.61-2.56,24.79-4.43,13.36-3.04,26.78-4.44,40.49-3.07,4.12.41,8.38-.37,12.57-.69,33.06-2.56,67.99,19.67,74.98,59.83,2.24,12.89-4.36,20.75-17.96,20.77-37.36.06-74.73,0-112.09,0-57.66,0-115.31.04-172.97.03-17.76,0-24.42-8.17-20.77-25.34,5.59-26.29,23.81-42.8,51.15-46.34,1.71-.22,3.42-.38,5.08-.56,1.24-2.59-.6-4.46-1.33-6.36-4.67-12.22-9.68-24.31-14.39-36.52-1.92-4.99-4.78-7.83-10.41-9.07-24.09-5.29-44.24-18.01-61.86-34.83-3.55-3.39-6.87-4.21-11.25-3.26-24.86,5.36-50,6.37-75.29,4.68-3.84-.26-6.49.86-9.17,3.47-11.22,10.91-23.65,20.14-37.59,27.44-11.99,6.27-24.52,10.33-37.89,11.97-2.96.36-5.98.38-7.43,3.77-4.83,11.34-10.71,22.26-13.73,34.33-.23.93-.38,1.87-.59,2.92,4.59.8,9.03.51,13.44,1.33,14.48,2.68,25.53,10.33,33.61,22.33,7.03,10.45,10.96,22.13,11.6,34.75.65,12.89-5.59,19.46-18.52,19.47-71.27.05-142.53.02-213.8,0-1.73,0-3.47-.02-5.19-.17-9.17-.82-15.28-6.73-15.12-15.98.33-18.99,7.34-35.22,22.16-47.45,10.83-8.94,23.69-13.04,37.64-13.81,6.42-.35,12.83-.4,19.21-1.51,12.87-2.23,22.9-8.67,30.5-19.22,9.07-12.59,14-27.15,20.07-41.2,2.53-5.85,2.28-10.51-1.24-16.18-9.76-15.72-13.24-33.5-13.55-51.72-.12-6.83-1.95-11.07-7.37-15.39-21.27-16.94-38.91-37.23-52.96-60.57-2.92-4.84-5.9-9.65-8.94-14.62-.78.44-1.5.66-1.97,1.13-11.02,11.16-24.94,13.1-38.41,5.02-9.95-5.97-17.77-14.28-23.77-24.08-9.93-16.23-16.13-33.85-17.85-52.89-.26-2.93-.5-4.86-4.08-5.8-11.48-3.02-17.37-10.45-18.18-22.24-.25-3.67-.04-7.37-.04-11.4-3.52.87-6.13,3.11-8.85,5.08-16.86,12.17-25.99,29.29-31.54,48.83-5.83,20.52-6.79,41.4-5.17,62.5.33,4.23.59,8.43-.79,12.49-2.39,7.04-7.02,11.85-14.42,13.57-7.2,1.67-13.6-.52-18.03-6.04-21.38-26.67-38.91-55.52-46.2-89.4-4.84-22.52-4.46-45.18.98-67.66.27-1.11,1.04-2.24-.25-3.66-2.61,1.06-3.75,3.61-5.25,5.72-20.46,28.72-33.46,60.85-43.07,94.52-1.02,3.56-1.84,7.2-3.13,10.66-2.77,7.43-10.16,12.19-17.96,11.86-7.88-.33-14.96-5.5-17.05-13.11-3.6-13.12-5.82-26.55-7.81-40-4.34-29.28-5.1-58.71-1.26-88.03,4.26-32.51,12.87-63.83,28.36-93.07,7.75-14.63,17.69-27.6,28-40.37,2.2-1.02,2.91-3.2,4.16-4.98-1.37.99-3.3,1.21-4.04,2.92ZM440.11,1247.94s.14-.09.14-.09c.46-.32.93-.65,1.39-.97.36-.37.8-.58,1.31-.64,3.19.33,6.2-.67,9.29-1.07,4.05-.53,8.91-2.13,11.33,3.4-.22.27-.49.38-.84.32-.8-.65-1.28-.33-1.61.51l-.25.11c-1.23-.27-2.21.05-2.8,1.24-10.22,5.1-17.47,12.71-20.35,24.03-1.52,5.96-1.22,6.48,4.74,6.52,15.31.11,30.63.16,45.94.18,5.62,0,5.77-.04,6.73-5.48,1.1-6.22,1.9-12.49,2.97-19.68,4.02,3.75,5.71,7.81,7.09,11.96,1.01,3.03,1.6,6.21,2.22,9.35.51,2.56,1.78,3.8,4.52,3.79,17.54-.06,35.07-.06,52.61,0,3.6.01,4.21-1.7,3.18-4.7-6.8-19.77-17.05-27.62-35.97-25.81-2.21.21-4.4.71-6.61.84-3.14.18-6.22,1.52-9.42.47l.12.07c.29-2.76-.18-5.32-1.97-7.55-4.26-5.34-4.69-11.54-4.15-18.03.42-5.15,2.1-9.99,3.2-14.97,4.12-8.09,6.55-16.92,11.03-24.86,1.26-2.23.7-3.62-1.97-4.2-8.93-1.96-17.47-5.07-25.51-9.43-2.9-1.57-4.57-.71-5.67,2.18-2.51,6.65-5.06,13.29-7.6,19.93-3.84,6.89-7.38,13.98-11.59,20.64-12.68,20.07-30.81,31.53-54.65,33.52-5.91.49-11.83.91-17.75,1.23-15.44.83-25.87,8.63-31.77,22.72-3.11,7.43-2.81,7.82,5.04,7.85,13.35.04,26.69.06,40.04.07,7.8,0,7.88.02,9.73-7.43,2.52-10.17,7.14-18.9,16.22-24.75.84-.04,1.36-.48,1.61-1.28ZM628.69,673.2h0c-.81.16-1.3.64-1.51,1.43l-.03.02c-1.82.04-2.85.94-3.06,2.76,0,0-.1.09-.1.09-2.24-.51-4.38,2.1-6.77.51.42-3.43,3.2-5.91,2.48-9.32h0c.89-.35,1.29-.99,1.16-1.95-.93-4.41-5.29-3.67-8.06-5.3-1.1-.65-2.3-1.11-2.18-2.55.09-1.01.95-1.66,1.88-2.11,3.83-1.88,7.93-2.58,12.14-2.8,2.43-.13,5.03.36,7.18-1.2,6.93-5.05,13.81-10.17,20.72-15.26,3.35-1.82,7.64-1.83,10.44-5.48-5.59-4.98-12.04-7.52-19.4-7.99-13.28-.85-25.27,3.25-36.77,9.38-17.74,9.47-30.37,24.22-41.33,40.52-18.24,27.12-26.34,57.61-29.04,89.8-.17.15-.5.32-.48.44.06.39.24.77.37,1.15-.07,5.92-1.23,11.85.23,17.75-.04,1.49-.08,2.98-.12,4.46-1.96,1.81-1.32,4.19-1.1,6.29.5,4.89,1.15,9.78,2.1,14.6,3.51,17.73,9.14,34.75,16.49,51.29,8.54,19.22,20.26,36.18,35.3,50.7,10.49,10.13,23.53,15.63,38.26,14.97,11.85-.53,23.45-3.14,34.17-8.66,19.4-9.99,37.84-21.28,53.06-37.29,4.99-5.25,10.87-9.66,16.99-15.02.89,6.14-2.44,9.94-3.51,14.33-.73,2.99-4.66,6.01-2.11,8.73,2.35,2.51,6.56.88,9.97.61.48-.04.94-.31,1.42-.41,5-1.02,9.99-2.03,15.64-3.18-1.17,5.42-4.29,8.33-8.3,10.41-7.59,3.92-15.6,6.03-24.24,5.51-2.89-.17-5.96-.64-8.41,1.77-3.69,3.64-7.48,7.16-11.55,10.4-2.86,2.28-2.61,4.05.64,5.56,6.55,3.04,13.47,5.3,20.76,4.35,13.85-1.81,27.02-5.56,38.14-14.69,7.42-6.09,15.13-11.85,20.39-20.11.34-.28.66-.58.97-.9.86-.13,1.3-.6,1.18-1.5,1.59-2.51,3.41-4.89,4.72-7.54,4.34-8.82,9.23-17.45,10.6-27.43,3.78-10.45,5.49-21.27,5.97-32.33,1.39-31.67-3.61-62.49-12.83-92.65-6.75-22.09-16.35-42.85-31.49-60.67-14.04-16.52-31.59-25.72-53.52-25.67-13.87.03-26.69,4.52-39.11,10.09-8.92,4-17.73,8.35-25.04,15.09h.03c-2.39-.11-3.76,1.51-5.18,3.05-2.88.49-4.23,3.26-6.63,4.47-.79.18-1.3.67-1.52,1.45ZM1085.8,622.78c-.07.19-.24.43-.18.56.14.31.39.57.6.85,5.64,5.3,12.7,8.38,19.35,12.02,18.89,10.35,39.7,14.33,60.66,17.7,1.95,2.16,4.58,1.58,6.96,1.51,8.86-.25,17.69-.04,26.57-1.22,14.05-1.87,27.56-5.45,40.53-10.97,6.22-2.65,11.04-6.98,13.42-13.93,2.59-7.55,3.98-15.26,4.43-23.11.32-5.56.8-11.23-.55-17.3-7.14,2.17-13.75,4.73-20.58,6.59-16.48,4.49-33.38,4.94-49.97,3.05-18.69-2.13-36.4-8.7-52.56-18.71-3.02-1.87-5.98-3.81-9.62-2.81-5.85,1.61-11.77.99-17.67,1.08-6.07.08-12.14,0-18.21,0-.92-.12-1.83-.23-2.75-.35-.85-1.05-1.96-1.2-3.2-.92-4.01-1.19-8.06-2.24-12-3.62-2.55-.89-3.75-.03-4.22,2.36-1.5,7.72-3.42,15.37-3.16,23.35.11,3.36,1.06,6.34,3.14,8.85,4.56,5.49,9.54,10.53,16.15,13.62v-.07c.54,1.44,1.38,2.33,3.06,1.56l-.22-.1ZM382.36,823.47c-.05-.57-.1-1.13-.14-1.7,4.79-8.62,12.1-14.88,19.82-20.62,13.3-9.91,28.21-16.04,44.77-18,3.76-.44,7.06-1.5,9.37-5.03,5.39-8.22,13.03-13.95,21.36-19.01,6.75-4.1,14.35-6.61,20.63-11.52,6.24-.56,11.69-3.81,17.67-5.19,3.44-.79,5.12-2.94,5.43-6.09.89-8.93,3.85-17.3,6.56-25.74,1.12-3.49.82-6.51-.93-9.84-4.03-7.67-6.45-15.91-8.44-24.38-1.79-7.63-1.85-15.6-4.35-22.95-1.99-.24-3.18.68-4.43,1.47-14.92,9.35-30.66,16.79-47.6,21.83-4.18,1.25-9.5,1.71-11.56,6.96-4.85,1-7.71,4.9-11.21,7.82-27.55,23.04-52.44,48.69-74.54,76.97-23.25,29.76-42.24,61.92-53.08,98.38-2.36,7.93-5.26,15.85-4.98,24.36-.63,4.28-.57,8.51-.01,13.48,8.96-6.26,13.69-15.07,20.76-22.09,1.43,2.94.98,4.86.66,6.82-.83,5.1-1.9,10.2-2.25,15.35-1.67,24.96,2.54,48.73,15.05,70.7,4.51,7.93,11.12,13.86,18.64,18.73,4.16,2.7,6.32,1.33,6.45-3.65.09-3.45-.3-6.87-.74-10.32-.68-5.33-3.17-10.59-1.8-17.28,9.75,9.51,19.99,16.18,30.94,22.03,15.45,8.26,32.02,11.91,49.16,11.6,16.57-.3,32.78-4.09,48.28-10.21,5.27-2.08,10.35-4.74,15.34-7.44,3.25-1.76,3.29-3.29.68-5.67-.9-.82-2.01-1.43-3.04-2.1-8.18-5.32-14.69-12.33-20.8-19.88-6.68-8.26-12.27-17.28-18.71-25.69-2.66-6.05-5.43-12.06-7.95-18.17-9.01-21.77-14.46-44.33-14.49-68.01-.01-8.35.27-16.71.42-25.06,1.98-2.98,1.72-6.58,2.59-9.86,1.11-4.16.36-4.67-3.88-4.3-19.28,1.7-36.31,9.79-53,18.77-1.62.87-3.09,2.3-3.91,4.14,0,0,.05-.03.05-.03-.93.13-1.86.26-2.8.38ZM527.83,839.48c-.29-1.3-.36-2.71-1.57-3.61l.02-.53c-.03-1.32.45-2.86-1.47-3.35l.06.1c.57-1.2.31-2.42.06-3.62-4.31-21.1-7.07-42.31-5.35-63.93.3-3.79-.68-4.42-4.29-3.12-11.19,4.04-21.52,9.79-31.54,16.15-15,9.53-20.16,24.1-21.02,40.89-.81,5.33-1.73,10.67-1.56,16.08.84,26.31,5.39,51.7,19.1,74.73.06.73-.09,1.55.19,2.18,9.62,21.2,24.25,38.23,43.64,50.98,12.28,8.08,25.13,8.85,38.48,1.71,10.96-5.87,20.64-13.39,30.13-21.24,4.85-4.01,4.64-6.04-.67-9.61-20.32-13.66-35.42-31.79-46.42-53.51-.97-1.91-1.47-4.3-4.02-5l-.89-2.37c.53-1.82-.33-2.92-1.9-3.65-.15-.42-.31-.84-.49-1.25-.27-.55-.53-1.11-.8-1.66-.2-.49-.4-.98-.61-1.47-.16-.79-.69-1.19-1.43-1.37-.19-.39-.29-.8-.29-1.23,2.21-3.46-.75-5.4-2.29-7.75-.14-.46-.3-.91-.48-1.36,0-2.8-.31-5.49-2.73-7.4l-.11-.25c-.18-1.98.27-4.16-1.77-5.54ZM862.8,550.98c-1.7-4.73-5.14-8.27-8.43-11.82-10.05-10.83-17.53-23.41-24.98-36.01-3.73-1.09-6.63,1.21-9.67,2.56-17.03,7.53-34.59,9.31-52.68,4.94-10.06-2.44-19.89-5.64-29.34-9.98-4.86-2.23-5.64-1.68-6.69,3.65-.71,3.61-1.26,7.26-1.91,10.89-3.38,18.91-6.36,37.82-5.59,57.17.86,21.49,8.72,39.35,26.47,51.88,6.72,4.75,14.03,9.35,23.07,8.54,14.02.18,24.53-5.45,31.31-18.07,6.15-11.46,6.62-23.49,4.78-35.91-2.33-15.73-7.74-30.47-14.39-44.82,1.62-1.9,2.57-.17,3.51.75,4.77,4.67,9.45,9.44,13.25,14.96,8.44,12.26,14.13,25.44,13.3,40.75-.15,2.72-.05,5.44-.12,8.16-.04,1.84.63,3.35,1.9,4.66,4.61,4.78,16.59,6.99,23.52,4.31,12.26-3.53,19.27-11.69,20.63-24.29,1.26-11.64-1.12-22.57-7.94-32.32ZM781.11,210.81c4.55-18.13,5.72-36.46,2.57-54.92-.63-3.67.52-8.04-3.07-10.94-1.39-4.73-1.08-9.86-3.38-14.37.61-3.41-1.16-6.27-2.31-9.21-9.06-23.18-22.58-43.22-41.23-59.9-22.35-19.99-47.58-33.57-77.8-36.58-9.87-.99-19.75-1.17-28.88,3.83-10.27,3.44-17.35,12.71-17.84,22.92-.4,8.24.55,16.18,3.47,23.95,3.03,8.08,5.86,16.22,9.68,23.99,6.15,12.52,9.48,25.83,10.62,39.71.1,1.17.21,2.52-1.3,3.08-2-.06-2.82-1.82-4.18-2.78-5.99-4.21-10.61-10.29-17.74-12.94-.52-.34-1.04-.67-1.56-1.01-.53-.15-1.05-.29-1.58-.44-1.14-2.4-3.46-3.45-5.54-4.74-12.49-7.74-26.16-13.02-40.13-16.93-18.66-5.22-37.98-6.37-57.31-4.56-12.3,1.16-24.34,3.67-35.04,10.44-3.75.41-6.82,2.52-9.85,4.41-6.23,3.86-11.91,8.37-14.18,15.84v.1c-1.43.5-1.44,1.79-1.65,2.96-4.58,7.83-4.13,21.96,1.52,28.58,3.82,4.47,7.87,8.82,12.94,12.11,11.76,7.64,24.78,12.08,38.18,15.63,6.21,1.64,12.15,4.04,18.06,6.48,2.18.9,5.28,1.74,4.9,4.8-.38,3.05-3.77,2.81-5.95,3.43-21.01,6-40.97,14.05-58.23,27.93-17.73,14.26-30.62,31.4-33.22,54.69-.72,6.47.36,13.46,4.88,18.05,6.62,6.74,14.78,11.29,25,11.04,6.92-.16,13.74-.91,20.61-1.49,6.39-.53,10.48-3.33,12.56-9.45,3.36-9.89,8.61-18.86,14.35-27.5,9.44-14.21,20.2-27.17,33.47-38.21,10.49-8.72,21.25-16.79,33.32-23.14,10.33-5.43,21.39-8.96,32.46-12.42,10.12-3.17,20.43-5.42,31.17-5.25,8.9.15,17.8-.1,26.7-.18,5.47-.16,10.76.85,15.96,2.42,7.05,2.13,14.1,4.3,21.11,6.55,24.8,7.95,46.25,21.42,64.91,39.49,8.31,8.05,7.03,10.47,13.28-3.13.29-.63.18-1.44.26-2.16,4.71-9.62,8.64-19.49,10-30.21ZM970.34,614.17c1.97-.26,2.77-1.2,1.21-2.79-3.97-4.06-8.03-8.04-12.11-12-34.01-32.92-59.12-71.33-72.34-117.11-2.02-7.01-4.34-13.94-6.86-21.98-3.73,4.16-6.8,7.6-9.88,11.03-8.28,6.63-16.5,13.32-24.86,19.84-2.37,1.85-2.65,3.73-1.61,6.39,2.94,7.47,7.49,13.91,12.66,19.93,6.12,7.13,12.46,14.11,17.66,21.94,10.06,15.15,15.05,31.78,11.38,49.96-6.39,31.72-37.97,40.28-58.72,31.74-6.42-2.64-6.32-2.65-9.74,3.01-8.95,14.82-21.92,23.08-39.39,23.92-1.84.09-3.85-.32-5.63.82.39,2.45,1.93,3.75,3.1,5.3,3.57,4.73,7.73,9.17,10.48,14.34,6.89,12.94,17.1,22.95,27.61,32.7,10.92,10.14,23.1,18.58,36.18,25.72,4.52,2.46,5.43,2.15,8.34-2.3,4.26-6.51,6.6-13.8,8.44-21.26,3.58-14.49,4.66-29.24,4.33-44.14-.07-3.35-.79-6.8.61-10.68,5.13,1.73,8.52,5.42,12.2,8.5,11.1,9.29,23.27,16.73,36.74,21.99,8.65,3.37,9.94,2.45,9.92-6.76-.03-17.87-4.65-34.66-12.17-50.74-1.74-3.72-4.13-7.18-4.94-11.37,2.96-1.41,5.18.21,7.38.99,9.17,3.27,18.7,4.6,28.32,5.29,4.4.31,8.93.78,13.02-1.69,2.35.82,4.68.56,6.99-.16.68.35,1.24.23,1.67-.43ZM300.6,710.31l-.04-.02c-15.52-11.15-33.17-16.93-51.68-20.65-12.3-2.48-24.41-2.26-36.61.93-43.18,11.27-75.25,36.72-97.35,75.25-9.26,16.16-16.28,33.16-20.68,51.25-3.11,4.13-2.91,9.26-3.96,13.95-3.99,17.78-6.44,35.77-6.39,54.05.03,10.58-.38,21.17,1.36,31.68-.57,10.84,1.76,21.26,4.06,32.69,3.11-2.92,4.06-5.63,4.79-8.4,7.87-29.76,22.9-55.92,40.84-80.55,4.87-6.69,10.5-12.82,15.79-19.21,3.5-3.49,7-6.97,10.5-10.46,1.53-.23,2.81-.93,3.83-2.08,6.87-7.71,15.89-12.46,24.61-17.51,23.3-13.48,48.81-16.22,75.08-14.64,2.71.16,5.5.79,6.06,4.28h0c-2.53.25-5.3-.83-7.44,1.44-.47.04-.95.08-1.42.13-1.21-.1-2.31.11-3.11,1.15-.95.1-1.91.19-2.86.29-1.2-.05-2.3.17-3.08,1.21-.49.05-.97.12-1.46.2-.46-.03-.91,0-1.36.07-2.49,1.05-4.99,2.09-7.47,3.15-14.68,6.27-28.31,14.66-38.7,26.56-16.72,19.15-24.02,42.8-26.45,67.69-1.69,17.27.82,34.31,6.79,50.83,2.94,8.14,6.78,15.84,10.06,23.8,2.32,5.63,5.11,11.06,9.54,15.42,1.25,4.2,3.38,7.76,8.05,11.6,0-10.1-.53-18.74.15-27.28.7-8.77,2.23-17.51,4-26.15,6.07-29.7,21.06-53.75,45.95-71.4,6.96-4.93,15.05-7.23,22.99-9.79,3.22-1.04,4.83-2.65,5.73-5.87,3.47-12.31,8.23-24.18,12.97-36.05,3.33-3.87,4.19-8.89,6.22-13.36.45-.2,1.1-.26,1.3-.6,6.45-10.91,12.85-21.85,19.28-32.77.89-1.52,1.38-3.13,1.55-4.86,2.91-.69,4.38-2.94,5.87-5.26,3.59-5.59,7.6-10.88,11.92-15.93,7.87-9.41,15.73-18.82,23.6-28.22,6.85-6.4,13.64-12.85,19.54-20.2,2.13-2.66,2.25-4.82,1.59-8.05-2.89-14.1-7.54-27.61-13.42-40.66-3.42-7.59-6.51-15.46-11.9-22.02-4.14-8.49-9.7-16.08-15.34-23.57-17.49-23.25-39.84-40.36-66.68-51.45-14.43-5.96-29.49-9.71-45.08-11.34-26.24-2.74-51.73.31-76.52,9.3-24.53,8.9-45.96,22.5-64.49,41.01-14.8,14.79-27.72,30.82-37.29,49.47-4.37,5.1-7,11.14-9.52,17.28-5.32,12.94-11.15,25.68-15.37,39.07-4.88,15.51-7.04,31.58-10.17,47.46-1.76,8.92-3.56,17.83-2.99,27.01-3.02,6.78-.76,13.77-.87,20.88,22.29-44.58,50.6-83.89,93-111.42,7.14-3.82,14.11-8,21.48-11.31,3.37-1.52,6.62-3.02,9.57-5.21,1.18-.28,2.42-.4,3.53-.86,14.92-6.26,30.65-8.55,46.64-9.3,13.82-.64,27.38,1.6,40.69,5.2,25.09,6.8,46.2,20.21,64.09,38.91,1.6,1.68,2.68,3.5,2.92,5.79-2.12-.74-3.85-2.45-6.24-2.52ZM860.17,1189.91c-1.02-5.66-4.18-10.5-5.98-15.87-1.14-3.39-3.2-3.7-6.36-2.48-6,2.32-12.24,3.88-18.58,5.02-2.29.41-4.89-.29-7.25,1.64,5.3,13.6,10.5,26.93,15.67,40.27,1.79,4.62,3.4,9.29,3.74,14.29.76,11.1-3.07,16.14-13.95,18.02-4.13.72-8.31,1.26-12.48,1.67-11.9,1.16-22.11,5.31-28.55,16.05-1.32,2.21-3.77,4.72-2.21,7.35,1.39,2.36,4.55,1.28,6.93,1.28,73.23.1,146.46.16,219.69.16,2.12,0,4.48.83,6.35-1,.19-.68.7-1.47.52-2.03-3.07-9.4-8.05-17.4-16.5-23.03-11.53-7.68-24.18-8.18-37.12-5.66-10.67,2.07-21.16,4.87-32.07,5.83-24.51,2.15-42.62-8.1-55.56-28.3-3.32-5.18-5.62-11-8.48-16.48-2.85-5.46-4.11-11.67-7.82-16.73ZM958.41,652.44c-.03-1.1-.53-1.89-1.56-2.32-1.72-4.96-5.74-8.42-8.37-12.8-1.48-2.46-3.31-5.78-6.8-4.03-3.2,1.6-1.24,4.9-.54,7.23,3.63,12.19,4.14,24.64,3.77,37.21-.17,5.78-1.43,11.18-4.78,15.98-6.99,2.58-13.97,2.38-21.06.29-10.53-3.1-20.42-7.42-29.13-14.21-1.32-1.03-2.59-2.66-4.52-1.58-1.87,1.05-1.29,3.09-1.24,4.71.41,11.8-2.32,23.02-6.16,34.05-2.86,8.21-6.71,15.93-11.79,22.98-5.07,7.04-9.28,7.97-16.96,4.26-9.14-4.41-18.02-9.25-26.06-15.52-4.03-3.14-7.75-6.76-13.98-9.31,3.7,11.28,6.49,21.63,8.36,32.19,5.74,27.75,7.41,55.67,3.88,83.87-2.94,23.51-10.9,44.94-25.21,63.93-1.63,2.16-3.05,4.47-4.57,6.71-2.38.47-3.76,2.32-5.24,3.94-6.05,6.58-12.8,12.28-20.38,17.05-12.54,7.9-26.17,12.98-40.81,14.61-14.18,1.58-27.42-2.46-39.73-9.36-4.03-2.26-7.45-2.71-11.76-.49-16.24,8.36-33.31,13.68-51.86,12.93-2.6-.11-4.61.6-6.48,2.72-9.71,10.98-20.83,20.47-33.45,27.81-12.38,7.2-25.22,14.13-40.33,12.71-6.61-.62-12.07,1.51-17.49,4.67-26.54,15.46-54.73,24.91-85.88,23.64-3.95-.16-7.92-.14-11.87-.1-1.65.02-3.46-.6-4.92.87-.72,1.92.49,3.39,1.45,4.7,11.1,15.19,22.92,29.74,37.96,41.31,3.59,2.76,4.48,2.54,6.09-2,2.07-5.82,3.72-11.8,6.01-17.52,2.14-5.36,4.67-10.66,11.26-13.98-.57,6.05-.47,11.24-1.64,16.14-3.9,16.26-4.14,32.73-4.19,49.3-.04,11.82,2.29,23.11,6.42,33.99,4.86,12.79,13.83,22.43,26.25,27.93,15.79,6.99,32.45,7.77,49.31,4.12,22.03-4.77,39.55-17.49,55.93-32.04,12.97-11.52,23.76-25.08,34.62-38.54,1.61.52,2.52,1.81,3.45,3.08-.42,3.47-1.76,6.55-3.33,9.69-2.35,4.68-3.95,9.75-6.04,15.1,8.35.81,15.9,2.54,23.51,1.64,13.18-1.56,26.44-1.78,39.63-3.83,31.47-4.89,61.15-14.93,89.77-28.55,20.81-9.91,39.77-22.8,57.93-36.82,6.14-4.75,13.04-8.84,17.77-15.31,2.66-2.07,5.28-4.18,7.2-7.01,2.21-1.96,4.65-3.72,6.59-5.92,11.1-12.6,22.43-25.04,32.34-38.6,24.85-34,43.09-71.27,54.15-111.97,9.39-34.56,11.72-69.47,5.59-104.87-.61-3.5-1.97-7.16-.37-10.81l-.07.1c1.67.09,2.49,1.44,3.57,2.4,6.81,6.06,13.58,12.16,20.44,18.18,1.4,1.22,2.63,3.07,5.08,2.45.98-2.91.25-5.79-.13-8.66-4.08-30.64-14.18-59.31-28.73-86.44-6.03-11.25-12.39-22.35-20.96-31.97l.04.09ZM735.17,418.33c-11.78,7.86-24.54,13.42-38.56,16.07,1.04,2.51,3.14,2.92,4.91,3.58,9.48,3.49,19.1,6.61,29.07,8.25,21.71,3.56,43.17,1.61,64.38-3.79,11.99-1.66,23.61-5.14,35.46-7.48,22.85-4.5,45.76-7.73,69.14-5.14,7.75.86,15.37,2.35,22.34,4.3,1.4-.96,1.12-1.77.98-2.43-4.35-20.06-13.18-37.65-28.77-51.4-23.52-20.74-51.53-29.19-82.33-29.59-13.21-.17-24.49,5.02-34.14,13.87-4.58,4.19-8.26,9.14-11.9,14.15-9.83,13.49-17.58,28.59-30.59,39.62ZM1167.7,672.81c-1.74-1.85-3.87-1.27-5.96-.97-24.3-2.16-46.98-9.58-68.58-20.76-7.64-3.95-14.14-9.68-21.87-13.44-.67-1.71-2.22-2.61-3.52-3.71-5.41-4.57-4.69-4.41-10.2,0-10.86,8.69-23.32,13.59-37.4,14.07-13.06.44-25.47-2.06-37.36-7.46-2.21-1-4.4-2.52-7.74-2.29,5.44,8.18,10.48,15.76,15.52,23.33.82,3.43,2.83,6.3,4.51,9.29,6.65,11.88,12.09,24.28,16.85,37.03,5.36,14.36,9.23,29.16,13.33,43.89,1.93,9.93,3.21,19.91,2.81,30.08-.53,13.51-7.33,19.86-20.52,19.03-1.39-.09-2.83-1.05-4.63.3-.74,9.24.14,18.86-1.31,28.39-.58,3.82,1.17,4.7,5.9,3.75,15.6-3.14,30.08-9.27,44.25-16.36,10.87-5.44,20.94-12.06,30.76-19.14,1.67-1.2,3.34-2.75,6.16-2.04-.77,2.57-1.29,4.7-2.04,6.76-2.8,7.65-5.81,15.21-8.44,22.92-1.14,3.33-4.1,7.65-1.24,10.23,3.28,2.95,7.96.81,11.8-1.11,1.99-1,3.98-2,5.88-3.15,12.43-7.54,22.23-18.02,31.45-29,9.22-10.98,15.57-23.96,23.77-35.68,2.93-.25,2.99-2.33,2.86-4.52.45-.58.9-1.16,1.35-1.74,2.03.12,4.07.25,6.1.37-.21,5.66-.04,11.29-.99,16.96-.78,4.66-1,9.71,2.47,13.98,6.99-3.42,11.91-8.63,16.24-14.32,13.68-17.96,24.21-37.8,33.53-58.26,6.76-14.83,11.91-30.23,14.72-46.39.65-3.72-.59-4.43-3.69-4.14-.98.09-2,.07-2.94.33-16.89,4.55-34.14,4.4-51.41,3.93l-.43-.18ZM1315.14,421.85c-1.25-25.16-11.47-46.67-27.62-65.39-10.2-11.83-22.61-21.32-35.94-29.52-22.03-13.54-45.99-22.13-71-28.27-22.13-5.43-44.3-6.93-66.77-2.69-18.7,3.53-35.06,11.2-48.05,25.64-14.16,15.75-22.48,34.08-25.53,54.87-.89,6.09-1.14,12.29-1.54,18.44-.18,2.83.52,5.08,4.21,3.91,12.73,1.22,25.48,2.01,37.6,6.97,17.19,7.03,31.19,17.64,40.72,33.81,3.67,6.22,5.65,13.05,7.83,19.83.14,8.16-.04,16.25-2.85,24.11-2.45,6.88-2.23,7.52,4.96,10.28,19.55,7.5,39.72,12.2,60.78,10.02,12.17-1.26,23.65-5.45,33.19-13.38,10.97-9.12,19.56-20.25,24.37-33.81,4.45-12.54,8.55-25.24,9-38.76.05-1.45.62-2.88.99-4.31.31-1.19.65-2.66,2.19-2.41.77.12,1.72,1.15,1.99,1.96,2.94,8.91,5.05,17.93,4.07,27.48-.51,5.03-2.04,10-1.61,15.56,7.99-1.49,12.2-8.77,19.16-11.05.36.75.83,1.25.73,1.6-3.17,11.28-9.33,20.22-20.73,24.31-4.79,1.71-7.84,4.42-10.15,8.91-13.99,27.23-37.5,39.44-67.05,41.67-16.48,1.24-32.38-2.32-48.17-6.48-1.87-.49-3.72-1.5-5.88.21,1.37,8.25,4.95,16.8-.27,25.25-2.17-1.22-2.68-2.89-3.09-4.54-2.45-9.7-8.6-17.11-15.17-24.2-4.09-4.41-4.22-4.29-9.21-1.16-3.55,2.23-7.05,4.45-11.18,5.67-18.95,5.6-36.1,2.4-51.46-10.1-2.45-1.99-4.59-4.16-4.44-7.59,3.4-1.29,5.85.41,8.33,1.21,11.7,3.76,23.41,5.35,35.67,2.64,15.57-3.43,26.4-14.19,27.83-28.59,2.36-17.09-4.3-30.48-17.42-40.82-16.51-13.01-35.42-18.24-56.24-15.22-12.29,1.78-22.49,7.55-28.43,18.99-3.41,6.58-6.01,13.53-6.69,21.04-.89,1.01-.84,2.25-.94,3.48-1.9,22.09,6.42,40.94,20.13,57.16,16.04,18.97,35.78,33.19,60.29,39.76,16.69,4.47,33.41,8.75,50.91,7.97,3.35-.15,6.1.76,8.96,2.61,26.36,17.03,55.34,20.05,85.37,14.37,22.08-4.18,39.14-16.92,52.19-35.02,3.29-4.56,6.98-8.93,8.92-14.35.29-.4.61-.78.86-1.2,15.39-25.59,23.39-53.65,26.94-83.03,1.11-9.2,1.81-18.65-.8-27.87ZM827.51,291.75c-2.72,1.52-4,4.29-5.76,6.65-2.96,3.96-5.77,8.03-8.86,11.88-2.94,3.67-6.84,5.67-11.67,5.28-6.19-.5-9.21-5.76-5.98-10.93,3.29-5.27,6.11-10.76,8.4-16.49,2.74-6.89,5.66-13.67,9.46-20.05,1.33-1.45,2.7-2.85,3.98-4.35,3.84-4.51,3.89-4.59-.27-8.95-5.11-5.36-10.39-10.52-16.29-15.06-9.83-7.57-9.78-7.64-12.81,4.44-.12.46-.01.98,0,1.47-1.33.52-1.51,1.83-2,2.93-3.68,8.13-8.48,15.63-13.01,23.28-3.07,5.18-6.42,5.5-10.86,1.62-.93-.81-1.78-1.72-2.57-2.67-16.76-20.11-37.25-35.37-61.24-45.6-31.22-13.32-63.34-16.32-96.22-6.48-.55.25-1.1.5-1.65.75-1.3.4-2.6.81-3.9,1.21-.49-.04-1.04-.26-1.46-.11-17.52,6.34-34.19,14.38-48.45,26.55-26.88,22.95-44.73,52.01-55.17,85.46-6.56,21.03-9.01,42.92-9.5,64.96-.52,23.98.81,47.87,2.59,71.78,1.6,21.43,2.33,42.93,1.88,64.46-.23,11.16-1.75,22.14-3.58,33.07-5.3,31.65-19.54,59.35-38.16,85.07-1.52,2.1-3.47,4.08-3.93,6.59,1.61,2,3.47,1.4,5.11,1.54,14.82,1.35,28.31-3.29,41.38-9.51,13.33-6.35,24.15-16.17,35.14-25.75,1.87-1.63,3.19-4.39,6.9-4.19.09,21.77-1.01,43.42,6.62,63.87,2.17-.08,2.64-1.02,3.02-1.88,6.37-14.7,16.09-27.14,26.38-39.19,6.77-7.94,14.5-14.76,23.22-20.51,11.65-7.68,24.02-13.67,37.69-16.78,1.86-.04,3.73-.07,5.59-.11,5.51.67,11.02.51,16.54.2,12.15,2.01,23.55,5.67,32.03,15.27,2.01,2.28,4,2.22,6.59,1.54,9.68-2.53,19.54-2.58,29.45-1.95,2.3.15,4.73.69,7.3-.5-3.02-5.97-6.15-11.3-8.49-16.94-5.57-13.48-6.87-27.7-6.58-42.15.43-21.35,4.75-42.16,8.87-62.98.97-4.89.18-8.09-4.28-11.25-12.27-8.71-24.65-17.39-34.47-29.06-5.52-6.57-10.77-13.33-15.94-21.56-2.79,4.47-4.96,8.25-7.45,11.82-2.49,3.57-2.78,8.74-7.82,11.5-2.18-8.56-.62-15.95,2.07-23.12,4.43-11.79,12.88-19.74,24.59-24.1,3.76-1.4,7.83-2.3,11.94-.31-1.84,3.96-6.14,5.18-6.96,9.25,4.21,1.33,7.99-.38,11.8-.87,20.16-2.61,36.35-12.01,48.08-28.76,5.1-7.28,10.35-14.48,15.16-21.95,12.15-18.86,28.47-31.28,51.27-33.91,2.98-.34,4.34-1.72,4.7-4.64.39-3.21,1.56-6.24,3.07-9.08,4.89-9.18,13.88-9.9,20.25-1.75,3.14,4.02,4.72,8.63,5.67,13.53.56,2.89,1.46,5.32,5.09,5.08,3.46,2.56,7.39,3.22,11.45,3.45.97-3.08.05-5.42-.42-7.82-2.88-14.66-8.78-28.29-14.39-41.99-4.51-10.99-5.7-11.02-13.13-1.18ZM749.92,1129.79c5.21,5.29,9.91,8.51,14.8,11.34,21.63,12.53,44.38,19.07,69.35,11.71,10.76-3.17,21-7.65,28.38-16.53,8.97-10.79,14.83-23.11,17.74-36.95,1.52-7.24,2.7-14.54,3.58-21.83.77-6.39.89-13.01-.67-20.97-21.47,15.62-41.27,31.04-63.31,43.27-22.02,12.22-45.46,20.94-69.86,29.96ZM692.39,450.45c.65.73,1.29,1.48,1.96,2.19,17.55,18.59,39.45,30.17,62.91,39.39,23.62,9.27,45.85,6.51,67.45-6.18,17.02-10,31.62-22.8,44.93-37.21.93-1.01,2.47-1.86,1.6-3.91-3.37-.13-6.76.28-10.19.72-20.12,2.59-39.79,7.34-59.54,11.84-25.53,5.81-51.24,7.49-77.17,2.13-10.89-2.25-21.37-5.65-31.94-8.96ZM1017.88,1243.48c.15,1.01.04,1.67.31,1.94,8.04,7.8,13.36,17.1,15.43,28.14.54,2.87,2.21,3.5,4.71,3.46,4.7-.08,9.4.05,14.1-.16,4.4-.19,4.77-.76,3.16-4.94-6.64-17.22-20.12-25.29-37.71-28.43Z"/>
      <path class="cls-5" d="M118.15,718.35c.74-1.72,2.66-1.93,4.04-2.92-1.24,1.77-1.96,3.96-4.16,4.98.04-.69.08-1.37.12-2.05Z"/>
      <path class="cls-4" d="M596.25,220.67c1.3-.4,2.6-.81,3.9-1.2.88.48,1.36.08,1.65-.75,32.88-9.84,65-6.84,96.22,6.48,23.99,10.24,44.48,25.49,61.24,45.6.79.95,1.64,1.86,2.57,2.67,4.44,3.88,7.79,3.56,10.86-1.62,4.53-7.65,9.33-15.15,13.01-23.28.5-1.1.67-2.41,2-2.93,1.98-.28,3.19.99,4.4,2.22,5.68,5.78,11.4,11.52,16.99,17.39,1.19,1.25,2.03,2.79,4.01,2.84-3.8,6.38-6.72,13.16-9.46,20.05-2.28,5.74-5.1,11.22-8.4,16.49-3.23,5.17-.2,10.43,5.98,10.93,4.83.39,8.73-1.62,11.67-5.28,3.09-3.85,5.9-7.92,8.86-11.88,1.76-2.35,3.04-5.13,5.76-6.65,6.87,8.99,9.69,19.82,13.17,30.24,1.84,5.49,3.85,11.23,3.32,17.31-3.63.24-4.53-2.19-5.09-5.08-.94-4.9-2.52-9.51-5.67-13.53-6.37-8.15-15.36-7.43-20.25,1.75-1.51,2.84-2.68,5.88-3.07,9.08-.36,2.91-1.72,4.29-4.7,4.64-22.8,2.63-39.12,15.05-51.27,33.91-4.81,7.47-10.06,14.67-15.16,21.95-11.73,16.75-27.92,26.15-48.08,28.76-3.81.49-7.59,2.2-11.8.87.82-4.08,5.12-5.3,6.96-9.25-4.11-2-8.17-1.09-11.94.31-11.71,4.36-20.16,12.31-24.59,24.1-2.7,7.17-4.25,14.56-2.07,23.12,5.05-2.76,5.34-7.93,7.82-11.5,2.49-3.56,4.65-7.35,7.45-11.82,5.17,8.23,10.42,15,15.94,21.56,9.82,11.68,22.2,20.35,34.47,29.06,4.46,3.17,5.25,6.36,4.28,11.25-4.12,20.82-8.44,41.63-8.87,62.98-.29,14.45,1.01,28.67,6.58,42.15,2.33,5.65,5.46,10.97,8.49,16.94-2.57,1.18-5,.64-7.3.5-9.91-.63-19.77-.58-29.45,1.95-2.58.68-4.58.74-6.59-1.54-8.48-9.61-19.88-13.26-32.03-15.27-5.49-2.27-11-2.08-16.54-.2-1.86.04-3.73.07-5.59.11-1.76-8.22-3.94-16.31-6.91-24.58-3.4,2.67-4.7,5.7-6.5,8.32-7.52,10.9-16.45,20.32-27.87,27.23-7.63,4.61-9.89,3.78-12.65-4.92-.22-.71-.59-1.38-.72-2.1-2.3-13.09-4.96-26.15-4.98-39.53,0-4.33,0-8.66,0-12.99-11.08,17.85-26.59,29.56-45.32,37.89-1.15-3.38-.49-5.95.12-8.63,2.13-9.36,3.99-18.76,5.5-28.26,1.06-6.65.38-13.34,1.71-19.87,1.49-7.37,1.07-14.82.52-22.17-1.04-13.98-2.78-27.91-4.1-41.88-.94-10.05-2.21-20.08-3.5-30.07-1.93-14.93-3.35-29.87-3.78-44.87-.29-10.09.31-20.19.93-30.31,1.05-17.07,3.37-33.79,7.95-50.23,5.14-18.43,12.68-35.78,23.08-51.92,10.75-16.69,25.05-29.72,41.02-41.18,2.12-1.52,5.02-2.35,5.83-5.36ZM643.55,276.7c-11.72,1.28-20.55,7.84-28.62,15.74-2.73,2.68-5.45,5.78-3.72,9.75,1.94,4.45,6.47,2.91,9.89,2.56,6.16-.63,12.33-1.79,18.47-.83,19.17,2.99,35.76,11.98,52.25,22.61-1.82,1.2-2.97,2.17-4.28,2.8-7.11,3.37-10.58,9.47-12.4,16.67-1.65,6.51-2.41,13.09-.84,19.82.47,1.99,1.48,4.31-.47,6.46-8.55-.59-17.17-1.16-25.82-.24-11.29,1.21-21.59,5.1-30.93,11.45-2.49,1.69-5.49,3.28-5.5,7.25,2.55.78,4.63-.03,6.79-.5,10.15-2.2,20.32-4.33,30.74-4.8,19.65-.88,38.36,2.93,56.16,11.29,3.2,1.5,6.34,3.63,10.3,2.71-.3-3.27-1.93-5.55-3.81-7.43-3.12-3.13-3.26-5.7-.88-9.69,8.25-13.79,8.62-28.02.87-42.3-1.08-2-2.79-3.76-3.21-6.61,5.88,1.38,11.28,1.79,16.72,1.35,5.16-.42,9.62-2.45,12.79-6.61,3.13-4.11,2.33-6.69-2.65-8.04-5.58-1.51-10.55-4.16-15.39-7.18-9.66-6.04-18.71-12.95-27.9-19.65-10.68-7.78-21.87-14.47-35.18-16.66-4.47-2.1-8.93-2.15-13.38.07Z"/>
      <path class="cls-4" d="M940.15,693.71c3.35-4.8,4.61-10.2,4.78-15.98.37-12.57-.15-25.03-3.77-37.21-.7-2.34-2.66-5.64.54-7.23,3.49-1.75,5.32,1.57,6.8,4.03,2.63,4.38,6.64,7.84,8.37,12.8.15,1.02.47,1.93,1.55,2.32l-.04-.09c-.69,4.43,1.35,8.21,2.99,12.04,2.91,6.8,5.87,13.59,8.98,20.31,4.48,9.67,6.2,20.27,10.35,30.05,1.63,3.85,2.83,7.9,4.12,11.88.38,1.16.64,2.58-.34,3.52-1.43,1.36-2.9.14-3.95-.63-3.57-2.62-7.08-5.35-10.41-8.28-3.29-2.9-6.82-5.34-11.21-8.18-.48,6.14.73,11.15,1.57,16.06,2.44,14.32,4.39,28.75,5,43.19.94,21.92.48,43.83-2.36,65.73-2.99,23.07-8.05,45.57-15.29,67.57-8.83,26.84-21.87,51.81-35.49,76.47-1.02,1.84-2.46,3.04-4.32,3.85-.89,1.06-1.75,2.13-1.64,3.63l.07-.08c-.87.17-1.39.68-1.55,1.56l.07-.04c-2.18.65-3.95,1.96-5.64,3.43-21.27,18.48-45.36,32.27-71.26,43.15-24.78,10.4-50.75,16.12-77.31,18.45-13.92,1.22-28.04.97-42.12-.91-22.77-3.04-43.43-11-62.12-24.11-7.51-5.27-13.58-12.26-19.6-19.12-3.7-4.22-2.92-5.82,1.75-8.45,15.11-8.52,29.26-18.44,40.54-31.84,2.4-2.85,4.44-2.78,7.67-2.01,19.68,4.73,38.76,2.17,57.04-6.02,14.07-6.31,26.13-15.28,36.54-26.99,6.75-7.59,13.02-15.37,18.65-23.76,1.36-2.03,2.96-4.01,2.64-6.72,1.52-2.24,2.95-4.55,4.57-6.71,14.31-18.99,22.27-40.42,25.21-63.93,3.52-28.2,1.86-56.12-3.88-83.87,2.52.24,4.77,1.19,6.87,2.54,5.8,3.73,11.56,7.51,17.42,11.14,5.03,3.12,10.27,5.82,15.89,7.8,2.15.76,3.75.71,5.29-1,3.96-4.39,8.51-8.18,12.22-12.86,10.14-12.8,16.12-27.55,20.61-43.02.66-2.26,1.1-4.57,2.27-6.43,3.4.69,5.4,2.68,7.6,4.17,7.02,4.78,14.9,7.62,22.79,10.39,4.43,1.55,5.37,1.17,6.37-3.2,2.08-9.06,4.5-18.08,5.19-27.41ZM863.3,919.7c-2.21-.11-2.62-1.62-3.07-3.45-2.04-8.37-4.1-16.73-7.1-24.83-.49-1.31-.44-3-2.45-3.08-1.27,8.3-.3,26.34,1.81,33.47.41,1.39.46,2.97,1.93,3.84,3.27,4.54,4.14,5.01,9.59,2.37,10.26-4.96,18.35-12.74,24.41-22.16,6.55-10.17,11.73-21.15,14.99-32.93.62-2.23.9-4.75,3.16-6.77,2.26,3.14,4.07,6.06,6.29,8.63,3.47,4.01,6.82,4.27,11.02,1.14,2.83-2.12,4.65-5.05,6.32-8.13,10.03-18.56,11.66-38.6,9.83-59.05-.66-7.31-2.67-14.56-5.42-21.49-.88-2.2-1.47-4.59-5.05-7.36,1.99,15.48,3.09,29.41,1.36,43.31-1.72,13.83-3.39,27.73-11.86,40.21-7.91-8.81-12.3-19.52-21.04-27.45-1.58,11.55-2.38,22.39-5.45,32.86-5.65,19.32-15.33,36.32-29.27,50.86Z"/>
      <path class="cls-4" d="M630.21,671.75c2.4-1.21,3.74-3.98,6.63-4.47,2.34.01,4.39-.45,5.18-3.07,0,0-.03.01-.03.01,2.57.63,4.85-.23,7.12-1.32,14.76-7.08,30.44-9.1,46.68-9.38,20.02-.36,35.54,8.93,47.73,23.02,13.9,16.07,24.19,34.78,32.53,54.46,9.27,21.89,15.75,44.6,20.04,67.93,1.87,10.15,3.61,20.45,3.18,30.8-.28,6.87-1.34,13.72-1.26,20.64-1.38,9.97-6.26,18.61-10.6,27.43-1.3,2.65-3.13,5.03-4.71,7.54-.71.25-1.11.75-1.19,1.5-.31.32-.63.62-.97.89-2.98-2.5-1.77-5.94-1.96-9.03-1.05-16.64-6.9-28.15-26.53-32.1-9.78-1.97-19.1-.6-28.45,1.74-11.87,2.97-22.66,8.65-33.07,14.76-11.85,6.96-24.56,11.55-37.53,15.46-13.83,4.17-27.97,5.46-42.24,1.81-19.29-4.93-33.87-16.82-45.87-31.97-9.65-12.2-15.81-26.45-21.31-40.93-2.5-6.59-4.78-13.27-7.16-19.9.04-1.49.08-2.98.12-4.46,1.65-1.18,1.56-2.98,1.59-4.69.16-7.67,1.88-15.11,3.72-22.48,3.7-14.81,8.55-29.32,14.58-43.3,9.53-22.07,21.58-42.38,40.62-58.11,8.99-7.43,18.66-12.7,29.58-16.05,8.51-2.61,17.14-4.1,25.9-.95-6.9,5.09-13.78,10.21-20.72,15.26-2.15,1.56-4.74,1.07-7.18,1.2-4.22.23-8.31.92-12.14,2.8-.92.45-1.79,1.1-1.88,2.11-.12,1.44,1.08,1.9,2.18,2.55,2.77,1.63,7.12.9,8.06,5.3-.73.44-1.12,1.09-1.16,1.94,0,0,0,0,0,0-4.77,5.02-7.4,10.91-7.29,17.91-.68.14-.81.33-.37.48.03.01.2-.35.31-.54,4.68-1.98,8.44-5.15,11.64-9.04,0,0,.1-.09.1-.09,1.6-.28,2.62-1.2,3.06-2.76,0,0,.03-.02.03-.02.83-.13,1.32-.62,1.51-1.42,0,0,0,0,0,0,.85-.13,1.35-.62,1.52-1.45ZM726.75,689.49c-.06-15.58-19.7-30.54-34.47-26.22-2.68.78-4.93,2.19-6.16,4.92-3.25,7.22-3.27,14.11.96,21.12,3.99,6.62,9.92,10.99,16.4,14.42,11.73,6.22,24.62-1.13,23.27-14.24ZM729.38,709.43c-3.62.23-7.24,4.65-6.8,8.3.51,4.27,5.92,9.08,9.69,8.62,2.99-.36,6.2-4.91,5.91-8.36-.34-4.15-5.12-8.8-8.8-8.56Z"/>
      <path class="cls-2" d="M791.73,906.09c.31,2.71-1.28,4.69-2.64,6.72-5.62,8.39-11.9,16.17-18.65,23.76-10.41,11.71-22.47,20.69-36.54,26.99-18.27,8.19-37.36,10.74-57.04,6.02-3.23-.78-5.28-.84-7.67,2.01-11.27,13.4-25.43,23.32-40.54,31.84-4.67,2.63-5.45,4.24-1.75,8.45,6.02,6.86,12.09,13.85,19.6,19.12,18.69,13.11,39.34,21.07,62.12,24.11,14.09,1.88,28.21,2.13,42.12.91,26.57-2.33,52.53-8.04,77.31-18.45,25.9-10.88,49.99-24.66,71.26-43.15,1.69-1.47,3.46-2.78,5.64-3.43.28,1.96-1.12,3.14-2.11,4.49-8.1,11.02-16.21,22.04-24.31,33.05-1.65,2.29-5.13,3.29-4.86,6.93-4.73,6.47-11.62,10.56-17.77,15.31-18.15,14.02-37.12,26.91-57.93,36.82-28.62,13.62-58.3,23.66-89.77,28.55-13.19,2.05-26.45,2.28-39.63,3.83-7.61.9-15.16-.82-23.51-1.64,2.09-5.35,3.69-10.41,6.04-15.1,1.58-3.14,2.92-6.22,3.33-9.69,3.12-3.58,4.5-7.6,3.37-13.4-3.12,3.68-5.33,6.74-6.82,10.31-10.86,13.46-21.65,27.02-34.62,38.54-16.38,14.55-33.9,27.27-55.93,32.04-16.86,3.65-33.52,2.87-49.31-4.12-12.42-5.5-21.39-15.14-26.25-27.93-4.13-10.88-6.46-22.17-6.42-33.99.05-16.57.29-33.05,4.19-49.3,1.17-4.89,1.07-10.09,1.64-16.14-6.59,3.32-9.12,8.62-11.26,13.98-2.29,5.73-3.94,11.7-6.01,17.52-1.61,4.54-2.5,4.77-6.09,2-15.05-11.57-26.86-26.12-37.96-41.31-.96-1.31-2.16-2.78-1.45-4.7,1.47-1.47,3.27-.85,4.92-.87,3.96-.04,7.92-.06,11.87.1,31.15,1.27,59.35-8.18,85.88-23.64,5.42-3.16,10.88-5.29,17.49-4.67,15.11,1.42,27.95-5.5,40.33-12.71,12.63-7.35,23.74-16.83,33.45-27.81,1.87-2.12,3.89-2.82,6.48-2.72,18.55.76,35.62-4.57,51.86-12.93,4.3-2.21,7.73-1.77,11.76.49,12.31,6.91,25.56,10.94,39.73,9.36,14.64-1.63,28.27-6.71,40.81-14.61,7.58-4.78,14.33-10.47,20.38-17.05,1.48-1.62,2.86-3.47,5.24-3.94Z"/>
      <path class="cls-2" d="M771.11,241.02c-.08.72.03,1.53-.26,2.16-6.25,13.6-4.97,11.18-13.28,3.13-18.65-18.07-40.1-31.54-64.91-39.49-7.02-2.25-14.06-4.42-21.11-6.55-5.2-1.57-10.49-2.58-15.96-2.42-.34-2.13-1.93-2.4-3.71-2.89-9.79-2.66-19.9-3.45-29.87-4.07-15.48-.97-30.95.71-46.19,3.82-5.17,1.06-9.55.51-13.26-3.97-6.48-7.84-15.32-12.03-24.79-15.31-11.64-4.03-23.98-5.49-35.41-10.22-17-7.04-30.18-17.57-34.64-36.51-1.67-7.09-1.86-7.1-8.8-4.36-2.52,1-4.92,2.31-7.37,3.48-2.22,1.07-4.39,2.34-7.02,1.84,2.28-7.47,7.96-11.98,14.18-15.84,3.04-1.88,6.1-4,9.85-4.41-.08,1.97-.17,3.94-.25,5.91-.13,3.38,1.26,4.41,4.56,3.3,4.19-1.4,8.44-2.68,12.74-3.73,8.62-2.11,17.49-2.39,26.26-3.47,15.09-1.85,29.89-.72,44.78,1.38,13.96,1.97,27.32,6.06,40.58,10.63,3,1.03,6.02,2.29,9.35,1.75.53.15,1.05.29,1.58.44.52.34,1.04.68,1.56,1.01,7.12,2.65,11.75,8.73,17.74,12.94,1.37.96,2.18,2.72,4.18,2.78,1.51-.56,1.4-1.91,1.3-3.08-1.13-13.88-4.46-27.19-10.62-39.71-3.82-7.77-6.65-15.91-9.68-23.99-2.92-7.77-3.87-15.71-3.47-23.95.49-10.21,7.57-19.47,17.84-22.91,17.39,1.72,33.78,6.86,49.15,15.01,15.52,8.23,30.05,18.11,42.74,30.25,12.15,11.62,22.35,24.99,30.33,39.89,4.05,7.56,7.79,15.29,11.67,22.94,1.58,5.11,1.86,10.63,4.77,15.34.62,5.5.96,11.07,3.92,16,1.05,10.73,2.24,21.45,3.09,32.2.82,10.33-1.04,20.54-1.94,30.78-.29,3.32-1.93,6.67.37,9.89Z"/>
      <path class="cls-2" d="M1111.07,473.97c-1.43,14.4-12.26,25.15-27.83,28.59-12.27,2.71-23.97,1.12-35.67-2.64-2.48-.8-4.93-2.5-8.33-1.21-.15,3.43,1.99,5.6,4.44,7.59,15.36,12.5,32.51,15.7,51.46,10.1,4.12-1.22,7.62-3.44,11.18-5.67,4.98-3.13,5.11-3.25,9.21,1.16,6.57,7.08,12.72,14.49,15.17,24.2.42,1.65.92,3.32,3.09,4.54,5.22-8.46,1.64-17,.27-25.25,2.16-1.71,4.01-.71,5.88-.21,15.79,4.16,31.68,7.72,48.17,6.48,29.55-2.23,53.06-14.44,67.05-41.67,2.31-4.49,5.36-7.2,10.15-8.91,11.4-4.08,17.56-13.02,20.73-24.31.1-.34-.37-.85-.73-1.6-6.96,2.28-11.16,9.57-19.16,11.05-.43-5.57,1.1-10.53,1.61-15.56.98-9.55-1.13-18.57-4.07-27.48-.27-.81-1.22-1.84-1.99-1.96-1.54-.25-1.88,1.22-2.19,2.41-.37,1.43-.95,2.86-.99,4.31-.45,13.52-4.55,26.21-9,38.76-4.81,13.56-13.4,24.69-24.37,33.81-9.55,7.94-21.03,12.13-33.19,13.38-21.07,2.18-41.23-2.52-60.78-10.02-7.19-2.76-7.41-3.4-4.96-10.28,2.8-7.87,2.98-15.95,2.85-24.11,2.64-.44,4.76,1,7.05,1.89,17.5,6.76,35.32,10.68,54.23,7.13,18.49-3.47,33.55-11.4,41.19-29.77.85-2.05,1.78-4.08,2.79-6.06,5.75-11.38,12.76-21.83,23.89-28.59,10.94-6.64,22.88-6.03,31.28,4.36,2.62,3.24,4.77,6.8,6.15,10.9,7.35,21.89,6.88,44.17,3.46,66.55-2.2,14.39-6.69,28.24-11.01,42.11-.57,1.84-2.69,4.04.05,5.98-1.94,5.42-5.63,9.79-8.92,14.35-13.05,18.1-30.11,30.84-52.19,35.02-30.03,5.69-59.01,2.66-85.37-14.37-2.87-1.85-5.61-2.76-8.96-2.61-17.5.77-34.22-3.5-50.91-7.97-24.51-6.57-44.25-20.79-60.29-39.76-13.72-16.22-22.04-35.08-20.13-57.16.11-1.23.06-2.47.95-3.48,1.12-.18,2.24-.36,3.36-.53,2.94,2.43,7.08,1.81,10.14,4.12,9.78,7.38,20.1,13.63,31.64,18.17,15.59,6.13,31.18,9.28,47.29,3.3,5.47-2.03,12.27-2.71,15.13-9.31.39.12.8.2,1.2.26Z"/>
      <path class="cls-4" d="M1288.14,533.94c-2.74-1.95-.62-4.14-.05-5.98,4.32-13.87,8.81-27.72,11.01-42.11,3.42-22.39,3.89-44.67-3.46-66.55-1.38-4.1-3.53-7.66-6.15-10.9-8.4-10.39-20.34-11-31.28-4.36-11.13,6.76-18.14,17.21-23.89,28.59-1,1.98-1.93,4.01-2.79,6.06-7.64,18.36-22.71,26.3-41.19,29.77-18.91,3.55-36.73-.38-54.23-7.13-2.29-.88-4.41-2.33-7.05-1.89-2.19-6.78-4.17-13.61-7.83-19.83-9.53-16.17-23.53-26.78-40.72-33.81-12.12-4.96-24.86-5.75-37.6-6.97,1.36-9.05,3.91-17.75,6.95-26.39,5.6-15.9,13.46-30.13,27.43-40.29,6.49-4.72,13.11-9.1,21.55-10.38-2.32,14.58,2.67,21.47,16.66,25.07,8.91,2.29,17.14.14,25.28-2.69,5.45-1.89,9.41-6.05,9.82-11.94.4-5.71-3.48-9.45-8.11-12.35-1.72-1.08-4.16-1.39-5.23-4.31,6.68-.27,12.72-.72,18.81.56,12.95,2.71,25.97,4.88,38.58,9.27,11.15,3.88,22.47,7.17,33.45,11.62,24.39,9.86,46.28,23.48,64.13,42.83,10.4,11.28,19.09,23.94,21.24,39.84.14,1.07.62,1.83,1.67,2.17,2.61,9.22,1.92,18.67.8,27.87-3.55,29.38-11.55,57.44-26.94,83.03-.25.42-.58.8-.86,1.2ZM1167.18,349.38c.98-.06,1.98.01,2.92-.21,3.78-.88,6.88-5.14,6.39-8.66-.43-3.16-3.43-5.35-7.55-5.6-3.12-.19-5.71,1.23-8.22,2.73-3.95,2.36-4.25,5.76-.85,8.88,2.04,1.87,4.45,2.96,7.31,2.85Z"/>
      <path class="cls-4" d="M498.16,747.6c-6.27,4.91-13.88,7.42-20.63,11.52-8.33,5.06-15.97,10.79-21.36,19.01-2.31,3.53-5.61,4.58-9.37,5.03-16.55,1.96-31.46,8.09-44.77,18-7.71,5.75-15.03,12-19.82,20.62-1.83.94-3.48,1.95-1.74,4.32.6-.47,1.19-.95,1.79-1.42l-.06.05c1.21-.14,2.6.05,2.95-1.63,0,0-.05.03-.05.03,1.72.39,3.4.14,5.07-.27,6.85-1.67,13.64-3.78,20.58-4.87,10.78-1.69,21.41-5.02,32.54-3.61-.15,8.35-.44,16.71-.42,25.06.04,23.68,5.48,46.24,14.49,68.01,2.53,6.11,5.3,12.11,7.95,18.17-10.98,2.86-21.94,5.62-33.48,4-11.38-1.59-21.7-6.42-33.45-11.74,3.36,6.52,6.62,10.8,10.68,14.48,3.14,2.84,5.87,6.05,7.9,9.74,1.96,3.58.83,5.43-3.29,5.83-.98.09-1.98.12-2.96.04-18.97-1.65-34.26-10.15-46.1-24.94-2.14-2.67-3.9-5.63-7.04-7.08-1.98,1.29-1.96,3.05-1.98,4.79-.03,2.47-.02,4.94-.08,7.42-.02.95.05,2.07-1.02,2.55-1.48.68-2.28-.47-3-1.42-1.04-1.38-2.13-2.76-2.89-4.3-5.24-10.45-9.08-21.39-9.42-33.16-.3-10.55-.81-21.14,1.36-31.79-2.31-.14-3.79.68-5.02,1.91-5.41,5.4-11.28,10.36-15.92,16.52-1.88,2.49-3.51,5.54-7.38,5.42.55-2.13.92-4.34,1.69-6.39,8.04-21.49,17.76-42.16,30.14-61.54,9.55-14.95,20.17-29.11,31.2-42.99,7.04-8.86,13.8-17.9,21.43-26.32,3.95-4.36,8.09-8.61,11.79-13.22,8.95-11.12,17.82-22.31,28.15-32.22,4.09-3.92,7.86-8.08,10.72-13.01,1.09,1.28,2.64,1.65,4.05,1.22,5.73-1.78,11.71-1.47,17.55-2.14,13.71-1.58,28.28,2.08,31.56,19.26.37,1.93.57,3.92.57,5.88.03,10.59.8,21.24-2.83,31.52-.39,1.1-.07,2.44-.08,3.68Z"/>
      <path class="cls-2" d="M596.25,220.67c-.81,3.01-3.71,3.83-5.83,5.36-15.96,11.46-30.26,24.49-41.02,41.18-10.4,16.14-17.94,33.49-23.08,51.92-4.58,16.43-6.9,33.15-7.95,50.23-.62,10.12-1.21,20.22-.93,30.31.43,15.01,1.85,29.95,3.78,44.87,1.29,9.99,2.55,20.02,3.5,30.07,1.31,13.97,3.06,27.9,4.1,41.88.55,7.35.97,14.8-.52,22.17-1.32,6.54-.65,13.23-1.71,19.87-1.51,9.5-3.37,18.9-5.5,28.26-.61,2.68-1.27,5.26-.12,8.63,18.73-8.33,34.24-20.04,45.32-37.89,0,4.33,0,8.66,0,12.99.02,13.38,2.68,26.43,4.98,39.53.13.72.5,1.4.72,2.1,2.76,8.7,5.03,9.53,12.65,4.92,11.42-6.91,20.35-16.33,27.87-27.23,1.8-2.62,3.1-5.64,6.5-8.32,2.97,8.27,5.15,16.36,6.91,24.58-13.67,3.11-26.04,9.1-37.69,16.78-8.72,5.75-16.45,12.57-23.22,20.51-10.29,12.06-20.01,24.49-26.38,39.19-.37.86-.85,1.8-3.02,1.88-7.63-20.44-6.52-42.09-6.62-63.87-3.71-.2-5.03,2.56-6.9,4.19-10.99,9.58-21.81,19.4-35.14,25.75-13.07,6.22-26.55,10.85-41.38,9.51-1.64-.15-3.5.45-5.11-1.54.46-2.51,2.41-4.49,3.93-6.59,18.61-25.72,32.86-53.43,38.16-85.07,1.83-10.93,3.35-21.91,3.58-33.07.45-21.53-.28-43.03-1.88-64.46-1.78-23.92-3.12-47.81-2.59-71.78.48-22.04,2.93-43.94,9.5-64.96,10.44-33.45,28.29-62.51,55.17-85.46,14.26-12.17,30.92-20.21,48.45-26.55.42-.15.97.06,1.46.11Z"/>
      <path class="cls-2" d="M148.98,673.08c-2.95,2.19-6.2,3.7-9.57,5.21-7.36,3.31-14.34,7.49-21.48,11.31-1.43-1.04-1.39-2.4-1.01-3.96,1.76-7.23,5.27-13.73,8.32-20.44,7.78-17.08,18.03-32.19,33.08-43.79,3.78-2.92,7.08-6.46,11.57-10.6-11.36,1.79-20.68,5.66-29.77,9.83-23.63,10.83-42.37,27.99-58.24,48.11-21.67,27.48-38.19,57.89-49.2,91.26-2.21,6.72-3.01,13.97-6.89,20.12-.57-9.18,1.23-18.09,2.99-27.01,3.13-15.87,5.29-31.94,10.17-47.46,4.21-13.39,10.04-26.13,15.37-39.07,2.53-6.14,5.15-12.18,9.52-17.28,2.93-.62,4.38-3.12,6.24-5.02,17.67-17.98,35.12-36.16,57.55-48.53,14.28-7.88,28.62-15.44,44.51-19.71,11.91-3.21,23.93-5.55,36.15-7.21,17.04-2.31,33.9-1.08,50.81,1.12,11.86,1.54,22.9,5.83,33.97,9.92,11.84,4.37,23.23,9.86,33.29,17.58,11.17,8.57,21.73,17.84,31.47,28.07,3.52,3.7,6.58,8.05,11.4,10.37,5.39,6.57,8.48,14.43,11.9,22.02,5.88,13.05,10.54,26.56,13.42,40.66.66,3.23.54,5.39-1.59,8.05-5.9,7.36-12.69,13.8-19.54,20.2-.85-.44-2.22-.68-2.48-1.36-4.68-12.02-12.15-22.54-18.17-33.84-4.76-8.93-10.04-17.65-16.79-25.13-15.08-16.71-31.89-31.42-51.53-42.81-22.47-13.03-46.14-20.14-72.37-17.41-12.73,1.33-24,6.28-33.34,14.51-15.76,13.89-26,31.33-29.77,52.25Z"/>
      <path class="cls-2" d="M1149.88,766.77c-8.2,11.72-14.55,24.7-23.77,35.68-9.22,10.98-19.02,21.45-31.45,29-1.9,1.15-3.89,2.16-5.88,3.15-3.83,1.92-8.52,4.06-11.8,1.11-2.86-2.58.11-6.9,1.24-10.23,2.63-7.7,5.64-15.27,8.44-22.92.75-2.05,1.27-4.19,2.04-6.76-2.81-.71-4.49.84-6.16,2.04-9.82,7.08-19.89,13.7-30.76,19.14-14.17,7.09-28.65,13.22-44.25,16.36-4.73.95-6.48.07-5.9-3.75,1.45-9.53.57-19.15,1.31-28.39,1.81-1.35,3.24-.39,4.63-.3,13.2.82,19.99-5.53,20.52-19.03.4-10.16-.88-20.15-2.81-30.08,10.27,2.69,20.44,2.33,30.38-1.42,7.37-2.78,14.43-6.33,21.04-10.62,7.19-4.66,14.15-9.69,21.21-14.56l-.03-.03c.34,2.39-.96,4.16-2.03,6.14-2.83,5.19-5.87,10.37-7.81,15.91-1.08,3.07-3.81,7.02-.05,10.3,3.54,3.08,7.11.34,10.37-.72,11.74-3.84,21.12-11.55,29.96-19.79,11.08-10.34,18.98-23.21,26.97-35.94,5.52-8.79,9.99-18.07,12.84-28.08,17.27.47,34.52.62,51.41-3.93.94-.25,1.96-.24,2.94-.33,3.1-.29,4.33.41,3.69,4.14-2.81,16.15-7.96,31.55-14.72,46.39-9.32,20.46-19.85,40.29-33.53,58.26-4.33,5.69-9.25,10.9-16.24,14.32-3.47-4.27-3.25-9.32-2.47-13.98.95-5.67.78-11.3.99-16.96,0-4.06,3.02-8.04-.03-13.62-1.68,5.45-5.75,8.33-6.07,13.25-.45.58-.9,1.16-1.35,1.74-1.85.94-2.86,2.4-2.86,4.52Z"/>
      <path class="cls-4" d="M961.69,614.76c-4.09,2.47-8.63,2.01-13.02,1.69-9.62-.69-19.15-2.02-28.32-5.29-2.2-.78-4.42-2.4-7.38-.99.81,4.19,3.2,7.65,4.94,11.37,7.52,16.08,12.13,32.87,12.17,50.74.02,9.21-1.28,10.13-9.92,6.76-13.47-5.25-25.64-12.7-36.74-21.99-3.68-3.08-7.07-6.77-12.2-8.5-1.4,3.88-.68,7.33-.61,10.68.32,14.89-.75,29.64-4.33,44.14-1.84,7.45-4.19,14.75-8.44,21.26-2.91,4.44-3.82,4.76-8.34,2.3-13.08-7.13-25.26-15.58-36.18-25.72-10.51-9.76-20.71-19.76-27.61-32.7-2.76-5.17-6.91-9.61-10.48-14.34-1.17-1.55-2.7-2.85-3.1-5.3,1.78-1.14,3.78-.73,5.63-.82,17.47-.84,30.44-9.11,39.39-23.92,3.42-5.66,3.31-5.65,9.74-3.01,20.75,8.54,52.33-.02,58.72-31.74,3.66-18.18-1.32-34.8-11.38-49.96-5.2-7.83-11.53-14.81-17.66-21.94-5.17-6.02-9.72-12.45-12.66-19.93-1.04-2.65-.77-4.53,1.61-6.39,8.36-6.53,16.58-13.22,24.86-19.85,2.63,1.22,2.74,3.77,3.39,6.14,5.58,20.45,12.59,40.39,21.65,59.57,7.63,16.15,18.55,30.14,29.52,44.07,7.04,8.94,15.25,16.57,24.38,23.44,4.22,3.18,9.28,5.6,12.38,10.22Z"/>
      <path class="cls-1" d="M444.53,129.67c2.63.5,4.8-.77,7.02-1.84,2.45-1.18,4.85-2.49,7.37-3.48,6.94-2.74,7.13-2.73,8.8,4.36,4.46,18.94,17.64,29.47,34.64,36.51,11.43,4.73,23.78,6.19,35.41,10.22,9.47,3.28,18.31,7.47,24.79,15.31,3.71,4.49,8.09,5.03,13.26,3.97,15.24-3.11,30.7-4.79,46.19-3.82,9.98.63,20.09,1.41,29.87,4.07,1.78.49,3.37.76,3.71,2.89-8.9.07-17.8.32-26.7.18-10.74-.18-21.05,2.08-31.17,5.25-11.06,3.46-22.13,6.99-32.46,12.42-12.07,6.34-22.82,14.41-33.32,23.14-13.27,11.03-24.03,23.99-33.47,38.21-5.74,8.64-10.98,17.61-14.35,27.5-2.08,6.12-6.17,8.92-12.56,9.45-6.87.57-13.69,1.32-20.61,1.49-10.22.24-18.38-4.31-25-11.04-4.52-4.6-5.6-11.58-4.88-18.05,2.6-23.29,15.49-40.44,33.22-54.69,17.26-13.88,37.22-21.93,58.23-27.93,2.17-.62,5.56-.38,5.95-3.43.38-3.05-2.72-3.9-4.9-4.8-5.91-2.44-11.85-4.83-18.06-6.48-13.4-3.55-26.42-7.99-38.18-15.63-5.07-3.29-9.12-7.64-12.94-12.11-5.65-6.62-6.1-20.74-1.52-28.58,1.31-.57,1.69-1.64,1.65-2.96v-.1Z"/>
      <path class="cls-4" d="M1168.13,672.99c-2.85,10.02-7.32,19.29-12.84,28.08-7.99,12.73-15.89,25.59-26.97,35.94-8.83,8.24-18.22,15.95-29.96,19.79-3.26,1.07-6.83,3.81-10.37.72-3.76-3.28-1.03-7.22.05-10.3,1.94-5.54,4.98-10.72,7.81-15.91,1.08-1.98,2.37-3.75,2.03-6.14.18-.06.38-.09.52-.2.09-.06.08-.25.12-.38-.2.2-.41.4-.61.6-7.06,4.87-14.01,9.9-21.21,14.56-6.61,4.28-13.66,7.83-21.04,10.62-9.93,3.75-20.1,4.11-30.38,1.42-4.1-14.74-7.97-29.53-13.33-43.89-4.76-12.75-10.2-25.15-16.85-37.03-1.67-2.99-3.69-5.86-4.51-9.29,1.74-.23,3.37.11,5.07.54,11.61,2.93,23.34,3.28,34.95.41,11.1-2.74,21.18-7.56,29.47-15.88,3.34-3.36,5.78-8.12,11.2-9.01,7.73,3.76,14.23,9.49,21.87,13.44,21.59,11.18,44.28,18.6,68.58,20.76,1.74,1.81,3.85,1.37,5.96.97l.43.18Z"/>
      <path class="cls-1" d="M148.98,673.08c3.77-20.92,14.01-38.36,29.77-52.25,9.34-8.23,20.61-13.19,33.34-14.51,26.23-2.73,49.9,4.38,72.37,17.41,19.64,11.39,36.45,26.09,51.53,42.81,6.75,7.48,12.03,16.2,16.79,25.13,6.03,11.29,13.49,21.81,18.17,33.84.26.67,1.63.91,2.48,1.36-7.87,9.41-15.73,18.82-23.6,28.22-.04-2.88-1.36-5.06-3.41-7.06-7.2-7.05-14.02-14.51-21.51-21.24-5.21-4.68-10.51-9.49-17.22-12.16-.29-.59-.58-1.18-.86-1.78-.25-2.3-1.32-4.13-2.92-5.8-17.89-18.71-39-32.12-64.09-38.91-13.31-3.61-26.86-5.85-40.69-5.2-15.98.75-31.72,3.04-46.64,9.3-1.1.46-2.35.58-3.53.86Z"/>
      <path class="cls-2" d="M307.71,714.62c6.71,2.68,12.01,7.49,17.22,12.16,7.49,6.72,14.3,14.19,21.51,21.24,2.04,2,3.36,4.17,3.4,7.06-4.32,5.05-8.33,10.34-11.92,15.94-1.49,2.32-2.96,4.57-5.87,5.25-2.76-2.48-5.24-5.39-8.32-7.34-9.78-6.21-19.64-12.28-30.64-16.29-10.91-3.97-21.98-7.86-33.41-9.15-9.86-1.12-19.87-1.64-30.07-.9-16.33,1.19-31.48,5.39-46.07,12.24-9.42,4.43-15.49,11.9-18.08,22.09-.61,2.39-1.31,4.75-2.04,7.1-2.88,9.26-3.64,18.88-3.66,28.42-.01,6.07,1.38,12.2,1.48,18.36-3.5,3.49-7,6.97-10.5,10.46-2.36-1.48-4.19-3.23-4.68-6.25-2.01-12.44-3.01-24.85.86-37.13,2.65-8.41,5.41-16.79,8.12-25.18.69-.24.81-.47.33-.57-.06-.01-.21.38-.32.58-5.9,2.25-10.87,6.08-14.46,10.99-10.16,13.91-21.13,27.29-28.82,42.89-11.98,24.31-18.6,50.24-23.81,76.67-.88,4.48.13,9.4-2.7,13.48-1.74-10.5-1.33-21.1-1.36-31.68-.05-18.27,2.4-36.27,6.39-54.05,1.05-4.69.85-9.82,3.96-13.94.55-.8,1.26-1.53,1.63-2.41,12.36-29.6,31.34-54.37,54.94-75.87,12.97-11.81,28.02-20.32,44.07-26.64,30.75-12.1,62.33-12.54,94.17-4.12,3.76.99,7.44,2.73,11.51,2.26,0,0,.04.02.04.02,1.44,2.97,4.38,3.46,7.11,4.31Z"/>
      <path class="cls-2" d="M773.05,632.8c-9.03.81-16.35-3.79-23.07-8.54-17.74-12.54-25.61-30.4-26.47-51.88-.77-19.35,2.21-38.26,5.59-57.17.65-3.63,1.2-7.27,1.91-10.89,1.05-5.33,1.84-5.88,6.69-3.65,9.45,4.34,19.28,7.54,29.34,9.98,18.08,4.38,35.65,2.59,52.68-4.94,3.05-1.35,5.94-3.65,9.67-2.56-.55,4.02.4,7.84,1.62,11.62,4.94,15.23,15.34,27.3,23.57,40.62,1.58,6.44,3.66,12.75,4.42,19.4,1.38,12.14-2.28,22.86-8.89,32.8-6.93,2.68-18.9.47-23.52-4.31-1.27-1.31-1.94-2.82-1.9-4.66.06-2.72-.03-5.45.12-8.16.83-15.31-4.86-28.49-13.3-40.75-3.8-5.52-8.48-10.28-13.25-14.96-.94-.92-1.89-2.65-3.51-.76-1.9,2.45-1.07,5.16-.65,7.78,2.17,13.31,4.46,26.59,3.97,40.18-.44,12.22-3.02,23.59-9.66,34.24-4.16,6.68-9.69,11.59-15.36,16.61Z"/>
      <path class="cls-5" d="M735.17,418.33c13.02-11.03,20.76-26.13,30.59-39.62,3.64-5,7.32-9.95,11.9-14.15,9.66-8.85,20.93-14.04,34.14-13.87,30.8.4,58.81,8.85,82.33,29.59,15.59,13.75,24.42,31.34,28.77,51.4.14.66.42,1.47-.98,2.43-6.97-1.95-14.59-3.44-22.34-4.3-23.38-2.59-46.29.64-69.14,5.14-11.86,2.33-23.47,5.81-35.46,7.48-13.66-2.96-27.6-4.84-40.77-9.75-7.69-2.87-14.68-6.94-19.04-14.36ZM799.42,373.16c-7.1.03-11.18,3.24-11.21,7.79-.03,4.24,3.23,6.17,10.05,5.61,4.69-.38,9.33-.88,13.9.83,1.78.66,3.52.13,4.55-1.49,1.11-1.74.27-3.43-.93-4.71-4.78-5.09-10.72-7.73-16.36-8.03Z"/>
      <path class="cls-2" d="M536.44,787.56c2.38,6.64,4.65,13.31,7.16,19.9,5.49,14.48,11.65,28.73,21.31,40.93,12,15.15,26.58,27.04,45.87,31.97,14.27,3.65,28.41,2.36,42.24-1.81,12.97-3.91,25.67-8.5,37.53-15.46,10.41-6.11,21.2-11.78,33.07-14.76,9.35-2.34,18.67-3.71,28.45-1.74,19.63,3.95,25.48,15.46,26.53,32.1.19,3.09-1.02,6.53,1.96,9.03-5.26,8.27-12.96,14.02-20.39,20.11-11.13,9.13-24.3,12.88-38.14,14.69-7.29.95-14.21-1.31-20.76-4.35-3.25-1.51-3.5-3.28-.64-5.56,4.07-3.25,7.85-6.77,11.55-10.4,2.45-2.41,5.52-1.95,8.41-1.77,8.64.52,16.65-1.59,24.24-5.51,4.01-2.08,7.13-4.99,8.3-10.41-5.65,1.14-10.65,2.15-15.64,3.18-.48.1-.94.37-1.42.41-3.41.27-7.62,1.9-9.97-.61-2.55-2.72,1.38-5.74,2.11-8.73,1.07-4.39,4.41-8.19,3.51-14.33-6.12,5.36-12,9.76-16.99,15.02-15.22,16.01-33.66,27.3-53.06,37.29-10.72,5.52-22.32,8.13-34.17,8.66-14.73.66-27.77-4.84-38.26-14.97-15.03-14.52-26.76-31.48-35.3-50.7-7.35-16.54-12.98-33.56-16.49-51.29-.96-4.82-1.6-9.71-2.1-14.6-.22-2.1-.86-4.48,1.1-6.29Z"/>
      <path class="cls-2" d="M312.22,883.87c3.87.13,5.51-2.92,7.39-5.42,4.65-6.16,10.51-11.12,15.92-16.52,1.23-1.23,2.71-2.04,5.02-1.91-2.17,10.65-1.66,21.25-1.36,31.79.34,11.77,4.18,22.71,9.42,33.16.77,1.53,1.85,2.92,2.89,4.3.72.96,1.52,2.1,3,1.42,1.07-.49.99-1.6,1.02-2.55.06-2.47.05-4.94.08-7.42.02-1.74,0-3.5,1.98-4.79,3.14,1.45,4.91,4.42,7.04,7.08,11.84,14.79,27.13,23.29,46.1,24.94.98.09,1.98.06,2.96-.04,4.12-.39,5.25-2.24,3.29-5.83-2.03-3.7-4.76-6.9-7.9-9.74-4.06-3.68-7.32-7.96-10.68-14.48,11.75,5.32,22.07,10.14,33.45,11.74,11.54,1.61,22.51-1.14,33.48-4,6.44,8.41,12.03,17.43,18.71,25.69,6.1,7.55,12.62,14.56,20.8,19.88,1.03.67,2.14,1.28,3.04,2.1,2.61,2.37,2.57,3.91-.68,5.67-5,2.7-10.07,5.36-15.34,7.44-15.5,6.12-31.71,9.91-48.28,10.21-17.14.31-33.71-3.35-49.16-11.6-10.95-5.85-21.19-12.52-30.94-22.03-1.37,6.69,1.12,11.95,1.8,17.28.44,3.45.83,6.87.74,10.32-.13,4.98-2.29,6.34-6.45,3.65-7.52-4.87-14.12-10.8-18.64-18.73-12.51-21.97-16.72-45.73-15.05-70.7.34-5.14,1.42-10.24,2.25-15.35.32-1.96.77-3.87-.66-6.82-7.07,7.01-11.8,15.83-20.76,22.09-.55-4.97-.62-9.2.01-13.48,3.07-1.52,3.28-5.19,5.5-7.34Z"/>
      <path class="cls-1" d="M161.24,830.8c-.1-6.16-1.49-12.3-1.48-18.36.02-9.54.78-19.16,3.66-28.42.73-2.35,1.43-4.72,2.04-7.1,2.59-10.19,8.66-17.66,18.08-22.09,14.58-6.86,29.73-11.05,46.07-12.24,10.19-.74,20.2-.22,30.07.9,11.43,1.29,22.51,5.17,33.41,9.15,10.99,4.01,20.86,10.08,30.64,16.29,3.08,1.96,5.56,4.86,8.32,7.34-.17,1.74-.66,3.35-1.55,4.86-6.43,10.92-12.83,21.86-19.28,32.77-.2.34-.86.41-1.31.6-.76-4.45-4.67-5.36-7.92-6.81-9.9-4.42-20.47-5.97-31.17-6.83-.55-3.49-3.34-4.11-6.06-4.28-26.28-1.59-51.78,1.15-75.08,14.64-8.72,5.05-17.74,9.8-24.61,17.51-1.02,1.14-2.3,1.85-3.83,2.08Z"/>
      <path class="cls-4" d="M538.33,867.52c.18.41.34.83.48,1.25-.82,1.98-.01,3.1,1.9,3.65.3.79.59,1.58.89,2.37-1.24,2.84.39,5.38,1.11,7.88,2.87,9.91.85,18.85-4.16,27.64-2.8,4.92-6.21,8.56-11.26,11.27-5.38,2.88-10.93,2.49-16.58,2.72-10.92.45-19.74-3.52-26.56-12.01-1.06-1.32-1.75-3.08-3.88-3.01-13.71-23.03-18.26-48.41-19.1-74.73-.17-5.41.75-10.75,1.56-16.08,1.87-3.73,2.99-7.89,5.77-11.11,9.93-11.51,22.48-19.19,36.57-24.46,4.83-1.81,5.61-1.17,6.42,3.67,1.01,6.07,1.81,12.18,3.02,18.2,1.95,9.66,4.14,19.27,10.35,27.33,0,0-.06-.1-.06-.1-.04,1.35.21,2.57,1.47,3.35,0,0-.02.53-.02.54.02,1.11.03,2.21.04,3.31.53,2.26.58,4.8,3.29,5.84,0,0,.11.25.11.25-.78,3.09.16,5.55,2.73,7.4.17.45.33.9.47,1.36-1.22,3.17.2,5.56,2.29,7.75,0,.43.1.85.29,1.24.1.86.56,1.33,1.44,1.37.2.49.4.98.6,1.47-.45.9-.06,1.39.8,1.66Z"/>
      <path class="cls-5" d="M515.74,1252.22c3.2,1.05,6.28-.28,9.42-.47,2.21-.13,4.4-.63,6.61-.84,18.92-1.82,29.17,6.04,35.97,25.81,1.03,3,.42,4.71-3.18,4.7-17.54-.05-35.07-.05-52.61,0-2.74,0-4.01-1.24-4.52-3.79-.62-3.14-1.21-6.32-2.22-9.35-1.38-4.15-3.07-8.21-7.09-11.96-1.07,7.19-1.87,13.46-2.97,19.68-.96,5.44-1.11,5.49-6.73,5.48-15.31-.02-30.63-.07-45.94-.18-5.96-.04-6.26-.56-4.74-6.52,2.88-11.33,10.14-18.93,20.35-24.03,1.17.11,2.19-.1,2.8-1.24,0,0,.25-.11.25-.11.53-.17,1.07-.34,1.61-.51.34.06.62-.04.83-.32,3.59-1.14,7.6-1.32,11.62-4.97-11.89-2.89-22.29-3.49-32.23,2.64-.51.06-.95.27-1.31.64-.79-.14-1.21.24-1.39.97,0,0-.14.09-.14.09-.86.01-1.38.47-1.61,1.28-9.07,5.85-13.7,14.58-16.22,24.75-1.84,7.45-1.92,7.44-9.73,7.43-13.35-.02-26.69-.04-40.04-.07-7.85-.02-8.15-.42-5.04-7.85,5.9-14.09,16.33-21.89,31.77-22.72,5.92-.32,11.84-.74,17.75-1.23,23.84-1.99,41.96-13.45,54.65-33.52,4.21-6.66,7.75-13.75,11.59-20.64,8.92,3.66,17.44,8.34,26.97,10.46,3.23.72,2.74,3.53,2.75,5.93-1.1,4.98-2.78,9.82-3.2,14.97-.54,6.49-.11,12.68,4.15,18.03,1.78,2.23,2.26,4.79,1.97,7.55-.24.29-.47.57-.71.86.2.02.45.12.6.04.52-.28.5-.64,0-.97Z"/>
      <path class="cls-5" d="M1315.14,421.85c-1.05-.34-1.53-1.11-1.67-2.17-2.16-15.9-10.85-28.56-21.24-39.84-17.85-19.35-39.74-32.96-64.13-42.83-10.99-4.44-22.31-7.74-33.45-11.62-12.61-4.39-25.63-6.56-38.58-9.27-6.09-1.27-12.13-.83-18.81-.56,1.08,2.92,3.51,3.23,5.23,4.31,4.63,2.89,8.51,6.63,8.11,12.35-.41,5.89-4.37,10.04-9.82,11.94-8.14,2.83-16.37,4.99-25.28,2.69-13.99-3.6-18.98-10.49-16.66-25.07-8.44,1.28-15.05,5.66-21.55,10.38-13.97,10.16-21.82,24.39-27.43,40.29-3.04,8.63-5.59,17.34-6.95,26.39-3.69,1.17-4.4-1.08-4.22-3.91.4-6.16.65-12.35,1.54-18.44,3.05-20.79,11.37-39.12,25.53-54.87,12.98-14.44,29.35-22.11,48.05-25.64,22.47-4.24,44.64-2.74,66.77,2.69,25.01,6.14,48.97,14.74,71,28.27,13.33,8.19,25.74,17.69,35.94,29.52,16.15,18.72,26.37,40.24,27.62,65.39Z"/>
      <path class="cls-5" d="M878.54,1028.54c8.11-11.02,16.21-22.03,24.31-33.05.99-1.35,2.39-2.53,2.11-4.49,0,0-.07.04-.07.04,1.04,0,1.42-.65,1.55-1.56,0,0-.07.08-.07.08,1.52-.77,1.73-2.13,1.64-3.63,1.87-.81,3.31-2.01,4.32-3.85,13.62-24.66,26.65-49.63,35.49-76.47,7.24-22,12.3-44.5,15.29-67.57,2.84-21.91,3.29-43.81,2.36-65.73-.62-14.45-2.56-28.87-5-43.19-.84-4.92-2.05-9.93-1.57-16.06,4.39,2.84,7.92,5.28,11.21,8.18,3.32,2.93,6.84,5.66,10.41,8.28,1.05.77,2.53,2,3.95.63.98-.93.72-2.36.34-3.52-1.3-3.99-2.49-8.03-4.12-11.88-4.15-9.78-5.87-20.38-10.35-30.05-3.11-6.71-6.07-13.5-8.98-20.31-1.64-3.83-3.67-7.61-2.99-12.04,8.57,9.62,14.93,20.72,20.96,31.97,14.55,27.13,24.65,55.8,28.73,86.44.38,2.86,1.11,5.75.13,8.66-2.46.62-3.69-1.23-5.08-2.45-6.85-6.01-13.63-12.11-20.44-18.18-1.08-.96-1.9-2.31-3.57-2.4-.25-.3-.51-.61-.76-.91-.05.21-.2.45-.15.64.18.64.54.69.98.17-1.6,3.65-.23,7.32.37,10.81,6.13,35.4,3.8,70.31-5.59,104.87-11.06,40.71-29.3,77.97-54.15,111.97-9.91,13.56-21.25,26-32.34,38.6-1.94,2.2-4.38,3.96-6.58,5.91-.78.02-1.56.05-2.34.08Z"/>
      <path class="cls-2" d="M749.92,1129.79c24.4-9.03,47.84-17.75,69.86-29.96,22.05-12.23,41.84-27.65,63.31-43.27,1.57,7.97,1.45,14.58.67,20.97-.88,7.3-2.06,14.59-3.58,21.83-2.91,13.84-8.77,26.17-17.74,36.95-7.38,8.88-17.62,13.35-28.38,16.53-24.97,7.37-47.72.83-69.35-11.71-4.89-2.83-9.59-6.05-14.8-11.34Z"/>
      <path class="cls-2" d="M270.81,800.86c10.7.86,21.27,2.41,31.17,6.83,3.25,1.45,7.16,2.36,7.92,6.81-2.02,4.48-2.88,9.5-6.22,13.36-6.92,0-14.02-1.01-20.72.19-28.78,5.13-51.75,19.73-67.99,44.25-8.43,12.74-12.86,27.03-15.42,42.01-2.05,12.03-2.25,24.18-1.01,36.15,1.29,12.41,3.36,24.82,6.59,36.95.53,2,.59,3.93-1.28,5.38-4.43-4.37-7.22-9.79-9.54-15.42-3.28-7.96-7.12-15.66-10.06-23.8-5.97-16.52-8.48-33.57-6.79-50.83,2.43-24.89,9.73-48.54,26.45-67.69,10.39-11.9,24.02-20.29,38.7-26.56,2.49-1.06,4.98-2.1,7.47-3.15.49.83.95.87,1.36-.07.48-.08.97-.15,1.46-.2,1.29.28,2.37.02,3.08-1.21.95-.1,1.91-.19,2.86-.28,1.29.3,2.37.04,3.11-1.15.47-.04.95-.08,1.42-.12,2.54-.14,5.35,1.06,7.44-1.43h0Z"/>
      <path class="cls-5" d="M860.17,1189.91c3.7,5.06,4.96,11.26,7.82,16.73,2.86,5.48,5.17,11.3,8.48,16.48,12.94,20.2,31.05,30.45,55.56,28.3,10.9-.95,21.4-3.75,32.07-5.83,12.94-2.52,25.58-2.02,37.12,5.66,8.45,5.63,13.42,13.63,16.5,23.03.18.56-.33,1.35-.52,2.03-2.71-.09-5.43-.24-8.15-.24-48.98,0-97.96.03-146.94,0-2.66,0-5.41.6-8.19-.68.14-.96.09-2,.44-2.87,4.35-10.99,3.78-22.19,1.61-33.48-2.01-10.41-4.72-20.64-8.01-30.73-1.91-5.85-1.69-6.52,3.22-9.82,3.52-2.36,6.89-4.79,9-8.58Z"/>
      <path class="cls-1" d="M203.86,992.79c1.87-1.45,1.81-3.38,1.28-5.38-3.23-12.13-5.3-24.54-6.59-36.95-1.24-11.97-1.04-24.12,1.01-36.15,2.56-14.99,6.98-29.28,15.42-42.01,16.24-24.52,39.21-39.11,67.99-44.25,6.71-1.2,13.8-.18,20.72-.19-4.74,11.87-9.5,23.74-12.97,36.05-.91,3.22-2.51,4.83-5.73,5.87-7.93,2.56-16.03,4.86-22.99,9.79-24.89,17.64-39.88,41.7-45.95,71.4-1.76,8.63-3.3,17.38-4,26.15-.68,8.54-.15,17.18-.15,27.28-4.67-3.84-6.79-7.41-8.05-11.6Z"/>
      <path class="cls-1" d="M25.81,780.15c3.88-6.15,4.68-13.4,6.89-20.12,11-33.37,27.53-63.78,49.2-91.26,15.87-20.12,34.6-37.28,58.24-48.11,9.09-4.17,18.4-8.04,29.77-9.83-4.48,4.14-7.79,7.68-11.57,10.6-15.04,11.6-25.3,26.71-33.08,43.79-3.05,6.71-6.57,13.2-8.32,20.44-.38,1.56-.42,2.92,1.01,3.96-42.4,27.53-70.72,66.84-93,111.42.11-7.1-2.14-14.1.87-20.88Z"/>
      <path class="cls-4" d="M1166.23,653.92c-20.96-3.37-41.78-7.35-60.66-17.7-6.65-3.64-13.71-6.72-19.35-12.02.15-.18.47-.49.43-.53-.25-.32-.56-.59-.85-.88,0,0,.22.1.22.1-.61-1.33-1.67-1.78-3.08-1.56,0,0,.01.07.02.07.36-1.5.12-2.92-.61-4.25-7.19-13.12-2.96-25.99.82-38.87,1.03-.18,2.05-.35,3.08-.53.92.12,1.83.23,2.75.35,3.71,2.95,8.06,1.37,12.09,1.52,4.11.15,7.36,1.05,10.64,3.89,8.78,7.57,18.61,13.63,29.46,17.87,12.59,4.92,25.33,9.34,38.84,11.14,5.56.74,6.66,2.52,6.99,8.43.36,6.51-.31,12.98-3.14,18.72-3.57,7.24-6.47,16.11-17.64,14.25Z"/>
      <path class="cls-2" d="M1166.23,653.92c11.18,1.86,14.07-7.01,17.64-14.25,2.83-5.74,3.5-12.22,3.14-18.72-.33-5.92-1.42-7.69-6.99-8.43-13.51-1.8-26.25-6.21-38.84-11.14-10.85-4.24-20.68-10.31-29.46-17.87-3.29-2.83-6.53-3.74-10.64-3.89-4.03-.15-8.39,1.44-12.09-1.52,6.07,0,12.14.09,18.21,0,5.9-.08,11.83.53,17.67-1.08,3.64-1,6.6.94,9.62,2.81,16.16,10.01,33.87,16.58,52.56,18.71,16.59,1.89,33.49,1.44,49.97-3.05,6.83-1.86,13.44-4.42,20.58-6.59,1.36,6.07.87,11.74.55,17.3-.45,7.85-1.85,15.56-4.43,23.11-2.38,6.94-7.2,11.28-13.42,13.93-12.96,5.52-26.47,9.1-40.53,10.97-8.88,1.18-17.71.97-26.57,1.22-2.38.07-5.01.65-6.96-1.51Z"/>
      <path class="cls-4" d="M369.25,635.92c-4.83-2.32-7.88-6.67-11.4-10.37-9.73-10.23-20.3-19.51-31.47-28.07-10.06-7.72-21.45-13.21-33.29-17.58-11.07-4.09-22.11-8.38-33.97-9.92-16.91-2.2-33.78-3.43-50.81-1.12-12.22,1.66-24.24,4.01-36.15,7.21-15.89,4.28-30.23,11.84-44.51,19.71-22.44,12.38-39.89,30.55-57.55,48.53-1.87,1.9-3.32,4.4-6.24,5.02,9.57-18.64,22.49-34.67,37.29-49.47,18.52-18.51,39.96-32.11,64.49-41.01,24.79-9,50.28-12.04,76.52-9.3,15.6,1.63,30.65,5.38,45.08,11.34,26.84,11.09,49.19,28.21,66.68,51.45,5.64,7.49,11.2,15.08,15.34,23.57Z"/>
      <path class="cls-4" d="M692.39,450.45c10.57,3.3,21.05,6.7,31.94,8.96,25.93,5.37,51.64,3.68,77.17-2.13,19.74-4.49,39.41-9.25,59.54-11.84,3.43-.44,6.82-.85,10.19-.72.87,2.05-.66,2.9-1.6,3.91-13.31,14.42-27.91,27.22-44.93,37.21-21.6,12.69-43.84,15.45-67.45,6.18-23.47-9.21-45.36-20.79-62.91-39.39-.67-.71-1.31-1.46-1.96-2.19Z"/>
      <path class="cls-2" d="M480.28,909.27c2.13-.07,2.82,1.69,3.88,3.01,6.82,8.5,15.64,12.47,26.56,12.01,5.65-.23,11.2.16,16.58-2.72,5.05-2.7,8.46-6.35,11.26-11.27,5.01-8.79,7.03-17.72,4.16-27.64-.73-2.51-2.35-5.04-1.11-7.88,2.54.69,3.05,3.08,4.02,4.99,11,21.72,26.11,39.85,46.42,53.51,5.32,3.57,5.52,5.6.67,9.61-9.48,7.85-19.17,15.37-30.13,21.24-13.35,7.15-26.2,6.38-38.48-1.71-19.38-12.75-34.02-29.78-43.64-50.98-.28-.63-.14-1.45-.19-2.18Z"/>
      <path class="cls-1" d="M85.25,916.73c2.84-4.08,1.82-9.01,2.7-13.48,5.21-26.43,11.82-52.35,23.81-76.67,7.69-15.6,18.66-28.98,28.82-42.89,3.59-4.92,8.57-8.74,14.46-10.99h0c-2.71,8.39-5.46,16.76-8.12,25.17-3.88,12.29-2.87,24.69-.86,37.13.49,3.01,2.31,4.77,4.68,6.25-5.28,6.39-10.92,12.52-15.79,19.21-17.94,24.63-32.97,50.79-40.84,80.55-.73,2.77-1.68,5.49-4.79,8.4-2.3-11.43-4.63-21.84-4.06-32.69Z"/>
      <path class="cls-5" d="M798.01,850.37c-.08-6.92.98-13.77,1.26-20.64.43-10.35-1.31-20.65-3.18-30.8-4.29-23.32-10.77-46.04-20.04-67.93-8.34-19.68-18.63-38.39-32.53-54.46-12.19-14.09-27.71-23.37-47.73-23.02-16.24.29-31.91,2.3-46.68,9.38-2.27,1.09-4.55,1.95-7.12,1.32,7.31-6.75,16.12-11.1,25.04-15.09,12.42-5.57,25.25-10.06,39.11-10.09,21.93-.05,39.47,9.15,53.52,25.67,15.15,17.82,24.74,38.57,31.49,60.67,9.22,30.16,14.22,60.98,12.83,92.65-.49,11.06-2.19,21.88-5.97,32.33Z"/>
      <path class="cls-2" d="M940.15,693.71c-.69,9.33-3.11,18.35-5.19,27.41-1,4.37-1.94,4.75-6.37,3.2-7.9-2.77-15.77-5.61-22.79-10.39-2.19-1.49-4.2-3.48-7.6-4.17-1.17,1.86-1.61,4.17-2.27,6.43-4.49,15.47-10.47,30.22-20.61,43.02-3.7,4.67-8.26,8.47-12.22,12.86-1.54,1.71-3.14,1.76-5.29,1-5.62-1.99-10.86-4.69-15.89-7.8-5.86-3.63-11.62-7.42-17.42-11.14-2.11-1.35-4.36-2.3-6.87-2.54-1.88-10.56-4.66-20.92-8.37-32.2,6.23,2.55,9.95,6.17,13.98,9.31,8.04,6.26,16.91,11.11,26.06,15.52,7.68,3.71,11.89,2.77,16.96-4.26,5.08-7.06,8.93-14.77,11.79-22.98,3.84-11.03,6.56-22.24,6.16-34.05-.06-1.62-.63-3.67,1.24-4.71,1.93-1.08,3.2.56,4.52,1.58,8.72,6.79,18.61,11.11,29.13,14.21,7.09,2.09,14.07,2.29,21.06-.29Z"/>
      <path class="cls-4" d="M860.17,1189.91c-2.11,3.79-5.48,6.21-9,8.58-4.91,3.3-5.13,3.96-3.22,9.82,3.29,10.09,6,20.31,8.01,30.73,2.18,11.29,2.75,22.5-1.61,33.48-.35.88-.3,1.91-.44,2.87,2.78,1.29,5.53.68,8.19.68,48.98.03,97.96,0,146.94,0,2.72,0,5.43.15,8.15.24-1.88,1.83-4.24,1-6.36,1-73.23,0-146.46-.06-219.69-.16-2.37,0-5.53,1.08-6.93-1.28-1.56-2.63.89-5.14,2.21-7.35,6.44-10.73,16.65-14.89,28.55-16.05,4.18-.41,8.35-.95,12.48-1.67,10.88-1.89,14.71-6.92,13.95-18.02-.34-5.01-1.95-9.68-3.74-14.29-5.17-13.34-10.37-26.67-15.67-40.27,2.36-1.93,4.96-1.22,7.25-1.64,6.34-1.14,12.58-2.7,18.58-5.02,3.16-1.22,5.22-.91,6.36,2.48,1.8,5.36,4.96,10.21,5.98,15.87Z"/>
      <path class="cls-4" d="M760.91,136.81c-3.88-7.65-7.62-15.38-11.67-22.94-7.98-14.9-18.18-28.27-30.33-39.89-12.68-12.13-27.22-22.02-42.74-30.25-15.37-8.15-31.76-13.29-49.15-15.01,9.13-5,19.01-4.82,28.88-3.83,30.22,3.02,55.45,16.59,77.8,36.58,18.65,16.68,32.17,36.72,41.23,59.9,1.15,2.94,2.92,5.8,2.31,9.21-3.24.93-6.35,2.42-9.86,2.19-3.09-.2-4.85,1.83-6.46,4.03Z"/>
      <path class="cls-4" d="M300.56,710.28c-4.07.48-7.74-1.26-11.51-2.26-31.84-8.42-63.43-7.98-94.17,4.12-16.04,6.31-31.1,14.83-44.07,26.64-23.6,21.5-42.58,46.26-54.94,75.87-.37.88-1.08,1.61-1.63,2.41,4.41-18.09,11.42-35.1,20.68-51.26,22.1-38.53,54.17-63.98,97.35-75.25,12.21-3.19,24.31-3.4,36.61-.93,18.51,3.72,36.16,9.5,51.68,20.65Z"/>
      <path class="cls-2" d="M498.16,747.6c.01-1.23-.3-2.58.08-3.68,3.63-10.28,2.86-20.93,2.83-31.52,0-1.96-.2-3.95-.57-5.88-3.28-17.18-17.85-20.84-31.56-19.26-5.84.67-11.82.36-17.55,2.14-1.4.44-2.96.06-4.04-1.22,1.06-1.51,2.11-3.01,3.16-4.51,2.06-5.25,7.38-5.71,11.56-6.96,16.93-5.05,32.68-12.49,47.6-21.83,1.25-.78,2.44-1.7,4.43-1.47,2.49,7.35,2.56,15.32,4.35,22.95,1.99,8.47,4.41,16.71,8.44,24.38,1.75,3.34,2.05,6.36.93,9.84-2.71,8.44-5.67,16.81-6.56,25.74-.31,3.15-1.99,5.3-5.43,6.09-5.98,1.38-11.43,4.63-17.67,5.19Z"/>
      <path class="cls-5" d="M961.69,614.76c-3.1-4.62-8.16-7.04-12.38-10.22-9.13-6.87-17.34-14.5-24.38-23.44-10.97-13.93-21.89-27.91-29.52-44.07-9.06-19.18-16.06-39.12-21.65-59.57-.65-2.37-.76-4.92-3.39-6.14,3.07-3.43,6.15-6.87,9.88-11.03,2.52,8.04,4.84,14.97,6.86,21.98,13.22,45.78,38.33,84.18,72.34,117.11,4.08,3.95,8.14,7.93,12.11,12,1.56,1.6.77,2.54-1.2,2.79-.66-.27-1.21-.11-1.67.43-2.31.73-4.64.99-6.99.16Z"/>
      <path class="cls-5" d="M450.51,683.68c-1.05,1.5-2.11,3.01-3.16,4.51-2.86,4.93-6.63,9.09-10.72,13.01-10.33,9.91-19.2,21.1-28.15,32.22-3.71,4.61-7.84,8.86-11.79,13.22-7.63,8.41-14.39,17.46-21.43,26.32-11.03,13.88-21.65,28.04-31.2,42.99-12.38,19.38-22.1,40.04-30.14,61.54-.77,2.05-1.14,4.26-1.69,6.39-2.23,2.15-2.43,5.82-5.5,7.34-.28-8.51,2.62-16.43,4.98-24.36,10.84-36.46,29.83-68.63,53.08-98.38,22.1-28.28,46.99-53.94,74.54-76.97,3.49-2.92,6.36-6.81,11.21-7.82Z"/>
      <path class="cls-5" d="M652.55,637.52c-8.76-3.15-17.39-1.66-25.9.95-10.92,3.34-20.59,8.61-29.58,16.05-19.03,15.73-31.09,36.04-40.62,58.11-6.04,13.99-10.88,28.49-14.58,43.3-1.84,7.36-3.57,14.8-3.72,22.48-.04,1.71.05,3.51-1.59,4.69-1.47-5.9-.3-11.83-.23-17.75.04-.53.07-1.06.11-1.59,2.71-32.19,10.8-62.68,29.04-89.8,10.97-16.3,23.59-31.05,41.33-40.52,11.5-6.14,23.49-10.24,36.77-9.38,7.36.47,13.81,3.01,19.4,7.99-2.8,3.65-7.08,3.66-10.44,5.48Z"/>
      <path class="cls-4" d="M606.58,125.21c-3.32.54-6.35-.72-9.35-1.75-13.26-4.57-26.62-8.66-40.58-10.63-14.89-2.11-29.69-3.24-44.78-1.38-8.76,1.08-17.63,1.35-26.26,3.47-4.29,1.05-8.55,2.32-12.74,3.73-3.3,1.1-4.69.07-4.56-3.3.08-1.97.16-3.94.25-5.91,10.7-6.77,22.73-9.28,35.04-10.44,19.33-1.82,38.65-.66,57.31,4.56,13.97,3.9,27.65,9.19,40.13,16.93,2.08,1.29,4.4,2.34,5.54,4.74Z"/>
      <path class="cls-5" d="M1111.07,473.97c-.41-.06-.81-.15-1.2-.26.16-10.43-4.94-18.31-12.31-24.99-6.31-5.72-13.84-9.41-21.74-12.37-15.66-5.87-31.62-7.7-47.76-2.46-11.53,3.74-19.09,11.74-22.39,23.54-1.12.18-2.24.36-3.36.53.67-7.51,3.27-14.46,6.68-21.04,5.94-11.44,16.14-17.21,28.43-18.99,20.82-3.02,39.74,2.21,56.24,15.22,13.11,10.34,19.77,23.73,17.42,40.82Z"/>
      <path class="cls-5" d="M1071.29,637.65c-5.41.88-7.85,5.65-11.2,9.01-8.28,8.32-18.37,13.14-29.47,15.88-11.61,2.87-23.35,2.52-34.95-.41-1.7-.43-3.33-.77-5.07-.54-5.04-7.57-10.08-15.15-15.52-23.33,3.34-.23,5.52,1.29,7.74,2.29,11.89,5.39,24.3,7.9,37.36,7.46,14.08-.48,26.54-5.37,37.4-14.07,5.51-4.41,4.79-4.57,10.2,0,1.3,1.1,2.84,2,3.52,3.71Z"/>
      <path class="cls-4" d="M735.17,418.33c4.36,7.42,11.34,11.49,19.04,14.36,13.17,4.91,27.11,6.79,40.77,9.75-21.22,5.4-42.67,7.36-64.38,3.79-9.97-1.64-19.6-4.76-29.07-8.25-1.77-.65-3.87-1.07-4.91-3.58,14.02-2.65,26.79-8.21,38.56-16.07Z"/>
      <path class="cls-5" d="M524.88,832.1c-6.21-8.06-8.4-17.67-10.35-27.33-1.21-6.03-2.01-12.14-3.02-18.2-.81-4.84-1.59-5.48-6.42-3.67-14.09,5.27-26.64,12.96-36.57,24.46-2.78,3.22-3.9,7.38-5.77,11.11.86-16.79,6.02-31.36,21.02-40.89,10.01-6.36,20.34-12.11,31.54-16.15,3.61-1.3,4.59-.67,4.29,3.12-1.72,21.61,1.04,42.83,5.35,63.93.25,1.2.5,2.42-.06,3.62Z"/>
      <path class="cls-5" d="M760.91,136.81c1.61-2.21,3.36-4.24,6.46-4.03,3.51.23,6.62-1.26,9.86-2.19,2.3,4.51,1.99,9.64,3.38,14.36.24,4.53,1.41,9.01-.27,13.61-.62,1.69-.11,3.9.24,5.81,1.69,9.22,1.4,18.36.03,27.64-.91,6.17-1.28,12.59.51,18.81-1.36,10.72-5.29,20.6-10,30.21-2.29-3.22-.66-6.57-.37-9.89.9-10.25,2.76-20.45,1.94-30.78-.85-10.75-2.05-21.47-3.09-32.19,4.22-2.32,5.48-5.15,4.42-9.93-.98-4.4-2.69-5.65-8.35-6.08-2.9-4.7-3.18-10.22-4.77-15.34Z"/>
      <path class="cls-4" d="M773.05,632.8c5.67-5.02,11.2-9.93,15.36-16.61,6.64-10.65,9.22-22.02,9.66-34.24.49-13.58-1.8-26.87-3.97-40.18-.43-2.62-1.25-5.33.65-7.78,6.65,14.35,12.06,29.1,14.39,44.82,1.84,12.41,1.38,24.45-4.78,35.91-6.78,12.63-17.29,18.25-31.31,18.07Z"/>
      <path class="cls-4" d="M512.95,1211.76c-.01-2.4.48-5.21-2.75-5.93-9.53-2.12-18.05-6.8-26.97-10.46,2.54-6.65,5.09-13.28,7.6-19.93,1.09-2.89,2.77-3.75,5.67-2.18,8.04,4.37,16.57,7.48,25.51,9.43,2.67.59,3.23,1.97,1.97,4.2-4.47,7.93-6.9,16.77-11.03,24.86Z"/>
      <path class="cls-5" d="M1017.88,1243.48c17.59,3.14,31.07,11.21,37.71,28.43,1.61,4.18,1.24,4.75-3.16,4.94-4.69.2-9.4.08-14.1.16-2.49.04-4.17-.59-4.71-3.46-2.07-11.04-7.39-20.34-15.43-28.14-.27-.27-.17-.93-.31-1.94Z"/>
      <path class="cls-5" d="M1083.17,578.27c-3.77,12.88-8.01,25.75-.82,38.87.73,1.32.97,2.75.61,4.25-6.61-3.09-11.59-8.13-16.15-13.62-2.09-2.51-3.04-5.49-3.14-8.85-.26-7.98,1.66-15.63,3.16-23.35.46-2.39,1.67-3.25,4.22-2.36,3.94,1.38,7.99,2.43,12,3.62.06.48.1.96.13,1.44Z"/>
      <path class="cls-5" d="M850.11,607.59c6.61-9.95,10.27-20.66,8.89-32.8-.75-6.65-2.83-12.96-4.42-19.39,1.98-2.87,5.19-3.48,8.22-4.41,6.82,9.75,9.2,20.68,7.94,32.32-1.36,12.59-8.37,20.76-20.63,24.29Z"/>
      <path class="cls-5" d="M844,339.29c.53-6.07-1.48-11.81-3.32-17.31-3.49-10.42-6.31-21.25-13.17-30.24,7.43-9.84,8.62-9.81,13.13,1.18,5.62,13.7,11.52,27.33,14.39,41.99.47,2.4,1.4,4.74.42,7.82-4.05-.22-7.99-.88-11.45-3.45Z"/>
      <path class="cls-5" d="M443.3,814.37c-11.13-1.41-21.76,1.92-32.54,3.61-6.94,1.09-13.73,3.21-20.58,4.87-1.68.41-3.36.66-5.07.27.82-1.84,2.29-3.27,3.91-4.14,16.69-8.99,33.72-17.07,53-18.77,4.24-.37,4.98.14,3.88,4.3-.87,3.28-.61,6.88-2.59,9.86Z"/>
      <path class="cls-5" d="M813.09,268.08c-1.99-.04-2.82-1.58-4.01-2.84-5.59-5.87-11.31-11.61-16.99-17.39-1.21-1.23-2.42-2.5-4.4-2.22,0-.49-.11-1.01,0-1.47,3.03-12.08,2.99-12.01,12.81-4.44,5.89,4.54,11.18,9.7,16.29,15.06,4.16,4.36,4.1,4.44.27,8.95-1.27,1.49-2.65,2.9-3.98,4.35Z"/>
      <path class="cls-4" d="M862.8,550.98c-3.03.93-6.24,1.53-8.22,4.41-8.22-13.33-18.62-25.4-23.57-40.63-1.23-3.77-2.18-7.59-1.62-11.62,7.45,12.61,14.93,25.19,24.98,36.02,3.29,3.55,6.73,7.09,8.43,11.82Z"/>
      <path class="cls-4" d="M781.11,210.81c-1.79-6.22-1.42-12.63-.51-18.81,1.37-9.28,1.66-18.42-.03-27.64-.35-1.91-.86-4.12-.24-5.81,1.68-4.59.51-9.08.27-13.61,3.6,2.91,2.45,7.27,3.08,10.94,3.15,18.45,1.98,36.78-2.57,54.92Z"/>
      <path class="cls-1" d="M442.95,1246.24c9.94-6.13,20.35-5.53,32.23-2.64-4.02,3.65-8.03,3.83-11.62,4.97-2.42-5.53-7.28-3.93-11.33-3.4-3.09.4-6.1,1.4-9.29,1.07Z"/>
      <path class="cls-1" d="M612.41,686.61c-.11-7.01,2.52-12.89,7.29-17.91.72,3.41-2.06,5.89-2.48,9.32,2.4,1.59,4.53-1.02,6.77-.51-3.2,3.89-6.96,7.06-11.64,9.04l.06.06Z"/>
      <path class="cls-1" d="M1154.09,760.51c.32-4.92,4.39-7.8,6.07-13.25,3.05,5.59.03,9.57.03,13.62-2.03-.12-4.07-.25-6.1-.37Z"/>
      <path class="cls-1" d="M650.99,1090.48c1.49-3.57,3.7-6.63,6.82-10.31,1.13,5.79-.25,9.81-3.37,13.4-.92-1.28-1.84-2.57-3.45-3.08Z"/>
      <path class="cls-2" d="M631.53,606c5.54-1.88,11.05-2.07,16.54.2-5.52.31-11.03.47-16.54-.2Z"/>
      <path class="cls-4" d="M878.54,1028.54c.78-.03,1.56-.06,2.34-.08-1.93,2.83-4.55,4.94-7.2,7.01-.27-3.64,3.21-4.64,4.86-6.93Z"/>
      <path class="cls-2" d="M535.21,861.78c-2.09-2.19-3.51-4.58-2.29-7.75,1.54,2.35,4.5,4.29,2.29,7.75Z"/>
      <path class="cls-4" d="M307.71,714.62c-2.73-.85-5.67-1.34-7.11-4.31,2.39.07,4.12,1.78,6.24,2.53.29.6.58,1.19.87,1.78Z"/>
      <path class="cls-2" d="M532.44,852.67c-2.57-1.85-3.51-4.31-2.73-7.4,2.42,1.91,2.73,4.6,2.73,7.4Z"/>
      <path class="cls-2" d="M529.6,845.02c-2.71-1.04-2.76-3.57-3.29-5.83.51.1,1.01.2,1.52.3,2.04,1.38,1.59,3.56,1.77,5.54Z"/>
      <path class="cls-1" d="M270.82,800.87c-2.09,2.49-4.89,1.29-7.44,1.43,2.13-2.27,4.91-1.2,7.44-1.43Z"/>
      <path class="cls-1" d="M1149.88,766.77c0-2.11,1.01-3.58,2.86-4.52.12,2.19.07,4.26-2.86,4.52Z"/>
      <path class="cls-2" d="M540.72,872.42c-1.92-.55-2.72-1.67-1.9-3.65,1.58.73,2.43,1.83,1.9,3.65Z"/>
      <path class="cls-1" d="M380.48,826.1c-1.74-2.37-.09-3.38,1.74-4.32.05.57.1,1.13.14,1.7.12.44.07.85-.15,1.25,0,0,.06-.05.06-.05-.6.47-1.19.95-1.79,1.42Z"/>
      <path class="cls-5" d="M642.02,664.22c-.78,2.61-2.84,3.08-5.18,3.07,1.42-1.54,2.79-3.16,5.18-3.07Z"/>
      <path class="cls-2" d="M1167.7,672.81c-2.1.4-4.22.85-5.96-.97,2.09-.3,4.22-.88,5.96.97Z"/>
      <path class="cls-1" d="M627.15,674.66c-.44,1.56-1.46,2.48-3.06,2.76.2-1.82,1.24-2.73,3.06-2.76Z"/>
      <path class="cls-5" d="M382.21,824.72c.22-.4.27-.81.15-1.25.93-.13,1.86-.26,2.8-.38-.35,1.69-1.74,1.5-2.95,1.63Z"/>
      <path class="cls-5" d="M1082.94,621.32c1.4-.22,2.46.22,3.08,1.56-1.68.77-2.52-.12-3.08-1.56Z"/>
      <path class="cls-5" d="M526.28,835.34c-1.26-.78-1.5-2-1.47-3.35,1.92.49,1.43,2.03,1.47,3.35Z"/>
      <path class="cls-2" d="M1083.17,578.27c-.03-.48-.07-.96-.13-1.44,1.24-.28,2.35-.13,3.2.92-1.02.17-2.05.35-3.08.52Z"/>
      <path class="cls-2" d="M444.53,129.76c.04,1.32-.34,2.39-1.65,2.96.22-1.17.22-2.46,1.65-2.96Z"/>
      <path class="cls-5" d="M527.83,839.48c-.51-.1-1.02-.19-1.52-.3-.01-1.1-.03-2.2-.04-3.31,1.21.9,1.28,2.3,1.57,3.61Z"/>
      <path class="cls-1" d="M261.96,802.43c-.74,1.19-1.82,1.45-3.11,1.15.8-1.04,1.9-1.25,3.11-1.15Z"/>
      <path class="cls-1" d="M460.87,1249.52c-.61,1.14-1.63,1.35-2.8,1.24.59-1.19,1.57-1.51,2.8-1.24Z"/>
      <path class="cls-1" d="M255.99,803.86c-.7,1.22-1.78,1.49-3.08,1.21.78-1.04,1.87-1.26,3.08-1.21Z"/>
      <path class="cls-2" d="M536.93,864.39c-.87-.04-1.34-.51-1.44-1.37.74.18,1.28.58,1.44,1.37Z"/>
      <path class="cls-4" d="M968.68,614.6c.46-.54,1.01-.7,1.67-.43-.43.65-.99.78-1.67.43Z"/>
      <path class="cls-2" d="M781.5,886.84c.08-.75.47-1.25,1.19-1.5.11.9-.32,1.37-1.19,1.5Z"/>
      <path class="cls-2" d="M601.79,218.71c-.28.83-.76,1.24-1.65.75.55-.25,1.1-.5,1.65-.75Z"/>
      <path class="cls-1" d="M251.45,805.27c-.41.94-.86.89-1.36.07.45-.07.9-.1,1.36-.07Z"/>
      <path class="cls-4" d="M609.72,126.65c-.52-.34-1.04-.68-1.56-1.01.52.34,1.04.68,1.56,1.01Z"/>
      <path class="cls-1" d="M628.68,673.21c-.19.8-.68,1.29-1.51,1.42.2-.79.7-1.27,1.51-1.42Z"/>
      <path class="cls-1" d="M630.21,671.75c-.18.83-.67,1.33-1.52,1.45.22-.78.73-1.27,1.52-1.45Z"/>
      <path class="cls-2" d="M536.43,763.76c-.04.53-.07,1.06-.11,1.59-.13-.38-.32-.76-.37-1.15-.02-.12.31-.29.48-.44Z"/>
      <path class="cls-1" d="M619.71,668.69c.04-.86.43-1.5,1.16-1.94.13.95-.27,1.6-1.16,1.94Z"/>
      <path class="cls-1" d="M440.25,1247.85c.18-.73.6-1.12,1.39-.97-.46.32-.93.65-1.39.97Z"/>
      <path class="cls-1" d="M438.5,1249.22c.24-.81.75-1.26,1.61-1.28-.25.79-.77,1.23-1.61,1.28Z"/>
      <path class="cls-1" d="M462.73,1248.89c-.54.17-1.07.34-1.61.51.32-.84.81-1.17,1.61-.51Z"/>
      <path class="cls-5" d="M958.41,652.44c-1.08-.4-1.41-1.3-1.55-2.32,1.02.44,1.53,1.22,1.55,2.32Z"/>
      <path class="cls-5" d="M1085.8,622.78c.29.29.61.56.85.88.03.04-.28.35-.43.53-.21-.28-.46-.54-.6-.85-.06-.13.12-.37.18-.56Z"/>
      <path class="cls-2" d="M538.33,867.52c-.86-.27-1.25-.76-.8-1.66.27.55.53,1.11.8,1.66Z"/>
      <path class="cls-3" d="M656.93,276.63c13.32,2.19,24.51,8.88,35.18,16.66,9.19,6.7,18.24,13.61,27.9,19.65,4.84,3.02,9.8,5.67,15.39,7.18,4.99,1.35,5.78,3.93,2.65,8.04-3.17,4.16-7.63,6.19-12.79,6.61-5.44.44-10.84.03-16.72-1.35.42,2.85,2.13,4.61,3.21,6.61,7.75,14.28,7.38,28.51-.87,42.3-2.38,3.98-2.24,6.55.88,9.69,1.88,1.89,3.52,4.16,3.81,7.43-3.97.92-7.11-1.21-10.3-2.71-17.81-8.36-36.51-12.17-56.16-11.29-10.42.47-20.59,2.59-30.74,4.8-2.15.47-4.24,1.28-6.79.5,0-3.97,3.01-5.56,5.5-7.25,9.35-6.35,19.64-10.24,30.93-11.45,8.64-.93,17.26-.36,25.82.24,1.94-2.15.93-4.47.47-6.46-1.58-6.73-.82-13.31.84-19.82,1.83-7.2,5.29-13.3,12.4-16.67,1.31-.62,2.46-1.59,4.28-2.8-16.49-10.63-33.08-19.62-52.25-22.61-6.14-.96-12.31.2-18.47.83-3.42.35-7.95,1.88-9.89-2.56-1.73-3.97.99-7.07,3.72-9.75,8.07-7.91,16.9-14.46,28.62-15.74,4.46.34,8.92.39,13.38-.07Z"/>
      <path class="cls-2" d="M656.93,276.63c-4.46.46-8.92.41-13.38.07,4.45-2.22,8.91-2.18,13.38-.07Z"/>
      <path class="cls-1" d="M863.3,919.7c13.94-14.54,23.62-31.54,29.27-50.86,3.06-10.47,3.86-21.31,5.45-32.86,8.74,7.92,13.13,18.64,21.04,27.45,8.47-12.48,10.14-26.38,11.86-40.21,1.73-13.91.63-27.84-1.36-43.31,3.57,2.77,4.17,5.16,5.05,7.36,2.75,6.92,4.76,14.17,5.42,21.49,1.83,20.45.19,40.48-9.83,59.05-1.66,3.08-3.49,6.01-6.32,8.13-4.19,3.14-7.54,2.87-11.02-1.14-2.22-2.57-4.03-5.49-6.29-8.63-2.26,2.01-2.54,4.54-3.16,6.77-3.26,11.78-8.44,22.76-14.99,32.93-6.07,9.42-14.15,17.19-24.41,22.16-5.45,2.63-6.32,2.16-9.59-2.37,3.67-.91,6.69-2.82,8.89-5.94Z"/>
      <path class="cls-2" d="M863.3,919.7c-2.2,3.12-5.21,5.03-8.89,5.94-1.47-.86-1.52-2.45-1.93-3.84-2.11-7.13-3.08-25.17-1.81-33.47,2.01.08,1.96,1.77,2.45,3.08,3,8.1,5.06,16.46,7.1,24.83.45,1.84.87,3.34,3.07,3.45Z"/>
      <path class="cls-2" d="M908.01,985.93c.09,1.5-.12,2.86-1.64,3.63-.1-1.5.75-2.57,1.64-3.63Z"/>
      <path class="cls-2" d="M906.44,989.48c-.13.9-.51,1.56-1.55,1.56.16-.88.68-1.39,1.55-1.56Z"/>
      <path class="cls-5" d="M726.75,689.49c1.35,13.12-11.55,20.47-23.27,14.24-6.47-3.43-12.4-7.81-16.4-14.42-4.23-7.01-4.21-13.9-.96-21.12,1.23-2.73,3.48-4.14,6.16-4.92,14.77-4.32,34.41,10.64,34.47,26.22Z"/>
      <path class="cls-5" d="M729.38,709.43c3.68-.24,8.46,4.41,8.8,8.56.29,3.46-2.93,8-5.91,8.36-3.78.46-9.18-4.35-9.69-8.62-.44-3.65,3.18-8.07,6.8-8.3Z"/>
      <path class="cls-1" d="M612.35,686.55c-.11.19-.27.55-.31.54-.44-.15-.31-.34.37-.48,0,0-.06-.06-.06-.06Z"/>
      <path class="cls-4" d="M765.67,152.15c5.66.43,7.37,1.68,8.35,6.08,1.06,4.78-.2,7.61-4.42,9.93-2.97-4.93-3.31-10.5-3.92-16Z"/>
      <path class="cls-4" d="M1005.67,457.43c3.3-11.81,10.87-19.8,22.39-23.54,16.14-5.24,32.1-3.41,47.76,2.46,7.9,2.96,15.43,6.65,21.74,12.37,7.37,6.68,12.47,14.56,12.31,24.99-2.86,6.6-9.66,7.28-15.13,9.31-16.11,5.99-31.7,2.84-47.29-3.3-11.54-4.54-21.87-10.79-31.64-18.17-3.06-2.31-7.2-1.69-10.14-4.12Z"/>
      <path class="cls-5" d="M1167.18,349.38c-2.86.11-5.27-.98-7.31-2.85-3.4-3.12-3.1-6.52.85-8.88,2.51-1.5,5.1-2.92,8.22-2.73,4.12.25,7.12,2.44,7.55,5.6.48,3.52-2.62,7.79-6.39,8.66-.94.22-1.95.15-2.92.21Z"/>
      <path class="cls-5" d="M380.48,826.1c.6-.47,1.19-.95,1.79-1.42-.6.47-1.19.95-1.79,1.42Z"/>
      <path class="cls-2" d="M1097.91,725.2c.2-.2.41-.4.61-.6-.04.13-.03.32-.12.38-.14.11-.34.14-.52.2,0,0,.03.03.03.03Z"/>
      <path class="cls-1" d="M155.04,772.71c.11-.2.26-.59.32-.58.48.11.37.33-.33.57,0,0,0,0,0,0Z"/>
      <path class="cls-3" d="M799.42,373.16c5.64.3,11.58,2.94,16.36,8.03,1.2,1.28,2.04,2.97.93,4.71-1.04,1.63-2.77,2.16-4.55,1.49-4.57-1.71-9.21-1.21-13.9-.83-6.82.56-10.08-1.37-10.05-5.61.03-4.55,4.11-7.76,11.21-7.79Z"/>
      <path class="cls-3" d="M515.74,1252.22c.51.34.52.69,0,.97-.15.08-.4-.02-.6-.04.24-.28.47-.57.71-.86,0,0-.12-.08-.12-.08Z"/>
      <path class="cls-3" d="M979.17,756.29c-.44.51-.8.46-.98-.17-.05-.18.09-.42.15-.64.25.3.51.61.76.91,0,0,.07-.1.07-.1Z"/>
    </g>
  </g>
</svg>