<?xml version="1.0" encoding="UTF-8"?>
<svg id="Camada_1" data-name="Camada 1" xmlns="http://www.w3.org/2000/svg" viewBox="0 0 1340.27 1361.8">
  <defs>
    <style>
      .cls-1 {
        fill: #050608;
      }

      .cls-1, .cls-2, .cls-3, .cls-4, .cls-5, .cls-6 {
        stroke-width: 0px;
      }

      .cls-2 {
        fill: #59a4c9;
      }

      .cls-3 {
        fill: #3881c3;
      }

      .cls-4 {
        fill: #213c6e;
      }

      .cls-5 {
        fill: #fdfdfd;
      }

      .cls-6 {
        fill: #31689c;
      }
    </style>
  </defs>
  <g id="Blue">
    <g>
      <path class="cls-1" d="M117.59,717.33c-20.94,17.44-37.37,38.69-51.58,61.71-11.08,17.95-20.44,36.78-27.25,56.8-1.3,3.82-3.26,7.09-6.38,9.66-10.1,8.31-25.64,2.49-27.83-10.42-.16-.96-.27-1.95-.29-2.92-.37-28.21.12-56.38,4.28-84.35,6.36-42.82,19.27-83.46,41.61-120.71,24.23-40.41,57.04-71.4,101.02-89.62,23.77-9.84,48.59-15.49,74.32-15.52,59.32-.07,107.67,23.54,145.54,68.98,17.61,21.12,30.3,44.96,39.19,70.91,1.8,5.26,3.92,10.41,5.93,15.71,5.11-3.8,5.36-3.97,2.41-8.31-2.22-3.27-2.11-7.55-5.03-10.45-.38-.38-.37-1.52-.11-2.12,2.92-6.6,4.52-13.62,9.37-19.56,24.3-29.78,36.9-64.09,39.19-102.49,1.57-26.31-.66-52.42-2.55-78.56-2.46-34.06-3.52-68.06,2.2-101.93.85-5.03,1.93-10.03,2.88-14.95-2-1.7-3.96-.55-5.8-.43-10.66.71-21.02-.24-30.93-4.62-20.73-9.15-31.3-26.48-30.04-49.1,1.05-18.8,8.4-35.06,19.76-49.72,9.09-11.73,19.84-21.67,32.44-29.56,2.06-1.29,4.07-2.68,6.14-4.04-1.33-2.6-4.01-2.89-6.07-4.04-8.2-4.59-15.72-10.08-21.68-17.36-16.12-19.7-16.78-44.65-1.95-66.02,7.27-10.49,16.7-18.54,28.1-24.21,26.74-13.31,55.11-16.35,84.44-13.33,15.19,1.57,29.82,5.43,44.1,10.75,2,.74,3.98,1.89,6.82,1.64.25-3.04-1.5-5.54-2.35-8.12-3.51-10.67-5.04-21.55-3.09-32.61,4.27-24.26,21.46-40.61,46.48-44.55,23.49-3.71,46.1.36,67.39,10.04,59.5,27.06,95.07,73.03,105.73,137.66,3.12,18.95,2.9,38.12-.71,57.08-.76,4,.38,6.27,3.58,8.56,11.81,8.47,22.29,18.41,31.17,29.95,1.71,2.23,3.44,3.67,6.41,4.23,4.86.92,9.12,3.56,12.92,6.7,5.98,4.93,6.94,11.39,1.98,17.4-2.35,2.85-2.14,4.72-.74,7.72,8.11,17.37,14.1,35.47,17.58,54.33.65,3.53,2.1,5.42,5.24,7.11,33.22,17.8,52.64,45.94,60.85,82.25,1.18,5.24,1.73,10.66,1.08,16.08-1.33,11.12-9.54,17.43-20.55,15.53-5.05-.87-10.01-2.31-14.99-3.57-2.57-.65-5.12-1.31-7.91-1.11,0,1.11-.15,1.83.02,2.47,14.02,51.34,38.91,95.99,80.21,130.58,10.11,8.47,13.33,16.8,11.46,30.22,14.56,5.41,28.93,5.95,43.09-1.57,2.88-1.53,4.22-3.04,2.55-6.9-3.72-8.62-2.69-17.78-1.27-26.8.57-3.62,1.04-7.34,2.26-10.76,1.62-4.54-.47-6.49-4.04-8.59-15.38-9.07-28.1-21.2-39.33-34.99-13.1-16.1-20.27-34.77-22.13-55.11-2.13-23.24,4.8-44.05,20.56-61.6,3.62-4.04,7.69-7.8,12.75-9.75,4.41-1.69,4.78-4.45,4.65-8.5-.63-21.2,3.92-41.29,13.28-60.36,15.76-32.09,41.32-51.43,76.04-59.06,23.36-5.13,46.71-4.38,70.05.18,29.53,5.76,57.67,15.58,83.54,30.94,25.16,14.93,46.8,33.83,61.31,59.92,14.28,25.67,19.41,53.29,17,82.22-3.72,44.76-19.72,85.06-46.03,121.35-1.44,1.98-2.76,4.18-4.62,5.7-5.19,4.25-6.39,9.5-6.53,16.08-.31,15.16-1.55,30.26-6.19,44.96-3.28,10.4-8.79,18.65-18.66,23.3-4.45,2.1-5.71,5.34-6.49,9.62-6.48,35.62-20.06,68.46-39.31,99-8.13,12.89-17.52,24.82-28.72,35.23-4.74,4.41-10.01,7.73-16.54,8.96-4.75.9-9.43.98-13.53-1.56-3.86-2.4-5.07.11-6.88,2.55-11.23,15.14-24.9,27.61-41.01,37.41-6.8,4.14-14.13,6.73-22.06,7.53-11.81,1.19-21.39-3.89-26.24-14.7-1.64-3.66-2.73-4.19-6.29-2.48-13.29,6.37-27.15,11.22-41.74,13.48-4.28.66-5.78,2.82-6.51,6.48-4.97,24.85-13.45,48.51-24.22,71.39-12.57,26.71-27.89,51.71-46.8,74.42-6.27,7.53-12.61,15.03-19.32,22.16-2.52,2.67-3.15,5.16-2.61,8.5,1.77,10.94,2.06,21.98,1.38,33-1.34,21.7-5.31,42.71-16.74,61.75-3.71,6.19-8.61,11.27-13.46,16.45-1.71,1.83-3.12,3.39-1.84,6.38,6.91,16.2,12.95,32.79,21.74,48.14,1.7,2.96,3.64,5.82,5.75,8.51,4.82,6.16,11.2,9.12,19.09,9.31,9.67.23,19.05-1.6,28.35-3.68,14.44-3.23,28.94-4.9,43.75-3.89,4.38.3,8.82-.06,13.21-.41,36.23-2.87,68.77,22.51,74.79,61.23,1.52,9.81-5.27,17.91-15.23,18.54-1.47.09-2.94.04-4.41.04-93.65,0-187.31,0-280.96,0-2.69,0-5.44.12-8.06-.38-8.86-1.67-14.27-8.96-13.7-18.11,1.68-27.4,22.69-49.3,49.97-52.16,2.37-.25,4.91.2,7.6-1.62-4.38-11.23-8.73-22.56-13.22-33.84-1.9-4.77-3.34-10-6.37-13.96-3.22-4.21-9.34-3.51-14.16-4.9-20.76-5.99-38.14-17.64-53.77-32.03-4.12-3.79-7.55-4.71-12.96-3.63-23.92,4.77-48.18,5.47-72.47,4.56-4.63-.17-7.75,1.24-10.97,4.29-12.16,11.53-25.7,21.09-40.9,28.31-11.17,5.31-22.9,8.52-35.1,10.11-2.31.3-4.14.64-5.22,3.12-4.89,11.21-10.1,22.28-13.85,33.95-.28.88-.55,1.87.41,3.15,2.81.26,5.94.5,9.06.83,14.7,1.56,26.5,8.38,35.28,20.15,7.96,10.68,12.07,22.9,12.9,36.15.83,13.3-5.65,20.18-19.12,20.22-30.65.1-61.29.05-91.94.05-38.25,0-76.5-.44-114.74.19-20.39.33-28.58-8.48-23.01-29.56,5.88-22.26,18.98-37.75,41.23-44.87,8.27-2.64,16.94-2.84,25.47-3.04,20.88-.51,35.71-10.36,45.7-28.27,6.95-12.44,11.85-25.77,16.96-39.01.83-2.14.28-3.62-.84-5.39-11.54-18.1-16.01-38.19-16.46-59.37-.07-3.12.16-5.98-3.02-8.43-26.58-20.49-47.5-45.84-63.57-75.25-.46-.85-1.08-1.61-1.52-2.26-1.47-.48-1.86.62-2.45,1.24-9.8,10.31-21.95,12.6-34.72,6.22-11.53-5.76-20.06-14.86-26.59-25.74-9.42-15.7-15.86-32.53-17.45-50.95-.31-3.57-.92-5.91-5.41-7-9.48-2.29-14.71-9.12-16.29-18.72-.75-4.6-.19-9.24-.21-13.73-2.28-1.31-3.45.54-4.74,1.34-19.73,12.2-30.18,30.88-36.16,52.51-4.48,16.2-5.56,32.81-5.08,49.54.18,6.13.61,12.25.58,18.37-.05,8.3-4.91,14.82-12.86,17.85-7.25,2.76-15.63,1.04-20.67-5.29-21.26-26.71-38.68-55.63-45.53-89.5-4.56-22.53-3.81-45.34,1.79-67.81,1.43-1.43,1.16-3.09.97-4.98-1.98.81-2.87,2.02-3.22,3.68-22.48,30.56-37.39,64.64-46.97,101.19-.62,2.37-1.03,4.81-1.88,7.09-2.98,8.04-10.62,13.18-18.71,12.78-8.34-.41-14.49-5.15-16.75-13.89-4.6-17.79-7.94-35.86-9.53-54.15-2.19-25.18-2.43-50.43,1.1-75.54,4.79-33.98,14.71-66.3,32.06-96.14,6.28-10.8,13.67-20.76,21.71-30.26,1.39-.4,1.89-1.73,2.77-2.67,1.78-1.01,3.3-2.21,3.57-4.55-1.94-.05-2.86.98-3.78,2.03-1.47,1.51-3.78,2.11-4.6,4.31ZM370.51,633.42l.08.06c-.5-1.5-.32-3.68-3-3.04l.08.11c1.52-2.48-.59-4.06-1.62-5.73-7.01-11.26-14.85-21.94-24.35-31.24-29.07-28.46-63.28-45.23-104.53-47.46-33-1.78-63.86,4.97-92.7,20.46-32.58,17.5-57.05,43.47-75.33,75.44-.83,1.45-2.06,2.81-1.84,4.7l.08-.06c-1.55.42-1.73,1.86-2.27,3.04-1.86,1.06-2.36,3.09-3.18,4.8-5.15,10.8-9.99,21.73-14.15,32.97-7.49,20.23-11.92,41.22-15.46,62.4-1.52,9.11-3.51,18.23-2.93,27.59-.3,5.69-.6,11.39-.92,17.23,2.7-.34,2.84-2.37,3.6-3.74,3.09-5.55,6.15-11.11,9.08-16.75,11.74-22.53,27.76-41.85,45.1-60.15,10.26-10.83,22.36-19.53,34.1-28.62,6.72-3.42,13.44-6.84,20.17-10.25,4.1-2.09,8.76-3.06,12.35-6.17,1.2-.2,2.47-.21,3.59-.64,24.05-9.23,48.73-12.04,74.03-6.7,28.43,6,53.56,18.32,73.54,39.97,1.48,1.6,3.34,2.98,3.17,5.53l-1.58.16c-14.3-8.61-29.09-16.13-45.5-19.89-10.5-2.41-21.1-4.79-31.94-3.41-22.74,2.88-43.51,11.16-62.31,24.2-26.92,18.68-45.57,44.02-58.41,73.84-2.75,6.39-6.44,12.57-6.33,19.9-1.91.23-2.08,1.95-2.41,3.22-2.19,8.25-4.53,16.48-6.26,24.82-5.51,26.51-4.92,53.39-4.29,80.25.06,2.45.2,4.89,1.37,7.13-.46,8.27,1.35,16.16,3.61,24.72,2.68-2.45,3.25-5.05,4.07-7.55,3.99-12.06,8.41-24,14.08-35.33,10.94-21.85,23.51-42.72,39.96-61,4.61-3.3,8.18-7.66,12-11.76,19.04-15.56,39.35-28.48,64.12-33.17,13.83-2.62,27.55-3.01,41.32-.5,2.01.37,5.19.11,5.72,3.47-16.59.69-31.52,6.69-45.49,15.04-9.87,5.9-19.16,12.83-26.07,22.28-20.35,27.83-25.57,59.32-21.31,92.7,2.9,22.8,13.62,42.66,25.58,61.87,0,.72.32,1.22,1.01,1.45.2.44.42.87.67,1.29.72,2.16,1.78,3.95,4.91,4.15,1.32-6.02.74-12.1.79-18.09.2-24.96,6.07-48.48,18.7-69.96,12.15-20.67,28.84-36.28,52.81-42.57,2.73-.71,5.1-1.78,5.98-4.76,3.83-12.87,8.55-25.42,13.67-37.82,2.33-4.2,4.77-8.35,6.31-12.93,7.66-12.38,15.32-24.77,22.98-37.15,5.01-6.81,10.02-13.61,15.02-20.42,7.85-9.27,15.7-18.53,23.55-27.8,7.61-6.58,13.57-14.75,20.87-21.63,2.21-2.09,2.49-4.32,1.62-7.29-3.01-10.33-5.92-20.7-9.87-30.71-3.93-9.97-7.78-20-14.31-28.69-.13-.84-.48-1.5-1.36-1.77ZM769.19,629.29c1.89,1.64,3.86,1.34,5.85.21,7.76-.26,14.07-3.66,19.53-8.98,11.18-10.88,13.58-24.59,12.14-39.24-1.69-17.24-7.65-33.32-14.56-49.08.99-1.3,2.02-.98,3.02-.03,8.01,7.6,15.31,15.73,19.74,26.06,4.77,11.12,7.52,22.6,7.01,34.81-.27,6.53,1.22,8.62,7.33,10.91,4.88,1.83,9.93,2.39,15.09,1.3,1.23.23,2.38.03,3.57-.41,16.25-6.06,21.59-21.09,19.32-36.16-1.76-11.65-7.11-21.73-14.86-30.53-10.03-11.4-19.04-23.5-26.01-37.03-1.94-3.08-3.76-.6-5.48.22-12.79,6.1-26.15,9.24-40.43,8.85-9.91-.27-19.33-2.49-28.71-5.36-7.46-2.28-14.46-5.72-21.62-8.7-1.39,2.2-1.74,4.35-2.1,6.53-1.31,7.95-2.75,15.88-3.99,23.84-2.74,17.66-5.08,35.29-2,53.22,3.41,19.81,13.39,34.91,30.85,44.94,4.92,2.82,10.14,4.88,16,4.52l.29.11ZM535.18,779.22c.05.49.1.97.15,1.46.07,1.38.14,2.77.21,4.15-1.44,10.19,1.4,19.92,3.5,29.65,1.43,6.6,2.11,13.57,6.24,19.34.02.42.11.84.26,1.23-.15,4.12,1.76,7.42,4.2,10.5.07.42.19.82.36,1.21-.04.84.33,1.43,1.06,1.82,1.37,3.4,2.65,6.84,4.13,10.19,6.85,15.43,17.27,28.47,28.3,40.95,5.48,6.2,12.18,11.31,19.97,14.73,12.74,5.61,25.69,5.08,38.82,1.75,20.38-5.17,37.63-16.29,54.27-28.52,9.69-7.12,18.21-15.62,26.89-23.92,1.42-1.36,2.53-3.71,5.62-2.82-.28,7.49-4.81,13.65-6.6,20.69,9.47,2.09,18.1-1.64,26.67-2.49.94,2.56-.33,3.52-1.28,4.59-6.21,6.99-14.51,11.28-23.31,10.93-10.47-.42-17.67,3.66-24.15,10.76-.16.18-.41.27-.59.43-4.3,3.72-4,5.15,1.56,7.26,8.48,3.22,17.31,3.9,26.04,2.02,20.21-4.35,36.04-15.75,48.76-31.76,8.69-10.56,14.92-22.36,17.97-35.76,1.13-.74,1.32-1.96,1.67-3.13,3.61-12.04,5.18-24.41,5.53-36.9.79-28.4-3.97-56.13-11.94-83.21-6.8-23.08-16.36-45.01-32.33-63.62-14.58-17-32.74-26.73-55.25-25.3-25.44,1.62-47.35,12.76-67.07,28.49-9.3,4.42-14.99,13.44-24.06,19.48-.54-9.46,5.92-15.37,8.58-22.79-3.71-1.27-7.14-2.44-10.57-3.61-.43-1.77,1.13-2.77,1.64-4.17,5.07-1.76,10.35-2.38,15.66-2.78,1.91-.14,3.88.05,5.42-1.52,5.1-5.19,11.56-8.66,17.01-13.42,4.83-1.33,9.15-3.57,13.2-6.78-8.95-6.68-19.4-9.2-30.14-7.6-21.37,3.18-38.18,14.51-52.31,30.05-33.11,36.4-44.88,80.26-44.07,128.38ZM1103.28,476.24c.89-.19,1.12-.8,1-1.62.57-2.84,2.07-5.55,1.26-8.59.46-15.01-6.68-26.3-18.1-34.96-14.45-10.95-30.8-16.5-49.18-15.61-23.44,1.14-40.87,19.19-41.21,42.98-1.27,1.44-1.04,3.22-1.04,4.9-.02,14.35,4.44,27.47,11.4,39.78,10.97,19.4,27.36,33.27,46.78,43.4,22.29,11.62,46.19,17.39,71.47,16.43,3.88-.15,6.94.59,10,3.29,4.22,3.74,9.44,6.1,14.72,8.14,19.32,7.44,39.26,10.03,59.8,7.44,18.18-2.29,34.56-8.82,48.13-21.51,14.76-13.8,25.08-30.67,32.96-49.03,4.62-10.76,9.18-21.64,10.74-33.43l-.03-.12c1.86-2.27,1.9-4.84,1.24-7.52,2.44-4.57,3.13-9.6,3.7-14.63,1.62-14.27,2.02-28.54-.44-42.78.07-2.71-.4-5.33-.99-7.98-6.5-29.47-23.58-51.83-47.31-69.43-20.23-15.01-42.8-25.49-66.94-32.58-22.89-6.73-45.96-11.38-70.12-9.56-41.72,3.15-72.84,28.3-83.7,68.57-2.82,10.47-3.99,21.14-3.81,31.98.06,3.37,1.06,5.24,4.81,3.99,6.54.6,13.11.39,19.63,1.83,32.18,7.14,55.63,24.01,64.64,57.25-.33,8.28.58,16.64-2.38,24.72-2.44,6.65-2.23,6.73,4.2,9.49,1.12.48,2.26.93,3.41,1.35,13.39,4.85,27,8.38,41.36,9.22,10.92.64,21.49-.04,31.73-3.81,17.25-6.35,28.81-19.09,37.33-34.74,8.21-15.07,10.98-31.78,13.3-48.54.28-2.01-.23-4.36,2.87-5.64,8.07,14.25,6.49,29.27,4.29,44.6,5.03-.27,7.68-3.45,10.92-5.4,1.88-1.13,3.55-2.63,5.46-3.69,2.05-1.14,3.36-.39,3.13,2.05-.11,1.19-.53,2.39-1.04,3.48-4.17,8.94-9.99,16.38-19.69,19.65-4.78,1.61-7.8,4.49-9.95,8.99-2.84,5.96-6.26,11.59-10.99,16.39-21.93,22.26-49.05,26.87-78.58,23.19-10.19-1.27-19.97-4.59-29.99-6.72-.22-.66-.41-.76-.48-.3,0,.04.37.13.57.2-.64,4.31,1.66,8.08,2.23,12.17.82,5.85,1.15,11.53-2.91,17.04-2.23-2.95-3.11-5.98-4.08-8.98-2.95-9.07-8.88-16.21-15.05-23.21-2.16-2.45-4.22-3.14-6.8-.68-.69.66-1.64,1.06-2.46,1.59-19.68,12.69-46.55,9.48-62.5-7.48-1.63-1.73-3.48-3.35-3.19-6.13,2.76-.99,4.88.73,7.09,1.45,10.37,3.38,20.95,4.65,31.81,3.87,15.42-1.1,27.43-10.64,30.95-24.66v-.11ZM479.6,902.21l.21.33c1.36,6.07,5.09,10.98,8.21,16.14,8.98,14.88,20.73,27.22,35.27,36.74,12.28,8.03,25.06,8.52,38.3,1.91,11.3-5.64,20.87-13.6,30.46-21.58,4.8-4,4.63-4.93-.53-8.51-16.94-11.74-30.73-26.36-41.29-44.13-2.69-4.53-4.28-9.9-8.73-13.31-5.3-11.86-9.8-24.03-14.2-36.25-7.13-25.33-9.51-51.2-7.75-78.09-11.65,3.21-21.01,8.45-30.44,13.53-16.93,9.13-25.75,23.27-26.32,42.52-2.39,14.04-1.9,28.08.39,42.05,2.64,16.14,6.36,31.98,14.91,46.23-.11,1.2.05,2.23,1.53,2.43ZM1009.1,1267.13c4.82.32,2.93-3.13,2.31-4.89-4.76-13.38-14.19-21.97-27.83-25.67-11.25-3.05-22.35-.66-33.26,2.12-15.08,3.84-30.19,5.68-45.62,2.52-.11-.22-.18-.57-.35-.63-19.93-7.51-31.67-22.74-39.5-41.72-2.32-5.63-4.94-11.13-7.43-16.7-1.44-5.97-4.88-11.17-6.65-17-1.04-3.44-2.74-3.82-6.02-2.64-6.66,2.39-13.38,4.6-20.56,5.16-5.78.45-6.05,1.21-3.79,7,4.35,11.16,8.76,22.3,13.04,33.49,2.01,5.25,4.01,10.55,4.65,16.16,1.08,9.41-3.1,15.03-12.36,16.67-6.73,1.19-13.57,1.77-20.28,3.08-10.95,2.13-19.55,7.61-23.8,18.44-1.68,4.28-1.12,5.08,3.64,5.08,22.02,0,44.04-.1,66.07-.16.98.07,1.95.19,2.93.19,50.16.02,100.32.04,150.48.02,1.44,0,2.89-.33,4.33-.51ZM1082.45,622.42c1.13.89,2.2,1.89,3.41,2.65,25.08,15.64,52.59,23.64,81.91,25.92,13.54,1.22,26.83-.63,40.02-3.41,8.15-1.72,16.14-4.02,23.92-6.98,7.49-2.85,12.69-7.78,15.1-15.8,2.79-9.26,3.82-18.63,3.77-28.23-.05-10.97.14-10.73-10.33-7.36-18.32,5.88-36.94,8.73-56.33,6.21-13.41-1.74-26.5-3.86-38.83-9.88-6.61-3.23-12.88-7.03-19.39-10.39-1.97-1.02-3.59-2.18-6.09-1.67-5.49,1.12-11.06,1.86-16.6,2.76-8.74-.24-17.45-.82-26.1-2.11-3.69-1.22-7.4-2.37-11.05-3.69-3.16-1.14-4.55.36-5.15,3.16-1.31,6.22-2.58,12.44-3.18,18.79-.55,5.8,1.37,10.53,5.45,14.56,5.93,5.86,12.19,11.3,19.46,15.47ZM483.88,1185.23c-3.07,5.56-6.2,11.09-9.21,16.69-13.78,25.67-35.57,38.21-64.36,39.15-5.65.18-11.26.53-16.81,1.51-14.06,2.47-25.8,15.17-26.87,29.35,13.98,0,27.93.06,41.88-.04,3.88-.03,8.37,1.35,11.49-.78,2.98-2.03,2.27-6.74,3.45-10.2,6.04-17.73,22.47-29.52,40.14-28.45,3.7.22,7.56.34,11.12,3.81-19.42,4.85-35.38,12.66-37.9,34.81,2.51,1.1,4.74.75,6.92.75,14.46.04,28.91.06,43.37.07,7.01,0,7.09-.05,8.35-7.16,1.04-5.86,1.6-11.79,1.44-19.26,6.17,7.03,8.66,13.94,9.82,21.12.74,4.58,2.72,5.42,6.75,5.34,11.02-.21,22.05-.08,33.08-.09,6.81,0,13.61,0,20.39,0,.55-3.1-.65-5.3-1.48-7.55-6.64-18.09-17.94-24.9-36.95-22.27-4.34.6-8.66,1.28-13.62,2.01.99-3.46.18-6.14-1.85-8.76-4.49-5.82-5.17-12.6-3.58-19.56,1.2-5.24,2.85-10.37,4.31-15.55.67-.37.87-.92.61-1.64.1-.53.2-1.07.3-1.6,4.07-6.83,6.13-14.5,9.98-21.79-6.24-1.94-11.65-3.38-16.89-5.31-5.21-1.92-10.25-4.31-15.69-6.64-3.22,7.42-6.29,14.51-8.2,22.05ZM909,430.17c3.16.89,6.32,1.79,10.15,2.88-5.29-24.95-16.44-45.33-36.94-60.11-19.62-14.14-41.91-20.63-65.57-22.86-11.36-1.07-22.39,1.08-32.38,7.12-1.37-.17-2.27.75-3.25,1.43-7.96,5.55-14.1,12.82-19.55,20.74-4.72,6.86-9.54,13.66-14.12,20.61-11.42,17.3-27.65,27.29-47.59,31.85-1.78.41-4.05-.15-5.3,2.46,19.19,8.36,39.2,12.28,59.98,11.52,16.67-.6,33.07-3.64,49.34-7.29,18.38-4.13,36.78-8.22,55.56-10.2,16.65-1.75,33.2-.95,49.68,1.87ZM1019.44,745.37c.1,1.21,0,2.47.32,3.62,2.73,10.06,2.88,20.33,2.48,30.62-.19,4.75-1.46,9.15-5.04,12.63-4.32,4.19-9.29,4.76-14.95,3.44-4.61-1.08-5.02-.63-5.09,4.22-.11,8.08-.08,16.17-.04,24.26.03,5.13.09,5.12,5.5,3.97,23.83-5.07,45.14-15.78,65.32-29.06,4.57-3.01,8.69-6.86,14.18-8.74,1.18,3.27-.53,5.68-1.39,8.08-2.82,7.82-5.97,15.52-8.89,23.31-1.11,2.95-2.94,6.51-.62,9.05,2.82,3.09,6.54.44,9.51-.73,9.26-3.62,16.84-9.89,24.2-16.39,14.35-12.66,24.26-28.76,34.28-44.75,4.89-7.79,9.59-15.7,14.38-23.55.68,3.4.7,6.53.27,9.59-1.27,9.03-.65,18.1-.73,27.15-.01,1.39-.22,3.09,1.31,3.95,1.93,1.08,3.2-.43,4.5-1.47,5.57-4.46,10.58-9.5,14.72-15.3,13.69-19.23,24.99-39.77,34.04-61.58,4.71-11.34,8.05-23.1,11-34.97,1.98-7.95,1.33-8.61-6.4-7.05-11.07,2.23-22.21,3.58-33.53,3.28-5.63-.15-11.27,0-16.9.01-.24-.05-.47-.14-.72-.16-37.33-3.85-71.68-15.21-100.62-40.08-2.56-2.2-4.39-2.08-6.84.24-7.07,6.68-15.38,11.18-24.95,13.25-17.06,3.68-33.55,1.74-49.57-4.96-2.87-1.2-5.58-2.9-9.06-3.05.27,2.77,2.21,4.38,3.51,6.3,9.6,14.21,18.53,28.78,25.66,44.44,8.86,19.45,15.23,39.7,20.17,60.44ZM497.03,743.72c6.52-1.95,13.01-4.03,19.59-5.79,2.95-.79,3.67-2.58,4.02-5.27,1.1-8.5,3.18-16.82,6-24.87,1.58-4.51,1.57-8.32-.76-12.54-4.04-7.31-6.35-15.3-8.25-23.42-1.75-7.5-2.98-15.07-3.37-23.44-1.8.94-2.9,1.38-3.87,2.03-14.97,9.99-31.16,17.31-48.57,21.81-5.38,1.39-9.94,3.84-13.59,8-3.24,2.59-6.53,5.13-9.71,7.79-38.68,32.51-72.17,69.59-98.61,112.79-11.78,19.26-21.31,39.59-27.55,61.36-2.15,7.51-4.31,15.06-4.1,23-1.94,4.63-1.17,9.27-.68,14.92,5.2-3.59,7.89-8.02,11.37-11.64,3.35-3.48,5.11-8.48,9.99-11.08,0,2.8.24,5.02-.04,7.18-1.57,12.14-2.48,24.19-1.54,36.55,1.26,16.5,5.81,31.69,13.57,46.11,3.54,6.59,8.53,11.94,14.2,16.7,2.08,1.74,4.46,3.09,7.06,3.85,3.5,1.02,5.02-.09,5.24-3.75.18-2.94-.23-5.83-.7-8.76-.97-6.11-3.07-12.06-3.2-19.06,5.93,4.8,11,9.39,16.54,13.3,22.1,15.56,46.48,22.29,73.58,18.95,17.93-2.21,35.02-6.91,51.14-15.05,2.04-1.03,4.57-1.69,5.37-4.1-1.15-2.25-2.96-3.2-4.57-4.2-9.1-5.66-16.34-13.22-22.65-21.77-5.64-7.65-11.32-15.28-16.98-22.92-.45-3.24-2.4-5.84-3.71-8.71-6.93-15.16-12.84-30.64-15.88-47.13-3.93-21.33-6-42.64-.39-64.02.42-1.58,1.47-3.12.22-5.45-23.87.14-44,11.25-64.78,24.2,1.65-4.31,3.69-6.64,5.74-8.96,15.88-17.93,35.76-28.59,59.37-32.09,4.46-.66,7.59-2.1,10.27-5.83,5.49-7.65,12.82-13.44,20.94-18.13,6.34-3.66,12.84-7.06,19.27-10.57ZM469.05,109.97c-11.11,4.61-20.88,10.78-25.85,22.46-3.15,6.05-4.04,12.28-2.84,19.12,1.72,9.78,8.03,16,15.36,21.52,8.52,6.42,18.43,10,28.48,13.24,10.25,3.31,20.53,6.51,30.47,10.69,1.39.58,2.72,1.44,2.74,3.11.03,1.97-1.71,1.94-3.07,2.43-9.19,3.33-18.43,6.5-27.48,10.25-22.97,9.51-42.39,23.49-55.84,44.68-5.96,9.38-9.02,19.86-9.4,31.22-.47,14.24,10.08,23.82,21.83,25.33,10.6,1.36,21.5,1.23,32.12-1.51,4.13-1.06,6.7-3.13,8.25-7.3,3.07-8.24,6.68-16.29,11.53-23.69,11.05-16.85,23.24-32.72,39.28-45.22,9.46-7.36,18.62-15.22,29.59-20.32,24.24-11.27,49.63-17.64,76.51-17.91,6.14-.06,12.11,1.57,18.24,1.09,1.39.16,2.78.31,4.17.47.78,1.13,1.84,1.35,3.09.97,3.42,2.3,7.52,1.65,11.26,2.61,31.51,8.04,58.37,24.01,81.04,47.21,1.13,1.16,1.97,2.87,4.18,2.77,1.52-2.36,3.4-4.61,3.52-7.71,3.26-4.37,5.13-9.44,6.87-14.49,12.42-35.99,12.57-72.08-.56-107.83-10.38-28.25-28.16-51.23-52.22-69.38-21.03-15.87-44.34-25.6-70.8-27.24-8.91-.55-17.58.25-25.72,4.29-13.75,5.2-18.03,21.29-15.82,33.64,1.78,9.94,5.53,19.21,9.29,28.5,4.85,11.98,10.79,23.57,12.85,36.54.72,4.52,1.08,9,.4,14.47-7.37-4.7-12.13-11.09-18.92-14.78-31.66-21.19-66.16-32.44-104.58-29.33-13.19,1.07-26.22,3.32-37.97,10.11ZM655.88,1077.79c-4.74,11.02-7.34,22.89-14.83,33.92,15.76-.2,29.9.06,44.08-1.15,23.77-2.01,47.04-6.53,69.58-14.03,30.83-10.26,59.53-25.03,85.83-44.21,9.04-6.6,18.4-12.88,25.71-21.58,6.77-4.1,12.2-9.81,17.52-15.47,34.31-36.42,61.23-77.44,78.08-124.88,15.29-43.07,21.07-86.89,12.39-132.14-.38-1.98-.26-4.05-.4-6.72,10.68,7.49,18.19,17.41,28.45,23.85,1.94-1.76,1.21-3.56,1.15-5.16-.38-11.58-3.22-22.73-6.06-33.89-9.89-38.94-30.33-72.36-54.19-104.02-2.19-2.91-4.71-4.71-8.86-3.52.71,2.57,1.33,4.91,1.99,7.23,3.91,13.83,5.2,27.89,3.6,42.19-.47,4.21-1.45,8.2-4.46,11.4-4.13,1.81-8.34,2.25-12.85,1.49-13-2.18-24.83-7.14-35.79-14.35-1.72-1.13-3.11-3.16-5.88-2.47-.35,16.33-4.03,31.94-10.46,46.89-2.71,6.31-6.01,12.33-11.16,17.07-4.87,4.48-6.59,4.81-12.37,1.86-12.65-6.46-25-13.4-35.78-22.82-1.34-1.17-2.51-3.09-5.57-2.13,2.67,9.59,5.98,18.99,7.98,28.72-.06.73-.31,1.51-.14,2.18,3.75,14.71,5.44,29.71,6.34,44.81,1.51,25.42-1.25,50.21-10.86,74.03-5.26,13.03-12.98,24.58-20.85,36.07-3.3.92-5.06,3.76-7.28,5.96-12.44,12.34-26.96,21.15-43.91,25.61-18.75,4.94-36.92,4.2-53.51-7.16-3.71-2.54-6.87-2.33-10.84-.37-15.47,7.64-31.44,13.87-49.15,12.93-4.84-.26-8.16,1.32-11.44,4.89-14.1,15.37-30.56,27.49-50.28,34.78-6.89,2.55-14.02,5.4-21.41,3.92-5.84-1.17-10.3.31-15.16,3.17-29.61,17.46-61.34,26.71-96.02,23.94-1.22-.1-2.45-.21-3.67-.16-1.58.06-3.45-.82-4.91,1.9,12.46,17.93,25.99,35.15,44.73,48.24,7.87-25.62,11.23-32.17,18.2-35.63,0,2.25.31,4.48-.05,6.61-2.09,12.3-3.78,24.63-4.84,37.09-1.42,16.79-.61,33.26,4.44,49.38,6.36,20.31,20.21,32.53,40.92,36.82,24.05,4.99,46.1-.52,66.68-13.3,25.25-15.69,44.42-37.38,61.07-61.59,1.42-.08,2.83-.16,4.25-.23ZM624.92,602.9c5.14-.1,10.29-.43,15.43-.26,14.16.47,27.07,4.38,37.16,14.93,2.59,2.71,5.09,2.99,8.53,2.05,10.31-2.8,20.79-2.98,31.33-1.33,1.28.2,2.74,1.05,4.11-.63-3.52-6.59-7.68-12.95-10.03-20.23-5.44-16.85-6.41-34.06-4.76-51.56,1.61-17.1,4.97-33.91,8.33-50.71,1.04-5.21-.29-7.81-4.65-10.6-16.61-10.61-31.93-22.76-43.02-39.46-2.02-3.04-4.07-6.05-6.35-9.45-6.31,7.19-9.41,15.98-15.09,23.21-2.39-14.1-.12-26.84,10.09-37.29,9.09-9.3,19.41-13.08,27.76-10.4-1.75,3.51-5.68,5.18-7.64,8.72,20.96,1.82,43.14-8.09,56.98-25.38,7.51-9.38,13.97-19.52,20.8-29.39,10.31-14.89,24.02-25.17,41.97-28.66,6.81-1.33,11.92-3.12,12.22-11.08.04-1.16.75-2.33,1.28-3.42,4.7-9.6,14.03-10.39,20.31-1.77,2.95,4.06,4.45,8.68,5.49,13.5.36,1.66.3,3.73,2.19,4.36,4.95,1.64,9.7,4.25,15.59,4.05-3.56-21.12-10.73-40.28-20.36-58.9-6.74,4.19-10.37,9.76-14.13,15.19-3.07,4.44-6.18,8.84-10.15,12.54-2.37,2.21-4.99,3.97-8.26,4.52-3.53.59-6.18-1-8.35-3.58-2.16-2.55-1.25-5,.35-7.38,4.27-6.36,6.79-13.55,9.74-20.54,2.47-5.86,5-11.65,8.84-16.86,2.03-2.76,6.98-4.09,5.9-8.28-.9-3.49-4.47-5.69-6.99-8.36-4.22-4.47-8.75-8.59-13.69-12.23-2.3-1.7-4.26-4.02-7.38-4.52-2.28,1.92-2.4,4.8-3.3,7.25-3.8,10.39-8.58,20.31-14.47,29.65-4.43,7.02-6.72,7.23-12.41,1.5-1.9-1.91-3.65-3.97-5.5-5.93-29.59-31.36-65.01-50.83-108.81-52.69-16.46-.7-32.72,1.02-48.31,6.89-2.85-.39-5.2,1.16-7.68,2.09-21.23,7.97-39.25,20.52-55.06,36.86-26.69,27.59-41.48,60.68-47.9,98.04-2.12,12.34-2.59,24.8-3.49,37.25-.73,10.06-.85,20.08-.43,30.1.99,23.48,3.05,46.89,4.39,70.35,1.16,20.14,1.09,40.14-1.87,60.06-2.93,19.7-8.14,38.77-17.18,56.67-6.75,13.36-14.17,26.29-23.27,38.22-1.21,1.59-3.68,3.34-2.43,5.6,1.2,2.17,3.98,1.28,6.12,1.39,9.97.51,19.45-1.86,28.66-5.32,17.24-6.47,31.84-17.09,45.36-29.35,2.26-2.05,4.03-4.78,7.62-6.07-1.8,22.51-1.39,44.21,6.91,65.22,1.8-.96,2.23-2.15,2.73-3.25,6.02-13.29,14.49-24.99,23.84-36.04,13.19-15.59,29.07-27.64,48.25-34.98,4.74-1.81,9.76-2.9,14.64-4.32ZM909.13,606.99c.57-.43.8-.73.94-.69,2.13.58,4.23,1.22,6.36,1.81,13.54,3.79,27.27,5.97,41.38,4.62,3.61-.35,7.3-.41,11-3.86-22.56-19.75-42.17-41.77-57.97-67.05-15.95-25.52-26.11-53.45-33.84-82.68-1.5.87-2.22,1.12-2.72,1.6-10.68,10.07-21.19,20.35-33.2,28.87-2.46,1.75-2.03,3.55-1.13,5.67,3.08,7.31,7.83,13.54,12.76,19.66,5.7,7.05,11.71,13.89,16.94,21.28,9.47,13.39,14.43,28.28,12.92,44.92-1.5,16.62-12.71,33.98-32.32,38.34-9.86,2.19-19.54,1.75-28.61-2.99-3.11-1.62-4.87-1.48-6.19,1.86-.44,1.12-1.27,2.09-1.93,3.12-8.71,13.71-20.91,21.67-37.32,22.89-2.25.17-4.78-.26-7.57,1.75,9.38,10.06,16.02,21.47,23.16,32.54.26.41.59.78.92,1.14,15.43,17.01,33.06,31.32,52.97,42.78,5.52,3.18,5.56,3.07,8.85-2.64,7.63-13.26,10.81-27.77,11.77-42.83.68-10.68,1.76-21.37.23-32.66,4.01,1,6.1,3.51,8.5,5.45,11.87,9.54,23.95,18.81,38.27,24.41,12.79,5,12.48,5.06,12.43-8.14-.06-16.69-4.51-32.41-11.55-47.46-1.82-3.89-4.03-7.65-5.05-11.72ZM746.62,1120.72c1.26,1.7,1.57,2.38,2.09,2.79,20.07,15.74,42.2,25.76,68.37,23.53,21.26-1.82,38.25-11.11,49.48-29.82,6.02-10.02,9.1-21.05,11.42-32.34,2.4-11.74,2.06-23.56,1.44-37.48-39.53,34.8-83.51,58.1-132.81,73.32ZM689.45,446.9c-.2.28-.41.56-.61.84.81.9,1.59,1.85,2.45,2.71,16.93,16.87,36.94,28.88,59.08,37.57,9.17,3.6,18.59,6.37,28.41,6.97,14.6.9,28.09-3.3,40.7-10.44,16.13-9.13,30.04-21.09,42.91-34.29,1.78-1.83,3.92-3.55,4.74-6.11-1.72-1.15-3.2-.7-4.6-.61-11.76.78-23.29,3.01-34.78,5.48-20.08,4.31-39.97,9.46-60.53,11.39-22.87,2.15-44.91-.8-66.33-8.88-3.84-1.45-7.62-3.08-11.43-4.62ZM1011.39,1234.83c9.01,9.09,14.84,18.55,17.53,29.77.45,1.86,1.24,2.99,3.42,2.96,6.25-.09,12.51-.03,18.94-.03-4.36-18.23-20.1-31.26-39.88-32.7Z"/>
      <path class="cls-2" d="M117.59,717.33c.82-2.2,3.13-2.8,4.6-4.3.07.84.14,1.68.22,2.52-.88.94-1.38,2.27-2.77,2.67-.68-.3-1.36-.59-2.05-.89Z"/>
      <path class="cls-2" d="M158.6,867.14c.34-1.67,1.24-2.88,3.22-3.68.19,1.89.45,3.55-.97,4.98-.74-.44-1.49-.86-2.24-1.29Z"/>
      <path class="cls-2" d="M595.69,220.37c15.59-5.87,31.85-7.58,48.31-6.89,43.81,1.86,79.22,21.32,108.81,52.69,1.85,1.96,3.6,4.02,5.5,5.93,5.69,5.73,7.98,5.53,12.41-1.5,5.9-9.35,10.67-19.26,14.47-29.65.9-2.45,1.02-5.33,3.3-7.25,3.11.5,5.08,2.82,7.38,4.52,4.94,3.65,9.47,7.77,13.69,12.23,2.52,2.67,6.09,4.87,6.99,8.36,1.08,4.19-3.87,5.52-5.9,8.28-3.84,5.22-6.37,11-8.84,16.86-2.95,6.99-5.47,14.18-9.74,20.54-1.6,2.39-2.51,4.83-.35,7.38,2.18,2.57,4.82,4.16,8.35,3.58,3.27-.54,5.89-2.31,8.26-4.52,3.97-3.7,7.08-8.1,10.15-12.54,3.75-5.43,7.39-11,14.13-15.19,9.63,18.62,16.79,37.78,20.36,58.9-5.89.2-10.64-2.41-15.59-4.05-1.89-.63-1.84-2.7-2.19-4.36-1.04-4.82-2.53-9.44-5.49-13.5-6.28-8.62-15.61-7.84-20.31,1.77-.54,1.1-1.24,2.26-1.28,3.42-.3,7.96-5.41,9.75-12.22,11.08-17.95,3.5-31.66,13.77-41.97,28.66-6.83,9.87-13.29,20.01-20.8,29.39-13.85,17.29-36.02,27.2-56.98,25.38,1.96-3.54,5.89-5.21,7.64-8.72-8.35-2.68-18.67,1.1-27.76,10.4-10.21,10.45-12.48,23.19-10.09,37.29,5.68-7.24,8.78-16.03,15.09-23.21,2.28,3.4,4.33,6.41,6.35,9.45,11.09,16.69,26.41,28.84,43.02,39.46,4.36,2.78,5.69,5.39,4.65,10.6-3.36,16.8-6.73,33.61-8.33,50.71-1.64,17.51-.68,34.71,4.76,51.56,2.35,7.28,6.51,13.64,10.03,20.23-1.38,1.68-2.83.83-4.11.63-10.54-1.65-21.02-1.47-31.33,1.33-3.45.93-5.94.66-8.53-2.05-10.09-10.55-23-14.46-37.16-14.93-5.13-.17-10.29.16-15.43.26-2.15-8.31-4.42-16.59-7.56-25.73-3.84,5.53-6.86,9.92-9.91,14.28-7.16,10.22-16.06,18.37-27.56,23.54-6.01,2.7-6.15,2.89-7.99-3.45-3.27-11.27-5.35-22.79-5.72-34.54-.24-7.68-.05-15.38-.05-23.07-2.89,1.83-4.4,3.94-5.81,6.11-9.19,14.18-21.81,24.25-37.2,30.98-1.07.47-2.26,1.31-3.35.18-.95-.99-.69-2.29-.39-3.48.59-2.37,1.23-4.72,1.87-7.07,4.53-16.58,6.56-33.47,6.7-50.65.14-16.15-1.13-32.17-2.63-48.25-.97-10.45-2.37-20.85-3.68-31.23-2.61-20.63-4.55-41.22-4.24-62.05.19-12.72.28-25.44,1.86-38.06,2.22-17.75,6.95-34.91,13.05-51.71,4.88-13.44,11.78-25.81,20.01-37.41,10.17-14.33,23.65-25.26,37.72-35.52,2.07-1.51,5.05-2.27,5.64-5.39ZM706.06,332.83c3.59.67,6.2,1.34,8.85,1.63,7.37.79,14.24-.53,19.7-5.9,3.97-3.91,3.15-7.3-2.05-8.96-7.79-2.49-14.76-6.5-21.34-11.24-5.76-4.15-11.39-8.47-17.12-12.67-8.9-6.54-18.06-12.65-28.45-16.61-19.14-7.29-39.36-2.15-52.63,13.35-1.42,1.65-2.81,3.49-3.6,5.48-1.41,3.54.45,6.44,4.23,6.82,1.66.17,3.39-.3,5.09-.44,8.31-.71,16.59-1.07,24.87.56,15.4,3.02,28.85,10.55,42.25,18.17,1.32.75,3.37,1.06,3.43,3.26-9.94,4.71-13.67,8.8-16.32,18.33-1.51,5.45-2.24,11.01-1.3,16.7.54,3.25.9,6.52,1.32,9.67-2.82.91-4.93,0-7.08-.25-17.64-2.04-34.07,1.39-49.17,10.88-3.29,2.07-6.36,4.32-7.68,8.66,3.95.32,7.18-.98,10.45-1.73,17.59-4.02,35.26-5.5,53.16-2.29,11.63,2.09,22.7,5.82,33.43,10.73,2.47,1.13,4.88,3.41,8.03,1.8-.9-6-5.7-8.81-9.67-12.16,12.92-12.68,13.51-31.28,1.6-53.79Z"/>
      <path class="cls-2" d="M935.45,689.62c3.01-3.21,3.99-7.19,4.46-11.4,1.6-14.31.31-28.36-3.6-42.19-.66-2.33-1.28-4.66-1.99-7.23,4.15-1.19,6.67.61,8.86,3.52,23.86,31.66,44.3,65.08,54.19,104.02,2.84,11.16,5.67,22.3,6.06,33.89.05,1.6.79,3.4-1.15,5.16-10.26-6.44-17.77-16.35-28.45-23.85.15,2.67.02,4.74.4,6.72,8.68,45.26,2.91,89.07-12.39,132.14-16.84,47.43-43.77,88.46-78.08,124.88-5.33,5.66-10.75,11.37-17.52,15.47,6.01-7.33,12.24-14.49,17.98-22.02,6.16-8.08,13.2-15.58,17.34-25.06,1.23-.63,1.45-1.74,1.43-2.98.18-.06.38-.08.52-.19.09-.06.09-.25.13-.37-.2.2-.4.41-.59.61-1.21.59-1.59,1.63-1.51,2.9-2.25-.1-3.5,1.51-4.91,2.85-7.28,6.93-15.13,13.2-23.57,18.6-15.9,10.18-32.7,18.67-50.12,25.98-29.69,12.44-60.91,17.19-92.77,18.65-8.55.39-16.95-1.58-25.42-2.59-15.7-1.88-30.5-6.46-44.63-13.5-13.87-6.9-24.82-17.32-34.99-28.66-3.94-4.39-3.6-5.46,1.41-8.06,8.71-4.54,16.68-10.12,24.46-16.1,6.27-4.82,11.54-10.57,17.09-16.09,1.62-1.61,2.96-2.72,5.7-1.85,10.76,3.4,22,2.56,32.79,1.28,21.76-2.58,40.3-12.63,56.15-27.8,9.47-9.06,16.36-20.05,23.92-30.55.97-1.35,1.9-2.91,1.42-4.78,7.87-11.49,15.59-23.03,20.85-36.07,9.61-23.83,12.38-48.62,10.86-74.03-.9-15.1-2.59-30.1-6.34-44.81-.17-.67.08-1.45.14-2.18.9.34,2.01.45,2.67,1.05,10.01,9.15,21.75,15.6,33.75,21.62,5.98,3,7.09,2.99,11.64-1.44,9.31-9.08,16.93-19.4,22.41-31.29,4.24-9.2,7.56-18.68,9.32-29.01,1.59.92,2.63,1.51,3.66,2.13,8.38,5.01,16.78,9.98,26.35,12.5,4.92,1.29,6.31.81,7.35-4.04,1.84-8.54,4.2-17,4.73-25.79ZM858.98,913.77c-2-2.31-2.19-5.31-3.11-8.04-2.64-7.89-4.36-16.12-8.61-24.86-1.12,12.63.85,23.68,1.89,34.75.25,2.7,1.02,5.84,4.13,7.26,9.29-.92,16.2-6.07,22.35-12.58,12.03-12.76,19.04-28.25,24.19-44.73.55-1.77.4-3.88,2.69-5.1,1.35,2.01,2.63,4.06,4.04,6.01,5.35,7.44,10.72,7.48,16.35.08,3.28-4.32,5.72-9.14,7.46-14.24,3.57-10.46,5.52-21.24,6.02-32.31.52-11.52-2.57-22.43-5.27-33.42.12-.14.38-.38.35-.42-.2-.28-.45-.53-.69-.79-1.42-1.36-2.94-2.32-3.65.47-.35,1.37-.13,2.93.05,4.37,2.01,15.54-.1,30.78-3.47,45.88-1.69,7.56-4.05,14.97-9.3,22.16-6.9-9.08-12.05-18.68-19.86-26.81-1.17,7.68-1.92,14.75-3.37,21.67-4.87,23.29-15.02,43.86-32.2,60.65ZM926.06,776.02c-1.02,3.3-.98,5.49,1.72,6.84.23.12,1-.28,1.12-.58.87-2.41-.37-4.05-2.83-6.26Z"/>
      <path class="cls-3" d="M535.54,784.83c-.07-1.38-.14-2.77-.21-4.15.4-.37.81-.73,1.21-1.1.52-1.88,1.26-3.73,1.53-5.64,2.57-18.16,6.85-35.88,13.08-53.14,9.58-26.51,22.81-50.6,44.69-69.23,10.27-8.75,21.74-15.08,34.92-17.51,5.72-1.05,12.03-2.2,17.74,1.11-5.44,4.76-11.9,8.23-17.01,13.42-1.54,1.57-3.51,1.38-5.42,1.52-5.31.4-10.59,1.02-15.66,2.78-1.86.1-3.85.26-4.08,2.61-.14,1.53,1.3,1.53,2.44,1.56,3.43,1.17,6.86,2.34,10.57,3.61-2.66,7.42-9.13,13.33-8.58,22.79,9.07-6.04,14.76-15.06,24.06-19.48.45.59,1.16,1.29,1.77.88,3.27-2.26,7.17-3.11,10.63-4.9,13.08-6.76,27.33-9.12,41.7-9.98,17.43-1.04,32.4,5.53,45.35,17.15,12.44,11.16,20.57,25.42,28.68,39.63,11.47,20.1,18.71,41.96,24.64,64.19,4.08,15.29,7.64,30.75,8,46.74.22,10.03-.39,20.01-1.37,29.97-3.05,13.4-9.28,25.19-17.97,35.76-2.32-4.63-.84-9.57-1.12-14.36-.43-7.37-2.92-13.73-7.98-19.14-6.99-7.47-16.04-10-25.74-10.39-16.49-.67-30.99,5.99-44.94,13.63-9.87,5.4-19.73,10.75-30.22,14.81-14.67,5.66-29.68,9.79-45.66,8.22-6.53-.64-13.11-1.22-19.24-3.8-16.91-7.14-29.99-18.91-40.7-33.61-3.3-4.53-4.79-10.16-8.94-14.12-.3-1.17-.39-2.46-.93-3.5-5.74-11.01-9.98-22.58-13.09-34.58-.27-1.04-1.2-1.44-2.15-1.74ZM682.19,673.08c.01,12.41,13.78,27.02,26.14,28.32,14.32,1.51,18.08-8.29,16.58-17.85-2.23-14.2-17.58-24.97-28.06-25.07-11.59-.11-15.44,6.12-14.66,14.6ZM735.44,714.19c-.14-4.68-4.1-8.84-8.15-8.55-4.35.3-7,3.33-6.83,7.79.18,4.61,3.98,8.51,8.28,8.51,4.29,0,6.85-2.96,6.7-7.74Z"/>
      <path class="cls-6" d="M901.57,983.65c-4.14,9.49-11.19,16.99-17.34,25.06-5.74,7.53-11.96,14.7-17.98,22.02-7.31,8.7-16.66,14.98-25.71,21.58-26.3,19.19-55,33.96-85.83,44.21-22.54,7.5-45.82,12.02-69.58,14.03-14.19,1.2-28.33.94-44.08,1.15,7.49-11.03,10.1-22.9,14.83-33.92.75-1.61,2.16-3.16.65-5.21-2.44,1.35-4.06,3.05-4.9,5.44-16.64,24.21-35.81,45.9-61.07,61.59-20.58,12.79-42.63,18.3-66.68,13.3-20.71-4.3-34.56-16.52-40.92-36.82-5.05-16.12-5.86-32.6-4.44-49.38,1.06-12.46,2.74-24.79,4.84-37.09.36-2.12.05-4.36.05-6.61-6.97,3.45-10.33,10-18.2,35.63-18.74-13.09-32.28-30.31-44.73-48.24,1.45-2.72,3.33-1.83,4.91-1.9,1.22-.05,2.45.06,3.67.16,34.69,2.77,66.41-6.48,96.02-23.94,4.86-2.86,9.31-4.34,15.16-3.17,7.39,1.48,14.52-1.37,21.41-3.92,19.72-7.29,36.18-19.41,50.28-34.78,3.28-3.57,6.6-5.14,11.44-4.89,17.72.94,33.68-5.29,49.15-12.93,3.97-1.96,7.13-2.16,10.84.37,16.6,11.36,34.76,12.09,53.51,7.16,16.96-4.46,31.47-13.28,43.91-25.61,2.22-2.2,3.98-5.04,7.28-5.96.48,1.87-.45,3.43-1.42,4.78-7.56,10.5-14.46,21.49-23.92,30.55-15.85,15.17-34.39,25.23-56.15,27.8-10.78,1.28-22.03,2.12-32.79-1.28-2.75-.87-4.08.24-5.7,1.85-5.55,5.51-10.82,11.27-17.09,16.09-7.78,5.98-15.76,11.57-24.46,16.1-5,2.61-5.35,3.67-1.41,8.06,10.17,11.34,21.12,21.76,34.99,28.66,14.13,7.03,28.93,11.62,44.63,13.5,8.46,1.01,16.87,2.98,25.42,2.59,31.86-1.46,63.09-6.21,92.77-18.65,17.42-7.3,34.22-15.8,50.12-25.98,8.44-5.4,16.29-11.67,23.57-18.6,1.41-1.34,2.66-2.95,4.91-2.85,0,0,.04.03.04.03Z"/>
      <path class="cls-6" d="M663.14,199.64c-1.39-.16-2.78-.31-4.17-.47-.32-1.26-.95-2.14-2.34-2.49-8.76-2.18-17.67-4.09-26.63-4.36-19.03-.57-38.2-1.41-56.92,3.04-5.24,1.25-8.32-.16-11.32-3.84-7.8-9.54-18.41-14.11-29.99-17.15-12.96-3.4-26.15-5.95-38.18-12.47-14.01-7.59-23.12-18.58-25.79-34.35-.64-3.78-1.59-4.75-4.99-3.16-1.77.83-3.62,1.48-5.4,2.28-4.67,2.09-8.92,5.21-14.21,5.75,4.97-11.68,14.74-17.85,25.85-22.46.86,3.6-2.46,6.94-.94,10.7.94,0,1.69.18,2.3-.03,10.42-3.59,21.17-5.51,32.09-6.84,21.5-2.62,42.82-1.44,64.01,2.64,13.24,2.55,25.66,7.77,38.32,12.17,2.06.72,4.31,2.93,6.76.58,6.79,3.7,11.55,10.09,18.92,14.78.68-5.47.32-9.95-.4-14.47-2.06-12.97-8-24.57-12.85-36.54-3.76-9.29-7.51-18.56-9.29-28.5-2.21-12.35,2.07-28.44,15.82-33.64,3.12,1.9,6.69.94,10.03,1.52,18.33,3.16,35.16,9.95,50.92,19.73,19.75,12.25,37.14,27.2,50.61,46.13,27.86,39.17,37.69,83.01,32.67,130.57-.59,5.56-2.06,11.05-1.8,16.71-.12,3.1-2,5.36-3.52,7.71-2.21.1-3.05-1.61-4.18-2.77-22.67-23.2-49.53-39.17-81.04-47.21-3.74-.95-7.85-.31-11.26-2.61-.81-1.02-1.88-1.22-3.09-.97Z"/>
      <path class="cls-6" d="M1128.08,511.46c10.02,2.13,19.8,5.45,29.99,6.72,29.52,3.68,56.64-.93,78.58-23.19,4.73-4.8,8.15-10.43,10.99-16.39,2.14-4.5,5.17-7.38,9.95-8.99,9.7-3.27,15.53-10.7,19.69-19.65.51-1.09.93-2.3,1.04-3.48.22-2.44-1.08-3.19-3.13-2.05-1.91,1.06-3.58,2.56-5.46,3.69-3.24,1.95-5.88,5.13-10.92,5.4,2.2-15.33,3.78-30.35-4.29-44.6-3.1,1.28-2.59,3.63-2.87,5.64-2.32,16.76-5.1,33.47-13.3,48.54-8.52,15.65-20.08,28.39-37.33,34.74-10.24,3.77-20.81,4.45-31.73,3.81-14.36-.85-27.97-4.38-41.36-9.22-1.15-.42-2.29-.86-3.41-1.35-6.43-2.76-6.64-2.85-4.2-9.49,2.96-8.08,2.05-16.44,2.38-24.72,11.46,3.25,22.44,7.79,34.52,9.39,15.74,2.08,30.69.76,45.11-5.48,8.77-3.79,15.47-10.2,19.75-18.87,2.71-5.48,5-11.18,7.89-16.56,4.54-8.46,10.25-16.07,18.31-21.51,4.03-2.72,8.2-5.56,13.3-5.73,9.91-.34,17.44,4.11,22.71,12.3,7.09,11,9.3,23.48,9.96,36.23.43,8.31-.04,16.66.11,24.99.11,5.77,1.86,7.04,7.64,6.22-1.57,11.79-6.12,22.67-10.74,33.43-7.88,18.37-18.2,35.23-32.96,49.03-13.57,12.69-29.94,19.21-48.13,21.51-20.54,2.59-40.48,0-59.8-7.44-5.29-2.04-10.5-4.4-14.72-8.14-3.05-2.7-6.12-3.43-10-3.29-25.28.96-49.19-4.81-71.47-16.43-19.42-10.13-35.81-24-46.78-43.4-6.96-12.31-11.43-25.43-11.4-39.78,0-1.69-.23-3.47,1.04-4.9,1.61-.35,2.47-1.58,3.29-2.84,3.47-.47,5.91,1.62,8.62,3.28,11.18,6.85,22.14,13.98,34.39,19.05,14.5,6,29.11,7.23,44.23,3.85,5.41-1.21,10.04-4.84,15.7-5.43-3.53,14.01-15.53,23.56-30.95,24.66-10.86.77-21.44-.5-31.81-3.87-2.21-.72-4.33-2.44-7.09-1.45-.29,2.79,1.56,4.4,3.19,6.13,15.95,16.96,42.82,20.18,62.5,7.48.82-.53,1.76-.93,2.46-1.59,2.58-2.46,4.64-1.77,6.8.68,6.16,7,12.09,14.14,15.05,23.21.98,2.99,1.85,6.03,4.08,8.98,4.06-5.5,3.73-11.18,2.91-17.04-.57-4.09-2.87-7.87-2.23-12.17l-.09.1Z"/>
      <path class="cls-2" d="M308.28,885.17c-.21-7.95,1.94-15.49,4.1-23,6.24-21.76,15.76-42.1,27.55-61.36,26.44-43.2,59.93-80.28,98.61-112.79,3.18-2.67,6.47-5.2,9.7-7.79.26.39.73.77.76,1.18.4,4.8.41,4.89,5.03,3.88,8.16-1.78,16.41-2.1,24.71-1.78,10.25.4,18.24,6.52,20.97,16.34,2.18,7.84,1.95,15.77,1.04,23.88-.77,6.8-3.4,13.17-3.71,20-6.43,3.51-12.93,6.91-19.27,10.57-8.12,4.69-15.45,10.48-20.94,18.13-2.68,3.73-5.81,5.17-10.27,5.83-23.61,3.5-43.49,14.16-59.37,32.09-2.05,2.32-4.09,4.65-5.74,8.96,20.78-12.95,40.91-24.05,64.78-24.2,1.24,2.33.19,3.87-.22,5.45-5.61,21.38-3.54,42.68.39,64.02,3.04,16.49,8.95,31.97,15.88,47.13,1.31,2.87,3.26,5.47,3.71,8.71-1.43.23-2.88.38-4.29.71-11.53,2.65-23.04,2.99-34.78,1.01-9.84-1.66-18.6-5.53-27.02-10.54-.24-.71-.46-.82-.56-.32-.01.05.39.18.61.28-.21,1.92,1.13,3.11,2.04,4.55,4.07,6.48,9.47,11.82,14.47,17.52,1.49,1.71,3.59,4.05,1.85,6.52-1.47,2.09-4.17,2.39-6.71,2.17-.97-.08-1.91-.38-2.87-.56-19.25-3.73-35.37-12.46-46.78-28.92-.95-1.38-1.86-3.59-5.1-2.55v15.04c-4.16-.65-5.33-3.68-6.72-6.04-12.17-20.68-12.02-43.03-7.81-65.55-2.25-.71-3.1.32-3.96,1.13-2.68,2.52-5.31,5.08-7.92,7.67-3.83,3.8-7.05,9.75-11.56,10.95-6.98,1.86-5.54,9.35-10.56,11.7Z"/>
      <path class="cls-3" d="M1302.01,477.85c-5.79.82-7.53-.45-7.64-6.22-.16-8.33.31-16.68-.11-24.99-.65-12.75-2.87-25.23-9.96-36.23-5.27-8.19-12.8-12.64-22.71-12.3-5.1.18-9.28,3.02-13.3,5.73-8.06,5.44-13.78,13.05-18.31,21.51-2.89,5.38-5.18,11.08-7.89,16.56-4.28,8.67-10.99,15.08-19.75,18.87-14.43,6.23-29.37,7.56-45.11,5.48-12.08-1.6-23.06-6.14-34.52-9.39-9.01-33.24-32.45-50.11-64.64-57.25-6.51-1.45-13.09-1.23-19.63-1.83,3.82-37.81,26.48-70.17,53.44-75.25-1.49,12.63,5.72,22.51,18.25,23.98,8.77,1.03,17.54.51,25.91-3.09,9.84-4.24,11.42-15.76,2.88-22.38-2.05-1.59-4.29-2.92-7.12-4.82,6.4,0,11.96-.56,17.38.11,11.82,1.47,23.34,4.53,34.86,7.53,23.55,6.14,45.79,15.51,66.76,27.73,18.39,10.72,33.67,24.85,45.26,42.98,3.8,5.94,6.23,12.58,10.44,18.23,2.46,14.24,2.06,28.51.44,42.78-.57,5.03-1.26,10.06-3.7,14.63-2.31,2.19-1.41,4.92-1.24,7.52l.03.12ZM1161.6,348.25v-.03c.98,0,1.97.1,2.93-.02,3.86-.47,5.97-2.49,6.3-5.9.34-3.49-1.27-5.67-5.11-6.97-2.15-.73-4.36-.7-6.52-.28-4.58.9-7.89,4.38-7.51,7.68.35,3.1,3.48,5.15,8.45,5.52.49.04.98,0,1.46,0Z"/>
      <path class="cls-6" d="M595.69,220.37c-.6,3.12-3.57,3.88-5.64,5.39-14.08,10.26-27.55,21.2-37.72,35.52-8.23,11.59-15.13,23.97-20.01,37.41-6.1,16.8-10.83,33.96-13.05,51.71-1.58,12.62-1.67,25.34-1.86,38.06-.31,20.83,1.64,41.42,4.24,62.05,1.31,10.37,2.7,20.78,3.68,31.23,1.5,16.08,2.77,32.1,2.63,48.25-.15,17.18-2.17,34.07-6.7,50.65-.64,2.35-1.28,4.71-1.87,7.07-.3,1.19-.56,2.49.39,3.48,1.09,1.13,2.28.28,3.35-.18,15.39-6.73,28.01-16.8,37.2-30.98,1.41-2.17,2.92-4.28,5.81-6.11,0,7.69-.2,15.39.05,23.07.37,11.75,2.45,23.27,5.72,34.54,1.84,6.34,1.98,6.15,7.99,3.45,11.5-5.17,20.41-13.32,27.56-23.54,3.05-4.36,6.07-8.74,9.91-14.28,3.13,9.14,5.41,17.42,7.56,25.73-4.89,1.42-9.91,2.51-14.65,4.32-19.18,7.34-35.06,19.39-48.25,34.98-9.35,11.06-17.82,22.75-23.84,36.04-.5,1.1-.93,2.28-2.73,3.25-8.3-21.01-8.71-42.71-6.91-65.22-3.59,1.29-5.36,4.02-7.62,6.07-13.52,12.26-28.12,22.87-45.36,29.35-9.22,3.46-18.69,5.83-28.66,5.32-2.14-.11-4.92.78-6.12-1.39-1.25-2.26,1.22-4.01,2.43-5.6,9.1-11.93,16.52-24.86,23.27-38.22,9.04-17.9,14.25-36.97,17.18-56.67,2.96-19.92,3.03-39.92,1.87-60.06-1.35-23.46-3.4-46.88-4.39-70.35-.42-10.01-.3-20.04.43-30.1.9-12.45,1.37-24.9,3.49-37.25,6.42-37.36,21.2-70.46,47.9-98.04,15.81-16.34,33.82-28.89,55.06-36.86,2.48-.93,4.82-2.48,7.68-2.09Z"/>
      <path class="cls-6" d="M371.86,635.19c6.53,8.68,10.38,18.72,14.31,28.69,3.95,10.01,6.86,20.38,9.87,30.71.86,2.97.59,5.2-1.62,7.29-7.29,6.89-13.26,15.05-20.87,21.63-5.82-7.67-8.24-17.08-13.16-25.28-11.46-19.09-22.8-37.98-40.07-52.81-9.87-8.48-19.84-16.64-30.99-23.28-20.69-12.33-42.6-20.36-67.25-19.71-12.91.34-24.62,3.73-35.16,10.83-12,8.09-21.07,19.07-27.33,31.99-3.57,7.37-6.68,15.2-6.7,23.74-3.59,3.11-8.25,4.08-12.35,6.17-6.72,3.42-13.44,6.84-20.17,10.25.07-2.45.36-4.79,1.1-7.19,6.31-20.47,16.76-38.46,32.09-53.45,6.03-5.89,12.62-11.21,19.01-16.84-1.44-1.16-2.65-.96-3.81-.65-23.83,6.44-44.38,18.69-62.59,35.2-17,15.41-30.48,33.63-42.37,53.05-12.15,19.85-21.74,40.86-27.91,63.44-1.7,6.23-2.74,12.89-6.5,18.48-.59-9.36,1.41-18.49,2.93-27.59,3.54-21.18,7.97-42.17,15.46-62.4,4.16-11.24,9-22.17,14.15-32.97.81-1.7,1.32-3.74,3.18-4.8,1.61-.38,2.22-1.49,2.27-3.04,0,0-.08.06-.08.06,1.66-.02,2.45-1.2,3.48-2.31,13.24-14.11,26.7-28.04,42.22-39.69,28.99-21.76,61.53-35.43,97.62-38.59,22.84-2,46.01-1.87,68.3,5.66,14.15,4.78,28.26,9.58,40.89,17.88,15.02,9.86,28.51,21.48,40.82,34.52,2.16,2.29,3.99,5,7.02,6.35,0,0-.08-.11-.08-.11.06,1.94,1.02,3,3,3.04,0,0-.08-.06-.08-.06.36.66-.4,2.18,1.36,1.77Z"/>
      <path class="cls-2" d="M909.13,606.99c1.02,4.07,3.23,7.82,5.05,11.72,7.05,15.04,11.5,30.77,11.55,47.46.05,13.2.35,13.14-12.43,8.14-14.32-5.6-26.41-14.87-38.27-24.41-2.4-1.93-4.49-4.45-8.5-5.45,1.53,11.29.45,21.98-.23,32.66-.96,15.06-4.14,29.57-11.77,42.83-3.29,5.71-3.33,5.82-8.85,2.64-19.91-11.47-37.54-25.77-52.97-42.78-.33-.36-.66-.74-.92-1.14-7.14-11.07-13.78-22.48-23.16-32.54,2.78-2.01,5.32-1.58,7.57-1.75,16.41-1.22,28.61-9.18,37.32-22.89.66-1.03,1.49-2,1.93-3.12,1.31-3.34,3.08-3.49,6.19-1.86,9.07,4.74,18.76,5.18,28.61,2.99,19.61-4.36,30.82-21.72,32.32-38.34,1.51-16.64-3.45-31.53-12.92-44.92-5.23-7.39-11.24-14.22-16.94-21.28-4.94-6.11-9.68-12.34-12.76-19.66-.9-2.12-1.33-3.93,1.13-5.67,12.01-8.53,22.52-18.8,33.2-28.87.5-.48,1.22-.73,2.72-1.6,7.73,29.23,17.9,57.17,33.84,82.68,15.79,25.28,35.41,47.3,57.97,67.05-3.7,3.44-7.39,3.51-11,3.86-14.12,1.35-27.84-.83-41.38-4.62-2.12-.59-4.23-1.23-6.36-1.81-.14-.04-.37.26-.94.69Z"/>
      <path class="cls-6" d="M1161.87,668.97c5.63-.01,11.27-.17,16.9-.01,11.32.31,22.46-1.05,33.53-3.28,7.73-1.56,8.37-.9,6.4,7.05-2.95,11.88-6.29,23.63-11,34.97-9.05,21.81-20.35,42.35-34.04,61.58-4.13,5.81-9.15,10.84-14.72,15.3-1.3,1.04-2.57,2.55-4.5,1.47-1.53-.85-1.33-2.55-1.31-3.95.08-9.05-.53-18.12.73-27.15.43-3.06.41-6.19-.27-9.59-4.79,7.85-9.49,15.76-14.38,23.55-10.02,15.99-19.93,32.08-34.28,44.75-7.36,6.49-14.95,12.76-24.2,16.39-2.98,1.16-6.69,3.82-9.51.73-2.32-2.54-.49-6.1.62-9.05,2.92-7.79,6.08-15.49,8.89-23.31.86-2.4,2.57-4.8,1.39-8.08-5.49,1.88-9.6,5.73-14.18,8.74-20.19,13.28-41.49,23.99-65.32,29.06-5.41,1.15-5.47,1.15-5.5-3.97-.05-8.09-.08-16.17.04-24.26.07-4.85.48-5.29,5.09-4.22,5.66,1.32,10.64.75,14.95-3.44,3.58-3.48,4.85-7.88,5.04-12.63.4-10.3.25-20.57-2.48-30.62-.31-1.15-.22-2.41-.32-3.63,7.44,4.56,15.56,3.75,23.36,2.04,15.96-3.5,29.7-11.71,42.38-21.76,1.92-1.53,3.87-2.93,6.12-3.9l.07.07c-1.16,5.34-4.43,9.72-6.66,14.57-1.84,4-3.8,7.94-3.8,12.48,0,4.71,1.2,5.82,5.64,5.09,1.19-.2,2.32-.73,3.49-1.07,12.03-3.48,21.94-10.52,30.87-18.94,13.64-12.86,23.69-28.42,32.31-44.91,3.37-6.46,7.29-12.73,8.66-20.08Z"/>
      <path class="cls-2" d="M1091.3,721.75c-2.25.97-4.2,2.38-6.12,3.9-12.68,10.05-26.42,18.27-42.38,21.76-7.8,1.71-15.92,2.52-23.36-2.04-4.94-20.74-11.31-40.99-20.17-60.44-7.13-15.66-16.06-30.23-25.66-44.44-1.3-1.92-3.24-3.53-3.51-6.3,3.48.15,6.19,1.85,9.06,3.05,16.02,6.7,32.51,8.65,49.57,4.96,9.58-2.07,17.88-6.57,24.95-13.25,2.46-2.32,4.28-2.43,6.84-.24,28.94,24.87,63.29,36.23,100.62,40.08.24.03.48.11.72.16-1.37,7.34-5.29,13.62-8.66,20.08-8.62,16.5-18.66,32.06-32.31,44.91-8.93,8.41-18.84,15.46-30.87,18.94-1.17.34-2.3.87-3.49,1.07-4.43.73-5.63-.39-5.64-5.09,0-4.55,1.96-8.48,3.8-12.48,2.23-4.85,5.5-9.23,6.66-14.57.21-.23.42-.46.63-.69-.23.21-.46.41-.7.62Z"/>
      <path class="cls-4" d="M443.19,132.43c5.29-.54,9.54-3.66,14.21-5.75,1.78-.8,3.63-1.45,5.4-2.28,3.4-1.58,4.35-.61,4.99,3.16,2.67,15.76,11.78,26.76,25.79,34.35,12.04,6.52,25.22,9.07,38.18,12.47,11.58,3.04,22.19,7.61,29.99,17.15,3.01,3.67,6.08,5.09,11.32,3.84,18.72-4.45,37.89-3.61,56.92-3.04,8.96.27,17.87,2.17,26.63,4.36,1.39.35,2.02,1.23,2.34,2.49-6.12.48-12.09-1.15-18.24-1.09-26.87.27-52.27,6.64-76.51,17.91-10.97,5.1-20.13,12.96-29.59,20.32-16.05,12.49-28.24,28.37-39.28,45.22-4.85,7.4-8.46,15.45-11.53,23.69-1.55,4.17-4.13,6.23-8.25,7.3-10.62,2.74-21.52,2.87-32.12,1.51-11.75-1.51-22.3-11.09-21.83-25.33.38-11.36,3.44-21.84,9.4-31.22,13.46-21.19,32.87-35.17,55.84-44.68,9.05-3.74,18.29-6.91,27.48-10.25,1.36-.49,3.1-.47,3.07-2.43-.03-1.67-1.35-2.52-2.74-3.11-9.94-4.18-20.22-7.39-30.47-10.69-10.04-3.24-19.96-6.82-28.48-13.24-7.33-5.52-13.64-11.74-15.36-21.52-1.2-6.84-.32-13.07,2.84-19.12Z"/>
      <path class="cls-4" d="M152.9,668.99c.02-8.53,3.14-16.37,6.7-23.74,6.26-12.92,15.33-23.9,27.33-31.99,10.54-7.1,22.25-10.49,35.16-10.83,24.65-.65,46.55,7.38,67.25,19.71,11.14,6.64,21.11,14.8,30.99,23.28,17.27,14.83,28.61,33.72,40.07,52.81,4.93,8.2,7.34,17.62,13.16,25.28-7.85,9.27-15.7,18.53-23.55,27.8-.44-5.85-4.74-9.38-8.26-13.24-10-10.96-20.85-21.01-33-29.59.89-2.11-.91-1.12-1.61-1.4l.08.08c.17-2.55-1.69-3.93-3.17-5.53-19.98-21.65-45.11-33.97-73.54-39.97-25.3-5.34-49.98-2.53-74.03,6.7-1.11.43-2.39.44-3.59.64Z"/>
      <path class="cls-6" d="M308.75,708.48c12.15,8.58,23,18.63,33,29.59,3.52,3.86,7.82,7.4,8.26,13.24-5.01,6.81-10.02,13.61-15.02,20.42-3.1-.2-4.09-3.24-6.17-4.81-15.66-11.86-33.38-19.22-52.08-24.5-7.5-2.12-15.17-4.13-22.94-4.32-10.96-.27-21.91-.62-32.93,1.11-15.01,2.36-28.68,7.85-41.82,15.05-2.4,1.31-4.3,3.27-5.64,5.66-3.48,6.23-6.02,12.82-7.46,19.83-3.19,15.44-3.34,31.04-2.67,46.7-3.82,4.11-7.39,8.46-12,11.76-.21-1.43-.2-2.94-.68-4.27-3.83-10.72-4.65-21.55-2.59-32.81,2.14-11.73,5.76-22.9,10.64-33.72.16-.08.36-.13.48-.24.08-.07.07-.25.1-.38l-.6.6c-3.71.24-6.22,2.54-8.67,4.98-8.51,8.47-15.19,18.39-22.26,28-8.6,11.68-15.48,24.23-20.47,37.85-3.77,10.28-7.11,20.67-10.01,31.24-3.76,13.67-6.85,27.39-6.36,41.7.07,2.12.59,4.46-1.29,6.23-1.17-2.24-1.31-4.68-1.37-7.13-.64-26.86-1.23-53.73,4.29-80.25,1.74-8.35,4.08-16.57,6.26-24.82.33-1.26.51-2.98,2.41-3.22,3.75-2.56,5.54-6.7,7.54-10.42,11.67-21.7,26.23-40.96,44.98-57.15,12.94-11.17,27.29-19.77,43.05-25.96,12.02-4.72,24.4-7.9,37.47-9.31,14.29-1.54,28.16-.33,42.17,1.64,8.29,1.17,16.08,4,23.98,6.51,1.75.55,3.52,2.16,5.31.05.53-.05,1.05-.11,1.58-.16,0,0-.08-.08-.08-.08.54.47,1.07.94,1.61,1.4Z"/>
      <path class="cls-6" d="M768.91,629.18c-5.86.36-11.09-1.69-16-4.52-17.46-10.02-27.44-25.13-30.85-44.94-3.09-17.93-.74-35.57,2-53.22,1.24-7.96,2.68-15.89,3.99-23.84.36-2.18.71-4.33,2.1-6.53,7.16,2.98,14.16,6.42,21.62,8.7,9.38,2.87,18.8,5.09,28.71,5.36,14.27.39,27.63-2.76,40.43-8.85,1.72-.82,3.54-3.3,5.48-.22-1.36,1.15-.97,2.53-.66,4.01,2.6,12.11,8.03,22.94,15.27,32.83,8.24,11.26,13.73,23.18,14,37.58.21,11.54-2.25,21.53-10.62,29.71-5.16,1.09-10.22.53-15.09-1.3-6.11-2.29-7.61-4.37-7.33-10.91.51-12.2-2.24-23.69-7.01-34.81-4.43-10.33-11.73-18.46-19.74-26.06-1-.95-2.03-1.27-3.02.03-2.41.51-2.01,2.06-1.75,3.93,2.26,16.33,6.92,32.46,3.89,49.25-1.92,10.61-3.77,21.11-10.11,30.29-4.03,5.83-9.86,9.37-15.29,13.5Z"/>
      <path class="cls-2" d="M909,430.17c-16.48-2.81-33.03-3.62-49.68-1.87-18.78,1.98-37.17,6.07-55.56,10.2-16.27,3.66-32.66,6.69-49.34,7.29-20.79.75-40.79-3.16-59.98-11.52,1.26-2.61,3.53-2.05,5.3-2.46,19.93-4.55,36.17-14.54,47.59-31.85,4.59-6.95,9.4-13.75,14.12-20.61,5.45-7.92,11.59-15.2,19.55-20.74.98-.68,1.88-1.6,3.25-1.43,1.23,1.1,2.74.81,4.19.83,20.26.24,39.57,4.35,58.37,12.23,20.23,8.48,38.03,19.93,52.61,36.4,5.08,5.74,9.23,11.95,12.6,18.82,1.87,3.83-.82,3.92-3.02,4.7ZM796.23,371.82c-3.04-.18-5.9.34-8.33,2.22-2.65,2.05-3.24,4.92-2.2,7.9.98,2.82,3.53,4.59,6.32,3.92,6.11-1.46,12.02-1.38,18.01.32,1.13.32,2.47.2,3.3-.95,1.03-1.42.58-2.9-.34-4.06-4.3-5.4-9.94-8.48-16.77-9.36ZM868.8,391.88c.13-2.87-3.5-5.92-7.2-6.07-2.94-.12-5.53,1.98-5.64,4.59-.13,2.97,3.27,5.81,7.17,6,2.96.14,5.55-1.92,5.67-4.51Z"/>
      <path class="cls-6" d="M308.28,885.17c5.02-2.35,3.58-9.84,10.56-11.7,4.5-1.2,7.73-7.16,11.56-10.95,2.61-2.59,5.25-5.15,7.92-7.67.86-.81,1.71-1.83,3.96-1.13-4.2,22.52-4.36,44.87,7.81,65.55,1.39,2.36,2.56,5.39,6.72,6.04v-15.04c3.24-1.04,4.15,1.17,5.1,2.55,11.41,16.45,27.54,25.19,46.78,28.92.96.19,1.9.48,2.87.56,2.54.22,5.24-.08,6.71-2.17,1.74-2.48-.36-4.82-1.85-6.52-5-5.7-10.4-11.04-14.47-17.52-.91-1.44-2.25-2.63-2.04-4.55l-.04.04c8.42,5.01,17.18,8.88,27.02,10.54,11.74,1.98,23.25,1.64,34.78-1.01,1.41-.32,2.86-.47,4.29-.71,5.66,7.64,11.34,15.27,16.98,22.92,6.31,8.55,13.55,16.11,22.65,21.77,1.61,1,3.42,1.95,4.57,4.2-.81,2.4-3.33,3.06-5.37,4.1-16.12,8.14-33.21,12.84-51.14,15.05-27.09,3.33-51.48-3.4-73.58-18.95-5.55-3.9-10.61-8.49-16.54-13.3.13,7.01,2.23,12.96,3.2,19.06.47,2.93.88,5.82.7,8.76-.22,3.66-1.74,4.77-5.24,3.75-2.6-.76-4.98-2.11-7.06-3.85-5.67-4.76-10.66-10.11-14.2-16.7-7.76-14.43-12.31-29.62-13.57-46.11-.94-12.36-.03-24.41,1.54-36.55.28-2.16.04-4.38.04-7.18-4.88,2.6-6.64,7.6-9.99,11.08-3.48,3.61-6.17,8.05-11.37,11.64-.5-5.65-1.26-10.29.68-14.92Z"/>
      <path class="cls-6" d="M551.72,824.65c4.15,3.96,5.64,9.6,8.94,14.12,10.72,14.7,23.8,26.47,40.7,33.61,6.13,2.59,12.71,3.16,19.24,3.8,15.98,1.57,30.99-2.56,45.66-8.22,10.49-4.05,20.35-9.4,30.22-14.81,13.96-7.64,28.45-14.3,44.94-13.63,9.7.39,18.75,2.93,25.74,10.39,5.06,5.41,7.55,11.77,7.98,19.14.28,4.79-1.2,9.73,1.12,14.36-12.72,16.01-28.55,27.4-48.76,31.76-8.73,1.88-17.56,1.2-26.04-2.02-5.56-2.11-5.86-3.54-1.56-7.26.18-.16.43-.26.59-.43,6.48-7.1,13.68-11.18,24.15-10.76,8.81.35,17.1-3.94,23.31-10.93.95-1.07,2.23-2.03,1.28-4.59-8.57.84-17.2,4.57-26.67,2.49,1.79-7.05,6.31-13.2,6.6-20.69-3.09-.89-4.2,1.47-5.62,2.82-8.68,8.3-17.2,16.79-26.89,23.92-16.64,12.23-33.9,23.36-54.27,28.52-13.12,3.33-26.07,3.85-38.82-1.75-7.79-3.43-14.48-8.53-19.97-14.73-11.03-12.48-21.45-25.53-28.3-40.95-1.49-3.35-2.76-6.79-4.13-10.19.08-.86-.32-1.44-1.06-1.82-.17-.39-.29-.79-.36-1.21.2-4.14.48-8.31-4.21-10.5-.15-.4-.24-.81-.26-1.23-.34-4.8,3.49-6.67,6.43-9.17Z"/>
      <path class="cls-4" d="M163.28,826.44c-.67-15.65-.52-31.26,2.67-46.7,1.45-7,3.99-13.6,7.46-19.83,1.33-2.39,3.24-4.35,5.64-5.66,13.15-7.2,26.81-12.69,41.82-15.05,11.01-1.73,21.97-1.38,32.93-1.11,7.77.19,15.43,2.19,22.94,4.32,18.7,5.29,36.42,12.64,52.08,24.5,2.07,1.57,3.06,4.61,6.17,4.81-7.66,12.38-15.32,24.77-22.99,37.15-.53-1.61-.89-3.56-2.7-4.08-4.43-1.28-8.28-3.86-12.74-5.17-7.27-2.14-14.67-2.75-22.11-3.38-.54-3.36-3.71-3.1-5.72-3.47-13.78-2.51-27.49-2.12-41.32.5-24.76,4.69-45.08,17.61-64.12,33.17Z"/>
      <path class="cls-3" d="M478.07,899.78c-8.55-14.26-12.27-30.1-14.91-46.23-2.29-13.97-2.78-28.01-.39-42.05.22-.11.55-.17.64-.34,8.78-16.92,24.34-25.38,40.87-32.52,4.21-1.82,5.48-1.06,6.62,3.71,1.01,4.25,1.53,8.62,2.18,12.95,1.74,11.65,4.95,22.86,10.14,33.46.93,1.9,1.38,4.32,4.05,4.79,4.4,12.21,8.91,24.38,14.2,36.25-.08,1.46-.59,3.05-.16,4.33,1.93,5.73,1.27,11.6,1.24,17.41-.05,8.39-4.29,14.85-10.45,20-14.57,12.16-34.89,7.86-45.02-3.2-2.07-2.26-3.8-5.21-7.28-5.81,0,0-.21-.33-.21-.32-.13-1.05-.49-1.95-1.52-2.43Z"/>
      <path class="cls-2" d="M1306.48,412.81c-4.21-5.65-6.64-12.29-10.44-18.23-11.59-18.12-26.87-32.25-45.26-42.98-20.97-12.23-43.21-21.6-66.76-27.73-11.52-3-23.04-6.06-34.86-7.53-5.41-.67-10.98-.11-17.38-.11,2.83,1.9,5.08,3.23,7.12,4.82,8.54,6.62,6.96,18.15-2.88,22.38-8.37,3.61-17.14,4.13-25.91,3.09-12.53-1.47-19.74-11.35-18.25-23.98-26.96,5.08-49.62,37.45-53.44,75.25-3.75,1.26-4.75-.61-4.81-3.99-.18-10.84.98-21.51,3.81-31.98,10.86-40.27,41.98-65.42,83.7-68.57,24.16-1.83,47.23,2.83,70.12,9.56,24.15,7.1,46.72,17.58,66.94,32.58,23.73,17.61,40.81,39.96,47.31,69.43.58,2.65,1.06,5.27.99,7.98Z"/>
      <path class="cls-2" d="M513.77,1200.16c-1.45,5.18-3.11,10.32-4.31,15.55-1.6,6.96-.91,13.74,3.58,19.56,2.03,2.63,2.84,5.31,1.85,8.76,4.95-.73,9.28-1.41,13.62-2.01,19.01-2.63,30.31,4.18,36.95,22.27.83,2.25,2.03,4.46,1.48,7.55-6.78,0-13.58,0-20.39,0-11.03,0-22.06-.12-33.08.09-4.04.08-6.01-.76-6.75-5.34-1.16-7.18-3.65-14.08-9.82-21.12.15,7.47-.4,13.4-1.44,19.26-1.26,7.11-1.34,7.16-8.35,7.16-14.46,0-28.91-.02-43.37-.07-2.18,0-4.41.34-6.92-.75,2.52-22.15,18.48-29.96,37.9-34.81-3.56-3.47-7.42-3.58-11.12-3.81-17.67-1.06-34.1,10.72-40.14,28.45-1.18,3.46-.47,8.17-3.45,10.2-3.13,2.13-7.61.75-11.49.78-13.95.1-27.9.04-41.88.04,1.07-14.17,12.81-26.87,26.87-29.35,5.56-.98,11.17-1.33,16.81-1.51,28.79-.94,50.58-13.48,64.36-39.15,3-5.6,6.13-11.13,9.21-16.69,8.61,8.25,18.99,11.87,30.8,11.69-.1.53-.2,1.07-.3,1.6-.67.37-.94.89-.61,1.64Z"/>
      <path class="cls-6" d="M746.62,1120.72c49.3-15.22,93.28-38.52,132.81-73.32.62,13.91.96,25.74-1.44,37.48-2.31,11.3-5.4,22.32-11.42,32.34-11.24,18.71-28.23,28-49.48,29.82-26.17,2.24-48.3-7.79-68.37-23.53-.52-.41-.84-1.09-2.09-2.79Z"/>
      <path class="cls-6" d="M274.44,796.24c7.44.63,14.85,1.24,22.11,3.38,4.47,1.32,8.31,3.89,12.74,5.17,1.8.52,2.17,2.47,2.7,4.08-1.54,4.58-3.97,8.73-6.31,12.93-6.09.13-12.16.66-18.23,1.13-12.02.94-23.05,4.78-33.41,10.16-23.12,12.01-38.96,30.69-47.21,55.48-5.27,15.85-6.51,32.16-5.84,48.86.63,15.94,2.12,31.6,7.16,46.8.5,1.52.46,2.89-1.01,3.89-11.96-19.21-22.67-39.07-25.58-61.87-4.25-33.38.97-64.87,21.31-92.7,6.91-9.45,16.19-16.38,26.07-22.28,13.97-8.35,28.9-14.35,45.49-15.04Z"/>
      <path class="cls-4" d="M207.15,988.12c1.47-1,1.51-2.37,1.01-3.89-5.04-15.2-6.53-30.85-7.16-46.8-.66-16.7.57-33.01,5.84-48.86,8.25-24.79,24.09-43.47,47.21-55.48,10.36-5.38,21.39-9.22,33.41-10.16,6.07-.48,12.13-1.01,18.23-1.13-5.12,12.4-9.84,24.95-13.67,37.82-.88,2.97-3.25,4.04-5.98,4.76-23.96,6.28-40.66,21.89-52.81,42.57-12.62,21.48-18.5,45.01-18.7,69.96-.05,5.99.52,12.07-.79,18.09-3.13-.2-4.19-1.99-4.91-4.14,1.05-1.09,0-1.08-.67-1.29-.7-.23-1.01-.73-1.01-1.45Z"/>
      <path class="cls-4" d="M29.41,777.46c3.76-5.59,4.79-12.25,6.5-18.48,6.17-22.58,15.76-43.59,27.91-63.44,11.89-19.42,25.37-37.64,42.37-53.05,18.2-16.51,38.75-28.75,62.59-35.2,1.16-.31,2.37-.51,3.81.65-6.39,5.63-12.98,10.95-19.01,16.84-15.33,14.98-25.78,32.98-32.09,53.45-.74,2.4-1.04,4.75-1.1,7.19-11.74,9.1-23.84,17.8-34.1,28.63-17.34,18.3-33.36,37.63-45.1,60.15-2.93,5.63-5.99,11.2-9.08,16.75-.76,1.37-.9,3.4-3.6,3.74.31-5.84.61-11.53.92-17.23Z"/>
      <path class="cls-2" d="M367.67,630.55c-3.03-1.35-4.87-4.06-7.02-6.35-12.31-13.05-25.8-24.67-40.82-34.52-12.64-8.3-26.75-13.1-40.89-17.88-22.3-7.53-45.46-7.65-68.3-5.66-36.09,3.15-68.63,16.83-97.62,38.59-15.53,11.65-28.98,25.58-42.22,39.69-1.03,1.1-1.82,2.28-3.48,2.31-.22-1.89,1.01-3.25,1.84-4.7,18.28-31.97,42.75-57.94,75.33-75.44,28.84-15.49,59.71-22.24,92.7-20.46,41.25,2.23,75.46,19,104.53,47.46,9.49,9.3,17.33,19.97,24.35,31.24,1.04,1.66,3.14,3.25,1.62,5.73Z"/>
      <path class="cls-3" d="M1076.92,574.13c8.65,1.29,17.36,1.86,26.1,2.11.2,2.79,2.3,4.35,4.22,5.72,8.76,6.25,17.77,12.05,27.75,16.31,12.42,5.3,25.31,8.78,38.53,11.26,6.83,1.28,8.32,2.93,7.43,9.68-1.54,11.7-3.91,23.22-13.19,31.78-29.32-2.28-56.83-10.28-81.91-25.92-1.22-.76-2.28-1.76-3.42-2.65-.3-2.6-2.32-4.24-3.59-6.27-4.37-6.98-7.1-14.18-5.26-22.66,1.39-6.39,2.24-12.9,3.32-19.36Z"/>
      <path class="cls-4" d="M1167.77,650.99c9.28-8.56,11.65-20.08,13.19-31.78.89-6.76-.6-8.4-7.43-9.68-13.23-2.48-26.11-5.97-38.53-11.26-9.98-4.26-18.99-10.06-27.75-16.31-1.92-1.37-4.02-2.93-4.22-5.72,5.54-.9,11.11-1.64,16.6-2.76,2.5-.51,4.12.65,6.09,1.67,6.52,3.36,12.78,7.16,19.39,10.39,12.34,6.02,25.42,8.14,38.83,9.88,19.39,2.52,38.01-.32,56.33-6.21,10.47-3.36,10.28-3.61,10.33,7.36.04,9.6-.98,18.97-3.77,28.23-2.42,8.02-7.61,12.95-15.1,15.8-7.78,2.96-15.77,5.26-23.92,6.98-13.2,2.78-26.48,4.63-40.02,3.41Z"/>
      <path class="cls-2" d="M857.43,1182.15c2.48,5.56,5.11,11.07,7.43,16.7,7.83,18.99,19.56,34.22,39.5,41.72.17.06.23.41.34.63,7.68,5.72,16.84,6.41,25.79,6.72,15.16.53,30.36.13,45.54.31,10.29.12,19.79,3.13,28.07,9.3,3.04,2.27,6.57,4.72,5.01,9.59-1.44.18-2.89.5-4.33.51-50.16.01-100.32,0-150.48-.02-.98,0-1.95-.13-2.92-.19-.13-2.7.19-5.3.97-7.95,1.46-4.92,2.59-10,1.88-15.17-1.12-8.19-1.82-16.46-4.23-24.45-1.91-6.3-3.71-12.64-5.41-19-.9-3.35-1.79-7.24,1.55-9.48,4.09-2.75,6.97-6.86,11.31-9.23Z"/>
      <path class="cls-2" d="M766.23,245.48c-.27-5.66,1.21-11.14,1.8-16.71,5.03-47.56-4.81-91.4-32.67-130.57-13.47-18.93-30.86-33.88-50.61-46.13-15.76-9.78-32.59-16.57-50.92-19.73-3.34-.58-6.92.38-10.03-1.52,8.14-4.03,16.81-4.84,25.72-4.29,26.46,1.65,49.77,11.38,70.8,27.24,24.06,18.16,41.85,41.13,52.22,69.38,13.13,35.74,12.98,71.84.56,107.83-1.74,5.05-3.61,10.12-6.87,14.49Z"/>
      <path class="cls-2" d="M689.45,446.9c3.81,1.55,7.59,3.17,11.43,4.62,21.42,8.08,43.46,11.04,66.33,8.88,20.56-1.94,40.46-7.08,60.53-11.39,11.49-2.47,23.02-4.7,34.78-5.48,1.41-.09,2.89-.54,4.6.61-.82,2.56-2.96,4.29-4.74,6.11-12.87,13.21-26.78,25.16-42.91,34.29-12.61,7.14-26.1,11.33-40.7,10.44-9.82-.6-19.24-3.37-28.41-6.97-22.14-8.7-42.15-20.71-59.08-37.57-.86-.86-1.63-1.8-2.45-2.71.2-.28.41-.56.61-.84Z"/>
      <path class="cls-6" d="M479.8,902.53c3.48.6,5.2,3.54,7.28,5.81,10.13,11.06,30.45,15.36,45.02,3.2,6.17-5.15,10.41-11.61,10.45-20,.03-5.82.69-11.69-1.24-17.41-.43-1.28.08-2.88.16-4.33,4.46,3.4,6.04,8.78,8.73,13.31,10.57,17.77,24.36,32.39,41.29,44.13,5.16,3.58,5.34,4.51.53,8.51-9.59,7.98-19.16,15.94-30.46,21.58-13.24,6.61-26.02,6.12-38.3-1.91-14.54-9.51-26.29-21.86-35.27-36.74-3.11-5.16-6.85-10.06-8.21-16.14Z"/>
      <path class="cls-4" d="M158.65,767.4c-4.88,10.82-8.5,21.99-10.64,33.72-2.06,11.27-1.23,22.1,2.59,32.81.48,1.33.46,2.84.68,4.27-16.44,18.29-29.02,39.16-39.96,61-5.67,11.33-10.09,23.27-14.08,35.33-.83,2.5-1.39,5.1-4.07,7.55-2.26-8.56-4.07-16.45-3.61-24.72,1.88-1.77,1.36-4.11,1.29-6.23-.49-14.31,2.6-28.03,6.36-41.7,2.9-10.56,6.25-20.96,10.01-31.24,4.99-13.62,11.88-26.16,20.47-37.85,7.08-9.62,13.75-19.53,22.26-28,2.45-2.44,4.97-4.74,8.67-4.98l.02.02Z"/>
      <path class="cls-2" d="M794.23,847.65c.98-9.97,1.6-19.94,1.37-29.97-.36-15.99-3.92-31.45-8-46.74-5.94-22.23-13.17-44.09-24.64-64.19-8.11-14.21-16.23-28.47-28.68-39.63-12.95-11.62-27.92-18.19-45.35-17.15-14.37.86-28.61,3.22-41.7,9.98-3.46,1.79-7.36,2.64-10.63,4.9-.6.42-1.31-.29-1.77-.88,19.71-15.73,41.62-26.87,67.07-28.49,22.52-1.43,40.67,8.3,55.25,25.3,15.96,18.61,25.53,40.54,32.33,63.62,7.97,27.08,12.74,54.81,11.94,83.21-.35,12.49-1.92,24.87-5.53,36.9-.35,1.17-.54,2.39-1.67,3.13Z"/>
      <path class="cls-3" d="M1103.28,476.35c-5.66.6-10.29,4.23-15.7,5.43-15.12,3.38-29.73,2.15-44.23-3.85-12.25-5.07-23.21-12.2-34.39-19.05-2.71-1.66-5.15-3.75-8.62-3.28.42-3.87,3.19-6.45,5.17-9.46,6.55-9.93,16.34-14.31,27.7-15.54,15.93-1.72,31.09,1.38,45.39,8.44,11.46,5.66,20.87,13.39,24.6,26.36.4,1.38,1.45.85,2.35.62.81,3.04-.68,5.75-1.25,8.59-.67.33-1.06.84-1,1.62v.11Z"/>
      <path class="cls-6" d="M935.45,689.62c-.52,8.79-2.88,17.25-4.73,25.79-1.05,4.85-2.44,5.34-7.35,4.04-9.57-2.52-17.97-7.49-26.35-12.5-1.03-.61-2.07-1.2-3.66-2.13-1.76,10.32-5.08,19.8-9.32,29.01-5.48,11.89-13.1,22.21-22.41,31.29-4.54,4.43-5.65,4.44-11.64,1.44-12-6.02-23.74-12.47-33.75-21.62-.66-.6-1.77-.71-2.67-1.05-2-9.73-5.31-19.14-7.98-28.72,3.05-.96,4.23.96,5.57,2.13,10.78,9.42,23.13,16.37,35.78,22.82,5.78,2.95,7.51,2.62,12.37-1.86,5.15-4.74,8.44-10.76,11.16-17.07,6.43-14.95,10.11-30.56,10.46-46.89,2.77-.7,4.16,1.33,5.88,2.47,10.96,7.21,22.79,12.17,35.79,14.35,4.51.76,8.72.32,12.85-1.49Z"/>
      <path class="cls-6" d="M857.43,1182.15c-4.33,2.37-7.21,6.49-11.31,9.23-3.34,2.24-2.44,6.13-1.55,9.48,1.71,6.36,3.5,12.7,5.41,19,2.42,7.98,3.11,16.25,4.23,24.45.71,5.17-.43,10.25-1.88,15.17-.78,2.65-1.1,5.24-.97,7.95-22.02.06-44.05.17-66.07.16-4.76,0-5.32-.81-3.64-5.08,4.25-10.83,12.86-16.31,23.8-18.44,6.7-1.3,13.55-1.88,20.28-3.08,9.26-1.64,13.44-7.26,12.36-16.67-.64-5.61-2.65-10.91-4.65-16.16-4.28-11.19-8.69-22.33-13.04-33.49-2.25-5.78-1.98-6.54,3.79-7,7.18-.56,13.9-2.78,20.56-5.16,3.28-1.18,4.98-.79,6.02,2.64,1.77,5.83,5.2,11.03,6.65,17Z"/>
      <path class="cls-2" d="M305.64,707.31c-1.79,2.11-3.56.51-5.31-.05-7.9-2.51-15.69-5.34-23.98-6.51-14.01-1.97-27.88-3.18-42.17-1.64-13.06,1.41-25.45,4.58-37.47,9.31-15.76,6.19-30.11,14.79-43.05,25.96-18.75,16.19-33.31,35.45-44.98,57.15-2,3.72-3.79,7.85-7.54,10.42-.11-7.33,3.58-13.51,6.33-19.9,12.84-29.83,31.49-55.17,58.41-73.84,18.8-13.04,39.57-21.31,62.31-24.2,10.83-1.37,21.43,1,31.94,3.41,16.41,3.77,31.2,11.29,45.5,19.89Z"/>
      <path class="cls-6" d="M497.03,743.72c.31-6.83,2.95-13.2,3.71-20,.91-8.11,1.15-16.04-1.04-23.88-2.73-9.82-10.72-15.94-20.97-16.34-8.3-.32-16.55,0-24.71,1.78-4.63,1.01-4.63.92-5.03-3.88-.03-.41-.5-.79-.76-1.18,3.65-4.16,8.21-6.61,13.59-8,17.41-4.5,33.6-11.81,48.57-21.81.97-.65,2.07-1.09,3.87-2.03.39,8.37,1.62,15.94,3.37,23.44,1.89,8.12,4.21,16.11,8.25,23.42,2.33,4.22,2.34,8.04.76,12.54-2.82,8.06-4.9,16.38-6,24.87-.35,2.69-1.07,4.48-4.02,5.27-6.58,1.76-13.06,3.84-19.59,5.79Z"/>
      <path class="cls-2" d="M648.51,635.17c-5.71-3.31-12.01-2.16-17.74-1.11-13.19,2.43-24.65,8.76-34.92,17.51-21.88,18.63-35.11,42.72-44.69,69.23-6.23,17.25-10.51,34.98-13.08,53.14-.27,1.91-1.01,3.76-1.53,5.64-.45-.15-.9-.27-1.36-.36-.81-48.11,10.96-91.98,44.07-128.38,14.14-15.54,30.94-26.87,52.31-30.05,10.75-1.6,21.2.92,30.14,7.6-4.05,3.21-8.37,5.44-13.2,6.78Z"/>
      <path class="cls-5" d="M909,430.17c2.2-.78,4.89-.87,3.02-4.7-3.36-6.87-7.52-13.09-12.6-18.82-14.58-16.47-32.38-27.92-52.61-36.4-18.79-7.88-38.11-11.98-58.37-12.23-1.45-.02-2.96.27-4.19-.83,9.99-6.04,21.03-8.19,32.38-7.12,23.65,2.23,45.95,8.72,65.57,22.86,20.51,14.78,31.65,35.16,36.94,60.11-3.83-1.09-6.99-1.98-10.15-2.88Z"/>
      <path class="cls-2" d="M611.59,129.19c-2.45,2.35-4.7.14-6.76-.58-12.67-4.4-25.08-9.62-38.32-12.17-21.19-4.08-42.51-5.26-64.01-2.64-10.92,1.33-21.67,3.25-32.09,6.84-.61.21-1.36.03-2.3.03-1.52-3.76,1.8-7.09.94-10.7,11.74-6.79,24.77-9.04,37.96-10.11,38.42-3.11,72.92,8.15,104.58,29.33Z"/>
      <path class="cls-2" d="M1105.53,466.03c-.9.22-1.95.75-2.35-.62-3.73-12.97-13.14-20.71-24.6-26.36-14.3-7.06-29.46-10.17-45.39-8.44-11.36,1.23-21.14,5.61-27.7,15.54-1.98,3-4.76,5.59-5.17,9.46-.83,1.26-1.68,2.49-3.29,2.84.34-23.79,17.77-41.84,41.21-42.98,18.38-.89,34.73,4.65,49.18,15.61,11.43,8.66,18.56,19.95,18.1,34.96Z"/>
      <path class="cls-2" d="M527.28,833.54c-2.68-.47-3.12-2.89-4.05-4.79-5.2-10.6-8.4-21.8-10.14-33.46-.65-4.33-1.17-8.7-2.18-12.95-1.14-4.78-2.42-5.53-6.62-3.71-16.53,7.15-32.08,15.6-40.87,32.52-.09.18-.42.23-.64.34.57-19.25,9.38-33.39,26.32-42.52,9.43-5.08,18.79-10.32,30.44-13.53-1.75,26.89.62,52.77,7.75,78.09Z"/>
      <path class="cls-2" d="M768.91,629.18c5.42-4.12,11.26-7.66,15.29-13.5,6.33-9.18,8.19-19.68,10.11-30.29,3.03-16.79-1.63-32.92-3.89-49.25-.26-1.87-.65-3.42,1.75-3.93,6.91,15.75,12.86,31.83,14.56,49.08,1.44,14.65-.97,28.35-12.14,39.24-5.46,5.32-11.76,8.71-19.52,8.97-1.93-.66-3.88-.64-5.86-.21l-.29-.11Z"/>
      <path class="cls-2" d="M844.35,605.25c8.38-8.18,10.84-18.17,10.62-29.71-.27-14.4-5.76-26.32-14-37.58-7.23-9.89-12.67-20.72-15.27-32.83-.32-1.48-.7-2.85.66-4.01,6.98,13.53,15.99,25.64,26.01,37.03,7.74,8.8,13.1,18.88,14.86,30.53,2.27,15.07-3.07,30.09-19.32,36.16-1.19.44-2.33.65-3.57.41Z"/>
      <path class="cls-5" d="M1009.1,1267.13c1.56-4.87-1.97-7.32-5.01-9.59-8.28-6.18-17.77-9.18-28.07-9.3-15.18-.18-30.37.21-45.54-.31-8.95-.31-18.11-1-25.79-6.72,15.43,3.16,30.54,1.32,45.62-2.52,10.91-2.78,22.01-5.16,33.26-2.12,13.64,3.7,23.07,12.29,27.83,25.67.63,1.76,2.51,5.21-2.31,4.89Z"/>
      <path class="cls-6" d="M514.68,1196.92c-11.81.18-22.19-3.44-30.8-11.69,1.91-7.54,4.98-14.64,8.2-22.05,5.44,2.33,10.48,4.72,15.69,6.64,5.24,1.93,10.65,3.37,16.89,5.31-3.85,7.29-5.91,14.96-9.98,21.79Z"/>
      <path class="cls-2" d="M1076.92,574.13c-1.09,6.46-1.93,12.97-3.32,19.36-1.85,8.48.88,15.69,5.26,22.66,1.27,2.03,3.29,3.67,3.59,6.27-7.27-4.17-13.53-9.61-19.46-15.47-4.08-4.03-6-8.76-5.45-14.56.61-6.35,1.87-12.57,3.18-18.79.59-2.81,1.99-4.31,5.15-3.16,3.65,1.32,7.37,2.47,11.05,3.69Z"/>
      <path class="cls-2" d="M1011.39,1234.83c19.78,1.44,35.52,14.47,39.88,32.7-6.42,0-12.68-.06-18.94.03-2.18.03-2.97-1.1-3.42-2.96-2.69-11.22-8.52-20.68-17.53-29.77Z"/>
      <path class="cls-4" d="M551.72,824.65c-2.94,2.5-6.77,4.37-6.43,9.17-4.14-5.77-4.82-12.74-6.25-19.34-2.1-9.73-4.94-19.47-3.5-29.65.95.3,1.88.7,2.15,1.74,3.11,12.01,7.35,23.57,13.09,34.58.55,1.05.63,2.33.93,3.5Z"/>
      <path class="cls-4" d="M545.55,835.06c4.68,2.19,4.4,6.36,4.21,10.5-2.44-3.08-4.36-6.38-4.21-10.5Z"/>
      <path class="cls-4" d="M651.63,1078.02c.84-2.4,2.46-4.1,4.9-5.44,1.51,2.05.1,3.6-.65,5.21-1.42.08-2.83.16-4.25.23Z"/>
      <path class="cls-4" d="M122.41,715.55c-.07-.84-.15-1.68-.22-2.52.92-1.05,1.84-2.08,3.78-2.03-.27,2.34-1.79,3.54-3.57,4.55Z"/>
      <path class="cls-4" d="M608.79,657.06c-1.14-.03-2.58-.03-2.44-1.56.22-2.36,2.21-2.51,4.08-2.61-.51,1.4-2.06,2.4-1.64,4.17Z"/>
      <path class="cls-6" d="M1301.97,477.74c-.17-2.6-1.07-5.33,1.24-7.52.65,2.68.62,5.25-1.24,7.52Z"/>
      <path class="cls-2" d="M370.59,633.48c-1.98-.04-2.94-1.1-3-3.04,2.68-.64,2.5,1.54,3,3.04Z"/>
      <path class="cls-6" d="M769.19,629.29c1.97-.43,3.93-.46,5.86.21-2,1.13-3.96,1.44-5.86-.21Z"/>
      <path class="cls-2" d="M67.39,646.66c-.04,1.54-.66,2.66-2.27,3.04.53-1.18.72-2.61,2.27-3.04Z"/>
      <path class="cls-2" d="M371.86,635.19c-1.76.41-1-1.11-1.36-1.77.88.26,1.23.93,1.36,1.77Z"/>
      <path class="cls-4" d="M663.14,199.64c1.21-.26,2.28-.05,3.09.97-1.25.39-2.31.16-3.09-.97Z"/>
      <path class="cls-6" d="M478.07,899.78c1.03.48,1.4,1.38,1.52,2.43-1.48-.2-1.63-1.23-1.52-2.43Z"/>
      <path class="cls-6" d="M1128.17,511.37c-.2-.07-.58-.16-.57-.2.07-.46.26-.36.48.3,0,0,.09-.1.09-.1Z"/>
      <path class="cls-4" d="M550.11,846.77c.74.38,1.14.96,1.06,1.82-.73-.39-1.1-.99-1.06-1.82Z"/>
      <path class="cls-6" d="M513.77,1200.16c-.33-.75-.06-1.27.61-1.64.25.72.06,1.27-.61,1.64Z"/>
      <path class="cls-4" d="M535.18,779.22c.46.09.92.21,1.36.36-.41.37-.81.73-1.22,1.1-.05-.49-.1-.97-.15-1.46Z"/>
      <path class="cls-6" d="M1103.28,476.24c-.05-.78.33-1.29,1-1.62.12.82-.11,1.42-1,1.62Z"/>
      <path class="cls-6" d="M208.17,989.57c.66.2,1.72.2.67,1.29-.25-.42-.47-.85-.67-1.29Z"/>
      <path class="cls-1" d="M706.06,332.83c11.91,22.51,11.32,41.11-1.6,53.79,3.97,3.35,8.76,6.16,9.67,12.16-3.15,1.61-5.56-.67-8.03-1.8-10.73-4.91-21.8-8.64-33.43-10.73-17.9-3.21-35.57-1.73-53.16,2.29-3.27.75-6.5,2.05-10.45,1.73,1.32-4.34,4.38-6.59,7.68-8.66,15.09-9.49,31.53-12.91,49.17-10.88,2.15.25,4.26,1.16,7.08.25-.42-3.15-.78-6.42-1.32-9.67-.94-5.68-.21-11.25,1.3-16.7,2.65-9.54,6.38-13.62,16.32-18.33-.06-2.2-2.11-2.51-3.43-3.26-13.4-7.62-26.85-15.15-42.25-18.17-8.27-1.62-16.56-1.26-24.87-.56-1.7.14-3.42.61-5.09.44-3.78-.38-5.64-3.28-4.23-6.82.8-1.99,2.19-3.83,3.6-5.48,13.27-15.49,33.49-20.63,52.63-13.35,10.39,3.95,19.55,10.07,28.45,16.61,5.72,4.2,11.36,8.52,17.12,12.67,6.58,4.74,13.55,8.75,21.34,11.24,5.2,1.66,6.02,5.05,2.05,8.96-5.46,5.38-12.33,6.7-19.7,5.9-2.65-.29-5.26-.95-8.85-1.63Z"/>
      <path class="cls-1" d="M931.11,786.59c2.7,10.99,5.79,21.9,5.27,33.42-.5,11.07-2.45,21.85-6.02,32.31-1.74,5.1-4.17,9.93-7.46,14.24-5.63,7.4-11.01,7.36-16.35-.08-1.41-1.96-2.69-4-4.04-6.01-2.29,1.22-2.14,3.33-2.69,5.1-5.15,16.49-12.15,31.97-24.19,44.73-6.14,6.51-13.05,11.66-22.35,12.58-.68-4.65,3.81-6.07,5.69-9.12,17.18-16.79,27.33-37.35,32.2-60.65,1.45-6.92,2.2-13.99,3.37-21.67,7.81,8.13,12.96,17.73,19.86,26.81,5.24-7.18,7.61-14.6,9.3-22.16,3.37-15.1,5.48-30.35,3.47-45.88-.19-1.44-.4-3.01-.05-4.37.71-2.79,2.23-1.82,3.65-.47-.17.48-.06.88.33,1.21Z"/>
      <path class="cls-4" d="M858.98,913.77c-1.88,3.05-6.37,4.48-5.69,9.12-3.11-1.43-3.87-4.56-4.13-7.26-1.04-11.08-3.01-22.13-1.89-34.75,4.24,8.74,5.97,16.97,8.61,24.86.91,2.73,1.11,5.73,3.11,8.04Z"/>
      <path class="cls-4" d="M926.06,776.02c2.46,2.2,3.71,3.85,2.83,6.26-.11.3-.88.7-1.12.58-2.7-1.35-2.74-3.54-1.72-6.84Z"/>
      <path class="cls-6" d="M902.99,980.68c.02,1.23-.2,2.35-1.43,2.98,0,0-.03-.03-.04-.03-.08-1.27.3-2.3,1.51-2.9l-.05-.05Z"/>
      <path class="cls-4" d="M931.11,786.59c-.39-.32-.5-.73-.33-1.21.24.26.49.5.69.79.03.04-.23.27-.35.42Z"/>
      <path class="cls-6" d="M903.04,980.73c.2-.2.4-.41.59-.61-.04.13-.04.31-.13.37-.14.1-.34.13-.52.19,0,0,.05.05.05.05Z"/>
      <path class="cls-2" d="M682.19,673.08c-.78-8.47,3.07-14.7,14.66-14.6,10.47.1,25.83,10.86,28.06,25.07,1.5,9.56-2.25,19.36-16.58,17.85-12.36-1.3-26.13-15.91-26.14-28.32Z"/>
      <path class="cls-2" d="M735.44,714.19c.15,4.78-2.41,7.74-6.7,7.74-4.31,0-8.1-3.89-8.28-8.51-.17-4.47,2.48-7.49,6.83-7.79,4.05-.28,8.01,3.87,8.15,8.55Z"/>
      <path class="cls-6" d="M399.92,911.54c-.21-.09-.62-.23-.61-.28.1-.5.32-.39.56.32,0,0,.04-.04.04-.04Z"/>
      <path class="cls-2" d="M1161.6,348.25c-.49,0-.98.03-1.46,0-4.96-.37-8.1-2.42-8.45-5.52-.37-3.3,2.93-6.78,7.51-7.68,2.15-.42,4.37-.44,6.52.28,3.84,1.3,5.45,3.48,5.11,6.97-.33,3.41-2.44,5.43-6.3,5.9-.96.12-1.95.02-2.93.02v.03Z"/>
      <path class="cls-6" d="M1091.3,721.75c.23-.21.46-.41.7-.62-.21.23-.42.46-.63.69,0,0-.07-.07-.07-.07Z"/>
      <path class="cls-1" d="M308.75,708.48c-.54-.47-1.07-.94-1.61-1.4.7.28,2.5-.7,1.61,1.4Z"/>
      <path class="cls-4" d="M158.62,767.37l.6-.6c-.03.13-.02.3-.1.38-.13.12-.32.17-.48.24,0,0-.02-.02-.02-.02Z"/>
      <path class="cls-1" d="M796.23,371.82c6.83.88,12.47,3.96,16.77,9.36.92,1.16,1.37,2.64.34,4.06-.83,1.15-2.17,1.27-3.3.95-5.99-1.7-11.9-1.78-18.01-.32-2.79.66-5.34-1.1-6.32-3.92-1.04-2.98-.45-5.85,2.2-7.9,2.43-1.88,5.28-2.41,8.33-2.22Z"/>
      <path class="cls-5" d="M868.8,391.88c-.12,2.59-2.71,4.65-5.67,4.51-3.91-.19-7.31-3.03-7.17-6,.12-2.6,2.7-4.7,5.64-4.59,3.7.15,7.33,3.21,7.2,6.07Z"/>
    </g>
  </g>
</svg>