<?xml version="1.0" encoding="UTF-8"?>
<svg id="GRIFOS" xmlns="http://www.w3.org/2000/svg" viewBox="0 0 458.93 422.16">
  <defs>
    <style>
      .cls-1 {
        fill: #b76e36;
      }

      .cls-1, .cls-2, .cls-3, .cls-4, .cls-5, .cls-6, .cls-7, .cls-8, .cls-9, .cls-10, .cls-11, .cls-12, .cls-13, .cls-14 {
        stroke-width: 0px;
      }

      .cls-2 {
        fill: #b27847;
      }

      .cls-3 {
        fill: #e4d4a2;
      }

      .cls-4 {
        fill: #ac733e;
      }

      .cls-5 {
        fill: #c6af7d;
      }

      .cls-6 {
        fill: #1f1b17;
      }

      .cls-7 {
        fill: #885a26;
      }

      .cls-8 {
        fill: #af7850;
      }

      .cls-9 {
        fill: #75421a;
      }

      .cls-10 {
        fill: #5c2f17;
      }

      .cls-11 {
        fill: #b27846;
      }

      .cls-12 {
        fill: #c8a270;
      }

      .cls-13 {
        fill: #19110c;
      }

      .cls-14 {
        fill: #a4602d;
      }
    </style>
  </defs>
  <g id="Legs">
    <g id="L1">
      <path class="cls-4" d="M234.43,334.84c2.01-.89,4.04-1.71,6.24-2.04.17-.03.33-.14.5-.22.27.06.53.07.73-.17.14-.02.28-.04.42-.07.08.05.16.09.24.14,0,1.11-.68,1.83-1.47,2.45-.33.26-.77.4-.7.92.11.9-.11,1.71-.51,2.51-.11.22-.09.52-.09.78,0,.57.07,1.14.03,1.7-.06.85-.16,1.66-.62,2.46-.52.89-.84,1.91-1.08,2.95-.16.69.13,1.37-.03,1.98-.26.98-.46,1.98-.75,2.95-.26.89-.51,1.75-.03,2.72.33.67.42,1.55.35,2.31-.06.6-.01,1.12.22,1.63.37.81.29,1.8,1.02,2.46.09.08.05.29.09.43.25,1.01.74,1.79,1.85,2.03.39.09.85.12.93.67-.26.2-.26.52-.33.8-.13.5.1.68.61.47.37-.16.71-.39,1.13-.39.08.17.19.34.38.39,1.81.47,3.31,1.31,3.87,3.27.09.32.32.58.56.82.29.28.6.43,1.01.37.15.13.18.32.24.5.46,1.47.73,3,1.32,4.43.8,1.92,1.71,3.77,2.64,5.63.36.73.81,1.23,1.53,1.55.61.27,1.25.53,1.64,1.13-.09.29-.62.12-.61.57.34.23.73.05,1.08.14.16.08.31.16.58.29-.43.17-.53.58-.86.79-.1-.04-.23-.05-.31-.11-1.64-1.2-3.43-1.12-5.26-.58-.76.22-1.44.64-2.01,1.19-.31.3.08.32.22.43-.36,1.01-1.32,1.41-2.05,2.04-.67-.21-1.35-.42-2.02-.62-.14-.19-.29-.21-.46-.04-.37,0-.74-.01-1.11-.02-.1-.09-.18-.07-.26.03-.87.07-1.58.48-2.23,1.03-.25.04-.51.05-.54.44.29,0,.58.12.78-.21.33.05.55-.35.9-.2-.12.19-.2.43-.37.56-1.64,1.31-2.68,3.03-3.4,4.96-.11-.03-.25-.03-.32-.1-1.21-1.17-1.53-2.07-1.1-3.39.59-1.78.98-3.61.8-5.52-.1-1.12-.53-2.1-1.05-3.07-.14-.26-.37-.36-.65-.38-.08-.13-.17-.26-.25-.39-.62-1.03-1.22-2.07-2-3.01-.1.53-.05,1.02-.08,1.5-.04.62.31,1.17.26,1.78-.07.94-.34,1.89.26,2.77.08.12.02.38-.05.54-.31.69-.27,1.29.34,1.8.07.06.05.21.07.33-.48.65-1.19.56-1.75.32-2.01-.86-2.98-2.35-2.77-4.64.13-1.39.54-2.73.94-4.06.6-1.98.39-3.98.14-5.94-.16-1.28-.66-2.59-1.41-3.65-.64-.91-.77-1.74-.53-2.74.57-2.34,1.4-4.6,2.14-6.89,1.05-3.22,2.05-6.46,2.62-9.8.12-.69.53-1.46,0-2.17.53-1.41.95-2.85,1.17-4.34.15-.47.48-.93.05-1.56-.16.47-.28.81-.39,1.14-.35.05-.45-.26-.64-.44.17-1.03.39-2.05.49-3.08.06-.64.27-1.34-.22-1.93-.01-.44-.03-.89-.04-1.33ZM239.33,366.02c.35-.17.57-.45.7-.81.04-.1.08-.23-.05-.28-.09-.03-.23-.04-.31,0-.44.25-.36.68-.35,1.08-.11.04-.13.08-.05.1,0,0,.03-.06.05-.09ZM249.27,381.46c.29-.18.16-.37,0-.55-.99-1.17-1.54-2.58-2.14-3.96-.19-.45-.31-.93-.7-1.27-.14-.38-.14-.86-.61-1.13-.51,2.22.64,5.07,1.56,6.5.12.18.31.33.49.47.47.37.95.45,1.39-.06ZM232.42,368.73c-.37-1.35.63-2.33.72-3.69-.79.81-1.3,1.6-1.62,2.46-.38,1,.13,2.51.95,3.17.11.09.27.2.39.18.23-.04.23-.26.22-.45-.01-.66-.03-1.31-.05-2.07-.29.19-.43.29-.6.4ZM241,377.78c-.06,2.12.81,4.46,2.05,5.21-.96-1.79-1.55-3.48-2.05-5.21ZM242.4,383.57c.28.62.8.82,1.54.88-.35-.72-.93-.8-1.54-.88Z"/>
      <path class="cls-6" d="M214.86,340.34c.46.43.45,1,.47,1.57.03,1.48-.21,2.94-.33,4.41-.2,2.41-.4,4.82-.37,7.24.05,3.37.34,6.7,1.54,9.9.87,2.32.69,4.64-.34,6.94-.88,1.95-1.77,3.92-2.18,6.05-.24,1.27-.28,2.54.06,3.81.37,1.34.69,2.7.68,4.12,0,1.68-.48,3.2-1.52,4.52-.29.37-.44.76-.52,1.22-.14.82-.36,1.63-.98,2.24-.78.77-1.28.67-1.77-.33-.06-.13-.08-.3-.32-.3-.4.78-.32,1.65-.34,2.49-.02.72-.11,1.42-.39,2.1-.42,1-1.18,1.65-2.08,2.15-.46.26-.94.47-1.42.69-.65.3-1.21.7-1.77,1.17-2.51,2.13-5.42,3.04-8.72,2.53-.33-.05-.6-.15-.93.13-.51.45-.95.44-1.16-.11-.53-1.43-1.46-1.15-2.47-.74-1.82.73-3.63.5-5.41-.1-.38-.12-.62-.26-.98.12-.4.42-.82.1-1.15-.27-.37-.42-.33-1.25-.91-1.34-.51-.08-1.04.35-1.6.46-1.37.27-2.61-.1-3.84-.62-.17-.07-.28-.29-.57-.06-.53.43-.8.38-1.18-.1-.3-.39-.51-.83-.67-1.3-.08-.25-.21-.48-.54-.49-1.1-.03-2-.61-2.93-1.13-.09.14-.17.26-.25.39-.57.93-1.08.96-1.63.02-1.01-1.73-.95-3.55-.15-5.32.29-.63.46-1.26.56-1.93.35-2.2,1.04-4.23,2.73-5.83,1.13-1.06,2.39-1.7,3.95-1.66.46,0,.85-.03,1.25-.35,1.29-1.03,2.8-1.49,4.43-1.38.93.06,1.55-.26,2.12-.97,1.17-1.46,2.02-3.09,2.8-4.76,1.29-2.78,2.32-5.64,2.95-8.64.48-2.31.23-4.59-.13-6.87-.86-5.45-2.42-10.74-3.67-16.1-.7-2.99-1.04-6.03-1.35-9.07-.06-.6.07-1.2.26-1.78.17-.53.51-.6.96-.34.04.66.07,1.31.11,1.97.2,2.29.47,4.58.98,6.82,1.1,4.77,2.35,9.51,3.42,14.3.66,2.98,1.13,6.01,1.2,9.07-.29.34-.22.74-.18,1.14-.04.26-.06.52-.12.78-1.21,5.57-3.12,10.82-6.76,15.32-.21.26.14.24.25.35.29.25.8.2,1,.68-.61.26-1.21-.02-1.79.11-2.82-1.09-6.09-.03-7.61,2.97-.69,1.36-1.05,2.8-1.31,4.28-.2,1-.44,1.99-.16,3.14.4-.59.72-1.06,1.04-1.52.11-.1.24-.19.34-.3.98-1.12,1.89-.57,2.34.47.28.66.44,1.35.52,2.07-.01.37-.02.75-.04,1.12-.05.81-.17,1.57-1.11,1.87-.38.12-.52.51-.71.83-.19.34-.1.53.23.71.91.5,1.86.77,2.91.68,1.17-.1,1.25-.21.99-1.34.48,0,.5-.59.9-.69.35-.32.21-.74.21-1.13.21-.97.53-1.88,1.19-2.66.52-.61,1.06-1.34,1.94-1.14.96.22,1.24,1.13,1.41,2.01.19.97.26,1.94.22,2.93-.17.48-.45.86-.92,1.09-.39.19-.65.52-.86.87-.33.57-.27.74.36,1.01,1.8.76,3.59.62,5.37-.08.33-.13.36-.3.2-.6-.22-.43-.4-.89-.43-1.39.29-.08.58-.16.86-.25.2.07.07.44.4.45.03-.36.03-.69.07-1.03.15-1.14.5-2.21,1.24-3.1.99-1.19,2.04-1.07,2.73.3.2.4.35.83.45,1.27.14.62.2,1.26.3,1.89-.28.96-.78,1.78-1.53,2.45-.08.07-.17.16-.23.25-.29.39-.21.59.28.69.22.05.45.04.67.06,2.22.17,4.23-.45,6.12-1.58,1.05-.63,1.67-1.49,1.76-2.71.34.16.1.58.38.81.79-.17,1.57-.49,2.23-.97.77-.56,1.31-1.28,1.5-2.3.21-1.08.07-2.18.36-3.26.26-1,.2-1.01-.73-1.42-1.06-.47-2-1.07-2.41-2.23l-.11-.2c-.05-.23-.1-.46-.15-.69.33-.2.1-.45.08-.69-.04-.35-.2-.79.37-.9.37,1.16.85,2.26,1.83,3.05.51.41,1.05.68,1.79.56-.32-1.16-.27-2.15.82-2.74,1.27-.68,2.09.04,2.75,1.14.95-1.69,1.01-3.38.66-5.07-.28-1.36-.71-2.7-1.09-4.04-.39-1.38-.77-2.75-.51-4.28.49.74.34,1.69.97,2.38.61-2.32,1.5-4.44,2.41-6.56.53-1.22.91-2.5.78-3.84-.1-1.01-.38-1.99-.73-2.96-.81-2.29-1.19-4.67-1.24-7.1-.08-3.75.07-7.48.5-11.2.13-1.09.26-2.17.45-3.25.07-.4.02-.96.64-1.07ZM209.86,386.87l-.02.02c-.69.63-.84,1.13-.4,1.94.38.71.73,1.43,1.01,2.31.8-1.13.9-2.26.66-3.42-.08-.38-.2-.83-.74-.86l-.23-.1c-.15-.1-.26-.08-.28.12ZM194.62,395.08c0-.14-.05-.22-.21-.2-.78-.2-1.08.37-1.37.88-.42.76-.62,1.6-.65,2.47-.17.99-.04,1.96.32,2.88.17.42.37.25.49-.07.56-.68.97-1.48,1.68-2.05.13-.1.22-.33.22-.49,0-.77.2-1.56-.14-2.31-.02-.32.09-.68-.24-.92-.04-.07-.07-.14-.11-.21ZM171.16,392.33c-.03-.22-.03-.45-.08-.67-.1-.46-.31-.53-.69-.23-.17.14-.31.32-.45.49-1.03,1.26-1.1,2.73-.91,4.25.11.33.31.29.47.06.39-.55.75-1.19,1.36-1.47.63-.3.73-.68.54-1.24-.14-.39,0-.83-.23-1.2ZM182.83,395.99c-.53,1.44-.34,2.88,0,4.32.26.41.4.16.53-.1.38-.73.74-1.5,1.42-1.98.67-.46.89-1.03.8-1.79-.04-.37-.01-.75-.02-1.12,0-.24-.09-.44-.36-.49.02-.11.07-.22.07-.33.02-.41-.14-.75-.52-.91-.38-.16-.64.14-.85.38-.51.59-1.05,1.16-1.07,2.01ZM176.76,392.46c-.06-.41-.28-.4-.54-.19-.66.54-1.09,1.24-1.34,2.05-.34,1.06-.32,2.15-.2,3.24-.04.39.05.74.37,1.08.53-.64.84-1.42,1.55-1.91.92-.64,1.11-1.96.5-3.04.11-.47-.09-.85-.33-1.23ZM173.14,389.67c.48-1.82.83-3.68,2.09-5.22-2.37.52-3.83,1.94-4.46,4.23-.3.53-.43,1.1-.41,1.78.46.06,1.03-.06,1.21.54.5,1.65,1.32,3.33-.28,4.85.81.8,1.06.91,1.97.89.1-.72-.18-1.41-.22-2.12-.1-1.66.1-3.31.1-4.96Z"/>
      <path class="cls-2" d="M189.88,331.88c1.43-.17,2.87-.16,4.31-.04.6.23,1.23.31,1.86.38.76.09,1.55.1,2.25.5.27.21.56.35.9.38-.03.34.24.63.16.99-.45,1.85,0,3.66.36,5.46.11.58.44,1.11.59,1.69.51,1.97.78,3.98.7,6.02-.04.99.11,1.95.7,2.8.1.15.2.35.19.52-.06,1.42.19,2.85-.28,4.27-.28.86-.49,1.79-.08,2.74.29.67.26,1.41-.09,2.08-.19.36-.27.69.03,1.04.32.37.24.79,0,1.16-.46.71-.49,1.48-.48,2.29,0,.58.06,1.16.16,1.92-.55-.38-.98-.59-1.43-.16-.14.13-.35.02-.54-.02-.81-.17-1.63-.24-2.42-.51-.36-.12-.77-.15-1.11.03-.71.36-1.39.76-2.07,1.15-.17.1-.27.27-.27.47-.03,1.22-.58,2.06-1.78,2.42-.11.03-.2.11-.3.16.12-.85.26-1.69.35-2.54.08-.76.36-1.54-.18-2.26.09-.4.21-.8.27-1.2.04-.28-.02-.54-.4-.52.15-1.26.25-2.54.46-3.79.38-2.22.22-4.42-.2-6.61-.33-1.7-.73-3.38-1.19-5.04-.98-3.59-1.72-7.23-2.42-10.88-.27-1.42-.63-2.87-.54-4.35.79-.37,1.7-.2,2.5-.55ZM193.06,363.75c.41-.03.85.03,1.23-.09.77-.24,1.49-.13,2.21.13.5.18.98.39,1.47.57.21.08.46.13.64-.06.19-.2.07-.42-.04-.62-.5-.9-1.26-1.48-2.22-1.8-1.75-.58-2.99.14-3.28,1.88-.1.04-.12.07-.05.08,0,0,.03-.05.05-.08Z"/>
      <path class="cls-6" d="M235.83,380.24c.08.13.17.26.25.39-.02.19.06.36.14.53.63,1.43,1.04,2.89.7,4.49-.44,2.1-1.05,4.04-3.31,4.89-.43.16-.52.48-.45.9.18,1.19.38,2.38.51,3.57.14,1.27.96,2.02,1.94,2.62.61.38,1.29.8,1.97.04.02-.03.14.03.21.05-.02.79.36,1.37.96,1.82,2.12,1.58,4.49,2.24,7.12,1.94.33-.04.64-.11.9-.38-.24-.41-.49-.74-.82-1-.66-.52-1.05-1.17-1.05-2.03.09-.52-.04-1.08.22-1.57.21,0,.43,0,.64-.01.03.53.06,1.05.07,1.58,0,.39.08.78.36,1.04.61.55,1.04,1.26,1.59,1.86.03.21.02.45.35.54.35-.59.47-1.25.59-1.92.61-.19,1.25-.6,1.73.22,0,.25-.1.53.28.63,1.49.41,2.99.83,4.54.27.48-.17,1.21-.2,1.29-.76.08-.54-.42-1.02-.89-1.34-.45-.3-.83-.64-1.07-1.13-.04-1.34-.22-2.71.46-3.97.22.07.45.14.67.21,0,.28-.21.6.17.8l-.03.09c-.07.01-.18,0-.2.04-.62,1.07-.38,2.47.55,3.21.24.19.41.44.59.67.38.48.62,1.03.94,1.54.15.23.3.13.38-.1.6-1.73.55-3.45-.14-5.15.19-.1.38-.2.57-.3.58.58.7,1.33.75,2.11-.07.31-.13.61.02.93.45-.21.33-.53.32-.81.16-1.65.18-3.3-.1-4.94.3,0,.61-.02.91-.03.05.1.13.2.14.31.18,1.98.49,3.97-.17,5.93-.09.27-.25.56-.13.91,1.3.42,2.57.35,3.79-.34.66-.37.71-.64.25-1.22-.17-.22-.41-.33-.65-.44-.62-.29-.86-.79-.91-1.45-.03-.45.05-.91-.16-1.33.11-.77.18-1.54.5-2.27.6-1.33,1.23-1.47,2.32-.48,0,.31.04.66-.42.7-.81-.5-1.13-.38-1.35.51-.05.21,0,.44.01.66-.47.7-.17,1.46-.13,2.19.02.51.56.66.91.93.37.28.63.65.89,1.01.15.21.25.49.45.64.39.28.42-.04.44-.33.14-.67.34-1.34.27-2.04.4,0,.81,0,1.22,0,.04.69.15.81.62.55.48-.27.92-.61,1.45-.97-.6-.39-1.04-.81-1.09-1.45-.11-1.41-.08-2.79.99-3.9.71-.09.81-.16.66-.78-.33-1.37-.84-2.67-1.88-3.67-.82-.79-1.79-1.33-3.06-1.53.42.83,1.08,1.4,1.21,2.24-.39-.05-.71.21-1.08.25-.29-.44-.57-.88-.87-1.31-1.12-1.59-2.61-2.55-4.6-2.62-1.14-.04-2.21.25-3.28.58-.35-.09-.74.08-1.08-.14-.01-.45.51-.28.61-.57.31-.03.6-.08.76-.36-.2-.18-.43-.33-.59-.53-.33-.41-.64-.84-.94-1.27-2.31-3.32-3.83-7-5.1-10.81-.7-2.09-1.1-4.25-.97-6.46.11-1.92.27-3.85.65-5.73.91-4.47,1.9-8.93,2.79-13.41.74-3.73,1.57-7.46,1.44-11.31.31-.25.59-.34.8.12.34.7.41,1.45.38,2.21-.09,2.5-.42,4.97-.85,7.42-.8,4.57-1.94,9.07-2.82,13.62-.4,2.08-.69,4.17-.87,6.28-.26,3.08.36,6.01,1.49,8.85.93,2.35,1.95,4.66,3.23,6.84.56.95,1.27,1.78,2,2.6.32.35.66.56,1.18.51,1.82-.15,3.54.16,5.02,1.31.26.2.56.2.86.19,3.13-.04,5.03,1.71,6.29,4.36.45.96.81,1.95.94,3.01.1.75.32,1.45.67,2.14.76,1.5.71,3.06.16,4.62-.03.07-.04.15-.08.21-.27.45-.52.99-1.12,1-.51.01-.56-.55-.78-.87-.06-.09-.14-.18-.22-.3-.73.63-1.57,1.09-2.49,1.24-.61.1-.84.41-.95.91-.12.53-.3,1.01-.81,1.29-.24.14-.53.29-.72.05-.36-.44-.63-.23-1.03-.04-1.44.67-2.92.89-4.5.42-.85-.25-.83-.42-1.26.56-.17.39-.38.77-.76.96-.37.19-.71.04-1-.28-.13-.14-.35.06-.52.12-2.18.82-4.36.84-6.5-.08-.58-.25-.82-.06-1.04.43-.12.27-.28.54-.47.77-.45.53-.66.58-1.21.12-.28-.23-.48-.25-.8-.19-3.44.6-6.5-.26-9.13-2.55-.47-.41-1-.68-1.56-.89-.65-.23-1.22-.6-1.79-.95-1.19-.73-1.88-1.82-2-3.24-.08-.9-.2-1.8-.31-2.7-.03-.26-.04-.52-.32-.7-.05.1-.11.19-.14.29-.17.5-.27,1.2-.85,1.2-.64,0-1.19-.48-1.47-1.09-.26-.58-.45-1.2-.6-1.82-.1-.42-.22-.77-.51-1.09-1-1.11-1.46-2.44-1.54-3.92-.08-1.44-.05-2.88.38-4.27.46-1.46.33-2.9,0-4.34-.34-1.51-.88-2.96-1.56-4.35-.44-.91-.86-1.85-1.21-2.8-.65-1.76-.56-3.55-.05-5.34.45-1.56.91-3.12,1.11-4.73.35-2.75.31-5.5.11-8.26-.19-2.68-.54-5.34-.88-8-.11-.84-.3-1.75.52-2.41.29.16.39.43.47.74.18.62.2,1.26.32,1.89.8,4.35,1.22,8.74,1.18,13.16,0,.41,0,.83-.04,1.24-.2,2.14-.63,4.24-1.22,6.32-.32,1.11-.69,2.26-.43,3.45.22,1.03.52,2.04.95,3.01.64,1.41,1.36,2.78,1.81,4.27.17.56.21,1.16.56,1.7.59-.39.41-1.16.91-1.65.08,1.13.07,2.13-.22,3.13-.36,1.23-.64,2.48-1,3.71-.45,1.57-.34,3.14.02,4.7.09.42.19.88.59,1.14.17-.02.2-.12.26-.22.55-1.05,1.21-1.44,2.02-1.21.98.28,1.5,1.14,1.42,2.29-.02.29-.28.56-.07.86,2.16-.44,3.67-2.45,3.58-4.77.04-1.34-.09-2.66-.4-3.97-.06-.27-.16-.53.29-.5ZM271.84,395.52c0-.45.07-.9,0-1.33-.21-1.33-.39-2.7-1.85-3.36-.22.2-.17.47-.19.73-.47.76-.41,1.61-.01,2.28.46.78,1.3,1.3,1.9,2.02.14.17.17-.18.15-.34ZM231.08,387.55l-.03-.02c-.44-.47-.6-.46-.97.02-.63.83-.52,2.79.22,3.78.27-.72.64-1.37.98-2.04.41-.8.33-1.24-.21-1.75Z"/>
      <path class="cls-2" d="M248.97,369.16c-.4.07-.72-.08-1.01-.37-.25-.24-.47-.51-.56-.82-.56-1.96-2.06-2.79-3.87-3.27-.19-.05-.3-.22-.38-.39.09-.07.17-.16.26-.2,1.1-.41,2.2-.38,3.31-.02.59.19.85-.1.68-.69-.05-.17-.16-.33-.27-.48-1.32-1.7-3.33-1.34-4.47-.3-.3.28-.51.66-.92.82-.07-.55-.54-.58-.93-.67-1.1-.25-1.6-1.03-1.85-2.03-.04-.15,0-.36-.09-.43-.74-.66-.66-1.65-1.02-2.46-.23-.51-.28-1.03-.22-1.63.08-.76-.01-1.64-.35-2.31-.48-.98-.23-1.83.03-2.72.29-.97.48-1.97.75-2.95.16-.61-.13-1.29.03-1.98.24-1.04.56-2.06,1.08-2.95.46-.8.56-1.61.62-2.46.04-.56-.03-1.13-.03-1.7,0-.26-.02-.56.09-.78.41-.8.63-1.61.51-2.51-.07-.52.37-.66.7-.92.79-.62,1.46-1.35,1.47-2.45.15-.1.3-.2.46-.29.37-.05.74-.09,1.12-.14.14.14.32.2.51.19,2.41-.04,4.82-.18,7.22.03.08,1.02.01,2.03-.14,3.04-.3,1.96-.51,3.94-.9,5.89-.55,2.8-1.25,5.57-1.84,8.36-.56,2.61-1.01,5.25-.77,7.94.17,1.87.37,3.73.56,5.6-.37,0-.41.26-.36.53.06.32.15.64.22.96-.11,1.54.27,3.04.35,4.56Z"/>
      <path class="cls-1" d="M214.86,340.34c-.62.11-.57.67-.64,1.07-.19,1.08-.32,2.16-.45,3.25-.44,3.72-.58,7.45-.5,11.2.05,2.44.43,4.81,1.24,7.1.34.97.63,1.95.73,2.96.13,1.34-.25,2.62-.78,3.84-.91,2.12-1.8,4.24-2.41,6.56-.63-.69-.47-1.65-.97-2.38-.26,1.53.11,2.91.51,4.28.38,1.34.81,2.68,1.09,4.04.35,1.69.29,3.38-.66,5.07-.65-1.11-1.47-1.82-2.75-1.14-1.1.59-1.14,1.58-.82,2.74-.74.12-1.28-.15-1.79-.56-.98-.79-1.46-1.89-1.83-3.05,0-.48-.33-.95-.06-1.44.32.17.43.5.54.8.24.65.66,1.05,1.38,1.08,1.06.37,2.12-.02,2.91-1.06,1.1-1.44,1.18-3.06.78-4.73-.26-1.1-.65-2.16-.97-3.24-.43-1.42-.48-2.84-.32-4.34.14-1.3.57-2.49.85-3.72.13-.58.28-1.2.79-1.59.53-.41.58-.97.47-1.54-.16-.81-.34-1.62-.62-2.39-1.35-3.67-2.73-7.33-3.89-11.08-.4-1.3-.66-2.62-.87-3.95-.07-.45-.22-.98.17-1.4.41.13.48.56.72.83.19.21.27.56.65.56.04.03.07.06.11.09-.03-.04-.06-.08-.08-.12-.07-.57-.42-1.03-.66-1.53-.6-1.28-1.28-2.52-1.61-3.91.3-.06.61.41.91,0,.38.41.32,1.08.82,1.44.16-.29.03-.53-.05-.78-.59-1.71-1.01-3.47-1.37-5.25-.15-.73-.07-1.51-.52-2.16-.09-.49.11-.93.21-1.39,3.57,1.41,6.98,3.09,9.76,5.84ZM211.67,363.07c-.06-.08.09-.32-.16-.22-.05.02.05.19.17.22-.1.54.06,1.06.25,1.54.47,1.22.46,2.42-.05,3.62-.13.31-.24.64-.32.96-.12.47-.22.95-.18,1.59.45-.5.45-1.02.71-1.43,1.4-2.19.99-4.28-.42-6.29ZM210.38,358.05c.03,1.24,1.48,4.56,2.39,5.47-.1-1-1.64-4.53-2.39-5.47Z"/>
      <path class="cls-1" d="M235.94,384.71c.09,2.32-1.42,4.33-3.58,4.77-.21-.3.05-.57.07-.86.08-1.15-.43-2.01-1.42-2.29-.81-.23-1.47.16-2.02,1.21-.05.1-.08.2-.26.22-.39-.25-.49-.72-.59-1.14-.35-1.56-.47-3.12-.02-4.7.35-1.23.64-2.48,1-3.71.3-1,.31-2,.22-3.13-.5.49-.32,1.25-.91,1.65-.35-.53-.4-1.14-.56-1.7-.44-1.49-1.17-2.86-1.81-4.27-.44-.97-.73-1.98-.95-3.01-.26-1.19.12-2.34.43-3.45.59-2.08,1.02-4.17,1.22-6.32.04-.41.04-.83.04-1.24.03-4.43-.38-8.81-1.18-13.16-.12-.63-.14-1.27-.32-1.89-.09-.3-.18-.58-.47-.74,2.63-2.92,6.04-4.63,9.59-6.11.01.44.03.89.04,1.33-.27,1.46-.51,2.93-.81,4.39-.3,1.43-.67,2.85-1.04,4.41.27-.19.38-.27.5-.35.32.23.2.58.23.89.09.81-.51,1.37-.74,2.06-.11.34-.46.67-.13,1.15.84-.63,1-1.61,1.53-2.35.54.72.13,1.49,0,2.17-.57,3.34-1.57,6.58-2.62,9.8-.74,2.29-1.56,4.55-2.14,6.89-.25,1-.11,1.83.53,2.74.75,1.06,1.25,2.37,1.41,3.65.25,1.96.45,3.97-.14,5.94-.4,1.33-.81,2.67-.94,4.06-.21,2.29.76,3.78,2.77,4.64.56.24,1.27.32,1.75-.32.56-.28.66-1.05,1.3-1.25ZM227.46,363.83c.79-.71,1.06-1.71,1.46-2.63.76-1.74.86-2.2.72-2.98-.7,1.47-1.38,2.85-1.92,4.29-.16.43-.34.84-.25,1.31-.11.07-.26.13-.08.28.02-.1.05-.19.07-.29ZM228.36,363.8c-1.55,2.5-1.33,5.09.65,7.28.1-.79-.28-1.43-.55-2.07-.55-1.35-.61-2.7-.24-4.08.1-.37.22-.72.17-1.11.1-.05.17-.12.16-.24,0-.03-.08-.05-.12-.08l-.07.29ZM228.76,362.9s-.04-.05-.06-.08c-.02.02-.06.04-.07.07-.01.09.03.13.09.1.02-.01.02-.06.03-.09Z"/>
      <path class="cls-12" d="M248.97,369.16c-.08-1.52-.46-3.03-.35-4.56.24.1.27.5.66.51-.08-.74-.32-1.37-.52-2-.19-1.87-.39-3.73-.56-5.6-.25-2.69.21-5.32.77-7.94.59-2.79,1.29-5.56,1.84-8.36.38-1.95.59-3.93.9-5.89.16-1.01.23-2.02.14-3.03,0-.07,0-.14,0-.22.48.02.96-.02,1.41.16.05.03.1.05.16.05.36-.05.66.1.97.25.13,3.85-.7,7.58-1.44,11.31-.89,4.48-1.88,8.93-2.79,13.41-.38,1.89-.54,3.81-.65,5.73-.13,2.21.27,4.37.97,6.46,1.26,3.81,2.79,7.49,5.1,10.81.3.43.61.86.94,1.27.16.2.39.35.59.53-.16.27-.45.33-.76.36-.39-.6-1.03-.86-1.64-1.13-.72-.32-1.17-.82-1.53-1.55-.93-1.86-1.85-3.71-2.64-5.63-.6-1.43-.86-2.96-1.32-4.43-.06-.18-.08-.37-.24-.5Z"/>
      <path class="cls-11" d="M205.1,334.5c-.11.46-.31.9-.21,1.39-.25.42-.18.85-.12,1.3.22,1.86.68,3.66,1.25,5.44-.3.42-.61-.06-.91,0-.27-.53-.28-1.19-.79-1.6-.28-1.6-.08-3.27-.76-4.81-.03-.06-.02-.16.01-.22.36-.64-.05-.85-.56-1.02-.17-.06-.41-.16-.46-.3-.3-.84-1.04-.98-1.75-1.16-.19-.05-.32-.18-.43-.34l.61-.05s0,0,0,0c.03.14.12.22.27.19.97-.02,1.8.49,2.7.73.4.11.77.29,1.16.43Z"/>
      <path class="cls-3" d="M251.85,332.07c0,.07,0,.14,0,.22-2.41-.21-4.81-.07-7.22-.03-.2,0-.37-.05-.51-.19.13-.07.26-.18.39-.19,2.38-.18,4.77-.3,7.14.09.07.01.13.07.19.11Z"/>
      <path class="cls-3" d="M200.97,333.15c-.2.02-.41.03-.61.05-.1-.03-.21-.05-.31-.08-.54-.34-1.12-.49-1.75-.4-.7-.39-1.49-.41-2.25-.5-.64-.07-1.26-.15-1.86-.38,1.46-.21,2.84.26,4.26.44.71.09,1.4.29,2.11.43.26.05.42.16.42.43Z"/>
      <path class="cls-3" d="M189.88,331.88c-.8.35-1.71.18-2.5.55-.42-.04-.81.14-1.22.19-.62.08-.84.39-.83.98,0,.37.11.76-.16,1.09-.04-.66-.07-1.31-.11-1.97.15-.11.28-.27.45-.32,1.43-.39,2.87-.72,4.37-.52Z"/>
      <path class="cls-3" d="M243,332.2c-.15.1-.3.2-.46.29-.08-.05-.16-.1-.24-.14.19-.22.43-.26.7-.15Z"/>
      <path class="cls-3" d="M241.89,332.42c-.2.24-.46.23-.73.17.21-.21.45-.27.73-.17Z"/>
      <path class="cls-3" d="M253.42,332.28c-.06,0-.11-.02-.16-.05,0,0,.09-.03.09-.03l.07.08Z"/>
      <path class="cls-3" d="M201.24,333.34c-.15.03-.24-.04-.27-.19.09.06.18.13.27.19Z"/>
      <path class="cls-3" d="M259.55,391.82c.27,1.64.26,3.29.1,4.94-.12-.04-.23-.08-.35-.12-.06-.77-.17-1.52-.75-2.11-.36-.92-.83-1.74-1.9-1.98-.89-.19-1.1-.07-1.59.97-.68,1.26-.49,2.62-.46,3.97-1.07.12-1.57-.49-1.99-1.38-.6-1.28-1.09-2.61-1.67-3.9-.14-.32-.16-.76-.65-.8-.03-.11-.05-.22-.09-.32-.68-1.58-1.85-2.77-3.08-3.93.74-.63,1.7-1.03,2.05-2.04.45-.07.87-.25,1.29-.41,1.04-.39,2.13-.52,3.23-.38,1.65.22,2.81,1.22,3.68,2.57.99,1.52,1.69,3.18,2.18,4.93Z"/>
      <path class="cls-3" d="M245.12,396.51c-.26.5-.14,1.05-.22,1.57-.6.02-1.21.07-1.81.07-2.25,0-4.18-1.78-4.41-4.03-.02-.22-.01-.46-.22-.62-.02-.14-.05-.29-.07-.43.72-1.93,1.76-3.65,3.4-4.96.17-.13.25-.37.37-.56,1.2-.45,2.34-.28,3.5.2,1.61.67,2.54,1.95,3.21,3.46.65,1.45.99,3,1.19,4.57.1.81.1,1.65-.43,2.6-.16-1.16-.45-2.04-.92-2.86-.27-.46-.52-.92-.95-1.25-1.01-.8-1.82-.6-2.27.6-.2.52-.4,1.06-.36,1.64Z"/>
      <path class="cls-3" d="M256.82,383.11c1.07-.33,2.14-.63,3.28-.58,1.99.07,3.47,1.03,4.6,2.62.3.43.58.87.87,1.31.82,2.09,1.3,4.25,1.26,6.69-.51-.72-.76-1.37-1.38-1.71-1.09-1-1.72-.86-2.32.48-.33.73-.39,1.5-.5,2.27-.31-.02-.3-.28-.37-.48-.32-.8-.6-1.62-.97-2.4-.32-.66-.56-1.4-1.29-1.77-.43-.96-.84-1.93-1.31-2.87-.5-.99-1.39-1.67-2.13-2.46.33-.21.44-.62.86-.79-.27-.13-.43-.21-.58-.29Z"/>
      <path class="cls-1" d="M238.39,393.09c.02.14.05.29.07.43-.3.32-.28.75-.43,1.12-.39,1.01-.03,2.08-.26,3.1-.07-.02-.19-.07-.21-.05-.67.76-1.36.33-1.97-.04-.98-.6-1.8-1.35-1.94-2.62-.13-1.2-.32-2.38-.51-3.57-.07-.43.02-.74.45-.9,2.26-.85,2.87-2.8,3.31-4.89.34-1.61-.07-3.06-.7-4.49-.08-.18-.15-.34-.14-.53.28.02.51.12.65.38.51.97.94,1.95,1.05,3.07.17,1.91-.22,3.74-.8,5.52-.43,1.31-.11,2.22,1.1,3.39.07.07.21.07.32.1Z"/>
      <path class="cls-13" d="M245.12,396.51c-.03-.58.17-1.12.36-1.64.46-1.2,1.26-1.4,2.27-.6.42.34.68.8.95,1.25.48.82.76,1.71.92,2.86.54-.95.54-1.78.43-2.6-.2-1.57-.54-3.11-1.19-4.57-.68-1.51-1.6-2.79-3.21-3.46-1.16-.48-2.3-.65-3.5-.2-.35-.15-.57.25-.9.2-.08-.07-.16-.15-.23-.22.65-.55,1.36-.96,2.23-1.03.09,0,.17-.02.26-.03.37,0,.74.01,1.11.02.15.01.31.02.46.04.67.21,1.35.42,2.02.62,1.23,1.15,2.39,2.35,3.08,3.93.04.1.06.21.09.32.2.94.44,1.87.59,2.82.29,1.89.5,3.79-.42,5.6-.48-.82-1.12-.41-1.73-.22.07-.94.08-1.86-.4-2.72-.06-.41-.25-.77-.5-1.08-.22-.27-.37-.73-.89-.58h-.03c.13-.08.15-.18.06-.29-.29-.34-.47-.27-.57.14-.27.35-.46.73-.41,1.19-.08.08-.16.16-.23.24-.21,0-.43,0-.64.01Z"/>
      <path class="cls-13" d="M256.54,384.19c.75.79,1.63,1.47,2.13,2.46.47.94.88,1.91,1.31,2.87.05.78.49,1.49.47,2.28-.3,0-.61.02-.91.03-.49-1.75-1.19-3.41-2.18-4.93-.88-1.35-2.03-2.34-3.68-2.57-1.1-.15-2.19-.01-3.23.38-.42.16-.84.34-1.29.41-.14-.11-.53-.13-.22-.43.58-.55,1.25-.97,2.01-1.19,1.83-.54,3.62-.62,5.26.58.09.06.21.08.31.11Z"/>
      <path class="cls-5" d="M235.94,384.71c-.64.2-.74.97-1.3,1.25-.02-.11,0-.27-.07-.32-.61-.51-.65-1.11-.34-1.8.07-.16.13-.42.05-.54-.6-.89-.33-1.83-.26-2.77.05-.61-.31-1.16-.26-1.78.03-.48-.02-.97.08-1.5.78.94,1.38,1.98,2,3.01-.44-.04-.35.23-.29.5.31,1.3.44,2.63.4,3.97Z"/>
      <path class="cls-5" d="M241.75,363.44c.4-.16.61-.55.92-.82,1.14-1.03,3.15-1.4,4.47.3.11.14.23.31.27.48.17.59-.1.87-.68.69-1.11-.36-2.21-.39-3.31.02-.1.04-.18.13-.26.2-.42,0-.76.24-1.13.39-.5.21-.74.03-.61-.47.07-.27.07-.6.33-.8Z"/>
      <path class="cls-2" d="M249.27,381.46c-.44.51-.91.43-1.39.06-.18-.14-.37-.28-.49-.47-.92-1.43-2.07-4.28-1.56-6.5.46.27.46.74.61,1.12.37,2.21.84,4.36,2.83,5.78Z"/>
      <path class="cls-1" d="M232.42,368.73c.17-.12.32-.21.6-.4.02.75.04,1.41.05,2.07,0,.19,0,.41-.22.45-.12.02-.28-.09-.39-.18-.82-.66-1.33-2.17-.95-3.17.33-.86.83-1.65,1.62-2.46-.09,1.36-1.09,2.34-.72,3.69Z"/>
      <path class="cls-10" d="M233.11,344.63c-.12.08-.23.16-.5.35.37-1.56.74-2.98,1.04-4.41.31-1.46.55-2.93.81-4.39.48.59.28,1.29.22,1.93-.1,1.03-.32,2.05-.49,3.08-.3,1.17-.92,2.23-1.08,3.45Z"/>
      <path class="cls-10" d="M234,346.38c-.52.74-.69,1.71-1.53,2.35-.33-.48.01-.8.13-1.15.23-.69.82-1.26.74-2.06.25-.04.36-.2.46-.43.41-.97.82-1.95,1.05-2.99.1-.02.21-.04.31-.06-.22,1.49-.64,2.93-1.17,4.34Z"/>
      <path class="cls-9" d="M249.27,381.46c-1.99-1.42-2.46-3.57-2.83-5.78.39.34.5.82.7,1.27.6,1.38,1.14,2.79,2.14,3.96.15.18.29.37,0,.55Z"/>
      <path class="cls-11" d="M234.86,342.1c-.24,1.04-.64,2.01-1.05,2.99-.1.23-.21.39-.46.43-.03-.31.09-.66-.23-.89.15-1.21.78-2.28,1.08-3.45.19.17.29.49.64.44,0,.16.02.32.03.48Z"/>
      <path class="cls-9" d="M241,377.78c.5,1.73,1.09,3.42,2.05,5.21-1.25-.75-2.11-3.1-2.05-5.21Z"/>
      <path class="cls-14" d="M242.4,383.57c.6.08,1.18.16,1.54.88-.73-.06-1.25-.26-1.54-.88Z"/>
      <path class="cls-1" d="M234.86,342.1c0-.16-.02-.32-.03-.48.12-.34.23-.67.39-1.14.42.63.1,1.09-.05,1.56-.1.02-.21.04-.31.06Z"/>
      <path class="cls-5" d="M239.33,366.02c-.01-.4-.09-.83.35-1.08.08-.05.22-.04.31,0,.13.05.09.18.05.28-.13.36-.36.64-.7.81h0Z"/>
      <path class="cls-10" d="M241.03,387.54c.08.07.16.15.23.22-.2.33-.49.22-.78.21.03-.38.3-.4.54-.44Z"/>
      <path class="cls-1" d="M245.09,386.53c-.15-.01-.31-.02-.46-.04.17-.18.32-.15.46.04Z"/>
      <path class="cls-1" d="M243.51,386.48c-.09,0-.17.02-.26.03.08-.1.16-.12.26-.03Z"/>
      <path class="cls-5" d="M239.33,366.02s-.04.09-.05.09c-.08-.02-.06-.06.05-.1,0,0,0,0,0,0Z"/>
      <path class="cls-4" d="M200.05,333.12c.1.03.21.05.31.08.11.16.24.29.43.34.72.18,1.45.32,1.75,1.16.05.14.28.24.46.3.51.17.92.38.56,1.02-.03.06-.04.16-.01.22.68,1.54.48,3.21.76,4.81.02.23.04.46.06.69-.02.03-.07.06-.06.08.02.06.06.11.09.16.03.15.07.29.1.44-.24.11-.57.21-.31.55.37.48.4,1.03.53,1.58.11.44.14,1.03.81,1.07.03.05.04.1.05.16,0,.13.05.22.16.29.12.21.23.42.24.67-.39.42-.25.95-.17,1.4.21,1.33.47,2.66.87,3.95,1.15,3.74,2.54,7.4,3.89,11.08.28.77.46,1.58.62,2.39.11.56.06,1.12-.47,1.54-.51.4-.66,1.01-.79,1.59-.28,1.24-.72,2.43-.85,3.72-.16,1.5-.11,2.91.32,4.34.32,1.08.71,2.15.97,3.24.4,1.67.32,3.29-.78,4.73-.79,1.03-1.85,1.43-2.91,1.06.06-.4.14-.77.04-1.2-.33-1.44-.4-2.89-.06-4.35.21-.87.32-1.77.24-2.68-.02-.18.03-.4-.19-.49-.23-.09-.36.09-.44.25-.42.87-1.09,1.61-1.41,2.55-.23.09-.37.26-.47.47-.2.02-.37.09-.46.28-.55,1.16-1.08,2.31-1.14,3.63-.08,1.77.31,3.43.97,5.05.64,1.57.17,2.9-1.35,3.78-.17-.42-.32-.84-.52-1.25-.7-1.47-1.35-2.97-2.92-3.76-.2-.1-.4-.22-.45-.47.15-.04.31-.08.46-.13.14.05.28.1.42.15.23.24.48.42.88.33-.15-.49-.43-.74-.88-.8-.92-.58-1.92-.87-3.01-.76-1.1.11-2.12.47-3.09.99-.5-.61-.92-1.29-1.62-1.72-.16-.1-.23-.28-.24-.47.6-.24.28-.46-.02-.67-1.9-1.31-4.64-1.98-7.21-.1-.37-.25-.75-.49-1.11-.76-.16-.12-.27-.29.05-.37.57-.13,1.17.16,1.79-.11-.2-.48-.71-.43-1-.68.44-.53,1.09-.74,1.67-1.05.75-.4,1.34-.95,1.79-1.67,1.3-2.09,2.16-4.37,2.92-6.7.55.04.85-.09.95-.76.09-.58.09-1.18.29-1.75.13-.37-.08-.55-.38-.68,0-.08.02-.16.02-.24.1-.06.19-.13.3-.16,1.2-.37,1.75-1.2,1.78-2.42,0-.2.1-.37.27-.47.69-.39,1.37-.8,2.07-1.15.34-.17.75-.15,1.11-.03.79.27,1.62.33,2.42.51.19.04.41.16.54.02.44-.44.87-.22,1.43.16-.1-.76-.15-1.34-.16-1.92-.01-.81.03-1.58.48-2.29.24-.37.32-.78,0-1.16-.3-.35-.22-.68-.03-1.04.35-.68.38-1.41.09-2.08-.41-.95-.2-1.88.08-2.74.47-1.42.22-2.85.28-4.27,0-.17-.09-.37-.19-.52-.59-.85-.74-1.81-.7-2.8.08-2.05-.19-4.05-.7-6.02-.15-.57-.47-1.11-.59-1.69-.35-1.8-.81-3.61-.36-5.46.09-.36-.19-.65-.16-.99.28,0,.57.01.85.02ZM196.46,384.4c.69-.09,1.39-.17,1.89-1.02-.88.12-1.51.32-1.89,1.02-.1.04-.11.07-.04.08,0,0,.02-.06.04-.09ZM197.82,382.81c.32-.08.54-.31.67-.57.67-1.38,1.04-2.83,1.06-4.37-.42.55-.51,1.24-.7,1.87-.32,1.03-.83,2.01-1.01,3.09-.1.03-.12.06-.05.08,0,0,.03-.06.04-.09ZM207.13,364.66c-.04-.1-.07-.12-.08-.05,0,0,.06.03.09.04-.06.63.19,1.18.42,1.73.26.62.47,1.25.45,1.91-.32.14-.34-.32-.62-.22-.02.45,0,.9-.07,1.34-.07.43-.36.86.11,1.24,1.19-.85,1.84-2.4,1.38-3.5-.39-.94-.94-1.78-1.68-2.5ZM194.1,375.43c-.47.05-.42.51-.52.77-.64,1.68-1.18,3.4-2.39,4.78-.07.08-.12.2-.11.3.01.13.16.12.26.13,1.28.31,1.91-.38,2.48-1.43.71-1.31.89-2.71,1.03-4.12.04-.43.2-.95-.24-1.39-.19.36-.35.66-.51.95Z"/>
      <path class="cls-3" d="M191.46,385.15c.01.19.09.38.24.47.7.43,1.12,1.1,1.62,1.72-1.33,1.18-2.19,2.65-2.79,4.3-.83.4-.87,1.26-1.08,1.99-.27.94-.55,1.88-1.01,2.75-.42.77-1.03,1.28-1.98,1.19.04-.98-.03-1.96-.22-2.93-.18-.88-.45-1.79-1.41-2.01-.87-.2-1.42.53-1.94,1.14-.66.77-.97,1.69-1.19,2.66-.15,0-.3,0-.44,0-.05-.45-.11-.91-.16-1.36.04-.34.09-.67.11-1.01.16-2.25.7-4.4,1.83-6.36,1.65-2.86,3.96-4.01,7.23-2.88.39.14.8.22,1.19.33Z"/>
      <path class="cls-3" d="M198.54,387.56c.05.25.24.37.45.47,1.57.79,2.22,2.3,2.92,3.76.19.41.35.83.52,1.25,0,.37,0,.73,0,1.1-.09.16-.2.32-.28.48-1.12,2.27-2.73,3.72-5.47,3.37-.15-.02-.3,0-.45.01-.1-.63-.16-1.27-.3-1.89-.1-.44-.25-.87-.45-1.27-.69-1.37-1.73-1.5-2.73-.3-.74.89-1.09,1.96-1.24,3.1-.04.33-.05.67-.07,1.03-.33,0-.19-.38-.4-.45-.03-.37-.06-.75-.09-1.12-.15-2.38.3-4.66,1.46-6.74,1.11-2,2.74-3.27,5.16-3.22.09.11.19.14.3.04.09.03.19.06.28.09.13.1.25.19.38.29Z"/>
      <path class="cls-12" d="M185.17,334.69c.27-.33.17-.73.16-1.09-.01-.59.21-.9.83-.98.41-.05.79-.23,1.22-.19-.09,1.48.27,2.93.54,4.35.69,3.65,1.43,7.3,2.42,10.88.46,1.67.86,3.35,1.19,5.04.42,2.19.58,4.39.2,6.61-.21,1.25-.31,2.53-.46,3.79-.15.6-.12,1.24-.5,1.78-.07-3.07-.54-6.09-1.2-9.07-1.06-4.78-2.31-9.52-3.42-14.3-.52-2.24-.78-4.53-.98-6.82Z"/>
      <path class="cls-3" d="M183.17,383.26c-.32.08-.22.25-.05.37.36.27.74.51,1.11.76-.44.45-.89.89-1.31,1.36-1.12,1.29-1.72,2.85-2.24,4.45-.33-.18-.46,0-.57.29-.4,1.05-.8,2.1-1.23,3.15-.12.28-.07.72-.56.74-.07-.71-.24-1.41-.52-2.07-.45-1.05-1.36-1.59-2.34-.47-.1.11-.22.2-.34.3-.2-.1-.21-.25-.17-.47.14-.85.13-.85-.7-1.16.26-1.48.62-2.92,1.31-4.28,1.52-2.99,4.79-4.05,7.61-2.97Z"/>
      <path class="cls-1" d="M202.43,394.14c0-.37,0-.73,0-1.1,1.52-.87,1.99-2.21,1.35-3.78-.66-1.62-1.06-3.29-.97-5.05.06-1.31.59-2.47,1.14-3.63.09-.19.26-.26.46-.28.06.51-.2.94-.34,1.4-.54,1.78-.51,3.51.31,5.2.05.23.1.46.15.69-.03.1.04.15.11.2.42,1.16,1.35,1.76,2.41,2.23.93.41,1,.42.73,1.42-.28,1.07-.15,2.17-.36,3.26-.19,1.02-.73,1.74-1.5,2.3-.67.48-1.44.8-2.23.97-.29-.23-.05-.65-.38-.81-.01-.41.02-.82-.05-1.21-.11-.67-.1-1.41-.83-1.8Z"/>
      <path class="cls-8" d="M202.43,394.14c.73.39.72,1.13.83,1.8.07.4.03.81.05,1.21-.1,1.22-.71,2.08-1.76,2.71-1.89,1.13-3.9,1.75-6.12,1.58-.23-.02-.46-.01-.67-.06-.49-.1-.57-.3-.28-.69.07-.09.15-.17.23-.25.75-.67,1.25-1.49,1.53-2.45.15,0,.3-.03.45-.01,2.73.35,4.35-1.11,5.47-3.37.08-.17.19-.32.28-.48Z"/>
      <path class="cls-12" d="M190.34,373.06c-.76,2.32-1.62,4.61-2.92,6.7-.45.72-1.04,1.27-1.79,1.67-.58.31-1.23.52-1.67,1.05-.11-.1-.46-.08-.25-.35,3.64-4.5,5.56-9.75,6.76-15.32.06-.26.08-.52.12-.78.21-.44.37-.91.81-1.19.54.71.26,1.5.18,2.26-.09.85-.23,1.7-.35,2.54,0,.08-.02.16-.02.24-.44,1.02-.58,2.12-.86,3.18Z"/>
      <path class="cls-13" d="M180.68,390.2c.52-1.6,1.12-3.16,2.24-4.45.41-.47.87-.91,1.31-1.36,2.57-1.88,5.31-1.21,7.21.1.29.2.61.43.02.67-.4-.11-.81-.2-1.19-.33-3.27-1.13-5.58.02-7.23,2.88-1.13,1.96-1.67,4.11-1.83,6.36-.02.34-.07.67-.11,1.01-.65.01-.54.5-.51.87.05.55-.04,1.21.75,1.37.05.08.1.16.16.24-.4.1-.42.69-.9.69-.35-.64-.41-1.34-.46-2.04-.14-2.03.14-4.02.56-6Z"/>
      <path class="cls-8" d="M186.46,397.57c.95.09,1.56-.42,1.98-1.19.47-.86.74-1.8,1.01-2.75.21-.73.25-1.58,1.08-1.99.05.46-.2.86-.29,1.3-.38,1.84-.61,3.68-.06,5.53.03.5.2.95.43,1.39.16.3.12.48-.2.6-1.78.7-3.57.83-5.37.08-.63-.27-.69-.44-.36-1.01.21-.36.47-.68.86-.87.47-.23.74-.62.92-1.09Z"/>
      <path class="cls-13" d="M190.19,398.48c-.55-1.85-.32-3.69.06-5.53.09-.43.34-.83.29-1.3.6-1.65,1.46-3.13,2.79-4.3.97-.52,2-.88,3.09-.99,1.09-.11,2.09.18,3.01.76,0,.16,0,.32,0,.47-.14-.05-.28-.1-.42-.15-.25-.19-.51-.36-.83-.16-.09-.03-.19-.06-.28-.09-.1-.01-.2-.03-.3-.04-2.42-.06-4.05,1.22-5.16,3.22-1.16,2.09-1.6,4.36-1.46,6.74.02.37.06.75.09,1.12-.29.08-.58.16-.86.25Z"/>
      <path class="cls-8" d="M180.68,390.2c-.42,1.98-.7,3.97-.56,6,.05.71.11,1.41.46,2.04.26,1.12.17,1.23-.99,1.34-1.04.09-2-.18-2.91-.68-.33-.18-.42-.37-.23-.71.19-.33.33-.71.71-.83.94-.3,1.06-1.06,1.11-1.87.02-.37.03-.74.04-1.12.49-.01.44-.45.56-.74.43-1.04.83-2.09,1.23-3.15.11-.29.24-.46.57-.29Z"/>
      <path class="cls-3" d="M170.77,388.68c.63-2.28,2.09-3.7,4.46-4.23-1.26,1.53-1.61,3.4-2.09,5.22-.45,0-.89,0-1.34-.01-.81-.03-.83-.06-1.04-.97Z"/>
      <path class="cls-8" d="M170.77,388.68c.21.92.23.94,1.04.97.45.02.89.01,1.34.01,0,1.65-.2,3.3-.1,4.96.04.71.32,1.4.22,2.12-.91.02-1.16-.1-1.97-.89,1.6-1.52.77-3.19.28-4.85-.18-.6-.75-.48-1.21-.54-.02-.68.12-1.25.41-1.78Z"/>
      <path class="cls-7" d="M185.2,394.84c.27.05.35.25.36.49.01.37-.02.75.02,1.12.09.76-.13,1.33-.8,1.79-.68.48-1.04,1.25-1.42,1.98-.13.26-.27.51-.53.1.07-.08.2-.16.21-.24.08-1.67.84-3.13,1.4-4.64.25-.19.51-.39.76-.58Z"/>
      <path class="cls-7" d="M177.09,393.69c.61,1.08.42,2.4-.5,3.04-.7.49-1.02,1.27-1.55,1.91-.32-.34-.4-.69-.37-1.08.1-.05.26-.09.28-.17.32-1.03.93-1.94,1.33-2.94.29-.23.32-.74.81-.76Z"/>
      <path class="cls-13" d="M204.38,386.91c-.82-1.69-.85-3.43-.31-5.2.14-.46.4-.89.34-1.4.1-.22.25-.38.47-.47.25.04.38.12.31.43-.16.68-.27,1.37-.4,2.06-.14.15-.16.33-.07.51.02.35.03.69.05,1.04-.27.49.07.96.06,1.44-.57.12-.41.55-.37.9.03.25.26.49-.08.69Z"/>
      <path class="cls-8" d="M194.72,395.28c.32.24.21.6.24.92-1.19,1.28-1.6,2.87-1.84,4.53-.01.1.06.21.1.31-.12.32-.33.49-.49.07-.37-.92-.49-1.89-.32-2.88.24.01.52-.05.56-.27.15-.75.75-1.29.89-2,.12-.57.45-.64.88-.68Z"/>
      <path class="cls-7" d="M193.21,401.05c-.03-.11-.11-.22-.1-.31.24-1.66.65-3.26,1.84-4.53.34.75.13,1.54.14,2.31,0,.17-.09.39-.22.49-.7.57-1.11,1.37-1.68,2.05Z"/>
      <path class="cls-8" d="M210.37,386.85c.54.03.67.49.74.86.24,1.17.14,2.29-.66,3.42-.29-.88-.63-1.6-1.01-2.31-.44-.81-.29-1.31.4-1.94-.15.84-.14,1.65.58,2.44.26-.93.07-1.7-.05-2.48Z"/>
      <path class="cls-8" d="M176.28,394.46c-.4,1-1.01,1.9-1.33,2.94-.02.08-.18.11-.28.17-.11-1.09-.14-2.18.2-3.24.26-.8.69-1.5,1.34-2.05.26-.21.48-.22.54.19-.34.24-.62.51-.82.89-.25.5-.16.85.34,1.1Z"/>
      <path class="cls-8" d="M184.44,395.42c-.56,1.52-1.32,2.98-1.4,4.64,0,.08-.14.16-.21.24-.34-1.44-.54-2.88,0-4.32.59.11.75-.34.98-.73.34-.58.49-.19.63.16Z"/>
      <path class="cls-7" d="M171.16,392.33c.24.37.1.81.23,1.2.19.56.09.94-.54,1.24-.61.28-.96.92-1.36,1.47-.16.23-.36.27-.47-.06.27-.15.3-.44.31-.68.1-1.36,1.07-2.19,1.82-3.17Z"/>
      <path class="cls-8" d="M171.16,392.33c-.75.97-1.73,1.81-1.82,3.17-.02.23-.04.53-.31.68-.18-1.52-.11-2.99.91-4.25.14-.17.28-.36.45-.49.38-.3.58-.23.69.23.05.22.06.44.08.67Z"/>
      <path class="cls-3" d="M184.44,395.42c-.14-.34-.29-.74-.63-.16-.23.39-.39.84-.98.73.02-.85.56-1.43,1.07-2.01.21-.24.47-.55.85-.38.38.16.54.5.52.91,0,.11-.05.22-.07.33-.25.19-.51.39-.76.58Z"/>
      <path class="cls-3" d="M194.72,395.28c-.43.04-.76.11-.88.68-.15.71-.74,1.26-.89,2-.04.22-.32.28-.56.27.04-.87.23-1.71.65-2.47.28-.51.59-1.09,1.37-.88.07.07.14.13.21.2.04.07.07.14.11.21Z"/>
      <path class="cls-8" d="M174.26,390.51c.84.31.85.31.7,1.16-.04.21-.03.36.17.47-.32.47-.64.93-1.04,1.52-.28-1.15-.04-2.15.16-3.14Z"/>
      <path class="cls-3" d="M176.28,394.46c-.5-.25-.59-.6-.34-1.1.19-.39.48-.66.82-.89.24.37.44.76.33,1.23-.48.03-.52.53-.81.76Z"/>
      <path class="cls-3" d="M210.37,386.85c.12.78.31,1.55.05,2.48-.72-.79-.74-1.6-.58-2.44,0,0,.02-.02.02-.02.09-.04.19-.08.28-.12l.23.1Z"/>
      <path class="cls-1" d="M191.41,364.84c-.44.28-.6.75-.81,1.19-.04-.4-.11-.8.18-1.14.38-.53.35-1.18.5-1.78.38-.01.44.25.4.52-.06.4-.18.8-.27,1.2Z"/>
      <path class="cls-8" d="M181.49,397.56c-.05-.08-.1-.16-.16-.24-.05-.29-.19-.58-.07-.89.15,0,.3,0,.44,0,0,.39.13.8-.21,1.13Z"/>
      <path class="cls-8" d="M194.62,395.08c-.07-.07-.14-.13-.21-.2.15-.02.21.05.21.2Z"/>
      <path class="cls-8" d="M210.14,386.75c-.09.04-.19.08-.28.12.02-.21.13-.22.28-.12Z"/>
      <path class="cls-13" d="M204.64,387.8c-.08-.04-.14-.09-.11-.2.04.07.08.13.11.2Z"/>
      <path class="cls-12" d="M193.06,363.75c.29-1.73,1.53-2.46,3.28-1.88.96.32,1.72.9,2.22,1.8.11.2.23.42.04.62-.18.19-.42.14-.64.06-.49-.18-.98-.39-1.47-.57-.72-.26-1.44-.37-2.21-.13-.38.12-.82.07-1.23.09h0Z"/>
      <path class="cls-11" d="M200.05,333.12c-.28,0-.57-.01-.85-.02-.34-.03-.63-.18-.9-.38.63-.09,1.21.06,1.75.4Z"/>
      <path class="cls-12" d="M193.06,363.75s-.04.09-.05.08c-.07-.01-.05-.05.05-.08,0,0,0,0,0,0Z"/>
      <path class="cls-8" d="M237.78,397.73c.23-1.02-.13-2.08.26-3.1.14-.37.13-.81.43-1.12.21.16.2.39.22.62.23,2.24,2.16,4.02,4.41,4.03.6,0,1.21-.05,1.81-.07,0,.86.4,1.51,1.05,2.03.33.26.57.59.82,1-.26.27-.57.34-.9.38-2.63.31-5.01-.36-7.12-1.94-.6-.45-.98-1.04-.96-1.82Z"/>
      <path class="cls-8" d="M250.46,399.82c.92-1.81.71-3.7.42-5.6-.15-.95-.39-1.88-.59-2.82.49.05.51.48.65.8.58,1.29,1.07,2.62,1.67,3.9.42.89.92,1.5,1.99,1.38.24.49.62.83,1.07,1.13.47.32.97.79.89,1.34-.08.56-.81.59-1.29.76-1.54.56-3.04.14-4.54-.27-.38-.1-.28-.38-.28-.63Z"/>
      <path class="cls-8" d="M260.46,391.8c.02-.8-.43-1.5-.47-2.28.73.37.98,1.11,1.29,1.77.37.78.65,1.6.97,2.4.08.2.06.47.37.48.21.43.13.89.16,1.33.05.66.29,1.15.91,1.45.24.11.47.22.65.44.46.58.42.84-.25,1.22-1.22.69-2.49.76-3.79.34-.12-.35.04-.63.13-.91.66-1.96.35-3.95.17-5.93,0-.11-.09-.21-.14-.31Z"/>
      <path class="cls-13" d="M265.44,391.43c.62.35.87,1,1.38,1.71.05-2.45-.43-4.6-1.26-6.69.37-.04.68-.31,1.08-.25.58.72.55,1.69,1,2.46.03.41.03.83.1,1.23.35,1.94.41,3.88,0,5.82-.4,0-.81,0-1.21,0-.12-1.35-.66-2.53-1.51-3.58.46-.04.41-.39.42-.7Z"/>
      <path class="cls-3" d="M267.64,388.65c-.45-.77-.42-1.74-1-2.46-.13-.84-.79-1.41-1.21-2.24,1.27.2,2.24.74,3.06,1.53,1.04,1,1.55,2.3,1.88,3.67.15.61.05.68-.66.78-.61-.55-1.33-.92-2.06-1.28Z"/>
      <path class="cls-8" d="M267.64,388.65c.73.36,1.45.73,2.06,1.28-1.07,1.11-1.11,2.49-.99,3.9.05.65.49,1.07,1.09,1.45-.53.36-.96.7-1.45.97-.47.26-.58.14-.62-.55.41-1.94.35-3.88,0-5.82-.07-.4-.07-.82-.1-1.23Z"/>
      <path class="cls-8" d="M265.02,392.13c.85,1.05,1.39,2.22,1.51,3.58.07.7-.14,1.37-.28,2.04-.42-.27-.49-.75-.6-1.16-.34-1.29-1.22-2.25-1.97-3.29,0-.22-.06-.45-.01-.66.22-.9.54-1.01,1.35-.51Z"/>
      <path class="cls-7" d="M258.12,399.99c-.07.23-.23.34-.38.1-.32-.51-.56-1.06-.94-1.54-.19-.24-.35-.48-.59-.67-.93-.74-1.17-2.14-.55-3.21.02-.04.13-.03.2-.04.07.13.13.28.22.39,1.1,1.38,1.95,2.85,1.87,4.7,0,.09.11.18.17.28Z"/>
      <path class="cls-8" d="M258.12,399.99c-.06-.09-.17-.19-.17-.28.08-1.85-.77-3.32-1.87-4.7-.09-.12-.15-.26-.22-.39,0,0,.03-.09.03-.09.4-.12.7-.04.98.33.28.38.64.33.93-.04.06,0,.12.01.17.02.69,1.7.74,3.42.14,5.15Z"/>
      <path class="cls-8" d="M248.33,396.88c.48.86.47,1.78.4,2.72-.12.67-.24,1.33-.59,1.92-.33-.1-.32-.33-.35-.54.26-.31.07-.62.02-.95-.2-1.2-.89-2.19-1.33-3.29.48.03.47-.37.57-.69.25,1.17.34,1.23,1.28.84Z"/>
      <path class="cls-7" d="M263.69,393.31c.75,1.04,1.63,2,1.97,3.29.11.41.17.89.6,1.16-.02.28-.05.61-.44.33-.2-.15-.3-.43-.45-.64-.26-.37-.53-.74-.89-1.01-.35-.27-.89-.42-.91-.93-.03-.73-.34-1.49.13-2.19Z"/>
      <path class="cls-7" d="M246.48,396.73c.44,1.1,1.13,2.09,1.33,3.29.06.33.24.64-.02.95-.56-.6-.98-1.31-1.59-1.86-.29-.26-.35-.65-.36-1.04,0-.53-.05-1.05-.07-1.58.08-.08.16-.16.23-.24.26.06.38.25.48.47Z"/>
      <path class="cls-8" d="M231.08,387.55c.53.51.62.95.21,1.75-.34.67-.71,1.32-.98,2.04-.74-.99-.85-2.96-.22-3.78.37-.49.53-.49.97-.02-.86.35-.93,1.04-.81,1.94.49-.63.58-1.31.84-1.92Z"/>
      <path class="cls-7" d="M271.84,395.52c.02.16,0,.51-.15.34-.6-.72-1.43-1.23-1.9-2.02-.4-.68-.46-1.52.01-2.28.68,1.11,1.58,2.11,1.79,3.47.03.17.16.33.25.49Z"/>
      <path class="cls-3" d="M271.84,395.52c-.08-.16-.22-.32-.25-.49-.21-1.36-1.11-2.36-1.79-3.47.01-.26-.03-.53.19-.73,1.45.66,1.64,2.02,1.85,3.35.07.43,0,.89,0,1.33Z"/>
      <path class="cls-13" d="M257.98,394.84c-.06,0-.12-.01-.17-.02-.35-.71-.79-1.34-1.63-1.54-.03-.37.03-.67.48-.72,1.07.24,1.54,1.06,1.9,1.98-.19.1-.38.2-.57.3Z"/>
      <path class="cls-3" d="M256.17,393.28c.84.2,1.28.82,1.63,1.54-.3.36-.65.42-.93.04-.27-.37-.57-.44-.98-.33-.38-.2-.17-.52-.17-.8.15-.15.29-.3.44-.45Z"/>
      <path class="cls-10" d="M256.17,393.28c-.15.15-.29.3-.44.45-.22-.07-.45-.14-.67-.21.49-1.03.69-1.16,1.59-.97-.45.05-.51.36-.48.72Z"/>
      <path class="cls-13" d="M259.3,396.65c.12.04.23.08.35.12,0,.28.12.59-.32.81-.15-.32-.1-.62-.02-.93Z"/>
      <path class="cls-1" d="M248.76,363.11c.21.63.44,1.26.52,2-.39-.01-.42-.4-.66-.51-.08-.32-.17-.64-.22-.96-.05-.27,0-.52.36-.53Z"/>
      <path class="cls-5" d="M204.79,382.33c.13-.69.25-1.38.4-2.06.07-.31-.06-.4-.31-.43.31-.94.98-1.67,1.41-2.55.08-.16.21-.34.44-.25.22.09.17.31.19.49.08.91-.04,1.81-.24,2.68-.35,1.46-.27,2.91.06,4.35.1.44.02.81-.04,1.2-.71-.04-1.14-.44-1.38-1.08-.11-.31-.22-.63-.54-.8-.02-.35-.03-.69-.05-1.04.14-.16.15-.33.07-.51Z"/>
      <path class="cls-10" d="M211.67,363.07c1.4,2.01,1.82,4.09.42,6.29-.26.41-.26.93-.71,1.43-.04-.64.06-1.12.18-1.59.08-.33.19-.65.32-.96.5-1.2.52-2.4.05-3.62-.19-.49-.35-1-.25-1.54h0Z"/>
      <path class="cls-10" d="M206.01,342.63c-.57-1.78-1.03-3.58-1.25-5.44-.05-.45-.12-.89.12-1.3.45.65.38,1.43.52,2.16.36,1.77.77,3.53,1.37,5.25.09.25.21.49.05.78-.5-.36-.44-1.03-.82-1.44Z"/>
      <path class="cls-10" d="M204.5,342.4c-.03-.15-.07-.29-.1-.44,0-.08-.02-.16-.03-.24-.02-.23-.04-.46-.06-.69.51.41.53,1.07.79,1.6.33,1.39,1.01,2.63,1.61,3.91.24.5.59.95.66,1.53l-.03.03c-.38,0-.46-.34-.65-.56-.25-.27-.31-.7-.72-.83,0-.25-.12-.46-.24-.67,0-.13-.05-.22-.16-.29,0-.06-.02-.11-.05-.16-.34-1.07-.69-2.13-1.03-3.2Z"/>
      <path class="cls-10" d="M210.38,358.05c.75.94,2.29,4.46,2.39,5.47-.91-.91-2.37-4.23-2.39-5.47Z"/>
      <path class="cls-10" d="M211.68,363.07c-.12-.03-.22-.2-.17-.22.25-.1.1.14.16.22,0,0,0,0,0,0Z"/>
      <path class="cls-10" d="M207.37,348.08s.06.08.08.12c-.04-.03-.07-.06-.11-.09,0,0,.02-.03.02-.03Z"/>
      <path class="cls-10" d="M228.39,363.82c.05.38-.07.74-.17,1.1-.37,1.38-.31,2.73.24,4.08.26.64.65,1.28.55,2.07-1.98-2.19-2.2-4.78-.65-7.28l.03.02Z"/>
      <path class="cls-10" d="M227.47,363.83c-.09-.47.09-.89.25-1.31.55-1.45,1.23-2.83,1.92-4.29.14.78.04,1.24-.72,2.98-.4.92-.67,1.92-1.46,2.63h0Z"/>
      <path class="cls-10" d="M227.46,363.83c-.02.1-.05.19-.07.29-.18-.15-.04-.21.08-.28,0,0,0,0,0,0Z"/>
      <path class="cls-10" d="M228.36,363.8c.02-.1.04-.2.07-.29.04.03.11.05.12.08.01.11-.05.19-.16.24,0,0-.03-.02-.03-.02Z"/>
      <path class="cls-10" d="M228.76,362.9s-.01.08-.03.09c-.07.03-.1,0-.09-.1,0-.03.04-.05.07-.07.02.03.04.05.06.08Z"/>
      <path class="cls-3" d="M246.48,396.73c-.1-.22-.22-.41-.48-.47-.06-.46.14-.84.41-1.19.2,0,.4-.03.57-.14.09.12.07.21-.06.29.03.05.06.1.09.16-.02-.05-.05-.1-.07-.15.52-.15.66.31.89.58.25.3.44.67.5,1.08-.94.38-1.03.32-1.28-.84-.1.32-.09.72-.57.69Z"/>
      <path class="cls-8" d="M246.98,394.93c-.17.12-.37.14-.57.14.1-.41.29-.48.57-.14Z"/>
      <path class="cls-8" d="M246.95,395.22s.05.1.07.15c-.03-.05-.06-.1-.09-.16,0,0,.02,0,.02,0Z"/>
      <path class="cls-5" d="M194.1,375.43c.16-.29.32-.59.51-.95.43.44.28.96.24,1.39-.14,1.42-.32,2.82-1.03,4.12-.57,1.05-1.2,1.73-2.48,1.43,1.01-.64,1.64-1.54,2.02-2.69.36-1.08.57-2.18.74-3.3Z"/>
      <path class="cls-1" d="M207.13,364.66c.73.72,1.29,1.56,1.68,2.5.46,1.1-.19,2.65-1.38,3.5-.47-.38-.18-.8-.11-1.24.07-.44.05-.89.07-1.34.28-.1.3.36.62.22.02-.66-.19-1.29-.45-1.91-.23-.55-.48-1.11-.42-1.73h0Z"/>
      <path class="cls-9" d="M194.1,375.43c-.17,1.12-.39,2.21-.74,3.3-.38,1.15-1,2.05-2.02,2.69-.1-.01-.25,0-.26-.13,0-.1.04-.22.11-.3,1.22-1.39,1.76-3.11,2.39-4.78.1-.27.05-.72.52-.77Z"/>
      <path class="cls-9" d="M197.83,382.82c.18-1.08.69-2.05,1.01-3.09.2-.63.28-1.31.7-1.87-.02,1.54-.39,2.99-1.06,4.37-.13.26-.35.49-.67.57h.01Z"/>
      <path class="cls-2" d="M190.34,373.06c.28-1.06.43-2.16.86-3.18.3.13.52.31.38.68-.2.56-.2,1.17-.29,1.75-.11.66-.4.8-.95.76Z"/>
      <path class="cls-11" d="M204.5,342.4c.34,1.07.69,2.13,1.03,3.2-.68-.05-.7-.63-.81-1.07-.13-.55-.17-1.1-.53-1.58-.26-.33.07-.44.31-.55Z"/>
      <path class="cls-14" d="M196.47,384.4c.37-.7,1.01-.9,1.89-1.02-.51.85-1.2.93-1.89,1.02h0Z"/>
      <path class="cls-14" d="M199.42,387.59c0-.16,0-.32,0-.47.45.06.72.31.88.8-.4.09-.65-.09-.88-.33Z"/>
      <path class="cls-7" d="M198.16,387.27c.33-.2.58-.03.83.16-.15.04-.31.08-.46.13-.13-.1-.25-.19-.38-.29Z"/>
      <path class="cls-11" d="M204.37,341.73c0,.08.02.16.03.24-.03-.05-.07-.1-.09-.16,0-.02.04-.05.06-.08Z"/>
      <path class="cls-11" d="M205.58,345.77c.11.07.16.16.16.29-.11-.07-.16-.16-.16-.29Z"/>
      <path class="cls-9" d="M197.82,382.81s-.04.09-.04.09c-.07-.02-.05-.05.05-.08,0,0-.01-.01-.01-.01Z"/>
      <path class="cls-14" d="M196.46,384.4s-.03.09-.04.09c-.07,0-.06-.04.04-.08,0,0,0,0,0,0Z"/>
      <path class="cls-1" d="M207.14,364.66s-.09-.04-.09-.04c.01-.07.05-.05.08.05,0,0,0,0,0,0Z"/>
      <path class="cls-6" d="M181.26,396.42c-.12.31.02.59.07.89-.79-.16-.7-.82-.75-1.37-.03-.38-.14-.86.51-.87.05.45.11.91.16,1.36Z"/>
      <path class="cls-7" d="M197.58,387.14c.1.01.2.03.3.04-.12.1-.21.06-.3-.04Z"/>
      <path class="cls-1" d="M204.79,382.33c.08.19.06.36-.07.51-.08-.19-.07-.36.07-.51Z"/>
      <path class="cls-3" d="M231.08,387.55c-.26.61-.35,1.29-.84,1.92-.12-.9-.05-1.59.81-1.94,0,0,.03.02.03.02Z"/>
    </g>
  </g>
</svg>