<?xml version="1.0" encoding="UTF-8"?>
<svg id="GRIFOS" xmlns="http://www.w3.org/2000/svg" viewBox="0 0 455.05 452.32">
  <defs>
    <style>
      .cls-1 {
        fill: #231c19;
      }

      .cls-1, .cls-2, .cls-3, .cls-4, .cls-5, .cls-6 {
        stroke-width: 0px;
      }

      .cls-2 {
        fill: #7e4326;
      }

      .cls-3 {
        fill: #261d19;
      }

      .cls-4 {
        fill: #be5a26;
      }

      .cls-5 {
        fill: #e88b3c;
      }

      .cls-6 {
        fill: #cba97d;
      }
    </style>
  </defs>
  <g id="Legs">
    <g id="L1">
      <path class="cls-5" d="M237.71,355.18c1.57.53,3.15,1.04,4.66,1.74.11.08.21.21.33.22,1.66.23,3.3.65,5,.6.45-.01,1.05-.06.99.61-.13,1.36.75,2.55.59,3.89-.06.5.29.73.59,1-1.67.01-3.23.3-4.45,1.66.52.43.89.22,1.26.05.92-.43,1.9-.67,2.89-.85.34,1.67.52,3.36.59,5.07-.7.3-1.49.4-2.12.85-.27.19-.64.34-.5.87.53-.17,1.03-.33,1.54-.48.52-.15,1.04-.34,1.59-.26.27.91.61,1.8.77,2.73.09.57.31,1.02.65,1.44-1.29.02-2.41.42-3.53,1.61,1.41-.08,2.42-.57,3.5-.53.47,1.58.94,3.16,1.41,4.75-1.11.02-2.19.15-3.1.84-.41.31-1.16.64-.84,1.17.28.47.89-.08,1.33-.26,1.01-.41,1.99-.91,3.13-.54-.11.69.12,1.32.36,1.95.19.5.49.96.52,1.51-1.11,0-2.17.2-3.16.74-.41.22-.76.51-1.06.86-.18.21-.36.46-.12.72.19.2.42.1.62-.01.08-.04.15-.11.22-.16,1.3-.88,2.73-1.24,4.29-1.01-.08.61.22,1.13.42,1.67.28.75.8,1.4.97,2.21-2.62.08-4.47,1.09-4.83,2.64.49.18.73-.27,1.09-.44,1.63-.77,3.26-1.51,5.12-.84.21,1.21,1.09,1.94,1.93,2.7-.55.02-1.1.07-1.65.05-1.07-.03-2.09.23-3.07.61-.89.34-1.75.8-2.26,1.69-.11.19-.3.4-.09.61.2.21.43.08.62-.04.42-.28.8-.62,1.24-.85,2-1.04,4.16-1.22,6.36-1.05.89.92,1.77,1.84,2.89,2.51,2.35,1.38,4.9,2.25,7.45,3.12,2.08.71,4.25,1,6.43,1.22-.55.63-1,1.33-1.11,2.17-.05.32-.23.83.26.93.4.08.46-.39.53-.67.23-.81.69-1.49,1.13-2.18,1.93-.06,3.67.65,5.4,1.36.42.17.73.56.99.94.15.22.31.44.06.73-.72.85-.46,1.82-.29,2.76.18,1.03,0,1.28-1.08,1.23-.36-.02-.74-.07-1.08-.18-2.26-.73-4.62-1.2-6.61-2.64-.77-.55-1.69-.92-2.58-1.3-3.1-1.32-6.06-2.85-8.58-5.14-.72-.66-1.54-1.21-2.32-1.81.15.97.78,1.58,1.19,2.33-1.38-.01-2.43.67-3.36,1.59-.27.27-.41.68-.11.98.36.37.68.03.91-.23.6-.66,1.3-1.14,2.13-1.45.32-.12.77.02.95-.41.93.78,1.87,1.56,2.8,2.33-.28.33-.69.44-1.06.61-.84.38-1.34,1.09-1.81,1.83-.16.25-.24.53.05.72.21.14.46.03.62-.15.81-.94,1.84-1.61,2.78-2.39,1.47.72,2.94,1.43,4.4,2.15-.89.64-1.89,1.16-2.39,2.21-.22.47-.79,1.09-.19,1.43.5.28.76-.49.99-.91.7-1.27,1.76-1.95,3.21-2.04,1.82.82,3.52,1.84,5.06,3.11-.61-.04-1.19.17-1.7.43-1.04.53-1.89,1.27-2.21,2.46-.05.2-.07.47.21.58.2.08.36-.06.47-.2.22-.29.43-.59.62-.9.49-.77,1.2-1.23,2.06-1.46.39-.11.79-.19,1.18-.29,1.49.9,2.49,2.03,2.77,3.15-1.97.17-2.76,1.1-2.61,3.07.01.18.05.36.08.55.23,1.58-.11,1.87-1.67,1.36-.56-.18-1.09-.49-1.61-.78-1.06-.59-1.88-1.48-2.68-2.36-1.1-1.2-2.36-2.2-3.87-2.82-2.79-1.14-5.35-2.62-7.68-4.54-1.17-.96-2.59-1.33-4.13-1.29-.49.01-1.07.47-1.44.07-.36-.4-.23-1.05-.24-1.6-.01-.64.02-1.29.03-1.93,0-.29.08-.61-.22-.95-.78,1.16-.79,2.41-1,3.6-.31-.2-.59-.46-.92-.59-1.04-.4-2.06-.39-3,.28-.3.22-.6.53-.36.92.23.37.58.14.85-.02.94-.54,1.88-.64,2.86-.12.15.08.36.05.54.07.19,1.31.28,2.64.8,3.89.29.72.47,1.48.7,2.22-.99-.35-1.95-.75-3.06-.62-.62.07-1.15.28-1.67.58-.35.2-.37.53-.23.84.14.32.44.27.71.15.17-.07.34-.15.49-.25,1.15-.7,2.27-.57,3.36.15.2.13.4.21.64.2v.02c-.01.12.03.21.15.27.46,1.42.75,2.84,0,4.54-.25-.65-.38-1.04-.55-1.4-.81-1.73-2.52-1.93-3.74-.46-.36.43-.57.94-.79,1.44-.12.27-.03.68-.51.77-.96-.67-1.38-1.66-1.47-2.8-.05-.59-.02-1.2.03-1.79.16-1.78-.08-3.48-.9-5.09-.38-.75-.58-1.54-.54-2.39.02-.41-.04-.83-.14-1.23-.43-1.8-2.02-2.65-3.81-2.1-.71.22-1.36.58-1.99.94-.61.35-1.25.6-1.94.68-1.38.16-2.52-.63-2.79-1.9-.29-1.39.48-2.84,1.79-3.14.82-.19,1.57-.51,2.32-.83,2.36-.99,3.84-2.81,4.55-5.21.56-1.92.53-3.91.13-5.88-.06-.3-.09-.64-.47-.76-.3,1.15-.48,1.34-1.63,1.44-.73.06-1.48.08-2.21,0-.94-.1-1.81-.43-2.77-1.1,2.05-.63,3.56-1.65,4.77-3.08.85-1.01,1.34-2.09.98-3.54-1.55-6.11-3.22-12.17-5.37-18.09-.92-2.54-1.78-5.11-2.67-7.66ZM254.94,402.7c-1.23-1.4-3.12-1.65-4.21-.66-.24.22-.48.49-.27.82.19.28.49.15.74.02,1.16-.63,2.36-.44,3.74-.18ZM255.56,409.23c-.03-.33-.24-.55-.59-.6-.54-.07-1.1-.11-1.62.04-.43.13-.87.29-1.2.62-.17.17-.17.41-.1.64.07.21.25.3.42.2.82-.52,1.74-.45,2.65-.46.24,0,.44-.1.45-.43Z"/>
      <path class="cls-5" d="M207,357.64c.5.05,1.01.05,1.5.16,3.08.68,6.09.39,9.08-.48.52-.15,1.02-.45,1.59-.26-.06.47-.36.84-.55,1.25-1.71,3.61-3.69,7.08-5.27,10.76-1.7,3.97-3.52,7.88-5,11.94-.52,1.44-.34,2.69.5,3.91.87,1.26,1.86,2.39,3.26,3.11.25.13.49.26.79.43-.94.6-1.86.73-2.77.76-.78.03-1.54-.14-2.3-.38-.86-.27-1.27-.84-1.29-1.87-.61.83-.71,1.62-.88,2.37-.77,3.42-.46,6.57,2.31,9.13.62.57,1.4.86,2.01,1.42.09.22.26.3.48.29l.04.03c.01.53-.25.97-.46,1.42-.1.23-.12.48.11.61.23.12.41-.08.57-.25.36-.39.22-1.12.88-1.3,1.31.68,1.58,1.24,1.4,2.92-.11,1.04-.59,1.57-1.61,1.79-1.1.23-2.09-.04-3.01-.66-.84-.56-1.62-1.22-2.59-1.57-1.69-.61-3.29.15-3.86,1.85-.13.39-.23.8-.25,1.21-.03.72-.22,1.41-.65,1.93-1.51,1.83-2.04,3.97-2.11,6.27,0,.14-.02.28-.06.41-.35,1.22-.94,2.25-2.27,2.97-.09-.99-.26-1.84-.75-2.57-1.03-1.52-2.49-1.55-3.61-.1-.25.33-.34.82-.96,1.09-.17-1.79.47-3.18,1.18-4.56,1.63-.19,3.3-.61,4.56,1,.16.2.41-.07.48-.3.19-.59-.08-1.1-.82-1.37-1.29-.48-2.6-.48-3.91-.04.29-.96.88-1.75,1.41-2.58,1.16.15,2.42-.23,3.41.73.19.19.43.11.6-.09.23-.28.11-.53-.12-.72-.61-.5-1.28-.89-2.09-.95-.44-.03-.93.12-1.29-.3.2-.57.4-1.13.6-1.7,1.22-.33,2.42-.49,3.51.39.1.08.24.14.37.18.18.06.37.03.49-.13.11-.16.12-.34.01-.51-.22-.37-.57-.57-.94-.77-1.08-.58-2.19-.46-3.32-.18-.07-1.11.15-2.27-.62-3.52-.51,1.63-.28,3.22-1,4.55-.13,0-.24.04-.31,0-2.14-.92-4.14-.58-6.04.65-2.23,1.45-4.68,2.34-7.25,2.95-1.81.43-3.46,1.15-4.85,2.43-.68.62-1.46,1.12-2.27,1.56-1.24.68-2.55,1-4.04.64.18-.59.05-1.13.37-1.73.4-.73.32-1.56-.1-2.45-.38-.79-1.06-.92-1.72-1.43,1.02-1,1.93-2.01,3.31-2.43,1.29.51,2.52,1.08,3.08,2.49.14.35.16.97.68.79.43-.14.23-.71.19-1.1-.03-.26-.17-.51-.28-.76-.52-1.21-1.68-1.58-2.74-2.06,1.09-.59,2.22-1.09,3.37-1.54.8-.31,1.57-.77,2.47-.73.66.49,1.22,1.09,1.82,1.64.63.57.47,1.64,1.36,2.16.16-.72.09-1.27-.16-1.84-.42-.97-1.2-1.59-1.97-2.24,1.47-.52,2.94-1.04,4.45-1.41.98.85,2.14,1.53,2.7,2.79.06.13.2.18.35.14.23-.06.26-.26.23-.43-.04-.27-.14-.52-.22-.78-.37-1.15-1.39-1.64-2.29-2.25.93-.59,1.86-1.19,2.79-1.78,1.34.17,2.44.76,3.25,1.86.2.27.32.85.76.54.35-.24.24-.79-.02-1.14-.4-.56-.88-1.06-1.49-1.42-.47-.28-1.05-.38-1.42-.81.41-.7,1.29-.96,1.61-1.74-.76,0-1.3.47-1.85.9-.7-.03-1.33.17-1.97.46-.91.42-1.86.74-2.8,1.1-.56.21-.98.15-1.06-.58-.04-.31-.19-.61,0-.92.49-.12.97-.27,1.46-.36,2.82-.55,5.49-1.42,7.7-3.35,2.65-.05,5.06.59,7.04,2.47.31.3.67.49,1.1.19.08-.39-.2-.59-.41-.82-1.44-1.59-3.32-2.36-5.33-2.91.11-.57.55-.9.92-1.27.32-.33.61-.65.48-1.16,1.94-.17,3.53.71,5.06,1.74.29.19.52.56,1.05.16-.87-1.42-2.06-2.36-3.69-2.73-.35-.08-.74,0-1.04-.27.11-.49.36-.91.62-1.33.44-.72.94-1.42,1.06-2.29,1.61-.16,2.9.58,4.15,1.44.28.19.58.67.9.32.33-.36-.11-.73-.34-1.04-.13-.18-.34-.3-.52-.44-.93-.72-1.99-1.09-3.14-1.2.06-1.31.96-2.23,1.51-3.32,1.52-.2,2.59,1.07,4.03,1.4-.05-.72-.4-1.04-.8-1.37-1.13-.92-2.41-1.23-3.83-1.09.32-.44,1.09-.15,1.3-.87.39-1.31,1.24-2.45,1.46-3.83,1.22.03,2.24.83,3.65,1.12-.78-1.47-1.91-1.83-3.15-2.01.35-1.37.81-2.69,1.54-3.91,1.09.01,1.99.77,3.1.85-.01-.65-.45-.84-.84-1.04-.52-.27-1.05-.51-1.58-.76.1-1.67.85-3.17,1.17-4.79.67-.04,1.25.26,1.83.52.55.24,1.07.53,1.61.79.22.1.48.14.61-.09.12-.21.03-.45-.15-.62-.13-.12-.3-.21-.44-.33-1.34-1.03-2.87-1.37-4.52-1.27.56-1.94,1.13-3.88,1.69-5.82ZM200.92,402.73c.06-1-.21-1.4-1.03-1.79-1.05-.5-2.43-.28-3.33.63,1.65-.19,3.12-.04,4.36,1.16Z"/>
      <path class="cls-1" d="M257.03,412.49c-.23-.74-.41-1.51-.7-2.22-.51-1.25-.61-2.58-.8-3.89.01-.18.02-.37.03-.55.2-1.19.22-2.44,1-3.6.31.35.23.66.22.95-.01.64-.04,1.29-.03,1.93,0,.55-.12,1.21.24,1.6.37.41.94-.05,1.44-.07,1.53-.05,2.96.32,4.13,1.29,2.33,1.92,4.89,3.4,7.68,4.54,1.51.62,2.77,1.61,3.87,2.82.81.88,1.62,1.76,2.68,2.36.52.29,1.04.6,1.61.78,1.56.51,1.89.22,1.67-1.36-.03-.18-.06-.36-.08-.55-.15-1.97.64-2.9,2.61-3.07-.28-1.11-1.28-2.25-2.77-3.15-.14-.28-.29-.54-.63-.62-1.54-1.27-3.24-2.28-5.06-3.11-.54-.24-1.08-.47-1.63-.71-1.47-.72-2.94-1.43-4.4-2.15-.05-.33-.28-.51-.58-.61-.93-.78-1.87-1.56-2.8-2.33-.08-.26-.26-.42-.53-.48-.41-.75-1.04-1.36-1.19-2.33.78.6,1.6,1.15,2.32,1.81,2.52,2.29,5.48,3.82,8.58,5.14.88.38,1.81.74,2.58,1.3,2,1.44,4.35,1.91,6.61,2.64.35.11.72.16,1.08.18,1.07.05,1.26-.2,1.08-1.23-.17-.94-.43-1.91.29-2.76.24-.29.09-.51-.06-.73-.26-.38-.57-.77-.99-.94-1.73-.72-3.47-1.43-5.4-1.36-.21-.29-.51-.28-.82-.24-2.18-.22-4.35-.51-6.43-1.22-2.55-.87-5.1-1.75-7.45-3.12-1.13-.66-2-1.59-2.89-2.51-.23-.34-.47-.67-.7-1.01-.58-.95-1.09-1.94-1.79-2.81-.14-.34-.28-.68-.42-1.02-.6-1.32-.93-2.74-1.74-3.97-.1-.43-.06-.88-.32-1.27-.4-1.12-.8-2.23-1.2-3.35l-.31-1.05c-.56-1.69-.84-3.46-1.56-5.09-.06-.32-.13-.64-.19-.97-.34-1.41-.42-2.88-1.01-4.23.01-.28.04-.57-.18-.8-.26-1.81-.57-3.61-1.14-5.35l-.08-.69c-.02-.22-.03-.45-.07-.67-.32-1.88-.81-3.74-.91-5.66,1.07-.6,1.59-.41,1.84.77.44,2.12.85,4.24,1.22,6.37,1.22,6.94,3.16,13.68,5.47,20.33,1.09,3.14,2.41,6.15,4.36,8.87.91,1.26,1.98,2.27,3.4,2.93,3.22,1.5,6.49,2.83,10.02,3.36,1.77.27,3.58.27,5.33.7,1.25.31,2.47.69,3.61,1.32.74.41,1.42.91,1.85,1.62.41.67,1,1,1.67,1.31,2.39,1.13,3.58,3.08,3.71,5.68.05,1.03-.41,1.33-1.39.97-.9-.33-1.76-.77-2.69-1.04-.62-.18-1.14-.21-1.71.11-.94.54-1.98.67-3.15.53.75,1.09,1.43,2.03,1.52,3.23.03.41.34.64.55.93,1.61,2.15,2.12,4.55,1.61,7.18-.05.27-.12.54-.24.79-.38.79-1.01.9-1.64.29-.53-.51-.98-1.1-1.52-1.59-.94-.85-1.91-1.43-3.34-1.15-1.43.28-2.82-.15-4.09-.92-1.27-.77-2.4-1.72-3.39-2.81-1.1-1.21-2.38-2.15-3.91-2.75-2.63-1.03-5.05-2.43-7.19-4.29-.82-.72-1.79-1.12-2.86-1.25-1.05-.13-1.22.11-.92,1.09.5,1.62,1.17,3.19,1.55,4.85.5,2.19.26,4.21-1.28,5.94-.34.38-.42.8-.55,1.23-.4,1.36-1.11,2.53-2.17,3.46-.9.79-1.74.56-2.12-.56-.13-.39-.21-.8-.35-1.19-.42-1.18-.96-2.2-2.19-2.84-1.29-.67-1.9-1.97-2.19-3.36-.2-.99-.32-2-.15-3.02.22-1.31,0-2.57-.59-3.75-.63-1.25-1-2.54-.9-3.98.07-1.03-.61-1.46-1.62-1.09-.69.25-1.35.58-2.01.9-2.08.99-4.09,1-5.94-.5-.55-.44-1.1-.41-1.68-.27-.62.15-1.23.39-1.86.51-.85.16-1.11-.07-1.09-.92.06-2.48,1.35-4.15,3.54-5.14.67-.3,1.3-.61,1.87-1.1.79-.66,1.82-.84,2.77-1.17,1.89-.67,3.23-1.9,3.93-3.79.39-1.05.43-2.15.31-3.28-2.58.47-4.85-.08-6.83-1.76-.51-.44-.98-.88-.8-1.62.16-.7.65-1.07,1.35-1.22,1.52-.33,2.8-1.1,3.92-2.18.84-.81,1.18-1.64.87-2.83-1.07-4.18-2.25-8.33-3.53-12.46-1.18-3.82-2.64-7.54-4.03-11.29-.08-.22-.17-.43-.24-.65-.16-.52-.48-1.07.08-1.52.59-.48,1.11-.18,1.6.23.89,2.55,1.75,5.12,2.67,7.66,2.15,5.93,3.82,11.99,5.37,18.09.37,1.44-.12,2.52-.98,3.54-1.21,1.43-2.72,2.45-4.77,3.08.96.67,1.83,1,2.77,1.1.73.08,1.48.06,2.21,0,1.16-.1,1.33-.29,1.63-1.44.38.12.4.45.47.76.4,1.97.44,3.96-.13,5.88-.7,2.39-2.19,4.21-4.55,5.21-.76.32-1.51.64-2.32.83-1.32.31-2.08,1.75-1.79,3.14.26,1.27,1.4,2.07,2.79,1.9.69-.08,1.33-.32,1.94-.68.63-.37,1.28-.72,1.99-.94,1.78-.55,3.38.3,3.81,2.1.1.4.15.82.14,1.23-.03.85.16,1.65.54,2.39.81,1.61,1.06,3.31.9,5.09-.05.59-.08,1.2-.03,1.79.09,1.14.52,2.13,1.47,2.8.49-.09.39-.49.51-.77.22-.5.43-1.01.79-1.44,1.22-1.47,2.93-1.26,3.74.46.17.37.3.76.55,1.4.74-1.7.46-3.12,0-4.54.05-.14.01-.23-.14-.27,0,0-.01-.02-.01-.02.04-.38.01-.74-.24-1.05ZM285.68,421.07c.17-2.33-.4-4.15-1.87-5.65-.65-.67-1.49-1.43-2.38-.9-.77.45-.67,1.53-.47,2.4.14.61.17,1.37.87,1.61,1.43.47,2.57,1.37,3.85,2.54ZM254.86,423.25c1.17-1.15,1.55-2.57,1.75-4.01.11-.8-.21-1.63-.79-2.27-.33-.37-.74-.54-1.23-.33-.93.39-1.71,2.15-1.25,3.04.58,1.14,1.09,2.3,1.52,3.58ZM290.67,409.46c-.32-1.68-1.3-2.97-2.68-3.56-.5-.22-1.03-.41-1.6-.37-.25.02-.44.1-.51.36-.14.49.53,2.19,1.01,2.28,1.3.25,2.51.74,3.78,1.3ZM236.97,401.43c-.86.5-1.71,1.01-2.07,2.12,2.76-.16,2.27.02,2.26-1.92,0-.03-.05-.06-.19-.2Z"/>
      <path class="cls-1" d="M192.46,411.66c-.72,1.37-1.35,2.77-1.18,4.56.62-.27.71-.77.96-1.09,1.12-1.45,2.58-1.42,3.61.1.5.73.67,1.58.75,2.57,1.33-.72,1.92-1.75,2.27-2.97.04-.13.06-.27.06-.41.08-2.3.6-4.43,2.11-6.27.43-.52.62-1.22.65-1.93.02-.41.12-.82.25-1.21.57-1.7,2.17-2.46,3.86-1.85.97.35,1.75,1.01,2.59,1.57.92.62,1.91.89,3.01.66,1.02-.21,1.49-.75,1.61-1.79.18-1.68-.09-2.24-1.4-2.91-.29-.33-.68-.44-1.1-.48,0,0-.04-.03-.04-.03-.07-.25-.25-.3-.48-.29-.61-.56-1.4-.85-2.01-1.42-2.76-2.56-3.07-5.71-2.31-9.13.17-.75.27-1.54.88-2.37.02,1.03.43,1.6,1.29,1.87.76.24,1.52.4,2.3.38.91-.03,1.83-.16,2.77-.76-.3-.16-.55-.3-.79-.43-1.4-.71-2.39-1.84-3.26-3.11-.84-1.22-1.02-2.47-.5-3.91,1.48-4.06,3.3-7.98,5-11.94,1.57-3.68,3.56-7.15,5.27-10.76.2-.41.49-.78.55-1.25.25-.23.56-.31.89-.3.74.03,1.08.49.85,1.21-.13.39-.33.76-.52,1.13-2.6,5.12-5.2,10.24-7.41,15.54-.95,2.29-1.83,4.61-2.79,6.89-.36.86-.26,1.57.23,2.33.9,1.39,2.01,2.5,3.61,3.06.13.05.26.08.39.14,1.28.65,1.37,1.72.2,2.56-1.85,1.33-3.9,1.78-6.15,1.34-.13-.03-.26-.09-.39-.13-.49-.15-.75-.03-.83.54-.39,2.53.86,5.45,3.22,6.5,1.97.87,3.49,2.34,5.29,3.42,1.87,1.13,2.37,3.08,2.32,5.16-.02.85-.5,1.15-1.3.86-.64-.24-1.21-.64-1.87-.87-.61-.21-1.12-.24-1.69.14-1.72,1.15-3.47,1-5.21.04-.84-.47-1.65-1.01-2.5-1.45-1-.52-1.72-.16-1.84.97-.14,1.37-.63,2.6-1.46,3.66-.9,1.14-1.24,2.45-1.31,3.85-.03.65-.17,1.27-.31,1.9-.43,2.01-1.68,3.38-3.51,4.14-.8.33-1.31.8-1.69,1.5-.35.64-.65,1.32-1.02,1.95-.62,1.04-1.24,1.1-2.05.17-.96-1.11-1.45-2.44-1.67-3.87-.06-.4-.05-.8-.29-1.19-1.28-2.06-1.17-4.2-.18-6.32.66-1.41,1.44-2.77,2.16-4.16.41-.8.36-.88-.54-1.01-1-.14-1.91.11-2.78.59-.96.54-1.91,1.11-2.89,1.61-1.89.97-3.95,1.46-5.99,1.98-1.09.28-2.06.72-2.95,1.4-1.24.94-2.5,1.87-3.93,2.54-1.65.77-3.38,1.01-5.09.43-.86-.29-1.51-.11-2.21.26-.69.36-1.37.75-1.92,1.32-.16.17-.33.32-.52.45-.81.56-1.46.34-1.6-.61-.44-2.87.27-5.39,2.44-7.39.48-.44.9-.87,1.14-1.5.34-.9,1.1-1.53,1.83-2.31-1.28-.24-2.39-.48-3.31-1.2-.31-.25-.67-.22-1.05-.12-.93.25-1.87.45-2.81.69-1.22.31-1.73-.1-1.43-1.26.64-2.54,2.1-4.38,4.74-5.04.56-.14.98-.31,1.35-.78.74-.92,1.8-1.41,2.9-1.77,1.96-.64,4-.78,6.01-.5,1.81.25,3.58.17,5.36-.1,2.32-.34,4.59-.92,6.85-1.51,2.13-.56,3.59-1.97,4.94-3.57,1.87-2.19,3.16-4.73,4.48-7.26,3.89-7.44,6.62-15.34,9.1-23.33.22-.7.41-1.42.72-2.08.44-.93,1.16-.93,1.83-.05-.56,1.94-1.13,3.88-1.69,5.82-.06.21-.12.42-.19.63-.71,1.66-1.28,3.37-1.74,5.12-.05.24-.11.48-.16.72-.72,1.36-1.18,2.81-1.7,4.25-.09.24-.18.47-.26.71-.82,1.55-1.4,3.22-2.04,4.85-.23.3-.33.64-.41,1-.75,1.05-1.25,2.23-1.78,3.4-.18.26-.36.53-.36.86-.78,1.1-1.5,2.23-1.91,3.53h0c-.21,0-.26.13-.3.3-.31.23-.45.55-.52.91-.69.8-1.37,1.6-2.06,2.4-.32.35-.65.7-.97,1.06-2.22,1.92-4.89,2.8-7.7,3.35-.49.1-.97.24-1.46.36-.41-.08-.72.19-1.07.3-2.29.29-4.57.65-6.89.22-.08-.02-.18.03-.27.04-.2,0-.4,0-.6.01-1.81-.38-3.54.06-5.26.52-.57.15-1.09.52-1.42,1.03-.26.41.28.73.28,1.14,0,.18.03.36.05.55-.22.55-.44,1.11-.66,1.66-.29.75-.24.88.48,1.1.35.11.73.25,1.08.21,1.95-.24,3.97-.22,5.81-.99,1.62-.67,3.26-1.26,4.95-1.69,3.36-.84,6.45-2.29,9.35-4.17.55-.43,1.09-.9,1.85-.9-.32.78-1.21,1.04-1.61,1.74-.64,0-.59.8-1.09.97-.93.59-1.86,1.19-2.79,1.78-.29.13-.59.24-.77.53-1.52.37-2.99.89-4.45,1.41-.38-.03-.74.05-1.06.28-.91-.04-1.67.42-2.47.73-1.15.44-2.28.95-3.37,1.54-.37.12-.71.29-.93.63-1.38.43-2.3,1.43-3.31,2.43.66.51,1.34.64,1.72,1.43.42.89.5,1.72.1,2.45-.32.59-.18,1.14-.37,1.73,1.5.36,2.8.04,4.04-.64.81-.45,1.59-.94,2.27-1.56,1.39-1.27,3.05-1.99,4.85-2.43,2.57-.62,5.02-1.5,7.25-2.95,1.9-1.24,3.9-1.57,6.04-.65.08.03.18,0,.31,0,.72-1.33.49-2.92,1-4.55.77,1.25.56,2.41.62,3.52-.04.34-.08.69-.13,1.03-.2.57-.4,1.13-.59,1.7-.17.44-.34.88-.51,1.32-.53.83-1.12,1.62-1.41,2.58-.26.17-.25.46-.31.71ZM163.31,415.14c1.26-.77,2.37-1.4,3.61-1.77,1.26-.38,2.16-2,1.87-3.26-.17-.73-.55-1.01-1.29-.81-.85.23-1.61.64-2.24,1.3-1.16,1.21-1.71,2.68-1.95,4.54ZM193.22,421.85c.39-1.19.84-2.06,1.53-2.73,1.13-1.1.83-2.2.22-3.35-.44-.84-1.04-.94-1.77-.36-.41.33-.64.77-.82,1.25-.65,1.77-.22,3.38.84,5.19ZM160.52,403.16c1.4-.42,2.62-.77,3.9-.8.32,0,.48-.19.6-.46.17-.38.38-.73.53-1.11.29-.75.19-.9-.58-.92-1.85-.04-3.73,1.29-4.45,3.29ZM214.2,402.42c-.17,2.34-.13,2.38,2.13,2.66-.29-1.17-.87-2.08-2.13-2.66Z"/>
      <path class="cls-6" d="M249.89,356.97c.1,1.92.59,3.78.91,5.66.04.22.05.45.07.67-.34-.02-.68-.04-1.02-.06-.3-.27-.65-.5-.59-1,.16-1.34-.72-2.53-.59-3.89.07-.67-.54-.62-.99-.61-1.7.05-3.34-.36-5-.6-.12-.02-.22-.15-.33-.22.24-.25.5-.09.76-.05,2.25.37,4.5.52,6.76.1Z"/>
      <path class="cls-4" d="M260.81,393.9c.23.34.47.67.7,1.01-2.21-.18-4.36,0-6.36,1.05-.44.23-.82.57-1.24.85-.19.12-.42.25-.62.04-.21-.22-.01-.43.09-.61.51-.88,1.37-1.35,2.26-1.69.98-.37,2-.64,3.07-.61.55.02,1.1-.03,1.65-.05.15,0,.3.01.45.02Z"/>
      <path class="cls-6" d="M250.96,363.99c.57,1.74.88,3.54,1.14,5.35-.11,0-.23.02-.34.02-.16-.25-.38-.28-.64-.21-.32,0-.65,0-.97,0-.07-1.7-.26-3.39-.6-5.07.47-.04.94-.07,1.4-.11Z"/>
      <path class="cls-4" d="M258.61,390.07c.14.34.28.68.42,1.02-.2.03-.4.07-.59.1-1.86-.67-3.5.07-5.12.84-.35.17-.59.62-1.09.44.36-1.55,2.21-2.56,4.83-2.64.48.32,1.02.23,1.55.24Z"/>
      <path class="cls-6" d="M253.48,375.34c.72,1.64,1,3.41,1.56,5.09-.56.07-1.06-.2-1.59-.28-.47-1.58-.94-3.16-1.41-4.75.48-.02.96-.04,1.44-.07Z"/>
      <path class="cls-4" d="M256.55,384.83c.25.39.21.85.31,1.27-.43.19-.8-.15-1.21-.15-1.57-.23-2.99.13-4.29,1.01-.08.05-.14.11-.22.16-.2.11-.44.22-.62.01-.24-.26-.06-.51.12-.72.3-.35.65-.63,1.06-.86.99-.54,2.05-.74,3.16-.74.57-.16,1.13.5,1.7.01Z"/>
      <path class="cls-4" d="M253.45,380.15c.53.08,1.03.35,1.59.28.1.35.21.7.31,1.05-.46-.04-.92-.08-1.38-.12-1.14-.37-2.13.13-3.13.54-.44.18-1.05.73-1.33.26-.32-.54.43-.87.84-1.17.92-.69,2-.83,3.1-.84Z"/>
      <path class="cls-6" d="M252.28,370.14c.59,1.35.67,2.82,1.01,4.23-.41-.02-.81-.03-1.22-.05-.34-.43-.56-.87-.65-1.44-.15-.93-.5-1.82-.77-2.73.54,0,1.09,0,1.63,0Z"/>
      <path class="cls-6" d="M255.66,385.95c.41,0,.78.34,1.21.15.81,1.22,1.14,2.65,1.74,3.97-.53,0-1.07.08-1.55-.24-.17-.8-.69-1.46-.97-2.21-.2-.54-.51-1.06-.42-1.67Z"/>
      <path class="cls-6" d="M253.97,381.36c.46.04.92.08,1.38.12.4,1.12.8,2.23,1.2,3.35-.57.48-1.13-.17-1.7-.01-.03-.55-.33-1.01-.52-1.51-.24-.62-.46-1.26-.36-1.95Z"/>
      <path class="cls-4" d="M250.96,363.99c-.47.04-.94.07-1.4.11-1,.18-1.97.42-2.89.85-.36.17-.74.38-1.26-.05,1.23-1.36,2.78-1.65,4.45-1.66.34.02.68.04,1.02.06.03.23.06.46.08.69Z"/>
      <path class="cls-4" d="M257.03,412.49c.26.31.29.67.24,1.05-.24.02-.44-.07-.64-.2-1.09-.71-2.21-.85-3.36-.15-.16.1-.32.17-.49.25-.27.12-.56.17-.71-.15-.14-.31-.12-.64.23-.84.52-.3,1.06-.51,1.67-.58,1.1-.13,2.07.26,3.06.62Z"/>
      <path class="cls-4" d="M279.19,409.7c.34.08.49.34.63.62-.39.1-.79.18-1.18.29-.87.24-1.58.69-2.06,1.46-.19.31-.4.61-.62.9-.11.14-.27.28-.47.2-.28-.11-.26-.37-.21-.58.32-1.18,1.17-1.93,2.21-2.46.52-.26,1.09-.47,1.7-.43Z"/>
      <path class="cls-4" d="M252.06,374.32c.41.02.81.03,1.22.05.06.32.13.64.19.97-.48.02-.96.04-1.44.07-1.08-.04-2.1.45-3.5.53,1.12-1.19,2.24-1.59,3.53-1.61Z"/>
      <path class="cls-4" d="M264.2,400.31c.27.06.45.22.53.48-.19.43-.63.29-.95.41-.83.31-1.53.79-2.13,1.45-.24.26-.55.61-.91.23-.3-.31-.16-.71.11-.98.93-.93,1.98-1.6,3.36-1.59Z"/>
      <path class="cls-4" d="M272.5,405.89c.54.24,1.08.47,1.63.71-1.45.08-2.51.76-3.21,2.04-.23.42-.49,1.19-.99.91-.6-.34-.04-.96.19-1.43.5-1.05,1.5-1.58,2.39-2.21Z"/>
      <path class="cls-4" d="M267.52,403.12c.3.1.52.28.58.61-.94.78-1.97,1.46-2.78,2.39-.16.18-.4.29-.62.15-.29-.19-.21-.47-.05-.72.47-.74.96-1.45,1.81-1.83.37-.17.78-.28,1.06-.61Z"/>
      <path class="cls-4" d="M252.28,370.14c-.54,0-1.09,0-1.63,0-.56-.08-1.07.1-1.59.26-.51.15-1.01.32-1.54.48-.14-.53.23-.68.5-.87.64-.45,1.42-.55,2.12-.85.32,0,.65,0,.97,0,.18.18.4.21.64.21.11,0,.23-.02.34-.02.22.23.19.52.18.8Z"/>
      <path class="cls-4" d="M255.57,405.83c-.01.18-.02.37-.03.55-.18-.02-.39,0-.54-.07-.98-.51-1.93-.41-2.86.12-.27.16-.62.39-.85.02-.24-.39.06-.7.36-.92.94-.67,1.96-.68,3-.28.33.13.62.39.92.59Z"/>
      <path class="cls-4" d="M254.94,402.7c-1.37-.26-2.58-.45-3.74.18-.24.13-.55.26-.74-.02-.22-.33.02-.6.27-.82,1.09-.99,2.97-.74,4.21.66Z"/>
      <path class="cls-4" d="M255.56,409.23c0,.33-.21.43-.45.43-.91.02-1.82-.05-2.65.46-.17.11-.35,0-.42-.2-.07-.23-.07-.46.1-.64.33-.33.77-.49,1.2-.62.53-.16,1.08-.12,1.62-.04.35.05.56.27.59.6Z"/>
      <path class="cls-4" d="M278.28,401.76c.31-.04.61-.04.82.24-.45.69-.9,1.37-1.13,2.18-.08.28-.14.76-.53.67-.5-.11-.31-.61-.26-.93.12-.84.56-1.54,1.11-2.17Z"/>
      <path class="cls-6" d="M258.43,391.19c.2-.03.4-.07.59-.1.7.87,1.21,1.87,1.79,2.81-.15,0-.3-.01-.45-.02-.84-.76-1.72-1.49-1.93-2.7Z"/>
      <path class="cls-4" d="M257.29,413.56c.15.04.19.13.14.27-.11-.06-.16-.15-.14-.27Z"/>
      <path class="cls-4" d="M172.93,397.48c.2,0,.4,0,.6-.01,1.14.63.82,1.91,1.24,2.89,1.57-.37,3.11-.72,4.64-1.09,1.61-.4,1.61-.41,1.27-2.06.35-.11.66-.38,1.07-.3-.2.31-.04.6,0,.92.08.73.5.79,1.06.58.94-.35,1.89-.68,2.8-1.1.64-.29,1.27-.49,1.97-.46-2.9,1.88-5.99,3.33-9.35,4.17-1.7.42-3.33,1.01-4.95,1.69-1.84.76-3.86.75-5.81.99-.35.04-.73-.1-1.08-.21-.72-.22-.77-.35-.48-1.1.22-.55.44-1.11.66-1.66,1.96,0,3.91.02,5.87.01,1.29,0,1.36-.15,1.09-1.46-.13-.63-.65-1.11-.6-1.79Z"/>
      <path class="cls-4" d="M190.92,393.19c.32-.35.65-.7.97-1.06.47,0,.95,0,1.42-.01,2,.55,3.89,1.32,5.33,2.91.21.23.5.43.41.82-.43.3-.78.11-1.1-.19-1.97-1.89-4.38-2.53-7.04-2.47Z"/>
      <path class="cls-6" d="M203.38,369.21c.46-1.75,1.04-3.46,1.74-5.12.43.1.79.4,1.25.38-.32,1.61-1.07,3.12-1.17,4.79-.61-.01-1.22-.03-1.83-.04Z"/>
      <path class="cls-4" d="M193.95,389.74c.07-.36.21-.69.52-.91.15-.05.27-.12.3-.29,0,0,0,0,0,0,.44.02.89.04,1.33.07.3.27.69.19,1.04.27,1.63.37,2.82,1.31,3.69,2.73-.53.4-.77.03-1.05-.16-1.53-1.03-3.11-1.91-5.06-1.74-.25.01-.51.03-.76.04Z"/>
      <path class="cls-6" d="M199.22,379.73c.64-1.63,1.22-3.29,2.04-4.85.41.04.82.08,1.24.11-.22,1.38-1.06,2.52-1.46,3.83-.21.71-.98.42-1.3.87-.17.01-.35.03-.52.04Z"/>
      <path class="cls-4" d="M196.67,385c0-.34.18-.6.36-.86.6-.02,1.2-.04,1.81-.07,1.16.11,2.22.49,3.14,1.2.18.14.38.26.52.44.23.31.67.68.34,1.04-.32.35-.62-.13-.9-.32-1.25-.86-2.55-1.6-4.15-1.44-.37,0-.74.01-1.11.02Z"/>
      <path class="cls-4" d="M199.22,379.73c.17-.01.35-.03.52-.04,1.42-.14,2.7.18,3.83,1.09.4.33.75.65.8,1.37-1.44-.33-2.51-1.6-4.03-1.4-.5-.39-1.02.13-1.53-.02.08-.36.18-.7.41-1Z"/>
      <path class="cls-4" d="M206.38,364.46c-.46.02-.83-.28-1.25-.38.06-.21.12-.42.19-.63,1.65-.1,3.19.24,4.52,1.27.14.11.31.2.44.33.18.17.28.41.15.62-.13.23-.39.2-.61.09-.54-.26-1.06-.55-1.61-.79-.58-.25-1.16-.55-1.83-.52Z"/>
      <path class="cls-6" d="M201.52,374.18c.51-1.44.98-2.89,1.7-4.25.44.09.88.18,1.32.27-.73,1.22-1.18,2.54-1.54,3.91-.49.02-.99.04-1.48.07Z"/>
      <path class="cls-6" d="M198.81,380.73c.51.14,1.02-.38,1.53.02-.55,1.08-1.45,2.01-1.51,3.31-.6.02-1.2.04-1.81.07.53-1.17,1.03-2.35,1.78-3.4Z"/>
      <path class="cls-4" d="M170.89,405.54c.22-.34.56-.51.93-.63,1.07.48,2.22.85,2.74,2.06.11.25.25.5.28.76.04.38.24.96-.19,1.1-.52.17-.54-.44-.68-.79-.56-1.41-1.79-1.98-3.08-2.49Z"/>
      <path class="cls-4" d="M192.46,411.66c.06-.26.05-.54.31-.71,1.31-.44,2.62-.44,3.91.04.74.28,1.01.79.82,1.37-.07.23-.32.5-.48.3-1.26-1.61-2.93-1.19-4.56-1Z"/>
      <path class="cls-6" d="M196.67,385c.37,0,.74-.01,1.11-.02-.12.87-.62,1.57-1.06,2.29-.26.42-.51.84-.62,1.33-.44-.02-.89-.04-1.33-.07.41-1.3,1.13-2.43,1.91-3.53Z"/>
      <path class="cls-4" d="M186.73,398.65c.5-.17.44-.96,1.09-.97.38.44.96.53,1.42.81.6.36,1.08.86,1.49,1.42.25.35.36.9.02,1.14-.44.31-.56-.28-.76-.54-.81-1.1-1.91-1.69-3.25-1.86Z"/>
      <path class="cls-4" d="M195.28,405.34c.04-.34.08-.69.13-1.03,1.12-.28,2.24-.4,3.32.18.37.2.72.4.94.77.1.17.1.35-.01.51-.12.17-.31.19-.49.13-.13-.04-.26-.09-.37-.18-1.09-.88-2.29-.72-3.51-.39Z"/>
      <path class="cls-4" d="M201.52,374.18c.49-.02.99-.04,1.48-.07,1.24.18,2.37.54,3.15,2.01-1.41-.29-2.43-1.1-3.65-1.12-.41-.04-.82-.08-1.24-.11.09-.23.18-.47.26-.71Z"/>
      <path class="cls-4" d="M194.18,408.37c.17-.44.34-.88.51-1.32.35.42.84.27,1.29.3.82.06,1.48.44,2.09.95.23.19.35.44.12.72-.17.2-.41.28-.6.09-.99-.97-2.25-.58-3.41-.73Z"/>
      <path class="cls-4" d="M177.66,402.65c.32-.23.67-.31,1.06-.28.77.65,1.55,1.27,1.97,2.24.25.57.32,1.12.16,1.84-.89-.52-.73-1.58-1.36-2.16-.6-.55-1.16-1.16-1.82-1.64Z"/>
      <path class="cls-4" d="M183.17,400.96c.18-.29.48-.41.77-.53.9.61,1.92,1.11,2.29,2.25.08.26.18.52.22.78.03.17,0,.37-.23.43-.15.04-.29-.02-.35-.14-.56-1.26-1.72-1.94-2.7-2.79Z"/>
      <path class="cls-4" d="M204.54,370.2c-.44-.09-.88-.18-1.32-.27.05-.24.11-.48.16-.72.61.01,1.22.03,1.83.04.53.25,1.06.49,1.58.76.39.2.83.39.84,1.04-1.11-.09-2.01-.84-3.1-.85Z"/>
      <path class="cls-4" d="M200.92,402.73c-1.24-1.19-2.71-1.35-4.36-1.16.9-.91,2.28-1.13,3.33-.63.83.39,1.09.79,1.03,1.79Z"/>
      <path class="cls-6" d="M193.95,389.74c.25-.02.51-.03.76-.04.13.51-.16.83-.48,1.16-.37.38-.81.71-.92,1.27-.47,0-.95,0-1.42.01.69-.8,1.37-1.6,2.06-2.4Z"/>
      <path class="cls-4" d="M210.52,400.2c.42.03.81.14,1.1.48-.67.18-.52.91-.88,1.3-.16.17-.33.38-.57.25-.23-.12-.21-.38-.11-.61.2-.46.47-.9.46-1.42Z"/>
      <path class="cls-4" d="M210,399.89c.22-.01.41.04.48.29-.22,0-.39-.07-.48-.29Z"/>
      <path class="cls-6" d="M285.68,421.07c-1.28-1.17-2.42-2.07-3.85-2.54-.71-.23-.73-1-.87-1.61-.2-.87-.3-1.95.47-2.4.89-.53,1.73.23,2.38.9,1.47,1.5,2.04,3.32,1.87,5.65Z"/>
      <path class="cls-6" d="M254.86,423.25c-.43-1.28-.94-2.44-1.52-3.58-.45-.89.33-2.65,1.25-3.04.49-.21.89-.04,1.23.33.58.65.89,1.47.79,2.27-.19,1.44-.58,2.86-1.75,4.01Z"/>
      <path class="cls-6" d="M290.67,409.46c-1.28-.55-2.49-1.05-3.78-1.3-.48-.09-1.15-1.78-1.01-2.28.07-.26.26-.34.51-.36.57-.04,1.1.16,1.6.37,1.38.59,2.36,1.88,2.68,3.56Z"/>
      <path class="cls-6" d="M236.97,401.43c.13.14.19.17.19.2,0,1.94.5,1.75-2.26,1.92.36-1.11,1.21-1.62,2.07-2.12Z"/>
      <path class="cls-5" d="M172.93,397.48c-.04.68.48,1.16.6,1.79.27,1.31.2,1.45-1.09,1.46-1.96.01-3.91,0-5.87-.01-.02-.18-.05-.36-.05-.55,0-.41-.54-.73-.28-1.14.32-.51.85-.88,1.42-1.03,1.72-.46,3.45-.9,5.26-.52Z"/>
      <path class="cls-6" d="M163.31,415.14c.24-1.86.8-3.33,1.95-4.54.62-.65,1.38-1.07,2.24-1.3.73-.2,1.11.08,1.29.81.3,1.26-.61,2.88-1.87,3.26-1.24.37-2.35,1-3.61,1.77Z"/>
      <path class="cls-6" d="M193.22,421.85c-1.05-1.81-1.48-3.42-.84-5.19.17-.48.41-.92.82-1.25.73-.59,1.33-.48,1.77.36.61,1.15.91,2.26-.22,3.35-.68.66-1.14,1.54-1.53,2.73Z"/>
      <path class="cls-5" d="M180.68,397.21c.34,1.66.34,1.67-1.27,2.06-1.53.38-3.07.73-4.64,1.09-.43-.98-.11-2.26-1.24-2.89.09-.02.18-.06.27-.04,2.31.43,4.6.07,6.89-.22Z"/>
      <path class="cls-6" d="M160.52,403.16c.72-2.01,2.59-3.34,4.45-3.29.77.02.88.17.58.92-.15.38-.36.74-.53,1.11-.12.27-.28.46-.6.46-1.28.03-2.5.38-3.9.8Z"/>
      <path class="cls-6" d="M214.2,402.42c1.26.58,1.85,1.49,2.13,2.66-2.26-.28-2.3-.32-2.13-2.66Z"/>
      <path class="cls-5" d="M194.77,388.53c-.03.17-.16.24-.3.29.04-.16.1-.3.3-.29Z"/>
      <path class="cls-5" d="M251.76,369.37c-.24,0-.46-.03-.64-.21.26-.07.48-.04.64.21Z"/>
    </g>
  </g>
  <path class="cls-3" d="M241.39,405.22l2.35-.81-2.35.81Z"/>
  <polygon class="cls-2" points="243.79 404.41 241.34 405.09 241.11 404.24 243.42 403.71 243.79 404.41"/>
</svg>