<?xml version="1.0" encoding="UTF-8"?>
<svg id="Sprite_Alien" xmlns="http://www.w3.org/2000/svg" viewBox="0 0 471.47 423.94">
  <defs>
    <style>
      .cls-1 {
        fill: #212143;
      }

      .cls-1, .cls-2, .cls-3, .cls-4, .cls-5, .cls-6, .cls-7, .cls-8, .cls-9 {
        stroke-width: 0px;
      }

      .cls-2 {
        fill: #19151a;
      }

      .cls-3 {
        fill: #436698;
      }

      .cls-4 {
        fill: #385986;
      }

      .cls-5 {
        fill: #6fb2d0;
      }

      .cls-6 {
        fill: #182024;
      }

      .cls-7 {
        fill: #fcfcf8;
      }

      .cls-8 {
        fill: #6b9ec3;
      }

      .cls-9 {
        fill: #7dc3de;
      }
    </style>
  </defs>
  <g id="Legs-Alien">
    <g id="L3">
      <g>
        <path class="cls-2" d="M210.02,282.79c1.86,1.6,1.85,1.77,1.1,3.85-1.17,3.24-2.65,6.32-4.37,9.29-.56.97-.48,1.75.12,2.61.73,1.04,1.41,2.11,2.16,3.24,2.62-2.47,5.42-4.7,8.47-6.64,1.14-.73,2.3-1.04,3.58-1.05,1.79-.02,3.55.28,5.29.64,1.24.26,2.01,1.04,2.41,2.19,1.16,3.27,1.77,6.62,1.28,10.11-.74,5.24-2.25,10.29-3.84,15.32-.9,2.84-1.74,5.7-2.86,8.48-.7,1.73-1.45,3.4-3.1,4.45-.54.35-.78.82-.71,1.45.1.91-.18,1.76-.43,2.61-.56-.04-.75-.38-.75-.89,0-.38-.02-.77-.39-1.01l-.04-.76c1.51-.69,1.55-.96.35-2.48.66-.68,1.6-1.08,2.05-1.96,1.55-3.07,2.5-6.35,3.36-9.66.03-.11-.04-.25-.06-.37.08-.35-.17-.56-.32-.82.08-.4.16-.8.24-1.21.39.75.77,1.04,1.12-.03,1.28-3.98,2.22-8.05,3.02-12.15.24-.2.27-.44.14-.71.02-1.18.05-2.37.07-3.55.24-1.45-.12-2.78-.7-4.24-1.23,1.17-1.32,2.69-1.99,3.92-.3-.21-.32-.55-.4-.86,0-.97.47-1.79.84-2.64,1.22-2.78,1.04-3.19-1.93-3.67-2.24-.36-4.34-.22-6.26,1.29-1.94,1.52-3.95,2.95-5.74,4.64-.2.19-.51.36-.4.72.31.2.63.06.94.06.23,1.28,1.23.69,1.95.81,1.17.26,1.98,1.05,2.78,1.86,1.09,1.1,1.12,1.1,2.18-.06,1.3-1.43,1.92-3.24,2.64-4.97.32-.77-.02-1.25-.94-1.44-.99-.2-1.95-.2-2.94-.11-.67-.68.12-.8.43-1.1.8.09,1.59.14,2.39.02.19.03.38.04.56.08,2.23.5,2.52,1.02,1.74,3.16-.56,1.55-1.27,3.04-2.11,4.45-.48.79-.76,1.56-.53,2.5.18.75.15,1.54-.17,2.24-1.5,3.29-3.39,6.33-5.77,9.06-.09.08-.17.17-.26.25-.77.47-1.06,1.35-1.77,1.91-1.89,1.48-4.09,1.56-6.29,1.49-1.2-.04-2.23.1-3.12.92-.41-.08-.68-.3-.67-.76,0-.33-.09-.62-.45-.73-1.93.01-3.75-.65-5.63-.92-1.49-.21-1.48-.31-2.11,1.16-.25.58-1.08.95-.61,1.78-.04.75-.9.45-1.16.91-.05.88-.85,1.43-1.14,2.2.44.24.76.41,1.09.58-.41.39-1.12.2-1.46.73q-1.01,2.28,1.22,2.99c.12.04.22.12.33.19.14.08.28.16.42.24.12-.01.23.02.32.1-.17.27-.46.3-.73.36-.15-.03-.3-.06-.45-.09-.28-.42-.68-.35-1.09-.28l-.08-.05c-.42-.57-.9-.53-1.41-.15,0,.09-.05.15-.14.17-.18.06-.25.18-.23.36v.06c-.42-.03-.84-.05-1.25-.08.07-.26.15-.52.22-.79.06-.12.12-.24.17-.36.25-1.73,1.19-3.18,1.96-4.69,1.08-2.08,2.25-4.12,3.39-6.17.24-.43.32-.87-.07-1.22-.53-.47-.78.11-1.06.38-.36.36-.68.76-.99,1.16-3.68,4.83-6.44,10.21-9.32,15.52-.7-.03-1.4.05-2.08-.18,2.85-6.16,6.09-12.1,10.26-17.49.5-.65,1.13-1.2,1.72-1.77,1.1-1.07,1.06-2.48-.12-3.5-.19-.17-.44-.29-.59-.48-1.06-1.4-2.41-1.36-4.05-1.23-3.32.27-6.54-.47-9.48-2.11-1.2-.67-1.85-1.89-2.5-3.06-1.57-2.87-2.38-6-3.13-9.14-1.21-5.05-.83-10.09.17-15.11.55-2.73.93-5.5,1.8-8.16.62-1.88.63-1.88,2.64-2.01-.59,2.53-1.25,5.04-1.77,7.58-1.01,4.99-1.6,10.03-.88,15.12.18,1.29.07,2.64.66,3.86.25,2.29,1.07,4.37,2.26,6.33.91,2.33,2.58,3.58,5.09,3.97,2.97.47,5.89.91,8.8-.21.67.03,1.21-.3,1.78-.57,2.87-1.37,5.19-3.4,7.1-5.9,4.27-5.59,7.37-11.82,9.91-18.34.18-.47.42-.93.3-1.47ZM211.91,305.28c-.36-.41-.75-.41-1.15-.06-.27.13-.68.03-.79.44-1.18.65-2.09,1.58-2.64,2.8-.54,1.19-1.08,2.4-1.25,3.73-.49.64-.43,1.37-.35,2.1-.52.44-.25,1.43-1.1,1.64-.67.16-.68.56-.54,1.14.18.73.22,1.49.39,2.22.49,2.09.78,2.27,3.23,1.84-1.08-2-.7-4.16-.85-6.27.06-.45.11-.9.17-1.36.48-1.2.68-2.51,1.46-3.59.2.02.4.04.6.05-.21.92-.38,1.86-.63,2.76-.67,2.38-.54,4.74.17,7.09.37,1.22.63,1.35,1.7.81,1.07-.54,1.12-.72.53-1.82-.15-.28-.25-.58-.37-.87.31,0,.62.01.94.02,1.06.74,1.39.74,2.18-.06.35-.35.65-.74.98-1.12.83-.05.77-.63.7-1.21.17-.74.34-1.48.51-2.22.1,0,.21,0,.31-.02l.03.04c.06.3-.24.82.3.82.41,0,.42-.49.43-.84.09-.43.22-.86.26-1.3.17-1.67,0-3.26-1.3-4.51-.25-.65-.62-1.19-1.27-1.5-.82-.38-1.67-.65-2.57-.73l-.07-.04ZM202.27,303.07c-.45.01-.64.3-.74.69-.55.33-.9.84-.57,1.42.6,1.09,1.17,2.27,2.67,2.4.22.26.44.52.66.78-.04.51-.32.82-.81.96-1.53-.76-2.07-2.49-3.46-3.55-.84.75-1.67,1.49-2.59,2.31,1.68,2.05,3.94,3.42,5.62,5.38.47.55.97.23,1.07-.4.15-1.05.48-2.11.03-3.17.56-.11.88-.44.9-1.03.55-.57.79-1.3,1-2.05.24-.31.11-.58-.12-.82-1.19-1.22-2.42-2.42-3.15-4.01-.54.32-.48.72-.51,1.08ZM193.52,312.6c1.1,1.29,2.53,1.78,4.2,1.81,1.14.02,2.28.19,3.42.3.47.04.95.21,1.56-.14-.87-.87-1.48-1.76-2.55-2.13-.62-1.44-2.05-2.16-2.99-3.31-.27-.33-.65-.38-1.01-.13-1.28.87-2.67,1.56-4.2,2.33.56.62,1,1.03,1.58,1.27ZM203.68,320.97c-.3-1.23-.67-2.17-.67-3.2,0-1.01-.59-1.43-1.6-1.36-.5.03-1.01,0-1.51-.08-2.78-.39-2.85-.3-2.11,2.51.23.87.64,1.54,1.57,1.67,1.36.19,2.73.3,4.32.47ZM204.8,299.4c-1.23,1.69-1.25,2.15-.08,3.53.77.9,1.58,1.76,2.44,2.72.42-.64,1.76-.76.95-1.9-1.04-1.48-2.19-2.88-3.32-4.34ZM196.59,320.04c0-1.52-.18-2.62-.44-3.7-.11-.46-.55-.72-1.04-.62-.63.12-.53.66-.4,1.05.35,1.04.52,2.2,1.88,3.27Z"/>
        <path class="cls-9" d="M209.18,374.9c-.47-.44-.21-1.11-.55-1.67-.63.56-.68,1.36-.85,2.04-1.23,4.87-2.85,9.62-4.3,14.42-.37,1.22-.89,2.38-1.52,3.49-.22.38-.47.83-.99.76-.43-.06-.49-.52-.65-.86-1.54-3.3-2.43-6.82-3.27-10.34-.47-1.97-1.09-3.92-1.29-5.95-.04-.41-.14-.95-.66-1.05-.46-.09-.56.38-.78.69-.61.87-.98.85-1.36-.16-.59-1.61-1.13-3.24-1.31-4.96-.05-.53-.1-1.04-.82-1.03.43-.49.51-1.23,1.16-1.56.98-.51,1.69-1.37,2.17-2.28.35-.66.85-1.03,1.34-1.48.49-.43.99-.87,1.48-1.3.4,1.07.53,2.41,1.26,3.15,1.34,1.35,1.45,3.01,1.93,4.62.25.84.3,1.83,1.09,2.51.63-.76.79-1.59.98-2.38.54-2.15.92-4.34,1.18-6.54.12-1,.52-.88,1.02-.23.12.15.28.25.57.01.34-1.56.7-3.22,1.07-4.88.11-.52-.18-1.29.6-1.42.63-.11.7.63,1.02.99.12.14.22.33.51.18.59-1.72.61-3.55.6-5.38,0-.83-.02-1.65-.01-2.48,0-.3-.06-.68.32-.82.45-.17.7.19.93.48.23.3.4.65.6.97.27.43.56.85.84,1.27.23.35.54.55.96.46.48-.09.51-.5.54-.88.02-.38.01-.77.06-1.14.19-1.44.47-2.82,2.54-2.61-.51-1.51-.53-3.02-1.69-4.08.67-.54,1.46-.82,2.28-1.04-.07.7.05,1.37.23,2.06.46,1.71.86,3.44,1.21,5.18.27,1.34.07,1.66-1.29,1.85-.75.1-.96.45-.95,1.12.02,1.59.04,3.18.01,4.77,0,.39.22.92-.42,1.13-.45-.33-.9-.68-1.37-1.01-1.06-.74-1.99-.5-2.5.7-.2.46-.37.99-.34,1.47.23,4.02-.85,7.94-.8,11.94,0,.61-.05,1.16-.8,1.3Z"/>
        <path class="cls-9" d="M280.45,369.92c-.87.83-.59,2.01-.83,3.01-.27,1.11-.66,2.18-.95,3.28-.08.3-.22.64-.55.72-.47.11-.63-.3-.83-.62-.22-.35-.27-.87-1.09-.97-1.23,6.41-2.71,12.78-5.44,18.95-1.1-.9-1.39-2.03-1.79-3.04-1.88-4.72-3.41-9.56-4.67-14.48-.26-1.02-.6-2.02-.89-2.98-.7.05-.63.59-.9.82-.44-.53-.72-1.09-.95-1.77-.4-1.19.26-2.36-.24-3.53-.48-1.1-.46-2.34-.44-3.55.03-1.52,0-3.05-.01-4.57,0-.57,0-1.14-.23-1.68-.49-1.14-1.04-1.31-2.01-.58-.73.54-1.33,1.28-2.41,1.58,0-1.99-.03-3.83.01-5.66.02-.95-.28-1.35-1.31-1.36-1.37-.02-1.37-.11-1.1-1.44.52-2.54,1.46-4.98,1.75-7.58.61.19,1.22.38,1.83.57.05.13.1.26.15.39-1.2,1.07-1.26,2.52-1.42,3.96,1.99-.01,1.97-.01,2.12,1.93.06.82.24,1.63.35,2.45.04.33.11.65.49.71.34.05.62-.14.79-.43.45-.77.86-1.56,1.33-2.31.19-.3.49-.64.94-.43.35.16.34.53.31.83-.17,1.79.37,3.53.38,5.31,0,.81.14,1.58.58,2.25.34-.11.38-.28.42-.47.1-.51.2-1.11.85-1.07.77.04.77.72.8,1.3.07,1.53.51,3,.78,4.49.06.35.02.87.6.71,1.24-.35,1.22.54,1.31,1.29.3,2.46,1.01,4.84,1.52,7.26.06.31.08.68.47.73.48.06.65-.36.76-.71.18-.54.29-1.1.45-1.65.47-1.6.36-3.48,2.15-4.46.13-.07.21-.33.22-.51.07-1.14.63-2.21.5-3.38.79.09,1.13.74,1.58,1.26,1.22,1.44,2.36,2.95,3.78,4.21.29.4.59.79.88,1.19Z"/>
        <path class="cls-9" d="M292.81,272.08c.87-.56,1.66-.42,2.38.29.04.44.02.89.13,1.31,1.14,4.56,2.01,9.16,2.39,13.85.53,6.52-.55,12.75-3.49,18.63-.66,1.32-1.62,2.18-3.03,2.68-1.88.66-3.82,1.06-5.77.99-1.7-.06-3.56.11-5.05-1.09.35-.13.58-.37.65-.74.25-.26.49-.52.74-.78,3.17,1.83,6.47,1.27,9.77.5.29-.07.6-.26.79-.49,2.12-2.59,2.72-5.72,3.35-9.05-3.2.96-6.17,1.57-9.24,1.32-1.09-.09-1.61.41-1.99,1.35-.66,1.64-1.03,3.39-1.83,4.98-.12.24-.13.51-.47.23.18-.54.2-1.11.35-1.66.75-2.89,1.06-5.84.68-8.83-.79-6.28-2.82-12.2-5.25-18-.66-1.57-1.48-3.07-2.23-4.6,1.18-.95,2.61-.86,3.99-.95,1.78,2.86,3.22,5.89,4.56,8.97.81,1.86,1.55,3.75,2.35,5.61.33.78.81,1.47,1.77,1.53,1.27.08,2.54.15,3.79-.12,1.52-.33,1.91-.76,1.99-2.32.12-2.28.06-4.57-.28-6.83-.34-2.25-.7-4.51-1.05-6.76Z"/>
        <path class="cls-2" d="M280.36,308.73c1.5,1.2,3.35,1.03,5.05,1.09,1.94.07,3.89-.33,5.77-.99,1.41-.5,2.37-1.36,3.03-2.68,2.94-5.88,4.01-12.11,3.49-18.63-.38-4.69-1.25-9.29-2.39-13.85-.11-.42-.09-.87-.13-1.31,1.27-.07,1.92.55,2.26,1.78,1.85,6.84,3.18,13.74,2.36,20.86-.47,4.11-1.44,8.09-3.35,11.82-1.06,2.06-2.53,3.53-4.7,4.11-2.8.75-5.63,1.59-8.6.96-.58-.12-1.08-.07-1.54.44-.42.46-.97.81-1.51,1.15-.77.48-1.12,1.1-1.14,2.03,0,.81.19,1.29.84,1.87,1.91,1.7,3.25,3.89,4.59,6.03,2.19,3.48,4.32,7,5.93,10.81-.6.99-1.34.04-2,.14h0c0-.19-.09-.32-.26-.39-.79-1.44-1.55-2.9-2.36-4.33-1.7-2.97-3.48-5.88-5.48-8.65-.9-1.25-1.03-1.28-2.24-1.55-.18.11-.28.25-.21.47.05.57.28,1.06.54,1.56,1.27,2.39,2.52,4.8,3.73,7.22.47.93.9,1.89.97,2.96-.66.1-1-.46-1.47-.74-.43-.64-.38-1.86-1.36-1.82-1.55.06-3.18.18-4.4,1.4,0,.6-.6.79-.84,1.23-.64-.77-1.29-1.54-1.93-2.32.05-.5.33-.77.83-.82.51.3.85,1.06,1.6.72,1.45-.63,3.11-.74,4.46-1.68-.31-.91-.72-1.66-1.52-2.14-.01-.37-.03-.73-.04-1.1-.1-.38-.38-.61-.69-.82,0-.25-.09-.47-.22-.7-.81-1.41-.8-1.42-2.46-1.15-1.67.27-3.34.55-5.01.83-.56-.03-1.01.02-.44.7.17.36.4.66.79.8.04.11.07.21.09.32-.17.38-.46.66-.84.84-1.13-.69-1.75-2.11-3.26-2.25-1.1-.15-2.2-.16-3.3,0-.23-.03-.46-.07-.69-.1,0-.62,0-1.24,0-1.86.1-.04.2-.07.31-.07.45.13.9.26,1.34.38.57-.01,1.14-.04,1.71-.04.51,0,.88-.21,1.03-.68.34-1.08.67-2.17.94-3.28.1-.41.14-1.05-.37-1.15-1.01-.19-1.02-1.19-1.61-1.69.2-1.46-.5-2.78-.64-4.19l2.06.02c-.34,1.24.1,2.3.67,3.37,1.27-.5,1.87-1.67,2.88-2.31.34.06.69.11.89.45-.14.34-.49.59-.48,1.01-.87.3-1.71.62-2.02,1.64,1.56,0,3,0,4.44,0,2.16,0,3.86-.89,5.12-2.64.42-.14,1.33-.32.41-.8-1.49-.77-2.82-1.86-4.47-2.32-.16-.12-.31-.23-.47-.35-.39-1.04-1.67-2.18-2.95-2.61-.22-.39-.45-.78-.67-1.17-.07-.22-.14-.45-.21-.67.4-.55.96-.8,1.62-.86.62.42,1.12.96,1.53,1.59q.15,1.36,1.52,1.47c.46.2.85.48,1.17.87.12.09.25.18.37.27,1.3.51,2.34,1.67,3.9,1.49ZM268.79,316.65c-.35.64-.32,1.32-.25,2.01-.1.3-.21.6-.28.9-.3,1.32-.1,1.55,1.3,1.4.69-.08,1.37-.22,2.05-.35,1.75-.34,1.77-.36,2.14-2.31.15-.51.29-1.02.44-1.54.05-.49-.23-.67-.66-.69-.94-.05-1.87,0-2.76.35-.38,0-.76,0-1.14,0-.43-.47-.69-.32-.83.23ZM276.89,316.77c0-.5.1-1.07-.66-1.11-.68-.04-.89.39-.87.96.04.84-.23,1.62-.36,2.43-.04.24-.02.51.28.63.29.11.53-.06.65-.26.49-.81.95-1.65.97-2.64Z"/>
        <path class="cls-9" d="M174.77,298.99c-.59-1.22-.48-2.57-.66-3.86-.72-5.09-.13-10.13.88-15.12.51-2.54,1.17-5.05,1.77-7.58.65-.58,1.42-.72,2.26-.61-.87,2.74-1.2,5.58-1.46,8.42-.17,1.83-.39,3.67-.15,5.52.2,1.56.54,1.99,2.09,2.27.93.17,1.9.18,2.85.19,1.89.01,2.12-.14,2.81-1.89,1.75-4.44,3.64-8.8,5.9-13.01.21-.39.43-.78.33-1.26,1.7-.55,3.18-.02,4.57.95-.58,1.5-1.57,2.8-2.03,4.36-.42.33-.55.82-.74,1.27-1.55,3.62-2.77,7.35-3.7,11.17-.95,3.89-1.57,7.84-.91,11.87.25,1.5.53,2.99.8,4.49-.71-.43-.93-1.17-1.19-1.88-.39-1.07-.77-2.15-1.12-3.23-.36-1.1-1.01-1.55-2.24-1.59-2.27-.06-4.58-.08-6.78-.72-1.18-.35-2.22-.3-3.28.23Z"/>
        <path class="cls-2" d="M253.13,342.43c-.69-.52-.73-1.28-.79-2.04-.11-1.26-.25-2.52-.35-3.78-.05-.69-.32-1.2-.91-1.57-1.29-.82-2.02-2.09-2.53-3.48-2.99-8.1-5.77-16.26-7.05-24.83-.52-3.44.2-6.84,1.39-10.1.3-.81.9-1.35,1.74-1.63,1.82-.59,3.68-1.02,5.6-.98,1.34.03,2.53.41,3.75,1.13,3.11,1.85,5.86,4.15,8.68,6.51.34-.56.55-1.12.94-1.51,1.97-1.95,1.68-3.87.26-6.02-1.54-2.33-2.37-5.04-3.42-7.62-.78-1.93-.76-1.95.8-3.4,1.83,4.16,3.62,8.34,5.68,12.4.13,1.28.22,2.58,1.79,2.98.05.13.1.26.15.39,0,.82.15,1.72-1.04,1.87-.36-.43-.72-.86-1.15-1.38-1.1,1.51-2.17,2.97-3.24,4.43-.22.3-.19.58.05.85.33.38.64.78,1.17.9-.08,1.43-1.23.77-1.93.99,0,0,0,0,0,0-.12-.14-.24-.27-.36-.41h0c-.02-.22-.14-.35-.35-.39,0,0-.03-.02-.03-.02-.07-.2-.21-.31-.42-.34-.23-.05-.46-.09-.69-.14-.6-1.16-1.05-.28-1.54.11,0,.12.02.24.06.36-.66.09-1.37-.22-1.96.32-.13.05-.26.1-.38.15-.88-.15-1.19.51-1.51,1.1-.41.76-.79,1.53-1.19,2.3,0,.22,0,.45,0,.67-.03.27-.05.54-.08.81-.68.05-1.02-.2-1.09-.96-.09-1.11.32-2.12.42-3.18.73-1.31,1.91-2.17,3.04-3.07.51-.14,1.02-.29,1.53-.43.45,0,.93.05,1.17-.47.36.02.74.26,1.05-.11.03-.45-.31-.67-.59-.92-2.14-1.89-4.45-3.54-6.9-4.99-.62-.37-1.14-.91-1.97-.87-1.32.07-2.65,0-3.95.37-1.63.46-2.07,1.25-1.48,2.86.08.23.19.45.29.68-.23.03-.45.06-.68.09-.13-.16-.26-.31-.38-.47.03-.26-.02-.52-.32-.52-.31,0-.34.27-.29.52,0,.31-.01.62-.02.93-.02.11-.08.2-.16.28-.2.14-.23.32-.15.54.05,2.21-.4,4.44.14,6.64-.03.04-.1.1-.09.13.04.09.1.18.16.27.51,3.14,1.36,6.2,2.11,9.28.26,1.09.41,2.27,1.22,3.16.21.19.42.39.64.58-.02.14-.04.29-.06.43-.22.64-.05,1.24.16,1.85.57,1.68,1.16,3.35,1.66,5.05.66,2.24,1.62,4.24,3.65,5.56-.62.31-1.24.62-.35,1.32.32.25.43.53.41.97-.11,1.92-.15,3.85-.21,5.78l-.07.06Z"/>
        <path class="cls-4" d="M210.02,282.79c.11.53-.12,1-.3,1.47-2.54,6.52-5.65,12.75-9.91,18.34-1.91,2.5-4.24,4.53-7.1,5.9-.57.27-1.12.6-1.78.57-.04-.11-.02-.22.03-.33.65-.84.08-1.63-.24-2.31-1.68-3.52-1.7-7.2-1.24-10.95.74-6.14,2.79-11.91,4.96-17.65.89-1.46,1.45-3.06,2.14-4.6.96.3,2.01.4,2.77,1.18.14.54-.16.98-.37,1.44-.76,1.67-1.47,3.37-2.27,5.02-1.11,2.3-1.61,4.74-1.08,7.2.38,1.77-.02,3.17-.84,4.67-1.53,2.77-2.26,5.76-2.03,8.96.16,2.24,1.71,3.07,3.68,1.98,1.44-.79,2.37-2.05,3.26-3.36.73-.77.88-1.78,1.16-2.74.46-1.56.74-3.18,1.51-4.65.91-1.73,1.76-3.49,2.63-5.24,1.11-2.25,2-4.62,3.37-6.74.8.39,1.34,1.01,1.64,1.84Z"/>
        <path class="cls-4" d="M268.84,298.87c-.05-.13-.1-.26-.15-.39-.44-1.09-1.09-2.06-1.79-2.98-2.06-4.06-3.84-8.24-5.68-12.4.38-.72.81-1.39,1.55-1.8.92-.01,1.11.76,1.39,1.36,1.81,3.98,3.6,7.97,5.57,11.89.2.39.31.83.44,1.25.08.24.15.61-.2.6-.84-.01-.56.36-.35.79.67,1.44,1.64,2.68,2.67,3.88.6.65,1.16,1.34,1.8,1.95.93.89,2.15,1.27,3.31.88,1.24-.42,1.39-1.69,1.4-2.88.02-2.84-.51-5.56-1.75-8.12-.89-1.83-1.34-3.69-.88-5.71.11-.51.05-1,0-1.51-.22-2.45-1.22-4.65-2.16-6.87-.62-1.45-1.44-2.82-1.78-4.38.73-.81,1.77-.91,2.74-1.17.34.61.71,1.2,1,1.83,2.52,5.42,4.35,11.07,5.56,16.92,1.01,4.9,1.39,9.78-.59,14.57-.2.48-.34.96.08,1.42-.08.37-.3.61-.65.74-1.56.19-2.6-.98-3.9-1.49-.05-.18-.17-.29-.37-.27-.32-.39-.71-.68-1.17-.87-.36-.64-.9-1.09-1.52-1.47-.41-.63-.91-1.17-1.53-1.59-.93-1.45-1.89-2.88-3.04-4.17Z"/>
        <path class="cls-8" d="M255.53,344.47c-.29,2.59-1.23,5.04-1.75,7.58-.27,1.32-.27,1.42,1.1,1.44,1.03.02,1.33.41,1.31,1.36-.04,1.83-.01,3.67-.01,5.66,1.09-.3,1.69-1.04,2.41-1.58.97-.73,1.52-.55,2.01.58.24.55.23,1.12.23,1.68.02,1.52.04,3.05.01,4.57-.02,1.21-.04,2.45.44,3.55.51,1.17-.15,2.33.24,3.53.23.69.51,1.24.95,1.77-.05.34-.1.67-.14,1.01-.17.11-.26.27-.25.48-.17,1.45-.45,2.86-1.44,4.11-.98-.61-1.08-1.62-1.28-2.5-.74-3.28-1.22-6.61-1.24-9.98-.01-1.33-.15-2.65-.44-4.06-.75.26-.94.98-1.34,1.48-.36.44-.63.95-.95,1.42-.34.49-.77.95-1.4.73-.59-.2-.48-.84-.47-1.33.03-2.6-.25-5.2.33-7.78.09-.42.01-.88.01-1.45-1.83.6-2.73,2.49-4.6,3.07-.49-.63-.32-1.3-.13-1.95,1.28-4.44,2.53-8.9,4.51-13.11.13-.28.21-.59.31-.89.12,0,.25,0,.37-.01.4.21.8.42,1.2.63Z"/>
        <path class="cls-8" d="M209.18,374.9c.75-.14.8-.68.8-1.3-.05-4,1.04-7.92.8-11.94-.03-.48.15-1.01.34-1.47.51-1.2,1.44-1.44,2.5-.7.47.33.92.67,1.37,1.01.64-.21.41-.74.42-1.13.02-1.59,0-3.18-.01-4.77,0-.67.2-1.01.95-1.12,1.36-.19,1.56-.5,1.29-1.85-.35-1.74-.75-3.47-1.21-5.18-.18-.69-.3-1.36-.23-2.06.35-.15.7-.3,1.05-.45,2.38,4.18,3.89,8.69,5.11,13.31.21.79.68,1.81-.06,2.31-.87.59-1.38-.54-1.98-1.01-.79-.62-1.54-1.29-2.44-1.78-.43.42-.21.88-.14,1.26.54,2.71.25,5.45.31,8.18,0,.45,0,.98-.49,1.15-.47.16-.85-.19-1.13-.54-.56-.69-1.07-1.42-1.61-2.13-.26-.34-.47-.77-1.15-.82-.43,2.82.07,5.7-.54,8.47-.58,2.67-.51,5.51-1.98,8.25-1.25-1.9-1.56-3.81-1.97-5.69Z"/>
        <path class="cls-8" d="M179.87,271.78c2.78-.67,5.61-.36,8.43-.4.77-.01,1.48.23,2.2.45-.32,1.1-.88,2.1-1.42,3.11-1.6,2.97-2.92,6.06-4.23,9.16-1.32,3.12-1.28,3.13-4.66,2.87-1.64-.12-1.96-.42-1.87-2.15.11-2.03.27-4.06.52-6.08.28-2.33.69-4.64,1.04-6.96Z"/>
        <path class="cls-8" d="M281.1,271.79c.24-.23.54-.33.86-.34,2.59-.02,5.17-.03,7.76-.03.64,0,1.25.16,1.79.52.69,2.39,1.09,4.83,1.33,7.3.19,1.96.31,3.93.38,5.9.05,1.28-.22,1.56-1.49,1.74-.75.11-1.52.08-2.28.08-1.65,0-1.64,0-2.2-1.46-1.5-3.85-3.16-7.62-5.07-11.28-.41-.78-.91-1.53-1.07-2.42Z"/>
        <path class="cls-1" d="M264.61,279.71c.24-.8.94-1.18,1.55-1.61,1.4-.97,2.67-2.13,4.25-2.82,1.36.19,1.82,1.28,2.17,2.35.53,1.61.94,3.27,1.69,4.8.91,1.85.93,3.79.63,5.74-.39,2.51-.44,2.49-3.12,2.75-.21.02-.23.1-.15.13.93.23,1.87-.18,2.64.45-1.04.01-2.08.02-3.12.04-.57-.65-1.4-1.16-1.19-2.23.46.13.66.57,1.01.82.21.15.44.29.69.12.23-.15.27-.43.21-.67-.2-.85-.4-1.72-.87-2.47-1.29-2.07-2.56-4.15-3.9-6.19-.25-.38-.41-.94-1.18-1.04-.03.77.45,1.47.24,2.19-.79-.61-.75-1.76-1.55-2.36Z"/>
        <path class="cls-2" d="M187.74,373.13c-2.19,2.16-4.48,4.2-7.05,5.92-1.07.71-2.19.9-3.43.65-1.98-.42-3.85-1.19-5.71-1.95-1.49-.61-1.71-1.89-1.77-3.27.13-.29.08-.54-.19-.73-.55-2.87.23-5.63.8-8.38.42-2.06.58-4.19,1.47-6.14.34.93,1.33,1.5,1.43,2.56-.04.3-.09.59-.13.89-.24.18-.28.42-.23.7-.58,1.35-.71,2.79-.82,4.22-.13.14-.26.27-.4.41-.98.06-.69,1.03-1.05,1.54-.72,1.01-.5,1.44.72,2.24.03.22.06.43.09.65.03.5-.15,1.07.42,1.41-.15.89-.27,1.77.81,2.22,1.5.62,3,1.21,4.6,1.54.55.12.98.06,1.26-.46.53.56.96.27,1.45-.1,1.69-1.28,3.41-2.52,5.12-3.78.26.46.64.48,1.07.29.49-.21.95-.52,1.53-.41Z"/>
        <path class="cls-1" d="M292.97,339.91c.52.23.58.77.76,1.2,2.61,6.38,4.81,12.9,6.35,19.63-.48.55-.29,1.21-.3,1.83-.03,1.97-.03,3.94-.04,5.9-.59-1.13-.34-2.51-1.04-3.6-.02-.1-.04-.2-.06-.31.08-.31.05-.6-.14-.86-.54-2.01-1.08-4.02-1.62-6.03-.13-.62-.25-1.24-.41-1.85-1.59-6.07-3.75-11.94-6.41-17.63.49-.02.81.2,1.07.62.35.56.9.62,1.5.46,0,0-.08.02-.08.02.14.2.28.41.41.61Z"/>
        <path class="cls-1" d="M201.18,275.28c1.77,1.1,3.49,2.25,5.02,3.67l-.05.04c-2.56-.03-2.5,0-3.41,2.32-.68,1.73-1.44,3.4-2.71,4.86-1.08,1.24-2.16,2.68-1.78,4.57-.5.07-1.13.25-1.23-.47-.27-2-.95-4.05-.32-6.02,1.02-3.2,1.58-6.68,4.47-8.97Z"/>
        <path class="cls-6" d="M218,337.43c.37.24.4.62.39,1.01,0,.51.19.85.75.89.29,1.75-.09,3.24-1.69,4.24-.84-.06-1.78.44-2.47-.44,1.25-.69,2.52-1.37,2.59-2.98-.24-.3-.43-.2-.59-.13-1.43.56-2.85,1.12-4.28,1.69-.32-.11-.59-.05-.81.21-1.12.07-2.24.13-3.36.2-.5-.11-.93-.33-1.2-.78.88-1.97,1.86-3.87,3.29-5.52.36-.41.69-.74,1.28-.63,0,.22.02.44.03.66-.52.26-.84.64-.75,1.27.2.41.45.34.72.08.31-.09.63-.15.79-.48.13-.14.27-.28.4-.43l-.02.03c1.97-.17,3.51-1.38,5.25-2.11,1.2,1.52,1.17,1.79-.35,2.48-2.47.95-4.94,1.89-7.4,2.84-.7.27-1.16.75-1.07,1.58.65.28,1.24.11,1.85-.11.83-.31,1.66-.63,2.52-.8,1.79-.35,3.08-1.37,4.15-2.76Z"/>
        <path class="cls-6" d="M274.27,291.5c-.77-.62-1.72-.22-2.64-.45-.08-.03-.07-.11.15-.13,2.68-.25,2.74-.24,3.12-2.75.3-1.95.28-3.89-.63-5.74-.75-1.53-1.16-3.19-1.69-4.8-.35-1.07-.81-2.15-2.17-2.35.12-.04.24-.08.36-.12.21.02.32-.09.35-.29.3-.33.65-.55,1.12-.45.33,1.56,1.16,2.93,1.78,4.38.94,2.22,1.95,4.42,2.16,6.87.04.51.11,1,0,1.51-.46,2.02-.01,3.88.88,5.71,1.24,2.55,1.77,5.28,1.75,8.12,0,1.19-.16,2.46-1.4,2.88-1.16.39-2.38.01-3.31-.88-.64-.61-1.2-1.3-1.8-1.95.03-.28.11-.54.38-.68.78,1.03,1.86,1.67,2.95,2.28,1.18.65,1.7.4,2.02-.9.41-1.64.12-3.23-.39-4.8.16-1.02-.17-1.89-.83-2.65-.39-1.19-.94-2.27-2.16-2.82Z"/>
        <path class="cls-6" d="M299.74,368.47c.01-1.97.02-3.94.04-5.9,0-.62-.18-1.28.3-1.83.61,2.96,1.43,5.86,1.92,8.85.38,2.33-.04,4.55-.52,6.79-.1.45-.28.88-.71,1.08-2.59,1.22-5.21,2.33-8.14,2.35-.33,0-.63-.07-.84-.36.65-.73-.28-1.45,0-2.17.46.35,1.02.24,1.54.3,2.15.19,3.93-.95,5.82-1.66.65-.24.6-.89.67-1.44.05-.03.14-.08.14-.1-.01-.1-.06-.2-.09-.3,0-.11-.03-.21-.06-.31.47-.35-.13-.75.05-1.12.63-.5.31-1.16.25-1.75-.08-.81-.23-1.61-.35-2.42Z"/>
        <path class="cls-6" d="M201.18,275.28c-2.89,2.29-3.45,5.77-4.47,8.97-.63,1.97.05,4.02.32,6.02.1.72.73.54,1.23.47.19.02.38.04.57.06.24.12.37.31.32.59-.34.06-.67.11-1.01.17-1.22-.13-1.87.71-2.39,1.56-1.21,1.95-1.9,4.12-2.14,6.4-.09.81-.07,1.64.27,2.42.46,1.07.83,1.24,1.89.79.89-.37,1.6-1,2.29-1.65.45-.44.85-.96,1.6-.81l.06.07c-.9,1.3-1.82,2.56-3.26,3.36-1.98,1.09-3.52.26-3.68-1.98-.24-3.2.5-6.18,2.03-8.96.83-1.5,1.22-2.9.84-4.67-.53-2.47-.03-4.9,1.08-7.2.8-1.66,1.51-3.35,2.27-5.02.21-.46.5-.89.37-1.44.81-.12,1.25.53,1.84.87Z"/>
        <path class="cls-1" d="M179.87,271.78c-.35,2.32-.75,4.64-1.04,6.96-.25,2.02-.41,4.05-.52,6.08-.09,1.73.23,2.03,1.87,2.15,3.37.26,3.34.24,4.66-2.87,1.31-3.1,2.63-6.19,4.23-9.16.54-1,1.1-2,1.42-3.11.34-.11.66-.13.9.22.1.47-.13.87-.33,1.26-2.26,4.21-4.15,8.58-5.9,13.01-.69,1.76-.93,1.91-2.81,1.89-.95,0-1.92-.02-2.85-.19-1.55-.28-1.88-.71-2.09-2.27-.24-1.85-.02-3.69.15-5.52.26-2.84.6-5.68,1.46-8.42.28-.01.57-.02.85-.03Z"/>
        <path class="cls-1" d="M281.1,271.79c.16.89.66,1.64,1.07,2.42,1.9,3.66,3.57,7.43,5.07,11.28.57,1.46.56,1.47,2.2,1.46.76,0,1.53.02,2.28-.08,1.27-.18,1.53-.46,1.49-1.74-.07-1.97-.19-3.94-.38-5.9-.24-2.47-.64-4.91-1.33-7.3.48-.33.85.26,1.3.14.35,2.25.71,4.5,1.05,6.76.34,2.27.4,4.55.28,6.83-.08,1.56-.47,1.99-1.99,2.32-1.25.27-2.53.2-3.79.12-.96-.06-1.43-.75-1.77-1.53-.8-1.86-1.54-3.75-2.35-5.61-1.34-3.08-2.78-6.11-4.56-8.97.43-.37.92-.28,1.41-.22Z"/>
        <path class="cls-6" d="M281.02,307.99c-.41-.45-.27-.94-.08-1.42,1.98-4.78,1.6-9.67.59-14.57-1.2-5.85-3.03-11.5-5.56-16.92-.29-.63-.67-1.22-1-1.83.14-.35.42-.35.72-.3.75,1.53,1.58,3.03,2.23,4.6,2.43,5.8,4.46,11.72,5.25,18,.37,2.99.07,5.93-.68,8.83-.14.55-.16,1.12-.35,1.66-.46.28-.33.75-.39,1.17-.25.26-.49.52-.74.78Z"/>
        <path class="cls-1" d="M272.68,300.39c-.28.14-.35.4-.38.68-1.03-1.2-2-2.43-2.67-3.88-.2-.43-.49-.8.35-.79.34,0,.27-.36.2-.6-.13-.42-.24-.86-.44-1.25-1.96-3.91-3.75-7.9-5.57-11.89-.28-.61-.47-1.37-1.39-1.36.15-.38.39-.69.76-.88,1.35,1.47,1.88,3.38,2.74,5.12,1.3,2.65,2.46,5.38,4.42,7.66.4,1,.8,2,1.19,3-.04,1.45.58,2.78.8,4.19Z"/>
        <path class="cls-6" d="M173.29,361.78c-.1-1.06-1.09-1.63-1.43-2.56-.08-.18-.07-.34.13-.44.65-.25.53-.74.4-1.24,0,0-.06,0-.06,0,.79-.13.64-.54.29-1,.71-2.98,1.6-5.9,2.91-8.67,0,.49.16,1.04-.02,1.46-.48,1.13-.1,2.03.54,2.92-.48,2.5-1.57,4.83-1.98,7.34-.42.67-.27,1.55-.77,2.19Z"/>
        <path class="cls-8" d="M270.69,293.2c-1.95-2.28-3.12-5-4.42-7.66-.85-1.74-1.38-3.65-2.74-5.12.23-.43.62-.62,1.07-.71.8.6.76,1.75,1.55,2.36v-.03c.03.23.06.45.38.39h0c0,1.37.61,2.47,1.54,3.43h0c-.02.32.03.62.39.76h0c-.02.32.03.62.39.76h0c.03.22.06.45.39.39v-.02c-.19.49-.05.87.38,1.16h0c.02.23.04.47.39.39h-.02c-.2,1.06.63,1.57,1.19,2.22.03.61.09,1.23-.47,1.67Z"/>
        <path class="cls-6" d="M280.45,369.92c-.29-.4-.59-.79-.88-1.19.45-.43.86-.88.82-1.57,0,0,.14.04.14.04h.15c1.91,1.91,3.63,4.01,5.74,5.74.49.41.84.92,1.18,1.44-.27.5-.67.5-1.12.29-.33-.16-.6-.1-.81.19-1.74-1.65-3.47-3.3-5.21-4.95Z"/>
        <path class="cls-6" d="M180.02,336.49c.68.24,1.39.15,2.08.18-.66,2.01-1.66,3.88-2.52,5.81l-.12.05v.13c0,.08-.03.14-.1.18-1.54.8-2.64,1.98-2.98,3.72-.11.57-.09,1.15-.85,1.22.98-3.61,2.36-7.06,4.06-10.39.47-.13.55-.46.43-.88v-.02Z"/>
        <path class="cls-1" d="M208.37,280.95c-1.37,2.12-2.26,4.49-3.37,6.74-.86,1.75-1.72,3.52-2.63,5.24-.77,1.47-1.05,3.09-1.51,4.65-.28.96-.43,1.98-1.16,2.74,0,0-.06-.07-.06-.06-.39-.7-.38-1.38-.08-2.14.3-.74.58-1.52.44-2.36.29-.87.58-1.75.87-2.62.71-.47,1.08-1.19,1.48-1.91,1.77-3.26,3.43-6.58,4.91-9.99.16-.37.3-.68.72-.78.13.16.26.32.39.49Z"/>
        <path class="cls-8" d="M207.98,280.46c-.42.1-.56.41-.72.78-1.48,3.41-3.14,6.73-4.91,9.99-.39.72-.77,1.44-1.48,1.91-.59-.41-.4-1-.36-1.55.88-.78,1.25-1.85,1.64-2.9.67-.69.99-1.6,1.43-2.43,1.15-2.16,2.05-4.44,3.32-6.53.34.28.84.31,1.08.74Z"/>
        <path class="cls-6" d="M187.74,373.13c-.58-.11-1.04.21-1.53.41-.44.18-.82.17-1.07-.29,2.17-2.27,4.33-4.54,6.5-6.81,1.29.57.22,1.51.36,2.26-.64.33-.73,1.07-1.16,1.56-.36.28-.72.55-1.07.83-.14.12-.27.24-.41.37,0,0,.02-.02.02-.02-.13.14-.27.27-.4.4,0,0,.02-.02.02-.02-.12.14-.25.27-.37.41-.04.23-.18.35-.4.38-.32.03-.69.02-.5.53h0Z"/>
        <path class="cls-1" d="M175.54,347.78c.77-.08.74-.65.85-1.22.34-1.74,1.43-2.92,2.98-3.72-.9,3.21-2.27,6.26-3.33,9.41-.63-.89-1.01-1.79-.54-2.92.17-.41.02-.97.02-1.46,0,0,.02-.08.02-.08Z"/>
        <path class="cls-2" d="M285.66,374.87c.21-.3.48-.35.81-.19.45.21.85.22,1.12-.29,1.63.34,2.53,1.75,3.84,2.56.04.1.11.17.21.21l.13.11c-.27.73.66,1.45,0,2.17-2.36-1.1-4.22-2.86-6.12-4.57Z"/>
        <path class="cls-9" d="M192.84,384.96c-1.09-1.73-1.71-3.57-1.49-5.62.06-.6.52-.68.98-.4.26.16.52.41.64.68.78,1.78.87,3.55-.12,5.34Z"/>
        <path class="cls-9" d="M280.29,380.41c-.11,1.24-.45,2.39-.83,3.54-.12.36-.3.75-.78.67-.36-.06-.52-.4-.54-.7-.09-1.32-.35-2.67.25-3.94.27-.57.62-1.28,1.38-1.05.67.2.43.97.52,1.49Z"/>
        <path class="cls-6" d="M292.63,339.28c-.6.16-1.15.09-1.5-.46-.26-.42-.58-.64-1.07-.62-.6-1.26-1.36-2.45-1.74-3.81.66-.1,1.4.85,2-.14.93,1.61,1.97,3.16,2.31,5.04Z"/>
        <path class="cls-1" d="M206.91,279.73c-1.27,2.1-2.18,4.38-3.32,6.53-.44.83-.75,1.74-1.43,2.43-.07-.06-.14-.12-.22-.18,0-1.28,1.12-2.16,1.17-3.41h0c1.41-1.38,2.02-3.19,2.67-4.97h0c.2-.06.3-.19.31-.39.02-.25.04-.5.06-.75l.05-.04c.43.08.62.38.71.78Z"/>
        <path class="cls-1" d="M214.97,343.13c.7.88,1.63.38,2.47.44-.07.13-.14.25-.2.38-.35.15-.7.3-1.05.45-.82.22-1.6.5-2.27,1.04-.24.01-.48.03-.73.04-.16-.72-.79-1.05-1.25-1.51.48-.17.95-.34,1.43-.51.15.03.31.07.46.1.15.25.26.16.35-.05v.02c.09-.09.19-.17.29-.26.17-.05.33-.1.5-.15Z"/>
        <path class="cls-1" d="M196.56,273.23c-.69,1.55-1.25,3.15-2.14,4.61-.17-.16-.33-.31-.5-.47.46-1.55,1.45-2.86,2.03-4.36.23,0,.49-.08.61.22Z"/>
        <path class="cls-8" d="M253.53,372.36c-.32-.65-.25-1.2-.11-1.73.12-.45.48-.78.98-.62.52.17.56.61.35,1.06-.24.51-.52.98-1.21,1.28Z"/>
        <path class="cls-8" d="M249.11,351.06c.34-1.3.5-2.64,1.92-3.75-.35,1.67-.98,2.81-1.92,3.75Z"/>
        <path class="cls-8" d="M220.92,347.8c1.29.77,1.3,2.07,1.73,3.35-1.36-1.29-1.62-1.81-1.73-3.35Z"/>
        <path class="cls-8" d="M217.92,372.28c-.72-.41-1.02-.88-1.21-1.41-.16-.45.12-.72.51-.83.34-.09.65.07.68.44.05.55.01,1.11.01,1.81Z"/>
        <path class="cls-2" d="M254.33,343.84c-.12,0-.25,0-.37.01-.05-.61-.75-.84-.83-1.42,0,0,.07-.06.07-.06.87.11.97.82,1.14,1.47Z"/>
        <path class="cls-2" d="M172.38,357.54c.13.5.25.99-.4,1.24.12-.42.08-.89.4-1.24Z"/>
        <path class="cls-2" d="M172.61,356.54c.35.46.5.86-.29,1,.1-.33.19-.67.29-1Z"/>
        <path class="cls-2" d="M180.03,336.51c.12.42.04.74-.43.88.14-.29.28-.58.43-.88Z"/>
        <path class="cls-2" d="M187.74,373.14c-.2-.51.17-.5.5-.53-.05.29-.29.39-.5.53Z"/>
        <path class="cls-1" d="M169.59,373.75c.27.19.32.44.19.73-.24-.2-.29-.44-.19-.73Z"/>
        <path class="cls-2" d="M189.37,371.45c.14-.12.27-.24.41-.37-.05.22-.18.34-.41.37Z"/>
        <path class="cls-2" d="M188.99,371.84c.13-.13.27-.27.4-.4-.03.24-.16.37-.4.4Z"/>
        <path class="cls-2" d="M188.64,372.23c.12-.14.25-.27.37-.41-.02.23-.15.36-.37.41Z"/>
        <path class="cls-6" d="M292.97,339.91c-.14-.2-.28-.41-.41-.61.37.05.49.26.41.61Z"/>
        <path class="cls-1" d="M271.11,274.88c-.03.2-.14.31-.35.29.05-.18.15-.29.35-.29Z"/>
        <path class="cls-9" d="M262.08,376.1c-.01-.21.08-.37.25-.48-.08.16-.17.32-.25.48Z"/>
        <path class="cls-9" d="M176.04,352.24c1.07-3.15,2.44-6.2,3.33-9.41.06-.04.09-.1.08-.18,0,0,.13-.04.13-.04v-.14c.85-1.93,1.86-3.79,2.51-5.81,2.88-5.31,5.64-10.69,9.32-15.52.31-.4.63-.8.99-1.16.28-.28.54-.86,1.06-.38.38.34.31.78.07,1.22-1.14,2.05-2.31,4.09-3.39,6.17-.78,1.5-1.72,2.95-1.96,4.69-.17.07-.24.18-.17.36-.07.26-.15.52-.22.79-1.05,2.37-1.04,2.4,1.33,3.16.3.1.61.16.91.28,1.44.57,2.56.12,3.52-1.02,3.15-3.74,6.32-7.46,9.49-11.19.89-.82,1.92-.96,3.12-.92,2.2.07,4.4-.01,6.29-1.49.71-.56,1-1.44,1.77-1.91.21.04.28-.06.26-.25,2.38-2.73,4.28-5.77,5.77-9.06.32-.7.36-1.49.17-2.24-.23-.94.05-1.71.53-2.5.85-1.41,1.55-2.9,2.11-4.45.78-2.14.49-2.66-1.74-3.16-.18-.04-.38-.05-.56-.08-.79-.4-1.59-.48-2.39-.02-.3.3-1.1.42-.43,1.1l.03.05c-.15-.21-.32-.23-.51-.05h-.09c-1.95.98-3.61,2.33-5.11,3.89-.31,0-.63.14-.94-.06-.11-.37.2-.53.4-.72,1.79-1.7,3.8-3.13,5.74-4.64,1.92-1.51,4.03-1.65,6.26-1.29,2.97.48,3.16.89,1.93,3.67-.37.84-.85,1.67-.84,2.64-.53.49-.72,1.19-1.02,1.81-.91,1.92-2.5,3.6-2.13,5.98.02.11-.04.25-.1.36-2.16,4.17-4.54,8.2-7.93,11.52-1.47,1.44-3.21,2.33-5.3,2.21-1.27-.07-2.12.38-2.93,1.35-3.52,4.19-6.95,8.44-9.95,13.04-3.86,5.92-7.51,11.94-10.21,18.5-.73,1.66-1.46,3.32-2.19,4.99-.47-.1-.86-.49-1.38-.38.47-2-1.07-3.7-.83-5.68.06-.54-.51-.96-1.05-.82-1.25.32-2.5.62-3.2,1.98-.55,1.08-.92,2.29-1.67,3.23-.66-.17-.49-.82-.88-1.04.41-2.52,1.5-4.85,1.98-7.34Z"/>
        <path class="cls-4" d="M225.23,303.42c.67-1.23.76-2.75,1.99-3.92.57,1.46.94,2.79.7,4.24-.28.2-.33.52-.45.8-.64,1.48-.6,3.1-.99,4.63-.87,3.36-1.64,6.74-3.03,9.94-.18-.17-.36-.35-.53-.52-.99-.96-1.47-.96-2.24.19-1.38,2.05-2.83,4.07-4.02,6.23-1.87,3.41-1.29,2.94-4.94,2.86-1.41-.03-2.48.24-3.23,1.46-1.62,1.06-2.21,2.83-3.05,4.43l-.02.14c-1.45.54-2.22,1.58-2.28,3.13,0,0-.01.02-.01.02-.12.12-.24.25-.37.37h-.01c-.22.11-.33.28-.36.51,0,.07,0,.13-.03.19-2.26.96-3.18,3.05-3.73,5.12-.47,1.75-.73,3.59-1.29,5.32-.49,1.53-1.12,3.05-2.22,4.35-1.93,2.28-3.3,4.9-4.2,7.76l-.72,1.62c-.98.93-1.76,1.95-1.58,3.42h0c-.13.12-.26.26-.39.39-1.75,1.82-3.14,4.02-5.47,5.23,1.01-3.76,2.3-7.43,3.75-11.04.44-1.1,1.24-2.06,1.24-3.32.05-.82.79-1.25,1.1-1.95,1.84-4.11,3.78-8.18,6.11-12.05.59-.98,1.23-1.93,1.81-2.91.22-.37.48-.82-.18-1.08.62-1.63,1.91-2.82,2.88-4.21,2.03-2.91,4.24-5.69,6.53-8.4.54-.64,1.16-1.01,1.98-.87,2.12.36,3.74-.84,5.45-1.72.74-.38,1.31-.96,1.81-1.65,2-2.78,3.98-5.57,5.78-8.47.53-.85,1.23-1.68,1.28-2.73.11-2.19,1.17-3.96,2.27-5.75.32-.53.7-1.07.68-1.75Z"/>
        <path class="cls-4" d="M174.77,298.99c1.06-.53,2.09-.58,3.28-.23,2.2.64,4.51.66,6.78.72,1.23.03,1.88.49,2.24,1.59.35,1.08.73,2.16,1.12,3.23.26.71.48,1.45,1.19,1.88.24.29.41.6.35.99-.05.27-.21.44-.45.56-2.92,1.49-7.87.82-10.37-1.36-.53-.46-.92-1.3-1.88-1.05-1.19-1.95-2-4.04-2.26-6.33Z"/>
        <path class="cls-6" d="M225.23,303.42c.01.67-.36,1.22-.68,1.75-1.09,1.79-2.16,3.57-2.27,5.75-.05,1.05-.75,1.88-1.28,2.73-1.8,2.91-3.79,5.69-5.78,8.47-.5.69-1.07,1.27-1.81,1.65-1.71.88-3.33,2.08-5.45,1.72-.83-.14-1.45.23-1.98.87-2.29,2.71-4.49,5.49-6.53,8.4-.97,1.39-2.26,2.58-2.88,4.21-3.64,5.65-7.11,11.39-9.94,17.5-.18.1-.31.24-.27.47l-.02.06c-.36.11-.73.21-1.09.32,2.7-6.55,6.35-12.58,10.21-18.5,3-4.59,6.43-8.84,9.95-13.04.81-.97,1.66-1.42,2.93-1.35,2.09.12,3.83-.77,5.3-2.21,3.39-3.32,5.77-7.35,7.93-11.52.06-.11.12-.25.1-.36-.38-2.38,1.22-4.06,2.13-5.98.29-.62.49-1.31,1.02-1.81.09.31.1.65.4.86Z"/>
        <path class="cls-1" d="M208.47,329.33c.75-1.22,1.82-1.49,3.23-1.46,3.64.08,3.07.55,4.94-2.86,1.19-2.16,2.63-4.18,4.02-6.23.77-1.15,1.25-1.15,2.24-.19.18.17.36.35.53.52.04.36.09.71.13,1.07-.08.4-.16.8-.24,1.21-.75-.52-1.06-.07-1.43.54-1.57,2.57-3,5.22-4.56,7.8-.9,1.5-1.98,1.95-3.5,1.94-.63-.01-1.25-.03-1.88-.04-.46,0-.9.1-1.17.48-.85,1.21-1.99,2.24-2.34,3.76v.02c-.71.18-.91.82-1.27,1.33-1.34,1.92-2.71,3.82-4.07,5.73-.18.25-.33.61-.7.2.79-1.21,1.57-2.43,2.37-3.63,1.68-2.53,3.39-5.05,5.05-7.6.53-.82,1.16-1.28,2.17-1.23.82.04,1.65-.06,2.47-.09,1.04-.05,1.73-.54,2.26-1.47,1.27-2.26,2.65-4.47,3.97-6.71.36-.6.71-1.2,1.04-1.81.19-.35.3-.81-.09-1.02-.43-.23-.69.21-.87.52-1.51,2.56-3.06,5.09-4.66,7.6-.57.89-1.09,1.55-2.22,1.35-2.56-.44-4.54.34-5.8,2.68,0-.82.52-1.55.38-2.39Z"/>
        <path class="cls-4" d="M213.84,331.67c1.53,0,2.6-.45,3.5-1.94,1.55-2.58,2.99-5.23,4.56-7.8.37-.61.68-1.06,1.43-.54.15.26.4.47.32.82-.72.1-.79.74-.98,1.25-.66,1.71-1.32,3.42-1.97,5.13-.9,2.37-2.08,4.46-4.7,5.36-.82.28-1.55.84-2.32,1.28-.41.24-.67.57-.63,1.07,0,0,.02-.03.02-.03-.25.03-.38.18-.4.43-.16.33-.49.39-.79.48-.24-.03-.48-.05-.72-.08-.09-.62.23-1.01.75-1.27.45-.24.4-.45-.03-.66-.58-.1-.92.22-1.28.63-1.43,1.65-2.4,3.55-3.29,5.52-.38.07-.33.52-.6.68-.19-.19-.37-.39-.56-.58.15-.7.72-1.14,1.02-1.75.6-1.21,1.41-2.34,1.26-3.79,0,0,.01-.02.01-.02.69.11,1.11-.22,1.59-.71,1.21-1.23,2.4-2.47,3.8-3.49Z"/>
        <path class="cls-6" d="M203.03,324.05c-3.16,3.73-6.34,7.45-9.49,11.19-.96,1.15-2.08,1.6-3.52,1.02-.29-.12-.61-.18-.91-.28-2.37-.76-2.38-.79-1.33-3.16.41.03.82.05,1.23.08-.08.56-.16,1.11-.25,1.71.44.15.91.32,1.39.46.18.05.37.07.56.08,1.31.07,2.07-.94,1.71-2.28.27-.07.56-.09.73-.36,1.24-.04,1.58-1.14,2.18-1.9.31-.39.08-.74-.39-.8-1.37-.2-2.63-.94-4.07-.82.35-.53,1.05-.33,1.46-.73.86-.1,1.61.28,2.39.52,2.04.63,2.65.29,3.35-2.01-1.93-.29-3.71-1.23-5.69-1.3.26-.46,1.12-.16,1.16-.91.98.26,2.04.35,2.92.8,1.95,1.01,3.42.74,4.54-1.19.03-.05.09-.09.14-.13.59-.33.92-.79.76-1.5.36.12.45.4.45.73,0,.46.26.67.67.76Z"/>
        <path class="cls-4" d="M214.55,306.04c.64.32,1.02.86,1.27,1.5-.05.55-.5.8-.85,1.12-2.43-.54-3.35.04-3.83,2.41,0,0,.01-.02.01-.02-1.4,2.18-1.57,4.48-.65,6.89.12.29.22.59.37.87.59,1.1.55,1.28-.53,1.82-1.07.54-1.33.41-1.7-.81-.71-2.35-.84-4.7-.17-7.09.26-.91.43-1.84.63-2.76.47-.19.52-.69.75-1.05,1.09-1.73,2.4-3.11,4.7-2.88Z"/>
        <path class="cls-1" d="M217.94,299.06c.98-.1,1.95-.09,2.94.11.92.19,1.26.67.94,1.44-.72,1.74-1.34,3.54-2.64,4.97-1.06,1.16-1.09,1.16-2.18.06-.8-.81-1.61-1.6-2.78-1.86-.45-.52-.47-1,.15-1.39.95-.6,1.65-1.5,2.64-2.05.45-.25,1.06-.49.96-1.22l-.03-.05Z"/>
        <path class="cls-4" d="M204.14,309.89c.45,1.06.12,2.12-.03,3.17-.09.63-.59.95-1.07.4-1.68-1.97-3.94-3.33-5.62-5.38.92-.82,1.75-1.56,2.59-2.31,1.38,1.06,1.93,2.79,3.45,3.55.17.25.36.48.67.57Z"/>
        <path class="cls-4" d="M203.68,320.97c-1.59-.17-2.96-.28-4.32-.47-.93-.13-1.34-.79-1.57-1.67-.74-2.81-.68-2.9,2.11-2.51.5.07,1.01.11,1.51.08,1.01-.07,1.6.36,1.6,1.36,0,1.03.37,1.97.67,3.2Z"/>
        <path class="cls-9" d="M213.05,336.31c-.04-.51.21-.84.63-1.07.77-.44,1.49-1,2.32-1.28,2.62-.9,3.8-2.99,4.7-5.36.65-1.71,1.3-3.43,1.97-5.13.2-.51.26-1.15.98-1.25.02.12.09.26.06.37-.85,3.31-1.81,6.59-3.36,9.66-.44.88-1.39,1.28-2.05,1.96-1.74.73-3.28,1.94-5.25,2.11Z"/>
        <path class="cls-4" d="M214.58,316.78c-.33.37-.63.76-.98,1.12-.79.8-1.12.8-2.18.06.07-.15.14-.31.21-.46,1.84-.89,2.96-3.82,2.27-5.96-.11-.35-.14-.81-.63-.82-.4,0-.71.28-.89.62-.2.38-.38.8-.46,1.23-.22,1.17-.39,2.35-.57,3.52-1.06-.78-.54-1.84-.44-2.78.08-.75.35-1.48.22-2.25,0,0-.01.02-.01.02.72-.1.95-.79,1.41-1.2.94-.86,1.61-.81,2.34.23.68.97.89,2.09.91,3.25-.17.74-.34,1.48-.51,2.22-.39.31-.64.7-.7,1.21Z"/>
        <path class="cls-9" d="M177.03,305.31c.95-.25,1.35.58,1.88,1.05,2.5,2.18,7.45,2.85,10.37,1.36.24-.12.4-.29.45-.56.57.41,1.07.86,1.22,1.59-.06.1-.07.21-.03.33-2.91,1.12-5.83.68-8.79.21-2.51-.39-4.18-1.64-5.09-3.97Z"/>
        <path class="cls-9" d="M223.57,320.18c-.04-.36-.09-.71-.13-1.07,1.39-3.2,2.16-6.58,3.03-9.94.4-1.53.36-3.15.99-4.63.12-.29.18-.61.45-.8-.02,1.18-.05,2.37-.07,3.55-.26.2-.27.44-.14.71-.8,4.1-1.74,8.17-3.02,12.15-.34,1.07-.73.78-1.12.03Z"/>
        <path class="cls-1" d="M193.52,312.6c-.58-.24-1.02-.65-1.58-1.27,1.53-.77,2.93-1.45,4.2-2.33.36-.25.74-.19,1.01.13.94,1.15,2.37,1.86,2.99,3.31-1.45.25-2.89.14-4.34-.1-.77-.13-1.6-.53-2.28.25Z"/>
        <path class="cls-1" d="M206.87,314.86c.15,2.11-.23,4.27.85,6.27-2.45.43-2.74.25-3.23-1.84-.17-.73-.21-1.49-.39-2.22-.15-.58-.14-.97.54-1.14.85-.21.58-1.19,1.1-1.64.6-.26.77.34,1.13.57Z"/>
        <path class="cls-4" d="M201.91,322.56c.16.71-.17,1.17-.76,1.5-.51-.72-1-.31-1.41.08-.79.77-1.67.67-2.65.52-1.28-.2-2.18-.89-2.93-1.86.63-1.47.62-1.37,2.11-1.16,1.88.27,3.7.93,5.63.92Z"/>
        <path class="cls-3" d="M192.39,325.48c1.98.07,3.76,1,5.69,1.3-.7,2.3-1.32,2.63-3.35,2.01-.78-.24-1.54-.62-2.39-.52-.32-.17-.65-.35-1.09-.58.29-.77,1.09-1.32,1.14-2.2Z"/>
        <path class="cls-4" d="M218,337.43c-1.08,1.38-2.36,2.41-4.15,2.76-.86.17-1.69.49-2.52.8-.61.23-1.2.39-1.85.11-.08-.83.37-1.31,1.07-1.58,2.46-.96,4.93-1.9,7.4-2.84.01.25.03.5.04.76Z"/>
        <path class="cls-3" d="M193.52,312.6c.68-.78,1.51-.38,2.28-.25,1.44.24,2.88.34,4.34.1,1.07.37,1.68,1.26,2.55,2.13-.6.35-1.09.19-1.56.14-1.14-.11-2.28-.28-3.42-.3-1.67-.03-3.09-.52-4.2-1.81Z"/>
        <path class="cls-4" d="M204.8,299.4c1.12,1.46,2.27,2.86,3.32,4.34.8,1.14-.53,1.26-.95,1.9-.86-.95-1.67-1.82-2.44-2.72-1.17-1.38-1.16-1.84.08-3.53Z"/>
        <path class="cls-3" d="M190.88,328.99c1.44-.12,2.7.63,4.07.82.47.07.7.41.39.8-.6.76-.94,1.86-2.18,1.9-.09-.08-.2-.11-.32-.1-.09-.16-.22-.26-.42-.24-.11-.06-.21-.15-.33-.19q-2.22-.71-1.22-2.99Z"/>
        <path class="cls-9" d="M208.5,309.92c-.78,1.08-.98,2.39-1.46,3.59-.62-.22-.46-1-.96-1.31.16-1.33.7-2.53,1.25-3.73.55-1.22,1.46-2.15,2.64-2.8.03.4.06.81.1,1.21-.77.88-1.35,1.87-1.56,3.04Z"/>
        <path class="cls-8" d="M194.17,322.79c.75.98,1.65,1.66,2.93,1.86.98.16,1.86.26,2.65-.52.4-.4.9-.8,1.41-.08-.05.04-.11.08-.14.13-1.12,1.92-2.59,2.19-4.54,1.19-.88-.45-1.94-.55-2.92-.8-.47-.82.36-1.2.61-1.78Z"/>
        <path class="cls-9" d="M206.05,306.82c-.21.74-.45,1.47-1,2.05-.26-.17-.51-.33-.77-.5-.22-.26-.44-.52-.66-.78-.28-1.5-1.56-2.46-2.09-3.82.1-.39.29-.68.74-.69.05.3-.01.77.16.88,1.3.84,2.22,2.16,3.62,2.86Z"/>
        <path class="cls-8" d="M192.43,332.88c.36,1.34-.41,2.35-1.71,2.28-.19-.01-.38-.03-.56-.08-.48-.15-.95-.31-1.39-.46.09-.6.17-1.15.25-1.71,0,0,.01-.06.01-.06.22-.03.26-.17.23-.36.09-.02.14-.08.14-.17.47.05.94.1,1.41.15,0,0,.08.05.08.05.27.45.69.32,1.09.28.15.03.3.06.45.09Z"/>
        <path class="cls-6" d="M217.96,299.12c.1.73-.51.97-.96,1.22-.99.55-1.69,1.45-2.64,2.05-.62.39-.6.87-.15,1.39-.71-.12-1.72.46-1.95-.81,1.5-1.57,3.16-2.92,5.11-3.89.04.21.07.17.09,0,.19-.18.36-.17.51.05Z"/>
        <path class="cls-6" d="M208.5,309.92c.21-1.17.79-2.16,1.56-3.04.64-.52,1.27-1.04,1.91-1.56.91.07,1.75.35,2.57.73-2.3-.23-3.6,1.15-4.7,2.88-.23.36-.28.86-.75,1.05-.2-.02-.4-.04-.59-.05Z"/>
        <path class="cls-1" d="M214.96,308.66c.35-.32.8-.57.85-1.12,1.31,1.25,1.48,2.83,1.3,4.5-.05.44-.17.87-.26,1.3-.24,0-.49.01-.73.02,0,0-.03-.04-.03-.04.16-1.69-.01-3.3-1.14-4.67Z"/>
        <path class="cls-6" d="M214.96,308.66c1.13,1.38,1.3,2.98,1.14,4.67-.1.02-.21.02-.31.02-.03-1.16-.24-2.27-.91-3.25-.72-1.04-1.4-1.09-2.34-.23-.46.42-.69,1.1-1.41,1.2.48-2.37,1.4-2.96,3.83-2.41Z"/>
        <path class="cls-6" d="M211.64,317.5c-.07.15-.14.31-.21.46-.31,0-.62-.01-.94-.02-.91-2.4-.74-4.7.65-6.89.13.77-.14,1.5-.22,2.25-.09.94-.61,2.01.44,2.78.09.47.18.94.27,1.41Z"/>
        <path class="cls-1" d="M206.05,306.82c-1.4-.71-2.32-2.02-3.62-2.86-.17-.11-.11-.58-.16-.88.03-.36-.03-.76.51-1.08.73,1.59,1.95,2.78,3.15,4.01.23.24.37.5.12.82Z"/>
        <path class="cls-4" d="M196.59,320.04c-1.36-1.08-1.53-2.23-1.88-3.27-.13-.39-.22-.93.4-1.05.49-.1.93.16,1.04.62.26,1.08.44,2.18.44,3.7Z"/>
        <path class="cls-1" d="M201.53,303.76c.54,1.36,1.81,2.32,2.09,3.82-1.49-.13-2.06-1.31-2.67-2.4-.32-.58.03-1.09.57-1.42Z"/>
        <path class="cls-4" d="M206.08,312.19c.49.31.34,1.1.96,1.31-.06.45-.11.9-.17,1.36-.36-.23-.53-.83-1.13-.57-.09-.73-.15-1.46.35-2.1Z"/>
        <path class="cls-4" d="M211.98,305.31c-.64.52-1.27,1.04-1.91,1.56-.03-.4-.06-.81-.09-1.21.11-.41.52-.31.79-.44.38.02.77.04,1.15.06,0,0,.07.04.07.04Z"/>
        <path class="cls-1" d="M204.28,308.36c.26.17.51.33.77.5-.02.59-.34.91-.9,1.03-.31-.09-.51-.31-.67-.57.49-.14.77-.45.81-.96Z"/>
        <path class="cls-1" d="M218.36,297.97c.8-.46,1.6-.39,2.39.02-.8.12-1.59.07-2.39-.02Z"/>
        <path class="cls-6" d="M216.12,313.37c.24,0,.49-.01.73-.02-.01.36-.02.85-.43.84-.53,0-.24-.52-.3-.82Z"/>
        <path class="cls-6" d="M214.58,316.78c.05-.51.31-.9.7-1.21.07.58.14,1.15-.7,1.21Z"/>
        <path class="cls-6" d="M190.81,332.47c-.47-.05-.94-.1-1.41-.15.52-.38,1-.42,1.41.15Z"/>
        <path class="cls-6" d="M211.91,305.28c-.38-.02-.77-.04-1.15-.06.4-.36.79-.35,1.15.06Z"/>
        <path class="cls-6" d="M191.98,332.79c-.4.04-.82.17-1.09-.28.4-.07.81-.13,1.09.28Z"/>
        <path class="cls-4" d="M227.7,308c-.13-.27-.11-.52.14-.71.12.27.1.52-.14.71Z"/>
        <path class="cls-6" d="M214.47,319.48c.02.19-.06.29-.26.25.09-.08.17-.17.26-.25Z"/>
        <path class="cls-6" d="M188.01,332.04c-.07-.18,0-.29.17-.36-.06.12-.12.24-.17.36Z"/>
        <path class="cls-6" d="M192.43,332.17c.19-.01.33.08.42.24-.14-.08-.28-.16-.42-.24Z"/>
        <path class="cls-6" d="M189.26,332.49c.03.19-.01.33-.23.36-.02-.18.05-.31.23-.36Z"/>
        <path class="cls-4" d="M213.19,345.48c-1.34.95-2.89.76-4.39.79-1.64.02-1.69.02-1.84,1.62-.24,2.59-1.13,4.83-2.78,6.92-2.36,2.98-4.8,5.89-7.18,8.85-.49.43-.99.87-1.48,1.3-.43-.57-1.19-.54-1.72-.92.02-.07.03-.14.04-.21.16-.21.32-.42.48-.64.13-.19.26-.37.39-.56h0c2.56-2.14,4.46-4.86,6.5-7.46.64-.75,1.37-1.44,1.53-2.48,0,0-.01.02-.01.02,1.64-1.25,2.11-3.04,2.28-4.97.1-1.2.3-2.38.9-3.45.58,0,1.17,0,1.75,0,1.49.67,2.86-.17,4.29-.31.47.46,1.09.79,1.25,1.51Z"/>
        <path class="cls-1" d="M193.79,364.03c.54.38,1.29.35,1.72.92-.49.45-.99.82-1.34,1.48-.48.91-1.19,1.77-2.17,2.28-.14-.75.93-1.69-.36-2.26.64-.75,1.27-1.5,1.91-2.25.08-.06.16-.11.25-.16Z"/>
        <path class="cls-6" d="M254.33,343.84c-.17-.65-.27-1.36-1.14-1.47.06-1.93.1-3.85.21-5.78.03-.45-.09-.72-.41-.97-.89-.71-.27-1.01.35-1.32,2.34.81,4.4,2.33,7.16,2.84-.51-.65-.85-1.08-1.19-1.51.47-.22.89-.66,1.49-.35,1.29,1.58,2.42,3.27,3.15,5.19-.63,0-1.25.02-1.88.03-.45-.79-1.24-1.02-2.03-1.3-1.68-.59-3.33-1.24-5-1.86-.34-.13-.65-.44-1.1-.06-.12,1.05.66,1.52,1.44,1.94,1.7.91,3.52,1.44,5.41,1.75.23.24.52.33.84.32.47,0,.65.27.7.69-1.21.16-2.42.08-3.64.01-1.4-.65-2.75-1.42-4.28-1.91.09,2.1,2.39,3.78,5.05,3.84l.03.02c-.71.37-1.43.74-2.14,1.11-.61-.19-1.22-.38-1.83-.57-.4-.21-.8-.42-1.2-.63Z"/>
        <path class="cls-4" d="M257.36,345.04c.71-.37,1.43-.74,2.14-1.11,1.08.26,2.15.5,3.27.44.57-.03.74-.33.75-.83.52,0,1.05-.1,1.54.17.37,0,.58.22.67.53.35,1.19.8,2.34.9,3.62.12,1.46.11,3.03,1.46,4.08h-.01c.13.19.26.38.39.58.26.81.86,1.39,1.37,2.03,1.45,1.83,2.92,3.65,4.38,5.48-.6.26-1.26.44-1.54,1.13-1.91-2.11-3.65-4.37-5.45-6.57-1.59-1.95-2.36-4.13-2.57-6.6-.15-1.72-.21-1.78-1.94-1.71-1.81.07-3.52-.29-5.21-.84-.05-.13-.1-.26-.15-.39Z"/>
        <path class="cls-1" d="M272.68,361.15c.28-.69.94-.87,1.54-1.13.63.62,1.26,1.23,1.89,1.85h0c.05.2.17.34.38.39h0c.06.2.18.33.38.38h0c.04.21.16.35.38.38h0c.03.23.15.36.38.38h0c.02.23.15.37.39.38h0c.02.24.15.36.39.38h0c.02.24.14.37.38.38h0c.03.53.4.83.77,1.12v.02c.05.12.07.24.07.37.11.13.21.26.32.4.1.1.21.19.31.29l.14.41c.04.68-.37,1.14-.82,1.57-1.41-1.27-2.55-2.78-3.78-4.21-.44-.52-.79-1.17-1.58-1.26-.13-.98-1.11-1.34-1.53-2.11Z"/>
        <path class="cls-4" d="M281.76,307.21c.05-.41-.07-.89.39-1.17.34.28.35,0,.47-.23.8-1.59,1.18-3.34,1.83-4.98.37-.94.9-1.43,1.99-1.35,3.07.25,6.04-.37,9.24-1.32-.64,3.34-1.24,6.46-3.35,9.05-.19.23-.5.42-.79.49-3.3.77-6.6,1.33-9.77-.5Z"/>
        <path class="cls-9" d="M288.32,334.38c.39,1.36,1.14,2.55,1.74,3.81,2.67,5.68,4.83,11.55,6.41,17.63.16.61.27,1.23.41,1.84-.62,0-.88.3-.88.92,0,.75.14,1.48.36,2.19-1.14.02-2.18-.3-3.24-.75-.87-.37-1.9-.73-2.77.26-.77.87-.44,1.72-.16,2.63.23.71.58,1.41.45,2.2-.15.44-.51.56-.92.6-.61-1.65-1.35-3.26-1.98-4.9-2.95-7.73-6.83-14.95-11.46-21.79-3.02-4.47-6.15-8.85-9.92-12.74-.2-.21-.39-.2-.56.03l.04.03c.68-.73-.26-.87-.47-1.27,0-.14-.07-.21-.21-.2-.05-.08-.12-.12-.21-.15-.07-.23-.23-.23-.42-.18-3.02.03-5.58-.95-7.6-3.28-2.51-2.89-4.64-6.04-6.53-9.36-.38-.66-.71-1.42-.62-2.17.15-1.16-.33-2.11-.79-3.08-1.06-2.23-2.14-4.46-3.21-6.68-.1-.23-.21-.45-.29-.68-.59-1.61-.15-2.4,1.48-2.86,1.31-.37,2.63-.3,3.95-.37.84-.04,1.35.5,1.97.87,2.45,1.46,4.76,3.11,6.9,4.99.28.25.62.46.59.92-.31.37-.69.13-1.05.11-1.35-1.45-2.93-2.63-4.52-3.77-1.52-1.09-3.15-1.69-5.08-1.04-1.55.52-1.88.95-1.39,2.49.5,1.58,1.11,3.11,1.98,4.52.67,1.09,1.37,2.15.66,3.53-.21.41.07.87.24,1.28,1.81,4.48,4.37,8.46,8.06,11.63.85.74,1.8,1.45,3.07,1.28.23.03.46.07.69.1,1.1.36,2.2.33,3.3,0,1.51.14,2.13,1.56,3.26,2.25,1.15,1.39,2.01,3.02,3.44,4.18.64.77,1.29,1.54,1.93,2.32,1.4,1.52,2.8,3.03,4.2,4.55.78.73,1.57.43,2.36.02.72-.05,1.26-.5,1.84-.84.27.11.52.03.76-.08.61-.29.47-.69.17-1.12-.31-.6-.63-1.19-.94-1.79.26-.41.2-.7-.32-.79-.06-1.07-.5-2.03-.97-2.96-1.22-2.42-2.46-4.83-3.73-7.22-.27-.5-.5-.99-.54-1.56.21-.09.27-.26.21-.47,1.2.27,1.34.3,2.24,1.55,2,2.77,3.78,5.69,5.48,8.65.82,1.43,1.58,2.88,2.36,4.33-.04.21.06.34.26.39h0Z"/>
        <path class="cls-6" d="M262.34,322.87c-1.27.17-2.22-.55-3.07-1.28-3.69-3.18-6.25-7.15-8.06-11.63-.17-.41-.45-.87-.24-1.28.72-1.37.01-2.44-.66-3.53-.87-1.42-1.48-2.95-1.98-4.52-.49-1.54-.16-1.97,1.39-2.49,1.93-.65,3.56-.05,5.08,1.04,1.6,1.14,3.18,2.32,4.52,3.77-.24.52-.72.47-1.17.47-.93-1.49-2.37-2.38-3.82-3.25-.03-.1-.11-.16-.22-.18-.37-.39-.74-.78-1.33-.84-1-.71-1.95-.02-2.91.11-.5.07-.56.5-.38.88,1.12,2.4,2.18,4.84,4.09,6.77-.1,1.06-.51,2.08-.42,3.18.06.75.4,1,1.09.96.19.67-.2,1.52.63,2.15.42-.84.26-1.68.53-2.44.72-1.97.96-2.22,3.1-2.38,2.49,1.91,3.85,6.06,2.93,8.99-.13.41-.36.81-.61,1.17-.86,1.26-.83,1.43.46,2.04.34.16.7.28,1.06.42,0,.62,0,1.24,0,1.86ZM259.75,317.71c.11-.02.2-.07.28-.15.11-.06.26-.1.31-.2.79-1.48.32-5.83-.87-7.02-1.66-1.67-2.72-1.39-3.45.69-.14.41-.22.86-.25,1.29-.16,2.41,1.13,4.21,2.62,5.87.64.71,1.1.24,1.35-.49Z"/>
        <path class="cls-4" d="M262.34,321.01c-.35-.14-.72-.25-1.06-.42-1.29-.61-1.32-.78-.46-2.04.25-.36.48-.75.61-1.17.93-2.94-.43-7.08-2.93-8.99.04-.54-.08-.98-.61-1.26-.39-.21-.69-.54-.88-.96.13-.05.26-.1.38-.15,2-.14,3.51.73,4.26,2.51,1.68,4,2.78,8.1.99,12.41-.11,0-.21.03-.31.08Z"/>
        <path class="cls-6" d="M268.84,298.87c1.14,1.3,2.11,2.72,3.04,4.17-.66.07-1.22.32-1.62.86-.48-.53-.96-1.07-1.45-1.6-.1-.3-.21-.37-.35-.02-.02.1-.03.21-.04.31-1.33.78-1.86,2.25-2.85,3.33-.39.42-.41,1.17.14,1.69.75,1.16.79,1.17,1.59.21.15-.18.25-.42.37-.62.33-.16.44-.41.33-.76l.02-.03c1.29.03,1.64-1.2,2.43-1.83.22.39.45.78.67,1.17-.6.91-1.7,1.44-1.95,2.61-.85.49-1.3,1.39-2.07,1.96-.69,0-1.37-.01-2.06-.02-.58-1.39-1.18-2.76-2.36-3.77.7-.22,1.85.44,1.93-.99.85-1.09,1.69-2.19,2.56-3.26.37-.46.65-.92.62-1.53,1.2-.15,1.04-1.06,1.04-1.87Z"/>
        <path class="cls-6" d="M283.02,331.67c.52.1.58.38.32.79-.48-.01-.69.27-.75.7-.37-.41-.67-1.01-1.36-.74-.8.31-1.72.34-2.44.88.95,1.68.92,2.31,3.34,1.47.23-.08.5-.05.75-.08.34.13.46.4.48.75-.59.34-1.12.79-1.84.84-.79,0-1.57-.01-2.36-.02-1.4-1.52-2.8-3.03-4.2-4.55.24-.43.83-.63.84-1.23.67.18.87.88,1.35,1.26.24.19.56.6.72.54,1.24-.42,2.77-.11,3.69-1.38.47.28.81.84,1.47.74Z"/>
        <path class="cls-4" d="M267.11,310.32c.77-.57,1.23-1.47,2.07-1.96.91.03,1.83.16,2.72-.16.61-.22.9.15,1.15.61-.03.1-.06.2-.08.3-.65.89-2.06.99-2.33,2.27-1.01.64-1.61,1.81-2.88,2.31-.57-1.07-1-2.13-.67-3.37Z"/>
        <path class="cls-3" d="M269.98,322.57c1.67-.28,3.34-.56,5.01-.83,1.65-.27,1.65-.26,2.46,1.15.13.23.21.44.22.7-.39.05-.69.28-1.03.45-.97.47-1.97.93-3.07.6-.94-.28-1.87-.23-2.82-.18h0c-.06-.22-.21-.33-.42-.37-.39-.14-.62-.44-.79-.8.15-.23.29-.47.44-.7Z"/>
        <path class="cls-1" d="M271.07,312.84c-.01-.42.34-.66.48-1.01.27-.1.39-.29.37-.57.3-.13.6-.26.77-.57.46-.2.74-.54.82-1.04.14-.14.27-.29.41-.43.31-.05.55-.18.64-.5,1.65.46,2.98,1.55,4.47,2.32.92.48.01.66-.41.8-.69,0-1.35.14-2.03.27-1.82.35-3.62.97-5.52.73Z"/>
        <path class="cls-4" d="M265.69,314.49c.59.5.6,1.5,1.61,1.69.51.1.47.73.37,1.15-.27,1.1-.59,2.19-.94,3.28-.15.46-.52.68-1.03.68-.57,0-1.14.02-1.71.04-.12-.37-.12-.73.06-1.09.62-1.27.68-2.63.67-4.01,0-.62.07-1.24.11-1.85.29.04.57.08.86.12Z"/>
        <path class="cls-6" d="M264.83,314.37c-.04.62-.12,1.24-.11,1.85,0,1.38-.05,2.74-.67,4.01-.17.35-.17.72-.06,1.09-.45-.13-.9-.26-1.34-.38,1.79-4.3.69-8.4-.99-12.41-.75-1.78-2.26-2.65-4.26-2.51.58-.53,1.3-.23,1.96-.32.69.02,1.13.6,1.75.79,1.02,1.12,1.74,2.33,2.15,3.87.36,1.36.77,2.78,1.57,4.01Z"/>
        <path class="cls-3" d="M278.4,325.5c.8.48,1.21,1.23,1.52,2.14-1.35.94-3.01,1.05-4.46,1.68-.76.33-1.09-.43-1.6-.72.17-.71-.91-.91-.68-1.71.82-.21,1.64-.47,2.51-.61.92-.15,1.81-.51,2.71-.77Z"/>
        <path class="cls-3" d="M271.07,312.84c1.9.24,3.7-.38,5.52-.73.68-.13,1.34-.28,2.03-.27-1.26,1.75-2.96,2.63-5.12,2.64-1.44,0-2.89,0-4.44,0,.31-1.01,1.15-1.34,2.02-1.64Z"/>
        <path class="cls-9" d="M264.83,314.37c-.8-1.23-1.22-2.65-1.57-4.01-.4-1.53-1.13-2.74-2.15-3.87.15-.26.31-.53.46-.79,0,0,.19.02.19.02h.19s.03,0,.03,0c.11.13.23.26.35.38,0,0,0,0,0,0,0,.25.14.36.36.41,0,0,0,0,0,0,1.18,1.01,1.78,2.38,2.36,3.77.14,1.41.84,2.73.64,4.19-.29-.04-.57-.08-.86-.12Z"/>
        <path class="cls-8" d="M281.55,330.93c-.92,1.27-2.45.96-3.69,1.38-.16.05-.48-.35-.72-.54-.48-.38-.68-1.08-1.35-1.26,1.22-1.22,2.85-1.34,4.4-1.4.98-.04.93,1.18,1.36,1.82Z"/>
        <path class="cls-6" d="M278.4,325.5c-.9.27-1.79.63-2.71.77-.87.14-1.69.4-2.51.61-.23.8.85,1,.68,1.71-.5.05-.78.31-.83.82-1.43-1.16-2.29-2.79-3.44-4.18.38-.18.66-.46.84-.84.11,0,.22.02.33.05,0,0,0,0,0,0,.38.51.76,1.03,1.14,1.54.52.53,1.05.53,1.59.02,1.57-.7,3.4-.63,4.88-1.6.01.37.03.73.04,1.1Z"/>
        <path class="cls-1" d="M273.74,318.3c-.37,1.95-.39,1.97-2.14,2.31-.68.13-1.36.28-2.05.35-1.4.15-1.61-.08-1.3-1.4.07-.31.19-.6.28-.9,1.75.15,3.5.11,5.21-.36Z"/>
        <path class="cls-3" d="M273.74,318.3c-1.71.47-3.45.51-5.21.36-.07-.69-.1-1.37.26-2.01.33.11.62.07.83-.23.38,0,.76,0,1.14,0,1.09.64,2.28.25,3.42.34-.15.51-.29,1.02-.44,1.54Z"/>
        <path class="cls-8" d="M278.36,324.4c-1.48.97-3.31.9-4.88,1.6-.53,0-1.06-.01-1.58-.02-.38-.51-.76-1.03-1.14-1.54.95-.05,1.88-.1,2.82.18,1.1.33,2.11-.13,3.07-.6.34-.16.64-.4,1.03-.45.31.21.59.44.69.82Z"/>
        <path class="cls-1" d="M273.07,308.81c-.25-.46-.54-.83-1.15-.61-.89.32-1.81.19-2.72.16.25-1.17,1.35-1.7,1.95-2.61,1.27.43,2.56,1.58,2.95,2.61-.28.03-.5.15-.61.42-.14,0-.27.02-.41.02Z"/>
        <path class="cls-4" d="M270.47,304.58c-.79.63-1.14,1.86-2.43,1.83-.08-.53.29-1.17-.38-1.55.14-.79,1.08-1.32.77-2.26,0-.1.01-.21.04-.31.12.01.23.02.35.02.48.53.97,1.07,1.45,1.6.07.22.14.45.21.67Z"/>
        <path class="cls-1" d="M276.89,316.77c-.02.99-.48,1.82-.97,2.64-.12.2-.35.38-.65.26-.3-.11-.31-.38-.28-.63.12-.81.39-1.59.36-2.43-.02-.57.19-1,.87-.96.76.05.66.61.66,1.11Z"/>
        <path class="cls-6" d="M271.92,311.26c.02.28-.1.48-.37.57-.2-.34-.54-.4-.89-.45.26-1.28,1.68-1.38,2.33-2.27.17.18.35.36.52.54-.08.5-.36.84-.82,1.04-.39,0-.71.12-.77.57Z"/>
        <path class="cls-1" d="M274.18,316.76c-1.14-.09-2.33.3-3.42-.34.89-.35,1.82-.39,2.76-.35.43.02.71.2.66.69Z"/>
        <path class="cls-6" d="M273.41,304.64c.61.38,1.16.83,1.52,1.47q-1.37-.11-1.52-1.47Z"/>
        <path class="cls-6" d="M266.32,322.99c-1.1.32-2.2.35-3.3,0,1.1-.15,2.2-.14,3.3,0Z"/>
        <path class="cls-6" d="M273.48,308.78c.11-.27.33-.39.61-.42.16.12.31.23.47.35-.09.32-.34.45-.64.5-.15-.14-.29-.29-.44-.43Z"/>
        <path class="cls-1" d="M269.62,316.42c-.21.3-.5.34-.83.23.14-.56.4-.7.83-.23Z"/>
        <path class="cls-1" d="M269.98,322.57c-.15.23-.29.47-.44.7-.57-.68-.12-.73.44-.7Z"/>
        <path class="cls-6" d="M288.32,334.38c-.2-.06-.29-.18-.26-.39.17.08.26.2.26.39Z"/>
        <path class="cls-5" d="M277.99,319.46c.06.21,0,.38-.21.47-.07-.22.02-.37.21-.47Z"/>
        <path class="cls-8" d="M270.75,324.44c-.11-.03-.22-.05-.33-.05-.02-.11-.05-.22-.09-.32.21.04.36.16.42.37Z"/>
        <path class="cls-6" d="M276.09,306.98c.2-.02.32.08.37.27-.12-.09-.25-.18-.37-.27Z"/>
        <path class="cls-6" d="M190.95,308.75c-.16-.72-.65-1.18-1.22-1.59.06-.39-.11-.7-.35-.99-.27-1.5-.55-2.99-.8-4.49-.67-4.03-.04-7.98.91-11.87.93-3.81,2.15-7.55,3.7-11.17.19-.45.33-.95.74-1.27.17.16.33.31.5.47-2.17,5.74-4.22,11.51-4.96,17.65-.45,3.75-.44,7.43,1.24,10.95.32.67.89,1.47.24,2.31Z"/>
        <path class="cls-4" d="M244.07,300.52c0-.31.01-.62.01-.93.2,0,.41,0,.61,0,.13.16.26.31.38.47.27,2.2,1.33,4.07,2.46,5.91.83,1.35,1.62,2.67,1.56,4.39-.04.99.5,1.94,1.07,2.8.49.74.95,1.49,1.42,2.25,1.73,2.81,3.75,5.41,5.98,7.83,1.14,1.24,2.61,2.05,4.24,2.22,1.4.15,2.75.28,4.03.88,0,0-.04-.03-.04-.03.13.19.25.37.38.56.86,1.47,1.94,2.77,2.92,4.15,1.3,1.83,3.05,3.33,3.95,5.44.11.76.24,1.51,1.17,1.74l-.02-.02c-.03.58.02,1.12.78,1.16l-.02-.02c-.11.69.27,1.23.6,1.76,1.72,2.73,3.12,5.64,4.56,8.51,1.79,3.56,3.48,7.17,5.21,10.76.07.83.45,1.56.77,2.31,1.14,2.72,2.12,5.5,2.53,8.44-.82-.12-1.23-.8-1.76-1.31-1.29-1.26-2.48-2.62-3.93-3.71.69-.56.52-1.24.2-1.88-1.29-2.6-2.61-5.18-3.91-7.77-.98-1.95-2.73-3.29-3.92-5.07-.28-.42-.74-.74-.7-1.3.07-1.16-.3-2.26-.4-3.39-.26-2.88-1.47-5.37-3.31-7.5-.97-1.12-1.81-2.26-2.39-3.61-.7-1.63-2.13-2.51-3.5-3.47h0c.05-.84-.15-1.48-1.14-1.53h0c.05-.68-.12-1.18-.93-1.14-.08-.1-.15-.2-.23-.3-.12-.17-.24-.35-.36-.52-.4-.26-.79-.53-1.19-.79-.95-1.04-2.28-.85-3.47-1.02-.78-.11-1.23-.4-1.61-1.07-1.03-1.79-2.24-3.48-3.07-5.39-.28-.64-.59-1.29-1.48-1.21-.1-.14-.19-.27-.29-.41-.09-.11-.19-.21-.28-.32-.66-.85-1.36-.79-2.08-.09-.27.26-.35.69-.77.8-1.03-1.24-.9-2.87-1.42-4.28-1.59-4.32-2.55-8.76-2.41-13.39,0-.3-.13-.61-.21-.91Z"/>
        <path class="cls-1" d="M251.24,318.71c.1.14.19.27.29.41,1.07,2.78,2.78,5.23,4.13,7.87.29.57.71,1.37,1.55,1.15,1.31-.34,2.65-.09,3.95-.33.4.26.79.53,1.19.79.12.17.24.35.36.52.08.1.15.2.23.3.19.47.34.98.93,1.13,0,0,0,.01,0,.01,0,.79.46,1.24,1.14,1.52,0,0,0,.01,0,.01-.1.73.51,1.13.82,1.66,1.34,2.28,3.11,4.29,4.28,6.69.16.33.22.58-.14.78-.31-.32-.68-.59-.91-.96-1.87-3.01-3.92-5.9-5.97-8.79-2.11-2.98-1.37-2.49-4.77-2.4-1.82.05-2.88-.7-3.59-2.19-1.04-2.18-2.46-4.14-3.68-6.22-.29-.5-.46-1.22-1.24-1.31-.04,1.48,1.47,4.32,5.67,10.75.02.36.02.7-.38.87-.22-.22-.51-.41-.66-.67-1.51-2.56-3.21-5.01-4.46-7.72-.42-.92-.98-1.47-2.05-1.17-.21-.19-.42-.39-.64-.58.51-.46.81-1.02.81-1.72.42-.11.51-.54.77-.8.72-.7,1.42-.77,2.08.09.09.11.19.21.28.32Z"/>
        <path class="cls-4" d="M247.93,321.41c1.08-.3,1.63.25,2.05,1.17,1.24,2.71,2.95,5.16,4.46,7.72.15.26.44.45.66.67.94.33,1.88.93,2.82.92,1.92-.03,2.66.97,2.97,2.61-.03.26-.06.52-.09.79-.6-.32-1.01.13-1.49.34-1.55-.27-2.58-1.6-4.09-1.97-1.91-.47-2.98-1.75-3.61-3.56-.79-2.27-1.66-4.52-2.55-6.76-.23-.59-.24-1.46-1.2-1.5.02-.14.04-.29.06-.43Z"/>
        <path class="cls-6" d="M265.83,326.34c-1.28-.6-2.64-.73-4.03-.88-1.63-.18-3.1-.99-4.24-2.22-2.23-2.43-4.25-5.02-5.98-7.83-.46-.75-.93-1.51-1.42-2.25-.57-.86-1.11-1.81-1.07-2.8.07-1.72-.73-3.04-1.56-4.39-1.13-1.84-2.19-3.71-2.46-5.91.23-.03.45-.06.68-.09,1.07,2.23,2.15,4.45,3.21,6.68.46.97.94,1.91.79,3.08-.09.75.24,1.51.62,2.17,1.89,3.32,4.02,6.47,6.53,9.36,2.02,2.33,4.58,3.31,7.6,3.28.14.06.28.12.42.18.09.02.16.07.21.14,0,.15.07.22.21.2.21.4,1.15.54.47,1.27Z"/>
        <path class="cls-1" d="M254.11,299.99c.11.02.18.08.22.18-.13.74.12,1.33.65,1.87.57.57,1.26,1.05,1.63,1.81-1.14.9-2.32,1.76-3.04,3.07-1.91-1.93-2.97-4.37-4.09-6.77-.18-.38-.11-.81.38-.88.96-.14,1.92-.82,2.91-.11.2.67.68.88,1.33.83Z"/>
        <path class="cls-9" d="M247.87,321.84c.96.04.97.91,1.2,1.5.89,2.24,1.76,4.49,2.55,6.76.63,1.81,1.69,3.09,3.61,3.56,1.5.37,2.54,1.7,4.09,1.97.34.43.68.86,1.19,1.51-2.76-.51-4.82-2.03-7.16-2.84-2.03-1.32-3-3.33-3.65-5.56-.5-1.7-1.08-3.37-1.66-5.05-.21-.61-.38-1.21-.16-1.85Z"/>
        <path class="cls-9" d="M248.11,319.11c0,.7-.31,1.26-.81,1.72-.81-.9-.96-2.08-1.22-3.16-.74-3.08-1.6-6.15-2.11-9.28.02-.05.07-.1.06-.14-.03-.09-.08-.17-.13-.26-.54-2.2-.09-4.43-.14-6.64.21-.13.27-.31.15-.54.08-.08.14-.17.16-.28.07.3.22.61.21.91-.14,4.64.81,9.08,2.41,13.39.52,1.41.39,3.04,1.42,4.28Z"/>
        <path class="cls-4" d="M267.8,300.75c.03.61-.24,1.07-.62,1.53-.87,1.07-1.71,2.18-2.56,3.26-.52-.13-.84-.53-1.17-.9-.23-.27-.26-.55-.05-.85,1.07-1.46,2.13-2.92,3.24-4.43.44.52.79.95,1.15,1.38Z"/>
        <path class="cls-1" d="M257.02,306.17c.19.42.5.75.88.96.53.29.65.73.61,1.26-2.15.16-2.38.41-3.11,2.38-.28.76-.12,1.6-.53,2.44-.83-.63-.44-1.48-.63-2.15.03-.27.05-.54.08-.8.35-.23.31-.45,0-.67.39-.77.77-1.55,1.19-2.3.33-.59.63-1.25,1.51-1.1Z"/>
        <path class="cls-4" d="M256.62,303.85c-.37-.76-1.06-1.24-1.63-1.81-.53-.54-.78-1.13-.65-1.87,1.45.87,2.9,1.76,3.82,3.25-.51.14-1.02.29-1.53.43Z"/>
        <path class="cls-6" d="M266.9,295.5c.71.93,1.35,1.9,1.79,2.98-1.58-.41-1.67-1.71-1.79-2.98Z"/>
        <path class="cls-4" d="M261.57,305.7c-.15.26-.31.53-.46.79-.62-.18-1.06-.76-1.76-.79-.03-.12-.05-.24-.06-.36.51-.04,1.03-.07,1.54-.11.23.05.46.09.69.14.02.11.04.22.04.33Z"/>
        <path class="cls-6" d="M260.84,305.23c-.51.04-1.03.07-1.54.11.49-.39.94-1.27,1.54-.11Z"/>
        <path class="cls-1" d="M244.7,299.58c-.2,0-.41,0-.61,0-.04-.26-.01-.52.29-.52.3,0,.35.26.32.52Z"/>
        <path class="cls-6" d="M254.32,309.58c.32.22.35.45,0,.67,0-.23,0-.45,0-.67Z"/>
        <path class="cls-6" d="M262.33,306.11c-.12-.13-.23-.26-.35-.38.21.04.33.17.35.38Z"/>
        <path class="cls-6" d="M261.57,305.7c0-.11-.02-.22-.04-.33.21.03.35.15.42.34,0,0-.19.01-.19.01l-.19-.02Z"/>
        <path class="cls-6" d="M243.91,300.8c.11.23.06.4-.15.54-.08-.22-.05-.4.15-.54Z"/>
        <path class="cls-4" d="M243.9,307.98c.04.09.1.17.13.26.01.04-.04.09-.06.14-.06-.09-.12-.17-.16-.27-.01-.03.06-.09.09-.13Z"/>
        <path class="cls-6" d="M262.69,306.53c-.23-.04-.37-.16-.36-.41.12.14.24.27.36.41Z"/>
        <path class="cls-3" d="M266.16,282.07c.21-.72-.27-1.42-.24-2.19.77.11.94.67,1.18,1.04,1.33,2.04,2.61,4.12,3.9,6.19.47.76.67,1.62.87,2.47.06.24.02.52-.21.67-.25.16-.48.02-.69-.12-.35-.25-.55-.7-1.01-.82,0,0,.02,0,.02,0-.03-.23-.12-.4-.39-.39,0,0,0,0,0,0,.07-.45.07-.88-.39-1.16,0,0,.01.02.01.02-.03-.23-.13-.39-.39-.4,0,0,0,0,0,0,.04-.35.02-.66-.39-.78,0,0,0,.01,0,.01.04-.34.01-.65-.39-.77,0,0,0,0,0,0-.04-1.36-.72-2.43-1.54-3.45,0,0,0,.01,0,.01-.05-.21-.16-.36-.39-.39v.03Z"/>
        <path class="cls-3" d="M270.69,293.2c.56-.44.51-1.06.47-1.67,1.04-.01,2.08-.02,3.12-.04,1.23.55,1.77,1.63,2.16,2.82-.37-.06-.72-.14-1.07-.32-1.17-.61-1.66-.5-2.3.54-.22.37-.32.81-.47,1.22-.24.15-.48.29-.72.44-.4-1-.8-2-1.19-3Z"/>
        <path class="cls-8" d="M174.06,359.59c.4.22.22.87.88,1.04.75-.94,1.12-2.15,1.67-3.23.7-1.36,1.95-1.66,3.2-1.98.53-.14,1.11.28,1.05.82-.23,1.98,1.3,3.68.83,5.68-.04.12-.07.24-.11.36-1.32,3.95-2.36,7.97-2.9,12.11-.63.11-1.25-.06-1.87-.11-1.95-.17-3.54-1.29-5.33-1.85-.03-.22-.06-.43-.09-.65.09-.04.12-.11.08-.21.4-.67.32-1.41.31-2.13.04-.06.05-.13.03-.2.37-.5.37-1.07.31-1.65.12-1.44.24-2.88.82-4.22.24-.18.29-.42.23-.7.04-.3.09-.59.13-.89.5-.64.34-1.52.77-2.19Z"/>
        <path class="cls-3" d="M193.54,364.19c-.64.75-1.27,1.5-1.91,2.25-2.17,2.27-4.33,4.54-6.5,6.81-1.71,1.26-3.42,2.5-5.12,3.78-.49.37-.93.66-1.45.1.01-.47.02-.93.03-1.4.91.05,1.56-.51,2.2-1.01,4.39-3.38,7.95-7.6,11.63-11.68.29-.32.58-.74.02-1.12.18-.26.33-.55.54-.77,2.34-2.43,4.36-5.13,6.53-7.7.7-.83,1.33-1.75,1.29-2.9-.05-1.6.3-3.16.36-4.75.04-1.09.41-1.96,1.22-2.67.37.41.52.05.7-.2,1.36-1.91,2.73-3.81,4.07-5.73.36-.51.56-1.15,1.26-1.33.15,1.45-.66,2.58-1.26,3.79-.3.61-.87,1.06-1.02,1.75-.54.49-.47,1.3-.95,1.82l-.1.11c-.07.08-.14.16-.22.24-.49-.13-.84.02-1.1.48-1.28,2.21-1.25,4.67-1.36,7.11,0,.09.14.19.22.29.02.41-.16.82.06,1.22v-.02c-.98.01-1.29.81-1.7,1.49-.43.27-.81.57-1.13.99-1.57,2.04-3.17,4.07-4.78,6.08-.34.43-.49.87-.41,1.4,0,0,0,0,0,0-.28.08-.38.29-.39.56-.16.21-.32.42-.48.64-.15.03-.31.06-.47.1.06.09.12.18.17.27Z"/>
        <path class="cls-1" d="M192.45,361.93c.56.38.27.8-.02,1.12-3.69,4.08-7.24,8.3-11.63,11.68-.64.49-1.29,1.06-2.2,1.01-2.33-.31-4.66-.61-6.7-1.9-.57-.34-.4-.9-.42-1.41,1.79.56,3.38,1.68,5.33,1.85.62.05,1.24.22,1.87.11,1.12-.25.57-1.25.81-1.87,1.24-3.39,2.4-6.81,3.59-10.22.73-1.66,1.46-3.33,2.19-4.99.36-.11.73-.21,1.09-.32.06.61-.29,1.1-.5,1.62-1.18,2.87-2.43,5.72-3.55,8.61-.79,2.03-1.4,4.12-2.15,6.36,1.24-.59,1.97-1.37,2.6-2.26,2.33-1.21,3.72-3.41,5.47-5.23.13-.13.26-.27.39-.4,0,0,0,.01,0,0,1.28-.79,1.8-1.94,1.58-3.42.24-.54.48-1.08.72-1.62.42-.18.62-.72,1.17-.69-.13,1.05-1.39,1.76-.99,3.03.74-.13.97-.71,1.37-1.08Z"/>
        <path class="cls-8" d="M171.9,373.84c2.05,1.29,4.38,1.59,6.7,1.9-.01.47-.02.93-.03,1.4-.28.53-.71.58-1.26.46-1.6-.34-3.1-.92-4.6-1.54-1.08-.45-.96-1.32-.81-2.22Z"/>
        <path class="cls-6" d="M171.8,369.24c.02.07,0,.14-.03.2-.63.63-.43,1.39-.31,2.13.04.09.01.16-.08.21-1.23-.8-1.44-1.23-.72-2.24.36-.5.07-1.48,1.05-1.54.03.41.06.83.09,1.24Z"/>
        <path class="cls-1" d="M171.8,369.24c-.03-.41-.06-.83-.09-1.24.13-.14.26-.27.4-.41.07.58.07,1.15-.31,1.65Z"/>
        <path class="cls-6" d="M173.16,362.67c.06.28.01.52-.23.7-.05-.28-.01-.52.23-.7Z"/>
        <path class="cls-8" d="M290.64,365.11c.13-.79-.22-1.49-.45-2.2-.29-.91-.61-1.76.16-2.63.87-.99,1.9-.63,2.77-.26,1.06.45,2.1.77,3.24.75.8,2.82,1.37,5.71,2.51,8.75.27-1.04.17-1.72,0-2.4-.19-.74-.27-1.49-.17-2.26.7,1.1.45,2.47,1.04,3.6.12.81.27,1.61.35,2.42.06.59.38,1.25-.25,1.75-.53.17-1.11.26-1.59.53-1.17.65-2.46.91-3.74,1.17-.75.16-1.6.44-2.25-.33.52-3.16-.39-6.06-1.61-8.9Z"/>
        <path class="cls-7" d="M298.7,364.86c-.1.76-.01,1.52.17,2.26.17.69.27,1.36,0,2.4-1.15-3.04-1.71-5.93-2.51-8.75-.22-.71-.36-1.44-.36-2.19,0-.62.26-.93.88-.92.54,2.01,1.08,4.02,1.62,6.03-.23.33-.09.6.14.86.02.1.04.2.06.31Z"/>
        <path class="cls-8" d="M298.64,364.56c-.22-.26-.36-.53-.14-.86.18.27.22.56.14.86Z"/>
        <path class="cls-4" d="M206.15,278.99c-.02.25-.04.5-.06.75-.1.13-.21.26-.31.39h0c-.32.02-.72.05-.82.35-.56,1.56-1.76,2.87-1.85,4.62h0c-.24.07-.58.06-.69.21-1.15,1.55-2.42,3.05-2.46,5.13-.42,0-.84-.02-1.14.37-.19-.02-.38-.04-.57-.06-.38-1.9.7-3.33,1.78-4.57,1.27-1.46,2.03-3.13,2.71-4.86.91-2.33.85-2.36,3.41-2.32Z"/>
        <path class="cls-3" d="M214.97,343.13c-.17.05-.33.1-.5.15-.1.09-.2.17-.3.26,0,0,0-.02,0-.02-.12,0-.23.02-.35.05-.15-.03-.31-.07-.46-.1-.29-.7-.69-1.15-1.57-1.09-1.07.08-2.15.04-3.2.31-.03-.19-.05-.38-.08-.57,1.12-.07,2.24-.13,3.36-.2.31.08.59.05.81-.21,1.43-.56,2.85-1.13,4.28-1.69.16-.06.35-.16.59.13-.07,1.61-1.34,2.29-2.59,2.98Z"/>
        <path class="cls-1" d="M208.52,342.11c.03.19.05.38.08.57-.32.53-.63,1.07-.95,1.6-.58,0-1.17,0-1.75,0,.27-.76.54-1.52.82-2.27.27-.16.23-.61.6-.68.27.46.71.67,1.2.78Z"/>
        <path class="cls-1" d="M211.16,337.1c.24.03.48.05.72.08-.27.26-.53.33-.72-.08Z"/>
        <path class="cls-1" d="M212.69,341.7c-.22.27-.5.3-.81.21.22-.27.49-.32.81-.21Z"/>
        <path class="cls-1" d="M211.88,335.18c.42.2.48.42.03.66,0-.22-.02-.44-.03-.66Z"/>
        <path class="cls-9" d="M212.67,336.7c.02-.25.15-.39.4-.43-.13.14-.27.28-.4.43Z"/>
        <path class="cls-4" d="M271.88,296.2c.24-.15.48-.29.72-.44.03,1.28.2,2.51,1.01,3.57.4.52.81,1.04,1.53.92.76-.13,1.19-.73,1.33-1.44.14-.69.2-1.37.8-1.84.51,1.57.79,3.16.39,4.8-.32,1.31-.84,1.56-2.02.9-1.09-.61-2.18-1.25-2.95-2.28-.22-1.4-.84-2.73-.8-4.19Z"/>
        <path class="cls-1" d="M277.26,296.97c-.6.47-.66,1.16-.8,1.84-.14.71-.57,1.31-1.33,1.44-.71.12-1.13-.39-1.53-.92-.81-1.07-.98-2.3-1.01-3.57.15-.41.25-.86.47-1.22.63-1.04,1.13-1.16,2.3-.54.35.18.7.26,1.07.32.66.76.99,1.63.83,2.65ZM274.1,294.7c-.85,1.41-.39,2.64.13,3.85.15.35.4.71.84.59.37-.1.62-.41.65-.83.09-1.45-.34-2.66-1.62-3.62Z"/>
        <path class="cls-3" d="M260.89,334.5c-.3-1.65-1.05-2.64-2.97-2.61-.93.01-1.88-.59-2.82-.92.4-.17.4-.51.38-.87,1.26.61,2.61.51,3.93.46,1.08-.04,1.73.4,2.32,1.3,2.18,3.34,4.4,6.67,6.71,9.93,1.29,1.82,2.03,3.67,2.02,5.98,0,1.84,0,3.84,1.33,5.43.7.82,1.39,1.65,2.06,2.49,1.7,2.13,3.71,4,5.25,6.26-.4.29-.13.54.05.78,2.78,3.53,5.65,6.98,9.09,9.9,1.42,1.21,2.72,2.69,4.72,3.05-.14.68.33,1.25.34,1.9-.52-.06-1.07.05-1.54-.3,0,0-.13-.11-.13-.11,0-.14-.08-.21-.22-.21-1.31-.81-2.22-2.23-3.84-2.56-.34-.53-.68-1.04-1.18-1.44-2.1-1.72-3.82-3.83-5.74-5.74.05-.35-.04-.62-.43-.72h.06c-.05-.22-.18-.36-.4-.4v.05c-.03-.21-.13-.37-.35-.44,0,0-.01-.02-.01-.02.05-.59.08-1.16-.77-1.12,0,0,0,0,0,0-.03-.22-.16-.35-.38-.39,0,0,0,0,0,0-.03-.22-.16-.35-.39-.39,0,0,0,0,0,0-.03-.22-.16-.35-.38-.39,0,0,0,0,0,0-.03-.23-.16-.35-.38-.39,0,0,0,0,0,0-.03-.22-.16-.35-.38-.39,0,0,0,0,0,0-.04-.21-.17-.34-.38-.38,0,0,0,0,0,0-.04-.21-.17-.34-.38-.38,0,0,0,0,0,0,.13-.62-.17-1.07-.54-1.55-.57-.75-1.23-1.53-1.51-2.4-.46-1.46-1.33-2.58-2.37-3.59-.97-.94-1.54-2.09-1.65-3.35-.12-1.39-.4-2.76-.46-4.15-.11-2.72-1.82-4.51-3.51-6.32-.25-.27-.64-.42-1.05-.21-1.22-2.05-2.41-4.12-4.14-5.8Z"/>
        <path class="cls-1" d="M292.97,375.67c-1.99-.36-3.29-1.84-4.72-3.05-3.44-2.91-6.31-6.37-9.09-9.9-.19-.24-.45-.49-.05-.78.41.32.62.87,1.17,1.04l2.66,3.08c1.45,1.09,2.64,2.45,3.93,3.71.52.51.93,1.2,1.76,1.31.69.96,1.4,1.9,2.84,2.38-.6-1.66-1.1-3.13-1.66-4.59-1.09-2.83-1.9-5.77-3.36-8.45-.08-.3-.13-.62-.25-.91-2.03-4.8-4.29-9.48-7.04-13.91-1.33-2.14-2.39-4.47-4.19-6.3,0,0,.02.02.02.02-.08-.51-.31-.92-.78-1.16,0,0,.02.02.02.02-.2-.71-.7-1.21-1.17-1.74-.91-2.11-2.65-3.61-3.95-5.44-.98-1.38-2.07-2.68-2.92-4.15.06-.2.13-.39.19-.59,3.77,3.89,6.9,8.27,9.92,12.74,4.63,6.84,8.5,14.07,11.46,21.79.63,1.64,1.37,3.25,1.98,4.9.85,2.77,1.69,5.54,2.54,8.31.65.76,1.5.48,2.25.33,1.28-.27,2.57-.52,3.74-1.17.48-.27,1.06-.36,1.59-.53-.18.37.42.76-.05,1.12-2.12,1.19-4.4,1.79-6.81,1.92Z"/>
        <path class="cls-8" d="M292.97,375.67c2.42-.13,4.7-.73,6.81-1.92.04.1.06.21.06.31-.01.14-.03.27-.04.41-.08.55-.02,1.19-.67,1.44-1.89.71-3.67,1.85-5.82,1.66-.02-.65-.48-1.22-.34-1.89Z"/>
        <path class="cls-1" d="M299.8,374.47c.01-.13.03-.27.04-.41.03.1.08.2.09.3,0,.03-.09.07-.14.1Z"/>
        <path class="cls-4" d="M200.01,295.77c.14.84-.15,1.62-.44,2.36-.3.76-.31,1.44.08,2.14-.75-.15-1.15.37-1.6.81-.68.66-1.4,1.28-2.29,1.65-1.06.44-1.43.27-1.89-.79-.34-.79-.36-1.61-.27-2.42.25-2.28.93-4.45,2.14-6.4.52-.84,1.17-1.69,2.39-1.56.26,1-.32,1.51-1.13,1.87-2.19,1.71-2.92,4.18-1.82,6.11.61,1.07,1.46,1.18,2.24.21.84-1.04,1.44-2.22,1.55-3.6.34-.13.68-.26,1.03-.38Z"/>
        <path class="cls-3" d="M197.01,293.43c.81-.36,1.38-.87,1.13-1.87.34-.06.67-.11,1.01-.17.46.07.92.13,1.38.2-.04.55-.23,1.15.36,1.55-.29.87-.58,1.75-.87,2.62-.34.13-.68.26-1.03.38-.15-1.28-.22-2.61-1.97-2.72Z"/>
        <path class="cls-1" d="M200.52,291.59c-.46-.07-.92-.13-1.38-.2.05-.28-.07-.47-.32-.59.29-.39.72-.36,1.14-.37.42.38.64.09.85-.26.35-.57.47-1.3,1.13-1.66.07.06.15.11.22.18-.4,1.05-.77,2.12-1.64,2.9Z"/>
        <path class="cls-1" d="M266.53,282.42c.81,1.02,1.5,2.09,1.54,3.45-.93-.96-1.54-2.07-1.54-3.45Z"/>
        <path class="cls-1" d="M269.21,287.77c.46.27.47.7.39,1.16-.43-.28-.57-.67-.39-1.16Z"/>
        <path class="cls-1" d="M268.45,286.62c.41.12.44.43.39.78-.36-.14-.41-.44-.39-.78Z"/>
        <path class="cls-1" d="M268.06,285.86c.4.12.43.43.39.77-.36-.14-.41-.44-.39-.77Z"/>
        <path class="cls-1" d="M269.59,288.92c.27,0,.36.16.39.39-.35.08-.36-.16-.39-.39Z"/>
        <path class="cls-1" d="M268.83,287.39c.25,0,.35.17.39.4-.33.07-.36-.16-.39-.4Z"/>
        <path class="cls-1" d="M266.15,282.04c.23.03.34.18.39.39-.32.06-.36-.17-.39-.39Z"/>
        <path class="cls-8" d="M280.24,366.48c.38.1.47.37.43.72,0,0-.15,0-.15,0,0,0-.14-.04-.14-.04-.05-.14-.09-.28-.14-.41,0-.09,0-.18,0-.27Z"/>
        <polygon class="cls-1" points="179.59 342.48 179.59 342.62 179.45 342.66 179.47 342.53 179.59 342.48"/>
        <path class="cls-6" d="M291.43,376.95c.14,0,.21.07.22.21-.1-.04-.17-.11-.22-.21Z"/>
        <path class="cls-3" d="M201.94,288.51c-.66.36-.78,1.09-1.13,1.66-.21.35-.43.63-.85.26.04-2.08,1.31-3.58,2.46-5.13.12-.15.46-.14.69-.2-.05,1.25-1.18,2.14-1.17,3.41Z"/>
        <path class="cls-3" d="M203.12,285.09c.08-1.75,1.28-3.06,1.85-4.62.11-.29.5-.33.82-.35-.65,1.78-1.26,3.59-2.67,4.96Z"/>
        <path class="cls-3" d="M205.79,280.13c.1-.13.21-.26.31-.39,0,.2-.11.33-.31.39Z"/>
        <path class="cls-9" d="M207.65,344.28c.32-.53.63-1.07.95-1.6,1.05-.27,2.13-.23,3.21-.31.88-.07,1.28.39,1.57,1.09-.48.17-.95.34-1.43.51-1.43.14-2.8.98-4.29.31Z"/>
        <path class="cls-6" d="M214.18,343.53c.1-.09.2-.17.3-.26-.1.09-.2.17-.3.26Z"/>
        <path class="cls-6" d="M213.84,343.56c.11-.03.23-.05.35-.05-.09.21-.2.3-.35.05Z"/>
        <path class="cls-7" d="M183.07,362.3c-1.19,3.41-2.35,6.83-3.59,10.22-.23.63.31,1.63-.81,1.87.54-4.14,1.58-8.16,2.9-12.11.04-.12.08-.24.11-.36.52-.11.91.28,1.38.38Z"/>
        <path class="cls-1" d="M217.46,299.07c-.02.18-.05.21-.09,0,0,0,.09,0,.09,0Z"/>
        <path class="cls-3" d="M192.07,359.98c-.55-.04-.75.51-1.17.69.91-2.85,2.27-5.47,4.2-7.76,1.09-1.29,1.72-2.82,2.22-4.35.55-1.73.82-3.57,1.29-5.32.56-2.07,1.47-4.16,3.73-5.12.12.52-.31,1.15.35,1.55-2.57,2.78-3.4,6.09-3.05,9.78.02.19-.01.38-.01.57,0,1.06-.39,1.99-1.06,2.78-2.04,2.4-3.97,4.91-6.19,7.15-.14-.28-.26-.34-.34.03h.03Z"/>
        <path class="cls-8" d="M182.75,371.33c-.63.89-1.36,1.67-2.6,2.26.75-2.24,1.37-4.34,2.15-6.36,1.12-2.89,2.37-5.74,3.55-8.61.21-.52.56-1.01.5-1.62,0,0,.02-.06.02-.06s.14.04.14.04h.15c.36,0,.72,0,1.07,0,0,1.26-.8,2.22-1.24,3.32-1.45,3.61-2.74,7.28-3.75,11.04Z"/>
        <path class="cls-9" d="M187.74,356.97c-.36,0-.72,0-1.07,0,0-.17-.02-.33-.03-.5,2.83-6.11,6.3-11.85,9.94-17.5.65.26.4.71.18,1.08-.58.98-1.22,1.93-1.81,2.91-2.32,3.87-4.26,7.94-6.11,12.05-.31.7-1.05,1.13-1.1,1.95Z"/>
        <path class="cls-1" d="M202.69,339.66c-.65-.39-.23-1.03-.35-1.55.03-.06.04-.13.03-.19.12-.17.24-.33.36-.49,0,0,.01-.01.01-.01.2-.04.33-.16.37-.37,0,0,.01-.02.01-.02,1.04-.84,2.14-1.64,2.28-3.13,0,0,.02-.14.02-.15.95.04,1.14-1.09,1.95-1.26.08.41-.14.72-.35,1.03-1.44,2.05-2.89,4.09-4.33,6.14Z"/>
        <path class="cls-3" d="M207.37,332.49c-.81.17-1,1.31-1.95,1.26.84-1.6,1.43-3.36,3.05-4.42.13.84-.39,1.57-.38,2.39,0,0,.01-.02.01-.02-.58-.07-.8.23-.77.77l.04.02Z"/>
        <path class="cls-3" d="M205.4,333.9c-.14,1.5-1.24,2.29-2.28,3.13.06-1.56.83-2.59,2.28-3.13Z"/>
        <path class="cls-3" d="M190.18,362.29c.21,1.48-.31,2.63-1.58,3.42-.17-1.46.61-2.49,1.58-3.42Z"/>
        <path class="cls-3" d="M188.6,365.7c-.13.13-.26.27-.39.4.13-.13.26-.27.39-.4Z"/>
        <path class="cls-3" d="M203.11,337.05c-.04.21-.16.33-.37.37.12-.12.24-.25.37-.37Z"/>
        <path class="cls-3" d="M202.73,337.43c-.12.16-.24.33-.36.49.03-.23.14-.4.36-.49Z"/>
        <path class="cls-1" d="M186.63,356.47c0,.17.02.33.03.5,0,0-.15,0-.15,0,0,0-.14-.04-.14-.04-.04-.23.08-.37.27-.47Z"/>
        <path class="cls-8" d="M202.69,339.66c1.44-2.05,2.89-4.09,4.33-6.14.22-.31.44-.62.35-1.03,0,0-.04-.02-.04-.02.56.04.65-.38.77-.77,0,0-.01.02-.01.02,1.27-2.34,3.25-3.12,5.8-2.68,1.13.2,1.66-.46,2.22-1.35,1.6-2.51,3.15-5.04,4.66-7.6.19-.32.45-.76.87-.52.39.21.27.68.09,1.02-.33.61-.68,1.22-1.04,1.81-1.33,2.23-2.7,4.44-3.97,6.71-.52.93-1.22,1.42-2.26,1.47-.82.04-1.65.13-2.47.09-1.02-.05-1.64.41-2.17,1.23-1.66,2.55-3.37,5.07-5.05,7.6-.8,1.21-1.58,2.42-2.37,3.63-.81.71-1.18,1.58-1.22,2.67-.06,1.58-.41,3.15-.36,4.75.03,1.15-.59,2.06-1.29,2.9-2.17,2.57-4.19,5.27-6.53,7.7-.22.22-.36.51-.54.77-.4.38-.63.96-1.37,1.08-.4-1.27.86-1.98.99-3.03,0,0-.03,0-.03,0,0,0,.18.05.18.05l.16-.09c2.22-2.25,4.15-4.75,6.19-7.15.67-.79,1.06-1.72,1.06-2.78,0-.19.03-.38.01-.57-.35-3.69.48-7,3.05-9.78Z"/>
        <path class="cls-3" d="M213.84,331.67c-1.4,1.02-2.6,2.26-3.8,3.49-.48.49-.9.82-1.59.71.35-1.52,1.49-2.55,2.34-3.76.27-.38.71-.49,1.17-.48.63.01,1.25.03,1.88.04Z"/>
        <path class="cls-9" d="M206.72,342.01c-.27.76-.54,1.52-.82,2.27-.6,1.07-.8,2.25-.9,3.45-.17,1.93-.64,3.72-2.28,4.97-.23-.4-.05-.81-.06-1.22.84-.55.93-1.51,1.08-2.33.35-1.86.7-3.71,1.16-5.54.07-.08.15-.16.22-.24,0,0,.11,0,.11,0v-.11c.47-.52.4-1.33.94-1.82.19.19.37.39.56.58Z"/>
        <path class="cls-9" d="M211.64,317.5c-.09-.47-.18-.94-.27-1.41.19-1.18.35-2.35.57-3.52.08-.42.25-.84.46-1.23.18-.34.49-.63.89-.62.49,0,.51.47.63.82.69,2.14-.43,5.07-2.27,5.96Z"/>
        <path class="cls-8" d="M194.7,362.64c-.09-.53.06-.97.41-1.4,1.61-2.01,3.21-4.03,4.78-6.08.32-.41.7-.72,1.13-.99.06.33.12.66.19.99-2.04,2.6-3.94,5.32-6.5,7.47Z"/>
        <path class="cls-9" d="M201.2,355.17c-.06-.33-.12-.66-.19-.99.41-.68.72-1.48,1.72-1.49-.16,1.04-.89,1.73-1.53,2.48Z"/>
        <path class="cls-8" d="M193.54,364.19c-.06-.09-.12-.18-.17-.27.16-.03.31-.06.47-.1-.02.07-.03.14-.04.21-.08.05-.17.1-.25.16Z"/>
        <path class="cls-8" d="M194.31,363.19c.01-.27.12-.47.39-.56-.13.19-.26.37-.39.56Z"/>
        <path class="cls-9" d="M260.89,334.5c1.73,1.68,2.92,3.75,4.14,5.8.23,1.49.96,2.65,2.23,3.49.49.32.82.8.77,1.42-.18,2.24.4,4.48.06,6.73-1.35-1.05-1.35-2.61-1.46-4.08-.1-1.27-.55-2.43-.9-3.62-.09-.31-.31-.54-.67-.53.22-1.28-.45-2.26-1.1-3.24-.74-1.92-1.86-3.61-3.15-5.19.03-.26.06-.52.09-.79Z"/>
        <path class="cls-4" d="M260.8,340.96c-1.89-.31-3.72-.84-5.41-1.75-.78-.42-1.56-.88-1.44-1.94.45-.38.76-.07,1.1.06,1.66.63,3.32,1.27,5,1.86.79.28,1.58.5,2.03,1.29-.32.43-.83.37-1.28.47Z"/>
        <path class="cls-9" d="M263.51,343.54c0,.5-.18.79-.75.83-1.12.06-2.2-.18-3.27-.44,0,0-.03-.02-.03-.02-.15-.54-.27-1.08-.85-1.38-.29-.15-.18-.4.09-.55,1.21.07,2.43.15,3.64-.01.39.52.79,1.05,1.18,1.57Z"/>
        <path class="cls-3" d="M258.7,341.98c-.27.15-.38.4-.09.55.58.3.7.84.85,1.38-2.66-.06-4.96-1.74-5.05-3.84,1.53.49,2.88,1.26,4.28,1.91Z"/>
        <path class="cls-1" d="M263.51,343.54c-.39-.52-.79-1.05-1.18-1.57-.05-.42-.23-.69-.7-.69-.32,0-.61-.08-.84-.32.45-.1.95-.03,1.28-.47.63,0,1.25-.02,1.88-.02.65.98,1.32,1.96,1.1,3.24-.49-.27-1.02-.17-1.54-.17Z"/>
        <path class="cls-8" d="M268.09,351.94c.34-2.24-.24-4.48-.06-6.73.05-.62-.28-1.1-.77-1.42-1.27-.84-2-2-2.23-3.49.41-.21.8-.06,1.05.21,1.68,1.81,3.4,3.6,3.51,6.32.05,1.38.34,2.76.46,4.15.11,1.26.68,2.41,1.65,3.35,1.04,1.01,1.91,2.14,2.37,3.59.28.87.93,1.65,1.51,2.4.37.48.66.92.54,1.55-.63-.62-1.26-1.23-1.89-1.85-1.46-1.82-2.92-3.65-4.38-5.48-.51-.64-1.11-1.22-1.37-2.03,0-.28-.11-.5-.39-.59h.01Z"/>
        <path class="cls-9" d="M268.08,351.93c.29.09.39.31.39.59-.13-.2-.26-.39-.39-.59Z"/>
        <path class="cls-8" d="M278.77,364.55c.85-.03.82.54.77,1.12-.38-.29-.75-.59-.77-1.12Z"/>
        <path class="cls-8" d="M276.48,362.26c.21.05.34.17.38.38-.21-.05-.32-.19-.38-.38Z"/>
        <path class="cls-8" d="M276.86,362.64c.22.04.35.17.38.39-.23-.03-.34-.17-.38-.39Z"/>
        <path class="cls-8" d="M277.24,363.02c.23.03.35.16.38.39-.24-.02-.36-.16-.38-.39Z"/>
        <path class="cls-8" d="M277.62,363.41c.23.03.35.16.38.39-.24-.02-.36-.15-.38-.39Z"/>
        <path class="cls-8" d="M278.01,363.79c.23.03.35.16.39.39-.24-.02-.37-.15-.39-.39Z"/>
        <path class="cls-8" d="M278.39,364.17c.22.03.35.16.38.39-.24-.01-.37-.15-.38-.39Z"/>
        <path class="cls-8" d="M279.55,365.7c.22.06.32.22.35.44-.1,0-.2-.03-.29-.07,0-.12-.02-.25-.06-.37Z"/>
        <path class="cls-6" d="M279.61,366.06c.09.04.19.06.29.07,0,0,0-.05,0-.05-.02.13-.01.25.02.38h0c-.11-.13-.21-.26-.32-.39Z"/>
        <path class="cls-6" d="M280.24,366.48c0,.09,0,.18,0,.27-.1-.1-.21-.19-.31-.29,0,0,0,0,0,0l.19.04h.19s-.06,0-.06,0Z"/>
        <path class="cls-8" d="M276.11,361.87c.21.04.33.17.38.38-.2-.05-.32-.18-.38-.38Z"/>
        <path class="cls-7" d="M292.26,374.01c-.85-2.77-1.69-5.54-2.54-8.31.41-.04.77-.15.92-.6,1.22,2.84,2.13,5.74,1.61,8.9Z"/>
        <path class="cls-2" d="M282.59,333.17c.07-.43.27-.72.75-.7.31.6.63,1.19.94,1.79-.06.37-.11.75-.17,1.12-.24.11-.49.18-.76.08-.01-.34-.14-.61-.48-.75-.27-.48-.32-1-.29-1.54Z"/>
        <path class="cls-4" d="M279.16,336.28c.79,0,1.57.01,2.36.02-.79.42-1.58.72-2.36-.02Z"/>
        <path class="cls-1" d="M284.12,335.37c.06-.37.11-.75.17-1.12.3.43.44.83-.17,1.12Z"/>
        <path class="cls-1" d="M264.94,324.71c-.14-.06-.28-.12-.42-.18.19-.05.35-.05.42.18Z"/>
        <path class="cls-1" d="M265.37,325.06c-.15.01-.22-.05-.21-.2.14,0,.21.06.21.2Z"/>
        <path class="cls-6" d="M266.36,326.27c-.06.2-.13.39-.19.59-.12-.18-.25-.37-.38-.55.17-.23.36-.24.56-.03Z"/>
        <path class="cls-4" d="M259.75,317.71c-.25.73-.71,1.2-1.35.49-1.49-1.66-2.78-3.46-2.62-5.87.03-.43.1-.88.25-1.29.72-2.08,1.78-2.36,3.45-.69,1.18,1.19,1.66,5.54.87,7.02-.05.09-.21.13-.31.2,0-.88,0-1.76.02-2.64.02-1.15-.18-2.27-.76-3.27-.27-.47-.52-1.14-1.23-.95-.54.15-.65.76-.68,1.24-.16,2.3.19,4.42,2.38,5.77Z"/>
        <path class="cls-9" d="M259.75,317.71c-2.18-1.35-2.54-3.46-2.38-5.77.03-.48.15-1.09.68-1.24.71-.19.96.48,1.23.95.58,1,.78,2.12.76,3.27-.01.88-.01,1.76-.02,2.64-.08.08-.17.13-.28.15Z"/>
        <path class="cls-4" d="M254.11,299.99c-.65.05-1.13-.17-1.33-.83.59.05.96.45,1.33.83Z"/>
        <path class="cls-9" d="M267.66,304.86c.67.39.3,1.02.38,1.55,0,0-.02.03-.02.03-.31.17-.37.44-.33.76-.12.21-.22.44-.37.62-.8.96-.84.95-1.59-.21.02-1.36,1.06-2,1.94-2.76Z"/>
        <path class="cls-1" d="M267.66,304.86c-.88.76-1.92,1.4-1.94,2.76-.55-.52-.53-1.27-.14-1.69.99-1.08,1.53-2.55,2.85-3.33.3.94-.63,1.47-.77,2.26Z"/>
        <path class="cls-4" d="M267.68,307.21c-.04-.32.02-.59.33-.76.11.35,0,.6-.33.76Z"/>
        <path class="cls-1" d="M268.81,302.31c-.12,0-.23,0-.35-.02.14-.35.25-.28.35.02Z"/>
        <path class="cls-8" d="M282.59,333.17c-.04.54.02,1.06.29,1.54-.25.02-.52,0-.75.08-2.42.84-2.39.21-3.34-1.47.72-.54,1.64-.57,2.44-.88.69-.27.99.33,1.36.74Z"/>
        <path class="cls-2" d="M273.48,308.78c.15.14.29.29.44.43-.14.14-.27.29-.41.43-.17-.18-.35-.36-.52-.54.02-.1.05-.2.08-.3.14,0,.27-.02.41-.02Z"/>
        <path class="cls-2" d="M271.92,311.26c.07-.45.38-.56.77-.57-.17.31-.47.44-.77.57Z"/>
        <path class="cls-1" d="M271.89,325.99c.53,0,1.06.01,1.58.02-.53.51-1.06.51-1.58-.02Z"/>
        <path class="cls-3" d="M282.94,366.07c-.89-1.03-1.77-2.06-2.66-3.08.18-.82-.14-1.45-.66-2.07-1.76-2.08-3.38-4.27-5.24-6.25-1.7-1.81-2.63-3.76-2.51-6.29.12-2.55-.24-5.05-1.9-7.16.37-.2.3-.45.14-.78-1.17-2.4-2.93-4.41-4.28-6.69-.31-.53-.91-.92-.82-1.66,1.37.95,2.8,1.83,3.5,3.47.58,1.34,1.42,2.48,2.39,3.61,1.83,2.13,3.04,4.62,3.31,7.5.1,1.13.47,2.23.4,3.39-.03.56.43.88.7,1.3,1.19,1.78,2.95,3.12,3.92,5.07,1.3,2.59,2.62,5.17,3.91,7.77.32.64.49,1.32-.2,1.88Z"/>
        <path class="cls-9" d="M274.97,339.31c1.79,1.83,2.86,4.16,4.19,6.3,2.75,4.43,5.01,9.11,7.04,13.91.12.29.17.61.25.91-.37-.03-.74-.06-1.11-.1-1.73-3.59-3.42-7.2-5.21-10.76-1.45-2.87-2.84-5.78-4.56-8.51-.33-.53-.7-1.07-.6-1.76Z"/>
        <path class="cls-8" d="M285.33,360.34c.37.03.74.06,1.11.1,1.46,2.68,2.27,5.62,3.36,8.45.56,1.45,1.06,2.93,1.66,4.59-1.43-.48-2.14-1.42-2.84-2.38-.42-2.94-1.39-5.71-2.53-8.44-.31-.75-.69-1.48-.77-2.31Z"/>
        <path class="cls-3" d="M261.16,327.81c-1.3.24-2.64-.01-3.95.33-.83.22-1.26-.59-1.55-1.15-1.34-2.64-3.06-5.08-4.13-7.87.88-.08,1.2.57,1.47,1.21.83,1.91,2.04,3.6,3.07,5.39.38.67.83.96,1.61,1.07,1.19.17,2.52-.02,3.47,1.02Z"/>
        <path class="cls-3" d="M265.01,332.08c-.68-.28-1.13-.73-1.14-1.52.99.04,1.19.69,1.14,1.52Z"/>
        <path class="cls-9" d="M273.05,336.45c.47.53.97,1.03,1.17,1.74-.92-.22-1.05-.97-1.17-1.74Z"/>
        <path class="cls-9" d="M274.2,338.17c.47.25.7.65.78,1.16-.77-.05-.81-.58-.78-1.16Z"/>
        <path class="cls-3" d="M263.86,330.55c-.59-.15-.73-.66-.93-1.13.81-.03.98.46.93,1.13Z"/>
        <path class="cls-3" d="M251.24,318.71c-.09-.11-.19-.21-.28-.32.09.11.19.21.28.32Z"/>
        <path class="cls-3" d="M262.71,329.12c-.12-.17-.24-.35-.36-.52.12.17.24.35.36.52Z"/>
        <path class="cls-8" d="M269.97,341.21c1.67,2.11,2.02,4.61,1.9,7.16-.12,2.53.81,4.48,2.51,6.29,1.86,1.98,3.48,4.18,5.24,6.25.53.62.84,1.25.66,2.07-.55-.17-.76-.71-1.17-1.04-1.54-2.26-3.55-4.13-5.25-6.26-.67-.84-1.36-1.67-2.06-2.49-1.34-1.59-1.34-3.59-1.33-5.43,0-2.31-.74-4.16-2.02-5.98-2.31-3.26-4.53-6.58-6.71-9.93-.59-.9-1.25-1.34-2.32-1.3-1.33.05-2.67.15-3.93-.46-4.21-6.43-5.71-9.27-5.68-10.75.78.09.95.81,1.24,1.31,1.22,2.08,2.64,4.04,3.68,6.22.71,1.49,1.77,2.24,3.59,2.19,3.39-.08,2.66-.58,4.77,2.4,2.05,2.89,4.1,5.78,5.97,8.79.23.37.6.64.91.96Z"/>
        <path class="cls-1" d="M171.46,371.58c-.12-.74-.32-1.5.31-2.13.01.73.09,1.47-.31,2.13Z"/>
        <path class="cls-8" d="M204.89,343.61c-.46,1.83-.81,3.69-1.16,5.54-.15.82-.24,1.79-1.08,2.33-.08-.1-.23-.2-.22-.29.1-2.43.08-4.89,1.36-7.11.26-.46.61-.61,1.1-.48Z"/>
        <polygon class="cls-8" points="205.21 343.26 205.22 343.36 205.11 343.37 205.21 343.26"/>
        <path class="cls-8" d="M274.1,294.7c1.27.96,1.71,2.17,1.62,3.62-.03.41-.28.73-.65.83-.44.12-.7-.25-.84-.59-.52-1.21-.98-2.44-.13-3.85Z"/>
        <path class="cls-8" d="M280.3,366.48h-.19s-.19-.03-.19-.03c-.04-.12-.05-.25-.02-.38.22.04.35.18.4.4Z"/>
        <path class="cls-1" d="M197.01,293.43c1.75.11,1.83,1.44,1.97,2.72-.11,1.37-.71,2.56-1.55,3.6-.78.98-1.63.86-2.24-.21-1.1-1.93-.37-4.4,1.82-6.11ZM197.89,296.12c0-.13,0-.32-.03-.51-.05-.3,0-.67-.34-.81-.43-.19-.72.14-.95.42-.79.94-.78,2.08-.71,3.22.02.32.11.64.47.72.43.1.71-.13.93-.47.51-.77.59-1.64.62-2.58Z"/>
        <path class="cls-1" d="M192.38,359.94l-.16.09s-.18-.05-.18-.05c.08-.37.2-.32.34-.03Z"/>
        <path class="cls-1" d="M208.1,331.7c-.12.39-.21.82-.77.77-.03-.54.19-.84.77-.77Z"/>
        <path class="cls-8" d="M197.89,296.12c-.03.94-.12,1.81-.62,2.58-.22.33-.51.57-.93.47-.36-.09-.45-.4-.47-.72-.07-1.14-.08-2.27.71-3.22.23-.28.52-.61.95-.42.33.14.29.51.34.81.03.19.02.38.03.51Z"/>
      </g>
    </g>
  </g>
</svg>