<?xml version="1.0" encoding="UTF-8"?>
<svg id="GRIFOS" xmlns="http://www.w3.org/2000/svg" viewBox="0 0 458.93 422.16">
  <defs>
    <style>
      .cls-1 {
        fill: #b76e36;
      }

      .cls-1, .cls-2, .cls-3, .cls-4, .cls-5, .cls-6, .cls-7, .cls-8, .cls-9, .cls-10, .cls-11, .cls-12, .cls-13, .cls-14 {
        stroke-width: 0px;
      }

      .cls-2 {
        fill: #b27847;
      }

      .cls-3 {
        fill: #e4d4a2;
      }

      .cls-4 {
        fill: #ac733e;
      }

      .cls-5 {
        fill: #c6af7d;
      }

      .cls-6 {
        fill: #1f1b17;
      }

      .cls-7 {
        fill: #885a26;
      }

      .cls-8 {
        fill: #af7850;
      }

      .cls-9 {
        fill: #75421a;
      }

      .cls-10 {
        fill: #5c2f17;
      }

      .cls-11 {
        fill: #b27846;
      }

      .cls-12 {
        fill: #c8a270;
      }

      .cls-13 {
        fill: #19110c;
      }

      .cls-14 {
        fill: #a4602d;
      }
    </style>
  </defs>
  <g id="Legs">
    <g id="L2">
      <path class="cls-6" d="M213.08,333.16c.8.13.94.78,1.06,1.41.22,1.21.43,2.42.6,3.63.3,2.17,1.18,4.14,2.07,6.1,1.12,2.46.86,2.9-1.79,3.03-.04,0-.08.05-.18.11.45,2.75,1.53,5.3,2.74,7.81.13.27.29.52.41.78.56,1.18.2,1.85-1.13,1.98-.73.07-1.47-.02-2.21-.03-.19,0-.38.04-.62.07.54,3.25-.11,6.29-1.27,9.25-.09.23-.18.46-.28.68-.25.57-.59.73-1.12.28-.71-.59-1.45-1.14-2.12-1.67-.35.06-.39.28-.46.44-1.8,4.83-3.64,9.64-4.79,14.68-.25,1.1-.44,2.22-.4,3.36.01.39.03.79.47,1,.47.22.85.06,1.21-.24.6-.5,1.09-1.14,1.81-1.5,1.38-.69,2.77-1.1,4.11.05.45.39.91.26,1.39.23,3.26-.24,5.78,1.22,6.91,4.3.83,2.27.84,4.64-.41,6.83-.53.93-1.07.87-1.55-.09-.15-.3-.23-.65-.38-.95-.65-1.23-.83-1.37-2.3-1.82-.23.05-.27.24-.33.43-.94,3.49-4.15,5.19-7.53,4-1.5-.53-2.97-.14-4.04,1.17-.66.8-1.35,1.56-2.16,2.2-.5.39-.74.87-.8,1.51-.13,1.62-.78,3.04-1.92,4.2-.45.46-.63.97-.67,1.58-.25,3.63-2.93,5.87-6.54,6.12-.73.05-1,.31-1.23.94-.66,1.81-.6,3.66-.53,5.53.06,1.65-.39,1.96-1.85,1.14-2.22-1.25-3.44-3.32-4.22-5.65-.72-2.13-.83-4.37-.4-6.56.22-1.11.1-2-.59-2.9-.87.25-1.63.73-2.09,1.51-2.04,3.49-7.21,4.54-10.79,1.95-1.56,1.46-2.38,3.31-2.83,5.35-.2.91-.37,1.82-.36,2.77,0,.84-.37,1.05-1.11.65-1.14-.61-1.74-1.73-2.31-2.8-2.01-3.78-1.51-7.6.05-11.37.29-.69.33-.99-.36-1.36-.64-.34-1.25-.78-1.55-1.52-.22-.56-.58-.39-.94-.13-2,1.43-3.32,3.31-3.8,5.75-.12.58.13,1.47-.69,1.59-.74.11-.97-.74-1.3-1.25-2.33-3.56-1.94-8.62.83-12.14,1.29-1.64,2.94-2.72,4.85-3.46.46-.18.86-.36,1.12-.85.38-.71,1.02-1.18,1.69-1.61,1.61-1.05,3.27-1.28,5-.33,1.78.98,3.66,1.12,5.67,1.09,3.04-.04,5.56-1.4,8.14-2.64,1.25-.6,2.01-1.85,2.86-2.93,1.3-1.66,2.47-3.43,3.87-5.02.16-.18.32-.39.41-.61,1.6-4.27,3.38-8.48,4.32-12.97.03-.15.06-.28-.07-.41-.29-.11-.55.09-.82.15-1.08.26-1.58-.11-1.52-1.22.03-.59.14-1.17.19-1.76.28-3.53-.7-6.8-2.03-10.07-.41.19-.52.77-1.04.68-.41-.07-.71-.32-1.01-.58-1.97-1.74-3.6-3.77-4.96-6.01-1.22-2.02-2.21-4.16-2.84-6.45-.43.13-.41.51-.5.82-.11.38-.22.8-.66.9-.49.11-.66-.33-.88-.64-.6-.84-1.07-1.76-1.45-2.72-1.45-3.71-2.09-7.56-2-11.54.02-.79.15-1.57.54-2.27.31-.58.72-.61,1.15-.11.19,2.14-.05,4.29.33,6.44.43,2.43.94,4.82,1.99,7.19.57-.87.73-1.84,1.44-2.49.14,0,.27-.02.41-.03.48.76.7,1.61.92,2.47.91,3.4,2.43,6.53,4.48,9.38.72.99,1.4,2.07,2.48,2.81.28-.42.38-.74.39-1.09.57-.39.97-.16,1.37.31,1.21,1.41,2.42,2.82,3.77,4.11.6.58,1.24,1.11,1.92,1.59.15.11.29.28.24.5-.08.32-.36.26-.6.28-.15.01-.29,0-.44-.02-.6-.91-1.54-1.41-2.38-2.03-.02-.03-.03-.07-.05-.1-.01-.01-.05,0-.08-.01.04.04.09.07.13.11,0,.19-.03.41.04.57.94,2.23,1.19,4.58,1.15,6.97,0,.34-.04.7.05,1.01.1.35.35.21.54.02,1.25-.78,1.99-1.99,2.67-3.24.51.21.62.73.86,1.15.62,1.07.95,2.26,1.42,3.38.37.88.79.92,1.37.15.56-.75,1.01-1.56,1.41-2.41.13-.29.21-.73.65-.69.31.03.43.37.56.63.11.22.21.45.36.64.58.75.96,1.7,2.04,2.08.28-.8.43-1.53.52-2.31.07-.59.06-1.41.76-1.62.58-.18.87.53,1.25.88.65.6,1.25,1.25,1.88,1.88.63.62,1.24,1.26,1.9,1.85.4.36.8.39.99-.25.54-1.79.98-3.62.81-5.48-.17-1.79-.4-3.6-1.01-5.31-.11-.31-.16-.61.15-1.07.81,2.03,2.32,2.72,4.35,2.93-1.27-2.76-2.44-5.4-2.96-8.24-.23-1.29-.82-2.38-1.63-3.39-.17-.2-.51-.34-.36-.71.09-.05.17-.1.26-.15.28-.14.44.08.66.19.98.49,1.88,1.17,3.17,1.36-.42-1.01-.75-1.87-1.13-2.71-1.31-2.87-1.24-5.91-1.1-8.95,0-.16.21-.31.31-.47ZM168.48,397.07c.11-.02.23-.04.34-.07.99.17,1.68-.26,1.94-1.2.81-.5,1.72-.41,2.55-.26,1.66.31,3.26.26,4.83-.35.28.61.91.75,1.43,1.03-.24.23-.65.35-.55.81-.09.27-.19.55-.28.82-.93-.34-1.86-.71-2.89-.45-.01.71.85.81.73,1.45l-.23.57c-.32-.3-.66-.58-.95-.9-.84-.95-1.9-1.3-3.14-1.28-1.4.03-2.37.79-3.24,1.76.09.36.29.38.55.15.4-.11.8-.13,1.21,0,.12.06.23.12.35.18.16.04.32.09.49.13-.01.09,0,.17.02.26.06.28.09.56.17.83.13.38-.05.52-.39.57-1.01-1.06-1.64-1.18-2.77-.45-.85.55-1.77,1.04-2.35,1.93-2.59,2.14-4.54,8.63-1.89,12.58.42-.5.4-1.08.42-1.65.09-.11.23-.2.27-.32,1.04-2.76,2.65-4.96,5.62-5.87,1.15-.35,1.57-1.22,1.53-2.36.38,0,.77,0,1.15,0,.04.51.06,1.01-.11,1.5-.06.1-.11.19-.17.29-.24,1.23-1.48,1.45-2.34,2.2,1.45.81,2.83.79,4.3.43,2.5-.61,3.59-2.51,4.4-4.57.67-.17.7.83,1.33.5.82-.42,1.69-.75,1.91-1.84.28-1.4,1.08-2.51,2.18-3.4.77-.62,1.59-1.17,2.52-1.49.68-.23,1.24-.62,1.64-1.18,1.09-1.51,2.23-2.99,2.72-4.84.38,0,.77,0,1.15,0-.17.59-.34,1.19-.55,1.91,1.33-.31,2.44.05,3.46.76-.03.18-.06.37-.08.55-.46-.16-.91-.42-1.38-.48-1-.12-1.98,0-2.64.91-.16.22-.39.52-.24.81.15.29.54.14.8.25,0,.29,0,.57,0,.86-.2-.02-.41-.04-.61-.06-.18-.23-.36-.24-.55-.01-.46.17-1.06.35-1.08.83-.03.62.78.32,1.1.66.06.06.16.09.25.13,0,.25-.08.44-.3.57-.19-.01-.4.02-.58-.04-1.78-.65-3.21-.07-4.43,1.26-1.07.92-1.49,2.14-1.58,3.52.53-.67,1.17-1.19,1.83-1.69,1.64-1.21,3.22-.98,4.46.66.59.79.99,1.68,1.39,2.58.04.26.08.52.11.78.14,1.62-.18,3.08-1.38,4.26-.09.09-.11.26-.17.4-.05.06-.15.16-.14.19.11.16.2.06.29-.04,2.67-.17,4.43-1.98,4.67-4.8.36-.86.27-1.76.29-2.65.96.14,1.38-.05,1.65-1.06.44-1.69.84-3.4.96-5.16.06-.22.08-.47.3-.61h.43c-.03.39-.05.78-.08,1.18.16.51.36.26.55.02,1.82-1.1,2.34-3.14,3.31-4.91.45.6-.14,1.08.13,1.58.57-.01.99-.39,1.48-.57.82-.29,1.51-.41,2.42.04,3.37,1.66,5.93-.84,5.78-3.77-.07-1.34-.57-2.46-1.03-3.64-.84-2.16-2.48-2.59-4.39-1.15,0,.2-.02.39-.02.59-.49-.04-.92.18-1.36.33-.67.23-.26.54-.07.84-.14.26-.38.32-.64.34-.48-.12-.81-.99-1.47-.3-.28.01-.51.09-.62.38-.74-.54-1.01-1.4-1.43-2.15-.05-.28-.1-.57-.15-.85,0-.2-.01-.4-.02-.6.19-1.18.19-2.37.16-3.56.24-.14.28-.36.26-.61.58-2.15,1.16-4.29,1.74-6.44.14-.3.37-.56.34-.92.83-2.52,1.87-4.96,2.88-7.41.62-1.5.53-1.81-.95-2.81-.6,1.04-.52,2.36-1.27,3.36-1.55-.69-2.46-1.92-3.48-3.16-.32.46-.6.86-.89,1.25-.32.43-.63.88-1.01,1.27-1.06,1.11-1.67,1.03-2.32-.31-.32-.66-.56-1.36-.84-2.04-.14-.35-.14-.79-.71-.99-.83,1.59-.52,3.43-1.3,5.27,1.66-.2,2.95.23,4.26.58,0,.16.01.33.02.49l-4.08-.45c-.18,0-.29.09-.35.26-.09.3-.17.6-.26.9-.4,1.16-.8,2.32-1.21,3.48-.01.29-.02.58-.03.88-.41.3-.49.76-.57,1.21-.21.26-.38.54-.36.9-.52.83-.74,1.77-.96,2.7-.19.15-.17.36-.15.57-.9,1.21-1.79,2.42-2.69,3.63-.19.18-.32.39-.31.66-1.65,1.53-2.75,3.52-4.34,5.11-.08.06-.11.13-.09.23-1.17.16-2.07.97-3.18,1.3.14.35.21.68.48.91.02.42.3.93-.37,1.12-.97-1.85-1.72-1.96-3.47-.47.19.37.39.74.59,1.12-.05.34.23.87-.22.97-.47.11-.14-.65-.54-.77-.87-2-2.49-.89-4-1.14.37.84.64,1.45.91,2.05-.37,0-.74.01-1.12.02-.34-1.08-.9-1.92-2.13-2.1-.58-.09-1.16-.21-1.73-.32-.5-.3-.87-.87-1.57-.76-.64-.25-1.31-.48-1.98-.32-.84.21-1.86.25-2.04,1.43.05.44-.1.84-.31,1.22-.28,0-.55.01-.83.02-.1.03-.2.05-.3.08-2.13.76-4.05,1.83-5.35,3.77-.29.04-.36.3-.49.5-1.27,2.13-1.65,4.39-.99,6.79.03.14.07.39.1.39.18,0,.19-.18.22-.32.24-.24.25-.57.33-.88.39-.09.48-.45.68-.72,1.47-1.95,3.06-3.74,5.85-3.49.83.07,1.12-.51,1.29-1.14.27-.98.47-1.98.7-2.97.35,0,.71.02,1.06.03,0,.58,0,1.16.01,1.74-.85,1.11-.62,2.89-2.19,3.45-.02.37.19.53.36.69.89.83,1.05.76,2.01-.09.87-.78,1.68-1.59,2.35-2.54.65.01.87-.33.79-.94,0-.08,0-.17.02-.25.22-.11.34-.29.36-.54,0,0,0,.02,0,.02ZM217.74,389.88v.02c-.5-2.24-2.67-3.74-4.87-3.28.38.6.75,1.17,1.11,1.74.08.67.18,1.35.24,2.02.04.47.24.74.73.71,1.03-.07,1.74.49,2.41,1.18.21.22.38.61.89.38.06-.72.35-1.48-.24-2.17-.02-.23-.06-.44-.26-.59ZM187.64,413.24c.46.02.85-.08,1.12-.52.71-1.16,1.48-2.28,2.15-3.47.51-.91.22-2.08-.59-2.81-.03-.34,0-.7-.11-1.01-.57-1.62-2.03-1.98-3.3-.85-1.01.91-1.72,2-2.12,3.3-.63,2.06-.59,4.16-.3,6.26.22,1.59.83,3.02,1.74,4.32.24.34.46.73,1.04.83.14-2.07-.14-4.09.38-6.05Z"/>
      <path class="cls-6" d="M269.52,325.06c.43-.33.82-.54,1.14.16.31.68.51,1.39.53,2.13.15,4.54-.7,8.89-2.62,13.02-.02.04-.04.09-.07.13-.43.64-.63,1.71-1.41,1.76-.92.06-.64-1.16-1.1-1.69-.02-.02-.09,0-.25,0-.68,2.41-1.76,4.69-3.09,6.85-1.3,2.11-2.87,3.99-4.7,5.65-.92.83-1.14.79-2.07,0-1.39,3.21-2.19,6.51-1.87,10.03.06.68.08,1.38.03,2.06-.06.93-.42,1.14-1.33.86-.19-.06-.38-.11-.56-.18-.18-.07-.34-.21-.59-.04.87,3.58,2.05,7.09,3.35,10.56.73,1.95,1.61,3.76,2.94,5.38,1.06,1.29,2.02,2.67,3.02,4.01,1.02,1.37,2.28,2.41,3.94,2.95.7.22,1.39.48,2.05.79,2.5,1.18,5.09,1.17,7.74.74.75-.12,1.41-.38,2.07-.73,2.37-1.26,4.87-.79,6.57,1.32.57.71,1.2,1.17,2.04,1.52,6.12,2.49,7.76,9.39,6.03,13.82-.38.97-.84,1.89-1.62,2.6-.53.48-.84.38-1.04-.31-.21-.75-.37-1.53-.6-2.27-.57-1.85-1.68-3.31-3.23-4.45-.51-.37-.89-.58-1.27.17-.46.92-1.37,1.37-2.23,1.87,2.06,3.83,2.44,7.73.8,11.76-.51,1.25-1.21,2.37-2.33,3.16-.86.61-1.33.36-1.44-.7-.23-2.16-.55-4.28-1.71-6.19-.41-.67-.82-1.34-1.51-1.89-1.55,1.31-3.39,1.68-5.36,1.53-2.32-.17-4.07-1.36-5.42-3.15-.59-.77-1.29-1.3-2.14-1.73-.57.78-.61,1.55-.46,2.41.64,3.84.05,7.43-2.28,10.65-.65.9-1.44,1.61-2.42,2.11-1.34.68-1.92.2-1.77-1.13.17-1.62.14-3.23-.3-4.83-.38-1.41-.35-1.44-1.8-1.6-1.14-.13-2.2-.47-3.19-1.03-1.87-1.05-2.79-2.71-2.98-4.8-.08-.86-.3-1.56-.93-2.23-.85-.9-1.33-2.07-1.5-3.31-.14-1.1-.62-1.93-1.48-2.61-.61-.49-1.16-1.04-1.65-1.67-1.06-1.36-2.5-1.8-4.13-1.22-2.75.97-5.26-.18-6.59-1.94-.27-.36-.49-.73-.61-1.16-.12-.42-.24-.85-.39-1.35-1.09.15-1.89.68-2.41,1.64-.12.22-.24.43-.32.66-.2.56-.37,1.28-1.06,1.23-.55-.04-.79-.71-.96-1.21-1.38-3.96-.37-8.73,4.01-10.37.92-.34,1.83-.31,2.76-.25.44.03.86.11,1.29-.11,2.28-1.17,3.84-.92,5.65.88.24.24.48.51.77.68.76.43,1.21.19,1.29-.69.11-1.39-.11-2.75-.43-4.09-.86-3.53-1.88-7.01-3.29-10.37-.59-1.4-1.06-2.84-1.62-4.34-.96.46-1.61,1.2-2.36,1.8-.48.38-.84.29-1.07-.18-.37-.75-.69-1.52-.96-2.3-.87-2.5-1.07-5.07-.74-7.68-.46-.34-.9-.13-1.31-.09-.59.05-1.19.08-1.76-.06-.98-.24-1.25-.79-.86-1.72.17-.41.34-.82.55-1.21,1.27-2.4,2.12-4.95,2.64-7.65-.46-.35-1.03-.07-1.54-.22-1.06-.32-1.29-.65-.89-1.69.48-1.23,1.07-2.42,1.52-3.66.79-2.18,1.22-4.45,1.5-6.75.12-.97.35-1.85,1.48-2.1.48,1.39.42,2.81.17,4.21-.46,2.65-.97,5.3-2.3,7.7-.03.06.03.17.06.32,1.58-.05,2.57-1.72,4.21-1.7.04.5-.12.83-.4,1.03-1.53,1.11-1.88,2.83-2.23,4.49-.37,1.74-.82,3.42-1.65,5-.23.43-.37.91-.55,1.36-.08.22-.27.45-.03.66.2.18.46.14.7.08,1.02-.25,1.93-.69,2.62-1.54.23-.28.26-.77.99-.85-1.32,4.01-1.37,7.98-.24,12.19,2.41-1.56,3.5-4.41,6.37-5.55-.25,1.4.37,2.54.55,3.77-.38,0-.76,0-1.14,0-.15-.34-.16-.76-.53-1.03-.31.38-.6.77-.92,1.13-.42.47-.39.94-.13,1.48.55,1.14,1.06,2.29,1.59,3.44.47,1.35.94,2.7,1.41,4.05.11.33.25.62.64.71,0,.19.01.39.02.58,0,1.5.76,2.81,1.05,4.24.15.74.19,1.54.7,2.18.01.13.03.26.04.4-.12,1.03.11,2.04.23,3.06.25,2.11-.9,3.57-2.06,5.07-.15-.13-.19-.16-.21-.19-.1-.17-.2-.33-.28-.51-.33-.73-.51-.81-1.09-.36-.19.15-.31.37-.46.56-.16-.01-.32-.02-.49-.03q.3-1.46-1.28-2.07c0-.1,0-.2-.03-.29-1.29-1.24-2.09-1.23-3.81.04-1.67,1.98-1.77,4.26-1.28,6.65.09.45.34.8.63,1.14,1.12,1.3,2.99,1.69,4.83.7.98-.53,1.72-.42,2.59-.07.45.18.88.38,1.3.57.34-.21.09-.61.35-.8.67.48.78,1.34,1.28,1.93.26.98.91,1.64,1.79,2.09.14.18.31.45.54.26.17-.14.07-.45-.02-.67.02-.2.03-.4.05-.6.2.02.4.05.6.07v.02c.39,1.16.64,2.34.65,3.59.02,1.29.4,2.5,1.28,3.51.45-.44.26-1.11.72-1.58.07,1.4.31,2.7.33,4.03.06,2.89,1.88,4.66,4.96,4.92,0-.49-.31-.81-.58-1.14-.89-1.09-1.31-2.27-.91-3.69.1-.37.05-.78.06-1.17.41-1,.84-1.99,1.55-2.82,1.06-1.23,2.42-1.46,3.82-.64.64.37,1.2.84,1.61,1.47.16.24.2.66.68.59.1-1.05-.17-1.94-.86-2.72-.02-.17-.11-.29-.28-.32l.02.02c-.02-.19-.13-.29-.31-.32h.02c-.69-.72-1.48-1.31-2.39-1.74.05-.44.25-.58.68-.42.43.16.86.21,1.12-.3.17.05.35.1.52.14,1.57,1.17,3.06,2.4,3.29,4.54.04.34.31.46.56.61.41.26.81.53,1.21.8.12.15.22.13.3-.04,0,0,.01-.01.01-.01.38,0,.75,0,1.13,0,.28.56.59,1.12.85,1.69,1.07,2.37,5.38,3.55,7.58,1.8-.18-.11-.33-.22-.51-.29-1.47-.6-1.98-1.78-2-3.26,0-.68-.04-1.37-.05-2.05.33-1.58.76-3.1,2.45-3.81.57-.06,1.17.13,1.72-.15.29-.15.24-.32.05-.52-.22-.23-.43-.46-.65-.69.02-.24.03-.47.05-.71.73-.19,1.13.62,1.81.57.37.28.57.68.77,1.07.56,1.12,1.35,1.99,2.45,2.61.88.5,1.21.53,1.95-.11.34-.29.54-.56.06-.93-1.35-1.05-1.84-2.48-1.8-4.14,0-.29.01-.59-.19-.84.09-1.35.8-2.35,1.77-3.21.48-.25.33-.52,0-.76-1.67-1.23-3.51-.95-4.78.72-.27.02-.13-.59-.54-.35-.9.26-1.86.25-2.72.65-.4.01-.8.03-1.2.04-.69-.49-1.5-.34-2.26-.37-1.41-.06-1.78.28-2.04,1.8-.77.1-.71-.44-.72-.92.16-.44.65-.73.59-1.34-.38-.14-.78-.31-1.18-.45-1.21-.42-1.25-.41-2.19.64-.3.12-.47.68-.79.47-.44-.28.17-.64.11-1,.12-.37.81-.8.29-1.08-.73-.39-1.43-1.02-2.38-.87-.12-.06-.24-.12-.36-.18-.96-1.25-1.89-2.53-2.89-3.75-.67-.82-1.1-1.85-2.04-2.45-.47-1.37-1.73-2.17-2.41-3.38.02-.06.01-.12-.02-.17-.01-.21-.03-.43-.04-.64-.53-1.48-1-2.99-1.72-4.39,0-.34.02-.69-.34-.89-.4-1.36-.8-2.72-1.19-4.08-.08-.21-.16-.41-.25-.62.02-.33-.16-.6-.29-.88-.32-1.59-.62-3.18-.95-4.77-.06-.3-.22-.56-.59-.26-.47,0-.94,0-1.41,0,.2-.79.47-1.55,1.13-2.09.34.02.7.08.93-.27.72.86,1.09,2.04,2.32,2.4.11.09.21.19.32.28.31.32.34.32.44,0-.15-2.99.34-5.89,1.26-9-.99.75-1.76,1.34-2.53,1.93-.26-.09-.69-.11-.45-.53.22-.37.57-.67.88-.98,1.61-1.58,3.22-3.16,4.62-4.94.35-.45.7-.66,1.12-.08,0,.15,0,.3.02.44.03.23-.06.52.23.64.28.11.45-.11.63-.27.18-.17.35-.34.51-.53,2.42-2.94,4.53-6.09,5.56-9.79.52-1.89,1.61-3.72.96-5.82.11-.29.02-.66.35-.87l.03-.04c.45,1.79.94,3.56,1.91,5.19.1-.15.2-.26.25-.39,1.13-3.24,1.98-6.54,1.97-10.01,0-1.07-.15-2.15.06-3.22ZM257.34,419.16c.44-.15.67-.52.87-.91.05-.04.06-.09.02-.15.63-.7.97-1.53,1.22-2.44.61-2.18.82-4.35.23-6.56.11-2.14-.91-3.72-2.49-5.03-.51-.42-1.12-.47-1.63-.1-.82.6-1.66,1.25-1.55,2.47-.19.15-.22.35-.23.58-.73,1.1-.64,2.16.3,3.4.67.88,1.4,1.72,1.79,2.79.32.45.48,1.02,1.07,1.23.22,1.25-.09,2.56.39,3.79,0,.3-.02.6-.02.89-.11.02-.15.07-.11.16.05-.04.1-.08.15-.13ZM226.59,389.89c-.41.32-.27.78-.3,1.19-.48.59-.25,1.21-.18,2.14.82-1.21,1.68-1.9,2.82-2.13,1.26-.26,1.37-.34,1.5-1.6.03-.34.05-.68.08-1.02.36-.62.72-1.24,1.1-1.89-2.27-.45-4.27.9-5.01,3.31h0ZM284.77,394.34c-.29-.42-.74-.55-1.21-.68-1.77-.52-2.31-.14-2.48,1.76-.24.98-.08,1.93.21,2.88.27.9.67,1.09,1.68,1.14.76.04,1.59,0,2.23.48,1.01.75,2.02,1.5,2.74,2.61.35.55.67,1.2,1.31,1.54.15.17.16.71.54.3.25-.27.36-.67.38-1.08.12-2.22-.3-4.27-1.8-6-.88-1.37-2.03-2.41-3.6-2.95ZM272.09,404.63c-.22,1.39.42,2.19,1.7,2.67.77.28,1.55.53,2.22,1.07,1.52,1.23,2.61,2.73,3.19,4.59.1.31.22.52.52.63.03.6-.1,1.22.26,2.08.66-1.32,1.17-2.41,1.18-3.69.33-2.82-.21-5.43-1.88-7.77-1-1.41-2.17-2.64-3.69-3.47-1.16-.63-2.07-.37-2.69.65-.51.61-.65,1.35-.8,2.09,0,.38,0,.76-.01,1.14Z"/>
      <path class="cls-10" d="M213.08,333.16c-.11.16-.31.31-.31.47-.14,3.04-.21,6.08,1.1,8.95.38.84.71,1.7,1.13,2.71-1.29-.19-2.19-.87-3.17-1.36-.21-.11-.38-.32-.66-.19-.09.04-.17.1-.26.15-.15.37.2.5.36.71.81,1,1.39,2.09,1.63,3.39.52,2.85,1.69,5.48,2.96,8.24-2.03-.21-3.53-.89-4.35-2.93-.31.46-.26.76-.15,1.07.61,1.72.84,3.53,1.01,5.31.17,1.85-.27,3.69-.81,5.48-.19.64-.59.61-.99.25-.66-.59-1.27-1.23-1.9-1.85-.63-.62-1.23-1.28-1.88-1.88-.38-.35-.67-1.06-1.25-.88-.7.21-.69,1.03-.76,1.62-.09.78-.24,1.51-.52,2.31-1.08-.38-1.47-1.33-2.04-2.08-.15-.19-.24-.43-.36-.64-.13-.26-.25-.6-.56-.63-.44-.05-.52.4-.65.69-.4.85-.85,1.67-1.41,2.41-.57.77-1,.73-1.37-.15-.47-1.13-.8-2.32-1.42-3.38-.24-.42-.35-.94-.86-1.15.39-.68.26-1.42.29-2.15.01-.32-.16-.76.23-.92.44-.18.53.29.72.54.46.63.93,1.25,1.37,1.89.2.29.37.62.77.56.47-.06.35-.49.46-.79.26-.75.12-1.61.59-2.4.58.44,1.04.9,1.64,1.13.35.14.74.51,1.08.2.4-.36.27-.91.14-1.38-.1-.39-.46-.62-.73-.9-.54-.56-1.1-1.11-1.64-1.68-.18-.19-.26-.45-.1-.67.21-.28.45-.09.61.08.72.75,1.71.9,2.61,1.25.71.27,1.01,0,1.09-.68.28.08.55.2.83.23.85.09,1.63-.58,1.8-1.52.15-.85-.08-1.13-1.15-1.37-1.89-.62-2.9-2.21-4.02-3.67-.2-.26-.11-.56.18-.76,1.07.58,1.86,1.58,3.13,1.88,1.51.36,2.41-.42,2.11-1.96-.15-.77-.34-1.52-.51-2.29.28.08.56.19.84.23.54.08.94-.22.88-.72-.16-1.38-.6-2.68-1.44-3.97-.3.65.01,1.04.14,1.43.19.58.15,1.16.16,1.74.01.62-.4.7-.89.7-.08-.12-.14-.26-.24-.36-.2-.19-.39-.53-.71-.37-.35.17-.17.5-.07.75.15.37.13.76.14,1.14-.39-.1-.78-.19-1.17-.29-1.31-2.28-3-4.25-5.02-5.93-.9-1.16-2.1-2.05-2.9-3.3-.35-.55-.89-1.01-.94-1.94,1.61,1.27,2.92,2.68,4.83,3.1.26-.62.22-1.18.12-1.69-.14-.77-.32-1.53-.28-2.32l.05-.05c.26-.2.26-.5.28-.79.09-1.1-.32-2.1-.55-3.13-.09-.41-.16-.76-.68-.79-.23-.01-.42-.12-.07-.28.76-.35.19-.81.13-1.22,1.68.24,3.12,1.1,4.64,1.74,3.12,1.31,6.02,3.01,8.71,5.06ZM206.66,332.55c-.22.34-.1.64-.15.93-.16.84-.39.97-1.19.59-.44-.21-.84-.49-1.26-.73-.23-.13-.49-.17-.65.07-.11.17,0,.38.16.51.59.51,1.2,1,1.95,1.26.72.25,1.41-.15,1.54-.9.1-.57.14-1.16-.4-1.73ZM207.03,339.41s-.04-.08-.06-.11c-.03.03-.07.06-.08.1,0,.04.04.08.06.11.03-.03.05-.07.08-.1Z"/>
      <path class="cls-10" d="M239.88,364.2c-.18-1.23-.8-2.37-.55-3.77-2.87,1.15-3.96,3.99-6.37,5.55-1.12-4.21-1.08-8.18.24-12.19-.73.08-.76.57-.99.85-.69.84-1.6,1.28-2.62,1.54-.24.06-.5.1-.7-.08-.24-.22-.05-.45.03-.66.18-.46.32-.93.55-1.36.83-1.58,1.28-3.26,1.65-5,.35-1.66.7-3.38,2.23-4.49.27-.2.44-.52.4-1.03-1.64-.02-2.63,1.65-4.21,1.7-.03-.15-.09-.26-.06-.32,1.33-2.4,1.85-5.05,2.3-7.7.24-1.4.31-2.83-.17-4.21,1.29-1.12,2.71-2.05,4.22-2.84,2.83-1.48,5.67-2.96,8.8-3.76-.6.84.25,1.16.74,1.63-1.3.27-1.51.37-1.57,1.46-.05.95-.78,1.96.15,2.89.18.18-.03.56-.07.84-.12.87-.44,1.7-.41,2.59.03.91.21,1.02,1.08.64.49-.22.92-.55,1.38-.82.8-.47,1.28-1.36,2.24-1.58l.03.03c-.25,1.2-1.15,1.98-1.81,2.93-2.07,1.85-4.19,3.61-5.85,5.9-.68.95-1.27,2.08-2.36,2.71-.14-.96.62-1.75.55-2.7.14-.05.16-.09.06-.11-.01,0-.04.07-.07.11-.25.01-.47.09-.68.25-.35.26-.75.69-1.15.45-.47-.28-.26-.9-.21-1.36.07-.58.26-1.14.41-1.7.06-.23.2-.44-.11-.74-.6,1.08-1.22,2.1-1.22,3.37,0,1.29.04,1.34,1.37,1.45-.25.96-.24,1.93-.17,2.9.06.99.57,1.24,1.58,1.11,1.41-.18,2.35-1.13,3.42-1.89.01.34-.02.66-.23.97-.6.89-1.25,1.72-2.18,2.3-.72.46-1.28,1.06-1.4,1.94-.06.48.16.76.69.61.46-.13.84-.49,1.35-.5h0c.02.35-.1.67-.18,1-.1.4-.54.86-.15,1.21.37.34.93.2,1.41.04.6-.2,1.23-.35,1.74-.77.25-.21.51-.45.94-.35.14.38-.07.64-.32.88-.6.58-1.2,1.16-1.8,1.74-.47.45-.67,1.68-.27,1.97.57.42.97-.02,1.41-.35.45-.33.86-.78,1.52-.83.15.88.3,1.68.43,2.5.04.25.08.5.36.57.28.06.47-.11.57-.36.27-.7.86-1.18,1.25-1.81.26-.43.58-.9,1.37-.86,0,1.08,0,2.1,0,3.12,0,.24-.07.45-.3.57-1.57.19-2.93,1.02-4.41,1.49-.18-.27-.23-.65-.63-.77-.42.22-.49.69-.71,1.05-.51.83-1.06,1.64-1.75,2.33-.41.41-.68.28-.78-.27ZM241.1,333.36c-.82-.11-1.3.35-1.82.64-1.13.61-1.34.52-1.46-.7-.02-.25.15-.59-.31-.75-.41.62-.36,1.31-.15,1.94.18.55.68.92,1.28.73.97-.32,1.86-.79,2.46-1.85Z"/>
      <path class="cls-14" d="M199.73,326.37c.07.42.63.88-.13,1.22-.35.16-.16.27.07.28.51.03.58.38.68.79.24,1.04.64,2.04.55,3.13-.02.29-.02.59-.28.79-.05-.04-.1-.07-.15-.11.03.05.07.1.1.15-.04.79.14,1.55.28,2.32.09.51.14,1.07-.12,1.69-1.91-.42-3.22-1.83-4.83-3.1.05.94.59,1.39.94,1.94.8,1.24,2,2.14,2.9,3.3-.45,1.11-1.09,1.86-2.44,1.31-.13-.05-.36.12-.54.19-.18-.23-.35-.46-.54-.69-.34-.42-.54-.93-.97-1.29-.27-.22-.54-.5-.9-.28-.31.19-.2.51-.09.79.15.38.14.77.13,1.16-.69,0-1.4-.12-2.05.04-.74.18-1.32.05-1.89-.37.02-.08.05-.17.07-.25,1.12-1.02,1.13-1.33.08-2.08-.02-.48-.04-.96-.07-1.44-.02-.33-.15-.55-.51-.57-.1-.41.07-.76.16-1.14.14-.57.16-1.17-.04-1.74-.09-.26-.18-.62-.56-.57-.33.05-.49.35-.47.65.06.94-.23,1.84-.32,2.76-.03.28.05.66-.33.71-.31.05-.53-.24-.69-.48-.6-.95-1.31-1.83-1.77-2.87-.32-.72-.69-1.41-1.08-2.09-.21-.37-.53-.42-.8-.02-.12.19-.13.49-.54.41-.27-.41-.52-.88-.7-1.39-.14-.39-.16-1.03-.73-.91-.5.11-.64.7-.71,1.19-.03.23.07.48.11.72.21,1.33.8,2.51,1.37,3.7-.07.35-.26.42-.45.13-.37-.57-.63-1.19-.87-1.83-.1-.27-.12-.71-.65-.63-.17.31-.12.65-.11.98-.3.1-.51.31-.64.6-.29,0-.58,0-.87,0-.19.1-.38.2-.57.29-.56-.23-.73-.76-.89-1.27-.79-2.57-1.02-5.23-1.22-7.89.78-.49,1.7-.43,2.55-.54,6.31-.79,12.52-.28,18.61,1.61.64.2,1.34.25,1.91.66Z"/>
      <path class="cls-14" d="M248.16,334.07c-.96.22-1.45,1.11-2.24,1.58-.46.27-.88.61-1.38.82-.86.38-1.04.27-1.08-.64-.03-.89.29-1.72.41-2.59.04-.29.26-.66.07-.84-.94-.93-.2-1.95-.15-2.89.06-1.09.27-1.19,1.57-1.46-.48-.47-1.33-.79-.74-1.63,2.43-1.05,5-1.61,7.59-2.07,3.19-.57,6.42-.76,9.66-.58,2.05.11,4.1.31,6.08.89-.66.41-.63,1.08-.56,1.7.24,2.21-.59,4.23-1.08,6.31-.13.52-.35.92-.99.82,0,0-.03.04-.03.04-.47-.52-.98-.97-1.75-.93-.01-.28-.02-.56-.03-.83-.02-.23.03-.53-.32-.49-.2.02-.22.27-.22.46-.09.27-.25.49-.5.64-.15-.49-.13-.96.13-1.41.5-.85.38-1.62-.26-2.47-.71.83-.86,1.8-1.1,2.71-.27,1.03-.04,1.24,1.15,1.43-.02.8-.3,1.45-1.02,2.04-.19-.66-.34-1.17-.49-1.67-.12-.42-.35-.69-.83-.65.08-.43.18-.86.22-1.29.03-.32-.13-.61-.44-.7-.34-.1-.57.15-.66.44-.24.86-.66,1.65-1.12,2.4-.59.96-1.1,2.04-2.23,2.57-.41-.52-.25-1.03-.25-1.5,0-.71-.22-1.35-.48-1.99-.09-.22-.22-.48-.52-.41-.26.05-.4.28-.44.53-.15.89.04,1.75.22,2.62-.49.43-.5,1.01-.56,1.61-.11,1.24.21,2.43.33,3.65-.19.04-.44.03-.51.24-.27.75-.84.78-1.43.55-.52-.2-.96-.13-1.4.13-.45.27-.93.29-1.43.26.32-.96.78-1.88.59-2.95-.08-.47-.33-.62-.68-.3-.49.46-.92.99-1.38,1.48-.53-.87-.78-1.91-1.5-2.67.66-.94,1.56-1.73,1.81-2.93.04-.05.08-.1.12-.15-.05.04-.09.08-.14.12Z"/>
      <path class="cls-11" d="M265.32,333.5c.64.1.86-.29.99-.82.5-2.08,1.32-4.1,1.08-6.31-.07-.63-.1-1.29.56-1.7.58-.12,1.06.19,1.56.39-.21,1.07-.07,2.15-.06,3.22.01,3.47-.84,6.77-1.97,10.01-.05.13-.15.24-.25.39-.97-1.63-1.46-3.4-1.91-5.19Z"/>
      <path class="cls-11" d="M176.67,324.63c.2,2.66.43,5.32,1.22,7.89.16.51.32,1.03.89,1.27.05.81-.35,1.58-.18,2.4-.71.64-.87,1.62-1.44,2.49-1.05-2.37-1.56-4.76-1.99-7.19-.38-2.14-.14-4.3-.33-6.44.56-.35,1.16-.54,1.83-.42Z"/>
      <path class="cls-9" d="M202.39,346.79c-.28.2-.38.5-.18.76,1.12,1.46,2.13,3.05,4.02,3.67,0,.19,0,.39,0,.58-.04,1.31-.15,1.37-1.27.76-.22-.12-.45-.4-.79-.1.14.48.19,1.01.57,1.42-.08.69-.38.95-1.09.68-.91-.34-1.9-.49-2.61-1.25-.16-.17-.4-.36-.61-.08-.17.22-.08.48.1.67.54.57,1.09,1.12,1.64,1.68.27.28.63.51.73.9.12.47.25,1.02-.14,1.38-.34.31-.73-.06-1.08-.2-.6-.24-1.06-.69-1.64-1.13-.47.8-.33,1.65-.59,2.4-.11.31.01.74-.46.79-.41.05-.57-.28-.77-.56-.44-.64-.91-1.26-1.37-1.89-.19-.26-.28-.73-.72-.54-.39.16-.22.6-.23.92-.03.73.1,1.47-.29,2.15-.68,1.26-1.42,2.46-2.67,3.24,0-.34-.08-.72.04-1.01.74-1.79.99-3.62.57-5.52.15,0,.29.03.44.02.23-.02.52.05.6-.28.05-.22-.09-.39-.24-.5-.68-.49-1.31-1.02-1.92-1.59-1.35-1.29-2.56-2.69-3.77-4.11-.4-.47-.8-.7-1.37-.31-.5-1.02-.18-2.19-.57-3.23.12-.59-.24-1.27.33-1.78.59.89,1.13,1.82,1.77,2.68,1.29,1.72,2.85,3.05,5.01,3.6.65.17.97,0,1.08-.56.21-1.11.18-2.19-.57-3.2-.36.47-.14.93-.24,1.34-.19,0-.39,0-.58,0-.37-.19-.57-.48-.59-.9.14-.78.69-1.61,1.27-1.63.86-.03,1.74-.34,2.6-.09,1.37.41,2.59.07,3.76-.61.39-.23.8-.38,1.26-.33-.15.7.5,1.14.58,1.77Z"/>
      <path class="cls-1" d="M205.97,388.38c-.19-.3-.6-.61.07-.84.44-.15.87-.37,1.36-.33,1.14,1.05,1.69,2.41,1.95,4.1.8-1.98-.08-3.93-1.93-4.69,1.9-1.43,3.55-1.01,4.39,1.15.46,1.18.96,2.3,1.03,3.64.16,2.92-2.41,5.42-5.78,3.77-.91-.45-1.6-.34-2.42-.04-.49.18-.92.56-1.48.57-.27-.5.32-.97-.13-1.58-.97,1.77-1.49,3.81-3.31,4.91-.18,0-.36-.01-.55-.02.03-.4.05-.8.08-1.19.29-.47.17-.95.09-1.56-.32.57-.51,1.04-.52,1.57-.22.14-.24.39-.3.61-.4,0-.76-.02-.86-.54-.09-.47-.23-.93-.35-1.39.05-.23.1-.46.15-.69,1.29-1.27,1.92-2.92,2.41-4.57.35-1.17.6-2.46.21-3.74-.47-1.55-.67-3.12-.67-4.75,0-.7-.19-1.45-.56-2.1.2-.52.41-1.03.61-1.55.12-.31-.03-.42-.31-.44.03-1.02.22-2.02.59-2.97.51-.37,1.05-.4,1.69-.06.09-1.28.71-2.31.66-3.49h0c.31,1,.88,1.8,1.73,2.41-.58,2.15-1.16,4.29-1.74,6.44-.35.09-.57-.22-.86-.28h0c-.42-.9-.33-1.76.23-2.59.23-.34.58-.74-.11-1.1-.73,1.12-1.15,2.31-.99,3.66-.09,1.05.09,2.12-.28,3.16-.12.34-.04.77,0,1.15.02.19.28.44.36.26.39-.92.83-.11,1.23-.08,0,.2.01.4.02.6-.24.33-.22.62.15.85.42.76.69,1.61,1.43,2.15.09.45.31.78.87.9,0-.49.22-.94-.25-1.27.65-.68.98.18,1.47.3.48.63.51,1.45.79,2.32.58-1.28.57-1.44-.15-2.66Z"/>
      <path class="cls-2" d="M198.84,380.68c.37.65.56,1.4.56,2.1,0,1.63.2,3.2.67,4.75.39,1.28.14,2.56-.21,3.74-.49,1.65-1.12,3.31-2.41,4.57-.38-.14-.51-.71-1.04-.59l-.03.02c.05-.9.74-1.61.74-2.53.31.08.62.08.48-.36-.11-.35-.36-.65-.55-.97-.1-.11-.21-.22-.31-.33,0,0,0,.04,0,.04.25-.78-.48-.88-.86-1.22h.01c.15-.01.29-.01.44-.01.46,0,.92-.09.97-.64.05-.58-.47-.68-.87-.79-1.04-.27-1.87.15-2.61.84-.35-.15-.8-.22-1.03-.48-.52-.59-.71-.02-1.02.19-.13-.16-.3-.28-.5-.19-.9.38-.97-.15-.99-.84-.03-.92.01-1.81.53-2.67-1.14-.32-2.14.04-3.14-.01-.7-.04-1.06.27-1.17.81-.11.54-.19.95-.71,1.32-.32.23.21.39.43.51-.13.24-.27.49-.4.73-.46.44-.92.88-1.38,1.32-.39-.33-.78-.66-1.17-.99,1.58-1.59,2.69-3.58,4.34-5.11,2.97-.5,5.71-.03,8.15,1.85.57.44,1.3.43,1.99.25.28-.07.63-.2.69-.49.16-.77.27-1.56-.16-2.33-.31.17-.28.38-.32.56-.12.52.3,1.31-.58,1.45-.57.09-1.2.13-1.74-.16-.47-.25-.97-.48-1.25-.98.04-.19.07-.38.24-.52.71-.6.75-.8.28-1.49-.2-.29-.48-.48-.75-.7-.8-.67-1.82-.9-2.82-1.32,1.14-.66,2.3-.4,3.41-.46.77.04,1.39.46,1.96.89.7.53,1.38.65,2.15.24ZM185.13,388.35c-.08-.03-.18-.11-.24-.09-.06.02-.07.15-.11.23.08.03.18.11.24.09.06-.02.08-.15.11-.23Z"/>
      <path class="cls-1" d="M194.47,368.69c1.36.15,2.72.3,4.08.45.67.43,1.38.75,2.21.7-.63-.62-1.36-1.03-2.23-1.19-1.31-.35-2.61-.78-4.26-.58.78-1.84.47-3.68,1.3-5.27.57.2.57.65.71.99.28.68.52,1.38.84,2.04.65,1.34,1.26,1.42,2.32.31.37-.39.68-.84,1.01-1.27.29-.39.56-.79.89-1.25,1.02,1.24,1.93,2.47,3.48,3.16.75-1,.67-2.32,1.27-3.36,1.48,1.01,1.57,1.31.95,2.81-1.01,2.45-2.05,4.89-2.88,7.41-1.08-.42-1.34-.79-1.12-1.79.18-.83.47-1.63.71-2.44-.09-.04-.18-.08-.27-.12-.52.93-1.1,1.82-1.39,2.88,0,0,0,0,0,0-.72.23-.6.95-.81,1.46-.19.46-.26.97-.92.95-.01-.53-.02-1.07-.03-1.6,0-.29-.01-.59-.31-.76-1.92-1.12-3.82-2.3-6.15-2.36.09-.3.17-.6.26-.9.12-.09.23-.17.35-.26Z"/>
      <path class="cls-1" d="M191.81,392.57c-.49,1.85-1.63,3.33-2.72,4.84-.4.56-.96.95-1.64,1.18-.93.32-1.75.87-2.52,1.49-1.11.89-1.9,1.99-2.18,3.4-.22,1.09-1.08,1.42-1.91,1.84-.64.32-.67-.67-1.33-.5-.81,2.06-1.9,3.96-4.4,4.57-1.48.36-2.85.39-4.3-.43.86-.75,2.1-.97,2.34-2.2.11-.06.2-.14.17-.29.16-.49.15-.99.11-1.5.05-.21.11-.42.16-.63,1.56.15,3.04.1,3.99-1.44.39,0,.59-.2.59-.59.51-.16,1.1-.19,1.51-.49.91-.66,1.98-.97,2.97-1.46.71-.35,1.35-.79,1.5-1.66.44.07.52-.25.59-.56.45.03.69-.31.98-.56.55-.48.97-1.1,1.62-1.46,1.03-.16.35-.76.31-1.19,1.09-.33,1.74-1.2,2.28-2.08.28-.46.7-.65,1.07-.88.16-.1.22.63.67.59.05,0,.11.02.16.03Z"/>
      <path class="cls-7" d="M187.64,413.24c-.52,1.96-.24,3.98-.38,6.05-.57-.1-.8-.49-1.04-.83-.92-1.3-1.52-2.74-1.74-4.32-.29-2.11-.33-4.2.3-6.26.4-1.3,1.11-2.39,2.12-3.3,1.26-1.13,2.73-.78,3.3.85.11.31.08.67.11,1.01-1.79,1.91-2.75,4.16-2.67,6.8ZM185.5,414.25c.77-2.82,1.18-5.72,2.42-8.38.11-.24.19-.57-.22-.99-2.55,2.71-2.96,5.89-2.2,9.37Z"/>
      <path class="cls-1" d="M186.71,346.5c.39,1.04.07,2.21.57,3.23,0,.35-.11.67-.39,1.09-1.07-.75-1.76-1.82-2.48-2.81-2.05-2.85-3.57-5.97-4.48-9.38-.23-.85-.44-1.71-.92-2.47.48-.84.35-1.76.34-2.67.29,0,.58,0,.87,0-.07.73.42,1.28.6,1.94.92,3.4,2.32,6.6,4.17,9.6.4.65.88,1.3,1.73,1.47Z"/>
      <path class="cls-2" d="M199.74,375.72c-.36.96-.56,1.95-.59,2.97-.13.42-.65.62-.65,1.12-.15.07-.24.18-.23.35-.13.05-.25.11-.38.16-.05-.33-.24-.46-.57-.44-1.31-.97-2.7-1.65-4.41-1.55-.81.05-1.4.65-2.19.68.22-.94.44-1.87.96-2.7.93,1.12,2.31.82,3.51,1.07.46.09.68-.28.52-.77-.28-.86-1.41-1.51-2.4-1.11-.55.22-.86.02-1.27-.08.08-.45.15-.91.57-1.21,2-.43,3.86-.08,5.62.92.24.32.56.33.91.24.23.06.45.13.58.35Z"/>
      <path class="cls-9" d="M163.71,395.51c-.23.99-.43,1.99-.7,2.97-.17.63-.46,1.22-1.29,1.14-2.79-.25-4.37,1.53-5.85,3.49-.2.27-.3.63-.68.72.19-1.57.66-3.1,1.73-4.24.61-.64.93-1.18.84-2.01,1.54-1.56,3.43-2.15,5.58-2.1.12,0,.25.01.37.02Z"/>
      <path class="cls-1" d="M183.26,389c.39.33.78.66,1.17.99-1,1.38-2.02,2.74-3.47,3.68-.89.58-1.97.84-2.82,1.52-1.57.61-3.17.66-4.83.35-.83-.16-1.74-.24-2.55.26-.75.11-1.31.6-1.94.96-.07-.63-.82-.71-1.01-1.23.25-.11.5-.21.75-.32h.42c.29.29.54.04.78-.08.79-.39,1.59-.73,2.48-.8.37,0,.74-.01,1.12-.02.82.02,1.64.06,2.44-.23.36-.13.59-.3.65-.68.39.12.06.88.54.77.45-.1.18-.63.22-.97.47-.07.96-.03,1.37-.34.45-.34.97-.36,1.51-.31.67-.19.39-.7.37-1.12,1.12,0,1.84-.85,2.75-1.3.45-.22,0-.6-.05-.9-.02-.1.01-.18.09-.23Z"/>
      <path class="cls-13" d="M178.14,395.19c.85-.68,1.92-.93,2.82-1.52,1.45-.94,2.47-2.3,3.47-3.68.46-.44.92-.88,1.38-1.32.32.1.29.38.34.63-.1.36-.13.68.33.81.66.19,1.21.56,1.7,1.04-.11.09-.23.18-.34.28q-2.09-.77-3.44.95c-.09.11-.13.25-.27.54.81-.12,1.29.51,1.98.61.56.41,1.12.81,1.53,1.38.04.44.72,1.04-.31,1.19-.05-.9-.73-1.22-1.42-1.53-.44-.72-1.2-.77-1.91-.88-.66-.1-2.2.85-2.19,1.4,0,.76.91.53,1.26.95.03.04.06.08.09.11,0,.41-.25.53-.6.56-.9-.76-1.85-1.2-2.99-.49-.52-.28-1.14-.41-1.43-1.03Z"/>
      <path class="cls-2" d="M193.87,369.85c2.33.06,4.23,1.25,6.15,2.36.3.17.3.47.31.76.01.53.02,1.07.03,1.6-.66.61-1.26.28-1.83-.13-1.11-.79-2.34-1.17-3.69-1.29-.74-.06-1.43.4-2.17.18.4-1.16.8-2.32,1.21-3.48Z"/>
      <path class="cls-2" d="M192.23,406.54c-.39-.89-.79-1.79-1.39-2.58-1.24-1.64-2.82-1.88-4.46-.66-.66.49-1.3,1.02-1.83,1.69.09-1.38.5-2.6,1.58-3.52.33.33.73.27,1.1.12.52-.21,1.08-.24,1.6-.14.96.18,1.89.94,2.9.11.04-.04.3.21.47.29.21.1.36-.02.48-.19.58.39.66,1.26,1.43,1.48.45,2.05-.13,3.1-1.88,3.42Z"/>
      <path class="cls-7" d="M166.3,402.59c.58-.89,1.49-1.38,2.35-1.93,1.13-.73,1.76-.61,2.77.45.41.89,1.12,1.72.63,2.96-.92-.83-1.61-.27-2.27.31-.82.72-1.79,1.3-2.28,2.34-.87.58-1.34,1.46-1.71,2.39-.15.37-.25.71-.65.87-.17-.2-.35-.4-.52-.6.02-.88.79-1.48.84-2.35,1.18-1.55,2.32-3.13,4.01-4.19.66-.42,1.09-.98.55-1.88-1.26.56-2.35,1.36-3.36,2.27-.25-.14-.32-.39-.36-.65Z"/>
      <path class="cls-12" d="M194.74,379.56c-1.11.06-2.27-.2-3.41.46.99.42,2.01.65,2.82,1.32.26.22.55.41.75.7.47.68.43.89-.28,1.49-.17.14-.2.33-.24.52-1.91-1.04-3.89-1.54-6.04-.84-.13.04-.29.02-.44.02.9-1.21,1.79-2.42,2.69-3.63.38-.07.76-.17,1.15-.21,1.01-.1,2.03-.34,3,.18Z"/>
      <path class="cls-14" d="M197.3,396.53c.12.46.27.92.35,1.39.1.52.46.54.86.54-.13,1.76-.52,3.47-.96,5.16-.26,1.01-.69,1.2-1.65,1.06-.32-.22-.2-.48-.12-.77.11-.38.19-.79-.29-.99-.64-.27-.53-.73-.33-1.2.21-.49.5-.95.42-1.51,0-.28,0-.56,0-.84.64-.55,1.04-1.16.48-2-.05-.07.08-.26.12-.39h-.02c.17-.01.26-.12.31-.27.11,0,.23-.02.34-.02h-.04c.16.3.26.06.38-.05.05-.04.09-.07.15-.1Z"/>
      <path class="cls-2" d="M177.56,402.89c-.95,1.54-2.43,1.59-3.99,1.44-.15-1.75-.48-3.42-1.94-4.62-.02-.09-.03-.17-.02-.26.23-1.01.23-1.02.99-.53.53.34,1.13.62,1.48,1.18.55.87,1.25,1.19,2.24.75.17-.07.39-.03.59-.04.22.59.44,1.18.66,1.77,0,.1,0,.2,0,.3Z"/>
      <path class="cls-9" d="M165.14,409.99c.4-.16.5-.51.65-.87.37-.93.84-1.81,1.71-2.39.24.32.51.26.73,0,.9-1.06,2.24-1.33,3.41-1.9.26-.13.46-.1.63.13.03,1.14-.38,2.01-1.53,2.36-2.97.91-4.59,3.11-5.62,5.87-.05.12-.18.22-.27.32-.45-.45-.26-.95-.14-1.46.16-.69.3-1.38.45-2.07Z"/>
      <path class="cls-3" d="M163.34,395.49c-2.14-.05-4.04.54-5.58,2.1-.49.1-.77.68-1.31.64-.15-.31-.3-.6-.44-.89,1.3-1.95,3.21-3.01,5.35-3.77.15.16.22.02.3-.08.28,0,.55-.01.83-.02.22.7,1.06,1.14.85,2.02Z"/>
      <path class="cls-12" d="M176.91,400.81c-.2,0-.42-.04-.59.04-.99.44-1.69.12-2.24-.75-.35-.56-.95-.84-1.48-1.18-.76-.49-.76-.48-.99.53-.16-.04-.32-.09-.49-.13-.07-.15-.18-.23-.35-.18-.4-.13-.8-.11-1.21,0-.18-.05-.36-.1-.55-.15.87-.98,1.84-1.73,3.24-1.76,1.25-.03,2.3.33,3.14,1.28.29.33.63.6.95.9-.01.49.39.75.61,1.12-.02.09-.04.19-.06.28Z"/>
      <path class="cls-1" d="M165.14,409.99c-.15.69-.29,1.38-.45,2.07-.12.51-.31,1.01.14,1.46-.02.57,0,1.15-.42,1.65-2.65-3.96-.71-10.44,1.89-12.58.04.26.11.51.36.65-.66,1.28-1.76,2.32-2.12,3.78-.5.51-.55,1.22-.76,1.84-.24.71-.12.78.83.53.17.2.35.4.52.6Z"/>
      <path class="cls-14" d="M195.61,407.33c-.24,2.83-2,4.63-4.67,4.8-.05-.05-.1-.1-.15-.15.05-.13.07-.3.17-.4,1.21-1.18,1.52-2.65,1.38-4.26,1.09,0,2.18,0,3.27.01Z"/>
      <path class="cls-11" d="M167.82,395.53c.19.53.94.61,1.01,1.23h-.04c-.19.01-.29.11-.3.31,0,0,0-.02,0-.02-.31.06-.36.28-.36.54-.01.08-.02.17-.02.25-.27.23-.53.45-.8.68-1.03-.02-1.95-.27-2.51-1.25,0-.58,0-1.16-.01-1.74.18-1.16-.59-1.95-1.09-2.85.36-.57.76.1,1.13-.03.26.46.64.9.75,1.39.29,1.26,1.09,1.61,2.26,1.48Z"/>
      <path class="cls-10" d="M187.64,413.24c-.07-2.65.88-4.89,2.67-6.8.81.74,1.11,1.9.59,2.81-.67,1.18-1.44,2.3-2.15,3.47-.27.44-.65.54-1.12.52Z"/>
      <path class="cls-1" d="M195.61,407.33c-1.09,0-2.18,0-3.27-.01-.04-.26-.08-.52-.11-.78,1.74-.32,2.32-1.37,1.88-3.42,0-.62,0-1.24,0-1.85.18-.53.37-1.05.91-1.33.19.09.38.18.57.27.08.57-.21,1.02-.42,1.51-.2.47-.31.94.33,1.2.48.2.41.61.29.99-.08.29-.2.55.12.77-.02.89.07,1.8-.29,2.65Z"/>
      <path class="cls-5" d="M197.12,392.75c0,.92-.69,1.63-.74,2.53-.17-.05-.33-.17-.51-.05-1.02-.72-2.13-1.08-3.46-.76.21-.72.38-1.31.55-1.91,1.58-1.19,2.73-1.13,4.16.19Z"/>
      <path class="cls-1" d="M156.01,397.34c.14.29.29.58.44.89.54.03.81-.54,1.31-.64.09.83-.23,1.36-.84,2.01-1.07,1.13-1.55,2.66-1.73,4.24-.08.31-.09.64-.33.88-.11-.02-.21-.05-.32-.07-.67-2.41-.28-4.67.99-6.79.12-.2.19-.46.49-.5Z"/>
      <path class="cls-13" d="M172.27,404.96c-.17-.23-.37-.26-.63-.13-1.17.57-2.51.84-3.41,1.9-.22.25-.49.31-.73,0,.5-1.03,1.47-1.61,2.28-2.34.66-.59,1.34-1.14,2.27-.31.49-1.25-.22-2.07-.63-2.96.34-.05.51-.18.39-.57-.09-.27-.12-.55-.17-.83,1.46,1.2,1.79,2.87,1.94,4.62-.05.21-.1.42-.16.63-.38,0-.77,0-1.15,0Z"/>
      <path class="cls-7" d="M193.53,356.5c.43,1.9.17,3.73-.57,5.52-.12.29-.03.67-.04,1.01-.19.19-.44.33-.54-.02-.09-.31-.06-.67-.05-1.01.05-2.39-.21-4.74-1.15-6.97-.07-.17-.03-.38-.04-.57h0c.84.63,1.78,1.13,2.38,2.04Z"/>
      <path class="cls-14" d="M164.78,397.27c.56.97,1.48,1.23,2.51,1.25,0,.09,0,.17.01.26-.67.95-1.48,1.76-2.35,2.54-.95.85-1.11.92-2.01.09-.17-.16-.38-.31-.36-.69,1.57-.57,1.35-2.34,2.19-3.45Z"/>
      <path class="cls-9" d="M218,390.47c.58.69.29,1.45.24,2.17-.51.24-.68-.16-.89-.38-.67-.69-1.38-1.25-2.41-1.18-.49.03-.69-.24-.73-.71-.06-.68-.16-1.35-.24-2.02.81-.1,1.5.19,2.17.62.52.33.93.85,1.6.93,0,0-.01-.02-.01-.02.04.22.07.44.26.59Z"/>
      <path class="cls-10" d="M187.9,383.22c.15,0,.3.02.44-.02,2.15-.7,4.13-.21,6.04.84.28.5.78.74,1.25.98.54.28,1.17.25,1.74.16.88-.14.46-.93.58-1.45.04-.18.02-.39.32-.56.42.76.32,1.55.16,2.33-.06.29-.41.42-.69.49-.69.18-1.42.19-1.99-.25-2.44-1.88-5.18-2.35-8.15-1.85-.02-.28.11-.48.31-.66Z"/>
      <path class="cls-10" d="M192.66,373.33c.75.22,1.43-.24,2.17-.18,1.35.12,2.58.5,3.69,1.29.57.41,1.18.74,1.83.13.66.02.73-.48.92-.95.21-.51.1-1.22.81-1.46.05,1.17-.57,2.21-.66,3.49-.63-.35-1.18-.31-1.69.06-.13-.22-.35-.3-.58-.35-.25-.3-.58-.25-.91-.24-1.76-1-3.63-1.35-5.62-.92.01-.29.02-.58.03-.88Z"/>
      <path class="cls-12" d="M192.68,401.64c-.12.17-.27.3-.48.19-.17-.08-.42-.32-.47-.29-1.01.84-1.93.07-2.9-.11-.52-.1-1.07-.07-1.6.14-.37.15-.77.21-1.1-.12,1.22-1.34,2.65-1.91,4.43-1.26.18.06.39.03.58.04.49.48,1.22.72,1.53,1.4Z"/>
      <path class="cls-10" d="M194.74,379.56c-.97-.51-1.99-.27-3-.18-.39.04-.77.14-1.15.21-.02-.21-.04-.42.15-.57.79-.03,1.38-.63,2.19-.68,1.71-.1,3.1.58,4.41,1.55.05.32.11.63.57.44.13-.05.25-.11.38-.16.14-.07.22-.19.23-.35,0-.5.51-.7.65-1.12.28.03.43.13.31.44-.21.51-.41,1.03-.61,1.55-.77.41-1.45.29-2.15-.24-.57-.43-1.19-.85-1.96-.89Z"/>
      <path class="cls-5" d="M192.34,397.27c-.26-.11-.65.05-.8-.25-.15-.28.08-.59.24-.81.66-.91,1.63-1.03,2.64-.91.47.06.92.31,1.38.48.13.39.49.7.39,1.17-.79-.04-1.45.16-1.78.95-.67-.28-1.3-.68-2.06-.64Z"/>
      <path class="cls-2" d="M176.58,398.84c.11-.63-.74-.74-.73-1.45,1.03-.26,1.96.11,2.89.45.41.4.82.8,1.23,1.2.01.1.02.2.04.3-.73.4-1.27,1.16-2.2,1.22-.07-.03-.14-.05-.22-.05-.07-.72-.43-1.26-1.01-1.68Z"/>
      <path class="cls-2" d="M172.25,394.32c-.89.08-1.69.41-2.48.8-.24.12-.49.38-.78.08.19-1.17-.12-2.25-.6-3.3.58.11,1.15.23,1.73.32,1.23.19,1.79,1.03,2.13,2.1Z"/>
      <path class="cls-9" d="M197.12,392.75c-1.43-1.32-2.58-1.37-4.16-.19-.38,0-.77,0-1.15,0-.05,0-.11-.02-.16-.03.13-.81.47-1.54.85-2.25.21-.39.48-.42.78-.07-.01.36-.26.74.11,1.09,1.07-.81,2.21-.42,3.34-.18,0,0,0-.04,0-.04.03.18.16.27.31.33.19.32.43.63.55.97.14.44-.17.44-.48.36Z"/>
      <path class="cls-8" d="M217.75,389.9c-.67-.08-1.08-.6-1.6-.93-.68-.43-1.36-.71-2.17-.62-.36-.57-.73-1.14-1.11-1.74,2.2-.46,4.37,1.04,4.88,3.28Z"/>
      <path class="cls-5" d="M176.45,393.39c-.06.38-.29.55-.65.68-.8.29-1.62.26-2.44.23-.27-.61-.54-1.21-.91-2.05,1.51.25,3.13-.86,4,1.14Z"/>
      <path class="cls-14" d="M201.64,385.19c-.41-.03-.84-.84-1.23.08-.08.18-.34-.07-.36-.26-.03-.38-.11-.81,0-1.15.37-1.04.19-2.11.28-3.16.29.01.58.03.87.04h0c-.05.46.2.72.6.89.03,1.19.03,2.38-.16,3.56Z"/>
      <path class="cls-12" d="M192.06,375.42c.42.1.73.3,1.27.08.99-.4,2.13.25,2.4,1.11.16.49-.06.87-.52.77-1.2-.24-2.58.05-3.51-1.07-.02-.35.15-.63.36-.9Z"/>
      <path class="cls-12" d="M164.81,392.66c-.37.13-.77-.54-1.13.03-.29-.16-.53-.41-.89-.43.18-1.18,1.2-1.22,2.04-1.43.67-.17,1.34.07,1.98.32.03.39.39.53.59.79-.76-.09-1.48.33-2.26.18-.26-.05-.28.32-.34.55Z"/>
      <path class="cls-12" d="M180.09,392.55c-.53-.05-1.06-.03-1.51.31-.41.31-.9.27-1.37.34-.2-.37-.39-.75-.59-1.12,1.75-1.49,2.5-1.38,3.47.47Z"/>
      <path class="cls-12" d="M179.57,396.21c1.14-.7,2.09-.27,2.99.49.04.09.08.18.13.27-.46.1-.92.29-1.38.28-.79-.01-.78.52-.85,1.03-.66-.22-.63-1.21-1.44-1.27-.1-.46.31-.58.55-.81Z"/>
      <path class="cls-12" d="M191.44,399.67c-.08-.04-.19-.07-.25-.13-.31-.34-1.13-.04-1.1-.66.02-.48.63-.67,1.08-.83.18,0,.36,0,.55.01.2.02.41.04.61.06.42.2.92.24,1.24.62-.49.43-.54,1.05-.67,1.62-.5-.21-.81-.82-1.47-.69Z"/>
      <path class="cls-10" d="M162.8,392.26c.35.02.6.27.89.43.5.9,1.27,1.69,1.09,2.85-.35,0-.71-.02-1.06-.03-.12,0-.25-.01-.37-.02.21-.88-.63-1.32-.85-2.02.21-.38.35-.78.31-1.22Z"/>
      <path class="cls-10" d="M191.44,399.67c.66-.13.97.49,1.47.69.29.44.62.82,1.18.9,0,.62,0,1.24,0,1.85-.77-.21-.84-1.09-1.43-1.48-.32-.68-1.04-.91-1.53-1.4.22-.13.3-.33.3-.57Z"/>
      <path class="cls-10" d="M207.43,386.63c1.85.76,2.73,2.7,1.93,4.69-.26-1.69-.81-3.05-1.95-4.1,0-.2.02-.39.02-.59Z"/>
      <path class="cls-10" d="M202.08,372.18c.3-1.05.87-1.95,1.39-2.88.09.04.18.08.27.12-.24.81-.53,1.62-.71,2.44-.22,1,.04,1.36,1.12,1.79.03.36-.2.63-.34.92-.85-.6-1.42-1.41-1.73-2.4Z"/>
      <path class="cls-2" d="M183.16,389.23c.06.3.5.68.05.9-.91.45-1.63,1.3-2.75,1.3-.27-.22-.34-.55-.48-.91,1.11-.32,2.01-1.13,3.18-1.3Z"/>
      <path class="cls-10" d="M193.58,398.74c-.33-.38-.83-.42-1.24-.62,0-.29,0-.57,0-.86.76-.04,1.39.36,2.06.64.39.49.79.97,1.18,1.46,0,.28,0,.56,0,.84-.19-.09-.38-.18-.57-.27-.29-.62-.74-1.04-1.43-1.19Z"/>
      <path class="cls-10" d="M167.41,391.93c-.2-.26-.56-.4-.59-.79.7-.1,1.07.46,1.57.76.48,1.05.79,2.13.6,3.3-.14,0-.28,0-.42,0-.32-1.11-.43-2.31-1.16-3.28Z"/>
      <path class="cls-10" d="M179.34,333.5c.01.9.15,1.82-.34,2.67-.14,0-.27.02-.41.03-.18-.82.22-1.59.18-2.4.19-.1.38-.2.57-.29Z"/>
      <path class="cls-10" d="M205.97,388.38c.71,1.21.73,1.37.15,2.66-.28-.86-.31-1.68-.79-2.32.27-.02.51-.09.64-.34Z"/>
      <path class="cls-13" d="M179.02,397.03c.8.05.78,1.05,1.44,1.27.1.22.2.43.3.65-.26.03-.53.07-.79.1-.41-.4-.82-.8-1.23-1.2.09-.27.19-.55.28-.82Z"/>
      <path class="cls-13" d="M168.83,396.76c.63-.36,1.19-.86,1.94-.96-.26.94-.95,1.37-1.94,1.2-.02-.08-.04-.16-.04-.24h.04Z"/>
      <path class="cls-10" d="M198.53,368.65c.87.16,1.6.57,2.23,1.19-.84.05-1.54-.28-2.21-.7,0-.16-.01-.33-.02-.49Z"/>
      <path class="cls-10" d="M196.18,396.95c.1-.47-.26-.78-.39-1.17.03-.18.06-.37.08-.55.18-.12.34,0,.51.05,0,0,.03-.02.03-.02-.02.51.68.83.4,1.41-.11,0-.23.02-.34.02-.2-.02-.44-.07-.31.28,0,0,.02,0,.02,0s0-.02,0-.02Z"/>
      <path class="cls-13" d="M176.58,398.84c.58.41.94.96,1.01,1.68-.21,0-.42,0-.62,0-.22-.36-.62-.63-.61-1.12.08-.19.15-.38.23-.57Z"/>
      <path class="cls-10" d="M203.86,388.42c.47.34.24.78.25,1.27-.57-.12-.78-.45-.87-.9.11-.29.35-.36.62-.38Z"/>
      <path class="cls-9" d="M198.82,397.85c0-.53.19-1,.52-1.57.08.61.21,1.09-.09,1.56-.14,0-.29,0-.43.01Z"/>
      <path class="cls-13" d="M167.3,398.78c-.02-.09-.02-.17-.01-.26.27-.23.54-.45.8-.68.08.61-.14.95-.79.94Z"/>
      <path class="cls-10" d="M201.8,381.63c-.4-.16-.65-.43-.6-.89.3.07.52.37.86.28.02.25-.02.47-.26.61Z"/>
      <path class="cls-14" d="M201.81,386.65c-.36-.23-.38-.52-.15-.85.05.28.1.57.15.85Z"/>
      <path class="cls-8" d="M218,390.47c-.2-.15-.22-.37-.26-.59.2.14.24.36.26.59Z"/>
      <path class="cls-10" d="M191.73,398.06c-.18,0-.37,0-.55-.01.19-.23.37-.21.55.01Z"/>
      <path class="cls-7" d="M199.17,399.03c.18,0,.36.01.55.02-.19.24-.38.49-.55-.02Z"/>
      <path class="cls-9" d="M154.54,404.64c.11.02.21.05.32.07-.03.14-.04.32-.22.32-.03,0-.06-.25-.1-.39Z"/>
      <path class="cls-13" d="M169.02,398.99c.18.05.36.1.55.15-.26.22-.45.21-.55-.15Z"/>
      <path class="cls-1" d="M168.12,397.59c0-.26.06-.48.36-.54-.02.25-.14.43-.36.54Z"/>
      <path class="cls-13" d="M173.31,406.46c.03.15-.06.22-.17.29.06-.1.11-.19.17-.29Z"/>
      <path class="cls-13" d="M170.78,399.14c.17-.05.28.03.35.18-.12-.06-.23-.12-.35-.18Z"/>
      <path class="cls-1" d="M168.78,396.76c0,.08.02.16.04.24-.11.02-.23.04-.34.07,0-.19.11-.3.3-.31Z"/>
      <path class="cls-14" d="M190.94,412.13c-.09.1-.18.2-.29.04-.02-.02.09-.12.13-.19.05.05.1.1.15.15Z"/>
      <path class="cls-10" d="M161.66,393.49c-.08.1-.15.24-.3.08.1-.03.2-.05.3-.08Z"/>
      <path class="cls-10" d="M194.47,368.69c-.12.09-.23.17-.35.26.05-.17.17-.26.35-.26Z"/>
      <path class="cls-7" d="M191.15,354.46s-.09-.07-.13-.11c.03,0,.06,0,.08.01.03.03.04.06.05.1,0,0,0,0,0,0Z"/>
      <path class="cls-9" d="M240.2,352.1c-.51.01-.89.37-1.35.5-.53.15-.75-.14-.69-.61.12-.88.68-1.48,1.4-1.94.92-.58,1.58-1.41,2.18-2.3.21-.31.24-.63.23-.97.05-.63.76-1.05.57-1.76.72-.1,1.33.13,1.92.55,1.56,1.13,3.32,1.79,5.21,2.1-.31.84-.39,1.72-.31,2.6.07.72.49,1.3,1.06,1.67.37.24.83-.23.97-.49.61-1.14,1.76-1.65,2.66-2.44,1.47-1.29,2.51-2.87,3.32-4.62.69.14.58.67.51,1.14-.06.42-.3.81-.21,1.26-.06,1.02-.16,2.02-.63,2.95-.42-.57-.77-.37-1.12.08-1.4,1.78-3,3.36-4.62,4.94-.31.31-.67.6-.88.98-.24.41.19.44.45.53-.01.19,0,.4-.05.58-.46,1.69-.45,3.34.33,4.95.19.39.35.81.23,1.26-1.23-.36-1.61-1.54-2.32-2.4-.02-.41-.18-.72-.59-.86v-3.12c-.78-.04-1.1.44-1.37.86-.39.62-.97,1.11-1.25,1.81-.09.24-.29.42-.57.36-.29-.06-.32-.31-.36-.57-.13-.81-.28-1.62-.43-2.5-.66.05-1.07.5-1.52.83-.44.33-.84.77-1.41.35-.4-.29-.2-1.52.27-1.97.6-.58,1.2-1.16,1.8-1.74.24-.24.46-.5.32-.88-.43-.1-.69.14-.94.35-.51.42-1.13.57-1.74.77-.47.16-1.03.29-1.41-.04-.38-.35.05-.81.15-1.21.08-.33.2-.65.18-1,.14-.05.16-.09.07-.11-.01,0-.04.07-.07.11Z"/>
      <path class="cls-7" d="M249.67,347.68c-1.89-.31-3.65-.97-5.21-2.1-.58-.42-1.2-.65-1.92-.55-.51.36-1.01.73-1.53,1.07-.91.61-1.74,1.37-2.88,1.56-.09-.1-.18-.21-.27-.31-.06-.6.17-1.14.31-1.71,1.09-.64,1.68-1.77,2.36-2.71,1.66-2.29,3.78-4.06,5.85-5.9.73.76.97,1.79,1.5,2.67-.32.6-.59,1.23-1.01,1.78-.32.42-.58.9-.85,1.36-.1.17-.16.36-.02.54.14.17.35.15.54.14.31-.02.51-.27.77-.39.82-.39,1.28-1.21,2.03-1.67.5.03.98,0,1.43-.26.44-.26.88-.33,1.4-.13.59.23,1.16.2,1.43-.55.07-.2.32-.2.51-.24.93,1.15,1.06,1.16,2.25.36.58-.39,1.05-.88,1.49-1.41.83-.98,1.56-2.02,2.07-3.2.2-.46.39-.78.96-.34.53.41,1.04.2,1.39-.32.58-.85,1.22-1.67,1.27-2.77.77-.05,1.28.41,1.75.93-.33.21-.24.58-.35.87-1.05-.31-1.04.66-1.41,1.16-.38,0-.66.17-.83.5-.16.31-.36.74-.65.75-1.09.04-1.57.93-2.21,1.52-1.34,1.25-2.73,2.49-3.39,4.29-1.72,1.78-3.44,3.56-5.15,5.35-.35.37-.34,1.05-.98,1.19-.03-.48-.04-.96-.09-1.44-.09-.83-.37-.08-.56-.06Z"/>
      <path class="cls-2" d="M256.21,383.1c.94.6,1.37,1.63,2.04,2.45,1,1.22,1.93,2.5,2.89,3.75-.39-.02-.83-.09-.63.57.08.25-.02.47-.23.63-.5-.49-1.01-.98-1.51-1.46-.25-.53-.65-.94-1.11-1.26-.37-.25-.26.2-.35.36-.09-.17-.28-.38-.24-.5.35-.89-.12-1.38-.76-1.89-1.06-.85-2.02-.81-2.87.25-.52.65-.85,1.39-1.15,2.16-.61.02-.85.38-.88.95-.57.61-.2,1.34-.24,2.01-.46.11-.86-.15-1.29-.22-1.42-.25-2.65.48-2.99,1.77.47-.13.75-.67,1.3-.63-.05.28-.08.57-.17.84-.28.8-.17,1.5.49,2.08-.41.48-.82.97-1.23,1.45-1.09-.55-1.11-1.8-1.73-2.65.02-.46-.1-.89-.38-1.24-.73-.94-.89-2.03-.89-3.17.08-1.06-.03-2.15.52-3.15.17-.31.12-.76.13-1.15.01-.88,0-1.77,0-2.65,0-.65.05-1.28.65-1.7.96.19,1.79,0,2.59-.62.87-.68,1.92-.87,3.02-.86.89,0,1.72.33,2.59.37.03.05.04.11.02.17-.06.94-.77.7-1.32.72-1.67.06-2.71.79-3.21,2.28-.17.52.02.8.54.66.51-.14.98-.43,1.49-.62.58-.21,1.21-.62,1.63.25-1.11.21-2.17.51-3.09,1.21-.34.26-.78.44-.75.98-.44-.08-.87-.01-1.31.03-.99.1-1.05.02-1.27-.94-.08-.37.14-.88-.43-1.15-.38.55-.23,1.11-.22,1.61.02.85.56,1.4,1.37,1.35.72-.04,1.47-.15,1.85-.93.73-.27,1.51-.44,2.17-.82,1.31-.75,2.69-.68,4.09-.56.19.02.38.11.57.12.55.02.24-.38.28-.61-.02-.07,0-.14.04-.2Z"/>
      <path class="cls-11" d="M245.58,380.66c-.59.43-.65,1.05-.65,1.7,0,.88.02,1.77,0,2.65,0,.39.04.84-.13,1.15-.56,1-.44,2.09-.52,3.15-.62-.11-.97.33-1.39.67-.62.5-1.2.93-2.15.97-.8.03-1.53-.2-2.29-.18-.12-.62.41-1.14.27-1.77.15-.19.28-.41.46-.56.58-.45.76-.38,1.09.36.08.18.18.34.28.51.02.04.07.06.21.19,1.16-1.51,2.32-2.96,2.06-5.07-.12-1.01-.35-2.02-.23-3.06.21-.12.42-.24.63-.34.9-.45.95-.62.51-1.78v.02c.07-.93-.52-1.82-.3-2.73.32-1.31-.19-2.26-1.05-3.12-.03-.03-.08-.05-.12-.08,0,0,.01,0,.01,0,.11-1.77-.4-3.29-1.82-4.44-.57.1-1.15.2-1.72.3-.53-1.15-1.04-2.3-1.59-3.44-.26-.54-.29-1.01.13-1.48.32-.36.61-.75.92-1.13.38.27.38.69.53,1.03.1.48.18.96.31,1.43.38,1.29.76,1.4,1.81.48.44-.39.81-.85,1.24-1.25.37-.36.52-.92.98-1.18.53.33.61.86.91,1.24.3.38.55.81.87,1.18,1.08,1.21,1.86,1.12,2.53-.33.41-.88.68-1.83,1.02-2.74.37-.3.53-.03.59.26.33,1.59.64,3.18.95,4.77-1.79-.13-3.45.45-5.11.96-.56.17-1.26.33-1.4,1.11-.23.29-.07.58.05.82.42.84.63,1.71.61,2.66,0,.32.16.65.25.98-.06.39.02.73.33.99.1,1.23.77,2.37.56,3.65-.12.12-.23.24,0,.36v-.02c-.08.43.03.81.34,1.12Z"/>
      <path class="cls-1" d="M238.44,390.78c.76-.01,1.49.21,2.29.18.96-.04,1.54-.47,2.15-.97.42-.34.77-.78,1.39-.67,0,1.14.16,2.22.89,3.17.27.35.39.79.38,1.24-1.6.12-2.6,1.23-2.74,3.04-.5-.6-.61-1.45-1.28-1.93-.26.2-.01.59-.35.8-.41-.18-.85-.38-1.3-.57-.87-.36-1.61-.46-2.59.07-1.84.99-3.71.6-4.83-.7-.29-.34-.54-.69-.63-1.14-.49-2.39-.39-4.67,1.28-6.65.59.69,1.35,1.17,2.03,1.76-.14.83-.86,1.62-.12,2.88.45-1.79.85-3.26,1.94-4.39q1.58.61,1.29,2.07c-.6.56-.48,1.19-.16,1.82.07.13.25.1.37-.02Z"/>
      <path class="cls-1" d="M263.53,405.31c-.4-.27-.8-.54-1.21-.8-.24-.15-.52-.27-.56-.61-.23-2.14-1.72-3.37-3.29-4.54.54.05,1.01-.26,1.53-.33.76.49,1.3,1.3,2.26,1.51.66.14,1.27.41,1.82.84.35.27.78.38,1.23.32.29.2.59.4.88.6.49,1.37,1.7,1.55,2.89,1.76.8.14,1.41-.13,1.76-.9.02.68.05,1.37.05,2.05.02,1.49.53,2.66,2,3.26.17.07.33.19.51.29-2.2,1.75-6.51.57-7.58-1.8-.26-.58-.57-1.13-.85-1.69-.11-.66-.25-1.31-.71-1.9-.3.65-.51,1.24-.42,1.89,0,0-.01.01-.01.01-.1.01-.2.03-.3.04Z"/>
      <path class="cls-1" d="M260.28,390.5c.21-.16.31-.37.23-.63-.21-.66.23-.58.63-.57.12.06.24.12.36.18-.17.19-.29.38-.04.59.65.54,1.26,1.16,2.13,1.35.06.36-.55.72-.11,1,.32.21.49-.35.79-.47.97.27,1.75,1.01,2.77,1.14.02.48-.04,1.03.72.93,1.17-.24,2.27.27,3.42.28.32.43.78.35,1.22.32,1.01-.06,1.96.24,2.9.54.07.15.13.43.21.43.25.02.32-.26.46-.42.5.12.97.35,1.5.39.55.04.91-.15,1.13-.64.34.13.43.68.92.57.2.25.2.55.19.84-.04,1.66.45,3.09,1.8,4.14.48.37.28.64-.06.93-.74.64-1.07.61-1.95.11-1.1-.62-1.89-1.5-2.45-2.61-.2-.39-.4-.79-.77-1.07-.36-.99-1.2-1.43-2.09-1.82-.74-.62-1.64-.55-2.51-.56-1.51-.02-3.02.16-4.54,0-.15-.17-.31-.2-.48-.03-.11-.01-.23-.03-.34-.04-.3-.71-1-.92-1.6-1.2-1.82-.85-3.24-2.15-4.45-3.72Z"/>
      <path class="cls-1" d="M252.29,406.41c-.02.39.04.8-.06,1.17-.4,1.42.02,2.6.91,3.69.27.33.58.65.58,1.14-3.07-.26-4.89-2.03-4.96-4.92-.03-1.33-.26-2.63-.33-4.03-.46.47-.27,1.14-.72,1.58-.89-1.01-1.26-2.22-1.28-3.51-.02-1.25-.26-2.43-.66-3.59.51-.12.97-.43,1.53-.37.24.44.62.81.63,1.37,0,.36.25.59.58.72.02.07.02.15.02.23-.55.5-.02.89.15,1.29.57,1.27,1.35,2.4,1.44,3.9.07,1.27.38,1.36,1.75,1.34.15,0,.29,0,.44-.01Z"/>
      <path class="cls-1" d="M263.53,335.57c.38-.5.36-1.48,1.41-1.16.64,2.1-.44,3.93-.97,5.82-1.03,3.71-3.13,6.85-5.56,9.79-.16.19-.33.37-.51.53-.18.16-.35.39-.63.27-.29-.12-.19-.41-.23-.64-.02-.15-.02-.29-.02-.44.47-.93.57-1.93.63-2.95.52-.03.71-.43.97-.8,2.28-3.17,3.93-6.64,4.9-10.43Z"/>
      <path class="cls-5" d="M245.24,379.21c.2-1.28-.47-2.42-.56-3.65.75-.22,1.54-.37,2.13-.95,1.73-.61,3.46-.66,5.21-.09.72,1.41,1.19,2.91,1.72,4.39-.31.08-.56-.06-.84-.16-1.93-.7-3.73-.44-5.43.72-1.1.75-1.13.72-2.25.08,0,0,.01.02.01.02,0-.12,0-.24,0-.36ZM249.93,375.73c-.49.05-1.18-.16-1.38.64-.14.54.54,1.04,1.45,1.12.05,0,.1,0,.15,0,.82.03,1.68-.37,1.75-.8.07-.46-.67-.9-1.61-.96-.1,0-.2,0-.36,0Z"/>
      <path class="cls-7" d="M257.32,418.23c-.48-1.23-.17-2.54-.39-3.79.21-.98-.14-1.93-.27-2.86-.26-1.99-1-3.82-2.66-5.13-.11-1.21.73-1.86,1.55-2.47.51-.37,1.12-.33,1.63.1,1.58,1.3,2.6,2.89,2.49,5.03-.18.09-.36.17-.54.26-.35-1.37-.66-2.77-1.7-3.83-.36-.36-.75-1.1-1.25-.77-.65.43.01,1.05.26,1.5.91,1.69,1.64,3.43,1.81,5.37.08.82.26,1.63.4,2.45-.51.23-.43.7-.43,1.13,0,.97,0,1.93,0,2.9.04.06.03.11-.02.15-.29,0-.59-.01-.88-.02Z"/>
      <path class="cls-2" d="M252.29,406.41c-.15,0-.29.01-.44.01-1.38.01-1.68-.07-1.75-1.34-.08-1.5-.87-2.64-1.44-3.9-.18-.39-.7-.79-.15-1.29.37.11.65,0,.89-.31.24-.29.45-.64.85-.75.1.73.17,1.47.84,1.96-.13.2-.26.4-.39.59-.3.43-.79,1.03-.29,1.37.51.35.58-.59.98-.79,1.26.68,2.47.41,3.59-.29.73-.46,1.33-.78,2.12-.14.4.32.95.15,1.44.16,0,0-.02-.01-.02-.01.1.1.21.21.31.32,0,0-.02-.02-.02-.02.09.11.19.21.28.32.68.77.96,1.67.86,2.72-.48.07-.52-.35-.68-.59-.42-.63-.98-1.1-1.61-1.47-1.4-.82-2.76-.59-3.82.64-.71.83-1.14,1.82-1.55,2.82Z"/>
      <path class="cls-9" d="M289.25,404.07c-.63-.34-.95-.99-1.31-1.54-.71-1.11-1.72-1.85-2.74-2.61-.65-.48-1.48-.45-2.23-.48-1.02-.05-1.41-.24-1.68-1.14-.28-.94-.45-1.9-.21-2.88,1.15.32,2.31.63,3.46.95.58.32,1.15.64,1.73.96,2.04,1.78,2.95,4.07,2.97,6.74Z"/>
      <path class="cls-5" d="M244.34,374.57c-.09-.33-.26-.65-.25-.98.03-.95-.18-1.82-.61-2.66-.12-.24-.28-.53-.05-.82.19.04.37.08.56.11.84.97,1.95.59,2.83.31,1.21-.38,2.42-.74,3.66-1,.4,1.36.8,2.72,1.19,4.08-2.09-.68-4.08-.59-5.88.82-.48.08-.96.22-1.46.12Z"/>
      <path class="cls-13" d="M257.95,399.23c-.26.51-.69.46-1.12.3-.44-.17-.64-.02-.68.42-1-.05-2.01-.14-2.96.29-.14-.01-.24.04-.29.17-.19.04-.39.09-.58.13,0-.2,0-.41,0-.61.63-.6,1.48-.72,2.29-1.01-.48-.55-1.04-.79-1.68-.88-.33-.25-.63-.19-.91.08-.48.08-.96.14-1.4.37-.23-.11-.33-.31-.35-.56.7-.76,1.76-.6,2.61-.89-.12-1.29-.91-1.64-1.9-1.77-.54-.07-1.07.01-1.58.16,0-.4.4-.53.55-.83h.01c.62-.01,1.24-.02,1.85-.03.36-.85-.31-1.48-.46-2.22.21-.39.57-.42.96-.38.66,2.1,1.85,3.9,3.21,5.6.14.18.4.27.6.39.5.59,1.35.67,1.86,1.25Z"/>
      <path class="cls-13" d="M248.4,363.02c-.34.92-.61,1.86-1.02,2.74-.67,1.45-1.45,1.54-2.53.33-.32-.36-.57-.79-.87-1.18-.3-.38-.38-.91-.91-1.24-.46.26-.61.82-.98,1.18-.42.41-.8.87-1.24,1.25-1.05.92-1.43.82-1.81-.48-.14-.47-.21-.95-.31-1.43.38,0,.76,0,1.14,0,.1.56.37.68.78.27.7-.69,1.24-1.5,1.75-2.33.22-.36.3-.83.71-1.05.41.12.46.5.63.77.37,1.32,1.06,2.44,2.14,3.4.39-.8.75-1.52,1.1-2.23.47,0,.94,0,1.41,0Z"/>
      <path class="cls-7" d="M272.1,403.5c.15-.74.29-1.49.8-2.09.31.11.62.22.93.33.22.47.68.69,1.05,1,2.17,1.82,4.04,3.87,4.89,6.66-.08.7.28,1.32.42,1.98.1.47.42.77.97.63,0,1.28-.52,2.37-1.18,3.69-.36-.86-.23-1.48-.26-2.09,0-1.97-.61-3.76-1.69-5.39-.11-.1-.21-.2-.32-.31h.01c-1.11-2.44-3.08-3.79-5.62-4.41Z"/>
      <path class="cls-2" d="M270.85,403.16c-.35.77-.96,1.04-1.76.9-1.19-.21-2.4-.4-2.89-1.76,0,0-.01,0-.01,0,.61.36.95.26.92-.52,0-.18.04-.37.07-.55.26-.28.12-.77.5-.98,1.79.91,1.94.87,3.23-.51.43-.46.92-.87,1.44-1.21.51-.34,1.1-.53,1.71-.15-.14.45-.67.36-.73.76,0,.07,0,.14-.02.21-1.69.71-2.12,2.23-2.45,3.81Z"/>
      <path class="cls-8" d="M273.84,401.73c-.31-.11-.62-.22-.93-.33.63-1.02,1.53-1.29,2.69-.65,1.52.83,2.69,2.06,3.69,3.47,1.67,2.35,2.21,4.95,1.88,7.77-.55.14-.87-.16-.97-.63-.14-.66-.5-1.27-.42-1.98.45-.43.2-.88.08-1.35-.39-1.54-1.2-2.85-2.07-4.16-.8-1.2-1.93-1.89-3.15-2.52-.47-.24-.6.09-.8.36Z"/>
      <path class="cls-9" d="M278.03,408.21c1.08,1.63,1.69,3.42,1.69,5.39-.3-.11-.42-.32-.52-.63-.58-1.86-1.66-3.37-3.19-4.59-.67-.54-1.46-.79-2.22-1.07-1.28-.47-1.92-1.28-1.7-2.67,1.19.22,2.28.47,3.22,1.48.64.68,1.32,1.6,2.41,1.8,0,0-.01,0-.01,0,.11.1.21.2.32.31Z"/>
      <path class="cls-12" d="M278.6,394.93c-.22.49-.58.68-1.13.64-.53-.04-1-.27-1.5-.39-.15-1.04.24-1.97.54-2.93,1.27-1.67,3.11-1.95,4.78-.72.32.24.48.51,0,.76-.3-.15-.57-.35-.94-.13-1.05.63-1.92,1.37-1.74,2.77Z"/>
      <path class="cls-12" d="M256.21,383.1c-.05.06-.06.13-.04.2-.7-.09-1.39-.18-2.09-.27-.18-.25-.37-.26-.58-.04-.19,0-.39,0-.58,0-.42-.87-1.05-.47-1.63-.25-.5.19-.97.48-1.49.62-.51.14-.71-.14-.54-.66.5-1.49,1.55-2.22,3.21-2.28.55-.02,1.26.22,1.32-.72.68,1.22,1.94,2.02,2.41,3.38Z"/>
      <path class="cls-11" d="M247.29,397.57c-.56-.07-1.02.25-1.53.37,0,0,0-.02,0-.02.11-.66-.13-1.19-.59-1.86-.32.73-.39,1.26-.01,1.79-.02.2-.03.4-.05.6-.25.04-.44.16-.52.42-.88-.45-1.53-1.11-1.79-2.09.14-1.81,1.14-2.92,2.74-3.04.63.85.64,2.1,1.73,2.65,0,.28.01.57.02.85,0,.11,0,.22,0,.34Z"/>
      <path class="cls-12" d="M273.32,399.14c.06-.4.59-.31.73-.76-.61-.38-1.2-.19-1.71.15-.52.35-1.01.76-1.44,1.21-1.28,1.38-1.43,1.42-3.23.51.29-.94.96-1.61,1.6-2.31,1.04-.73,2.22-.76,3.42-.71.57.26,1.15.51,1.72.77.22.23.43.47.65.69.19.2.24.37-.05.52-.56-.23-1.13-.16-1.7-.06Z"/>
      <path class="cls-1" d="M251.38,363.07c.12-.46-.05-.87-.23-1.26-.78-1.61-.79-3.26-.33-4.95.05-.18.03-.39.05-.58.77-.59,1.54-1.17,2.53-1.93-.92,3.11-1.41,6.01-1.26,9-.15,0-.29,0-.43,0-.11-.09-.21-.19-.32-.28Z"/>
      <path class="cls-9" d="M247,363.03c-.35.72-.71,1.44-1.1,2.23-1.07-.96-1.76-2.08-2.14-3.4,1.48-.47,2.84-1.3,4.41-1.49l-.04.56c-.66.55-.93,1.3-1.13,2.09Z"/>
      <path class="cls-9" d="M230.5,388.47c-.02.34-.04.68-.08,1.02-.12,1.26-.23,1.34-1.5,1.6-1.13.23-1.99.92-2.82,2.13-.07-.93-.3-1.55.18-2.14.44-.31.28-.77.3-1.19,0,0,0,0,0,0,.58,0,.99-.36,1.45-.65.75-.46,1.5-.97,2.46-.77Z"/>
      <path class="cls-12" d="M253.18,400.23c.96-.43,1.96-.33,2.96-.29.9.44,1.7,1.02,2.39,1.75-.49,0-1.04.16-1.44-.16-.79-.64-1.39-.32-2.12.14-1.11.7-2.33.98-3.59.29.31-.48.61-.96.92-1.43.19-.04.39-.09.58-.13.14.02.23-.05.29-.17Z"/>
      <path class="cls-1" d="M242.56,380.98c-.51-.63-.56-1.44-.7-2.18-.28-1.43-1.04-2.75-1.05-4.24.62-.24.71-1.13,1.47-1.2,0,0-.01,0-.01,0,.02.72-.25,1.59.16,2.14.6.8.46,1.53.27,2.33-.1.44-.1.73.41.9.25.08.43.37.64.56,0,0-.01-.02-.01-.02.26,1.02-.8,1.14-1.18,1.73Z"/>
      <path class="cls-8" d="M289.25,404.07c-.02-2.67-.93-4.96-2.97-6.74.13-.27.31-.33.57-.17.32.2.64.43.98.58.42.18.46-.18.53-.45,1.5,1.73,1.93,3.78,1.8,6-.02.41-.13.81-.38,1.08-.37.41-.39-.13-.54-.3Z"/>
      <path class="cls-8" d="M284.55,396.37c-1.15-.32-2.31-.63-3.46-.95.17-1.91.71-2.28,2.48-1.76.46.14.91.26,1.21.68-.3.14-.68-.12-1.01.21.45.59,1.31.6,1.76,1.11-.18.55-.76.34-.97.7Z"/>
      <path class="cls-10" d="M245.22,379.55c1.12.64,1.14.67,2.25-.08,1.7-1.16,3.5-1.41,5.43-.72.28.1.53.24.84.16.01.21.03.43.04.64-.87-.04-1.7-.37-2.59-.37-1.11,0-2.16.19-3.02.86-.8.62-1.63.81-2.59.62-.31-.31-.42-.69-.35-1.12Z"/>
      <path class="cls-7" d="M230.5,388.47c-.96-.21-1.71.31-2.46.77-.46.28-.88.64-1.45.65.75-2.4,2.74-3.76,5.01-3.31-.38.65-.74,1.27-1.1,1.89Z"/>
      <path class="cls-1" d="M238.74,369.22c.57-.1,1.15-.2,1.72-.3,0,.66.38,1.2.62,1.78.48,1.14.57,2.26-.29,3.28-.38-.09-.52-.38-.64-.71-.47-1.35-.94-2.7-1.41-4.05Z"/>
      <path class="cls-8" d="M258.22,418.1c0-.97,0-1.93,0-2.9,0-.43-.08-.89.43-1.13.93-.95.71-2.13.62-3.27-.04-.48-.22-.95-.14-1.44.18-.09.36-.17.54-.26.59,2.21.38,4.38-.23,6.56-.25.9-.59,1.74-1.22,2.44Z"/>
      <path class="cls-11" d="M257.95,399.23c-.51-.57-1.36-.66-1.86-1.25-.03-.64.29-1.13.69-1.57.24-.27.55.03.83,0,.47.82,1.22,1.25,2.1,1.48.1.15.19.3.29.44v.09c-.16.11-.24.23,0,.35,0,.09.01.18.01.27-.52.07-.99.38-1.53.33-.17-.05-.35-.1-.52-.14Z"/>
      <path class="cls-3" d="M284.55,396.37c.21-.36.79-.15.97-.7-.45-.51-1.31-.52-1.76-1.11.33-.34.7-.08,1.01-.21,1.56.54,2.71,1.58,3.6,2.95-.08.27-.11.63-.53.45-.35-.15-.66-.38-.98-.58-.26-.16-.44-.1-.57.17-.58-.32-1.15-.64-1.73-.96Z"/>
      <path class="cls-11" d="M250.49,369.55c-1.24.26-2.45.62-3.66,1-.88.27-1.99.65-2.83-.31,1.93-1.15,4.02-1.52,6.24-1.3.08.21.16.41.25.62Z"/>
      <path class="cls-10" d="M254.01,406.45c1.66,1.31,2.4,3.14,2.66,5.13.12.94.48,1.89.27,2.86-.59-.21-.75-.79-1.07-1.23.49-.44.38-1.04.2-1.5-.55-1.34-.92-2.79-1.94-3.9-.21-.23-.34-.47-.34-.78,0-.22.03-.43.23-.58Z"/>
      <path class="cls-5" d="M271.18,394.3c-1.15,0-2.25-.53-3.42-.28.27-1.52.63-1.86,2.04-1.8.76.03,1.57-.12,2.26.37-.32.55-1.03.91-.88,1.71Z"/>
      <path class="cls-9" d="M253.79,407.03c0,.31.14.56.34.78,1.01,1.12,1.39,2.56,1.94,3.9.19.45.29,1.06-.2,1.5-.38-1.06-1.12-1.9-1.79-2.79-.93-1.23-1.02-2.3-.3-3.4Z"/>
      <path class="cls-10" d="M277.73,407.91c-1.1-.2-1.77-1.12-2.41-1.8-.95-1-2.03-1.25-3.22-1.48,0-.38,0-.76.01-1.14,2.54.62,4.51,1.97,5.62,4.42Z"/>
      <path class="cls-10" d="M245.8,374.45c1.8-1.4,3.79-1.5,5.88-.82.36.2.33.55.34.89-1.75-.57-3.48-.52-5.21.09-.33-.05-.67-.11-1-.16Z"/>
      <path class="cls-11" d="M235.13,388.41c-.67-.59-1.44-1.07-2.03-1.76,1.72-1.27,2.52-1.28,3.81-.04-.84.35-1.46.93-1.78,1.79Z"/>
      <path class="cls-10" d="M250.24,368.93c-2.22-.22-4.31.15-6.24,1.3-.19-.04-.37-.08-.56-.11.13-.78.84-.93,1.4-1.11,1.66-.51,3.32-1.09,5.11-.96.14.28.31.55.29.88Z"/>
      <path class="cls-12" d="M267.04,393.09c-1.03-.13-1.8-.87-2.77-1.14.94-1.05.97-1.07,2.19-.64.4.14.8.3,1.18.45.06.61-.43.9-.59,1.34Z"/>
      <path class="cls-2" d="M278.6,394.93c-.18-1.4.69-2.13,1.74-2.77.38-.23.64-.02.94.13-.97.86-1.68,1.87-1.77,3.21-.49.1-.58-.44-.92-.57Z"/>
      <path class="cls-10" d="M240.79,373.99c.86-1.03.77-2.14.29-3.28-.24-.58-.61-1.12-.62-1.78,1.42,1.15,1.92,2.67,1.82,4.44-.75.08-.85.96-1.47,1.2,0-.19-.01-.39-.02-.58Z"/>
      <path class="cls-10" d="M235.13,388.41c.32-.87.94-1.44,1.78-1.79.02.1.03.19.03.29-1.09,1.13-1.48,2.6-1.94,4.39-.73-1.26-.01-2.05.12-2.88Z"/>
      <path class="cls-2" d="M263.59,391.42c-.87-.2-1.48-.81-2.13-1.35-.25-.21-.13-.41.04-.59.95-.15,1.65.48,2.38.87.52.28-.17.71-.29,1.08Z"/>
      <path class="cls-12" d="M273.26,392.55c.86-.41,1.82-.4,2.72-.65-.08.48-.36.86-.62,1.25-.76.15-1.52.28-2.18-.31.03-.1.05-.2.08-.29Z"/>
      <path class="cls-10" d="M273.26,392.55c-.03.1-.05.2-.08.29-.93.3-.79,1.07-.78,1.78-.44.03-.9.11-1.22-.32-.15-.8.56-1.16.88-1.71.4-.01.8-.03,1.2-.04Z"/>
      <path class="cls-10" d="M275.36,393.15c.25-.39.54-.77.62-1.25.41-.24.27.37.54.35-.29.96-.69,1.89-.54,2.93-.14.16-.21.44-.46.42-.08,0-.14-.28-.21-.43.02-.67.04-1.34.05-2.01Z"/>
      <path class="cls-13" d="M274.19,396.03c.89.39,1.72.83,2.09,1.82-.68.05-1.09-.76-1.81-.57,0,0,0,0,0,0-.09-.42-.18-.83-.27-1.25Z"/>
      <path class="cls-10" d="M263.85,405.26c-.09-.65.12-1.24.42-1.89.45.59.6,1.24.71,1.9-.38,0-.75,0-1.13,0Z"/>
      <path class="cls-10" d="M238.44,390.78c-.12.12-.3.15-.37.02-.32-.63-.45-1.26.16-1.82.16.01.32.02.48.03.14.62-.39,1.15-.27,1.77Z"/>
      <path class="cls-1" d="M245.16,397.85c-.38-.53-.31-1.05.01-1.79.46.67.7,1.2.59,1.86-.2-.02-.4-.05-.6-.07Z"/>
      <path class="cls-10" d="M242.56,380.98c.38-.59,1.44-.71,1.18-1.73.44,1.17.39,1.33-.51,1.78-.21.11-.42.23-.63.34-.01-.13-.03-.26-.04-.4Z"/>
      <path class="cls-13" d="M274.42,397.99c-.57-.26-1.15-.51-1.72-.77.06-.32.19-.54.58-.38.39.16.75.44,1.2.44h0c-.02.24-.03.47-.05.71Z"/>
      <path class="cls-13" d="M248.13,360.93l.04-.56c.23-.12.3-.33.3-.57.41.14.57.46.59.86-.24.35-.59.29-.93.27Z"/>
      <path class="cls-13" d="M273.32,399.14c.57-.1,1.14-.17,1.7.06-.55.28-1.15.09-1.72.15.02-.07.03-.14.02-.21Z"/>
      <path class="cls-8" d="M257.32,418.23c.29,0,.59.01.88.02-.2.39-.42.75-.87.91l-.04-.03c0-.3.02-.6.02-.89Z"/>
      <path class="cls-1" d="M244.6,398.86c.08-.25.26-.38.52-.42.09.23.19.53.02.67-.23.2-.4-.07-.54-.26Z"/>
      <path class="cls-7" d="M226.59,389.89c-.02.42.14.88-.3,1.19.03-.41-.11-.87.3-1.19Z"/>
      <path class="cls-9" d="M251.7,363.35c.14,0,.29,0,.43,0-.09.32-.12.32-.43,0Z"/>
      <path class="cls-7" d="M257.34,419.16s-.1.08-.15.13c-.04-.09,0-.14.11-.16,0,0,.04.03.04.03Z"/>
      <path class="cls-12" d="M258.83,402c-.1-.11-.21-.21-.31-.32.19.02.3.12.31.32Z"/>
      <path class="cls-12" d="M259.09,402.3c-.09-.11-.19-.21-.28-.32.18.03.26.15.28.32Z"/>
      <path class="cls-10" d="M263.53,405.31c.1-.01.2-.03.3-.04-.08.17-.18.19-.3.04Z"/>
      <path class="cls-7" d="M186.71,346.5c-.85-.16-1.33-.81-1.73-1.47-1.85-3-3.25-6.2-4.17-9.6-.18-.65-.66-1.21-.6-1.94.13-.29.33-.5.63-.6.6.98.78,2.21,1.72,3,.13.42-.29,1.25.76.95.34-.1.56.14.69.42.55,1.22,1.61,2.07,2.26,3.23.47.83,1.27,1.33,2.23,1.52.67.13.89-.2.89-.8.65-.32.67-1.06,1.04-1.55.57.42,1.15.55,1.9.37.65-.16,1.37-.04,2.05-.04.4,1.26,1.28,2.17,2.32,2.89.38.27.94.87,1.39.39.46-.5-.08-1.08-.4-1.56-.32-.47-.91-.76-.94-1.42.18-.07.41-.25.54-.19,1.36.54,1.99-.2,2.44-1.31,2.03,1.68,3.71,3.64,5.02,5.93-.85.5-1.79.23-2.69.31-.09,0-.18,0-.27,0-.46-.05-.87.1-1.26.33-1.18.68-2.4,1.02-3.76.61-.85-.26-1.74.05-2.6.09-.58.02-1.13.85-1.27,1.63-1.34-1.04-2.41-2.36-3.64-3.52-.35-.33-.67-.71-1.05-1-.46-.34-.82-.25-.91.38-.1,0-.2,0-.29,0-.05-.15-.1-.17-.12-.07,0,.01.08.04.12.07,0,.1,0,.2,0,.3,0,.29.01.59.02.88-.57.51-.21,1.19-.33,1.78Z"/>
      <path class="cls-6" d="M201.8,345.02c.09,0,.18,0,.27,0,1.05,1.27,2.35,2.13,4.03,2.63.14-1,.36-1.84-.16-2.66,0-.39.01-.77-.14-1.14-.11-.26-.28-.59.07-.75.32-.15.51.18.71.37.1.1.16.24.24.36,0,.24.07.46.3.59.17.76.37,1.52.51,2.29.3,1.54-.61,2.32-2.11,1.96-1.26-.31-2.06-1.3-3.13-1.88-.08-.63-.74-1.06-.58-1.77Z"/>
      <path class="cls-9" d="M205.94,345c.53.81.31,1.66.16,2.66-1.67-.5-2.98-1.37-4.03-2.63.9-.08,1.84.19,2.69-.31.39.1.78.19,1.17.29Z"/>
      <path class="cls-13" d="M204.75,353.87c-.38-.41-.43-.94-.57-1.42.33-.3.56-.03.79.1,1.12.62,1.22.56,1.27-.76,0-.19,0-.39,0-.58,1.06.23,1.3.51,1.15,1.37-.17.93-.95,1.61-1.8,1.52-.28-.03-.55-.15-.83-.23Z"/>
      <path class="cls-13" d="M206.66,332.55c.54.56.5,1.16.4,1.73-.13.74-.83,1.14-1.54.9-.74-.26-1.35-.75-1.95-1.26-.15-.13-.27-.35-.16-.51.16-.23.42-.2.65-.07.42.24.82.53,1.26.73.8.38,1.03.25,1.19-.59.05-.28-.07-.59.15-.93Z"/>
      <path class="cls-13" d="M207.11,344.42c-.24-.13-.29-.35-.3-.59.48,0,.9-.08.89-.7-.01-.58.04-1.16-.16-1.74-.13-.38-.44-.78-.14-1.43.84,1.29,1.28,2.59,1.44,3.97.06.5-.34.8-.88.72-.29-.04-.56-.15-.84-.23Z"/>
      <path class="cls-13" d="M207.03,339.41s-.05.07-.08.1c-.02-.04-.06-.08-.06-.11,0-.03.05-.07.08-.1.02.04.04.08.06.11Z"/>
      <path class="cls-6" d="M238.17,345.64c-.14.56-.37,1.11-.31,1.71.02.16.11.27.27.31,1.14-.19,1.97-.95,2.88-1.56.52-.35,1.02-.72,1.53-1.07.19.71-.52,1.13-.58,1.76-1.07.76-2.01,1.71-3.42,1.89-1.02.13-1.52-.12-1.58-1.11-.06-.97-.08-1.94.17-2.9-1.33-.11-1.37-.16-1.37-1.45,0-1.27.63-2.29,1.22-3.37.32.29.17.51.11.74-.15.57-.35,1.13-.41,1.7-.05.46-.26,1.08.21,1.36.4.24.8-.19,1.15-.45.2-.15.43-.23.68-.25h0c.07.95-.69,1.73-.55,2.7Z"/>
      <path class="cls-13" d="M241.1,333.36c-.6,1.07-1.5,1.54-2.46,1.85-.6.2-1.09-.18-1.28-.73-.21-.63-.26-1.31.15-1.94.46.17.29.5.31.75.11,1.21.33,1.31,1.46.7.52-.28,1-.75,1.82-.64Z"/>
      <path class="cls-6" d="M238.72,342.94s.05-.12.07-.11c.1.02.07.07-.06.11,0,0,0,0,0,0Z"/>
      <path class="cls-11" d="M182.92,334.25c-.57-1.19-1.16-2.38-1.37-3.7-.04-.24-.14-.49-.11-.72.07-.49.21-1.09.71-1.19.57-.12.6.52.73.91.18.51.43.98.7,1.39.41.09.42-.22.54-.41.27-.4.59-.35.8.02.39.68.76,1.38,1.08,2.09.46,1.04,1.17,1.92,1.77,2.87.15.24.37.53.69.48.39-.06.3-.44.33-.71.09-.92.38-1.82.32-2.76-.02-.3.14-.61.47-.65.38-.05.47.31.56.57.2.57.18,1.17.04,1.74-.09.38-.27.74-.16,1.14-.09,1.55-.27,3.08-.9,4.65-2.92-1.81-4.1-4.68-5.26-7.8-.5.83-.5,1.56-.94,2.08Z"/>
      <path class="cls-13" d="M182.92,334.25c.44-.52.45-1.25.94-2.08,1.15,3.13,2.33,5.99,5.26,7.8.62-1.56.8-3.1.9-4.65.36.02.49.24.51.57.02.48.05.96.07,1.44-.03.69-.05,1.39-.08,2.08-.03.08-.05.17-.07.25-.38.5-.39,1.24-1.04,1.55-1.28-.43-2.27-1.18-3.11-2.27-.95-1.24-1.75-2.54-2.36-4.3-.2.98-.65,1.31-1.36,1.26-.94-.79-1.12-2.02-1.72-3,0-.33-.06-.67.11-.98.53-.08.55.36.65.63.23.64.5,1.26.87,1.83.19.29.39.22.45-.13Z"/>
      <path class="cls-11" d="M196.76,340.29c.03.66.62.95.94,1.42.32.47.85,1.06.4,1.56-.44.48-1-.12-1.39-.39-1.04-.72-1.92-1.63-2.32-2.89.01-.39.02-.78-.13-1.16-.11-.28-.22-.6.09-.79.36-.23.63.06.9.28.43.35.63.87.97,1.29.18.23.36.46.54.69Z"/>
      <path class="cls-7" d="M190.52,339.41c.03-.69.05-1.39.08-2.08,1.05.76,1.04,1.06-.08,2.08Z"/>
      <path class="cls-10" d="M200.58,332.63c-.03-.05-.07-.1-.1-.15.05.04.1.07.15.11,0,0-.05.05-.05.05Z"/>
      <path class="cls-11" d="M254.34,335.02c-.17-.86-.37-1.73-.22-2.62.04-.25.17-.48.44-.53.31-.06.43.19.52.41.26.64.48,1.28.48,1.99,0,.47-.16.98.25,1.5,1.13-.53,1.63-1.61,2.23-2.57.46-.74.88-1.53,1.12-2.4.08-.3.31-.54.66-.44.31.09.47.38.44.7-.04.43-.15.86-.22,1.29-.03.27-.06.54-.09.81-.65.34-.88.83-.52,1.52-.86,2.21-2.25,3.96-4.35,5.28-.59-1.74-.74-3.33-.74-4.94Z"/>
      <path class="cls-13" d="M254.34,335.02c0,1.61.15,3.2.74,4.94,2.1-1.32,3.49-3.07,4.35-5.28.35-.45.52-.95.52-1.52.03-.27.06-.54.09-.81.48-.05.71.23.83.65.15.51.3,1.02.49,1.67.72-.58,1-1.24,1.02-2.04.03-.09.06-.17.08-.26.25-.15.41-.37.5-.64.18.01.36.02.55.03.01.28.02.56.03.83-.05,1.09-.69,1.92-1.27,2.77-.35.51-.86.73-1.39.32-.57-.44-.76-.12-.96.34-.51,1.18-1.24,2.22-2.07,3.2-.44.53-.91,1.02-1.49,1.41-1.19.8-1.32.79-2.25-.36-.12-1.21-.45-2.41-.33-3.65.05-.59.07-1.17.56-1.61Z"/>
      <path class="cls-1" d="M249.35,341.46c-.76.46-1.21,1.28-2.03,1.67-.26.12-.46.37-.77.39-.19.01-.4.04-.54-.14-.14-.18-.08-.37.02-.54.28-.46.53-.94.85-1.36.42-.55.69-1.18,1.01-1.78.46-.5.89-1.03,1.38-1.48.35-.32.6-.17.68.3.19,1.06-.27,1.99-.59,2.95Z"/>
      <path class="cls-11" d="M262.46,332.38c-.02.09-.05.17-.08.26-1.19-.18-1.42-.39-1.15-1.42.24-.9.39-1.88,1.1-2.71.64.85.76,1.62.26,2.47-.26.44-.29.92-.13,1.41Z"/>
      <path class="cls-7" d="M263.5,331.78c-.18-.01-.36-.02-.55-.03,0-.19.02-.44.22-.46.35-.04.3.27.32.49Z"/>
      <path class="cls-10" d="M248.16,334.07s.09-.08.14-.12c-.04.05-.08.1-.12.15,0,0-.03-.03-.03-.03Z"/>
      <path class="cls-1" d="M187.31,343.54c.09-.63.45-.72.91-.38.38.29.7.66,1.05,1,1.23,1.16,2.3,2.48,3.64,3.52.02.42.22.71.59.9.02.34.18.55.53.6,0,.18,0,.35,0,.53-.29.03-.58.06-.87.08-2.68-1.27-4.46-3.42-5.85-5.95v-.3Z"/>
      <path class="cls-13" d="M187.31,343.83c1.4,2.53,3.17,4.68,5.86,5.95.32.28.62.43.87-.08,0-.18,0-.35,0-.53.02-.2.03-.4.05-.6.1-.41-.12-.87.24-1.34.76,1,.79,2.09.57,3.2-.11.56-.43.73-1.08.56-2.16-.55-3.72-1.89-5.01-3.6-.64-.85-1.19-1.78-1.77-2.68,0-.29-.01-.59-.02-.88,0,0,.15,0,.15,0h.15Z"/>
      <path class="cls-7" d="M194.09,348.57c-.02.2-.03.4-.05.6-.35-.05-.51-.26-.53-.6.19,0,.39,0,.58,0Z"/>
      <path class="cls-10" d="M201.21,380.74c-.29-.01-.58-.02-.87-.04-.17-1.35.26-2.54.99-3.66.69.36.34.77.11,1.1-.56.83-.65,1.69-.23,2.6Z"/>
      <path class="cls-5" d="M196.81,396.67c.28-.59-.42-.9-.4-1.41.53-.13.66.44,1.04.59-.05.23-.1.46-.15.69-.05.03-.1.06-.15.1-.14-.12-.27-.1-.38.04h.04Z"/>
      <path class="cls-5" d="M188.18,391.14c-.49-.48-1.04-.85-1.7-1.04-.46-.13-.43-.45-.33-.81.42-.51.74-1.06.57-1.77.12.05.18.02.17-.1,0,0-.06-.01-.09,0-.2.02.07-.02-.07.12-.08,0-.16.01-.24.03-.17.04-.27.13-.3.31l.02.06c-.23-.12-.76-.28-.43-.51.51-.37.59-.78.71-1.32.11-.54.47-.85,1.17-.81,1,.06,2-.31,3.14.01-.51.86-.55,1.76-.53,2.67.02.69.09,1.22.99.84.21-.09.37.03.5.19-.52.82-1.04,1.64-1.54,2.47-.24.4-.57.49-.99.46-.28-.37-.58-.7-1.06-.81Z"/>
      <path class="cls-4" d="M189.24,391.95c.41.03.75-.06.99-.46.49-.83,1.02-1.65,1.54-2.47.31-.21.5-.78,1.02-.19.23.26.68.32,1.03.48,0,.4-.17.71-.53.9-.29-.35-.57-.32-.78.07-.38.71-.72,1.44-.85,2.25-.45.03-.51-.69-.67-.59-.38.23-.79.42-1.07.88-.54.88-1.19,1.75-2.28,2.08-.4-.58-.97-.98-1.53-1.38.83-.43,1.66-.85,2.48-1.28.25-.03.48-.08.65-.29Z"/>
      <path class="cls-5" d="M193.28,390.21c.35-.2.53-.5.53-.9.74-.69,1.57-1.12,2.61-.84.4.11.92.2.87.79-.05.56-.5.64-.97.64-.15,0-.29,0-.44,0-.27-.27-.54-.47-.96.01h.95c.38.34,1.11.44.86,1.22-1.13-.24-2.27-.63-3.34.18-.37-.35-.13-.73-.11-1.09Z"/>
      <path class="cls-14" d="M186.49,387.57c.08-.02.16-.02.24-.03h-.01c.17.69-.15,1.24-.57,1.75-.04-.25-.02-.53-.34-.63.13-.24.27-.49.4-.73,0,0-.02-.06-.02-.06.1-.1.2-.21.3-.31Z"/>
      <path class="cls-5" d="M185.13,388.35c-.03.08-.05.21-.11.23-.06.02-.16-.06-.24-.09.03-.08.05-.21.11-.23.06-.02.16.06.24.09Z"/>
      <path class="cls-5" d="M197.05,391.42c-.15-.06-.28-.15-.31-.33.1.11.21.22.31.33Z"/>
      <path class="cls-11" d="M177.81,400.57c.93-.06,1.46-.82,2.2-1.22.15.19.29.38.44.57.19.24.41.47.72.25.26-.18.08-.43,0-.66-.04-.14-.08-.28-.11-.42.68.19,1.32.2,1.88-.34.24-.24.56-.4.84-.59.22.1.28.31.34.52-.15.87-.79,1.31-1.5,1.66-.99.49-2.05.79-2.97,1.46-.41.3-1,.33-1.51.49,0,0-.06-.05-.06-.05-.09-.56-.18-1.12-.28-1.67Z"/>
      <path class="cls-4" d="M185.9,394.57c.69.31,1.36.63,1.42,1.53-.66.36-1.07.99-1.62,1.46-.29.25-.53.59-.98.56-.01-.58-.41-.95-.72-1.37.88-.52,1.47-1.29,1.9-2.19Z"/>
      <path class="cls-9" d="M184,396.76c.31.42.7.8.72,1.37-.08.32-.16.63-.59.56-.06-.21-.12-.42-.34-.52-.27-.48-.61-.91-1.1-1.19-.04-.09-.08-.18-.13-.27.35-.03.6-.16.6-.56.38.06.52.46.84.61Z"/>
      <path class="cls-11" d="M177.56,402.89c0-.1,0-.2,0-.3.17-.11.34-.23.52-.34,0,0,.06.05.06.05,0,.39-.2.59-.59.59Z"/>
      <path class="cls-3" d="M185.5,414.25c-.76-3.48-.36-6.66,2.2-9.37.42.42.34.75.22.99-1.24,2.66-1.65,5.56-2.42,8.38Z"/>
      <path class="cls-14" d="M197.9,380.33c-.45.2-.51-.12-.57-.44.32-.02.52.11.57.44Z"/>
      <path class="cls-1" d="M198.25,375.13c.33-.01.66-.06.91.24-.35.09-.67.08-.91-.24Z"/>
      <path class="cls-14" d="M198.5,379.82c0,.16-.08.28-.23.35-.02-.18.07-.29.23-.35Z"/>
      <path class="cls-5" d="M167.41,391.93c.74.97.84,2.16,1.16,3.28-.25.11-.5.21-.75.32-1.16.13-1.96-.22-2.26-1.48-.11-.5-.49-.93-.75-1.39.06-.22.09-.6.34-.55.78.16,1.5-.27,2.26-.18Z"/>
      <path class="cls-5" d="M184,396.76c-.32-.15-.46-.55-.84-.61-.03-.04-.06-.08-.09-.11-.35-.42-1.26-.19-1.26-.95,0-.55,1.53-1.5,2.19-1.4.71.11,1.47.17,1.91.88-.44.9-1.02,1.67-1.9,2.19Z"/>
      <path class="cls-5" d="M188.59,392.24c-.83.43-1.66.85-2.48,1.28-.69-.1-1.16-.73-1.98-.61.14-.29.19-.43.27-.54q1.35-1.72,3.44-.95c.25.27.5.55.75.82Z"/>
      <path class="cls-10" d="M188.59,392.24c-.25-.27-.5-.55-.75-.82.11-.09.23-.18.34-.28.47.11.78.44,1.06.81-.17.2-.4.26-.65.29Z"/>
      <path class="cls-3" d="M164.55,407.01c.36-1.45,1.45-2.49,2.12-3.78,1.01-.91,2.1-1.7,3.36-2.27.54.89.11,1.46-.55,1.88-1.69,1.07-2.83,2.65-4.01,4.19-.3,0-.61-.02-.91-.03Z"/>
      <path class="cls-8" d="M164.55,407.01c.3,0,.61.02.91.03-.06.86-.82,1.47-.84,2.35-.95.24-1.08.18-.83-.53.21-.63.27-1.33.76-1.84Z"/>
      <path class="cls-4" d="M196.18,396.95s0,.02,0,.02c-.04.13-.17.32-.12.39.56.85.17,1.45-.48,2-.39-.49-.79-.97-1.18-1.46.34-.8,1-.99,1.78-.95Z"/>
      <path class="cls-4" d="M196.16,396.98c-.14-.35.1-.3.31-.28-.05.15-.14.26-.31.28Z"/>
      <path class="cls-10" d="M196.77,396.66c.11-.14.24-.16.38-.04-.12.11-.22.35-.38.04Z"/>
      <path class="cls-10" d="M178.09,402.25c-.17.11-.34.23-.52.34-.22-.59-.44-1.18-.66-1.77.02-.1.04-.19.06-.28.21,0,.42,0,.62,0,.08,0,.15.02.22.05.09.56.18,1.12.28,1.67Z"/>
      <path class="cls-4" d="M193.58,398.74c.68.15,1.13.57,1.43,1.19-.54.28-.73.8-.91,1.33-.56-.08-.9-.46-1.18-.9.13-.58.18-1.19.67-1.62Z"/>
      <path class="cls-10" d="M181.06,399.1c.04.14.07.28.11.42.07.22.25.48,0,.66-.31.21-.53-.01-.72-.25-.15-.19-.29-.38-.44-.57-.01-.1-.02-.2-.04-.3.26-.03.53-.07.79-.1.1.05.2.1.3.15Z"/>
      <path class="cls-2" d="M181.06,399.1c-.1-.05-.2-.1-.3-.15-.1-.22-.2-.43-.3-.65.07-.51.05-1.05.85-1.03.46,0,.92-.18,1.38-.28.5.28.83.71,1.1,1.19-.28.19-.6.35-.84.59-.56.55-1.2.53-1.88.34Z"/>
      <path class="cls-14" d="M263.53,335.57c-.97,3.79-2.62,7.26-4.9,10.43-.26.37-.45.77-.97.8-.09-.45.15-.84.21-1.26.07-.46.19-.99-.51-1.14-.01-.29-.03-.58-.04-.87.15-.08.34-.15.12-.35-.04.12-.07.24-.11.36-.1,0-.21,0-.31,0-.38-.18-.2-.71-.57-.89.66-1.8,2.05-3.05,3.39-4.29.64-.59,1.12-1.48,2.21-1.52.29-.01.49-.44.65-.75.17-.33.46-.5.83-.5Z"/>
      <path class="cls-13" d="M257.33,343.53c.01.29.03.58.04.87-.81,1.75-1.85,3.33-3.32,4.62-.9.79-2.05,1.3-2.66,2.44-.14.26-.6.72-.97.49-.57-.36-1-.94-1.06-1.67-.08-.88,0-1.76.31-2.6.19-.02.48-.76.56.06.05.48.06.96.09,1.44-.08.59,0,1.03.75.67.35-.17.69-.35,1.02-.56,2.22-1.43,3.61-3.56,4.94-5.76.1,0,.21,0,.31,0h-.01Z"/>
      <path class="cls-10" d="M240.2,352.1s.05-.12.07-.11c.1.02.07.07-.07.11h0Z"/>
      <path class="cls-11" d="M257.02,343.53c-1.32,2.19-2.72,4.33-4.94,5.76-.33.21-.67.39-1.02.56-.76.36-.83-.07-.75-.67.64-.14.62-.82.98-1.19,1.71-1.79,3.44-3.57,5.15-5.35.37.18.19.72.57.89Z"/>
      <path class="cls-10" d="M238.13,347.66c-.16-.05-.25-.15-.27-.31.09.1.18.21.27.31Z"/>
      <path class="cls-5" d="M252.29,388.14c.29-.77.63-1.51,1.15-2.16.85-1.06,1.8-1.1,2.87-.25.64.51,1.11,1,.76,1.89-.05.12.15.33.24.5.23.31.45.62.68.93.16.31.32.63.48.94-.22-.06-.43-.03-.6.14-.4.19-1.07.18-.68.94,0,0,0,0,0,0,0-.62-.13-.68-.75-.32-.59.28-1.25.45-1.48,1.18-.69,0-.83-.63-1.09-1.04-.58-.89-1.06-1.84-1.58-2.77Z"/>
      <path class="cls-13" d="M258.46,390c-.16-.31-.32-.63-.48-.94.26,0,.52-.02.78-.03.5.49,1.01.98,1.51,1.46,1.21,1.56,2.63,2.87,4.45,3.72.6.28,1.31.48,1.6,1.2-.58.1-.77.49-.75,1.03-.75-.33-1.46-.81-2.34-.72-.11-.13-.2-.1-.28.03-.08.06-.17.08-.26.08-.25-.13-.33-.35-.33-.61.17-.2.24-.39-.02-.59-.41-.32-.8-.67-1.2-1-.37-.25-.95-.29-.93-.92-.27-.33-.54-.67-.81-1-.76-.94-.94-.98-2.21-.61-.4-.76.27-.76.68-.94.54.27.54.27.6-.14Z"/>
      <path class="cls-4" d="M252.29,388.14c.52.93,1.01,1.88,1.58,2.77.27.41.4,1.04,1.09,1.04.18.28.45.29.74.27,1.02.05,1.79.63,2.54,1.24-.59.61-1.43,1-1.67,1.91-1.27-1.15-2.64-2.2-3.44-3.77-.17-.34-.46-.5-.84-.5-.05-.04-.11-.07-.18-.1-.03-.71-.32-1.33-.7-1.91.03-.56.27-.93.88-.95Z"/>
      <path class="cls-5" d="M251.33,392.36c.15.74.82,1.37.46,2.22-.62-.37-1.24-.41-1.85.03,0,0-.01,0-.01,0-.52-.1-.94.28-1.42.33-.66-.58-.76-1.27-.49-2.08.09-.27.11-.56.17-.84,1.11-.48,2.17-.4,3.15.33Z"/>
      <path class="cls-10" d="M252.92,383c.19,0,.39,0,.58,0,.19.01.38.02.58.04.7.09,1.39.18,2.09.27-.04.23.27.63-.28.6-.19,0-.38-.1-.57-.12-1.4-.12-2.78-.19-4.09.56-.66.38-1.44.55-2.17.82l.02.02c-.02-.54.41-.72.75-.98.92-.7,1.98-1,3.09-1.21Z"/>
      <path class="cls-9" d="M251.33,392.36c-.98-.74-2.04-.82-3.15-.33-.55-.05-.83.49-1.3.63.35-1.29,1.57-2.02,2.99-1.77.43.08.83.33,1.29.22.32-.03.63-.06.95-.09.06.02.12.06.18.1,0,.29,0,.58,0,.88-.39-.04-.74-.01-.96.38Z"/>
      <path class="cls-10" d="M249.06,385.17c-.37.79-1.12.89-1.85.93-.82.05-1.35-.5-1.37-1.35-.01-.51-.16-1.06.22-1.61.58.27.35.78.43,1.15.21.96.28,1.04,1.27.94.44-.04.87-.11,1.31-.03,0,0-.02-.02-.02-.02Z"/>
      <path class="cls-9" d="M248.5,394.94c.49-.05.9-.43,1.42-.33-.15.3-.55.43-.55.83-.37.27-.76.51-.96.95-.33.33-.64.7-1.12.85,0-.28-.01-.57-.02-.85.41-.48.82-.97,1.23-1.45Z"/>
      <path class="cls-14" d="M252.11,391c-.32.03-.63.06-.95.09.05-.67-.33-1.4.24-2.01.39.58.67,1.2.7,1.91Z"/>
      <path class="cls-9" d="M258.76,389.03c-.26,0-.52.02-.78.03-.23-.31-.45-.62-.68-.93.09-.15-.01-.61.35-.36.46.32.86.73,1.11,1.26Z"/>
      <path class="cls-10" d="M243.75,379.28c-.21-.19-.39-.48-.64-.56-.51-.17-.52-.45-.41-.9.19-.79.33-1.53-.27-2.33-.41-.55-.14-1.41-.16-2.14.04.03.09.04.12.08.86.87,1.38,1.81,1.05,3.12-.22.91.37,1.79.31,2.73Z"/>
      <path class="cls-9" d="M245.8,374.45c.33.05.67.11,1,.16-.59.58-1.38.73-2.13.95-.32-.26-.39-.6-.33-.99.5.1.98-.04,1.46-.12Z"/>
      <path class="cls-10" d="M245.24,379.21c0,.12,0,.24,0,.36-.23-.12-.11-.24,0-.36Z"/>
      <path class="cls-4" d="M260,399.04c0-.09,0-.18-.01-.27,0-.12,0-.24.01-.35,0,0,0-.09,0-.09.18-.16.37-.33.55-.49.88.5,1.75,1.01,2.63,1.51.04.32-.12.68.15.98.4-.06.38-.54.68-.69.51.18,1.02.37,1.58.32.11.61-.37,1.14-.27,1.75-.46.07-.88-.04-1.23-.32-.55-.42-1.17-.69-1.82-.84-.97-.21-1.5-1.02-2.26-1.51Z"/>
      <path class="cls-2" d="M265.32,401.7c-.09-.61.39-1.13.27-1.75.38,0,.76-.01,1.14-.02-.08.41-.15.82-.23,1.23-.26.34-.28.74-.31,1.14,0,0,.01,0,.01,0-.29-.2-.59-.4-.88-.6Z"/>
      <path class="cls-6" d="M265.58,396.44c-.02-.54.17-.93.75-1.03.11.01.23.03.34.04.16,0,.32.02.48.03,1.51.16,3.02-.02,4.54,0,.87.01,1.77-.06,2.51.56.09.42.18.83.27,1.25-.45,0-.8-.28-1.2-.44-.38-.16-.51.06-.58.38-1.2-.05-2.38-.01-3.42.71-.27-.13-.55-.26-.82-.39-1.58-.57-2.78.25-3.96,1.09-.02-.33-.04-.66-.06-.98.25-.53,1.14-.46,1.15-1.22Z"/>
      <path class="cls-2" d="M275.36,393.15c-.02.67-.04,1.34-.05,2.01-.94-.3-1.89-.6-2.9-.54-.01-.71-.16-1.48.78-1.78.66.59,1.42.46,2.18.31Z"/>
      <path class="cls-13" d="M267.14,395.48c-.16,0-.32-.02-.48-.03.17-.17.33-.15.48.03Z"/>
      <path class="cls-4" d="M247.29,397.24c.47-.15.78-.52,1.12-.85q1.46.25,1.22,1.57c-.02.1-.04.19-.06.28-.36.47-.72.95-1.09,1.42-.33-.13-.57-.36-.58-.72,0-.56-.39-.93-.63-1.37,0-.11,0-.22,0-.34Z"/>
      <path class="cls-10" d="M248.49,399.67c.36-.47.72-.95,1.09-1.42.22-.1.45-.21.67-.31.01.25.11.44.35.56-.12.12-.23.23-.35.35-.41.11-.62.45-.85.75-.24.3-.52.42-.89.31,0-.08,0-.15-.02-.23Z"/>
      <path class="cls-12" d="M249.93,375.73c.17,0,.26,0,.36,0,.94.06,1.68.5,1.61.96-.07.44-.94.83-1.75.8-.05,0-.1,0-.15,0-.92-.08-1.59-.58-1.45-1.12.2-.8.89-.59,1.38-.64Z"/>
      <path class="cls-3" d="M259.14,409.37c-.09.5.09.96.14,1.44.1,1.13.31,2.32-.62,3.27-.13-.82-.32-1.63-.4-2.45-.18-1.94-.91-3.68-1.81-5.37-.24-.45-.91-1.07-.26-1.5.5-.33.9.41,1.25.77,1.04,1.06,1.34,2.46,1.7,3.83Z"/>
      <path class="cls-12" d="M250.25,398.84c.12-.12.23-.23.35-.35.44-.23.93-.29,1.4-.37.31.06.61.03.91-.08.64.09,1.2.33,1.68.88-.81.29-1.66.41-2.29,1.01-.5.16-.77.64-1.21.87-.67-.48-.75-1.22-.84-1.96Z"/>
      <path class="cls-9" d="M251.09,400.8c.45-.23.71-.72,1.21-.87,0,.2,0,.41,0,.61-.31.48-.61.96-.92,1.43-.41.2-.47,1.14-.98.79-.5-.34,0-.94.29-1.37.13-.19.26-.39.39-.59Z"/>
      <path class="cls-1" d="M252.29,391.98c0-.29,0-.58,0-.88.38,0,.67.16.84.5.8,1.57,2.17,2.63,3.44,3.77.13.69.43.15.66.09.13.31.25.62.38.94-.28.04-.59-.26-.83,0-.4.44-.72.94-.69,1.57-.2-.13-.46-.22-.6-.39-1.35-1.7-2.54-3.5-3.21-5.6Z"/>
      <path class="cls-5" d="M250.25,397.93c-.22.1-.45.21-.67.31.02-.09.04-.19.06-.28q.24-1.32-1.22-1.57c.2-.44.59-.69.96-.95.52-.15,1.04-.23,1.58-.16.99.13,1.78.48,1.9,1.77-.85.28-1.91.12-2.61.89Z"/>
      <path class="cls-9" d="M249.94,394.6c.61-.43,1.23-.4,1.85-.03-.62,0-1.24.02-1.85.03Z"/>
      <path class="cls-7" d="M252.91,398.04c-.29.12-.6.14-.91.08.28-.28.58-.33.91-.08Z"/>
      <path class="cls-9" d="M253.18,400.23c-.06.12-.15.19-.29.17.06-.13.16-.18.29-.17Z"/>
      <path class="cls-3" d="M273.84,401.73c.19-.28.33-.6.8-.36,1.22.63,2.35,1.32,3.15,2.52.87,1.31,1.68,2.62,2.07,4.16.12.47.37.92-.08,1.35-.85-2.79-2.71-4.84-4.89-6.66-.37-.31-.83-.53-1.05-1Z"/>
      <path class="cls-10" d="M278.03,408.21c-.11-.1-.21-.2-.32-.31.11.1.21.2.32.31Z"/>
      <path class="cls-13" d="M268.45,397.55c.27.13.55.26.82.39-.64.7-1.31,1.38-1.6,2.31-.38.22-.24.7-.5.98-.22-.02-.45-.05-.67-.07.08-.41.15-.82.23-1.23.49-.86,1.06-1.65,1.72-2.39Z"/>
      <path class="cls-14" d="M266.5,401.16c.22.02.45.04.67.07-.02.19-.07.37-.07.55.03.78-.31.89-.92.52.03-.4.06-.8.31-1.14Z"/>
      <path class="cls-2" d="M254.07,383.04c-.19-.01-.38-.02-.58-.04.21-.23.4-.21.58.04Z"/>
      <path class="cls-2" d="M257.61,396.39c-.13-.31-.25-.62-.38-.94.47-.65,1.13-1.03,1.86-1.33.31.91.4,1.93,1.25,2.58l-.63,1.17c-.88-.23-1.63-.67-2.1-1.48Z"/>
      <path class="cls-10" d="M259.71,397.88c.21-.39.42-.78.63-1.17.66-.51,1.09-1.34,2.02-1.49,0,.26.08.49.33.61-.5.5-1.19.78-1.56,1.43h.04c-.17.03-.28.15-.34.31-.16.02-.25.11-.28.26-.18.16-.37.33-.55.49-.1-.15-.19-.3-.29-.44Z"/>
      <path class="cls-1" d="M260,398.41c0,.12,0,.24-.01.35-.23-.13-.15-.24.01-.35Z"/>
      <path class="cls-9" d="M182.57,335.9c.71.05,1.17-.28,1.36-1.26.61,1.76,1.41,3.06,2.36,4.3.84,1.09,1.83,1.85,3.11,2.27,0,.6-.23.94-.89.8-.96-.19-1.76-.69-2.23-1.52-.65-1.16-1.72-2.01-2.26-3.23-.12-.28-.35-.51-.69-.42-1.05.3-.63-.54-.76-.95Z"/>
      <path class="cls-9" d="M187.02,343.54s-.12-.05-.12-.07c.02-.1.07-.08.12.07,0,0,0,0,0,0Z"/>
      <path class="cls-9" d="M187.31,343.83h-.15s-.15,0-.15,0c0-.1,0-.2,0-.3,0,0,0,0,0,0,.1,0,.2,0,.3,0,0,.1,0,.2,0,.3Z"/>
      <path class="cls-7" d="M259.95,333.17c0,.56-.17,1.07-.52,1.52-.36-.69-.13-1.17.52-1.52Z"/>
      <path class="cls-7" d="M194.04,349.7c-.24.51-.55.36-.87.08.29-.03.58-.05.87-.08Z"/>
      <path class="cls-2" d="M186.49,387.57c-.1.1-.2.21-.3.31.03-.17.13-.27.3-.31Z"/>
      <path class="cls-14" d="M186.72,387.54c.14-.14-.13-.1.07-.12.03,0,.09,0,.09,0,.01.12-.05.16-.17.1,0,0,.01.01.01.01Z"/>
      <path class="cls-2" d="M195.87,389.91h-.95c.42-.49.69-.28.96-.01,0,0-.01.01-.01.01Z"/>
      <path class="cls-13" d="M257.34,343.54c.04-.12.07-.24.11-.36.22.21.03.27-.12.35,0,0,.01.01.01.01Z"/>
      <path class="cls-12" d="M258.24,393.46c-.75-.61-1.52-1.18-2.54-1.24.15-.59.84-.6,1.12-1.06.12-.03.24-.05.36-.08,0,0,0,0,0,0,1.27-.37,1.44-.32,2.21.61.27.33.54.67.81,1-.65.27-1.36.36-1.96.76Z"/>
      <path class="cls-9" d="M256.83,391.16c-.28.45-.97.47-1.12,1.06-.29.02-.56.01-.74-.27.22-.73.89-.9,1.48-1.18.13.13.26.26.39.39Z"/>
      <path class="cls-13" d="M256.83,391.16c-.13-.13-.26-.26-.39-.39.61-.36.74-.31.75.32-.12.03-.24.05-.36.08Z"/>
      <path class="cls-9" d="M258.46,390c-.05.41-.06.41-.6.14.17-.17.37-.2.6-.14Z"/>
      <path class="cls-12" d="M262.36,395.21c-.93.15-1.36.98-2.02,1.49-.85-.65-.94-1.67-1.25-2.58.63-.39,1.34-.44,2.05-.51.4.34.79.68,1.2,1,.26.2.19.39.02.59Z"/>
      <path class="cls-12" d="M261.13,397.26c.36-.65,1.05-.94,1.56-1.43.1,0,.18-.02.26-.08,0,0,.14.02.14.02l.14-.05c.88-.09,1.59.39,2.34.72,0,.76-.9.69-1.15,1.22-.12.07-.24.14-.36.21-.94-.37-1.92-.6-2.94-.6Z"/>
      <path class="cls-10" d="M261.13,393.62c-.71.07-1.42.12-2.05.51-.73.29-1.39.68-1.86,1.33-.23.06-.53.6-.66-.09.24-.91,1.08-1.3,1.67-1.91.6-.4,1.31-.49,1.96-.76-.01.64.56.67.93.92Z"/>
      <path class="cls-10" d="M263.23,395.72l-.14.05s-.14-.02-.14-.02c.08-.14.17-.17.28-.03Z"/>
      <path class="cls-5" d="M268.45,397.55c-.66.73-1.24,1.53-1.72,2.39-.38,0-.76.01-1.14.02-.56.05-1.07-.14-1.58-.32.16-.33.32-.66.48-.99,1.19-.85,2.38-1.66,3.96-1.09Z"/>
      <path class="cls-2" d="M261.13,397.26c1.02,0,1.99.23,2.94.6-.3.49-.6.98-.89,1.48-.88-.5-1.75-1.01-2.63-1.51.03-.15.12-.24.28-.26.11-.11.23-.21.34-.32h-.04Z"/>
      <path class="cls-13" d="M263.18,399.34c.3-.49.6-.98.89-1.48.12-.07.24-.14.36-.21.02.33.04.66.06.98-.16.33-.32.66-.48.99-.3.15-.29.63-.68.69-.27-.3-.11-.66-.15-.98Z"/>
      <path class="cls-12" d="M261.17,397.25c-.11.11-.23.21-.34.32.06-.16.17-.28.34-.32Z"/>
    </g>
  </g>
</svg>