<?xml version="1.0" encoding="UTF-8"?>
<svg id="GRIFOS" xmlns="http://www.w3.org/2000/svg" viewBox="0 0 455.05 452.32">
  <defs>
    <style>
      .cls-1 {
        fill: #a2732c;
      }

      .cls-1, .cls-2, .cls-3, .cls-4, .cls-5, .cls-6, .cls-7, .cls-8, .cls-9, .cls-10, .cls-11, .cls-12, .cls-13, .cls-14, .cls-15, .cls-16 {
        stroke-width: 0px;
      }

      .cls-2 {
        fill: #cedbe6;
      }

      .cls-3 {
        fill: #5a4c26;
      }

      .cls-4 {
        fill: #cddce9;
      }

      .cls-5 {
        fill: #3a2720;
      }

      .cls-6 {
        fill: #f6f1c9;
      }

      .cls-7 {
        fill: #1c1c1e;
      }

      .cls-8 {
        fill: #f3e29e;
      }

      .cls-9 {
        fill: #f4f6f9;
      }

      .cls-10 {
        fill: #7e4326;
      }

      .cls-11 {
        fill: #f8d762;
      }

      .cls-12 {
        fill: #c99248;
      }

      .cls-13 {
        fill: #261d19;
      }

      .cls-14 {
        fill: #593b2b;
      }

      .cls-15 {
        fill: #f4d274;
      }

      .cls-16 {
        fill: #c6a467;
      }
    </style>
  </defs>
  <g id="Legs">
    <g id="L5">
      <g>
        <path class="cls-10" d="M181.87,340.36c.78-.36,1.66-.41,2.5-.51.88-.11,1.79-.17,2.68-.18,1.73-.03,3.45.2,5.17.41,1.61.2,3.13.67,4.7.98.45.09.89.26,1.32.41,2.3.79,4.58,1.62,6.66,2.85.3.18.76.15.91.55-.12.06-.14.12,0,.18,0,0,0,0,0,0,.03.11.03.24.09.33.76,1.16,1.12,2.44,1.33,3.76.14.87.12,1.75,0,2.71-.7-.51-1.03-1.12-1.53-1.58-.49-.45-1.04-.83-1.67-1.13.96,2.72,1.53,5.44,1.37,8.37-.74-.67-.94-1.63-2.02-1.97,0,.46,0,.84,0,1.21,0,.58.22,1.13.19,1.72-.1,2.02.54,3.87,1.6,5.62.24.4.69.66.93,1.15-1.81-.06-2.72-1.28-3.78-2.35-.22.9.09,1.65.33,2.39.23.75.51,1.49.89,2.19.39.72.86,1.4,1.33,2.08.44.64,1.16,1.05,1.63,1.82-1.21-.25-2.24-.53-3.21-1.02-.38-.19-.74-.44-1.21-.39-.03-.08-.06-.1-.07-.04,0,0,.05.03.07.04.05.49.49.71.81,1.01,1.53,1.45,3.21,2.78,4.05,4.74.33,1.9,1.05,3.67,2.15,5.32-.91-.28-1.67-.82-2.68-.89.13.88.53,1.57,1.04,2.23,1.47,1.87,2.88,3.78,3.29,6.14.13.75.47,1.42.83,2.1.61,1.13.73,2.34.54,3.65-1.52-2.01-2.08-2.53-2.92-2.7,0,.18.01.35,0,.52-.04.52-.11.58-.61.41-.7-.23-1.39-.46-2.04-.82-.44-.25-.84-.65-1.43-.69-.03.65.57.91.84,1.44-1.22-.21-2.25-.58-3.24-1.04-1.01-.46-1.81-1.24-2.72-1.86.04.47.03.9.19,1.31.06.13.07.29-.04.41-.13.15-.28.04-.42-.01-1.5-.66-2.91-1.44-3.88-2.75-.25-.33-.6-.59-.81-.95-.08-.14-.23-.31-.44-.23-.22.08-.15.3-.15.46-.01.48-.02.96.05,1.48-1.61-1.05-3.24-2.04-4.58-3.37-1.37-1.35-2.17-3.01-2.99-4.8-.54,1.13-.42,2.24-.66,3.49-3.09-2.99-4.18-6.58-4.78-10.31-.28-.01-.29.12-.34.22-.38.76-.76,1.52-1.05,2.32-.09.25-.15.63-.54.63-.33,0-.38-.35-.49-.57-.41-.84-.79-1.7-1.2-2.54-.28-.58-.5-1.18-.64-1.81-.38-1.71-.37-3.44-.39-5.18-.01-1.7.46-3.24,1.33-4.71.25-.42.54-.83.56-1.36.06-2.02.76-3.85,1.92-5.54.15-.22.31-.44.32-.71.09-.03.1-.05.04-.07,0,0-.03.04-.04.07-.46.04-.79.3-1.11.59-.82.76-1.68,1.49-2.33,2.43-.25-1.5.3-2.81.85-4.12.56-1.33,1.64-2.33,2.64-3.51-.62-.03-1.04.17-1.46.32-1.05.39-2.1.7-3.25.64-.21-.01-.42.08-.64.09-.67.05-1.34.23-1.99-.1,1.69-1.07,3.32-2.19,4.38-4.07-1.01.31-1.84.27-2.78-.09.67-.38,1.26-.67,1.81-1.02,2.29-1.42,4.02-3.25,4.8-5.77ZM198.32,385.43c.07.07.11.22.24.06-.08-.02-.16-.04-.24-.06,0-.22-.14-.36-.32-.5-1.17-.91-2.26-1.89-3.2-3.01-.27-.32-.54-.69-1.06-.8-.23.74.07,1.48-.23,2.25-1.67-1.2-2.64-2.77-3.46-4.59-.32.92.13,1.55.3,2.2.29,1.13.88,2.17,1.96,2.85.51.32,1.07.58,1.6.88.22.13.44.26.69.12.27-.14.14-.41.17-.63.04-.26-.38-.61,0-.76.3-.12.48.29.71.47.19.15.34.34.54.48.69.5,1.42.92,2.31,1.03ZM186.36,378.41c-2.15-2.02-2.83-4.52-2.91-7.26-.67,1.33-1,2.68-.56,4.1.17.55.39,1.1.67,1.61.75,1.37,1.72,2.54,3.39,3.02.83.24.87.21.74-.61-.03-.2-.03-.4-.03-.61,0-1.01,0-2.03,0-3.04,0-.17.14-.41-.2-.51-.74.98-.88,2.12-1.11,3.29ZM180.77,372.17c.45-.89.96-2.55.93-3.03-.14-.03-.23.07-.32.14-.19.14-.35.38-.63.24-.27-.14-.16-.41-.17-.63-.04-1.17.28-2.28.68-3.37.06-.17.29-.33.1-.54-1.97,1.37-2.36,5.53-.59,7.19Z"/>
        <path class="cls-10" d="M245.42,344.85c.96-.78,2.07-1.34,3.23-1.82,1.27-.53,2.54-1.08,3.87-1.47,1.95-.57,3.89-1.12,5.92-1.42,1.28-.19,2.58-.25,3.85-.46.42-.07.89-.11,1.3,0,1.19.3,2.41.02,3.6.31.68.17,1.41.18,2.11.26-.28.46.05.84.23,1.21,1.2,2.36,3.08,4.11,5.56,5.31.22.1.47.15.67.37-.88.41-1.77.4-2.78.12.27.57.58.96.92,1.33.99,1.1,2.18,1.97,3.46,2.74-.13.16-.31.17-.5.17-1.61.01-3.2-.13-4.75-.61-.73-.22-1.43-.55-2.22-.61-.03-.08-.05-.1-.07-.04,0,0,.05.02.07.04.42.57.97,1.05,1.44,1.58,1.28,1.46,1.91,3.15,2.27,4.96.07.36.01.75.01,1.28-1.13-1.33-2.14-2.5-3.63-3.18.36.55.68,1.11.99,1.66.6,1.05,1.08,2.12,1.19,3.34.08.96.21,1.94.82,2.8.3.43.45.95.66,1.43.54,1.23.55,2.53.57,3.84.02,1.51-.11,3-.41,4.48-.35,1.76-1.41,3.26-2.12,4.89-.05.1-.15.19-.29.17-.15-.03-.16-.15-.21-.26-.37-.86-.74-1.72-1.11-2.57-.1-.23-.13-.51-.5-.64-.25,1.24-.38,2.46-.75,3.64-.56,1.76-1.31,3.43-2.34,4.99-.43.66-.94,1.34-1.78,1.81-.09-1.13.1-2.23-.68-3.31-.42,1.53-1.37,2.62-2.16,3.79-1.14,1.68-2.94,2.71-4.65,3.8-.37.24-.53.13-.58-.32-.04-.41.11-.86-.4-1.25-1.32,1.89-2.99,3.34-5.25,4.1-.25-.34-.02-.6.01-.87.03-.26.15-.57-.24-.82-1.55,1.49-3.42,2.39-5.71,2.71.21-.57.94-.8.81-1.48-1.13.57-2.11,1.24-3.29,1.55-.84.22-.83.24-.88-.62,0-.1.04-.24-.15-.29-1.27.53-1.77,1.73-2.6,2.84-.16-1.5-.03-2.76.65-3.95.32-.56.6-1.12.7-1.78.26-1.73,1.14-3.22,2.15-4.66.6-.85,1.21-1.68,1.77-2.55.24-.37.67-.9.3-1.24-.29-.27-.85.13-1.27.29-.4.15-.68.54-1.17.47h0c.34-.64.71-1.27,1.02-1.92.4-.83.72-1.7.85-2.61.67-1.89,1.89-3.42,3.48-4.72.42-.35.79-.74,1.18-1.11.13-.13.25-.3.13-.46-.15-.2-.34-.04-.49.03-.78.36-1.56.73-2.4.95-.35.09-.68.16-1.12-.03,1.33-1.07,2.19-2.33,2.87-3.71.67-1.35,1.25-2.72,1.18-4.25-.27-.01-.32.1-.4.18-.48.46-.94.93-1.44,1.36-.57.49-1.27.63-1.78.41,2.45-2.81,2.89-7.56,2.34-9.49-.88.39-1.11,1.32-1.83,2.01-.13-2.99.4-5.73,1.34-8.46-1.12.83-2.1,1.74-3.15,2.82-.23-1.94,0-3.62.71-5.26.27-.61.74-1.14.88-1.8ZM263.53,375.08c-.2.15-.17.27-.17.38-.07,1.39.17,2.78-.16,4.16-.08.36.21.47.53.38.75-.21,1.42-.56,2.01-1.05,1.45-1.21,2.25-2.7,2.55-4.5.2-1.22-.24-2.23-.66-3.42-.21.34-.15.57-.15.78,0,2.19-.81,4.13-2.05,5.94-.2.29-.41.57-.86.68-.18-1.18-.24-2.34-1.03-3.35ZM257.52,383.27c-.13-.51-.16-.95-.04-1.42.06-.26.02-.62-.33-.73-.28-.09-.44.16-.61.32-.09.08-.17.17-.23.27-.83,1.21-2.01,2.13-3.07,3.14-.24.23-.69.27-.76.66.15.1.27.05.38.01,1.35-.49,2.49-1.26,3.42-2.29.25.21.15.38.12.54-.03.17-.11.33-.12.5-.04.56.22.78.69.52,1.08-.6,2.27-1.08,2.97-2.16.52-.81.8-1.69.99-2.6.04-.2.04-.4.12-.59.08-.18.1-.36-.12-.66-.77,1.83-1.83,3.31-3.4,4.47ZM270.18,372c1.58-1.01,1.79-5.05-.56-7.09.4,1.61,1.08,3.12.73,4.73-.54.04-.62-.58-1.16-.47-.02.51.31.92.48,1.36.18.46.35.92.5,1.47Z"/>
        <path class="cls-7" d="M211.76,418.72c.07.05.13.11.2.16.68.5.67.89-.03,1.36-.26.18-.55.33-.89.53.37.24.73.14,1.05.21.92.21,1.13.71.49,1.37-.94.95-2.07,1.57-3.5,1.57-.25,0-.5,0-.83,0,.14.48.48.76.84,1.02.4.28.82.52,1.24.77.67.4.69.61.09,1.1-.06.05-.19.03-.18.22.63.08,1.24.05,1.87-.1.97-.24,1.34.11,1.15,1.03-.42,2.01-2.11,3.34-4.33,3.42-.27,0-.55-.06-.85.07.71.34,1.47.29,2.19.44.83.18,1.62.42,2.14,1.1.21.27.53.38.85.5,1.56.58,2.56,2.09,2.46,3.65-.05.83-.45,1.09-1.27.84-.35-.11-.7-.22-1.05-.33-.7-.23-1.36-.19-2.07.07-1.4.5-2.81.38-4.17-.18-.51-.21-1.01-.44-1.51-.67-.83-.38-1.72-.47-2.62-.55-.38-.03-.65.17-.9.39-.48.41-.97.81-1.54,1.12-.32.17-.45.45-.6.75-.59,1.2-1.51,2.11-2.81,2.67-.43.19-.89.31-1.35.32-.65.01-1.12.29-1.57.66-.16.13-.33.27-.51.39-.66.44-1.11.38-1.57-.25-.21-.28-.39-.6-.5-.93-.28-.83-.55-1.66-.75-2.51-.24-.99.1-1.89.71-2.78-.76-.09-1.37.14-1.97.41-1.2.55-2.43,1.11-3.77,1.17-1.24.05-2.23.54-3.26,1.09-1.83.96-3.77,1.32-5.79.43-.31-.14-.61-.1-.91,0-.58.19-1.15.42-1.67.75-.77.48-1.39.22-1.5-.65-.15-1.15.01-2.26.66-3.27.11-.17.2-.35.3-.53.01-.02,0-.06-.02-.12-.45-.06-.9-.03-1.34.13-.26.09-.53.17-.8.24-.67.17-1.01-.04-1.07-.68-.05-.53.09-1.04.3-1.53.51-1.16,1.4-1.95,2.68-2.38.59-.2,1.26-.26,1.72-.8-.33-.2-.64-.39-.95-.59-1.01-.63-1.74-1.48-2.28-2.48-.17-.31-.36-.65-.09-.98.28-.34.68-.21,1.03-.12.48.12.96.23,1.45.32.9.18,1.77.14,2.66-.09-.04-.26-.3-.28-.46-.38-1.06-.61-1.67-1.53-2.1-2.59-.13-.32-.24-.68.09-.97.3-.27.62-.13.95-.02,1.37.43,2.76.72,4.2.35.12-.03.24-.07.35-.11.05-.02.1-.06.15-.1-.14-.25-.44-.32-.67-.45-1.15-.65-1.84-1.62-2.23-2.79-.06-.19-.08-.4-.09-.6-.02-.8.33-1,1.09-.6.54.29,1.12.45,1.82.66-.44-.79-.69-1.52-.75-2.29-.07-.94.18-1.12,1.18-.9,2.73.62,5.17.16,7.25-1.67.25-.22.41-.49.62-.73.5-.27.75-.71.95-1.19q.64-.85.08-1.69c-.05-.07-.06-.16-.09-.24.92.4,1.8.28,2.66-.15-.12.33-.25.67-.37,1-.22.35-.44.7-.67,1.04-.39.27-.45.73-.7,1.08-1.83,2.49-4.24,4.03-7.6,4.02-.64,0-1.27-.13-1.93-.14.4,1.61,1.44,2.29,4.17,2.72-.99.59-2,.55-3,.53-1.03-.02-2.02-.33-3.1-.5.39.81,1.01,1.28,1.73,1.64,1.21.6,2.47.58,3.78.32-2.29,2.15-5.08,2.75-8.3,2.24.47.67.98,1.1,1.65,1.39.65.28,1.33.47,2.05.51.69.04,1.34-.18,2.07-.16-.06.13-.17.18-.28.24-.21.12-.41.26-.63.37-1.6.88-3.36,1.33-5.18,1.6-.26-.06-.51-.05-.77,0-.11-.01-.23-.02-.34-.03-.24-.16-.51-.17-.84-.08.77.93,1.76,1.52,2.9,1.84,1.79.5,3.62.57,5.43.11,1.93-.49,3.7-1.33,5.4-2.29.31-.18.59-.42,1.05-.5-.43,1.41-1.44,2.43-2.37,3.52.55.13.98-.09,1.42-.19,1.6-.35,2.91-1.23,4.29-2.19-.06.66-.41,1.07-.71,1.49-.3.42-.64.82-1.1,1.25,3.45.03,6.08-1.16,8.03-3.91-.11,1.48-.78,2.59-1.31,3.87,2.17-.62,3.33-2.03,4.28-3.74.42.89.28,1.81.64,2.72,1.17-1.21,1.07-2.61,1.14-4,.37.55.63,1.12.97,1.65,1.16,1.81,2.85,2.79,5.14,2.76,1.3-.02,2.45-.86,2.71-1.92-3.04,0-4.28-.61-4.87-2.43.52,0,1.01.29,1.53.11-1.58-1.71-2.05-2.67-1.95-3.91,1.52.74,3.04,1.14,4.63.01-1.29-.55-2.47-1.17-3.12-2.54.98.24,1.8.42,2.76.06-1.28-.9-2.07-2.02-2.57-3.32-.07-.4-.13-.81-.2-1.21.58-.08,1.08.02,1.43.51.13,1.12.67,2.02,1.65,2.68.23.22.46.42.79.5ZM192.68,436.93c-.29.32-.58.65-.48,1.18.24-.3.44-.54.63-.79.09-.12.03-.2-.1-.26h0c.68-.03,1.35-.27,2.03-.08.52.36.99.76,1.21,1.36.21.62.15,1.24-.04,1.9.52.05.89-.16,1.25-.37,1.01-.57,1.56-1.47,1.96-2.46.17-.4.17-.4.81-.61.11-.04.22-.11.32-.17.82-.47,1.4-1.13,1.76-1.96.12-.27.16-.61.55-.78.02.17.04.28.04.39.01.82.01.83.9.92,1.19.13,2.3.47,3.37.95.42.19.84.4,1.28.53.9.26,1.81.38,2.69-.15-.25-.38-.37-.76-.48-1.16.06-.45.07-.91.28-1.34.21-.12.39-.27.46-.46-.7-.52-1.5-.66-2.35-.59-.25-.27-.59-.19-.9-.2-.39-.19-.78-.38-1.17-.57-.25-.16-.5-.32-.74-.48-.1-.41-.42-.67-.73-.94-.06-.34-.35-.55-.55-.8-.35-.43-.69-.86-1.06-1.31-.09.21-.16.37-.23.53-.38.87-1.06,1.48-1.92,1.93-.24.12-.49.26-.78.09-.31-.18-.23-.43-.19-.69.03-.2,0-.41,0-.8-.56.61-1.12.91-1.66,1.25-.52.32-1.13.44-1.65.74-.59-.04-1.07.41-1.66.3-.02-.1-.06-.18-.17-.1-.06.04-.04.11.03.14l.1.39c-.03.24-.01.48.09.71-.18.11-.23.29-.3.47-.24.23-.31.54-.35.84-.22.22-.52.39-.58.72-.25.16-.48.34-.54.64-.4.23-.69.55-.96.9-.11.02-.14.09-.16.18ZM172.16,433.81c-.14,0-.16.08-.16.18-.13.28,0,.38.29.35.37-.04.74-.16,1.1-.13.64.06.99-.21,1.21-.71.12-.29.39-.53.38-.87h0c.17-.17.27-.34-.02-.49-1.34-.05-2.37.57-2.83,1.68h.02ZM211.21,435.05h0c0,1.11.12,1.25,1.28,1.34.56.04,1.09.16,1.63.26.27.05.27.03.12-.41-.26-1.16-1.11-1.71-2.29-1.95-.39-.08-.67-.03-.75.39-.11.12-.22.24,0,.36ZM195.12,438.4c-.23-.24-.15-.74-.69-.74-.68-.19-1.07-.08-1.4.55-.56,1.05-.65,2.13.05,3.18,0,.14.1.24.23.15.71-.51,1.43-1.02,1.87-1.77.26-.45.3-.92-.05-1.37ZM177.07,435.22c-.41-.31-.79-.05-1.11.12-1.22.67-2.01,1.61-1.97,3.01-.18.46.08.45.4.29.63-.31,1.28-.53,1.99-.65,1.14-.18,1.52-.79,1.25-1.92-.02-.38-.12-.71-.55-.86ZM182.42,433c-.13-.06-.24-.06-.32.06-.51.09-1.03.17-1.54.26-.32.07-.64.14-.96.21-1.07-.16-1.9.3-2.9.92.75.06,1.12.38,1.45.76.09.29.18.59.26.88-.01.02-.04.05-.03.07.02.05.05.09.08.13.02.11.04.21.06.32-.21.57-.35,1.16-.75,1.64.26.3.58.26.89.28.95.06,1.84-.11,2.71-.48.77-.32,1.46-.75,2.18-1.16.21-.12.41-.31.67-.28,1.44.19,2.79-.18,4.02-.75,1.49-.69,2.99-1.11,4.65-1.01.29.02.56-.03.75-.27.53-.68,1.09-1.34,1.11-2.24,0-.26,0-.69.18-.72.47-.08.37-.43.52-.66.07-.07.25-.13.13-.24-.09-.09-.22,0-.29.1-.79.24-1.54.6-2.37.76-1.08.21-2.16.18-3.24.22-.56.02-1.13.09-1.52-.43-.04-.06-.18-.12-.24-.09-.51.2-1.14.01-1.58.44-.35.1-.7.2-.94.47-.68.04-1.25.4-1.88.58-.26.09-.51.18-.77.27-.11-.01-.22-.03-.34-.04ZM185.22,429.88c-.17-.02-.2-.04-.23-.03-.15.05-.3.09-.44.15-2.13.93-4.38,1.23-6.71,1.02-.64-.06-1.23.1-1.78.4-.19.1-.34.22-.26.48.2.61-.13,1.12-.4,1.65-.15.3-.43.56-.39.94.25-.03.37-.17.5-.29.92-.87,2-1.47,3.3-1.68.67-.11,1.35-.18,2.02-.27,1.22-.16,2.42-.38,3.65-.8-.32-.31-.37-.56-.01-.83.26-.19.47-.46.75-.74Z"/>
        <path class="cls-7" d="M260.08,438.19c-.09,1.34-.63,2.59-1.1,3.83-.4,1.04-1.12,1.16-2.01.44-.68-.55-1.43-.84-2.32-.98-1.69-.27-2.8-1.32-3.55-2.69-.28-.51-.62-.9-1.12-1.22-.46-.29-.89-.64-1.29-.99-.28-.24-.56-.32-.93-.28-1.09.12-2.12.37-3.09.87-1.04.54-2.14.89-3.37.85-.54-.02-1.08-.05-1.54-.27-.82-.39-1.62-.31-2.43-.05-.23.08-.46.16-.7.24-.91.3-1.41.02-1.4-.88.01-1.49.65-2.72,2.14-3.4.6-.28,1.11-.6,1.51-1.09.82-.53,1.76-.72,2.73-.82.43-.05.86-.06,1.33-.34-.61-.04-1.11-.04-1.59-.11-1.4-.21-2.39-1-3.18-2.04-.17-.5-.38-.98-.49-1.49-.18-.77.14-1.04.96-.89q1.47.26,2.14.08c.02-.06-.04-.06-.1-.1-.81-.52-.81-.77,0-1.21.48-.27.97-.53,1.38-.87.25-.2.48-.43.62-.84-.38,0-.67.01-.97,0-1.43-.07-2.53-.74-3.43-1.71-.44-.46-.26-.93.38-1.12.37-.11.76-.18,1.17-.27-.16-.3-.45-.36-.66-.5-.85-.55-.87-.96-.06-1.52.12-.08.23-.18.35-.27,1.15-.59,1.8-1.53,2.15-2.68.1-.09.1-.21.1-.32.37-.37.86-.37,1.35-.36-.01.18-.03.36-.04.55-.08.23-.23.44-.2.7-.45,1.07-1.07,2.02-2.02,2.78-.15.12-.42.15-.37.49.41.08.83.09,1.25.1.43,0,.81-.19,1.27-.25-.54,1.38-1.76,1.97-3.04,2.53,1.61,1.14,3.14.69,4.77-.12-.13,1.67-.87,2.94-2.16,3.97.62.27,1.14-.19,1.75-.02-1.01,2.05-2.83,2.54-5.06,2.34.07.48.32.77.6,1.03.97.92,2.16,1.1,3.44.82,1.83-.4,3.18-1.4,4.06-2.95.25-.45.48-.9.72-1.36.11,1.41,0,2.83,1.27,3.98.12-.96.14-1.83.57-2.79.96,1.77,2.05,3.24,4.25,3.77-.32-.67-.61-1.21-.83-1.77-.39-.98-.39-1.1-.28-1.83,1.81,2.74,4.58,3.64,7.97,3.72-.31-.3-.53-.5-.73-.71-.41-.42-.83-.84-1-1.41.03-.12.03-.25.16-.33.62.35,1.23.73,1.87,1.06,1.05.54,2.15.93,3.49,1.02-.98-1.15-1.99-2.15-2.37-3.7,1.33.89,2.62,1.45,3.89,2.05,2.27,1.07,4.63,1.42,7.13.96,1.5-.27,2.75-.94,3.77-2.01-.16-.12-.28-.07-.4-.04-.92.1-1.84.07-2.76-.02-1.77-.5-3.54-1-4.96-2.19.35.02.67.12,1,.17,1.79.27,3.37-.03,4.54-1.44.15-.06.28-.21.23-.31-.06-.12-.26-.07-.4-.03-.08.02-.15.08-.23.12-.25,0-.5.01-.75.03-2.34.16-4.41-.47-6.26-1.79-.25-.18-.55-.34-.64-.7,2.82.53,4.65-.09,5.56-1.92-.82.18-1.59.39-2.38.48-1,.11-1.99.1-2.96-.13-.25-.06-.62-.06-.68-.44,2.37-.11,3.65-.93,4.12-2.65-.13,0-.25-.02-.37,0-3.01.53-5.58-.24-7.75-2.24-.76-.7-1.35-1.51-1.96-2.31.02-.1-.03-.16-.14-.18,0,0,0,0,0,0-.14-.57-.68-.96-.75-1.56.61-.13,1.11.23,1.67.34-.02.3.14.52.37.71.13.35.37.63.64.89,1.9,2.71,5.07,3.86,8.42,3.06.15-.04.29-.11.44-.12.56-.07.84.14.83.66-.01.73-.17,1.44-.49,2.11-.05.1-.09.21-.16.4.67-.03,1.17-.29,1.68-.55.27-.14.55-.3.86-.07.28.2.33.48.28.78-.17,1.1-.71,2.03-1.58,2.79-.41.36-.87.64-1.44.96.87.43,1.71.45,2.55.36.74-.08,1.47-.21,2.17-.47.32-.12.65-.25.95.02.32.29.21.63.08.97-.41,1.06-1.03,1.98-2.1,2.57-.16.09-.31.18-.58.34.81.24,1.54.33,2.29.21.61-.1,1.21-.24,1.82-.37.15-.03.3-.09.45-.1.69-.06,1.01.29.77.91-.28.71-.74,1.33-1.32,1.87-.59.56-1.31.95-2.03,1.39.13.41.46.48.78.58.44.15.88.28,1.3.46,1.47.64,2.28,1.74,2.53,3.22.04.21.04.4-.02.6-.16.62-.42.75-1.06.57-.7-.2-1.38-.5-2.22-.31.62.83,1.05,1.68,1.11,2.66.02.41.03.81-.04,1.21-.18.95-.61,1.15-1.47.65-.29-.17-.6-.3-.9-.45-.73-.34-1.42-.44-2.22-.1-1.02.43-2.13.38-3.2.12-1.05-.25-2.09-.56-2.98-1.19-.53-.38-1.12-.55-1.81-.58-.74-.03-1.47-.22-2.2-.33-1.32-.48-2.52-1.28-4.12-1.4.42.75.74,1.4.79,2.13ZM258.69,437.83c-.02.07-.02.14.06.18,0-.02.03-.04.02-.05-.03-.04-.06-.08-.09-.12.05-.3-.06-.54-.33-.72-.43-.48-.73-1.06-1.34-1.39-.06-.22-.18-.4-.41-.5-.16-.31-.42-.53-.67-.76,0-.23-.02-.46-.24-.63.03-.21-.11-.35-.21-.51-.01-.13-.02-.26-.03-.39.02-.04.02-.07,0-.11.09-.3.09-.6.06-.9.19-.08.32-.29.57-.2.05.23.16.45.15.68-.04.78.43,1.37.82,1.99.23.37.55.51,1.01.48,1.56-.09,3.01.22,4.39.94,1.19.62,2.51.89,3.86.87.45,0,.76.08,1.09.3.74.49,1.53.89,2.36,1.22.91.36,1.87.44,2.84.32.46-.06.55-.21.33-.57-.35-.58-.47-1.19-.45-1.84.12-.85.57-1.46,1.6-1.69-.27-.23-.46-.4-.75-.42-.67-.29-1.31-.68-2.11-.48-.18-.26-.46-.22-.73-.21-.74-.18-1.49-.25-2.25-.32-.31-.07-.63-.13-.94-.2-.61-.22-1.2-.51-1.85-.64-.09-.26-.31-.26-.54-.24-.27-.23-.6-.34-.96-.38-.54-.21-1.07-.43-1.58.08-.17.17-.45.18-.7.18-.8,0-1.6,0-2.4-.03-1.12-.04-2.16-.36-3.19-.74-.21-.2-.46-.3-.75-.33-.03-.02-.06-.04-.09-.06.02.03.04.06.06.09.12.39.36.77.21,1.2-.22-.03-.43-.03-.59.15-.38-.2-.78-.36-1.23-.36-.54-.28-1.14-.42-1.65-.75-.49-.32-.99-.64-1.57-1.02,0,.3,0,.47,0,.63-.01.74-.36.92-1.04.56-.13-.07-.25-.17-.38-.25-.84-.49-1.3-1.27-1.77-2.14-.42.53-.78.98-1.14,1.44-.19.23-.41.44-.5.73-.32.13-.42.44-.62.67-.23.14-.42.31-.52.55-.56.23-1.11.47-1.67.7-.22-.04-.44-.05-.58.16-.93-.09-1.79.05-2.6.63.22.1.36.17.49.23.11.29.21.57.32.86-.06.13-.05.26.06.37.01.1.02.21.03.31-.16.39-.33.78-.49,1.16,1.15.46,1.79.46,3.1-.05,1.55-.6,3.03-1.36,4.78-1.35.31,0,.44-.13.36-.45-.07-.27-.09-.55.07-.88.35.24.44.55.54.83.31.84.95,1.42,1.68,1.92.15.1.4.26.48.22.55-.34.55.11.64.37.3.91.81,1.69,1.55,2.34.5.43,1.06.76,1.9.85-.45-.7-.41-1.35-.23-2,.21-.33.41-.65.62-.98.11-.03.19-.09.22-.2v.03c.81-.45,1.59-.33,2.36.11.21.16.22.5.57.52ZM236.76,435.93c-.19.24-.23.49-.19.81.24-.08.41-.13.58-.19.48-.07.96-.13,1.44-.2,1.02-.14,1.16-.3,1.17-1.32-.02-.68-.04-.7-.68-.68-1.12.09-1.94.56-2.32,1.58ZM278.69,433.64h0c-.46-1.05-1.44-1.37-2.53-1.53-.24-.03-.33.1-.27.31.01.58.39,1.02.68,1.49.12.19.31.25.54.28.55.06,1.1.15,1.66.21.27.03.27.03.13-.41-.03-.14-.02-.31-.22-.36ZM274.54,435.23c-.52-.14-.95-.1-1.13.48-.28.32-.22.71-.18,1.07.07.75.39,1.08,1.19,1.18.72.09,1.36.37,2.01.62.51.2.51.2.52-.4-.18-1.42-.93-2.45-2.41-2.94ZM258.08,440.97c.36-1.05.44-2.06-.36-2.98-.69-.61-.82-.62-1.65-.13-.1.01-.15.06-.13.16-.02.05-.05.11-.07.16-.54.9-.47,1.57.29,2.22.38.33.76.67,1.23.89q.44.36.69-.32ZM275.83,434.39c.04.07.09.12.16.03,0,0-.06-.06-.1-.09,0-.06,0-.12-.03-.17-.46-.73-.92-1.45-.77-2.35.04-.24-.17-.34-.36-.45-.62-.35-1.28-.37-1.98-.33-1.49.09-2.97,0-4.42-.36-.95-.24-1.83-.65-2.92-1.05.39.5.73.79,1.06,1.08.13.11.34.25.21.43-.3.43.12.43.34.49,1.27.38,2.59.61,3.91.74,1.71.17,3.28.6,4.49,1.82.1.11.23.2.4.2Z"/>
        <path class="cls-5" d="M245.42,344.85c-.14.67-.61,1.19-.88,1.8-.72,1.64-.94,3.32-.71,5.26,1.05-1.08,2.03-1.99,3.15-2.82-.94,2.73-1.48,5.48-1.34,8.46.71-.69.95-1.62,1.83-2.01.56,1.93.11,6.68-2.34,9.49.52.22,1.22.09,1.78-.41.5-.43.96-.91,1.44-1.36.08-.08.13-.2.4-.18.07,1.53-.51,2.89-1.18,4.25-.68,1.38-1.55,2.64-2.87,3.71.44.19.77.12,1.12.03.84-.22,1.62-.58,2.4-.95.15-.07.34-.23.49-.03.13.16,0,.33-.13.46-.39.37-.77.77-1.18,1.11-1.58,1.31-2.81,2.84-3.48,4.72-.91.14-1.68-.15-2.42-.61-.83-.52-1.66-1.04-2.21-1.85-.02-.18,0-.34.11-.49.2-.1.23-.21.04-.35.02-2.15-.28-4.25-1.23-6.24q-.88.4-1.76,1.64c-.89-1.77-1.09-3.62-1.07-5.54-.69.15-.91.74-1.48.95-.47-1.47-.73-2.9-.53-4.39.07-.51.2-1.04-.11-1.53.6-1.85,1.69-3.46,2.85-5.03,1.41-1.92,3.13-3.6,4.98-5.13,1.33-1.11,2.69-2.21,4.33-2.95Z"/>
        <path class="cls-5" d="M202.06,369.93c.47-.05.84.2,1.21.39.96.49,2,.77,3.21,1.02-.47-.77-1.19-1.19-1.63-1.82-.47-.68-.94-1.36-1.33-2.08-.38-.7-.65-1.44-.89-2.19-.23-.74-.54-1.49-.33-2.39,1.06,1.07,1.97,2.29,3.78,2.35-.24-.49-.69-.74-.93-1.15-1.06-1.75-1.7-3.59-1.6-5.62.03-.59-.2-1.14-.19-1.72,0-.37,0-.75,0-1.21,1.08.34,1.28,1.3,2.02,1.97.16-2.93-.41-5.65-1.37-8.37.63.31,1.18.68,1.67,1.13.5.47.83,1.08,1.53,1.58.11-.96.13-1.84,0-2.71-.21-1.32-.57-2.6-1.33-3.76-.06-.09-.06-.22-.09-.33.33.02.58.18.84.35,2.65,1.78,5.08,3.77,7.1,6.19,1.13,1.35,2.17,2.75,3.02,4.26.4.71.81,1.43,1,2.22-.05.09-.1.17-.15.26-.51-.24-.58-.22-.58.25,0,.84.07,1.68-.07,2.53-.05.32-.17.64-.05,1,.21.65.12.73-.66,1.06h0c0-.22.02-.46-.02-.68-.05-.26-.26-.37-.54-.37-.24,0-.42.1-.5.32-.04.11-.05.23-.05.34.04.67-.11,1.28-.41,1.91-.23.49-.4,1.08-.18,1.64.22.57.25.57-.38.75-.2.06-.42.07-.63.11-.07,0-.11-.04-.12-.1-.09-.37.49-.38.49-.72-1.22-.1-2.01.22-2.09,1.03-.08.84-.42,1.47-1.04,2.04-.23.2-.46.54-.19.86.68.79.5,1.73.62,2.63.07.58-.16,1.01-.78,1.22-.45.15-.86.42-1.08.79-.38.67-.95.84-1.69.76-.24-.03-.5,0-.74,0-.84-1.96-2.52-3.29-4.05-4.74-.31-.3-.76-.52-.81-1.01h0Z"/>
        <path class="cls-7" d="M181.87,340.36c-.77,2.52-2.51,4.35-4.8,5.77-.55.34-1.14.64-1.81,1.02.95.36,1.78.4,2.78.09-1.06,1.88-2.7,3-4.38,4.07-.52.21-1.04.42-1.69.68,1.56,1.01,3.14.75,4.83.61-1.21,1.27-2.49,2.37-3.32,3.81-.82,1.44-1.36,2.94-1.38,4.68.61-.47,1.11-.89,1.65-1.26.53-.36,1.08-.72,1.91-.87-1.99,3.44-2.44,6.98-1.94,10.76.45-.29.64-.67.94-.95.31-.29.57-.66,1.1-.79-.42,5.54.68,10.63,4.27,15.29.02-1.33.1-2.48.5-3.63.7,2.05,1.53,4.04,2.91,5.77,1.37,1.71,2.82,3.36,4.76,4.7.12-.94.04-1.81.42-2.64.56.18.83.59,1.14.94.73.83,1.44,1.67,2.06,2.57.81,1.18,1.79,2.23,2.77,3.27.5.53,1.04,1.03,1.67,1.65.12-1.06-.02-1.97,0-3.03,1.31,1.25,2.44,2.47,4.12,3.17-.13-.95-.36-1.8-.39-2.85,2.1,1.99,4.38,3,7.27,2.38-2.02,1.17-3.97.92-5.97-.2.13.6.23,1.11.25,1.63,0,.29-.11.44-.45.36-.39-.1-.77-.22-1.14-.37-.86-.36-1.57-.91-2.35-1.44-.05.15-.11.25-.13.37-.08.43-.13.86-.35,1.25-.31.54-.51.57-.94.12-.37-.38-.68-.81-1.3-1.21.37,1.65.53,3.13.36,4.64-.04.31-.09.62-.13.93-.13.45-.26.91-.39,1.36-.42,0-.84,0-1.27.01-.07-.43.24-.8.19-1.23.1-.4.26-.79.19-1.22.4-2.13-.08-4.14-.89-6.12-.05-.13-.13-.26-.23-.38-.98-1.2-1.96-2.4-2.85-3.66-.05-.06-.09-.16-.33-.07,0,.22.03.5,0,.77-.09.75-.5.96-1.21.58-.87-.46-1.59-1.11-2.33-1.73-1.67-1.42-3.03-3.07-4.27-4.82-.1-.14-.21-.28-.33-.42-.01-.02-.05-.02-.15-.04-.13.26-.02.55-.07.81-.03.16.03.37-.2.44-.22.07-.43.06-.6-.11-.11-.1-.22-.21-.31-.32-2.32-2.88-4.1-6.01-4.99-9.54-.37-1.46-.54-2.96-.7-4.43-.18-.11-.23.01-.32.08-.68.53-1.12.41-1.31-.39-.59-2.58-.65-5.17-.13-7.77.07-.37.16-.73.23-1.1,0-.02-.02-.05-.05-.11-.41,0-.6.33-.88.53-.24.18-.46.45-.81.31-.38-.15-.4-.48-.4-.81,0-2.83.71-5.45,2.57-7.74.14-.18.36-.33.4-.61-.94-.21-1.82-.55-2.6-1.09-.3-.21-.59-.43-.78-.73-.35-.55-.25-.82.44-1,1.76-.48,3.3-1.3,4.59-2.54-.21-.28-.59-.31-.87-.48-.31-.19-.63-.37-.89-.63-.48-.5-.41-.87.21-1.17.11-.05.23-.09.35-.13,2.45-.71,4.23-2.25,5.75-4.11.38-.46.76-.92,1.15-1.37.22-.26.46-.49.87-.32Z"/>
        <path class="cls-7" d="M277.36,351.31c-1.28-.77-2.47-1.64-3.46-2.74-.34-.37-.66-.75-.92-1.33,1.01.28,1.9.29,2.78-.12-.2-.22-.45-.27-.67-.37-2.48-1.2-4.36-2.95-5.56-5.31-.19-.37-.51-.75-.23-1.21.06.03.11.01.14-.04.21.17.43.34.64.51.25.29.5.57.75.86.12.25.31.43.54.6,1.3,1.86,3.12,3.11,5.3,3.93.11.04.23.08.35.12.99.38,1.05.84.22,1.51-.45.36-1.02.52-1.58.8,1.23,1.17,2.63,1.96,4.25,2.46.38.12.94.07,1.02.61.07.49-.31.81-.67,1.08-.71.53-1.47.97-2.39,1.12-.15.02-.29.08-.42.12-.11.24.1.34.2.46,1.87,2.31,2.69,4.93,2.7,7.79,0,.17.01.36-.04.52-.13.44-.53.57-.93.3-.39-.27-.76-.59-1.14-.89-.2.24-.04.42,0,.6.65,2.73.67,5.46.1,8.2-.02.11-.04.23-.07.34-.23.76-.68.89-1.36.41-.06-.04-.09-.17-.26-.07-.14,1.22-.25,2.48-.52,3.73-.72,3.39-2.28,6.41-4.39,9.22-.27.36-.55.7-.81,1.06-.18.25-.37.48-.75.39-.4-.1-.34-.44-.4-.71-.03-.16.07-.35-.12-.54-.7.92-1.38,1.85-2.12,2.73-1.31,1.53-2.8,2.88-4.47,4.05-.48.34-.96.53-1.52.16-.03-.49-.06-.98-.1-1.6-.42.46-.74.8-.91,1.23-.66.83-1.32,1.66-1.98,2.48-.87,1.08-1.06,2.37-1.35,3.63-.25,1.1-.3,2.22-.01,3.34-.01.17-.02.35-.03.52-.41.08-.72.48-1.2.35-.04-.12-.08-.24-.12-.35.02-.19.01-.37-.12-.53-.06-1.5-.07-3,.43-4.61-.6.35-.93.74-1.27,1.1-.47.5-.77.48-1.05-.16-.2-.47-.3-.97-.46-1.52-.16.12-.27.22-.39.3-.9.61-1.81,1.23-2.93,1.46-.62.13-.72.05-.63-.54.06-.42.19-.82.15-1.32-1.99,1.05-3.94,1.3-5.99.1.55-.1.93.15,1.36.17,2.01.11,3.7-.55,5.19-1.76.25-.21.42-.55.88-.58-.13.9-.25,1.75-.38,2.67,1.69-.73,2.8-1.97,4.08-3.23.1,1.08-.22,1.99.18,2.95.2-.12.29-.31.44-.46,1.56-1.51,2.97-3.12,4.24-4.84.68-.93,1.39-1.86,2.27-2.64.14-.13.26-.34.56-.24.4.78.19,1.67.46,2.58,1.87-1.49,3.47-3.08,4.84-4.89,1.17-1.56,1.88-3.32,2.61-5.07.11,0,.22,0,.33,0,.38.94.21,1.95.44,3.01,1.26-1.7,2.23-3.4,2.94-5.23,1.26-3.23,1.5-6.58,1.28-10.07.9.39,1.19,1.23,1.96,1.77.54-3.8.05-7.32-1.87-10.71.6.1.96.37,1.36.57.79.4,1.37,1.07,2.13,1.51,0,.07.04.1.11.09,0,0,.02-.05,0-.07-.04-.07-.09-.07-.13,0,.2-.13.12-.31.1-.47-.35-2.86-1.76-5.21-3.91-7.22-.26-.24-.6-.42-.73-.78,2.83.28,3.91.12,4.6-.71-.52-.2-1.03-.39-1.55-.58Z"/>
        <path class="cls-7" d="M239.41,373.42c-.11.15-.13.32-.11.49-.22,1.11-.6,2.19-1.05,3.33,1.05-.34,1.65-1.03,2.44-1.51-.6,4.27-2.19,7.92-6.89,9.75,1.04.48,2.05.47,3.27.52-.95.83-1.88,1.37-2.57,2.15-.7.81-1.36,1.63-1.59,2.76,1.14-.41,2.05-1.2,3.32-1.17-2.25,3.29-2.94,5.3-2.31,6.7.28-.32.55-.64.83-.94.3-.31.59-.65,1.19-.8-.34,2.48.01,4.72,1.85,6.65.09-.15.14-.21.18-.28.21-.38.33-.95.84-.96.52,0,.63.58.82.96.52,1.05,1,2.11,1.5,3.16.12.68.42,1.3.64,1.95.07.21.19.36.47.27.07.36-.31.55-.39.86-.06.22-.27.23-.45.15-.22-.09-.5-.08-.65-.31-.16-.52-.28-1.05-.55-1.53.02-.17,0-.32-.16-.43.03-.04.02-.07-.03-.09.01-.15,0-.29-.15-.38h0c0-.34-.18-.63-.36-.91-.06-.53-.37-.97-.64-1.53-.21.29-.14.68-.54.74-.43.07-.72-.16-.98-.41-1.08-.99-1.89-2.14-2.37-3.49-.13-.38-.26-.77-.38-1.15-.18-.03-.23.09-.29.18-.19.28-.44.54-.82.47-.43-.08-.66-.4-.76-.79-.4-1.58-.41-3.16.1-4.72.08-.24.16-.48.23-.7-.32-.17-.45.06-.63.13-.29.11-.57.27-.87.04-.28-.22-.23-.5-.19-.8.23-1.66.92-3.11,2.11-4.37.16-.17.37-.31.46-.56-.38-.19-.76-.38-1.14-.58-.44-.24-.8-.55-1.01-.99-.2-.42-.1-.65.36-.81.09-.03.18-.06.27-.07,1.74-.1,3.01-.99,4.14-2.11,1.1-1.09,1.79-2.4,2.27-3.84-.3-.1-.5.05-.73.11-.36.09-.72.19-1.09.21-.7.03-.9-.28-.58-.86.47-.85.88-1.72,1.2-2.63.71-1.99.66-3.99.12-6-.37-.06-.38.25-.5.42-.62.88-1,.87-1.6-.04-.5-.75-.78-1.58-1.02-2.42-.1-.33-.17-.68-.22-1.02-.05-.32-.1-.56-.57-.43-.34.09-.46-.21-.6-.43-.42-.69-.64-1.44-.77-2.22-.23-1.36-.25-2.72.1-4.06.11-.43.18-.93.73-1.13.31.49.18,1.02.11,1.53-.19,1.49.06,2.92.53,4.39.57-.21.78-.8,1.48-.95-.02,1.92.18,3.77,1.07,5.54q.88-1.24,1.76-1.64c.95,2,1.25,4.09,1.23,6.24-.06.11-.08.23-.04.35Z"/>
        <path class="cls-7" d="M213.42,367.08c0,.06.05.1.12.1.32.4.65.8,1.01,1.25,1.02-1.74,1.04-3.61,1.12-5.43.29-.08.4.12.57.17,0,0,0,0,0,0,.22.3.49.57.88.82.6-1.9.78-3.76.49-5.65.05-.09.1-.17.15-.26.23-.02.33.11.43.27.23.36.35.75.41,1.15.3,1.89.21,3.76-.55,5.56-.17.42-.35.89-1.05.74-.31-.06-.26.28-.29.44-.14.84-.42,1.63-.76,2.41-.15.35-.32.69-.52,1.02-.55.91-.99.93-1.62.09-.12-.16-.16-.38-.48-.47-.57,1.96-.63,3.91.03,5.86.32.94.74,1.84,1.25,2.71.13.22.34.44.18.71-.2.36-.59.3-.92.24-.53-.1-1.05-.26-1.69-.43.85,2.5,2.17,4.51,4.7,5.63.47.21.97.38,1.51.39.34.01.7.03.87.39.19.4-.1.66-.33.93-.37.45-.87.74-1.42.96-.14.06-.27.15-.45.25,1,1,1.78,2.09,2.22,3.39.19.56.33,1.11.35,1.7.02.62-.28.81-.93.63-.19-.06-.35-.26-.65-.12.16.83.42,1.66.49,2.52.07.91-.02,1.79-.22,2.68-.09.4-.18.84-.69.94-.49.09-.8-.24-1.05-.59-.03-.04-.09-.07-.21-.16-.54,2.06-1.45,3.9-3.35,5.16-.51.06-.71-.28-.89-.78-.68,1.24-1.02,2.42-1.55,3.53-.38-.05-.8.15-1.12-.2,0-.35.31-.65.22-1.02.35-.54.54-1.14.73-1.74.2-.13.21-.35.29-.53.28-.64.57-1.28.99-1.86.35-.47.53-.48.89,0,.22.29.37.62.57.96.91-.94,1.4-2.01,1.77-3.16.37-1.15.14-2.32.13-3.57.92.5,1.43,1.21,2.11,1.91.32-2.68-.73-4.81-2.51-6.85,1.38.1,2.36.7,3.37,1.19.09-.23.01-.36-.05-.49-.67-1.51-1.71-2.74-3.12-3.71-.28-.19-.67-.3-.72-.73.54-.04,1.04-.02,1.53-.11.45-.08.97-.06,1.45-.49-2.21-.74-3.78-2.09-4.9-3.89-1.1-1.78-1.73-3.72-2.01-5.98.88.71,1.53,1.36,2.58,1.73-.59-1.31-.99-2.51-1.15-3.78-.26-2.12.15-4.15.88-6.14.2-.53.25-.52.86-.25Z"/>
        <path class="cls-9" d="M270.08,340.7c-.21-.17-.43-.34-.64-.51.44-.08.69.05.64.51Z"/>
        <path class="cls-9" d="M271.36,342.16c-.22-.17-.42-.35-.54-.6.48-.04.62.19.54.6Z"/>
        <path class="cls-4" d="M205.8,345.04c-.14-.06-.12-.12,0-.18,0,.06,0,.12,0,.18Z"/>
        <path class="cls-5" d="M213.42,367.08c-.61-.27-.67-.28-.86.25-.74,1.99-1.14,4.02-.88,6.14.16,1.27.56,2.47,1.15,3.78-1.05-.37-1.71-1.02-2.58-1.73.28,2.26.9,4.2,2.01,5.98,1.12,1.8,2.69,3.15,4.9,3.89-.48.42-.99.4-1.45.49-.48.09-.99.08-1.53.11.05.43.44.54.72.73,1.42.96,2.46,2.2,3.12,3.71.06.13.13.26.05.49-1.01-.5-1.99-1.09-3.37-1.19,1.78,2.04,2.83,4.17,2.51,6.85-.68-.69-1.19-1.41-2.11-1.91,0,1.25.24,2.42-.13,3.57-.37,1.15-.86,2.22-1.77,3.16-.2-.34-.35-.67-.57-.96-.36-.48-.54-.48-.89,0-.42.58-.71,1.22-.99,1.86-.08.18-.1.4-.29.53-.44.13-.74.58-1.16.63-.42.05-.82-.34-1.29-.38-.12-.01-.24-.05-.36-.08-.03-.19.09-.4-.09-.56-.48.11-.77.57-1.27.64-.14-.24.11-.4.05-.6.23-.72.5-1.42.68-2.15.18-.73.42-1.47.19-2.28-2.62,1.92-4.24,2.67-5.44,2.76-.2-.29.03-.67-.2-1.03-.66.45-1.37.78-1.95,1.3-.37.06-.74.12-1.11.19,0,0-.01-.01-.01-.01-.11-.6.22-1.15.2-1.73.08-.06.23-.1.07-.23-.02.07-.05.15-.07.22-.35.02-.61.23-.9.39-.79.45-1.62.78-2.57.79.17-1.5.01-2.99-.36-4.64.62.4.93.84,1.3,1.21.43.45.63.42.94-.12.22-.39.27-.83.35-1.25.02-.11.08-.22.13-.37.77.53,1.49,1.08,2.35,1.44.37.15.75.27,1.14.37.34.09.46-.07.45-.36-.01-.52-.11-1.03-.25-1.63,2,1.12,3.95,1.38,5.97.2-2.88.62-5.17-.39-7.27-2.38.04,1.05.26,1.9.39,2.85-1.68-.71-2.8-1.93-4.12-3.17-.02,1.06.12,1.97,0,3.03-.63-.62-1.17-1.12-1.67-1.65-.99-1.04-1.97-2.09-2.77-3.27-.62-.91-1.33-1.74-2.06-2.57-.31-.35-.58-.75-1.14-.94-.38.83-.3,1.7-.42,2.64-1.94-1.34-3.39-2.99-4.76-4.7-1.39-1.73-2.21-3.72-2.91-5.77-.4,1.15-.48,2.3-.5,3.63-3.58-4.66-4.69-9.76-4.27-15.29-.53.13-.78.5-1.1.79-.3.28-.49.66-.94.95-.49-3.78-.04-7.32,1.94-10.76-.83.15-1.38.51-1.91.87-.54.37-1.04.79-1.65,1.26.02-1.74.56-3.24,1.38-4.68.82-1.44,2.1-2.55,3.32-3.81-1.69.15-3.27.41-4.83-.61.65-.26,1.17-.47,1.69-.68.65.33,1.32.14,1.99.1.21-.02.43-.1.64-.09,1.15.06,2.2-.25,3.25-.64.41-.15.84-.36,1.46-.32-1,1.17-2.08,2.18-2.64,3.51-.55,1.31-1.1,2.62-.85,4.12.65-.93,1.51-1.66,2.33-2.43.31-.29.64-.55,1.11-.59h0c0,.27-.17.49-.32.71-1.15,1.69-1.85,3.52-1.92,5.54-.02.53-.31.94-.56,1.36-.87,1.47-1.35,3.02-1.33,4.71.01,1.74,0,3.47.39,5.18.14.63.36,1.22.64,1.81.4.85.79,1.7,1.2,2.54.11.23.16.57.49.57.39,0,.45-.38.54-.63.29-.8.67-1.56,1.05-2.32.05-.1.05-.23.34-.22.59,3.74,1.69,7.32,4.78,10.31.24-1.25.12-2.36.66-3.49.82,1.78,1.62,3.44,2.99,4.8,1.34,1.33,2.97,2.31,4.58,3.37-.08-.52-.06-1-.05-1.48,0-.16-.06-.38.15-.46.22-.09.36.09.44.23.21.36.57.62.81.95.97,1.32,2.38,2.09,3.88,2.75.13.06.28.16.42.01.11-.12.1-.28.04-.41-.17-.41-.16-.84-.19-1.31.92.63,1.71,1.4,2.72,1.86.99.45,2.03.83,3.24,1.04-.27-.53-.88-.8-.84-1.44.59.04.99.44,1.43.69.65.36,1.34.59,2.04.82.5.17.57.1.61-.41.01-.17,0-.34,0-.52.84.17,1.4.69,2.92,2.7.19-1.31.07-2.52-.54-3.65-.36-.67-.7-1.35-.83-2.1-.41-2.36-1.82-4.27-3.29-6.14-.52-.65-.91-1.35-1.04-2.23,1.02.07,1.77.61,2.68.89-1.09-1.66-1.82-3.42-2.15-5.32.25,0,.5-.02.74,0,.74.08,1.31-.09,1.69-.76.21-.38.63-.64,1.08-.79.62-.21.86-.64.78-1.22-.11-.89.06-1.84-.62-2.63-.27-.32-.04-.65.19-.86.63-.57.96-1.2,1.04-2.04.08-.8.86-1.13,2.09-1.03,0,.34-.58.35-.49.72Z"/>
        <path class="cls-13" d="M186.36,378.41c.23-1.18.37-2.32,1.11-3.29.34.11.19.35.2.51.01,1.01,0,2.03,0,3.04,0,.2,0,.41.03.61.12.82.09.85-.74.61-1.67-.48-2.64-1.65-3.39-3.02-.28-.51-.5-1.06-.67-1.61-.44-1.42-.11-2.77.56-4.1.07,2.73.76,5.24,2.91,7.26Z"/>
        <path class="cls-13" d="M198.32,385.43c-.89-.11-1.62-.54-2.31-1.03-.2-.14-.35-.33-.54-.48-.23-.18-.41-.59-.71-.47-.38.16.03.5,0,.76-.03.22.1.49-.17.63-.25.13-.46,0-.69-.12-.53-.3-1.09-.56-1.6-.88-1.09-.68-1.67-1.72-1.96-2.85-.17-.65-.62-1.29-.3-2.2.82,1.82,1.8,3.39,3.46,4.59.3-.77,0-1.5.23-2.25.52.12.8.48,1.06.8.94,1.12,2.03,2.1,3.2,3.01.18.14.32.27.32.5h0Z"/>
        <path class="cls-13" d="M180.77,372.17c-1.77-1.66-1.38-5.82.59-7.19.19.22-.04.37-.1.54-.4,1.09-.73,2.2-.68,3.37,0,.22-.1.49.17.63.28.14.44-.1.63-.24.1-.07.18-.17.32-.14.03.47-.47,2.13-.93,3.03Z"/>
        <path class="cls-2" d="M198.32,385.43c.08.02.16.04.24.06-.14.16-.18,0-.24-.06h0Z"/>
        <path class="cls-4" d="M202.06,369.93s-.08-.03-.07-.04c.02-.06.04-.04.07.04,0,0,0,0,0,0Z"/>
        <path class="cls-2" d="M180.95,354.96s.03-.07.04-.07c.06.01.05.04-.04.07,0,0,0,0,0,0Z"/>
        <path class="cls-5" d="M241.11,404.24c-.5-1.06-.98-2.12-1.5-3.16-.19-.38-.3-.96-.82-.96-.5,0-.62.58-.84.96-.04.07-.08.14-.18.28-1.84-1.93-2.19-4.17-1.85-6.65-.6.14-.89.48-1.19.8-.29.3-.55.62-.83.94-.64-1.4.06-3.41,2.31-6.7-1.27-.03-2.18.76-3.32,1.17.23-1.14.89-1.96,1.59-2.76.68-.78,1.61-1.32,2.57-2.15-1.22-.05-2.23-.04-3.27-.52,4.71-1.83,6.3-5.48,6.89-9.75-.78.48-1.38,1.17-2.44,1.51.45-1.14.84-2.21,1.05-3.33.55.81,1.38,1.33,2.21,1.85.74.46,1.51.75,2.42.61-.13.91-.45,1.78-.85,2.61-.32.65-.68,1.28-1.02,1.91-.02.03-.05.05-.07.08.03-.02.05-.05.08-.07.49.07.78-.32,1.17-.47.42-.16.98-.55,1.27-.29.37.34-.06.86-.3,1.24-.56.87-1.18,1.7-1.77,2.55-1.01,1.44-1.89,2.93-2.15,4.66-.1.65-.38,1.22-.7,1.78-.67,1.19-.81,2.46-.65,3.95.83-1.11,1.32-2.32,2.6-2.84.19.05.14.19.15.29.05.86.04.84.88.62,1.18-.31,2.16-.99,3.29-1.55.13.68-.59.91-.81,1.48,2.3-.32,4.16-1.22,5.71-2.71.39.26.26.56.24.82-.03.27-.27.54-.01.87,2.26-.77,3.93-2.21,5.25-4.1.51.39.36.85.4,1.25.04.44.21.55.58.32,1.72-1.09,3.51-2.12,4.65-3.8.79-1.17,1.74-2.26,2.16-3.79.78,1.08.59,2.18.68,3.31.84-.47,1.35-1.16,1.78-1.81,1.02-1.55,1.78-3.22,2.34-4.99.37-1.19.5-2.41.75-3.64.37.13.4.41.5.64.38.86.74,1.72,1.11,2.57.04.1.06.23.21.26.15.03.25-.06.29-.17.71-1.63,1.77-3.13,2.12-4.89.3-1.48.43-2.97.41-4.48-.02-1.31-.03-2.6-.57-3.84-.21-.48-.36-1.01-.66-1.43-.61-.86-.73-1.84-.82-2.8-.11-1.22-.59-2.29-1.19-3.34-.32-.56-.63-1.11-.99-1.66,1.5.68,2.5,1.85,3.63,3.18,0-.53.06-.92-.01-1.28-.36-1.81-.99-3.51-2.27-4.96-.47-.54-1.02-1.01-1.44-1.58h0c.78.07,1.49.39,2.22.61,1.55.48,3.13.62,4.75.61.19,0,.37,0,.5-.17.51.19,1.03.39,1.55.58-.69.83-1.77.99-4.6.71.13.36.47.54.73.78,2.16,2.01,3.56,4.36,3.91,7.22.02.17.1.35-.1.47v-.02c-.74-.44-1.32-1.11-2.11-1.51-.4-.2-.77-.48-1.36-.57,1.92,3.39,2.42,6.91,1.87,10.71-.77-.54-1.06-1.38-1.96-1.77.22,3.49-.02,6.84-1.28,10.07-.71,1.83-1.69,3.53-2.94,5.23-.23-1.06-.06-2.08-.44-3.01.03-.19.04-.38-.07-.56-.27.12-.28.33-.26.56-.73,1.76-1.43,3.52-2.61,5.07-1.36,1.81-2.97,3.4-4.84,4.89-.27-.9-.06-1.8-.46-2.58-.3-.11-.42.11-.56.24-.88.79-1.58,1.71-2.27,2.64-1.27,1.73-2.69,3.34-4.24,4.84-.15.14-.23.34-.44.46-.4-.96-.08-1.87-.18-2.95-1.28,1.25-2.4,2.49-4.08,3.23.13-.92.25-1.76.38-2.67-.46.03-.63.38-.88.58-1.49,1.22-3.18,1.87-5.19,1.76-.43-.02-.82-.28-1.36-.17,2.05,1.21,4,.95,5.99-.1.03.5-.09.91-.15,1.32-.09.59.02.66.63.54,1.13-.23,2.03-.85,2.93-1.46.12-.08.23-.18.39-.3.16.55.25,1.06.46,1.52.28.64.58.67,1.05.16.34-.37.67-.75,1.27-1.1-.5,1.61-.49,3.11-.43,4.61-.65-.04-1.25-.22-1.83-.48-.58-.25-1.1-.62-1.75-.74-.03-.08-.06-.1-.07-.04,0,0,.05.03.07.04,0,.14,0,.29.02.42.08.41.46.95.2,1.18-.35.31-.86-.2-1.34-.22-.52-.48-1.11-.85-1.85-1.14,0,.2-.02.32,0,.42.15.78.12.82-.68.54-1.55-.54-2.94-1.33-4.19-2.33-.15-.12-.25-.35-.55-.27-.11,1.28.12,2.5.73,3.66-.06.42.35.81.11,1.27-.63.01-.82-.65-1.41-.82.11.52.24.99.19,1.47-.75.17-1.51.35-2.26.52Z"/>
        <path class="cls-13" d="M263.53,375.08c.78,1.01.85,2.17,1.03,3.35.46-.11.67-.39.86-.68,1.24-1.81,2.05-3.76,2.05-5.94,0-.21-.06-.44.15-.78.42,1.19.86,2.2.66,3.42-.29,1.8-1.1,3.3-2.55,4.5-.59.49-1.26.85-2.01,1.05-.32.09-.61-.02-.53-.38.32-1.38.09-2.77.16-4.16,0-.11-.03-.23.17-.38Z"/>
        <path class="cls-13" d="M257.52,383.27c1.57-1.16,2.63-2.65,3.4-4.47.22.3.2.48.12.66-.09.19-.08.4-.12.59-.19.91-.47,1.79-.99,2.6-.7,1.09-1.89,1.56-2.97,2.16-.47.26-.73.04-.69-.52.01-.17.08-.34.12-.5.03-.16.13-.33-.12-.54-.93,1.03-2.07,1.8-3.42,2.29-.11.04-.23.09-.38-.01.08-.39.52-.43.76-.66,1.06-1.02,2.24-1.93,3.07-3.14.07-.1.15-.19.23-.27.17-.16.34-.41.61-.32.35.12.39.48.33.73-.12.46-.09.91.04,1.42Z"/>
        <path class="cls-13" d="M270.18,372c-.15-.55-.32-1.01-.5-1.47-.17-.44-.51-.85-.48-1.36.54-.11.61.51,1.16.47.34-1.61-.33-3.12-.73-4.73,2.35,2.05,2.14,6.08.56,7.09Z"/>
        <path class="cls-2" d="M269.9,350.26s-.07-.03-.07-.04c.01-.06.04-.04.07.04,0,0,0,0,0,0Z"/>
        <path class="cls-5" d="M175.72,427.9c1.82-.27,3.58-.73,5.18-1.6.21-.12.42-.25.63-.37.11-.06.22-.11.28-.24-.73-.02-1.38.2-2.07.16-.73-.04-1.4-.22-2.05-.51-.67-.29-1.18-.72-1.65-1.39,3.22.51,6.01-.09,8.3-2.24-1.31.26-2.57.27-3.78-.32-.73-.36-1.34-.83-1.73-1.64,1.08.16,2.07.48,3.1.5,1,.02,2.01.06,3-.53-2.74-.43-3.77-1.11-4.17-2.72.65.01,1.28.14,1.93.14,3.36,0,5.77-1.52,7.6-4.02.25-.35.31-.81.7-1.08.24.12.47.26.77.14.38-.16.77-.09,1.16-.1.04.31.28.34.54.34.37,0,.73,0,1.09.15.95.41,1.92.8,3.01.73.26-.02.46.17.7.21.59.12.98.6,1.6.66.65.06,1.25.31,1.84.54.93.37,1.97.41,2.87.84.02.01.06,0,.09,0,.01.41.24.78.33,1.17.08.33.5.75.05,1.01-.36.21-.66-.23-.95-.41-.33-.2-.58-.53-.89-.76-.3-.22-.53-.12-.57.23-.03.2-.02.41,0,.61.14,1.59.63,3.11,1.21,4.6.25.65.57,1.28.8,1.94.13.38-.1.54-.52.39-.2-.07-.4-.16-.59-.27-.85-.49-1.65-1.03-2.33-1.72-.21-.22-.4-.5-.82-.59,0,1.54.04,3.03-.95,4.33-.27-1.04-.24-2.15-1.12-3.14-.49,1.15-.83,2.23-1.82,2.92-.91.64-1.73,1.44-3.12,1.73.47-.72.96-1.2,1.17-1.84.21-.62.53-1.2.31-2-.82.87-1.82,1.35-2.69,1.98-.52.38-1.13.6-1.71.87-.2.09-.43.17-.61,0-.16-.16.03-.32.09-.47.14-.34.34-.67.29-1.02-.14-.09-.22-.09-.31-.06-.79.26-1.59.45-2.45.46-.57.01-1.13.22-1.65.53-2.92,1.74-6.11,2.49-9.58,2.23-.27-.02-.5-.04-.53-.36ZM186.62,423.85c3.13,1.17,8.24-1.61,8.06-4.85-.16-.02-.21.1-.27.19-1.09,1.45-2.48,2.56-4.22,3.28-.3.12-.59.35-.97.07.21-.76.81-1.38,1.02-1.98-1.16,1.05-2.4,2.18-3.61,3.29Z"/>
        <path class="cls-14" d="M175.72,427.9c.02.32.26.33.53.36,3.46.27,6.66-.48,9.58-2.23.52-.31,1.08-.52,1.65-.53.86-.02,1.66-.2,2.45-.46.09-.03.18-.03.31.06.05.35-.16.68-.29,1.02-.06.15-.24.32-.09.47.17.18.41.1.61,0,.58-.28,1.19-.49,1.71-.87.88-.63,1.88-1.11,2.69-1.98.23.8-.1,1.38-.31,2-.22.64-.7,1.12-1.17,1.84,1.39-.29,2.2-1.1,3.12-1.73.99-.69,1.32-1.77,1.82-2.92.87.99.84,2.1,1.12,3.14.99-1.3.95-2.79.95-4.33.42.09.61.37.82.59.68.69,1.48,1.24,2.33,1.72.18.11.38.2.59.27.42.15.65,0,.52-.39-.23-.66-.55-1.29-.8-1.94-.58-1.49-1.07-3.01-1.21-4.6-.02-.2-.02-.41,0-.61.05-.35.27-.45.57-.23.32.23.56.56.89.76.29.18.59.62.95.41.45-.26.03-.68-.05-1.01-.09-.39-.32-.75-.33-1.17,0-.23,0-.46,0-.69.88-.12,1.51.13,1.71,1.01.04.18.19.38.37.31.48-.2.9.12,1.35.07.5,1.3,1.29,2.42,2.57,3.32-.95.36-1.78.19-2.76-.06.66,1.38,1.83,1.99,3.12,2.54-1.59,1.12-3.11.72-4.63-.01-.11,1.25.37,2.2,1.95,3.91-.52.18-1.01-.1-1.53-.11.59,1.82,1.83,2.42,4.87,2.43-.25,1.06-1.41,1.91-2.71,1.92-2.29.03-3.98-.95-5.14-2.76-.34-.53-.6-1.11-.97-1.65-.07,1.39.03,2.79-1.14,4-.36-.9-.22-1.83-.64-2.72-.95,1.71-2.11,3.12-4.28,3.74.53-1.28,1.2-2.39,1.31-3.87-1.95,2.75-4.59,3.94-8.03,3.91.46-.42.79-.82,1.1-1.25.3-.42.65-.83.71-1.49-1.38.96-2.69,1.84-4.29,2.19-.44.1-.87.31-1.42.19.93-1.1,1.95-2.11,2.37-3.52-.46.08-.74.32-1.05.5-1.7.96-3.48,1.8-5.4,2.29-1.81.46-3.64.4-5.43-.11-1.14-.32-2.13-.91-2.9-1.84.34-.08.6-.08.84.08.09.2.21.22.34.03.25-.06.51-.06.77,0Z"/>
        <path class="cls-3" d="M209.54,415.53c-.07,0-.14,0-.21,0-.35-.48-.85-.58-1.43-.51-.04-.18-.08-.35-.13-.53.12-.71-.23-1.16-.9-1.45-.45-.2-.88-.43-1.33-.62-3.13-1.33-6.4-2.21-9.82-2.56-1.23-.13-2.48-.21-3.7.12-.86.44-1.74.55-2.66.15-.49-.64-.54-1.35-.31-2.06.31-.97.69-1.91,1.03-2.87.41-1.16,1.33-1.69,2.56-1.84.32-.04.62-.05.8-.34.42,0,.84,0,1.27-.01.03.06.06.13.09.19.59.3,1.23.12,1.85.15,2.07.1,4.08.55,6.09.99,1.51.32,2.92.9,4.36,1.38.64.27,1.27.55,1.89.81.34-.27.25-.69.53-.93.31.35.74.15,1.12.2-.05.23-.1.47-.15.7-.3.36-.3.66.15.94.36.22.68.5,1.01.77.92.75,1.14,1.7.84,2.76-.21.72-.46,1.44-.7,2.15-.1.01-.19.03-.12.16-.1.97-.6,1.63-1.62,1.94-.18.06-.41.11-.51.31ZM197.54,404.44c-.41-.07-.83-.16-1.25-.13-1.27-.12-2.53-.15-3.78.1-.68.14-1.17.47-1.39,1.13-.28.85-.6,1.69-.9,2.54-.18.17-.09.36-.04.54-.17.5-.15.95.42,1.33.26-.87,1.03-.94,1.73-.99,1.83-.15,3.67-.1,5.48.21,2.2.38,4.35.96,6.43,1.71,1.39.5,2.79.99,3.97,1.87.45.34.82.71.82,1.29,0,.15.04.29.2.38.34-.05.63-.2.86-.44.29-.23.38-.57.53-.88.26-.76.48-1.54.79-2.29.31-.76.13-1.34-.57-1.8-.92-.95-2.1-1.52-3.36-1.99-1.35-.62-2.72-1.18-4.22-1.42-1.62-.54-3.26-.95-4.98-1.07-.23-.13-.49-.13-.75-.09Z"/>
        <path class="cls-12" d="M197.2,431.74c.52-.3,1.13-.42,1.65-.74.54-.33,1.1-.64,1.66-1.25,0,.38.03.59,0,.8-.04.26-.11.51.19.69.29.17.55.03.78-.09.86-.45,1.54-1.07,1.92-1.93.07-.16.14-.32.23-.53.37.45.71.88,1.06,1.31-.06.4-.52.46-.73.73-.17.22-.56.39-.33.71.17.23.43-.09.67-.07.03,0,.06-.01.09-.02.3.29.37.73.71.99.38-.12.4-.65.87-.6.25.16.5.32.74.48-1.05.3-1.18.68-.47,1.4.19.19.37.38.68.37-.21.38-.19.65.35.7.95.58,2,.79,3.12.68.1.39.23.78.48,1.16-.88.53-1.79.41-2.69.15-.44-.13-.86-.34-1.28-.53-1.07-.48-2.18-.82-3.37-.95-.89-.09-.89-.1-.9-.92,0-.11-.02-.22-.04-.39-.39.17-.44.5-.55.78-.36.83-.94,1.49-1.76,1.96-.1.06-.21.13-.32.17-.64.21-.64.2-.81.61-.41.99-.96,1.89-1.96,2.46-.36.21-.73.41-1.25.37.19-.66.25-1.28.04-1.9.94-.15,1.39-.52,1.58-1.3.03-.05.07-.09.12-.1.65-.26.84-.78.88-1.38.25.01.32-.14.34-.34.49-.28.47-.77.56-1.21.32-.01.41-.17.31-.44-.05-.13-.08-.26-.12-.39-.13-.65-.65-.91-1.25-1.08-.39-.11-.85-.04-1.17-.35Z"/>
        <path class="cls-12" d="M186.35,431.72c.43-.43,1.07-.23,1.58-.44.06-.02.19.03.24.09.39.51.96.44,1.52.43,1.08-.03,2.17-.01,3.24-.22.83-.16,1.57-.52,2.37-.76.05.05.1.09.15.14-.15.23-.05.58-.52.66-.19.03-.18.46-.18.72-.02.9-.58,1.57-1.11,2.24-.18.23-.46.28-.75.27-1.66-.1-3.16.32-4.65,1.01-1.24.57-2.59.94-4.02.75-.26-.03-.46.16-.67.28-.71.41-1.41.84-2.18,1.16-.87.37-1.76.54-2.71.48-.3-.02-.63.02-.89-.28.4-.48.54-1.07.75-1.64,1.72.05,3.42-.06,5.02-.72.69-.32,1.44-.48,2.18-.68.62-.16,1.25-.29,1.76-.69.55-.17,1.12-.31,1.66-.52.61-.23.6-.26.38-.83-.06-.17-.16-.31-.32-.41-.22-.61-.73-.81-1.36-.81-.27-.33-.61-.22-.94-.11-.15,0-.31-.02-.46-.02-.03-.03-.06-.06-.1-.09ZM190.29,433.62c.36-.16.85-.2.87-.57.02-.4-.51-.42-.81-.58-.1-.05-.24-.05-.34.1.03.14.08.3.11.46.04.17-.01.35.18.58Z"/>
        <path class="cls-10" d="M192.01,409.99c1.22-.33,2.48-.25,3.7-.12,3.42.35,6.69,1.24,9.82,2.56.45.19.88.43,1.33.62.67.29,1.01.74.9,1.45-.98-.17-1.85-.56-2.53-1.25-.22-.23-.38-.31-.69-.12-.46.27-.94.26-1.36-.1-.56-.48-1.28-.55-1.98-.6-.37-.03-.71-.06-1.05-.25-.69-.39-1.44-.7-2.25-.71-1,0-2-.06-2.99-.09-1.01-.02-2.04.14-2.98-.35-.08-.04-.18-.02-.27-.03.12-.33.25-.67.37-1Z"/>
        <path class="cls-5" d="M191.64,410.99c.09,0,.2,0,.27.03.95.49,1.98.33,2.98.35,1,.02,1.99.08,2.99.09.81,0,1.56.32,2.25.71.34.19.68.23,1.05.25.71.05,1.42.12,1.98.6.43.36.91.37,1.36.1.32-.18.47-.11.69.12.68.7,1.55,1.08,2.53,1.25.04.18.08.35.13.53.07.4.13.81.2,1.21-.45.05-.87-.27-1.35-.07-.18.07-.32-.13-.37-.31-.21-.88-.83-1.13-1.71-1.01-.99-.4-1.86-1.03-2.87-1.4-1.78-.64-3.53-1.36-5.48-1.48-1.14-.07-2.27-.19-3.4.1-.39,0-.79-.06-1.16.1-.29.12-.53-.02-.77-.14.22-.35.44-.7.67-1.04Z"/>
        <path class="cls-12" d="M185.22,429.88c-.28.29-.49.55-.75.74-.36.26-.3.51.01.83-1.23.43-2.43.64-3.65.8-.68.09-1.35.16-2.02.27-1.3.21-2.39.81-3.3,1.68-.13.12-.25.26-.5.29-.04-.38.24-.64.39-.94.27-.52.6-1.03.4-1.65-.09-.27.06-.38.26-.48.55-.3,1.14-.46,1.78-.4,2.33.21,4.58-.08,6.71-1.02.14-.06.29-.1.44-.15.02,0,.06,0,.23.03Z"/>
        <path class="cls-15" d="M183.55,435.9c-1.61.66-3.3.77-5.02.72-.02-.11-.04-.21-.06-.32.01-.02.04-.05.03-.07-.02-.05-.05-.09-.08-.13-.09-.29-.18-.59-.26-.88.21-.21.44-.37.79-.34.67.06,1.34-.03,2-.17.26.27.32.69.72.87.05-.14.08-.25.12-.35.66.08,1.19.43,1.77.68Z"/>
        <path class="cls-15" d="M199.45,434c-.09.44-.07.93-.56,1.21-.48-.99-1.44-1.24-2.47-1.37-.38-.05-.8.13-1.14-.18.07-.17.12-.36.3-.47,1.56-.62,2.7-.38,3.87.81Z"/>
        <path class="cls-8" d="M180.94,434.69c-.66.14-1.32.23-2,.17-.35-.03-.58.13-.79.34-.33-.38-.7-.7-1.45-.76.99-.62,1.83-1.08,2.9-.92.44.4,1.09.58,1.34,1.17Z"/>
        <path class="cls-15" d="M210.4,435.37c-1.13.11-2.17-.09-3.12-.68.1-.33.21-.65.51-.89.84.46,1.66.63,2.5-.02.26-.21.35.04.39.25-.2.43-.22.89-.28,1.34Z"/>
        <path class="cls-15" d="M197.55,437.03c-.19.78-.64,1.15-1.58,1.3-.21-.6-.68-1-1.21-1.36.42-.32,1.07-.41,1.13-1.06.77.09,1.16.67,1.65,1.11Z"/>
        <path class="cls-16" d="M177.62,436.08c.28,1.13-.11,1.74-1.25,1.92-.7.11-1.36.34-1.99.65-.32.16-.57.17-.4-.29.39-.1.56-.42.82-.66.97-.49,1.92-1.01,2.81-1.61Z"/>
        <path class="cls-8" d="M183.53,432.77c.63-.17,1.2-.54,1.88-.58.47.43,1.08.76,1.19,1.45-.68.02-1.29.32-1.96.38-.27-.49-.69-.87-1.11-1.25Z"/>
        <path class="cls-8" d="M180.56,433.32c.51-.09,1.03-.17,1.54-.26.13.07.23.02.32-.07.11.01.22.03.34.04.34.31.86.44,1.02.92-.6.46-1.4.42-2.06.72-.24-.56-.79-.89-1.16-1.36Z"/>
        <path class="cls-8" d="M193.07,441.38c-.7-1.05-.61-2.13-.05-3.18.33-.62.73-.74,1.4-.55-.35-.01-.6.07-.58.47.01.34.03.68-.12,1.01-.26.53-.28,1.1-.23,1.67-.14.19-.28.38-.41.58Z"/>
        <path class="cls-8" d="M210.67,434.03c-.04-.21-.13-.46-.39-.25-.84.66-1.66.48-2.5.02.1-.53.73-.49,1.01-.82.86-.08,1.65.07,2.35.59-.07.19-.25.34-.46.46Z"/>
        <path class="cls-16" d="M214.24,436.25c.15.44.14.45-.12.41-.54-.1-1.08-.22-1.63-.26-1.15-.09-1.27-.23-1.28-1.34.55-.09,1,.08,1.45.36.51.31.94.75,1.58.84Z"/>
        <path class="cls-8" d="M174.81,437.69c-.26.24-.44.56-.82.66-.03-1.4.76-2.34,1.97-3.01.32-.17.69-.44,1.11-.12-.3.19-.85.11-.91.5-.08.59-.55.88-.91,1.25-.2.21-.49.37-.44.72Z"/>
        <path class="cls-8" d="M195.9,435.92c-.06.64-.72.74-1.13,1.06-.69-.19-1.36.04-2.03.08.04-.1.08-.21.12-.31.27-.35.57-.67.96-.9.7-.05,1.41-.33,2.09.07Z"/>
        <path class="cls-1" d="M199.45,434c-1.17-1.19-2.3-1.43-3.87-.81-.1-.23-.12-.47-.09-.71.06-.02.13-.04.19-.06.22.04.44.05.59-.15,1.15-.1,2.21.07,3.09.84.06.05.17.05.26.07.04.13.08.26.12.39.1.27.02.43-.31.44Z"/>
        <path class="cls-15" d="M193.49,440.81c-.05-.57-.02-1.14.23-1.67.16-.33.13-.67.12-1.01-.01-.4.23-.48.58-.47.53,0,.45.5.69.74-.26.2-.46.4-.56.74-.19.63-.43,1.27-1.07,1.67Z"/>
        <path class="cls-8" d="M214.24,436.25c-.64-.09-1.07-.53-1.58-.84-.45-.28-.91-.45-1.45-.36,0,0,0,0,0,0,0-.12,0-.24,0-.36.07-.42.36-.47.75-.39,1.17.24,2.02.79,2.29,1.95Z"/>
        <path class="cls-1" d="M195.28,433.65c.33.31.76.13,1.14.18,1.03.14,1.99.38,2.47,1.37-.01.2-.08.35-.34.34-.36-.66-.98-.94-1.73-1.03-.28-.18-.57-.15-.89-.06-.33.09-.67.13-1.01.04.04-.31.11-.61.35-.84Z"/>
        <path class="cls-15" d="M174.81,437.69c-.05-.34.24-.51.44-.72.36-.38.83-.66.91-1.25.05-.39.61-.32.91-.5.43.15.53.48.55.86-.89.6-1.84,1.12-2.81,1.61Z"/>
        <path class="cls-16" d="M193.49,440.81c.64-.4.88-1.04,1.07-1.67.11-.34.31-.54.56-.74.35.44.31.92.05,1.37-.44.75-1.16,1.26-1.87,1.77-.13.09-.22-.01-.23-.15.14-.19.28-.38.41-.58Z"/>
        <path class="cls-16" d="M174.98,432.62c0,.34-.26.58-.38.87-.22.51-.57.78-1.21.71-.36-.03-.73.09-1.1.13-.29.03-.42-.07-.29-.35.05-.06.11-.12.16-.18,0,0-.02,0-.02,0,.22.04.39-.04.59-.14.74-.37,1.5-.7,2.25-1.05Z"/>
        <path class="cls-15" d="M206.92,434c-.31.01-.49-.18-.68-.37-.71-.72-.58-1.1.47-1.4.39.19.78.38,1.17.57-.38.36-.7.76-.96,1.21Z"/>
        <path class="cls-8" d="M174.98,432.62c-.75.35-1.51.68-2.25,1.05-.2.1-.37.18-.59.14.45-1.12,1.49-1.73,2.83-1.68,0,.16.01.33.02.49h0Z"/>
        <path class="cls-1" d="M195.9,435.92c-.68-.4-1.39-.13-2.09-.07.06-.3.29-.48.54-.64.8-.13,1.55.08,2.28.35.48.37.88.79,1.05,1.37-.06.02-.1.05-.12.1-.49-.45-.89-1.02-1.65-1.11Z"/>
        <path class="cls-8" d="M196.63,435.56c-.73-.26-1.48-.48-2.28-.35.07-.33.36-.5.58-.72.34.09.68.05,1.01-.04.31-.08.6-.11.89.06.06.37-.11.69-.19,1.04Z"/>
        <path class="cls-12" d="M186.6,433.64c-.1-.69-.72-1.01-1.19-1.45.25-.28.6-.37.94-.47.03.03.06.06.1.09-.09.17-.06.32.06.47.26.34.51.69.76,1.04.01.34.02.68.03,1.03-.4-.09-.4-.54-.71-.71Z"/>
        <path class="cls-15" d="M195.68,432.41c-.06.02-.13.04-.19.06-.03-.13-.07-.26-.1-.39l.09.02.06-.06c.6.1,1.08-.35,1.66-.3.33.3.78.24,1.17.35.61.17,1.12.43,1.25,1.08-.09-.02-.2-.02-.26-.07-.88-.77-1.95-.93-3.09-.84-.22-.03-.43-.03-.59.15Z"/>
        <path class="cls-1" d="M180.56,433.32c.36.47.92.8,1.16,1.36.02.18.04.36.06.53-.03.1-.07.21-.12.35-.41-.19-.46-.61-.72-.87-.25-.59-.9-.77-1.34-1.17.32-.07.64-.14.96-.21Z"/>
        <path class="cls-1" d="M206.92,434c.26-.45.58-.85.96-1.21.32,0,.65-.07.9.2-.28.33-.91.29-1.01.82-.29.24-.41.56-.51.89-.55-.05-.56-.32-.35-.7Z"/>
        <path class="cls-15" d="M205.97,431.74c-.47-.04-.49.48-.87.6-.34-.26-.41-.7-.71-.99.07-.19.18-.33.43-.34.17,0,.35-.03.42-.21.3.27.63.53.73.94Z"/>
        <path class="cls-1" d="M183.78,433.96c-.16-.48-.68-.61-1.02-.92.26-.09.51-.18.77-.27.42.38.84.76,1.11,1.25.03.25.15.49-.05.77-.28-.29-.54-.56-.8-.83Z"/>
        <path class="cls-1" d="M205.24,430.8c-.08.18-.25.21-.42.21-.24,0-.35.15-.43.34-.03,0-.06.02-.09.02-.23-.02-.5.3-.67.07-.23-.31.16-.49.33-.71.21-.27.67-.33.73-.73.2.26.49.46.55.8Z"/>
        <path class="cls-16" d="M192.73,437.06c.13.05.19.14.1.26-.19.25-.39.49-.63.79-.09-.53.19-.86.48-1.18.03.04.04.08.05.13Z"/>
        <path class="cls-16" d="M174.98,432.62c0-.16-.01-.33-.02-.49.29.15.19.32.02.49Z"/>
        <path class="cls-16" d="M211.21,434.69c0,.12,0,.24,0,.36-.22-.12-.11-.24,0-.36Z"/>
        <path class="cls-14" d="M174.96,427.91c-.13.19-.25.17-.34-.03.11.01.23.02.34.03Z"/>
        <path class="cls-12" d="M195.3,430.83c.07-.1.2-.19.29-.1.12.11-.06.17-.13.24-.05-.05-.1-.09-.15-.14Z"/>
        <path class="cls-1" d="M182.42,433c-.09.09-.19.13-.32.07.08-.12.2-.12.32-.07Z"/>
        <path class="cls-8" d="M172.16,433.81c-.05.06-.11.12-.16.18,0-.1.03-.18.16-.18Z"/>
        <path class="cls-12" d="M195.39,432.08c-.07-.04-.09-.11-.03-.14.12-.08.16,0,.18.1,0,0-.06.06-.06.06l-.09-.02Z"/>
        <path class="cls-12" d="M178.42,436.09s.06.08.08.13c0,.02-.02.05-.03.07-.03-.04-.06-.08-.08-.13,0-.02.02-.05.03-.07Z"/>
        <path class="cls-16" d="M192.84,436.75c-.04.1-.08.21-.12.31,0,0,0,0,0,0,0-.05-.02-.09-.05-.13.02-.09.06-.16.16-.18Z"/>
        <path class="cls-5" d="M260.14,412.41c.61.8,1.2,1.61,1.96,2.31,2.17,2,4.74,2.77,7.75,2.24.12-.02.24,0,.37,0-.48,1.71-1.76,2.53-4.12,2.65.06.38.43.38.68.44.97.23,1.97.24,2.96.13.79-.09,1.56-.3,2.38-.48-.9,1.83-2.74,2.45-5.56,1.92.09.36.39.51.64.7,1.85,1.32,3.93,1.95,6.26,1.79.25-.02.5-.02.75-.03.15.05.32.07.4.22-1.17,1.42-2.76,1.72-4.54,1.44-.33-.05-.65-.15-1-.17,1.42,1.19,3.19,1.69,4.96,2.19.37.29.83.13,1.25.21-.26.25-.59.3-.94.3-.53,0-1.06-.03-1.59,0-2.29.13-4.31-.72-6.3-1.59-1.29-.56-2.48-1.32-4-1.22-.29.02-.6-.14-.89-.22-.29-.08-.56-.22-.89-.21-.06.67.49,1.13.62,1.86-2.1-.65-3.66-1.9-5.36-3.1-.03,1.55.85,2.67,1.59,3.86-.54-.17-1-.38-1.45-.62-1.6-.85-2.76-2.03-3.29-3.71-.04-.11,0-.3-.27-.31-.68.9-.53,2.07-1.05,3.12-1.01-1.32-.75-2.86-1.13-4.39-1.27,1.11-2.32,2.32-4.08,2.7.05-.57.22-1,.42-1.41.84-1.66,1.31-3.42,1.71-5.2.11-.49.02-.96-.34-1.41-.52.4-1,.76-1.47,1.12-.17.13-.32.32-.56.22-.3-.12-.22-.4-.17-.61.11-.48.39-.92.34-1.43.13-.37.12-.79.55-1.04,1.16-.65,2.28-1.35,3.58-1.73.27-.08.53-.14.73-.34,1.23-.08,2.39-.53,3.64-.61,1.15-.07,2.26-.14,3.41.03.63.09,1.27.31,1.93.19,0,0,0,0,0,0-.01.1.04.16.14.18ZM261.86,422.68c-1.29-.09-2.36-.68-3.3-1.44-.72-.58-1.43-1.2-1.96-1.96-.1-.14-.23-.32-.49-.29.3,3.86,5.62,5.94,8.51,4.76-1.47-1.09-2.73-2.31-3.99-3.56.16.95.85,1.65,1.23,2.48h0Z"/>
        <path class="cls-14" d="M246.17,415.72c.05.51-.23.95-.34,1.43-.05.21-.14.48.17.61.24.1.4-.09.56-.22.48-.36.95-.73,1.47-1.12.36.45.45.92.34,1.41-.41,1.78-.87,3.54-1.71,5.2-.21.4-.37.84-.42,1.41,1.76-.38,2.81-1.6,4.08-2.7.38,1.53.12,3.07,1.13,4.39.53-1.05.37-2.22,1.05-3.12.27,0,.23.2.27.31.53,1.68,1.69,2.86,3.29,3.71.45.24.91.45,1.45.62-.73-1.19-1.62-2.31-1.59-3.86,1.7,1.2,3.26,2.45,5.36,3.1-.13-.73-.67-1.19-.62-1.86.34-.01.61.13.89.21.3.08.6.24.89.22,1.52-.09,2.72.66,4,1.22,1.99.87,4.01,1.72,6.3,1.59.53-.03,1.06,0,1.59,0,.35,0,.68-.05.94-.3.49-.14,1.04.08,1.51-.19.12-.03.24-.08.4.04-1.02,1.07-2.26,1.74-3.77,2.01-2.5.46-4.87.11-7.13-.96-1.27-.6-2.56-1.16-3.89-2.05.38,1.54,1.39,2.55,2.37,3.7-1.34-.09-2.45-.48-3.49-1.02-.64-.33-1.25-.7-1.87-1.06-.03-.19-.18-.32-.35-.25-.15.07-.01.25.03.38.02.07.1.13.16.2.17.57.59.99,1,1.41.2.21.41.4.73.71-3.39-.08-6.16-.98-7.97-3.72-.11.74-.11.85.28,1.83.22.56.51,1.1.83,1.77-2.2-.53-3.28-2-4.25-3.77-.43.95-.45,1.83-.57,2.79-1.27-1.15-1.16-2.56-1.27-3.98-.24.45-.47.91-.72,1.36-.88,1.55-2.22,2.55-4.06,2.95-1.28.28-2.47.1-3.44-.82-.28-.27-.53-.55-.6-1.03,2.23.2,4.05-.29,5.06-2.34-.61-.17-1.13.29-1.75.02,1.29-1.03,2.03-2.3,2.16-3.97-1.62.81-3.15,1.26-4.77.12,1.28-.56,2.5-1.15,3.04-2.53-.46.06-.84.26-1.27.25-.43,0-.85-.02-1.25-.1-.06-.33.22-.37.37-.49.94-.76,1.57-1.71,2.02-2.78.34.18.74.3,1.05.08.69-.49,1.5-.62,2.31-.78Z"/>
        <path class="cls-3" d="M257.16,401.27c.05.13.1.25.15.38.04.29.06.58.12.86.16.73.17.73.99.87,1.15.19,2,.71,2.41,1.8.37.98.74,1.96,1.05,2.97.35,1.15,0,2.1-.95,2.88-.56-.12-1.05-.47-1.67-.34,0,0,0,0,0,0-.05-.11-.11-.23-.16-.34-.05-.03-.06-.07-.03-.12-.07-.08-.13-.15-.2-.23-1.23-.25-2.47-.2-3.71-.09-2.39.21-4.69.82-6.96,1.51-1.51.46-3.02.94-4.34,1.81-.44.29-.73.59-.69,1.13.02.28.06.58-.12.84-.49,0-.98,0-1.35.36-.26-.09-.52-.19-.78-.27-.73-.23-1.24-.68-1.47-1.35-.38-1.13-.75-2.26-1.06-3.41-.19-.71.02-1.37.59-1.92.54-.52,1.08-1.04,1.75-1.42.15.23.43.21.65.31.19.08.4.07.45-.15.08-.31.45-.5.39-.86.49-.41,1.2-.45,1.7-.84.35,0,.65-.16.97-.28,3.05-1.08,6.19-1.8,9.46-2,.61-.04,1.22-.1,1.82-.15-.07-.55-.14-1.05-.2-1.56.48.12.79-.28,1.2-.35ZM253.43,404.42c-.31-.01-.61-.03-.89.12-1.71.16-3.37.52-4.98,1.08-1.43.24-2.75.77-4.03,1.39-.63.17-1.19.48-1.76.76-.6.3-1.2.6-1.58,1.16-.71.49-.93,1.09-.59,1.89.25.59.39,1.22.58,1.83.07.22.09.46.37.56,0,.23.09.41.36.46-.01.33.11.57.48.65.23.05.46.06.49-.23.1-1.02.93-1.47,1.76-1.87.93-.46,1.9-.88,2.87-1.25,3.61-1.36,7.34-2.14,11.26-2.05,1.01.02,1.97.13,2.7.85.34-.24.32-.54.33-.83.18-.26.19-.51-.09-.72-.11-.69-.47-1.31-.61-1.98-.28-1.32-1.19-1.88-2.54-1.97-.25-.02-.49,0-.74,0-1.13-.04-2.26-.11-3.37.16Z"/>
        <path class="cls-12" d="M246.13,430.17c.36-.45.72-.91,1.14-1.44.47.87.93,1.65,1.77,2.14.13.08.24.18.38.25.68.36,1.03.18,1.04-.56,0-.17,0-.34,0-.63.59.38,1.08.7,1.57,1.02.51.33,1.12.48,1.65.75-.36.16-.69.36-1.12.39-.55.04-.89.34-.97.87h-.01c-.1.03-.16.1-.17.19-.16.3-.46.61.12.82.11.44.07.92.45,1.28,0,.15.05.27.19.34.14.54.32,1.06.89,1.35.02.13.03.26.17.34.44.52.78,1.17,1.68,1.07-.18.65-.22,1.3.23,2-.83-.09-1.4-.41-1.9-.85-.74-.65-1.25-1.43-1.55-2.34-.09-.26-.1-.71-.64-.37-.08.05-.33-.12-.48-.22-.74-.5-1.38-1.08-1.68-1.92-.1-.28-.19-.6-.54-.83-.16.33-.13.61-.07.88.08.32-.05.45-.36.45-1.75-.02-3.23.75-4.78,1.35-1.3.5-1.94.51-3.1.05.16-.38.32-.77.49-1.16,1.11.14,2.13-.18,3.16-.52.46-.15.41-.5.38-.84.25-.13.53-.22.63-.53.07-.23.34-.29.56-.36.27.04.25.49.62.4.22-.4-.17-.73-.11-1.1.3-.32.42-.77.77-1.05.12.01.24.01.36.03.17.03.36.2.49,0,.14-.2-.03-.37-.17-.53-.31-.32-.67-.59-1.11-.73Z"/>
        <path class="cls-12" d="M272.47,436.1c-.02.65.1,1.26.45,1.84.22.36.13.51-.33.57-.97.12-1.92.05-2.84-.32-.83-.33-1.62-.73-2.36-1.22-.33-.22-.64-.3-1.09-.3-1.35.02-2.67-.26-3.86-.87-1.38-.71-2.83-1.03-4.39-.94-.45.03-.77-.12-1.01-.48-.4-.62-.86-1.21-.82-1.99.01-.22-.1-.45-.15-.68,0-.17,0-.33-.16-.47-.24-.22.06-.17.15-.22,1.03.37,2.07.7,3.19.74.8.03,1.6.02,2.4.03.25,0,.52,0,.7-.18.51-.51,1.04-.29,1.58-.08-.37.23-.79.34-1.21.43-.82.18-1.23.68-1.47,1.4-.13.36-.06.52.31.65.63.23,1.32.3,1.94.59,1.36.63,2.81,1.06,4.27,1.43,1.21.31,2.43.65,3.73.59.45-.02.77-.14.98-.51ZM260.88,432.49c-.78,0-1.24.19-1.21.49.06.52.57.49.99.64.08-.39.14-.73.22-1.13Z"/>
        <path class="cls-10" d="M243.04,415.18c.19-.26.14-.56.12-.84-.04-.54.25-.83.69-1.13,1.32-.88,2.83-1.36,4.34-1.81,2.27-.69,4.57-1.3,6.96-1.51,1.24-.11,2.48-.16,3.71.09.07.08.13.15.2.23-.03.05-.02.09.03.12-.01.14.07.24.16.34,0,0,0,0,0,0,.07.59.61.99.75,1.56-.66.12-1.29-.1-1.93-.19-1.14-.17-2.26-.1-3.41-.03-1.25.08-2.4.53-3.64.61-.16-.25-.41-.2-.66-.16-.6.1-1.2.21-1.81.3-.18.03-.4-.02-.52.12-.43.47-1.1.64-1.55,1.07-.36.35-.8.52-1.28.65-.4.11-1.38.62-1.72.92-.14.12-.3.2-.49.21.01-.18.03-.36.04-.55Z"/>
        <path class="cls-15" d="M272.47,436.1c-.2.37-.53.49-.98.51-1.3.07-2.52-.27-3.73-.59-1.45-.38-2.9-.8-4.27-1.43-.62-.29-1.3-.36-1.94-.59-.37-.13-.43-.29-.31-.65.25-.71.66-1.22,1.47-1.4.42-.09.84-.2,1.21-.43.36.04.68.15.96.38-1.07.85-1.41,1.48-1.19,2.32.36-.26.48-.66.73-.98.43.6,1.21.51,1.81.78-.08.26-.13.52,0,.82.4-.13.35-.56.65-.69.83-.05,1.57.3,2.36.42-.12.34-.2.69-.07,1.12.48-.34.51-.88.86-1.21.93.63,1.94.55,2.64-.25.19-.22.39-.23.63-.25.29.02.48.19.75.42-1.03.24-1.48.84-1.6,1.69Z"/>
        <path class="cls-12" d="M275.83,434.39c-.17,0-.29-.1-.4-.2-1.21-1.23-2.78-1.66-4.49-1.82-1.32-.13-2.64-.36-3.91-.74-.22-.07-.64-.06-.34-.49.13-.18-.08-.31-.21-.43-.34-.29-.68-.57-1.06-1.08,1.09.41,1.97.82,2.92,1.05,1.45.36,2.93.45,4.42.36.7-.04,1.36-.02,1.98.33.19.11.41.2.36.45-.16.9.3,1.63.77,2.35.03.05.02.11.03.17l-.07.06Z"/>
        <path class="cls-5" d="M243.01,415.72c.19,0,.35-.09.49-.21.34-.3,1.32-.81,1.72-.92.48-.13.92-.3,1.28-.65.45-.43,1.12-.6,1.55-1.07.13-.14.34-.09.52-.12.6-.09,1.2-.19,1.81-.3.25-.04.49-.09.66.16-.2.19-.47.26-.73.34-1.3.38-2.43,1.08-3.58,1.73-.43.24-.42.67-.55,1.04-.81.16-1.62.29-2.31.78-.31.22-.71.1-1.05-.08-.03-.26.11-.47.2-.7Z"/>
        <path class="cls-15" d="M251.98,435.25c-.38-.36-.34-.84-.45-1.28.07-.09.12-.21.21-.28,1.15-.91,2.38-1.18,3.73-.38.1.16.24.31.21.51-.37,0-.74-.03-1.11.02-1.07.13-2.04.45-2.6,1.4Z"/>
        <path class="cls-15" d="M243.7,434.87c-1.02.34-2.05.66-3.16.52-.01-.1-.02-.21-.03-.31.06-.14.06-.26-.06-.37-.11-.29-.21-.57-.32-.86.24-.02.51-.08.72.05.81.5,1.58.3,2.34-.08.24.32.57.6.5,1.05Z"/>
        <path class="cls-16" d="M276.96,438.18c-.01.61,0,.6-.52.4-.65-.25-1.29-.53-2.01-.62-.81-.1-1.12-.43-1.19-1.18-.03-.36-.1-.75.18-1.07,0,.37.15.64.53.82.64.31,1.27.65,1.9.98.39.2.62.63,1.11.67Z"/>
        <path class="cls-15" d="M254.92,438.35c-.9.11-1.24-.55-1.68-1.06.42-.49.71-1.11,1.49-1.21.46.28.88.59,1.03,1.12,0,0,0-.03,0-.03-.12.02-.19.09-.22.2-.21.33-.41.65-.62.98Z"/>
        <path class="cls-8" d="M269.26,434.58c-.79-.11-1.54-.46-2.36-.42.19-.64.83-.85,1.33-1.18.76.06,1.51.14,2.25.32-.46.39-.95.74-1.22,1.28Z"/>
        <path class="cls-8" d="M255.76,437.2c-.15-.53-.56-.84-1.03-1.12.26-.3.61-.35.99-.35.43,0,.86,0,1.29,0,.61.33.91.91,1.34,1.39-.08.07-.15.13-.23.2-.77-.44-1.55-.56-2.36-.11Z"/>
        <path class="cls-8" d="M266.24,434.03c-.6-.26-1.38-.17-1.81-.78.1-.55.78-.65,1-1.11.65.13,1.24.41,1.85.64-.32.43-.79.76-1.04,1.25Z"/>
        <path class="cls-15" d="M256.07,437.86c.83-.49.96-.48,1.65.13-.72.18-.78.25-.64.85.06.25.11.51.21.74.2.49.22,1.09.8,1.4q-.25.68-.69.32c-.32-1.06-.96-2-1.36-3.03-.02-.04-.1-.06-.15-.08.02-.05.05-.11.07-.16.09-.02.13-.07.13-.16Z"/>
        <path class="cls-1" d="M255.48,433.32c-1.35-.81-2.58-.53-3.73.38-.09.07-.14.19-.21.28-.58-.2-.28-.52-.12-.82.09-.03.16-.09.17-.19,0,0,.01,0,.01,0,.4-.02.63-.35.98-.46.78-.25,1.56-.36,2.36-.11.15.04.34.03.3-.18-.02-.13-.19-.12-.31-.14.16-.18.37-.18.59-.15,0,0,0,0,0,0,.03.3.04.6-.06.9,0,0-.05.06-.05.06l.04.06c.01.13.02.26.03.39Z"/>
        <path class="cls-8" d="M243.19,433.82c-.77.38-1.54.58-2.34.08-.22-.13-.48-.07-.72-.05-.14-.06-.27-.13-.49-.23.81-.58,1.67-.72,2.6-.63.25.35.88.32.96.83Z"/>
        <path class="cls-8" d="M273.32,433.99c-.24.02-.43.03-.63.25-.71.8-1.71.88-2.64.25.2-.52.86-.56,1.16-.98.8-.2,1.44.19,2.11.48Z"/>
        <path class="cls-8" d="M276.96,438.18c-.5-.04-.73-.47-1.11-.67.05-.34-.2-.56-.45-.69-.69-.36-.82-.94-.85-1.58,1.48.5,2.23,1.52,2.41,2.94Z"/>
        <path class="cls-16" d="M278.91,434c.13.44.13.44-.13.41-.55-.07-1.1-.15-1.66-.21-.23-.02-.43-.08-.54-.28-.29-.47-.67-.91-.68-1.49.71.35,1.42.69,2.12,1.06.22.11.42.25.68.15,0,0,0,0,0,0-.05.19,0,.31.22.36Z"/>
        <path class="cls-8" d="M258.08,440.97c-.58-.31-.59-.9-.8-1.4-.1-.24-.15-.49-.21-.74-.14-.59-.08-.66.64-.85.8.92.72,1.94.36,2.98Z"/>
        <path class="cls-16" d="M255.87,438.17c.05.03.14.04.15.08.4,1.03,1.05,1.97,1.36,3.03-.47-.23-.85-.57-1.23-.89-.76-.65-.83-1.32-.29-2.22Z"/>
        <path class="cls-1" d="M251.98,435.25c.56-.95,1.53-1.27,2.6-1.4.36-.04.74-.01,1.11-.02.22.16.23.39.24.63-.31.1-.61.05-.92-.02-.34-.08-.68-.09-.99.08-.8.09-1.31.59-1.84,1.08-.14-.07-.19-.2-.19-.34Z"/>
        <path class="cls-15" d="M245.27,433.14c-.22.08-.48.13-.56.36-.1.31-.38.4-.63.53-.41-.41-.61-1.02-1.26-1.21.56-.23,1.11-.47,1.67-.7.28.32.72.55.78,1.01Z"/>
        <path class="cls-15" d="M274.54,435.23c.03.64.16,1.23.85,1.58.25.13.49.35.45.69-.63-.33-1.26-.67-1.9-.98-.37-.18-.53-.44-.53-.82.17-.58.6-.62,1.13-.48Z"/>
        <path class="cls-1" d="M257.01,435.72c-.43,0-.86,0-1.29,0-.38,0-.74.05-.99.35-.78.1-1.07.72-1.49,1.21-.14-.08-.16-.21-.17-.34.25-.54.73-.9,1.16-1.3.75-.35,1.53-.52,2.37-.43.23.1.36.28.41.5Z"/>
        <path class="cls-16" d="M239.76,435.03c0,1.03-.15,1.19-1.17,1.32-.48.06-.96.13-1.44.2-.18-.31.14-.33.29-.43.4-.26.92-.38,1.11-.87.1-.02.21-.03.31-.05l.9-.18Z"/>
        <path class="cls-8" d="M256.6,435.22c-.84-.09-1.62.07-2.37.43-.22-.35-.23-.74-.21-1.13.32-.17.65-.16.99-.08.3.07.61.12.92.02.25.24.52.46.67.76Z"/>
        <path class="cls-1" d="M271.21,433.51c-.29.42-.96.46-1.16.98-.36.33-.39.87-.86,1.21-.13-.43-.05-.78.07-1.12.27-.54.77-.89,1.22-1.28.27,0,.55-.05.73.21Z"/>
        <path class="cls-1" d="M265.43,432.15c-.23.45-.9.56-1,1.11-.25.31-.36.71-.73.98-.22-.84.12-1.48,1.19-2.32.23-.02.45-.02.54.24Z"/>
        <path class="cls-8" d="M278.69,433.64c-.27.1-.46-.04-.68-.15-.7-.36-1.41-.71-2.12-1.06-.06-.22.03-.35.27-.31,1.09.15,2.07.47,2.53,1.53Z"/>
        <path class="cls-16" d="M254.92,432.06c.12.02.29.02.31.14.04.21-.15.23-.3.18-.8-.25-1.58-.14-2.36.11-.35.11-.58.45-.98.46.08-.53.42-.83.97-.87.42-.03.76-.23,1.12-.39.45,0,.85.15,1.23.36Z"/>
        <path class="cls-8" d="M238.86,435.21c-.1.02-.21.03-.31.05-.4-.04-.7.15-.97.39-.24.21-.5.3-.82.28.38-1.02,1.2-1.49,2.32-1.58-.2.26-.22.56-.22.87Z"/>
        <path class="cls-15" d="M246.56,431.39c-.36.29-.47.73-.77,1.05-.26-.29-.52-.58-.77-.87.2-.23.3-.54.62-.67.47-.11.7.19.93.49Z"/>
        <path class="cls-1" d="M266.24,434.03c.25-.49.72-.81,1.04-1.25.31.07.63.13.94.2-.51.33-1.14.54-1.34,1.18-.3.13-.24.56-.65.69-.14-.3-.08-.56,0-.82Z"/>
        <path class="cls-1" d="M245.01,431.57c.26.29.52.58.77.87-.06.37.32.7.11,1.1-.37.09-.35-.36-.62-.4-.06-.47-.5-.69-.78-1.01.1-.24.29-.41.52-.55Z"/>
        <path class="cls-1" d="M246.56,431.39c-.23-.3-.46-.59-.93-.49.09-.29.31-.5.5-.73.45.14.8.41,1.11.73.14.15.31.32.17.53-.13.2-.32.02-.49,0-.12-.02-.24-.02-.36-.03Z"/>
        <path class="cls-1" d="M242.82,432.82c.65.19.85.8,1.26,1.21.03.34.07.69-.38.84.07-.45-.27-.73-.5-1.05-.08-.52-.71-.48-.96-.83.14-.21.36-.2.58-.16Z"/>
        <path class="cls-15" d="M236.76,435.93c.32.02.59-.07.82-.28.26-.24.56-.43.97-.39-.19.49-.71.61-1.11.87-.15.1-.47.12-.29.43-.17.06-.35.11-.58.19-.04-.32,0-.58.19-.81Z"/>
        <path class="cls-15" d="M238.86,435.21c0-.3.02-.6.22-.87.65-.02.66,0,.68.68-.3.06-.6.12-.9.18Z"/>
        <path class="cls-1" d="M256.07,431.02c-.09.05-.39,0-.15.22.16.14.16.3.16.47-.25-.09-.39.12-.57.2,0,0,0,0,0,0,.14-.43-.1-.81-.21-1.2l.03-.03c.29.03.54.14.75.33Z"/>
        <path class="cls-5" d="M276.78,427.77c-.47.27-1.02.05-1.51.19-.41-.08-.87.08-1.25-.21.92.09,1.84.12,2.76.02Z"/>
        <path class="cls-3" d="M259.24,428.76c-.05-.07-.13-.12-.16-.2-.04-.13-.18-.31-.03-.38.17-.08.32.06.35.25-.13.07-.13.21-.16.33Z"/>
        <path class="cls-16" d="M258.12,437.31c.08-.07.15-.13.23-.2.27.17.38.41.33.72h0c-.35-.03-.36-.37-.57-.52Z"/>
        <path class="cls-5" d="M274.61,424.29c-.08-.15-.25-.17-.4-.22.08-.04.15-.1.23-.12.14-.04.34-.1.4.03.05.11-.08.25-.23.31Z"/>
        <path class="cls-12" d="M240.44,434.7c.13.11.13.23.06.37-.11-.11-.12-.23-.06-.37Z"/>
        <path class="cls-8" d="M278.91,434c-.21-.04-.27-.17-.22-.36.2.05.19.22.22.36Z"/>
        <path class="cls-16" d="M258.68,437.83s.06.08.09.12c0,.01-.02.03-.02.05-.08-.04-.08-.11-.06-.18,0,0,0,0,0,0Z"/>
        <path class="cls-1" d="M255.29,430.71s-.04-.06-.06-.09c.03.02.06.04.09.06,0,0-.03.03-.03.03Z"/>
        <path class="cls-5" d="M260.14,412.41c-.1-.02-.15-.08-.14-.18.1.02.16.08.14.18Z"/>
        <path class="cls-12" d="M275.89,434.34s.1.08.1.09c-.07.09-.12.04-.16-.03,0,0,.06-.06.06-.06Z"/>
        <path class="cls-8" d="M255.54,437.37c.03-.11.1-.18.22-.2-.03.11-.11.17-.22.2Z"/>
        <path class="cls-12" d="M255.44,432.92l-.04-.06s.05-.06.05-.06c.02.04.01.08,0,.11Z"/>
        <path class="cls-16" d="M256.07,437.86c0,.08-.04.14-.13.16-.02-.09.03-.14.13-.16Z"/>
        <path class="cls-5" d="M239.41,373.42c-.04-.12-.02-.24.04-.35.19.14.17.25-.04.35Z"/>
        <path class="cls-10" d="M216.24,363.17c-.17-.05-.28-.25-.57-.17-.08,1.82-.1,3.69-1.12,5.43-.36-.45-.69-.85-1.01-1.25.21-.04.43-.05.63-.11.63-.18.61-.18.38-.75-.22-.56-.05-1.15.18-1.64.3-.63.45-1.24.41-1.91,0-.11,0-.23.05-.34.08-.22.26-.31.5-.32.28,0,.5.1.54.37.04.22.01.46.02.69Z"/>
        <path class="cls-10" d="M217.61,358.33c.29,1.9.12,3.75-.49,5.65-.39-.25-.66-.51-.88-.82.78-.33.87-.41.66-1.06-.12-.37,0-.69.05-1,.14-.84.06-1.68.07-2.53,0-.47.07-.48.58-.25Z"/>
        <path class="cls-13" d="M194.8,403.2c-.03-.06-.06-.13-.09-.19.13-.45.26-.91.39-1.36.22-.11.43-.15.7-.1.6.11,1.22.21,1.83.18.65-.02,1.22.05,1.73.43.19.14.36.32.64.33,1.25.04,2.39.63,3.63.62.73,0,1.32.48,2.05.43.71-.06,1.19.24,1.43.87,0,.44,0,.87,0,1.31-1.45-.48-2.86-1.06-4.36-1.38-2.01-.43-4.02-.89-6.09-.99-.6-.23-1.23-.14-1.85-.15Z"/>
        <path class="cls-10" d="M207.11,404.41c-.24-.63-.72-.93-1.43-.87-.73.06-1.32-.43-2.05-.43-1.24,0-2.38-.59-3.63-.62-.27,0-.44-.18-.64-.33-.51-.38-1.09-.45-1.73-.43-.61.02-1.23-.07-1.83-.18-.27-.05-.48,0-.7.1.04-.31.09-.62.13-.93.94-.01,1.78-.35,2.57-.79.29-.16.55-.37.9-.39h0c.02.59-.31,1.14-.2,1.74-.09.03-.1.06-.04.08.01,0,.03-.04.05-.07.37-.06.74-.12,1.11-.19,1.21.52,2.42,1,3.8.88.15-.01.34,0,.45.07.75.5,1.63.35,2.47.44.06.2-.2.36-.05.6.5-.07.79-.53,1.27-.64.19.16.07.37.09.56-.29.36-.16.83-.36,1.21-.06.06-.12.12-.18.18Z"/>
        <path class="cls-13" d="M255.96,401.62c.07.51.13,1.01.2,1.56-.6.05-1.21.12-1.82.15-3.27.2-6.41.92-9.46,2-.32.11-.61.28-.97.28-.25-.38-.17-.8-.18-1.21.26,0,.48-.08.72-.16.86-.29,1.52-.94,2.47-1.1.37-.06.67-.39,1.11-.18.17.08.36-.04.53-.12.25-.12.51-.21.8-.19,1.18.07,2.24-.36,3.34-.68,1.03-.3,2.07-.58,3.14-.72.04.12.08.24.12.35Z"/>
        <path class="cls-10" d="M255.84,401.27c-1.08.13-2.12.42-3.14.72-1.1.32-2.15.75-3.34.68-.29-.02-.55.07-.8.19-.17.08-.35.2-.53.12-.44-.21-.74.11-1.11.18-.94.17-1.61.81-2.47,1.1-.24.08-.46.17-.72.16-.17-.21-.13-.52-.37-.7.05-.48-.08-.95-.19-1.47.6.17.79.83,1.41.82.24-.46-.17-.84-.11-1.27.67,0,1.32.32,2,.15,1.05-.26,2.13-.15,3.19-.29.62-.08,1.05-.25,1.34-.73.47.03.99.54,1.34.22.26-.24-.12-.78-.2-1.18-.03-.14-.01-.28-.02-.42h0c.64.12,1.17.48,1.75.74.59.26,1.19.44,1.83.48.13.16.14.34.12.53Z"/>
        <path class="cls-3" d="M270.3,380.2c-.02-.23,0-.44.26-.56.11.18.1.37.07.56-.11,0-.22,0-.33,0Z"/>
        <path class="cls-2" d="M278.85,361.07c.04-.07.09-.07.13,0,.01.02,0,.07,0,.07-.07.01-.11-.02-.11-.09,0,0-.01.02-.01.02Z"/>
        <path class="cls-13" d="M243.37,403.71c.24.18.2.49.37.7,0,.41-.07.83.18,1.21-.5.39-1.21.43-1.7.84-.27.09-.39-.06-.47-.27-.12-.37-.28-.73-.41-1.09-.1-.28-.19-.56-.24-.86.75-.17,1.51-.35,2.26-.52Z"/>
        <path class="cls-13" d="M207.11,404.41c.06-.06.12-.12.18-.18.11.03.26.03.34.1.64.59,1.35.53,2.1.25.09.37-.22.66-.22,1.02-.28.24-.19.66-.53.93-.62-.27-1.25-.54-1.89-.81,0-.44,0-.87,0-1.31Z"/>
        <path class="cls-10" d="M209.73,404.58c-.75.28-1.47.34-2.1-.25-.08-.07-.22-.07-.34-.1.2-.38.07-.85.36-1.21.12.03.24.06.36.08.47.04.86.43,1.29.38.42-.05.72-.5,1.16-.63-.19.6-.37,1.2-.73,1.74Z"/>
        <path class="cls-10" d="M206.34,402.49c-.83-.09-1.71.06-2.47-.44-.11-.07-.3-.09-.45-.07-1.38.12-2.59-.36-3.8-.88.58-.52,1.28-.85,1.95-1.3.23.35,0,.73.2,1.03,1.2-.08,2.82-.83,5.44-2.76.22.8,0,1.55-.19,2.28-.18.73-.45,1.43-.68,2.15Z"/>
        <path class="cls-5" d="M198.7,399.53c.02-.07.05-.15.07-.22.17.12,0,.16-.07.23,0,0,0,0,0,0Z"/>
        <path class="cls-13" d="M251.02,400.92c-.3.49-.73.65-1.34.73-1.06.14-2.15.03-3.19.29-.68.17-1.33-.16-2-.15-.61-1.16-.84-2.38-.73-3.66.3-.08.4.15.55.27,1.26,1,2.64,1.79,4.19,2.33.8.28.83.24.68-.54-.02-.11,0-.22,0-.42.74.29,1.33.66,1.85,1.14Z"/>
        <path class="cls-9" d="M242.06,380.91s-.05.05-.08.07c.02-.03.05-.05.07-.08,0,0,0,0,0,0Z"/>
        <path class="cls-5" d="M252.14,399.53s-.07-.03-.07-.04c.02-.06.04-.04.07.04,0,0,0,0,0,0Z"/>
        <path class="cls-13" d="M186.62,423.85c1.21-1.1,2.45-2.23,3.61-3.29-.21.6-.8,1.22-1.02,1.98.38.28.68.05.97-.07,1.74-.72,3.13-1.83,4.22-3.28.07-.09.11-.21.27-.19.18,3.24-4.93,6.02-8.06,4.85Z"/>
        <path class="cls-5" d="M192.91,412.08c1.13-.29,2.26-.17,3.4-.1,1.95.12,3.7.84,5.48,1.48,1.02.37,1.88,1,2.87,1.4,0,.23,0,.46,0,.69-.03,0-.07,0-.09,0-.9-.43-1.94-.47-2.87-.84-.59-.23-1.19-.48-1.84-.54-.62-.06-1.02-.54-1.6-.66-.24-.05-.44-.23-.7-.21-1.09.07-2.06-.32-3.01-.73-.36-.15-.72-.15-1.09-.15-.26,0-.51-.02-.54-.34Z"/>
        <path class="cls-11" d="M203.27,405.6c1.5.24,2.87.8,4.22,1.42.03.27-.11.5-.21.74-.36.82-.74,1.64-.97,2.5-1.55-.5-3.09-1-4.64-1.5.14-1.02.78-1.9.99-2.91.06-.3.37-.23.6-.26ZM205.73,406.77c-.58.34-1.13.35-1.54.66.3.51.73.17,1.08.15.37-.02.41-.34.46-.81ZM204.64,408.45c-.14,0-.25.04-.28.18-.04.19.08.27.26.28.14,0,.24-.08.23-.21,0-.12-.06-.22-.21-.24ZM205.94,407.62c-.13.05-.16.15-.13.26.02.08.06.16.18.13.13-.04.17-.14.13-.25-.03-.08-.07-.15-.18-.13Z"/>
        <path class="cls-12" d="M210.1,413.98c-.24.24-.52.39-.86.44-.16-.09-.2-.23-.2-.38,0-.58-.37-.95-.82-1.29-1.18-.88-2.59-1.38-3.97-1.87-2.09-.75-4.23-1.33-6.43-1.71-1.81-.31-3.65-.35-5.48-.21-.7.06-1.47.13-1.73.99-.56-.38-.59-.83-.42-1.33.24-.05.49-.08.72-.16,1.01-.32,2.09-.33,3.12-.36.87-.03,1.78.17,2.67.28,2.66.31,5.24.87,7.72,1.82,1.49.58,2.98,1.17,4.33,2.02.66.42,1.34.87,1.35,1.75Z"/>
        <path class="cls-11" d="M190.22,408.09c.3-.85.62-1.69.9-2.54.22-.66.71-.99,1.39-1.13,1.25-.26,2.52-.23,3.78-.1-.51.82-.79,1.73-1.18,2.6-.11.25-.16.49-.12.75-1.62-.17-3.22-.09-4.77.42Z"/>
        <path class="cls-8" d="M203.27,405.6c-.23.03-.54-.03-.6.26-.21,1.01-.85,1.88-.99,2.91-1.44-.28-2.89-.55-4.33-.83,0-.35.11-.68.22-1.01.26-.8.49-1.6.73-2.4,1.72.12,3.37.53,4.98,1.07ZM201.04,407.82c-.53-.31-1.11-.51-1.07-1.15.04-.64.52-.85,1.23-.94-.76-.36-1.3-.27-1.75.19-.37.38-.43.94-.14,1.37.38.55.93.72,1.73.53Z"/>
        <path class="cls-1" d="M197.35,407.94c1.44.28,2.89.55,4.33.83,1.55.5,3.09,1,4.64,1.5,1.11.61,2.22,1.21,3.33,1.82.33.34.66.68.98,1.02-.15.31-.24.65-.53.88,0-.88-.69-1.33-1.35-1.75-1.34-.85-2.83-1.44-4.33-2.02-2.48-.96-5.06-1.51-7.72-1.82-.89-.11-1.8-.31-2.67-.28-1.03.04-2.11.05-3.12.36-.23.07-.48.1-.72.16-.05-.18-.14-.37.04-.54,1.55-.51,3.15-.59,4.77-.42.35.01.71.03,1.06.04.43.08.86.16,1.29.23Z"/>
        <path class="cls-12" d="M209.64,412.08c-1.11-.61-2.22-1.21-3.33-1.82.23-.86.61-1.68.97-2.5.1-.24.23-.47.21-.74,1.25.47,2.43,1.03,3.36,1.99-.21,1.09-.66,2.1-1.2,3.07ZM210.05,409.52c.05-.36-.13-.56-.29-.77-.08-.1-.26-.16-.32-.08-.35.56-.83.27-1.28.13-.3.66.01,1.22.15,1.79.02.07.11.14.19.18.11.05.24.08.34-.02.07-.06.06-.15.02-.23-.1-.17-.36-.44-.22-.51.31-.16.36-.5.67-.64.3-.14.45.12.73.14Z"/>
        <path class="cls-6" d="M196.05,407.71c-.35-.01-.71-.03-1.06-.04-.04-.26.01-.51.12-.75.39-.87.67-1.78,1.18-2.6.43-.03.84.06,1.25.13-.44.46-.41,1.16-.94,1.57-.15-.13-.29-.31-.54-.18-.12.06-.18.16-.13.28.1.24.32.22.54.18.18.15.11.3.03.47-.15.31-.29.64-.44.95Z"/>
        <path class="cls-11" d="M196.6,406.01c.53-.41.5-1.11.94-1.57.26-.04.51-.04.74.09-.24.8-.47,1.61-.73,2.4-.11.33-.21.66-.22,1.01-.43-.08-.86-.16-1.29-.23.14-.32.28-.64.44-.95.08-.17.15-.32-.03-.47.05-.09.09-.19.14-.28Z"/>
        <path class="cls-11" d="M209.64,412.08c.54-.98.99-1.99,1.2-3.07.69.46.87,1.04.57,1.8-.3.75-.53,1.52-.79,2.29-.33-.34-.66-.68-.98-1.02Z"/>
        <path class="cls-13" d="M194.8,403.2c.62.01,1.25-.08,1.85.15-.62-.02-1.25.15-1.85-.15Z"/>
        <path class="cls-15" d="M196.63,435.56c.08-.34.26-.67.19-1.04.75.08,1.37.37,1.73,1.03-.04.6-.23,1.12-.88,1.38-.16-.58-.57-1-1.05-1.37Z"/>
        <path class="cls-11" d="M183.78,433.96c.26.27.52.54.8.83.2-.28.09-.53.05-.77.67-.06,1.28-.36,1.96-.38.31.17.31.61.71.71.06.06.12.12.18.18-.51.4-1.14.53-1.76.69-.74.19-1.49.36-2.18.68-.58-.24-1.12-.6-1.77-.68-.02-.18-.04-.36-.06-.53.66-.3,1.46-.26,2.06-.72Z"/>
        <path class="cls-15" d="M187.49,434.53c-.06-.06-.12-.12-.18-.18-.01-.34-.02-.68-.03-1.03.57-.41,1.24-.53,1.94-.55.16.1.25.24.32.41.22.57.23.6-.38.83-.54.2-1.1.35-1.66.52Z"/>
        <path class="cls-8" d="M189.21,432.77c-.7.02-1.37.14-1.94.55-.25-.35-.5-.7-.76-1.04-.12-.15-.15-.3-.06-.47.15,0,.31.02.46.02.26.41.6.28.94.12.64,0,1.14.21,1.36.81Z"/>
        <path class="cls-15" d="M190.29,433.62c-.19-.23-.14-.41-.18-.58-.04-.16-.08-.33-.11-.46.1-.15.24-.15.34-.1.31.16.84.18.81.58-.02.37-.51.41-.87.57Z"/>
        <path class="cls-15" d="M187.85,431.96c-.34.17-.68.29-.94-.12.33-.1.67-.21.94.12Z"/>
        <path class="cls-12" d="M195.68,432.41c.16-.19.37-.18.59-.15-.15.2-.37.19-.59.15Z"/>
        <path class="cls-13" d="M261.86,422.69c-.38-.84-1.07-1.53-1.23-2.48,1.26,1.25,2.52,2.47,3.99,3.56-2.89,1.18-8.21-.9-8.51-4.76.26-.04.39.15.49.29.54.76,1.24,1.38,1.96,1.96.94.76,2,1.35,3.3,1.44.03.08.05.1.07.04,0,0-.05-.02-.07-.04Z"/>
        <path class="cls-11" d="M243.52,407c1.28-.61,2.6-1.14,4.03-1.39.37-.06.49.34.8.38.04.4.12.79.31,1.17.27.52.48,1.06.71,1.59-1.45.46-2.95.79-4.32,1.44-.42-.04-.53-.33-.63-.65-.29-.85-.6-1.7-.89-2.55ZM246.78,407.39c-.57-.08-1.02-.46-1.63-.51.32.86.76,1.01,1.63.51ZM246.32,408.44c-.15,0-.27.08-.28.23,0,.16.12.24.29.25.17,0,.31-.05.31-.22,0-.15-.11-.25-.32-.27ZM245.05,407.63c-.17-.01-.18.11-.2.21-.02.11.01.24.12.28.13.05.22-.04.23-.16.02-.13.02-.28-.16-.33Z"/>
        <path class="cls-12" d="M260.79,408.93c-.01.29,0,.59-.33.83-.73-.72-1.69-.83-2.7-.85-3.92-.09-7.65.69-11.26,2.05-.98.37-1.94.79-2.87,1.25-.82.41-1.65.85-1.76,1.87-.03.29-.27.28-.49.23-.37-.08-.49-.32-.48-.65.41-.74,1.04-1.27,1.79-1.72,1.34-.81,2.8-1.33,4.29-1.85,3.58-1.26,7.23-2.01,11.08-1.87.99.04,1.89.24,2.73.71Z"/>
        <path class="cls-11" d="M256.8,404.26c.25,0,.49,0,.74,0,1.35.09,2.26.65,2.54,1.97.14.67.5,1.3.61,1.98-.49-.36-1.07-.41-1.66-.51-1.05-.17-2.1-.01-3.16-.03.05-.48-.19-.9-.36-1.33-.18-.46-.37-.92-.52-1.39-.11-.35.02-.54.45-.57.45-.03.93.14,1.36-.14Z"/>
        <path class="cls-12" d="M243.52,407c.3.85.61,1.7.89,2.55.11.32.21.61.63.65-.51.25-1.03.51-1.54.76-.81.39-1.69.69-2.36,1.3-.02-.38-.2-.73-.32-1.08-.25-.74-.57-1.47-.64-2.25.39-.55.99-.86,1.58-1.16.57-.28,1.13-.6,1.76-.76ZM242.89,408.83c-.4.03-.6.39-1.02.2-.67-.32-.69-.28-.92.66.36-.46.66-.37.99-.26.5.16.6.32.37.73-.11.19-.4.29-.35.58.66,0,.81-.31.93-1.9Z"/>
        <path class="cls-1" d="M241.15,412.25c.68-.61,1.55-.91,2.36-1.3.52-.25,1.03-.5,1.54-.76,1.37-.66,2.88-.98,4.32-1.44,1.36-.27,2.73-.55,4.09-.82.06,0,.12-.01.18-.02.44-.05.89.01,1.32-.16.3-.02.61-.05.91-.07,1.05.01,2.1-.15,3.16.03.58.1,1.17.15,1.66.51.28.21.28.45.09.72-.84-.47-1.74-.67-2.73-.71-3.85-.14-7.5.61-11.08,1.87-1.48.52-2.95,1.05-4.29,1.85-.75.45-1.38.98-1.79,1.72-.26-.06-.36-.23-.36-.46-.03-.44.4-.64.61-.94Z"/>
        <path class="cls-8" d="M253.65,407.91c-.06,0-.12.01-.18.02-.37-.6-.75-1.2-1.66-1.08-.04-.2-.04-.41-.11-.59-.29-.7-1.08-.91-1.81-.51.13.06.27.12.4.18-.39.36-.79.5-1.23.06-.22-.22-.47-.24-.7,0-.31-.05-.43-.44-.8-.38,1.61-.56,3.27-.92,4.98-1.08.1.5.25.98.44,1.46.26.63.65,1.22.68,1.92Z"/>
        <path class="cls-8" d="M255.88,407.68c-.3.02-.61.05-.91.07-.41-.42-.58-.93-.56-1.49.25.09.56.1.57-.19.01-.28-.28-.31-.55-.24-.36-.01-.56-.23-.67-.52-.12-.3-.22-.6-.33-.9,1.11-.27,2.24-.2,3.37-.16-.42.28-.9.11-1.36.14-.43.03-.56.22-.45.57.15.47.34.93.52,1.39.17.43.42.84.36,1.33Z"/>
        <path class="cls-11" d="M253.43,404.42c.11.3.21.6.33.9.12.29.31.5.67.52,0,.14-.02.28-.02.43-.02.56.15,1.07.56,1.49-.42.18-.88.12-1.32.16-.02-.7-.42-1.29-.68-1.92-.19-.48-.34-.96-.44-1.46.28-.15.59-.13.89-.12Z"/>
        <path class="cls-11" d="M241.15,412.25c-.21.31-.64.5-.61.94-.28-.1-.3-.34-.37-.56-.19-.61-.33-1.24-.58-1.83-.34-.8-.12-1.4.59-1.89.07.79.39,1.51.64,2.25.12.36.3.7.32,1.08Z"/>
        <path class="cls-7" d="M259.25,410.67c-.09-.1-.17-.2-.16-.34.05.11.11.23.16.34Z"/>
        <path class="cls-7" d="M259.05,410.21c-.07-.08-.13-.15-.2-.23.07.08.13.15.2.23Z"/>
        <path class="cls-15" d="M254.02,434.51c-.02.39,0,.78.21,1.13-.42.4-.91.76-1.16,1.3-.57-.29-.76-.81-.89-1.35.53-.49,1.05-.99,1.84-1.08Z"/>
        <path class="cls-16" d="M251.58,432.97c0,.1-.08.15-.17.19.01-.1.07-.16.17-.19Z"/>
        <path class="cls-15" d="M260.88,432.49c-.08.4-.15.74-.22,1.13-.42-.14-.92-.12-.99-.64-.04-.3.43-.49,1.21-.49Z"/>
        <path class="cls-10" d="M198.52,401.28s-.04.07-.05.07c-.07-.01-.05-.05.04-.08,0,0,.01.01.01.01Z"/>
        <path class="cls-1" d="M205.73,406.77c-.05.47-.09.79-.46.81-.35.02-.78.36-1.08-.15.41-.32.96-.32,1.54-.66Z"/>
        <path class="cls-1" d="M204.64,408.45c.15.02.21.12.21.24,0,.13-.09.22-.23.21-.17,0-.3-.09-.26-.28.03-.13.14-.18.28-.18Z"/>
        <path class="cls-12" d="M205.94,407.62c.11-.02.16.05.18.13.04.12,0,.21-.13.25-.11.04-.16-.05-.18-.13-.03-.11,0-.21.13-.26Z"/>
        <path class="cls-1" d="M201.04,407.82c-.8.19-1.35.02-1.73-.53-.29-.43-.23-.98.14-1.37.45-.47.99-.56,1.75-.19-.71.09-1.19.3-1.23.94-.04.64.54.84,1.07,1.15Z"/>
        <path class="cls-1" d="M210.05,409.52c-.28-.03-.43-.28-.73-.14-.31.14-.36.48-.67.64-.14.07.11.34.22.51.05.08.06.17-.02.23-.1.09-.24.07-.34.02-.08-.04-.17-.11-.19-.18-.14-.57-.44-1.13-.15-1.79.45.14.93.43,1.28-.13.05-.09.24-.02.32.08.16.21.33.41.29.77Z"/>
        <path class="cls-1" d="M196.6,406.01c-.05.09-.09.19-.14.28-.22.04-.43.06-.54-.18-.05-.12.01-.22.13-.28.25-.13.39.05.54.18Z"/>
        <path class="cls-13" d="M261.86,422.69s.07.03.07.04c-.01.05-.04.04-.07-.04,0,0,0,0,0,0Z"/>
        <path class="cls-6" d="M248.35,405.99c.23-.25.49-.23.7,0,.45.44.84.31,1.23-.06.42.08.62.36.68.73.1.64-.51.86-.99,1.21,1.17.09,1.41-.06,1.83-1.01.91-.12,1.29.47,1.66,1.08-1.36.27-2.73.55-4.09.82-.23-.53-.45-1.07-.71-1.59-.19-.38-.27-.76-.31-1.17Z"/>
        <path class="cls-1" d="M246.78,407.39c-.87.5-1.31.35-1.63-.51.61.05,1.06.43,1.63.51Z"/>
        <path class="cls-1" d="M246.32,408.44c.2.02.31.12.32.27,0,.17-.14.23-.31.22-.17,0-.3-.09-.29-.25,0-.15.13-.24.28-.23Z"/>
        <path class="cls-12" d="M245.05,407.63c.18.06.17.2.16.33-.01.13-.11.21-.23.16-.11-.04-.15-.17-.12-.28.02-.1.03-.22.2-.21Z"/>
        <path class="cls-1" d="M242.89,408.83c-.11,1.6-.26,1.89-.93,1.9-.05-.28.24-.38.35-.58.23-.41.13-.57-.37-.73-.33-.1-.63-.19-.99.26.22-.94.24-.98.92-.66.41.19.62-.17,1.02-.2Z"/>
        <path class="cls-1" d="M251.81,406.85c-.42.95-.66,1.09-1.83,1.01.48-.35,1.09-.57.99-1.21-.06-.36-.26-.64-.68-.73-.14-.06-.27-.12-.4-.18.73-.4,1.52-.19,1.81.51.08.18.08.4.11.59Z"/>
        <path class="cls-1" d="M254.41,406.26c0-.14.02-.29.02-.43.26-.07.56-.04.55.24-.02.29-.32.27-.57.19Z"/>
      </g>
    </g>
  </g>
  <path class="cls-13" d="M241.39,405.22l2.35-.81-2.35.81Z"/>
  <polygon class="cls-10" points="243.79 404.41 241.34 405.09 241.11 404.24 243.42 403.71 243.79 404.41"/>
</svg>