<?xml version="1.0" encoding="UTF-8"?>
<svg id="GRIFOS" xmlns="http://www.w3.org/2000/svg" viewBox="0 0 455.05 452.32">
  <defs>
    <style>
      .cls-1 {
        fill: #f1e3ba;
      }

      .cls-1, .cls-2, .cls-3, .cls-4, .cls-5, .cls-6, .cls-7 {
        stroke-width: 0px;
      }

      .cls-2 {
        fill: #231c19;
      }

      .cls-3 {
        fill: #7e4326;
      }

      .cls-4 {
        fill: #261d19;
      }

      .cls-5 {
        fill: #be5a26;
      }

      .cls-6 {
        fill: #e88b3c;
      }

      .cls-7 {
        fill: #cba97d;
      }
    </style>
  </defs>
  <g id="Legs">
    <g id="L2">
      <path class="cls-2" d="M219.36,357.89c1.23-.24,1.73.15,1.56,1.31-.19,1.24-.56,2.44-1.3,3.47-.44.62-.64,1.27-.71,2.03-.11,1.17-.26,2.39-1.5,3.04-.53.28-.23.7-.13,1.04,1.36,4.43,2.8,8.84,5.08,12.91.14.25.25.51.4.74,1.99,3,1.43,6.02.06,9.04-.14.31-.27.62-.45.91-4.89,7.92-7.92,16.59-10.35,25.51-.13.49-.23.99-.34,1.49-.65,3.05.11,4.81,2.77,6.42,1.35.82,2.71,1.63,4.04,2.47,1.08.68,1.96,1.52,2.26,2.84.12.52.11,1-.07,1.5-.17.45-.47.63-.93.48-.32-.11-.63-.25-.92-.42-.74-.43-1.42-.45-2.25-.1-2.07.87-3.28.44-4.65-1.44-.27-.37-.52-.75-.84-1.07-.67-.67-1.16-.53-1.47.39-.09.27-.13.55-.16.83-.13,1.32-.72,2.41-1.79,3.15-1.75,1.2-2.62,2.85-3.02,4.89-.39,1.98-1.49,3.56-3.34,4.46-.97.47-1.44,1.2-1.76,2.14-.27.8-.51,1.9-1.47,1.87-1.03-.04-1.21-1.23-1.51-2.05-.26-.68-.4-1.44-.26-2.18.19-.96.2-1.91.11-2.87-.14-1.44.73-2.45,1.55-3.46.81-1,1.73-1.92,2.31-3.24-1.35-.2-2.47.21-3.47.77-2.56,1.43-5.19,2.44-8.19,2.43-1.19,0-2.26.67-3.24,1.35-.65.45-1.3.91-1.95,1.35-1.44.98-3.02,1.29-4.69.75-.8-.26-1.42-.11-2.03.43-.46.41-.96.81-1.49,1.12-1.2.69-1.87.31-1.82-1.04.07-1.95.76-3.68,2.32-4.91,1.79-1.41,3.73-2.49,6.03-2.95,2.3-.46,4.55-1.17,6.78-2.24-1.15-.25-2.14-.09-3.18.23-1.76.54-3.52.77-5.16-.51-.74-.58-1.65-.18-2.47-.04-.54.09-1.12.54-1.53-.11-.36-.57-.19-1.18.15-1.76.69-1.19,1.68-1.96,3-2.34,1.13-.33,2.28-.64,3.39-1.02,1.34-.47,2.67-.35,4.03-.13,1.96.31,3.91.63,5.9.54,2.11-.1,4.14-.52,6.06-1.41,1.2-.56,1.88-1.6,2.49-2.69,3.25-5.85,5.9-11.96,7.92-18.33,1.13-3.55,2.45-7.05,3.43-10.65.18-.68.2-1.3.07-1.99-.36-1.91-.45-3.83.12-5.72.14-.46.1-.88-.04-1.33-1.42-4.66-3.43-9.09-5.4-13.53-.15-.33-.28-.66-.86-.56-1.02.18-1.77-.48-2.25-1.25-1.49-2.36-3.48-4.31-5.2-6.48-1.95-2.46-3.32-5.25-4.26-8.25-.05-.16-.13-.32-.17-.48-.32-1.34-.05-1.59,1.49-1.42.28.74.52,1.5.85,2.21,1.54,3.28,3.1,6.56,5.74,9.15.74.72,1.35,1.5,1.85,2.4.48.85.95,1.76,1.98,2.34.36-.88.39-1.75.84-2.46.56.03.76.5,1.09.78.91.78,1.82,1.53,2.94,1.98,1.28.52,1.54.35,1.89-.96.2-.75.09-1.6.65-2.25.55.28,1.09.58,1.65.82.98.42,1.28.24,1.5-.82.09-.44.12-.88,0-1.33-.11-.41-.01-.77.29-1.08,1.25-1.32,1.73-2.97,2.04-4.69ZM175.44,439.84c.41-.18.87-.29,1.14-.7.1,0,.17-.04.2-.14.2-.07.41-.14.61-.21.48-.03.95-.05,1.43-.08,1.26.76,2.48.59,3.66-.17.62-.4,1.23-.8,1.82-1.23,1.49-1.1,3.16-1.75,5.02-1.78,1.5-.02,2.89-.45,4.24-1.03,1.04-.44,2.07-.89,3.08-1.39,1.14-.56,2.31-.93,3.58-.79.98.11,1.42-.37,1.72-1.22.33-.95.45-1.98,1.06-2.81.51,1.41.08,2.78-.26,4.14-.55,2.2-1.81,4.03-3.32,5.64-1.94,2.08-1.34,4.54-1.4,6.96.83-1.32,1.47-2.7,3.18-3.08.37-.08.66-.59.94-.94.68-.87,1.07-1.87,1.18-2.96.19-1.87,1.07-3.3,2.61-4.37,1.15-.81,1.97-1.85,2.13-3.32.05-.44.22-.88.37-1.3.3-.89.96-1.18,1.86-1.12.85.05,1.52.42,2.06,1.05.41.47.74,1,1.16,1.46.51.57,1.2,1.17,1.91.76,1.01-.58,2.08-.58,3.13-.58.05-.43-.14-.59-.33-.67-1.18-.53-2.23-1.31-3.38-1.89-1.47-.74-2.55-1.83-3.64-3-1.51-1.63-1.74-3.49-1.26-5.54,2.32-9.85,5.58-19.34,10.82-28.08,1.76-2.93,2.18-5.97.05-9.08-1.24-1.81-2.15-3.85-2.87-5.95-.86-2.52-1.68-5.05-2.32-7.63-.12-.47-.17-.96-.63-1.21-.36.21-.37.52-.48.77-.82,1.71-1.41,1.99-3.23,1.39-.85-.28-1.66-.67-2.5-1-.03-.11-.03-.35-.2-.09-.05.07.09.15.2.09.08.98.63,1.78.99,2.66,1.61,3.97,3.46,7.85,4.62,12,.22.79.27,1.55.04,2.33-.48,1.61-.51,3.23-.08,4.85.24.92.15,1.77-.13,2.66-.42,1.35-.78,2.71-1.17,4.07-.17.55-.33,1.1-.5,1.64-.22.58-.45,1.16-.65,1.75-1.06,3.1-2.12,6.2-3.15,9.31-.41,1.23-1.17,2.33-1.37,3.64-.36.23-.48.59-.59.97-.58,1.12-1.22,2.22-1.53,3.46-.27.21-.28.53-.36.83-.65.9-1.2,1.86-1.56,2.93-.21.32-.42.63-.63.95-1.66,2.77-4.24,4.01-7.32,4.44-.54.08-1.14-.04-1.59.4-.23.01-.45.03-.68.04-.81-.13-1.62-.11-2.43-.03-.21,0-.43,0-.64,0-1.02-.34-2.07-.48-3.14-.42-.14-.11-.29-.14-.45-.04-.36-.35-.83-.31-1.27-.36-2.17-.24-4.01.96-6.02,1.39-.24.05-.48.29-.48.66.72.07,1.43.13,2.15.2.93,1.35,2.36,1.21,3.53.81,2.31-.79,4.6-.57,6.86-.16,2.1.38,3.54-.57,4.99-1.76.89.19,1.55-.87,2.58-.57-.43.66-1.01.92-1.5,1.28-1.75,1.3-3.64,2.38-5.59,3.35-.27-.03-.49.03-.64.28-.78.23-1.67.25-2.19,1.02l-.54.06c-.22,0-.46-.05-.66.02-1.8.64-3.69.92-5.53,1.42-2.16.59-4.23,1.49-5.79,3.22-.51.5-1.08.97-.93,1.81-.04.02-.07.04-.11.06.03-.03.06-.06.09-.09Z"/>
      <path class="cls-2" d="M259.41,348.65c.92-.86,1.44-.79,1.73.32.48,1.88.45,3.82.48,5.74.04,2.29-.49,4.5-.86,6.73-.18,1.06-.35,2.12-.57,3.17-.23,1.13-.63,2.2-1.62,2.89-.58.41-.57.89-.48,1.49.58,3.86,1.36,7.69,2.33,11.47.28,1.08.74,2.16,1.32,3.12,2.22,3.65,2.5,7.57,1.74,11.65-.19,1.02-.25,2.03-.19,3.04.36,6.68.77,13.35,1.66,19.98.48,3.61,1.62,7.06,3.06,10.38.7,1.62,2.12,2.79,3.41,3.98,1.29,1.18,2.61,2.27,4.38,2.79,1.62.47,2.86,1.56,3.55,3.19.17.41.5.75.76,1.12,1.04,1.46,1.28,3.11,1.14,4.85-.04.47-.16.92-.66,1.08-.54.17-1,.02-1.32-.48-.21-.34-.44-.66-.66-.99-.44-.66-1.02-1.02-1.85-.92-1.8.21-3.08-.71-3.98-2.11-.59-.92-1.36-1.47-2.31-1.89-1.25-.55-2.36-1.31-3.39-2.22-1.09-.96-1.67-.77-1.99.63-.38,1.67-.43,3.38-.04,5.06.4,1.7.34,3.26-1.01,4.56-.4.38-.45.9-.62,1.37-.39,1.07-.8,2.13-1.47,3.05-.61.83-1.19.85-1.71-.05-.45-.77-.74-1.65-1.04-2.5-.35-1.01-.63-2.01-1.24-2.94-.73-1.11-.56-2.38-.03-3.58.72-1.65.82-3.4.81-5.16,0-1.06-.54-1.38-1.56-1.08-.16.05-.34.09-.47.19-2.07,1.53-4.43,2.46-6.78,3.43-.8.33-1.61.76-2.43.61-1.43-.27-2.53.27-3.63,1.01-.54.36-1.09,1.03-1.81.54-.66-.46-.34-1.24-.31-1.9.03-.69.3-1.31.61-1.92.85-1.64,2.31-2.76,3.51-4.09.72-.79,1.87-.78,2.88-.78.91,0,1.64-.26,2.34-.79,1.3-.99,2.9-1.54,4.02-2.78-1.08-1.84-.98-2.6.51-4.17.35-.37.72-.73,1.05-1.11.74-.83,1.09-1.77,1.09-2.93,0-5.45-.53-10.86-1.25-16.25-.21-1.57-.49-3.13-.78-4.69-.32-1.67-.67-3.34-1.56-4.82-1.77-2.94-2.33-6.13-1.83-9.47.27-1.79.07-3.49-.35-5.2-.74-3.08-1.65-6.11-2.75-9.08-.25-.68-.49-1.14-1.42-1.04-1.32.15-2.03-.95-2.64-1.84-.79-1.16-1.75-2.02-2.9-2.79-3.3-2.19-5.63-5.2-7.24-8.79-.07-.15-.11-.32-.18-.48-.2-.48-.36-.93.05-1.42.54-.64.89.14,1.33.12.14.31.28.61.43.92,1.48,2.97,3.37,5.66,6.13,7.55,1.52,1.05,2.87,2.14,3.77,3.77.31.56.77,1.11,1.47,1.17.75-.92.34-2.11.72-3.06.5.11.62.38.8.59.84,1,1.7,1.97,2.9,2.56,1.19.58,1.72.41,2.32-.77.49-.98.52-2.07.6-3.14.03-.39-.22-.91.34-1.15.5.19.59.68.86,1.03.23.3.36.77.87.62.41-.13.54-.51.68-.9.32-.92.31-1.89.5-2.83.92-4.51,1.36-9.04.76-13.63ZM271.83,435.4c-.46-.57-.94-1.11-1.76-1.12.05-.26,0-.46-.27-.58-.23-.31-.43-.66-.7-.93-1.57-1.61-2.87-3.39-3.57-5.56-.11-.3-.22-.6-.33-.9-.4-1.09-.8-2.17-1.2-3.26-.05-.3-.11-.61-.16-.91-.5-3.54-.98-7.09-1.29-10.65-.27-3.02-.53-6.05-.79-9.07.06-.35.11-.69-.07-1.03-.25-2.89.01-5.75.34-8.62.26-2.28.12-4.59-1.05-6.6-2.27-3.9-3.22-8.16-3.9-12.54-.21-1.34-.3-2.72-.8-4.07-2.14,2.03-2.39,2.06-5.13.82-.1-.04-.22-.03-.33-.04-.09-.17-.15-.49-.38-.33-.19.13-.05.38.18.48.69,2.21,1.31,4.44,2.1,6.62,1.2,3.3,1.74,6.65,1.32,10.16-.32,2.65.23,5.18,1.55,7.52.65,1.14,1.07,2.36,1.39,3.63,1.12,4.51,1.76,9.1,2.07,13.73.23,3.5.59,6.99.39,10.51-.21,3.68-1.01,7.07-4.27,9.36-.69.49-1.3,1.12-2.05,1.5-1.47.74-2.79,1.96-4.67,1.57-.63-.13-1.34.02-1.72.53-.88,1.17-2.16,2-2.77,3.38-.17.08-.33.27-.25.37.18.21.4.11.55-.1.63-.02,1.2-.58,1.8-.36,1.32.47,2.45-.12,3.59-.55,1.91-.72,3.73-1.61,5.45-2.72.79-.51,1.59-1.12,2.62-1.08.5.02,1.01.39,1.48.12.48-.28.13-.99.54-1.36.06-.06.19-.04.39-.08.31,3.15.78,6.29-.46,9.36-.48,1.18-.89,2.35.22,3.46.21.21.18.64.28.96.29.95.43,1.95.93,2.96.71-.67.78-1.55,1.13-2.29.21-.46.23-1.12.57-1.38,1.26-.97.99-2.23.72-3.41-.33-1.46-.35-2.91-.19-4.37.03-.02.09-.05.1-.07,0-.07-.01-.15-.02-.23.03-.24.05-.48.08-.72.02-.11.03-.22.05-.33.19-1.1.12-2.23.47-3.3.46.87.99,1.47,2.17,1.24.78-.15,1.52.4,2.11.92.9.79,1.91,1.41,2.97,1.91,1.05.49,1.87,1.16,2.54,2.11.99,1.4,2.3,2.15,4.08,1.51.55.3,1.09.6,1.96,1.08-.74-1.96-1.91-3.27-2.76-4.74-.15-.25-.56-.36-.87-.5-.46-.2-.94-.37-1.41-.56-.26-.12-.52-.18-.79-.06-.48-.6-1.14-.9-1.86-1.08-.02-.17-.12-.25-.29-.28ZM257.7,425.89c-.63.73-1.33,1.1-1.58,1.88-.07.21-.02.46.19.59.22.14.43.03.55-.18.39-.63,1-1.17.84-2.29Z"/>
      <path class="cls-1" d="M259.41,348.65c.6,4.59.16,9.13-.76,13.63-.19.94-.19,1.91-.5,2.83-.14.39-.26.77-.68.9-.51.16-.65-.32-.87-.62-.27-.35-.36-.84-.86-1.03-.56.24-.31.76-.34,1.15-.08,1.07-.1,2.16-.6,3.14-.59,1.18-1.13,1.35-2.32.77-1.2-.58-2.07-1.55-2.9-2.56-.18-.21-.3-.48-.8-.59-.38.95.03,2.13-.72,3.06-.71-.07-1.16-.61-1.47-1.17-.91-1.63-2.25-2.72-3.77-3.77-2.75-1.89-4.64-4.58-6.13-7.55-.15-.3-.28-.61-.43-.92.3-.45.76-.41,1.22-.44,6.16-.38,12.02-1.95,17.64-4.48,1.49-.67,2.71-1.85,4.29-2.37Z"/>
      <path class="cls-1" d="M213.88,364.99c-.56.65-.45,1.49-.65,2.25-.35,1.32-.61,1.48-1.89.96-1.12-.45-2.04-1.2-2.94-1.98-.33-.28-.52-.75-1.09-.78-.45.71-.47,1.58-.84,2.46-1.03-.58-1.5-1.48-1.98-2.34-.5-.9-1.12-1.68-1.85-2.4-2.64-2.59-4.19-5.87-5.74-9.15-.34-.71-.57-1.47-.85-2.21.73-.1,1.28.37,1.9.6,4.08,1.57,8.34,2.56,12.53,3.77.86,3.04,2.11,5.93,3.39,8.81Z"/>
      <path class="cls-7" d="M213.88,364.99c-1.28-2.88-2.53-5.77-3.39-8.81,2.59.55,5.21.93,7.83,1.29.38.05.81,0,1.04.42-.32,1.72-.8,3.38-2.04,4.69-.3.31-.4.68-.29,1.08.12.45.1.89,0,1.33-.23,1.06-.52,1.24-1.5.82-.56-.24-1.1-.54-1.65-.82Z"/>
      <path class="cls-6" d="M191.73,432.03c1.95-.97,3.84-2.05,5.59-3.35.49-.36,1.06-.62,1.5-1.28-1.03-.3-1.69.76-2.58.57-.8-.21-1.65-.03-2.44-.35.45-.44,1.05-.32,1.59-.4,3.08-.43,5.66-1.67,7.31-4.44.84-.03,1.49.49,2.21.8.31.13.7.38.92.03.28-.45-.18-.74-.49-.92-.62-.38-1.27-.75-2.02-.85.36-1.06.91-2.02,1.56-2.92.71.34,1.44.6,2.26.49.24-.03.45-.13.44-.39,0-.14-.13-.34-.25-.4-.66-.31-1.33-.57-2.08-.53.32-1.24.95-2.34,1.53-3.46.33.03.67.03,1,.09.5.09,1.21.63,1.42-.08.19-.63-.69-.72-1.17-.92-.19-.08-.44-.04-.66-.06.2-1.31.96-2.41,1.37-3.64,1.04-3.11,2.09-6.21,3.15-9.31.2-.59.43-1.17.65-1.75.61.01,1.22.04,1.83.03.26,0,.61.08.7-.27.1-.41-.26-.55-.54-.72-.47-.29-1.1-.24-1.49-.69.39-1.36.75-2.72,1.17-4.07.28-.89.37-1.74.13-2.66-.43-1.62-.39-3.24.08-4.85.23-.78.18-1.54-.04-2.33-1.16-4.15-3.01-8.03-4.62-12-.35-.87-.9-1.68-.99-2.66h0c.83.34,1.65.73,2.5,1.01,1.82.6,2.41.32,3.23-1.39.12-.25.12-.56.48-.77.46.24.52.73.63,1.21.65,2.58,1.47,5.11,2.32,7.63.72,2.1,1.63,4.14,2.87,5.95,2.13,3.11,1.71,6.15-.05,9.08-5.25,8.74-8.51,18.22-10.82,28.08-.48,2.04-.24,3.91,1.26,5.54,1.08,1.17,2.17,2.26,3.64,3,1.14.57,2.2,1.35,3.38,1.89.19.09.39.24.33.67-1.05,0-2.12,0-3.13.58-.71.41-1.4-.19-1.91-.76-.41-.46-.75-.99-1.16-1.46-.54-.62-1.2-1-2.06-1.05-.9-.05-1.56.23-1.86,1.12-.14.43-.32.86-.37,1.3-.16,1.47-.98,2.51-2.13,3.32-1.53,1.07-2.42,2.5-2.61,4.37-.11,1.09-.5,2.09-1.18,2.96-.28.35-.58.86-.94.94-1.71.38-2.35,1.76-3.18,3.08.06-2.42-.54-4.88,1.4-6.96,1.51-1.62,2.77-3.44,3.32-5.64.34-1.36.76-2.72.26-4.14-.18-.34-.45-.33-.68-.11-.5.46-.96.95-1.45,1.43-1.52,1.5-3.3,2-5.37,1.39-.05-.15-.1-.18-.12-.08,0,.02.08.05.12.07.26,1.34-.88,1.38-1.65,1.72-1.26.57-1.27.54-2.13-.68ZM219.05,390.09c1.99-1.91,1.95-4.26,0-6.04.12,1.07.77,1.91.91,2.92.16,1.1-.73,1.85-.91,3.11Z"/>
      <path class="cls-5" d="M191.73,432.03c.86,1.22.88,1.25,2.13.68.76-.35,1.91-.38,1.65-1.72h0c2.07.63,3.85.12,5.37-1.38.48-.48.95-.97,1.45-1.43.23-.22.5-.23.68.11-.61.84-.73,1.87-1.06,2.82-.3.85-.73,1.33-1.72,1.22-1.27-.14-2.45.23-3.58.79-1.01.5-2.04.95-3.08,1.39-1.35.58-2.74,1-4.24,1.03-1.86.03-3.52.68-5.02,1.78-.59.43-1.2.84-1.82,1.23-1.18.76-2.4.93-3.66.17.07-.47.47-.61.83-.74,2.65-.93,5.14-2.22,7.75-3.25.63-.25,1.1-.55.97-1.33.18-.02.36-.04.54-.06.16.14.31.3.49.42.42.28,2.03.13,2.25-.26.33-.59-.16-.89-.55-1.19.15-.24.37-.31.64-.28Z"/>
      <path class="cls-5" d="M193.8,427.62c.78.32,1.64.14,2.44.35-1.45,1.19-2.89,2.14-4.99,1.76-2.26-.41-4.55-.64-6.86.16-1.17.4-2.61.54-3.53-.81.15-.94.87-1.08,1.63-1.1.9-.03,1.79-.03,2.69,0,.64.03,1.09-.18,1.3-.8.16-.1.31-.06.45.04-.02.9.52,1.26,1.32,1.37.83.12,1.54,0,1.82-.95.21,0,.43,0,.64,0,.06.48.35.67.81.67.63,0,1.27.05,1.61-.64.23-.01.45-.03.68-.04Z"/>
      <path class="cls-6" d="M188.36,433.39c.14.78-.34,1.08-.97,1.33-2.6,1.03-5.1,2.32-7.75,3.25-.36.13-.76.27-.83.74-.48.03-.95.05-1.43.08-.38-.43-.49-.1-.62.21-.03.1-.1.14-.2.14-.06-.36-.13-.72-.19-1.08,1.56-1.73,3.63-2.63,5.79-3.22,1.83-.5,3.72-.78,5.53-1.42.2-.07.44-.02.66-.02Z"/>
      <path class="cls-6" d="M186.47,427.18c-.22.62-.66.82-1.3.8-.9-.04-1.79-.03-2.69,0-.76.02-1.47.16-1.63,1.1-.72-.07-1.44-.14-2.15-.2,0-.36.24-.6.48-.66,2.01-.44,3.86-1.63,6.02-1.39.44.05.92,0,1.27.36Z"/>
      <path class="cls-6" d="M190.05,427.64c-.28.95-.99,1.07-1.82.95-.8-.11-1.34-.47-1.32-1.37,1.07-.05,2.12.09,3.14.42Z"/>
      <path class="cls-5" d="M203.33,421.83c.75.1,1.39.47,2.02.85.31.19.77.47.49.92-.22.35-.61.1-.92-.03-.72-.31-1.37-.82-2.21-.8.21-.32.42-.63.63-.95Z"/>
      <path class="cls-6" d="M191.09,432.3c.39.3.88.6.55,1.19-.21.38-1.83.54-2.25.26-.18-.12-.33-.28-.49-.42.53-.78,1.41-.8,2.19-1.02Z"/>
      <path class="cls-5" d="M213.05,397.31c.4.45,1.02.4,1.49.69.28.17.64.3.54.72-.09.36-.44.27-.7.27-.61,0-1.22-.02-1.83-.03.17-.55.33-1.1.5-1.64Z"/>
      <path class="cls-5" d="M205.25,418.08c.75-.04,1.43.22,2.08.53.12.06.25.26.25.4,0,.26-.2.35-.44.39-.81.12-1.54-.15-2.26-.49.08-.29.1-.62.36-.83Z"/>
      <path class="cls-5" d="M207.38,413.65c.22.02.47-.02.66.06.48.21,1.36.3,1.17.92-.21.71-.92.16-1.42.08-.33-.06-.67-.06-1-.09.11-.38.23-.75.59-.97Z"/>
      <path class="cls-6" d="M193.12,427.66c-.35.69-.99.64-1.61.64-.46,0-.75-.19-.81-.67.81-.08,1.62-.1,2.42.03Z"/>
      <path class="cls-7" d="M176.38,438.05c.06.36.13.72.19,1.08-.27.41-.73.52-1.14.7l.02.02c-.16-.84.41-1.31.92-1.81Z"/>
      <path class="cls-7" d="M176.77,439c.13-.31.24-.64.62-.21-.21.07-.41.14-.62.21Z"/>
      <path class="cls-7" d="M175.44,439.84s-.06.06-.09.09c.04-.02.07-.04.11-.06,0,0-.02-.02-.02-.02Z"/>
      <path class="cls-6" d="M208.78,368.74c-.11.05-.25-.02-.2-.09.17-.25.17-.02.2.09,0,0,0,0,0,0Z"/>
      <path class="cls-6" d="M250.81,370.32c.11.01.23,0,.33.05,2.74,1.25,2.99,1.21,5.13-.82.51,1.35.59,2.73.8,4.07.69,4.37,1.63,8.64,3.9,12.54,1.17,2.01,1.31,4.32,1.05,6.6-.33,2.87-.59,5.74-.34,8.62-.52.65-1.53.05-2.16.79.81.39,1.54.16,2.23.23.26,3.02.53,6.05.79,9.07.32,3.56.79,7.11,1.29,10.65-.95-.58-1.85-.18-2.76.12-.23.07-.42.27-.4.49.03.35.35.4.63.39.9-.01,1.81.11,2.7-.1.4,1.09.8,2.17,1.2,3.26-2.13-.68-4.09-.38-5.96.86.26.41.5.46.7.38,1.83-.71,3.7-.72,5.59-.34.7,2.17,2,3.95,3.57,5.56.27.28.47.62.7.93q-1.08,1.28-2.27.13c-.2-.19-.4-.39-.6-.59-.82-.8-1.58-1.69-2.84-2.13-.21.96-.11,1.84-.12,2.71-.35,1.07-.29,2.2-.47,3.3-.47,0-.82-.3-1.23-.46-.62-.25-1,0-1.42.62.97.27,1.79.15,2.6.17-.03.24-.05.48-.08.72-.02.1-.05.2-.07.3-.16,1.47-.14,2.91.19,4.37.27,1.18.54,2.45-.72,3.41-.34.26-.36.92-.57,1.38-.35.74-.42,1.63-1.13,2.29-.5-1.01-.64-2.01-.93-2.96-.1-.32-.08-.75-.28-.96-1.1-1.11-.69-2.28-.22-3.46,1.25-3.07.78-6.21.46-9.36-.2.04-.33.03-.39.08-.41.37-.05,1.08-.54,1.36-.47.27-.98-.1-1.48-.12-1.02-.04-1.82.57-2.62,1.08-1.72,1.11-3.54,2-5.45,2.72-1.14.43-2.26,1.03-3.59.55-.6-.22-1.18.34-1.8.36-.1-.09-.2-.18-.31-.27.62-1.38,1.9-2.21,2.77-3.38.38-.51,1.1-.66,1.72-.53,1.88.39,3.2-.83,4.67-1.57.74-.37,1.35-1.01,2.05-1.5,3.26-2.29,4.06-5.68,4.27-9.36.2-3.52-.16-7.01-.39-10.51-.31-4.63-.95-9.22-2.07-13.73-.31-1.27-.74-2.49-1.39-3.63-1.33-2.34-1.87-4.87-1.55-7.52.42-3.51-.12-6.86-1.32-10.16-.79-2.17-1.41-4.41-2.1-6.62.07-.05.13-.1.2-.15ZM258.05,385.67c-.68.7-1.88.01-2.53.9,1.52.88,1.9.77,2.7-.72.03-.09.06-.17.09-.26-.09.03-.18.06-.26.09ZM259.74,394.33c-1.16-.12-2.07-.21-2.99-.3.85.91,1.76,1.21,2.99.3Z"/>
      <path class="cls-5" d="M263.98,433.83c.01-.87-.1-1.75.12-2.71,1.26.43,2.02,1.33,2.84,2.13.2.19.4.39.6.59q1.18,1.14,2.27-.13c.26.12.32.32.27.58.08.4-.5.83.06,1.22.46.32.91.44,1.4.06.09-.07.2-.11.3-.16.16.02.26.11.29.28-.02.05-.03.11-.06.15-.43.64-.43,1.21.24,1.7.78.58.85-.34,1.25-.57.14-.08.29-.14.44-.21.27-.12.53-.06.79.06-.18.14-.36.27-.53.41-.98.85-.96.92-.09,1.86.8.86,1.86,1.27,2.89,1.73.37.17.77.22.82.72-1.78.64-3.09-.11-4.08-1.51-.67-.95-1.49-1.62-2.54-2.11-1.06-.5-2.07-1.12-2.97-1.91-.59-.52-1.33-1.07-2.11-.92-1.18.23-1.71-.37-2.17-1.24Z"/>
      <path class="cls-6" d="M277.85,441.52c-.05-.5-.45-.55-.82-.72-1.02-.46-2.09-.87-2.89-1.73-.87-.94-.89-1.01.09-1.86.17-.15.35-.28.53-.41.47.18.95.35,1.41.56.31.14.72.25.87.5.86,1.48,2.03,2.78,2.76,4.74-.86-.48-1.41-.78-1.96-1.08Z"/>
      <path class="cls-5" d="M265.54,427.2c-1.89-.39-3.76-.37-5.59.34-.2.08-.44.02-.7-.38,1.87-1.25,3.83-1.54,5.96-.86.11.3.22.6.33.91Z"/>
      <path class="cls-5" d="M264.01,423.04c-.89.2-1.8.08-2.7.1-.29,0-.61-.04-.63-.39-.02-.22.18-.42.4-.49.91-.3,1.82-.7,2.76-.12.05.3.11.61.16.91Z"/>
      <path class="cls-6" d="M273.98,436.75c-.15.07-.3.13-.44.21-.4.23-.47,1.15-1.25.57-.66-.49-.67-1.06-.24-1.7.03-.04.04-.1.06-.15.73.18,1.38.47,1.86,1.08Z"/>
      <path class="cls-5" d="M257.7,425.89c.16,1.12-.45,1.66-.84,2.29-.12.2-.33.31-.55.18-.21-.13-.25-.38-.19-.59.25-.78.95-1.15,1.58-1.88Z"/>
      <path class="cls-5" d="M263.46,437.45c-.81-.02-1.63.1-2.6-.17.42-.63.8-.87,1.42-.62.41.16.76.46,1.23.46-.02.11-.03.22-.05.33Z"/>
      <path class="cls-6" d="M271.83,435.4c-.1.05-.21.09-.3.16-.49.37-.93.25-1.4-.06-.57-.39.02-.82-.06-1.22.82,0,1.3.55,1.76,1.12Z"/>
      <path class="cls-5" d="M261.76,402.41c-.69-.07-1.42.16-2.23-.23.63-.75,1.64-.14,2.16-.79.17.33.13.68.07,1.03Z"/>
      <path class="cls-6" d="M250.61,370.47c-.24-.1-.37-.35-.18-.48.23-.16.3.16.38.33-.07.05-.14.1-.2.15Z"/>
      <path class="cls-6" d="M244.26,439.24c-.15.22-.37.32-.55.1-.08-.1.08-.3.25-.37.1.09.2.18.31.27Z"/>
      <path class="cls-5" d="M263.31,438.48c.02-.1.05-.2.07-.3,0,.08.03.15.02.23,0,.03-.06.05-.1.07Z"/>
      <path class="cls-2" d="M219.05,390.09c.18-1.27,1.07-2.01.91-3.11-.14-1.01-.8-1.85-.91-2.92,1.95,1.78,2,4.12,0,6.04Z"/>
      <path class="cls-5" d="M195.51,430.98s-.13-.06-.12-.07c.02-.1.07-.07.12.08,0,0,0,0,0,0Z"/>
      <path class="cls-5" d="M258.23,385.84c-.81,1.49-1.18,1.6-2.7.72.65-.88,1.85-.2,2.53-.9.06.06.12.12.18.18Z"/>
      <path class="cls-5" d="M259.74,394.33c-1.23.91-2.14.61-2.99-.3.92.09,1.83.18,2.99.3Z"/>
      <path class="cls-5" d="M258.05,385.67c.09-.03.18-.06.26-.09-.03.09-.06.17-.09.26-.06-.06-.12-.12-.17-.18Z"/>
    </g>
  </g>
  <path class="cls-4" d="M241.39,405.22l2.35-.81-2.35.81Z"/>
  <polygon class="cls-3" points="243.79 404.41 241.34 405.09 241.11 404.24 243.42 403.71 243.79 404.41"/>
</svg>