<?xml version="1.0" encoding="UTF-8"?>
<svg id="Sprite_Alien" xmlns="http://www.w3.org/2000/svg" viewBox="0 0 940.06 423.94">
  <defs>
    <style>
      .cls-1 {
        fill: #1e202c;
      }

      .cls-1, .cls-2, .cls-3, .cls-4, .cls-5, .cls-6 {
        stroke-width: 0px;
      }

      .cls-2 {
        fill: #22412b;
      }

      .cls-3 {
        fill: #110b0c;
      }

      .cls-4 {
        fill: #fff;
      }

      .cls-5 {
        fill: #3a6446;
      }

      .cls-6 {
        fill: #393b4e;
      }
    </style>
  </defs>
  <g id="E5">
    <g>
      <path class="cls-3" d="M281.39,228.03c-4.64,1.06-9.31,1.13-13.97.35-9.43-1.58-17.23-6.06-23.15-13.58-3.93-4.99-5.96-10.74-5.68-17.12.25-5.88,2.04-11.4,4.63-16.66,2.43-4.93,5.8-9.12,10.27-12.35,7.79-5.62,16.34-6.63,25.27-3.47,10.99,3.89,18.95,11.26,23.51,22.02,4.16,9.81,1.86,19.35-6.24,26.66-6.1,5.51-13.18,9.06-21.41,9.97-5.83.65-11.42-.53-16.83-2.68-1.97-.78-3.9-1.65-5.72-2.74-.28-.16-.53-.43-.92-.29,4.31,3.67,8.7,6.09,14.16,7.83,5.23,1.67,10.62,2.08,16.08,2.04ZM297.87,196.39h0c.04.42-.07.8-.25,1.19-1.27,2.88-3.31,5.11-5.86,6.9-4.15,2.92-8.86,4.48-13.75,5.62-4.28,1-8.62,1.35-12.97,1.04-4.27-.31-8.44-1.3-12.42-2.91-3.35-1.35-6.63-2.88-9.36-5.34-.48-.43-1.02-.8-1.7-1.32.57,3.51,2.06,6.34,4.27,8.77,2.94,3.24,6.47,5.67,10.49,7.43,5.69,2.5,11.49,4.16,17.81,3.53,2.39-.24,4.71-.67,6.96-1.44,5.74-1.96,10.71-5.15,14.89-9.57,5.24-5.55,6.89-11.98,4.88-19.34-1.32-4.84-3.86-9.02-7.19-12.71-4.12-4.57-8.93-8.2-14.77-10.34-4.87-1.79-9.85-2.43-14.97-1.28-5.5,1.23-9.92,4.19-13.6,8.41-5.04,5.77-7.62,12.59-8.89,20.01-.11.62-.3,1.39.39,1.87.79.55,1.52,1.19,2.35,1.7,2.42,1.49,4.9,2.84,7.51,3.95,5.11,2.17,10.42,3.51,15.98,3.69,3.57.12,7.12-.29,10.64-.88,4.02-.67,7.89-1.78,11.6-3.5,2.97-1.38,5.56-3.3,7.98-5.46Z"/>
      <path class="cls-3" d="M184.29,227.91c8.36.37,16.24-.98,23.54-4.96,2.31-1.26,4.45-2.76,6.55-4.5-.56-.19-.79.11-1.07.26-4.87,2.69-10.04,4.54-15.58,5.13-5.23.55-10.34-.17-15.24-2.12-6.02-2.39-11.3-5.87-15.5-10.84-5.84-6.91-7.05-14.75-3.65-22.99,5.22-12.65,14.6-20.85,28.03-23.79,10.11-2.22,18.68,1.25,25.64,8.7,5.46,5.84,8.39,12.97,9.78,20.72,2.05,11.48-2.47,20.42-11.33,27.38-9.12,7.16-19.54,9.28-30.88,7.25-.06-.01-.11-.09-.29-.24ZM167.88,196.51c1.04.44,1.65,1.27,2.44,1.88,4.05,3.14,8.66,4.99,13.62,6.16,4.06.96,8.17,1.51,12.33,1.68,3.14.13,6.24-.23,9.29-.91,6.52-1.45,12.48-4.18,17.93-8,.66-.46,1.25-1.02,1.07-2.03-.98-5.5-2.64-10.75-5.53-15.57-2.79-4.66-6.47-8.45-11.3-10.99-3.81-2-7.86-2.93-12.23-2.63-2.85.2-5.59.67-8.25,1.68-6,2.27-11.08,5.83-15.29,10.7-3.05,3.54-5.47,7.38-6.82,11.88-.91,3.02-1.24,6.1-.78,9.22.67,4.48,3.01,8.12,6.07,11.32,2.06,2.16,4.46,3.93,7.02,5.47,6.65,4,13.73,6.01,21.52,4.66,8.41-1.46,15.85-4.82,21.56-11.36,1.97-2.26,3.25-4.94,3.79-7.98-.54,0-.78.35-1.09.61-.71.6-1.41,1.22-2.16,1.76-3.74,2.69-7.94,4.36-12.33,5.62-5.37,1.55-10.84,1.92-16.34,1.2-4.12-.54-8.2-1.46-12.05-3.08-3.51-1.47-6.93-3.16-9.51-6.1-1.31-1.5-2.49-3.11-2.97-5.19Z"/>
      <path class="cls-3" d="M233.49,244.14c-7-.08-12.44-2.52-17.35-6.38-1-.79-1.95-1.63-2.8-2.57-.94-1.04-.94-1.63.14-2.51,4.37-3.56,9.35-5.79,14.89-6.72,8.99-1.5,16.84,1.25,23.94,6.63,1.2.91,1.24,1.6.17,2.66-5.43,5.41-11.82,8.73-18.99,8.89ZM248.78,235.15c-2.07-.06-4.15-.36-6.2.22-1.58.45-3.06,1.15-4.56,1.8-3.36,1.45-6.71,1.56-10.04-.02-3.5-1.66-7.1-2.62-11-2-.15,0-.4-.03-.43.03-.21.43.24.56.45.73,2.15,1.74,4.5,3.17,7.02,4.33,4.17,1.92,8.53,2.31,12.99,1.53,3.69-.65,6.95-2.38,10.05-4.43.74-.49,1.4-1.11,2.04-1.73.58-.55,0-.43-.31-.45ZM249.29,233.12c.02-.1.04-.2.07-.29-4.56-3.05-9.55-4.98-15.08-5.27-6.58-.35-12.45,1.76-17.8,5.53,4.17-.35,8.14.2,11.88,2.09,3.16,1.6,6.28,1.42,9.45-.11,3.13-1.51,6.45-2.27,9.97-1.95.5.05,1.01,0,1.51,0Z"/>
      <path class="cls-4" d="M334.21,165.82c-1.53-.4-3.01-.78-4.48-1.16-.86-.22-1.3-.74-1.11-1.63.19-.89.89-1.05,1.65-.91,2.59.5,5.16,1.12,7.68,1.91,1.18.36,1.27,1.74.17,2.57-.89.67-1.87,1.22-2.83,1.8-1.46.88-2.94,1.73-4.56,2.68,1.58.4,3.02.77,4.45,1.14.39.1.79.21,1.15.39.56.28.83.76.65,1.38-.18.65-.62,1.05-1.32.92-.95-.18-1.88-.43-2.82-.65-1.7-.4-3.4-.79-5.1-1.22-.61-.15-1.29-.34-1.38-1.11-.1-.82.29-1.46.98-1.87,2.01-1.21,4.03-2.39,6.04-3.59.27-.16.63-.22.82-.63Z"/>
      <path class="cls-4" d="M318.17,171.12c1.63-.11,3-.19,4.38-.29.73-.05,1.25.19,1.34.99.09.84-.45,1.14-1.15,1.19-2.23.17-4.47.31-6.7.45-.51.03-.97-.08-1.23-.59-.27-.53-.18-1.04.16-1.47.79-.99,1.62-1.95,2.44-2.92.65-.76,1.31-1.5,2.12-2.43-1.34.07-2.47.13-3.59.2-.78.05-1.59.08-1.72-.94-.14-1.06.65-1.18,1.45-1.24,1.9-.14,3.8-.29,5.69-.42.59-.04,1.26-.15,1.56.55.3.68.07,1.3-.41,1.85-1.3,1.49-2.58,2.99-3.87,4.49-.11.13-.22.26-.48.57Z"/>
      <path class="cls-4" d="M309.14,173.87c-1.28.35-2.32.63-3.35.92-.63.18-1.15.03-1.37-.6-.24-.69.22-1.05.81-1.22,1.75-.49,3.51-.97,5.27-1.43.44-.12.92-.14,1.21.32.31.48.26,1.01-.01,1.48-.77,1.35-1.58,2.69-2.35,4.04-.18.31-.47.57-.47,1.04,1.16-.32,2.3-.63,3.42-.96.68-.2,1.23-.07,1.45.62.24.75-.29,1.09-.92,1.26-1.79.48-3.59.94-5.38,1.43-.49.13-.95.28-1.31-.22-.35-.48-.28-.98,0-1.47.85-1.48,1.71-2.96,2.57-4.44.11-.19.23-.38.46-.77Z"/>
      <path class="cls-4" d="M305.98,164.56c1.04-1.84,1.13-3.48-.57-5.09,1.27-.05,2,.91,2.84.78.82-.13,1.56-.77,2.53-1.14-1.03,1.77-1.04,3.41.38,5.08-1.84-1.03-3.5-1.04-5.17.37Z"/>
      <path class="cls-4" d="M328.62,178.87c-.12.56-.37.69-.59.79-.84.39-1.02.96-.61,1.8.1.21.38.57.03.79-.27.17-.49-.12-.65-.3-.62-.69-1.22-.73-1.88-.05-.19.19-.39.46-.91.31.88-1.31.53-2.36-1.02-3.06.84-.38,1.63.05,2.04-.33.41-.38.49-1.1.86-2.03.32,1.71,1.05,2.59,2.74,2.09Z"/>
      <path class="cls-4" d="M322.45,156.82c.85.57,1.62.38,2.46-.07-.47.85-.6,1.63.31,2.57-1.07-.37-1.86-.69-2.69-.06.47-.85.35-1.62-.08-2.44Z"/>
      <path class="cls-1" d="M297.87,196.39c-2.43,2.16-5.01,4.08-7.98,5.46-3.71,1.72-7.58,2.83-11.6,3.5-3.52.58-7.07,1-10.64.88-5.56-.19-10.87-1.53-15.98-3.69-2.61-1.11-5.09-2.46-7.51-3.95-.83-.51-1.55-1.15-2.35-1.7-.68-.47-.49-1.25-.39-1.87,1.28-7.41,3.86-14.24,8.89-20.01,3.68-4.22,8.1-7.18,13.6-8.41,5.12-1.14,10.1-.5,14.97,1.28,5.84,2.14,10.65,5.78,14.77,10.34,3.33,3.69,5.87,7.87,7.19,12.71,2.01,7.36.36,13.79-4.88,19.34-4.18,4.42-9.15,7.61-14.89,9.57-2.25.77-4.57,1.2-6.96,1.44-6.32.63-12.13-1.04-17.81-3.53-4.02-1.77-7.55-4.2-10.49-7.43-2.21-2.43-3.7-5.26-4.27-8.77.68.53,1.22.89,1.7,1.32,2.73,2.47,6.01,3.99,9.36,5.34,3.98,1.61,8.15,2.6,12.42,2.91,4.35.31,8.69-.04,12.97-1.04,4.89-1.14,9.6-2.7,13.75-5.62,2.54-1.79,4.58-4.02,5.86-6.9.17-.39.28-.77.25-1.19.02-.03.03-.06.05-.09-.02.03-.03.06-.05.09ZM249.23,182.5c.14-.04.31-.04.42-.12,2.58-1.91,5.32-3.56,8.25-4.86,5.39-2.39,11.01-3.63,16.91-2.82,4.64.64,9.01,2.19,13.07,4.57.76.45,1.45,1.07,2.37,1.21.03.02.06.04.09.06-.03-.02-.06-.03-.1-.05-.23-.34-.41-.71-.68-1.01-2.98-3.29-6.38-6.01-10.47-7.83-5.23-2.32-10.59-2.89-16.03-1-6.13,2.12-10.63,6.25-13.82,11.85-.02.03-.03.06-.05.09.02-.03.03-.06.05-.09Z"/>
      <path class="cls-1" d="M167.88,196.51c.48,2.08,1.66,3.68,2.97,5.19,2.57,2.94,5.99,4.63,9.51,6.1,3.85,1.62,7.93,2.54,12.05,3.08,5.5.72,10.97.35,16.34-1.2,4.39-1.26,8.6-2.93,12.33-5.62.75-.54,1.45-1.16,2.16-1.76.31-.26.55-.61,1.09-.61-.54,3.04-1.82,5.72-3.79,7.98-5.71,6.54-13.15,9.9-21.56,11.36-7.79,1.36-14.87-.66-21.52-4.66-2.56-1.54-4.96-3.31-7.02-5.47-3.06-3.2-5.41-6.84-6.07-11.32-.47-3.12-.13-6.19.78-9.22,1.35-4.5,3.77-8.34,6.82-11.88,4.2-4.88,9.29-8.43,15.29-10.7,2.65-1.01,5.4-1.48,8.25-1.68,4.37-.31,8.42.63,12.23,2.63,4.83,2.54,8.51,6.33,11.3,10.99,2.89,4.81,4.55,10.07,5.53,15.57.18,1.02-.41,1.57-1.07,2.03-5.46,3.82-11.42,6.55-17.93,8-3.05.68-6.16,1.04-9.29.91-4.16-.17-8.26-.72-12.33-1.68-4.95-1.17-9.57-3.02-13.62-6.16-.78-.61-1.39-1.44-2.44-1.88ZM216.51,182.51s.07.06.1.09c-.03-.03-.06-.07-.09-.1-.01-.35-.2-.64-.39-.91-2.52-3.81-5.58-7.09-9.61-9.31-4.7-2.6-9.75-3.41-14.99-2.2-5.63,1.29-10.33,4.31-14.34,8.42-.54.55-1.08,1.12-1.48,2.09,2.07-1.14,3.84-2.3,5.81-3.1,5.08-2.06,10.26-3.43,15.84-2.84,5.25.55,10.06,2.26,14.55,4.96,1.55.94,3.06,1.94,4.59,2.91Z"/>
      <path class="cls-5" d="M249.29,233.12c-.5,0-1.01.04-1.51,0-3.52-.33-6.83.44-9.97,1.95-3.16,1.53-6.29,1.7-9.45.11-3.74-1.89-7.71-2.44-11.88-2.09,5.35-3.77,11.22-5.88,17.8-5.53,5.53.3,10.52,2.22,15.08,5.27-.02.1-.04.2-.07.29Z"/>
      <path class="cls-5" d="M216.97,235.15c3.9-.62,7.51.35,11,2,3.33,1.58,6.68,1.47,10.04.02,1.5-.65,2.98-1.35,4.56-1.8,2.05-.58,4.13-.28,6.2-.22-1.62,1.64-3.74,2.35-5.83,3.13-4.23,1.59-8.52,2.49-13.09,1.81-4.69-.69-8.94-2.39-12.88-4.95Z"/>
      <path class="cls-2" d="M216.97,235.15c3.94,2.56,8.2,4.26,12.88,4.95,4.57.67,8.86-.22,13.09-1.81,2.09-.78,4.21-1.49,5.83-3.13.3.02.89-.1.31.45-.64.62-1.3,1.24-2.04,1.73-3.09,2.05-6.36,3.79-10.05,4.43-4.45.78-8.82.39-12.99-1.53-2.52-1.16-4.86-2.59-7.02-4.33-.21-.17-.65-.29-.45-.73.03-.06.28-.02.43-.03Z"/>
      <path class="cls-6" d="M290.25,180.49c-.92-.14-1.61-.76-2.37-1.21-4.06-2.39-8.42-3.93-13.07-4.57-5.91-.82-11.53.43-16.91,2.82-2.93,1.3-5.68,2.95-8.25,4.86-.11.08-.28.08-.42.12h0c3.19-5.59,7.69-9.73,13.82-11.85,5.44-1.88,10.81-1.32,16.03,1,4.09,1.82,7.5,4.53,10.47,7.83.27.3.46.67.68,1.01h0Z"/>
      <path class="cls-3" d="M297.87,196.39s.03-.06.05-.09c-.02.03-.03.06-.05.09h0Z"/>
      <path class="cls-6" d="M249.23,182.5s-.03.06-.05.09c.02-.03.03-.06.05-.09,0,0,0,0,0,0Z"/>
      <path class="cls-6" d="M290.25,180.49s.06.03.1.05c-.03-.02-.06-.04-.09-.06,0,0,0,0,0,0Z"/>
      <path class="cls-6" d="M216.51,182.51c-1.53-.97-3.04-1.98-4.59-2.91-4.49-2.71-9.3-4.41-14.55-4.96-5.58-.59-10.76.78-15.84,2.84-1.97.8-3.74,1.95-5.81,3.1.39-.96.94-1.54,1.48-2.09,4.02-4.1,8.71-7.12,14.34-8.42,5.24-1.2,10.28-.39,14.99,2.2,4.03,2.23,7.09,5.51,9.61,9.31.18.28.37.56.39.91h0Z"/>
      <path class="cls-6" d="M216.52,182.5s.06.07.09.1c-.03-.03-.07-.06-.1-.09,0,0,0,0,0,0Z"/>
    </g>
  </g>
</svg>