<?xml version="1.0" encoding="UTF-8"?>
<svg id="Sprite_Alien" xmlns="http://www.w3.org/2000/svg" viewBox="0 0 1164.68 667.67">
  <defs>
    <style>
      .cls-1 {
        fill: #83a36c;
      }

      .cls-1, .cls-2, .cls-3, .cls-4, .cls-5, .cls-6, .cls-7, .cls-8, .cls-9, .cls-10, .cls-11 {
        stroke-width: 0px;
      }

      .cls-2 {
        fill: #1a361f;
      }

      .cls-3 {
        fill: #d5d74e;
      }

      .cls-4 {
        fill: #416d48;
      }

      .cls-5 {
        fill: #67ac4a;
      }

      .cls-6 {
        fill: #c2d8a7;
      }

      .cls-7 {
        fill: #8cbb5a;
      }

      .cls-8 {
        fill: #4b9048;
      }

      .cls-9 {
        fill: #1e502c;
      }

      .cls-10 {
        fill: #6b7469;
      }

      .cls-11 {
        fill: #191f1c;
      }
    </style>
  </defs>
  <g id="E3">
    <g>
      <path class="cls-11" d="M942.37,454.09c-3.46-6.79-4.55-14.05-4.08-21.55.17-2.75-.28-5.44-.16-8.16.04-.87-.68-1.28-1.09-1.89-1.43-2.12-1.31-4.39.67-5.74,1.38-.95,1.89-2.21,2.48-3.59,3.26-7.73,8.51-13.49,16.67-16.04,11.11-3.48,20.97-.82,29.44,6.9,6.81,6.2,10.44,14.11,11.29,23.25.13,1.37.41,2.32,1.61,3.27,3.03,2.42,2.42,6.43-1.17,7.77-1.76.65-1.76,1.95-2.05,3.28-.32.18-.52.38-.1.67-.03.31-.06.63-.09.94-.83.1-.98.85-1.18,1.41-.48,1.34-1.25,2.52-1.98,3.71-4.08,6.61-10.12,10.67-17.64,11.81-9.84,1.48-18.37-1.95-25.7-8.56-2.38-2.15-4.16-4.79-6.22-7.19-.12-.24-.01-.81-.44-.61-.31.15-.06.58.22.81-.07,2.12,1.01,4.02,1.2,6.09-1.1-.08-1.69.37-1.63,1.54.03.62-.02,1.25-.03,1.88ZM947.7,426.35c-1.81-.98-3.8-1.13-5.77-1.48-.53,4.9.4,9.58,2.71,13.95,1.54,4.24,4.22,7.69,7.54,10.66,5.24,4.68,11.43,7.38,18.43,7.18,9.84-.28,16.86-5.38,20.8-14.28,2.36-5.32,1.88-4.75-3.42-5.9-3.11-.85-6.21-1.73-9.32-2.56-2.11-.56-2.13-.54-3.31,1.37-1.73,2.8-4.02,4.94-7.21,5.92-3.92,1.19-7.63.95-11-1.7-3.37-2.65-5.16-6.05-5.42-10.33-.13-2.23-.21-2.24-2.38-2.68-.55-.11-1.12-.1-1.68-.15ZM984.15,406.72c-7.06-7.56-15.74-10.19-25.55-7.21-8.01,2.43-13.12,8.23-15.56,16.25,1.15.83,2.66.12,3.36,1.55-1.59.11-3.13-.16-4.52.58-.88.47-2.2.64-2.23,1.86-.03,1.49,1.51,1.22,2.37,1.43,7.9,2,15.83,3.86,23.74,5.82,7.63,1.89,15.25,3.85,22.87,5.78,2.43.66,4.85,1.32,7.28,1.96.45.12.99.21,1.18-.36.11-.32.08-.78-.08-1.07-.46-.84-1.21-1.42-2.05-1.87-1.65-.9-3.34-1.69-5.18-2.13-5.08-1.77-10.17-3.54-15.25-5.31,5.05.2,9.85,1.39,14.63,2.62,1.63.61,3.27,1.22,5.01,1.87.04-.54.13-.91.09-1.27-.81-6.51-3.02-12.48-7.09-17.68-.84-1.08-1.66-2.27-3.04-2.81ZM971.59,435.17c-.04-1.3-1.64-2.58-3.18-2.54-1.45.04-2.39,1.04-2.36,2.51.04,1.49,1.15,2.54,2.72,2.56,1.43.01,2.86-1.26,2.82-2.52Z"/>
      <path class="cls-11" d="M859.01,441.02c-.06-1.45-.74-2.24-2.14-2.88-3.09-1.41-3.69-5.21-1.05-7.4,1.54-1.27,1.78-2.61,1.9-4.34.86-11.78,9.82-27.27,26.72-30.29,13.92-2.48,25.48,4.29,30.72,17.5.5,1.26,1.06,2.22,2.27,3,2.13,1.38,2.52,3.95.84,5.85-.98,1.11-1.21,2.16-1.2,3.51.02,3.56-.07,7.12-.12,10.68-.89,1.74-.4,3.61-.52,5.43-.03.23-.06.46-.09.69-.8-.07-1.68.25-2.37-.25-1.34-.96-1.07.43-1.44.9-2.2,3.06-4.39,6.14-7.29,8.6-.5-1.14-1.29-1.89-2.59-2.01.65-.65,1.34-1.27,1.93-1.97,2.24-2.65,4.67-5.19,5.65-8.66h0c.3-.08.5-.24.44-.59,2.03-4.4,3.06-8.98,2.84-14.07-3.06.72-5.88,1.38-8.69,2.02-.78.18-1.49.41-1.38,1.41.2,1.81-.56,3.5-.58,5.28-.48.35-.62.85-.58,1.42l-.02-.05c-1.3,1.19-2.13,2.79-3.5,3.93-2.95,2.44-6.15,3.81-10.09,2.94-4.03-.88-6.96-3.12-8.9-6.71-.43-.79-.55-1.77-1.96-1.35-3.49,1.04-7.14,1.48-10.56,2.79-.17-.08-.33-.06-.46.09-.88-.1-1.64.37-2.44.58-2.19.58-2.21.61-1.48,2.83,1.69,5.15,4.67,9.45,9.05,12.59,4.57,3.28,9.74,4.57,15.42,4,3.71-.38,7.05-1.8,10.48-3.03.38,1.16,1.94,1.14,2.3,2.31-4.91,3.2-10.26,4.7-16.16,4.56-8.84-.21-15.56-4.17-20.73-11.13-1.86-2.51-2.76-5.49-4.21-8.2ZM865.61,426.55c4.34-.92,8.63-2.11,13.05-2.62,0,.24,0,.48-.01.72-4.36,1.49-8.77,2.84-13.03,4.62-2,.46-3.84,1.3-5.64,2.27-.74.4-1.4.9-1.89,1.61-.28.41-.41.9-.16,1.31.27.45.8.42,1.25.27,2.1-.7,4.35-.89,6.39-1.81,6.55-1.59,13.1-3.19,19.64-4.78,9.37-2.28,18.73-4.56,28.09-6.86.87-.21,2.17-.22,2.29-1.28.14-1.19-1.13-1.56-2.04-2.01-.33-.16-.72-.21-1.07-.35-1.14-.44-2.42-.13-3.72-.42.54-.82,1.13-.81,1.67-.94,1.74-.42,1.88-.6,1.21-2.23-2.96-7.26-7.93-12.67-15.6-14.71-9.94-2.64-18.48.27-25.42,7.84-6.16,5.57-9.03,12.59-9.54,21.02,1.87-.36,3.19-.99,4.5-1.63ZM886.19,437.7c1.57.09,2.98-1.16,2.99-2.66.02-1.33-1.09-2.4-2.53-2.44-1.53-.04-2.85.99-3,2.35-.15,1.4,1.01,2.65,2.54,2.74Z"/>
      <path class="cls-6" d="M950.28,486.81c6.22.17,11.75,5.48,10.4,12.72-.84,4.52-3.15,8.23-5.86,11.68-5.33,6.8-12.36,11.01-20.91,12.52-6.8,1.2-13.39.45-19.85-2.02-3.39-1.29-6.13-3.58-9.15-5.45,4.77-5.03,9.86-9.73,14.87-14.52.68-.65,1.43-1.16,2.39-1.39,2.27-.55,4.54-1.09,6.76-1.8,4.78-1.52,9.38-1.05,13.91.95,1.45.64,2.92,1.21,4.49,1.56,3.39.77,6.45-.07,7.84-2.24,1.39-2.18,1.05-5.55-.91-8.15-.67-.89-1.57-1.6-2.33-2.42-.51-.54-1.32-.72-1.65-1.45ZM938.26,507.74c-1.51-3.63-4.56-4.53-7.94-4.59-3.45-.06-7.25,2.41-8.6,5.59,5.52-2.76,10.93-3.18,16.54-.99Z"/>
      <path class="cls-9" d="M950.28,486.81c.33.73,1.15.92,1.65,1.45.77.82,1.66,1.53,2.33,2.42,1.97,2.6,2.3,5.97.91,8.15-1.39,2.18-4.45,3.01-7.84,2.24-1.56-.35-3.04-.92-4.49-1.56-4.53-2-9.13-2.47-13.91-.95-2.22.71-4.49,1.25-6.76,1.8-.96.23-1.72.74-2.39,1.39-5.01,4.79-10.1,9.49-14.87,14.52-3.59,3.45-7.16,6.93-10.78,10.34-.91.85-1.14,1.66-1.05,2.94.41,5.75-3.74,10.99-9.31,12.01-5.91,1.08-11.7-2.35-13.52-8.01-1.76-5.47.78-11.57,5.92-14.05,1.89-.91,3.91-1.41,6.01-1.07,1.27.21,2.1-.26,2.96-1.12,3.85-3.85,7.76-7.65,11.65-11.47,1.36-1.26,2.68-2.56,4.09-3.77.91-.78,1.03-1.47.62-2.66-.86-2.44-.33-4.73,1.33-6.81.69-.86,1.81-1.32,2.19-2.44,5.05-2.82,10.2-5.44,15.91-6.69,9.89-2.17,19.57-2.16,28.73,2.89.07.34.28.47.61.45h0ZM893.92,516.14c-.43.1-.87.21-1.3.31-.79-.88-1.53-1.29-2.55-.19-1.34,1.45-2.82,2.77-4.2,4.18-.91.93-1.74,1.2-3.2.89-6.17-1.27-11.5,4.71-9.8,10.79,1.26,4.51,4.89,6.94,9.83,6.59,4.74-.34,8.39-4.78,7.39-9.43-.41-1.91.16-2.96,1.4-4.15,9.96-9.58,19.88-19.2,29.81-28.82.64-.62,1.43-1.15,1.58-2.02-.54-.78-1.27-.68-1.88-.87,1.6-.87,3.29-.33,4.94-.3.58,0,1.17.53,1.07,1.11-.31,1.92.62,1.65,1.91,1.32,5.34-1.37,10.54-1.18,15.5,1.54,1.57.86,3.36,1.19,5.1,1.47,2.33.38,3.86-1.55,3.37-3.84-.72-3.32-3.21-4.89-5.93-6.28-3.8-2.15-7.89-3.24-12.25-3.48-8.01-.44-15.52,1.51-22.8,4.64-1.45.83-2.96,1.58-4.34,2.5-1.16.78-2.18,1.77-2.93,2.97-.48.77-1.17,1.84-.34,2.54.87.74,1.39-.5,1.96-.99,1.97-1.7,3.49-3.89,5.78-5.24,1.55-.91,1.65-.86,2.19,1.21-.72.72-1.42,1.47-2.17,2.17-.7.65-1.14,1.28-.21,2.06.53.45.59.9.07,1.39-.55.52-1.03.25-1.43-.19-.58-.65-1.1-.53-1.66,0-.54.51-1.09,1.01-1.66,1.5-.98.85-.35,1.44.32,2.02-.11.73-.51,1.17-1.26,1.27-.63-.52-1.2-1.26-2.06-.27-.48.56-1.03,1.06-1.58,1.55-.96.86-.32,1.41.34,1.97-.02.8-.38,1.34-1.17,1.56-.65-.94-1.34-1.56-2.36-.4-.36.41-.76.8-1.2,1.13-1.12.86-.57,1.51.21,2.16-.05.78-.44,1.24-1.25,1.3-1.69-1.06-1.82-.91-3.73,1-1.35,1.35-.06,1.85.56,2.63-.04.23-.08.47-.13.7Z"/>
      <path class="cls-10" d="M859.01,441.02c1.44,2.71,2.34,5.69,4.21,8.2,5.17,6.96,11.88,10.92,20.73,11.13,5.9.14,11.25-1.36,16.16-4.56,1.89-1.01,3.73-2.1,5.14-3.77,2.91-2.46,5.09-5.54,7.29-8.6-.15,3.1-1.25,5.96-2.07,8.9-.23.82-.99,1.07-1.35,1.7-2.91,2.56-5.27,5.69-8.48,7.92-2.93,1.51-5.69,3.41-9.07,3.86.2-.35.39-.7.59-1.04.04-.05.07-.1.11-.16-.03.06-.06.12-.09.18-4.13,0-8.26.12-12.39,0-3.96-.12-7.72-1.21-11.24-3.06-.11-1.4-1.39-1.91-2.17-2.79-4.58-5.11-7.31-10.96-7.37-17.91Z"/>
      <path class="cls-10" d="M943.06,444.38c2.06,2.41,3.84,5.05,6.22,7.19,7.33,6.62,15.86,10.05,25.7,8.56,7.52-1.13,13.56-5.2,17.64-11.81.73-1.19,1.5-2.37,1.98-3.71.2-.57.35-1.32,1.18-1.41-.41,6.21-2.82,11.52-7.12,16.02-.56.59-1.78.91-1.3,2.17-.5.6-1.23.85-1.91,1.12-6.22,2.41-12.68,2.77-19.23,2.02-.98-.11-1.91-.33-2.98-.25.38.87,1.34,1.08,1.27,1.97-5.85-1.41-10.76-4.41-14.98-8.66-.58-.59-.88-1.93-2.23-1.27,0,0,.12.03.12.03.81-.42.08-.8-.04-1.2-.36-.72-.66-1.51-1.62-1.65l.03.02c-.12-.4,0-.93-.59-1.09-.81-.31-.47-1.38-1.17-1.76-.2-2.07-1.27-3.97-1.2-6.09.08-.07.15-.13.23-.2Z"/>
      <path class="cls-4" d="M1005.59,365.36c-.37.05-.73.11-1.1.16-3.19,0-6.39,0-9.58,0-.56-.05-1.12-.09-1.68-.14-.93-.59-1.99-.42-2.99-.43-5.03-.03-10.06,0-15.09.01-.32-.05-.64-.1-.96-.15-.35-.42-.8-.45-1.29-.37-2.38-1.2-4.93-2.01-7.09-3.73-2.06-1.64-4.64-2.41-7.18-3.12-4.49-1.26-8.47-3.51-12.21-6.24-1.15-.84-2.15-1.84-2.89-3.05-1.25-2.05-.66-3.65,1.62-4.33.8-.24,1.66-.43,2.49-.4,4.98.14,9.86.89,14.61,2.46-4.21-.24-8.42-.59-12.64-.37-1.32.07-3.29-.48-3.72,1.02-.33,1.15,1.43,1.98,2.44,2.78,2.75,2.19,5.8,3.77,9.19,4.74,4.34,1.25,8.54,2.85,12.28,5.47,2.89,2.02,6.1,2.82,9.59,2.55,6.21-.48,12.38-.05,18.55.81,3.27.46,6.57.06,9.82-.49.62-.1,1.43-.21,1.68-.84.34-.88-.51-1.36-1.05-1.79-1.02-.82-2.12-1.55-3.24-2.23-2.73-1.67-5.7-2.85-8.58-4.21.17-.17.34-.33.51-.5,4.24.95,8.2,2.56,11.83,4.95.62.41,1.22.88,1.76,1.4,1.74,1.69,1.55,3.24-.56,4.53-.55.34-1.17.57-1.75.85-.91.22-1.93.04-2.75.65Z"/>
      <path class="cls-4" d="M990.38,370.01c2.61,2.26,5.7,3.55,8.96,4.55,3.12.95,5.92,2.38,7.77,5.24,1.57,2.42,1.01,4.05-1.75,4.88-2.68.8-5.32.67-7.94-.52,1.73-.2,3.47-.21,5.18-.56.74-.15,1.47-.3,2.16-.62,1.03-.49,1.12-1.17.42-2-.79-.95-1.68-1.81-2.8-2.33-1.36-.62-2.74-1.25-4.17-1.68-2.54-.77-4.98-1.74-7.15-3.25-3.4-2.36-7.14-3.74-11.24-4.1-8.44-.75-16.65-2.96-25.07-3.84-4.31-.45-8.64-.58-12.96-.26-1.17.09-2.79.02-3.15,1.31-.33,1.15,1.1,1.86,1.93,2.55,3.23,2.66,7.09,4.19,10.88,5.83-.4.58-1.04.26-1.55.43-2.54-.96-5.12-1.83-7.61-2.91-2.07-.9-3.99-2.13-5.28-4.07-1.35-2.02-.93-3.51,1.26-4.53,1.37-.64,2.85-.88,4.36-.99,7.17-.55,14.24.15,21.27,1.5,1.01.19,2.04.27,3.06.4.58.51,1.27.44,1.96.37.49.06.99.12,1.48.17.56.5,1.22.49,1.9.39.68.06,1.36.12,2.04.18.76.55,1.62.48,2.48.38.93.1,1.87.2,2.8.31,3.73.57,7.42,1.26,10.75,3.18Z"/>
      <path class="cls-4" d="M981.71,490.81c-.12-1.48,1.18-3.19,1.05-4.75-.12-1.49-2.43-2.32-3.19-4.02-1.26-2.83-.73-6.19,1.49-8.29,2.08-1.97,5.54-2.4,8.12-1.01q2.24,1.2,3.91-.9c2.76-3.48,7.2-4.35,10.79-2.11,3.62,2.26,4.91,6.65,3.1,10.58-1.01,2.19-2.77,3.46-5.03,4.17-2.05.65-2.12.72-1.4,2.7,1.09,2.99,1.07,5.87-.5,8.67-2.17,3.88-6.67,5.71-11.09,4.54-4.43-1.18-7.23-4.73-7.24-9.57ZM984.03,491.33c.05,1.03.05,2.04.52,3.02,1.41,2.96,5.13,4.84,8.48,4.23,3.31-.6,5.72-3.45,5.93-6.94.1-1.63-.28-3.14-.82-4.67-.71-2.03.17-3.6,2.24-4.32.71-.25,1.44-.44,2.11-.77,2.63-1.31,3.79-4.42,2.81-7.17-.89-2.5-2.75-3.92-5.23-4.1-2.48-.17-4.5,1.03-5.78,3.3-1.07,1.9-2.27,2.48-4.01,2.15-.81-.16-1.26-.77-1.87-1.2-1.64-1.16-3.32-1.05-5.03-.15-1.6.84-2.15,2.23-2.16,3.96-.02,2.15.73,3.76,2.69,4.87,2.17,1.23,2.25,1.73,1,4-.66,1.2-.92,2.45-.88,3.79Z"/>
      <path class="cls-11" d="M865.98,394.14c-.41,0-1.16.02-1.91,0-.39-.02-.75-.22-.75-.66,0-.38.22-.68.64-.82,1.16-.38,2.31-.76,3.46-1.17,7.1-2.56,12.93-6.73,16.98-13.21.65-1.03,1.32-2.06,2.09-3,1.31-1.59,2.92-2,4.49-1.25,1.56.75,2.18,2.21,1.83,4.3-.29,1.73-1.19,3.15-2.29,4.45-5.06,5.95-11.54,9.46-19.16,10.9-1.65.31-3.32.71-5.37.46Z"/>
      <path class="cls-11" d="M988.67,394.2c-8.83-.61-16.58-3.62-22.77-10.14-1.43-1.51-2.66-3.16-3.26-5.19-.64-2.16.01-4.02,1.69-4.84,1.65-.81,3.27-.31,4.65,1.45.4.52.76,1.07,1.09,1.64,4.43,7.58,11.11,12.25,19.33,14.92.53.17,1.06.37,1.6.52.58.15,1.18.38,1.05,1.05-.14.7-.87.56-1.41.58-.66.03-1.31,0-1.97,0Z"/>
      <path class="cls-4" d="M879.4,333.85c5.98.03,10.87,4.95,10.86,10.94,0,6.39-4.83,11.17-11.25,11.15-6.21-.02-10.96-4.81-10.99-11.08-.03-6.23,4.94-11.05,11.38-11.02ZM878.98,353.71c5.12,0,9.44-3.91,9.18-8.61-.31-5.56-3.92-9.1-9.44-8.99-4.76.1-8.61,4.06-8.56,8.95.05,4.93,3.85,8.66,8.82,8.65Z"/>
      <path class="cls-4" d="M846.97,374.83c.14-2.32,1.49-4.75,4.5-6.01,3.1-1.31,5.96-.66,8.31,1.62,1.1,1.07,2.16,1.86,3.65,2.3,3.24.96,4.73,3.99,3.72,7.11-.95,2.91-3.88,4.38-7.04,3.31-1.26-.43-2.29-.25-3.48.07-5.2,1.39-9.71-2.18-9.65-8.4ZM851.5,371.65c-.39.01-.73.12-.98.44-1.68,2.1-1.81,5.02-.32,7.03,1.49,2.02,3.99,2.79,6.51,1.8,1.28-.5,2.35-.85,3.67-.05,1.32.8,2.73.57,3.89-.48,1.01-.92,1.09-2.17.78-3.39-.39-1.55-1.65-2.43-3.1-2.39-1.7.04-2.4-.78-3.24-2.05-1.67-2.53-4.94-2.84-7.21-.91h0Z"/>
      <path class="cls-2" d="M909.12,454.03c.35-.64,1.12-.88,1.35-1.7.82-2.94,1.92-5.8,2.07-8.9.37-.48.1-1.87,1.44-.91.69.5,1.58.19,2.37.25.1.17.11.35.03.53-.19.2-.37.39-.56.59-.07.05-.19.1-.19.14.01.14.07.27.11.4.05.39.1.77.14,1.16-1.02,5.52-3.28,10.53-6.42,15.12-3.31,4.86-7.9,8.16-13.4,10.22-.36-.17-.89.03-1.08-.5,1.9-1.16,3.72-2.43,5.37-3.93.47-.43,1.07-.78.92-1.57.27-.03.66.04.81-.12,2.98-3.18,5.77-6.49,7.04-10.78Z"/>
      <path class="cls-4" d="M927.99,396.58c-4.37.03-7.85-3.43-7.86-7.81,0-4.16,3.55-7.72,7.7-7.72,4.41,0,7.97,3.44,8,7.73.03,4.4-3.36,7.77-7.84,7.8ZM933.44,388.63c.02-3.34-1.86-5.38-5.76-5.43-2.6-.03-5.12,1.57-5.2,5.72-.05,2.7,2.76,5.66,5.54,5.48,3.39-.23,5.48-2.25,5.43-5.77Z"/>
      <path class="cls-2" d="M944.03,450.67c.7.38.36,1.45,1.17,1.76.09.42.16.85.59,1.09,0,0-.03-.02-.03-.02.11.85.36,1.64,1.02,2.24.13.29.11.73.63.61,0,0-.12-.03-.12-.03,1.65,4.31,4.63,7.63,8.04,10.61,1.9,1.66,4.05,2.97,6.42,4.35-6.61.04-15.72-7.97-19.23-16.68.05-.07.16-.17.15-.19-.09-.12-.2-.22-.31-.33,0,0,0,.02,0,.02.01-.63.06-1.25.03-1.88-.06-1.18.53-1.62,1.63-1.54Z"/>
      <path class="cls-4" d="M974.4,328.33c-.07,3.2-2.85,5.97-5.96,5.93-3.43-.04-6.04-2.72-5.96-6.14.07-3.22,2.79-5.99,5.9-6,3.17-.01,6.09,3.01,6.02,6.21ZM964.88,328.04c-.07,2.37,1.22,3.86,3.41,3.96,1.92.08,3.89-1.72,4-3.63.1-1.92-1.97-4.02-3.97-4.01-1.93,0-3.37,1.55-3.44,3.69Z"/>
      <path class="cls-4" d="M847.48,412.73c3.45,0,5.85,2.57,5.78,6.18-.06,3.23-2.74,5.76-6.05,5.71-3.1-.05-5.6-2.62-5.66-5.82-.07-3.5,2.45-6.07,5.93-6.06ZM850.98,418.55c-.05-2.26-1.52-3.62-3.8-3.51-1.93.09-3.49,1.71-3.53,3.66-.04,1.88,1.92,3.79,3.83,3.73,2.15-.06,3.56-1.62,3.51-3.88Z"/>
      <path class="cls-4" d="M919.08,364.56c-3.34.03-5.84-2.49-5.82-5.87.02-3.14,2.58-5.68,5.74-5.67,3.11.01,5.81,2.58,5.89,5.61.09,3.26-2.49,5.9-5.81,5.93ZM922.67,358.86c.04-2.07-1.37-3.53-3.47-3.61-2.2-.09-3.72,1.37-3.79,3.62-.05,1.84,1.67,3.54,3.64,3.6,1.74.06,3.59-1.78,3.62-3.61Z"/>
      <path class="cls-4" d="M1006.07,450.14c.04-3.41,2.47-5.8,5.87-5.78,3.23.02,5.72,2.47,5.74,5.64.02,3.34-2.51,5.99-5.75,5.99-3.3,0-5.9-2.59-5.86-5.86ZM1012.8,446.9c-.25.01-.5.02-.75.03-2.51-.08-3.59.69-3.97,2.82-.29,1.6.95,3.45,2.73,4.07,1.53.53,3.48-.23,4.34-1.7,1.01-1.73.59-3.26-1.29-4.69l-.2-.12c-.19-.34-.47-.48-.86-.41Z"/>
      <path class="cls-2" d="M964.51,466.25c.07-.89-.89-1.1-1.27-1.97,1.07-.07,2.01.14,2.98.25,6.55.75,13.01.39,19.23-2.02.68-.26,1.41-.51,1.91-1.12.29-.04.87-.49.79.04-.15.96-1.12,1.44-1.85,1.98-5.22,3.92-11.1,5.06-17.47,3.94-1.46-.26-2.88-.74-4.33-1.11Z"/>
      <path class="cls-2" d="M892.16,464.76c-.2.35-.39.7-.59,1.04,0,0-.06.02-.06.02-.5-.16-.87-.02-1.08.48-4.64,1.48-9.33,2.09-14.1.73-3.55-1.01-6.71-2.75-9.61-5.47.78-.34,1.31-.3,1.83.15,3.52,1.85,7.28,2.94,11.24,3.06,4.12.13,8.26.01,12.39,0l-.02-.02Z"/>
      <path class="cls-6" d="M905.02,490.15c-.38,1.12-1.5,1.57-2.19,2.44-1.66,2.08-2.18,4.37-1.33,6.81.42,1.19.3,1.87-.62,2.66-1.41,1.21-2.73,2.51-4.09,3.77-.12-1.95-.72-3.81-.76-5.8-.06-3.33,1.42-5.77,3.94-7.62,1.48-1.09,3.13-2.03,5.04-2.26Z"/>
      <path class="cls-4" d="M1018.4,363.02c1.19,1.54.97,2.74.28,3.93-.53.92-1.33,1.57-2.25,2.08-3.34,1.89-6.89,2.13-10.91,1.5,1.37-1.22,2.84-1.15,4.11-1.58,1.42-.48,2.91-.73,4.33-1.22,2.67-.94,3.31-1.65,4.43-4.71Z"/>
      <path class="cls-10" d="M941.24,339.75c-.26.82-.86.8-1.39.94-.81.21-1.64.39-2.4.72-2.75,1.2-3.48,2.67-2.83,5.56.09.42.46.8.17,1.27-3.4-2.59-3.15-6.4.62-8.15,1.86-.86,3.83-1.28,5.84-.35Z"/>
      <path class="cls-10" d="M945.18,358.11c-4.72.87-9.24.38-12.78,3.8-.32-1.58.26-2.47,1.13-3.22,2.43-2.11,7.99-2.53,11.66-.58Z"/>
      <path class="cls-1" d="M997.07,352.98c-.17.17-.34.34-.51.5-1.51-.39-2.9-1.03-4.5-1.96,1.87.48,3.56.53,5.01,1.46Z"/>
      <path class="cls-6" d="M949.9,375.64c.51-.16,1.16.16,1.55-.43.72.29,1.64.23,2.12,1.37-1.39-.11-2.6-.17-3.67-.94Z"/>
      <path class="cls-9" d="M916.44,442.08c.12-1.81-.37-3.69.52-5.43.17,1.84.11,3.66-.52,5.43Z"/>
      <path class="cls-10" d="M894.99,470.43c.19.53.72.33,1.08.5-.74.56-1.55.85-2.72.63.4-.78.98-1.02,1.64-1.14Z"/>
      <path class="cls-10" d="M915.82,443.89c.19-.2.37-.39.56-.59.18.84-.08,1.58-.5,2.29-.05-.39-.1-.77-.14-1.16.07-.17.1-.35.08-.54Z"/>
      <path class="cls-10" d="M890.42,466.3c.21-.49.58-.64,1.08-.48-.25.4-.58.63-1.08.48Z"/>
      <path class="cls-10" d="M995.87,442.27c-.43-.29-.22-.49.1-.67-.03.22-.06.44-.1.67Z"/>
      <path class="cls-6" d="M950.27,486.8c-.33.02-.55-.12-.61-.45.34-.03.54.12.61.45Z"/>
      <path class="cls-11" d="M942.37,454.07c.11.11.22.21.31.33.01.02-.1.13-.15.19-.05-.17-.11-.35-.16-.52Z"/>
      <path class="cls-1" d="M989.18,426.62c-4.79-1.24-9.58-2.42-14.63-2.62,5.08,1.77,10.17,3.54,15.25,5.31.14,1.34-.01,2.57-1.16,3.48-7.62-1.93-15.24-3.89-22.87-5.78-7.91-1.96-15.84-3.83-23.74-5.82-.86-.22-2.39.06-2.37-1.43.02-1.22,1.34-1.39,2.23-1.86,1.4-.74,2.94-.47,4.52-.58-.7-1.42-2.21-.72-3.36-1.55,2.44-8.02,7.55-13.82,15.56-16.25,9.81-2.98,18.49-.35,25.55,7.21-.18,1.38.89,2.21,1.48,3.23,2.55,4.35,3.94,9.03,4.19,14.06.05.91.21,1.9-.65,2.6Z"/>
      <path class="cls-1" d="M988.01,436.48c5.29,1.15,5.78.58,3.42,5.9-3.94,8.89-10.96,14-20.8,14.28-7.01.2-13.19-2.5-18.43-7.18-3.32-2.97-6-6.42-7.54-10.66,1.09,0,1.63.77,2.2,1.53,5.16,6.89,12.23,10.28,20.65,10.82,5.71.37,10.56-2.14,14.81-5.73,2.61-2.2,4.72-4.82,5.25-8.38.15-.19.3-.39.45-.58Z"/>
      <path class="cls-3" d="M988.01,436.48c-.15.19-.3.39-.45.58-.39-.57-.95-.65-1.46-.3-.92.64-1.95,1.32-1.91,2.59.04,1.53-.77,2.06-2.09,2.5-2.01.67-4.07,1.37-5.87,2.47-2.37,1.44-5.18,1.46-7.57,2.72-1.49-.66-2.91.28-4.37.2-2.94-.16-5.73-.8-8-2.81-2.05-1.82-4.32-3.3-6.15-5.51-1.78-2.16-2.39-4-1.73-6.57.6-2.31.27-4.3-.72-6.01.56.05,1.13.04,1.68.15,2.17.44,2.25.45,2.38,2.68.25,4.28,2.05,7.68,5.42,10.33,3.37,2.64,7.09,2.89,11,1.7,3.19-.97,5.48-3.11,7.21-5.92,1.17-1.9,1.2-1.92,3.31-1.37,3.11.83,6.22,1.7,9.32,2.56Z"/>
      <path class="cls-7" d="M947.7,426.35c.99,1.71,1.32,3.7.72,6.01-.67,2.57-.06,4.41,1.73,6.57,1.83,2.21,4.09,3.69,6.15,5.51,2.27,2.01,5.06,2.65,8,2.81,1.46.08,2.88-.86,4.37-.2,2.39-1.26,5.19-1.28,7.57-2.72,1.8-1.09,3.86-1.8,5.87-2.47,1.32-.44,2.13-.97,2.09-2.5-.03-1.27,1-1.95,1.91-2.59.51-.36,1.07-.27,1.46.3-.54,3.55-2.64,6.17-5.25,8.37-4.26,3.59-9.1,6.1-14.81,5.73-8.42-.54-15.49-3.93-20.65-10.82-.57-.76-1.11-1.53-2.2-1.53-2.32-4.38-3.25-9.05-2.71-13.95,1.97.35,3.96.5,5.77,1.48Z"/>
      <path class="cls-10" d="M989.18,426.62c.86-.71.7-1.69.65-2.6-.25-5.02-1.65-9.71-4.19-14.06-.6-1.02-1.67-1.85-1.48-3.23,1.38.54,2.19,1.73,3.04,2.81,4.07,5.2,6.28,11.17,7.09,17.68.04.36-.05.73-.09,1.27-1.74-.65-3.37-1.26-5.01-1.87Z"/>
      <path class="cls-10" d="M988.64,432.78c1.15-.91,1.3-2.14,1.16-3.48,1.83.45,3.53,1.23,5.18,2.13.83.46,1.59,1.03,2.05,1.87.16.29.19.75.08,1.07-.19.57-.74.48-1.18.36-2.43-.64-4.85-1.3-7.28-1.96Z"/>
      <path class="cls-6" d="M971.59,435.17c.04,1.26-1.39,2.53-2.82,2.52-1.56-.01-2.68-1.07-2.72-2.56-.04-1.47.91-2.47,2.36-2.51,1.54-.04,3.14,1.24,3.18,2.54Z"/>
      <path class="cls-10" d="M942.83,444.58c-.28-.23-.53-.66-.22-.81.43-.2.32.37.44.61-.07.07-.15.13-.23.2Z"/>
      <path class="cls-1" d="M878.66,423.93c-4.42.51-8.71,1.7-13.05,2.62-.5-6.38,1.24-12.18,4.65-17.52.38-.59.51-1.19.39-1.86,6.94-7.57,15.48-10.48,25.42-7.84,7.67,2.04,12.63,7.45,15.6,14.71.67,1.63.52,1.81-1.21,2.23-.54.13-1.12.12-1.67.94,1.3.3,2.58-.02,3.72.42.35.14.74.18,1.07.35.91.45,2.18.83,2.04,2.01-.12,1.06-1.42,1.07-2.29,1.28-9.36,2.31-18.73,4.58-28.09,6.86-6.55,1.6-13.1,3.19-19.64,4.78.01-1.22.03-2.44.04-3.66,4.26-1.77,8.67-3.13,13.03-4.62.99-.26,2.09-.26,2.81-1.26-.92.32-1.94-.1-2.8.53Z"/>
      <path class="cls-7" d="M902.86,433.44c.02-1.78.77-3.47.58-5.28-.11-1,.61-1.23,1.38-1.41,2.81-.65,5.63-1.31,8.69-2.02.21,5.09-.82,9.67-2.84,14.07-.15.2-.29.4-.44.59,0,0,0,0,0,0-.63.02-.93.46-1.33.89-2.64,2.81-5.59,5.27-8.86,7.29-4.22,2.6-8.85,3.31-13.77,3.17-5.26-.15-9.58-2.12-13.45-5.52-2.75-2.42-4.69-5.34-6.04-8.7.13-.14.29-.17.46-.08,1.95.13,3.81.82,5.82.79,1.25-.02,2.18.92,2.9,1.97,3.32,4.83,10.07,7.29,15.74,6.15,3.56-.72,5.98-3.06,8.37-5.31,1.27-1.2,2.67-2.97,2.19-5.21,0,0,.02.05.02.05.6-.31.54-.88.58-1.42Z"/>
      <path class="cls-1" d="M866.78,436.5c1.35,3.36,3.29,6.28,6.04,8.7,3.87,3.41,8.2,5.37,13.45,5.52,4.92.14,9.55-.57,13.77-3.17,3.28-2.02,6.23-4.48,8.86-7.29.4-.42.7-.87,1.33-.89-.98,3.48-3.41,6.01-5.65,8.66-.59.7-1.29,1.32-1.93,1.97-1.62,1.15-3.23,2.31-4.85,3.46-3.43,1.23-6.77,2.66-10.48,3.03-5.68.57-10.85-.72-15.42-4-4.39-3.15-7.37-7.44-9.05-12.59-.73-2.23-.7-2.25,1.48-2.83.81-.22,1.56-.69,2.44-.58Z"/>
      <path class="cls-3" d="M902.26,434.81c.48,2.24-.92,4.01-2.19,5.21-2.39,2.25-4.81,4.6-8.37,5.31-5.66,1.14-12.42-1.33-15.74-6.15-.72-1.04-1.65-1.98-2.9-1.97-2,.03-3.86-.66-5.82-.79,3.42-1.32,7.08-1.75,10.57-2.79,1.41-.42,1.53.57,1.96,1.35,1.94,3.59,4.87,5.83,8.9,6.71,3.94.86,7.14-.5,10.09-2.94,1.38-1.14,2.2-2.74,3.5-3.93Z"/>
      <path class="cls-10" d="M870.64,407.16c.12.67-.02,1.27-.39,1.86-3.4,5.35-5.15,11.14-4.65,17.52-1.31.65-2.64,1.27-4.5,1.63.51-8.43,3.38-15.44,9.54-21.02Z"/>
      <path class="cls-10" d="M865.61,429.27c-.01,1.22-.03,2.44-.04,3.66-2.04.92-4.29,1.11-6.39,1.81-.45.15-.98.18-1.25-.27-.25-.41-.12-.9.16-1.31.48-.71,1.15-1.21,1.89-1.61,1.79-.97,3.64-1.82,5.64-2.27Z"/>
      <path class="cls-6" d="M886.19,437.7c-1.53-.09-2.69-1.34-2.54-2.74.15-1.36,1.47-2.39,3-2.35,1.43.04,2.54,1.11,2.53,2.44-.02,1.5-1.42,2.75-2.99,2.66Z"/>
      <path class="cls-2" d="M897.8,453.47c1.62-1.15,3.23-2.31,4.85-3.46,1.29.11,2.09.86,2.59,2.01-1.41,1.67-3.24,2.76-5.14,3.77-.36-1.17-1.92-1.16-2.3-2.31Z"/>
      <path class="cls-9" d="M878.66,423.93c.86-.63,1.88-.22,2.8-.53-.72,1-1.82,1-2.81,1.26,0-.24,0-.48.01-.72Z"/>
      <path class="cls-3" d="M902.86,433.44c-.04.53.02,1.11-.58,1.42-.04-.57.09-1.06.58-1.42Z"/>
      <path class="cls-1" d="M910.23,439.38c.15-.2.29-.4.44-.59.06.35-.14.51-.44.59Z"/>
      <path class="cls-1" d="M938.26,507.74c-5.61-2.19-11.03-1.76-16.54.99,1.35-3.18,5.15-5.65,8.6-5.59,3.38.06,6.44.96,7.94,4.59Z"/>
      <path class="cls-6" d="M921.02,493.42c.61.19,1.34.1,1.88.87-.15.88-.94,1.41-1.58,2.02-9.93,9.62-19.85,19.24-29.81,28.82-1.24,1.19-1.81,2.25-1.4,4.15,1,4.65-2.65,9.09-7.39,9.43-4.94.35-8.57-2.08-9.83-6.59-1.7-6.08,3.62-12.06,9.8-10.79,1.46.3,2.28.04,3.2-.89,1.38-1.41,2.86-2.73,4.2-4.18,1.02-1.11,1.76-.69,2.55.19-.87,1.39-2.48,2.08-3.28,3.54-1.11,1.01-2.28,1.96-3.3,3.05-.98,1.04-1.86,1.54-3.41,1.05-1.63-.51-3.33-.21-4.79.92-2.37,1.85-3.09,5.1-1.65,7.82,1.41,2.69,4.64,3.88,7.49,2.77,2.77-1.08,4.48-4.08,3.73-7.01-.33-1.29-.07-2.13.83-2.99,1.08-1.03,2.07-2.17,3.1-3.25,1.63-1.85,3.98-2.95,5.4-5.03,2.23-2.12,4.84-3.86,6.32-6.68,1.06-.05,1.57-.91,2.22-1.54,1.67-1.61,3.31-3.26,4.96-4.89.67-.76,1.22-1.67,2.02-2.25,3.2-2.32,5.74-5.24,8.07-8.37.23-.05.45-.11.68-.16Z"/>
      <path class="cls-4" d="M921.02,493.42c-.23.05-.45.11-.68.16-1.94-.86-4.1-.37-6.07-.99-.54-2.07-.64-2.12-2.19-1.21-2.29,1.35-3.81,3.54-5.78,5.24-.57.49-1.08,1.73-1.96.99-.83-.7-.14-1.77.34-2.54.74-1.2,1.77-2.19,2.93-2.97,1.38-.93,2.89-1.68,4.34-2.5.91,1.08,2.26.66,3.38.85,9.02,1.53,18.06,1.93,27.04-.3,1.58-.39,3.32-.5,4.63-1.71,2.72,1.39,5.21,2.96,5.93,6.28.49,2.29-1.04,4.22-3.37,3.84-1.74-.29-3.53-.61-5.1-1.47-4.96-2.72-10.16-2.91-15.5-1.54-1.29.33-2.22.6-1.91-1.32.09-.58-.49-1.1-1.07-1.11-1.65-.03-3.34-.58-4.94.3Z"/>
      <path class="cls-6" d="M946.98,488.44c-1.3,1.21-3.04,1.31-4.63,1.71-8.98,2.23-18.02,1.84-27.04.3-1.11-.19-2.46.23-3.38-.85,7.28-3.12,14.79-5.08,22.8-4.64,4.36.24,8.45,1.32,12.25,3.48Z"/>
      <path class="cls-7" d="M914.27,492.58c1.98.63,4.14.13,6.07.99-2.34,3.13-4.87,6.06-8.07,8.37-.8.58-1.35,1.49-2.02,2.25.06-1.87-1.16-2.44-2.72-2.66-.66-.59-1.3-1.17-.32-2.02.56-.49,1.11-.99,1.66-1.5.56-.53,1.08-.65,1.66,0,.4.45.88.71,1.43.19.52-.49.46-.95-.07-1.39-.93-.78-.49-1.41.21-2.06.75-.7,1.45-1.44,2.17-2.17Z"/>
      <path class="cls-5" d="M907.53,501.54c1.56.22,2.78.78,2.72,2.66-1.65,1.63-3.29,3.27-4.96,4.89-.65.63-1.16,1.5-2.23,1.54-.64-.74-.51-1.91-1.39-2.52.02-.17.07-.33.14-.48.79-.22,1.15-.77,1.17-1.56,1.49-.68,2.67-1.68,3.29-3.25.75-.1,1.15-.54,1.26-1.27Z"/>
      <path class="cls-8" d="M901.67,508.11c.88.61.75,1.78,1.39,2.52-1.48,2.82-4.09,4.57-6.32,6.68-.9-.48-1.61-1.43-2.82-1.18.04-.23.08-.47.12-.7,1.19-1.1,2.67-1.94,3.17-3.63.81-.06,1.2-.52,1.25-1.3,1.39-.37,1.97-1.82,3.2-2.4Z"/>
      <path class="cls-5" d="M893.92,516.14c1.21-.26,1.91.7,2.82,1.18-1.43,2.08-3.77,3.17-5.41,5.03-1.55-.03-2.06-.94-1.99-2.35.79-1.46,2.41-2.16,3.28-3.54.43-.1.87-.21,1.3-.31Z"/>
      <path class="cls-1" d="M897.22,511.81c-.5,1.69-1.98,2.53-3.17,3.63-.61-.78-1.9-1.27-.56-2.63,1.91-1.91,2.03-2.06,3.73-1Z"/>
      <path class="cls-6" d="M901.67,508.11c-1.23.58-1.81,2.03-3.2,2.4-.78-.65-1.34-1.3-.21-2.16.43-.33.84-.72,1.2-1.13,1.02-1.16,1.71-.54,2.36.4-.08.15-.12.31-.14.48Z"/>
      <path class="cls-6" d="M906.27,502.81c-.62,1.57-1.79,2.57-3.29,3.25-.66-.56-1.3-1.11-.34-1.97.55-.49,1.1-.99,1.58-1.55.85-.99,1.43-.25,2.06.27Z"/>
      <path class="cls-2" d="M892.18,464.78c.03-.06.06-.12.09-.18-.04.05-.07.1-.11.16,0,0,.02.02.02.02Z"/>
      <path class="cls-7" d="M984.03,491.33c-.04-1.34.22-2.59.88-3.79,1.25-2.27,1.17-2.77-1-4-1.96-1.11-2.7-2.72-2.69-4.87.01-1.73.56-3.12,2.16-3.96,1.71-.9,3.39-1.01,5.03.15.6.43,1.06,1.05,1.87,1.2,1.73.33,2.94-.25,4.01-2.15,1.28-2.27,3.31-3.47,5.78-3.3,2.48.17,4.34,1.6,5.23,4.1.98,2.75-.18,5.86-2.81,7.17-.67.33-1.4.52-2.11.77-2.07.72-2.94,2.29-2.24,4.32.53,1.53.92,3.04.82,4.67-.21,3.49-2.62,6.33-5.93,6.94-3.35.61-7.07-1.27-8.48-4.23-.47-.98-.47-1.99-.52-3.02ZM993.79,489.59c1.81,0,2.72-1.25,1.92-2.7-.45-.82-1.12-1.53-2.1-1.73-1.19-.25-2.28,0-2.9,1.15-.65,1.2.26,1.89,1.01,2.6.58.55,1.29.71,2.07.68ZM1001.4,472.78c-.79,0-1.28.45-1.41,1.3-.16,1.1.54,1.94,1.73,2,.86.05,1.73-.05,1.93-1.1.14-.75-1.27-2.11-2.25-2.2Z"/>
      <path class="cls-7" d="M878.98,353.71c-4.97,0-8.77-3.72-8.82-8.65-.05-4.89,3.8-8.86,8.56-8.95,5.52-.11,9.13,3.43,9.44,8.99.26,4.7-4.06,8.6-9.18,8.61ZM876.19,344.02c2.03-.05,4.22-2.08,4.12-3.82-.08-1.26-1.22-2.14-2.8-2.14-1.95,0-3.91,1.83-3.92,3.68-.01,1.37,1.07,2.32,2.61,2.28Z"/>
      <path class="cls-7" d="M851.49,371.66c2.27-1.93,5.54-1.61,7.21.91.84,1.27,1.54,2.09,3.24,2.05,1.45-.04,2.71.84,3.1,2.39.31,1.21.23,2.47-.78,3.39-1.16,1.05-2.57,1.29-3.89.48-1.32-.8-2.39-.46-3.67.05-2.52.99-5.02.22-6.51-1.8-1.49-2.02-1.36-4.93.32-7.03.25-.32.6-.42.98-.44-.1.44-.23.88-.29,1.32-.18,1.3.66,2.08,1.9,1.79,1.15-.27,1.94-1.21,1.75-2.12-.24-1.15-1.19-.93-1.98-.97-.46-.02-.92-.01-1.38-.02Z"/>
      <path class="cls-11" d="M915.82,443.89c.01.19-.01.36-.08.54-.04-.13-.1-.26-.11-.4,0-.04.12-.09.19-.14Z"/>
      <path class="cls-7" d="M933.44,388.63c.05,3.52-2.04,5.55-5.43,5.77-2.78.19-5.59-2.77-5.54-5.48.08-4.15,2.61-5.76,5.2-5.72,3.9.05,5.78,2.09,5.76,5.43ZM929.32,385.89c-.26-1.11-1.12-1.33-2.14-1.25-1.24.09-2.36,1.11-2.22,2.09.17,1.22,1.1,1.4,2.11,1.33,1.2-.09,2.32-1.16,2.24-2.17Z"/>
      <path class="cls-7" d="M964.88,328.04c.07-2.14,1.51-3.68,3.44-3.69,1.99,0,4.07,2.1,3.97,4.01-.1,1.92-2.08,3.71-4,3.63-2.19-.09-3.48-1.59-3.41-3.96ZM969.53,326.47c-.1-.91-.69-1.13-1.41-1.03-.83.12-1.39.61-1.35,1.5.03.78.58,1.21,1.3,1.18,1.01-.05,1.44-.73,1.46-1.65Z"/>
      <path class="cls-7" d="M850.98,418.55c.05,2.26-1.36,3.82-3.51,3.88-1.91.05-3.86-1.85-3.83-3.73.04-1.95,1.6-3.57,3.53-3.66,2.28-.11,3.75,1.25,3.8,3.51ZM847.01,418.48c.77-.03,1.43-.36,1.52-1.21.1-.95-.7-1.3-1.41-1.31-.9-.01-1.58.58-1.56,1.53.02.76.71.97,1.45,1Z"/>
      <path class="cls-7" d="M922.67,358.86c-.03,1.83-1.88,3.67-3.62,3.61-1.98-.07-3.7-1.77-3.64-3.6.07-2.25,1.59-3.7,3.79-3.62,2.1.08,3.51,1.54,3.47,3.61ZM919.79,357.22c-.1-.61-.42-1.03-1.05-1.09-.72-.07-1.67.94-1.51,1.61.14.6.6.93,1.21.89.83-.07,1.34-.52,1.35-1.4Z"/>
      <path class="cls-7" d="M1013.86,447.43c1.88,1.43,2.3,2.96,1.29,4.69-.86,1.47-2.81,2.23-4.34,1.7-1.78-.62-3.02-2.47-2.73-4.07.38-2.13,1.46-2.9,3.97-2.82-.26.26-.54.52-.78.8-.68.8-.6,1.54.3,2.1.84.52,1.98.19,2.32-.76.17-.48,0-1.09-.02-1.64Z"/>
      <path class="cls-6" d="M1013.86,447.43c.02.55.19,1.16.02,1.64-.34.94-1.47,1.28-2.32.76-.89-.55-.98-1.3-.3-2.1.24-.28.52-.53.78-.8.25,0,.5-.02.76-.03.29.14.57.27.86.41l.2.12Z"/>
      <path class="cls-7" d="M1013.65,447.31c-.28-.14-.57-.27-.86-.41.38-.08.67.07.86.41Z"/>
      <path class="cls-8" d="M889.34,519.99c-.07,1.4.44,2.31,1.99,2.35-1.03,1.09-2.02,2.22-3.1,3.25-.9.86-1.16,1.7-.83,2.99.74,2.93-.97,5.94-3.73,7.01-2.85,1.11-6.07-.08-7.49-2.77-1.43-2.72-.72-5.97,1.65-7.82,1.46-1.14,3.16-1.43,4.79-.92,1.55.49,2.43-.02,3.41-1.05,1.02-1.09,2.19-2.04,3.3-3.05Z"/>
      <path class="cls-6" d="M993.79,489.59c-.78.04-1.49-.13-2.07-.68-.75-.71-1.66-1.4-1.01-2.6.62-1.15,1.7-1.39,2.9-1.15.98.2,1.65.91,2.1,1.73.8,1.45-.11,2.69-1.92,2.69Z"/>
      <path class="cls-6" d="M1001.4,472.78c.98.08,2.39,1.45,2.25,2.2-.2,1.05-1.07,1.15-1.93,1.1-1.18-.06-1.89-.9-1.73-2,.12-.85.62-1.29,1.41-1.3Z"/>
      <path class="cls-6" d="M876.19,344.02c-1.54.04-2.62-.91-2.61-2.28.01-1.85,1.97-3.68,3.92-3.68,1.58,0,2.73.88,2.8,2.14.11,1.74-2.08,3.77-4.12,3.82Z"/>
      <path class="cls-6" d="M851.49,371.66c.46,0,.92,0,1.38.02.8.04,1.74-.18,1.98.97.19.91-.59,1.85-1.75,2.12-1.24.29-2.09-.49-1.9-1.79.06-.45.19-.88.29-1.32,0,0,0,0,0,0Z"/>
      <path class="cls-6" d="M929.32,385.89c.08,1.01-1.04,2.08-2.24,2.17-1.01.07-1.94-.11-2.11-1.33-.14-.98.98-2,2.22-2.09,1.02-.08,1.88.15,2.14,1.25Z"/>
      <path class="cls-6" d="M969.53,326.47c-.01.92-.45,1.6-1.46,1.65-.72.03-1.27-.4-1.3-1.18-.03-.89.52-1.38,1.35-1.5.72-.1,1.3.11,1.41,1.03Z"/>
      <path class="cls-6" d="M847.01,418.48c-.74-.03-1.43-.24-1.45-1-.03-.94.66-1.54,1.56-1.53.71.01,1.51.36,1.41,1.31-.09.86-.75,1.19-1.52,1.21Z"/>
      <path class="cls-6" d="M919.79,357.22c-.02.88-.53,1.34-1.35,1.4-.6.05-1.07-.28-1.21-.89-.15-.67.8-1.68,1.51-1.61.63.06.94.48,1.05,1.09Z"/>
    </g>
  </g>
</svg>