<?xml version="1.0" encoding="UTF-8"?>
<svg id="Sprite_Alien" xmlns="http://www.w3.org/2000/svg" viewBox="0 0 1164.68 667.67">
  <defs>
    <style>
      .cls-1 {
        fill: #070909;
      }

      .cls-1, .cls-2, .cls-3, .cls-4, .cls-5, .cls-6, .cls-7, .cls-8, .cls-9 {
        stroke-width: 0px;
      }

      .cls-2 {
        fill: #1a361f;
      }

      .cls-3 {
        fill: #416d48;
      }

      .cls-4 {
        fill: #256938;
      }

      .cls-5 {
        fill: #67ac4a;
      }

      .cls-6 {
        fill: #8cbb5a;
      }

      .cls-7 {
        fill: #4b9048;
      }

      .cls-8 {
        fill: #1e502c;
      }

      .cls-9 {
        fill: #191f1c;
      }
    </style>
  </defs>
  <g id="E4">
    <g>
      <path class="cls-9" d="M929.64,519.77c-9.39-.09-16.95-4.15-23.28-10.82-3.37-3.55-6.09-7.57-8.34-11.89-3.71-7.14-6.28-14.7-7.71-22.63-.41-2.26.74-3.21,2.92-2.36,7.04,2.75,14.38,4.33,21.84,5.29,9.68,1.24,19.21.09,28.66-2.08,8.16-1.87,15.88-4.86,23.24-8.81.21-.11.42-.24.64-.34,2.1-.98,3.14-.34,2.92,1.95-.48,4.92-1.5,9.76-2.94,14.49-2.68,8.81-6.33,17.15-12.39,24.24-4.94,5.78-10.82,10.18-18.34,12.08-2.37.6-4.76.93-7.22.87ZM966.41,470.79c-1.11.05-1.75.59-2.48.91-2.9,1.24-5.74,2.64-8.7,3.73-6.84,2.51-13.92,4.06-21.15,4.99-2.18.28-4.39.09-6.51.5-4.4.86-8.68-.08-12.99-.51-2.56-.26-5.13-.59-7.65-1.1-3.15-.64-6.39-.92-9.39-2.26-.97-.43-2.02-.94-3.44-.88.87,3.31,1.61,6.51,2.56,9.64,1.62,5.31,4.48,10.03,7.36,14.72,1.52,2.49,3.37,4.75,5.56,6.71,1.17,1.05,1.24,1.03,2.3-.1,1-1.06,1.96-2.14,3.16-3.01,4.55-3.3,9.6-3.57,14.82-2.33,1.77.42,3.24.39,4.89-.41,3.6-1.74,7.39-1.98,11.35-1.3,2.31.4,4.3,1.31,6.24,2.5.73.45,1.39.7,2.06-.26,2.18-3.11,4.56-6.11,6-9.66,2.17-5.32,3.98-10.77,5.48-16.31.47-1.75,1.08-3.57.54-5.57ZM928.85,509.09c-.48-1.18-.05-1.94.33-2.61.61-1.12-.01-1.46-.9-1.66-2.4-.54-4.81-.6-7.18.08-2.79.8-5.17,2.2-6.89,4.66-.71,1.01-.51,1.53.43,2.12,5.46,3.46,11.24,5.54,17.88,4.69,7.06-.9,12.87-4.06,17.75-9.11,1.05-1.09,1.06-1.47-.2-2.24-3.13-1.91-6.52-2.8-10.2-2.08-4.24.82-7.89,2.77-11.01,6.16Z"/>
      <path class="cls-9" d="M886.77,383.66c5.49,1.12,10.3,3.65,14.58,7.19,10.04,8.31,16.14,19.02,18.98,31.65.25,1.09.66,2.17.58,3.33-.07.15-.04.29.08.4,1.03,4.74,1.13,9.46-.13,14.18-.08-.23-.12-.62-.26-.65-1.8-.47-1.74-1.86-1.69-3.28.03-.89,0-1.78,0-2.67,0-.41-.05-.84-.51-1-.55-.19-.98.08-1.22.52-.43.78-.87,1.57-1.13,2.41-.45,1.43-1.32,2.59-2.24,3.71-.67.81-1.33,1.62-2.01,2.41-1.54,1.76-3.21,3.43-4.97,4.99-.78.69-1.84,1.52-2.98.37.8-1.19,1.1-2.46.53-3.84,1.59-1.53,3.44-2.87,4.74-4.62,3.63-4.9,6.92-10,5.92-16.58-.1-.64-.39-1.25-.4-1.89-.05-1.78-.6-3.48-.6-5.28,0-3.81-2.02-6.8-4.77-9.16-1.89-1.62-3.36-3.45-4.43-5.62-.38-.77-.88-1.38-1.53-1.84-3.25-2.28-6.7-3.57-10.67-1.96-.63.25-1.27.22-1.92.23q-.92-3.16-4.06-2.41c-.62.15-1.23.34-1.85.47-1.23.26-2.25.8-2.88,1.94-.76-.02-1.48.07-1.86.85-.66,1.35-1.88,2.18-2.89,3.21-.96.97-1.97,1.87-2.72,3.07-2.08,3.32-2.72,7.23-4.5,10.66-.24.46-.11,1.11-.19,1.67-.26,1.8.6,3.52.46,5.28-.31,3.75,1.17,7.12,2.01,10.63.17.72.49,1.36,1.21,1.73,1.55.8,2.77,1.85,3.4,3.59.25.69.99,1.3,1.64,1.74.88.6,1.68,1.25,2.41,2.01,2.91,3.04,6.54,4.23,10.65,4.22,1.06,0,1.97-.14,2.09-1.46,1.33-.18,2.25.31,2.38,1.71.13,1.42.95,2.33,1.99,3.13-.18.38-.42.71-.82.86-2.27.8-4.58,1-6.87.15-.77-.29-1.51-.55-2.34-.51-1.71.08-3.4.03-5-.7-.61-.28-.9,0-1.02.58-2.86-2.06-5.09-4.73-7.26-7.44-5.87-7.32-9.92-15.51-11.6-24.8-.1-.55-.08-1.12-.12-1.68,3.19-.51,3.72-.81,3.84-2.94.17-3.02,1-5.73,2.47-8.43,1.97-3.61,5.44-5.93,7.53-9.38.07-.12.29-.15.41-.25,1.42-1.17,3.23-1.38,4.85-2.05,3.52-1.46,7.11-2.02,10.87-1.77.24.02.49,0,.73-.03.33-.03.64-.13.77-.48.17-.47-.09-.77-.46-.98-.35-.2-.71-.4-1.07-.57-3.03-1.4-6.18-2.28-9.55-2.33-.57,0-1.13-.02-1.69-.08-.23-.03-.47-.22-.43-.49.04-.21.17-.46.34-.58.72-.51,1.56-.25,2.36-.3,1.02-.07,2.15.29,2.86-.83Z"/>
      <path class="cls-1" d="M959.76,388.76c4.52-3.35,9.65-5.26,15.21-5.57,7.75-.43,14.84,3.19,18.56,12.11,1.16,2.78,1.88,5.66,2.12,8.66-.05.05-.15.11-.14.14.04.11.11.22.17.32.21.81.23,1.62.1,2.44q-2.37.1-2.4,2.42c-.02,1.33.09,2.69-1.03,3.77-1.29-1.3-1.27-3.11-2.23-4.39-2.05-2.74-3.3-5.91-4.92-8.87-1.11-2.04-2.54-3.7-5.09-3.94-.96-.09-1.88-.4-2.75-.86-.67-.35-1.38-.51-1.98.19-.97-.32-2.07-.25-2.92-.96-.26-1.19-1.23-1.7-2.22-1.88-1.56-.28-3.11-.84-4.72-.55-2.74.5-4.58-.62-5.76-3.03Z"/>
      <path class="cls-9" d="M959.76,388.76c1.18,2.42,3.02,3.53,5.76,3.03,1.61-.29,3.17.27,4.72.55.99.18,1.96.68,2.22,1.88-.78.02-1.54-.07-2.29-.36-.65-.25-1.04.09-1.13.77-.38.08-.76.18-.96.56-.88-.05-1.82.07-2.64-.18-2.78-.85-5.21.21-7.25,1.71-1.72,1.27-3.34,2.77-4.91,4.28-.75.72-1.71,1.22-2.22,2.19-.94,1.77-2.44,2.97-4.12,3.99-.56.34-1.27.62-1.45,1.23-.6,2.07-1.85,4.02-1.7,6.22.17,2.59-.63,4.98-1.38,7.3-.7,2.16-.28,3.95.63,5.72.52,1.02.93,2.03,1.21,3.12.3,1.17.65,2.33,1.07,3.46.86,2.28,2.27,3.22,4.75,3.27.46.19.78.52.98.97-.12,2.38.21,4.5,2.9,5.36,0,.32-.01.64,0,.96.06,2,.08,1.97,2.02,2.7,1.11.42,2.34.5,3.37,1.15-.25.36-.61.56-1.03.5-1.66-.24-3.32-.47-4.97-.8-1.66-.32-2.79-1.33-3.85-2.68-1.49-1.88-2.76-4.06-4.78-5.4-2.69-1.78-3.9-4.15-3.87-7.27,0-.76-.31-1.41-.52-2.1-.13-.44-.42-.68-.89-.61-.53.08-.9.43-.92.96-.02.38.13.78.24,1.16.54,1.79.71,3.62.63,5.48-.03.72.08,1.42.26,2.14.44,1.76.19,2.01-1.93,2.32-1.89-7.07-1.28-14.09.4-21.09,3.04-12.64,9.37-23.2,19.71-31.24.61-.47.99-1.34,1.95-1.3Z"/>
      <path class="cls-1" d="M903.82,447.2c1.15,1.14,2.2.32,2.98-.37,1.76-1.55,3.43-3.22,4.97-4.99.68-.78,1.35-1.6,2.01-2.41.93-1.11,1.79-2.28,2.24-3.71.27-.84.71-1.63,1.13-2.41.24-.45.67-.72,1.22-.52.46.16.5.59.51,1,.01.89.04,1.78,0,2.67-.05,1.42-.12,2.8,1.69,3.28.13.04.17.43.26.65.08.52.04,1.03-.18,1.51-.31.23-.34.56-.31.9-.03.18-.07.36-.1.54-.35.26-.41.61-.35,1.01.04.35-.04.67-.25.95-.2.11-.27.29-.24.51-2.84,8.51-10.06,13.1-18.33,12.31-.72-.07-1.44-.22-2.15-.33-.35-.45-.84-.4-1.33-.38-4.57-.69-8.37-3.05-12.12-5.53-1.27-.84-2.54-1.69-3.56-2.84.12-.58.41-.86,1.02-.58,1.59.73,3.29.79,5,.7.83-.04,1.57.23,2.34.51,2.29.85,4.6.64,6.87-.15.4-.14.64-.48.82-.86,2.09.07,3.87-1.07,5.83-1.48Z"/>
      <path class="cls-9" d="M975.38,395.18c.6-.7,1.32-.54,1.98-.19.87.46,1.79.77,2.75.86,2.56.24,3.98,1.9,5.09,3.94,1.62,2.97,2.87,6.13,4.92,8.87.96,1.28.94,3.09,2.23,4.39,1.13-1.08,1.02-2.44,1.03-3.77q.03-2.32,2.4-2.42c.47,6-.79,11.75-2.61,17.39-1.42,4.4-3.35,8.59-6.02,12.38-3.33,4.71-6.89,9.23-11.6,12.68-.65.48-.9,1.59-2.02,1.39-1.3-1.29-2.72-1.76-4.56-1.07-1.75.66-3.65.67-5.49.49-1.04-.1-2.34,0-2.71-1.46,1.56-.83,1.18-2.63,1.95-3.86,2.47.46,4.96.48,7.46.52,1.64.03,3.05-.44,4.29-1.39,1.9-1.44,4.19-2.45,5.39-4.74.26-.5.99-.84,1.58-1.05,1.86-.66,2.73-2.18,3.52-3.78.88-1.8,1.66-3.65,2.64-5.4,1.24-2.21,1.42-4.59,1.31-6.99-.1-1.97-.64-3.98-.32-5.92.4-2.4-.28-4.48-1.4-6.43-1.32-2.3-2.65-4.6-3.67-7.04-.82-1.95-2.2-3.36-4.08-3.84-2.11-.54-3.19-1.84-4.06-3.58Z"/>
      <path class="cls-1" d="M960.77,448.66c.37,1.46,1.67,1.35,2.71,1.46,1.85.18,3.74.17,5.49-.49,1.84-.69,3.26-.22,4.56,1.07-.58.61-.94,1.54-2.02,1.48-.11-1.01-.76-1.13-1.57-.95-2.1.48-2.78,1.38-2.85,3.74-4.1,2.53-8.58,3.47-13.34,3.1-5.83-.45-10.15-3.39-13.15-8.31-1.39-2.28-2.52-4.69-2.91-7.37,2.12-.32,2.37-.56,1.93-2.32-.18-.72-.29-1.42-.26-2.14.08-1.86-.09-3.69-.63-5.48-.11-.38-.26-.78-.24-1.16.03-.53.39-.87.92-.96.47-.07.76.17.89.61.21.69.52,1.34.52,2.1-.03,3.12,1.18,5.49,3.87,7.27,2.02,1.33,3.29,3.51,4.78,5.4,1.06,1.34,2.19,2.35,3.85,2.68,1.64.32,3.31.55,4.97.8.42.06.78-.14,1.03-.5.48,0,.97,0,1.45,0Z"/>
      <path class="cls-1" d="M886.77,383.66c-.71,1.12-1.85.76-2.86.83-.79.06-1.63-.2-2.36.3-.17.12-.3.37-.34.58-.05.27.2.46.43.49.56.06,1.13.07,1.69.08,3.36.04,6.52.92,9.55,2.33.37.17.72.36,1.07.57.37.22.63.52.46.98-.13.35-.43.45-.77.48-.24.02-.49.04-.73.03-3.76-.25-7.35.31-10.87,1.77-1.62.67-3.43.88-4.85,2.05-.12.1-.34.13-.41.25-2.09,3.45-5.56,5.77-7.53,9.38-1.47,2.69-2.3,5.41-2.47,8.43-.12,2.13-.64,2.43-3.84,2.94-.14-.11-.16-.24-.05-.38.08-.38.08-.74-.21-1.04-.27-.64-.32-1.3-.2-1.98,2-.44,2.4-.72,2.37-2.38-.06-3.16.21-6.26.95-9.34.33-1.39.07-2.77-1.54-3.41,2.12-6.38,6.09-10.89,12.82-12.59.37.04.7-.03.93-.35.49-.18,1-.21,1.52-.13.47.03.96.1,1.36-.24.84-.28,1.68-.25,2.53-.04.57.45,1.23.28,1.87.27.5-.08,1-.06,1.47.14Z"/>
      <path class="cls-3" d="M920.03,523.21c7.24,2.27,14.3,2.1,21.36-1.51-1.03,2.66-5.4,5.42-8.89,5.81-4.81.54-9.04-.67-12.48-4.3Z"/>
      <path class="cls-8" d="M976.09,472.08c-.62-.31-.56-.94-.65-1.46-.19-1.12-.62-2.16-.97-3.23-1.33-4.03-4.42-5.3-8.35-4.93-.78.07-1.53.51-2.36.22,2.08-2.49,6.34-3.36,9.1-1.84,3.07,1.69,5.25,6.41,3.23,11.24Z"/>
      <path class="cls-8" d="M896.54,467.61c-3.07.31-6.24-.16-8.51,2.28-2.09,2.25-2.47,5.17-2.9,8.1-1.93-3.09-1.44-8.01.98-10.3,2.64-2.5,6.75-2.59,10.43-.08Z"/>
      <path class="cls-9" d="M864.27,396.6c1.61.64,1.87,2.02,1.54,3.41-.74,3.08-1.01,6.18-.95,9.34.03,1.66-.37,1.93-2.37,2.38-.58-5.18-.17-10.24,1.78-15.13Z"/>
      <path class="cls-9" d="M967.1,454.97c.07-2.36.75-3.26,2.85-3.74.81-.18,1.46-.06,1.57.95-1.32,1.17-2.79,2.11-4.42,2.79Z"/>
      <path class="cls-9" d="M885.3,383.52c-.64,0-1.3.18-1.87-.27.67-.2,1.27,0,1.87.27Z"/>
      <path class="cls-9" d="M897.61,457.43c.49-.02.98-.07,1.33.38-.51.12-.92-.12-1.33-.38Z"/>
      <path class="cls-9" d="M880.9,383.29c-.41.34-.89.27-1.36.24.43-.21.87-.4,1.36-.24Z"/>
      <path class="cls-9" d="M862.69,413.71c.29.3.29.66.21,1.04-.26-.31-.33-.65-.21-1.04Z"/>
      <path class="cls-9" d="M878.02,383.66c-.23.32-.56.39-.93.35.26-.26.54-.46.93-.35Z"/>
      <path class="cls-9" d="M920.36,442.82c-.03-.35,0-.67.31-.9.1.37-.07.65-.31.9Z"/>
      <path class="cls-9" d="M919.91,444.37c-.06-.4,0-.76.35-1.01.08.4-.04.74-.35,1.01Z"/>
      <path class="cls-9" d="M919.42,445.83c-.03-.22.03-.4.24-.51.08.24-.03.4-.24.51Z"/>
      <path class="cls-8" d="M920.99,426.23c-.12-.12-.15-.25-.08-.4.06.09.14.17.18.27.01.02-.06.09-.1.13Z"/>
      <path class="cls-9" d="M995.68,404.42c-.06-.11-.13-.21-.17-.32,0-.03.09-.09.14-.14.01.15.02.31.04.46Z"/>
      <path class="cls-8" d="M966.41,470.79c.54,2-.07,3.82-.54,5.57-1.5,5.54-3.31,10.99-5.48,16.31-1.45,3.55-3.82,6.55-6,9.66-.67.96-1.33.71-2.06.26-1.94-1.2-3.92-2.1-6.24-2.5-3.96-.68-7.75-.44-11.35,1.3-1.65.8-3.12.83-4.89.41-5.21-1.23-10.27-.97-14.82,2.33-1.19.87-2.16,1.95-3.16,3.01-1.06,1.12-1.13,1.14-2.3.1-2.19-1.96-4.04-4.22-5.56-6.71-2.87-4.69-5.74-9.41-7.36-14.72-.95-3.13-1.69-6.32-2.56-9.64,1.42-.07,2.47.45,3.44.88,3,1.33,6.24,1.62,9.39,2.26,2.52.51,5.09.84,7.65,1.1,4.31.43,8.59,1.37,12.99.51,2.12-.41,4.33-.22,6.51-.5,7.24-.93,14.31-2.48,21.15-4.99,2.96-1.08,5.8-2.49,8.7-3.73.73-.31,1.38-.86,2.48-.91Z"/>
      <path class="cls-7" d="M928.85,509.09c3.12-3.39,6.77-5.34,11.01-6.16,3.68-.71,7.07.17,10.2,2.08,1.27.77,1.25,1.15.2,2.24-4.88,5.05-10.7,8.21-17.75,9.11-6.64.84-12.41-1.24-17.88-4.69-.94-.59-1.13-1.11-.43-2.12,1.72-2.46,4.09-3.86,6.89-4.66,2.38-.68,4.79-.63,7.18-.08.88.2,1.51.54.9,1.66-.37.68-.8,1.43-.33,2.61Z"/>
      <path class="cls-8" d="M903.82,447.2c-1.96.41-3.75,1.55-5.83,1.48-1.04-.8-1.86-1.71-1.99-3.13-.13-1.4-1.05-1.89-2.38-1.71-3.5-.36-6.82-1.04-9.47-3.71-1.46-1.47-2.57-3.1-3.38-4.96-.6-1.39-1.32-2.53-2.94-2.91-.8-.19-1.45-.77-1.68-1.62-.92-3.4-2.24-6.75-1.11-10.38.13-.43.11-1.04-.1-1.42-1.02-1.78-.58-3.64-.24-5.41.86-4.57,2.02-9.01,6.33-11.77,1.39-.89,1.69-2.29,1.21-3.85-.12-.39-.22-.78-.32-1.17.63-1.13,1.65-1.68,2.88-1.94.62-.13,1.23-.32,1.85-.47q3.13-.76,4.06,2.41c.37,1.41,1.41,1.57,2.65,1.48,2.74-.22,5.27.27,7.44,2.14,1.43,1.23,2.57,2.67,3.57,4.25.81,1.28,1.15,3.11,3.23,3.12.12,0,.25.2.35.32,1.6,2.01,3,4.08,3.26,6.79.11,1.13.14,2.17-.01,3.3-.32,2.34.39,4.63.71,6.94.27,1.93.34,3.84-.04,5.77-.8,4.13-3.15,7.17-6.55,9.5-1.66,1.13-1.64,1.16-.95,3.13.58,1.38.27,2.64-.53,3.84ZM909.07,432.15c.47-.96.66-1.97.65-3.03-.05-4.59-1.8-8.23-5.89-10.58.86-1.77,2.41-.61,3.65-.79.82-2.77-.34-4.92-1.99-6.91-.28-.34-.63-.46-1.08-.35-1.64.42-3.32.7-4.9,1.26-1.43.5-2.78,1.08-4.35.2q.51,2.93-1.1,3.68c-1.25-2.95-1.92-6.05-2.58-9.19,2.15-.36,3.54.45,4.72,1.83.47.55.46,1.63,1.19,1.72.74.09,1.54-.37,2.31-.58.78-.22,1.56-.42,2.33-.66,1.42-.44,1.52-.66.91-2.08-1.21-2.85-4.66-6.4-9.35-6.22-1.2.05-2.55.54-3.58-.05-1.11-.62-.94-2.14-1.29-3.27-.25-.79-.61-1.09-1.4-.81-.38.13-.77.24-1.16.36-1.66.51-1.67.52-1.27,2.15.23.94.86,1.93.69,2.79-.21,1.1-1.66,1.1-2.52,1.67-3.78,2.48-5.74,5.8-5.16,10.42.51,4.03,2.54,7.06,5.99,9.15-1,1.56-1,1.56-2.35.65-.67-.45-1.38-.84-2.04-1.3-1.32-.92-1.82-.71-1.96.89-.18,2,.69,3.8,1.31,5.6.43,1.26,1.82,1.76,3.27,1.45.94-.2,1.82-.67,2.75-.91,2.02-.53,4.01-1.59,6.13-.3.32-1.19-.03-2.46-.55-2.69-1.74-.77-.21-1.64-.3-2.43,1.43-.28,2.24.2,2.64,1.7.85,3.2,1.86,6.35,2.8,9.53-.76.82-1.63.47-2.46.2-1.79-.58-3.11-1.73-3.91-3.43-.42-.89-.91-1.17-1.9-.76-1.11.46-2.33.67-3.48,1.04-1.59.51-1.67.69-1.06,2.21,1.72,4.33,5.85,7.07,10.64,7.12,1.21.01,2.57-.5,3.58.11,1.06.64.8,2.19,1.26,3.29.12.3.15.64.31.92.1.18.4.4.56.36,1.02-.21,2.14-.3,2.93-1.02.58-.52,0-1.21-.12-1.82-.08-.48-.2-.95-.31-1.42-.43-1.86-.42-1.84,1.22-2.85,2.73-1.68,5.18-3.63,6.19-6.87ZM891.39,430.38c.05-.03.13-.05.15-.09.02-.05.01-.15-.03-.18-.12-.11-.21-.06-.22.12,0,.05.06.1.1.16Z"/>
      <path class="cls-2" d="M881.91,396.64c.11.39.2.78.32,1.17.48,1.57.18,2.96-1.21,3.85-4.31,2.76-5.47,7.2-6.33,11.77-.33,1.78-.78,3.63.24,5.41.22.38.24.99.1,1.42-1.13,3.63.19,6.99,1.11,10.38.23.85.88,1.44,1.68,1.62,1.62.38,2.35,1.53,2.94,2.91.8,1.86,1.92,3.49,3.38,4.96,2.65,2.67,5.97,3.35,9.47,3.71-.11,1.32-1.03,1.45-2.09,1.46-4.12.01-7.75-1.18-10.65-4.22-.73-.76-1.54-1.41-2.41-2.01-.65-.45-1.39-1.05-1.64-1.74-.63-1.74-1.85-2.8-3.4-3.59-.72-.37-1.04-1.02-1.21-1.73-.83-3.51-2.32-6.88-2.01-10.63.14-1.76-.72-3.48-.46-5.28.08-.56-.05-1.2.19-1.67,1.78-3.44,2.42-7.34,4.5-10.66.75-1.2,1.77-2.1,2.72-3.07,1.01-1.03,2.23-1.86,2.89-3.21.38-.78,1.1-.87,1.86-.85Z"/>
      <path class="cls-2" d="M904.35,443.36c-.69-1.97-.71-1.99.95-3.13,3.4-2.33,5.75-5.37,6.55-9.5.38-1.93.31-3.84.04-5.77-.32-2.31-1.03-4.6-.71-6.94.15-1.13.12-2.17.01-3.3-.26-2.71-1.66-4.77-3.26-6.79-.1-.13-.23-.32-.35-.32-2.08,0-2.42-1.83-3.23-3.12-1-1.58-2.14-3.02-3.57-4.25-2.17-1.87-4.7-2.35-7.44-2.14-1.24.1-2.28-.06-2.65-1.48.65,0,1.29.03,1.92-.23,3.97-1.61,7.42-.32,10.67,1.96.65.46,1.15,1.07,1.53,1.84,1.07,2.18,2.54,4,4.43,5.62,2.75,2.36,4.76,5.34,4.77,9.16,0,1.81.56,3.51.6,5.28.02.63.31,1.25.4,1.89,1,6.58-2.3,11.68-5.92,16.58-1.3,1.75-3.14,3.09-4.74,4.62Z"/>
      <path class="cls-2" d="M975.38,395.18c.86,1.75,1.94,3.05,4.06,3.58,1.88.48,3.26,1.89,4.08,3.84,1.02,2.44,2.36,4.74,3.67,7.04,1.11,1.95,1.79,4.02,1.4,6.43-.32,1.94.23,3.94.32,5.92.12,2.4-.07,4.78-1.31,6.99-.98,1.74-1.76,3.6-2.64,5.4-.79,1.61-1.66,3.13-3.52,3.78-.59.21-1.32.55-1.58,1.05-1.2,2.29-3.49,3.29-5.39,4.74-1.24.94-2.65,1.41-4.29,1.39-2.5-.04-4.99-.06-7.46-.52-.12-1.47.86-1.5,1.9-1.45,2.36.1,4.7.04,6.83-1.2,1.9-1.11,3.65-2.38,4.92-4.21.47-.68.94-1.38,1.86-1.39,2.02-.02,3.25-1.45,3.8-2.94,1.13-3.03,3.08-5.72,3.27-9.19.14-2.51.39-4.95-.19-7.42-.16-.68-.47-1.33-.19-2.12.5-1.42.18-2.7-1.06-3.68-.47-.36-.61-.92-.79-1.47-1.1-3.48-2.93-6.44-6.09-8.43-.73-.46-1.18-1.11-1.11-2.02.12-1.47-.68-2.04-2.02-2.11-1.22-.3-2.45-.61-3.67-.91-.65-.35-.85-1.02-1.14-1.63.09-.67.48-1.02,1.13-.77.75.29,1.5.38,2.29.36.85.71,1.95.64,2.92.96Z"/>
      <path class="cls-8" d="M973.85,397.17c1.34.06,2.14.63,2.02,2.11-.07.91.38,1.56,1.11,2.02,3.16,2,4.99,4.96,6.09,8.43.17.55.32,1.1.79,1.47,1.25.98,1.56,2.26,1.06,3.68-.28.79.03,1.44.19,2.12.58,2.47.32,4.91.19,7.42-.19,3.48-2.13,6.17-3.27,9.19-.56,1.49-1.78,2.91-3.8,2.94-.92.01-1.38.7-1.86,1.39-1.27,1.83-3.02,3.1-4.92,4.21-2.13,1.24-4.46,1.3-6.83,1.2-1.04-.04-2.02-.02-1.9,1.45-.77,1.23-.39,3.03-1.95,3.86-.48,0-.97,0-1.45,0-1.03-.65-2.25-.73-3.37-1.15-1.94-.73-1.96-.7-2.02-2.7-.01-.32,0-.64,0-.96.54-1.1.96-2.22-.14-3.2-.87-.77-1.83-1.44-2.76-2.16-.2-.45-.52-.78-.98-.97-.18-.27-.33-.57-.55-.79-2.04-2.06-3.11-4.46-2.88-7.42.08-.95.18-1.95-.19-2.89-.81-2.04-1.09-4.06-.84-6.32.27-2.47.34-4.94.89-7.41.52-2.33,1.62-3.94,3.57-5.16,1.44-.89,3.12-1.57,4.13-2.92,1.57-2.09,3.82-3.46,5.42-5.49.27-.33.64-.5,1.06-.51,1.3-.01,2.49-.58,3.82-.56,1.98.04,2.81-.74,3.57-2.88.21-.38.58-.48.96-.56.29.61.49,1.28,1.14,1.63-.28.93-.61,1.85-.82,2.79-.28,1.23-.9,1.7-2.21,1.56-2.67-.28-5.17.4-7.37,1.92-5.25,3.64-7.61,11.12-1.97,16.39,1.19,1.11,2.44,2.14,3.82,2.99.85.53.99,1.07.67,2.01-.47,1.37-1.06,2.72-1.1,4.21-1,1.93-.99,4.21-2.19,6.17-2.13-.88-2.65-2.72-3.05-4.65-.19-.93.39-2.05-.34-2.81-.75-.77-1.95-.68-2.95-.99-1.06-.33-2.11-.77-3.3-.69-.39.97-.3,1.95-.37,2.91-.32,4.11,1.37,7.22,4.74,9.49.87.59,1.76,1.16,2.68,1.66.78.42.99.9.69,1.77-.44,1.29-.73,2.64-1.09,3.98,1.1.7,2.3.88,3.55,1.23.77-1.22.85-2.64,1.3-3.92.32-.91.75-1.3,1.79-1.04.77.19,1.62.18,2.42.12,4.68-.33,8.46-2.05,10.31-6.73,3.24-5.8.3-10.68-3.03-13.34-1.07-.86-2.26-1.57-3.41-2.33-.58-.39-.99-.82-.77-1.59.96-3.24,1.91-6.49,2.87-9.75,2.36.98,3.23,2.28,3.17,4.73-.02.66-.29,1.32.58,1.58,1.47.43,2.95.84,4.43,1.23.9.23,1.39-.14,1.44-1.09.11-1.94.16-3.86-.64-5.72-1.18-2.75-3.11-4.71-5.84-5.86-1.01-.42-1.35-.89-.98-2.01.35-1.05.85-2.12.62-3.3ZM977.33,417.07c-.1-.25-.28-.4-.55-.43-1.85-.35-3.7-.7-5.17-2.15-.17.33-.35.6-.45.89-.68,1.91-.71,1.97.98,3.06,1.36.88,2.46,2.05,3.72,3.03.25.61.77,1,1.23,1.44.3.28.62.45,1.07.27,1.36-.54,2.33-2.59,2.08-4.43-.17-1.28-.58-1.51-2.9-1.68h0ZM958.15,429.15c1.05-1.35,1.1-2.77,1.67-3.97.59-1.25.25-2.07-.94-2.77-2.94-1.75-5.09-4.16-5.92-7.57-.06-.25-.22-.41-.49-.42-.12.09-.33.17-.34.27-.19,2.82.42,5.56.97,8.3.1.5.58.71,1.06.89,1.12.42,2.43.52,3.28,1.44.91.99.07,2.37.72,3.82Z"/>
      <path class="cls-2" d="M968.08,395.19c-.76,2.14-1.59,2.92-3.57,2.88-1.33-.03-2.53.54-3.82.56-.42,0-.79.17-1.06.51-1.61,2.02-3.85,3.39-5.42,5.49-1.01,1.35-2.69,2.02-4.13,2.92-1.95,1.21-3.05,2.82-3.57,5.16-.55,2.47-.62,4.94-.89,7.41-.25,2.25.03,4.28.84,6.32.37.93.26,1.93.19,2.89-.24,2.96.84,5.36,2.88,7.42.22.22.37.53.55.79-2.48-.05-3.89-.99-4.75-3.27-.42-1.13-.77-2.29-1.07-3.46-.28-1.1-.69-2.1-1.21-3.12-.92-1.78-1.33-3.57-.63-5.72.75-2.32,1.55-4.71,1.38-7.3-.15-2.21,1.1-4.16,1.7-6.22.18-.61.89-.89,1.45-1.23,1.67-1.02,3.18-2.22,4.12-3.99.51-.97,1.47-1.47,2.22-2.19,1.57-1.51,3.19-3.01,4.91-4.28,2.04-1.5,4.47-2.56,7.25-1.71.82.25,1.76.13,2.64.18Z"/>
      <path class="cls-2" d="M951.04,438.48c.92.72,1.89,1.39,2.76,2.16,1.1.98.68,2.11.14,3.2-2.69-.86-3.02-2.99-2.9-5.36Z"/>
      <path class="cls-6" d="M903.83,418.54c4.08,2.35,5.84,5.99,5.89,10.58.01,1.06-.18,2.08-.65,3.03-1.91.25-3.8-.43-5.72-.15-.2.03-.47-.38-.7-.58.06-.64.17-1.28.17-1.92-.01-2.94-1.57-4.9-4.37-5.58-1.64-.39-2.12.05-1.69,1.64.51,1.86,1.04,3.71,1.65,5.54.37,1.13.34,2.41,1.23,3.35-1.24.87-2.66.6-4.03.62-.94-3.17-1.95-6.33-2.8-9.53-.4-1.5-1.21-1.98-2.64-1.7-2.09-.32-4.17-.65-6.26-.97-3.46-2.1-5.48-5.12-5.99-9.15-.59-4.63,1.38-7.95,5.16-10.42.86-.56,2.31-.57,2.52-1.67.16-.85-.46-1.84-.69-2.79-.41-1.63-.39-1.64,1.27-2.15.39-.12.78-.23,1.16-.36.79-.28,1.15.02,1.4.81.35,1.13.19,2.65,1.29,3.27,1.04.58,2.38.09,3.58.05,4.69-.18,8.14,3.37,9.35,6.22.6,1.42.5,1.64-.91,2.08-.77.24-1.55.44-2.33.66-.77.22-1.58.67-2.31.58-.73-.09-.72-1.17-1.19-1.72-1.18-1.39-2.57-2.19-4.72-1.83.66,3.14,1.33,6.24,2.58,9.19.07.33.14.67.21,1,.12.39.43.45.78.43,3.01-.03,5.93.52,8.78,1.48ZM887.45,407.44c-2.65,1.65-3.45,3.19-3.03,5.51.36,1.98,2.12,3.6,4.38,4.04,1.18.23,1.52-.08,1.18-1.24-.79-2.71-1.64-5.4-2.53-8.3Z"/>
      <path class="cls-5" d="M895.61,435.06c1.37-.02,2.79.25,4.03-.62,1.22-.79,2.16-1.86,3.01-3.03.24.2.5.61.7.58,1.92-.27,3.81.4,5.72.15-1.01,3.24-3.46,5.19-6.19,6.87-1.64,1.01-1.65.98-1.22,2.85.11.47.22.95.31,1.42.11.61.69,1.3.12,1.82-.79.72-1.91.81-2.93,1.02-.16.03-.45-.19-.56-.36-.16-.27-.19-.62-.31-.92-.46-1.1-.2-2.65-1.26-3.29-1.01-.61-2.38-.1-3.58-.11-4.79-.05-8.92-2.79-10.64-7.12-.61-1.52-.53-1.71,1.06-2.21,1.16-.37,2.37-.58,3.48-1.04,1-.41,1.48-.13,1.9.76.8,1.7,2.12,2.85,3.91,3.43.83.27,1.7.62,2.46-.2Z"/>
      <path class="cls-4" d="M883.91,422.86c2.09.32,4.17.65,6.26.97.09.78-1.44,1.66.3,2.43.52.23.87,1.5.55,2.69-2.11-1.29-4.1-.23-6.13.3-.93.24-1.81.71-2.75.91-1.45.3-2.84-.19-3.27-1.45-.62-1.8-1.49-3.6-1.31-5.6.14-1.59.64-1.8,1.96-.89.66.46,1.37.85,2.04,1.3,1.36.9,1.35.91,2.35-.65Z"/>
      <path class="cls-4" d="M894.27,416.63c-.07-.33-.14-.67-.21-1q1.61-.75,1.1-3.68c1.57.88,2.92.3,4.35-.2,1.59-.56,3.27-.84,4.9-1.26.45-.11.8,0,1.08.35,1.65,2,2.8,4.14,1.99,6.91-1.24.18-2.79-.98-3.65.79-2.85-.96-5.77-1.5-8.78-1.48-.13-.38-.44-.43-.78-.43Z"/>
      <path class="cls-4" d="M891.39,430.38c-.03-.05-.1-.11-.1-.16,0-.18.1-.23.22-.12.04.04.05.13.03.18-.02.04-.1.06-.15.09Z"/>
      <path class="cls-6" d="M961.19,428.13c.04-1.49.63-2.84,1.1-4.21.32-.93.18-1.48-.67-2.01-1.38-.85-2.63-1.87-3.82-2.99-5.63-5.28-3.27-12.75,1.97-16.39,2.2-1.52,4.7-2.2,7.37-1.92,1.32.14,1.94-.33,2.21-1.56.21-.94.55-1.86.82-2.79,1.22.3,2.45.61,3.67.91.24,1.18-.26,2.25-.62,3.3-.37,1.12-.03,1.59.98,2.01,2.73,1.14,4.66,3.11,5.84,5.86.8,1.87.75,3.78.64,5.72-.05.94-.55,1.32-1.44,1.09-1.48-.39-2.96-.8-4.43-1.23-.87-.26-.6-.92-.58-1.58.06-2.45-.82-3.75-3.17-4.73-.96,3.26-1.91,6.51-2.87,9.75-.23.77.18,1.21.77,1.59,1.15.76,2.34,1.47,3.41,2.33,3.34,2.67,6.27,7.55,3.03,13.34-1.88-1.27-3.67-2.75-6.16-2.53.68-3.6-.11-5.35-3.21-6.94-.49,1.37-.98,2.72-1.47,4.08-.7,0-1.41-.02-2.11,0-.78.02-1.14-.39-1.25-1.1ZM966.08,406.37c-2.13.08-3.91,1.68-4.33,3.77-.42,2.12.54,4.48,2.14,5.29.64.32.91-.08,1.05-.57.73-2.4,1.44-4.81,2.13-7.21.29-.98-.17-1.36-1-1.28Z"/>
      <path class="cls-5" d="M969.23,432.1c2.49-.22,4.28,1.26,6.16,2.53-1.85,4.67-5.64,6.4-10.31,6.73-.8.06-1.65.07-2.42-.12-1.04-.26-1.47.13-1.79,1.04-.45,1.28-.53,2.69-1.3,3.92-1.25-.35-2.45-.53-3.55-1.23.36-1.34.65-2.68,1.09-3.98.3-.87.08-1.35-.69-1.77-.92-.5-1.81-1.07-2.68-1.66-3.37-2.26-5.06-5.38-4.74-9.49.07-.96-.02-1.94.37-2.91,1.19-.08,2.24.37,3.3.69.99.31,2.2.21,2.95.99.73.75.15,1.87.34,2.81.39,1.93.92,3.77,3.05,4.65,1.2-1.96,1.19-4.24,2.19-6.17.11.71.47,1.12,1.25,1.1.7-.02,1.41,0,2.11,0-.16,1.53-.83,2.92-1.2,4.39-.45,1.78-.05,2.18,1.79,1.88,2.03-.33,3.19-1.73,4.09-3.41Z"/>
      <path class="cls-4" d="M958.15,429.15c-.66-1.45.18-2.83-.72-3.82-.85-.93-2.15-1.03-3.28-1.44-.48-.18-.96-.39-1.06-.89-.55-2.74-1.16-5.47-.97-8.3,0-.1.22-.18.34-.27.27,0,.43.17.49.41.84,3.41,2.98,5.82,5.92,7.57,1.18.7,1.53,1.52.94,2.77-.57,1.2-.62,2.62-1.67,3.97Z"/>
      <path class="cls-7" d="M975.86,421.47c-1.26-.98-2.37-2.15-3.72-3.03-1.69-1.1-1.66-1.15-.98-3.06.1-.29.28-.56.45-.89,1.47,1.46,3.32,1.8,5.17,2.15.18.14.36.29.55.43,0,0,0,0,0,0-.01,1.01-.07,2.03-.03,3.04.04,1.05-.53,1.37-1.44,1.36Z"/>
      <path class="cls-4" d="M975.86,421.47c.91,0,1.48-.3,1.44-1.36-.04-1.01.02-2.03.03-3.04,2.32.17,2.73.4,2.9,1.68.25,1.84-.72,3.9-2.08,4.43-.45.18-.78,0-1.07-.27-.46-.44-.98-.83-1.23-1.44Z"/>
      <path class="cls-4" d="M977.33,417.07c-.18-.14-.36-.29-.55-.43.27.03.45.18.55.43Z"/>
      <path class="cls-8" d="M902.65,431.42c-.85,1.17-1.79,2.24-3.01,3.03-.89-.94-.85-2.22-1.23-3.35-.61-1.83-1.14-3.68-1.65-5.54-.43-1.59.05-2.03,1.69-1.64,2.8.67,4.36,2.64,4.37,5.58,0,.64-.11,1.28-.17,1.92Z"/>
      <path class="cls-8" d="M887.45,407.44c.89,2.9,1.74,5.59,2.53,8.3.34,1.16,0,1.47-1.18,1.24-2.26-.43-4.02-2.05-4.38-4.04-.43-2.32.37-3.86,3.03-5.51Z"/>
      <path class="cls-8" d="M894.27,416.63c.34,0,.65.05.78.43-.35.02-.66-.04-.78-.43Z"/>
      <path class="cls-8" d="M969.23,432.1c-.91,1.68-2.06,3.08-4.09,3.41-1.84.3-2.24-.1-1.79-1.88.37-1.47,1.05-2.86,1.2-4.39.49-1.36.98-2.71,1.47-4.08,3.1,1.59,3.89,3.34,3.21,6.94Z"/>
      <path class="cls-8" d="M966.08,406.37c.83-.08,1.28.29,1,1.28-.7,2.41-1.41,4.81-2.13,7.21-.15.49-.41.89-1.05.57-1.6-.81-2.56-3.16-2.14-5.29.42-2.1,2.2-3.69,4.33-3.77Z"/>
    </g>
  </g>
</svg>