<?xml version="1.0" encoding="UTF-8"?>
<svg id="Sprite_Alien" xmlns="http://www.w3.org/2000/svg" viewBox="0 0 471.47 423.94">
  <defs>
    <style>
      .cls-1 {
        fill: #1a361f;
      }

      .cls-1, .cls-2, .cls-3, .cls-4, .cls-5, .cls-6, .cls-7, .cls-8, .cls-9, .cls-10, .cls-11 {
        stroke-width: 0px;
      }

      .cls-2 {
        fill: #d5d74e;
      }

      .cls-3 {
        fill: #416d48;
      }

      .cls-4 {
        fill: #256938;
      }

      .cls-5 {
        fill: #67ac4a;
      }

      .cls-6 {
        fill: #c2d8a7;
      }

      .cls-7 {
        fill: #8cbb5a;
      }

      .cls-8 {
        fill: #4b9048;
      }

      .cls-9 {
        fill: #1e502c;
      }

      .cls-10 {
        fill: #849f43;
      }

      .cls-11 {
        fill: #191f1c;
      }
    </style>
  </defs>
  <g id="Faces_ALIEN">
    <g id="E2">
      <g>
        <path class="cls-11" d="M300.08,172.55c-.36,12.91-5.65,24.72-14.87,34.88-4.52,4.99-9.67,9.17-16,11.64-4.02,1.57-8.16,2.65-12.59,1.8-6.55-1.25-10.85-5.16-13.49-11.11-2.39-5.38-3.26-11.04-2.77-16.87,1.13-13.49,6.42-25.19,15.55-35.16,4.05-4.42,8.82-7.9,14.44-10.1,4.61-1.81,9.37-2.76,14.28-1.46,6.16,1.63,10.25,5.71,12.77,11.43,1.96,4.45,2.71,9.16,2.68,14.94ZM293.49,158.21h0c-.03-1.95-1.29-3.32-2.5-4.58-4.66-4.86-10.35-5.54-16.56-3.79-2.08.33-3.91,1.33-5.81,2.14-3.51,1.89-6.71,4.18-9.39,7.16-4.71,3.8-7.54,8.95-10.25,14.18-1.6,3.08-2.92,6.28-3.48,9.74-1.37,3.31-1.68,6.81-1.81,10.35-.18,2.08-.26,4.16.14,6.23-.21,3.19,1.13,6,2.21,8.87.08.27.17.53.53.5h-.01c-.11.43.11.76.31,1.12,3.95,7.07,12.4,9.65,20.18,6.16,3.21-1.07,6.02-2.89,8.76-4.83.35-.25.57-.55.58-.98h0c.42.06.75-.08,1-.43,3.16-1.92,5.36-4.84,7.79-7.52,1.8-2,3.22-4.27,4.49-6.61.8-1.48,2.02-2.75,2.33-4.49,1.39-2.14,2.11-4.57,2.77-6.97.55-2.01,1.38-4.02,1.1-6.19.65-.56.52-1.34.52-2.04.01-3.07-.02-6.14-.04-9.21-.2-2.92-.77-5.73-2.46-8.21,0-.29-.11-.5-.41-.58Z"/>
        <path class="cls-11" d="M166.04,171.18c-.1-5.28.73-10.14,2.95-14.67,4.22-8.6,12.82-12.54,22.15-10.25,8.19,2.01,14.8,6.54,20.18,12.88,9.53,11.25,14.75,24.15,14.31,39.06-.12,4.09-1.01,8.06-2.68,11.8-4.21,9.44-13.52,13.26-23.75,9.95-7.42-2.4-13.38-6.88-18.46-12.62-7.08-8-12.03-17.1-13.96-27.69-.52-2.88-.84-5.79-.74-8.47ZM171.91,159.19c-.26.08-.39.26-.42.53-1.39,2.23-1.91,4.68-1.96,7.27-.02,4.1-.47,8.22.62,12.27.28,3.56,1.6,6.82,2.86,10.1,2.05,4.32,4.19,8.58,7.26,12.3,2.47,3.35,5.17,6.47,8.69,8.79,2.83,2.71,6.24,4.43,9.85,5.8,4.23,2.02,8.56,2.19,12.9.5,3.87-1.5,6.59-4.22,7.92-8.22,1.4-2.48,2.33-5.1,2.34-7.99.61-2.18.73-4.41.61-6.66-.04-1.93-.33-3.82-.71-5.71-.31-1.55-.18-3.21-1.19-4.58-.02-.32-.05-.64-.07-.96.08-.22.01-.4-.16-.54-1.98-7.27-5.77-13.6-10.24-19.57-.72-.96-1.4-1.99-2.52-2.58-.15-.12-.3-.25-.45-.37l-.06-.08c-.12-.69-.62-1.12-1.11-1.52-2.47-2.04-5.03-3.95-7.8-5.56-2.3-1.21-4.64-2.3-7.25-2.69-4.19-1.33-8.28-1.01-12.18.96-3.54,1.79-6.04,4.5-6.93,8.49h0Z"/>
        <path class="cls-3" d="M201.36,266.05c-.01.66-.02,1.31-.03,1.97-.22.63-.44,1.26-.66,1.89,0,0,0,0,0,0-.28.07-.41.26-.45.53,0,0-.01.01-.01.01-.27.05-.44.2-.5.47-.85.26-1.64.68-2.55.75-3.17.24-5.53-2.17-5.07-5.31.19-1.28.54-2.54.88-3.79.46-1.69.02-3.05-1.38-4.07-1.14-.83-2.02-1.86-2.53-3.18,1.14-1.32.17-2.6-.08-3.89.24-.05.53-.02.71-.15,2.02-1.48,4.29-2.17,6.77-2.34,1.1-.07,1.84-.76,2.51-1.68,1.16-1.6,2.79-3.18,4.73-3.05,3.41.24,6.7-.18,10.02-.64.08-.01.16,0,.24,0,1.77-.07,2.95.66,3.36,2.44,0,.48.04.96-.03,1.42-.19,1.18.45,1.55,1.47,1.6-.51.36-1.09.4-1.68.46-.13.12-.63,0-.28.44-.03.88-.62,1.5-1.11,2.1-2.62,3.19-2.67,6.82-1.98,10.6.4,2.23,1.17,4.38,1.36,6.65.09,1.14.1,2.28-.18,3.38-.66,2.66-3.3,4.42-6.09,4.11-2.54-.28-4.61-2.41-4.7-5.07-.07-2.05-.2-4.15.71-6.11.58-1.13.56-2.34.33-3.53-.27-1.41-1.46-2.11-2.91-1.86-1.21.21-1.75.99-1.56,2.53.14,1.11.46,2.2.7,3.3ZM207.2,246.14c-2.69-.7-5.18.14-7.07,2.76-.73,1.01-1.83,1.47-3.13,1.65-1.34.19-2.74.28-3.99.98-2.27,1.26-2.55,3.36-.64,5.08.3.27.61.53.91.81,1.61,1.51,2.26,3.3,1.66,5.48-.3,1.09-.56,2.19-.85,3.29-.32,1.21-.07,2.27.92,3.06,1.01.81,2.11.64,3.22.16,1.25-.55,1.18-1.67,1.09-2.71-.12-1.36-.51-2.71-.6-4.07-.17-2.57,1.34-4.27,3.76-4.41,2.43-.14,4.48,1.59,4.63,3.98.07,1.13-.03,2.26-.26,3.38-.4,1.9-.95,3.78-.78,5.76.08.92.26,1.77.95,2.43,1.1,1.04,2.4,1.35,3.82.84,1.36-.48,2.02-1.51,2.16-2.95.3-3.05-.52-5.93-1.19-8.86-.92-4.01-.59-7.88,1.9-11.38.56-.79,1.07-1.63,1.47-2.51.42-.9.58-1.95-.03-2.8-.69-.95-1.81-.7-2.7-.42-1.6.51-3.21.41-5.22.43Z"/>
        <path class="cls-9" d="M194.42,238.9c2.03-.97,4.2-1.28,6.4-1.11,3.26.25,6.01-.76,8.43-2.94,1.01-.91,2.22-1.61,3.35-2.4,3.86-2.72,8.05-3.23,12.51-1.85,1.24.38,2.47.79,3.67,1.26,3.42,1.34,6.82,1.18,10.22-.07,1.82-.67,3.65-1.32,5.49-1.96,4.72-1.66,9.1-.71,13.25,1.8.83.5,1.61,1.1,2.41,1.65,1.76,1.2,3.61,2.04,5.83,2.17,2.34.14,4.64.65,6.52,2.26-.57.32-1.16.55-1.83.52-.71-.04-1.24.26-1.58.89-.36-.09-.73-.19-1.09-.28-4.2-.47-7.98-1.97-11.36-4.52-.76-.58-1.7-.94-2.58-1.36-3.03-1.47-6.12-1.31-9.22-.23-1.68.58-3.38,1.15-5.04,1.79-3.96,1.52-7.89,1.56-11.86.03-1.36-.53-2.76-.94-4.17-1.32-3.28-.89-6.4-.68-9.27,1.39-1.3.94-2.68,1.77-4.02,2.65-.16.16-.31.33-.47.49h0c-.17.14-.34.29-.5.43-.36.15-.82.21-1.08.47-1.59,1.61-3.56,2.06-5.73,2.04-1.13,0-2.25.03-3.38.05-.8-.12-1.59-.04-2.38.1-.54-1.03-1.96-.94-2.52-1.95Z"/>
        <path class="cls-3" d="M276.86,254.83c-.69.57-.52,1.48-.87,2.2-.74,1.51-1.9,2.46-3.52,2.65-1.69.2-2.95-.66-3.84-2.06-.22-.34-.39-.71-.63-1.04-.4-.54-.88-1.04-1.62-.74-.7.28-.82.96-.76,1.64.07.89.22,1.77.25,2.66.1,2.81-1.47,4.73-3.95,4.9-2.55.18-4.71-1.61-5.04-4.24-.19-1.47-.09-2.95.42-4.32,1.04-2.78.52-5.22-1.25-7.49-.09-.12-.12-.29-.18-.44.01-1.19.02-2.37.03-3.56.57-1.11,1.57-1.72,2.72-1.82,4.08-.36,7.96-.03,10.83,3.48.82,1.01,1.81,1.78,3.14,2.17,1.52.45,2.73,1.4,3.29,2.99.63.91.12,2.18.98,3.02ZM267.73,247.87c-.15-.18-.3-.35-.45-.53-1.74-2.19-6.8-3.17-9.11-1.8-.88.52-.98,1.26-.68,2.09.19.52.57.98.86,1.47,1.28,2.19,1.85,4.47,1.01,6.99-.44,1.31-.67,2.67-.59,4.07.12,1.94,1.4,3.17,3.08,2.95,1.51-.2,2.44-1.68,2.19-3.5-.1-.72-.3-1.43-.33-2.16-.06-1.76.57-2.77,1.94-3.29,1.45-.56,2.53.1,3.48,1.07.5.52.85,1.19,1.33,1.73,1.16,1.3,2.74,1.11,3.6-.4,1.31-2.29.49-4.5-2.1-5.63h.01c-1.37-1.08-3.17-1.58-4.26-3.05Z"/>
        <path class="cls-1" d="M255.9,244.99c-.01,1.19-.02,2.37-.03,3.56-1.13-.16-2.25-.08-3.36.19-2.39.58-4.64.19-6.77-1.01-1.48-.83-2.95-1.67-4.43-2.5-4.69-2.63-9.37-2.59-14.04.05-1.33.76-2.64,1.56-3.97,2.33-1.41.82-2.87,1.48-4.55,1.42-1.02-.05-1.66-.42-1.47-1.6.07-.46.02-.95.03-1.42,1.95.31,3.66-.24,5.29-1.33,1.35-.9,2.77-1.71,4.23-2.41,5.14-2.45,10.29-2.73,15.39.15,1.41.8,2.82,1.62,4.25,2.38,1.76.93,3.55,1.51,5.61.87,1.22-.38,2.54-.46,3.81-.68Z"/>
        <path class="cls-1" d="M276.86,254.83c-.86-.83-.35-2.11-.98-3.02,2.45.02,2.79-.4,1.97-2.58-1.68-4.44-4.22-8.14-8.76-10.11.34-.63.87-.93,1.58-.89.67.03,1.26-.19,1.83-.52,4.62,2.77,7.36,6.96,8.68,12.04.81,3.14-.93,4.98-4.32,5.07Z"/>
        <path class="cls-3" d="M272.37,280.28c-2.14-.01-3.84-1.38-4.34-3.51-.34-1.46-.11-2.88.33-4.29.5-1.61,1.3-3.12,1.55-4.83.18-1.23.97-1.6,2.1-1.05,3.17,1.56,6.16,6.8,5.02,10.18-.74,2.21-2.37,3.52-4.65,3.5ZM271.82,268.87c-1.03,2.45-2.05,4.57-1.85,7.02.09,1.17.64,1.99,1.81,2.3,1.22.32,2.3-.08,2.97-1.1.46-.69.74-1.47.59-2.3-.39-2.29-1.35-4.27-3.52-5.92Z"/>
        <path class="cls-1" d="M194.42,238.9c.56,1.01,1.97.92,2.51,1.95-.65.32-1.36.55-1.95.96-3.35,2.35-6.03,5.14-6.02,9.61.25,1.29,1.22,2.57.08,3.89-2.63-.98-3.86-2.43-3.37-4.78,1.08-5.18,3.61-9.41,8.74-11.63Z"/>
        <path class="cls-3" d="M181.34,275.35c-3.49.07-5.52-2.84-4.3-6.12.44-1.19,1.22-2.08,2.21-2.84,1.59-1.21,3.45-1.8,5.37-2.17,1.66-.32,2.44.51,2.2,2.17-.23,1.61-.43,3.22-.76,4.81-.52,2.52-2.38,4.1-4.72,4.15ZM179.28,269.52c-.88,1.88-.7,3.05.59,3.69,1.51.75,3.37.06,3.92-1.67.52-1.65,1.02-3.37.71-5.32-1.5.3-2.93.43-3.78,1.84-.6.37-1.08.85-1.44,1.46Z"/>
        <path class="cls-3" d="M223.16,255.22c2.13-3.73,5.48-5.39,9.47-5.8,4.74-.49,8.93.69,11.94,4.84-7.3-3.15-14.39-2.51-21.41.96Z"/>
        <path class="cls-3" d="M181.89,246.08c-.87,6.69.11,12.14,7.47,14.28-3.73,1.1-7.54-.85-8.96-3.24-1.8-3.01-1.35-7.48,1.5-11.05Z"/>
        <path class="cls-3" d="M277.98,260.24c6.62-2.56,8.23-7.54,6.97-14.01,2.41,1.74,3.4,6.14,2.23,9.27-1.26,3.38-4.74,5.29-9.2,4.74Z"/>
        <path class="cls-1" d="M216.79,249.93c-.36-.43.14-.32.28-.44-.09.15-.18.29-.28.44Z"/>
        <path class="cls-4" d="M276.41,210.46c-.01.43-.22.73-.58.98-2.74,1.93-5.54,3.75-8.76,4.83-.5-.56-1.17-.43-1.81-.45-6.31-.18-11.91-2.37-17.03-5.96-.52-.36-.92-.93-1.66-.87,0,0,.01,0,.01,0-.05-.3-.24-.45-.53-.5-1.09-2.87-2.43-5.67-2.21-8.87,1.48,1.49,2.88,3.08,4.47,4.46,5.23,4.52,11.17,7.28,18.25,7.38,3.34.05,6.59-.33,9.83-1.01Z"/>
        <path class="cls-10" d="M276.41,210.46c-3.24.67-6.49,1.06-9.83,1.01-7.08-.1-13.02-2.86-18.25-7.38-1.59-1.37-2.98-2.97-4.47-4.46-.41-2.07-.32-4.15-.14-6.23.77.72,1.16,1.71,1.77,2.53,1.04,1.39,1.72,3.1,3.38,3.96.32.41.14,1.1.76,1.34.13.14.27.28.4.42h-.01c.04,1.14.75,1.92,1.47,2.7,2.75,2.97,6.25,4.53,10.14,5.31,3.1.62,6.09.39,8.91-1.17,1.36-.02,2.64-.3,3.85-.93,3.16-1.17,6.3-2.38,9.03-4.42.54-.4,1.11-.61,1.77-.64-2.43,2.68-4.63,5.6-7.79,7.52-.42-.06-.8-.03-1,.43h0Z"/>
        <path class="cls-10" d="M293.9,158.79c1.69,2.48,2.26,5.29,2.46,8.21-.72-.34-.89-1.11-1.31-1.67-1.73-2.29-3.22-4.82-5.96-6.12-.03-.06-.05-.13-.09-.17-.03-.03-.09-.02-.14-.02l.22.2c-.27.85.49,1.57.3,2.41-1.51-1.33-3.2-2.55-3.22-4.88.29-.66-.32-.34-.52-.48l.04.03c-1.15-2.06-3.11-2.36-5.2-2.38l-2.02-.05c-2.18-1.37-4.67-1.25-7.09-1.5-.92-.1-1.91.33-2.74-.39,1.9-.82,3.73-1.81,5.81-2.14,6.11.21,11.46,2.39,16.16,6.24.93.76,1.93,1.43,2.9,2.14,0,0,0,0,0,0,.01.28.16.46.41.58Z"/>
        <path class="cls-4" d="M285.19,202.51c-.66.03-1.23.24-1.77.64-2.73,2.04-5.87,3.25-9.03,4.42-.22-.11-.74.02-.43-.51.07-.12.28-.15.42-.23,4.79-2.49,8.56-6.03,11.27-10.73,1.18-2.04,2.3-4.13,3.17-6.29,1.17-2.91,2.43-5.86,2.12-9.14.7-.38.53-1.06.58-1.67.05-.61-.13-1.28.49-1.73.8,2.66,1.23,5.32.68,8.12-.39,1.97-.46,4.01-.67,6.02-.31,1.74-1.53,3.01-2.33,4.49-1.27,2.34-2.69,4.61-4.49,6.61Z"/>
        <path class="cls-10" d="M245.52,183.06c.56-3.46,1.88-6.66,3.48-9.74,2.71-5.23,5.54-10.39,10.25-14.18.86.23,1.55-.28,2.29-.55,2.12-.77,4.29-1.3,6.56-1.31-1.58,1.1-3.19,2.16-4.73,3.32-.73.54.11.48.34.63-.27.39-.7.46-1.12.55-4.6,1.6-8.59,4-10.84,8.54-1.23,2.5-2.61,4.98-2.66,7.89-.71,1.81-.12,3.64-.11,5.47-.53-.31-.85-.3-.92.45-.18,1.98-.41,3.95-.62,5.93-1.34-2.13-1.41-4.61-1.92-6.98Z"/>
        <path class="cls-4" d="M289.08,159.2c2.75,1.3,4.24,3.83,5.96,6.12.43.57.59,1.33,1.31,1.67.02,3.07.05,6.14.04,9.21,0,.7.13,1.48-.52,2.04-.43-.33-.36-.85-.53-1.28-.91-2.44-1.43-5.06-3.23-7.1-.15-1.15-1.35-1.69-1.63-2.77.13-1.93-.73-3.65-1.12-5.47.19-.84-.57-1.56-.3-2.41h0Z"/>
        <path class="cls-4" d="M268.1,157.27c-2.27.01-4.44.54-6.56,1.31-.75.27-1.43.78-2.29.55,2.68-2.98,5.88-5.27,9.39-7.16.83.72,1.82.3,2.74.39,2.42.25,4.91.13,7.09,1.5-3.5.55-6.83,1.59-9.93,3.34-.15.02-.29.04-.43.07Z"/>
        <path class="cls-10" d="M246.58,208.98c.74-.06,1.14.51,1.66.87,5.11,3.59,10.72,5.79,17.03,5.96.63.02,1.31-.11,1.81.45-7.78,3.49-16.23.91-20.18-6.16-.2-.35-.42-.69-.31-1.13Z"/>
        <path class="cls-10" d="M292.13,169.86c1.79,2.04,2.31,4.66,3.22,7.1.16.44.1.96.53,1.28.29,2.18-.55,4.18-1.1,6.19-.66,2.41-1.38,4.84-2.77,6.97.21-2.01.28-4.04.67-6.02.55-2.8.12-5.46-.68-8.12-.17-.51-.53-.96-.43-1.54.62-.47.43-1.16.46-1.78.05-1.36.07-2.73.1-4.09Z"/>
        <path class="cls-4" d="M293.5,158.21c-.97-.71-1.97-1.38-2.9-2.14-4.71-3.85-10.05-6.03-16.16-6.24,6.21-1.75,11.9-1.06,16.56,3.79,1.21,1.26,2.46,2.63,2.5,4.59Z"/>
        <path class="cls-4" d="M245.52,183.06c.5,2.36.58,4.84,1.92,6.98.08.29.16.58.23.87-.34,3.1.09,6.09,1.19,8.99-1.67-.86-2.35-2.57-3.38-3.96-.61-.82-1-1.81-1.77-2.53.13-3.53.44-7.03,1.81-10.35Z"/>
        <path class="cls-4" d="M276.4,210.45c.19-.46.58-.49,1-.43-.24.35-.58.49-1,.43Z"/>
        <path class="cls-10" d="M246.07,208.5c.29.05.48.2.53.5-.36.03-.45-.23-.53-.5Z"/>
        <path class="cls-4" d="M293.9,158.79c-.24-.12-.39-.3-.41-.58.29.08.41.29.41.58Z"/>
        <path class="cls-4" d="M221.98,200.55c0,2.89-.94,5.51-2.34,7.99-1.24,1.3-2.79,2.19-4.33,3.06-4.48,2.51-9.2,4.25-14.43,4.27-.7,0-1.47-.23-2.06.39-3.62-1.37-7.02-3.1-9.85-5.8.74-.04,1.44.11,2.15.28,4.15.97,8.35.94,12.53.38,6.36-.84,11.46-4.14,15.97-8.51.74-.72,1.31-1.67,2.36-2.05Z"/>
        <path class="cls-10" d="M221.98,200.55c-1.05.38-1.61,1.33-2.36,2.05-4.51,4.37-9.61,7.67-15.97,8.51-4.18.56-8.39.59-12.53-.38-.72-.17-1.42-.31-2.15-.28-3.52-2.32-6.22-5.44-8.69-8.79.3.1.67.12.88.32,2.55,2.41,5.67,3.82,8.87,5.11,1.41,1.13,3.12,1.26,4.81,1.41.26.19.48.48.77.56,5.44,1.52,10.71,1.58,15.48-1.98,1.92-1.43,3.84-2.92,4.68-5.33.5-.22.85-.58,1.08-1.08,1.6-1.75,3.28-3.45,4.45-5.54.3-.53.46-1.24,1.29-1.24.12,2.25,0,4.48-.6,6.66Z"/>
        <path class="cls-10" d="M169.54,166.99c.05-2.59.57-5.04,1.96-7.27.25-.09.4-.26.42-.53,0,0,0,0,0,0,1.79-1,2.85-2.82,4.53-3.98,4.42-3.05,9.19-5.05,14.58-5.47,2.6.39,4.95,1.47,7.24,2.69-.76.69-1.68.29-2.53.33-2.77.12-5.59-.15-8.21,1.06-.73.06-1.36.6-2.13.44-.16-.34-.45-.43-.78-.4-2.25.2-4.04,1.33-5.62,2.85-.17.16.02.43.27.53-.25.6-.67.98-1.36.98-1.87,1.12-3.53,2.43-4.8,4.26-1.09,1.57-2.36,3.01-3.55,4.5Z"/>
        <path class="cls-4" d="M190.02,207.09c-3.19-1.29-6.31-2.7-8.87-5.11-.21-.2-.58-.22-.88-.32-3.07-3.72-5.21-7.98-7.26-12.3.69-.96.4-2.05.24-3.03-.46-2.92.08-5.73.63-8.56.64.46.45,1.15.49,1.78.05.8-.01,1.6.19,2.4,1.09,4.39,2.58,8.62,4.74,12.63,1.78,3.32,4.05,6.21,6.8,8.73.99.9,1.99,1.89,3.35,2.3.31.23.65.45.94.7.7.62.11.68-.36.78Z"/>
        <path class="cls-10" d="M207.69,159.96c1.12.59,1.8,1.62,2.52,2.58,4.47,5.97,8.26,12.3,10.24,19.57-.09.22-.01.4.16.54.02.32.05.64.07.96-.4.36-.32.87-.44,1.32-.27,1.04-.14,2.24-1.07,3.05-.69-.64-.75-1.5-.84-2.36-.12-1.24-.29-2.46-1.02-3.53-.05-1.81.23-3.67-.81-5.32-1.31-7.77-5.96-12.59-13.29-15.04-.02-.18-.04-.37-.07-.55-.31-.78-1.02-1.14-1.64-1.61-.66-.51-1.59-.75-1.84-1.71.8-.17,1.55.11,2.32.22,1.81.24,3.35,1.36,5.19,1.45,0,0,.06.08.06.08-.02.33.15.43.45.37Z"/>
        <path class="cls-4" d="M169.54,166.99c1.19-1.5,2.46-2.93,3.55-4.5,1.27-1.83,2.94-3.14,4.8-4.26.64,1.32-.05,2.35-.83,3.26-.99,1.15-1.62,2.43-1.68,3.92-.04.91-.41,1.72-.48,2.6-.34.65-.67,1.3-1.01,1.95-.72.58-.99,1.46-1.37,2.24-1.08,2.25-1.64,4.68-2.38,7.05-1.08-4.05-.64-8.17-.62-12.27Z"/>
        <path class="cls-10" d="M198.82,216.26c.59-.62,1.37-.39,2.06-.39,5.23-.02,9.95-1.76,14.43-4.27,1.54-.87,3.09-1.75,4.33-3.06-1.34,3.99-4.06,6.71-7.92,8.22-4.34,1.69-8.67,1.53-12.9-.5Z"/>
        <path class="cls-4" d="M207.18,159.52c-1.84-.08-3.38-1.21-5.19-1.45-.78-.1-1.52-.38-2.32-.22,0,0-.01-.03-.01-.03-.29-.66-.86-.54-1.41-.51-.29-.05-.58-.1-.88-.15-3.04-1.85-6.3-3.04-9.86-3.34,2.63-1.21,5.44-.94,8.21-1.06.84-.04,1.76.36,2.53-.33,2.77,1.62,5.34,3.52,7.8,5.56.49.41.99.83,1.11,1.52Z"/>
        <path class="cls-4" d="M191.02,149.75c-5.39.41-10.16,2.41-14.58,5.47-1.68,1.16-2.74,2.98-4.53,3.98.89-3.99,3.39-6.7,6.93-8.49,3.9-1.97,7.99-2.29,12.18-.96Z"/>
        <path class="cls-4" d="M219.17,187.98c.93-.81.8-2.01,1.07-3.05.12-.45.04-.97.44-1.32,1.01,1.37.88,3.03,1.19,4.58.38,1.88.66,3.78.71,5.71-.83,0-.99.71-1.29,1.24-1.18,2.1-2.85,3.79-4.45,5.54-.13-.87.42-1.53.65-2.29.79-2.6,1.64-5.2.86-7.97-.15-.95.96-1.48.82-2.43Z"/>
        <path class="cls-10" d="M170.15,179.26c.74-2.37,1.29-4.8,2.38-7.05.38-.79.65-1.66,1.37-2.24,0,.89-.07,1.78,0,2.66.08,1.17-.42,2.41.37,3.51-.13.54-.26,1.09-.39,1.63-.54,2.83-1.09,5.64-.63,8.56.16.98.45,2.07-.24,3.03-1.26-3.28-2.58-6.54-2.86-10.1Z"/>
        <path class="cls-4" d="M171.91,159.19c-.02.27-.17.44-.42.53.02-.27.16-.45.42-.53Z"/>
        <path class="cls-4" d="M220.62,182.65c-.18-.14-.26-.32-.16-.54.18.14.24.32.16.54Z"/>
        <path class="cls-4" d="M207.69,159.96c-.3.06-.47-.04-.45-.37.15.12.3.25.45.37Z"/>
        <path class="cls-8" d="M188.97,251.42c-.01-4.47,2.67-7.26,6.02-9.61.59-.41,1.3-.65,1.95-.96.79-.14,1.58-.22,2.38-.1.44.53,1.06.71,1.69.88,3.83.99,7.54.73,11.11-1.04,1.09-.54,2.17-1.11,3.27-1.64,1.63-.78,3.35-1.1,5.16-1.23,3.43-.23,6.82.28,10.17.68,4.82.58,9.55.32,14.23-.56,4.55-.86,8.84-.73,12.93,1.64,3.5,2.03,6.84,1.16,10.12-.63.36.09.73.19,1.09.28,4.54,1.96,7.09,5.67,8.76,10.11.82,2.18.48,2.6-1.97,2.58-.56-1.59-1.77-2.54-3.29-2.99-1.33-.39-2.32-1.16-3.14-2.17-2.87-3.51-6.75-3.84-10.83-3.48-1.15.1-2.15.71-2.72,1.82-1.27.22-2.59.3-3.81.68-2.06.64-3.85.06-5.61-.87-1.44-.76-2.84-1.58-4.25-2.38-5.1-2.88-10.25-2.6-15.39-.15-1.46.7-2.89,1.51-4.23,2.41-1.63,1.09-3.34,1.64-5.29,1.33-.41-1.79-1.59-2.52-3.36-2.44-.08,0-.16,0-.24,0-3.32.46-6.62.87-10.02.64-1.94-.13-3.57,1.45-4.73,3.05-.67.92-1.41,1.61-2.51,1.68-2.48.17-4.75.86-6.77,2.34-.18.13-.47.1-.71.15Z"/>
        <path class="cls-7" d="M207.2,246.14c2.02-.02,3.63.09,5.22-.43.89-.29,2.02-.53,2.7.42.61.85.44,1.89.03,2.8-.4.88-.91,1.72-1.47,2.51-2.48,3.49-2.82,7.37-1.9,11.38.67,2.93,1.49,5.81,1.19,8.86-.14,1.44-.8,2.46-2.16,2.95-1.43.51-2.72.2-3.82-.84-.69-.65-.87-1.51-.95-2.43-.17-1.98.39-3.86.78-5.76.24-1.13.33-2.25.26-3.38-.15-2.39-2.2-4.12-4.63-3.98-2.42.14-3.93,1.84-3.76,4.41.09,1.36.48,2.71.6,4.07.09,1.03.17,2.16-1.09,2.71-1.1.48-2.2.64-3.22-.16-1-.79-1.24-1.85-.92-3.06.29-1.1.55-2.2.85-3.29.6-2.18-.05-3.98-1.66-5.48-.3-.28-.61-.54-.91-.81-1.91-1.73-1.63-3.83.64-5.08,1.25-.69,2.65-.79,3.99-.98,1.3-.18,2.4-.64,3.13-1.65,1.89-2.62,4.38-3.47,7.07-2.76ZM206,249.86c1.2,0,2.43.21,3.54-.44.35-.21.72-.41.7-.88-.02-.49-.44-.69-.8-.79-1.66-.46-3.32-.5-4.96.1-.46.17-.86.45-1.11.89-.37.65-.02,1.37.73,1.36.64,0,1.27-.16,1.9-.24ZM195.92,253.46c1.03-.11,1.87.11,2.61-.27.49-.25,1.11-.6,1-1.21-.14-.79-.87-.56-1.37-.41-.7.22-1.41.31-2.13.33-.49,0-.97.11-1.32.48-.22.24-.35.53-.24.88.12.38.41.45.75.39.31-.06.62-.16.7-.18ZM207.83,269.05c-.53,1.17-.33,2.05.29,2.87.39.5.95.68,1.47.34.6-.4.46-1,.04-1.44-.53-.55-.87-1.31-1.8-1.77Z"/>
        <path class="cls-5" d="M267.99,238.85c-3.27,1.79-6.61,2.66-10.12.63-4.09-2.37-8.38-2.5-12.93-1.64-4.69.89-9.41,1.14-14.23.56-3.35-.4-6.74-.91-10.17-.68-1.81.12-3.53.44-5.16,1.23-1.1.53-2.17,1.1-3.27,1.64-3.57,1.78-7.28,2.03-11.11,1.04-.63-.16-1.25-.35-1.69-.88,1.13-.02,2.25-.06,3.38-.05,2.16.02,4.14-.43,5.73-2.04.26-.26.71-.32,1.08-.47.26-.04.42-.2.5-.43,0,0,0,0,0,0,.26-.07.45-.2.47-.49,1.34-.88,2.72-1.71,4.02-2.65,2.86-2.06,5.99-2.28,9.27-1.39,1.41.38,2.81.79,4.17,1.32,3.97,1.54,7.9,1.49,11.86-.03,1.66-.64,3.36-1.2,5.04-1.79,3.1-1.08,6.18-1.24,9.22.23.87.42,1.81.78,2.58,1.36,3.38,2.56,7.16,4.06,11.36,4.52Z"/>
        <path class="cls-4" d="M210.48,237.27c-.03.29-.21.43-.47.49.16-.16.31-.33.47-.49Z"/>
        <path class="cls-4" d="M210.01,237.76c-.09.24-.24.4-.5.43.17-.14.34-.29.5-.43Z"/>
        <path class="cls-7" d="M271.98,250.93c2.58,1.13,3.4,3.34,2.1,5.63-.86,1.51-2.44,1.7-3.6.4-.48-.54-.83-1.21-1.33-1.73-.95-.98-2.03-1.63-3.48-1.07-1.37.53-2,1.53-1.94,3.29.02.72.23,1.44.33,2.16.25,1.82-.68,3.3-2.19,3.5-1.69.23-2.96-1-3.08-2.95-.09-1.4.15-2.76.59-4.07.84-2.52.27-4.8-1.01-6.99-.29-.49-.66-.94-.86-1.47-.3-.82-.2-1.56.68-2.09,2.31-1.37,7.37-.39,9.11,1.8-.08.07-.15.15-.23.22-.77-.45-1.53-.93-2.42-1.13-.55-.12-1.06-.41-1.66-.32-.43.06-.82.25-.95.65-.16.48.23.72.6.91,1.01.53,2.02,1.05,3.02,1.59.54.29,1.02,1,1.7.43.51-.42.18-1.07.15-1.62.08-.07.16-.14.24-.21,1.09,1.48,2.89,1.98,4.26,3.07-.62.2-1.63-.3-1.82.65-.15.77.71.96,1.29,1.11.89.23,1.02-.22.51-1.77ZM262.43,258.08c-.78.39-.99,1.24-1.46,1.87-.26.35-.22.79.18,1.06.36.25.78.22,1.14,0,.84-.52.88-1.47.13-2.93Z"/>
        <path class="cls-7" d="M267.28,247.34c.15.18.3.35.45.53-.08.07-.16.14-.24.21-.15-.17-.29-.34-.44-.51.08-.07.15-.15.23-.22Z"/>
        <path class="cls-7" d="M271.82,268.87c2.16,1.65,3.13,3.62,3.52,5.92.14.84-.14,1.61-.59,2.3-.67,1.03-1.76,1.43-2.97,1.1-1.17-.31-1.71-1.13-1.81-2.3-.19-2.45.82-4.57,1.85-7.02ZM273.38,273.55c-.67.51-.93,1.22-.86,2.05.06.65.49,1.1,1.13.92.87-.25.87-1.05.77-1.79-.08-.57-.27-1.09-1.03-1.18Z"/>
        <path class="cls-7" d="M180.72,268.06c.85-1.4,2.27-1.54,3.78-1.84.31,1.95-.19,3.66-.71,5.32-.54,1.73-2.41,2.42-3.92,1.67-1.28-.64-1.47-1.81-.59-3.69.01.55-.11,1.13.21,1.64.29.46.69.67,1.21.39,1.17-.62,1.17-2.48.01-3.49Z"/>
        <path class="cls-6" d="M180.72,268.06c1.16,1.01,1.16,2.87-.01,3.49-.52.28-.92.07-1.21-.39-.33-.51-.2-1.09-.21-1.64.35-.61.84-1.09,1.44-1.46Z"/>
        <path class="cls-5" d="M248.87,199.89c-1.1-2.9-1.54-5.9-1.19-8.99.19.26.41.5.55.78,1.9,3.81,4.71,6.77,8.35,8.95,7.33,4.4,16.11,4.37,23.16-.88,8.06-6.01,11.31-16.87,5.28-26.67-3.75-6.1-11.67-9.39-18.59-7.7-6.75,1.65-10.59,6.24-12.47,12.69-.62,2.13-.73,4.3-.25,6.49,1.36,6.25,6.98,11.81,14.89,11.35,4.83-.28,8.25-2.58,10.37-6.58,2.23-4.2,2.19-8.64-.71-12.66-2.32-3.21-5.64-4.78-9.54-4.15-3.76.6-6.57,2.81-7.67,6.64-1.74,6.04,2.88,10.34,7.67,9.85,4.27-.43,6.63-5.12,4.31-8.71-.8-1.24-1.96-1.64-3.34-1.54-1.21.09-2.17.6-2.72,1.75-.3.64-.41,1.28.18,1.78.68.57,1.17.21,1.56-.45.27-.44.69-.74,1.22-.46.69.37,1.15.97,1.05,1.77-.12.98-.4,1.92-1.48,2.32-.21-.28-.51-.34-.83-.43-3.68-.95-4.53-3.34-2.25-6.28,1.42-1.83,4.59-2.39,6.3-1.01,3.56,2.86,3.71,8.36,0,11.51-3.05,2.6-7.78,2.17-10.99-.51-2.68-2.23-3.24-5.1-2.94-8.33.42-4.6,3.38-8.46,7.06-9.77,6.3-2.23,11.96-.09,15.31,5.91,2.62,4.7,2.22,9.48-.31,14.17-3.15,5.83-9.26,8.52-14.81,7.84-5.73-.7-10.38-3.47-13.17-8.84-1.36-2.62-2.48-5.23-2.4-8.3.04-1.68.8-3.13.96-4.74.38-1.33,1.07-2.52,1.78-3.68,2.24-3.64,4.56-7.22,8.66-9.12.37-.17.61-.51.75-.9,1.09.22,2.09-.27,3.07-.55,2.29-.64,4.47-.89,6.89-.42,8.33,1.61,14,6.24,17.02,14.15.29.76.48,1.54.44,2.36-.04.83.03,1.64.88,2.11.32,3.28-.94,6.23-2.12,9.14-.87,2.17-1.99,4.25-3.17,6.29-2.71,4.7-6.48,8.23-11.27,10.73-.14.07-.35.11-.42.23-.31.53.22.4.43.51-1.21.63-2.5.92-3.85.93-4.23.19-8.32-.37-12.31-1.85-3.09-1.14-5.58-3.16-8.21-5,0,0,.01.01.01.01-.13-.14-.27-.28-.4-.42-.62-.24-.44-.93-.76-1.34Z"/>
        <path class="cls-2" d="M250.02,201.65c2.63,1.85,5.12,3.86,8.21,5,4,1.48,8.09,2.03,12.31,1.85-2.82,1.55-5.82,1.79-8.91,1.17-3.89-.78-7.39-2.34-10.14-5.31-.72-.78-1.43-1.56-1.47-2.71Z"/>
        <path class="cls-2" d="M249.63,201.24c.13.14.27.28.4.42-.13-.14-.27-.28-.4-.42Z"/>
        <path class="cls-5" d="M268.54,157.2c3.1-1.75,6.43-2.79,9.93-3.34.67.02,1.35.03,2.02.05,1.68.91,3.39,1.74,5.2,2.38,0,0-.04-.03-.04-.03.17.16.35.32.52.48.02,2.32,1.71,3.54,3.22,4.88.4,1.82,1.25,3.54,1.12,5.47-1.86-1.56-3.31-3.56-5.33-4.95-5.01-3.46-10.49-5.33-16.64-4.94Z"/>
        <path class="cls-6" d="M285.68,156.3c-1.8-.64-3.52-1.48-5.2-2.38,2.09.02,4.05.32,5.2,2.38Z"/>
        <path class="cls-6" d="M286.16,156.74c-.17-.16-.35-.32-.52-.48.19.14.81-.18.52.48Z"/>
        <path class="cls-4" d="M289.08,159.21l-.22-.2s.11,0,.14.02c.04.04.06.11.09.17,0,0,0,0,0,0Z"/>
        <path class="cls-8" d="M290.93,180.67c-.85-.47-.92-1.27-.88-2.11.04-.83-.15-1.6-.44-2.36-3.01-7.91-8.69-12.54-17.02-14.15-2.42-.47-4.6-.22-6.89.42-.98.27-1.98.77-3.07.55-.01-.42-.03-.83-.04-1.25.42-.09.85-.16,1.12-.55,2.98-.96,6.06-1.42,9.12-.88,9.1,1.6,15.48,6.63,18.74,15.39-.1.58.26,1.04.43,1.54-.62.45-.44,1.12-.49,1.73-.05.61.12,1.29-.58,1.67Z"/>
        <path class="cls-2" d="M269.5,185.48c1.08-.4,1.36-1.34,1.48-2.32.1-.81-.36-1.41-1.05-1.77-.53-.28-.95.01-1.22.46-.4.65-.89,1.01-1.56.45-.59-.49-.49-1.14-.18-1.78.55-1.15,1.51-1.66,2.72-1.75,1.39-.11,2.54.29,3.34,1.54,2.32,3.59-.04,8.27-4.31,8.71-4.79.49-9.41-3.81-7.67-9.85,1.1-3.82,3.91-6.03,7.67-6.64,3.9-.62,7.22.94,9.54,4.15,2.9,4.02,2.94,8.46.71,12.66-2.12,3.99-5.54,6.29-10.37,6.58-7.91.46-13.53-5.11-14.89-11.35-.48-2.19-.37-4.37.25-6.49,1.89-6.44,5.72-11.03,12.47-12.69,6.92-1.69,14.84,1.6,18.59,7.7,6.03,9.81,2.79,20.67-5.28,26.67-7.05,5.25-15.83,5.28-23.16.88-3.64-2.19-6.45-5.14-8.35-8.95-.14-.28-.37-.52-.55-.78-.08-.29-.16-.58-.23-.87.21-1.98.44-3.95.62-5.93.07-.74.39-.76.92-.45.5,5.39,2.93,9.75,7.15,13.08,4.38,3.45,9.43,4.87,14.88,3.68,7.07-1.55,11.58-5.83,13.58-13.02,2.33-8.39-3.69-19.87-15.36-19.33-8.32.38-14.47,8.64-12.33,16.62,1.15,4.27,3.94,7.15,8.28,8.06,4.12.87,7.71-.33,10.43-3.73,2.92-3.65,2.25-9.38-1.46-12.21-3.05-2.33-7.54-1.61-9.68,1.54-1.13,1.67-1.17,4.33-.09,5.74,1.36,1.78,2.91,2.2,5.11,1.4Z"/>
        <path class="cls-8" d="M269.5,185.48c-2.2.8-3.75.38-5.11-1.4-1.08-1.41-1.04-4.07.09-5.74,2.13-3.16,6.62-3.87,9.68-1.54,3.71,2.83,4.38,8.56,1.46,12.21-2.72,3.39-6.31,4.59-10.43,3.73-4.35-.92-7.14-3.79-8.28-8.06-2.14-7.98,4.01-16.24,12.33-16.62,11.67-.54,17.69,10.94,15.36,19.33-2,7.19-6.51,11.47-13.58,13.02-5.45,1.2-10.5-.23-14.88-3.68-4.22-3.32-6.65-7.69-7.15-13.08,0-1.82-.6-3.66.11-5.47.6.1,1.03-.19,1.32-.67.25-.41.55-.71,1.03-.8-.16,1.61-.92,3.06-.96,4.74-.08,3.07,1.04,5.68,2.4,8.3,2.79,5.37,7.44,8.15,13.17,8.84,5.55.68,11.66-2.01,14.81-7.84,2.53-4.69,2.93-9.47.31-14.17-3.35-6-9.01-8.14-15.31-5.91-3.68,1.3-6.63,5.17-7.06,9.77-.3,3.23.25,6.09,2.94,8.33,3.22,2.68,7.94,3.1,10.99.51,3.7-3.15,3.55-8.65,0-11.51-1.71-1.37-4.88-.82-6.3,1.01-2.28,2.94-1.42,5.33,2.25,6.28.32.08.63.15.83.43Z"/>
        <path class="cls-2" d="M291.57,175.73c-3.26-8.77-9.64-13.8-18.74-15.39-3.06-.54-6.14-.08-9.12.88-.23-.15-1.07-.08-.34-.63,1.54-1.15,3.15-2.22,4.73-3.32.14-.03.29-.05.43-.07,6.15-.39,11.63,1.48,16.64,4.94,2.01,1.39,3.46,3.39,5.33,4.95.27,1.08,1.47,1.62,1.63,2.78-.03,1.36-.05,2.73-.1,4.09-.02.62.17,1.31-.46,1.78Z"/>
        <path class="cls-4" d="M251.44,176.72c-.48.1-.78.39-1.03.8-.29.48-.71.77-1.32.67.05-2.91,1.43-5.39,2.66-7.89,2.24-4.54,6.24-6.94,10.84-8.54.01.42.03.83.04,1.25-.14.39-.38.73-.75.9-4.09,1.9-6.42,5.48-8.66,9.12-.71,1.15-1.4,2.35-1.78,3.68Z"/>
        <path class="cls-5" d="M218.36,190.41c.77,2.77-.08,5.37-.86,7.97-.23.76-.78,1.43-.65,2.29-.22.49-.58.86-1.07,1.08-3.29,3.11-7.18,5.09-11.56,6.2-3.1.78-6.24.48-9.37.55-1.7-.15-3.4-.28-4.81-1.41.47-.1,1.06-.16.36-.78-.29-.26-.62-.47-.94-.71.35-1.21-.08-2.95,2.02-3h0c.34.59.94.45,1.47.49.48.04.98.03,1.45.13,3.22.71,6.46.69,9.62-.18,6.81-1.88,11.77-5.94,14.37-12.64Z"/>
        <path class="cls-2" d="M194.84,208.5c3.13-.07,6.27.23,9.37-.55,4.38-1.11,8.27-3.09,11.56-6.2-.84,2.41-2.77,3.9-4.68,5.33-4.76,3.56-10.04,3.5-15.48,1.98-.29-.08-.52-.37-.77-.56Z"/>
        <path class="cls-5" d="M187.52,153.83c3.56.3,6.82,1.49,9.86,3.34-.65.03-1.29.07-1.94.09-3.86.09-7.52.9-10.96,2.71-3.78,1.99-6.93,4.71-9.57,8.04.07-.88.44-1.7.48-2.6.06-1.49.69-2.77,1.68-3.92.78-.91,1.47-1.94.83-3.26.69,0,1.11-.38,1.36-.98,1.94-1.21,3.87-2.44,6.13-2.98.77.16,1.4-.38,2.13-.44Z"/>
        <path class="cls-6" d="M185.39,154.27c-2.27.54-4.2,1.77-6.13,2.98-.25-.1-.44-.37-.27-.53,1.58-1.52,3.37-2.65,5.62-2.85.33-.03.63.07.78.4Z"/>
        <path class="cls-8" d="M191.46,202.61c-2.09.04-1.67,1.78-2.02,3-1.36-.41-2.36-1.39-3.35-2.3-2.75-2.52-5.02-5.41-6.8-8.73-2.16-4.01-3.65-8.24-4.74-12.63-.2-.8-.14-1.6-.19-2.4-.04-.63.15-1.32-.49-1.78.13-.54.26-1.09.39-1.63,1.55-4.9,4.58-8.78,8.68-11.73,5.33-3.83,11.28-5.15,17.76-3.59-1.23,1.05-2.62,1.43-4.25,1.31-2.27-.18-4.5.03-6.65.95-5.31,2.27-9.97,5.18-12.33,10.84-1.21,2.9-1.87,5.83-1.63,8.95.07.92.2,1.83,1.07,2.55.63-.98.31-1.89.4-2.74.07-.7-.19-1.48.52-2.02-.07,3.13-.23,6.23,1.06,9.26,1.55,3.64,3.52,6.85,6.75,9.28,1.83,1.37,3.83,2.37,5.83,3.41Z"/>
        <path class="cls-2" d="M191.46,202.61c-2-1.04-4.01-2.03-5.83-3.41-3.22-2.42-5.2-5.64-6.75-9.28-1.29-3.03-1.13-6.13-1.06-9.26.11-.22.27-.43.31-.66.81-4.44,3.13-8.02,6.53-10.84,4.21-3.5,9.09-4.88,14.56-3.89,4.07.74,7.05,3.17,9.61,6.22,3.66,4.36,5.09,11.7,1.88,17.07-3.98,6.66-8.92,8.19-15.43,7.02-6.17-1.11-10.15-6.69-9.72-13.02.24-3.56,2.41-7.89,6.96-9.44,4.1-1.4,7.67-.45,10.76,2.95,2.67,2.93,3.19,9.44-1.87,12.23-3.39,1.87-7.57.69-9.25-3.44-.94-2.31.37-4.98,2.61-5.85,1.58-.61,3.51.1,4.17,1.52.3.64.43,1.28-.16,1.78-.63.54-1.08.22-1.62-.35-.84-.89-1.78-.67-2.12.47-.39,1.32.09,2.37,1.31,3.06,3.15,1.15,5.82-.6,5.87-3.86.07-3.82-3.7-6.87-7.45-6.03-3.71.83-6.06,3.6-6.23,7.43-.31,6.81,6.21,11.8,13.53,9.37,4.4-1.46,7.27-5.83,7.42-10.5.31-9.75-9.82-16.04-18.21-13.1-10.23,3.59-12.85,15.14-7.98,23.29,3.46,5.8,8.8,8.5,15.64,8.67,7.35.18,17.12-6.54,17.97-16.11.27-.3.38-.63.24-1.02.05-.51.11-1.03.16-1.54.73,1.06.9,2.29,1.02,3.53.08.86.14,1.72.84,2.36.14.95-.96,1.48-.82,2.43-2.6,6.7-7.56,10.75-14.37,12.64-3.16.87-6.39.89-9.62.18-.47-.1-.96-.09-1.45-.13-.4-.44-.94-.45-1.47-.49h0Z"/>
        <path class="cls-5" d="M196.36,185.5c-1.22-.69-1.7-1.74-1.31-3.06.34-1.14,1.28-1.37,2.12-.47.54.57.98.88,1.62.35.59-.5.46-1.14.16-1.78-.67-1.42-2.59-2.13-4.17-1.52-2.24.86-3.54,3.54-2.61,5.85,1.68,4.13,5.85,5.32,9.25,3.44,5.06-2.79,4.54-9.3,1.87-12.23-3.09-3.39-6.66-4.34-10.76-2.95-4.55,1.55-6.71,5.88-6.96,9.44-.43,6.33,3.56,11.91,9.72,13.02,6.51,1.17,11.45-.35,15.43-7.02,3.21-5.37,1.78-12.71-1.88-17.07-2.56-3.05-5.54-5.48-9.61-6.22-5.47-.99-10.34.39-14.56,3.89-3.4,2.82-5.72,6.4-6.53,10.84-.04.23-.21.44-.31.66-.71.53-.45,1.32-.52,2.02-.09.85.23,1.76-.4,2.74-.86-.72-1-1.64-1.07-2.55-.23-3.12.43-6.06,1.63-8.95,2.36-5.66,7.02-8.58,12.33-10.84,2.15-.92,4.38-1.12,6.65-.95,1.62.13,3.02-.25,4.25-1.31.81.16,1.6.45,2.45.36.02.18.04.37.07.55-.1,1.16,0,1.92,1.35,2.64,4.86,2.59,7.88,6.84,9.84,11.9-.24,1.31.84,2.25.96,3.47.63,6.28-1.91,11.37-6.5,15.24-3.93,3.32-8.71,4.6-13.91,3.18-2.61-.71-5.08-1.71-7.03-3.66-3.31-3.31-5.12-7.21-4.82-12,.32-5.14,2.68-8.97,7.24-11.27,4.46-2.24,8.77-1.78,12.71,1.39,4.13,3.32,6.82,11.35,1.14,16.15-3.45,2.91-8.77,3.1-11.87-.18-2.08-2.21-2.84-4.92-1.63-7.83,1.38-3.3,5.18-4.86,8.41-2.32,2.36,1.85,1.94,5.09-.77,6.36-.66.31-1.51,0-2.01.71Z"/>
        <path class="cls-8" d="M196.36,185.5c.5-.7,1.35-.4,2.01-.71,2.71-1.27,3.12-4.5.77-6.36-3.23-2.54-7.03-.98-8.41,2.32-1.22,2.91-.46,5.62,1.63,7.83,3.09,3.28,8.42,3.09,11.87.18,5.69-4.8,3-12.83-1.14-16.15-3.94-3.17-8.26-3.63-12.71-1.39-4.56,2.29-6.93,6.13-7.24,11.27-.3,4.79,1.51,8.69,4.82,12,1.95,1.95,4.43,2.95,7.03,3.66,5.2,1.42,9.98.14,13.91-3.18,4.59-3.88,7.12-8.97,6.5-15.24-.12-1.22-1.21-2.16-.96-3.47.72.07,1.32.63,2.09.51,1.04,1.66.76,3.52.81,5.32-.05.51-.11,1.03-.16,1.54-.3.29-.32.64-.24,1.02-.85,9.58-10.62,16.29-17.97,16.11-6.84-.17-12.18-2.87-15.64-8.67-4.87-8.15-2.25-19.7,7.98-23.29,8.39-2.95,18.52,3.35,18.21,13.1-.15,4.67-3.02,9.04-7.42,10.5-7.32,2.43-13.83-2.56-13.53-9.37.17-3.83,2.52-6.6,6.23-7.43,3.75-.84,7.51,2.21,7.45,6.03-.06,3.26-2.72,5.01-5.87,3.86Z"/>
        <path class="cls-2" d="M203.15,161.17c-.85.09-1.64-.2-2.45-.36-6.48-1.55-12.43-.24-17.76,3.59-4.1,2.95-7.13,6.83-8.68,11.73-.79-1.1-.29-2.34-.37-3.51-.06-.88,0-1.77,0-2.66.34-.65.67-1.3,1.01-1.95,2.64-3.33,5.79-6.05,9.57-8.04,3.44-1.81,7.11-2.62,10.96-2.71.65-.01,1.29-.06,1.94-.09.29.05.58.1.88.15.38.43.88.51,1.41.51,0,0,.01.02.01.03.25.95,1.18,1.2,1.84,1.71.62.48,1.33.83,1.64,1.61Z"/>
        <path class="cls-4" d="M216.51,176.77c-.77.12-1.37-.44-2.09-.51-1.97-5.05-4.99-9.31-9.84-11.9-1.34-.72-1.46-1.48-1.35-2.64,7.33,2.46,11.98,7.27,13.29,15.04Z"/>
        <path class="cls-10" d="M199.66,157.83c-.53,0-1.03-.08-1.41-.51.54-.03,1.12-.15,1.41.51Z"/>
        <path class="cls-6" d="M206,249.86c-.63.09-1.27.24-1.9.24-.74.01-1.1-.71-.73-1.36.25-.44.65-.72,1.11-.89,1.64-.6,3.3-.57,4.96-.1.36.1.79.3.8.79.02.47-.34.67-.7.88-1.11.65-2.34.44-3.54.44Z"/>
        <path class="cls-6" d="M195.92,253.46c-.08.02-.39.12-.7.18-.34.07-.63,0-.75-.39-.11-.35.02-.64.24-.88.35-.38.82-.48,1.32-.48.73-.01,1.43-.11,2.13-.33.5-.15,1.22-.38,1.37.41.11.62-.5.96-1,1.21-.75.38-1.58.16-2.61.27Z"/>
        <path class="cls-6" d="M207.83,269.05c.93.45,1.27,1.21,1.8,1.77.42.44.56,1.04-.04,1.44-.53.35-1.09.17-1.47-.34-.63-.81-.82-1.7-.29-2.87Z"/>
        <path class="cls-6" d="M267.05,247.57c.15.17.3.34.44.51.03.55.36,1.2-.15,1.62-.68.57-1.16-.14-1.7-.43-1-.54-2.01-1.06-3.02-1.59-.36-.19-.76-.43-.6-.91.14-.4.52-.59.95-.65.6-.09,1.11.2,1.66.32.89.2,1.65.68,2.42,1.13Z"/>
        <path class="cls-6" d="M262.43,258.08c.75,1.46.71,2.41-.13,2.93-.36.22-.78.25-1.14,0-.4-.27-.44-.71-.18-1.06.47-.63.67-1.48,1.46-1.87Z"/>
        <path class="cls-6" d="M271.98,250.93c.51,1.55.38,2-.51,1.77-.59-.15-1.44-.33-1.29-1.11.19-.95,1.19-.45,1.82-.65,0,0-.01-.01-.01-.01Z"/>
        <path class="cls-6" d="M273.38,273.55c.76.09.96.61,1.03,1.18.1.74.1,1.54-.77,1.79-.64.18-1.07-.27-1.13-.92-.07-.83.19-1.54.86-2.05Z"/>
        <path class="cls-8" d="M191.45,202.61c.53.04,1.07.05,1.47.49-.53-.04-1.12.11-1.47-.49Z"/>
        <path class="cls-10" d="M216.92,184.65c-.08-.38-.07-.73.24-1.02.14.39.03.72-.24,1.02Z"/>
      </g>
    </g>
  </g>
</svg>