<?xml version="1.0" encoding="UTF-8"?>
<svg id="GRIFOS" xmlns="http://www.w3.org/2000/svg" viewBox="0 0 455.05 478.68">
  <defs>
    <style>
      .cls-1 {
        fill: #abb063;
      }

      .cls-1, .cls-2, .cls-3, .cls-4, .cls-5, .cls-6, .cls-7, .cls-8, .cls-9, .cls-10, .cls-11 {
        stroke-width: 0px;
      }

      .cls-2 {
        fill: #e78f3c;
      }

      .cls-3 {
        fill: #f9ebd6;
      }

      .cls-4 {
        fill: #df6258;
      }

      .cls-5 {
        fill: #f4f1e8;
      }

      .cls-6 {
        fill: #f2ae32;
      }

      .cls-7 {
        fill: #e9c474;
      }

      .cls-8 {
        fill: #dc3431;
      }

      .cls-9 {
        fill: #e3c8a7;
      }

      .cls-10 {
        fill: #c0cfd6;
      }

      .cls-11 {
        fill: #1a1717;
      }
    </style>
  </defs>
  <g id="Expressions">
    <g id="E2">
      <path class="cls-11" d="M219.58,230.21c-10.43.1-24.29-1.92-37.77-6.29-12.78-4.14-24.3-10.46-33.66-20.24-7.94-8.31-12.74-18.22-14.46-29.62-1.35-8.95-.31-17.78,1.38-26.54,2.49-12.94,6.22-25.5,12.28-37.27,6.43-12.48,14.78-23.45,26.04-32,8.3-6.3,17.37-11.13,27.64-13.48,2.67-.61,2.59-.66,2.17-3.57-.93-6.57-.47-13.02,2.19-19.17,2.15-4.97,5.6-8.69,10.98-10.17,6.27-1.72,12.62.9,16.37,6.61.34.52.75,1.03.93,1.61.32,1.02.92,1.18,1.88,1.05,8.62-1.16,14.31,3.08,15.87,11.6.73,3.97.59,7.84-.77,11.62-.47,1.3-.55,1.83,1.05,2.42,19.01,7.08,33.11,19.93,43.44,37.18,8.3,13.86,13.04,28.96,15.92,44.73,1.16,6.32,2.2,12.64,1.94,19.11-.61,15.34-6.55,28.24-17.74,38.71-10.44,9.78-23.07,15.46-36.66,19.28-11.54,3.24-23.35,4.39-39.04,4.43ZM245.77,51.68l.02.03c-.75-3.25-3.19-5.74-6.07-6.18-3.09-.48-4.14.49-3.85,3.55.04.41.11.82.16,1.22-.15,1.31-.23,2.63-.48,3.92-.15.81-.62,1.59-1.6,1.55-.89-.04-1.07-.87-1.2-1.55-.32-1.69-.54-3.39-1.24-4.99-.29-3.51-1.73-6.58-3.84-9.31-3.57-4.62-9.46-5.16-13.94-1.4-2.28,1.91-3.81,4.34-4.66,7.18-1.19,3.99-1.71,8.07-1.22,12.23-.22,1.24-.05,2.47.12,3.7,1.15,8.28,4.61,15.59,9.43,22.32,1.19,1.66,2.52,3.26,4.3,4.3.95-.46,1.15-1.31,1.36-2.08.82-3.13,2.42-5.92,3.83-8.79,1.15-2.33,2.67-4.43,4.37-6.38,3.06-3.52,6.97-5.4,11.64-5.72,1.1-.08,2.45.18,2.82-1.31.83-3.39,1.98-6.77.69-10.3,0-.73.19-1.53-.64-2ZM144.31,131.89c-.67.75-.7,1.68-.74,2.61-1.08,2.24-1.55,4.67-2.03,7.08-1.05,5.25-2.49,10.44-2.9,15.81-.62,1.18-.59,2.44-.45,3.71,0,1.26,0,2.52,0,3.77-.29,2.69-.22,5.38.2,8.04,2.31,14.7,9.87,26.2,21.78,34.85,11.79,8.56,25.32,13.03,39.49,15.52,13.95,2.44,28.01,2.75,42.09.8,14.36-2,28.02-5.94,40.44-13.72,10.23-6.4,18.02-14.83,22.51-26.1,1.68-4.22,3.02-8.57,3.17-13.19l.04-1.81c.26-1.04.32-2.09.06-3.14.53-7.68-1.51-15-3.18-22.37.07-.7.14-1.41-.38-2l-.25-1.11c.01-.21.07-.42.02-.62-4.07-16.54-10.55-31.93-21.46-45.23-9.21-11.21-20.66-19.24-34.24-24.26-5.1-1.88-9.53-.72-13.29,3.13-2.55,2.62-4.43,5.66-5.68,9.09l.02-.03c-.48.32-.59.79-.56,1.32-1.48,2.28-2.06,4.94-3.16,7.38-1.57,3.48-2.81,3.81-5.81,1.53-3.66-2.79-6.59-6.23-9.14-10.05-1.73-2.59-2.69-5.57-4.36-8.18-.38-1.28-.75-2.56-1.16-3.82-.69-2.12-.76-2.2-2.74-1.69-10.85,2.82-20.53,7.89-29.06,15.15-10.58,9.01-18.3,20.12-23.94,32.73-2.14,4.79-4.25,9.61-5.3,14.8v-.02Z"/>
      <path class="cls-3" d="M304.16,140.65c.08.37.16.74.25,1.11-1.1.9-1.1,1.59.38,2,1.67,7.37,3.7,14.69,3.18,22.37-1.03.04-1.57.81-1.61,1.6-.12,2.04-1.28,3.66-1.93,5.47-2.48,6.91-6.52,12.8-11.76,17.91-.67.65-1.31,1.36-2.4,1,2.9-4.78,3.43-9.47-.6-13.95-.59-.65-.34-1.33-.24-2.04.65-4.76-1.16-8.18-5.29-10.11-3.98-1.85-7.95-1.09-10.85,2.47-1.18,1.45-2.07,1.43-3.64.86-3.67-1.34-7.43-2.47-11.17-3.63-.85-.26-1.95-.71-2.57.2-.56.82.35,1.49.81,2.15,2.24,3.23,4.41,6.51,6.76,9.65.99,1.32.84,2.11-.08,3.41-2.13,3.04-2.29,6.38-.4,9.63,2.44,4.2,6.87,5.67,11.51,3.9.87-.33,1.6-.84,2.61-.28,3.34,1.86,6.77,1.44,10.19.19.31,1.7-1.21,1.98-2.13,2.68-4.53,3.45-9.65,5.86-14.82,8.18-3.67,1.65-7.38,3.3-11.28,4.11-6.82,1.42-13.64,2.9-20.57,3.8,1.7-2.56,2.82-5.33,2.68-8.44-.14-3.11-.71-6.15-1.99-9.04-1.55-3.49-3.48-6.77-5.4-10.04,3.99-3.01,6.96-4.24,11.37-4.81,1.23-.16,2.48-.28,3.67-.63,2.13-.63,3.55-1.88,3.84-4.31.84-7.21-1.19-13.39-6.77-18.07-3.52-2.95-6.72-6.12-9.44-9.82-1.53-2.09-3.48-3.84-5.6-5.35-4.8-3.42-9.74-3.59-14.79-.54-2.79,1.69-5.14,3.88-7.04,6.49-2.46,3.37-5.38,6.22-8.56,8.92-5.69,4.83-8.01,11.12-7.05,18.59.27,2.13,1.52,3.35,3.38,4.02.96.35,2,.62,3.02.66,4.73.16,8.82,1.93,12.66,4.9-2.29,3.18-4.11,6.66-5.6,10.28-2.28,5.55-3.17,11.15.3,16.63-4.29.43-8.41-.72-12.49-1.65-7.12-1.62-14.19-3.53-20.91-6.49-5.01-2.21-9.73-4.94-14.02-8.38-.58-.47-1.21-.83-.93-1.72,2.98,1.14,6.05,1.65,9.03.25,1.46-.69,2.6-.63,4.05-.05,3.34,1.34,6.5.87,9.23-1.58,3.72-3.33,4.35-8.12,1.39-12.27-.91-1.28-.87-1.98,0-3.16,2.16-2.9,4.2-5.89,6.22-8.9.6-.9,1.59-1.68,1.43-3.04-1.12-.64-2.17-.2-3.24.14-3.53,1.13-7.11,2.14-10.59,3.41-1.62.59-2.47.36-3.62-1-2.82-3.37-6.82-4.14-10.63-2.4-3.96,1.8-6.01,5.38-5.45,9.78.17,1.32.07,2.31-.93,3.34-1.58,1.62-2.06,3.71-2.17,5.98-.13,2.78.97,5.02,2.51,7.15-1.36.17-2.43-.39-3.31-1.35-.63-.68-1.15-1.46-1.75-2.17-4.65-5.6-8.87-11.45-10.67-18.68-.32-1.3-.7-2.59-.98-3.9-.15-.7-.44-1.13-1.17-1.22,0-1.26,0-2.52,0-3.77.86-1.15.56-2.44.45-3.71.41-5.37,1.85-10.56,2.9-15.81.48-2.41.95-4.84,2.03-7.08,1.04-.65.67-1.69.74-2.61,0,0,0,.02,0,.02,1.27.11,1.97-.37,1.9-1.75-.1-1.92.7-3.55,1.5-5.27.74-1.61,1.97-2.89,2.67-4.39,1.62-3.43,2.78-7.08,5.09-10.17,1.42-1.9,2.61-3.99,4.17-5.75,3.89-4.38,7.58-8.93,12.03-12.83,4.46-3.9,9.17-7.33,14.34-10.2,4.64-2.57,9.59-4.36,14.55-6.16,1.9-.69,3.86-1.53,5.96-.66,1.67,2.61,2.63,5.59,4.36,8.18,2.55,3.82,5.48,7.26,9.14,10.05,3,2.28,4.23,1.95,5.81-1.53,1.1-2.44,1.68-5.1,3.16-7.38.49-.31.56-.8.56-1.32l-.02.03c2.26.38,3.53-.79,4.21-2.78.32-.94.24-2.02,1.57-2.41.66-.19.99-1.08,1.04-1.81.13-1.88,1.46-1.89,2.68-1.61,4.02.89,8.08,1.58,11.95,3.12,5.21,2.06,10.28,4.36,14.9,7.53,3.4,2.33,6.72,4.77,9.77,7.59,5.06,4.67,8.85,10.34,12.94,15.78.86,1.14,1.92,2.16,2.46,3.55,2.08,5.34,6.06,9.69,7.62,15.38,1.01,3.67,2.71,7.19,3.81,10.89.29.98.15,2.41,1.7,2.65ZM250.61,148.43l.46-.44c2.45.38,4.87.82,7.39.71,9.7-.41,18.19-6.96,20.6-16.04.89-3.35,1.21-6.74.29-10.13-.42-1.54-.05-2.33,1.53-2.69.78-.18,1.55-.59,2.23-1.05.81-.54,1.36-1.33.91-2.38-.49-1.13-1.4-1.47-2.55-1.1-.59.19-1.15.47-1.71.72-10.39,4.58-20.77,9.15-31.16,13.74-3.58,1.58-7.13,3.25-10.73,4.8-2.03.88-2.83.52-3.51-1.51-.29-.87-.36-1.82-.54-2.73-.16-.78-.64-1.38-1.43-1.41-.9-.03-1.55.48-1.74,1.44-.61,3.15.94,8.35,5.07,8.62,2.24.15,2.69,1.28,3.41,2.75,4,8.11,15.77,13.81,24.43,10.75-4.63-1.29-9.05-1.89-12.93-4.07ZM195.2,148.37c-3.79,2.3-8.07,2.87-12.13,4.18,1.22.48,2.39.7,3.56.89.3.05.62.08.93.05,8.56-.86,15.47-4.44,19.57-12.31.78-1.49,1.61-2.03,3.2-2.3,3.67-.62,6.18-5.19,4.99-8.66-.27-.79-.83-1.23-1.58-1.28-.8-.05-1.36.42-1.53,1.25-.19.91-.29,1.85-.57,2.73-.7,2.23-1.55,2.63-3.67,1.66-2.07-.94-4.06-2.05-6.13-2.97-12-5.3-24.01-10.55-36.01-15.82-.47-.21-.94-.46-1.43-.58-1.02-.25-1.85.06-2.33,1.05-.49,1.03-.05,1.85.77,2.42.67.46,1.44.88,2.22,1.07,1.85.45,2.11,1.49,1.65,3.18-.57,2.11-.71,4.29-.38,6.47,2.23,14.87,15.82,21.01,26.67,18.85.67-.13,1.37-.35,2.2.12ZM268.83,103.81c-4.88.07-7.49,2.32-9.83,5.02-.35.4-.43.95-.08,1.42.42.58,1.09.73,1.64.39.87-.53,1.65-1.22,2.46-1.85,3.37-2.61,7.27-2.5,9.36.96.16.26.38.49.59.71.59.58,1.3.67,1.97.24.85-.56.87-1.43.35-2.16-1.85-2.56-3.95-4.78-6.46-4.72ZM263.7,96.63c-.13-1.87-.68-3.95-2.1-5.69-.53-.65-1.25-1.22-2.12-.54-.67.53-.6,1.18-.14,1.91.38.6.6,1.31.81,1.99,1.01,3.33.05,5.85-2.91,7.65-.35.21-.74.36-1.1.55-.86.44-1.26,1.17-.88,2.05.47,1.1,1.42.95,2.37.64,3.38-1.12,6.05-4.73,6.08-8.56ZM274.8,100.26c.96.02,2.29-.05,3.5-.75.45-.26.9-.6.73-1.18-.17-.58-.41-1.21-1.19-1.21-1.03.01-2.06.11-3.09.08-3.13-.1-4.93-1.71-5.41-4.79-.13-.81-.21-1.63-.32-2.45-.11-.84-.68-1.3-1.45-1.32-.72-.02-1,.65-1.16,1.24-1.44,5.14,2.61,10.37,8.4,10.38Z"/>
      <path class="cls-9" d="M238.5,213.34c6.92-.91,13.74-2.38,20.57-3.8,3.9-.81,7.61-2.46,11.28-4.11,5.17-2.32,10.28-4.73,14.82-8.18.91-.69,2.44-.98,2.13-2.68,0,0,.04.09.04.09,1.19.18,2.01-.11,1.93-1.53l.05-.25.25-.03c.43-.08.81-.21.95-.69l-.15.07-.1-.13c1.09.36,1.73-.35,2.41-1,5.24-5.1,9.29-11,11.76-17.91.65-1.82,1.81-3.44,1.93-5.47.05-.79.59-1.56,1.61-1.6.26,1.05.2,2.1-.06,3.14-.73.59-.69,1.19-.04,1.81-.15,4.61-1.48,8.97-3.17,13.19-4.49,11.26-12.28,19.69-22.51,26.1-12.42,7.78-26.09,11.72-40.44,13.72-14.07,1.96-28.14,1.65-42.09-.8-14.17-2.48-27.7-6.95-39.49-15.52-11.9-8.65-19.47-20.15-21.78-34.85-.42-2.67-.48-5.35-.2-8.04.73.09,1.02.52,1.17,1.22.27,1.31.65,2.6.98,3.9,1.8,7.23,6.02,13.08,10.67,18.68.59.71,1.12,1.49,1.75,2.17.88.96,1.95,1.52,3.31,1.35.4.18.81.36.73.93.1.75.61.94,1.27.96l-.03-.02c.12.35.38.54.73.62l.07-.14c-.28.9.35,1.25.93,1.72,4.29,3.44,9.01,6.17,14.02,8.38,6.71,2.96,13.78,4.87,20.91,6.49,4.09.93,8.2,2.08,12.49,1.65,1.31,1.12,2.41,2.5,4.14,3.08,4.39,1.48,8.28.66,11.64-2.48,6.73,4.4,10.47,4.38,15.55-.05Z"/>
      <path class="cls-8" d="M231.52,49.24c.7,1.59.92,3.3,1.24,4.99.13.68.31,1.51,1.2,1.55.99.04,1.45-.74,1.6-1.55.24-1.29.33-2.61.48-3.92.83-2.52.9-2.47,3.33-2.11,2.18.32,4.07,1.01,5.44,2.84.22.3.65.45.98.67,0,0-.02-.03-.02-.03-.06.76-.07,1.5.64,2,1.29,3.53.14,6.91-.69,10.3-.36,1.49-1.72,1.24-2.82,1.31-4.66.32-8.57,2.2-11.64,5.72-1.7,1.95-3.22,4.05-4.37,6.38-1.41,2.87-3.01,5.65-3.83,8.79-.2.77-.41,1.62-1.36,2.08-1.78-1.04-3.11-2.64-4.3-4.3-4.81-6.73-8.27-14.04-9.43-22.32-.17-1.23-.33-2.46-.12-3.7.4-.38.5-.87.53-1.4.2-4.25,1.85-8.02,4.27-11.38,4.7-6.52,12.83-5.56,16.57.15.84,1.28.85,3.02,2.28,3.93Z"/>
      <path class="cls-5" d="M304.16,140.65c-1.56-.24-1.41-1.67-1.7-2.65-1.1-3.7-2.8-7.21-3.81-10.89-1.56-5.69-5.54-10.03-7.62-15.38-.54-1.4-1.6-2.41-2.46-3.55-4.08-5.44-7.88-11.1-12.94-15.78-3.05-2.82-6.37-5.25-9.77-7.59-4.62-3.17-9.69-5.48-14.9-7.53-3.87-1.53-7.93-2.22-11.95-3.12-1.22-.27-2.56-.27-2.68,1.61-.05.72-.38,1.61-1.04,1.81-1.33.39-1.25,1.47-1.57,2.41-.68,1.98-1.95,3.15-4.21,2.78,1.26-3.43,3.13-6.48,5.68-9.09,3.76-3.85,8.19-5.01,13.29-3.13,13.59,5.01,25.04,13.04,34.24,24.26,10.92,13.3,17.39,28.69,21.46,45.23.05.19-.01.41-.02.62Z"/>
      <path class="cls-5" d="M206.5,74.74c-2.11-.87-4.07-.03-5.96.66-4.95,1.8-9.91,3.59-14.55,6.16-5.17,2.86-9.88,6.29-14.34,10.2-4.45,3.9-8.14,8.44-12.03,12.83-1.56,1.76-2.75,3.85-4.17,5.75-2.31,3.1-3.47,6.74-5.09,10.17-.71,1.5-1.93,2.79-2.67,4.39-.8,1.72-1.6,3.34-1.5,5.27.07,1.38-.62,1.86-1.9,1.75,1.05-5.19,3.16-10.01,5.3-14.8,5.63-12.6,13.36-23.72,23.94-32.73,8.53-7.26,18.21-12.34,29.06-15.15,1.98-.51,2.05-.44,2.74,1.69.41,1.27.77,2.55,1.16,3.82Z"/>
      <path class="cls-4" d="M231.52,49.24c-1.43-.91-1.44-2.65-2.28-3.93-3.73-5.7-11.87-6.67-16.57-.15-2.42,3.36-4.08,7.13-4.27,11.38-.02.53-.13,1.02-.53,1.4-.49-4.17.03-8.24,1.22-12.23.84-2.83,2.38-5.26,4.66-7.18,4.48-3.76,10.37-3.22,13.94,1.4,2.11,2.72,3.55,5.8,3.84,9.31Z"/>
      <path class="cls-4" d="M245.8,51.7c-.33-.22-.76-.37-.98-.67-1.37-1.83-3.26-2.52-5.44-2.84-2.43-.36-2.5-.41-3.33,2.11-.05-.41-.12-.82-.16-1.23-.29-3.06.76-4.03,3.85-3.55,2.88.44,5.32,2.93,6.07,6.18Z"/>
      <path class="cls-9" d="M138.65,157.39c.11,1.27.42,2.56-.45,3.71-.14-1.27-.18-2.53.45-3.71Z"/>
      <path class="cls-5" d="M304.79,143.75c-1.48-.41-1.48-1.1-.38-2,.52.59.45,1.29.38,2Z"/>
      <path class="cls-5" d="M144.31,131.89c-.07.92.3,1.96-.74,2.61.04-.93.07-1.86.74-2.61Z"/>
      <path class="cls-3" d="M307.87,171.08c-.65-.62-.7-1.22.04-1.81-.01.6-.03,1.21-.04,1.81Z"/>
      <path class="cls-4" d="M246.41,53.68c-.71-.51-.7-1.25-.64-2,.83.47.64,1.27.64,2Z"/>
      <path class="cls-5" d="M229.53,82.74c0,.52-.06,1.01-.56,1.32-.04-.53.08-1,.56-1.32Z"/>
      <path class="cls-11" d="M238.5,213.34c-5.08,4.43-8.81,4.45-15.55.05-3.36,3.14-7.25,3.95-11.64,2.48-1.73-.58-2.83-1.96-4.14-3.08-3.47-5.48-2.58-11.08-.3-16.63,1.49-3.62,3.31-7.1,5.6-10.28-3.84-2.97-7.93-4.74-12.66-4.9-1.02-.03-2.06-.31-3.02-.66-1.87-.67-3.11-1.89-3.38-4.02-.95-7.47,1.36-13.76,7.05-18.59,3.19-2.7,6.1-5.55,8.56-8.92,1.9-2.61,4.25-4.8,7.04-6.49,5.05-3.06,9.99-2.89,14.79.54,2.12,1.51,4.06,3.26,5.6,5.35,2.72,3.7,5.92,6.86,9.44,9.82,5.58,4.68,7.6,10.86,6.77,18.07-.28,2.44-1.71,3.69-3.84,4.31-1.18.35-2.44.47-3.67.63-4.4.57-7.37,1.81-11.37,4.81,1.92,3.27,3.86,6.55,5.4,10.04,1.28,2.89,1.84,5.93,1.99,9.04.14,3.11-.98,5.88-2.68,8.44ZM199.06,165.46c-.59.25-.59.8-.63,1.31-1.23,2.24-1.7,4.59-1.02,7.14.75-3.01,2.18-5.69,3.57-8.39,2.14-2.91,4.76-4.87,8.64-4.3,4.1,1.49,8.03,3.31,11.48,6,1.43,1.12,2.48.81,3.84-.13,3.75-2.6,7.67-4.91,12.18-5.98,3.27-.05,5.69,1.52,7.61,4.02.56.73,1.11,1.48,1.66,2.22.86,2.42,1.73,4.84,2.59,7.26.59-2.86.3-5.47-1.19-7.85-.69-3.14-2.86-5.21-5.28-7.01-2.77-2.05-5.12-4.46-7.11-7.27-1.92-2.71-4.16-5.13-7-6.94-3.35-2.14-6.69-2.34-10.19-.24-2.9,1.74-5.22,4.05-7.15,6.76-1.99,2.81-4.33,5.21-7.05,7.34-2.08,1.63-4.27,3.31-5.02,6.09l.07-.02ZM219.66,210.77c1.83-1,1.7-3.47,3.44-4.7,1.14,1.34,1.58,3.03,2.79,4.19,1.89,1.8,4.01,3.05,6.71,2.23,2.83-.86,4.09-3.06,4.36-5.84.22-2.27.13-4.53-.6-6.75-1.11-3.37-2.72-6.48-4.54-9.5-1.59-2.62-1.65-2.74-4.58-1.59-2.86,1.12-5.6,1.34-8.4-.06-.37-.18-.82-.2-1.18-.39-1.14-.61-2.05-.34-2.61.75-1.16,2.29-2.88,4.3-3.52,6.87-2.14,3.11-2.75,6.61-2.5,10.28.18,2.62,1.27,4.8,3.81,5.93,2.58,1.16,4.81.39,6.81-1.41ZM243.94,177.27c-14.07-6.3-27.5-6.78-41.13-.06,1.91.66,3.68,1.18,5.39,1.86,2.79,1.12,5.35,2.73,7.85,4.37,4.81,3.18,9.43,2.94,14.19-.08,4.1-2.6,8.26-5.15,13.71-6.09ZM243.38,168.89c-.55-.93-.73-1.29-.97-1.62-2.24-3.13-3.83-3.68-7.41-2.35-2.61.97-4.97,2.41-7.66,4.19,6.26,1.09,11.92,2.89,17.63,4.64-2.01-3.42-5.78-3.89-9.13-5.57,2.66-.48,4.87.01,7.54.71ZM218.73,169.13c-2.76-1.67-5.02-3.07-7.51-4.04-4.16-1.63-6.05-.82-8.07,3.6,2.25-.65,4.42-.9,6.88-.57q-8.14,3.48-8.89,6.06c5.62-2.36,11.33-3.88,17.59-5.05Z"/>
      <path class="cls-11" d="M250.61,148.43c3.89,2.18,8.31,2.78,12.93,4.07-8.65,3.07-20.43-2.64-24.43-10.75-.72-1.46-1.17-2.6-3.41-2.75-4.13-.27-5.68-5.47-5.07-8.62.19-.96.84-1.47,1.74-1.44.79.02,1.27.62,1.43,1.41.19.91.25,1.86.54,2.73.68,2.03,1.48,2.39,3.51,1.51,3.6-1.56,7.15-3.22,10.73-4.8,10.38-4.59,20.77-9.16,31.16-13.74.57-.25,1.13-.53,1.71-.72,1.15-.37,2.06-.03,2.55,1.1.46,1.05-.1,1.83-.91,2.38-.68.46-1.44.87-2.23,1.05-1.58.36-1.95,1.15-1.53,2.69.91,3.38.59,6.78-.29,10.13-2.41,9.08-10.9,15.63-20.6,16.04-2.51.11-4.94-.33-7.38-.71-.38-.57-1.09-.81-1.41-.31-.27.42.52.6.94.76ZM264.38,129.43c-.02.62-.03,1.24-.05,1.85-.16,4.1-2.38,7.05-6.23,8.31-3.22,1.05-6.7-.01-9.02-3.11-1.02-1.37-1.88-1.68-3.3-.85-.8.46-1.68.79-2.52,1.18-.92.42-.85,1.06-.33,1.74.31.41.68.77,1.06,1.13,6.42,6.09,17.21,6.95,24.28,1.67,4.75-3.55,7.88-8.13,7.31-14.47.07-1.39.38-2.83-.57-4.13-3.37,1.44-6.58,2.84-9.81,4.17-1.37.56-1.83,1.28-.8,2.53ZM252.49,132.47c-1.4.09-2.66,1.21-2.62,2.24.04,1.03,1.19,1.8,2.48,1.67,1.2-.12,2.04-1.11,1.84-2.31-.16-.97-.61-1.75-1.7-1.6Z"/>
      <path class="cls-11" d="M195.2,148.37c-.84-.47-1.53-.26-2.2-.12-10.85,2.17-24.45-3.98-26.67-18.85-.33-2.19-.19-4.37.38-6.47.46-1.7.2-2.73-1.65-3.18-.78-.19-1.55-.61-2.22-1.07-.82-.57-1.27-1.38-.77-2.42.47-.99,1.3-1.3,2.33-1.05.5.12.96.38,1.43.58,12.01,5.27,24.02,10.53,36.01,15.82,2.08.92,4.06,2.03,6.13,2.97,2.12.96,2.97.56,3.67-1.66.28-.88.38-1.82.57-2.73.17-.82.74-1.3,1.53-1.25.74.05,1.31.49,1.58,1.28,1.19,3.47-1.32,8.03-4.99,8.66-1.59.27-2.42.81-3.2,2.3-4.09,7.86-11,11.44-19.57,12.31-.31.03-.62,0-.93-.05-1.17-.2-2.34-.42-3.56-.89,4.05-1.32,8.34-1.88,12.13-4.18ZM182.03,130.29c.41-2.75.42-2.77-2.08-3.76-2.4-.95-4.84-1.82-7.12-3.08-.61-.34-1.2-.89-2.03-.43-.48,1.28-.38,2.61-.22,3.95-.47,1.45-.13,2.85.21,4.26,2.51,10.46,16.13,17.86,27.98,11.01,2.09-1.21,4.11-2.6,4.98-5.05-.35-.23-.51-.39-.69-.45-1.45-.51-2.74-1.78-4.26-1.59-1.2.15-1.55,1.8-2.5,2.6-2.58,2.14-5.52,2.95-8.67,1.87-2.96-1.02-5.18-2.94-5.37-6.42.61.36,1.18.78,1.96.76,1.3-.03,2.23-.55,2.4-1.88.18-1.4-.85-1.99-1.96-2.39-.98-.36-1.77.29-2.62.61Z"/>
      <path class="cls-11" d="M156.8,193.12c.08-.56-.33-.74-.73-.93-1.54-2.14-2.64-4.38-2.51-7.15.11-2.26.59-4.36,2.17-5.98,1.01-1.03,1.1-2.02.93-3.34-.56-4.4,1.49-7.98,5.45-9.78,3.82-1.74,7.81-.98,10.63,2.4,1.14,1.37,1.99,1.6,3.62,1,3.48-1.27,7.06-2.28,10.59-3.41,1.07-.34,2.12-.78,3.24-.14.16,1.36-.82,2.14-1.43,3.04-2.01,3.01-4.05,6-6.22,8.9-.88,1.18-.92,1.88,0,3.16,2.96,4.15,2.33,8.94-1.39,12.27-2.73,2.45-5.89,2.92-9.23,1.58-1.45-.58-2.59-.64-4.05.05-2.98,1.4-6.05.89-9.03-.25,0,0-.07.14-.06.14,0-.49-.37-.55-.73-.62,0,0,.03.02.03.02-.27-.53-.69-.84-1.27-.96ZM180.28,171.08c-2.53.75-5.05,1.5-7.59,2.25-.43-.82-.75-1.58-1.2-2.25-1.93-2.91-5.35-3.96-8.35-2.6-3.18,1.44-4.65,4.71-3.39,8.21.52,1.43.26,2.23-.82,3.07-.39.3-.63.79-.93,1.19-2.19,2.86-2.27,6.12-.2,8.76,2.28,2.9,6.33,4.18,9.41,2.27,2.12-1.31,3.43-1.13,5.39.06,2.4,1.46,5.39.61,7.26-1.56,2.12-2.45,2.27-4.8.49-7.45-.55-.68-.54-1.81-1.65-2.02-1.03-1.06-.12-1.82.43-2.61,2.07-2.95,4.17-5.89,6.26-8.84-1.93.3-3.67.5-5.11,1.52Z"/>
      <path class="cls-11" d="M289.56,192.84l-.25.03s-.05.25-.05.25c-.81.31-1.46.8-1.93,1.53,0,0-.04-.09-.04-.09-3.42,1.25-6.84,1.68-10.18-.19-1.01-.56-1.74-.06-2.61.28-4.64,1.77-9.07.29-11.51-3.9-1.89-3.26-1.73-6.59.4-9.63.91-1.31,1.06-2.1.08-3.41-2.35-3.14-4.52-6.42-6.76-9.65-.46-.66-1.37-1.33-.81-2.15.62-.91,1.72-.46,2.57-.2,3.74,1.16,7.49,2.28,11.17,3.63,1.56.57,2.45.59,3.64-.86,2.9-3.56,6.87-4.32,10.85-2.47,4.14,1.92,5.94,5.35,5.29,10.11-.1.71-.35,1.39.24,2.04,4.03,4.48,3.5,9.16.6,13.95,0,0,.1.13.1.13,0,0,.15-.07.15-.07-.58-.14-.78.25-.95.69ZM265.26,170.87c-.16-.34-.45-.34-.76-.29-1.15-.63-2.34-1.12-4.02-1.35.58.89.94,1.49,1.34,2.05,1.72,2.44,3.46,4.86,5.18,7.3.52.74,1.21,1.47.42,2.44-.62.12-.98.52-1.21,1.08-2.31,3.11-2.34,5.74-.07,8.36,2.13,2.46,5.06,3.05,8.08,1.23,1.55-.93,2.59-.9,4.13,0,3.39,1.99,7.19,1.27,9.57-1.46,2.36-2.71,2.43-6.06.19-9.34-1.3-1.44-2.23-2.67-1.43-5.05,1.08-3.2-1.13-6.49-4.26-7.63-3.06-1.11-6.42.3-8.12,3.39-.33.61-.34,1.41-1.07,1.82-2.63-.88-5.17-2.03-7.91-2.6l-.06.03Z"/>
      <path class="cls-11" d="M268.83,103.81c2.51-.06,4.62,2.16,6.46,4.72.53.73.5,1.6-.35,2.16-.67.44-1.38.34-1.97-.24-.22-.22-.44-.45-.59-.71-2.09-3.46-5.99-3.56-9.36-.96-.81.63-1.58,1.32-2.46,1.85-.55.33-1.22.18-1.64-.39-.35-.48-.27-1.03.08-1.42,2.34-2.7,4.95-4.95,9.83-5.02Z"/>
      <path class="cls-11" d="M263.7,96.63c-.03,3.83-2.7,7.44-6.08,8.56-.95.32-1.9.46-2.37-.64-.37-.87.02-1.61.88-2.05.37-.19.75-.34,1.1-.55,2.96-1.8,3.92-4.32,2.91-7.65-.21-.69-.43-1.4-.81-1.99-.46-.73-.54-1.38.14-1.91.87-.68,1.59-.11,2.12.54,1.42,1.74,1.98,3.82,2.1,5.69Z"/>
      <path class="cls-11" d="M274.8,100.26c-5.79,0-9.84-5.25-8.4-10.38.17-.59.44-1.26,1.16-1.24.77.02,1.34.48,1.45,1.32.11.82.19,1.63.32,2.45.48,3.09,2.28,4.69,5.41,4.79,1.03.03,2.06-.07,3.09-.08.79,0,1.02.63,1.19,1.21.17.58-.27.92-.73,1.18-1.21.7-2.54.77-3.5.75Z"/>
      <path class="cls-1" d="M250.61,148.43c-.43-.15-1.21-.34-.94-.76.32-.5,1.03-.26,1.41.31-.16.15-.31.29-.47.44Z"/>
      <path class="cls-3" d="M287.33,194.65c.47-.73,1.12-1.22,1.93-1.53.08,1.42-.74,1.71-1.93,1.53Z"/>
      <path class="cls-3" d="M156.8,193.12c.58.12,1,.43,1.27.96-.65-.02-1.17-.21-1.27-.96Z"/>
      <path class="cls-3" d="M158.03,194.06c.36.06.72.13.73.62-.36-.07-.61-.27-.73-.62Z"/>
      <path class="cls-3" d="M289.56,192.84c.16-.44.37-.82.95-.69-.14.48-.52.61-.95.69Z"/>
      <path class="cls-8" d="M211.54,195.97c.63-2.56,2.35-4.57,3.52-6.87.56-1.09,1.47-1.37,2.61-.75.36.19.81.21,1.18.39,2.79,1.4,5.53,1.18,8.4.06,2.93-1.15,2.99-1.03,4.58,1.59,1.83,3.02,3.43,6.13,4.54,9.5.73,2.22.83,4.48.6,6.75-.27,2.78-1.53,4.98-4.36,5.84-2.7.82-4.83-.43-6.71-2.23-1.21-1.16-1.65-2.84-2.79-4.19-1.74,1.23-1.6,3.7-3.44,4.7-.52-.66-1.31-.47-1.99-.65-4.13-1.11-6.11-3.66-6.16-8-.02-2.05.02-4.1.03-6.16Z"/>
      <path class="cls-6" d="M237.11,161.11c-4.51,1.07-8.43,3.38-12.18,5.98-1.36.94-2.4,1.25-3.84.13-3.45-2.7-7.38-4.52-11.48-6-.6-1.2-2.28-.06-2.95-1.42,1.19-1.94,3.28-3.13,4.48-5.02,1.78-2.81,4.53-4.5,6.99-6.52,1.26-1.03,2.87-1.49,4.64-1.49,4.84,0,7.94,3.28,11.08,6.11,1.79,1.61,3.36,3.61,5.04,5.43.47.5,1.19.9,1,1.78-.72.95-2.1.03-2.78,1.01ZM218.89,157.11c.18-1.41.22-2.6-.42-3.72-.65-1.12-1.55-1.62-2.83-1.01-1.08.52-1.22,1.35-.29,2.09,1.1.88,2.26,1.69,3.54,2.64ZM227.32,157.29c1.28-1.13,2.04-2.28,3.34-2.75.51-.18.85-.57.68-1.19-.15-.55-.54-.85-1.05-1.02-1.3-.44-2.2.02-2.72,1.25-.45,1.07-.6,2.17-.25,3.71Z"/>
      <path class="cls-2" d="M243.94,177.27c-5.45.94-9.61,3.49-13.71,6.09-4.76,3.02-9.38,3.26-14.19.08-2.49-1.65-5.05-3.25-7.85-4.37-1.7-.68-3.47-1.21-5.39-1.86,13.63-6.72,27.06-6.24,41.13.06Z"/>
      <path class="cls-7" d="M237.11,161.11c.69-.99,2.07-.07,2.78-1.01.19-.88-.53-1.27-1-1.78-1.68-1.82-3.26-3.82-5.04-5.43-3.14-2.83-6.24-6.1-11.08-6.11-1.76,0-3.38.45-4.64,1.49-2.45,2.02-5.21,3.71-6.99,6.52-1.2,1.89-3.29,3.08-4.48,5.02.66,1.36,2.35.21,2.95,1.42-3.88-.56-6.5,1.39-8.64,4.3-.66-.01-1.32-.03-1.98-.04.75-2.78,2.94-4.46,5.02-6.09,2.71-2.13,5.06-4.53,7.05-7.34,1.92-2.71,4.24-5.02,7.15-6.76,3.5-2.1,6.84-1.9,10.19.24,2.83,1.81,5.08,4.23,7,6.94,1.99,2.81,4.34,5.21,7.11,7.27,2.42,1.8,4.59,3.87,5.28,7.01-.37.43-.85.6-1.4.6-.55-.74-1.1-1.49-1.66-2.22-1.92-2.5-4.34-4.07-7.61-4.02Z"/>
      <path class="cls-5" d="M243.38,168.89c-2.66-.7-4.88-1.19-7.54-.71,3.36,1.67,7.12,2.15,9.13,5.57-5.71-1.75-11.37-3.55-17.63-4.64,2.68-1.77,5.05-3.22,7.66-4.19,3.59-1.33,5.17-.79,7.41,2.35.23.33.42.7.97,1.62Z"/>
      <path class="cls-5" d="M218.73,169.13c-6.26,1.17-11.97,2.7-17.59,5.05q.75-2.58,8.89-6.06c-2.47-.33-4.63-.08-6.88.57,2.02-4.42,3.91-5.23,8.07-3.6,2.49.98,4.76,2.37,7.51,4.04Z"/>
      <path class="cls-4" d="M211.54,195.97c-.01,2.05-.05,4.1-.03,6.16.05,4.34,2.03,6.88,6.16,8,.67.18,1.47-.01,1.99.65-1.99,1.8-4.22,2.57-6.81,1.41-2.54-1.14-3.63-3.32-3.81-5.93-.25-3.67.36-7.17,2.5-10.28Z"/>
      <path class="cls-2" d="M198.99,165.48c.66.01,1.32.03,1.98.04-1.39,2.7-2.82,5.38-3.57,8.39-.68-2.55-.21-4.9,1.02-7.14.57-.26.66-.76.63-1.31l-.07.02Z"/>
      <path class="cls-2" d="M246.37,167.35c.56,0,1.03-.16,1.4-.6,1.48,2.38,1.78,5,1.19,7.85-.86-2.42-1.73-4.84-2.59-7.26Z"/>
      <path class="cls-7" d="M199.06,165.46c.02.55-.06,1.05-.63,1.31.05-.52.04-1.06.63-1.31Z"/>
      <path class="cls-4" d="M275.57,126.87c.57,6.34-2.56,10.92-7.31,14.47-7.07,5.28-17.86,4.43-24.28-1.67-.37-.35-.74-.72-1.06-1.13-.53-.68-.59-1.31.33-1.74.84-.39,1.72-.72,2.52-1.18,1.43-.83,2.28-.51,3.3.85,2.32,3.1,5.8,4.16,9.02,3.11,3.86-1.26,6.07-4.21,6.23-8.31.02-.62.03-1.23.05-1.85,3.73-.86,7.46-1.71,11.18-2.57Z"/>
      <path class="cls-8" d="M275.57,126.87c-3.73.86-7.46,1.71-11.18,2.57-1.03-1.25-.57-1.97.8-2.53,3.23-1.33,6.44-2.73,9.81-4.17.95,1.31.64,2.74.57,4.13Z"/>
      <path class="cls-5" d="M252.49,132.47c1.1-.15,1.54.63,1.7,1.6.2,1.2-.63,2.19-1.84,2.31-1.3.13-2.44-.64-2.48-1.67-.04-1.03,1.22-2.14,2.62-2.24Z"/>
      <path class="cls-4" d="M182.25,133.2c.19,3.48,2.41,5.41,5.38,6.42,3.15,1.08,6.09.26,8.67-1.87.96-.79,1.31-2.44,2.5-2.6,1.53-.2,2.82,1.08,4.26,1.59.19.07.34.22.69.45-.87,2.45-2.89,3.84-4.98,5.05-11.85,6.85-25.47-.55-27.98-11.01-.34-1.41-.67-2.81-.21-4.26,2.65,1.1,5.51,1.23,8.27,1.85,1.23.28,2.36.59,3.2,1.58-.5.98-.22,1.9.2,2.81Z"/>
      <path class="cls-8" d="M182.05,130.39c-.84-.99-1.97-1.3-3.2-1.58-2.75-.62-5.62-.75-8.27-1.85-.16-1.34-.26-2.67.22-3.95.84-.46,1.43.1,2.03.43,2.28,1.26,4.71,2.12,7.12,3.08,2.49.99,2.49,1,2.07,3.76,0,0,.02.11.02.11Z"/>
      <path class="cls-5" d="M182.05,130.39s-.03-.11-.02-.11c.85-.31,1.64-.97,2.62-.6,1.11.41,2.14.99,1.96,2.39-.17,1.34-1.1,1.85-2.4,1.88-.78.02-1.35-.4-1.96-.76-.42-.91-.7-1.83-.2-2.81Z"/>
      <path class="cls-5" d="M178.7,181.01c1.11.22,1.11,1.35,1.65,2.02-.17.59-.39,1.17-.52,1.77-.82,3.94-4.24,5.19-7.93,3.94-1.62-.55-2.9-.49-4.4-.05-4.09,1.21-7.62-.7-9-4.72-.34-1-.44-2-.51-3.02.31-.4.55-.89.93-1.19,1.08-.84,1.34-1.64.82-3.07-1.27-3.5.2-6.77,3.39-8.21,3-1.36,6.41-.32,8.35,2.6.45.67.76,1.43,1.2,2.25,2.54-.75,5.06-1.5,7.59-2.25,1.01.17,1.65.62.69,1.55-1.61,1.58-2.9,3.38-4.07,5.29-1.48,2.43-1.17,2.98,1.8,3.09Z"/>
      <path class="cls-10" d="M158,180.96c.07,1.02.17,2.02.51,3.02,1.38,4.01,4.91,5.93,9,4.72,1.5-.44,2.78-.5,4.4.05,3.69,1.25,7.11,0,7.93-3.94.12-.6.34-1.18.52-1.77,1.79,2.66,1.63,5-.49,7.45-1.88,2.17-4.86,3.02-7.26,1.56-1.96-1.2-3.27-1.38-5.39-.06-3.09,1.91-7.14.64-9.41-2.27-2.07-2.64-1.99-5.9.2-8.76Z"/>
      <path class="cls-10" d="M178.7,181.01c-2.97-.11-3.28-.65-1.8-3.09,1.17-1.91,2.46-3.71,4.07-5.29.95-.94.32-1.38-.69-1.55,1.44-1.02,3.18-1.22,5.11-1.52-2.09,2.95-4.18,5.89-6.26,8.84-.55.79-1.46,1.55-.43,2.61Z"/>
      <path class="cls-5" d="M265.32,170.84c2.74.57,5.28,1.72,7.91,2.6.72-.41.73-1.22,1.07-1.82,1.7-3.09,5.06-4.5,8.12-3.39,3.13,1.14,5.33,4.43,4.26,7.63-.8,2.38.13,3.61,1.43,5.05-.03.41-.03.83-.09,1.23-.79,5.97-5.87,8.17-10.28,6.31-1.35-.57-2.47-.36-3.8.19-4.12,1.69-7.4-.52-7.64-4.98-.03-.51-.06-1.03-.09-1.54.22-.56.59-.96,1.21-1.08,2.88-.16,3-.34,1.9-2.69-.62-1.33-1.59-2.36-2.57-3.41-1.07-1.13-2.03-2.35-1.43-4.08Z"/>
      <path class="cls-10" d="M266.21,182.11c.03.51.06,1.03.09,1.54.23,4.46,3.51,6.67,7.64,4.98,1.33-.54,2.45-.76,3.8-.19,4.41,1.86,9.49-.34,10.28-6.31.05-.41.06-.82.09-1.23,2.23,3.27,2.16,6.62-.19,9.34-2.38,2.74-6.18,3.45-9.57,1.46-1.55-.91-2.58-.94-4.13,0-3.02,1.82-5.94,1.23-8.08-1.23-2.26-2.61-2.24-5.24.07-8.36Z"/>
      <path class="cls-10" d="M265.32,170.84c-.6,1.74.36,2.95,1.43,4.08.98,1.05,1.95,2.08,2.57,3.41,1.1,2.35.98,2.54-1.9,2.69.78-.97.09-1.71-.42-2.44-1.72-2.44-3.46-4.86-5.18-7.3-.4-.57-.76-1.16-1.34-2.05,1.67.23,2.87.72,4.02,1.35.19.28.45.34.77.29l.06-.03Z"/>
      <path class="cls-5" d="M265.26,170.87c-.31.05-.58-.01-.77-.29.31-.05.61-.05.77.29Z"/>
      <path class="cls-11" d="M218.89,157.11c-1.29-.95-2.44-1.76-3.54-2.64-.93-.74-.79-1.57.29-2.09,1.28-.61,2.18-.11,2.83,1.01.64,1.12.6,2.31.42,3.72Z"/>
      <path class="cls-11" d="M227.32,157.29c-.35-1.54-.2-2.64.25-3.71.52-1.23,1.42-1.69,2.72-1.25.51.17.9.47,1.05,1.02.17.62-.18,1.01-.68,1.19-1.3.47-2.06,1.62-3.34,2.75Z"/>
    </g>
  </g>
</svg>