<?xml version="1.0" encoding="UTF-8"?>
<svg id="Sprite_Alien" xmlns="http://www.w3.org/2000/svg" viewBox="0 0 1164.68 667.67">
  <defs>
    <style>
      .cls-1 {
        fill: #468039;
      }

      .cls-1, .cls-2, .cls-3, .cls-4, .cls-5 {
        stroke-width: 0px;
      }

      .cls-2 {
        fill: #71aa42;
      }

      .cls-3 {
        fill: #a7ce80;
      }

      .cls-4 {
        fill: #050808;
      }

      .cls-5 {
        fill: #bfd34c;
      }
    </style>
  </defs>
  <path class="cls-4" d="M931.45,537.54c-7.19.07-14.33-.41-21.45-1.41-4.69-.65-9.32-1.51-13.86-2.8-8.14-2.31-15.85-5.6-22.83-10.43-3.89-2.7-7.6-5.65-10.7-9.27-.7-.82-1.61-1.32-2.57-1.74-5.19-2.3-9.81-5.43-14.02-9.23-4.18-3.77-7.68-8.1-10.63-12.84-2.99-4.8-5.04-10.02-6.52-15.48-1.21-4.45-1.85-8.98-1.95-13.57-.18-8,1.12-15.75,4.15-23.2,2.71-6.66,6.35-12.72,11.03-18.17,1.63-1.9,3.44-3.61,5.32-5.24.82-.71,1.42-1.43,1.72-2.62.77-3.03,1.81-6,2.85-8.95,1.41-3.98,2.88-7.94,4.59-11.81,5.01-11.34,11.05-22.06,18.94-31.67,5.92-7.2,12.57-13.61,20.36-18.76,7.86-5.19,16.38-8.71,25.8-9.93,5.43-.7,10.85-.65,16.24.15,5.69.84,11.07,2.73,16.26,5.19,9.79,4.64,17.84,11.52,25.06,19.46,6.85,7.52,12.4,15.95,17.14,24.91,3.45,6.52,6.41,13.25,8.86,20.22,1.4,3.99,2.7,8.01,3.89,12.06.15.53.46.86.83,1.18,2.95,2.55,5.63,5.35,8.07,8.39,5.12,6.38,8.58,13.59,10.95,21.39,1.54,5.06,2.24,10.24,2.26,15.47.03,10.18-2.26,19.83-7.31,28.75-2.17,3.82-4.56,7.49-7.5,10.76-3.92,4.36-8.31,8.14-13.44,11.04-1.73.98-3.47,1.93-5.29,2.75-.82.37-1.55.89-2.16,1.56-5.08,5.51-11.05,9.9-17.57,13.5-3.03,1.67-6.29,2.95-9.57,4.11-4.6,1.63-9.28,2.99-14.08,3.87-5.63,1.03-11.3,1.83-17.03,2.1-1.94.09-3.88.17-5.82.26ZM833.06,448.34c-1.05.56-1.69,1.33-1.55,2.63.1.94.04,1.89.06,2.83,0,.43.08.8.61.85-.03,1.99-.16,3.99-.03,5.98-.1,1.4.12,2.77.24,4.16.42,4.85,1.66,9.51,3.41,14.01,3.53,9.11,9.16,16.71,16.83,22.78.36.28.73.62,1.34.49-.28-.53-.5-.98-.75-1.41-3.25-5.71-5.5-11.8-7.11-18.15-.58-2.3-1.07-4.63-1.6-6.95-.06-.54-.11-1.09-.18-1.63-.48-3.44-.86-6.9-1.02-10.37-.31-6.91-.06-13.82.27-20.72.07-1.49.33-2.96.43-4.45.14-1.98.65-3.92.67-5.91.63-3.34,1.26-6.69,1.91-10.12-.62.18-.85.58-1.12.91-2.61,3.2-4.94,6.58-6.83,10.26-.85,1.66-1.83,3.3-2.51,5.01-1.11,2.79-2.05,5.66-2.79,8.59-.15.11-.22.23-.07.39-.07.27-.14.54-.21.81ZM1025.96,462.07c1.02-16.2-6.76-31.97-14.46-39.58.71,3.62,1.36,6.95,2.01,10.28,0,.3-.03.6.01.89.75,5.12,1.12,10.28,1.34,15.44.35,8.21-.07,16.4-1.04,24.57-.04.13-.08.26-.11.4-.03.3-.07.6-.1.9-.41,1.88-.83,3.76-1.22,5.65-.77,3.7-1.75,7.35-3.2,10.85-1.26,3.02-2.35,6.13-4.1,8.94-.32.52-.75,1.02-.88,1.8.74-.15,1.16-.58,1.6-.92,2.97-2.29,5.53-5,7.95-7.85,3.67-4.32,6.43-9.22,8.58-14.42,1.72-4.18,2.92-8.56,3.36-13.08.12-1.27.42-2.55.29-3.84ZM852.48,485.45c.02.19.05.39.07.58-.06.35.2.6.27.91,0,.17.05.3.2.39,0,.08.03.15.07.22.02.2,0,.41.07.59,1.73,4.52,3.7,8.93,6.3,13.02,3.03,4.77,6.58,9.1,10.86,12.84,4.04,3.53,8.43,6.5,13.19,8.94,3.01,1.55,6.15,2.83,9.35,3.93,4.28,1.46,8.63,2.7,13.1,3.48,3.18.56,6.38.97,9.6,1.28,3.32.32,6.63.7,9.96.77,3.63.07,7.26.1,10.9-.19,3.37-.27,6.74-.52,10.1-.91,5.65-.66,11.15-1.94,16.57-3.64,6.75-2.11,13.08-5.07,18.89-9.11,3.4-2.37,6.61-4.99,9.44-8,3.06-3.26,5.88-6.74,8.11-10.67,2.72-4.79,4.87-9.8,6.47-15.05,1.1-3.62,1.88-7.3,2.5-11.04.77-4.62,1.22-9.27,1.36-13.94.17-5.78-.03-11.54-.53-17.31-.41-4.75-1.08-9.46-1.9-14.14-1.34-7.6-3.31-15.05-5.74-22.37-2.65-8-5.83-15.79-9.78-23.23-2.64-4.97-5.41-9.87-8.74-14.43-1.02-1.39-1.91-2.89-3.23-4.05-.87-1.4-1.64-2.87-2.96-3.93-.08-.12-.15-.26-.24-.37-4.55-5.18-9.47-9.94-15.14-13.93-7.48-5.26-15.63-8.91-24.64-10.46-8.42-1.45-16.68-.51-24.72,2.33-9.26,3.27-17.23,8.58-24.29,15.34-7.99,7.64-14.47,16.43-19.87,26.04-4.5,8.01-8.17,16.38-11.15,25.06-3.11,9.05-5.43,18.3-6.89,27.76-1.14,7.35-1.79,14.74-1.88,22.16-.11,9.1.84,18.1,3.05,26.95.36,1.42.47,2.93,1.31,4.2v-.02Z"/>
  <path class="cls-2" d="M853.09,487.55c-.04-.07-.06-.14-.07-.22.03-.18-.05-.3-.2-.39-.08-.31-.34-.56-.27-.91.24-.23.27-.43-.07-.58,0,0,.01.02.01.02.05-.65-.04-1.28-.17-1.92-.51-2.58-1.11-5.13-1.4-7.76-.44-4-.87-8-.84-12.03.03-3.84.06-7.68.02-11.51-.01-1.36.23-2.68.41-4,.4-2.9.94-5.77,1.37-8.67.54-3.63,1.19-7.25,2.02-10.82,1.84-7.84,4.19-15.53,6.76-23.17,1.55-4.6,3.91-8.81,6-13.15,1.68-3.5,3.63-6.86,5.59-10.21,1.88-3.22,3.79-6.43,5.71-9.62,1.72-2.86,3.85-5.44,5.92-8.05,1.19-1.51,2.56-2.9,3.95-4.25,1.57-1.52,3.33-2.85,4.85-4.42,1.5-1.55,3.2-2.84,4.92-4.1,4.35-3.2,9.16-5.61,14.03-7.91,1.43-.68,2.95-1.2,4.46-1.69,3.31-1.07,6.68-1.88,10.08-2.61,1.55-.33,3.13-.72,4.7-.66,1.77.08,3.53.48,5.3.73,2.41.34,4.76.99,7.12,1.53,5.36,1.23,10.41,3.23,15.19,5.92,2.3,1.29,4.52,2.71,6.72,4.16,1.28.85,2.66,1.54,3.86,2.54,2.07,1.72,3.97,3.6,5.81,5.56.51.55,1.18,1.14,2.11,1,1.32,1.06,2.09,2.53,2.96,3.93-.05.53.19.97.43,1.41.59,1.09,1.21,2.17,1.78,3.27,3.32,6.41,5.85,13.14,8.25,19.92,1.38,3.88,2.33,7.88,3.41,11.85,1,3.69,1.66,7.43,2.45,11.16.24,1.15.29,2.33.46,3.71-.97-.98-.57-2.31-1.48-3.1-.66,1.81.08,4.83,1.76,7.41l.12.48c-.04.19.03.32.2.41.27,1,.59,2,.81,3.01.79,3.67,1.08,7.35-.09,11.01-.97,1.05-2,1.55-3.26.42-.1-.09-.28-.07-.43-.09-.05-.04-.1-.07-.15-.11l.11.15c.65,1.54,1.79,2.05,3.32,1.49l.31-.32-.02.02.14-.02.14.02c.23,3.19-.34,6.34-.67,9.49-.29,2.8-.87,5.57-1.43,8.33-.44,2.17-.57,4.43-1.76,6.4-.83-1.5-1.77-1.53-3.52-.47-.21.13-.36.34-.54.52-.98.95-1.18,2.27-1.63,3.47-.9,2.42-1.62,4.92-3.3,6.97-.5.54-.98,1.12-1.52,1.63-1.11,1.07-2.4,1.66-4,1.67-1.49.01-2.71-.48-3.8-1.42-.21-.18-.45-.49-.75-.19-.23.23-.17.58,0,.84.73,1.13,1.74,1.95,3.06,2.23,3.21.67,6.77-1.02,8.47-3.93.57-.63,1.03-1.33,1.4-2.09.78-1.61,1.42-3.28,1.94-4.99.25-.81.5-1.62.98-2.33.8-1.18,1.33-1.23,2.33-.27.18.17.35.35.53.52-.19.51-.43,1.01-.56,1.54-1,3.83-2.89,7.29-4.45,10.89-.27.63-1.08,1.13-.81,1.84.26.7,1.11.94,1.76,1.28,4.03,2.1,5.53,5.65,5.57,9.95.02,2.07.01,4.17-.98,6.09-.07.13-.13.31-.09.42.39,1.02-.16,1.85-.59,2.67-.78,1.49-1.75,2.89-2.92,4.09-1.28,1.32-2.58,2.61-4,3.79-1.71,1.42-3.73,2.01-5.78,2.51-1.25.31-2.32.86-3.31,1.61-.66.5-.64.97-.14,1.66,1.09,1.52,1.06,3.52-.1,4.96-1.61,2.01-3.74,3.08-6.26,3.39-1.87.23-3.97-.89-4.37-2.41-.31-1.2-.31-2.46.07-3.68.29-.93.76-1.71,1.7-2.14,1.1-.51,1.65-1.54,2.27-2.5.24-.37.23-.73.02-1.12-.27-.48-.48-.98-.89-1.36-1.19-1.1-1.99-2.46-2.55-3.97-.16-.44-.3-.94-.85-1.21-.68.82-1.65,1.15-2.46,1.72-2.56,1.81-5.19,3.51-8.05,4.82-.63.29-1.27.56-1.91.84-.47.21-.59.49-.49,1.06.48,2.68-.16,5.11-1.82,7.26-1.18,1.54-2.43,2.98-4.17,3.98-1.05.6-2.19.93-3.21,1.51-2.12,1.21-4.37,1.79-6.8,1.75-.65-.01-1.3-.02-1.94,0-.51.02-.99-.07-1.44-.33-.66-.38-1.36-.53-2.12-.62-1.08-.13-2.14-.61-2.92-1.35-1.61-1.53-3.28-3.07-3.72-5.43-.04-.24-.25-.44-.3-.68-.15-.75-.65-.84-1.32-.87-1.06-.05-2.05.32-3.11.31-4.52-.02-9.03-.03-13.55-.55-2.02-.23-4.04-.45-6.04-.74-4.07-.59-8.1-1.45-12.03-2.64-1.24-.38-2.14-.46-2.92.68-.13.19-.41.27-.63.38-2.77,1.41-5.4.78-7.91-.68-1.07-.62-2.04-1.41-3-2.19-1.47-1.2-2.9-2.5-3.45-4.38-.41-1.4-1.09-2.41-2.44-2.95-.13-.05-.22-.2-.34-.29-1.75-1.38-3.55-2.71-5.26-4.14-3.32-2.78-6.49-5.73-9.1-9.21-.31-.41-.59-.81-1.16-.81ZM970.38,388.81s-.09-.07-.14-.11c.04.05.08.09.11.14.03.73.21,1.38.89,1.79,1.47,2.4,2.46,4.97,2.96,7.75.34,1.86.44,3.75.67,5.62.25,2.03.61,4.04,1.47,5.91.85,1.85,2.31,3.03,4.41,3.03,1.99,0,3.33-1.18,4.19-2.89.83-1.65,1.05-3.42.82-5.23-.36-2.83-1.13-5.54-2.4-8.11-.7-1.42-1.32-2.89-1.94-4.36-.51-1.21-.69-2.49-.54-3.8.15-1.33.29-2.67.58-3.98.4-1.81.24-3.55-.36-5.28-.56-2.35-1.85-4.35-3.03-6.41-.07-.13-.18-.24-.3-.33-.16-.13-.37-.19-.55-.09-.2.11-.22.31-.13.51.1.23.2.46.32.67,1.17,1.97,1.96,4.1,2.57,6.3.5,1.49.14,2.94-.18,4.39-.82,3.82-.85,7.56.95,11.15.47.93.92,1.86,1.37,2.8.34.71.72,1.41.76,2.22-.26-.03-.43-.15-.55-.42-.32-.73-.62-1.47-1.03-2.14-.33-.55-.45-1.72-1.2-1.44-.95.36-.17,1.33,0,1.94.66,2.25,1.07,4.52,1,6.87-.01.45,0,.89.03,1.34.03.38.24.64.63.72.46.09.77-.1.95-.51.34-.78.5-1.59.5-2.45,0-.51-.25-1.11.31-1.51.82,2.23.88,4.45-.17,6.61-1.11,2.27-3.91,2.38-5.29.25-.41-.63-.66-1.34-.84-2.06-.16-.68-.26-1.37-.39-2.05-.55-2.77-.64-5.63-1.47-8.35-.83-2.76-1.74-5.49-3.86-7.61-.24-.49-.61-.81-1.17-.86ZM908.15,380.46c-1.39,1.64-2.13,3.55-2.4,5.67-.49.33-.41.91-.49,1.35-.28,1.45-1.07,2.54-2.13,3.48-1.62,1.44-3.77,1.16-5.01-.6-.51-.73-.76-1.47-.76-2.35,0-1.25.12-2.47.47-3.67.18-.6.29-1.22.45-1.88-.21.05-.34.03-.38.09-1.24,1.63-2.01,3.53-1.95,5.51.08,3.12,1.22,4.91,4.23,5.4,1.89.31,4.48-.82,5.68-3.08.72-1.36,1.24-2.81,1.58-4.32.05-.21.02-.39-.16-.52.18-1.71.88-3.34.86-5.08.03-.07.05-.14.08-.21-.02.07-.04.15-.06.22ZM899.1,499.78c.26.81.62,1.58,1.09,2.29.36.54.94.57,1.47.32.61-.28.49-.76.26-1.26-.5-1.09-.76-2.25-.97-3.43-.11-.63-.31-1.25-.5-1.87-.08-.28-.2-.63-.56-.61-.31.02-.55.31-.6.6-.13.63-.18,1.27-.26,1.91-.36-.02-.72-.08-.73-.54-.01-.54-.03-1.09.05-1.62.32-2.18.3-4.39.5-6.58.22-2.4.27-4.8.26-7.21,0-.68-.15-1.37.09-2.04.77.12.56.74.54,1.18-.11,2.24.36,4.45.35,6.68,0,.44.06.86.44,1.16.31-.27.35-.61.43-.95.42-1.66.25-3.35.31-5.04.13-3.59-.21-7.13-.92-10.64-.47-2.29-1.42-4.43-2.09-6.66-.51-1.69-1.37-3.18-2.41-4.59-.17-.23-.31-.53-.78-.35-.05.74.29,1.39.58,2.06.12.28.27.56-.17.7-.44-.3-.53-.82-.75-1.25-.62-1.19-1.35-2.29-2.36-3.35-.08.77.31,1.27.56,1.78,2.49,5.12,3.82,10.57,4.41,16.18.43,4.1.16,8.25.01,12.37-.37.3-.28.72-.28,1.11,0,2.93-.02,5.87.02,8.8.02,1.14.22,2.27.58,3.35.23.69.26,1.49.92,1.98.39.85,1.1,1.37,1.87,1.82,2.03,1.18,3.89.68,5.09-1.33.44-.73.66-1.54.81-2.39.41-2.35.07-4.67-.23-6.99-.37-2.82-.83-5.62-.66-8.47.16-2.8.86-5.42,3.02-7.4,1.59-1.47,3.41-1.99,5.5-1.14,1.38.56,2.48,1.46,3.28,2.71.54.84,1.04,1.7,1.57,2.54,2.35,3.79,6.57,4.7,10,2.91,2.55-1.33,4.36-3.45,5.36-6.18.89-2.42,1.3-4.99,2.38-7.53-.7.46-.98.98-1.26,1.54-.78,1.56-1.53,3.14-2.39,4.64-1.14,1.98-2.22,4-4.21,5.34-1.97,1.32-4.57,1.48-6.48.26-1.01-.65-1.57-1.67-2.11-2.66-.73-1.33-1.63-2.52-2.71-3.55-2.42-2.29-5.89-3.01-8.71-1.28-2.45,1.51-4.1,3.7-4.65,6.5-.55,2.79-.53,5.65-.18,8.48.3,2.42.83,4.81.85,7.26.01,1.53.16,3.1-.54,4.55-.6,1.26-1.43,1.59-2.67.96-1.16-.59-2.2-1.36-2.65-2.68.06-.49-.07-.94-.22-1.4-.14-.43-.16-.87.45-1ZM943.04,443.77c.86.04,1.6.53,2.42.68,1.85.33,4.21-1.03,5.19-3.09.96-2.02,1.29-4.2,1.05-6.44-.33,1.44-.78,2.85-1.26,4.24-.29.86-.74,1.62-1.4,2.25-1.12,1.07-2.37,1.51-3.95,1.08-.8-.22-1.65-.83-2.55-.19-.71.25-1.09.85-1.45,1.45-.79,1.34-1.4,2.75-1.78,4.25-.24.97-.54,1.92-.94,2.83-.75,1.69-2.21,2.54-3.9,2.41-.82-.06-1.36-.62-2.1-1.18.51,1.77,2.09,2.78,3.6,2.26,1.43-.49,2.84-1.16,3.48-2.71.23-.55.44-1.11.63-1.67.49-1.46.82-2.98,1.47-4.39.33-.71.58-1.51,1.46-1.78ZM883.92,434.91c-.24.14-.26.41-.34.64-1.1,3.43-1.3,6.93-.7,10.47.56,3.29,1.01,6.59.73,9.94-.12,1.51-.47,2.93-1.26,4.25-.91,1.5-3.4,2.24-4.72,1.84-1.86-.56-3.31-1.62-4.23-3.33-1.52-2.83-2.07-5.92-1.98-9.08.05-1.73.41-3.45.68-5.17.5-3.1.87-6.21.7-9.36-.07-1.35-.3-2.67-.92-3.9-.71-1.43-1.7-1.95-3.27-1.74-.59.08-1.18.2-1.76.31-1.57.31-2.71-.33-3.56-1.61-.3-.46-.49-.97-.65-1.5-.54-1.84-.26-3.65.15-5.46.74-3.29,2.31-6.24,3.69-9.27,3.06-6.69,4.44-13.65,3.21-21.1-.35.56-.38,1.1-.41,1.64-.06,1.04-.05,2.1-.2,3.13-.88,6-2.58,11.74-5.26,17.19-.68,1.38-1.34,2.78-1.91,4.21-1.21,3.04-1.91,6.15-1.39,9.47.61,3.88,3.92,6.11,7.71,5.06,1.23-.34,1.76-.09,2.15,1.09.28.85.38,1.74.41,2.65.1,3.4-.43,6.75-.97,10.09-.04.03-.11.06-.1.08,0,.08.04.15.07.22l-.27,2.09s-.1.06-.1.08c.01.08.05.15.08.22-.2,1.49-.27,2.98,0,4.48-.25.22-.21.42.05.6,0,1.39.45,2.68.87,3.99.74,2.33,2.18,4.13,4.07,5.57,3.32,2.53,7.68,1.72,9.65-1.8.96-1.71,1.45-3.58,1.54-5.55.11-2.46-.35-4.85-.75-7.25-.61-3.63-1.32-7.25-1.09-10.96.05-.74.04-1.49.05-2.24.05-.06.11-.12.15-.19.01-.02-.02-.06-.03-.09-.03.1-.07.2-.1.3ZM881.79,380.11c-.12,1.61.27,2.93,1.76,3.82,1.33.79,2.62.7,3.97.12,1.77-.76,3.18-2.02,4.58-3.28,3.87-3.5,6.97-7.62,9.61-12.09.88-1.49,1.81-2.99,2.12-4.74.29-1.62.29-3.26-1.02-4.44-1.23-1.11-2.8-1.54-4.45-1.07-1.56.44-3.23.71-4.19,2.28-.15.24-.46.37-.68.57-1.3,1.16-2.68,2.23-3.86,3.5-2.27,2.44-4.29,5.08-5.77,8.1-1.12,2.3-1.95,4.66-2.08,7.23ZM895.88,417.33c-.16,4.5,3.03,7.51,7.29,7.38,2.36-.07,4.07-1.48,5.51-3.19,2.08-2.47,3.41-5.38,4.7-8.29.76-1.72,1.39-3.52,1.32-5.47-.14-3.81-3.23-6.72-6.84-6.32-2.02.22-3.84,1.02-5.35,2.43-2.6,2.43-4.38,5.41-5.71,8.66-.62,1.52-.99,3.13-.93,4.8ZM990.72,488.06c0-.5.05-1,0-1.49-.29-2.51-1.71-4.3-3.99-5.14-2.05-.75-4.02-.2-5.58,1.45-.41.43-.86.85-1.18,1.34-1.25,1.93-2.76,3.64-4.43,5.21-.98.92-1.81,1.99-2.53,3.12-1.12,1.75-1.82,3.65-1.71,5.76.12,2.15,1.68,5.03,4.62,5.52,1.96.33,3.62-.38,5.24-1.23,2.88-1.52,5.01-3.87,6.87-6.49,1.72-2.41,2.7-5.07,2.7-8.05ZM949.09,358.84c.12,3.23,1.07,5.49,2.75,7.42,1.73,1.98,3.46,3.96,4.83,6.22.46.76,1,1.49,1.69,2.07,1.33,1.14,2.89,1.46,4.58,1.22,3.81-.54,5.48-4.77,4.91-7.7-.58-2.95-1.75-5.7-3.43-8.2-1.99-2.98-4.62-5.1-8.16-6.11-3.76-1.07-7.37,2.41-7.18,5.07ZM935.67,518.97v-.02c.6,0,1.2.02,1.79,0,3.83-.16,7.37-1.2,10.32-3.72,2.24-1.91,3.6-4.25,2.84-7.35-.73-3.01-3.2-4.37-6.11-3.38-.66.22-1.33.42-1.96.71-2.78,1.23-5.62,2.28-8.54,3.11-1.63.46-3.17,1.16-4.53,2.22-1.69,1.32-2.17,3.66-1.08,5.47,1.18,1.96,2.89,2.95,5.18,2.96.7,0,1.39,0,2.09,0ZM871.41,489.03c.52.03.98-.12,1.45-.3,2.08-.83,2.79-3.19,2.51-5.55-.39-3.17-1.81-5.98-3.54-8.61-1.21-1.83-2.74-3.42-4.83-4.29-1.83-.76-3.44-.25-4.14,1.61-.17.46-.37.91-.51,1.39-.55,1.84-.2,3.66.16,5.45.64,3.15,2.26,5.82,4.47,8.11,1.2,1.24,2.67,2.05,4.43,2.2ZM952.7,475.24c0-1.15.76-2.02,1.11-3.04.75-2.21,1.53-4.41,2.21-6.64,1.04-3.39,3.21-5.5,6.67-6.35,1.65-.4,3.18-1.12,4.53-2.21,2.18-1.76,3.54-4.03,4.26-6.68.59-2.16,1.07-4.3.77-6.61-.47-3.59-1.55-6.99-2.75-10.36-1.6-4.52-2.48-9.12-1.62-13.92.22-1.22.42-2.43.64-3.7-.37.18-.42.49-.54.75-2.06,4.55-2.09,9.25-1.02,14.03.57,2.53,1.37,4.99,2.14,7.45.77,2.48,1.41,4.97,1.35,7.61-.02,1.12-.44,2.12-.61,3.17-.39,2.34-1.49,4.3-3.04,6.02-1.45,1.62-3.39,2.39-5.46,2.89-2.5.6-4.5,2-5.72,4.24-2.26,4.13-3.27,8.6-2.93,13.35ZM883.34,510.88c.43-.02,1.02.06,1.58-.27,1.75-1.05,1.91-3.34.15-4.6-1.8-1.29-3.3-2.87-4.86-4.41-.35-.35-.71-.7-1.06-1.05-.69-.68-1.52-1.12-2.43-1.4-1.67-.52-3.58.61-3.83,2.33-.2,1.42.08,2.75.95,3.96,1.5,2.08,3.48,3.52,5.75,4.63,1.14.56,2.32.87,3.76.82ZM916.46,424.05c0,.45-.06.9,0,1.34.39,2.57,3.11,3.93,5.15,2.44,1.98-1.44,3.39-3.33,3.34-6-.03-1.46-.52-2.66-1.79-3.38-1.28-.72-2.63-.51-3.82.26-1.91,1.24-2.98,3-2.89,5.35ZM950.07,385.21c-.14-2.42-1.01-4.55-2.82-6.18-1.56-1.41-3.86-.73-4.61,1.23-1.17,3.08.52,6.48,2.25,8,1.76,1.55,4.18.88,4.98-1.27.22-.58.14-1.18.2-1.78ZM910.77,356.21c.3-.02.61.02.89-.06,2.76-.8,4.73-2.55,5.63-5.27.73-2.19-1.2-4.05-3.51-3.57-2.57.53-5.28,3.42-5.56,6-.18,1.67.77,2.99,2.54,2.91ZM883.05,391.88c.05-.93-.17-1.79-.55-2.61-.21-.46-.5-.92-1.03-1.01-1.59-.26-3.12-.13-4.27,1.16-1.42,1.6-1.97,3.59-1.91,5.66.05,2.11,2.63,3.52,4.39,2.4,2-1.27,3.42-3.03,3.38-5.6ZM872.58,403.76c-.03-.71-.04-1.21-.09-1.71-.03-.25-.17-.49-.44-.55-.36-.08-.57.17-.66.46-.24.86-.47,1.72-.64,2.6-.64,3.3-1.71,6.45-3.47,9.3-1.55,2.52-2.37,5.23-2.77,8.1-.16,1.15.19,2.26.68,3.31.25.54.73.78,1.24,1.01.42.19.79.11,1.11-.17.3-.27.21-.64.13-.97-.16-.62-.49-1.19-.52-1.86-.1-2.26.12-4.45,1.13-6.53.89-1.83,1.73-3.69,2.49-5.57.99-2.45,1.59-5,1.81-7.43ZM991.67,455.84c-1.38-.08-2.37.61-3.13,1.67-.96,1.34-1.72,2.79-2.28,4.34-.39,1.07-.75,2.16-1.21,3.21-1.05,2.41-2.72,4.26-5.1,5.43-.22.11-.45.22-.67.34-.51.29-.64.73-.44,1.27.19.52.51.83,1.12.76,2.01-.23,3.57-1.16,4.58-2.94.44-.78.81-1.6,1.32-2.34.66-.95,1.11-1.99,1.33-3.13.34-1.71.87-3.35,1.61-4.95.36-.78.84-1.34,1.56-1.72.53-.28,1.08-.51,1.63-.74.4-.17,1.02-.19.95-.75-.07-.57-.68-.44-1.11-.47-.05,0-.1,0-.15,0ZM970.85,518.05c1.87.08,4.56-1.35,5.9-3.35.6-.89.59-1.85.05-2.51-.65-.8-1.55-.83-2.46-.66-.38.07-.75.28-1.07.5-.93.67-1.92,1.24-2.96,1.72-.51.23-.92.58-1.3.97-1.1,1.12-.93,2.26.43,3.03.45.25.93.33,1.4.3ZM966.05,439.03c-.24.71-.19,1.23-.04,1.75.23.78.19,1.59.1,2.37-.4,3.47-1.68,6.52-4.35,8.89-.3.26-.57.55-.84.85-.23.25-.54.5-.31.9.18.31.51.26.8.26.45,0,.88-.05,1.31-.21,1.46-.55,2.54-1.52,3.32-2.85,1.71-2.9,1.82-6.01,1.19-9.21-.18-.91-.2-1.9-1.18-2.75ZM932.05,361.25c-.44.63-.78.99-.96,1.43-.32.75-.94,1.15-1.58,1.52-1.41.83-2.86.27-3.49-1.25-.84-2.01-.73-4.05-.36-6.11.24-1.32.53-2.61.48-3.97-.02-.71-.04-1.3-.94-1.4.03,1.05.03,2.1-.34,3.09-.4,1.08-.62,2.2-.76,3.32-.23,1.93-.33,3.87.5,5.71.72,1.6,1.9,2.64,4.13,2.52,1.59-.08,2.62-.82,3.2-2.43.26-.71.2-1.42.12-2.46ZM855.12,446.25c-.42.08-.49.4-.56.67-.69,2.54-1.37,5.09-1.62,7.72-.15,1.61.21,3.17,1.03,4.59.83,1.44,2.33,1.93,3.53,1.17,1.13-.71,1.43-2.47.6-3.81-.14.4-.25.77-.39,1.13-.14.37-.26.76-.47,1.09-.53.82-1.17.85-1.83.15-.35-.37-.59-.82-.71-1.3-.25-.96-.42-1.93-.33-2.94.2-2.13.41-4.25.93-6.34.17-.7.28-1.46-.18-2.13ZM877.89,455.81c-.65-2.03-1.38-4.4-2.18-6.74-.19-.54-.71-.8-1.34-.73-.62.07-.73.55-.95,1.01-.55,1.19-.11,2.36.06,3.51.23,1.56,1.04,2.88,2.1,4.04.51.55,1.16.57,1.79.37.5-.16.57-.64.52-1.46ZM965.01,392.2c-.03-1.2-.46-2.35-1.18-3.14-.58-.63-1.29-.96-2.14-.76-.81.19-1.3.82-1.43,1.57-.19,1.03-.18,2.09.27,3.08.39.86,1.05,1.47,1.93,1.76,1.49.5,2.61-.62,2.56-2.51ZM874.64,436.26c.17,2.44-.25,4.85-.29,7.28,0,.57-.44,1.55.39,1.63.76.07.79-1,1.04-1.62.07-.18.03-.39.07-.59.16-1.03.18-2.08.36-3.09.47-2.65.14-5.23-.4-7.81-.11-.53-.33-1.03-.53-1.54-.04-.11-.2-.23-.32-.25-.25-.04-.33.18-.39.36-.06.18-.11.39-.08.57.34,1.67.07,3.37.17,5.05ZM925.02,482.16c1.17.28,2.05-.28,2.74-1.24.12-.16.16-.36.09-.56-.11-.3-.37-.29-.62-.28-.15,0-.3.04-.44.08-1.61.47-2.92-.08-4.07-1.18-.68-.66-1.34-1.32-1.87-2.12-.41-.62-.95-1.15-1.67-1.44-.23-.09-.49-.18-.7,0-.26.23-.21.54-.1.82.05.13.15.26.24.37.78.97,1.37,2.07,2.08,3.07,1.02,1.43,2.18,2.75,4.3,2.46ZM899.55,387.94c.7-1.94,1.36-3.75,2.01-5.55.07-.19.13-.37.19-.56.16-.51.2-1.01-.36-1.29-.57-.29-.9.07-1.21.51-1.1,1.55-1.5,3.31-1.56,5.16-.02.65.13,1.27.93,1.74ZM885.68,491.84c.06-.93-.35-1.69-1.13-2.22-1-.69-2.12-.23-2.38.94-.25,1.12.29,2.26,1.29,2.71,1.2.54,2.2-.08,2.22-1.43ZM996.67,429.93c.05-.65-.16-1.25-.59-1.76-.41-.5-.87-.45-1.18.11-.38.69-.38,1.44-.21,2.17.13.57.49,1.06,1.12,1,.64-.05.85-.6.86-1.2,0-.1,0-.2,0-.33ZM950.76,488.4c-.78,1.43-1.96,2.16-3.13,3.24,1.55.08,2.41-.68,3.23-1.53.53-.54.03-.97-.1-1.71ZM959.17,454.31c-.95.2-1.86.11-2.33,1.11-.13.27-.29.55-.04.82.19.21.47.19.7.11.87-.31,1.57-.79,1.67-2.04ZM992.51,432.14c.43-2.43.11-4.11-.94-5,.34,1.81.64,3.41.94,5ZM901.98,378.24c.81-.51,1.22-1.14,1.35-1.95.04-.25-.04-.5-.35-.56-.21-.04-.39.04-.5.23-.35.64-.77,1.28-.51,2.28Z"/>
  <path class="cls-1" d="M853.09,487.55c.58,0,.86.41,1.16.81,2.62,3.48,5.78,6.43,9.1,9.21,1.71,1.43,3.5,2.77,5.26,4.14.12.09.21.24.34.29,1.35.54,2.04,1.55,2.44,2.95.55,1.88,1.98,3.18,3.45,4.38.96.78,1.93,1.57,3,2.19,2.51,1.45,5.13,2.09,7.91.68.22-.11.5-.2.63-.38.78-1.13,1.68-1.05,2.92-.68,3.93,1.19,7.96,2.05,12.03,2.64,2,.29,4.03.51,6.04.74,4.51.51,9.02.53,13.55.55,1.06,0,2.05-.36,3.11-.31.67.03,1.17.12,1.32.87.05.24.26.44.3.68.44,2.36,2.11,3.89,3.72,5.43.78.74,1.83,1.22,2.92,1.35.76.09,1.46.24,2.12.62.44.25.92.34,1.44.33.65-.02,1.3-.01,1.94,0,2.43.05,4.68-.53,6.8-1.75,1.02-.59,2.17-.91,3.21-1.51,1.74-1,2.99-2.44,4.17-3.98,1.66-2.16,2.29-4.59,1.82-7.26-.1-.57.02-.85.49-1.06.63-.28,1.28-.55,1.91-.84,2.86-1.31,5.49-3.01,8.05-4.82.81-.57,1.78-.9,2.46-1.72.55.26.69.77.85,1.21.57,1.51,1.36,2.87,2.55,3.97.42.39.63.89.89,1.36.22.39.22.75-.02,1.12-.62.96-1.18,1.99-2.27,2.5-.94.43-1.41,1.21-1.7,2.14-.38,1.22-.39,2.48-.07,3.68.4,1.52,2.5,2.63,4.37,2.41,2.52-.3,4.65-1.38,6.26-3.39,1.15-1.44,1.18-3.44.1-4.96-.5-.7-.52-1.17.14-1.66.99-.75,2.06-1.3,3.31-1.61,2.05-.5,4.06-1.09,5.78-2.51,1.42-1.18,2.72-2.48,4-3.79,1.17-1.21,2.14-2.6,2.92-4.09.43-.81.98-1.64.59-2.67-.04-.11.03-.3.09-.42.99-1.92,1-4.03.98-6.09-.04-4.3-1.54-7.85-5.57-9.95-.66-.34-1.5-.58-1.76-1.28-.27-.71.54-1.22.81-1.84,1.56-3.6,3.46-7.06,4.45-10.89.14-.53.37-1.03.56-1.54,1.68.9,3.22.43,4.56-.67,1.08-.89,1.83-2.08,2.34-3.41.56-1.45.94-2.95,1.04-4.48.19-2.96.59-5.95-.58-8.84-.05.1-.11.17-.13.25-.52,1.99-.21,4.06-.57,6.08-.35,2-.58,4.03-1.19,5.98-.4,1.28-1.12,2.32-2.16,3.15-1.11.89-1.89.83-2.97-.2,1.19-1.97,1.31-4.23,1.76-6.4.56-2.76,1.14-5.54,1.43-8.33.33-3.15.91-6.3.67-9.49.76-.48,1.15-1.26,1.39-2.06.38-1.28.66-2.59.67-3.95.01-2.19-.3-4.35-.75-6.49-.4-1.94-.89-3.87-1.76-5.68-.25-.51-.45-1.09-1.26-1.23,0,.79.49,1.35.63,2.01.08.35.22.66-.13.94-1.68-2.58-2.41-5.6-1.76-7.41.91.79.52,2.12,1.48,3.1-.16-1.38-.21-2.56-.46-3.71-.79-3.72-1.45-7.47-2.45-11.16-1.08-3.97-2.03-7.97-3.41-11.85-2.41-6.78-4.94-13.52-8.25-19.92-.57-1.1-1.19-2.18-1.78-3.27-.24-.44-.47-.88-.43-1.41,1.32,1.15,2.22,2.65,3.23,4.05,3.32,4.55,6.1,9.46,8.74,14.43,3.95,7.45,7.14,15.23,9.78,23.23,2.42,7.32,4.4,14.77,5.74,22.37.82,4.69,1.49,9.39,1.9,14.14.5,5.77.71,11.53.53,17.31-.14,4.67-.59,9.32-1.36,13.94-.62,3.74-1.4,7.42-2.5,11.04-1.6,5.25-3.75,10.26-6.47,15.05-2.23,3.93-5.05,7.41-8.11,10.67-2.83,3.01-6.04,5.63-9.44,8-5.81,4.05-12.14,7.01-18.89,9.11-5.42,1.69-10.92,2.97-16.57,3.64-3.36.39-6.73.64-10.1.91-3.64.29-7.27.27-10.9.19-3.33-.07-6.64-.45-9.96-.77-3.22-.31-6.42-.72-9.6-1.28-4.47-.78-8.82-2.02-13.1-3.48-3.21-1.1-6.34-2.38-9.35-3.93-4.75-2.45-9.15-5.41-13.19-8.94-4.28-3.74-7.83-8.07-10.86-12.84-2.6-4.09-4.57-8.5-6.3-13.02-.07-.18-.05-.39-.07-.59ZM1003.84,473.13c.3-1.61-.15-2.97-1.5-4.05-1.08-.87-2.25-1.13-3.56-.73-1.15.35-1.84,1.23-2.58,2.12-1.67,2.01-2.17,4.17-1.06,6.56,1.46,3.13,4.41,3.53,6.61,1.41,1.49-1.44,2.41-3.11,2.08-5.32Z"/>
  <path class="cls-3" d="M976.96,360.38c-.93.14-1.6-.45-2.11-1-1.84-1.96-3.74-3.85-5.81-5.56-1.2-.99-2.58-1.69-3.86-2.54-2.2-1.45-4.42-2.87-6.72-4.16-4.78-2.68-9.82-4.69-15.19-5.92-2.37-.54-4.71-1.19-7.12-1.53-1.77-.25-3.53-.65-5.3-.73-1.57-.07-3.15.33-4.7.66-3.4.72-6.77,1.53-10.08,2.61-1.51.49-3.02,1.02-4.46,1.69-4.87,2.29-9.67,4.71-14.03,7.91-1.72,1.26-3.42,2.55-4.92,4.1-1.52,1.57-3.28,2.9-4.85,4.42-1.39,1.35-2.75,2.74-3.95,4.25-2.06,2.61-4.19,5.19-5.92,8.05-1.92,3.2-3.83,6.4-5.71,9.62-1.96,3.35-3.91,6.71-5.59,10.21-2.09,4.34-4.45,8.54-6,13.15-2.57,7.63-4.93,15.33-6.76,23.17-.84,3.57-1.49,7.18-2.02,10.82-.43,2.89-.97,5.77-1.37,8.67-.18,1.32-.42,2.64-.41,4,.04,3.84,0,7.68-.02,11.51-.03,4.03.4,8.03.84,12.03.29,2.63.9,5.18,1.4,7.76.13.64.22,1.27.17,1.92-.84-1.27-.96-2.78-1.31-4.2-2.21-8.85-3.16-17.85-3.05-26.95.09-7.42.74-14.81,1.88-22.16,1.46-9.47,3.79-18.71,6.89-27.76,2.98-8.68,6.65-17.05,11.15-25.06,5.4-9.61,11.89-18.4,19.87-26.04,7.06-6.76,15.03-12.08,24.29-15.34,8.04-2.84,16.29-3.78,24.72-2.33,9.01,1.55,17.16,5.21,24.64,10.46,5.67,3.99,10.59,8.75,15.14,13.93.1.11.16.25.24.37Z"/>
  <path class="cls-2" d="M1013.6,474.97c.03-.3.07-.6.1-.9.17-.09.23-.22.11-.4.97-8.16,1.39-16.35,1.04-24.57-.22-5.16-.59-10.32-1.34-15.44-.04-.29,0-.59-.01-.89.59-.37.66.24.85.5,2.37,3.09,4.12,6.57,5.93,9.99,1.43,2.71,2.56,5.54,3.17,8.62.38,1.92.89,3.84,1.34,5.77-.35.16-.47.44-.57.81-.39,1.43-.78,2.86-1.23,4.28-.38,1.2-.8,2.37.25,3.45.09.1.11.27.14.42.37,1.66.54,3.31-.26,4.93-.43.88-.87,1.78-1.25,2.68-.64,1.48-1.81,2.33-3.13,3.02-1.01.53-2.07.13-2.65-.88-.22-.38-.42-.77-.64-1.17q-.81.71-1.48.02c-.1-.1-.24-.16-.37-.24ZM1022.12,468.56c-.03-.93.03-1.53-.24-2.1-.27-.57-.6-1.01-1.29-1.07-.71-.06-1.27.15-1.65.77-.18.3-.34.61-.48.92-.91,2.17-1.19,4.48-1.39,6.8-.05.61-.03,1.24.65,1.52.64.26,1.16-.11,1.61-.5.41-.36.83-.75,1.1-1.21.99-1.69,1.54-3.53,1.69-5.14ZM1017.92,449.3c-.1,1.05.15,2.06.63,3,.47.9,1.15,1.31,1.88,1.18.68-.11,1.26-.8,1.37-1.76.2-1.62-.17-3.16-.88-4.62-.25-.51-.66-.9-1.29-.84-.63.06-1.13.34-1.4.96-.28.65-.38,1.34-.32,2.06Z"/>
  <path class="cls-1" d="M844.51,475.56c.53,2.32,1.01,4.65,1.6,6.95,1.61,6.35,3.86,12.45,7.11,18.15.25.43.47.88.75,1.41-.61.12-.98-.21-1.34-.49-7.67-6.07-13.3-13.67-16.83-22.78-1.75-4.5-2.99-9.16-3.41-14.01-.12-1.39-.35-2.76-.24-4.16.59-1.43.76-2.95,1.01-4.45.27.07.41.22.45.51.28,2.32.95,4.55,1.75,6.74.35.97.73,1.9.42,3-.17.6-.07,1.29,0,1.93.17,1.67.93,2.29,2.54,2.01.57-.1.82.02,1.02.52.61,1.5,1.67,2.66,2.8,3.8.7.7,1.41,1.05,2.37.88Z"/>
  <path class="cls-2" d="M844.51,475.56c-.96.16-1.68-.18-2.37-.88-1.13-1.14-2.19-2.3-2.8-3.8-.2-.5-.45-.62-1.02-.52-1.61.28-2.37-.34-2.54-2.01-.07-.64-.16-1.33,0-1.93.3-1.1-.07-2.03-.42-3-.79-2.19-1.47-4.41-1.75-6.74-.04-.29-.18-.44-.45-.51.52-1.26.55-2.58.49-3.91-.02-.39-.07-.8,0-1.18.24-1.08.1-2.29.91-3.25.43.34.19.85.51,1.13,0,.17-.01.35-.02.52-.49.21-.63.51-.25.95,0,1.2-.01,2.39-.02,3.59,0,1.1.33,2.05,1.22,2.75.08.25.19.45.47.52.94.23,2.69-.57,3.07-1.61,1.06-2.94,1.48-5.97,1.22-9.06-.12-1.42-.63-2.74-2.35-3.03-.84-.14-.53-.67-.31-1.12,1.62-3.46,3.52-6.76,5.7-9.89.31-.45.57-.23.88-.08-.02,1.99-.53,3.93-.67,5.91-.1,1.48-.36,2.96-.43,4.45-.33,6.9-.58,13.81-.27,20.72.15,3.47.54,6.93,1.02,10.37.07.54.12,1.09.18,1.63ZM838.71,467.95c0-.78.02-1.22,0-1.67-.03-.44-.24-.77-.7-.85-.44-.08-.76.09-1.01.47-.57.85-.44,2.77.25,3.53.47.52.94.45,1.29-.2.28-.51.15-1.07.18-1.28Z"/>
  <path class="cls-1" d="M1013.6,474.97c.12.08.27.13.37.24q.67.68,1.48-.02c.22.4.42.79.64,1.17.58,1,1.64,1.4,2.65.88,1.33-.69,2.5-1.53,3.13-3.02.39-.9.82-1.79,1.25-2.68.79-1.62.62-3.26.26-4.93-.03-.14-.05-.32-.14-.42-1.05-1.09-.63-2.25-.25-3.45.45-1.41.85-2.85,1.23-4.28.1-.36.22-.65.57-.81.27,1.09.58,2.17.64,3.3.03.45.06.89.53,1.12.14,1.3-.16,2.57-.29,3.84-.44,4.53-1.63,8.9-3.36,13.08-2.15,5.2-4.9,10.1-8.58,14.42-2.42,2.85-4.97,5.56-7.95,7.85-.45.34-.86.77-1.6.92.14-.78.56-1.28.88-1.8,1.75-2.81,2.84-5.91,4.1-8.94,1.45-3.49,2.43-7.14,3.2-10.85.39-1.89.81-3.76,1.22-5.65Z"/>
  <path class="cls-3" d="M844.69,432.49c-.31-.15-.57-.36-.88.08-2.19,3.13-4.09,6.43-5.7,9.89-.21.45-.52.98.31,1.12,1.72.29,2.23,1.62,2.35,3.03.26,3.09-.16,6.12-1.22,9.06-.38,1.05-2.13,1.85-3.07,1.61-.28-.07-.39-.27-.47-.52,1.28.12,2.25-.31,2.71-1.57,1.07-2.93,1.6-5.91.91-9.02-.28-1.24-1.22-1.64-2.17-.86-.8.66-1.55,1.38-1.81,2.48-.09.4-.12.91-.58,1.16-.32-.28-.08-.79-.51-1.13-.81.96-.67,2.17-.91,3.25-.08.38-.03.79,0,1.18.06,1.33.02,2.65-.49,3.91-.26,1.5-.42,3.03-1.01,4.45-.13-1.99,0-3.99.03-5.98.22-.17.27-.4.27-.65,0-1.18.23-2.34.32-3.51.06-.73.53-1.39.3-2.15.07-.27.14-.54.21-.81.12-.11.15-.25.07-.39.74-2.93,1.67-5.8,2.79-8.59.68-1.71,1.66-3.35,2.51-5.01,1.89-3.68,4.23-7.06,6.83-10.26.27-.33.5-.73,1.12-.91-.65,3.43-1.28,6.78-1.91,10.12ZM834.71,446.17c-.05.08-.14.15-.14.23,0,.08.08.17.12.25.05-.08.14-.15.14-.23,0-.08-.08-.17-.12-.25Z"/>
  <path class="cls-3" d="M1025.96,462.07c-.47-.23-.51-.68-.53-1.12-.06-1.13-.37-2.21-.64-3.3-.44-1.92-.96-3.85-1.34-5.77-.61-3.08-1.74-5.92-3.17-8.62-1.81-3.42-3.56-6.89-5.93-9.99-.2-.26-.26-.87-.85-.5-.65-3.33-1.3-6.66-2.01-10.28,7.7,7.61,15.48,23.38,14.46,39.58Z"/>
  <path class="cls-1" d="M833.06,448.34c.23.76-.24,1.42-.3,2.15-.09,1.17-.32,2.33-.32,3.51,0,.25-.05.49-.27.65-.54-.04-.6-.42-.61-.85-.01-.94.04-1.9-.06-2.83-.14-1.3.51-2.07,1.55-2.63Z"/>
  <path class="cls-3" d="M852.48,485.45c.35.15.32.35.07.58-.02-.19-.05-.39-.07-.58Z"/>
  <path class="cls-1" d="M852.82,486.94c.14.09.23.21.2.39-.14-.09-.21-.22-.2-.39Z"/>
  <path class="cls-1" d="M1013.81,473.67c.12.18.06.3-.11.4.04-.13.08-.26.11-.4Z"/>
  <path class="cls-1" d="M833.34,447.13c.07.15.05.28-.07.39-.15-.16-.07-.29.07-.39Z"/>
  <path class="cls-3" d="M881.79,380.11c.13-2.57.96-4.93,2.08-7.23,1.48-3.02,3.5-5.66,5.77-8.1,1.18-1.27,2.56-2.34,3.86-3.5.22-.2.53-.33.68-.57.96-1.58,2.63-1.84,4.19-2.28,1.66-.47,3.22-.04,4.45,1.07,1.3,1.18,1.31,2.82,1.02,4.44-.32,1.75-1.24,3.25-2.12,4.74-2.64,4.47-5.74,8.59-9.61,12.09-1.4,1.26-2.81,2.52-4.58,3.28-1.34.57-2.63.67-3.97-.12-1.5-.89-1.88-2.21-1.76-3.82Z"/>
  <path class="cls-5" d="M895.88,417.33c-.06-1.67.31-3.28.93-4.8,1.33-3.26,3.11-6.23,5.71-8.66,1.51-1.41,3.33-2.21,5.35-2.43,3.61-.4,6.69,2.51,6.84,6.32.07,1.95-.56,3.75-1.32,5.47-1.29,2.91-2.62,5.83-4.7,8.29-1.45,1.71-3.15,3.12-5.51,3.19-4.26.13-7.45-2.89-7.29-7.38Z"/>
  <path class="cls-5" d="M990.72,488.06c0,2.98-.98,5.64-2.7,8.05-1.87,2.61-4,4.96-6.87,6.49-1.62.86-3.29,1.56-5.24,1.23-2.93-.49-4.49-3.38-4.62-5.52-.12-2.11.58-4.01,1.71-5.76.72-1.13,1.55-2.19,2.53-3.12,1.67-1.57,3.18-3.28,4.43-5.21.32-.49.77-.91,1.18-1.34,1.56-1.64,3.53-2.2,5.58-1.45,2.28.84,3.7,2.63,3.99,5.14.06.49,0,.99,0,1.49Z"/>
  <path class="cls-5" d="M949.09,358.84c-.19-2.66,3.42-6.14,7.18-5.07,3.54,1.01,6.17,3.12,8.16,6.11,1.67,2.5,2.85,5.25,3.43,8.2.57,2.93-1.1,7.15-4.91,7.7-1.7.24-3.25-.09-4.58-1.22-.69-.59-1.23-1.31-1.69-2.07-1.37-2.26-3.1-4.24-4.83-6.22-1.69-1.93-2.63-4.19-2.75-7.42Z"/>
  <path class="cls-5" d="M935.67,518.97c-.7,0-1.39,0-2.09,0-2.29,0-4-1.01-5.18-2.96-1.09-1.82-.62-4.16,1.08-5.47,1.36-1.06,2.9-1.76,4.53-2.22,2.93-.83,5.76-1.88,8.54-3.11.63-.28,1.31-.48,1.96-.71,2.91-.99,5.38.37,6.11,3.38.75,3.1-.6,5.44-2.84,7.35-2.96,2.52-6.49,3.55-10.32,3.72-.6.03-1.2,0-1.79,0v.02Z"/>
  <path class="cls-4" d="M869.53,447.75c.09-.7.18-1.39.27-2.09.01-.1.02-.2.03-.3.54-3.34,1.07-6.68.97-10.09-.03-.91-.13-1.79-.41-2.65-.38-1.18-.92-1.43-2.15-1.09-3.79,1.05-7.1-1.18-7.71-5.06-.52-3.33.18-6.43,1.39-9.47.57-1.43,1.23-2.83,1.91-4.21,2.68-5.45,4.39-11.19,5.26-17.19.15-1.03.14-2.09.2-3.13.03-.54.06-1.08.41-1.64,1.23,7.45-.14,14.41-3.21,21.1-1.39,3.03-2.95,5.99-3.69,9.27-.41,1.81-.68,3.62-.15,5.46.15.53.35,1.04.65,1.5.84,1.28,1.98,1.92,3.56,1.61.59-.12,1.17-.23,1.76-.31,1.57-.21,2.55.31,3.27,1.74.61,1.22.84,2.54.92,3.9.17,3.15-.2,6.26-.7,9.36-.28,1.72-.64,3.44-.68,5.17-.08,3.17.46,6.25,1.98,9.08.92,1.71,2.37,2.77,4.23,3.33,1.32.4,3.82-.34,4.72-1.84.8-1.31,1.14-2.74,1.26-4.25.27-3.35-.18-6.65-.73-9.94-.6-3.54-.4-7.04.7-10.47.07-.23.09-.49.34-.64l-.02-.02c-.02.75,0,1.49-.05,2.24-.24,3.71.48,7.33,1.09,10.96.4,2.4.86,4.79.75,7.25-.09,1.98-.58,3.85-1.54,5.55-1.98,3.52-6.33,4.33-9.65,1.8-1.89-1.44-3.32-3.24-4.07-5.57-.42-1.31-.87-2.59-.87-3.99-.02-.2-.03-.4-.05-.6-.26-1.49-.2-2.98,0-4.48,0-.1.01-.2.02-.3Z"/>
  <path class="cls-5" d="M871.41,489.03c-1.77-.14-3.24-.96-4.43-2.2-2.21-2.29-3.84-4.96-4.47-8.11-.36-1.79-.71-3.61-.16-5.45.14-.48.34-.93.51-1.39.7-1.86,2.31-2.37,4.14-1.61,2.1.88,3.62,2.46,4.83,4.29,1.73,2.62,3.16,5.44,3.54,8.61.29,2.36-.43,4.72-2.51,5.55-.47.19-.94.33-1.45.3Z"/>
  <path class="cls-4" d="M898.87,502.18c.45,1.32,1.49,2.09,2.65,2.68,1.24.63,2.07.3,2.67-.96.69-1.45.55-3.02.54-4.55-.02-2.44-.55-4.84-.85-7.26-.35-2.83-.37-5.69.18-8.48.55-2.81,2.19-5,4.65-6.5,2.82-1.73,6.29-1.01,8.71,1.28,1.08,1.03,1.98,2.21,2.71,3.55.54.99,1.1,2.02,2.11,2.66,1.91,1.23,4.51,1.07,6.48-.26,1.99-1.34,3.07-3.36,4.21-5.34.87-1.51,1.62-3.08,2.39-4.64.28-.55.56-1.08,1.26-1.54-1.08,2.54-1.49,5.11-2.38,7.53-1,2.73-2.81,4.85-5.36,6.18-3.42,1.79-7.65.88-10-2.91-.53-.85-1.03-1.7-1.57-2.54-.8-1.25-1.9-2.15-3.28-2.71-2.09-.84-3.91-.32-5.5,1.14-2.16,1.99-2.86,4.61-3.02,7.4-.17,2.85.3,5.65.66,8.47.3,2.31.64,4.64.23,6.99-.15.85-.37,1.65-.81,2.39-1.19,2.01-3.06,2.51-5.09,1.33-.76-.44-1.48-.97-1.87-1.82.09-.7-.21-1.46.27-2.11Z"/>
  <path class="cls-4" d="M952.7,475.24c-.34-4.75.66-9.22,2.93-13.35,1.22-2.23,3.22-3.64,5.72-4.24,2.07-.5,4.01-1.27,5.46-2.89,1.55-1.72,2.65-3.68,3.04-6.02.18-1.06.59-2.06.61-3.17.06-2.64-.57-5.13-1.35-7.61-.77-2.47-1.58-4.93-2.14-7.45-1.07-4.78-1.04-9.48,1.02-14.03.12-.27.17-.58.54-.75-.22,1.26-.42,2.48-.64,3.7-.85,4.8.02,9.4,1.62,13.92,1.2,3.38,2.28,6.78,2.75,10.36.3,2.31-.17,4.46-.77,6.61-.73,2.66-2.08,4.93-4.26,6.68-1.35,1.09-2.88,1.8-4.53,2.21-3.46.85-5.64,2.96-6.67,6.35-.68,2.23-1.46,4.43-2.21,6.64-.35,1.02-1.12,1.89-1.11,3.04Z"/>
  <path class="cls-4" d="M982.9,400.48c-.04-.81-.42-1.51-.76-2.22-.45-.94-.9-1.87-1.37-2.8-1.8-3.59-1.78-7.33-.95-11.15.31-1.45.68-2.91.18-4.39.5,0,.76-.4,1.12-.65.6,1.73.76,3.47.36,5.28-.29,1.31-.43,2.65-.58,3.98-.15,1.3.04,2.59.54,3.8.61,1.47,1.23,2.94,1.94,4.36,1.27,2.57,2.04,5.28,2.4,8.11.23,1.81,0,3.59-.82,5.23-.86,1.71-2.19,2.89-4.19,2.89-2.11,0-3.56-1.18-4.41-3.03-.86-1.86-1.22-3.87-1.47-5.91-.23-1.87-.34-3.76-.67-5.62-.5-2.78-1.49-5.35-2.96-7.75.19-.29.38-.58.3-.95,2.12,2.11,3.03,4.84,3.86,7.61.82,2.72.92,5.58,1.47,8.35.13.68.23,1.37.39,2.05.17.73.43,1.43.84,2.06,1.38,2.13,4.18,2.01,5.29-.25,1.05-2.16.99-4.38.17-6.61-.04-.19-.07-.39-.11-.58.02-.57-.12-1.08-.48-1.53,0-.1-.02-.19-.07-.28Z"/>
  <path class="cls-5" d="M883.34,510.88c-1.43.05-2.62-.27-3.76-.82-2.27-1.11-4.25-2.55-5.75-4.63-.87-1.21-1.15-2.53-.95-3.96.25-1.72,2.16-2.84,3.83-2.33.92.29,1.75.72,2.43,1.4.35.35.71.7,1.06,1.05,1.56,1.54,3.06,3.11,4.86,4.41,1.76,1.26,1.6,3.55-.15,4.6-.56.34-1.15.25-1.58.27Z"/>
  <path class="cls-5" d="M916.46,424.05c-.09-2.35.98-4.11,2.89-5.35,1.19-.77,2.54-.98,3.82-.26,1.27.72,1.76,1.92,1.79,3.38.05,2.67-1.36,4.56-3.34,6-2.04,1.49-4.77.13-5.15-2.44-.07-.44,0-.89,0-1.34Z"/>
  <path class="cls-5" d="M950.07,385.21c-.06.6.02,1.2-.2,1.78-.8,2.15-3.22,2.81-4.98,1.27-1.73-1.52-3.42-4.92-2.25-8,.74-1.96,3.04-2.63,4.61-1.23,1.81,1.63,2.68,3.76,2.82,6.18Z"/>
  <path class="cls-4" d="M994.31,460.62c1.07,1.03,1.85,1.09,2.97.2,1.03-.83,1.76-1.87,2.16-3.15.61-1.95.84-3.97,1.19-5.98.35-2.02.05-4.08.57-6.08.02-.08.08-.15.13-.25,1.18,2.89.78,5.88.58,8.84-.1,1.53-.48,3.04-1.04,4.48-.51,1.33-1.27,2.52-2.34,3.41-1.34,1.1-2.87,1.58-4.56.67-.18-.17-.35-.35-.53-.52-1.01-.96-1.53-.91-2.33.27-.48.71-.73,1.52-.98,2.33-.53,1.71-1.16,3.38-1.94,4.99-.37.76-.83,1.47-1.4,2.09-.71.13-1.36.13-1.45-.82,1.67-2.05,2.39-4.55,3.3-6.97.45-1.2.65-2.52,1.63-3.47.18-.17.33-.39.54-.52,1.75-1.06,2.69-1.03,3.52.47Z"/>
  <path class="cls-5" d="M910.77,356.21c-1.78.09-2.73-1.24-2.54-2.91.28-2.57,2.99-5.46,5.56-6,2.31-.48,4.24,1.38,3.51,3.57-.9,2.71-2.87,4.46-5.63,5.27-.28.08-.59.05-.89.06Z"/>
  <path class="cls-3" d="M883.05,391.88c.04,2.56-1.38,4.32-3.38,5.6-1.76,1.12-4.33-.29-4.39-2.4-.05-2.07.49-4.06,1.91-5.66,1.15-1.29,2.68-1.42,4.27-1.16.53.08.82.55,1.03,1.01.38.82.6,1.69.55,2.61Z"/>
  <path class="cls-3" d="M872.58,403.76c-.22,2.42-.83,4.98-1.81,7.43-.76,1.89-1.6,3.75-2.49,5.57-1.01,2.08-1.24,4.27-1.13,6.53.03.66.35,1.24.52,1.86.09.34.18.71-.13.97-.32.28-.68.36-1.11.17-.51-.23-.99-.47-1.24-1.01-.48-1.05-.83-2.16-.68-3.31.39-2.87,1.21-5.59,2.77-8.1,1.76-2.85,2.83-6.01,3.47-9.3.17-.87.41-1.74.64-2.6.08-.29.29-.54.66-.46.27.06.41.3.44.55.05.49.06.99.09,1.71Z"/>
  <path class="cls-3" d="M895.49,463.31c.44-.14.29-.42.17-.7-.29-.67-.63-1.32-.58-2.06.47-.18.61.12.78.35,1.03,1.41,1.9,2.9,2.41,4.59.67,2.23,1.62,4.38,2.09,6.66.72,3.51,1.06,7.05.92,10.64-.06,1.68.1,3.37-.31,5.04-.08.34-.13.68-.43.95-.38-.3-.44-.73-.44-1.16,0-2.23-.47-4.44-.35-6.68.02-.43.23-1.06-.54-1.18-.12-.27-.22-.53-.13-.83.53-.17.4-.61.41-.99.03-1.48-.26-2.93-.44-4.4-.12-.97-.37-1.93-.73-2.85-.12-.31-.27-.52-.62-.51-.53-1.76-1.06-3.52-1.59-5.28.09-.18.02-.31-.15-.4-.15-.39-.31-.79-.46-1.18Z"/>
  <path class="cls-4" d="M896.09,464.89c.53,1.76,1.06,3.52,1.59,5.28-.04,1.2.32,2.34.56,3.49.36,1.74.34,3.54.83,5.25-.1.3.01.57.13.83-.25.67-.1,1.36-.09,2.04,0,2.41-.04,4.81-.26,7.21-.49.02-.99.03-1.48.05.15-4.13.42-8.27-.01-12.37-.59-5.61-1.92-11.06-4.41-16.18-.25-.52-.64-1.01-.56-1.78,1.01,1.07,1.75,2.16,2.36,3.35.22.43.31.95.75,1.25.15.39.3.79.46,1.18-.07.18-.04.32.15.4Z"/>
  <path class="cls-3" d="M991.67,455.84s.1,0,.15,0c.43.03,1.04-.1,1.11.47.07.56-.55.58-.95.75-.55.23-1.1.47-1.63.74-.72.38-1.2.94-1.56,1.72-.74,1.59-1.27,3.24-1.61,4.95-.22,1.14-.68,2.18-1.33,3.13-.51.74-.88,1.56-1.32,2.34-1.01,1.78-2.56,2.71-4.58,2.94-.6.07-.93-.23-1.12-.76-.2-.55-.07-.98.44-1.27.22-.12.44-.23.67-.34,2.38-1.18,4.05-3.02,5.1-5.43.46-1.05.82-2.14,1.21-3.21.57-1.55,1.32-3.01,2.28-4.34.76-1.06,1.75-1.75,3.13-1.67Z"/>
  <path class="cls-5" d="M970.85,518.05c-.46.03-.94-.04-1.4-.3-1.36-.76-1.53-1.9-.43-3.03.38-.39.8-.74,1.3-.97,1.04-.48,2.02-1.05,2.96-1.72.32-.23.69-.43,1.07-.5.9-.17,1.8-.14,2.46.66.54.65.55,1.61-.05,2.51-1.34,2-4.03,3.44-5.9,3.35Z"/>
  <path class="cls-1" d="M907.28,385.53c.17.14.21.31.16.52-.34,1.51-.86,2.96-1.58,4.32-1.2,2.27-3.8,3.39-5.68,3.08-3.01-.49-4.14-2.28-4.23-5.4-.05-1.98.71-3.88,1.95-5.51.04-.05.17-.04.38-.09-.15.66-.27,1.28-.45,1.88-.35,1.2-.47,2.42-.47,3.67,0,.89.25,1.63.76,2.35,1.25,1.76,3.39,2.04,5.01.6,1.07-.95,1.86-2.03,2.13-3.48.09-.44,0-1.03.49-1.35.31.13.64,1.03.93-.02.08-.29.31-.47.59-.58Z"/>
  <path class="cls-3" d="M966.05,439.03c.98.86,1.01,1.85,1.18,2.75.63,3.2.52,6.31-1.19,9.21-.78,1.33-1.86,2.3-3.32,2.85-.43.16-.86.22-1.31.21-.29,0-.63.05-.8-.26-.23-.4.08-.65.31-.9.27-.29.54-.58.84-.85,2.67-2.37,3.94-5.42,4.35-8.89.09-.78.13-1.59-.1-2.37-.15-.52-.2-1.04.04-1.75Z"/>
  <path class="cls-1" d="M932.05,361.25c.08,1.03.14,1.75-.12,2.46-.58,1.6-1.61,2.34-3.2,2.43-2.23.12-3.41-.93-4.13-2.52-.83-1.85-.74-3.79-.5-5.71.13-1.12.36-2.25.76-3.32.36-.99.37-2.04.34-3.09.9.09.92.68.94,1.4.05,1.36-.25,2.66-.48,3.97-.37,2.06-.48,4.11.36,6.11.64,1.51,2.08,2.08,3.49,1.25.63-.37,1.26-.77,1.58-1.52.18-.43.53-.79.96-1.43Z"/>
  <path class="cls-4" d="M855.12,446.25c.46.67.36,1.43.18,2.13-.51,2.09-.73,4.21-.93,6.34-.09,1.02.08,1.98.33,2.94.12.48.37.93.71,1.3.65.7,1.3.66,1.83-.15.21-.33.33-.72.47-1.09.14-.36.25-.72.39-1.13.83,1.34.53,3.1-.6,3.81-1.2.75-2.69.27-3.53-1.17-.82-1.42-1.19-2.98-1.03-4.59.25-2.63.93-5.18,1.62-7.72.07-.28.14-.6.56-.67Z"/>
  <path class="cls-3" d="M877.89,455.81c.05.82-.02,1.3-.52,1.46-.63.2-1.28.19-1.79-.37-1.06-1.16-1.87-2.48-2.1-4.04-.17-1.15-.61-2.33-.06-3.51.21-.46.33-.94.95-1.01.63-.07,1.15.19,1.34.73.8,2.34,1.53,4.7,2.18,6.74Z"/>
  <path class="cls-4" d="M996.97,419.93c.35-.27.2-.59.13-.94-.14-.65-.63-1.21-.63-2.01.81.14,1.02.72,1.26,1.23.87,1.8,1.35,3.73,1.76,5.68.45,2.14.76,4.29.75,6.49,0,1.36-.3,2.67-.67,3.95-.24.8-.62,1.58-1.39,2.06,0,0-.14-.02-.14-.02,0,0-.14.02-.14.02-.21-.54.42-1.01.11-1.55,1.17-3.66.89-7.33.09-11.01-.22-1.01-.53-2.01-.81-3.01.02-.18-.06-.31-.2-.41l-.12-.48Z"/>
  <path class="cls-5" d="M965.01,392.2c.05,1.88-1.07,3-2.56,2.51-.88-.29-1.54-.91-1.93-1.76-.45-.99-.45-2.05-.27-3.08.14-.75.62-1.38,1.43-1.57.85-.2,1.57.13,2.14.76.72.8,1.15,1.95,1.18,3.14Z"/>
  <path class="cls-4" d="M943.04,443.77c-.88.27-1.13,1.07-1.46,1.78-.65,1.41-.98,2.92-1.47,4.39-.19.57-.4,1.12-.63,1.67-.65,1.55-2.05,2.23-3.48,2.71-1.51.52-3.1-.49-3.6-2.26.73.56,1.28,1.12,2.1,1.18,1.69.13,3.15-.72,3.9-2.41.4-.91.7-1.86.94-2.83.38-1.5.99-2.92,1.78-4.25.35-.6.73-1.2,1.45-1.45.39.14.95-.11,1.15.47.21.61-.36.72-.66,1Z"/>
  <path class="cls-3" d="M874.64,436.26c-.1-1.68.17-3.37-.17-5.05-.04-.18.02-.39.08-.57.06-.18.14-.4.39-.36.12.02.28.14.32.25.2.5.42,1.01.53,1.54.54,2.58.87,5.16.4,7.81-.18,1.01-.19,2.07-.36,3.09-.03.2,0,.41-.07.59-.25.62-.27,1.69-1.04,1.62-.82-.08-.39-1.07-.39-1.63.03-2.43.46-4.84.29-7.28Z"/>
  <path class="cls-1" d="M897.36,489.04c.49-.01.99-.03,1.48-.05-.2,2.19-.18,4.4-.5,6.58-.08.53-.06,1.08-.05,1.62.01.46.37.51.74.54.03.68.05,1.36.07,2.05-.61.13-.58.58-.45,1,.15.46.28.91.22,1.4-.48.65-.18,1.4-.27,2.11-.66-.5-.69-1.3-.92-1.98-.36-1.08-.57-2.21-.58-3.35-.04-2.93-.02-5.87-.02-8.8,0-.39-.09-.81.28-1.11Z"/>
  <path class="cls-3" d="M925.02,482.16c-2.12.29-3.28-1.03-4.3-2.46-.71-1.01-1.31-2.1-2.08-3.07-.09-.12-.19-.24-.24-.37-.11-.29-.16-.59.1-.82.21-.18.46-.1.7,0,.72.29,1.26.82,1.67,1.44.53.8,1.19,1.46,1.87,2.12,1.14,1.11,2.46,1.65,4.07,1.18.14-.04.29-.07.44-.08.25-.01.5-.02.62.28.08.2.03.4-.09.56-.69.96-1.57,1.51-2.74,1.24Z"/>
  <path class="cls-3" d="M983.46,402.3c.04.19.07.39.11.58-.56.41-.31,1-.31,1.51,0,.86-.16,1.67-.5,2.45-.18.41-.49.6-.95.51-.4-.08-.6-.34-.63-.72-.04-.44-.05-.89-.03-1.34.08-2.35-.33-4.62-1-6.87-.18-.61-.95-1.59,0-1.94.75-.28.87.88,1.2,1.44.41.68.71,1.42,1.03,2.14.12.26.28.39.55.42.05.09.07.18.07.28.03.55-.34,1.23.48,1.53Z"/>
  <path class="cls-1" d="M985.33,471.1c.1.96.74.95,1.45.82-1.71,2.91-5.27,4.6-8.47,3.93-1.32-.27-2.32-1.1-3.06-2.23-.16-.25-.23-.6,0-.84.3-.3.54.01.75.19,1.1.94,2.31,1.43,3.8,1.42,1.61-.01,2.89-.61,4-1.67.53-.51,1.01-1.08,1.52-1.63Z"/>
  <path class="cls-1" d="M943.04,443.77c.31-.28.87-.39.66-1-.2-.58-.76-.33-1.15-.47.89-.65,1.74-.03,2.55.19,1.58.43,2.83-.01,3.95-1.08.66-.63,1.1-1.39,1.4-2.25.48-1.4.93-2.8,1.26-4.24.23,2.25-.09,4.42-1.05,6.44-.98,2.06-3.33,3.41-5.19,3.09-.82-.14-1.56-.64-2.42-.68Z"/>
  <path class="cls-3" d="M899.1,499.78c-.02-.68-.05-1.36-.07-2.05.08-.64.13-1.28.26-1.91.06-.29.29-.58.6-.6.36-.02.47.32.56.61.19.62.38,1.24.5,1.87.21,1.18.47,2.34.97,3.43.23.51.35.99-.26,1.26-.53.24-1.11.22-1.47-.32-.47-.71-.83-1.48-1.09-2.29Z"/>
  <path class="cls-3" d="M899.55,387.94c-.8-.47-.96-1.09-.93-1.74.06-1.85.45-3.61,1.56-5.16.31-.44.64-.8,1.21-.51.56.28.51.78.36,1.29-.06.19-.12.38-.19.56-.65,1.81-1.3,3.61-2.01,5.55Z"/>
  <path class="cls-5" d="M885.68,491.84c-.02,1.35-1.02,1.97-2.22,1.43-1-.45-1.54-1.58-1.29-2.71.26-1.17,1.38-1.63,2.38-.94.78.54,1.19,1.3,1.13,2.22Z"/>
  <path class="cls-1" d="M981.12,379.27c-.36.24-.62.64-1.12.65-.61-2.2-1.4-4.33-2.57-6.3-.13-.21-.22-.44-.32-.67-.09-.2-.07-.4.13-.51.18-.1.39-.04.55.09.11.09.22.2.3.33,1.18,2.05,2.48,4.06,3.03,6.41Z"/>
  <path class="cls-4" d="M907.28,385.53c-.28.11-.51.29-.59.58-.29,1.05-.62.15-.93.02.27-2.11,1-4.03,2.4-5.67l-.02-.02c.02,1.75-.68,3.37-.86,5.08Z"/>
  <path class="cls-3" d="M996.67,429.93c0,.13,0,.23,0,.33,0,.6-.21,1.14-.86,1.2-.63.05-.99-.43-1.12-1-.17-.74-.16-1.48.21-2.17.31-.56.76-.61,1.18-.11.42.51.64,1.11.59,1.76Z"/>
  <path class="cls-1" d="M998,434.85c.3.54-.32,1.02-.11,1.55,0,0,.02-.02.02-.02-.18.03-.28.15-.31.32-1.53.56-2.67.05-3.32-1.49l.04-.04c.15.03.33,0,.43.09,1.26,1.13,2.29.63,3.26-.42Z"/>
  <path class="cls-1" d="M950.76,488.4c.13.74.63,1.17.1,1.71-.82.85-1.68,1.61-3.23,1.53,1.17-1.07,2.35-1.81,3.13-3.24Z"/>
  <path class="cls-3" d="M959.17,454.31c-.09,1.25-.79,1.73-1.67,2.04-.23.08-.51.1-.7-.11-.25-.27-.09-.55.04-.82.47-1,1.38-.91,2.33-1.11Z"/>
  <path class="cls-1" d="M992.51,432.14c-.3-1.6-.6-3.2-.94-5,1.06.9,1.37,2.58.94,5Z"/>
  <path class="cls-3" d="M901.98,378.24c-.26-1,.15-1.64.51-2.28.1-.19.28-.27.5-.23.31.06.39.31.35.56-.13.81-.54,1.44-1.35,1.95Z"/>
  <path class="cls-1" d="M971.55,389.67c.07.37-.12.66-.3.95-.68-.4-.86-1.06-.89-1.79l.03-.03c.56.05.93.37,1.17.86Z"/>
  <path class="cls-4" d="M908.15,380.46c.02-.07.04-.15.06-.22-.03.07-.05.14-.08.21,0,0,.02.02.02.02Z"/>
  <path class="cls-1" d="M869.51,452.53c.02.2.03.4.05.6-.26-.18-.3-.38-.05-.6Z"/>
  <path class="cls-4" d="M883.92,434.91c.03-.1.07-.2.1-.3.01.03.04.07.03.09-.04.07-.1.13-.15.19,0,0,.02.02.02.02Z"/>
  <path class="cls-1" d="M994.27,435.21l-.11-.15c.05.04.1.07.15.11,0,0-.04.04-.04.04Z"/>
  <path class="cls-4" d="M997.59,436.7c.03-.17.13-.29.31-.32-.1.11-.21.21-.31.32Z"/>
  <path class="cls-1" d="M869.84,445.36c-.01.1-.02.2-.03.3-.02-.07-.06-.15-.07-.22,0-.02.07-.05.1-.08Z"/>
  <path class="cls-1" d="M997.09,420.42c.14.1.21.24.2.41-.16-.09-.24-.23-.2-.41Z"/>
  <path class="cls-1" d="M869.53,447.75c0,.1-.01.2-.02.3-.03-.07-.07-.14-.08-.22,0-.02.06-.05.1-.08Z"/>
  <path class="cls-1" d="M970.35,388.84s-.08-.09-.11-.14c.05.04.09.07.14.11,0,0-.03.03-.03.03Z"/>
  <path class="cls-2" d="M1003.84,473.13c.33,2.2-.59,3.88-2.08,5.32-2.2,2.12-5.16,1.72-6.61-1.41-1.12-2.4-.61-4.56,1.06-6.56.74-.89,1.43-1.77,2.58-2.12,1.32-.41,2.48-.14,3.56.73,1.34,1.08,1.8,2.44,1.5,4.05ZM996.38,474.79c0,.46.11.89.22,1.32.26.97.68,1.76,1.77,1.97,1.05.2,1.87-.27,2.47-1.02,1.13-1.4,1.61-3.08,1.47-4.86-.07-.93-.48-1.92-1.48-2.24-1.1-.35-2.11-.07-2.93.88-1,1.16-1.26,2.54-1.53,3.94Z"/>
  <path class="cls-5" d="M1022.12,468.56c-.16,1.61-.71,3.45-1.69,5.14-.27.46-.69.85-1.1,1.21-.45.4-.96.77-1.61.5-.68-.28-.7-.91-.65-1.52.2-2.32.48-4.62,1.39-6.8.13-.32.3-.63.48-.92.37-.62.94-.83,1.65-.77.69.06,1.03.5,1.29,1.07.26.57.21,1.16.24,2.1Z"/>
  <path class="cls-5" d="M1017.92,449.3c-.06-.73.04-1.41.32-2.06.26-.62.77-.9,1.4-.96.63-.07,1.05.33,1.29.84.7,1.45,1.07,2.99.88,4.62-.12.96-.7,1.65-1.37,1.76-.73.12-1.41-.28-1.88-1.18-.49-.94-.73-1.95-.63-3Z"/>
  <path class="cls-5" d="M835.08,448.96c.45-.25.49-.76.58-1.16.26-1.1,1-1.82,1.81-2.48.95-.78,1.89-.38,2.17.86.69,3.11.16,6.09-.91,9.02-.46,1.27-1.43,1.7-2.71,1.57-.88-.7-1.23-1.65-1.22-2.75.01-1.2.01-2.39.02-3.59.41-.23.32-.59.25-.95,0-.17.01-.35.02-.52Z"/>
  <path class="cls-5" d="M838.71,467.95c-.02.21.1.77-.18,1.28-.35.65-.82.72-1.29.2-.69-.76-.82-2.68-.25-3.53.25-.37.58-.55,1.01-.47.46.08.67.42.7.85.03.45,0,.9,0,1.67Z"/>
  <path class="cls-3" d="M835.06,449.48c.07.36.16.72-.25.95-.38-.44-.24-.74.25-.95Z"/>
  <path class="cls-2" d="M834.71,446.17c.04.08.12.17.12.25,0,.08-.09.16-.14.23-.04-.08-.12-.17-.12-.25,0-.08.09-.16.14-.23Z"/>
  <path class="cls-2" d="M983.46,402.3c-.82-.3-.45-.98-.48-1.53.36.45.5.97.48,1.53Z"/>
  <path class="cls-2" d="M899.07,478.92c-.49-1.72-.46-3.51-.83-5.25-.24-1.15-.6-2.29-.56-3.49.35,0,.51.2.62.51.35.92.61,1.88.73,2.85.18,1.46.47,2.91.44,4.4,0,.38.12.82-.41.99Z"/>
  <path class="cls-2" d="M896.09,464.89c-.18-.09-.22-.22-.15-.4.17.09.23.22.15.4Z"/>
  <path class="cls-5" d="M996.38,474.79c.26-1.41.53-2.79,1.53-3.94.82-.96,1.83-1.24,2.93-.88,1,.32,1.4,1.31,1.48,2.24.14,1.78-.34,3.46-1.47,4.86-.6.75-1.43,1.22-2.47,1.02-1.09-.21-1.51-1-1.77-1.97-.12-.44-.22-.86-.22-1.32Z"/>
</svg>