<?xml version="1.0" encoding="UTF-8"?>
<svg id="GRIFOS" xmlns="http://www.w3.org/2000/svg" viewBox="0 0 455.05 452.32">
  <defs>
    <style>
      .cls-1 {
        fill: #f3b067;
      }

      .cls-1, .cls-2, .cls-3, .cls-4, .cls-5, .cls-6, .cls-7, .cls-8, .cls-9, .cls-10, .cls-11 {
        stroke-width: 0px;
      }

      .cls-2 {
        fill: #f5e4c1;
      }

      .cls-3 {
        fill: #7e4326;
      }

      .cls-4 {
        fill: #d59e5b;
      }

      .cls-5 {
        fill: #a44c26;
      }

      .cls-6 {
        fill: #efd7a7;
      }

      .cls-7 {
        fill: #261d19;
      }

      .cls-8 {
        fill: #0f0a09;
      }

      .cls-9 {
        fill: #cba97d;
      }

      .cls-10 {
        fill: #bb602a;
      }

      .cls-11 {
        fill: #f39437;
      }
    </style>
  </defs>
  <g id="body_g">
    <g id="B_Imperial">
      <path class="cls-8" d="M225.13,359.07c-5.09.03-9.28-.1-13.46-.57-10.84-1.21-21.21-3.94-30.68-9.58-4.42-2.63-8.36-5.84-11.84-9.61-.4-.43-.81-.79-1.35-1.04-13.86-6.45-22.53-17.22-26.48-31.89-1.99-7.38-2-14.81-.38-22.24,1.9-8.7,5.88-16.35,11.82-22.99,1.35-1.5,2.78-2.92,4.33-4.22.51-.43.84-.92,1.04-1.6,2.57-8.9,5.86-17.52,10.18-25.73,3.25-6.17,6.93-12.05,11.32-17.47,5.06-6.24,10.78-11.77,17.55-16.15,5.07-3.28,10.5-5.73,16.41-7.09,5.14-1.19,10.34-1.43,15.57-.93,7.58.73,14.5,3.38,20.96,7.34,5.09,3.12,9.57,6.97,13.7,11.25,6.59,6.84,11.8,14.66,16.23,23.02,4.36,8.24,7.67,16.89,10.2,25.85.17.58.47,1,.93,1.39,4.45,3.82,8.09,8.32,10.94,13.43,3.17,5.69,5.3,11.77,6.07,18.25,1.22,10.22-.57,19.91-5.46,28.99-4.42,8.22-10.68,14.65-18.84,19.21-.71.4-1.46.76-2.22,1.06-1.21.48-2.2,1.19-3.09,2.16-4.52,4.91-9.92,8.6-15.89,11.51-6.02,2.93-12.35,4.91-18.92,6.05-6.45,1.12-12.96,1.77-18.64,1.59ZM161.67,329.66c.1.16.28.4.4.25.15-.17-.11-.31-.28-.4-.09-.68-.54-1.19-.83-1.77-.47-.92-1-1.8-1.4-2.74-2-4.65-3.61-9.43-4.6-14.41-.2-.99-.23-2.03-.68-2.97-.03-.41-.05-.82-.11-1.23-.79-5.76-1.11-11.55-.98-17.36.06-2.62.17-5.25.37-7.87.28-3.78.72-7.53,1.38-11.26.32-1.82.77-3.62.88-5.47.1,0,.16-.06.14-.16,0-.03-.06-.09-.08-.08-.1.02-.14.08-.12.18-.32.05-.46.33-.64.54-3.82,4.65-6.82,9.78-8.71,15.51-.83,2.5-1.57,5.03-1.8,7.67-.2.23-.2.48-.11.75-.01.17-.03.33-.04.5,0,.08,0,.17,0,.25,0,.25-.02.49-.03.74-.38.36-.26.85-.27,1.28-.05,2.59-.06,5.17.21,7.75.52,5.08,1.96,9.9,4.19,14.46,2.49,5.1,5.76,9.66,10.01,13.46.97.87,1.85,1.87,3.1,2.38ZM303.96,289.59c-.01-.21,0-.41-.03-.62-.82-5.8-2.54-11.29-5.43-16.4-1.34-2.37-2.81-4.65-4.54-6.75-.42-.5-.78-1.07-1.53-1.43.14.75.25,1.35.37,1.96,1.41,6.86,2.14,13.8,2.36,20.8.21,6.35-.13,12.66-.87,18.96-.29,1.44-.58,2.89-.88,4.33-1.41,6.75-3.52,13.25-7.08,19.21-.06.09-.16.19-.04.37,1.61-.91,2.93-2.19,4.26-3.44,2.93-2.74,5.32-5.92,7.4-9.34,2.59-4.26,4.24-8.88,5.38-13.7.44-1.88.6-3.81.78-5.73.27-2.76.23-5.49-.17-8.23ZM267.79,218.33c.02-.21-.05-.37-.27-.43-.99-1.71-2.19-3.26-3.48-4.74-1.14-1.3-2.28-2.6-3.48-3.84-6.19-6.33-13.1-11.6-21.51-14.68-7.63-2.8-15.41-3.44-23.39-1.81-6.17,1.26-11.78,3.81-16.97,7.3-8.67,5.84-15.44,13.51-21.14,22.19-4.25,6.48-7.73,13.38-10.61,20.57-.65,1.63-1.35,3.25-1.76,4.97-.42.58-.56,1.27-.78,1.92-2.06,6.12-3.68,12.35-4.85,18.7-.54,2.91-1.05,5.82-1.26,8.78-.4,1.85-.54,3.72-.53,5.61l-.05.78c-.28.72-.22,1.46-.15,2.2-.29,5.29-.17,10.57.51,15.83-.14.36-.1.74-.04,1.09.52,2.89.86,5.81,1.57,8.67.47,1.88.86,3.79,1.58,5.6.04.19.06.38.26.48h0c.05.25.05.51.14.73,1.17,2.94,2.33,5.89,3.89,8.66.95,1.69,2.12,3.23,3.16,4.85,2.28,3.54,5.27,6.43,8.47,9.08,5.35,4.43,11.42,7.6,18.02,9.75,4.81,1.57,9.73,2.67,14.76,3.3,4.66.58,9.32.89,14.01.91,1.97,0,3.94-.06,5.92-.16,3.62-.17,7.2-.48,10.79-1.02,4.97-.75,9.82-1.96,14.54-3.68,8.38-3.06,15.67-7.72,21.65-14.38,2.87-3.2,5.3-6.72,7.18-10.58,2.69-5.49,4.57-11.25,5.59-17.3.83-4.96,1.25-9.94,1.38-14.96.12-4.73-.23-9.45-.65-14.16-.22-2.42-.44-4.84-.89-7.21-.94-4.96-1.92-9.91-3.32-14.78-2.04-7.09-4.51-14.01-7.67-20.67-2.83-5.95-6.15-11.63-9.95-17.03-.16-.23-.29-.51-.64-.51l-.02-.04Z"/>
      <path class="cls-4" d="M158.28,277.26c.21-2.96.72-5.87,1.26-8.78,1.17-6.35,2.79-12.58,4.85-18.7.22-.65.36-1.35.78-1.92.45.63.17,1.35.21,2.03.05.72.09,1.42.57,2.14.12-.26.19-.41.25-.55,1.12-2.82,2.26-5.63,3.64-8.34,1.28-2.53,2.63-5.03,4-7.51,1.35-2.45,2.84-4.81,4.4-7.11,2.52-3.69,5.2-7.28,8.27-10.54,2.57-2.72,5.2-5.38,8.15-7.7,1.9-1.5,3.83-2.95,5.88-4.24,2.93-1.83,6.01-3.39,9.24-4.64,2.99-1.15,6.06-2.02,9.23-2.53,1.7-.27,3.4-.55,5.13-.48.62.03,1.2-.41,1.82-.18.64.23,1.3.16,1.96.17.86.02,1.75-.08,2.59.06,2.06.33,4.12.61,6.15,1.11,3.17.77,6.2,1.91,9.15,3.24,3.16,1.42,6.08,3.26,8.88,5.29,2.39,1.74,4.71,3.57,6.88,5.57,2.25,2.06,4.21,4.39,6.3,6.6.18.19.31.37.59.37h-.02c.07.07.14.16.21.24,2.53,4.85,4.42,9.97,6.17,15.14,1.4,4.12,2.49,8.32,3.4,12.57.49,2.28,1.12,4.53,1.32,6.87-2.11.25-4.08-.23-5.98-1.1-.33-.15-.67-.51-1.15-.15.26.63.48,1.24.76,1.83,1.12,2.38,1.54,4.93,1.68,7.52.14,2.6-.3,5.15-.94,7.66-.17.66-.47.96-1.13,1.08-1.66.31-3.35.41-5.01.42-1.29,0-2.61-.19-3.91-.39-4.45-.68-8.24-2.65-11.55-5.65-.65-.59-1.34-1.13-2.14-1.8,0,1.02-.04,1.84,0,2.65.22,4.26-1.12,8.09-3.14,11.74-.25.45-.47.63-1.06.51-.89-.18-1.75-.45-2.6-.75-2.68-.95-5.08-2.31-6.82-4.64-.26-.36-.56-.69-.82-1.02-.4.14-.37.46-.44.73-1.3,4.9-4.13,8.61-8.63,11.01-.8.42-1.61,1.04-2.45,1.1-.9.07-1.72-.69-2.55-1.13-4.43-2.39-7.33-5.99-8.59-10.88-.08-.31-.15-.6-.39-.82-.14.09-.22.12-.27.18-.09.09-.17.18-.24.28-2.43,3.26-5.74,5.05-9.66,5.9-.7.15-.96-.09-1.25-.6-1.23-2.15-2.18-4.41-2.78-6.82-.23-.89-.17-1.79-.32-2.68-.2-1.14-.24-2.28,0-3.43.1-.47.11-.94,0-1.62-.56.56-.98.98-1.41,1.41-2.13,2.1-4.57,3.72-7.32,4.92-2.18.94-4.43,1.36-6.77,1.67-2.45.32-4.82.03-7.21-.33-.54-.08-.81-.36-.98-.93-.56-1.98-.88-4-.93-6.06-.03-1.31.07-2.62.2-3.93.17-1.7.56-3.3,1.23-4.86.37-.87.89-1.69,1.12-2.67-.16.01-.2,0-.24.02-.26.12-.52.25-.78.37-1.96.95-4,1.47-6.2,1.26-1.31-.13-2.4-.55-2.86-1.94-.07-.21-.05-.5-.32-.62-.3.09-.29.37-.38.59-1.24,3.05-2.17,6.2-3.19,9.32-.84,2.57-1.45,5.2-1.98,7.85-.42,2.09-.83,4.17-1.21,6.27-.1.53-.35.45-.69.31Z"/>
      <path class="cls-2" d="M158.28,277.26c.34.13.59.22.69-.31.38-2.09.8-4.18,1.21-6.27.53-2.65,1.14-5.28,1.98-7.85,1.02-3.12,1.95-6.27,3.19-9.32.09-.22.08-.5.38-.59.27.12.25.41.32.62.46,1.39,1.55,1.81,2.86,1.94,2.2.21,4.24-.31,6.2-1.26.26-.13.52-.25.78-.37.03-.02.08,0,.24-.02-.22.98-.74,1.81-1.12,2.67-.68,1.56-1.06,3.16-1.23,4.86-.13,1.31-.23,2.62-.2,3.93.05,2.06.36,4.07.93,6.06.16.57.44.85.98.93,2.39.36,4.76.65,7.21.33,2.34-.31,4.59-.73,6.77-1.67,2.75-1.19,5.19-2.81,7.32-4.92.43-.42.85-.85,1.41-1.41.11.68.1,1.15,0,1.62-.24,1.14-.2,2.28,0,3.43.15.89.1,1.79.32,2.68.61,2.41,1.55,4.67,2.78,6.82.29.5.55.75,1.25.6,3.92-.85,7.23-2.64,9.66-5.9.07-.1.15-.2.24-.28.06-.06.13-.09.27-.18.23.21.31.51.39.82,1.26,4.89,4.17,8.49,8.59,10.88.83.45,1.65,1.2,2.55,1.13.84-.06,1.65-.68,2.45-1.1,4.49-2.4,7.32-6.11,8.63-11.01.07-.27.04-.58.44-.73.27.33.56.66.82,1.02,1.74,2.33,4.14,3.69,6.82,4.64.85.3,1.7.57,2.6.75.58.12.81-.06,1.06-.51,2.02-3.66,3.36-7.49,3.14-11.74-.04-.81,0-1.63,0-2.65.8.67,1.49,1.21,2.14,1.8,3.3,3,7.1,4.97,11.55,5.65,1.3.2,2.61.4,3.91.39,1.67,0,3.35-.11,5.01-.42.66-.12.97-.42,1.13-1.08.64-2.52,1.08-5.06.94-7.66-.14-2.59-.55-5.14-1.68-7.52-.28-.59-.5-1.21-.76-1.83.47-.36.81,0,1.15.15,1.9.87,3.87,1.36,5.98,1.1.12.52.23,1.03.29,1.56.17,1.46.31,2.92.54,4.37.36,2.22.57,4.47.61,6.69.07,3.76.26,7.54-.15,11.31-.19,1.74-.35,3.49-.49,5.24-.2,2.49-.68,4.92-1.2,7.36-.17.8-.18,1.63-.63,2.35-.7-.06-1.37-.25-2.03-.47-3.18-1.03-5.96-2.73-8.41-5.01-.95-.88-1.9-1.76-2.84-2.64,0,1.01,0,2.07,0,3.14,0,.33,0,.66-.05.98-.6,4.01-2.51,7.39-5.23,10.28-2.21,2.35-1.45,2.24-4.18.66-3.54-2.05-6.24-4.92-8.13-8.55-.22-.42-.36-.9-.83-1.33-.14.57-.26,1.03-.37,1.49-1.16,4.86-3.47,9.14-6.71,12.89-3.88,4.49-8.77,7.65-13.98,10.37-1.11.58-2.04.53-3.11-.03-4.98-2.59-9.68-5.55-13.48-9.78-2.7-3.01-4.82-6.34-6.17-10.14-.53-1.49-.97-3.01-1.44-4.5-.26,0-.32.17-.4.31-1.47,2.79-3.28,5.29-5.76,7.29-1.35,1.09-2.8,2.01-4.28,2.89-.51.3-.91.24-1.31-.19-.59-.63-1.26-1.19-1.82-1.85-1.94-2.27-3.52-4.75-4.3-7.67-.56-2.1-.84-4.22-.58-6.4-.37.02-.53.29-.69.51-1.06,1.44-2.34,2.65-3.77,3.7-1.89,1.39-3.88,2.59-6.14,3.34-2.51.83-5.07.92-7.67.93-.73,0-.99-.32-1.17-.97-.89-3.18-1.34-6.38-1.05-9.71.21-2.33.73-4.52,1.76-6.61.1-.2.31-.41.04-.76-1.91.92-3.86,1.88-6.09,1.85-.2.59-.11,1.17-.15,1.74-.06.93-.12,1.87-.44,2.76-.01-1.89.13-3.76.53-5.61Z"/>
      <path class="cls-4" d="M157.75,282.87c.32-.89.38-1.83.44-2.76.04-.57-.05-1.15.15-1.74,2.23.03,4.17-.93,6.09-1.85.28.35.06.56-.04.76-1.03,2.09-1.55,4.28-1.76,6.61-.3,3.33.15,6.53,1.05,9.71.18.64.43.97,1.17.97,2.59-.02,5.16-.1,7.67-.93,2.26-.75,4.25-1.94,6.14-3.34,1.43-1.05,2.71-2.26,3.77-3.7.16-.22.32-.49.69-.51-.26,2.18.02,4.3.58,6.4.78,2.92,2.36,5.41,4.3,7.67.56.66,1.23,1.22,1.82,1.85.4.43.8.49,1.31.19,1.48-.88,2.93-1.8,4.28-2.89,2.49-2,4.29-4.51,5.76-7.29.07-.14.13-.3.4-.31.47,1.49.91,3.01,1.44,4.5,1.35,3.81,3.46,7.14,6.17,10.14,3.81,4.23,8.5,7.19,13.48,9.78,1.07.56,2,.61,3.11.03,5.22-2.72,10.11-5.88,13.98-10.37,3.24-3.75,5.55-8.03,6.71-12.89.11-.46.23-.92.37-1.49.46.43.61.91.83,1.33,1.89,3.63,4.59,6.5,8.13,8.55,2.72,1.58,1.97,1.69,4.18-.66,2.72-2.89,4.63-6.27,5.23-10.28.05-.32.05-.66.05-.98,0-1.07,0-2.13,0-3.14.94.88,1.9,1.75,2.84,2.64,2.44,2.28,5.23,3.98,8.41,5.01.66.21,1.33.41,2.04.47-.49,2.54-1.29,4.99-2.23,7.38-1.07,2.7-2.12,5.41-3.63,7.91-.47,0-.7-.35-.96-.68-.44-.56-.89-1.11-1.44-1.79-.28,1.95-.63,3.7-1.08,5.42-.35,1.34-.79,2.65-1.19,3.97-.93,2.05-2.52,3.61-3.99,5.24-1.59,1.76-3.28,3.44-5.14,4.92-.78.62-1.41,1.51-2.51,1.68-.09-.13-.17-.28-.28-.4-1.99-2.13-3.73-4.45-5.24-6.95-.12-.19-.15-.5-.54-.42-.2.51-.42,1.03-.63,1.56-1.31,3.29-2.96,6.39-5.21,9.14-1.38,1.68-2.92,3.2-4.48,4.71-.41.4-.89.73-1.16,1.25-.68.4-1.4.68-2.16.87-1.87.46-3.74.92-5.65,1.23-3.45.55-6.9,1-10.39,1.14-.7.03-1.39.1-2.09.14-1.55.08-3.12.25-4.66-.16-.12-.23-.33-.35-.53-.5-3.07-2.28-6.01-4.69-8.53-7.61-2.64-3.06-4.7-6.42-6.08-10.21-.22-.6-.5-1.18-.81-1.9-.19.35-.29.57-.41.78-1.37,2.4-3.03,4.59-4.85,6.66-.78.88-.98.9-2.01.31-1.54-.87-2.98-1.91-4.3-3.09-3.63-3.25-5.93-7.3-7.12-12.01-.47-1.85-.81-3.72-1.04-5.64-.51.19-.68.57-.93.89-1.86,2.32-4.17,4.03-6.91,5.21-1.08.46-1.94.3-2.86-.33-1.81-1.24-3.39-2.71-4.84-4.34-1.43-1.61-2.63-3.35-3.48-5.34-.26-.6-.36-1.37-1.1-1.68-.68-5.26-.79-10.54-.51-15.83.33-.71.21-1.46.15-2.2l.05-.78Z"/>
      <path class="cls-9" d="M256.36,328.37c1.1-.17,1.72-1.06,2.51-1.68,1.87-1.47,3.55-3.16,5.14-4.92,1.47-1.63,3.06-3.19,3.99-5.24.46-.05.71-.36.93-.72.41-.66.85-1.31,1.23-1.98.82-1.41,1.85-2.7,2.5-4.21,1.51-2.5,2.56-5.22,3.63-7.91.95-2.39,1.75-4.84,2.23-7.38.45-.72.46-1.55.63-2.35.52-2.43,1-4.87,1.2-7.36.14-1.75.31-3.5.49-5.24.4-3.77.22-7.55.15-11.31-.04-2.22-.25-4.47-.61-6.69-.24-1.44-.37-2.91-.54-4.37-.06-.53-.17-1.05-.29-1.56-.2-2.34-.84-4.59-1.32-6.87-.91-4.25-2-8.46-3.4-12.57-1.75-5.17-3.64-10.29-6.17-15.14,0-.14-.09-.21-.21-.26,0,0,.02.01.02.01-.14-.78-.82-1.4-.67-2.26.35,0,.48.27.64.51,3.8,5.4,7.12,11.08,9.95,17.03,3.17,6.66,5.63,13.58,7.67,20.67,1.4,4.87,2.37,9.82,3.32,14.78.45,2.37.67,4.79.89,7.21.42,4.71.77,9.43.65,14.16-.13,5.01-.55,10-1.38,14.96-1.01,6.05-2.9,11.81-5.59,17.3-1.89,3.86-4.31,7.38-7.18,10.58-5.98,6.66-13.27,11.32-21.65,14.38-4.73,1.73-9.57,2.93-14.54,3.68-3.58.54-7.17.85-10.79,1.02-1.97.09-3.94.17-5.92.16-4.69-.02-9.35-.33-14.01-.91-5.03-.63-9.95-1.73-14.76-3.3-6.59-2.16-12.67-5.33-18.02-9.75-3.2-2.65-6.19-5.54-8.47-9.08-1.05-1.62-2.22-3.16-3.16-4.85-1.55-2.77-2.72-5.72-3.89-8.66-.09-.22-.1-.48-.14-.72.28-.02.42.17.6.35,1.18,1.2,2.13,2.6,3.28,3.82,1.43,1.52,2.89,3.01,4.53,4.33,2.72,2.19,5.48,4.3,8.59,5.91,1.42.74,2.84,1.46,4.28,2.16,1.93.93,3.9,1.72,5.92,2.38,1.59.52,3.22.94,4.84,1.36,1.58.41,3.16.86,4.77,1.13,2.58.43,5.16.79,7.76,1.07,2.61.28,5.22.51,7.84.43,1.54.41,3.11.24,4.66.16.69-.04,1.39-.11,2.09-.14,3.49-.14,6.94-.59,10.39-1.14,1.91-.3,3.77-.77,5.65-1.23.77-.19,1.49-.47,2.16-.87,1.24.03,2.28-.6,3.39-1,4.73-1.71,9.13-4.03,13.24-6.93.37-.26.72-.55.93-.97Z"/>
      <path class="cls-2" d="M213.87,340.48c-2.63.08-5.23-.15-7.84-.43-2.6-.28-5.19-.64-7.76-1.07-1.61-.27-3.19-.72-4.77-1.13-1.62-.42-3.25-.84-4.84-1.36-2.02-.66-4-1.45-5.92-2.38-1.44-.7-2.86-1.42-4.28-2.16-3.12-1.62-5.88-3.72-8.59-5.91-1.64-1.32-3.1-2.81-4.53-4.33-1.15-1.22-2.1-2.62-3.28-3.82-.18-.18-.31-.37-.6-.35,0,0,0-.01,0-.01.02-.22-.02-.41-.26-.48-.73-1.81-1.11-3.72-1.58-5.6-.72-2.85-1.05-5.78-1.57-8.67-.06-.35-.11-.73.04-1.09.74.31.85,1.08,1.1,1.68.85,1.99,2.05,3.73,3.48,5.34,1.45,1.63,3.03,3.1,4.84,4.34.92.63,1.78.79,2.86.33,2.74-1.17,5.05-2.88,6.91-5.21.25-.31.42-.7.93-.89.24,1.92.57,3.79,1.04,5.64,1.2,4.71,3.49,8.76,7.12,12.01,1.31,1.18,2.76,2.21,4.3,3.09,1.03.58,1.23.57,2.01-.31,1.82-2.07,3.48-4.26,4.85-6.66.12-.21.23-.43.41-.78.31.72.59,1.3.81,1.9,1.39,3.79,3.44,7.15,6.08,10.21,2.52,2.92,5.46,5.32,8.53,7.61.2.15.41.27.53.5Z"/>
      <path class="cls-6" d="M267.81,218.37c-.15.86.53,1.48.67,2.26-.28,0-.41-.19-.59-.37-2.09-2.21-4.05-4.54-6.3-6.6-2.18-2-4.5-3.83-6.88-5.57-2.79-2.04-5.72-3.87-8.88-5.29-2.96-1.33-5.98-2.46-9.15-3.24-2.04-.5-4.1-.78-6.15-1.11-.84-.14-1.73-.04-2.59-.06-.65-.01-1.31.06-1.96-.17-.62-.22-1.2.21-1.82.18-1.73-.07-3.43.21-5.13.48-3.17.51-6.24,1.38-9.23,2.53-3.23,1.25-6.31,2.8-9.24,4.64-2.05,1.28-3.98,2.74-5.88,4.24-2.95,2.32-5.59,4.98-8.15,7.7-3.08,3.25-5.76,6.85-8.27,10.54-1.57,2.3-3.05,4.67-4.4,7.11-1.37,2.48-2.72,4.98-4,7.51-1.38,2.71-2.52,5.52-3.64,8.34-.06.15-.13.29-.25.55-.47-.72-.51-1.42-.57-2.14-.05-.68.24-1.4-.21-2.03.41-1.72,1.1-3.34,1.76-4.97,2.88-7.19,6.36-14.09,10.61-20.57,5.69-8.67,12.46-16.35,21.14-22.19,5.19-3.49,10.8-6.04,16.97-7.3,7.99-1.63,15.77-.98,23.39,1.81,8.41,3.08,15.32,8.35,21.51,14.68,1.21,1.23,2.34,2.54,3.48,3.84,1.3,1.48,2.5,3.03,3.48,4.74-.02.22-.09.46.27.43l.02.04Z"/>
      <path class="cls-4" d="M155.83,264.43c-.12,1.85-.56,3.65-.89,5.47-.66,3.73-1.11,7.48-1.38,11.26-.19,2.62-.31,5.24-.37,7.87-.13,5.81.19,11.6.98,17.36.06.41.07.82.11,1.23-.24-.08-.09-.5-.46-.5,0,.21,0,.41-.03.61-.02.19.03.42-.22.51-.08-.02-.18,0-.23-.05-.25-.21-.51-.42-.73-.66-2.29-2.36-3.91-5.16-5.2-8.15-1.17-2.72-1.87-5.59-2.49-8.47-.06-.3-.08-.58-.47-.6,0-.25.02-.49.03-.74.03-.02.09-.05.08-.07-.02-.06-.05-.12-.08-.18.01-.17.03-.33.04-.5.22-.22.19-.48.11-.75.24-2.64.98-5.17,1.8-7.67,1.9-5.73,4.89-10.86,8.71-15.51.18-.21.32-.49.64-.54l.06.07Z"/>
      <path class="cls-4" d="M294.3,306.11c.74-6.3,1.07-12.62.87-18.96-.23-7-.96-13.94-2.36-20.8-.12-.6-.23-1.21-.37-1.96.74.36,1.11.93,1.53,1.43,1.73,2.1,3.2,4.38,4.54,6.75,2.89,5.11,4.61,10.61,5.43,16.4.03.2.02.41.03.61-.12.26-.31.5-.35.78-.31,1.74-.8,3.43-1.28,5.13-1.08,3.8-2.79,7.29-5.17,10.44-.58.77-1.39,1.36-2.12,2.06-.21-.44-.37-.84-.38-1.3,0-.26-.05-.5-.35-.58Z"/>
      <path class="cls-9" d="M294.3,306.11c.3.08.34.32.35.58.01.46.18.86.38,1.3.73-.7,1.54-1.3,2.12-2.06,2.38-3.14,4.09-6.64,5.17-10.44.48-1.7.98-3.39,1.28-5.13.05-.27.23-.52.35-.78.4,2.74.43,5.47.17,8.23-.19,1.92-.34,3.85-.78,5.73-1.14,4.82-2.79,9.44-5.38,13.7-2.08,3.42-4.47,6.6-7.4,9.34-1.33,1.25-2.65,2.53-4.26,3.44-.13-.19-.02-.28.04-.37,3.57-5.96,5.67-12.46,7.08-19.21.3-1.44.59-2.89.88-4.33Z"/>
      <path class="cls-9" d="M144.44,290.32c.39.02.41.3.47.6.62,2.89,1.33,5.75,2.49,8.47,1.28,2.99,2.91,5.79,5.2,8.15.23.24.48.45.73.66.05.04.15.03.23.05.25-.09.21-.32.22-.51.02-.2.02-.41.03-.61.37,0,.22.42.46.5.45.94.48,1.98.68,2.97.99,4.98,2.6,9.76,4.6,14.41.4.94.94,1.83,1.4,2.74.3.58.74,1.1.83,1.77-.04.05-.08.1-.12.15-1.25-.52-2.13-1.52-3.1-2.38-4.25-3.8-7.52-8.36-10.01-13.46-2.23-4.56-3.67-9.38-4.19-14.46-.26-2.58-.26-5.16-.21-7.75,0-.43-.1-.92.27-1.28Z"/>
      <path class="cls-10" d="M157.7,283.65c.06.74.18,1.49-.15,2.2-.07-.74-.13-1.48.15-2.2Z"/>
      <path class="cls-10" d="M144.62,288.09c.08.27.11.53-.11.75-.1-.27-.09-.52.11-.75Z"/>
      <path class="cls-10" d="M161.8,329.51c.17.09.43.22.28.4-.13.15-.31-.09-.4-.25.04-.05.08-.1.12-.15Z"/>
      <path class="cls-5" d="M267.79,218.33c-.36.03-.3-.22-.27-.43.23.06.29.22.27.43Z"/>
      <path class="cls-5" d="M161.18,317.04c.24.08.29.26.26.48-.2-.1-.22-.3-.26-.48Z"/>
      <path class="cls-11" d="M155.77,264.36c-.02-.1.02-.17.12-.18.02,0,.07.05.08.08.02.1-.03.16-.14.16,0,0-.06-.07-.06-.07Z"/>
      <path class="cls-10" d="M144.47,289.34c.03.06.06.12.08.18,0,.02-.05.05-.08.07,0-.08,0-.17,0-.25Z"/>
      <path class="cls-1" d="M268.46,220.62c.12.05.21.12.21.26-.07-.09-.14-.17-.21-.26Z"/>
      <path class="cls-2" d="M256.36,328.37c-.21.42-.55.7-.93.97-4.1,2.9-8.51,5.23-13.24,6.93-1.11.4-2.15,1.03-3.39,1,.27-.52.75-.86,1.16-1.25,1.56-1.5,3.1-3.02,4.48-4.71,2.25-2.76,3.9-5.85,5.21-9.14.21-.53.43-1.06.63-1.56.39-.08.43.23.54.42,1.51,2.5,3.26,4.81,5.24,6.95.11.12.19.26.28.4Z"/>
      <path class="cls-2" d="M272.67,309.62c-.65,1.51-1.68,2.8-2.5,4.21-.39.67-.82,1.32-1.23,1.98-.22.36-.47.67-.93.72.4-1.32.84-2.63,1.19-3.97.45-1.72.8-3.47,1.08-5.42.55.68,1,1.23,1.44,1.79.25.33.48.67.96.68Z"/>
    </g>
  </g>
  <path class="cls-7" d="M241.39,405.22l2.35-.81-2.35.81Z"/>
  <polygon class="cls-3" points="243.79 404.41 241.34 405.09 241.11 404.24 243.42 403.71 243.79 404.41"/>
</svg>