<?xml version="1.0" encoding="UTF-8"?>
<svg id="Sprite_Alien" xmlns="http://www.w3.org/2000/svg" viewBox="0 0 471.47 423.94">
  <defs>
    <style>
      .cls-1 {
        fill: #6b934f;
      }

      .cls-1, .cls-2, .cls-3, .cls-4, .cls-5, .cls-6, .cls-7, .cls-8 {
        stroke-width: 0px;
      }

      .cls-2 {
        fill: #19151a;
      }

      .cls-3 {
        fill: #3e532d;
      }

      .cls-4 {
        fill: #759356;
      }

      .cls-5 {
        fill: #709753;
      }

      .cls-6 {
        fill: #537942;
      }

      .cls-7 {
        fill: #25302e;
      }

      .cls-8 {
        fill: #fdfcfa;
      }
    </style>
  </defs>
  <g id="Legs-Alien">
    <g id="L2">
      <g>
        <path class="cls-2" d="M292.34,272.22c.7.31,1.03-.95,1.81-.42.7.48.75,1.25.91,1.95,1.2,5.46,2.22,10.94,1.36,16.57-.09.6-.15,1.2-.29,1.79-.53,2.29-.74,4.61-.98,6.94-.5,4.74-2.42,8.78-7,11.04-.55.27-1.06.58-1.43,1.08-2.63,3.55-6,6.34-9.36,9.13-1.92,1.6-3.63,3.41-5.19,5.35-1.55,1.93-1.73,4.22-.83,6.39,1.02,2.47,2.38,4.8,3.25,7.34.2.6.7.97,1.08,1.43,1.18,1.45,2.56,2.79,2.88,4.75.08.47.43.65.69.94,1.74,1.96,3.53,3.88,4.49,6.39.11.3.31.63.57.8,2.17,1.42,3.55,3.65,5.55,5.23,1.52,1.21,3.06,2.39,4.61,3.57.61.47,1.36.55,2.11.58,1.25.06,2.32.47,3.24,1.37,1.76,1.72,4.02,1.98,6.34,1.94.47,0,.95-.05,1.4-.18,2.53-.75,4.52.22,6.09,2.07.98,1.16,2.1,2.01,3.41,2.74,4.74,2.64,6.74,6.73,6.28,12.08-.05.55-.06,1.1-.69,1.32-.64.22-1.18.03-1.62-.49-1.15-1.38-2.67-2.27-4.29-2.91-.81-.32-1.74-.76-2.63.07-1.47,1.36-1.62.78-.75,2.73,1.11,2.49,1.11,5.09.77,7.72-.07.52-.25,1.06-.5,1.51-.78,1.39-1.8,1.5-2.84.27-1.13-1.34-2.36-2.58-3.78-3.61-1.09-.79-2.17-1.03-3.57-.5-3.84,1.46-7.38.61-10.59-1.82-.86-.65-1.67-1.36-2.53-2-.37-.28-.79-.52-1.22-.69-1.91-.76-2.85-.03-2.58,1.99.43,3.1.41,6.16-.48,9.19-.3,1-.77,1.85-1.46,2.6-1.3,1.41-2.21,1.29-3.1-.38-.5-.95-1.03-1.88-1.5-2.85-.55-1.13-1.39-1.67-2.69-1.73-2.02-.1-3.95-.53-5.73-1.66-1.85-1.17-3.16-2.73-3.82-4.76-.32-.97-.83-1.6-1.66-2.13-1.18-.76-2.29-1.63-3.42-2.48-1.72-1.29-2.44-3.1-2.76-5.17-.29-1.84-.05-3.77-.95-5.61-1.51.47-2.26,1.54-2.43,3.05-.11,1-.08,2.02-.23,3.01-.2,1.34-.88,1.64-2.15,1.06-.93-.43-1.73-1.02-2.28-1.9-1.42-2.25-2.43-4.64-2.4-7.36.01-.95-.12-1.84-.49-2.73-.58-1.4-.64-2.88-.29-4.36.36-1.5.75-2.99,1.17-4.48.55-1.92.6-3.82.08-5.76-1.57-5.83-4.13-11.18-7.45-16.2-1.26-1.9-2.56-3.81-3.07-6.07-.98-4.35.15-8.09,3.45-11.13.54-.5,1.15-.93,1.74-1.38,2.63-2,3.93-4.68,4.13-7.94.11-1.81.19-3.63.42-5.43.54-4.21,2.94-7.26,6.23-9.73.53-.4,1.08-.78,1.65-1.18-.02-.68-.44-1.12-.78-1.59-1.49-2.01-2.54-4.26-3.71-6.45-.25-.47-.48-1.01-.49-1.52-.02-.93.38-1.57,1.49-1.3.25,1.23,1.19,2.07,1.77,3.11,2.81,5.06,6.02,9.83,10.18,13.91.16.15.45.37-.05.73-1.94-1.19-3.98-2.31-5.61-4.04-.65-.69-1.18-.94-2.02-.21-1.11.96-2.4,1.71-3.44,2.76-1.78,1.8-2.77,3.94-2.84,6.45-.07,2.76-.57,5.44-1.1,8.14-.47,2.4-1.56,4.75-.71,7.29.12.36-.16.63-.39.87-.37.39-.76.76-1.13,1.15-1.83,1.88-2.17,3.93-.93,6.22.51.95,1.17,1.82,1.77,2.73-1.12.36-1.9-.26-2.54-.92-1.99-2.05-2.11-5.67-.34-7.93.33-.42.71-.81,1.12-1.16,1.27-1.09,1.72-2.41,1.25-4.27-.93,1.46-2.26,2.14-3.43,3.01-2.88,2.14-4.22,5.83-3.21,9.23.28.96.68,1.9,1.17,2.77,2.71,4.77,6.06,9.2,7.77,14.5.04.11.18.19.27.29.07.66-.23,1.41.45,1.93.11.44.24.88.31,1.33q.42,2.42,2.97,2.19c.19.04.37.07.55.12.25.08.49.24.42.52-.03.11-.28.2-.45.25-.18.05-.37.04-.56.06-2.33.1-2.73.65-2.12,2.86.57-.17,1.13-.34,1.7-.51.13.4.48.6.79.84-.16.11-.3.29-.47.33-2.25.48-2.53.84-2.6,3.41.65-.07,1.29-.13,1.94-.2.76.27,1.54.5,2.01,1.24-.06.06-.12.12-.18.18-.36-.08-.71-.15-1.07-.23-3.12-.52-4.27.79-3.65,4.14.79-.55,1.43-1.37,2.45-1.24.67.28,1.33.56,2,.84.92,1.28,2.33,2.3,2.07,4.25,1.22-.53,1.62-1.35,1.57-2.46-.07-1.74.19-3.49-.25-5.21-.09-.36.05-.7.4-.83.45-.17.54.22.67.53.83,2.07,1.41,4.17.9,6.43-.26,1.14-.12,2.27.34,3.35.59,1.38.86,2.81.76,4.32-.2,2.9,1.31,4.8,3.67,6.18.46.27.95.56,1.46.66.81.16.2-1.14,1.02-1.13.75,1.07,1.17,2.35,1.39,3.52.8,4.22,3.52,6.15,7.8,6.54-1.77-2.16-2.9-4.38-2.38-7.09.48-.65.85-1.35,1.05-2.13.08-.11.12-.24.11-.38l.07-.08-.05-.09c.23-.15.38-.35.39-.64.06-.07.07-.15.02-.23.14-.19.28-.37.42-.56v.05c1.57-.65,3.14-1.36,4.8-.26.87.77,1.75,1.53,2.63,2.31-.13-1.33-.69-2.44-1.83-3.26-1.59-1.72-3.51-1.87-5.61-1.19-1.31.17-2.32,1.1-3.57,1.43.02-1.05,1.18-1.07,1.59-1.78,1.24-.45,2.52-.76,3.87-.96-1.15-1.97-2.7-2.4-4.67-1.64-.25.1-.52.11-.79.17-.68.25-1.36.51-2.04.76,0,0-.11-.11-.11-.11,0-.12,0-.25.02-.37.55-.38,1.1-.77,1.65-1.15,1.04-.32,2.08-.64,3.45-1.05-1.04-.49-1.15-1.41-1.83-1.87-.01-.13-.02-.27-.03-.4l.02-1.16c.03-.08.03-.16,0-.24.76-.97.4-1.97.05-2.96.81.13,1.54.41,1.96,1.19-.83,2.23.16,3.89,1.76,5.29,1.21,1.05,2.63,1.87,3.77,2.98,1.68,1.64,4.02,2.83,4.25,5.59.04.49.42.63.86.65.4.02.8.05,1.2.12,1.37.24,1.36.25,1.52-1.32h0c.39.18.58.52.84.84,1.24,1.56,2.43,3.16,4.11,4.33,2.29,1.6,5.01,2.06,7.29.99-1.88-1.24-2.87-2.96-2.94-5.2-.02-.73-.07-1.47-.1-2.2.72-3.1,1.92-4.11,5.27-4.35-.47-.84-1.19-1.25-2.02-1.52-.44-.13-.88-.31-1.33-.4-2.08-.42-4.38.71-5.47,2.67-.39.69-.77,1.38-1.78,1.13-.16-.04-.37.1-.56.16-.07-.08-.14-.16-.2-.25.03-.65.66-.86.97-1.31,1.04-.73,1.49-1.91,2.32-2.78-1.84-1.03-3.39-.71-4.79.62-.41.12-.6.48-.87.76-.63.65-.7.14-.76-.37.73-.85,1.39-1.76,2.42-2.47-1.98-1.43-3.87-1.96-5.98-.71-.13.02-.25.06-.37.13-.18-.2-.37-.39-.55-.59.04-.12.07-.24.08-.36,1.04-.02,1.74-.85,2.75-.99q-1.52-2.69-4.18-2.28c-.33.05-.66.07-.99.1,0,0,.04-.14.04-.14-.01-.24-.02-.47-.04-.71.74-.12,1.6.22,2.23-.61-1.04-1.16-2.02-2.33-3.08-3.42-.5-.52-1.11-.99-1.95-.72-.75-.42-1.5-.37-2.24,0-.64.32-1.26.68-1.89,1.03-.07-.03-.14-.02-.2.02-.2-.59.03-.95.54-1.3.42-.29,1.06-.21,1.31-.77,1.13-.16,2.25-.38,3.61.14-1.25-1.39-1.88-2.77-2.58-4.11.94-.51,1.12.45,1.5.86,1.74,1.86,3.13,4.02,4.99,5.78,1.12,1.06,2.24,2.12,3.36,3.18.73,1.64,2.23,2.37,3.7,3.15,2.95,1.55,5.99,2.59,9.39,1.84.76.04,1.38.7,2.2.49.9,1.06,2,2,2.59,3.27.86,1.85,2.27,3.08,3.94,4.1.06.21.19.34.4.4.13.14.26.27.39.41.09.18.23.31.45.27.05,0,.08-.09.13-.14-.17-.07-.34-.14-.5-.21-.14-.13-.28-.26-.42-.39-.05-.22-.18-.35-.4-.4.05-.67-.13-1.29-.32-1.93-.36-1.2-.6-2.43-.51-3.69.27-.88.57-1.71,1.29-2.39.79-.74.68-1.24-.17-1.86-1.96-1.43-4.85-.29-5.66,2.23-.4.01-.79.03-1.19.04-.11-.95,1-1.4.96-2.51-1.14.16-2.22-.17-3.32-.37-.88-.16-1.58,0-2.06.8-.46.19-.93.6-1.32-.11.19-.74,1.03-1.01,1.28-1.71q-2.39-2.12-4.93-.22-1.32.44-1.43-.99c.65-.19,1.44-.08,1.87-.91-1.21-.65-2.36-.83-3.55-.12-.33-.03-.59-.15-.68-.5,0,0,0,0,0,0,.96-1.22.99-1.29-.02-1.99-.64-.45-1.37-.77-2.06-1.14h0c-.1-.65-.6-.78-1.12-.89-.68-.52-1.4-.23-2.12-.1-.91.16-1.6-.15-2.2-.96,1.17-.3,2.25.45,3.37-.27-1.78-2.04-3.73-3.75-5.69-5.44.16-.46.22-.92-.08-1.33-1.19-1.66-2.19-3.49-3.9-4.73-.16-.11-.32-.32-.48-.32-2.4,0-4.84-.42-7.17.41-.84.3-1.4.19-1.94-.42.12-.14.24-.28.36-.43.76.58,1.36.02,1.99-.29.91-.17,1.83-.32,2.68-.72.03-.75-.79-1.14-.71-1.87.94.07,1.3.81,1.72,1.48.52.83,1.9,1.31,2.48.74.73-.71-.14-1.3-.42-1.9-.19-.42-.44-.86-.77-1.17-2.23-2.08-3.17-4.88-4.26-7.6-.28-.84-.69-1.6-1.19-2.32-.97-1.41-.69-3.08-.9-4.84-1.7.74-3.24,1.57-5.06,1.48-1.78-.08-3.47-.35-5.29-1.41.74-.21,1.12-.12,1.52-.03,1.8.42,3.58.3,5.36-.21,2.55-.73,4.21-2.59,5.8-4.5,1.98-2.39,4.13-4.57,6.53-6.54,1.5-1.23,2.93-2.56,4.37-3.87.82-.75,1.43-1.67,2.17-2.95-2.43.9-4.29.4-6.28-1.07,3.15.02,5.95-.18,8.64-1.13.66-.23,1.3-.41,1.38-1.25,2.54-.68,3.51-2.73,4.33-4.92.71-1.23,1.04-2.53.82-3.95,0-.31,0-.63,0-.94.06-.74.11-1.47-.06-2.2.04-.19.08-.38.12-.57.1-.08.26-.14.3-.24,1.47-4.46,1.88-8.96.59-13.54-.08-.33.17-.87-.38-.89-.32,0-.42.44-.42.78,0,.07,0,.13,0,.2-.36.16-.35.49-.39.8-.55.2-.59.81-.93,1.17-.25-.03-.5-.07-.76-.1.23-.48.46-.96.7-1.44q1.75-3.47,1.11-7.38c-.09-.53-.13-1.06-.19-1.59ZM307.97,387.39c.96.78,1.54,2.03,2.92,2.28.4.27.45.96,1.08,1.04.51-6.14-2.6-11.11-7.67-13.47-1.49-.7-3.32.09-3.52,1.99-.07.66,0,1.34.02,2.01-.13,1.33-.04,2.59,1.33,3.3,1.66.87,3.27,1.86,5.08,2.4.18.28.46.38.76.46ZM282.63,383.66c.08-.65-.67-.76-.82-1.26-1.49-1.84-2.79-2.07-3.85-.61-1.32,1.81-1.77,4.5-.21,6.84,1.57,2.36,3.37,4.56,5.07,6.83.07.31.02.68.5.87.24-.75.58-1.47.7-2.23.55-3.32.81-6.62-1-9.7-.13-.24-.27-.48-.4-.72ZM254.5,366.59c-1.38-1.09-2.14-.96-2.59.58-.76,2.63-.16,5.1,1.19,7.42.03.62.42.89,1.06,1.04.03-1.68.61-3.12,1.33-4.56.98-1.97.66-3.19-.99-4.48ZM311.36,374.72c-.03.76.34,1.41.55,2.11.35,1.2,1.12,1.68,2.39,1.57,1.2-.1,2.35.1,3.51.56.8.32,1.44.99,2.33,1.06.39.24.51.89,1.27.89-.97-4.37-3.34-7.37-7.38-9.01-1.7-.69-2.56-.18-2.72,1.62-.04.4.03.8.05,1.2Z"/>
        <path class="cls-2" d="M214.38,282.26c1.99.12,2.38.68,1.61,2.48-1.11,2.6-2.58,5.01-4.16,7.35-.58.85-.58,1.39.32,1.91.4.23.75.57,1.13.84,4.71,3.38,6.29,8.2,6.19,13.72-.04,2.38.6,4.49,1.85,6.48.73,1.16,1.65,2.1,2.79,2.86,5.75,3.79,6.09,10.79,3.34,15.5-1.69,2.9-3.74,5.57-5.26,8.58-1.61,3.2-2.84,6.52-3.76,9.96-.68,2.53-.49,5.04.33,7.53.91,2.78,1.5,5.57.18,8.44-.29.62-.15,1.45-.17,2.19-.06,2.57-.94,4.86-2.39,6.95-.58.84-1.32,1.53-2.3,1.9-1.2.46-1.92.07-2.11-1.29-.16-1.13-.16-2.28-.45-3.39-.3-1.16-.88-2.07-2.17-2.53-.67,1.22-.81,2.48-.79,3.72.06,4.06-1.88,6.91-5.24,8.9-1.42.84-2.46,1.84-3.09,3.46-1.36,3.48-4.27,5.3-7.79,5.47-2.92.14-4.4,1.48-5.4,3.9-.2.5-.39,1.01-.65,1.47-.54.98-1.23,1.14-2.15.44-1.04-.79-1.82-1.82-2.16-3.09-.8-3.01-1.2-6.06-.42-9.15.2-.82.41-1.75-.47-2.16-.89-.41-1.97-.48-2.87.18-.76.55-1.46,1.19-2.16,1.81-3.53,3.09-7.52,4.01-11.98,2.46-1.17-.41-2.09-.18-2.97.57-1.28,1.09-2.62,2.11-3.65,3.47-.46.61-1.01,1.16-1.86.92-.79-.22-1.13-.88-1.31-1.65-.66-2.87-.75-5.7.43-8.5.27-.63,1.05-1.36.06-2.14-.94-.74-1.7-1.68-3.15-.94-1.38.7-2.78,1.33-3.91,2.43-.34.33-.63.72-1.02.97-.89.55-1.75.14-1.87-.89-.58-4.74.97-8.61,4.81-11.48,1.82-1.36,3.76-2.49,5.35-4.21,1.41-1.53,3.35-1.95,5.55-1.52,2.92.57,5.76.29,8.06-1.97.86-.85,2-1.05,3.15-1.15.82-.07,1.57-.25,2.24-.79,2.65-2.15,5.44-4.07,7.74-6.7,1.55-1.77,2.96-3.56,4.2-5.55,1.45-2.33,4.08-3.87,4.65-6.8,2.82-3.02,4-6.94,5.9-10.47,1.08-2,.43-3.9.34-5.85-.02-.33-.44-.65-.68-.97-2.11-2.72-4.52-5.15-7.26-7.25-2.64-2.01-4.96-4.34-6.95-6.99-.54-.71-1.21-1.22-2-1.64-4.91-2.6-6.89-6.94-7.01-12.26-.03-1.42-.12-2.74-.55-4.13-1.43-4.59-1.23-9.28-.39-13.96.37-2.05.81-4.08,1.25-6.11.14-.65.25-1.31.8-1.8.45-.4.71-.15,1.01.14.51.55.87,1.11.61,1.94-.21.69-.23,1.45-.43,2.15-.36,1.23-.21,2.35.45,3.44.61,1.01,1.2,2.05,1.74,3.1.22.43.61.97-.15,1.33-.6-.79-1.21-1.58-1.81-2.36-.51-.42-.18-1.29-.86-1.62-.23.08-.31.24-.28.47-.1.79-.23,1.58-.31,2.38-.3,3.2-.55,6.42.55,9.51.58,1.64,1.04,3.26.98,5.01-.25,1.99-.03,3.9,1.02,5.65.05.47.28.85.58,1.2.65.95,1.2,2,2.36,2.47.22.24.43.5.67.7,1.21,1.02,2.78,1.15,4.2,1.66,2.02.28,4.04.78,6.13.27-1.67,1.49-3.67,1.7-5.72,1.73-.07-.05-.14-.09-.21-.14.05.07.1.14.15.21,1.02,2.14,2.91,3.47,4.66,4.91,3.01,2.48,5.84,5.1,8.28,8.15.75.93,1.34,2.02,2.36,2.72,1.81,1.23,3.78,1.96,6.01,1.96,1.14,0,2.3-.15,3.41.25-3.37,1.46-6.65,1.26-10.22-.89.91,2.45.15,4.14-.71,5.82-.33.65-.57,1.35-.85,2.03-1.09,2.66-2.24,5.29-4.24,7.44-.27.29-.43.68-.6,1.04-.23.48-.5.97-.6,1.48-.11.58,1.03.43.82,1.18-.6.28-1.39.08-1.87.61-1.71,1.88-3.88,3.48-4.15,6.31-.02.21-.07.39-.26.48-1.82.84-2.96,2.47-4.38,3.77-.3.28-.85.49-.6,1.23h1.76c.15.64-.08,1.02-.75,1.1-1.09-.49-2.13-.59-3,.44-.78.11-1.21.77-1.8,1.16-1.45.95-1.43.97-1.04,2.57.02.08-.15.2-.23.3-1.43-.46-2.84-.72-4.09.43-.13.16-.27.31-.4.47-.81-.49-1.58-.67-2.31.18-.43.5-1.12.74-1.39,1.41.35.85,1.16,1.32,1.69,2.02-.8.81-1.03-.4-1.58-.46-1.64-1.72-3.39-.42-5.17-.3.21.73.39,1.36.57,1.99-.22-.02-.44-.04-.66-.05-.4-.44-.76-.94-1.22-1.3-1.02-.81-2.2-1.26-3.51-1.06-.87.14-1.76.55-2.05,1.39-.24.71.69,1.02,1.07,1.53.97,1.7.96,3.4.23,5.21-.26.64-.65,1.41-.28,2.41,1.53-1.26,2.88-2.42,3.86-3.96.83-1.31,1.74-2.54,3.13-3.33.57-.44,1.29-.5,1.95-.69,2.54.32,5.03.46,7.37-1.01,1.12-.7,2.43-1.1,3.68-1.56.59-.22,1.12-.48,1.41-1.04.54-1.03,1.38-1.82,2.21-2.58,2.63-2.41,4.68-5.28,6.75-8.14.34-.42.62-.9,1.03-1.23.55-.46.63.03.69.45-.63,1.37-1.36,2.68-2.49,4,1.09.06,1.94.11,2.78.16.73.28,1.19,1.07,2.08,1.04,0,.25,0,.5,0,.75-1.07-.32-2.13-.67-3.27-.69-1.43-.26-2.48.37-3.34,1.43-.8.99-1.58,1.99-2.37,2.99-.15.07-.19.23-.06.27.16.05.36,0,.54,0,.8-.09,1.61-.17,2.41-.26,1.21.87,2.41,1.83,3.76.2.13-.16.36-.18.53-.04.09.07.16.23.15.34-.06.96-1.51,1.97-2.43,1.7-1.08-.32-2.09-.86-3.25-.9-.73-.08-1.45-.2-2.18-.24-.85-.05-2.38,1.54-2.28,2.34.01.12.11.34.17.34.88,0,1.29,1.16,2.26.9.47.19.9.41,1.02.97-.33.01-.67.02-1,.04-.27,0-.54,0-.82,0-.21-.15-.42-.33-.64-.46-1.52-.86-3.41-.76-4.64.23-.43.34-.63.7-.1,1.12.41.71,1.18,1,1.75,1.53.04.31.42.53.21.91-1.09-.03-1.5-1.27-2.52-1.41l-.04-.03c-.06-.21-.21-.3-.42-.32-1.43-.88-2.67-.42-4.05.58,1.07.52,1.75,1.21,2.35,1.99.2.49.39.98.59,1.47-.31,0-.63,0-.94,0-.16-.37-.4-.65-.79-.78-.38-.72-.96-1.24-1.6-1.71-1.51-1.08-3.1-1.67-4.91-.73-.88.4-1.68.89-2.39,2.23,1.19-.76,1.99-.35,2.81-.21.84.52,1.48,1.24,2.09,2,.24,1.21.48,2.42.73,3.63-.11.23-.3.46-.33.71-.23,2.31-1.18,4.16-3.46,5.24.34.17.51.3.7.34.32.08.66.16.98.16,3.91,0,6.99-1.54,9.04-4.93.48-.79.81-1.69,1.76-2.05.44.53-.27,1.06.09,1.58.55.32,1.17.08,1.75.18,1.21.21,1.77-.42,1.89-1.5.15-1.37,1.01-2.28,1.84-3.25,1.33-1.55,3.08-2.61,4.7-3.75,2.49-1.74,3.5-3.93,3.26-6.85.13-.14.26-.28.4-.42.35,0,.7-.02,1.06-.03-.06.58-.12,1.15-.18,1.73-.06.55.27.82.74.97h-.03c-.06.75.23,1.12,1.03,1.01,1.6-.22,2.98.33,4.26,1.22.29.53.84.92.86,1.6-.49.4-.2,1.22-.82,1.55-.02-.53-.03-1.07-.05-1.6-.66-1.04-1.58-1.6-2.84-1.5-.6-.04-1.21-.04-1.8-.13-1.22-.19-1.83.38-2.11,1.58,1.1.31,2.12.59,3.15.88.57.49,1.25.87,1.66,1.54.05.42.29.7.65.88-.02.56-.15,1.07-.78.47-.76-.73-1.18-1.83-2.4-2-.39-.05-.79-.06-1.18-.14-2.33-.49-2.6-.38-4.14,1.73,1.17-.04,2.27.11,3.36.37l.81.75-.04.58c-.14-.01-.29-.03-.43-.04-.12-.07-.24-.15-.36-.22-.15-.08-.3-.16-.46-.24-.25-.04-.5-.08-.75-.12-.25-.31-.57-.33-.93-.24-1.94-.2-3.72,0-4.83,1.91-1.04.7-1.59,1.62-1.31,2.94.38-.89,1.25-1.32,1.81-2.02,1.85-1.41,3.56-.71,5.24.35v-.02c0,.3.16.5.42.62.61,1.64,1.35,3.24,1.67,4.98-.15,1.94-1.55,3.35-2.31,5.25,3.34-.48,5.93-1.68,7.16-4.87.48-1.25,1.01-2.48,1.16-3.83.08-.75.33-1.39.85-1.9.4.22.32.5.38.74.25,1.12.43,1.23,1.45.7,2.47-1.29,4.19-3.15,4.16-6.11-.02-1.84.34-3.59.92-5.32.17-.52.27-.99.13-1.56-.62-2.57-.01-5.05.72-7.49.1-.34.22-.8.99-.74.11,1.07,0,2.14-.16,3.26-.25,1.69-.55,3.5,1.26,4.86.64-1.17,1.24-2.27,1.85-3.36.66-.47,1.33-.93,1.99-1.4,1.25-.26,2.23.45,3.22,1.09.71-2.28.16-3.5-1.58-4.12-.81-.29-1.41.2-2.1.32-.24-.02-.48-.04-.72-.06l-.12-.15c.04-.58.52-.8.89-1.11.89-.09,1.81.26,2.67-.18-.49-2.85-1.03-3.31-3.05-2.66-.36.02-.74.57-1.05.1-.2-.31.22-.56.47-.76.21-.17.42-.32.64-.47.53-.03,1.07-.05,1.6-.09.35-.03.61-.16.73-.54.37-1.11-.07-1.99-1.26-2.26-.5-.11-.86-.32-1.1-.76l-.03-.03c.67-.34,1.33-.45,2.08-.21.87.27.73-.45.81-.93.18-.11.28-.26.27-.48,0-.25,0-.5,0-.75.03-.42.06-.83.08-1.25,0,0-.01.01-.01.01.48-.23.6-.7.76-1.14,1.75-4.89,4.14-9.44,7.12-13.69.94-1.33,1.52-2.82,2.14-4.31,1.31-3.15-.14-7.49-2.9-9.26-3.41-2.19-5.67-5.2-6.16-9.36-.19-1.66-.37-3.34-.46-4.99-.23-4.66-2.56-7.91-6.27-10.4-.78-.53-1.41-.57-2.09.21-1.2,1.38-2.76,2.33-4.24,3.37-.4.28-.81.71-1.5.45.13-.82.79-1.23,1.27-1.73,1.81-1.9,3.53-3.86,4.91-6.09,1.62-2.62,3.26-5.24,4.87-7.86.35-.57.67-1.17.57-1.89ZM148.88,376.37c-.23.03-.33.18-.35.4-.81.94-1.1,2.13-1.34,3.28-.1.51.4.17.63,0,.4,0,.79-.06,1.15-.26,1.53-.84,3.12-1.42,4.92-1.43,1.46,0,2.49-.66,2.63-2.29.04-.45.24-.89.36-1.34.2-.69-.2-1.3-.31-1.93-.24-1.35-.53-1.43-2.08-.88-2.36.87-4.33,2.23-5.61,4.46h0ZM161.43,386.49h.02c1.07.09,1.91-.58,2.85-.89,2.56-.82,3.27-2,3.1-4.84,0-.34.02-.67,0-1.01-.15-2.64-1.48-3.48-3.87-2.33-3.36,1.61-5.7,4.14-6.6,7.85-.76,1.73-.87,3.52-.69,5.72.82-.86,1.4-1.48,1.98-2.09,1.09-.44,1.88-1.3,2.8-1.98.13-.15.27-.29.4-.44ZM213.5,366.71c-.88,1.02-1.82,2.1-1.17,3.53.75,1.65,1.55,3.25,1.71,5.09.03.32.09.32.74-.23,1.57-2.3,1.92-4.89,1.56-7.56-.26-1.89-1.35-2.15-2.83-.83ZM185.66,383.67c-.25.04-.33.2-.3.43-1.08,1.53-1.43,3.26-1.38,5.1-.66,2.48.09,4.75,1,7.1.5-.59.88-1.12,1.06-1.77.86-1.26,1.69-2.53,2.59-3.76.71-.97,1.54-1.86,2.24-2.83.83-1.14.68-2.99-.25-3.87-.03-.33-.03-.66-.08-.98-.18-1.02-.8-1.7-1.76-1.99-.99-.3-1.62.4-2.2,1.04-.39.44-.88.84-.9,1.51l-.02.03ZM156.89,379.68c-.04-.1-.06-.26-.13-.3-.17-.09-.36-.03-.42.16-.03.08.05.25.13.3.17.1.33.03.43-.16Z"/>
        <path class="cls-3" d="M184.89,310.95c2.05-.02,4.05-.24,5.72-1.73-2.1.51-4.11.01-6.14-.27.38-.51.92-.73,1.53-.79,1.07-.1.66-.7.45-1.25,1.28-.69,2.44-1.46,3.39-2.65,1.2-1.5,2.5-2.93,3.69-4.45.16-.21.35-.42.66-.35.34.08.32.38.35.63.03.26.02.53.02.8-1,1.14-1.23,2.65-1.9,3.94-.21.4-.13.92.59,1.02.94-1.53,1.33-3.19,1.31-4.96,1.59.18,2.65-.49,3.2-1.98.44-.3.43-.74.39-1.19,1.58-1.28,1.81-3.15,2.22-4.95.6.02,1.2.12,1.79.05,1.65-.18,2.83-2.55,2.04-4.15-.67,1.09-.65,2.71-2.34,2.94.4-2.14,1.2-4.21,1.18-6.43.36-1.08.44-2.21.48-3.34.59.06,1.19.24,1.74-.15.18-.45-.11-.78-.25-1.14-.55-1.36-1.11-2.73-1.68-4.08-.17-.4-.31-.75.12-1.06,3.77,1.37,7.06,3.59,10.3,5.89.32.22.62.51.64.96.1.72-.22,1.32-.57,1.89-1.62,2.63-3.25,5.24-4.87,7.86-1.38,2.24-3.1,4.2-4.91,6.09-.48.5-1.14.91-1.27,1.73.69.27,1.1-.17,1.5-.45,1.48-1.04,3.04-2,4.24-3.37.68-.78,1.31-.74,2.09-.21,3.71,2.49,6.03,5.74,6.27,10.4.08,1.65.26,3.33.46,4.99.48,4.16,2.75,7.17,6.16,9.36,2.76,1.77,4.21,6.11,2.9,9.26-.62,1.49-1.2,2.97-2.14,4.31-2.98,4.25-5.37,8.8-7.12,13.69-.15.43-.28.91-.76,1.14-.1-.88.22-1.81-.35-2.99-.64,1.35-.22,2.18.36,2.98-.03.42-.06.83-.08,1.25-1.07.19-2.16.48-3.05-.48.32-3.91,1.44-7.61,2.91-11.21.35-.86.83-1.67.84-2.58-.37-.41-.79-.33-1.18-.3-2.47.14-4.97.22-7.36.89-2.23.63-4.48.78-6.77.77-1.47,0-2.78-.37-3.92-1.3.28-.68.51-1.38.85-2.03.86-1.68,1.63-3.37.71-5.82,3.57,2.15,6.86,2.35,10.22.89-1.11-.39-2.27-.24-3.41-.25-2.22,0-4.2-.73-6.01-1.96-1.03-.7-1.62-1.78-2.36-2.72-2.44-3.05-5.27-5.68-8.28-8.15-1.74-1.43-3.63-2.77-4.66-4.91l.07-.07ZM198.58,311.4c-.06-.18-.11-.21-.13-.09,0,.01.1.05.15.08q-.01,2.42-1.83,3.15c.74.76,1.46.51,2.17.08.64-.39.55-1.06.38-1.61-.17-.55-.2-1.2-.73-1.59ZM207.94,302.54c-.28-1.06-1.15-1.3-2.03-1.25-2.18.12-4.5-.65-6.47.96-.14.12-.37.18-.56.19-1.49.05-2.44.86-3.13,2.09-.79-.26.32-1.15-.47-1.45-.76.55-.73,1.35-.73,2.14,0,1.04.66.47,1.09.45,0,1.15.52,2.01,1.36,2.79,1.32,1.23,2.61,2.48,3.7,3.95.95,1.28,2.05,2.57,3.26,3.51,2.41,1.87,4.72,3.95,7.6,5.15.84.35,1.39.95,1.88,1.72,1.13,1.81,2.4,3.54,3.58,5.32.55.82,1.2.76,1.88.28,1.21-.83,1.4-2.56.49-3.71-1.13-1.43-2.69-2.22-4.36-2.74-.77-.24-1.2-.48-1.1-1.32.21-1.78-.27-3.44-.77-5.12-.21-.69-.55-1.39-.39-2.15,2.04-.47,2.39-1.79.88-3.77-.28,1.32.22,2.75-.88,3.76-.1-.08-.28-.14-.3-.23-.42-2.91-2.03-5.39-2.92-8.13-.19-1.05-.2-2.22-1.62-2.46ZM219.08,317.71c-.96,2.32-.25,3.87,1.39,5.31,1.57,1.37,1.91,3.17.84,5.08-.46.82-.97,1.61-1.42,2.43-.2.37-.78.61-.47,1.25,1.34,0,1.95-.96,2.5-1.94,1.75-3.09,1.96-5.24-.19-7.56-1.22-1.31-2.21-2.65-2.65-4.58ZM209.1,332.4c-2.69.49-5.35.61-8.14-.85,1.46,2.43,5.33,2.73,8.14.85ZM204.03,284.49c-.18,2.13.27,2.68,2.03,2.66,1.64-.02,1.92-.56,1.72-3.19-.98,1.88-1.39,2.35-2.06,2.36-1.09,0-.91-1.17-1.68-1.82ZM213.81,303.88c-.48.9.03,1.91-.74,2.56-.27.23-.34.62.09.79.33.14.71-.01.87-.32.48-.99.57-1.97-.22-3.03ZM211.42,299.85c-.52.79-.02,1.57-.55,2.09-.29.29-.41.53,0,.75.35.19.7.03.84-.29.35-.81.4-1.63-.28-2.55ZM216.56,345.16c.22-.82.33-1.34,0-1.99-.26.66-.24,1.17,0,1.99ZM209.5,301.99c.05-.03.11-.05.16-.08-.05-.04-.09-.09-.14-.1-.05,0-.11.04-.16.07.05.03.09.07.14.1Z"/>
        <path class="cls-3" d="M251.08,347c-.09-.1-.23-.17-.27-.29-1.71-5.31-5.06-9.73-7.77-14.5-.49-.87-.89-1.81-1.17-2.77-1.01-3.4.33-7.09,3.21-9.23,1.17-.87,2.5-1.56,3.43-3.01.47,1.86.02,3.18-1.25,4.27-.41.35-.79.74-1.12,1.16-1.77,2.26-1.65,5.88.34,7.93.64.66,1.42,1.28,2.54.92-.6-.91-1.26-1.78-1.77-2.73-1.24-2.3-.9-4.35.93-6.22.38-.38.76-.76,1.13-1.15.23-.24.51-.51.39-.87-.85-2.54.25-4.89.71-7.29.53-2.7,1.02-5.38,1.1-8.14.07-2.51,1.06-4.66,2.84-6.45,1.05-1.06,2.33-1.81,3.44-2.76.84-.72,1.37-.48,2.02.21,1.62,1.72,3.67,2.84,5.61,4.04.5-.36.2-.58.05-.73-4.16-4.08-7.37-8.85-10.18-13.91-.58-1.04-1.52-1.88-1.77-3.11,1.58-1.98,3.81-3.12,5.91-4.38,1.7-1.03,3.42-2.08,5.39-2.57.04.61-.05,1.18-.21,1.77-.33,1.22-.57,2.46-.85,3.69-.2.88.24,1.07.99.97-.06,1.23-.53,2.36-1.04,3.43-.53,1.14-1.3,1.21-2.21.37-.33-.31-.63-.65-.99-1.04.09,1.79.49,2.35,1.73,2.54,1.18.18,1.64-.21,2.17-1.83.06-.19.02-.46.14-.57.58-.52.58.05.69.4-.07,2.23.93,4.26,1.25,6.42-1.5-.13-1.88-1.35-2.3-2.5-.63.29-.56.73-.41,1.2.67,2.1,1.43,2.61,3.81,2.51.41,1.23.5,2.59,1.34,3.67-.71.65-1.16,1.31-.09,2.04.53.36.44.91.44,1.42,0,.98-.01,1.97-.02,2.95-1.37.06-2.64-.3-3.86-.89-1.5-.73-3.08-.81-4.69-.67-.72.06-1.17.37-.69,1.18-.31.2-.41.5-.41.86v-.02c-.87.62-.78,1.59-.9,2.49-.88.03-1.29.57-1.52,1.35-.7,2.44-.88,5.01-1.96,7.35-.17.37-.18.84.15,1.13.45.39.55.87.6,1.43.1,1.12.94,1.62,1.87,1.86,1.63.42,3.13-.68,3.32-2.43.1-.95.48-1.17,1.31-.83.25.1.5.2.74.33.74.39,1.36.02,1.37-.61.01-1.65,1.12-2.45,2.19-3.33.32-.27.48-.64.48-1.07h-.01c.61-.29,1.07-.73,1.4-1.32-1.21-1.19-1.22-1.25-.45-2.54.47.71.84,1.62,1.93,1.38,1.12-.25,1.88-1.86,1.56-3.15,1.5-.39.92-1.69,1.01-2.71.92.23.87,1.13,1.41,1.48.84.59.39,2,1.64,2.62-.24-2.2-.89-4.04-1.62-5.86,0-.4,0-.81,0-1.21.42.03.77.2,1.03.54,1.05,1.37,2.11,2.73,3.14,4.11,1.3,1.75,2.85,2.9,5.21,2.66,1.32-.13,2.66.02,3.99.04-.08.84-.72,1.01-1.38,1.25-2.69.95-5.49,1.15-8.64,1.13,1.99,1.47,3.85,1.97,6.28,1.07-.74,1.28-1.34,2.2-2.17,2.95-1.44,1.31-2.86,2.64-4.37,3.87-2.4,1.96-4.55,4.15-6.53,6.54-1.58,1.91-3.25,3.76-5.8,4.5-1.78.51-3.56.63-5.36.21-.4-.09-.78-.18-1.52.03,1.82,1.06,3.51,1.33,5.29,1.41,1.82.09,3.36-.74,5.06-1.48.21,1.76-.08,3.43.9,4.84.5.72.91,1.49,1.19,2.32-.45-.04-.75.21-1.06.49-1.2,1.1-2.59,1.57-4.24,1.52-2.58-.08-5.05-.62-7.43-1.57-1.65-.66-3.35-.9-5.12-.87-.93.02-1.2.46-.99,1.28.23.91.5,1.8.76,2.71q-1.14.67-2.22-.6c-.35.53-.22,1.01-.04,1.52.79,2.23.69,4.59.98,6.9ZM257.17,299.69c-.38.17-.63.47-.8.84-.31.67-.69,1.38-.05,2.02.76.75,1.3-.03,1.88-.4.1-.06.14-.21.23-.34-1.66.02-1.21-1.19-1.26-2.12.18-.06.22-.11.1-.14-.02,0-.06.1-.09.15ZM252.92,320.5c-1.64.78-2.69,2.01-3.78,3.17-1.07,1.13-1.12,2.52-.6,3.93.24.65.6,1.18,1.43,1.18.75,0,1.27-.29,1.6-.97.41-.84.72-1.77,1.31-2.47,1.36-1.61,1.12-3.15.04-4.83ZM269.82,312.14c-1.24,1.79-1.22,2.03.44,2.57,1.04.34,1.64.79,1.46,1.98-.07.47,0,.93.59,1.12,1.03.33,1.81-.08,2.4-1.28-.12-.04-.26-.14-.35-.1-1.68.68-1.74.69-1.84-.96-.05-.81-.3-1.2-1.14-1.3-1-.12-1.59-.75-1.56-2.01ZM258.71,332.7c.39.72,1.2.57,1.78.69,2.06.41,4.14.45,6.1-.52.41-.2,1.04-.43.85-.95-.24-.65-.8-.21-1.18-.02-2.15,1.08-4.38,1.13-6.67.57-.29-.07-.64-.19-.88.22ZM254.47,303.9c-.65,1.01-.88,1.66-.92,2.38-.04.82.33,1.4,1.06,1.73.23.1.55.1.71-.16.09-.15.17-.45.09-.53-.8-.84-.61-1.96-.95-3.42ZM258.96,319.87c-.73,1.46-.71,1.83.12,2.35.93.59,1.42.42,2.36-.81q-2.07.03-2.48-1.54ZM254.23,309.99c-1.5,2.3-1.42,2.96.55,3.63-.72-1.16-.29-2.3-.55-3.63Z"/>
        <path class="cls-4" d="M203.03,285.18c.02,2.22-.78,4.29-1.18,6.43,0,0-.03.03-.03.03-.12-.03-.24-.05-.36-.07-.53-.57-.39-1.52-1.21-2.2-.05,1.29-.07,2.34.12,3.39-.41,1.8-.64,3.68-2.22,4.95-1.46.32-1.45-1.21-2.19-1.93-.38,2.49-.12,2.92,1.79,3.13-.56,1.49-1.61,2.16-3.2,1.98h0c0-.27,0-.53-.02-.8-.02-.25,0-.55-.35-.63-.31-.07-.5.14-.66.35-1.19,1.52-2.49,2.95-3.69,4.45-.95,1.19-2.11,1.96-3.39,2.65-2.3.31-4.55-.42-6.84-.33-1.16-.47-1.71-1.51-2.36-2.47.63-.8-.04-.97-.58-1.2-1.05-1.76-1.26-3.66-1.02-5.65,1.29.54,2.54,1.18,3.97,1.26,0,.12,0,.23-.02.34-.06.25-.24.64-.15.73.59.59,1.37.93,1.98,1.54.36.36.96.14,1.22-.27.76-1.2,1.74-.88,2.75-.51-.16.58.57.52.67.92-.46.31-.41.78-.41,1.24-.53-.17-.86-1.04-1.57-.57-.98.66-1.97.95-2.92.07-.81-.75-2.32-.53-2.55-2.12-1.12,2.87-1.02,3.25.99,4.25-.36.67-.39,1.15.59,1.16,1.54.02,3.09.08,4.63.09.92,0,1.79-.19,2.58-.7-.37-.86-1.3-.36-1.75-.88,0-.43,0-.86,0-1.29.78.07,1.3-.16,1.17-1.08.47-.2,1.21-.27,1.07-.94-.15-.7-.88-.33-1.37-.4-.13-.02-.26.01-.4.02.21-1.06-.75-1.2-1.3-1.66-.33-.44-.82-.49-1.26-.31-1.28.52-2.61.32-3.93.34-.1-.83.17-1.75-.64-2.42-.71-.59-1.37-1.25-2.05-1.88.87-1.47,1.96-1.89,3.65-1.16,1.29.56,2.74.87,4.29.45-.54-.78-1.35-.78-2.02-.96-.9-.25-1.81-.46-2.68-.81-.6-.24-1.09-.55-.93-1.32.32.1.63.21.95.3.39.12.83.24,1.12-.1.36-.42-.2-.68-.28-1.03-.42-1.85-1.09-3.71.44-5.43.66-.74,1.16-1.62,1.73-2.43.42-.59.62-1.19.02-1.79.23-.39.54-.35.82-.09.59.54,1.15,1.11,1.71,1.68.47.49.94.96,1.71.82l.12-.05c.41,1.29-.07,2.69.47,3.97.76,1.81.47,3.35-1.05,4.7-.53.47-1.17,1.13-.8,2.08.81-.09.94-.78,1.32-1.21.43-.49.61-1.21,1.37-1.37,0,.94-.04,1.88,0,2.82.04.71.5.8.93.35.99-1.03,1.69-2.24,1.83-3.71.25-.64,1.17-.85,1.16-1.7-.61-.23-.84.27-1.2.5-1.08.71-1.15.69-2.05-.63.12-.15.38-.36.34-.44-.7-1.56.24-2.5,1.26-3.39.92-.79,1.54-1.8,2.16-2.82.25-.42.45-.84-.12-1.18.5-.9,1.13-1.74,1.26-2.97-.9.55-1.16,1.51-2.01,1.84-.12.14-.24.28-.36.42,0,0,.03-.01.03-.01-.71-.09-1.31.21-1.9.52-.43.23-.88.36-1.35.22-1.36-.4-2.22-1.46-3.06-2.5-.63-.78-.7-1.67-.31-2.65.19-.47.11-1.06.12-1.59.01-.74-.48-.86-1.08-.84-.08-.37-.15-.73-.23-1.1.06-.08.12-.17.18-.25,5.86-.42,11.37,1.03,16.75,3.12.74.29,1.44.64,2.17.96-.43.31-.28.67-.12,1.06.58,1.35,1.13,2.72,1.68,4.08.15.36.43.69.25,1.14-.55.38-1.15.21-1.75.15-.29-.35-.73-.95-.85-.02-.13,1.01-.17,2.01-.93,2.77-.53.54-1.1.8-1.64-.04-.14-.22-.15-.65-.65-.56-.14.95.06,1.78.98,2.2.83.37,1.56.02,2.16-.61.14-.14.3-.26.45-.39ZM194.15,286.77c-.22.05-.35.18-.41.4-.06.03-.12.05-.16.09-.02.02-.02.13-.01.13.13.03.18-.05.17-.22.25-.02.37-.17.4-.41.06-.01.12-.02.17-.04.03-.02.03-.08.04-.12-.06.06-.13.12-.19.18ZM192.56,298.02c-1.58-1.53-3.04-2.54-4.54-3.51-.15-.1-.39-.08-.59-.09-.21-.01-.4.07-.44.29-.02.12,0,.31.08.37,1.6,1.11,2.98,2.63,5.49,2.95Z"/>
        <path class="cls-4" d="M287.49,307.01c-1.33-.02-2.67-.17-3.99-.04-2.36.24-3.91-.91-5.21-2.66-1.03-1.38-2.09-2.74-3.14-4.11-.26-.34-.61-.5-1.03-.54-.56-.59-1.55-.46-2.03-1.19.39-.82.71-1.65.24-2.56-.4.12-.46.4-.58.63-.65,1.17-.66,1.16-1.9.46-.17-.1-.38-.14-.56-.21-.12-.11-.24-.23-.36-.34-.84-1.08-.93-2.43-1.34-3.67q.58-2.44-.09-3.34c-.46.65.24,1.86-1.01,2.13-.32-2.16-1.33-4.18-1.25-6.42.55.22.91.8,1.56.84.67.04,1.34.12,1.75-.62.39-.71.42-1.33-.32-1.87-.3.54-.38,1.26-1.17,1.22-.84-.05-1.03-.78-1.25-1.38-.16-.42-.1-.92-.18-1.37-.06-.33.26-.82-.35-.94-.35.18-.43.5-.53.83-.75.1-1.19-.09-.99-.97.29-1.23.53-2.47.85-3.69.16-.59.25-1.17.21-1.77,4.48-2.26,9.26-3.43,14.22-3.99,4.02-.45,8.03-.42,12.01.42-.16.12-.3.3-.47.34-2.31.55-2.65,1.09-1.94,3.32.64,2.03.51,4.09.29,6.16-.88-.37-1.5-1.05-2.16-1.71-.89-.88-1.46-1.75-1.32-3.12.16-1.61-.69-3.08-1.05-4.63-.07-.3-.24-.7-.66-.54-.4.16-.18.58-.21.89-.72.31-.94.9-.91,1.63.02.6-.03,1.21.02,1.82.12,1.55-.64,2.7-1.96,3.17-1.29.46-1.4,1.24-1.28,2.31-2.02-.5-3.55-1.71-4.75-3.36-.39-.53-.68-1.15-1.32-1.46-.02-.05-.04-.11-.08-.15-.02-.02-.08-.01-.11-.02.06.05.13.11.19.16-.14.97.44,1.66.97,2.33.58.73,1.26,1.38,1.89,2.06-.09.64.07,1.19.57,1.62,1.37,1.19,1.59,2.6.92,4.24-.3.73-.6,1.51.09,2.23,0,.37,0,.74,0,1.11-.75,2.25-.56,2.69,1.65,3.84.16.09.27.28.4.42-.96,1.05-2.42,1.59-3.27,3.3,2.16-.61,3.63-1.77,4.87-3.07.67-.7-.38-.62-.81-.71-.1-.24-.15-.63-.32-.69-1.55-.54-1.88-1.73-1.79-3.17,1.41.76,2.4,2.05,3.68,2.98.1.05.21.07.32.06.4.47.95.44,1.48.45,2,.04,3.8-.61,5.55-1.64.36.55.72,1.08,1.07,1.62-.37.35-.69.74-1.16,1.01-1.53.89-1.61,1.19-1.2,2.98-.5.26-.8.64-.79,1.22-.13.14-.27.27-.4.41,0,0-.07.03-.07.03-.98.39-1.85-.7-2.9-.26.43,1.07,1.32,1.06,2.18,1.12.35,1.5.61,1.82,1.74,1.41,1.44-.53,2.6.02,3.84.52-.82,2.19-1.79,4.24-4.33,4.92ZM280.6,301.62c.79,2.2,1.51,2.47,3.1,1.1-.65-.35-1.46-.4-1.89-1.06-.03-.43-.17-.77-.69-.74-.44.03-.45.39-.52.7ZM282.74,304.74c.33.88,1.05,1.53,1.77,1.34,1.47-.38,3.09-.55,4.56-1.89-.97-.01-1.69-.28-2.23.09-1.29.87-2.61.77-4.1.46ZM269.97,288.83c-.42.81-.34,1.47-.12,2.09.18.51.47.99,1.09,1.05.18.02.4-.05.54-.16.16-.12.22-.36.04-.51-.75-.61-.6-1.77-1.56-2.47Z"/>
        <path class="cls-1" d="M177.38,283.89c.75-.36.37-.91.15-1.33-.54-1.05-1.13-2.09-1.74-3.1-.66-1.09-.81-2.21-.45-3.44.2-.7.22-1.45.43-2.15.25-.83-.11-1.39-.61-1.94,2.05.06,4.02-.8,6.08-.52-.28.35-.68.35-1.07.42-.71.12-1.94-.32-1.88.77.05.82,1.23.36,1.89.43,1.39.13,1.35.08,1.14,1.51-.27,1.88-.99,3.75-.19,5.66-.11.09-.21.19-.32.28-.14.2-.28.4-.42.6-.4.33-.63.71-.38,1.24h0c-1.64.52-2.04,1.11-1.62,2.44v-.02c-.06-.62-.14-1.22-1.02-.82v-.03Z"/>
        <path class="cls-1" d="M288.94,281.66c.22-2.07.35-4.13-.29-6.16-.7-2.23-.37-2.77,1.94-3.32.17-.04.32-.22.47-.34.48-.04.98-.16,1.28.38.06.53.11,1.06.19,1.59q.63,3.91-1.11,7.38c-.24.48-.47.96-.7,1.44-1.16.66-1.22.62-1.79-.97Z"/>
        <path class="cls-4" d="M181.13,280.2c-.8-1.91-.09-3.78.19-5.66.21-1.43.25-1.39-1.14-1.51-.67-.06-1.85.4-1.89-.43-.06-1.09,1.18-.65,1.88-.77.4-.07.8-.07,1.07-.42,1.09-.14,2.18-.32,3.28-.08-.06.08-.12.16-.18.25-.85,2.01-1.97,3.97-1.32,6.28.14.48-.05.75-.34,1.05-.47.48-.93.97-1.39,1.45,0,0,0-.02,0-.02-.06-.04-.11-.09-.16-.14Z"/>
        <path class="cls-4" d="M252.36,339.19c-.25-.9-.53-1.8-.76-2.71-.21-.83.06-1.26.99-1.28,1.77-.04,3.47.2,5.12.87,2.38.95,4.85,1.49,7.43,1.57,1.64.05,3.04-.42,4.24-1.52.31-.28.61-.52,1.06-.49,1.09,2.71,2.02,5.51,4.26,7.6.33.31.58.75.77,1.17.28.6,1.15,1.19.42,1.9-.58.57-1.96.09-2.48-.74-.42-.67-.78-1.41-1.72-1.48,0,0,.02.03.02.03.06-.36-.07-.64-.39-.82-.44-.26-.63-.71-.74-1.14-.26-1.02-1-1.02-1.71-.78-.9.3-.9,1.07-.6,1.82.46,1.17.98,2.32,1.47,3.48-.63.31-1.23.87-1.99.29-.49-.83-.81-1.83-2.09-2.45.39,1.34.69,2.33,1.72,2.87.55.61,1.1.72,1.94.42,2.33-.82,4.77-.41,7.17-.41.16,0,.32.21.48.32-.65,0-1.31,0-2.21,0,.79.53,1.09,1.01.57,1.66-.78-.48-.74.07-.73.58-.16.33-.36.58-.76.36-.32-.17-.43-.49-.53-.82-.2-.66-.6-1.09-1.34-.81-.69.26-.39.8-.36,1.34.11,1.56,1.18,2.65,1.74,3.97-.18.43-.99.54-.57,1.38,1.37-.69,2.82-1.01,4.36-.79.97.13,1.1-.47,1.01-1.23.91.23,1.83.46,2.78.4,1.97,1.69,3.91,3.4,5.69,5.44-1.12.71-2.2-.03-3.37.27.6.82,1.29,1.13,2.2.96.72-.13,1.44-.43,2.12.1-.45.06-.9.13-1.39.2.67,1.05,1.4,1.58,2.51.69,0,0,0,.01,0,.01-.19.68.14,1.16.58,1.61.37.38.82.7,1,1.24.11.18.26.3.49.28.09.35.35.47.68.5.08.48.34.78.83.87-.82.95-1.36,1.12-1.9.27-.62-.98-1.12-.59-1.76-.2-1.12-1.06-2.23-2.13-3.36-3.18-1.87-1.75-3.25-3.92-4.99-5.78-.38-.41-.56-1.37-1.5-.86-.43-.63-.73-1.54-1.78-.96-.88.49-.73,1.22-.47,2.04.32,1,1.07,1.81,1.21,2.88-.25.56-.89.49-1.31.77-.51.35-.74.7-.54,1.3-.32.05-.69.04-.83.4-.34.87.73,1.16.8,1.88-.52.55-1.41.84-1.28,1.83.34.99.71,1.99-.05,2.96-.36-4.07-2.06-7.65-3.98-11.16-.17-.31-.47-.72-.93-.26-.18-.08-.38-.14-.54-.24-1.25-.82-1.7-.6-1.82.89-.08,1.01.14,1.98.44,2.94-.66.53-1.75.49-2.16,1.53.35.05.54.12.74.11.6-.02,1.19-.06,1.79-.09.23.75.49,1.5.68,2.26.15.61.57,1.23.1,1.88-.5.3-1,.6-1.51.89-1.4-1.13-.61-2.84-1.03-4.32-1.45,1.67-1.44,4.32.1,5.29.72.46.72.62.36,1.31-.56,1.09-.44,1.26.7,1.75.3.13.63.19.95.28.27.53.68.44,1.13.27.59-.22,1.2-.4,1.8-.59.35.8,1.66.84,1.58,1.99-.55.38-1.1.77-1.65,1.15-.62-.55-.47-1.47-.98-2.08-.91,1.02-.87,1.02-.77,2.76.04.7-.65.47-1.06.58-2.12-1.63-3.34-3.85-3.88-6.4-1.12-5.33-2.67-10.5-5.03-15.42-.14-.29-.24-.63-.7-.48-.22.52-.17,1.08-.07,1.59.23,1.22.06,2.27-.57,3.4-.5.89-1.13,1.89-1.03,3,.11,1.38-.45,2.32-1.62,2.97-.67-.28-1.33-.56-2-.84.2-.47.41-.94.39-1.46-.01-.63.27-1.1.8-1.43.36.08.71.15,1.07.23.12.16.26.26.41.05.01-.02-.15-.15-.22-.23-.47-.74-1.25-.97-2.01-1.24-.04-1.21.08-2.32,1.39-2.93.22-.1,0-.46-.25-.61-.31-.24-.66-.43-.79-.83.21-.77.5-1.53.42-2.35.19-.02.38-.01.56-.06.17-.05.42-.13.45-.25.07-.29-.16-.44-.42-.52-.18-.06-.37-.08-.55-.12-.45-3.49-.68-7.01-1.72-10.4.18-.81,1.19-1.27,1.05-2.29q-1.18.4-1.78-.58ZM264.89,346.21c-.37-.63-.74-1.25-1.12-1.87-.21-.34-.45-.69-.94-.58-.53.11-.76.5-.81,1-.11,1.14-.02,2.25.41,3.32-.34.35-.95.49-.97,1.2,1.23.34,2.32-.45,3.49-.33.35.04.61-.26.62-.63,0-.77.22-1.62-.68-2.1ZM265.68,354.83c-.62.4-1.24.79-1.85,1.2-.25.17-.3.47-.16.71.16.27.45.28.69.09,1.01-.79,2.17-1.03,3.41-.96.92.05,1.24-.47,1.15-1.24-.22-1.88-1.28-3.34-2.54-4.67-.04-.04-.32.14-.49.21-1.42.17-1.33.16-1.19,1.43.13,1.15.58,2.17.97,3.22ZM256.1,340.34c-.33.76,0,1.24.42,1.68.51.53,1.08,1.1,1.88.83.87-.29.82-1.09.74-1.83-.02-.17-.12-.24-.28-.19-.52.15-.3.85-.76,1.04-.88-.19-1.36-.94-1.99-1.54ZM265.9,340.32c1.74.7,2.25.58,3.19-.52-1.05-.41-1.92.13-3.19.52Z"/>
        <path class="cls-3" d="M255.56,365.08c1.17-.65,1.73-1.59,1.62-2.97-.09-1.12.53-2.11,1.03-3,.63-1.13.8-2.18.57-3.4-.09-.51-.15-1.07.07-1.59.46-.15.56.19.7.48,2.36,4.92,3.91,10.1,5.03,15.42.54,2.55,1.76,4.77,3.88,6.4.08.11.14.3.23.31,1.7.26,2.43,1.39,2.68,2.96.02.11.17.2.26.29.05.95.61,1.72.93,2.57.44,1.14,1.23,1.63,2.42,1.56-.52,2.7.61,4.93,2.38,7.09-4.28-.39-7-2.32-7.8-6.54-.22-1.17-.64-2.44-1.39-3.52-.82,0-.21,1.29-1.02,1.13-.51-.1-1-.39-1.46-.66-2.36-1.38-3.87-3.29-3.67-6.18.1-1.5-.16-2.94-.76-4.32-.46-1.08-.6-2.21-.34-3.35.52-2.26-.06-4.36-.9-6.43-.13-.31-.22-.69-.67-.53-.35.13-.49.46-.4.83.44,1.72.18,3.48.25,5.21.04,1.11-.36,1.93-1.57,2.46.26-1.95-1.15-2.96-2.07-4.25Z"/>
        <path class="cls-3" d="M299.07,379.58c.04.73.08,1.47.1,2.2.06,2.23,1.05,3.95,2.94,5.2-2.28,1.07-4.99.61-7.29-.99-1.68-1.17-2.87-2.77-4.11-4.33-.25-.32-.45-.66-.84-.83-.07-.19-.13-.22-.15-.09,0,.02.1.05.16.08-.16,1.57-.16,1.56-1.52,1.32-.39-.07-.8-.1-1.2-.12-.44-.03-.82-.16-.86-.65-.23-2.76-2.57-3.95-4.25-5.59-1.14-1.11-2.56-1.93-3.77-2.98-1.59-1.39-2.59-3.06-1.76-5.29.39.27.78.54,1.18.81.31,1.12,1.16,1.87,2.08,2.35,3.12,1.62,5.71,3.98,8.6,5.92,2.39,1.61,4.79,3.21,7.46,4.35,2.49,1.06,2.56,1.02,3.22-1.35Z"/>
        <path class="cls-4" d="M299.07,379.58c-.67,2.37-.74,2.41-3.22,1.35-2.67-1.13-5.07-2.74-7.46-4.35-2.89-1.94-5.48-4.3-8.6-5.92-.93-.48-1.77-1.23-2.08-2.35.08-.53.38-.82.92-.87.5.38,1.01.54,1.65.25.9-.41,1.85-.72,2.77-1.07,0,0-.04.14-.04.14.29,1.45,1.86,1.93,2.43,3.17-.01.12-.04.25-.08.36-.66.46-.91,1.04-.65,1.84.76-.14.81-.85,1.19-1.25.11-.06.24-.11.37-.13.52,1.8,1.38,3.23,3.56,3.18.07.51.13,1.02.76.37.27-.28.47-.64.87-.76.54,0,1.01.06,1.33.61.33.55.76,1.04,1.14,1.55-.31.45-.94.66-.97,1.31-.19.11-.56.18-.36.45.17.24.42.02.56-.2.19-.06.4-.2.56-.16,1.01.26,1.39-.43,1.78-1.13.66,0,1.39-.17,1.98.04,1.32.48,2.31-.21,3.3-.78.61-.35,1.03-1.01,1.54-1.54.83.27,1.55.68,2.02,1.52-3.35.25-4.55,1.25-5.27,4.35Z"/>
        <path class="cls-7" d="M288.94,281.66c.56,1.59.62,1.62,1.79.97.25.03.5.07.76.1-.88,1.27-.78,2.72-.77,4.16,0,.73-.12,1.44-.28,2.16-.23,1.04-.33,2.12.62,2.95.16,1.08,1.29,1.51,1.67,2.44-.04.19-.08.38-.12.57-.85-.17-1.5-.62-1.98-1.34-.36-.54-.71-1.07-1.07-1.62-1.75,1.03-3.55,1.68-5.55,1.64-.54-.01-1.09.02-1.48-.45,1.72-.5,3.4-1.12,5.21-1.31.83-.09,2.05-.1,1.69-1.59.07-1.34.05-2.69.4-4,.18-.66.11-1.3-.39-1.89-1.3-1.54-2.66-3.04-4.14-4.42-.28-.26-.62-.59-1.01-.12-1.18.47-1.48,1.91-2.57,2.41-.86.39-1.2.88-1.2,1.8,0,.65-.09,1.36-.37,1.94-1.01,2.11-.47,3.77,1.3,5.15.28.65,1,1.12.75,1.97-1.28-.93-2.26-2.22-3.68-2.98-.24.03-.49.05-.73.08,0-.37,0-.74,0-1.11.16-.11.39-.19.47-.35.9-1.72.92-3.71,1.65-5.49-1.06-.65-2.12-1.3-3.18-1.95-.17-.1-.34-.2-.52-.3-.63-.68-1.31-1.33-1.89-2.06-.53-.67-1.11-1.37-.97-2.33h0c.63.31.93.93,1.32,1.46,1.2,1.66,2.73,2.86,4.75,3.36.7.67,1.29.41,1.89-.17.95-.93,1.94-1.82,2.91-2.73.21-.02.35-.12.37-.34-.17-1.93-.46-3.83-1.03-5.69.03-.31-.18-.73.21-.89.42-.17.59.24.66.54.36,1.54,1.22,3.02,1.05,4.63-.14,1.37.43,2.24,1.32,3.12.66.66,1.28,1.34,2.16,1.71Z"/>
        <path class="cls-1" d="M300.81,381.23c-.01-.67-.09-1.35-.02-2.01.2-1.9,2.02-2.68,3.52-1.99,5.06,2.36,8.17,7.33,7.67,13.47-.64-.08-.68-.77-1.08-1.04-.05-.7-.28-1.29-.98-1.59-.07-.27-.14-.54-.21-.81.85-1.24.14-2.24-.48-3.26-.93-2.56-2.65-4.3-5.27-5.09.41.77.97,1.4,1.46,2.08.41.56,1.3.8,1.19,1.72-.47.14-1.04.01-1.35.53-1.34-.27-2.21-1.59-3.65-1.61-.16-.34-.46-.41-.79-.41Z"/>
        <path class="cls-4" d="M282.82,395.46c-1.7-2.27-3.5-4.47-5.07-6.83-1.56-2.34-1.11-5.03.21-6.84,1.06-1.45,2.36-1.22,3.85.61-.37,0-.74.01-1.1.02-.74-.11-1.03.13-.7.87.59,1.33,1.19,2.66,1.78,3.98.89,2.66,1.35,5.37,1.03,8.18ZM281.23,390.97c-.33-2.9-1.72-5.37-3.41-6.1.2,1.99,1.91,5.05,3.41,6.1Z"/>
        <path class="cls-1" d="M311.36,374.72c-.02-.4-.09-.81-.05-1.2.17-1.8,1.02-2.31,2.72-1.62,4.04,1.63,6.41,4.64,7.38,9.01-.76,0-.88-.65-1.27-.89-.39-1.36-1.46-2.14-2.51-2.94-1.85-1.42-4.13-1.71-6.27-2.35Z"/>
        <path class="cls-7" d="M268.05,362.99c-.6.03-1.19.07-1.79.09-.19,0-.39-.06-.74-.11.41-1.04,1.5-1,2.16-1.53.98.42,2.03.37,3.28.52-.48-1.47-.92-2.79-1.35-4.11.46-.45.75-.05.93.26,1.93,3.5,3.63,7.09,3.98,11.16.03.08.03.16,0,.24-.42-.24-.51-.94-1.18-.83-.1-.18-.23-.26-.44-.19-.28-.02-.55-.05-.83-.07-1.54-.87-2.96-.44-4.34.41-.36-.15-.48-.43-.42-.8.5-.3,1-.6,1.51-.9,1.24,0,2.48,0,3.73,0-.03-.31-.02-.45-.06-.56-.31-.73-.63-1.46-.96-2.18-.75-1.65-1.5-1.94-3.49-1.4Z"/>
        <path class="cls-1" d="M292.71,294.44c-.38-.93-1.51-1.35-1.67-2.44.99-.11.81-.87.83-1.51.09-2.69-.33-5.43.78-8.03.13-.3.02-.65-.24-.91.04-.31.04-.64.39-.8.26-.03.52-.06.79-.09,1.3,4.58.88,9.08-.59,13.54-.03.1-.19.16-.3.24Z"/>
        <path class="cls-3" d="M288.64,365.99c.63-.39,1.13-.78,1.76.2.54.85,1.08.69,1.9-.27.28.05.56.11.85.16q.11,1.42,1.43.98c.56.44,1.11.9,1.69,1.32.58.42,1.16.88,1.96.61.39.71.86.3,1.32.11.59.79,1.78.88,2.19,1.88-3.4.75-6.44-.3-9.39-1.84-1.47-.77-2.97-1.5-3.7-3.15Z"/>
        <path class="cls-3" d="M253.1,342.06c1.04,3.39,1.27,6.91,1.72,10.4q-2.56.22-2.97-2.2c-.08-.45-.21-.89-.31-1.33.63-.79.3-1.93,1.04-2.73.32-.34.08-.73-.53-.48-.48.2-.54-.16-.54-.51,0-.67-.01-1.33,0-2,.03-1.43.04-1.43,1.6-1.16Z"/>
        <path class="cls-4" d="M274.98,384.13c-1.19.07-1.98-.42-2.42-1.56-.32-.85-.88-1.62-.93-2.57.78.08,1.19-.59,1.78-.89,1.25-.33,2.26-1.26,3.57-1.43,0,.8,0,1.6,0,2.4,0,0,0-.05,0-.05-.25.1-.37.3-.42.56.05.08.04.16-.02.23-.24.14-.34.37-.39.64l.05.09s-.07.08-.07.08c-.05.03-.14.06-.14.09,0,.09.02.19.03.29-.2.78-.58,1.48-1.05,2.13Z"/>
        <path class="cls-4" d="M276.1,362.19c.63-.34,1.25-.71,1.89-1.03.74-.37,1.5-.42,2.24,0-.02,1.95.65,3.54,2.41,4.55-.92.29-1.92.41-2.7,1.03-.56.46-.95.14-1.37-.17-.64-1.57-1.92-2.78-2.47-4.4Z"/>
        <path class="cls-3" d="M309.68,373.15c-.09,1.27.15,2.5.51,3.69.19.64.37,1.26.32,1.93l-.05.05c-1.67-1.02-3.08-2.25-3.94-4.1-.59-1.26-1.69-2.21-2.59-3.27-.03-.1-.02-.2.03-.29.4-.01.79-.03,1.19-.04,1.1.38,2.28.56,3.08,1.58.34.43.91.5,1.45.44Z"/>
        <path class="cls-1" d="M309.68,373.15c-.55.05-1.12-.02-1.45-.44-.8-1.01-1.98-1.2-3.08-1.58.81-2.51,3.7-3.65,5.66-2.23.85.62.96,1.12.17,1.86-.72.68-1.02,1.51-1.29,2.39Z"/>
        <path class="cls-6" d="M273.41,379.1c-.59.3-1,.97-1.78.89-.09-.1-.24-.18-.26-.29-.25-1.57-.97-2.7-2.68-2.96-.09-.01-.15-.21-.23-.31.4-.11,1.09.12,1.06-.57-.1-1.74-.14-1.74.77-2.76.51.61.36,1.53.98,2.08,0,.12-.01.25-.02.37-.13.14-.25.28-.38.42l-.3.4c.07.05.14.1.21.15.05-.16.1-.32.14-.49.22-.03.35-.17.43-.37.68-.25,1.36-.51,2.04-.76.62.75.39,2.06,1.59,2.44-.4.7-1.57.73-1.59,1.78Z"/>
        <path class="cls-1" d="M280.93,353.77c-.95.06-1.87-.17-2.78-.4-.93-1.34-2.14-2.49-2.84-4,.52-.65.23-1.13-.57-1.66.9,0,1.56,0,2.21,0,1.71,1.24,2.7,3.07,3.9,4.73.3.41.24.88.08,1.33Z"/>
        <path class="cls-3" d="M311.36,374.72c2.14.64,4.42.93,6.27,2.35,1.05.8,2.12,1.58,2.51,2.94-.9-.07-1.53-.74-2.33-1.06-1.16-.46-2.32-.65-3.51-.56-1.27.1-2.03-.37-2.39-1.57-.21-.7-.57-1.35-.55-2.11Z"/>
        <path class="cls-1" d="M282.82,395.46c.31-2.81-.15-5.52-1.03-8.18,1.06.01.91-.78.82-1.38-.09-.61-.25-1.15.42-1.51,1.81,3.08,1.55,6.39,1,9.7-.13.76-.46,1.48-.7,2.23-.48-.18-.43-.56-.5-.87Z"/>
        <path class="cls-1" d="M289.83,373.94c-2.18.05-3.04-1.38-3.56-3.18,2.1-1.25,4-.72,5.98.71-1.03.71-1.69,1.62-2.42,2.47Z"/>
        <path class="cls-4" d="M254.5,366.59c1.66,1.28,1.97,2.51.99,4.48-.71,1.43-1.3,2.88-1.33,4.56-.64-.15-1.02-.42-1.06-1.04-.03-1.74.36-3.43.7-5.12.2-.96,0-2.03.69-2.87Z"/>
        <path class="cls-7" d="M253.1,342.06c-1.56-.27-1.56-.27-1.6,1.16-.02.67,0,1.33,0,2,0,.36.06.72.54.51.61-.26.85.14.53.48-.75.8-.42,1.94-1.04,2.73-.68-.52-.38-1.27-.45-1.93-.29-2.3-.19-4.66-.98-6.9-.18-.51-.31-.99.04-1.52q1.08,1.27,2.22.6.6.98,1.78.58c.14,1.02-.87,1.48-1.05,2.29Z"/>
        <path class="cls-1" d="M290.6,293.66c.48.72,1.13,1.18,1.98,1.34.17.73.12,1.47.06,2.2-1.41.68-2.84,1.26-4.4.45-.41-1.8-.32-2.09,1.2-2.98.47-.27.79-.66,1.16-1.01Z"/>
        <path class="cls-1" d="M269.72,346.67c-.49-1.16-1-2.31-1.47-3.48-.3-.75-.3-1.52.6-1.82.71-.24,1.46-.24,1.71.78.11.44.3.89.74,1.14.05.31.02.66.39.82,0,0-.02-.03-.02-.03-.08.73.75,1.12.71,1.87-.84.4-1.76.54-2.68.72Z"/>
        <path class="cls-1" d="M254.5,366.59c-.7.84-.5,1.91-.69,2.87-.34,1.69-.73,3.38-.7,5.12-1.35-2.32-1.96-4.78-1.19-7.42.45-1.54,1.21-1.66,2.59-.58Z"/>
        <path class="cls-1" d="M277.75,360.14c-.14-1.07-.88-1.88-1.21-2.88-.27-.82-.42-1.55.47-2.04,1.05-.58,1.36.32,1.78.96.7,1.34,1.33,2.72,2.58,4.11-1.36-.52-2.49-.3-3.61-.14Z"/>
        <path class="cls-4" d="M292.41,281.55c.26.26.37.61.24.91-1.11,2.6-.68,5.34-.78,8.03-.02.64.16,1.4-.83,1.51-.95-.83-.85-1.9-.62-2.95.16-.72.29-1.43.28-2.16,0-1.44-.11-2.89.77-4.16.34-.37.38-.98.93-1.17Z"/>
        <path class="cls-1" d="M291.82,302.09c-1.23-.5-2.4-1.04-3.84-.52-1.12.41-1.39.08-1.74-1.41.24-.29.48-.57.73-.86l.07-.03c.13-.02.26-.03.39-.05,1.04,1.19,1.94.45,2.85-.21.25,0,.5.02.75.02.17.39-.13,1.16.46,1.14.62-.02.29-.74.36-1.16,0-.06,0-.13-.02-.2.27-.23.54-.45.81-.68.22,1.42-.11,2.72-.82,3.95Z"/>
        <path class="cls-1" d="M282.63,365.72c-1.76-1.01-2.43-2.6-2.41-4.55.83-.27,1.45.2,1.95.72,1.06,1.09,2.04,2.25,3.08,3.42-.63.82-1.5.49-2.23.61-.13-.06-.25-.13-.38-.19Z"/>
        <path class="cls-1" d="M302.32,373.71c-.51.52-.93,1.19-1.54,1.54-.99.56-1.98,1.26-3.3.78-.59-.21-1.31-.04-1.98-.04,1.1-1.96,3.4-3.09,5.47-2.67.45.09.89.26,1.33.4Z"/>
        <path class="cls-6" d="M276.1,362.19c.55,1.62,1.83,2.83,2.47,4.4.02.29.04.57.06.86-.54.05-.84.34-.92.87-.39-.27-.78-.54-1.18-.81-.42-.78-1.14-1.06-1.96-1.19-.12-.99.76-1.28,1.28-1.83-.06-.72-1.14-1.01-.8-1.88.14-.36.51-.36.83-.4.06-.04.13-.05.2-.02Z"/>
        <path class="cls-1" d="M285.44,369.93c-.57-1.24-2.13-1.72-2.43-3.17.33-.03.66-.05.99-.1q2.66-.41,4.18,2.28c-1.01.14-1.71.97-2.75.99Z"/>
        <path class="cls-1" d="M303.96,371.17c-.05.09-.07.19-.03.29-.82.21-1.44-.44-2.2-.49-.41-1-1.61-1.09-2.19-1.88.48-.8,1.19-.96,2.06-.8,1.1.2,2.18.52,3.32.37.04,1.11-1.07,1.56-.96,2.51Z"/>
        <path class="cls-3" d="M300.81,381.23c.33,0,.63.08.79.41,1.35,1.63,3.18,2.7,4.82,3.99.43.34.84.62.86,1.22l-.06.08c-1.81-.54-3.42-1.53-5.08-2.4-1.36-.71-1.45-1.97-1.33-3.3Z"/>
        <path class="cls-1" d="M274.99,377.32c-1.2-.38-.96-1.69-1.59-2.44.26-.05.54-.07.79-.17,1.96-.76,3.52-.33,4.67,1.64-1.35.2-2.63.51-3.87.96Z"/>
        <path class="cls-1" d="M276.98,380.07c0-.8,0-1.6,0-2.4,2.1-.68,4.02-.54,5.61,1.19-.2.37-.74.45-.8.95-1.67-1.09-3.24-.38-4.81.26Z"/>
        <path class="cls-1" d="M298.22,368.99c-.8.27-1.38-.19-1.96-.61-.58-.42-1.13-.88-1.69-1.32q2.54-1.9,4.93.22c-.24.7-1.08.97-1.28,1.71Z"/>
        <path class="cls-3" d="M254.75,361.35c-.53.33-.81.8-.8,1.43.01.53-.19,1-.39,1.46-1.03-.12-1.66.69-2.45,1.24-.62-3.35.53-4.66,3.65-4.14Z"/>
        <path class="cls-1" d="M293.94,375.71c-.39-.51-.82-1-1.14-1.55-.32-.55-.79-.61-1.33-.61,1.4-1.33,2.95-1.65,4.79-.62-.83.87-1.28,2.05-2.32,2.78Z"/>
        <path class="cls-1" d="M272.92,374.01c.09-1.15-1.22-1.19-1.58-1.99.95-.7,2.23-.3,3.2-.93.68.46.79,1.38,1.83,1.87-1.36.42-2.4.73-3.45,1.05Z"/>
        <path class="cls-5" d="M283.02,384.38c-.67.36-.51.9-.42,1.51.09.6.25,1.4-.82,1.38-.59-1.33-1.19-2.66-1.78-3.98-.33-.74-.04-.98.7-.87.34.88,1.02,1.24,1.93,1.24.13.24.27.48.4.72Z"/>
        <path class="cls-3" d="M255.14,356.61c.25.15.47.51.25.61-1.31.6-1.43,1.72-1.39,2.93-.64.07-1.29.13-1.93.2.07-2.57.35-2.93,2.6-3.41.17-.04.32-.22.47-.33Z"/>
        <path class="cls-7" d="M274.54,371.09c-.97.64-2.24.24-3.2.93-.6.2-1.21.37-1.8.59-.45.17-.86.26-1.13-.27.22-.05.38-.19.45-.41,1.08-.52,2.16-1.04,3.24-1.56.82-.05,1.64-.1,2.4.3.01.13.02.27.03.4Z"/>
        <path class="cls-3" d="M254.78,353.42c.07.82-.22,1.58-.42,2.35-.57.17-1.13.34-1.7.51-.6-2.22-.2-2.76,2.12-2.86Z"/>
        <path class="cls-3" d="M291.04,299.05c-.25,0-.5-.02-.75-.03-.93-.22-1.88-.13-2.83-.14h0c0-.59.3-.97.79-1.23,1.57.81,2.99.23,4.4-.45,0,.31,0,.63,0,.94-.27.23-.54.45-.81.68-.27.07-.54.15-.8.22Z"/>
        <path class="cls-7" d="M278.62,367.45c-.02-.29-.04-.57-.06-.86.43.3.81.62,1.37.17.77-.63,1.77-.75,2.7-1.03.13.06.25.13.38.19.01.24.02.47.04.71-.93.35-1.87.67-2.77,1.07-.64.29-1.15.13-1.65-.25Z"/>
        <path class="cls-1" d="M274.51,370.69c-.76-.41-1.58-.35-2.4-.3.05-.65-.64-1.3-.02-1.96.28.02.55.05.83.07.14.06.29.13.44.19.66-.11.76.59,1.18.83,0,.39-.01.78-.02,1.16Z"/>
        <path class="cls-1" d="M290.29,364.28c-.18-.53-.63-.86-1-1.24-.44-.45-.77-.93-.58-1.61.69.38,1.42.69,2.06,1.14,1.01.71.98.77.02,1.99-.16-.1-.33-.19-.49-.29Z"/>
        <path class="cls-4" d="M281.79,379.8c.06-.49.6-.58.8-.95,1.15.81,1.71,1.93,1.83,3.26-.89-.78-1.76-1.54-2.63-2.31Z"/>
        <path class="cls-1" d="M293.14,366.08c-.28-.05-.56-.11-.85-.16-.49-.08-.76-.38-.83-.87,1.19-.71,2.34-.53,3.55.12-.43.82-1.22.71-1.87.91Z"/>
        <path class="cls-3" d="M309.9,388.08c.71.29.93.89.98,1.59-1.37-.25-1.96-1.5-2.92-2.28,0,0,.11-.14.11-.14.27,0,.54.01.81.02h-.01c.16.49.52.74,1.02.81Z"/>
        <path class="cls-1" d="M288.69,361.42c-1.11.9-1.84.36-2.51-.69.5-.07.94-.13,1.39-.2.52.11,1.02.24,1.12.88Z"/>
        <path class="cls-3" d="M285.9,370.88c-.38.4-.43,1.12-1.19,1.25-.27-.8-.01-1.39.65-1.84.18.2.37.39.55.59Z"/>
        <path class="cls-1" d="M282.63,383.66c-.91,0-1.59-.36-1.93-1.24.37,0,.74-.01,1.11-.02.15.5.9.61.82,1.26Z"/>
        <path class="cls-4" d="M293.59,280.65c-.26.03-.53.06-.79.09,0-.07,0-.13,0-.2,0-.34.1-.79.42-.78.55.01.3.56.38.89Z"/>
        <path class="cls-3" d="M311.33,379.57c.17.07.34.14.5.21-.04.05-.08.13-.13.14-.22.04-.36-.09-.45-.27,0,0,.07-.07.07-.07Z"/>
        <path class="cls-3" d="M307.97,387.39c-.3-.08-.58-.18-.76-.46,0,0,.06-.08.06-.08.33.01.63.08.81.39l-.11.14Z"/>
        <path class="cls-1" d="M276.16,381.45c.04-.26.14-.49.39-.64,0,.29-.15.49-.39.64Z"/>
        <path class="cls-1" d="M276.56,380.58c.05-.25.17-.46.42-.56-.14.19-.28.37-.42.56Z"/>
        <path class="cls-3" d="M290.29,364.28c.16.09.33.19.49.29,0,0,0,0,0,0-.23.02-.38-.1-.49-.28Z"/>
        <path class="cls-3" d="M310.91,379.18c.14.13.28.26.42.39,0,0-.07.07-.07.07-.13-.14-.26-.27-.39-.41,0,0,.05-.05.05-.05Z"/>
        <path class="cls-3" d="M310.51,378.78c.22.05.35.19.4.4,0,0-.05.05-.05.05-.21-.06-.34-.19-.4-.4,0,0,.05-.05.05-.05Z"/>
        <path class="cls-1" d="M276.03,382c-.01-.1-.04-.19-.03-.29,0-.03.09-.06.14-.09,0,.14-.03.26-.11.38Z"/>
        <path class="cls-4" d="M197.75,335.96c1.14.93,2.46,1.29,3.92,1.3,2.29.01,4.53-.14,6.77-.77,2.39-.67,4.89-.75,7.36-.89.39-.02.81-.1,1.18.3-.01.91-.49,1.72-.84,2.58-1.48,3.6-2.6,7.3-2.91,11.21-.03.95-.07,1.9-.1,2.86,0,0,.03.03.03.03-.79,0-1.19.41-1.25,1.18-.18.13-.49.23-.14.51.05-.17.1-.34.15-.51.57-.04,1.37-.54,1.26.69-.05.58,0,1.18.01,1.77-.21.16-.43.31-.64.47-.25.2-.67.45-.47.76.31.47.69-.08,1.05-.1.23.93.51,1.86.39,2.84-.37.31-.85.53-.89,1.11-.16.09-.33.19-.49.28.05.05.08.12.14.14.22.04.38-.06.47-.27.24.02.48.04.72.06.08.92.6,1.76.46,2.72-.66.47-1.33.93-1.99,1.39-2.47-3.82-3.09-8.04-2.61-12.54-.28.11-.47.12-.5.2-1.31,3.15-2.72,6.26-3.54,9.6-.3,1.23-.98,2.44-1,3.67-.05,3.66-1.89,6.65-3.34,9.79-.24.51-.58,1.01-1.22.5-.63-.51-1.02-.15-1.29.34-.54,1-1.25,1.7-2.51,1.69,1.48,2.19,1.4,3.3-.34,5.07-.7.72-1.47,1.38-2.21,2.06-.32-1.74-1.06-3.34-1.67-4.98-.04-.27-.14-.51-.42-.62,0,0,0,.02,0,.02-.15-1.24.77-1.77,1.59-2.36.14.01.29.03.43.04.41.53.71,1.18,1.62,1.44-.06-1.19-.63-1.75-1.58-2.01-.27-.25-.54-.5-.81-.75,0-1.3,1.01-1.59,1.96-1.95,1.22.17,1.65,1.27,2.4,2,.62.6.76.1.78-.47.75-.31.66-1.29,1.33-1.65.62-.34.33-1.15.82-1.55,2.66-2.22,4.09-6.09,3.24-9.09-.43,1.59-1.3,2.77-2.08,4-.81-.37-1.63-.73-2.44-1.1-.02-.83.37-1.56.64-2.3.38-1.08-.11-1.5-1.07-1.66,1.36-.79,2.69.07,4.04.08.32.26.69.5,1.04.17.23-.22.04-.46-.23-.59-.8-.41-1.59-.83-2.39-1.24-.21-.95.71-1.52.81-2.39.15-1.33-.16-1.65-1.45-1.36-.32.07-.65.1-.98.14-.08-.41-.21-.94-.67-.36-.95,1.2-1.78,2.49-2.3,3.95-.09.13-.19.25-.28.38,0,.81-.72,1.16-1.12,1.72-.45.08-.5.6-.87.76l-.03-.03c.06-1.65,1-3.2.66-5.24-.74,1.01-1.31,1.75-2.24,2.03-.88.03-1.35-.76-2.08-1.04.17-.27.3-.6.53-.81,1.33-1.21,1.72-2.72,1.5-4.44,1.19-.34,2.31.64,3.52.34-.41-.48-.74-.87-1.07-1.25.53-1.22,1.05-2.44,1.59-3.66.8-1.83.52-2.27-1.58-2.43-.31.12-.7.16-.91.38-1.45,1.54-2.3,3.45-3.13,5.35-.2.47,0,.92.43,1.23-.09.68-.53,1.01-1.17,1.12-.06-.42-.15-.91-.69-.45-.4.34-.69.82-1.02,1.23-.6,0-1.2,0-1.8,0-.42,0-.91.1-.91.57-.01,1.23-1.11,1.58-1.72,2.31h-1.76c-.24-.74.3-.95.6-1.23,1.42-1.3,2.57-2.93,4.38-3.77.19-.09.24-.27.26-.48.28-2.83,2.44-4.42,4.15-6.31.48-.53,1.27-.33,1.87-.61.21-.76-.93-.6-.82-1.18.1-.51.37-1,.6-1.48.17-.36.33-.76.6-1.04,2-2.15,3.14-4.78,4.24-7.44ZM201.83,346.52c.15-.12.34-.22.45-.37.11-.14.25-.45.2-.5-.33-.32-.42.1-.55.26-.11.14-.1.36-.15.55-.16.04-.4.03-.18.3.07-.08.15-.17.22-.25ZM205.45,347.8c.25-.69.55-1.36.72-2.07.29-1.19-.02-1.55-1.24-1.61-.26-.01-.53.04-.8.07-.98,1.6-1.33,3.43-1.91,5.17l.02-.02c-1.3,1.37-2.42,2.85-2.98,4.69-.37,1.2.07,2.05,1.3,2.09,1.16.04,2.28.08,3.31.69.24.14.53.15.65-.17.12-.31-.12-.51-.33-.66-.65-.46-1.53-.55-2.03-1.26,1.04-1.66,1.85-3.36.86-5.35,1.07-.96,2.3-.22,3.48-.26.07-.84-.75-.86-1.05-1.31ZM198.56,345.77c0-.87.78-1.35,1.04-2.1.16-.45.35-.92,0-1.3-.41-.44-.98-.37-1.47-.14-.28.13-.48.43-.72.65-1.55.92-2.36,2.33-2.79,4.17,1.83-.99,3.43-.43,5.04.27.39.17.96.58,1.36-.2-.84-.5-1.81-.63-2.46-1.35ZM209.52,338.68c-.68.83-.63,1.7-.21,2.56.2.41.65.82,1.13.61.79-.35,1.7-.7,1.82-1.82-.9-.23-1.38.65-2.12.55-.54-.5.05-1.32-.62-1.89ZM203.08,340.32c-.02-.28-.16-.51-.33-.49-.63.08-1.13-.13-1.67-.43-.46-.25-.99-.06-1.14.45-.14.49.4.62.73.79.47.25.94.56,1.49.48.48-.07.89-.28.91-.81Z"/>
        <path class="cls-3" d="M193.38,386.03c.74-.68,1.5-1.34,2.21-2.06,1.74-1.77,1.82-2.88.34-5.07,1.27.01,1.98-.69,2.51-1.69.27-.49.65-.86,1.29-.34.64.52.98.01,1.22-.5,1.45-3.14,3.29-6.13,3.34-9.79.02-1.23.69-2.44,1-3.67.82-3.33,2.23-6.45,3.54-9.6.03-.08.22-.09.5-.2-.48,4.5.14,8.73,2.61,12.54-.6,1.1-1.2,2.19-1.85,3.36-1.81-1.37-1.51-3.18-1.26-4.86.16-1.12.27-2.18.16-3.26-.77-.06-.89.4-.99.74-.74,2.45-1.34,4.92-.72,7.49.14.57.04,1.04-.13,1.56-.57,1.72-.93,3.47-.92,5.32.03,2.96-1.69,4.82-4.16,6.11-1.02.53-1.2.43-1.45-.7-.05-.24.02-.53-.38-.74-.52.51-.77,1.15-.85,1.9-.15,1.35-.68,2.58-1.16,3.83-1.23,3.2-3.82,4.4-7.16,4.87.77-1.9,2.16-3.32,2.31-5.25Z"/>
        <path class="cls-3" d="M173.55,376.78c.31,0,.63,0,.94,0,0,0,.14,0,.14,0l.14.02c.05.22.2.34.41.4l-.03-.02c.45.6.86.52,1.24-.08.29-.35.67-.57.88-1.03.31-.67.78-.61,1.08.09.11.26-.08.7.51.74.75-.54,1.55-1.12,2.35-1.7.14-.14.28-.28.42-.43v.02c2.85-1.18,5.27-2.97,7.45-5.15.86-.86,1.16-2.31,2.62-2.54.25,2.92-.77,5.11-3.26,6.85-1.62,1.14-3.37,2.19-4.7,3.75-.83.97-1.69,1.88-1.84,3.25-.12,1.08-.68,1.71-1.89,1.5-.58-.1-1.2.13-1.75-.18-.36-.51.35-1.04-.09-1.58-.95.37-1.28,1.27-1.76,2.05-2.05,3.4-5.13,4.94-9.04,4.93-.33,0-.66-.08-.98-.16-.19-.05-.36-.17-.7-.34,2.28-1.08,3.23-2.93,3.46-5.24.02-.24.21-.47.33-.71.38.04.6,1.02,1.04.34.61-.93,1.78-1.31,2.18-2.39h-.01c1.24-.44.73-1.53.86-2.38Z"/>
        <path class="cls-4" d="M191.71,367.09c-1.46.23-1.77,1.68-2.62,2.54-2.19,2.18-4.61,3.97-7.46,5.15.03-.65-.09-1.2-.91-1.2-.78,0-1.57,0-2.35.02-.57-.53-1.34-.83-1.75-1.53,1.04-.07,2.02-.19,3.05.44,1.1.68,1.94.09,2.33-1.33.27,0,.54,0,.82,0,.26.3.5.61.78.89.19.19.48.34.68.06.17-.24-.02-.5-.18-.71-.08-.1-.19-.18-.29-.27-.12-.56-.55-.78-1.02-.97.44-1.26,1.75-1.98,2.02-3.34,1.16.04,2.17.58,3.25.9.92.27,2.37-.74,2.43-1.7,0-.11-.06-.27-.15-.34-.17-.14-.4-.11-.53.04-1.35,1.63-2.55.67-3.76-.2,1.04-.86,2-1.73,2.11-3.23.03-.41.45-.8.7-1.19,1.13.02,2.2.37,3.27.69.73.97.02,2.01.04,3.02.66,0,.97-.62,1.55-.55,0,0,.03.03.03.03.05.89-.81,1.06-1.23,1.58-.14.27-.28.54-.41.81-.13.14-.26.28-.4.42Z"/>
        <path class="cls-6" d="M183.63,359.5c.62-.73,1.71-1.08,1.72-2.31,0-.48.49-.57.91-.57.6,0,1.2,0,1.8,0-2.07,2.86-4.12,5.73-6.75,8.14-.83.76-1.67,1.55-2.21,2.58-.29.56-.82.82-1.41,1.04-1.25.47-2.56.87-3.68,1.56-2.34,1.46-4.82,1.33-7.37,1.01.15-.56.67-.56,1.09-.74.5-.21.98-.44.99-1.09.55.06.78,1.26,1.58.46.33-.62.92-1.11.91-1.89.6-.29,1.33-.38,1.7-1.04.8.1,1.13,1.14,1.99,1.11.4-.57.15-1.13.23-1.65.64-.21,1.44-.17,1.68-1.04.08-.1.25-.22.23-.3-.39-1.6-.41-1.62,1.04-2.57.6-.39,1.03-1.05,1.8-1.16,1.14.54-.53,1.34.27,2.04.67-1.11,1.96-1.48,2.73-2.47.67-.08.9-.46.75-1.1ZM179.13,363.79c-.55.08-.91.4-1.13.89-.05.02-.1.04-.14.07-.02.02-.02.07-.03.1.05-.06.1-.13.15-.19.6.05.99-.26,1.28-.75.05-.09.1-.19.16-.28-.09.05-.19.1-.28.16Z"/>
        <path class="cls-1" d="M156.94,385.28c.9-3.71,3.24-6.24,6.6-7.85,2.39-1.15,3.72-.3,3.87,2.33.02.33,0,.67,0,1.01-.58.18-1.15.36-1.53.87-.35-.02-.69-.04-.84.38,0,0,.01-.02.01-.02-2.24.91-3.97,2.51-5.65,4.17,0-.13,0-.26,0-.39-.03-.5.11-1.08-.59-1.26-.51-.13-.85.1-1.11.54-.17.29-.4.52-.76.21ZM159.79,383.22c1.42-.77,3.14-2.68,3.9-4.46-2.16.94-3,2.73-3.86,4.49-.2.12-.56.2-.15.48.02.01.21-.3.11-.51Z"/>
        <path class="cls-1" d="M179.62,298.52c-1.43-.09-2.68-.72-3.97-1.26.06-1.75-.4-3.36-.98-5.01-1.1-3.09-.85-6.31-.55-9.51.08-.8.2-1.59.31-2.38.09-.16.19-.31.28-.47.67.34.35,1.2.86,1.62-.19,2.22.6,4.36.44,6.59-.13,1.74-.04,3.47.44,5.17-.07.32-.52.62-.14.96.12.1.44-.02.67-.05.68.63,1.34,1.28,2.05,1.88.8.67.54,1.59.64,2.42,0,0-.04.04-.04.04Z"/>
        <path class="cls-1" d="M185.67,383.65c.02-.67.51-1.07.9-1.51.58-.64,1.21-1.34,2.2-1.04.96.29,1.58.98,1.76,1.99.06.32.06.65.08.98,0,0-.11-.02-.11-.02-1.36,1.59-2.69,3.19-3.25,5.27-1.04,1.19-1.27,2.7-1.59,4.16-.08.39-.04.8.36,1.05-.18.65-.55,1.17-1.06,1.77-.91-2.35-1.66-4.62-1-7.1.11.62.21,1.24.35,2.03,2.42-4.04,3.61-7.07,3.41-8.6-.84.02-1.11,1.22-2.06,1.02Z"/>
        <path class="cls-3" d="M164.69,371.63c-1.39.79-2.3,2.02-3.13,3.33-.98,1.54-2.33,2.7-3.86,3.96-.37-1,.02-1.77.28-2.41.73-1.81.74-3.51-.23-5.21.6-.11,1.01.22,1.4.61.24.25.63.51.88.28.98-.9,2.39-.73,3.43-1.45.22.02.44.04.66.05.2.27.2.68.58.83Z"/>
        <path class="cls-1" d="M168.75,377.58c-.61-.75-1.25-1.48-2.09-2,.64-.83.4-1.48-.41-2.02,1.81-.94,3.4-.35,4.91.73.65.46,1.23.99,1.6,1.71-.55.48-1.25.78-1.69,1.4-.2.29-.37.59-.16.92.22.34.53.32.86.1,1.07-.7.86.2.93.75,0,0,.01-.01.01-.01-1.29.08-2.55.12-3.23-1.33-.08-.16-.47-.17-.72-.25Z"/>
        <path class="cls-3" d="M156.88,374.71c-.12.45-.32.89-.36,1.34-.14,1.63-1.18,2.29-2.63,2.29-1.8,0-3.39.59-4.92,1.43-.36.2-.75.26-1.15.26,2.24-3.11,5.23-4.94,9.07-5.32Z"/>
        <path class="cls-1" d="M156.88,374.71c-3.84.39-6.83,2.22-9.07,5.32-.23.18-.74.52-.63,0,.23-1.15.53-2.34,1.34-3.28.59.28.22-.28.36-.4,0,0,0,0,0,0,2.24-.66,3.92-2.37,6.02-3.31.75-.34-.07-.82-.41-1.15,1.56-.55,1.84-.47,2.08.88.11.64.51,1.25.31,1.93Z"/>
        <path class="cls-4" d="M176.44,293.27c-.48-1.69-.57-3.43-.44-5.17.17-2.22-.62-4.37-.44-6.59.6.79,1.21,1.58,1.81,2.36,0,0,0,.04,0,.04.42,1.88-.09,3.86.58,5.71.5,1.37.1,2.43-1.04,3.28-.16.12-.31.24-.47.37Z"/>
        <path class="cls-6" d="M178.37,373.6c.78,0,1.57-.02,2.35-.02.82,0,.94.55.91,1.2,0,0,.01-.02.01-.02-.14.14-.28.28-.42.43-.8.58-1.6,1.15-2.35,1.7-.59-.04-.4-.48-.51-.74-.3-.69-.77-.76-1.08-.09-.21.46-.6.69-.88,1.03-.41.03-.82.05-1.24.07,0,0,.03.02.03.02-.14-.13-.27-.27-.41-.4l-.14-.02s-.14,0-.14,0c-.19-.49-.39-.98-.58-1.47,1.76-.09,2.04-.37,2.16-2.22,1.02.14,1.43,1.39,2.52,1.41.21-.39-.17-.61-.21-.91Z"/>
        <path class="cls-1" d="M163.46,370.74c-1.04.72-2.45.56-3.43,1.45-.25.23-.64-.04-.88-.28-.39-.39-.79-.72-1.4-.61-.38-.51-1.32-.82-1.07-1.53.29-.84,1.17-1.26,2.05-1.39,1.31-.21,2.5.24,3.51,1.06.46.37.82.86,1.22,1.3Z"/>
        <path class="cls-5" d="M185.67,383.65c.95.21,1.21-.99,2.06-1.02.2,1.54-.99,4.57-3.41,8.6-.14-.79-.24-1.41-.35-2.03-.04-1.84.3-3.57,1.38-5.1.21-.07.33-.2.3-.43l.02-.03Z"/>
        <path class="cls-4" d="M198.98,371.58c-1.28-.89-2.66-1.44-4.26-1.22-.8.11-1.08-.26-1.03-1,.61-.16.39-.67.46-1.07l-.02.03c.42-.06.87.03,1.25-.23.52-.05,1.08-.24,1.55-.13,1.32.33,2.99-.13,3.77,1.54-.41.19-.41.6-.56.95-.23.53-.48,1.06-1.17,1.12Z"/>
        <path class="cls-5" d="M213.5,366.71c1.48-1.32,2.57-1.05,2.83.83.37,2.67,0,5.26-1.56,7.56.1-2.88-.34-5.67-1.28-8.39Z"/>
        <path class="cls-3" d="M186.03,394.54c-.4-.25-.44-.67-.36-1.05.32-1.47.55-2.97,1.59-4.16.38.39.8,1.28,1.2.07.36-1.1.92-2.06,1.49-3.04.42-.71.64-1.47.56-2.3,0,0,.11.02.11.02.93.89,1.08,2.73.25,3.87-.71.97-1.53,1.86-2.24,2.83-.9,1.23-1.73,2.5-2.59,3.76Z"/>
        <path class="cls-3" d="M165.87,381.64c.39-.51.96-.7,1.53-.87.17,2.83-.54,4.01-3.1,4.84-.95.3-1.78.98-2.85.89.21-1.41,1.38-2.05,2.36-2.81.59-.46,1.23-.82,1.23-1.68,0,0-.01.02-.01.02.34.01.64-.06.84-.38Z"/>
        <path class="cls-1" d="M192.89,378.09c-.82.59-1.74,1.12-1.59,2.36-1.68-1.06-3.39-1.77-5.24-.36-.35-.21-.41-.57-.5-.92,1.11-1.9,2.89-2.11,4.83-1.91.27.24.58.29.92.24.25.04.5.08.75.12.11.16.23.3.46.24.12.07.24.15.36.22Z"/>
        <path class="cls-3" d="M198.98,371.58c.69-.06.94-.6,1.17-1.12.15-.34.15-.76.56-.95,1.23-.23.19-.95.3-1.42.78-1.23,1.65-2.41,2.08-4,.85,3-.59,6.87-3.24,9.09-.02-.68-.57-1.07-.86-1.6Z"/>
        <path class="cls-1" d="M192.09,354.75c.22,1.72-.16,3.23-1.5,4.44-.23.21-.35.54-.53.81-.85-.05-1.7-.1-2.78-.16,1.13-1.32,1.86-2.63,2.49-4,.65-.11,1.08-.44,1.17-1.12.38-.09.76-.09,1.14.04Z"/>
        <path class="cls-4" d="M213.5,366.71c.94,2.72,1.38,5.51,1.28,8.39-.65.55-.71.55-.74.23-.16-1.84-.96-3.44-1.71-5.09-.65-1.43.29-2.51,1.17-3.53Z"/>
        <path class="cls-4" d="M156.94,385.28c.36.31.59.08.76-.21.25-.44.59-.67,1.11-.54.7.18.56.76.59,1.26,0,.13,0,.26,0,.39-.24.98-1.44,1.55-1.17,2.74-.58.61-1.16,1.22-1.98,2.09-.17-2.2-.07-3.99.69-5.72Z"/>
        <path class="cls-1" d="M188.87,361.1c-.24.4-.67.78-.7,1.19-.11,1.5-1.07,2.38-2.11,3.23-.8.09-1.61.17-2.41.25-.16-.09-.32-.17-.48-.26.79-1,1.57-2,2.37-2.99.86-1.06,1.91-1.69,3.34-1.43Z"/>
        <path class="cls-3" d="M213.93,364.26c.14-.96-.38-1.8-.46-2.72.7-.11,1.29-.61,2.1-.32,1.74.62,2.29,1.84,1.58,4.12-.99-.64-1.97-1.35-3.22-1.09Z"/>
        <path class="cls-4" d="M164.69,371.63c-.38-.15-.38-.56-.58-.83-.18-.63-.36-1.26-.56-1.99,1.78-.12,3.54-1.41,5.17.3,0,.66-.5.89-.99,1.09-.41.17-.94.18-1.09.74-.66.19-1.38.25-1.95.69Z"/>
        <path class="cls-1" d="M184.82,366.82c-.27,1.36-1.59,2.08-2.02,3.34-.97.26-1.39-.9-2.26-.9-.06,0-.15-.21-.17-.34-.1-.8,1.44-2.39,2.28-2.34.73.05,1.45.16,2.18.24Z"/>
        <path class="cls-7" d="M158.23,388.91c-.27-1.2.93-1.77,1.17-2.74,1.68-1.66,3.41-3.26,5.65-4.17,0,.86-.64,1.22-1.23,1.68-.98.76-2.15,1.39-2.36,2.81,0,0-.02,0-.02,0-.22.07-.34.22-.4.44-.92.68-1.71,1.54-2.8,1.98Z"/>
        <path class="cls-1" d="M182,371.17c-.39,1.42-1.23,2.01-2.33,1.33-1.02-.63-2-.51-3.05-.44-.53-.42-.33-.78.1-1.12,1.23-.99,3.11-1.09,4.64-.23.23.13.43.31.64.46Z"/>
        <path class="cls-7" d="M179.61,306.58c2.29-.09,4.54.63,6.84.33.21.54.62,1.14-.45,1.25-.6.06-1.15.28-1.53.79-1.42-.51-2.98-.64-4.2-1.66-.25-.21-.45-.47-.67-.7Z"/>
        <path class="cls-5" d="M154.49,371.9c.34.33,1.16.81.41,1.15-2.11.94-3.78,2.65-6.02,3.31,1.28-2.23,3.25-3.59,5.61-4.46Z"/>
        <path class="cls-1" d="M176.06,373.09c-.12,1.86-.41,2.13-2.16,2.22-.6-.78-1.28-1.47-2.35-1.99,1.38-1,2.62-1.46,4.05-.58.07.19.19.34.42.32l.04.03Z"/>
        <path class="cls-3" d="M213.19,356.24c0-.59-.06-1.18-.01-1.77.11-1.24-.69-.74-1.26-.69h0c.05-.78.45-1.19,1.25-1.19.24.43.61.64,1.1.76,1.19.27,1.64,1.15,1.26,2.26-.13.38-.38.52-.73.54-.53.04-1.06.06-1.6.09Z"/>
        <path class="cls-3" d="M213.52,360.22c.13-.98-.15-1.91-.39-2.84,2.02-.65,2.56-.19,3.05,2.66-.86.44-1.78.1-2.67.18Z"/>
        <path class="cls-6" d="M193.72,364.25c-.57-.06-.89.56-1.55.55-.02-1.01.69-2.05-.04-3.02,0-.25,0-.5,0-.75.93-.28,1.5-1.02,2.24-2.03.34,2.05-.6,3.6-.66,5.24Z"/>
        <path class="cls-4" d="M196.13,371.63c1.26-.1,2.18.47,2.84,1.5-.67.07-1.11.42-1.16,1.11-.04.57-.24,1.02-.79,1.26-.41-.67-1.09-1.05-1.66-1.54.31-.76.87-1.43.76-2.33Z"/>
        <path class="cls-6" d="M168.75,377.58c.25.08.64.09.72.25.68,1.45,1.94,1.41,3.23,1.33-.41,1.08-1.57,1.47-2.18,2.39-.45.68-.66-.3-1.04-.34-.24-1.21-.48-2.42-.73-3.63Z"/>
        <path class="cls-1" d="M196.13,371.63c.1.89-.45,1.57-.76,2.33-1.03-.29-2.05-.57-3.15-.88.28-1.2.89-1.76,2.11-1.58.59.09,1.2.09,1.8.13Z"/>
        <path class="cls-1" d="M194.5,374.85c-.94.36-1.96.65-1.96,1.95-1.09-.25-2.19-.41-3.36-.37,1.54-2.11,1.81-2.22,4.14-1.73.39.08.79.1,1.18.14Z"/>
        <path class="cls-6" d="M213.13,352.56c.03-.95.07-1.9.1-2.86.89.96,1.98.67,3.05.48,0,.25,0,.5,0,.75-.09.16-.18.32-.27.48-.08.48.07,1.2-.81.93-.75-.23-1.41-.12-2.08.21Z"/>
        <path class="cls-1" d="M172.91,366.63c-.38.66-1.1.75-1.7,1.03-.87-.04-1.73-.08-2.6-.12.27-.66.97-.91,1.39-1.41.73-.85,1.49-.67,2.31-.18.2.23.4.45.6.68Z"/>
        <path class="cls-6" d="M172.69,379.17c-.07-.55.14-1.45-.93-.75-.33.22-.64.24-.86-.1-.21-.33-.04-.63.16-.92.44-.62,1.14-.92,1.69-1.4.39.13.63.42.79.78-.13.85.38,1.93-.86,2.39Z"/>
        <path class="cls-1" d="M182.88,360.6c-.77.99-2.06,1.36-2.73,2.47-.79-.7.88-1.49-.27-2.04.87-1.03,1.9-.93,3-.44Z"/>
        <path class="cls-7" d="M172.91,366.63c-.2-.23-.4-.45-.6-.68.13-.16.27-.31.4-.47.81.2,1.61.41,2.42.61-.08.52.18,1.08-.23,1.65-.86.03-1.19-1-1.99-1.11Z"/>
        <path class="cls-6" d="M166.24,373.56c.81.54,1.05,1.19.41,2.02-.82-.14-1.61-.55-2.81.21.72-1.35,1.51-1.84,2.39-2.23Z"/>
        <path class="cls-1" d="M175.13,366.1c-.81-.2-1.61-.41-2.42-.61,1.26-1.15,2.67-.88,4.09-.43-.23.87-1.03.83-1.68,1.04Z"/>
        <path class="cls-3" d="M197.03,375.5c.55-.24.74-.69.79-1.26.05-.7.48-1.04,1.16-1.11.02.53.03,1.07.05,1.6-.68.36-.59,1.35-1.33,1.65-.36-.19-.6-.46-.65-.88Z"/>
        <path class="cls-4" d="M193.72,369.35c-.47-.16-.79-.42-.74-.97.06-.58.12-1.15.18-1.73.08-.25.16-.5.23-.75.34,0,.63.11.84.39-.03.68-.07,1.36-.1,2.03,0,0,.02-.03.02-.03-.36.26-.38.67-.44,1.06Z"/>
        <path class="cls-4" d="M168.62,367.55c.86.04,1.73.08,2.6.12.01.78-.58,1.28-.91,1.9-.53-.7-1.34-1.16-1.69-2.02Z"/>
        <path class="cls-6" d="M185.56,379.18c.09.35.15.71.5.92-.56.71-1.43,1.13-1.81,2.02-.28-1.33.28-2.24,1.31-2.94Z"/>
        <path class="cls-7" d="M193.36,377.55c.95.27,1.53.82,1.58,2.01-.91-.25-1.21-.9-1.62-1.44.01-.19.03-.38.04-.58Z"/>
        <path class="cls-7" d="M183.81,371.13c.1.09.21.17.29.27.16.21.35.47.18.71-.2.28-.49.13-.68-.06-.28-.28-.53-.59-.78-.89.33-.01.67-.02,1-.04Z"/>
        <path class="cls-3" d="M193.4,365.89c-.08.25-.16.5-.23.75-.35,0-.7.02-1.05.02.14-.27.28-.54.41-.81.29.01.58.02.87.03Z"/>
        <path class="cls-3" d="M156.89,379.67c-.09.18-.25.26-.43.16-.08-.04-.15-.22-.13-.3.06-.19.25-.25.42-.16.08.04.09.2.13.3Z"/>
        <path class="cls-1" d="M176.67,302.92c.54.23,1.21.4.58,1.2-.3-.35-.53-.73-.58-1.2Z"/>
        <path class="cls-7" d="M193.72,369.35c.06-.39.08-.79.44-1.06-.07.39.15.91-.46,1.07,0,0,.03,0,.03,0Z"/>
        <path class="cls-5" d="M148.88,376.37c-.14.12.23.68-.36.4.02-.22.12-.37.36-.4Z"/>
        <path class="cls-7" d="M191.31,377.5c-.34.06-.66,0-.92-.24.35-.09.67-.07.92.24Z"/>
        <path class="cls-6" d="M183.17,365.52c.16.09.32.17.48.26-.18,0-.38.06-.54,0-.13-.04-.09-.2.06-.27Z"/>
        <path class="cls-1" d="M191.29,380.43c.28.11.38.35.42.62-.26-.12-.41-.32-.42-.62Z"/>
        <path class="cls-7" d="M192.52,377.87c-.22.05-.35-.08-.46-.24.15.08.3.16.46.24Z"/>
        <path class="cls-3" d="M184.82,311.01c-.05-.07-.1-.14-.15-.21.07.05.14.09.21.14,0,0-.07.07-.07.07Z"/>
        <path class="cls-3" d="M161.03,386.93c.06-.22.18-.37.4-.44-.13.15-.27.29-.4.44Z"/>
        <path class="cls-6" d="M176.02,373.07c-.24.02-.35-.13-.42-.32.21.02.36.11.42.32Z"/>
        <path class="cls-3" d="M174.71,279.89c-.09.16-.19.31-.28.47-.03-.23.05-.4.28-.47Z"/>
        <path class="cls-1" d="M185.66,383.67c.04.24-.09.37-.3.43-.03-.24.05-.39.3-.43Z"/>
        <path class="cls-3" d="M216.01,351.41c.09-.16.18-.32.27-.48.01.22-.09.37-.27.48Z"/>
        <path class="cls-4" d="M212.78,313.36c-.15.77.19,1.46.39,2.15.5,1.68.98,3.34.77,5.12-.1.84.32,1.08,1.1,1.32,1.67.52,3.22,1.32,4.36,2.74.91,1.15.72,2.88-.49,3.71-.69.47-1.34.54-1.88-.28-1.18-1.78-2.45-3.51-3.58-5.32-.49-.78-1.04-1.38-1.88-1.72-2.88-1.2-5.19-3.28-7.6-5.15-1.21-.94-2.31-2.23-3.26-3.51-1.09-1.47-2.38-2.72-3.7-3.95-.83-.78-1.35-1.64-1.35-2.79.03-.38.07-.76.1-1.15.69-1.23,1.64-2.05,3.13-2.09.19,0,.42-.07.56-.19,1.96-1.61,4.29-.84,6.47-.96.88-.05,1.75.19,2.03,1.25.15.44.28.89.45,1.32.34.89.13,1.42-.89,1.5-.21.02-.59,0-.45.43,1.85.69,1.9.67,2.52-.79.89,2.74,2.5,5.22,2.92,8.13.01.09.19.15.3.23h0ZM204.24,309.78c-.07-.16.18-.57-.28-.41-.08.03.1.32.29.4,1.45,3.37,3.89,5.32,6.14,4.87-.76-.58-1.48-1.16-2.23-1.7-.78-.56-1.23-1.41-1.88-2.09-.56-.59-1.09-1.22-2.04-1.06Z"/>
        <path class="cls-2" d="M219.08,317.71c.44,1.93,1.43,3.27,2.65,4.58,2.16,2.31,1.94,4.46.19,7.56-.55.98-1.16,1.95-2.5,1.94-.31-.64.27-.88.47-1.25.45-.82.96-1.61,1.42-2.43,1.07-1.91.73-3.71-.84-5.08-1.65-1.44-2.36-3-1.39-5.31Z"/>
        <path class="cls-7" d="M200.37,292.76c-.2-1.05-.18-2.1-.12-3.39.82.68.68,1.64,1.21,2.2.07.28.18.37.36.07,0,0,.03-.03.03-.03,1.69-.23,1.67-1.85,2.34-2.94.79,1.59-.39,3.97-2.04,4.15-.59.06-1.19-.03-1.79-.05Z"/>
        <path class="cls-7" d="M203.03,285.18c-.15.13-.31.25-.45.39-.6.63-1.33.98-2.16.61-.92-.41-1.12-1.25-.98-2.2.5-.09.51.33.65.56.54.84,1.11.58,1.64.04.75-.77.8-1.76.93-2.77.12-.92.56-.32.85.02-.04,1.13-.12,2.26-.48,3.34Z"/>
        <path class="cls-2" d="M209.1,332.4c-2.81,1.88-6.67,1.59-8.14-.85,2.79,1.45,5.45,1.33,8.14.85Z"/>
        <path class="cls-2" d="M204.03,284.49c.77.66.59,1.83,1.68,1.82.67,0,1.08-.47,2.06-2.36.21,2.63-.08,3.17-1.72,3.19-1.76.02-2.21-.53-2.03-2.66Z"/>
        <path class="cls-7" d="M209.56,304.99c-.62,1.47-.67,1.48-2.52.79-.13-.43.24-.41.45-.43,1.03-.08,1.24-.61.89-1.5-.17-.43-.3-.88-.45-1.32,1.42.24,1.43,1.41,1.62,2.46Z"/>
        <path class="cls-7" d="M194.55,300.89c.02,1.77-.36,3.43-1.31,4.96-.72-.1-.8-.62-.59-1.02.67-1.3.9-2.81,1.9-3.94,0,0,0,0,0,0Z"/>
        <path class="cls-7" d="M197.76,298.91c-1.91-.21-2.17-.63-1.79-3.13.74.73.73,2.25,2.19,1.93.04.45.05.9-.39,1.19Z"/>
        <path class="cls-2" d="M212.78,313.36c1.1-1.01.6-2.44.88-3.76,1.52,1.98,1.17,3.3-.88,3.77,0,0,0,0,0,0Z"/>
        <path class="cls-2" d="M198.58,311.4c.53.4.56,1.05.73,1.59.17.55.26,1.22-.38,1.61-.7.43-1.42.68-2.17-.08q1.82-.72,1.83-3.15l-.02.02Z"/>
        <path class="cls-2" d="M213.81,303.88c.79,1.06.7,2.05.22,3.03-.15.31-.53.46-.87.32-.43-.17-.36-.56-.09-.79.77-.66.26-1.66.74-2.56Z"/>
        <path class="cls-7" d="M195.75,304.53c-.03.38-.07.76-.1,1.15-.43.01-1.1.58-1.1-.45,0-.79-.03-1.58.73-2.14.78.29-.32,1.18.47,1.45Z"/>
        <path class="cls-2" d="M211.42,299.85c.68.92.63,1.74.28,2.55-.14.32-.49.48-.84.29-.41-.22-.29-.47,0-.75.53-.52.03-1.3.55-2.09Z"/>
        <path class="cls-2" d="M216.37,348.93c-.58-.8-1-1.62-.36-2.98.57,1.18.25,2.11.35,2.99,0,0,.01-.01.01-.01Z"/>
        <path class="cls-7" d="M216.56,345.16c-.25-.82-.27-1.32,0-1.99.33.65.23,1.17,0,1.99Z"/>
        <path class="cls-2" d="M209.5,301.99s-.09-.07-.14-.1c.05-.03.11-.07.16-.07.05,0,.09.06.14.1-.05.03-.11.05-.16.08Z"/>
        <path class="cls-2" d="M198.6,311.38c-.05-.03-.15-.06-.15-.08.03-.12.08-.09.13.09,0,0,.02-.02.02-.02Z"/>
        <path class="cls-4" d="M260.01,302.48c-.48-.81-.02-1.12.69-1.18,1.61-.14,3.2-.05,4.69.67,1.21.59,2.49.94,3.86.89.77.87,1.39,1.88,2.42,2.49.33,1.29-.43,2.9-1.56,3.15-1.09.24-1.46-.67-1.93-1.38-.77,1.29-.76,1.34.45,2.54-.32.59-.79,1.03-1.4,1.33-.02-.32.16-.83-.14-.92-1.16-.38-1.17-1.27-1.16-2.22,0-.25,0-.55-.36-.6-1.42,2.12-.93,3.23,1.67,3.73,0,.43-.16.8-.48,1.07-1.07.89-2.18,1.69-2.19,3.33,0,.64-.63,1-1.37.61-.24-.13-.49-.22-.74-.33-.83-.34-1.21-.12-1.31.83-.19,1.75-1.69,2.85-3.32,2.43-.93-.24-1.77-.74-1.87-1.86-.05-.55-.14-1.03-.6-1.43-.34-.29-.32-.76-.15-1.13,1.08-2.34,1.26-4.91,1.96-7.35.22-.78.64-1.32,1.52-1.35.97,1.45,1.08,1.45,2.61.15q-1.65-.49-1.66-2.24c0-.13-.03-.26-.05-.39,0,0,0,.02,0,.02.24-.07.53-.07.7-.22.24-.2.92-.19.58-.73-.16-.27-.58.06-.88.09ZM258.18,314.49c2.58-.02,4.37-1.61,4.81-4.13-.12-.02-.3-.1-.36-.04-1.47,1.36-2.92,2.74-4.45,4.18Z"/>
        <path class="cls-4" d="M252.92,320.5c1.08,1.69,1.32,3.22-.04,4.83-.59.7-.9,1.63-1.31,2.47-.33.68-.86.97-1.6.97-.83,0-1.19-.53-1.43-1.18-.52-1.41-.47-2.8.6-3.93,1.09-1.16,2.14-2.39,3.78-3.17Z"/>
        <path class="cls-6" d="M271.68,305.35c-1.03-.61-1.65-1.62-2.42-2.49,0-.98.03-1.97.02-2.95,0-.52.08-1.07-.44-1.42-1.07-.73-.63-1.39.09-2.04.12.11.24.23.36.34.76,1.92,1.21,2.19,2.82,1.68.48.73,1.46.61,2.03,1.19,0,.4,0,.81,0,1.21-.51.41-.47.97-.28,1.47.23.59.27,1.17.26,1.77-.55-.35-.5-1.25-1.41-1.48-.08,1.02.49,2.32-1.01,2.71Z"/>
        <path class="cls-7" d="M264.75,281.84c.09-.32.18-.65.53-.83.61.12.29.62.35.94.08.45.03.95.18,1.37.22.6.41,1.34,1.25,1.38.79.04.87-.68,1.17-1.22.73.54.7,1.17.32,1.87-.41.74-1.08.66-1.75.62-.66-.03-1.01-.61-1.56-.84-.11-.35-.1-.93-.69-.4-.12.11-.08.38-.14.57-.53,1.62-.99,2-2.17,1.83-1.24-.19-1.63-.75-1.73-2.54.37.39.66.73.99,1.04.91.84,1.67.76,2.21-.37.51-1.08.98-2.2,1.04-3.43Z"/>
        <path class="cls-7" d="M269.82,312.14c-.03,1.26.56,1.9,1.56,2.01.84.1,1.09.49,1.14,1.3.11,1.65.16,1.64,1.84.96.09-.04.23.07.35.1-.59,1.2-1.37,1.61-2.4,1.28-.59-.19-.66-.66-.59-1.12.18-1.18-.42-1.64-1.46-1.98-1.65-.54-1.67-.77-.44-2.57Z"/>
        <path class="cls-2" d="M258.71,332.7c.24-.41.59-.29.88-.22,2.29.56,4.52.51,6.67-.57.38-.19.94-.63,1.18.02.19.52-.43.74-.85.95-1.96.97-4.04.93-6.1.52-.58-.12-1.39.03-1.78-.69Z"/>
        <path class="cls-7" d="M266.49,291.57c1.24-.27.55-1.47,1.01-2.13q.67.89.09,3.34c-2.38.09-3.14-.41-3.81-2.51-.15-.46-.21-.91.41-1.2.42,1.15.8,2.37,2.3,2.5Z"/>
        <path class="cls-2" d="M254.47,303.9c.33,1.46.15,2.59.95,3.42.08.08,0,.38-.09.53-.16.27-.47.27-.71.16-.74-.33-1.1-.91-1.06-1.73.04-.72.27-1.37.92-2.38Z"/>
        <path class="cls-7" d="M274.1,304.12c.01-.6-.03-1.19-.26-1.77-.2-.5-.23-1.06.28-1.47.73,1.82,1.38,3.66,1.62,5.86-1.25-.63-.8-2.03-1.64-2.62Z"/>
        <path class="cls-7" d="M259.61,303.32c.02.13.05.26.05.39q.01,1.75,1.66,2.24c-1.53,1.3-1.64,1.3-2.61-.15.12-.9.03-1.87.9-2.49Z"/>
        <path class="cls-2" d="M257.15,299.68c.05.92-.39,2.14,1.26,2.12-.09.14-.13.28-.23.34-.58.37-1.12,1.16-1.88.4-.64-.63-.26-1.35.05-2.02.17-.37.42-.67.8-.84h-.01Z"/>
        <path class="cls-2" d="M258.96,319.87q.41,1.57,2.48,1.54c-.94,1.24-1.43,1.4-2.36.81-.83-.53-.85-.9-.12-2.35Z"/>
        <path class="cls-2" d="M254.23,309.99c.25,1.33-.18,2.47.55,3.63-1.96-.67-2.04-1.33-.55-3.63Z"/>
        <path class="cls-7" d="M260.01,302.48c.3-.04.72-.36.88-.09.33.54-.34.53-.58.73-.17.15-.46.15-.7.22,0-.35.09-.66.41-.86Z"/>
        <path class="cls-2" d="M257.17,299.69c.03-.05.07-.15.09-.15.12.03.09.08-.1.14,0,0,.01.01.01.01Z"/>
        <path class="cls-7" d="M188.92,290.43c-.76.16-.94.89-1.37,1.37-.38.43-.51,1.12-1.32,1.21-.37-.95.27-1.6.8-2.08,1.52-1.35,1.81-2.89,1.05-4.7-.54-1.28-.06-2.68-.47-3.97,1.79-.48,3.15-1.64,4.55-2.76,0,0-.03.01-.03.01.12-.14.24-.28.36-.42.85-.33,1.11-1.29,2.01-1.84-.13,1.22-.76,2.07-1.26,2.97-.46.27-.93.53-1.37.82-4.35,2.91-3.94,2.01-2.39,6.85.02.06.08.1.12.16.9,1.32.97,1.35,2.05.63.36-.23.6-.73,1.2-.5.01.85-.91,1.05-1.16,1.7-.87.44-1.81.53-2.77.54Z"/>
        <path class="cls-1" d="M183.26,279.91c.6.6.4,1.2-.02,1.79-.57.82-1.07,1.69-1.73,2.43-1.54,1.72-.87,3.58-.44,5.43.08.35.64.61.28,1.03-.29.34-.73.21-1.12.1-.32-.1-.63-.2-.95-.3-.77-1.81-.31-3.8-.88-5.64,0,0,0,.02,0,.02.66-.42,1.17-1.01,1.64-1.62.2-.26.33-.56-.02-.83,0,0,0,0,0,0,1.25.32,1.44-.73,1.89-1.45.46-.32.91-.64,1.37-.97Z"/>
        <path class="cls-1" d="M192.16,279.51c-1.39,1.12-2.76,2.28-4.55,2.76,0,0-.12.05-.12.05-.1-.64-.54-1.04-.97-1.46-.67-.65-1.29-1.34-1.99-1.95-.67-.59-.87-1.2-.65-2.11.33-1.35.47-2.74.69-4.12.59-.02,1.09.1,1.08.84-.01.53.07,1.12-.12,1.59-.39.98-.33,1.87.31,2.65.84,1.04,1.7,2.09,3.06,2.5.47.14.92.01,1.35-.22.59-.32,1.2-.61,1.9-.52Z"/>
        <path class="cls-7" d="M178.4,284.74c.56,1.84.11,3.84.88,5.64-.16.77.33,1.08.93,1.32.87.35,1.78.56,2.68.81.67.18,1.47.18,2.02.96-1.55.41-3,.1-4.29-.45-1.68-.73-2.78-.31-3.65,1.16-.23.02-.55.15-.67.05-.38-.34.07-.63.14-.96.16-.12.31-.25.47-.37,1.14-.84,1.54-1.91,1.04-3.28-.67-1.85-.16-3.83-.58-5.71.88-.4.96.21,1.03.82Z"/>
        <path class="cls-1" d="M179.62,304.13c-2.02-1-2.12-1.38-.99-4.25.23,1.59,1.74,1.37,2.55,2.12.95.88,1.93.59,2.92-.07.71-.47,1.04.4,1.57.57,0,0,0,0,0,0,0,.43,0,.86,0,1.29-1.1.14-2.24-.27-3.32.19-.89.38-1.8.36-2.72.14Z"/>
        <path class="cls-1" d="M189.6,288.06c-.04-.05-.1-.1-.12-.16-1.54-4.84-1.96-3.94,2.39-6.85.44-.3.91-.55,1.37-.82.58.34.37.76.12,1.18-.61,1.02-1.24,2.02-2.16,2.82-1.03.89-1.96,1.83-1.26,3.39.04.08-.22.29-.34.44Z"/>
        <path class="cls-7" d="M184.57,272.68c-.22,1.37-.36,2.77-.69,4.12-.22.91-.02,1.52.65,2.11.7.61,1.32,1.31,1.99,1.95.43.42.88.82.97,1.46-.77.13-1.24-.33-1.71-.82-.55-.58-1.12-1.14-1.71-1.68-.28-.26-.59-.29-.82.09-.46.32-.91.64-1.37.97-.2-.18-.4-.35-.6-.53,0,0,0,.02,0,.02.46-.48.92-.97,1.39-1.45.29-.3.48-.57.34-1.05-.65-2.31.47-4.27,1.32-6.28.08.37.15.73.23,1.1Z"/>
        <path class="cls-7" d="M179.62,304.13c.92.22,1.83.24,2.72-.14,1.08-.46,2.22-.06,3.32-.19.45.52,1.39.02,1.75.88-.79.51-1.66.71-2.58.7-1.54-.02-3.09-.07-4.63-.09-.98-.01-.95-.5-.59-1.16Z"/>
        <path class="cls-1" d="M185.41,300.35c-1.02-.36-2-.68-2.75.51-.26.41-.86.64-1.22.27-.61-.6-1.39-.95-1.98-1.54-.1-.1.09-.48.15-.73,1.54.94,3.01.73,4.47-.21.21-.14.51-.14.77-.2.54.47,1.51.61,1.3,1.66-.24.08-.49.15-.73.23Z"/>
        <path class="cls-1" d="M188.92,290.43c.96-.01,1.9-.1,2.77-.54-.15,1.46-.84,2.67-1.83,3.71-.43.45-.9.37-.93-.35-.05-.94,0-1.88,0-2.82Z"/>
        <path class="cls-7" d="M192.56,298.02c-2.51-.32-3.89-1.84-5.49-2.95-.08-.05-.11-.25-.08-.37.04-.22.23-.3.44-.29.2.01.44,0,.59.09,1.5.97,2.96,1.98,4.54,3.51Z"/>
        <path class="cls-3" d="M184.84,298.45c-.26.06-.56.07-.77.2-1.46.94-2.93,1.15-4.47.21.01-.11.02-.23.02-.34,0,0,.04-.04.04-.04,1.32-.02,2.64.17,3.93-.34.43-.17.92-.13,1.26.31Z"/>
        <path class="cls-3" d="M185.41,300.35c.24-.08.49-.15.73-.23.13,0,.27-.04.4-.02.48.07,1.22-.3,1.37.4.14.66-.6.74-1.07.94-.25-.05-.51-.11-.76-.16-.1-.39-.82-.34-.67-.92Z"/>
        <path class="cls-1" d="M186.07,301.27c.25.05.51.11.76.16.13.92-.39,1.15-1.17,1.08,0,0,0,0,0,0,0-.46-.05-.93.41-1.24Z"/>
        <path class="cls-3" d="M201.82,291.64c-.18.3-.29.21-.36-.07.12.02.24.04.36.07Z"/>
        <path class="cls-7" d="M193.74,287.16c.01.17-.05.25-.17.22,0,0-.01-.1.01-.13.04-.04.11-.06.16-.09,0,0,0,0,0,0Z"/>
        <path class="cls-7" d="M194.14,286.75c-.03.24-.15.39-.4.41,0,0,0,0,0,0,.05-.22.19-.35.41-.4h-.01Z"/>
        <path class="cls-7" d="M194.15,286.77c.06-.06.13-.12.19-.18-.01.04-.01.1-.04.12-.05.03-.11.03-.17.04,0,0,.01.01.01.01Z"/>
        <path class="cls-1" d="M192.5,279.11c-.12.14-.24.28-.36.42.12-.14.24-.28.36-.42Z"/>
        <path class="cls-1" d="M283.53,272.56c.57,1.85.86,3.76,1.03,5.69-.12.12-.25.23-.37.34-.97.91-1.96,1.8-2.91,2.73-.6.58-1.19.84-1.89.17-.11-1.07,0-1.85,1.28-2.31,1.32-.47,2.09-1.62,1.96-3.17-.05-.6,0-1.21-.02-1.82-.03-.74.19-1.32.91-1.63Z"/>
        <path class="cls-1" d="M276.18,281.07c.17.1.35.2.52.3,1.06.65,2.12,1.3,3.18,1.95-.73,1.78-.75,3.77-1.65,5.49-.08.16-.31.24-.47.35-.7-.71-.39-1.5-.09-2.23.68-1.64.45-3.06-.92-4.24-.49-.43-.66-.98-.57-1.62Z"/>
        <path class="cls-6" d="M282.17,293.17c.25-.85-.47-1.32-.75-1.97,1.89,0,3.82.27,5.57-.77.83.63,1.59-.21,2.4-.11.36,1.49-.86,1.51-1.69,1.59-1.81.19-3.49.81-5.21,1.31-.11,0-.22-.01-.32-.06Z"/>
        <path class="cls-7" d="M282.74,304.74c1.49.31,2.81.41,4.1-.46.54-.37,1.27-.1,2.23-.09-1.47,1.34-3.09,1.5-4.56,1.89-.72.19-1.43-.46-1.77-1.34Z"/>
        <path class="cls-7" d="M280.6,294.05c.43.09,1.49,0,.81.71-1.25,1.29-2.72,2.46-4.87,3.07.86-1.7,2.32-2.25,3.27-3.3.3-.1.62-.16.79-.48Z"/>
        <path class="cls-1" d="M280.6,294.05c-.17.31-.49.38-.79.48-.13-.14-.24-.33-.4-.42-2.2-1.15-2.39-1.59-1.65-3.84.24-.02.49-.05.73-.08-.09,1.44.24,2.63,1.79,3.17.17.06.22.45.32.69Z"/>
        <path class="cls-7" d="M272.1,298.47c-1.6.5-2.05.24-2.82-1.68.19.07.39.11.56.21,1.25.7,1.25.71,1.9-.46.13-.23.18-.5.58-.63.47.91.15,1.73-.24,2.56Z"/>
        <path class="cls-7" d="M269.97,288.83c.96.7.8,1.86,1.56,2.47.19.15.12.39-.04.51-.14.11-.37.18-.54.16-.62-.06-.92-.54-1.09-1.05-.22-.63-.31-1.29.12-2.09Z"/>
        <path class="cls-1" d="M281.8,301.66c.44.66,1.24.71,1.89,1.06-1.59,1.37-2.31,1.1-3.1-1.1.4.01.8.03,1.21.04Z"/>
        <path class="cls-7" d="M286.98,299.3c-.24.29-.48.57-.73.86-.86-.06-1.75-.05-2.18-1.12,1.05-.43,1.92.65,2.9.26Z"/>
        <path class="cls-3" d="M281.8,301.66c-.4-.01-.8-.03-1.21-.04.07-.31.08-.68.52-.7.52-.03.66.31.69.74Z"/>
        <path class="cls-3" d="M287.44,299.23c-.13.01-.26.03-.39.05.13-.14.27-.27.4-.41,0,0,0,0,0,0,0,.12-.01.23-.02.35Z"/>
        <path class="cls-7" d="M273.32,276.67c-.06-.05-.13-.11-.19-.16.04,0,.09,0,.11.02.04.04.05.1.08.15,0,0,0,0,0,0Z"/>
        <path class="cls-2" d="M180.01,282.32c.35.27.21.57.02.83-.47.61-.97,1.2-1.64,1.62-.41-1.33-.02-1.92,1.62-2.45Z"/>
        <path class="cls-2" d="M181.89,280.87c-.45.72-.64,1.77-1.89,1.45-.25-.53-.02-.91.38-1.24.22-.06.44-.12.65-.18.09-.19.18-.38.27-.57v.02c.19.18.39.35.59.53Z"/>
        <path class="cls-4" d="M181.3,280.33c-.09.19-.18.38-.27.57-.08-.14-.15-.28-.23-.42.11-.09.21-.19.32-.28.05.05.11.1.16.14,0,0,.01-.01.01-.01Z"/>
        <path class="cls-7" d="M180.81,280.49c.08.14.15.28.23.42-.22.06-.43.12-.65.18.14-.2.28-.4.42-.6Z"/>
        <polygon class="cls-1" points="181.3 280.33 181.29 280.34 181.29 280.36 181.29 280.35 181.3 280.33"/>
        <path class="cls-1" d="M273.35,354.01c-.56-1.33-1.63-2.42-1.74-3.97-.04-.55-.33-1.08.36-1.34.73-.28,1.13.15,1.34.81.1.33.2.65.53.82.41.22.61-.03.76-.36.83,1.03,1.56,2.11,2.27,3.41-1.34-.06-2.41.37-3.51.64Z"/>
        <path class="cls-1" d="M268.05,362.99c1.99-.54,2.74-.25,3.49,1.4.33.72.65,1.45.96,2.18.05.11.03.26.06.56-1.25,0-2.49,0-3.73,0,.47-.65.05-1.27-.1-1.88-.19-.76-.45-1.51-.68-2.26Z"/>
        <path class="cls-1" d="M269.61,357.86c.43,1.32.87,2.64,1.35,4.11-1.25-.15-2.29-.1-3.28-.52-.29-.96-.51-1.92-.43-2.94.12-1.49.57-1.71,1.82-.89.16.11.36.16.54.24Z"/>
        <path class="cls-6" d="M268.87,371.94c-.07.22-.23.35-.45.41-.32-.09-.65-.16-.95-.28-1.14-.49-1.27-.66-.7-1.75.35-.69.36-.85-.36-1.31-1.54-.97-1.55-3.62-.1-5.29.42,1.47-.37,3.18,1.03,4.32-.06.37.05.65.42.81.66.93.64,2.11,1.12,3.1Z"/>
        <path class="cls-1" d="M265.68,354.83c-.38-1.06-.83-2.07-.97-3.22-.15-1.27-.23-1.26,1.19-1.43.91,1.44,1.71,2.92,2.05,4.65h-2.27Z"/>
        <path class="cls-7" d="M273.35,354.01c1.1-.27,2.16-.7,3.51-.64-.7-1.3-1.44-2.39-2.27-3.41,0-.51-.06-1.06.73-.58.69,1.51,1.91,2.65,2.84,4,.08.76-.05,1.36-1.02,1.23-1.54-.21-2.99.1-4.36.79-.42-.84.39-.95.57-1.38Z"/>
        <path class="cls-1" d="M262.44,348.07c-.43-1.07-.52-2.19-.41-3.32.05-.5.27-.89.81-1,.49-.1.72.24.94.58.38.62.75,1.25,1.12,1.87q-.43,1.88-2.46,1.86Z"/>
        <path class="cls-7" d="M265.68,354.83c.72,0,1.44,0,2.27,0-.34-1.74-1.14-3.22-2.05-4.65.17-.08.45-.26.49-.21,1.26,1.33,2.32,2.79,2.54,4.67.09.77-.23,1.29-1.15,1.24-1.24-.07-2.4.17-3.41.96-.24.19-.53.18-.69-.09-.15-.24-.1-.54.16-.71.61-.41,1.23-.8,1.85-1.2Z"/>
        <path class="cls-7" d="M262.44,348.07q2.03.02,2.46-1.86c.9.48.69,1.33.68,2.1,0,.37-.27.67-.62.63-1.17-.12-2.26.67-3.49.33.03-.71.63-.84.97-1.2Z"/>
        <path class="cls-7" d="M256.1,340.34c.63.6,1.11,1.35,1.99,1.54.46-.19.25-.89.76-1.04.17-.05.27.01.28.19.08.74.13,1.54-.74,1.83-.8.27-1.37-.3-1.88-.83-.43-.44-.75-.93-.42-1.68Z"/>
        <path class="cls-7" d="M265.9,340.32c1.28-.39,2.15-.93,3.19-.52-.94,1.1-1.45,1.22-3.19.52Z"/>
        <path class="cls-3" d="M267.37,347.38c-1.04-.55-1.33-1.53-1.72-2.87,1.28.62,1.59,1.62,2.09,2.45-.12.14-.24.28-.36.42Z"/>
        <path class="cls-2" d="M271.7,344.11c-.37-.16-.34-.51-.39-.82.32.18.45.46.39.82Z"/>
        <path class="cls-2" d="M256.01,361.39c.08.08.24.21.22.23-.15.21-.29.11-.41-.05.06-.06.12-.12.18-.18Z"/>
        <path class="cls-2" d="M289.88,380.82c-.05-.03-.16-.06-.16-.08.02-.13.08-.1.15.09,0,0,0,0,0,0Z"/>
        <path class="cls-2" d="M293.17,377.26c-.14.23-.39.44-.56.2-.2-.28.17-.34.36-.45.06.08.13.17.2.25Z"/>
        <path class="cls-4" d="M286.99,290.44c-1.75,1.04-3.68.77-5.57.77-1.77-1.38-2.32-3.04-1.3-5.15.28-.58.38-1.29.37-1.94,0-.93.34-1.42,1.2-1.8,1.09-.5,1.39-1.94,2.57-2.41-.08.93.3,1.69.92,2.33.8.81,1.34,1.81,2.01,2.71.56.76.73,1.46.44,2.4-.31,1-.65,2.02-.64,3.1Z"/>
        <path class="cls-1" d="M286.99,290.44c-.01-1.08.33-2.1.64-3.1.29-.94.11-1.64-.44-2.4-.67-.9-1.21-1.9-2.01-2.71-.63-.64-1-1.4-.92-2.33.4-.47.74-.14,1.02.12,1.48,1.38,2.83,2.87,4.14,4.42.5.59.56,1.23.39,1.89-.35,1.32-.33,2.66-.4,4-.81-.1-1.57.74-2.4.11Z"/>
        <path class="cls-4" d="M284.19,278.59c.12-.11.25-.23.37-.34-.03.22-.16.32-.37.34Z"/>
        <path class="cls-8" d="M306.6,382.72c.11-.92-.78-1.16-1.19-1.72-.49-.68-1.05-1.31-1.46-2.08,2.62.8,4.34,2.53,5.27,5.09-1.16.15-1.58-1.19-2.61-1.29Z"/>
        <path class="cls-4" d="M306.6,382.72c1.03.1,1.46,1.44,2.61,1.29.62,1.02,1.33,2.02.48,3.26-.27,0-.54,0-.82,0,0,0,.01,0,.01,0,.12-.73-.47-1.06-.88-1.46-.9-.87-1.84-1.7-2.76-2.55.32-.52.89-.39,1.35-.53Z"/>
        <path class="cls-7" d="M305.25,383.25c.92.85,1.86,1.68,2.76,2.55.41.4,1,.73.88,1.46-.27,0-.54-.01-.81-.02-.18-.31-.48-.38-.81-.39-.03-.59-.43-.88-.86-1.22-1.64-1.29-3.46-2.36-4.82-3.99,1.45.02,2.32,1.34,3.65,1.61Z"/>
        <path class="cls-7" d="M308.88,387.26c.27,0,.54,0,.82,0,.07.27.14.54.21.81-.5-.07-.86-.32-1.02-.82Z"/>
        <path class="cls-7" d="M281.23,390.97c-1.5-1.05-3.21-4.11-3.41-6.1,1.7.73,3.08,3.2,3.41,6.1Z"/>
        <path class="cls-4" d="M268.87,371.94c-.48-1-.46-2.17-1.12-3.1,1.38-.85,2.8-1.28,4.34-.41-.62.66.07,1.3.02,1.96-1.08.52-2.16,1.04-3.24,1.56Z"/>
        <path class="cls-4" d="M273.35,368.69c-.15-.06-.29-.13-.44-.19.2-.07.34.01.44.19Z"/>
        <path class="cls-2" d="M270.93,376.02l-.14.49c-.07-.05-.14-.1-.21-.15l.3-.4s.06.06.06.06Z"/>
        <path class="cls-2" d="M270.88,375.96c.13-.14.25-.28.38-.42,0,0,.11.11.11.11-.08.2-.21.34-.43.37,0,0-.06-.06-.06-.06Z"/>
        <path class="cls-4" d="M287.44,299.23c0-.12.02-.23.02-.35.94.01,1.89-.08,2.83.14-.91.65-1.81,1.39-2.85.21Z"/>
        <path class="cls-4" d="M291.04,299.05c.27-.07.54-.15.8-.22,0,.07.03.14.02.2-.06.42.27,1.14-.36,1.16-.6.02-.29-.75-.46-1.14Z"/>
        <path class="cls-7" d="M194.13,368.32c.03-.68.07-1.36.1-2.03.55-.86.19-1.86.39-2.77.4-.56,1.11-.9,1.12-1.72.2-.05.31-.17.28-.38.52-1.46,1.35-2.75,2.3-3.95.46-.58.59-.04.67.36-.55.93-.78,1.97-.95,3.02-.28.17-.64.35-.47.73.14.31.43.17.63-.04.8-.03,1.61-.06,2.41-.09.8.41,1.59.83,2.39,1.24-.17.35-.51.36-.82.43-1.35-.01-2.68-.88-4.04-.08-.41.03-.83.09-1.01.52-.49,1.18-1.21,2.23-1.85,3.32-.15.25-.15.5.1.71,0,.17,0,.35.01.52-.39.25-.83.16-1.25.22Z"/>
        <path class="cls-1" d="M194.56,347.74c2.09.16,2.38.6,1.58,2.43-.54,1.22-1.06,2.44-1.59,3.66-.92-.39-1.91-.42-3.15-.43,1.13-2.01,2.32-3.75,3.17-5.66Z"/>
        <path class="cls-7" d="M202.17,354.72c.5.71,1.38.79,2.03,1.26.21.15.45.35.33.66-.13.32-.41.31-.65.17-1.03-.61-2.15-.65-3.31-.69-1.24-.04-1.67-.89-1.3-2.09.56-1.84,1.68-3.32,2.98-4.69.08.77-.38,1.37-.67,2.02-.39.9-.85,1.77-1,2.76-.12.16-.24.32-.36.47-.11.15-.53.24-.1.5.03-.18.05-.35.08-.53.14.01.28.02.43.03.52.04,1.03.08,1.55.12Z"/>
        <path class="cls-7" d="M194.56,347.74c-.85,1.92-2.03,3.66-3.17,5.66,1.24,0,2.23.04,3.15.43.33.39.66.77,1.07,1.25-1.21.3-2.33-.68-3.52-.34-.38-.13-.75-.13-1.14-.04-.43-.31-.63-.76-.43-1.23.83-1.91,1.68-3.81,3.13-5.35.21-.22.6-.26.91-.38Z"/>
        <path class="cls-1" d="M195.37,367.58c-.25-.2-.25-.46-.1-.71.64-1.09,1.36-2.14,1.85-3.32.18-.43.6-.49,1.01-.52.96.16,1.45.58,1.07,1.66-.26.75-.65,1.47-.64,2.3-1.07.2-2.21-.02-3.2.58Z"/>
        <path class="cls-1" d="M200.6,361.45c-.8.03-1.61.06-2.41.09-.05-.23-.1-.46-.15-.69.17-1.05.41-2.08.95-3.02.33-.05.66-.07.98-.14,1.28-.29,1.6.03,1.45,1.36-.1.86-1.02,1.43-.81,2.39Z"/>
        <path class="cls-1" d="M200.57,354.12c.15-.99.6-1.86,1-2.76.28-.65.75-1.25.67-2.02,0,0-.02.02-.02.02.27,0,.53.01.8.02.99,1.99.18,3.69-.86,5.35-.52-.04-1.03-.08-1.55-.12-.01-.16-.03-.32-.04-.48Z"/>
        <path class="cls-7" d="M198.56,345.77c.64.72,1.62.85,2.46,1.35-.4.78-.97.37-1.36.2-1.61-.7-3.21-1.25-5.04-.27.43-1.84,1.25-3.25,2.79-4.17.11,1.04-.64,1.77-1.11,2.69.85.08,1.56.14,2.26.21Z"/>
        <path class="cls-1" d="M198.56,345.77c-.71-.06-1.41-.13-2.26-.21.46-.92,1.21-1.65,1.11-2.69.24-.22.44-.52.72-.65.49-.23,1.06-.29,1.47.14.35.38.16.85,0,1.3-.26.75-1.04,1.23-1.04,2.1Z"/>
        <path class="cls-1" d="M204.13,344.18c.27-.02.53-.08.8-.07,1.23.06,1.53.42,1.24,1.61-.17.71-.48,1.38-.72,2.07-1.77.29-1.91.17-1.48-1.48.19-.72.31-1.41.17-2.14Z"/>
        <path class="cls-7" d="M204.13,344.18c.14.73.02,1.42-.17,2.14-.43,1.65-.29,1.77,1.48,1.48.3.45,1.12.48,1.05,1.31-1.17.04-2.41-.7-3.48.26-.27,0-.53-.01-.8-.02.58-1.75.93-3.58,1.91-5.17Z"/>
        <path class="cls-2" d="M195.37,367.58c.99-.61,2.13-.39,3.2-.58.81.36,1.63.73,2.44,1.1-.11.47.93,1.19-.3,1.42-.77-1.67-2.44-1.22-3.77-1.54-.48-.12-1.03.07-1.55.13,0-.17,0-.34-.01-.52Z"/>
        <path class="cls-7" d="M209.52,338.68c.67.57.08,1.39.62,1.89.74.1,1.22-.78,2.12-.55-.12,1.12-1.03,1.47-1.82,1.82-.48.21-.93-.2-1.13-.61-.42-.86-.47-1.73.21-2.56Z"/>
        <path class="cls-7" d="M203.08,340.32c-.02.52-.43.74-.91.81-.56.08-1.03-.23-1.49-.48-.33-.18-.87-.31-.73-.79.15-.51.68-.71,1.14-.45.54.3,1.04.51,1.67.43.18-.02.31.21.33.49Z"/>
        <path class="cls-6" d="M194.62,363.52c-.2.91.16,1.9-.39,2.77-.21-.29-.5-.39-.84-.4-.29-.01-.58-.02-.87-.03.43-.51,1.29-.69,1.23-1.58.37-.16.42-.69.87-.76Z"/>
        <path class="cls-7" d="M201.78,346.47c.05-.19.04-.41.15-.55.13-.16.22-.58.55-.26.05.05-.09.36-.2.5-.11.15-.3.25-.45.37l-.05-.05Z"/>
        <path class="cls-3" d="M202.17,363.12c.31-.07.65-.08.82-.43.27.13.46.38.23.59-.36.34-.73.09-1.04-.17Z"/>
        <path class="cls-3" d="M211.92,353.78c-.05.17-.1.34-.15.51-.35-.28-.04-.38.14-.51,0,0,0,0,0,0Z"/>
        <path class="cls-2" d="M212.75,361.48c-.09.2-.25.31-.47.27-.05-.01-.09-.09-.14-.14.16-.09.33-.18.49-.28,0,0,.12.15.12.15Z"/>
        <path class="cls-6" d="M196.02,361.42c.03.22-.08.33-.28.38.09-.13.19-.25.28-.38Z"/>
        <path class="cls-7" d="M201.83,346.52l-.22.25c-.23-.27.02-.26.18-.3,0,0,.05.05.05.05Z"/>
        <path class="cls-2" d="M175.15,377.18c.41-.02.82-.05,1.24-.07-.38.6-.79.67-1.24.07Z"/>
        <path class="cls-4" d="M181.22,375.19c.14-.14.28-.28.42-.43-.14.14-.28.28-.42.43Z"/>
        <path class="cls-2" d="M174.77,376.8c.14.13.27.27.41.4-.21-.06-.35-.18-.41-.4Z"/>
        <path class="cls-1" d="M178,364.68c.22-.49.58-.81,1.13-.89l.13.13c-.29.48-.68.8-1.28.75l.02.02Z"/>
        <path class="cls-1" d="M179.13,363.79c.09-.05.19-.1.28-.16-.05.09-.1.19-.16.28,0,0-.13-.13-.13-.13Z"/>
        <path class="cls-1" d="M177.98,364.67c-.05.06-.1.13-.15.19,0-.04,0-.09.03-.1.04-.03.1-.05.14-.07,0,0-.02-.02-.02-.02Z"/>
        <path class="cls-8" d="M159.82,383.25c.86-1.76,1.7-3.55,3.86-4.49-.76,1.78-2.48,3.7-3.9,4.46l.03.03Z"/>
        <path class="cls-8" d="M159.79,383.22c.1.21-.1.52-.11.51-.41-.28-.05-.36.15-.48,0,0-.03-.03-.03-.03Z"/>
        <path class="cls-7" d="M165.87,381.64c-.19.31-.49.39-.84.38.15-.42.49-.4.84-.38Z"/>
        <path class="cls-7" d="M190.51,384.05c.08.83-.14,1.58-.56,2.3-.57.98-1.14,1.95-1.49,3.04-.39,1.21-.81.32-1.2-.07.56-2.08,1.89-3.68,3.25-5.27Z"/>
        <path class="cls-7" d="M204.24,309.78c.95-.15,1.48.48,2.04,1.06.65.68,1.1,1.53,1.88,2.09.75.54,1.47,1.12,2.23,1.7-2.25.46-4.69-1.5-6.14-4.87h-.01Z"/>
        <path class="cls-7" d="M204.25,309.77c-.18-.09-.37-.38-.29-.4.46-.16.21.25.28.41,0,0,.01,0,.01,0Z"/>
        <path class="cls-7" d="M258.18,314.49c1.52-1.44,2.98-2.82,4.45-4.18.06-.05.24.03.36.04-.43,2.53-2.23,4.11-4.81,4.13Z"/>
        <path class="cls-7" d="M267.26,310.97c-2.6-.5-3.1-1.61-1.67-3.73.36.05.37.35.36.6-.01.95,0,1.84,1.16,2.22.29.1.11.6.14.92,0,0,.01-.01.01-.01Z"/>
        <path class="cls-4" d="M198.04,360.85c.05.23.1.46.15.69-.2.21-.48.36-.63.04-.17-.38.19-.56.47-.73Z"/>
        <path class="cls-4" d="M200.19,354.57c-.03.18-.05.35-.08.53-.42-.26,0-.35.1-.5,0,0-.02-.03-.02-.03Z"/>
        <path class="cls-4" d="M200.57,354.12c.01.16.03.32.04.48-.14-.01-.28-.02-.43-.03,0,0,.02.03.02.03.12-.16.24-.32.36-.47Z"/>
      </g>
    </g>
  </g>
</svg>