<?xml version="1.0" encoding="UTF-8"?>
<svg id="GRIFOS" xmlns="http://www.w3.org/2000/svg" viewBox="0 0 455.05 452.32">
  <defs>
    <style>
      .cls-1 {
        fill: #231c19;
      }

      .cls-1, .cls-2, .cls-3, .cls-4, .cls-5, .cls-6, .cls-7 {
        stroke-width: 0px;
      }

      .cls-2 {
        fill: #7e4326;
      }

      .cls-3 {
        fill: #261d19;
      }

      .cls-4 {
        fill: #be5a26;
      }

      .cls-5 {
        fill: #e88b3c;
      }

      .cls-6 {
        fill: #fefdfc;
      }

      .cls-7 {
        fill: #cba97d;
      }
    </style>
  </defs>
  <g id="Legs">
    <g id="L3">
      <path class="cls-5" d="M185.8,347.72c4.76-1.25,9.53-1.17,14.26.03,4.5,1.13,8.82,2.8,13.07,4.68.27.12.56.22.76.45-.02.13,0,.27-.06.37-1.26,2.44-2.48,4.9-4.17,7.09-.76.98-1.81,1.66-2.5,2.68-.54.42-1.3.43-1.81.9.13.27.38.31.64.32.77.05,1.54-.01,2.27-.21,1.42-.39,2.8-.44,4.26-.13,4.34.92,7.2,3.39,8.49,7.66.32,1.06.4,2.17.53,3.25.13,1.11-.04,1.22-1.19,1.18-.51-.02-1-.06-1.5-.22-2.5-.83-5.02-1.61-7.2-3.16-.21-.15-.44-.27-.7-.27-.91-1.02-1-2.45-1.72-3.65-.33.4-.21.73-.14,1.04.27,1.26.77,2.43,1.44,3.52,1.73,2.81,4.48,4.18,7.47,5.16.19.06.42.02.63.03.8.63,1.82.58,2.72.87.96.31,1.78.72,2.27,1.67.16.31.28.74.75.78.12.26.08.54.25.82.61.96,1.45,1.64,2.34,2.3,1.88,1.39,2.13,2.69.95,4.71-.34.58-.75,1.12-1.12,1.69-.27.66-.43,1.41-.83,1.98-.63.89-.76,1.86-.76,2.88,0,.34-.06.68-.02,1.02.06.58-.33.73-1.01.81.46.13.66.18.85.25.68.25.79.87.82,1.46.03.64-.55.65-1,.74-.21.04-.42.05-.59.2-.18.15-.26.35-.17.57.07.18.24.18.43.14.45-.1.91-.18,1.33-.26.28.25.34.57.37.84.04.5.47,1.01.16,1.46-.25.37-.81.09-1.21.21-.28.09-.53.28-.86.21-.26-.59.14-1.26-.21-1.97-.21.72-.11,1.35-.16,1.97-.04.57.29.71.78.75.53.04,1-.16,1.51-.2.37-.03.67.06.82.45.19.47.46,1.11.21,1.43-.34.43-1.06.53-1.64.54-.5,0-.41-.54-.51-.9-.04-.16-.1-.33-.39-.32-.17.5-.13,1.05-.12,1.58,0,.73.18.84.85.58.75-.29,1.46-.69,2.36-.61.21.79.01,1.6.03,2.39-.55.58-1.09,1.18-1.67,1.74-.74.72-1.62.87-2.58.47-1-.41-1.51-1.16-1.65-2.22-.16-1.22-.07-2.45-.14-3.68-.09-1.69-.69-2.45-2.29-2.97-.1.43.26.69.36,1.04,0,1.16-.24,2.27-.54,3.38-.46,1.69-.59,3.39-.35,5.16.2,1.46.5,2.91.48,4.41-.04,2.58-2.02,4.21-4.39,4.02-.88-.07-1.58.17-2.18.8-.27.27-.54.55-.85.77-1,.72-2.01,1.51-3.36,1.27-1.38-.25-2.54.25-3.55,1.06-1.4,1.11-2.93,1.47-4.66,1.22,0-.68.05-1.36.01-2.04-.13-2.28-1.22-3.4-3.44-3.61-.08,0-.15-.07-.28-.14.56-.88,1.32-1.38,2.37-1.44,1.14.49,2.1,1.23,2.9,2.18.24.29.51.57.82.78.84.56,2.06.38,2.64-.37.07-.09.13-.24.1-.34-.05-.19-.24-.22-.41-.18-.16.04-.33.09-.47.17-.57.35-1,.22-1.43-.28-.6-.7-1.22-1.4-2.06-1.85-.38-.2.15-.28.14-.45.59-.14,1.19-.27,1.78-.41,1.03.49,2.04,1.02,2.82,1.88.38.42.68.42.96-.1.09-.18.32-.28.23-.61-.55-.08-1.03-.41-1.51-.73-.52-.36-1.16-.51-1.62-.96.4-.12.57-.64,1.05-.62.08.09.15.25.25.27,1.02.25,1.86.78,2.66,1.44,1.17.98,2.36.61,2.9-.85.09-.26.2-.59-.24-.74-.32.33-.66.65-.97,1-.37.41-.7.39-1.06-.02-.75-.85-1.72-1.34-2.77-1.71.43-.36.87-.71,1.3-1.07,1.33.03,2.59.29,3.75,1.01,1.04.65,2.65.07,2.69-1.43.02-.58.21-.85.82-.84.57,0,.8-.45.95-.9.18-.54.2-1.11.06-1.72-.59.29-.46.79-.59,1.16-.21.57-.43.77-.99.4-1.02-.68-2.17-.93-3.39-.87-.34.01-.69.02-.92-.3.5-.82.88-1.71,1.52-2.44,1.38-.12,2.72-.03,3.95.69.44.26.98.32,1.26-.15.5-.85.84-1.78.44-2.94-.51.63-.61,1.26-.84,1.84-.14.36-.35.47-.68.32-1.13-.51-2.33-.64-3.7-.63.37-.81.68-1.49.98-2.18.19-.42.52-.48.94-.49.91-.03,1.76.26,2.63.44,1.17.26,1.57.03,1.71-1.14.06-.52.19-1.07-.11-1.64-.5.27-.53.69-.65,1.09-.26.83-.33.85-1.16.64-.49-.12-.99-.25-1.48-.34-.35-.06-.79.39-1.06-.03-.22-.35.18-.71.23-1.08.03-.2.22-.38.02-.65-.51-.02-.77.31-1.03.73-.88,1.4-1.69,2.85-2.69,4.16-1,1.31-2.03,2.61-3.11,3.87-1.3,1.52-2.8,2.84-4.67,3.67-.29.13-.67.26-.85.08-.73-.68-1.4-.25-2.08.03-.33.13-.68.29-.93-.05-.6-.76-1.47-1.28-1.95-2.14.67-.36,1.34-.73,2.01-1.09,1.06.31,2.09.61,2.84,1.54.76.94,1.35.96,2.25.16.36-.32,1.18-.67.7-1.24-.33-.38-.74.34-1.06.62-.45.4-.74.44-1.1-.12-.55-.86-1.33-1.41-2.41-1.38-.22,0-.42-.05-.59-.2.66-.63,1.31-1.29,2.1-1.77,1.14.34,2.25.72,3.12,1.6.41.42.9.4,1.41.22.96-.34,1.5-1.25,1.44-2.44-.54.17-.55.71-.76,1.1-.43.79-.76.87-1.51.35-.17-.12-.31-.3-.48-.41-.77-.52-1.5-1.1-2.49-1.15.41-.66,1.05-1.06,1.69-1.46.13,0,.21-.07.26-.19l.04-.03.23-.22s.03-.03.03-.03c.78-.44,1.47-.12,2.14.27,2.2,1.27,2.41.33,3.17-1.15.04-.07.03-.17.05-.25.03-.04.07-.07.1-.11-.04.03-.07.07-.11.1-.53-.03-.68.43-.95.74-.25.29-.53.6-.98.41-.84-.35-1.67-.73-2.6-1.14.81-.53,1.1-1.33,1.66-1.91.4-.41.77-.61,1.32-.21.41.29.9.46,1.36.69.63.32,1.23.13,1.61-.35.51-.64.85-1.41.69-2.32-.7.19-.68.8-.92,1.22-.24.42-.46.67-1,.41-.64-.32-1.33-.55-1.99-.81-.12-.53.64-.92.15-1.73-.35.7-1.02.86-1.34,1.54-.34.73-.95,1.29-1.74,1.58l-.09-.08c-.02-.15.02-.42-.23-.28-.33.18-.59.48-.78.82-.33.6-.83.8-1.49.67-.25-.46-.04-.79.29-1.09.74-.66,1.48-1.32,2.21-1.98,1.13.6,1.22.17,1.73-.49.47-.6.84-1.25,1.12-1.94.18-.44.43-.8.72-1.15.31-.16.53-.42.73-.7.76-1.08,1.32-2.28,1.74-3.52.16-.46.31-.62.78-.57.55.06,1.11.03,1.66.08,1.46.13,2.77-.33,4.04-.97.72-.36,1.43-.76,2.09-1.22.75-.52,1.48-1.09,2.01-2.02-.71-.25-1.35-.12-1.96-.19-.22-.02-.45-.03-.24-.35.16-.25.04-.39-.21-.45-.28-.08-.52-.24-.85-.15-.61.16-.98-.29-1.2-.71-.21-.42.36-.48.58-.7.76-.78.5-1.83-.66-2.28.04.24.07.44.12.64.08.36.31.76-.16,1.02-.41.23-.84.44-1.31.12-.43-.3-.94-.51-1.25-1.01,1.58-.59,1.82-.94,1.23-2.06-.26,1.22-1.15,1.66-2.11,1.52-.89-.13-1.63-.77-2.1-1.69.89-.14,1.88.36,2.38-.68.29-.6,0-1.27-.76-1.94-.15.12-.15.29-.13.46q.15,1.1-.89,1.4c-.16.05-.33.11-.47.2-.55.37-.85-.02-1.19-.34-.38-.35-.27-.64.03-.97.21-.23.29-.51.1-.81-1.41,1.17-2.29.96-3.25-.78.49-.14.93.42,1.46.01.85-.64.87-1.34-.05-2.32-.03-.12-.06-.14-.09-.06,0,0,.06.04.1.05-.01.25,0,.51-.04.76-.07.58-.4,1.05-.98.93-.67-.15-1.35-.13-2.01-.27-.83-.19-1.43-.81-1.83-1.5-.24-.41.5-.7.54-1.17,0-.11.11-.21.17-.31,2.09.41,2.81.02,2.5-1.33-.93.91-1.67,1.21-3.01-.15-.39.42-.43.88-.28,1.41.12.43-.16.63-.54.69-.39.07-.74-.03-1.06-.31-.53-.48-1.1-.93-1.65-1.39.15-.32.58-.27.69-.51.41-.86.98-.77,1.74-.49,1.07.39,1.54-.11,1.44-1.39-1,.89-1.77.82-2.72-.21-.2-.22-.2-.68-.73-.63-.01.3-.04.6-.03.89.03.62-.16,1.06-.8,1.27-.64.21-1.05-.05-1.44-.51-.73-.87-1.26-1.79-1.02-3,.1-.49.12-1,.23-1.5.2-.94.24-1.9-.54-2.67-.02-.49-.05-.98-.07-1.46.09-.29.12-.58-.13-.81-.67.06-.73.13-.83.99-.36.12-.5.45-.67.73-.63,1.06-1.55,1.6-2.78,1.78-2.38.35-4.65.01-6.85-.87-.41-.16-.8-.45-1.11-.88.42-.2.72-.03,1.04.06,1.36.38,2.74.6,4.14.22.3-.08.67-.12.7-.52-.17-.19-.34-.2-.51-.2-2.2.07-4.32-.25-6.34-1.15-.07-.03-.17,0-.25,0-.71-1.29-.91-2.71-1.04-4.15-.13-1.49.53-2.73,1.32-3.89.62-.9,1.03-1.84,1.03-2.94,0-.29.09-.59.12-.88.17-1.57.85-3,1.2-4.53ZM197.41,357.76c.04.12.05.28.13.34.8.68,1.61.59,2.49-.21.25-.22.34-.69.72-.67,1.76.1,2.5-1.75,4.05-2.08.28-.06.56-.42.71-.71.44-.85.84-1.71,1.49-2.58-.67-.08-1.19-.2-1.09-.98-.19.3-.45.61-.38.83.28.94-.35,1.48-.8,2.12-.33.47-.72,1-1.31.71-.51-.26-.5-.94-.53-1.48-.02-.27.17-.46.35-.65.16-.17.45-.29.3-.61-.12-.11-.25-.11-.35-.04-.95.66-1.82.74-2.53-.35,0-.02-.08,0-.22.03-.16.54.48,1.17-.14,1.74-.59.54-1.14.04-1.84.13.93.48.91,1.2.78,1.98-.06.39.19.73.33,1.08.34.81-.11,1.45-1.02,1.51-.38.02-.7-.32-1.12-.12ZM214.68,399.17c-.62.38-.75.53-1.1,1.26-.4.83-.17,1.33.72,1.4.84.07,1.67.12,2.5.33.7.18,1.37-.24,1.53-.81.04-.16.07-.35-.06-.48-.15-.14-.33-.09-.44.04-.43.5-.91.41-1.48.27-.63-.15-1.27-.43-1.92-.17-.31-.74.65-1.18.26-1.84ZM193.12,359.26c-.49-1.29-.67-1.44-2.78-2.36-1.66-.72-2.8-.96-3.53-.71,1.07.48,2.09.98,3.14,1.4,1.07.42,1.92,1.3,3.17,1.67ZM212.59,398.65c-.92,1.89-.91,1.87-2.69,1.05-.42-.19-.65-.35-.45-.83.08-.19.11-.41-.08-.59-1.05,1.16-.97,1.6.37,2.18.43.18.84.4,1.28.56.77.29,1.06.18,1.47-.5.32-.53.41-1.07.11-1.88ZM215.39,395.67c-.51.19-.48.6-.58.89-.28.87-.08,1.15.84,1.24.5.05,1.02,0,1.51.16.28.09.57.15.87.18.24.03.55.07.63-.26.08-.33-.18-.42-.44-.49-.57-.16-1.13-.31-1.74-.33-1.31-.03-1.31-.05-1.09-1.4ZM186.95,362.52c1.62.75,3.3.99,4.29.63-1.35-.78-2.73-.35-4.29-.63ZM210.4,396.52c1.32,1.22,1.91,1.39,2.85.81-.95-.25-1.69-1.09-2.85-.81Z"/>
      <path class="cls-5" d="M244.11,346.03c.34-.42.83-.58,1.3-.76,6.23-2.32,12.58-2.72,19.05-1.16.57.14,1.17.23,1.63.65.04.85.12,1.7.12,2.55,0,1.02-.1,2.03-.36,3.02-.17.64-.63,1.13-1.22,1.4-.5.23-1,.08-1.34-.42-.11-.16-.3-.15-.45-.03-.14.11-.22.28-.15.45.11.28.29.53.38.8.21.6-.25,1.51-.83,1.64-.36.07-.79.18-1.06-.21-.28-.41-.67-.78-.4-1.38.18-.4.47-.82.11-1.26-.26-.05-.33.14-.42.27-1.23,1.78-1.39,1.79-2.61.21-.02.08-.08.16-.07.23q.35,1.48,1.95,1.6c.19.01.31.08.37.27.11.32.26.63.35.96.16.59-.07,1.07-.57,1.22-.52.15-.92,0-1.14-.52-.17-.4-.33-.79-.54-1.29-.42,1.24-.12,2.17.76,2.63.86.45,1.53.23,2.24-.79.2-.29.35-.57.73-.65,1.05-.24,1.69-.93,2.03-1.92.22-.66.72-.85,1.43-.92-.13,1.76-.33,3.42-1.06,4.98-.71,1.52-1.21,3.14-2.47,4.47.9.17,1.5-.16,2.07-.53.82-.54,1.6-1.12,2.39-1.69.25,1.11-.06,2.3.39,3.44.74-.45.28-1.23.75-1.66.55-.11.64-.65.89-1.01.7-1.01,1.38-1.2,2.48-.63,1.29.67,2.23,1.71,2.85,2.98,1.01,2.08,1.62,4.27,1.58,6.61-.01.82-.3,1.08-1.1.82-.88-.29-1.76-.63-2.52-1.19-.34-.25-.66-.54-1.13-.49-.73-.68-.95-1.75-1.78-2.35.68,2.87,2.4,4.85,5.14,5.97,1.49.11,2.24,1.04,2.72,2.36.3.83.8,1.57,1.36,2.26.42.52.81,1.08,1.53,1.23l.03.04c.98.89,1.85,1.87,1.98,3.25.09,1,.2,2-.02,3.02-.13.61-.11,1.26.14,1.87-.36.41-.33.91-.31,1.4.02.81-.01,1.62.2,2.4.57,2.08,1.2,4.14,1.86,6.2.29.92.84,1.77.8,2.79h0c-.7-.75-1.3-1.54-1.58-2.56-.19-.67-.54-1.29-1.33-1.6-.24.79.62,1.23.5,1.95-1.06.04-2.09,0-2.86.78-.34-.25-.08-.87-.76-.87.13.58-.17,1.28.42,1.66.62.41,1.1-.14,1.6-.45.14-.09.29-.22.45-.23.57-.04,1.26-.35,1.64.28.51.84,1.09,1.66,1.44,2.7-1.45-.18-2.74-.1-3.88.8-.31-.75-.04-1.62-.93-2.2.05.97.02,1.78.15,2.56.12.69.51.83,1.08.41,1.02-.76,2.09-1.04,3.35-.75.76.18,1.04-.05,1.03-.84-.01-.6.17-.97.71-1.19.65,1.87,1.32,3.74,2.22,5.51.41.8.78,1.6.82,2.52-.03.41-.08.8-.65.47-.95-.56-1.96-.37-2.98-.27-1.08.11-1.57,1.34-2.68,1.4-.03,0-.08.14-.07.21.05.43-.12.93.32,1.26.55-.28.84-.77,1.22-1.17,1.05-1.1,3.71-1.29,4.63.15-1.38.19-2.65.61-3.68,1.59-.27.26-.48.74-.78.8-.74.14-.49.54-.36.92.08.24.21.49.53.47.25-.02.3-.24.38-.44.3-.74.9-1.2,1.56-1.63,1.22-.8,2.49-.71,3.79-.33.08.11.16.22.24.32-.27.37-.69.33-1.05.3-1.41-.13-2.35.61-3.05,1.69-.24.37-.96.85-.47,1.27.56.48.79-.38,1.07-.68,1.39-1.48,2.14-1.71,4.04-1.06.26.09.54.36.74-.08,2.33,1.35,3.34,3.55,2.78,6.09-.31-.64-.61-1.28-.94-1.9-.33-.64-.76-1.23-1.27-1.74-1.51-1.51-3.39-1.27-4.45.58-.6,1.05-.88,2.2-.97,3.39-1.3.16-2.22-.31-2.61-1.62-.05-.17-.19-.27-.36-.31-.07-.49-.14-.98-.21-1.48.38-.3.1-.53-.12-.71-1.16-1-1.87-2.26-2.44-3.67-.48-1.2-1.01-2.4-1.71-3.49-.51.17-.6.59-.65.94-.18,1.13-.47,2.24-.38,3.4.04.56.05,1.42-.32,1.54-.82.28-.47.8-.58,1.27-.26,1.03.11,2.01.16,3.01.07,1.47-.61,2.36-2.08,2.73-.05-.16-.11-.32-.15-.49-.28-1.05-.86-1.94-1.53-2.77-1.25-1.54-2.8-1.61-4.14-.14-1.03,1.13-1.65,2.46-1.71,4.02-.53-.22-.79-.83-1.37-.98-.17-1.86.45-3.5,1.44-5.03.51-.79.97-1.58,1.15-2.53.39-2.09.55-4.2.61-6.33.01-.44.01-.89-.27-1.3-.66,2.2-.88,4.47-1.24,6.71-.14-.2-.28-.4-.42-.6-.07.05-.18.07-.2.13-.76,2-2.3,3.3-4.03,4.41-.99.64-1.89,1.3-2.61,2.29-.84,1.16-2.1,1.81-3.56,1.98-.13-1.31-.31-2.6-1.01-3.75-.6-.99-1.4-1.69-2.68-1.52-.38.05-.75.14-1.12.2-.08-.06-.16-.12-.24-.18.12-.81.76-1.15,1.39-1.48.86-.45,1.8-.63,2.75-.8.44.52,1.15.65,1.62,1.15.41.43.76.91,1.17,1.34.61.65.94.67,1.64.12.2-.16.37-.35.53-.55.17-.19.36-.44.16-.67-.25-.29-.47-.02-.62.16-.39.46-.8.52-1.14.02-.61-.91-1.57-1.39-2.4-2.04.44-.27.87-.54,1.31-.81,1.39.21,2.64.67,3.68,1.7.74.73,1.25.56,2.02-.42.11-.1.32-.17.07-.35-.03.11-.05.23-.08.34-.58.11-1.06-.02-1.5-.46-.7-.7-1.52-1.23-2.51-1.45-.21-.05-.37-.21-.48-.39.34-.38.67-.75,1.01-1.13,1.49.16,2.93.48,4.03,1.61.06.06.13.1.21.15.16.09.34.12.48.02.22-.16.13-.38.01-.56-.57-.87-1.29-1.58-2.34-1.81-.49-.11-1-.15-1.44-.42.25-.54.49-1.08.74-1.62,1.38-.08,2.8-.36,4.01.65.03.03.07.04.11.05.82.28,1.39-.02,1.43-.87.04-.91.09-1.85-.5-2.72-.24.93-.21,1.84-.31,2.86-1.19-.87-2.38-.99-3.63-.81-.25.04-.51.04-.76.05.11-.27-.03-.63.27-.83.14-.04.22-.13.19-.28v-.02c.83-.23.96-1.01,1.25-1.63.47-1.04.44-1.04,1.59-.85.59.1,1.14.31,1.71.47.66.19,1.19-.03,1.22-.53.04-.87.2-1.78-.4-2.57-.51.39-.3.96-.42,1.43-.13.52-.36.83-.99.6-.64-.24-1.31-.35-1.99-.25h-.01c-.16-.79.2-1.52.2-2.28,0-.28.21-.44.46-.55.64-.28,1.27-.41,1.98-.18.33.11.89.19.96-.32.09-.67.2-1.41-.34-2.06-.23.3-.16.55-.16.79,0,.42-.19.63-.61.65-.51.02-1.02.04-1.53.05-.19,0-.36-.13-.35-.3.06-.73.25-1.44.68-2.03.35-.48.94-.3,1.43-.26,1.25.12,1.34.06,1.27-1.15-.02-.38.03-.86-.18-1.11-.76-.93-.11-1.46.47-2.04.61-.61,1.36-1.08,2.17-1.3,2.18-.59,3.69-2.03,5.05-3.71,1.31-1.61,1.84-3.42,1.51-5.47-.08-.48-.16-.99-.66-1.33-.87.82-1.35,2.25-2.97,1.64-.86-.32-1.31-1.06-1.89-1.67-.64-.67.64-1.19.16-1.86-.92,1.03-1.09,1.06-1.78.46-.46-.4-.56-.75-.17-1.3.62-.88.56-1.26-.08-1.91-.03.14-.06.26-.08.38-.08.61-.25,1.25-.88,1.43-.51.15-.74-.47-1.11-.73-.1-.07-.18-.18-.28-.26-.46-.35-.75-.63-.41-1.34.39-.79.02-1.43-.78-1.82.03.51.07.98.06,1.44,0,.32-.17.63-.53.58-.53-.07-.89-.46-1.27-.81-.34-.32-.1-.62.02-.93.18-.47.32-.92-.23-1.33-.12.33-.18.57-.29.8-.35.73-.52.78-1.11.27-.61-.53-1.24-1.03-1.61-1.79-.19-.38-.48-.71-.97-.73-.13-.27-.02-.76-.59-.65-.19-.72.1-1.55-.41-2.3-.32.5-.4.96-.49,1.41-.32,1.48-1.21,2.51-2.54,3.16-1.19.58-2.48.84-3.76,1.11-.37.08-.74.22-1.11.25-.33.02-.67-.07-1-.14-.33-.06-.7.19-1.05-.18,1.94-.61,3.9-1.08,5.74-2.25-.58-.16-.93,0-1.3.1-2.12.59-4.2,1.32-6.43,1.47-1.76.12-2.9-.65-3.76-2.09-.77-1.29-.84-2.74-1.02-4.16.17-1.36.79-2.56,1.32-3.79.37-.27.44-.71.62-1.09.07-.15.12-.34-.08-.44-.16-.08-.34-.04-.47.09-.39.38-.55.85-.53,1.38-.87,1.1-1.27,2.44-1.82,3.7-1.36-.83-2.45-1.94-3.4-3.2-.29-.39-.51-.79-.07-1.24.14-.14.23-.37.27-.57.11-.46.23-.68.84-.58.93.15,1.25-.23,1.37-1.29-.23-.13-.4.04-.58.13-.48.25-.99.4-1.42,0-.47-.44-.58-.97-.26-1.61.38-.77.2-1.53-.35-2.36,0,.58.04,1-.03,1.41-.13.83-.7,1.05-1.36.55-.28-.21-.54-.46-.84-.72q.08,1.13,1.02,1.77c1.07.72,1.13,1.47.18,2.44-.96-1.24-1.41-2.68-1.83-4.15-.18-.62-.43-1.12.43-1.41.28-.1.34-.47.44-.75.07-.2.11-.43-.13-.55-.2-.09-.31.08-.4.22-.1.14-.16.31-.27.43-.28.3-.5.2-.7-.12-.18-.31-.21-.64-.23-.98-.04-.85-.09-1.7-.13-2.54,2.5-1.66,5.17-2.87,8.21-3.1-.18.75-.18,1.5-.09,2.27.31,2.71,1.2,5.23,2.47,7.63.98,1.38,2.07,2.61,3.89,2.85,1.85,1.63,5.16,2.87,6.89,2.54-1.52-.68-2.98-1.34-4.44-2,.23-.52-.21-.67-.51-.86-1.25-.79-2.16-1.88-2.89-3.16-1.43-2.48-2.1-5.28-3.36-7.83-.33-.68-.73-1.35-.88-2.11ZM277.42,391.08c.93-.45,1.86-.85,2.72.13.12.13.31.15.44,0,.07-.09.09-.23.09-.35,0-.32-.21-.54-.44-.73-1.03-.86-2.3-.47-2.89.9-.1.08-.18.17-.15.31,0,.03.06.05.09.08.05-.11.09-.21.14-.32ZM270.78,400.18c-.5.96-.87,2.53-.62,3.12.23.54.13.97-.05,1.46-.17.48-.39.98-.38,1.47,0,.47-.51,1.08.1,1.4.48.25.81-.34,1.17-.59,1.43-.96,2.72-.94,4.1.08.27.2.56.4.88.51.72.25,1.2-.1,1.13-.86-.1-.97-.36-1.91-.9-2.74-.09-.14-.24-.22-.42-.13-.3.81.38,1.58.21,2.57-1.82-1.54-3.62-1.19-5.42-.26-.21-.54.06-.87.16-1.22.1-.37.38-.88.23-1.08-.44-.61.02-.72.37-.91,1.25-.66,2.52-.61,3.81-.08.7.28,1.29-.06,1.2-.72-.11-.88-.3-1.79-1.04-2.47-.55.66,0,1.41-.36,2.03-.64-.04-1.23-.3-1.89-.27-.68.03-1.24.53-1.93.47-.29-.54-.05-1.14-.36-1.77ZM284.07,402.29l1.62,2.72c-.03.08-.05.16-.08.24-2-.98-3.55-.21-4.95,1.29-.47-1.01-.07-2.03-.67-3.12-.25,1.06-.1,1.86-.07,2.64.02.49-.13,1.12.46,1.35.61.24,1.01-.27,1.41-.64.03-.03.06-.06.09-.09.76-.88,1.7-1.03,2.77-.71.37.11.74.21,1.09.36.38.16.68.02.92-.23.23-.24.19-.57.04-.84-.66-1.16-1.16-2.47-2.63-2.96ZM270.76,396.16c-.42.87-.43,1.6-.6,2.28-.09.35-.22.8.19,1.03.37.21.61-.18.87-.37,1.05-.72,2.14-.96,3.36-.45,1.15.48,1.16.46,1.09-.82-.02-.3.01-.61-.08-.88-.18-.56-.24-1.21-.83-1.61-.41.61.1,1.05.09,1.54,0,.36,0,.79-.5.64-1.25-.37-2.31.12-3.34.71-.52-.62.13-1.28-.24-2.06ZM268.12,415.51c1.46-.43,2.58-1.24,4.05-1.01,1.42.22,2.23,1.42,3.53,1.93-.37-1.41-1.93-2.74-3.29-2.89-1.95-.22-3.58.48-4.3,1.97ZM276.3,410.32c-.05-.37-.07-.43-.44-.8-1.11-1.09-2.46-1.25-3.9-.95-.84.17-1.65.44-2.15,1.23-.09.15-.19.31,0,.44.09.06.25.07.35.04.2-.07.38-.18.57-.27,1.7-.87,3.33-.93,4.83.45.06.06.13.11.2.16.15.11.31.17.45.01.07-.09.08-.23.1-.3ZM246.72,368.71c1.15-.14,1.79-.66,2.58-.87,1.81-.47,3.65-.7,5.51-.76.3,0,.68-.04.7-.39.03-.32-.32-.48-.61-.55-.24-.06-.5-.03-.76-.04-.9-.04-1.77.17-2.62.41-1.62.45-3.22.97-4.8,2.2ZM275.89,413.49c-.06-1.24-.75-2.12-2.06-2.22-2.38-.18-3.65-.21-4.64,1.79,4.13-1.68,3.93-1.11,6.7.43ZM260.37,347.55c0,.47.05.88.27,1.26.56.96,1.57,1.21,2.49.61.62-.4,1.18-1.9.98-2.62-.03-.12-.08-.24-.24-.25-.19,0-.32.11-.38.27-.19.47-.35.95-.54,1.42-.16.4-.47.59-.91.55-.42-.05-.69-.32-.85-.68-.08-.19-.08-.41-.11-.62-.05-.33-.04-.81-.46-.76-.46.06-.2.55-.25.82ZM270.59,392.52c.46-.12.59-.47.83-.7.73-.73,1.38-.78,2.23-.15.14.1.26.22.39.33.14.11.3.18.45.06.15-.12.12-.32.08-.47-.05-.16-.13-.31-.23-.44-.51-.67-1.43-1.01-2.13-.8-1.1.32-1.56.91-1.6,2.19ZM277.63,394.42c1.15-.57,2.19-.69,3.26-.3.1.04.25-.02.36-.07.3-.14.33-.52.06-.72-.98-.72-2.84-.24-3.68,1.09ZM270.45,395.21c.83-.34,1.41-.59,2.01-.81.6-.22,1.22.11,1.92.04-1.35-.98-2.66-.74-3.92.77Z"/>
      <path class="cls-1" d="M199.1,418.7c-1.05.05-1.81.55-2.37,1.44.13.07.2.13.28.14,2.22.21,3.3,1.33,3.44,3.61.04.68,0,1.36-.01,2.04-.59,1.5-1.97,1.81-3.49,2.08,1.18.72,1.8.78,4.06.82,2.86.05,4.61-1.74,6.12-3.63.38.04.4.19.39.3-.1.71.18.79.86.78,1.79-.04,3.04-.91,4.09-2.23.29-.36.45-.89,1.03-1.03.02.2.03.33.04.45.03.89.03.89.81.81.97-.11,1.94-.21,2.91-.33,2.44-.31,4.25-1.42,4.95-3.93.22-.79.27-1.61.16-2.41-.19-1.42,0-2.8.27-4.18.08-.42.08-.7-.28-1-1.68-1.38-2.15-3.17-1.72-5.26.25-1.22.09-2.37-.8-3.32-.1-.35-.46-.61-.36-1.04,1.6.52,2.2,1.28,2.29,2.97.06,1.22-.02,2.45.14,3.68.14,1.06.66,1.81,1.65,2.22.96.39,1.84.24,2.58-.47.58-.56,1.11-1.16,1.67-1.74.82-.35,1.04-1.04,1.08-1.86.04-.91-.38-1.64-.81-2.38-.28-.48-.64-.93-.75-1.47-.32-1.67-.68-3.33-.87-5.02-.11-.97-.22-2.02.37-3.05.69.96.1,2.07.55,2.98.37-.15.43-.46.53-.73.87-2.27,1.93-4.45,3.15-6.55.63-1.08,1.03-2.25,1.26-3.46.43-2.24,0-4.59-2.35-5.81-.83-.44-1.51-1.11-2.16-1.78-1.61-1.66-2.73-3.59-3.08-5.9-.2-1.34-.32-2.7-.4-4.06-.21-3.84-2.19-6.53-5.45-8.36-1.36-.76-2.78-1.24-4.34-.43-.45.23-.98.3-1.45.5-1.69.71-3.47,1.14-5.23,1.66-.82.24-1.66.4-2.52.19.52-.48,1.27-.48,1.81-.9.52-.17,1.05-.33,1.57-.51,3.4-1.13,6.71-2.47,9.73-4.43.75-.48,1.48-.99,2.01-1.72,1.39.6,1.49,1.24.32,2.14-.67.51-1.36.98-2.07,1.48.3.42.74.5,1.09.7,3.42,1.94,5.61,4.75,6.11,8.73.18,1.48.38,2.95.52,4.43.24,2.62,1.44,4.67,3.54,6.22.51.38,1.06.71,1.56,1.1,2.28,1.78,2.98,4.16,2.47,6.92-.39,2.11-1.39,3.99-2.42,5.85-1.05,1.9-1.88,3.89-2.57,5.95-.52,1.57-.32,3.03.5,4.4.7,1.17,1.08,2.39.93,3.76-.06.56.04,1.08.18,1.63.48,1.92.28,3.79-.53,5.6-.49,1.09-1.34,1.87-2.32,2.48-1.15.71-1.81.37-2.03-.96-.14-.84-.23-1.69-.54-2.49-.12-.32-.31-.65-.74-.56-.37.07-.37.42-.43.71-.2.93-.15,1.86-.11,2.8.04,1.15.08,2.3-.23,3.42-.67,2.42-2.2,4-4.66,4.56-1.65.38-3.34.68-5.04.65-.61,0-1.07.17-1.5.55-1.37,1.24-2.98,1.79-4.81,1.6-.53-.05-.88.13-1.25.45-2.25,1.98-4.99,2.24-7.79,2.02-.84-.07-1.77-.34-2.49-.88-.55-.41-1-.29-1.5.05-.53.36-1.02.76-1.48,1.21-.27.27-.55.53-.91.68-.72.31-1.23.14-1.52-.61-.42-1.09-.54-2.23-.32-3.38.08-.45.27-.9.16-1.45-.85.43-1.77.56-2.65.82-1.72.49-3.38.19-5-.39-.68-.25-1.36-.63-1.74-1.25-.4-.66-.82-.59-1.38-.33-.85.4-1.68.83-2.4,1.44-.33.27-.65.56-1,.79-1.06.7-1.89.37-2.19-.86-.34-1.38-.04-2.7.33-4.02.09-.32.2-.64.3-.97.05-.09.18-.19.06-.28-.1-.08-.21-.02-.25.12-.68-.04-1.22.31-1.78.6-.26.14-.5.32-.77.44-1.07.48-1.79.05-1.79-1.13,0-2.11.64-4.02,2.06-5.62,1.26-1.42,2.87-2.25,4.72-2.58.55-.1.93-.26,1.27-.7,1.31-1.67,3.12-2.18,5.13-1.87,2.55.4,5.07.49,7.6-.05.21-.04.42-.04.6-.18,1.04-.81,2.34-1.12,3.49-1.74,1.18-.62,2.46-.95,3.07-2.28.06-.14.24-.25.39-.32.93-.41,1.61-.96,1.8-2.07.09-.5.7-.82,1.15-1.15.59-.43,1.13-.88,1.23-1.7.07-.59.54-.94.97-1.29.88-.72,1.83-1.38,1.92-2.7.03-.47.47-.79.81-1.12,1.9-1.83,2.38-4.24,2.76-6.7.1-.67-.32-1.02-.71-1.4-2.26-2.22-4.82-4.04-7.56-5.61-1.55-.89-3.13-1.71-4.68-2.59-2.68-1.51-4.86-3.57-6.58-6.11-.28-.41-.61-.68-1.04-.88-.96-.45-1.91-.93-2.88-1.36-.92-.42-1.66-1.02-2.19-1.88-1.71-2.79-2.89-5.77-3.19-9.05-.15-1.67.21-3.22,1.18-4.6.75-1.06,1.25-2.16,1.31-3.52.05-1.27.43-2.51,1.02-3.66.46-.9.87-1.04,1.81-.67-.35,1.52-1.04,2.96-1.2,4.53-.03.29-.12.59-.12.88,0,1.1-.41,2.04-1.03,2.94-.8,1.16-1.46,2.4-1.32,3.89.13,1.44.33,2.86,1.04,4.15.27,1.31.89,2.48,1.54,3.63.52.91,1.25,1.6,2.22,2.03,1.05.46,2.09.95,3.12,1.45.59.29,1.24.45,1.26,1.38,0,.41.52.85.86,1.23.92,1.06,2,1.97,3.08,2.86,1.93,1.58,4.22,2.54,6.36,3.77,2.77,1.6,5.52,3.27,7.7,5.63,1.41,1.53,3.09,2.33,5.05,2.73.59.12,1.21.19,1.86.55-1.58.53-1.98.5-5.01-.32-.49,1.22-.66,2.53-.98,3.79-.34,1.32-1.16,2.35-1.89,3.44-.63.63-1.35,1.21-1.12,2.26-.21.1-.27.28-.28.49-.59.54-1.2,1.06-1.78,1.61-.27.25-.64.45-.61.9-.04.21-.07.42-.11.63-.74.66-1.48,1.32-2.21,1.98-.33.3-.55.63-.29,1.09-.02.19-.05.39-.07.58-.94.4-1.69,1.1-2.54,1.63-.31.2-.51.47-.15.81,0,.13.01.26.02.39-.7.25-1.4.5-2.09.75-.66.08-1.16.41-1.55.93-.88.27-1.81.44-2.44,1.21-.23.06-.47.1-.65.29-1.07-.05-2.09.29-3.13.46-1.86.2-3.7.01-5.55-.2-.79-.09-1.58-.29-2.36.06l-.07.03c-.19-.02-.35.02-.49.16-.33.1-.58.33-.85.54-.47.37-.65.73-.14,1.23.31.3.34.76.47,1.16,0,.41-.13.96.46.97.55,0,1.23,0,1.57-.6.4-.71,1.08-1.15,1.57-1.78h0c1.18-.73,2.49-.89,3.8-.61,1.22.26,2.44.31,3.66.31,1.24,0,2.42-.27,3.53-.91,2.25-1.3,4.37-2.77,6.3-4.51.6-.54,1.24-1.03,1.94-1.44.5-.29.69-.01.75.46,0,0-.03.03-.03.03-.15,0-.22.07-.23.22,0,0-.04.03-.04.03-.15-.02-.23.06-.26.19-.64.4-1.28.8-1.69,1.46-.37.12-.58.4-.74.73-.79.48-1.43,1.14-2.1,1.77-.33.08-.47.36-.63.61-.67.36-1.34.73-2.01,1.09-.39.13-.76.3-1.04.62-.86.25-1.72.51-2.59.76-.67.06-1.36-.17-2.02.14-.68-.02-1.37-.04-2.05-.06l.02.02c-.05-.13-.12-.23-.28-.22-.68-.13-1.35-.2-2.04-.06-.18,0-.35,0-.53,0-.12-.06-.21-.03-.27.08-.74.24-1.32.68-1.83,1.25,1.68,1.34,2.34,3.52,1.72,5.51-.08.25-.07.49-.08.74-.61.98-1.33,1.83-2.63,2.01.91.9,1.65,1.2,2.93,1.31,1.98.16,3.76-.5,5.53-1.24.56-.23,1.03-.52,1.41-1.03.43-.58.9-1.14,1.45-1.59.57-.47,1.01-1,1.3-1.68.42-1,1.2-1.62,2.17-2.04.87-.38,1.78-.54,2.72-.56.47-.01.91-.12,1.37-.21,1.7-.37,2.99-1.41,4.16-2.57,1.6-1.59,3-3.34,4.15-5.3.24-.41.4-.93,1.06-1.02.07.39.13.72.18,1.04-.65.73-1.03,1.62-1.52,2.44-.28.27-.42.62-.49.99-.46.34-.79.8-1.1,1.28-.32.36-.58.77-.79,1.2-.43.36-.87.71-1.3,1.07-.34.1-.58.33-.78.61-.48-.01-.65.5-1.05.62-.37.05-.62.31-.88.53-.59.14-1.19.27-1.78.41-.78-.1-1.5.14-2.24.34ZM175.87,425.68c.86-.93,1.67-1.51,2.62-1.89,1.27-.51,2.58-.84,3.95-.8.73.02,1.18-.27,1.53-.89.62-1.09.68-2.28.49-3.45-.28-1.74-.96-2.12-2.66-1.64-3.45.99-6.12,4.75-5.94,8.68ZM192.07,429.54c1.06-.7,1.77-1.45,2.73-1.85.94-.4,1.92-.63,2.91-.87.41-.1.8-.28,1.2-.41.22-.07.39-.18.43-.41.29-1.49.31-2.96-.63-4.26-.46-.64-1.08-.91-1.89-.63-.44.15-.89.27-1.28.54-2.68,1.88-3.61,4.53-3.47,7.9ZM172.05,420.54c1.05-.65,2.02-.81,2.91-1.17.69-.28,1.54.14,2.09-.31.54-.44.92-1.08,1.53-1.5.97-.67,1.14-1.4.77-2.52-.18-.53-.48-.76-1.04-.7-1.29.13-2.5.51-3.57,1.23-1.66,1.12-2.47,2.72-2.69,4.96ZM228.9,409.99c-.95.6-1.57,1.53-2.41,2.22-.15.12-.22.26-.14.43.51,1.02.78,2.11.98,3.29,1.78-1.42,2.43-3.97,1.58-5.94Z"/>
      <path class="cls-1" d="M260.38,409.26c-.34.38-.67.75-1.01,1.13-.55.17-.9.56-1.2,1.02-.44.27-.87.54-1.31.81-.36.06-.72.13-.95.46-.94.17-1.89.36-2.75.8-.63.33-1.27.67-1.39,1.48-.07.09-.17.19-.04.28.11.08.22,0,.28-.11.37-.07.74-.15,1.12-.2,1.27-.17,2.07.53,2.68,1.52.7,1.15.88,2.44,1.01,3.75-.14,1.31-.71,2.33-2.2,2.75,2.58.85,5.8-.28,6.76-2.4.17-.39.39-.75.61-1.11.23-.38.47-.59,1.03-.45.68.18,1.63-.49,1.84-1.2.45-1.49,1.24-2.79,2.1-4.06.36-.53.67-1.08.67-1.75.36-2.24.58-4.5,1.24-6.71.29.41.29.86.27,1.3-.07,2.12-.22,4.23-.61,6.33-.18.94-.64,1.74-1.15,2.53-1,1.53-1.61,3.17-1.44,5.03-.23,2.01.3,3.32,1.51,3.65l-.13-2.66c.05-1.56.68-2.89,1.71-4.02,1.33-1.47,2.89-1.4,4.14.14.67.83,1.25,1.72,1.53,2.77.04.16.1.32.15.49.02.68.01,1.36.06,2.04.05.68-.37,1.27-.41,2.04.94-.31,1.68-.71,2.34-1.23.88-.7,1.36-1.62,1.29-2.78-.05-.93-.06-1.87-.38-2.77-.11-.29-.23-.64,0-.93.46-.15.48.48.93.4.48-1.07.68-2.2.46-3.42-.25-1.38-.42-2.77-.61-4.16-.03-.26-.1-.56.17-.75.4.21.34.54.39.82.35,1.71.7,3.41,1.06,5.12.23,1.1.92,1.85,1.86,2.45.45-.63.18-1.5.95-1.82.07.49.14.98.21,1.48-.84,3.41,1.22,5.9,4.68,5.5-1.17-.96-1.64-2.17-1.7-3.57.1-1.2.37-2.34.97-3.39,1.06-1.85,2.94-2.09,4.45-.58.51.51.94,1.1,1.27,1.74.32.63.62,1.27.94,1.9.56-2.53-.45-4.74-2.78-6.09-.43-.48-.85-.96-1.28-1.44-.08-.11-.16-.22-.24-.32-.1-.44-.23-.87-.61-1.17l-.14-.25c-.21-.66-.19-1.38-.49-2.02-.04-.92-.41-1.72-.82-2.52-.9-1.77-1.57-3.64-2.22-5.51.06-.35-.05-.67-.14-1-.92-3.49-1.65-7.01-2.02-10.6-.05-.5-.11-.99-.33-1.45-.4.06-.49.38-.64.61-.19.29-.36.58-.77.57-.02-.49-.06-.99.31-1.4,2.97-4.09,1.64-10.13-2.76-12.33.09,1.01.51,1.9.77,2.82.13.46.47.96-.11,1.37,0,0-.03-.04-.03-.04-.34-1.14-1.06-2.11-1.41-3.26-.87-2.84-1.15-5.75-1.17-8.69-.01-2.27-.69-4.35-1.69-6.35-1.31-2.6-3.52-4.17-6.12-5.27-1.46,2.18-1.76,4.54-1.63,7.01-.46.43,0,1.21-.75,1.66-.45-1.13-.14-2.33-.39-3.44,0-1.15.12-2.28.57-3.34,1.32-3.14,2.04-6.42,2.41-9.79,1.31-.16,1.64.11,1.49,1.4-.16,1.39-.34,2.79-.64,4.16-.17.74,0,1.04.67,1.34,3.6,1.63,5.81,4.47,6.99,8.17.51,1.59.74,3.23.82,4.9.06,1.23.14,2.47.18,3.7.03.91.41,1.64,1.1,2.21.33.27.64.57,1,.79,2.54,1.59,3.59,4,3.77,6.87.05.8.04,1.62-.06,2.42-.34,2.66-.02,5.27.44,7.87.58,3.31,1.18,6.61,2.21,9.82.42,1.3.89,2.57,1.55,3.76.6,1.06.93,2.19,1.1,3.37.22,1.49.89,2.72,2.03,3.7.36.31.69.63,1.05.93,2.41,2.03,2.86,4.69,2.44,7.63-.04.25-.09.53-.23.72-.98,1.3-1.1,2.9-1.56,4.37-.24.77-.56,1.51-.98,2.21-.67,1.1-1.44,1.15-2.16.11-.39-.56-.73-1.15-1.08-1.73-.35-.59-.77-.89-1.55-.81-1.46.15-2.87-.13-4.13-.99-1.26-.86-2.06-2.02-2.39-3.48-.1-.43-.18-.83-.55-1.1-.23-.16-.4-.54-.73-.35-.26.14-.34.48-.33.79.01.34.01.68.04,1.02.18,1.95-.59,3.47-2.1,4.66-.91.71-1.95,1.26-3.06,1.52-.73.17-1.08.54-1.39,1.14-.41.79-.84,1.58-1.32,2.33-.77,1.21-1.5,1.24-2.37.12-.73-.94-1.37-1.95-1.79-3.08-.16-.42-.37-.71-.79-.93-1.8-.92-2.61-2.47-2.75-4.43-.03-.38.23-.96-.34-1.08-.46-.1-.77.36-.96.72-1.82,3.37-6.23,3.92-9.35,3.13-.71-.18-1.11-.06-1.54.43-.53.61-1.03,1.25-1.47,1.92-.82,1.24-1.77,1.19-2.49-.14-.94-1.76-1.08-3.65-.84-5.58.21-1.64.86-3.1,1.89-4.4.3-.37.49-.74.56-1.24.29-1.99,1.43-3.28,3.36-3.91,1.21-.39,2.47-.63,3.59-1.26.95-.53.98-.55.45-1.52-1.03-1.9-.98-3.83-.23-5.78.27-.72.49-1.42.57-2.2.17-1.65.95-3.08,1.94-4.38.66-.87,1.07-1.81,1.22-2.89.18-1.22.55-2.4.9-3.58.56-1.86.1-3.63-.48-5.37-.27-.8-.92-1.31-1.66-1.69-.87-.44-1.77-.83-2.69-1.16-2.18-.77-4.31-1.67-6.05-3.21-1.25-1.11-2.5-2.05-4.1-2.61-1.4-.49-2.31-1.7-3.19-2.86-.13-.17-.26-.34-.35-.53-.82-1.73-2.11-2.99-3.63-4.16-2.85-2.19-4.75-5.18-6.32-8.38-.9-1.84-1.54-3.78-2.17-5.71-.35-1.06-.18-1.31,1-1.71.31.6.62,1.21.82,1.86.82,2.65,1.93,5.17,3.36,7.56,1.37,2.3,3.11,4.26,5.28,5.82,1.03.74,1.84,1.63,2.45,2.72.27.48.54.97.82,1.44,1,1.67,2.46,2.66,4.36,3.03,2.34.45,4.65.44,6.94-.25.53-.16,1.08-.34,1.83-.08-1.88,1.85-4.18,1.77-6.45,1.98.27.66.7.93,1.11,1.22.99.68,2.06,1.19,3.19,1.6,1.64.6,3.25,1.28,4.81,2.05.85.42,1.7.94,2.02,1.85.96,2.68,1.57,5.39.45,8.21-.3.75-.5,1.54-.63,2.33-.26,1.59-.88,2.97-1.9,4.25-1.25,1.57-1.57,3.38-.76,5.28.29.69.67,1.34,1.5,1.58,1.77-3.41,1.99-7.16,2.84-10.8.41.24.35.53.36.76.08,2-.02,3.99-.54,5.94-.33,1.23-.75,2.44-.84,3.73,0,0,0,.02,0,.02-.13.05-.17.16-.19.28-.31.21-.16.56-.27.83-.23.21-.34.46-.35.77-.25.54-.49,1.08-.74,1.62-.38.27-.76.56-.95,1.01ZM270.71,429.15c1.02-1.91,1.94-3.63,2.86-5.34.38-.7.52-1.44.34-2.21-.28-1.25-.77-2.42-1.53-3.46-.66-.91-1.54-1.05-2.39-.33-.98.83-1.51,1.92-1.65,3.19-.12,1.07,0,2.12.22,3.16.35,1.75.95,3.41,2.15,4.99ZM249.29,425.4c.41-.13.57-.39.74-.62,1.05-1.34,2.42-2.25,3.98-2.89.35-.15.71-.28,1.06-.44.27-.13.47-.3.51-.66.13-1.11.16-2.2-.24-3.27-.68-1.84-1.84-2.22-3.46-1.14-2.68,1.79-3.9,5.97-2.59,9.03ZM291.55,425.48c.99-2.08,1.39-4.2.93-6.45-.27-1.29-.72-2.45-1.78-3.28-1.07-.84-2.18-.62-2.72.62-.47,1.09-.8,2.24-.64,3.47.1.74.32,1.41.96,1.87,1.36,1,2.45,2.22,3.26,3.77ZM258.42,403.52c-.52,1.86-.78,3.51.53,5.07.68-.66,1.05-1.46,1.47-2.23.15-.26.08-.51-.17-.65-.84-.47-1.28-1.29-1.83-2.2Z"/>
      <path class="cls-4" d="M262.88,404.74c.09-1.28.51-2.49.84-3.73.52-1.95.62-3.94.54-5.94,0-.23.05-.52-.36-.76-.85,3.63-1.07,7.39-2.84,10.8-.83-.24-1.21-.89-1.5-1.58-.81-1.9-.48-3.71.76-5.28,1.01-1.27,1.63-2.66,1.9-4.25.13-.79.34-1.59.63-2.33,1.11-2.81.5-5.53-.45-8.21-.33-.91-1.17-1.43-2.02-1.85-1.56-.78-3.17-1.45-4.81-2.05-1.12-.41-2.2-.91-3.19-1.6-.41-.28-.84-.56-1.11-1.22,2.28-.2,4.57-.13,6.45-1.98-.75-.26-1.3-.08-1.83.08-2.29.68-4.6.7-6.94.25-1.91-.37-3.37-1.36-4.36-3.03-.28-.47-.55-.96-.82-1.44-.61-1.1-1.43-1.99-2.45-2.72-2.17-1.56-3.91-3.52-5.28-5.82-1.42-2.39-2.54-4.91-3.36-7.56-.2-.65-.51-1.26-.82-1.86.78-1.17,1.67-2.24,2.97-2.87.04.85.09,1.7.13,2.54.02.34.05.67.23.98.19.32.41.42.7.12.11-.12.17-.29.27-.43.1-.13.21-.31.4-.22.24.12.2.34.13.55-.1.28-.15.65-.44.75-.85.29-.6.79-.43,1.41.42,1.47.87,2.91,1.83,4.15.96-.97.89-1.72-.18-2.44q-.94-.64-1.02-1.77c.3.26.55.51.84.72.67.5,1.24.28,1.36-.55.06-.41.02-.84.03-1.41.55.83.74,1.59.35,2.36-.32.64-.21,1.17.26,1.61.43.4.94.25,1.42,0,.17-.09.35-.26.58-.13-.13,1.06-.44,1.44-1.37,1.29-.62-.1-.73.11-.84.58-.05.2-.13.42-.27.57-.44.45-.22.85.07,1.24.95,1.26,2.04,2.38,3.4,3.2.22.71.6.35.96.15.18,1.43.25,2.87,1.02,4.16.86,1.43,1.99,2.21,3.76,2.09,2.23-.15,4.31-.88,6.43-1.47.37-.1.72-.26,1.3-.1-1.83,1.17-3.79,1.64-5.74,2.25.35.37.72.12,1.05.18.33.06.67.16,1,.14.37-.02.74-.17,1.11-.25,1.28-.27,2.57-.52,3.76-1.11,1.33-.65,2.22-1.68,2.54-3.16.1-.45.17-.91.49-1.41.52.76.23,1.58.41,2.3-.24.76-.51,1.52-.73,2.29-.22.77-.7,1.47-.59,2.32,0,0-.04.03-.04.03l.03-.04c.44-.14.64-.52.86-.87.59-.94.85-2,1.05-3.07.49.02.78.35.97.73.37.76,1.01,1.26,1.61,1.79.59.51.76.46,1.11-.27.11-.23.17-.47.29-.8.55.41.41.86.23,1.33-.12.31-.36.6-.02.93.37.35.74.74,1.27.81.36.04.53-.26.53-.58,0-.46-.04-.93-.06-1.44.81.39,1.17,1.02.78,1.82-.35.71-.05.99.41,1.34.1.08.18.18.28.26.37.26.6.88,1.11.73.64-.18.8-.82.88-1.43.02-.12.05-.24.08-.38.64.65.7,1.03.08,1.91-.39.55-.29.9.17,1.3.69.6.86.57,1.78-.46.48.67-.8,1.19-.16,1.86.58.61,1.03,1.34,1.89,1.67,1.62.61,2.1-.83,2.97-1.64.5.34.58.85.66,1.33.33,2.05-.2,3.86-1.51,5.47-1.37,1.68-2.88,3.11-5.05,3.71-.81.22-1.56.69-2.17,1.3-.57.57-1.23,1.1-.47,2.04.21.25.16.73.18,1.11.07,1.21-.02,1.27-1.27,1.15-.49-.05-1.08-.22-1.43.26-.43.59-.61,1.3-.68,2.03-.01.17.16.3.35.3.51,0,1.02-.03,1.53-.05.42-.01.61-.23.61-.65,0-.24-.07-.5.16-.79.54.66.43,1.39.34,2.06-.07.5-.63.42-.96.32-.71-.23-1.34-.1-1.98.18-.25.11-.46.27-.46.55,0,.76-.36,1.5-.2,2.27-.12.05-.14.09-.05.11.01,0,.04-.07.06-.1.69-.1,1.36.02,1.99.25.63.23.86-.07.99-.6.12-.47-.09-1.04.42-1.43.6.79.44,1.71.4,2.57-.02.5-.55.72-1.22.53-.57-.16-1.12-.37-1.71-.47-1.16-.19-1.12-.19-1.59.85-.28.62-.42,1.4-1.24,1.63ZM273.63,382.54c-.4-.07-.75.07-1.1.22-2.6,1.07-5.31,1.36-8.1,1.07-.26-.03-.54-.09-.79.05.11.33.33.37.52.45,2.69,1.09,5.31.68,7.88-.41.65-.28,1.27-.68,1.58-1.39.01-.02.03-.05.04-.07,0,.03-.02.06-.03.08ZM276.26,383.99c-1.07.2-1.79.76-2.59,1.12-.86.38-1.75.66-2.65.88-.87.22-1.74.33-2.63.42-.88.09-1.79-.31-2.76.14,3.17,1.45,8.98.07,10.63-2.56ZM267.48,394.09c.27-.03.56-.08.5-.43-.05-.32-.14-.76-.54-.73-.4.03-.67.39-.64.81.03.42.4.35.68.35Z"/>
      <path class="cls-4" d="M269.32,346.69c-.37,3.37-1.08,6.66-2.41,9.79-.45,1.07-.57,2.2-.57,3.34-.8.57-1.57,1.16-2.39,1.69-.56.37-1.17.7-2.07.53,1.26-1.33,1.76-2.95,2.47-4.47.73-1.56.93-3.22,1.06-4.98-.71.07-1.21.26-1.43.92-.34.99-.98,1.68-2.03,1.92-.37.09-.53.36-.73.65-.71,1.03-1.38,1.25-2.24.79-.87-.46-1.18-1.39-.76-2.63.21.49.37.89.54,1.29.22.52.62.67,1.14.52.51-.14.74-.62.57-1.22-.09-.33-.24-.64-.35-.96-.06-.18-.18-.25-.37-.27q-1.61-.12-1.95-1.6c-.02-.07.04-.15.07-.23,1.22,1.58,1.37,1.57,2.61-.21.09-.13.15-.32.42-.27.36.44.07.86-.11,1.26-.26.59.13.97.4,1.38.27.39.7.28,1.06.21.58-.12,1.04-1.04.83-1.64-.1-.28-.27-.53-.38-.8-.07-.17.01-.34.15-.45.15-.12.34-.13.45.03.34.5.83.65,1.34.42.59-.27,1.05-.75,1.22-1.4.25-.99.36-2,.36-3.02,0-.85-.08-1.7-.12-2.55,1.19.45,2.38.9,3.23,1.93Z"/>
      <path class="cls-4" d="M220.46,356.35c-.53.74-1.27,1.24-2.01,1.72-3.02,1.96-6.33,3.3-9.73,4.43-.52.17-1.05.34-1.57.51.69-1.03,1.74-1.71,2.5-2.68,1.7-2.19,2.91-4.65,4.17-7.09.06-.11.04-.25.06-.37,2.3.97,4.62,1.89,6.58,3.48Z"/>
      <path class="cls-4" d="M249.32,359.44c-1.82-.24-2.91-1.46-3.89-2.85.13-.12.21-.27.16-.45-.84-2.97-1.8-5.91-2-9.01-.02-.31-.25-.42-.53-.41.23-.42.67-.52,1.06-.69.15.76.55,1.43.88,2.11,1.26,2.55,1.93,5.35,3.36,7.83.74,1.28,1.64,2.37,2.89,3.16.3.19.74.34.51.86-.81-.21-1.57-.65-2.45-.55Z"/>
      <path class="cls-1" d="M243.05,346.71c.29,0,.51.1.53.41.2,3.11,1.17,6.05,2,9.01.05.18-.03.33-.16.45-1.27-2.4-2.16-4.92-2.47-7.63-.09-.76-.09-1.52.09-2.27,0,0,0,.02,0,.02Z"/>
      <path class="cls-4" d="M208.32,396.29c.73-1.09,1.55-2.12,1.89-3.44.33-1.26.5-2.57.98-3.79,3.02.82,3.43.85,5.01.32-.65-.36-1.27-.43-1.86-.55-1.96-.4-3.64-1.2-5.05-2.73-2.18-2.36-4.93-4.04-7.7-5.63-2.14-1.23-4.43-2.19-6.36-3.77-1.09-.89-2.16-1.8-3.08-2.86-.33-.38-.85-.81-.86-1.23-.01-.94-.67-1.1-1.26-1.38-1.03-.5-2.07-.99-3.12-1.45-.98-.43-1.71-1.12-2.22-2.03-.65-1.15-1.27-2.31-1.54-3.63.08,0,.18-.04.25,0,2.02.9,4.14,1.23,6.34,1.15.17,0,.34,0,.51.2-.03.4-.4.43-.7.52-1.4.39-2.78.17-4.14-.22-.32-.09-.61-.26-1.04-.06.31.43.7.71,1.11.88,2.2.88,4.48,1.22,6.85.87,1.23-.18,2.15-.72,2.78-1.78.17-.29.31-.61.67-.73-.03.8-.06,1.59-.1,2.39-.04.79-.61,1.51-.44,2.51,1.14-1.06,1.27-2.37,1.58-3.61.77.77.74,1.72.54,2.67-.11.5-.13,1.01-.23,1.5-.24,1.21.28,2.13,1.02,3,.39.46.8.72,1.44.51.64-.21.83-.65.8-1.27-.01-.29.02-.59.03-.89.53-.05.53.41.73.63.95,1.03,1.73,1.1,2.72.21.1,1.28-.37,1.77-1.44,1.39-.76-.28-1.33-.37-1.74.49-.11.24-.54.2-.69.51.55.46,1.11.91,1.65,1.39.31.28.66.38,1.06.31.38-.06.66-.26.54-.69-.15-.53-.11-.99.28-1.41,1.34,1.37,2.08,1.06,3.01.15.31,1.35-.4,1.74-2.5,1.33-.06.1-.16.2-.17.31-.04.47-.77.76-.54,1.17.4.69.99,1.31,1.83,1.5.65.15,1.34.12,2.01.27.58.13.91-.34.98-.93.03-.25.03-.51.04-.76h0c.92.99.9,1.68.05,2.33-.53.4-.97-.15-1.46-.01.96,1.74,1.84,1.95,3.25.78.19.3.11.58-.1.81-.3.33-.41.62-.03.97.35.32.65.72,1.19.34.14-.09.31-.15.47-.2q1.04-.31.89-1.4c-.02-.17-.02-.33.13-.46.77.66,1.05,1.33.76,1.94-.5,1.03-1.49.54-2.38.68.47.92,1.21,1.56,2.1,1.69.96.14,1.85-.3,2.11-1.52.58,1.11.35,1.47-1.23,2.06.3.5.81.71,1.25,1.01.47.33.9.11,1.31-.12.47-.26.23-.66.16-1.02-.04-.2-.07-.39-.12-.64,1.17.46,1.42,1.5.66,2.28-.22.22-.79.29-.58.7.22.42.59.88,1.2.71.33-.09.58.08.85.15.24.07.37.2.21.45-.21.32.02.33.24.35.61.07,1.25-.06,1.96.19-.53.92-1.26,1.49-2.01,2.02-.66.46-1.37.86-2.09,1.22-1.27.63-2.58,1.1-4.04.97-.55-.05-1.11-.02-1.66-.08-.47-.05-.62.11-.78.57-.42,1.25-.98,2.44-1.74,3.52-.2.28-.42.54-.73.7,0,0-.08-.09-.08-.09.02-.44.26-.8.44-1.18.17-.35.3-.71-.03-1.05ZM212.07,390.74c1.35,1.4,3.77,1.83,4.89.9-1.61-.3-3.12-.57-4.89-.9Z"/>
      <path class="cls-4" d="M205.34,363.92c.86.22,1.69.06,2.52-.19,1.75-.52,3.53-.96,5.23-1.66.47-.2,1-.26,1.45-.5,1.55-.81,2.98-.33,4.34.43,3.26,1.83,5.24,4.52,5.45,8.36.07,1.36.19,2.71.4,4.06.35,2.3,1.47,4.24,3.08,5.9.65.67,1.33,1.35,2.16,1.78,2.34,1.23,2.78,3.57,2.35,5.81-.23,1.21-.63,2.38-1.26,3.46-1.22,2.1-2.27,4.28-3.15,6.55-.1.26-.16.57-.53.73-.45-.91.14-2.02-.55-2.98-.59,1.03-.48,2.07-.37,3.05.2,1.68.55,3.35.87,5.02.11.55.47.99.75,1.47.43.73.85,1.47.81,2.38-.04.82-.25,1.51-1.08,1.86-.02-.79.17-1.59-.03-2.39-.9-.07-1.62.32-2.36.61-.67.26-.84.15-.85-.58,0-.53-.04-1.07.12-1.58.3-.01.35.17.39.32.1.35,0,.9.51.9.58-.01,1.3-.11,1.64-.54.25-.32-.02-.96-.21-1.43-.15-.38-.45-.48-.82-.45-.51.04-.98.24-1.51.2-.5-.04-.83-.17-.78-.75.05-.62-.04-1.25.16-1.97.35.71-.04,1.38.21,1.97.33.08.58-.12.86-.21.4-.13.96.16,1.21-.21.31-.45-.11-.97-.16-1.46-.02-.27-.09-.59-.37-.84-.43.08-.88.16-1.33.26-.19.04-.36.04-.43-.14-.09-.21,0-.41.17-.57.17-.15.38-.16.59-.2.45-.09,1.03-.1,1-.74-.03-.59-.14-1.2-.82-1.46-.19-.07-.4-.12-.85-.25.68-.09,1.07-.24,1.01-.81-.04-.34.02-.68.02-1.02,0-1.03.12-1.99.76-2.88.4-.57.56-1.31.83-1.98.17.26.37.29.64.12,2.36-1.55,2.66-5.08.46-6.74-1.28-.96-2.42-1.98-3.13-3.43-.02-.04-.14-.04-.23-.07-.05.2-.1.41-.16.61-.47-.04-.59-.47-.75-.78-.49-.95-1.3-1.36-2.27-1.67-.91-.29-1.93-.23-2.72-.87-.03-.36-.28-.49-.57-.6-1.4-.52-2.63-1.37-3.9-2.14-1.37-.84-2.45-1.94-3.2-3.36.27,0,.5.12.7.27,2.18,1.55,4.71,2.32,7.2,3.16.5.17,1,.2,1.5.22,1.16.04,1.32-.08,1.19-1.18-.13-1.09-.21-2.19-.53-3.25-1.28-4.27-4.14-6.74-8.49-7.66-1.47-.31-2.85-.26-4.26.13-.74.2-1.5.27-2.27.21-.26-.02-.51-.06-.64-.32Z"/>
      <path class="cls-4" d="M219.84,403.83c.9.96,1.05,2.1.8,3.32-.43,2.09.03,3.88,1.72,5.26.36.3.37.58.28,1-.28,1.38-.46,2.76-.27,4.18.1.79.06,1.61-.16,2.41-.69,2.52-2.5,3.62-4.95,3.93-.97.12-1.94.23-2.91.33-.78.09-.78.08-.81-.81,0-.13-.02-.25-.04-.45-.58.15-.74.67-1.03,1.03-1.05,1.33-2.3,2.2-4.09,2.23-.68.01-.97-.07-.86-.78.02-.11,0-.27-.39-.3-1.52,1.89-3.27,3.68-6.12,3.63-2.26-.04-2.89-.1-4.06-.82,1.52-.27,2.9-.58,3.49-2.08,1.73.25,3.26-.11,4.66-1.22,1.01-.8,2.17-1.31,3.55-1.06,1.34.24,2.35-.55,3.36-1.27.31-.22.59-.5.85-.77.6-.62,1.3-.87,2.18-.8,2.37.19,4.35-1.44,4.39-4.02.02-1.51-.28-2.96-.48-4.41-.24-1.77-.11-3.46.35-5.16.3-1.11.54-2.22.54-3.38Z"/>
      <path class="cls-4" d="M186.18,414.52c.68-.14,1.36-.07,2.04.06.09.07.19.15.28.22,0,0-.02-.02-.02-.02.45.99.9,1.99,1.36,2.98.2.43.55.5.96.36.71-.25,1.4-.52,2.17-.8-.26-.5-.48-.95-.72-1.39-.37-.68-.9-1.11-1.71-1.09.65-.31,1.35-.08,2.02-.14.4.59.98,1.05,1.24,1.75.22.58.68.74,1.24.49.69-.32,1.43-.47,2.24-.67-.59-.95-.76-2.17-2.14-2.33.28-.32.65-.49,1.04-.62.49.86,1.36,1.37,1.95,2.14.26.33.6.18.93.05.68-.28,1.35-.71,2.08-.03.19.17.57.04.85-.08,1.87-.83,3.37-2.15,4.67-3.67,1.07-1.26,2.1-2.55,3.11-3.87,1-1.31,1.81-2.76,2.69-4.16.26-.41.52-.75,1.03-.73.19.27,0,.45-.02.65-.05.37-.45.74-.23,1.08.27.42.7-.04,1.06.03.5.09.99.22,1.48.34.83.21.91.19,1.16-.64.12-.39.15-.82.65-1.09.3.57.17,1.12.11,1.64-.14,1.18-.54,1.4-1.71,1.14-.87-.19-1.72-.48-2.63-.44-.42.01-.75.07-.94.49-.31.69-.62,1.37-.98,2.18,1.37,0,2.57.12,3.7.63.33.15.54.04.68-.32.23-.58.33-1.21.84-1.84.4,1.16.06,2.09-.44,2.94-.28.47-.82.41-1.26.15-1.24-.72-2.58-.8-3.95-.69-.06-.33-.11-.65-.18-1.04-.66.09-.82.61-1.06,1.02-1.15,1.95-2.56,3.71-4.15,5.3-1.17,1.17-2.45,2.21-4.16,2.57-.46.1-.9.2-1.37.21-.94.02-1.85.18-2.72.56-.97.42-1.75,1.04-2.17,2.04-.29.68-.73,1.21-1.3,1.68-.55.45-1.03,1.02-1.45,1.59-.37.51-.84.8-1.41,1.03-1.77.74-3.56,1.4-5.53,1.24-1.28-.1-2.03-.41-2.93-1.31,1.3-.18,2.02-1.03,2.63-2.01,1.2.3,2.42.41,3.64.1,2.34-.58,4.34-1.59,5.25-4.04-.75-.34-1.4-.41-1.99.22-.16.17-.45.24-.68.34-1.56.72-2.15.28-2.58-.96-.08-.24-.22-.46-.31-.7-.37-.94-.93-1.72-1.89-2.13-.2-.08-.36-.23-.45-.43Z"/>
      <path class="cls-4" d="M192.43,411.85c.18-.18.42-.22.65-.29.29.54.67.67,1.22.33.59-.36,1.21-.68,1.88-1.05-.26-.19-.46-.34-.65-.48.39-.51.9-.85,1.55-.93.07.22.1.6.43.43.61-.3,1.32-.5,1.66-1.19,0-.13-.01-.26-.02-.39,1.01-.33,1.71-1.1,2.5-1.75.21-.17.17-.45.2-.7.02-.19.05-.39.07-.58.66.14,1.16-.06,1.49-.67.19-.34.45-.63.78-.82.25-.14.21.13.23.28-.11.07-.19.16-.18.3,0,.03.06.06.08.09.06-.1.12-.2.18-.31.79-.29,1.4-.85,1.74-1.58.32-.68.99-.84,1.34-1.54.49.81-.28,1.2-.15,1.73.67.27,1.35.5,1.99.81.54.27.76.02,1-.41.24-.42.22-1.03.92-1.22.16.91-.18,1.68-.69,2.32-.38.48-.98.67-1.61.35-.45-.23-.95-.39-1.36-.69-.56-.4-.93-.21-1.32.21-.56.58-.85,1.38-1.66,1.91.93.41,1.76.79,2.6,1.14.44.19.72-.12.98-.41.27-.31.42-.77.95-.74h0c-.01.09-.01.18-.05.26-.76,1.47-.97,2.41-3.17,1.15-.67-.38-1.36-.7-2.14-.27-.06-.47-.26-.75-.75-.46-.7.41-1.33.9-1.94,1.44-1.93,1.74-4.05,3.21-6.3,4.51-1.11.64-2.29.9-3.53.91-1.22,0-2.45-.05-3.66-.31-1.31-.28-2.62-.12-3.8.61-.15-1.59-.16-1.59-1.66-1.64-.29,0-.58-.04-.86-.06.78-.35,1.58-.15,2.36-.06,1.84.21,3.69.4,5.55.2.01.5.2.85.77.68.58-.17,1.17-.14,1.76-.15.83-.01.84-.03.6-.99Z"/>
      <path class="cls-4" d="M197.41,357.76c.42-.2.74.14,1.12.12.91-.06,1.36-.69,1.02-1.51-.15-.35-.4-.69-.33-1.08.13-.78.15-1.5-.78-1.98.7-.09,1.25.42,1.84-.13.62-.57-.02-1.2.14-1.74.14-.02.21-.04.22-.03.71,1.09,1.58,1.01,2.53.35.11-.07.24-.08.35.04.15.32-.15.43-.3.61-.18.19-.37.38-.35.65.04.55.02,1.23.53,1.48.59.29.98-.24,1.31-.71.45-.64,1.08-1.18.8-2.12-.06-.22.19-.53.38-.83-.1.77.42.9,1.09.98-.65.86-1.05,1.73-1.49,2.58-.15.29-.43.65-.71.71-1.54.33-2.28,2.18-4.05,2.08-.38-.02-.47.45-.72.67-.88.8-1.69.89-2.49.21-.08-.07-.08-.22-.13-.34ZM199.8,354.69c.16.25.09.66.23,1.01.13.32.35.62.72.65.59.04,1-.36,1.43-.71.4-.32.29-.7.11-1.02-.31-.54.16-1.47-.54-1.67-.69-.2-1.01.78-1.65,1.01-.25.09-.34.36-.29.74Z"/>
      <path class="cls-4" d="M209,412.63c.07-.38.21-.72.49-.99.23.32.58.31.92.3,1.22-.05,2.37.19,3.39.87.56.37.78.17.99-.4.13-.37,0-.88.59-1.16.14.61.12,1.18-.06,1.72-.14.44-.38.9-.95.9-.61,0-.8.25-.82.84-.05,1.5-1.65,2.07-2.69,1.43-1.16-.72-2.42-.99-3.75-1.01.21-.44.46-.84.79-1.2,1.31.42,2.67.71,3.83,1.53.14.1.31.1.48.02.35-.16.99-1.17.95-1.59-.06-.53-.57-.57-.92-.73-1.03-.44-2.14-.43-3.23-.51Z"/>
      <path class="cls-1" d="M210.93,372.35c.75,1.42,1.83,2.52,3.2,3.36,1.27.77,2.5,1.61,3.9,2.14.29.11.55.24.57.6-.21,0-.44.04-.63-.03-3-.99-5.74-2.35-7.47-5.16-.67-1.09-1.16-2.26-1.44-3.52-.07-.31-.19-.64.14-1.04.72,1.2.81,2.63,1.72,3.65Z"/>
      <path class="cls-1" d="M224.35,381.76c.05-.2.1-.4.16-.61.09.02.21.02.23.07.7,1.46,1.84,2.47,3.13,3.43,2.2,1.66,1.9,5.2-.46,6.74-.27.18-.47.14-.64-.12.38-.56.78-1.1,1.12-1.69,1.18-2.02.93-3.32-.95-4.71-.89-.66-1.73-1.34-2.34-2.3-.18-.28-.14-.56-.25-.82Z"/>
      <path class="cls-4" d="M199.1,418.7c.73-.2,1.46-.44,2.24-.34,0,.17-.52.25-.15.45.85.45,1.46,1.15,2.06,1.85.43.5.86.64,1.43.28.14-.09.31-.13.47-.17.17-.04.36,0,.41.18.03.1-.03.25-.1.34-.58.75-1.8.94-2.64.37-.31-.21-.58-.49-.82-.78-.81-.95-1.76-1.69-2.9-2.18Z"/>
      <path class="cls-4" d="M205.04,416.8c.2-.28.43-.51.78-.61,1.05.37,2.02.87,2.77,1.71.36.41.69.43,1.06.02.31-.35.64-.67.97-1,.44.15.33.48.24.74-.54,1.47-1.73,1.83-2.9.85-.8-.66-1.64-1.2-2.66-1.44-.1-.02-.17-.18-.25-.27Z"/>
      <path class="cls-4" d="M200.92,409.83c.16-.33.37-.61.74-.73.98.05,1.72.63,2.49,1.15.17.12.31.29.48.41.75.52,1.07.44,1.51-.35.21-.39.22-.93.76-1.1.05,1.19-.48,2.09-1.44,2.44-.51.18-1,.2-1.41-.22-.86-.88-1.98-1.26-3.12-1.6Z"/>
      <path class="cls-4" d="M214.68,399.17c.39.67-.58,1.11-.26,1.84.66-.25,1.29.03,1.92.17.57.13,1.05.22,1.48-.27.11-.13.29-.18.44-.04.14.13.11.32.06.48-.16.56-.83.99-1.53.81-.83-.21-1.66-.27-2.5-.33-.89-.07-1.12-.57-.72-1.4.35-.73.48-.88,1.1-1.26Z"/>
      <path class="cls-4" d="M198.19,412.21c.16-.25.31-.53.63-.61.17.15.37.21.59.2,1.09-.03,1.86.52,2.41,1.38.36.56.64.52,1.1.12.32-.28.74-1,1.06-.62.49.57-.33.92-.7,1.24-.9.8-1.49.78-2.25-.16-.75-.93-1.79-1.23-2.84-1.54Z"/>
      <path class="cls-4" d="M193.12,359.26c-1.26-.37-2.11-1.24-3.17-1.67-1.05-.42-2.07-.92-3.14-1.4.73-.25,1.87-.01,3.53.71,2.11.92,2.29,1.06,2.78,2.36Z"/>
      <path class="cls-1" d="M196.83,366.21c-.3,1.23-.43,2.55-1.58,3.61-.17-1,.4-1.72.44-2.51.04-.8.07-1.59.1-2.39.1-.86.16-.93.83-.99-.04.29-.06.57.13.81.02.49.05.98.07,1.46Z"/>
      <path class="cls-4" d="M212.59,398.65c.3.8.21,1.35-.11,1.88-.41.68-.69.78-1.47.5-.44-.16-.85-.38-1.28-.56-1.35-.58-1.42-1.01-.37-2.18.19.17.15.4.08.59-.2.48.03.64.45.83,1.78.81,1.77.83,2.69-1.05Z"/>
      <path class="cls-4" d="M215.39,395.67c-.22,1.35-.22,1.37,1.09,1.4.61.01,1.17.16,1.74.33.26.07.52.16.44.49-.08.33-.39.29-.63.26-.29-.03-.59-.09-.87-.18-.5-.17-1.01-.11-1.51-.16-.92-.09-1.13-.37-.84-1.24.1-.3.07-.7.58-.89Z"/>
      <path class="cls-4" d="M203.11,417.95c.26-.22.51-.49.88-.53.47.45,1.1.6,1.62.96.48.33.95.66,1.51.73.09.33-.14.44-.23.61-.28.52-.57.52-.96.1-.78-.86-1.79-1.38-2.82-1.88Z"/>
      <path class="cls-4" d="M204.42,402.19c.04-.21.07-.42.11-.63,1.24-.19,2.21-1.22,2.39-2.52,0-.21.07-.39.28-.49.24,0,.48-.02.71-.03,0,0,.08.09.08.09-.29.35-.54.71-.72,1.15-.28.69-.65,1.34-1.12,1.94-.51.66-.6,1.08-1.73.49Z"/>
      <path class="cls-4" d="M186.95,362.52c1.56.28,2.94-.15,4.29.63-.99.36-2.66.11-4.29-.63Z"/>
      <path class="cls-4" d="M210.4,396.52c1.16-.28,1.9.55,2.85.81-.95.58-1.53.42-2.85-.81Z"/>
      <path class="cls-4" d="M196.76,364.75c-.2-.25-.18-.53-.13-.81.25.24.23.52.13.81Z"/>
      <path class="cls-4" d="M208.17,377.61s-.1-.05-.1-.05c.02-.08.06-.06.09.06,0,0,0,0,0,0Z"/>
      <path class="cls-4" d="M209.24,406.03s.07-.07.11-.1c-.03.04-.07.07-.1.11,0,0,0,0,0,0Z"/>
      <path class="cls-4" d="M203.34,407.63c.03-.14.11-.21.26-.19-.04.12-.13.18-.26.19Z"/>
      <path class="cls-4" d="M203.64,407.41c0-.15.08-.22.23-.22-.08.07-.15.14-.23.22Z"/>
      <path class="cls-4" d="M267.48,361.61c-.13-2.46.17-4.82,1.63-7.01,2.6,1.11,4.81,2.67,6.12,5.27,1,1.99,1.68,4.07,1.69,6.35.02,2.94.3,5.85,1.17,8.69.35,1.15,1.07,2.12,1.41,3.26-.72-.15-1.11-.71-1.53-1.23-.55-.69-1.06-1.43-1.36-2.26-.48-1.32-1.23-2.25-2.72-2.36.36-.55-.2-.63-.44-.83-1.04-.86-2.26-1.53-2.91-2.79.47-.05.79.25,1.13.49.76.56,1.64.9,2.52,1.19.81.26,1.09,0,1.1-.82.04-2.34-.57-4.53-1.58-6.61-.62-1.28-1.56-2.31-2.85-2.98-1.1-.57-1.78-.38-2.48.63-.25.36-.34.9-.89,1.01Z"/>
      <path class="cls-4" d="M282.97,415.84c-.78.32-.5,1.19-.95,1.82-.94-.61-1.62-1.35-1.86-2.45-.36-1.7-.7-3.41-1.06-5.12-.06-.28,0-.61-.39-.82-.27.19-.2.49-.17.75.19,1.39.36,2.78.61,4.16.22,1.22.02,2.35-.46,3.42-.45.08-.47-.55-.93-.4-.23.29-.11.64,0,.93.32.9.33,1.84.38,2.77.06,1.15-.41,2.08-1.29,2.78-.66.52-1.41.92-2.34,1.23.03-.77.45-1.36.41-2.04-.05-.68-.04-1.36-.06-2.04,1.47-.37,2.15-1.25,2.08-2.73-.05-1-.42-1.98-.16-3.01.12-.46-.23-.99.58-1.27.37-.13.36-.98.32-1.54-.09-1.15.2-2.27.38-3.4.05-.34.14-.76.65-.94.71,1.09,1.23,2.29,1.71,3.49.56,1.41,1.27,2.68,2.44,3.67.22.19.5.41.12.71Z"/>
      <path class="cls-4" d="M267.65,412.01c0,.67-.31,1.21-.67,1.75-.86,1.27-1.65,2.57-2.1,4.06-.21.71-1.16,1.37-1.84,1.2-.56-.15-.8.07-1.03.45-.22.36-.44.73-.61,1.11-.96,2.12-4.18,3.26-6.76,2.4,1.49-.43,2.05-1.44,2.2-2.75,1.46-.16,2.73-.82,3.56-1.98.72-.99,1.61-1.65,2.61-2.29,1.73-1.11,3.27-2.41,4.03-4.41.02-.06.13-.09.2-.13.14.2.28.4.42.6Z"/>
      <path class="cls-4" d="M281.31,387.75c.41.02.58-.28.77-.57.16-.24.24-.56.64-.61.22.45.28.95.33,1.45.37,3.59,1.1,7.11,2.02,10.6.09.33.2.65.14,1-.54.22-.72.58-.71,1.19.01.79-.27,1.02-1.03.84-1.26-.3-2.33,0-3.35.75-.57.42-.97.28-1.08-.41-.13-.78-.1-1.59-.15-2.56.89.58.62,1.45.93,2.2,1.15-.9,2.44-.98,3.88-.8-.35-1.03-.93-1.85-1.44-2.7-.38-.63-1.07-.32-1.64-.28-.15.01-.3.14-.45.23-.49.31-.98.86-1.6.45-.59-.39-.29-1.08-.42-1.66.68,0,.42.61.76.87.77-.78,1.81-.74,2.86-.78.12-.72-.75-1.16-.5-1.95.79.31,1.14.93,1.33,1.6.28,1.02.88,1.81,1.58,2.55.07.09-.08.37.2.24.05-.02-.08-.2-.21-.23.04-1.02-.51-1.87-.8-2.79-.65-2.06-1.29-4.12-1.86-6.2-.21-.78-.18-1.6-.2-2.4Z"/>
      <path class="cls-4" d="M270.78,400.18c.31.63.07,1.23.36,1.77.69.07,1.25-.43,1.93-.47.66-.03,1.25.23,1.89.27.36-.62-.19-1.37.36-2.03.74.68.93,1.59,1.04,2.47.08.67-.51,1.01-1.2.72-1.29-.53-2.56-.58-3.81.08-.35.19-.81.3-.37.91.14.2-.14.71-.23,1.08-.09.35-.37.68-.16,1.22,1.8-.93,3.6-1.28,5.42.26.17-.99-.51-1.76-.21-2.57.18-.09.33-.01.42.13.54.83.81,1.77.9,2.74.07.76-.41,1.1-1.13.86-.31-.11-.61-.31-.88-.51-1.38-1.03-2.67-1.04-4.1-.08-.36.24-.69.84-1.17.59-.61-.32-.09-.93-.1-1.4-.01-.49.2-.99.38-1.47.18-.49.27-.93.05-1.46-.25-.59.12-2.16.62-3.12Z"/>
      <path class="cls-4" d="M279.52,378.21c.58-.41.24-.91.11-1.37-.26-.93-.68-1.82-.77-2.82,4.4,2.2,5.73,8.24,2.76,12.33-.24-.61-.27-1.26-.14-1.87.22-1.02.11-2.02.02-3.02-.13-1.38-1-2.36-1.98-3.25Z"/>
      <path class="cls-4" d="M286.15,419.25c.06,1.4.54,2.61,1.7,3.57-3.46.4-5.51-2.09-4.68-5.5.17.04.31.14.36.31.4,1.31,1.31,1.78,2.61,1.62Z"/>
      <path class="cls-4" d="M284.07,402.29c1.47.49,1.97,1.79,2.63,2.96.15.27.19.6-.04.84-.24.25-.54.39-.92.23-.35-.15-.72-.25-1.09-.36-1.06-.32-2.01-.17-2.77.71-.03.03-.06.06-.09.09-.4.37-.81.88-1.41.64-.59-.23-.43-.86-.46-1.35-.04-.78-.18-1.58.07-2.64.6,1.1.19,2.11.67,3.12,1.4-1.5,2.95-2.27,4.95-1.29.03-.08.05-.16.08-.24l-1.62-2.72Z"/>
      <path class="cls-4" d="M270.76,396.16c.37.79-.28,1.44.24,2.06,1.03-.59,2.09-1.08,3.34-.71.5.15.49-.28.5-.64.01-.49-.49-.92-.09-1.54.59.4.65,1.05.83,1.61.09.27.06.59.08.88.07,1.28.06,1.3-1.09.82-1.22-.51-2.31-.27-3.36.45-.26.18-.5.58-.87.37-.41-.23-.28-.68-.19-1.03.17-.68.18-1.41.6-2.28Z"/>
      <path class="cls-4" d="M288.25,407.64c.3.64.27,1.36.49,2.02-.23.01-.47.02-.7.03h0c-.92-1.44-3.57-1.25-4.63-.15-.38.39-.67.88-1.22,1.17-.44-.34-.27-.84-.32-1.26,0-.07.04-.21.07-.21,1.11-.06,1.6-1.29,2.68-1.4,1.01-.11,2.03-.29,2.98.27.57.34.62-.06.65-.47Z"/>
      <path class="cls-4" d="M268.12,415.51c.72-1.49,2.34-2.19,4.3-1.97,1.36.15,2.92,1.48,3.29,2.89-1.3-.51-2.11-1.7-3.53-1.93-1.48-.23-2.59.57-4.05,1.01Z"/>
      <path class="cls-4" d="M276.3,410.32c-.02.07-.03.21-.1.3-.13.16-.3.09-.45-.01-.07-.05-.14-.1-.2-.16-1.49-1.38-3.12-1.32-4.83-.45-.19.1-.37.21-.57.27-.1.03-.27.02-.35-.04-.18-.13-.08-.29,0-.44.5-.79,1.32-1.06,2.15-1.23,1.44-.3,2.79-.13,3.9.95.37.37.4.43.44.8Z"/>
      <path class="cls-4" d="M288.87,409.9c.37.3.51.72.61,1.17-1.31-.38-2.58-.47-3.79.33-.65.43-1.25.89-1.56,1.63-.08.2-.13.43-.38.44-.31.02-.45-.24-.53-.47-.13-.38-.38-.78.36-.92.3-.06.5-.54.78-.8,1.03-.97,2.31-1.4,3.68-1.59h0c.23.28.55.2.84.21Z"/>
      <path class="cls-4" d="M246.72,368.71c1.58-1.23,3.18-1.74,4.8-2.2.85-.24,1.72-.45,2.62-.41.25.01.51-.02.76.04.29.07.64.23.61.55-.03.35-.41.38-.7.39-1.86.06-3.7.28-5.51.76-.78.2-1.43.73-2.58.87Z"/>
      <path class="cls-4" d="M262.06,406.63c0-.31.12-.56.35-.77.25-.02.51-.02.76-.05,1.25-.19,2.44-.06,3.63.81.1-1.02.07-1.93.31-2.86.59.87.54,1.81.5,2.72-.04.85-.6,1.15-1.43.87-.04-.01-.08-.03-.11-.05-1.21-1.02-2.63-.73-4.01-.65Z"/>
      <path class="cls-4" d="M275.89,413.49c-2.77-1.54-2.57-2.11-6.7-.43.99-2,2.25-1.97,4.64-1.79,1.32.1,2,.98,2.06,2.22Z"/>
      <path class="cls-1" d="M270.53,368.7c.65,1.26,1.87,1.94,2.91,2.79.25.2.81.29.44.83-2.73-1.12-4.46-3.1-5.14-5.97.83.6,1.05,1.67,1.78,2.35Z"/>
      <path class="cls-1" d="M249.32,359.44c.88-.1,1.64.33,2.45.55,1.46.66,2.93,1.32,4.44,2-1.73.33-5.03-.91-6.89-2.54Z"/>
      <path class="cls-4" d="M289.72,411.39c.43.48.85.96,1.28,1.44-.2.44-.48.17-.74.08-1.9-.65-2.65-.42-4.04,1.06-.29.3-.51,1.17-1.07.68-.49-.42.23-.9.47-1.27.7-1.08,1.63-1.82,3.05-1.69.36.03.78.07,1.05-.3Z"/>
      <path class="cls-4" d="M260.37,347.55c.06-.26-.21-.76.25-.82.42-.05.41.43.46.76.03.21.03.43.11.62.16.36.43.63.85.68.43.05.74-.15.91-.55.19-.47.35-.95.54-1.42.06-.16.19-.28.38-.27.16,0,.2.13.24.25.2.72-.36,2.22-.98,2.62-.92.6-1.93.34-2.49-.61-.22-.39-.27-.8-.27-1.26Z"/>
      <path class="cls-4" d="M255.91,412.69c.23-.34.58-.41.95-.46.83.64,1.79,1.12,2.4,2.04.34.51.75.45,1.14-.02.15-.18.37-.45.62-.16.2.24.01.48-.16.67-.17.19-.33.39-.53.55-.7.55-1.03.53-1.64-.12-.4-.43-.76-.91-1.17-1.34-.47-.51-1.18-.63-1.62-1.15Z"/>
      <path class="cls-4" d="M258.17,411.41c.3-.46.65-.85,1.2-1.02.12.18.27.34.48.39.99.22,1.81.75,2.51,1.45.44.44.92.57,1.5.46h0c-.77.99-1.28,1.16-2.02.43-1.04-1.03-2.29-1.49-3.68-1.7Z"/>
      <path class="cls-4" d="M260.38,409.26c.19-.45.57-.74.95-1.01.44.27.95.31,1.44.42,1.06.24,1.77.94,2.34,1.81.12.18.21.4-.01.56-.14.1-.32.07-.48-.02-.07-.04-.15-.09-.21-.15-1.11-1.14-2.54-1.45-4.03-1.61Z"/>
      <path class="cls-4" d="M270.59,392.52c.05-1.27.5-1.87,1.6-2.19.71-.21,1.62.13,2.13.8.1.13.19.29.23.44.05.16.07.35-.08.47-.15.13-.31.06-.45-.06-.13-.11-.25-.23-.39-.33-.84-.63-1.5-.58-2.23.15-.23.23-.37.58-.83.7Z"/>
      <path class="cls-4" d="M267.33,421.47l.13,2.66c-1.2-.33-1.74-1.63-1.51-3.65.58.15.84.76,1.37.98Z"/>
      <path class="cls-1" d="M260.99,369.33c-.2,1.07-.47,2.13-1.05,3.07-.22.36-.42.74-.86.87h.01c-.11-.84.37-1.54.59-2.31.22-.77.48-1.53.73-2.29.56-.11.45.38.59.65Z"/>
      <path class="cls-1" d="M243.25,365.05c-.36.2-.74.56-.96-.15.55-1.26.95-2.6,1.83-3.7.15.02.31.04.46.06-.53,1.23-1.15,2.43-1.32,3.79Z"/>
      <path class="cls-4" d="M277.63,394.42c.84-1.33,2.7-1.81,3.68-1.09.27.2.24.58-.06.72-.11.05-.26.11-.36.07-1.07-.39-2.12-.27-3.26.3Z"/>
      <path class="cls-4" d="M277.34,391.01c.59-1.36,1.87-1.76,2.9-.9.23.19.44.41.44.73,0,.12-.02.26-.09.35-.12.16-.32.14-.44,0-.87-.98-1.79-.58-2.72-.13l-.08-.06Z"/>
      <path class="cls-4" d="M270.45,395.21c1.26-1.52,2.57-1.76,3.92-.77-.7.07-1.32-.26-1.92-.04-.59.22-1.17.47-2.01.81Z"/>
      <path class="cls-4" d="M244.58,361.26c-.15-.02-.31-.04-.46-.06-.01-.53.15-1,.53-1.38.13-.13.31-.17.47-.09.2.1.15.29.08.44-.18.38-.25.82-.62,1.09Z"/>
      <path class="cls-4" d="M263.86,412.69c.03-.11.05-.23.08-.34.25.17.03.25-.07.35,0,0,0,0,0,0Z"/>
      <path class="cls-4" d="M277.42,391.08c-.05.11-.09.21-.14.32-.03-.03-.08-.05-.09-.08-.03-.14.05-.23.15-.31,0,0,.08.06.08.06Z"/>
      <path class="cls-4" d="M262.69,405.03c.02-.12.05-.23.19-.28.03.15-.04.24-.19.28Z"/>
      <path class="cls-7" d="M175.87,425.68c-.19-3.93,2.49-7.69,5.94-8.68,1.69-.48,2.38-.1,2.66,1.64.19,1.18.13,2.36-.49,3.45-.35.62-.8.91-1.53.89-1.37-.04-2.68.3-3.95.8-.95.38-1.76.96-2.62,1.89Z"/>
      <path class="cls-5" d="M186.18,414.52c.09.2.25.35.45.43.97.41,1.53,1.18,1.89,2.13.09.24.23.46.31.7.43,1.24,1.02,1.67,2.58.96.23-.11.52-.17.68-.34.59-.64,1.24-.56,1.99-.22-.91,2.45-2.92,3.45-5.25,4.04-1.22.31-2.43.2-3.64-.1,0-.25,0-.49.08-.74.62-1.99-.05-4.16-1.72-5.51.52-.57,1.1-1.01,1.83-1.25.12.06.21.03.27-.08.18,0,.35,0,.53,0Z"/>
      <path class="cls-7" d="M192.07,429.54c-.14-3.38.79-6.02,3.47-7.9.39-.27.84-.39,1.28-.54.81-.27,1.43,0,1.89.63.94,1.3.92,2.77.63,4.26-.05.23-.22.34-.43.41-.4.13-.79.31-1.2.41-.98.24-1.97.48-2.91.87-.95.4-1.67,1.15-2.73,1.85Z"/>
      <path class="cls-7" d="M172.05,420.54c.22-2.25,1.03-3.85,2.69-4.96,1.08-.72,2.28-1.11,3.57-1.23.56-.05.86.17,1.04.7.37,1.11.2,1.85-.77,2.52-.61.42-.99,1.06-1.53,1.5-.56.45-1.4.03-2.09.31-.9.36-1.87.52-2.91,1.17Z"/>
      <path class="cls-7" d="M228.9,409.99c.85,1.97.2,4.52-1.58,5.94-.2-1.18-.47-2.28-.98-3.29-.09-.17-.01-.31.14-.43.84-.68,1.47-1.62,2.41-2.22Z"/>
      <path class="cls-5" d="M190.53,414.83c.82-.02,1.35.42,1.71,1.09.24.44.46.89.72,1.39-.76.28-1.46.55-2.17.8-.41.14-.76.07-.96-.36-.46-.99-.91-1.99-1.36-2.98.68.02,1.37.04,2.05.06Z"/>
      <path class="cls-5" d="M209,412.63c1.09.09,2.21.07,3.23.51.36.15.87.2.92.73.05.42-.59,1.43-.95,1.59-.17.08-.34.08-.48-.02-1.15-.82-2.52-1.11-3.83-1.53.31-.47.64-.93,1.1-1.28Z"/>
      <path class="cls-5" d="M195.14,413.92c1.38.16,1.55,1.38,2.14,2.33-.82.19-1.55.35-2.24.67-.55.26-1.02.1-1.24-.49-.26-.7-.84-1.16-1.24-1.75.86-.25,1.72-.51,2.59-.76Z"/>
      <path class="cls-5" d="M181.39,412.17c.29.02.57.05.86.06,1.5.05,1.5.06,1.66,1.64,0,0,0,0,0,0-.4-.05-.69.21-1.04.31-.9.27-1.57,1.07-2.56,1.09-.12-.4-.16-.86-.47-1.16-.52-.5-.33-.86.14-1.23.27-.21.52-.44.85-.54.21.09.39.08.49-.16l.07-.03Z"/>
      <path class="cls-4" d="M180.31,415.28c1-.02,1.66-.83,2.56-1.09.34-.1.64-.37,1.04-.31-.49.62-1.17,1.07-1.57,1.78-.34.6-1.01.6-1.57.6-.59,0-.47-.56-.46-.97Z"/>
      <path class="cls-5" d="M192.43,411.85c.24.96.24.98-.6.99-.59,0-1.18-.02-1.76.15-.57.17-.75-.18-.77-.68,1.04-.17,2.05-.51,3.13-.46Z"/>
      <path class="cls-5" d="M195.52,410.36c.2.15.39.29.65.48-.67.37-1.28.69-1.88,1.05-.55.34-.93.21-1.22-.33.63-.76,1.56-.94,2.44-1.21Z"/>
      <path class="cls-5" d="M201.84,405.84c-.03.24,0,.53-.2.7-.78.65-1.48,1.42-2.5,1.75-.36-.35-.16-.62.15-.81.85-.54,1.6-1.24,2.54-1.63Z"/>
      <path class="cls-5" d="M206.92,399.04c-.18,1.3-1.15,2.32-2.39,2.52-.03-.46.35-.65.61-.9.58-.55,1.18-1.08,1.78-1.61Z"/>
      <path class="cls-5" d="M207.91,398.52c-.24,0-.48.02-.71.03-.23-1.05.5-1.63,1.12-2.26.34.34.21.7.04,1.05-.19.38-.43.74-.44,1.18Z"/>
      <path class="cls-5" d="M199.17,408.68c-.34.69-1.05.89-1.66,1.19-.34.16-.36-.21-.43-.43.7-.25,1.4-.5,2.09-.75Z"/>
      <path class="cls-4" d="M181.32,412.2c-.1.24-.28.25-.49.16.14-.14.3-.18.49-.16Z"/>
      <path class="cls-4" d="M185.66,414.52c-.07.11-.16.14-.27.08.07-.11.16-.14.27-.08Z"/>
      <path class="cls-6" d="M174.69,421.21c.04-.14.14-.2.25-.12.12.09-.01.19-.06.28-.07-.05-.13-.1-.19-.16Z"/>
      <path class="cls-5" d="M188.5,414.79c-.09-.07-.19-.15-.28-.22.16-.02.23.09.28.22Z"/>
      <path class="cls-7" d="M270.71,429.15c-1.21-1.58-1.8-3.24-2.15-4.99-.21-1.04-.33-2.09-.22-3.16.14-1.28.67-2.36,1.65-3.19.85-.72,1.73-.58,2.39.33.76,1.04,1.25,2.21,1.53,3.46.17.77.03,1.51-.34,2.21-.92,1.71-1.83,3.43-2.86,5.34Z"/>
      <path class="cls-7" d="M249.29,425.4c-1.31-3.06-.1-7.24,2.59-9.03,1.62-1.08,2.78-.69,3.46,1.14.4,1.07.37,2.16.24,3.27-.04.36-.24.53-.51.66-.34.17-.7.3-1.06.44-1.56.65-2.93,1.55-3.98,2.89-.18.23-.34.49-.74.62Z"/>
      <path class="cls-7" d="M291.55,425.48c-.81-1.55-1.9-2.77-3.26-3.77-.63-.46-.86-1.12-.96-1.87-.16-1.23.17-2.38.64-3.47.54-1.24,1.64-1.46,2.72-.62,1.07.83,1.52,1.99,1.78,3.28.47,2.25.07,4.36-.93,6.45Z"/>
      <path class="cls-7" d="M258.42,403.52c.55.91,1,1.73,1.83,2.2.25.14.32.38.17.65-.42.76-.79,1.56-1.47,2.23-1.31-1.56-1.05-3.21-.53-5.07Z"/>
      <path class="cls-5" d="M288.87,409.9c-.3-.01-.62.07-.84-.22.23-.01.47-.02.7-.03.05.08.09.17.14.25Z"/>
      <path class="cls-5" d="M252.02,415.15c-.07.11-.18.18-.28.11-.13-.09-.02-.19.04-.28.08.06.16.12.24.18Z"/>
      <path class="cls-1" d="M276.26,383.99c-1.66,2.63-7.46,4.01-10.63,2.56.97-.45,1.89-.05,2.76-.14.89-.09,1.77-.2,2.63-.42.91-.23,1.79-.5,2.65-.88.8-.36,1.52-.91,2.59-1.12Z"/>
      <path class="cls-1" d="M273.61,382.52c-.31.71-.93,1.11-1.58,1.39-2.57,1.1-5.19,1.51-7.88.41-.19-.08-.41-.12-.52-.45.25-.13.53-.07.79-.05,2.79.28,5.5,0,8.1-1.07.36-.15.71-.29,1.1-.22h-.02Z"/>
      <path class="cls-5" d="M267.48,394.09c-.28,0-.65.07-.68-.35-.03-.42.24-.78.64-.81.4-.03.49.41.54.73.06.35-.23.4-.5.43Z"/>
      <polygon class="cls-1" points="259.07 373.27 259.04 373.31 259.08 373.28 259.07 373.27"/>
      <path class="cls-1" d="M273.63,382.54s.02-.06.03-.08c-.01.02-.03.05-.04.07,0,0,.02.01.02.01Z"/>
      <path class="cls-5" d="M264.84,401.39s-.05.1-.06.1c-.09-.02-.07-.06.05-.11,0,0,.01.01.01.01Z"/>
      <path class="cls-1" d="M212.07,390.74c1.76.32,3.27.6,4.89.9-1.12.93-3.54.51-4.89-.9Z"/>
      <path class="cls-5" d="M204.5,404.13c-.06.1-.12.2-.18.31-.03-.03-.08-.05-.08-.09-.02-.14.07-.23.18-.3,0,0,.09.08.09.08Z"/>
      <path class="cls-5" d="M199.8,354.69c-.05-.38.04-.65.29-.74.65-.22.96-1.21,1.65-1.01.7.2.23,1.13.54,1.67.18.32.29.7-.11,1.02-.43.35-.83.75-1.43.71-.37-.02-.58-.32-.72-.65-.14-.35-.07-.76-.23-1.01Z"/>
      <path class="cls-5" d="M284.18,399.14c.12.04.26.21.21.23-.28.13-.13-.16-.2-.24,0,0,0,0,0,0Z"/>
    </g>
  </g>
  <path class="cls-3" d="M241.39,405.22l2.35-.81-2.35.81Z"/>
  <polygon class="cls-2" points="243.79 404.41 241.34 405.09 241.11 404.24 243.42 403.71 243.79 404.41"/>
</svg>