<?xml version="1.0" encoding="UTF-8"?>
<svg id="GRIFOS" xmlns="http://www.w3.org/2000/svg" viewBox="0 0 455.05 452.32">
  <defs>
    <style>
      .cls-1 {
        fill: #f1e3ba;
      }

      .cls-1, .cls-2, .cls-3, .cls-4, .cls-5, .cls-6, .cls-7 {
        stroke-width: 0px;
      }

      .cls-2 {
        fill: #231c19;
      }

      .cls-3 {
        fill: #7e4326;
      }

      .cls-4 {
        fill: #261d19;
      }

      .cls-5 {
        fill: #be5a26;
      }

      .cls-6 {
        fill: #e88b3c;
      }

      .cls-7 {
        fill: #cba97d;
      }
    </style>
  </defs>
  <g id="Legs">
    <g id="L4">
      <path class="cls-1" d="M234.58,353.9c.43-1.06,1.21-1.86,2.04-2.6,2.21-1.95,4.79-3.29,7.53-4.34,1.83-.7,3.69-1.29,5.63-1.6,1.77-.29,3.54-.54,5.34-.61.72-.03,1.43,0,2.14-.17.87-.21,1.74.14,2.61.21,2,.15,3.91.72,5.76,1.51.88.37,1.46,1.1,2.21,1.61-.25.48-.29.96-.16,1.5.25,1.01.44,2.03.61,3.05.48,2.97,1.59,5.58,3.97,7.56.52.43.96.97,1.39,1.49.71.84,1.23,1.79,1.71,2.94-1.22-.45-2.13-1.23-3.4-1.1.32,1.27,1.42,1.94,1.86,3.02-.56-.26-1.04-.62-1.55-.91-.52-.29-1.01-.67-1.72-.73,1.72,2.43,3.06,5.42,3.4,7.56-.06.05-.12.11-.17.16-.75-.32-1.24-.98-1.92-1.4-.8-.49-1.55-1.09-2.75-1.31,1.84,2.37,2.77,4.85,2.76,7.89-1.62-1.66-3.35-2.81-4.95-4.13-.04.01-.08.04-.1.02-.11-.06-.13-.04-.05.05,0,.01.11-.06.17-.09-.31.45.09.75.26,1.08.45.9.86,1.79.93,2.81.05.78-.1.93-.87.77-.55-.11-1.07-.31-1.55-.61-.57-.36-1.14-.73-1.71-1.09-.06-.03-.11-.05-.17-.08.01.04.03.09.04.13.05-.03.09-.06.14-.08-.22.54.17.97.24,1.46-.14.19-.27.4-.43.58-.76.82-1.1.87-2.07.25-.44-.28-.85-.59-1.23-.95-1.27-1.2-2.53-2.41-3.44-4.17-.16.58-.08.91,0,1.25.29,1.13.42,2.27.39,3.43-.03,1.07-.35,1.28-1.32.78-.35-.18-.69-.41-.99-.68-.93-.82-1.76-1.74-2.4-2.82-.12-.21-.14-.58-.6-.47,0,.67-.01,1.35,0,2.03.02.95-.3,1.81-.79,2.6-.24.4-.5.84-1.07.85-.37-.69-.49-1.47-.72-2.34-.63.8-.71,1.78-1.55,2.52.09-1.13.09-2.09-.03-3.04-.12-.99-.15-1.99-.52-3-.52,3.14-1.19,4.41-2.9,5.43-.45-1.37-.91-2.72-1.34-4.08-.12-.38-.18-.78-.31-1.16-.07-.21-.13-.5-.43-.5-.28,0-.42.21-.53.43-.13.25-.24.51-.34.76-.33.82-.66,1.63-1.17,2.39-.49-.44-.6-1.05-.8-1.6-.77-2.15-.91-4.37-.78-6.63.02-.4.17-.84-.15-1.28-1.18,1.13-1.48,2.67-2.32,4.04-1.25-3.54-.81-6.92.06-10.28-.31-.05-.48.05-.64.16-.93.66-1.42,1.69-2.16,2.77-.43-1.48-.49-2.77-.39-4.07.13-1.6.54-3.15.92-4.71.2-.81.51-1.61.36-2.47ZM257.7,364.24c-.04-.11-.07-.13-.08-.05,0,0,.06.03.09.04,0,.91.51,1.58,1.09,2.19.76.81,1.47.71,2.01-.25.18-.32.25-.66.28-1.03.02-.34-.12-.72.21-1.09.45.29.9.61,1.37.86.82.44,1.21.28,1.54-.61.31-.81.3-1.64.1-2.48-.09-.38-.23-.76.03-1.09.14,0,.22-.01.3,0,1.37.27,1.82-.07,1.72-1.43-.08-1.12-.4-2.2-.95-3.18-.76-1.36-1.7-2.61-2.71-3.8-.42-.49-.55-.55-1.29-.77,3.53,5.5,4.1,6.74,3.8,8.32-1.04-.31-1.75-1.23-2.99-1.67.68,1.95,1.37,3.73.9,5.82-1.22-.76-1.92-1.99-3.04-2.7-.22.38-.18.62-.11.85.3.94.13,1.91.16,2.86,0,.33-.04.67-.38.82-.42.19-.66-.14-.92-.39-.4-.38-.54-1-1.11-1.22ZM241.09,356.93c-.46-.08-.48.22-.53.43-.59,2.23-.79,4.47-.08,6.71.16.49.42.95.67,1.41.15.28.34.6.7.58.42-.02.58-.37.7-.73.09-.25.11-.54.51-.74.13.95.57,1.76.92,2.6.39.92.99,1.63,1.87,2.11.5.28,1.02.38,1.4-.13.34-.46.57-.25.86.02.5.48.93,1.09,1.82,1.24-.55-.88-1.36-1.36-1.8-2.18-.43-.81-.53-1.81-1.29-2.57-.51.91.08,1.93-.51,2.7-.27,0-.4-.17-.51-.33-.9-1.25-1.52-2.62-1.83-4.14-.13-.62-.23-1.26-.4-1.87-.14-.5-.42-.54-.76-.13-.18.21-.33.46-.44.71-.25.61-.47,1.24-.75,2.01-1.17-2.59-.83-5.17-.56-7.71Z"/>
      <path class="cls-2" d="M219.05,357.92c1.03-.06,1.27.04,1.39.96.25,1.89,1.09,3.48,2.22,4.98,1.22,1.62,2.07,3.42,2.49,5.41.18.86.35,1.76-.47,2.45-.29.25-.12.49-.02.75.51,1.3.92,2.64,1.15,4.02.24,1.47.25,2.96.13,4.43-.07.78-.19,1.61-1.12,1.96-.4.15-.28.53-.29.83-.02,1.08-.14,2.16-.39,3.21-.09.39-.22.78-.41,1.12-.4.71-.97.86-1.73.53-.56-.24-.98-.66-1.53-1.23-.12,2.05-.71,3.85-1.2,5.67-.1.39-.19.78-.35,1.14-.39.9-1.04,1.03-1.78.38-.11-.1-.2-.24-.46-.56-.18,1.22-.18,2.23,0,3.23.17.94.41,1.87.66,2.8.18.65.33,1.26-.26,1.77-.52.46-1.1.36-1.69.13-.14-.06-.3-.06-.56-.11.52,1.33,1.38,2.31,2.28,3.24.48.49.75.95.34,1.57-.25.38.09.49.25.68.69.85,1.31,1.72,1.36,2.87.06,1.27-.41,1.6-1.6,1.07-.85-.38-1.64-.47-2.52,0-1.08.57-2.25.55-3.38.12-.54-.21-.87-.18-1.18.36-.21.37-.55.69-.88.98-1.17,1.04-1.8.97-2.76-.27-.41.34-.59.85-.9,1.26-.4.54-.85.96-1.56.97-.34,0-.61.11-.84.38-.6.71-1.35,1.25-2.15,1.71-.68.4-1.11,1.03-1.53,1.66-.99,1.49-2.3,2.54-4.08,2.92-.62.13-1.09.46-1.43,1-.15.24-.32.46-.49.68-.84,1.06-1.54.99-2.14-.25-.48-.99-.67-2.06-.58-3.15.08-.95.19-1.91.33-2.85.08-.51.28-1.02.57-1.44.34-.48.26-.87-.12-1.3-.79.25-1.52.64-2.21,1.12-1.53,1.06-3.16,1.87-5.03,2.11-.82.11-1.48.58-2.12,1.06-1.29.95-2.68,1.59-4.34,1.35-.24-.03-.51-.01-.7-.13-.87-.52-1.52-.11-2.15.45-.27.24-.52.5-.8.73-.72.58-1.28.4-1.49-.49-.25-1.04-.1-2.07.18-3.08.41-1.44,1.3-2.55,2.53-3.64-.64-.06-1.16-.08-1.68-.16-.51-.07-.95-.41-1.48-.46-.62-.05-1.18.14-1.76.32-1.22.38-1.66,0-1.44-1.26.22-1.27.82-2.32,1.84-3.13.59-.47,1.31-.76,1.84-1.41-.93-.27-1.82-.47-2.68-.78-2.72-.98-4.84-2.62-5.78-5.49-.13-.39-.22-.77-.23-1.17-.05-1.3.68-1.98,1.95-1.68,1.17.28,2.36.42,3.55.57,1.03.13,2.06.1,3.28.05-.32-.43-.54-.74-.76-1.05-.32-.46-.61-.94-.77-1.48-.41-1.34.19-2.14,1.57-2.05,1.48.09,2.96.19,4.44.06,1.47-.12,2.91-.46,4.38-.99-.47-.31-.9-.52-1.23-.83-.82-.78-.65-1.59.4-2.03.77-.32,1.56-.6,2.34-.91,4.72-1.85,7.39-5.42,8.54-10.24.21-.88.54-1.77.28-2.7-.1,0-.21-.03-.24,0-1.11,1.14-1.52,1.12-2.63-.03-1.29-1.33-2.07-2.93-2.71-4.63-.17-.45-.33-.9-.49-1.35-1.27.78-1.93.65-2.7-.55-1.05-1.63-1.45-3.45-1.59-5.35-.05-.63-.07-1.27-.1-1.84-.24-.18-.35-.05-.48.04-1.19.81-2.2.46-2.51-.92-.22-.98-.31-1.98-.27-2.98.11-3,.78-5.86,2.15-8.54.05-.11.12-.21.17-.32.59-1.26,1.54-2,2.96-2.07.27.18.07.33-.04.47-2.76,3.45-3.72,7.45-3.58,11.78,0,.29-.11.65.31.88.99-1.37,1.81-2.9,3.31-4.21-.81,4.39-.85,8.41,1.06,12.43.87-1.57.92-3.24,1.71-4.88.82,5.64,2.33,9.69,4.03,10.91.48-1.15.29-2.46.84-3.72.64.8.96,1.63,1.38,2.38,1.13,2,2.49,3.81,4.17,5.38,0,.2,0,.4-.3.4-.48.01-.83-.27-1.17-.55-.52-.43-1-.9-1.63-1.47-.44,3.31-1.79,6.11-3.61,8.7-2.13,2.31-4.61,4.12-7.68,5.07,1.59.64,3.21.67,4.85.55-2.08,1.11-4.07,2.28-6.22,3.14-.24-.08-.47,0-.7.07-1.46.46-2.94.69-4.48.67-.95-.01-1.88-.18-2.85-.23.79,2.16,2.12,2.99,4.21,2.75.48-.06,1-.17,1.52.09-.57.54-.59.51-1.21.81-.29.14-.79,0-.83.53-.39-.09-.75-.21-1.17-.08-1.08.33-2.2.39-3.32.41-.37,0-.78-.06-1.15.29,1.42,1.52,3.18,2.35,5.09,2.81,2.76.67,5.53.62,8.27-.23.25.21.54.28.85.22-1.12.97-2.25,1.93-3.37,2.9.05.08.1.16.15.24,4.36.21,8.26-.99,11.71-4.25-.26,1.13-.53,1.94-.9,2.73-.41.86-.94,1.67-1.19,2.6-.1.1-.21.22-.03.32.09.05.18-.04.23-.13,2.85-1.28,5.16-3.23,7.06-5.73,0,2-.5,3.85-1.43,5.58-.4.22-.62.6-.89.95-.51.68-1.04,1.38-1.75,1.8-1.06.62-1.06,1.64-1.42,2.71,2.37-.34,3.59-2.1,5.2-3.65.14,1.14.26,2.04.35,2.95.09.97.28,1.07,1.16.58,1.02-.57,1.62-1.52,2.21-2.48.18-.28.18-.72.66-.8.34,1.07.39,2.23.97,3.39,1.58-1.7,1.72-3.88,2.68-5.77.81,1.35.95,2.81,1.22,4.24.21-.09.3-.1.35-.15,1.72-1.67,1.83-3.82,1.81-6.02,0-.27-.21-.41-.37-.59-1.16-1.24-2.1-2.62-2.73-4.2-.56-1.4-1.11-2.81-1.67-4.21-.02-.77,0-1.55-.22-2.31.14-.01.27-.03.41-.04.45.86,1.02,1.6,1.9,2.06.38.2.61.1.6-.36,0-.24,0-.48-.05-.71-.36-1.67-.74-3.33-1.53-4.85-.12-.22-.13-.34.07-.48.84,1.26,1.56,2.63,2.89,3.8.21-2.2-.27-4.07-.49-6,2.1,1.85,4.26,3.58,5.85,6.16.29-1.32.42-2.43.8-3.47.05-.14.07-.32.04-.47-.22-.97-.38-1.93-1.07-2.74-.6-.69-1.02-1.53-1.55-2.28-.29-.42-.47-.92-.93-1.31-.55.93-.07,1.89-.18,2.82-.82-.47-.98-.61-1.22-1.29-.47-1.35-.92-2.72-1.37-4.08.55-.39.62-.97.59-1.57-.03-.54-.12-1.08-.19-1.63.36-.58.09-1.26.31-2.02.21.76.37,1.41.58,2.04.53,1.58,1.34,3.01,2.56,4.15,1.3,1.21,2.83.73,3.32-.97.14-.5.25-1.01.23-1.54-.02-.54,0-1.09,0-1.75.62.6,1.15,1.13,1.7,1.64.53.49.79,1.27,1.66,1.55.06-.84.23-1.6.15-2.34-.24-2.45-1.06-4.75-2.17-6.94-.11-.21-.39-.38-.26-.72.34.17.62.31.92.45.33.15.65.31,1,.42.91.27,1.21.01,1.07-.9-.03-.2-.12-.38-.16-.58-.21-.93-.67-1.76-1.2-2.65.81.2,1.05,1.12,1.86,1.11.82-.02,1.28.78,2.08.94.13-.84-.29-1.49-.6-2.16-.65-1.38-1.52-2.63-2.32-3.92-1.06-1.73-1.89-3.53-1.54-5.65ZM197.83,418.18c.38-.25.61-.63.84-1.01.58-.99,1.42-1.67,2.38-2.27.7-.44,1.49-.9,1.77-1.94-.59.06-.77.46-1.07.68-.62.45-1.22.9-2.02.97-1.21.11-1.5-.11-1.66-1.29-.04-.33.05-.69-.22-1.1-.85,1.03-1.85,1.66-2.98,2.11-.41.17-.73.49-.93.9-1.41,1.03-.75,2.74-1.31,4.07-.27.64-.14,1.41.21,2.05.15.05.25-.03.32-.12.7-.87,1.58-1.39,2.68-1.66.81-.19,1.56-.6,1.99-1.4ZM179.77,412.6c-.55.04-.99.34-1.38.67-.92.76-1.85,1.54-2.67,2.4-.68.72-1.11,1.63-1.2,2.67.46.06.71-.25,1.02-.39.63-.28,1.16-.48,1.89-.06.91.53,1.94.43,2.86-.15.98-.62,1.95-1.25,2.93-1.88.63-.11,1.27-.18,1.89-.33.98-.24,1.97-.51,2.9-1.47-.8,0-1.36.03-1.9,0-1.03-.08-1.32-.51-1.1-1.53.09-.43.46-.76.46-1.24-.3-.2-.61-.1-.91,0-.95.33-1.95.45-2.94.56-.7.08-1.32.29-1.85.74ZM217.17,409.5c-.2-.89-.74-1.27-1.31-1.66-1.29-.9-2.89-1.05-4.24-1.91-.18.43-.11.79-.14,1.14-.04.4-.08.79-.14,1.19-.22,1.45-.09,1.6,1.4,1.84.41.07.82.07,1.17-.1,1-.49,2.06-.56,3.25-.49ZM177.53,411.57c-.27-.14-.37-.22-.48-.24-1.29-.32-2.53-.72-3.43-1.78-.14-.16-.31-.26-.52-.13-.78.49-1.64.9-1.98,2.08,1.25-.4,2.29-.04,3.37.28.95.28,1.96.26,3.04-.21Z"/>
      <path class="cls-2" d="M273.95,372.29c-.34-2.15-1.67-5.13-3.4-7.56.71.06,1.21.44,1.72.73.51.29.99.64,1.55.91-.44-1.08-1.54-1.75-1.86-3.02,1.27-.13,2.18.65,3.4,1.1-.48-1.15-1-2.1-1.71-2.94-.44-.52-.87-1.05-1.39-1.49-2.38-1.97-3.49-4.59-3.97-7.56-.16-1.02-.36-2.04-.61-3.05-.13-.54-.09-1.02.16-1.5.93.14,1.17.35,1.39,1.33.33,1.48.65,2.97.96,4.45.31,1.49.97,2.77,2.05,3.86.88.88,1.71,1.8,2.53,2.73.98,1.13,1.75,2.4,2.15,3.85.38,1.36.13,1.78-1.23,2.18,1.04,2,1.87,4.07,2.33,6.27.38,1.82.56,3.64.18,5.48-.29,1.42-.43,1.51-1.97,1.61-.08,1.38.12,2.79-.23,4.15-.02.08,0,.17-.04.24-.65,1.31.02,2.05,1.1,2.64.46.25.89.54,1.32.83,1.06.74,1.06,1.68-.03,2.39-.36.23-.77.39-1.24.62,1.37.66,2.71,1.1,4.16,1.17.52.02,1.04.04,1.56.12,1.09.17,1.45,1.03.79,1.92-.41.55-.92,1-1.57,1.27-.15.06-.29.12-.36.33,1.31,1.04,2.52,2.19,3.03,3.88.11.36.37.38.66.34.59-.1,1.18-.2,1.77-.32.23-.04.46-.14.7-.17,1.33-.14,1.91.52,1.52,1.8-.34,1.12-.95,2.11-1.7,3.01-.2.24-.49.41-.57.78.59.07,1.08-.27,1.6-.41.61-.17,1.21-.3,1.69.2.46.48.38,1.14.21,1.71-.26.88-.74,1.68-1.32,2.4-1.29,1.58-2.9,2.69-4.82,3.37.1.25.31.29.47.4.99.68.99,1.64,0,2.31-1.5,1.03-3.22,1.38-4.99,1.52-1.19.09-2.39.01-3.67-.29.16,1.14.12,2.16.53,3.17.36.88.24,1.9.12,2.86-.1.77-.76,1.04-1.42.62-.37-.23-.68-.56-.99-.87-.37-.37-.78-.54-1.3-.41-1.7.4-3.15-.2-4.51-1.12-.89-.61-1.74-1.27-2.71-1.99-.2.65-.54,1.12-1.12,1.33-.56.2-1.09,0-1.64-.12-.71-.16-1.33-.52-2.14-.74-.03.45-.07.86-.09,1.28-.06,1.3-.52,2.43-1.48,3.31-.81.75-1.45,1.6-1.9,2.59-.05.11-.1.22-.17.32-.31.41-.55.91-1.17.92-.67.01-.87-.53-1.06-.99-.49-1.22-1.3-2.18-2.19-3.12-1.2-1.26-1.33-2.86-1.15-4.49.08-.74.32-1.46.56-2.49-1.28,1.14-2.66,1.4-3.97,1.8-1,.31-1.93.69-2.79,1.32-1.43,1.06-3.1,1.35-4.8.91-1.08-.28-1.96-.06-2.85.45-.07.04-.14.08-.21.11-1.07.52-1.71.12-1.67-1.08.03-.76.19-1.5.49-2.21.52-1.21,1.26-2.22,2.5-2.93-.39-.32-.87-.5-.95-1.02-.08-.53.03-1.03.26-1.51.54-1.17,1.27-2.23,2.18-3.14.31-.31.49-.49.22-.97-.36-.66-.22-1.11.36-1.57.37-.3.81-.52,1.23-.74.39-.21.78-.42,1.04-.85-.13-.08-.26-.15-.39-.23-.96-.58-1.15-1.19-.59-2.19.37-.66.83-1.27,1.23-1.92.65-1.06,1.29-2.12,1.65-3.32.04-.14.15-.29-.01-.46-.19-.1-.35.07-.52.12-.68.22-1.33.35-1.87-.28-.56-.64-.31-1.26.04-1.88.6-1.04,1.11-2.13,1.54-3.25.36-.94.61-1.91.82-2.88.13-.61.15-1.25.21-1.85-.14-.06-.21-.13-.27-.12-1.76.33-2.27-.06-2.08-1.82.23-2.12,0-4.13-.94-6.13-.31.15-.38.41-.5.65-.29.61-.7,1.13-1.43,1.1-.71-.04-1.1-.55-1.41-1.16-.57-1.11-.9-2.3-1.24-3.5-.11-.38-.19-.78-.29-1.21-.45.11-.79.55-1.31.33-.57-.25-.87-.7-1.08-1.23-.55-1.39-.79-2.85-.92-4.33-.03-.35-.03-.71-.05-1.06-1.01.02-.98,0-1.35-.81-1.53-3.42-1.15-6.87-.21-10.33.19-.69.46-1.37.75-2.02.24-.53.61-.96,1.3-.82.15.86-.16,1.66-.36,2.47-.37,1.56-.79,3.1-.92,4.71-.1,1.31-.04,2.6.39,4.07.74-1.08,1.23-2.11,2.16-2.77.16-.12.33-.21.64-.16-.86,3.36-1.31,6.74-.06,10.28.83-1.37,1.14-2.92,2.32-4.04.32.45.17.89.15,1.28-.13,2.26,0,4.48.78,6.63.2.55.31,1.16.8,1.6.51-.76.84-1.58,1.17-2.39.1-.26.22-.52.34-.76.11-.22.25-.43.53-.43.31,0,.36.29.43.5.13.38.19.78.31,1.16.44,1.36.89,2.71,1.34,4.08,1.71-1.02,2.38-2.29,2.9-5.43.36,1.01.4,2.01.52,3,.12.95.11,1.91.03,3.04.84-.74.93-1.72,1.55-2.52.23.87.35,1.65.72,2.34-.17.53-.31,1.07-.51,1.59-.38.98-.84,1.96-1.75,2.52-.73.45-.88,1.05-.93,1.79-.18,2.74-.86,5.34-2.2,7.76-.08.15-.29.31-.05.55.16-.08.35-.14.51-.24.61-.37,1.24-.73,1.77-1.23.14-.13.3-.3.52-.17.21.12.16.34.16.53,0,.16,0,.32-.04.48-.4,1.96-.96,3.86-1.97,5.62-.56.97-1.27,1.84-1.68,2.89-.03.06-.1.14-.08.18.07.12.17.08.26,0,1.21.08,2.21-.46,3.21-1.1-.85,2.39-2.64,3.96-4.78,5.41.8.25,1.52.24,2.22.71-2.33.99-4.05,2.44-5.14,4.74,1.4.07,2.58-.27,3.76-.63,1.15-.35,2.11-1.16,3.37-1.48-.38,1.15-1.26,1.9-1.51,2.97.26.15.51.13.73.07.42-.11.85-.23,1.25-.41,1.92-.86,3.45-2.22,4.93-4,.12,2.48.28,4.71,2.01,6.57.8-1.44.91-2.98,1.77-4.2.38.12.45.47.63.72.53.75,1,1.55,1.6,2.24,1.39,1.61,3.15,2.7,5.16,3.38.94.32,1.2.07,1.05-.88-.25-1.6-.84-3.09-1.66-4.47-.3-.5-.67-1.01-1.3-1.18-.1-.17-.19-.36-.32-.51-1.62-1.88-2.64-4.08-3.4-6.42-.14-.42-.33-.82-.09-1.27h-.01c.52,1.23,1.41,2.2,2.33,3.14,1.94,1.98,4.02,3.76,6.72,4.65.43-.1.8,0,1.19.2,2.62,1.26,5.37,1.34,8.17.79.23-.05.47-.1.45-.51-2.75-.25-4.76-2.03-6.94-3.47-.11-.07-.31-.14-.21-.36,2.46,1.24,5.07,1.68,7.8,1.47,1.81-.14,3.39-.84,4.83-1.91.1-.07.12-.19,0-.4-.69-.22-1.53-.03-2.27-.36-.52-.23-1.05-.2-1.63-.13-3.25.41-6.13-.42-8.4-2.86-.66-.71-1.28-1.36-2.32-1.52-.49-.08-.96-.4-1.39-.69-2.69-1.83-4.81-5.04-5.35-8.73,1.49,1.45,2.54,3.47,4.96,4,.03-.98-.62-1.68-.5-2.51.18-.02.22.12.29.21,1.22,1.61,2.71,2.93,4.32,4.14.41.31.81.59,1.38.44.03-.77-.36-1.37-.45-2.11.4.31.74.58,1.08.84,2.33,1.72,4.92,2.8,7.78,3.21.23.03.6.19.68,0,.32-.83,1-.39,1.51-.5.45-.09.92-.08,1.44-.12-.35-1.39-1.15-2.3-2.17-3.04-.68-.49-1.41-.9-2.13-1.34-.64-.38-1.29-.73-1.96-1.35,1.67-.25,3.3.14,4.89-.96-1.78,0-3.21-.36-4.58-.94-1.78-.75-3.45-1.69-4.8-3.11-.3-.31-.71-.6-.64-1.18,2.5,1.02,4.24,1.19,5.29.52-1.85-.96-3.23-2.48-4.77-3.81-.78-1.19-1.76-2.25-2.32-3.59-.2-.48-.41-.95-.62-1.42-.12-.26-.23-.48-.61-.39-1.34.32-2.49-.17-3.58-.89-.33-.22-.68-.41-1.02-.61-.06-.49-.46-.93-.24-1.46v.03c.56.36,1.13.73,1.7,1.09.48.3,1,.5,1.55.61.78.16.93.01.87-.77-.07-1.02-.48-1.92-.93-2.81-.16-.33-.56-.63-.26-1.08h-.02c1.59,1.33,3.32,2.48,4.94,4.14.01-3.04-.92-5.52-2.76-7.89,1.2.21,1.95.82,2.75,1.31.68.42,1.18,1.08,1.92,1.4.04.1.09.23.21.13.1-.08.04-.2-.04-.29ZM273.58,418.15c-2.71-.51-5.44-.99-7.8-2.66-.16.53.05.75.33.93,1.03.62,1.93,1.43,2.93,2.08.75.48,1.47,1.13,2.47,1.06.5.39,1.06.28,1.59.12.5-.15.94-.03,1.38.18.27.13.47.44.84.32-.04-1.62-.39-2.02-1.76-2.02ZM244.53,417.89c.07-.03.17-.03.22-.08,1.21-1.07,2.7-1.52,4.21-1.91.9-.23,1.76-.51,2.48-1.14.22-.19.43-.31.34-.67-.17-.68-.3-1.37-.45-2.12-.41.13-.61.45-.86.68-1.2,1.09-2.52,1.97-4.16,2.23-.64.1-1.27.13-1.88-.18-.57-.29-.3-.94-.6-1.41-.59.25-1.26.21-1.76.68-.15.05-.34.05-.44.15-.7.72-1.45,1.36-2.25,1.96-.84.63-1.33,1.54-1.59,2.77,1.27-.74,2.43-.67,3.67-.35,1.07.28,2.14.07,3.08-.61ZM259.37,419.52c.25-1.45.1-2.75-1.31-3.63-.33-.2-.55-.57-.83-.86-.29-.3-.41-.77-.94-.88-.27.71-.53,1.41-.82,2.11-.22.54-.52,1-1.24.88-.32-.05-.56.08-.6.42-.1.81-.49,1.62-.1,2.45-.05.73.2,1.39.71,1.84.88.78,1.57,1.69,2.11,2.8.56-.82.94-1.67,1.68-2.25.93-.73,1.38-1.7,1.33-2.89ZM276.85,403.83c1.49,1.52,3,1.81,4.24.8-1.5.05-2.76-.58-4.24-.8Z"/>
      <path class="cls-1" d="M197.04,379.56c-1.68-1.56-3.04-3.38-4.17-5.38-.43-.76-.75-1.58-1.38-2.38-.55,1.26-.36,2.57-.84,3.72-1.7-1.22-3.21-5.26-4.03-10.91-.79,1.64-.84,3.31-1.71,4.88-1.91-4.02-1.87-8.04-1.06-12.43-1.5,1.3-2.32,2.83-3.31,4.21-.42-.23-.3-.59-.31-.88-.14-4.33.82-8.33,3.58-11.78.11-.14.32-.29.04-.47.79-.28,1.61-.37,2.44-.41,3.97-.2,7.87.29,11.75,1.17,3.95.9,7.7,2.35,11.48,3.74.3.11.6.24.79.52-.4,2.81.87,5.07,2.72,7.37-1.33-.31-2.22-.76-3.02-1.43-.27-.23-.48-.54-.87-.59-.09-.07-.18-.14-.27-.21-.04-.03-.07-.06-.11-.1.03.04.07.07.1.11.07.09.13.19.2.28.02.36.1.7.22,1.05.69,2.08,1.77,3.92,3.35,5.45.44.43.96.81,1.25,1.34-.14.19-.24.21-.37.19-1.25-.15-2.38-.65-3.47-1.24-.38-.2-.78-.5-1.34-.23.7.89,1.36,1.68,1.96,2.52.95,1.31,1.56,2.78,2,4.33.14.48.09.96-.38,1.29-.43.29-.85.15-1.24-.08-.44-.27-.83-.62-1.28-.88-.76-.43-1.19-1.31-2.09-1.53-.01-.03-.02-.07-.03-.09-.01-.02-.05-.01-.07-.02.03.04.07.08.1.12.05.19.09.39.17.57.69,1.65,1.41,3.29,1.64,5.09.06.43-.04.98.4,1.33.07.54.16,1.08.19,1.63.03.59-.04,1.18-.59,1.57-.78.02-1.23-.5-1.65-1.04-.34-.44-.61-.94-.97-1.36-.63-.72-1.21-1.52-2.13-1.95-.18.36.04.55.12.76.3.78.58,1.57.75,2.39.06.28.17.56-.12.76-.27.19-.54.08-.79-.07-.21-.12-.41-.24-.6-.39-.76-.6-1.35-1.34-1.92-2.12-.19-.26-.22-.72-.76-.72,0,.33,0,.65,0,.97-.01.27.08.6-.28.71-.26.08-.46-.1-.63-.27-.68-.67-1.4-1.31-1.98-2.09-.39-.53-.7-1.13-1.34-1.51.25,1.53.22,3.02-.11,4.5ZM195.6,365.2c.71.92,1.35,1.68,2.32,2.05,1.05.4,1.69.08,1.76-1.02.08-1.28.13-2.58-.33-3.89-.34,1.04-.34,2.03-.34,3.03,0,.45.02,1.02-.38,1.19-.48.2-.89-.25-1.2-.61-.57-.67-1.01-1.44-1.46-2.2-.23-.39-.41-.84-.92-1.06-.42,1.15-.38,2.33-.73,3.38-.33.05-.41-.17-.51-.32-.79-1.24-1.17-2.62-1.29-4.07-.06-.66-.14-1.31-.45-1.96-1,.58-1.12,1.79-2.07,2.45-1.03-2.86.15-5.33,1-7.83-.43-.07-.48.23-.6.4-.93,1.36-1.31,2.91-1.46,4.51-.11,1.07-.11,2.16.23,3.21.31.96.97,1.14,1.7.46.2-.19.37-.4.62-.67.12.53.19.99.33,1.44.38,1.27.84,2.52,1.93,3.39.54.43.96.38,1.27-.22.24-.45.35-.97.6-1.67Z"/>
      <path class="cls-7" d="M209.86,377.79c-.44-.35-.34-.89-.4-1.33-.23-1.81-.95-3.44-1.64-5.09-.08-.18-.11-.38-.17-.57h0c.91.21,1.34,1.09,2.09,1.52.45.26.84.61,1.28.88.38.24.81.38,1.24.08.47-.32.52-.81.38-1.29-.44-1.55-1.06-3.02-2-4.33-.6-.84-1.27-1.63-1.96-2.52.56-.27.96.02,1.34.23,1.1.59,2.22,1.09,3.47,1.24.12.01.23,0,.37-.19-.29-.53-.8-.91-1.25-1.34-1.58-1.54-2.67-3.37-3.35-5.45-.11-.35-.2-.69-.22-1.05,0,0,.08-.08.08-.08.39.05.6.37.87.6.8.67,1.7,1.12,3.02,1.43-1.85-2.3-3.11-4.56-2.72-7.37,2.08.71,3.91,1.9,5.82,2.94,1.01.55,1.95,1.22,2.91,1.83-.35,2.12.48,3.93,1.54,5.65.8,1.29,1.67,2.54,2.32,3.92.32.67.74,1.33.6,2.16-.8-.15-1.27-.95-2.08-.94-.81.02-1.06-.91-1.86-1.11.53.89.99,1.72,1.2,2.65.04.19.13.38.16.58.14.91-.17,1.17-1.07.9-.34-.1-.67-.27-1-.42-.29-.13-.57-.28-.92-.45-.13.34.15.5.26.72,1.11,2.19,1.92,4.49,2.17,6.94.07.74-.09,1.5-.15,2.34-.87-.27-1.13-1.06-1.66-1.55-.55-.51-1.07-1.03-1.7-1.64,0,.66-.02,1.21,0,1.75.02.53-.08,1.04-.23,1.54-.49,1.7-2.02,2.18-3.32.97-1.22-1.14-2.03-2.57-2.56-4.15-.21-.63-.37-1.28-.58-2.04-.22.76.05,1.43-.31,2.02Z"/>
      <path class="cls-7" d="M261.61,411.28c.63.17,1,.68,1.3,1.18.82,1.38,1.41,2.87,1.66,4.47.15.96-.11,1.2-1.05.88-2-.68-3.76-1.77-5.16-3.38-.6-.69-1.07-1.49-1.6-2.24-.18-.25-.25-.6-.63-.72-.86,1.22-.97,2.75-1.77,4.2-1.72-1.85-1.89-4.09-2.01-6.57-1.49,1.77-3.02,3.14-4.93,4-.4.18-.82.3-1.25.41-.22.06-.47.08-.73-.07.25-1.07,1.13-1.82,1.51-2.97-1.25.33-2.21,1.13-3.37,1.48-1.18.36-2.36.69-3.76.63,1.09-2.3,2.81-3.76,5.14-4.74-.7-.47-1.42-.46-2.22-.71,2.15-1.45,3.94-3.02,4.78-5.41-1,.63-2,1.18-3.21,1.1-.06-.06-.12-.12-.18-.18.41-1.05,1.12-1.92,1.68-2.89,1.01-1.75,1.58-3.65,1.97-5.62.03-.16.04-.32.04-.48,0-.19.05-.41-.16-.53-.22-.12-.38.04-.52.17-.53.5-1.15.86-1.77,1.23-.16.1-.35.17-.51.24-.24-.24-.04-.4.05-.55,1.34-2.41,2.02-5.02,2.2-7.76.05-.73.2-1.33.93-1.79.91-.56,1.37-1.54,1.75-2.52.2-.52.34-1.06.51-1.59.58,0,.83-.45,1.07-.85.49-.79.81-1.65.79-2.6-.01-.68,0-1.36,0-2.03.46-.11.48.27.6.47.64,1.08,1.47,1.99,2.4,2.82.3.26.63.5.99.68.97.5,1.29.3,1.32-.78.04-1.17-.1-2.31-.39-3.43-.09-.34-.17-.66,0-1.25.9,1.77,2.17,2.97,3.44,4.17.38.36.79.67,1.23.95.96.62,1.31.58,2.07-.25.16-.17.29-.38.43-.58.34.2.69.39,1.02.61,1.09.72,2.24,1.21,3.58.89.38-.09.49.13.61.39.21.47.42.94.62,1.42.55,1.34,1.54,2.39,2.32,3.59-.27.87-.43,1.03-1.35.86-2.15-.41-4.16-1.14-5.61-2.91-.21-.26-.39-.63-.83-.58-.16.19-.11.37-.05.57.23.76.45,1.53.68,2.29.08.26.31.53.03.76-.24.2-.53.1-.8,0-.45-.17-.9-.34-1.33-.53-1.28-.56-2.38-1.4-3.35-2.39-.55.61-.26,1.31-.47,1.94-1.12-.6-1.88-1.52-2.72-2.33-.42,1.02-.16,2.06-.39,3.02-.24.98-.04,2.02-.31,3.11-.75-.48-1.19-.99-1.63-1.5-.58-.67-1.5-.74-2.02-.08-.94,1.19-1.86,2.4-2.74,3.63-.33.46-.69.96-.61,1.74,1.54-.65,2.18-2.15,3.46-2.98-.47,2.48-1.48,4.79-2.35,7.18.6.09.87-.24,1.2-.43.7-.4,1.16-1.11,1.94-1.39l.02.02c.09.54-.15,1.03-.32,1.51-.31.87-.62,1.73-.78,2.64-.15.87-.54,1.73-.24,2.69,1.65-.43,2.08-2.16,3.43-3.02.09.82-.37,1.32-.63,1.87-.73,1.59-1.83,2.75-3.56,3.33-1.01.34-2.06.64-3,1.21-.21.12-.46.24-.4.53.06.3.34.28.58.3,1.5.11,2.95-.04,4.33-.67.26-.12.53-.4.87-.16-.16,2.8.22,4.04,1.54,5,.27-.85.37-1.79,1.19-2.57,1.12,2.59,2.62,4.71,5.33,5.72.05-.68.08-1.27.12-1.86Z"/>
      <path class="cls-7" d="M257.7,364.24c.57.22.72.84,1.11,1.22.26.25.5.58.92.39.34-.15.39-.49.38-.82-.03-.95.14-1.92-.16-2.86-.07-.23-.11-.47.11-.85,1.12.71,1.82,1.93,3.04,2.7.48-2.09-.22-3.87-.9-5.82,1.24.45,1.95,1.36,2.99,1.67.3-1.58-.27-2.82-3.8-8.32.74.22.87.27,1.29.77,1.01,1.19,1.95,2.44,2.71,3.8.55.98.87,2.07.95,3.18.1,1.36-.35,1.7-1.72,1.43-.08-.01-.16,0-.3,0-.26.34-.12.71-.03,1.09.2.83.21,1.66-.1,2.48-.34.89-.72,1.05-1.54.61-.48-.26-.92-.57-1.37-.86-.33.38-.19.75-.21,1.09-.02.37-.1.71-.28,1.03-.54.96-1.24,1.06-2.01.25-.58-.61-1.09-1.28-1.09-2.19h-.01Z"/>
      <path class="cls-7" d="M241.09,356.93c-.27,2.55-.61,5.12.56,7.71.29-.77.5-1.4.75-2.01.1-.26.26-.5.44-.71.34-.41.62-.37.76.13.17.61.27,1.24.4,1.87.31,1.51.94,2.88,1.83,4.14.11.16.24.33.51.33.59-.77,0-1.79.51-2.7.76.75.86,1.75,1.29,2.57.44.82,1.25,1.31,1.8,2.18-.9-.15-1.32-.76-1.82-1.24-.29-.27-.52-.48-.86-.02-.38.51-.9.41-1.4.13-.88-.48-1.48-1.2-1.87-2.11-.35-.84-.79-1.65-.92-2.6-.41.19-.42.49-.51.74-.12.35-.28.7-.7.73-.36.02-.55-.3-.7-.58-.25-.46-.51-.92-.67-1.41-.71-2.24-.51-4.48.08-6.71.06-.21.07-.51.53-.43Z"/>
      <path class="cls-2" d="M266.94,373.49c-.06.03-.16.1-.17.09-.08-.09-.06-.11.05-.05.02.01.06-.01.1-.02,0,0,.02-.02.02-.02Z"/>
      <path class="cls-2" d="M264.01,376.42s-.09.06-.14.08c-.01-.04-.03-.09-.04-.13.06.03.11.06.17.08,0,0,.02-.03.02-.03Z"/>
      <path class="cls-7" d="M257.71,364.22s-.1-.03-.09-.04c.01-.07.04-.06.08.05,0,0,.01-.01.01-.01Z"/>
      <path class="cls-1" d="M205.31,394.2c.22.76.2,1.53.22,2.31-.24.14-.23.39-.3.62-.21.73-.31,1.48-.64,2.18-.12.26-.24.52-.57.55-.39.04-.54-.25-.73-.52-.22-.31-.1-.82-.68-1.01-.02.91.16,1.68.82,2.29.63.59.85.54,1.52,0,.48-.39.45-1.08.95-1.52v3.48c-.28-.1-.47-.81-.68-.03-.15.58-.27,1.17-.51,1.72-.29.66-.52,1.4-1.27,1.76-.5-1.05-.51-2.22-1.19-3.13-.4.21-.48.54-.59.82-.67,1.64-1.92,2.83-3.18,4-.24.22-.48.49-.76.03.93-1.73,1.43-3.58,1.43-5.58-1.9,2.49-4.21,4.45-7.06,5.73-.07-.06-.13-.12-.19-.19.25-.94.78-1.74,1.19-2.6.37-.78.64-1.6.9-2.73-3.46,3.26-7.35,4.45-11.71,4.25-.05-.08-.1-.16-.15-.24,1.12-.97,2.25-1.93,3.37-2.9.65-.27,1.17-.72,1.61-1.31-.82.36-1.64.73-2.46,1.09-2.73.85-5.51.89-8.27.23-1.91-.46-3.67-1.29-5.09-2.81.37-.36.78-.29,1.15-.29,1.12-.02,2.24-.08,3.32-.41.42-.13.79,0,1.17.08,2.82,1.1,5.52.63,8.19-.72-.16,1.24-.02,1.39,1.06,1.26.6-.07,1.16-.3,1.68-.6,1.69-.98,3.07-2.28,4.12-3.93.13-.21.42-.41.18-.74-.42.08-.67.42-.98.65-.75.53-1.5,1.06-2.42,1.28-.49.12-1.11.47-1.45.02-.33-.44.09-.97.38-1.4.06-.08.04-.15-.09-.23-.94.58-1.99.93-3.12,1.04-.93.09-1.81-.2-2.7-.43-.56-.15.03-.81-.51-.88,2.15-.86,4.14-2.03,6.22-3.14-1.64.13-3.26.09-4.85-.55,3.07-.95,5.54-2.76,7.68-5.07,1.05.02,1.75-.7,2.55-1.2.87-.55,1.52-1.35,2.35-2.21.05,1.95-.42,3.59-.98,5.26,2.92-.88,4.85-2.81,6.23-5.6,1.45,2.18,1.99,4.47,2.46,6.9,1.62-1.17,1.68-2.9,2.24-4.64.87,1.61,1.55,3.02,1.53,4.67-.2.13-.18.25-.07.48.79,1.53,1.18,3.19,1.53,4.85.05.23.05.47.05.71.01.46-.21.56-.6.36-.88-.46-1.45-1.21-1.9-2.06,0-.12,0-.24-.03-.35-.06-.15-.17-.32-.34-.25-.15.06-.14.26-.11.42.02.08.05.15.08.22Z"/>
      <path class="cls-7" d="M206.7,389.82c.02-1.65-.66-3.06-1.53-4.67-.56,1.74-.62,3.47-2.24,4.64-.46-2.43-1-4.72-2.46-6.9-1.38,2.79-3.31,4.72-6.23,5.6.56-1.67,1.03-3.32.98-5.26-.82.86-1.48,1.65-2.35,2.21-.8.51-1.5,1.23-2.55,1.2,1.82-2.59,3.17-5.39,3.61-8.7.63.57,1.11,1.04,1.63,1.47.33.27.68.56,1.17.55.29,0,.29-.2.3-.4.33-1.48.36-2.97.11-4.5.65.37.95.98,1.34,1.51.58.78,1.29,1.42,1.98,2.09.17.17.37.35.63.27.36-.11.27-.44.28-.71.01-.32,0-.63,0-.97.54,0,.58.46.76.72.57.78,1.16,1.52,1.92,2.12.19.15.39.27.6.39.25.15.52.26.79.07.28-.2.18-.47.12-.76-.17-.82-.45-1.61-.75-2.39-.08-.21-.3-.4-.12-.76.92.43,1.5,1.23,2.13,1.95.37.42.63.92.97,1.36.42.54.87,1.06,1.65,1.04.46,1.36.9,2.72,1.37,4.08.24.68.39.81,1.22,1.29.1-.93-.37-1.89.18-2.82.47.38.64.89.93,1.31.53.75.95,1.59,1.55,2.28.7.81.86,1.77,1.07,2.74.03.15.02.33-.04.47-.39,1.04-.51,2.15-.8,3.47-1.58-2.58-3.75-4.31-5.85-6.16.21,1.93.7,3.8.49,6-1.33-1.18-2.05-2.54-2.89-3.8Z"/>
      <path class="cls-7" d="M197.72,407.76c.27.46.52.19.76-.03,1.26-1.17,2.5-2.36,3.18-4,.12-.28.19-.62.59-.82.68.91.69,2.08,1.19,3.13.75-.36.98-1.1,1.27-1.76.23-.54.35-1.14.51-1.72.21-.78.4-.07.68.03v-3.48c-.5.44-.47,1.13-.95,1.52-.67.55-.88.6-1.52,0-.66-.62-.84-1.39-.82-2.29.58.19.47.7.68,1.01.19.27.34.55.73.52.33-.03.45-.29.57-.55.32-.69.42-1.45.64-2.18.07-.23.05-.48.3-.62.56,1.4,1.11,2.81,1.67,4.21.63,1.58,1.57,2.97,2.73,4.2.17.18.37.32.37.59.01,2.19-.1,4.35-1.81,6.02-.05.05-.14.06-.35.15-.26-1.43-.41-2.9-1.22-4.24-.96,1.9-1.1,4.07-2.68,5.77-.58-1.15-.63-2.32-.97-3.39-.48.08-.48.51-.66.8-.6.96-1.2,1.91-2.21,2.48-.88.49-1.07.39-1.16-.58-.08-.9-.21-1.8-.35-2.95-1.61,1.56-2.83,3.32-5.2,3.65.36-1.06.36-2.09,1.42-2.71.71-.42,1.25-1.12,1.75-1.8.26-.35.48-.74.89-.95Z"/>
      <path class="cls-5" d="M181.29,395.4c.54.07-.06.74.51.88.89.23,1.76.52,2.7.43,1.12-.11,2.17-.46,3.12-1.04.13.08.15.14.09.23-.29.43-.71.97-.38,1.4.34.46.96.1,1.45-.02.91-.22,1.67-.75,2.42-1.28.32-.23.56-.57.98-.65.24.32-.05.53-.18.74-1.05,1.65-2.43,2.95-4.12,3.93-.52.3-1.08.53-1.68.6-1.08.13-1.22-.02-1.06-1.26-2.67,1.35-5.37,1.82-8.19.72.05-.53.55-.4.83-.53.62-.3.64-.26,1.21-.81-.52-.26-1.04-.15-1.52-.09-2.09.24-3.42-.59-4.21-2.75.97.04,1.9.21,2.85.23,1.54.02,3.02-.2,4.48-.67.23-.07.46-.14.7-.07Z"/>
      <path class="cls-6" d="M183.22,415.86c-.98.63-1.95,1.26-2.93,1.88-.92.58-1.95.67-2.86.15-.73-.42-1.27-.22-1.89.06-.31.14-.56.45-1.02.39.08-1.05.52-1.95,1.2-2.67.82-.87,1.75-1.64,2.67-2.4.39-.32.84-.62,1.38-.67.25.1.5.24.77.3,1.56.39,2.37,1.45,2.69,2.97Z"/>
      <path class="cls-6" d="M197.83,418.18c-.43.8-1.18,1.21-1.99,1.4-1.1.26-1.99.78-2.68,1.66-.07.09-.17.17-.32.12-.35-.64-.48-1.41-.21-2.05.56-1.32-.1-3.03,1.31-4.07,2.09-.07,3.21,1.14,3.9,2.93Z"/>
      <path class="cls-5" d="M197.83,418.18c-.68-1.79-1.81-3-3.9-2.93.2-.41.52-.73.93-.9,1.13-.46,2.13-1.09,2.98-2.11.26.41.17.77.22,1.1.16,1.18.45,1.4,1.66,1.29.81-.07,1.41-.52,2.02-.97.3-.22.49-.62,1.07-.68-.29,1.04-1.07,1.5-1.77,1.94-.96.6-1.8,1.28-2.38,2.27-.22.38-.46.75-.84,1.01Z"/>
      <path class="cls-5" d="M183.22,415.86c-.32-1.51-1.13-2.58-2.69-2.97-.26-.07-.51-.2-.77-.3.54-.45,1.16-.66,1.86-.74.99-.11,1.99-.23,2.94-.56.3-.1.61-.21.91,0,0,.48-.36.81-.46,1.24-.22,1.01.07,1.45,1.1,1.53.54.04,1.1,0,1.9,0-.94.96-1.92,1.22-2.9,1.47-.62.15-1.26.23-1.89.33Z"/>
      <path class="cls-5" d="M217.17,409.5c-1.19-.07-2.25,0-3.25.49-.35.17-.76.16-1.17.1-1.49-.24-1.62-.39-1.4-1.84.06-.39.1-.79.14-1.19.03-.35-.05-.71.14-1.14,1.34.86,2.94,1.01,4.24,1.91.57.39,1.11.77,1.31,1.66Z"/>
      <path class="cls-5" d="M177.53,411.57c-1.08.47-2.09.49-3.04.21-1.07-.32-2.11-.67-3.37-.28.33-1.18,1.19-1.6,1.98-2.08.21-.13.38-.03.52.13.9,1.06,2.14,1.46,3.43,1.78.11.03.21.1.48.24Z"/>
      <path class="cls-5" d="M184.65,403.29c.82-.36,1.64-.73,2.46-1.09-.44.58-.96,1.03-1.61,1.31-.32.06-.61,0-.85-.22Z"/>
      <path class="cls-7" d="M205.31,394.2c-.03-.07-.06-.15-.08-.22-.03-.16-.04-.36.11-.42.17-.07.28.11.34.25.04.11.02.23.03.35-.14.01-.27.03-.41.04Z"/>
      <path class="cls-1" d="M192.09,407.91c-.05.1-.14.19-.23.13-.17-.1-.07-.22.03-.32.06.06.13.12.19.19Z"/>
      <path class="cls-1" d="M261.61,411.28c-.04.59-.08,1.19-.12,1.86-2.71-1-4.22-3.12-5.33-5.72-.82.79-.92,1.72-1.19,2.57-1.32-.96-1.7-2.2-1.54-5-.34-.23-.6.04-.87.16-1.38.64-2.84.78-4.33.67-.23-.02-.52,0-.58-.3-.06-.29.19-.41.4-.53.93-.56,1.98-.87,3-1.21,1.73-.58,2.83-1.74,3.56-3.33.25-.56.71-1.05.63-1.87-1.34.86-1.78,2.59-3.43,3.02-.3-.96.09-1.82.24-2.69.16-.9.48-1.77.78-2.64.17-.48.4-.97.32-1.51.03-.04.07-.08.1-.11-.04.03-.08.06-.12.1-.78.28-1.24.99-1.94,1.39-.33.19-.6.52-1.2.43.88-2.39,1.89-4.7,2.35-7.18-1.29.83-1.93,2.33-3.46,2.98-.09-.77.28-1.28.61-1.74.88-1.23,1.8-2.44,2.74-3.63.53-.66,1.45-.6,2.02.08.44.51.88,1.02,1.63,1.5.27-1.09.08-2.13.31-3.11.23-.95-.03-2,.39-3.02.84.81,1.59,1.72,2.72,2.33.2-.63-.08-1.33.47-1.94.97,1,2.07,1.83,3.35,2.39.44.19.89.36,1.33.53.26.1.56.21.8,0,.28-.24.04-.51-.03-.76-.23-.76-.45-1.53-.68-2.29-.06-.19-.11-.38.05-.57.43-.04.62.32.83.58,1.46,1.77,3.46,2.5,5.61,2.91.92.18,1.08.01,1.35-.86,1.54,1.33,2.92,2.85,4.77,3.81-1.05.67-2.79.51-5.29-.52-.07.58.34.87.64,1.18,1.35,1.42,3.02,2.36,4.8,3.11,1.37.58,2.8.93,4.58.94-1.59,1.1-3.21.71-4.89.96.67.62,1.33.97,1.96,1.35.72.43,1.46.84,2.13,1.34,1.02.74,1.82,1.66,2.17,3.04-.53.04-1,.03-1.44.12-.51.1-1.2-.33-1.51.5-.08.2-.45.04-.68,0-2.87-.41-5.46-1.49-7.78-3.21-.35-.26-.68-.53-1.08-.84.09.75.49,1.35.45,2.11-.57.14-.97-.13-1.38-.44-1.61-1.21-3.1-2.53-4.32-4.14-.07-.09-.11-.23-.29-.21-.11.83.54,1.54.5,2.51-2.42-.52-3.47-2.55-4.96-4,.55,3.69,2.67,6.9,5.35,8.73.43.29.9.61,1.39.69,1.04.16,1.65.81,2.32,1.52,2.28,2.44,5.15,3.27,8.4,2.86.58-.07,1.11-.1,1.63.13.74.33,1.58.14,2.27.36.12.21.1.32,0,.4-1.44,1.07-3.02,1.77-4.83,1.91-2.73.21-5.34-.23-7.8-1.47-.21-.33-.51-.43-1.15-.45.98,1.42,1.94,2.6,2.77,4.06-1.12-.22-1.97-.66-2.71-1.24-1.31-1.04-2.81-1.85-3.93-3.13-.14-.16-.32-.23-.54-.22,0-.03-.01-.06-.03-.09-.01-.01-.04-.01-.06-.02.03.03.07.07.1.1.24,1,.88,1.73,1.58,2.43.55.56,1.1,1.11,1.3,1.91-2.7-.89-4.78-2.67-6.72-4.65-.92-.94-1.81-1.91-2.33-3.15,0,0,.01,0,.02,0-.24.44-.05.85.09,1.27.76,2.34,1.79,4.53,3.4,6.42.13.15.21.34.32.51Z"/>
      <path class="cls-6" d="M259.37,419.52c.05,1.19-.39,2.16-1.33,2.89-.74.58-1.12,1.43-1.68,2.25-.54-1.11-1.23-2.02-2.11-2.8-.51-.45-.76-1.12-.71-1.84.47-.13.61-.58.89-.91,1.38-1.59,2.68-1.66,4.17-.28.25.23.33.66.77.68Z"/>
      <path class="cls-7" d="M266.84,410.89c-.19-.8-.74-1.36-1.3-1.91-.69-.7-1.34-1.43-1.58-2.43h0c.21,0,.4.08.54.23,1.12,1.27,2.62,2.09,3.93,3.13.73.58,1.59,1.02,2.71,1.24-.84-1.46-1.79-2.65-2.77-4.06.64.02.94.13,1.15.45-.1.22.1.29.21.36,2.18,1.45,4.19,3.22,6.94,3.47.02.41-.22.46-.45.51-2.8.55-5.55.47-8.17-.79-.4-.19-.77-.3-1.19-.2Z"/>
      <path class="cls-5" d="M242.07,413.97c.5-.47,1.17-.43,1.76-.68.3.47.02,1.12.6,1.41.6.31,1.24.28,1.88.18,1.65-.26,2.96-1.13,4.16-2.23.26-.23.45-.55.86-.68.15.74.28,1.43.45,2.12.09.36-.12.48-.34.67-.72.63-1.58.91-2.48,1.14-1.51.39-3,.84-4.21,1.91-.06.05-.15.06-.22.08-.2-1.69-1.13-2.94-2.46-3.92Z"/>
      <path class="cls-6" d="M242.07,413.97c1.34.98,2.26,2.22,2.46,3.92-.93.67-2.01.88-3.08.61-1.24-.32-2.4-.39-3.67.35.26-1.22.75-2.13,1.59-2.77.8-.61,1.55-1.25,2.25-1.96.1-.1.29-.1.44-.15Z"/>
      <path class="cls-5" d="M259.37,419.52c-.44-.02-.52-.45-.77-.68-1.48-1.38-2.79-1.32-4.17.28-.28.32-.42.77-.89.91-.39-.83,0-1.64.1-2.45.04-.34.28-.47.6-.42.71.12,1.01-.34,1.24-.88.29-.7.54-1.4.82-2.11.53.1.65.57.94.88.27.29.5.66.83.86,1.41.88,1.55,2.17,1.31,3.63Z"/>
      <path class="cls-5" d="M271.52,419.54c-1,.07-1.72-.57-2.47-1.06-1.01-.65-1.9-1.46-2.93-2.08-.29-.17-.49-.39-.33-.93,2.36,1.68,5.09,2.15,7.8,2.66-.48.77-1.12,1.3-2.06,1.4Z"/>
      <path class="cls-6" d="M271.52,419.54c.94-.09,1.58-.63,2.06-1.4,1.36,0,1.71.39,1.76,2.02-.37.12-.57-.2-.84-.32-.45-.21-.88-.32-1.38-.18-.53.16-1.09.27-1.59-.12Z"/>
      <path class="cls-7" d="M276.85,403.83c1.48.22,2.74.84,4.24.8-1.24,1.01-2.75.72-4.24-.8Z"/>
      <path class="cls-1" d="M273.95,372.29c.09.09.14.21.04.29-.12.1-.18-.03-.21-.13.06-.06.11-.11.17-.16Z"/>
      <path class="cls-7" d="M244.33,402.81c-.09.07-.19.11-.26,0-.02-.03.05-.12.08-.18.06.06.12.12.18.18Z"/>
      <path class="cls-7" d="M195.6,365.2c-.25.7-.36,1.22-.6,1.67-.32.6-.73.66-1.27.22-1.09-.87-1.55-2.11-1.93-3.39-.13-.45-.21-.91-.33-1.44-.24.27-.42.49-.62.67-.73.68-1.4.49-1.7-.46-.34-1.05-.33-2.14-.23-3.21.16-1.6.53-3.16,1.46-4.51.12-.17.17-.47.6-.4-.85,2.5-2.02,4.97-1,7.83.95-.66,1.07-1.87,2.07-2.45.31.65.39,1.29.45,1.96.12,1.45.51,2.83,1.29,4.07.1.15.17.38.51.32.36-1.06.31-2.23.73-3.38.51.22.69.67.92,1.06.45.76.89,1.53,1.46,2.2.31.36.72.81,1.2.61.41-.17.38-.75.38-1.19,0-1,0-1.99.34-3.03.47,1.31.41,2.61.33,3.89-.07,1.1-.71,1.42-1.76,1.02-.97-.37-1.61-1.13-2.32-2.05Z"/>
      <path class="cls-7" d="M208.87,358.29c.09.07.18.14.26.21,0,0-.08.08-.08.08-.07-.09-.13-.19-.2-.28h.01Z"/>
      <path class="cls-7" d="M208.85,358.3s-.07-.07-.1-.11c.04.03.07.06.11.1,0,0-.01.01-.01.01Z"/>
      <path class="cls-7" d="M207.65,370.8s-.07-.08-.1-.12c.02,0,.06,0,.07.02.02.02.02.06.03.09,0,0,0,0,0,0Z"/>
      <path class="cls-2" d="M257.81,403.09s-.01,0-.02,0c0,0,.02,0,.02,0Z"/>
      <path class="cls-7" d="M263.97,406.55s-.07-.07-.1-.1c.02,0,.05,0,.06.02.02.02.02.06.03.09,0,0,0,0,0,0Z"/>
      <path class="cls-7" d="M253.13,394.76s.08-.06.12-.1c-.03.04-.07.08-.1.11,0,0-.02-.02-.02-.02Z"/>
    </g>
  </g>
  <path class="cls-4" d="M241.39,405.22l2.35-.81-2.35.81Z"/>
  <polygon class="cls-3" points="243.79 404.41 241.34 405.09 241.11 404.24 243.42 403.71 243.79 404.41"/>
</svg>