<?xml version="1.0" encoding="UTF-8"?>
<svg id="Sprite_Alien" xmlns="http://www.w3.org/2000/svg" viewBox="0 0 471.47 423.94">
  <defs>
    <style>
      .cls-1 {
        fill: #19151a;
      }

      .cls-1, .cls-2, .cls-3, .cls-4, .cls-5, .cls-6 {
        stroke-width: 0px;
      }

      .cls-2 {
        fill: #7c5693;
      }

      .cls-3 {
        fill: #363334;
      }

      .cls-4 {
        fill: #4d3661;
      }

      .cls-5 {
        fill: #405f8c;
      }

      .cls-6 {
        fill: #a18ebf;
      }
    </style>
  </defs>
  <g id="W4">
    <g>
      <path class="cls-1" d="M214.31,289.95c1.6,1.45,1.59,1.44.77,3.31-1.5,3.4-3.8,6.24-6.32,8.89-1.49,1.57-2.98,3.12-4.38,4.78-.22.26-.55.49-.46,1,2.21.86,4.28.38,6.25-.81.87-.53,1.67-1.17,2.56-1.67,3.39-1.89,6.38-1.2,8.45,2.43.14.25.17.58.54.76,1.94-1.21,3.42-2.89,4.53-4.91.14-.26.27-.54.45-.78.8-1.07,1.77-1.05,2.39.15.58,1.11,1.04,2.27,1.17,3.56.41,4.12-.37,8-2.29,11.64-.6,1.13-.95,2.22-.76,3.56.29,2.08.2,4.18-.66,6.18-.48,1.12-1.11,2.1-1.97,2.97-2.71,2.73-5.18,5.66-6.98,9.1-.25.47-.46.97-.73,1.54.9.31,1.63.58,2.59.35,1.2-.28,1.8.65,1.37,1.89-.97,2.77-3.13,4.41-5.7,5.37-1.17.43-1.62,1-1.82,2.05-.07.4-.17.8-.26,1.21,1.15.27,2.19-.08,3.23-.34,1.42-.34,2.07.17,1.9,1.58-.08.66-.33,1.27-.67,1.85-1.01,1.67-2.22,3.17-4.07,3.93-.87.36-.99.89-.8,1.67.41,1.63.73,3.28.49,4.98-.08.58.2.89.71,1.07.51.18,1.01.38,1.52.54,4.64,1.45,6.44,5.88,6.58,9.57.05,1.27-.65,1.79-1.8,1.27-3.19-1.45-6.15-.93-9.07.76-1.39.81-2.92,1.03-4.51.7-1.26-.26-2.36-.17-2.95,1.24-.32.76-1.04,1.13-1.73,1.5-1.73.94-3.31,1.98-4.69,3.5-2.32,2.56-5.29,3.92-8.89,2.75-.59-.19-1.02.02-1.52.25-2.43,1.1-4.22,2.95-5.83,4.98-.89,1.12-1.78,2.26-2.35,3.61-.21.49-.45,1.01-1.14.97-.7-.04-1.07-.5-1.3-1.08-.48-1.23-.94-2.47-1.04-3.8-.26-3.43-.16-6.84.96-10.22-.65-.23-1.15.21-1.68.35-2.06.53-4.05.61-5.8-.84-.74-.62-1.41-.37-2.17-.08-3.27,1.24-6,3.22-8.26,5.87-.56.65-.98,1.7-2.11,1.3-.99-.36-.83-1.37-.88-2.18-.54-7.64,2.43-13.52,8.92-17.59,1.02-.64,1.91-1.33,2.65-2.33,1.79-2.4,4.7-2.98,7.36-1.6.89.46,1.63.78,2.48-.19.66-.75,1.71-1.03,2.8-1.2-1.28-3.81.15-6.75,2.83-9.1,6.66-5.82,11.13-13.08,14.44-21.23-.73-.28-1.18.4-1.8.41-1.15.03-2.3.13-3.33-.46-.54-.31-.96-.33-1.49-.01-1.87,1.11-3.74.66-5.47-.26-3.75-2.01-6.47-4.98-7.47-9.19-.46-1.92-.62-3.79-1.85-5.55-1.47-2.09-.97-4.52.35-6.62,1.76-2.79,2.31-5.9,2.63-9.06.79-7.83,2.68-15.33,6.37-22.31.75-1.43,1.45-2.9,2.48-4.16.77-.94,1.01-.93,2.24-.16-.54,1.07-1.07,2.14-1.62,3.21-1.84,3.57-3.7,7.14-4.81,11.03-1.29,4.5-2.18,9.08-2.51,13.77-.17,2.46-.84,4.84-1.92,7.08-.34.7-.61,1.42-.91,2.13-1.14,1.68-1.1,3.3.13,4.88.58-.22.67-.81.94-1.26.63-1.01,1.45-1.8,2.64-2.02,2-.36,3.91-.31,5.64,1.05,1.28,1,2.45,2.12,3.63,3.22.84.78,1.81,1.6,3.04,1.2,3.06-1,4.48-2.03,4.54-5.19.05-2.96,1.05-5.63,2.53-8.16,1.62-2.77,3.75-5.13,6-7.38,1.74-1.75,3.26-3.67,4.69-5.68,1.23-1.74,1.88-3.75,2.98-5.54ZM157.34,386.13l.02-.68c.24-.13.48-.25.72-.38.42.03.83,0,1.18-.29,2.61-2.22,5.71-3.4,8.98-4.2.63-.16,1.3-.15,1.93-.3,1.44-.34,1.91-.89,1.96-2.35.03-.89-.05-1.79-.07-2.68-.21-.99-.5-1.97-1.06-2.82-.4-.6-.85-1.19-1.73-.93-.25,0-.5,0-.76,0-.48-.6-.81-.59-.95.23-3.36,1.29-5.71,3.75-7.69,6.64-.87.13-1.05.62-.72,1.38-.11.37-.23.74-.34,1.11-.45-.03-.59.26-.71.62-.45,1.29-.77,2.6-.73,3.98-.26.13-.28.38-.31.63.01.18-.15.42.16.5.04-.15.08-.3.11-.45ZM224.5,327.1c.33-.19.34-.47.22-.79-.02-.36.11-.67.27-.97.15-.15.17-.31.05-.49-.04-.41,0-.83-.23-1.21.77-1.33.46-2.64-.21-3.86-.73-1.33-1.59-1.35-2.36-.06-1.01,1.67-2.18,3.14-3.93,4.11-2.21,1.22-4.17,2.79-6.12,4.41-2.39,1.99-5.12,2.81-8.17,1.45-.27-.12-.56-.41-.83-.22-1.25.9-2.97,1.49-3.41,3.04-.56,1.96-1.52,3.77-2.01,5.75-.35.69-.72,1.38-1.06,2.08-3.2,6.43-6.95,12.46-12.53,17.14-.64.54-1.17,1.2-1.77,1.79-.49.48-.83,1.02-.87,1.72-.92,1.48-.48,2.91.15,4.53.61-.64.93-1.23.94-1.98.22-.2.44-.41.68-.59,1.97-1.48,3.95-2.93,6.53-3.13,3.61-.28,6.11,1.86,8.41,4.12,1.78,1.75,3.29,3.78,4.67,5.89.51.77,1.1,1.58,2.13,1.79,1.69.09,3.12-.58,4.09-1.85,1.32-1.73,2.23-3.67,1.79-5.99-.26-1.35-.46-2.71-.6-4.08-.55-5.4.91-10.45,2.82-15.39,1.98-5.13,4.84-9.74,8.71-13.69.51-.15.79-.48.77-1.03.32-.75,1.32-.9,1.53-1.74.28-.16.35-.42.33-.72v-.03ZM180.08,371.04c-.03.21.06.36.26.45.06.06.1.13.12.22.04.71.4,1.35.39,2.1,0,.69-.29,1.5.58,2.38.35-1.93,1.29-3.28,2.35-4.57.57-.69.06-1.21-.46-1.67-.71-1.64-2.33-1.88-3.76-2.38-.48-.17-.96.08-1.25.5-.32.47.15.75.37,1.08.19.3.42.58.63.86.05.5.28.87.78,1.05h0ZM180.26,381.09c-.06.07-.11.15-.17.22-1.27.47-1.44,1.47-1.28,2.63-.07.17-.15.34-.22.51-.46.02-.51.35-.63.72-.89,2.9-.81,5.87-.7,8.85-.01.17-.05.35-.03.52.03.22.06.5.37.45.11-.02.24-.22.28-.36.05-.16.02-.34.02-.51l.02-.02c.25-.01.48-.07.64-.27,1.17-1.53,2.68-2.73,3.96-4.15,1.19-1.33,2.64-2.23,4.32-2.78.99-.33,1.77-.97,2.59-1.57.9-.66,1.18-1.54,1.15-2.66-.02-.84-.65-1.23-.91-1.83-.27-.62.53-1.48-.22-2.16-.04-.04-.1-.07-.15-.1.28-.74-.36-1.09-.68-1.55-.85-1.22-2.04-2.11-3.51-1.48-1.65.71-3.43,1.49-3.84,3.61,0,.05.04.11.07.16-.06.06-.11.12-.17.18-.9-.11-.69.4-.51.9-.09.17-.18.33-.27.5l-.15.06.03.15ZM194.14,369.23h0c-.32.05-.5.29-.67.53-1.02,1.39-1.02,1.41.43,2.43.36.26.82.42.97.87-.94.63-1.91.49-2.88.16-1.23-1.13-2.85-1.05-4.34-1.38-1.14.02-2.01.51-2.81,1.65,2.9-.29,4.53,1.24,5.8,3.32.49.81.92,1.66,1.38,2.49-.03.64-.2,1.3.34,1.84.05.33.1.65.15.98-.29,1.84-.72,3.62-2.22,5.03,3.1.28,6.15-1.81,6.62-4.55.25-1.47.34-2.99-.2-4.45-.29-.79-.47-1.61-.49-2.46l.06-.07c1.23.75,1.69,1.93,1.86,3.27.08.64.19,1.29.3,1.93.2,1.11.56,1.31,1.52.73,1.91-1.16,3.11-2.73,2.73-5.12.39.12.77.25,1.16.37.1.23.15.76.49.29.71-.97,1.11-2.07,1.13-3.29-2.12-.47-2.87-.91-3.71-2.27-1.99-3.22-4.51-5.93-7.4-8.37-3.19-2.7-8.44-.94-9.65,2.03h-.01c-.32.04-.56.14-.55.52q-1.03,1.25.17,2.15c.14.1.27.21.41.31,0,.48,0,.95.22,1.4.22.48.5.83,1.1.64,1.24-.38,2.47-.32,3.71.02.84.23,1.39-.17,1.68-.95.21-.57.45-1.1.88-1.54.51,0,1.07.21,1.46-.33,2.78-.67,4.92.45,6.19,3.25-.35,0-.7,0-1.05,0-.15-.28-.29-.56-.44-.83-.03-.31-.16-.52-.51-.52-.34-.11-.67-.23-1.01-.34-.06-.08-.14-.11-.24-.11-.64-.55-1.27-.5-1.92-.01-.11-.01-.2.02-.28.09-.23-.04-.35.06-.39.28ZM188.1,320.95c-1.07-1.59-2.63-2.42-4.45-2.79-2.18-.43-3.4.54-3.59,2.77-.88.34-.95,1.14-1.03,1.9-.12,1.13.07,2.23.66,3.23-.02.1.01.19.08.26-.01.82.6,1.27,1.05,1.82,1.02,2.15,2.75,3.58,4.83,4.58,1.84.88,3.6.76,4.99-.96.08-.09.17-.18.25-.28.14-.15.27-.3.41-.45,2.22-1.61,3.14-4,3.86-6.49.17-.59.06-1.11-.81-.84-1.23.37-2.32-.04-3.44-.55-1.14-.52-1.86-1.49-2.81-2.2ZM173.98,369.24c-.32-.34-.67-.64-1.14-.75-1.37-.55-2.61-.39-4.04.77,2.3.18,3.25,1.59,3.92,3.27.31.77.62,1.56.61,2.42.35,1.16.34,2.36.25,3.54-.12,1.68-1.13,2.82-2.68,3.51.41.4.82.58,1.22.52,2.3-.35,4.67-.61,5.94-3.01.19-.37.42-.73.7-1.04,1.3-1.44,1.3-2.99.47-4.64-.6-3.28-1.47-4.11-4.71-4.51-.18-.02-.36-.05-.53-.08ZM223.29,310.83c-1.36.21-1.31.2-1.09,1.46.24,1.35.93,2.59.84,4.02-.03.49,2.47,1.44,2.83,1.12.13-.11.23-.28.3-.44.17-.38.3-.78.46-1.17.75-1.88,1.42-3.79,1.72-5.81.18-1.22-.07-2.39-.41-3.53-.2-.66-.61-.66-1.11-.03-.11.14-.14.33-.21.49-.7,1.02-1.63,1.83-2.56,2.61-.42.36-.79.67-.78,1.27ZM219.81,311.78c.08-.79-.2-1.73-.48-2.63-.46-1.49-1.86-2.36-3.45-2.36-1.07,0-1.98.44-2.87.95-.94.54-1.85,1.12-2.78,1.66-1.73.99-3.55,1.38-5.52.85-.58-.15-1.17-.25-1.75-.37-.46-.1-.86,0-1.06.45-.88,2.03-2.05,4.02-1.9,6.3.15,2.29-.59,4.1-2.3,5.57-.43.37-.66.8-.7,1.39-.21,3.36-1.4,6.29-3.93,8.59-.19.17-.33.38-.27.62.08.36.41.38.71.41,1.26.15,2.38-.16,3.33-1.03,1.06-.97,2.1-1.97,3.2-2.9,3.41-2.9,7-5.48,11.6-6.12,1.32-.19,2.38-.81,3.19-1.84,1.41-1.78,2.84-3.56,3.91-5.58.62-1.17,1.1-2.4,1.07-3.95ZM205.93,377.8c1.01.18,1.97.17,2.91.06,1.28-.15,2.23-.79,2.62-2.1.31-1.03.72-2.04.89-3.09.2-1.18.39-2.42-.29-3.59-.24.15-.38.19-.43.28-.99,1.68-2.14,3.18-4.09,3.85-.35.12-.7.37-.7.74-.02,1.33-.8,2.48-.91,3.85ZM219.55,376.18c-.46-3.81-2.85-6.28-6.12-6.26.91,1.65,1.07,3.31.59,5.03-.1.36.14.72.58.75,1.64.11,3.29-.11,4.96.49ZM215.97,322.87c.39.27.61.17.83.08,2.28-.87,3.45-2.88,4.58-4.8.5-.85.41-2.13-.3-3.57-1.08,3.4-3.22,5.72-5.1,8.29ZM214.92,347.21c2.07-1.17,2.41-1.48,3.24-2.93-.47-.38-1.04-.52-1.61-.6-.41-.05-.88-.08-1.1.38-.44.94-1,1.88-.53,3.15ZM210.77,326.91c-2.23-.05-4.32-.65-6.12,1.43,2.28.24,4.31.66,6.12-1.43ZM215.37,355.23c-.47-.55-.91-.39-1.31-.41-1.95-.11-1.95-.1-1.88,1.82.01.34-.08.73.43.93,1.24-.34,1.96-1.33,2.76-2.35Z"/>
      <path class="cls-1" d="M279.86,277.51c1.66-.76,1.89-.73,2.9,1.11,2.61,4.73,4.84,9.61,6.28,14.85.89,3.26,1.3,6.58,1.71,9.91.43,3.47,1.02,6.87,2.83,9.95,1.1,1.88,1.49,3.89.63,6.02-.23.56-.37,1.2-.82,1.57-.86.72-.97,1.54-1.04,2.63-.32,5.08-4.18,10.14-9.44,11.77-1.16.36-2.36.4-3.48-.26-.61-.36-1.16-.34-1.83-.03-1.6.75-3.25.46-4.94-.22-.03,1.07.39,1.85.77,2.62,2.37,4.71,4.8,9.38,8.23,13.45,1.44,1.71,2.96,3.31,4.62,4.79.76.68,1.51,1.37,2.16,2.17,1.78,2.17,2.03,4.65,1.48,7.27.12.09.2.17.3.21,2.51,1.09,3.9,1.23,6.66.75,1.69-.29,3.38,0,4.47,1.31,1.64,1.97,3.85,3.18,5.78,4.74,5.49,4.43,7.41,10.25,6.76,17.1-.05.58-.16,1.08-.77,1.28-.6.2-1.04-.12-1.41-.56-.5-.59-1-1.2-1.51-1.79-2.1-2.43-4.84-3.87-7.78-5-.4-.15-.8-.37-1.18-.07-2.47,1.91-5.14,1.59-7.86.72-.04-.01-.1.04-.27.12.98,2.96,1.13,6.04.95,9.15-.09,1.45-.37,2.85-.93,4.19-.27.65-.37,1.44-1.29,1.55-.95.11-1.19-.68-1.51-1.29-1.3-2.48-3.13-4.53-5.17-6.41-.76-.7-1.63-1.21-2.52-1.72-.61-.35-1.2-.45-1.89-.25-3.77,1.08-6.71-.41-9.08-3.17-.85-.98-1.73-1.75-2.86-2.35-1.59-.84-3.24-1.63-3.99-3.45-.23-.56-.63-.39-1.05-.3-1,.23-2,.41-3.03.32-1.16-.09-2.22-.45-3.22-1.04-2.52-1.5-5.14-1.86-7.91-.71-.38.16-.82.25-1.22.22-.72-.06-1.24-.42-1.22-1.26.12-4.25,3.11-8.84,7-9.66,1.67-.35,1.68-.4,1.71-2.15.02-1.51.38-2.97.65-4.44.14-.74-.04-1.12-.74-1.53-1.78-1.04-3.31-2.38-4.22-4.3-.26-.55-.5-1.09-.53-1.7-.08-1.33.56-1.82,1.87-1.5.75.18,1.51.37,2.27.51.29.06.63.04.83-.22.43-.57-.52-2.79-1.25-2.97-2.59-.62-4.5-2.14-5.85-4.4-.24-.41-.46-.85-.59-1.3-.31-1.09.2-1.71,1.36-1.63.85.06,1.68.14,2.52-.39.02-.58-.31-1.08-.59-1.59-1.71-3.05-3.65-5.92-6.21-8.33-2.82-2.66-3.99-5.91-3.37-9.76.2-1.23,0-2.31-.61-3.44-1.82-3.44-2.92-7.07-2.62-11.04.12-1.53.62-2.92,1.19-4.3.24-.58.64-.98,1.33-1.05.78-.08,1.04.49,1.33,1,.67,1.2,1.29,2.43,2.29,3.41.77.76,1.55,1.49,2.69,1.81.22-.4.39-.83.65-1.2,2.24-3.1,5.19-3.63,8.46-1.59,1.46.91,2.8,2.04,4.55,2.45,1.38.32,2.7.43,4.12-.2-1.02-1.75-2.49-3.07-3.83-4.49-2.31-2.45-4.57-4.93-6.23-7.88-.41-.73-.84-1.45-1.19-2.21-.86-1.87-.79-2.07.93-3.42.42,1.71,1.35,3.17,2.21,4.68,1.97,3.48,4.82,6.23,7.49,9.13,2.93,3.17,5.29,6.64,6.01,11,.2,1.18.23,2.38.42,3.56.19,1.13.69,1.86,1.62,2.42.51.31,1.07.53,1.59.82,1.72.93,3.07.51,4.31-.88,1-1.12,2.09-2.14,3.33-3,1.77-1.23,3.68-1.62,5.8-1.19.99.2,1.77.58,2.26,1.54.33.65.71,1.33,1.49,1.89.88-1.5.99-2.88.38-4.35-.16-.11-.32-.11-.47.01h.03c.2-1.09-.53-1.9-.89-2.82-.13-.32-.44-.53-.52-.92-.52-2.58-1.23-5.11-1.48-7.74-.86-8.83-3.44-17.11-8.11-24.69-.35-.57-.58-1.18-.66-1.84ZM284.57,368.1h0c.23-.07.35-.21.36-.44.03-.06.04-.13.02-.2.34.01.54-.21.76-.42.29-.03.41-.19.29-.45-.06-.13-.19-.09-.25.05-.11-.12-.21-.23-.32-.35-.86-2.39-2.85-3.4-5.05-4.18-1.85-.66-3.51-.33-5.11.76-1,.68-1.96,1.37-2.82,2.23-1.91,1.92-3.42,4.16-5.08,6.28-.81,1.04-1.53,2.18-3.07,2.25-.45.02-.61.38-.55.77.15,1.05.46,2.03,1.44,2.67.58-.74.04-1.96,1.29-2.24.5,1.54-.65,3.14.41,4.6.99,1.36,2.2,2.25,3.97,2.71,0-1.92-.01-3.65.43-5.35.62-.34.97-.96,1.46-1.44.18-.01.35-.03.53-.04-.1.48-.2.95-.31,1.43-.62.72-.69,1.66-.87,2.51-1.08,5.07,3.1,8.23,7.19,8.11-1.8-1.3-2.24-3.21-2.6-5.16.31-1.96.88-3.84,1.96-5.51,1.24-1.92,2.83-3.36,5.45-3.41-.88-.74-1.64-1.4-2.74-1.45-1.48-.24-2.66.49-3.87,1.15-.94-.3-1.75.26-2.62.38-.05-.35-.1-.7-.16-1.05.31-.27.62-.54.93-.82.49-.02,1-.04.55-.75-.18-.28-.25-.64-.6-.79h0c-1.34-1.66-2.21-1.83-4.47-.89.63-1.69,1.22-2.21,2.85-1.95.96.15,1.66-.12,2.42-.51l.02.05c-.01.22.1.33.31.36h.01c0,.9.56,1.57.91,2.32.34.71.98,1.08,1.78.86,1.13-.3,2.23-.34,3.35.04.78.27,1.11-.15,1.2-.86,0,0,.08-.08.08-.08.07-.12.15-.24.22-.36,0-.13.01-.26.02-.39h.11c.17-.11.21-.26.13-.45ZM290.87,368.45h0c-.05-.53-.38-.66-.83-.63l.05-.06c-.5-.6-1.01-.44-1.51,0-.62.31-1.33.48-1.76,1.1-.59.51-1.32.9-1.35,1.82-.76.5-.18.96.11,1.31.71.88,1.36,1.78,1.76,2.85.12.31.3.66.85.64.16-1.08.33-2.17.49-3.27.64-1.14,1.24-2.31,2.09-3.33l.02-.03c.27-.09.46-.19.09-.41ZM254.7,370.03c-2.44.65-4,2.19-4.71,4.6-.32.35-.72.75-.45,1.22.24.41.75.21,1.14.08,1.16-.39,2.35-.14,3.53-.22,1.12-.07,1.37-.29,1.2-1.42-.14-.87-.37-1.73-.39-2.62l.07-1.36c.21-.14.38-.34.14-.54-.24-.19-.41.02-.52.24ZM253.63,323.49c.14.14.23.44.48.12-.15-.05-.3-.11-.46-.16-.23-1.28-1.47-1.82-2.07-2.85-1.04-1.77-2.3-3.41-3.64-5.36-.1,1.6-.27,2.9.55,4.03,1.34,1.84,2.77,3.61,5.14,4.21ZM289.36,320.29c-1.72-2.39-3.09-2.77-5.65-1.54-.43.2-.81.5-1.21.76-.68.31-1.14.87-1.59,1.41-1.82,2.18-3.88,3.7-7,2.7.13,2.06,1.06,3.59,1.89,5.15.26.48.68.83,1.3.81.6.53.81,1.31,1.24,1.94,1.15,1.7,2.57,2.3,4.44,1.51,2.35-.98,4.26-2.56,5.52-4.84.49-.53.87-1.13,1.04-1.84.35-.41.4-.93.56-1.42.21-1.41.73-2.87-.56-4.08,0-.19.02-.38.02-.58ZM297.99,368.25c-1.11-.17-2,.35-2.85.95-3.08.22-4.71,1.23-5.44,4.36-.4,1.1-1.05,2.25-.27,3.35.83,1.17,1.65,2.33,2.38,3.56.21.34.54.68.9.84,1.79.82,3.64,1.18,5.7.66-2.41-.92-3.01-2.82-3-5.06,0-.06-.02-.12-.03-.18.16-.94.2-1.91.5-2.8.71-2.15,1.55-4.24,4.4-4.57-.73-.72-1.39-1.16-2.29-1.12ZM241.77,306.21c-.06-.16-.08-.39-.2-.48-.27-.2-.48.01-.49.25-.04,1.14-.07,2.28-.05,3.42.04,2.61.76,5.06,1.9,7.4.15.3.24.71.68.76.52.07,2.72-1.46,2.74-2.02.06-1.16.45-2.22.74-3.31.3-1.13.1-1.4-1.08-2.07-1.76-.95-2.94-2.52-4.24-3.96ZM302.66,372.4c-.78-1.2-2.48-1.7-3.4-.9-.94.81-1.81,1.72-1.92,3.08-.02,1.31-.1,2.63-.04,3.94.05,1.18.64,1.88,1.77,1.85,2.11-.05,3.93.86,5.85,1.44,1.82.54,3.4,1.41,4.69,2.81.45.5.94.93,1.68.86.15.28.13.73.72.66.02-3.28-1.14-6.13-3.02-8.74-.08-.12-.31-.13-.48-.18-1.4-2.28-3.31-3.93-5.86-4.82ZM279.65,378.59c-.54.38-.63,1.04-.77,1.57-.81,3.06-.64,4.92,2.51,6.22,2.61,1.08,4.93,2.58,6.93,4.64.86.89,1.34,2.14,2.53,2.71.2.27.21.69.63.8.23-.14.31-.36.32-.6.11-2.8.19-5.6-.47-8.37-.79-3.35-2.54-6.14-4.89-8.59-.77-.8-1.74-1.23-2.75-1.62-.63-.24-1.25-.15-1.7.2-1.03.8-2.13,1.58-2.32,3.04ZM244.16,324.86c-.03.05-.1.12-.09.15.04.1.11.19.17.29.1,1.64.8,2.96,1.98,4.11,1.07,1.04,2.11,2.14,3.06,3.3,3.76,4.61,6.53,9.74,8.13,15.49,1.33,4.77,2.38,9.55,1.02,14.51-.16.57-.21,1.18-.27,1.78-.29,2.59,1.99,6.14,4.45,6.98,1.08.37,2.01.29,2.67-.76.43,0,.61-.34.81-.63,1.41-2.07,2.83-4.13,4.56-5.96,2.33-2.48,4.95-4.41,8.53-4.23,2.74.14,5.12,1.1,6.4,3.83.24.51.51,1.11,1.19,1.26.03.09.07.17.12.25.01.2.11.34.3.36.21.01.29-.14.27-.34.01-.12,0-.25.04-.36,1.17-2.64.24-4.73-1.72-6.55-1.14-1.06-2.3-2.1-3.39-3.21-3.43-3.48-6.11-7.49-8.4-11.78-.73-1.36-1.26-2.84-2.33-4.01-.54-2.45-1.81-4.68-2.23-7.17-.04-.21-.22-.43-.4-.57-.74-.61-1.53-1.15-2.24-1.78-.59-.53-1.13-.53-1.77-.13-.84.53-1.77.77-2.75.61-2.14-.36-4.22-.93-5.89-2.42-.81-.72-1.7-1.32-2.55-1.98-2.06-1.61-4.57-2.66-6.16-4.87-.38-.53-.77-1.07-1.19-1.57-.73-.87-1.37-.79-1.95.2-.18.32-.3.65-.18,1.03-.19,1.39-.47,2.78-.21,4.19ZM276.7,332.96c-.34-.85-.91-1.23-1.37-1.69-1.51-1.49-2.24-3.39-2.83-5.34-.26-.85-.34-1.76-.44-2.65-.06-.52-.21-.93-.67-1.19-1.86-1.04-2.37-2.72-2.28-4.72.09-2.08-.52-4.02-1.3-5.92-.67-1.64-.71-1.71-2.49-1.32-3.39.75-6.38.07-8.98-2.26-.54-.48-1.23-.76-1.93-.94-1.95-.51-3.7.19-4.42,1.83-.85,1.94-1.06,3.99-.12,5.92,1.21,2.48,2.78,4.75,4.55,6.88.73.88,1.63,1.37,2.74,1.53,4.52.62,8.06,3.2,11.55,5.85,1.33,1.01,2.56,2.16,3.88,3.2,1.17.91,2.46,1.4,4.1.81ZM257.24,369.46c-.12.04-.24.08-.36.13,0,1.01.02,2.02,0,3.04-.03,1.36.41,2.58,1.04,3.77.47.87,1.2,1.38,2.14,1.45,1.11.09,2.23.02,3.45.02-.46-1.35-.96-2.49-1.2-3.73-.3-1.53-2.15-1.28-2.96-2.28-.07-.09-.19-.15-.26-.24-.61-.71-1.22-1.43-1.83-2.15ZM264.37,327.94c-1.39-.65-2.69-1.29-4.01-1.87-.48-.21-.94.06-1.33.34-.35.25-.4.65-.07.91,1.66,1.27,3.27,2.33,5.41.62ZM252.76,343.89c-.1.02-.45.06-.8.13-.86.18-1.03.54-.51,1.19.69.85,1.63,1.39,2.6,1.85.46.22.72-.11.58-.53-.25-.79-.6-1.55-.92-2.32-.12-.29-.34-.49-.95-.32ZM254.13,355.07c.13.77.68,1.08,1.09,1.49.41.42.89,1.1,1.46.78.5-.29.18-1.09.2-1.67.02-.6-.33-.88-.9-.85-.58.03-1.19-.16-1.85.25Z"/>
      <path class="cls-1" d="M307.59,264.46c1.57-.8,2.2-.53,2.48,1.09.42,2.33.36,4.67-.21,6.96-.26,1.05-.05,1.82.69,2.57,1.17,1.2,2.03,2.66,3.36,3.73.77.62,1.6,1.15,2.53,1.24,1.45.14,2.79.5,4.02,1.54.21-1.75.38-3.28.57-4.81.12-.97.84-1.44,1.78-1.13.98.33,1.85.88,2.64,1.52,2.05,1.68,4.01,3.47,5.37,5.77,1.59,2.68,3.46,5.16,5.18,7.76,3.91,5.92,7.18,12.15,9.09,19.03,1.1,3.96,1.6,8,1.77,12.09.26,6.17-.53,12.22-2.56,18.05-2.17,6.24-5.21,12-10.25,16.46-1.33,1.18-2.72,2.36-4.42,3.04-.22.09-.43.25-.65.29-.51.1-1.04.45-1.53,0-.49-.45-.26-1.01-.11-1.52.43-1.49.86-2.99,1.35-4.47,1.04-3.15,1.46-6.41,1.91-9.68.12-.84-.26-1.35-.76-1.9-1.68-1.85-1.66-1.85-.26-3.97.76-1.14,1.62-2.24,1.53-3.71-.52-.19-1-.1-1.48-.06-1.66.14-2.05-.29-1.68-1.96.24-1.11.55-2.21.85-3.31.3-1.11.46-2.22.07-3.43-.55-.16-1,.12-1.51.27-1.09.32-1.78-.16-1.78-1.31,0-.89.16-1.79.33-2.67.6-3.12-.15-5.82-2.46-8.1-.61.5-1.1,1.2-1.95,1.42-.81.21-1.07.84-1.16,1.63-.14,1.16.05,2.26.36,3.37.42,1.5.32,1.63-1.24,2.23-.52.2-.7.57-.77,1.09-.17,1.25-.25,2.51-.09,3.76.27,2.2.6,4.4.88,6.6.15,1.14-.34,1.55-1.45,1.21-.82-.25-1.49-.77-2.12-1.33-3.28-2.91-5.41-6.53-6.66-10.69-1.49-4.95-1.44-9.93-.33-14.94.21-.93.27-1.76-.19-2.74-.73-1.55-.8-3.27.3-4.79.23-.32.31-.63.24-1.08-2.89-.59-3.98-2.95-5.05-5.33-.2-.44-.36-.89-.5-1.35-.31-1.09-.96-1.64-2.13-1.82-1.69-.26-3.17-1.08-4.39-2.28-1.29-1.28-1.16-1.87.58-2.82-.3-.58-.96-.63-1.44-.91-1.37-.82-2.47-1.89-3.3-3.24-.38-.62-.62-1.29-.52-2.05.07-.53.26-.91.85-1,.38-.06.91.14,1.05-.44.14-.59.15-1.2-.26-1.71-.38-.46-.78-.91-1.17-1.36-.28-.32-.57-.61-.84-.94-1.15-1.41-1.14-1.48.25-2.71,1.23,1.65,2.64,3.09,4.69,3.64,1.56.42,3.11.64,4.41-.78.86-.94,2.04-1.41,3.29-1.65h.03c.22.27.49.27.78.15.29.03.6.02.88.11.82.26,1.17.02,1.28-.87.32-2.6.65-5.19-.15-7.76ZM318.7,283.17c-.14-.1-.28-.2-.41-.31-.28-.35-.66-.5-1.09-.51-2.64-.04-4.59-1.37-6.2-3.32-.53-.64-1.1-1.24-1.65-1.86-.43-.49-.85-.99-1.49-1.23-1.4-1.25-3.2-1.33-5.01-.22-1.51.92-1.68,1.75-.66,3.33.09.3.18.6.26.89-.87-.2-1.56-.55-1.67-1.59-.06-.53-.3-1.22-.95-1.11-1.15.19-2.23-.26-3.41-.29-.1.86-.08,1.54.53,2.21,3.73,4.09,6.93,8.54,9.06,13.69.34.83.75,1.63,1.14,2.44.59,1.21,1.65,1.88,2.85,2.34,1.12.42,1.58.05,1.45-1.12-.07-.66-.2-1.3-.29-1.96-.48-3.52,2.23-8.03,5.8-8.92.7-.17,1.38-.38,2.06-.63.62-.22.61-.65.28-1.14-.11-.31-.26-.58-.6-.7ZM326.13,280.95c-.11-.28-.29-.48-.58-.56-.62-.81-1.33-1.51-2.25-1.98-.33.48-.22.97-.32,1.42-.76,3.61-1.29,7.29-3.37,10.48-.85.99-1.79,1.92-2.13,3.24-.41.42-.44.96-.5,1.5-.17,1.51.06,2.99.28,4.47.22,1.49.9,2.69,2.14,3.6,1.68,1.23,3.02,2.74,3.54,4.83.26,1.02.87,1.49,1.97,1.69,3.52.65,5.68,2.8,6.71,6.23.46,1.53.37,3.32,1.96,4.41.38.26.53.92.61,1.47.18,1.31.38,2.6.21,3.93-.29,2.36-.25,2.37,2.08,3.2l.29.95c-.07.9.26,1.75.19,2.68-.26,3.74-1.48,7.32-1.6,11.12-.1,3.29-1.31,6.43-2.79,9.42-.18.37-.55.79-.09,1.31,1.46-1.25,2.76-2.59,3.86-4.05,1.28-1.71,2.45-3.52,3.27-5.52,2.38-4.3,3.71-8.94,4.38-13.78.9-6.42.66-12.82-.72-19.12-1.37-6.26-4.03-12.02-7.55-17.37-1.38-2.09-2.49-4.37-4.36-6.1-.34-.56-.68-1.12-1.02-1.67-.07-.6-.32-1.09-.85-1.41,0-.1-.04-.19-.11-.26-.69-1.67-1.9-2.93-3.21-4.11l-.02-.02ZM316.45,328.52c.03-1.29-.62-2.46-.66-3.73.78-.35.57-1.12.71-1.72.21-.9.4-1.78,1.31-2.23.68-.34.47-.91.38-1.41-.27-1.51-.17-3.05.33-4.43.67-1.84-.63-2.61-1.56-4.03-.25,2.11-.99,3.69-1.5,5.33-.19.63-.5,1.23-.37,1.92-.11.16-.22.32-.34.47-.2.03-.4.06-.6.09.04-1.45.07-2.89.11-4.34.71-.23.8-.84.83-1.44.04-.84.15-1.68.46-2.45.32-.81.03-1.4-.48-1.95-.45-.48-1-.83-1.64-1.07-1.74-.64-1.8-.55-2.28,1.21-1.15,4.28-.79,8.55.1,12.77.4,1.88.85,3.84,2.12,5.43.59,1.23,1.13,2.5,2.29,3.35.13.32.18.71.77.64,0-.79,0-1.6,0-2.4ZM315.39,288.79c-.46.05-.76.34-.99.7-1.3,2.04-1.59,4.24-1.21,6.75.89-.45,1.63-.74,1.91-1.54.39-1.11,1.02-2.16,1.04-3.39,1.07-.75,1.64-1.88,2.27-2.96.19-.33.52-.77.12-1.14-.43-.39-.91-.17-1.31.13-.62.47-1.22.97-1.82,1.45ZM331.55,352.43c.09-.08.21-.15.26-.24,2.19-3.93,3.02-8.14,2.65-12.6-.06-.68,0-1.26.29-1.9.85-1.95,1.09-4.04,1.13-6.14.02-.86-.18-1.66-1.25-1.91-1.38-.34-1.33-.37-1.28-1.79.07-1.97.15-3.94-.22-5.89-.13-.67-.17-1.3-1.11-1.33-.65-.02-.59-.64-.71-1.09-.49-1.78-.94-3.59-1.82-5.23-.88-1.63-2.06-2.95-3.97-3.39-.23-.05-.47-.14-.66.08-.18.22-.11.47.01.67.42.66.87,1.3,1.3,1.95,1.57,2.36,2.53,4.87,2.02,7.77-.05.29-.11.59-.11.89,0,.6.2.92.92,1.05,2.05.36,2.69,1.33,2.33,3.42-.26,1.47-.64,2.92-.96,4.38-.22,1-.09,1.2.83,1.3,1.92.21,2.3.75,2.1,2.65-.16,1.5-.94,2.71-1.74,3.89-.49.73-.57,1.29.04,1.87,1.05,1.01,1.27,2.18,1.07,3.6-.12.82-.17,1.66-.31,2.48-.3,1.82-.58,3.65-.87,5.47-.13.11-.24.24-.19.42.01.04.09.06.14.08.04-.16.08-.31.11-.47ZM315.11,297.22c-1.38,1.05-2.47,1.98-3.36,3.08-.51.64-.95,1.39-1.16,2.21-.42,1.61.15,2.5,1.8,2.69,1.81.21,3.24,1.06,4.5,2.36,1.27,1.31,2.14,2.87,2.99,4.45.23.43.52.82,1.12.7.6-.12.95-.52,1.05-1.09.06-.34.04-.72-.03-1.07-.5-2.46-1.37-4.73-3.56-6.2-1.88-1.27-2.73-3.1-3.08-5.25-.08-.53-.15-1.06-.26-1.88ZM299.24,283.98c-1.62-2.9-2.39-3.39-4.07-2.57,1.06,1.27,1.89,2.77,4.07,2.57ZM298.89,287.29c.97,1.16,1.36,1.48,2.11,1.72.38.12.82.36,1.12-.09.24-.35-.02-.67-.21-.97-.71-1.11-1.2-1.23-3.03-.67Z"/>
      <path class="cls-1" d="M175.71,270.72c1.44,1.39,1.46,1.63.22,3.08-.51.59-1.01,1.19-1.57,1.73-.49.47-.59,1-.52,1.63.05.48.19.7.71.83,1.29.32,1.62.95,1.11,2.18-.51,1.22-1.24,2.33-2.26,3.21-.81.7-1.62,1.4-3.13,1.72.97.5,1.87.55,1.88,1.5.01,1.01-.51,1.73-1.27,2.25-1.19.81-2.46,1.5-3.92,1.68-.86.11-1.28.47-1.67,1.32-.54,1.2-.9,2.47-1.48,3.66-.96,1.97-2.34,3.31-4.53,3.71.13.57.48.99.73,1.46.78,1.45,1.06,3.01.23,4.47-.55.97-.35,1.78-.12,2.72,1.52,6.22,1.41,12.38-1.13,18.34-1.3,3.06-3.1,5.81-5.71,7.96-.52.43-1.08.78-1.72.95-.91.24-1.4-.15-1.32-1.09.07-.83.23-1.66.38-2.48.5-2.68.52-5.37.25-8.07-.07-.65-.26-1.06-1.07-1.14-1.13-.11-1.4-.54-1.2-1.68.16-.88.43-1.75.45-2.66.04-1.31-.05-2.52-1.7-2.91-.55-.13-1.05-.54-1.31-1.18-.69.56-1.07,1.25-1.57,1.83-1.34,1.57-1.32,3.41-1.08,5.28.12.95.36,1.89.46,2.84.21,1.98-.46,2.54-2.37,2.03-.23-.06-.46-.09-.76-.15-.44,1.17-.14,2.27.12,3.35.28,1.16.67,2.29,1.02,3.44.46,1.53-.19,2.59-1.73,2.05-.17-.06-.35-.08-.53-.09-.93-.06-1.09.12-.87.99.23.95.74,1.77,1.28,2.56.31.44.66.85.96,1.3.62.93.71,1.53-.15,2.22-1.42,1.13-1.35,2.48-1.14,4.03.57,4.24,1.9,8.28,3.23,12.31.09.28.32.52.39.81.24.99-.25,1.49-1.24,1.25-1.36-.33-2.51-1.08-3.66-1.85-4.94-3.33-8.2-8.05-10.79-13.25-3.37-6.76-4.85-14-4.98-21.53-.12-6.62,1.06-12.99,3.36-19.2,1.48-4.02,3.46-7.77,5.65-11.4,2.25-3.73,4.6-7.42,7.03-11.04,1.3-1.95,2.96-3.62,4.91-4.96.44-.3.9-.6,1.38-.84,1.46-.74,2.16-.39,2.28,1.21.1,1.38.31,2.73.58,4.14.88-.09,1.45-.84,2.24-1.04.75-.19,1.52-.27,2.27-.47,1.03-.27,1.79-.96,2.47-1.72.96-1.07,1.83-2.24,2.86-3.23.72-.69.8-1.35.59-2.24-.55-2.28-.87-4.59-.53-6.95.27-1.88.44-2.02,2.46-1.82-.05.45-.1.89-.14,1.34-.51,2.09-.09,4.18.12,6.25.17,1.61.27,1.62,1.94,1.19.35-.09.71-.12,1.06-.17,1.15.56,2.54.47,3.57,1.41,1.38,1.27,2.95,1.31,4.59.53l-.03.02c.69.1,1.23-.19,1.77-.6,1.09-.83,1.91-1.88,2.64-3.03ZM130.79,345.65l.22.3c.43,1.64,1.49,2.98,2.47,4.25,1.31,1.7,2.62,3.51,4.61,4.57.11.19.17.5.47.18-.16-.06-.31-.12-.47-.19.07-.38-.11-.7-.24-1.04-.84-2.12-1.73-4.21-2.49-6.35-.65-1.81-1.12-3.69-.92-5.62.15-1.36-.08-2.57-.53-3.84-.76-2.15-1.18-4.38-.88-6.69.14-1.07.37-2,1.56-2.36.55-.16.77-.63.63-1.14-.35-1.26.01-2.51-.06-3.76-.08-1.51.16-2.98,1.39-4.07.29-.26.39-.58.46-.94.2-.99.47-1.98.63-2.98.4-2.55,3.85-6.32,6.68-6.19,1.03.05,1.37-.55,1.63-1.32.83-2.44,2.15-4.53,4.3-6.04.19-.13.35-.33.5-.51,1.84-2.31,1.54-7.84-.53-10.05-.41-.55-.72-1.18-1.33-1.56-.79-1.2-1.36-2.5-1.81-3.86-.85-2.59-1.65-5.19-2.13-7.98-1,.52-1.65,1.28-2.26,2.08-.47.18-.71.62-1.01.97-1.94,2.27-3.35,4.88-4.74,7.5-.09.13-.18.25-.27.38-.31.11-.46.38-.62.62-2.89,4.42-5.57,8.95-7.55,13.87-1.57,3.91-2.75,7.93-3.21,12.13-.75,6.86-.42,13.65,1.48,20.32.86,2.99,1.8,5.96,3.65,8.54h.03c-.04.29.04.52.27.69l.05.09ZM153.34,292.29c.18,2.47.53,3.04,2.18,3.46.07-.65.28-1.32.19-1.94-.23-1.64.01-3.53-1.97-4.39-.37-1.35-1.49-1.91-2.64-2.39-.45-.19-.96-.26-1.31.19-.33.42,0,.81.25,1.11,1.08,1.33,2.2,2.64,3.3,3.96ZM155.56,317.91c-.73.48-.14,1.51-.83,2-.09-.48-.18-.95-.27-1.43-.38-2.64-1.69-5-2.29-7.96-.6,1.07-1.08,1.81-1.42,2.6-.18.41-.27,1.01-.1,1.39.72,1.6.67,3.23.43,4.9-.08.59.05,1.08.66,1.31.88.32.96,1.11,1.18,1.85.18.58-.04,1.38.76,1.69-.02,2.13-.31,4.24-.55,6.35-.05.21-.13.5.09.56.3.09.45-.19.57-.45.79-1.18,1.76-2.26,2.06-3.71.25-.04.47-.14.56-.38.69-1.84,1.69-3.56,1.78-5.61.06-1.5.2-3,.49-4.47.54-2.8-.28-5.47-.63-8.18-.04-.35-.21-.69-.38-1.01-.22-.41-.58-.58-1.06-.46-1.1.27-1.91,1.01-2.65,1.79-.55.58-.34,1.33-.2,2.05.13.64.11,1.31.24,1.96.21,1.1.38,2.24,1.33,3.03.04.73.39,1.43.22,2.18ZM150.45,282.54c-.68.2-1.14.63-1.39,1.29.03,1.35.02,1.37,1.25,1.55,1.77.26,3.43.82,4.62,2.19,1.83,2.11,2.85,4.56,2.52,7.42-.05.42-.14.83-.16,1.25-.05,1.02.3,1.32,1.3,1,1.84-.57,3.09-1.79,3.73-3.61.87-2.49,1.69-5.03,3.31-7.15,2.09-2.74,3.45-6.01,6.05-8.4.5-.46.35-.97.12-1.48-.26-.57-.72-.24-1.1-.2-.53.06-1.08.25-1.6.19-.87-.1-1.32.13-1.53,1.04-.09.39-.1,1.15-.88,1.08-.29-.52-.06-.99,0-1.45.06-.52-.1-.93-.43-1.32-1.55-1.8-4.32-1.94-6.27-.31-.64.27-.96.87-1.4,1.35-.84.94-1.68,1.87-2.46,2.85-.9,1.13-2.04,1.78-3.45,2.07-.75.16-1.56.13-2.22.62ZM141.53,323.62c.05.17.12.2.16.08,0-.02-.08-.07-.12-.11-.04-.41-.03-.84-.12-1.24-.8-3.35-.18-6.39,1.99-9.09.26-.33.49-.68.68-1.06.18-.35.61-.61.43-1.1-1.92.18-4.01,1.53-4.81,3.22-.58,1.24-1.06,2.52-1.26,3.91-.16,1.12-.16,2.43-1.63,2.88-.37.11-.52.49-.55.86-.09,1.07-.38,2.12-.19,3.22.19,1.12.36,2.24.47,3.37.08.71-.04,1.31-1.01,1.32-.6,0-1.24.18-1.34.94-.12.95-.41,1.96-.22,2.85.68,3.19,1.56,6.34,1.37,9.65-.01.18.03.36.08.53.48,1.91.95,3.82,1.45,5.73.12.46.33.9.56,1.31.14.25.34.54.7.45.37-.1.37-.45.34-.73-.04-.42-.09-.85-.23-1.23-.51-1.36-.64-2.8-.76-4.22-.11-1.28-.22-2.61.72-3.76.88-1.07.89-1.4,0-2.51-.77-.96-1.29-2.01-1.66-3.16-.65-2.02-.1-2.86,2.06-3.01.76-.05.95-.43.85-1.04-.08-.47-.32-.9-.44-1.37-.34-1.33-.83-2.63-.68-4.04.22-2.17.91-2.74,3.18-2.64ZM147.03,310.56c-.14.95.29,1.93.98,2.09,1,.23,1.14-.62,1.48-1.23.74-1.31,1.49-2.62,2.54-3.7,1.4-1.45,2.96-2.68,5.11-2.66.94,0,1.26-.5,1.47-1.25.31-1.11-.25-1.99-.78-2.86-.69-1.15-1.71-1.95-2.85-2.66-.36-.23-.52-.89-1.08-.75-.6.15-.38.8-.5,1.23-.06.23-.08.47-.09.71-.09,1.91-.87,3.39-2.46,4.56-2.17,1.6-3.28,3.92-3.83,6.52ZM169.68,283.16c1.52-.14,2.38-.97,3.13-1.96.25-.33.54-.74.12-1.1-.37-.32-.84-.12-1.15.12-.94.71-1.64,1.62-2.09,2.94ZM168.57,286.73c-.21-.02-.33-.04-.45-.05-.82-.07-1.13.55-1.45,1.12-.11.2-.2.53.03.65.55.29,1-.1,1.47-.34.21-.11.42-.22.64-.32.26-.14.59-.27.53-.62-.08-.47-.53-.38-.76-.43Z"/>
      <path class="cls-2" d="M177.56,314.83c.3-.71.58-1.44.91-2.13,1.08-2.24,1.75-4.61,1.92-7.08.33-4.69,1.22-9.27,2.51-13.77,1.11-3.88,2.97-7.46,4.81-11.03.55-1.06,1.08-2.14,1.62-3.21,2.4-.55,4.72-.23,7.01.57.59,1.12,1.71.76,2.63.95,2.57.71,4.96,1.79,7.07,3.44-.61.95-1.32,1.84-1.7,2.92-1.34,3.81-3.44,7.26-5.6,10.61-2.05,3.18-3.07,6.55-3.54,10.21-.25,1.95-.49,3.9-1.13,5.79-.5,1.5-.95,2.95-2.95,2.86.2.78.84.84,1.23,1.18.52.46.98.94.43,1.68-.46.63-.95,1.05-1.8.53-.81-.5-1.7-.88-2.31-1.65.39-.22.5-.54.14-.84-1.26-1.07-2.4-2.32-3.98-2.95-2.22-.88-4.64-.15-5.97,1.91.73-.25,1.36-.46,2-.29.07.28.25.61-.22.68-.58.08-1.19,0-1.76.23-.66.27-.96-.24-1.33-.6ZM194.04,279.34c-.73-.14-1.01.32-1.29.67-2.57,3.34-4.79,6.87-6.13,10.91-1.42,4.27-2.31,8.65-2.9,13.1-.11.85-.15,1.74.03,2.65.84-.17.99-.8,1.26-1.31,1.02-1.92,1.68-3.99,2.2-6.07,1.32-5.31,3.35-10.36,5.45-15.38.62-1.48,1-3.01,1.37-4.57ZM197.38,295.08c-.11,0-.28.01-.28,0-.04-.35-.12-.7-.09-1.05.13-1.38.71-1.92,2.37-2.27-1.29-.43-2.13-.13-2.96,1.03-.59.84-.74,2.6-.23,3.21.27.33.64.57,1.09.35.3-.14.55-1.96.31-2.31-.07.37-.14.71-.2,1.04ZM195.01,299.19c-1.23.69-1.91,1.52-2.02,2.74-.03.36.08.73.46.89.36.15.71.08.98-.21.27-.28.43-.67.11-.94-.54-.46-.25-.82.02-1.22.19-.29.43-.57.44-1.25ZM182.02,310.63c.85-.12,1.28-.62,1.72-1.1.22-.24.29-.52.09-.81-.24-.36-.56-.34-.93-.19-.96.39-1.16,1.08-.88,2.1ZM190.26,313.55c.43-.15.55-.5.67-.82.16-.44.84-1.03.18-1.33-.56-.25-1,.45-1.2,1.02-.09.26-.06.58-.01.86.02.12.25.19.36.27Z"/>
      <path class="cls-2" d="M279.86,277.51c.08.66.31,1.28.66,1.84,4.68,7.58,7.26,15.86,8.11,24.69.26,2.63.96,5.17,1.48,7.74.08.39.39.6.52.92.37.92,1.09,1.73.89,2.83-1.72,0-3.44.02-5.17.03-.78,0-1.55-.04-2.12-.7.33-.46.84-.4,1.3-.41,1.65-.03,3.3-.05,5.02.19-.4-.85-1.12-1.25-1.9-1.55-3.59-1.42-7.11.61-9.11,3.15-.29.36.26.38.49.49-.31.47-.85.65-1.28.97-1.67,1.25-1.92,1.18-2.98-.88.58-.15,1.14-.29,1.69-.45.29-.09.55-.27.58-.61.05-.42-.18-.76-.55-.82-1.22-.2-1.53-1.21-2.02-2.09-.83-1.5-1.11-3.16-1.31-4.81-.44-3.64-1.26-7.17-2.98-10.44-.24-.45-.33-.89-.2-1.38.64.27,1.27.41,1.82-.19.66-.71.56-2.42-.19-3.55-.66-.99-1.73-1.38-2.8-.96-.33.13-.63.39-.32.82,1.92-.33,2.61.3,2.57,2.19-.02.83-.39,1.34-1.06,1.72-.91-.18-1.16-1.01-1.52-1.66-2.22-3.97-4.25-8.03-6.12-12.17,3.4-2.44,7.23-3.87,11.3-4.71,1.71-.35,3.43-.45,5.16-.2ZM274.2,301.86l-.04-.04.05.03c.04.17.04.38.13.51.33.47.79.82,1.37.54.64-.31.46-.91.29-1.42-.39-1.19-1.21-1.97-2.4-2.37.45.68,1,1.29,1.23,2.08.16.54-.04.81-.64.67ZM275.38,279.58c0,1.72.51,3.22,1.18,4.69,1.99,4.37,3.54,8.9,4.88,13.5.62,2.12,1.09,4.3,2.01,6.32.4.87.74,1.82,2.04,2.52-.74-7.05-1.26-13.78-4.74-19.82-1.5-2.6-2.81-5.35-5.36-7.21ZM277.8,310.34c-.64,1.36.33,2.09.63,2.99.04.13.29.23.46.09.13-.1.27-.24.31-.39.11-.43-.06-.81-.31-1.15-.34-.46-.82-.82-1.09-1.54ZM287.5,309.89c-.05-.57-1.01-1.49-1.59-1.52-.25-.01-.47.08-.62.29-.2.28-.18.55.03.82.38.49.9.79,1.48.96.41.12.7-.07.71-.54Z"/>
      <path class="cls-4" d="M271.03,296.21c-.13.49-.04.92.2,1.38,1.71,3.27,2.54,6.79,2.98,10.44.2,1.66.48,3.31,1.31,4.81.49.88.79,1.89,2.02,2.09.36.06.6.4.55.82-.04.34-.29.52-.58.61-.55.17-1.12.3-1.69.45,1.05,2.06,1.31,2.13,2.98.88.43-.32.97-.5,1.28-.97,1.08-.45,1.95-1.3,3.13-1.54.16-.09.33-.17.49-.26.19-.02.39-.04.58-.06.57.66,1.33.7,2.12.7,1.72-.01,3.44-.02,5.17-.03,0,0-.03,0-.03,0,.17.39.32.13.47-.01.61,1.47.5,2.85-.38,4.35-.78-.57-1.16-1.24-1.49-1.89-.49-.96-1.27-1.33-2.26-1.54-2.11-.43-4.02-.04-5.8,1.19-1.24.86-2.33,1.88-3.33,3-1.24,1.39-2.59,1.81-4.31.88-.52-.28-1.07-.5-1.59-.82-.92-.57-1.43-1.3-1.62-2.42-.19-1.19-.23-2.38-.42-3.56-.73-4.37-3.08-7.83-6.01-11-2.67-2.9-5.53-5.65-7.49-9.13-.85-1.51-1.79-2.97-2.21-4.68,1.5-2.3,3.43-4.16,5.75-5.64.9,1.18,1.04,2.65,1.52,3.99,1.26,3.56,3.6,6.49,5.61,9.61.53.82.92,1.65,1.28,2.54,1.3,3.28,2.22,6.66,2.89,10.11.05.26.22.41.5.42.55-1.43-.32-2.65-.56-3.97-.86-4.81-2.77-9.17-5.54-13.16-1.83-2.63-3.43-5.34-4.06-8.53-.13-.63-.28-1.33-1.13-1.44.6-.61,1.27-1.11,2.09-1.39,1.88,4.14,3.9,8.21,6.12,12.17.36.65.61,1.48,1.52,1.66,0,0-.02-.03-.02-.03ZM275.04,319.06c-.64-.49-1.18-1.18-2.26-1.26.46,1.27,1.24,1.48,2.26,1.26Z"/>
      <path class="cls-4" d="M188.68,316.69c.61.77,1.5,1.16,2.31,1.65.84.52,1.33.1,1.8-.53.54-.73.09-1.21-.43-1.68-.39-.34-1.02-.4-1.23-1.18,2,.1,2.45-1.35,2.95-2.86.63-1.89.87-3.84,1.13-5.79.48-3.66,1.49-7.03,3.54-10.21,2.16-3.35,4.25-6.8,5.6-10.61.38-1.09,1.09-1.97,1.7-2.92.42.19.87.35,1.1.8-.37,1.32-.74,2.65-1.12,3.97-.87,2.99-2.71,5.47-4.41,8-1.87,2.78-3.07,5.82-3.83,9.04-.33,1.4-.57,2.81-1.17,4.13-.48,1.05-.45,2.14-.08,3.41.75-.57.78-1.22.85-1.85.68-6.08,2.91-11.52,6.51-16.47,1.49-2.06,2.89-4.26,3.32-6.9.14-.83.45-1.77,1.43-2.15,2.29,1.38,4.09,3.27,5.65,5.41-1.1,1.79-1.74,3.8-2.98,5.53-1.43,2.01-2.94,3.93-4.69,5.68-2.24,2.25-4.37,4.61-6,7.38-1.48,2.53-2.48,5.2-2.53,8.16-.06,3.16-1.47,4.19-4.54,5.19-1.22.4-2.2-.42-3.04-1.2-1.19-1.1-2.35-2.22-3.63-3.22-1.73-1.36-3.64-1.41-5.64-1.05-1.19.22-2.01,1-2.64,2.02-.27.44-.36,1.04-.94,1.26-1.23-1.58-1.27-3.2-.13-4.88.37.36.68.87,1.33.6.57-.24,1.17-.15,1.76-.23.47-.07.29-.4.22-.68.48,0,.96-.02,1.44-.03,2.21-.03,4.3.29,5.86,2.1.09.1.34.07.52.1ZM195.73,317.2c-.42.55-1.44.4-1.65,1.36-.1.43-.06.7.35.81.99.27,2.03-.75,1.83-1.77-.05-.27-.19-.41-.53-.4Z"/>
      <path class="cls-2" d="M307.59,264.46c.8,2.57.47,5.16.15,7.76-.11.89-.46,1.13-1.28.87-.28-.09-.59-.08-.88-.11-.23-.21-.49-.26-.78-.14,0,0-.03,0-.03,0,.02-.21.03-.43.05-.64l.94-.31c.14.22.33.32.54.11.13-.14.06-.32-.06-.45-.16-.17-.34-.3-.59-.27-.1-.01-.2-.02-.3-.02-.14-.17-.28-.17-.41.01-.97-.11-1.89.02-2.76.48-.61-.03-1.17.13-1.74.33-1.01.35-1.27.18-1.28-.91,0-.83.08-1.66.24-2.48.2-1.07.25-2.12.05-3.19,2.38-1.17,4.8-1.99,7.46-.96.19.07.46-.05.69-.09Z"/>
      <path class="cls-2" d="M163.18,272.39c-.35.06-.72.09-1.06.17-1.67.43-1.78.42-1.94-1.19-.21-2.08-.64-4.16-.12-6.25.75.05.55,1.09,1.25,1.3l.28-2.55c2-.52,3.91.01,5.83.5.44.11.85.38,1.27.58-.29.1-.47.2-.47.61,0,1.27.26,2.5.47,3.74.33,1.91-.02,2.26-1.97,1.98-.59-.08-1.16-.3-1.75-.41-1.02-.18-2.04-.27-2.97.43.55.65,1.27.68,2.18.94-.55.09-.78.13-1,.17Z"/>
      <path class="cls-4" d="M163.18,272.39c.23-.04.46-.08,1-.17-.91-.26-1.64-.29-2.18-.94.93-.7,1.95-.61,2.97-.43.59.1,1.16.32,1.75.41,1.95.28,2.29-.07,1.97-1.98-.21-1.24-.47-2.47-.47-3.74,0-.41.18-.51.47-.61,2.83,1.34,5.2,3.23,7.03,5.78-.72,1.14-1.54,2.19-2.64,3.03-.54.41-1.08.7-1.77.6-.05-.35-.09-.69-.16-1.03-.1-.48-.04-1.29-.78-1.04-.54.18-.3.91-.15,1.42.17.56.62.64,1.11.64-1.64.78-3.21.74-4.59-.53-1.02-.94-2.41-.85-3.57-1.41Z"/>
      <path class="cls-4" d="M304.82,272.19c-.02.21-.03.43-.05.64-1.25.24-2.42.71-3.29,1.65-1.3,1.42-2.85,1.2-4.41.78-2.05-.55-3.46-1.99-4.69-3.64,1.68-2.81,4.07-4.8,7.05-6.12.19,1.07.15,2.12-.05,3.19-.16.81-.24,1.65-.24,2.48.01,1.09.28,1.26,1.28.91.57-.2,1.13-.36,1.74-.33-.03.58-.18,1.3.82.84.59-.27,1.17-.53,1.84-.4ZM297.44,272.69c-.31.73-.68,1.28-.25,1.93.12.18.35.15.46.04.6-.59.53-1.2-.21-1.98Z"/>
      <path class="cls-1" d="M208.66,284.54c-.99.37-1.3,1.32-1.43,2.15-.44,2.65-1.83,4.84-3.32,6.9-3.6,4.96-5.83,10.4-6.51,16.47-.07.63-.1,1.28-.85,1.85-.36-1.27-.4-2.36.08-3.41.6-1.32.85-2.73,1.17-4.13.75-3.23,1.96-6.26,3.83-9.04,1.7-2.53,3.54-5,4.41-8,.38-1.32.75-2.64,1.12-3.97.63.24,1.08.69,1.51,1.18Z"/>
      <path class="cls-1" d="M261.31,283.8c.85.11,1.01.81,1.13,1.44.64,3.19,2.24,5.9,4.06,8.53,2.77,3.99,4.68,8.34,5.54,13.16.24,1.32,1.11,2.54.56,3.97-.28-.01-.45-.16-.5-.42-.68-3.45-1.59-6.83-2.89-10.11-.35-.89-.75-1.72-1.28-2.54-2.01-3.12-4.35-6.05-5.61-9.61-.47-1.34-.62-2.81-1.52-3.99.16-.15.33-.29.49-.44Z"/>
      <path class="cls-6" d="M161.59,263.86l-.28,2.55c-.7-.21-.5-1.25-1.25-1.3.05-.45.1-.89.14-1.34.47.03.93.06,1.39.08Z"/>
      <path class="cls-4" d="M198.98,279.13c-.92-.2-2.04.16-2.63-.95.99,0,1.84.41,2.63.95Z"/>
      <path class="cls-4" d="M197.77,338.26c.49-1.98,1.45-3.78,2.01-5.75.45-1.55,2.16-2.15,3.41-3.04.27-.19.56.1.83.22,3.05,1.36,5.78.53,8.17-1.45,1.95-1.61,3.91-3.18,6.12-4.41,1.75-.97,2.92-2.43,3.93-4.11.77-1.29,1.63-1.27,2.36.06.67,1.22.98,2.53.21,3.86-.19.15-.54.3-.53.44.07,1.43-.99,2.15-1.78,3.1-1.73,2.07-3.37,4.2-5.02,6.33-.7.9-1.72,1.64-2.2,2.56-1.21,2.33-2.67,4.58-3.4,7.11-.95,3.25-1.99,6.47-2.3,9.92-.32,3.66-.34,7.31-.15,10.95.07,1.4-.11,2.6-.68,3.76-.63,1.28-1.33,2.59-2.95,2.92-.48.1-.7.42-.75.89-1.03-.21-1.62-1.01-2.13-1.79-1.39-2.1-2.89-4.14-4.67-5.89-2.3-2.26-4.8-4.4-8.41-4.12-2.58.2-4.56,1.65-6.53,3.13-.24.18-.45.39-.68.59-.03-.62-.06-1.23-.09-1.84l.09-.12c.12-.03.18-.11.18-.24.73-1.02,1.64-1.84,2.71-2.49.99-.4,1.95-.77,3.06-.86,3.52-.29,6.56.71,9.15,3.11,1.23,1.62,2.77,2.91,4.35,4.16,1.23.29.43-.75.7-1.08v.02c.33-1.16,1.03-2.08,1.92-2.87.4-.36.67-.83.88-1.32.09-.22.11-.5-.12-.64-.22-.14-.46,0-.61.19-.36.44-.53,1.1-1.28,1.09-.02-.98.55-1.81.7-2.77.96-6.11,2.52-12.05,4.98-17.75.83-1.92,1.64-3.86,2.06-5.93.06-.3.16-.61-.09-.84-.26-.23-.56-.14-.83.03-1.06.67-2.22,1.23-3.16,2.05-2.15,1.87-4.76,2.74-7.34,3.68-1.24.45-1.3.36-2.13-.84ZM213.43,336.51c-1.09.41-1.25,1.1-1.57,1.66-2.58,4.55-3.96,9.49-4.67,14.63-.04.29-.02.6.02.89.03.16.14.36.36.32.16-.03.39-.1.44-.21.11-.27.18-.57.17-.86-.17-3.91,1.34-7.39,2.78-10.88.72-1.76,1.55-3.48,2.48-5.55ZM206.89,356.79c-.55.12-.64.51-.78.81-.15.34-.61.79-.05,1.07.5.25.71-.27.89-.64.19-.39.26-.79-.07-1.24ZM215.53,327.75c-.55.66-1.2,1.3-1.03,2.41q.9-.97,1.03-2.41Z"/>
      <path class="cls-2" d="M197.77,338.26c.83,1.2.89,1.29,2.13.84,2.58-.94,5.2-1.81,7.34-3.68.94-.82,2.1-1.38,3.16-2.05.26-.17.57-.26.83-.03.26.23.16.54.09.84-.43,2.07-1.23,4.01-2.06,5.93-2.46,5.69-4.02,11.64-4.98,17.75-.15.95-.72,1.78-.7,2.77,0,0-.03,0-.03,0-.22.04-.31.18-.3.39-.9.72-1.67.09-2.47-.24-.36-.15-.68-.26-.92.14-.34.57.17.7.51.89.15.08.33.14.5.18,1.17.27,1.82.99,1.9,2.2,0,0,0-.02,0-.02-.87-.05-.56.67-.7,1.08-1.58-1.25-3.12-2.54-4.35-4.16.12-.77-.12-1.46-.63-1.99-2.2-2.26-4.84-3.65-8.04-3.11-1.53.26-3.07,1.04-3.54,2.86-1.07.65-1.98,1.47-2.7,2.49-.09.05-.15.13-.18.24,0,0-.09.12-.09.12-.53.04-.66-.5-1.01-.7.04-.7.38-1.24.87-1.72.6-.59,1.13-1.25,1.77-1.79,5.59-4.69,9.34-10.71,12.53-17.14.35-.7.71-1.39,1.06-2.08ZM199.86,342.1c-.86.08-.99.76-1.29,1.23-1.37,2.16-2.73,4.33-4.08,6.52-.81,1.32-1.58,2.66-2.59,3.84-.2.23-.35.52-.2.82.21.4.6.33.95.26,1.01-.2,1.74-.86,2.26-1.66,1.66-2.56,3.24-5.18,4.09-8.14.27-.94.85-1.81.86-2.88ZM204.6,347.94c-.04-.45-.31-.6-.73-.57-.96.07-2.14,1.35-2.12,2.3,0,.3.28.51.44.38.77-.6,1.49-1.28,2.33-1.78.07-.04.05-.22.07-.33ZM201.55,357.52c-.2-.31-.38-.61-.58-.9-.23-.33-.43-.83-.96-.51-.55.33-.6.87-.35,1.42.23.5,1.1.74,1.56.44.13-.09.21-.27.33-.45ZM205.59,343.29c-.11-.54-1.18,0-1.17-.79-.38.02-.45.32-.51.59-.09.42-.07.85.39,1.07.38.18,1.17-.31,1.29-.87Z"/>
      <path class="cls-4" d="M219.81,311.78c.03,1.55-.44,2.78-1.07,3.95-1.07,2.02-2.5,3.8-3.91,5.58-.81,1.03-1.87,1.65-3.19,1.84-4.6.65-8.19,3.23-11.6,6.12-1.1.93-2.14,1.93-3.2,2.9-.95.87-2.07,1.18-3.33,1.03-.3-.04-.63-.06-.71-.41-.06-.24.08-.45.27-.62,2.54-2.3,3.73-5.23,3.93-8.59.04-.59.26-1.02.7-1.39,1.71-1.47,2.45-3.28,2.3-5.57-.15-2.29,1.02-4.28,1.9-6.3.2-.45.6-.55,1.06-.45.58.13,1.18.22,1.75.37,1.97.53,3.8.14,5.52-.85.94-.54,1.85-1.12,2.78-1.66.89-.51,1.8-.94,2.87-.95,1.59,0,2.99.86,3.45,2.36.28.91.56,1.84.48,2.63ZM209.37,318.17c-.09.49-.52.61-.87.83-1.9,1.21-3.67,2.63-5.96,3.31.44.48.71.32.99.24,1.45-.43,2.75-1.17,4-2,1.66-1.1,3.37-2.07,5.44-2.17.57-.03,1.24-.14,1.3-.96,2.4-.13,3.35-1.85,4-3.78.5-1.49.93-3.06-.55-4.69-.37,1.02-.81,1.86-1.74,1.86-1.54,0-2.74.76-3.98,1.48-.89.52-1.88.78-2.87,1-1.31.29-1.65.06-2.35-1.29-1.08.55-1.99,1.19-2.52,2.37-.61,1.35-1.52,2.57-2,3.99-.13.39-.32.79-.82.86-.17-.16-.32-.44-.51-.46-.33-.03-.27.31-.28.52-.1,1.63-.44,3.16-1.67,4.39-.3.3-.62.75-.34,1.31,1.59-.74,2.13-2.22,2.71-3.68.44.62.87.13,1.24-.05,1.72-.84,3.41-1.73,5.12-2.58.52-.26.99-.71,1.66-.5Z"/>
      <path class="cls-2" d="M205.04,371.62c.06-.46.28-.79.75-.89,1.62-.32,2.32-1.63,2.95-2.92.57-1.16.76-2.36.68-3.76-.19-3.64-.17-7.29.15-10.95.3-3.45,1.35-6.67,2.3-9.92.74-2.53,2.19-4.78,3.4-7.11.48-.92,1.51-1.66,2.2-2.56,1.65-2.13,3.29-4.27,5.02-6.33.79-.94,1.85-1.67,1.78-3.1,0-.14.35-.3.53-.44.23.37.18.8.23,1.21-.02.16-.03.33-.05.49-.16.31-.3.62-.27.97-.24.22-.29.48-.22.79,0,0-.01.03-.01.03-.36.12-.41.39-.33.72-.21.84-1.21.99-1.53,1.74-.68.02-.75.51-.77,1.03-3.87,3.95-6.73,8.56-8.71,13.69-1.91,4.93-3.37,9.99-2.82,15.39.14,1.37.34,2.73.6,4.08.44,2.32-.47,4.26-1.79,5.99-.97,1.28-2.4,1.95-4.09,1.85Z"/>
      <path class="cls-4" d="M184.72,365.2c1.21-2.98,6.45-4.73,9.65-2.03,2.89,2.44,5.41,5.15,7.4,8.37.84,1.36,1.59,1.8,3.71,2.27-.02,1.22-.42,2.32-1.13,3.29-.34.47-.4-.06-.49-.29-.18-1.05-.38-2.06-1.43-2.68-.32-.19-.48-.67-.66-1.04-.45-.91-1.04-1.72-1.79-2.4-1.28-2.8-3.41-3.93-6.19-3.26-.25-.75.61-1.23.56-2.11-1.24.49-1.59,1.49-2.02,2.44-.43.43-.67.97-.88,1.54-.29.78-.84,1.18-1.68.95-1.24-.34-2.47-.4-3.71-.02-.59.18-.87-.16-1.1-.64-.21-.45-.22-.92-.22-1.4.94.83,2.02.92,3.18.59.29-.08.58-.14.88-.2,1.35-.26,1.68-.55,1.79-1.6.15-1.38-.25-2.11-1.43-2.57-1.16-.45-2.24-.1-3.3.38-.37.17-.66.53-1.14.4Z"/>
      <path class="cls-3" d="M189.3,378.56c.05.03.11.06.15.1.75.67-.05,1.54.22,2.16.26.61.88,1,.91,1.83.03,1.12-.25,2-1.15,2.66-.82.6-1.6,1.24-2.59,1.57-1.68.56-3.12,1.46-4.32,2.78-1.28,1.42-2.79,2.62-3.96,4.15-.16.2-.39.26-.64.27,0-.24-.06-.51.04-.71,1.62-3.17,2.61-6.62,5.03-9.41,1.86-2.14,4.14-3.68,6.3-5.41Z"/>
      <path class="cls-2" d="M192.01,379.3c-.46-.83-.89-1.68-1.38-2.49-1.27-2.08-2.89-3.61-5.8-3.32.8-1.14,1.67-1.63,2.81-1.65-.25.29-.73.65.06.8,1.56.3,2.71,1.14,3.55,2.46.15.24.42.42.67.58.24.15.53.33.82.11.28-.22.27-.51.13-.8-.29-.59-.58-1.17-.88-1.76.97.33,1.94.47,2.88-.16-.15-.46-.61-.62-.97-.87-1.45-1.02-1.45-1.04-.43-2.43.17-.24.35-.48.67-.53.13.62-.29,1.13-.32,1.72-.02.38.07.8.52.74.77-.1,1.42-.54,2.06-.96.64-.43.64-1.07.56-1.74.34.11.67.23,1.01.34.09.25.26.43.5.52.15.28.29.56.44.83.23.46.46.91.69,1.37-.02,1.12-.09,2.22-.58,3.27-.31.64-.65.91-1.37.53-.4-.21-.81-.83-1.38-.23,0,0-.06.07-.06.07-.35,1.48-.56,3.01-1.91,4.05-.23.18-.19.68-.34,1-.3.64-.55,1.37-1.46,1.38-.05-.33-.1-.65-.15-.98.53-1.15.5-1.33-.34-1.84Z"/>
      <path class="cls-2" d="M179.7,326.05c-.59-1-.78-2.09-.66-3.23.08-.75.15-1.56,1.03-1.9,1.51-.23,3.02-.53,4.52.03.66.25,1.32.49,1.98.73.86.56,1.8,1.01,2.51,1.78.14.19.25.41.41.57,1.45,1.42,1.41,2.15-.16,3.41-.48.38-1.02.6-1.61.75-2.3.61-4.6.41-6.89-.08-.46-.54-1.07-1-1.05-1.82.42-.03.55-.3.72-.66.94-2.04,2.09-2.54,4.31-2,.5.12.97.42,1.54.35-1.2-2.12-3.61-2.71-5.37-2.23-.84.23-1.37.59-1.28,1.59.08.89.02,1.79.02,2.68Z"/>
      <path class="cls-4" d="M189.3,378.56c-2.16,1.73-4.44,3.27-6.3,5.41-2.43,2.79-3.42,6.25-5.03,9.41-.1.19-.03.47-.04.71,0,0-.02.02-.02.02-.22-.03-.43-.06-.65-.09-.11-2.98-.18-5.95.7-8.85.11-.36.16-.7.63-.72-.04,1.3-.93,2.51-.54,4.03.22-.26.36-.38.43-.53,1.63-3.85,3.74-7.37,6.88-10.2.39-.35.67-.83.36-1.26-.4-.55-.86,0-1.25.17-1.31.56-2,1.87-3.14,2.64-.02-.05-.08-.12-.07-.16.42-2.11,2.19-2.9,3.84-3.61,1.47-.63,2.66.26,3.51,1.48.32.46.96.81.68,1.55Z"/>
      <path class="cls-4" d="M180.83,328.14c2.29.49,4.58.69,6.89.08.58-.15,1.13-.37,1.61-.75,1.57-1.27,1.6-2,.16-3.41-.17-.16-.28-.38-.41-.57,2.13.02,3.42,1.09,3.64,3.08.12,1.05-.32,1.98-.81,2.86-.29.52-.73.95-.59,1.62-.14.15-.27.3-.41.45-.08.09-.17.18-.25.28-1.39,1.72-3.15,1.84-4.99.96-2.08-1-3.81-2.43-4.83-4.58Z"/>
      <path class="cls-4" d="M169.26,371.5c.88-.26,1.33.32,1.73.93.57.85.85,1.83,1.06,2.82-.82.26-1.82-.18-2.48.67-2.18.12-4.06.84-5.42,2.63-.59.05-.91.51-1.3.86-1.89,1.65-3.39,3.61-4.78,5.68-.24.13-.48.25-.72.38h0c-.05-1.37.28-2.68.73-3.97.13-.36.26-.66.71-.62.03.05.05.11.09.15.03.04.07.08.11.11.22-.27.44-.52.64-.8,2.33-3.21,4.92-6.13,8.85-7.43.79-.26.74-.81.76-1.39Z"/>
      <path class="cls-4" d="M179.22,373.83c.83,1.65.83,3.2-.47,4.64-.28.31-.5.67-.7,1.04-1.27,2.4-3.63,2.66-5.94,3.01-.41.06-.81-.12-1.22-.52,1.55-.69,2.56-1.83,2.68-3.51.09-1.18.1-2.38-.25-3.54.41.02.81-.24.99.55.26,1.13.96,1.24,1.71.38.87-1,1.98-1.59,3.19-2.05Z"/>
      <path class="cls-3" d="M158.08,385.08c1.39-2.06,2.89-4.03,4.78-5.68.4-.35.71-.81,1.31-.86.02.38.03.76.05,1.14-.12.09-.53-.14-.35.27.04.09.28-.1.36-.25,2.15-1.06,4.24-2.25,6.67-2.78-.36-.69-1.21-.31-1.31-1,.66-.85,1.66-.41,2.48-.67.03.89.11,1.79.07,2.68-.05,1.46-.51,2.01-1.96,2.35-.63.15-1.3.15-1.93.3-3.27.81-6.37,1.99-8.98,4.2-.35.3-.76.32-1.18.29Z"/>
      <path class="cls-3" d="M226.62,306.95c.07-.17.1-.36.21-.49.5-.63.91-.63,1.11.03.34,1.15.59,2.32.41,3.53-.3,2.02-.98,3.92-1.72,5.81-.15.39-.29.78-.46,1.17-.07.16-.17.33-.3.44-.37.31-2.87-.64-2.83-1.12.09-1.43-.6-2.67-.84-4.02-.22-1.25-.27-1.25,1.09-1.46.27.69.47,1.42,1.11,2.09.91-1.65,1.74-3.17,2.58-4.68.31-.56.34-1.02-.35-1.3Z"/>
      <path class="cls-4" d="M205.93,377.8c.11-1.37.9-2.52.91-3.85,0-.38.35-.62.7-.74,1.94-.67,3.1-2.17,4.09-3.85.05-.09.19-.13.43-.28.68,1.17.48,2.42.29,3.59-.17,1.05-.59,2.06-.89,3.09-.39,1.3-1.34,1.95-2.62,2.1-.94.11-1.9.12-2.91-.06Z"/>
      <path class="cls-2" d="M179.22,373.83c-1.21.45-2.32,1.04-3.19,2.05-.75.86-1.45.74-1.71-.38-.18-.78-.58-.53-.99-.55.01-.86-.3-1.65-.61-2.42-.67-1.67-1.62-3.09-3.92-3.27,1.43-1.16,2.67-1.32,4.04-.77-.53.13-1.57.25-.76.95,1.11.97,1.75,2.05,2.1,3.4.14.52.48.84,1.06.67.64-.19.54-.68.42-1.17-.29-1.18-.91-2.19-1.69-3.11.18.03.36.05.53.08,3.24.4,4.11,1.24,4.71,4.51Z"/>
      <path class="cls-4" d="M196.27,375.62c.57-.6.98.02,1.38.23.72.38,1.06.11,1.37-.53.5-1.04.56-2.15.58-3.27.89.18,1.36.83,1.72,1.58.45.93.91,1.86,1.37,2.79.37,2.39-.83,3.96-2.73,5.12-.96.58-1.33.38-1.52-.73-.11-.64-.22-1.28-.3-1.93-.17-1.35-.63-2.53-1.86-3.27Z"/>
      <path class="cls-4" d="M192.5,382.11c.91-.01,1.16-.74,1.46-1.38.15-.32.11-.82.34-1,1.35-1.03,1.57-2.56,1.91-4.05.02.85.2,1.66.49,2.46.53,1.46.45,2.98.2,4.45-.47,2.74-3.51,4.83-6.62,4.55,1.5-1.42,1.93-3.2,2.22-5.03Z"/>
      <path class="cls-2" d="M184.72,365.2c.48.13.77-.23,1.14-.4,1.05-.48,2.13-.83,3.3-.38,1.18.46,1.58,1.18,1.43,2.57-.11,1.04-.44,1.34-1.79,1.6-.29.06-.59.12-.88.2-1.16.33-2.24.24-3.18-.59-.14-.1-.27-.21-.41-.31q-1.2-.91-.17-2.16c.3-.04.55-.14.55-.51h.01Z"/>
      <path class="cls-3" d="M219.55,376.18c-1.67-.6-3.32-.38-4.96-.49-.44-.03-.68-.39-.58-.75.48-1.72.32-3.38-.59-5.03,3.27-.02,5.67,2.46,6.12,6.26Z"/>
      <path class="cls-2" d="M181.32,379.3c1.14-.77,1.83-2.09,3.14-2.64.39-.17.86-.71,1.25-.17.31.43.03.91-.36,1.26-3.14,2.83-5.26,6.35-6.88,10.2-.06.15-.21.27-.43.53-.39-1.52.5-2.72.54-4.03.07-.17.15-.34.22-.5.54-.82,1.03-1.67,1.28-2.63.06-.07.11-.15.17-.22,0,0,.12-.07.12-.07v-.14c.09-.17.18-.33.27-.5.3-.22.56-.48.51-.91.05-.06.11-.12.17-.18Z"/>
      <path class="cls-3" d="M191.31,331.03c-.13-.66.31-1.1.59-1.62.49-.88.93-1.81.81-2.86-.23-1.99-1.52-3.06-3.64-3.08-.71-.78-1.65-1.22-2.51-1.78.36-.57,1.18-.18,1.54-.75.95.71,1.67,1.68,2.81,2.2,1.12.51,2.21.92,3.44.55.87-.26.98.25.81.84-.72,2.49-1.63,4.88-3.86,6.49Z"/>
      <path class="cls-4" d="M188.1,320.95c-.36.57-1.18.18-1.54.75-.66-.24-1.32-.48-1.98-.73-1.5-.57-3.01-.26-4.52-.03.19-2.23,1.41-3.21,3.59-2.77,1.82.36,3.38,1.19,4.45,2.79Z"/>
      <path class="cls-2" d="M169.26,371.5c-.03.59.03,1.13-.76,1.39-3.93,1.3-6.52,4.22-8.85,7.43-.2.28-.43.54-.64.8-.04-.04-.08-.07-.11-.11-.03-.05-.06-.1-.09-.15.11-.37.23-.74.34-1.1.51-.32.68-.82.73-1.38,1.98-2.89,4.33-5.35,7.69-6.64.35.07.7.12.95-.23.25,0,.5,0,.76,0Z"/>
      <path class="cls-3" d="M215.97,322.87c1.88-2.57,4.02-4.9,5.1-8.29.72,1.44.8,2.72.3,3.57-1.13,1.92-2.3,3.93-4.58,4.8-.22.08-.44.19-.83-.08Z"/>
      <path class="cls-6" d="M179.7,326.05c0-.89.06-1.79-.02-2.68-.09-1,.44-1.36,1.28-1.59,1.76-.48,4.17.1,5.37,2.23-.57.07-1.03-.23-1.54-.35-2.21-.54-3.37-.04-4.31,2-.17.36-.3.63-.72.66-.07-.08-.09-.16-.08-.26Z"/>
      <path class="cls-6" d="M179.31,370c-.21-.29-.44-.56-.63-.86-.21-.33-.68-.61-.37-1.08.28-.41.77-.67,1.25-.5,1.43.5,3.05.74,3.76,2.38-.56.22-.93.69-1.32,1.11-.43.45-.93.67-1.54.65-.02-.08-.06-.16-.12-.22.08-.25-.02-.38-.26-.45,0,0,0,0,0,0,.12-.63-.02-1.07-.78-1.05Z"/>
      <path class="cls-4" d="M226.62,306.95c.69.28.66.74.35,1.3-.84,1.51-1.67,3.02-2.58,4.68-.64-.67-.84-1.4-1.11-2.09-.02-.59.35-.91.78-1.27.93-.79,1.86-1.6,2.56-2.61Z"/>
      <path class="cls-4" d="M180.46,371.7c.61.02,1.11-.2,1.54-.65.4-.41.76-.89,1.32-1.11.52.46,1.03.98.46,1.67-1.06,1.29-2,2.64-2.35,4.57-.87-.88-.59-1.69-.58-2.38.01-.75-.35-1.38-.39-2.1Z"/>
      <path class="cls-6" d="M173.98,369.24c.77.92,1.39,1.93,1.69,3.11.12.48.21.98-.42,1.17-.58.17-.93-.15-1.06-.67-.35-1.35-.99-2.44-2.1-3.4-.81-.71.23-.82.76-.95.47.12.82.41,1.14.75Z"/>
      <path class="cls-6" d="M191.99,373.22c.29.59.59,1.17.88,1.76.14.29.15.59-.13.8-.29.23-.57.05-.82-.11-.25-.16-.52-.34-.67-.58-.84-1.32-1.99-2.16-3.55-2.46-.79-.15-.31-.51-.06-.8,1.49.33,3.11.25,4.34,1.38Z"/>
      <path class="cls-3" d="M214.92,347.21c-.46-1.27.1-2.21.53-3.15.21-.46.69-.43,1.1-.38.58.08,1.14.22,1.61.6-.83,1.45-1.17,1.76-3.24,2.93Z"/>
      <path class="cls-3" d="M210.77,326.91c-1.81,2.1-3.83,1.68-6.12,1.43,1.8-2.08,3.89-1.48,6.12-1.43Z"/>
      <path class="cls-6" d="M196.96,368.98c.08.67.08,1.31-.56,1.74-.64.43-1.29.86-2.06.96-.46.06-.55-.36-.52-.74.03-.59.45-1.1.32-1.72,0,0,0,0,0,0,.2,0,.32-.09.39-.28.08-.07.17-.11.28-.09.64,0,1.28,0,1.92.01.1,0,.18.03.24.11Z"/>
      <path class="cls-3" d="M202.69,376.43c-.46-.93-.91-1.86-1.37-2.79-.37-.75-.83-1.4-1.72-1.58-.23-.46-.46-.91-.69-1.37.35,0,.7,0,1.06,0,.75.68,1.34,1.49,1.79,2.4.18.37.35.85.66,1.04,1.05.62,1.25,1.63,1.43,2.68-.39-.13-.77-.25-1.16-.37Z"/>
      <path class="cls-3" d="M215.37,355.23c-.79,1.01-1.52,2-2.76,2.35-.51-.2-.42-.6-.43-.93-.07-1.93-.06-1.93,1.88-1.82.39.02.84-.14,1.31.41Z"/>
      <path class="cls-5" d="M181.54,361c.35.21.48.74,1.01.7.03.62.06,1.23.09,1.85-.01.75-.33,1.34-.94,1.98-.64-1.62-1.07-3.05-.15-4.53Z"/>
      <path class="cls-3" d="M192.32,367.76c.42-.94.77-1.94,2.02-2.44.05.88-.81,1.36-.56,2.11-.39.53-.95.32-1.46.33Z"/>
      <path class="cls-4" d="M180.09,381.31c-.24.97-.74,1.81-1.28,2.63-.16-1.16,0-2.17,1.28-2.63Z"/>
      <path class="cls-4" d="M192.01,379.3c.84.5.87.69.34,1.84-.54-.53-.37-1.2-.34-1.84Z"/>
      <path class="cls-4" d="M159.87,378.37c-.04.57-.22,1.06-.73,1.38-.33-.76-.14-1.25.73-1.38Z"/>
      <path class="cls-3" d="M177.26,394.02c.22.03.43.06.65.09,0,.17.03.36-.02.51-.05.14-.17.34-.28.36-.31.05-.35-.23-.37-.45-.02-.17.02-.34.03-.52Z"/>
      <path class="cls-4" d="M168.5,371.51c-.25.35-.6.3-.95.23.14-.82.47-.83.95-.23Z"/>
      <path class="cls-4" d="M181.16,379.48c.05.43-.21.68-.51.91-.18-.5-.39-1.01.51-.91Z"/>
      <path class="cls-4" d="M221.85,330.62c.02-.52.09-1.01.77-1.03.02.55-.26.87-.77,1.03Z"/>
      <path class="cls-4" d="M179.31,370c.76-.02.9.42.78,1.05-.49-.18-.73-.55-.78-1.05Z"/>
      <path class="cls-2" d="M196.73,368.88c-.64,0-1.28,0-1.92-.01.64-.49,1.28-.53,1.92.01Z"/>
      <path class="cls-4" d="M184.7,365.21c0,.36-.25.46-.55.51-.01-.38.23-.48.55-.51Z"/>
      <path class="cls-3" d="M198.47,369.85c-.25-.1-.42-.27-.5-.52.35,0,.47.22.5.52Z"/>
      <path class="cls-4" d="M224.16,327.85c-.08-.33-.04-.6.33-.72.02.3-.05.56-.33.72Z"/>
      <path class="cls-4" d="M157.06,386.08c.03-.25.05-.49.31-.63h0c0,.22-.02.45-.02.67-.1,0-.19-.02-.28-.05Z"/>
      <path class="cls-3" d="M157.06,386.08c.09.03.18.05.28.05-.04.15-.08.3-.11.45-.31-.08-.15-.32-.16-.5Z"/>
      <path class="cls-4" d="M224.5,327.1c-.07-.3-.01-.57.22-.79.12.32.11.6-.22.79Z"/>
      <path class="cls-2" d="M194.53,368.96c-.06.18-.19.29-.39.28.04-.22.16-.32.39-.28Z"/>
      <path class="cls-4" d="M180.08,371.04c.24.06.34.2.26.45-.2-.08-.29-.23-.26-.45Z"/>
      <path class="cls-4" d="M224.99,325.35c.02-.16.03-.33.05-.49.12.18.1.34-.05.49Z"/>
      <polygon class="cls-4" points="180.37 380.88 180.38 381.03 180.25 381.09 180.23 380.94 180.37 380.88"/>
      <path class="cls-3" d="M190.65,331.76c.08-.09.17-.19.25-.28-.08.09-.17.19-.25.28Z"/>
      <path class="cls-4" d="M286.77,364.96c-.68-.15-.95-.75-1.19-1.26-1.28-2.73-3.66-3.69-6.4-3.83-3.58-.18-6.2,1.75-8.53,4.23-1.73,1.84-3.15,3.89-4.56,5.96-.2.29-.38.62-.81.63-.91-.26-1.9-.19-2.76-.67-2.22-1.22-3.08-3.35-2.65-6.12.46-2.91.49-5.89.07-8.77-.46-3.11-1.14-6.2-2.06-9.23-.94-3.1-2.13-6.15-3.76-8.9-1.94-3.27-4.5-6.16-7.03-9.02-.82-.93-1.43-1.83-1.46-3.15-.02-1.12-.41-2.23-.34-3.38.04-.64-.36-.83-.92-.8-.13-.37,0-.71.18-1.03.58-1,1.22-1.07,1.95-.2.42.5.81,1.04,1.19,1.57,1.58,2.22,4.09,3.26,6.16,4.87.85.66,1.74,1.25,2.55,1.98,1.66,1.49,3.75,2.06,5.89,2.42.98.16,1.91-.08,2.75-.61.64-.4,1.18-.41,1.77.13.71.64,1.51,1.18,2.24,1.78.18.14.36.36.4.57.42,2.49,1.69,4.72,2.23,7.17-2.47,0-4.71-.85-6.8-2.04-2.02-1.15-3.95-2.47-5.79-3.91-.28-.21-.52-.52-.94-.37-.19.27-.19.57-.1.86.55,1.77,1,3.58,1.68,5.3,1.81,4.5,2.88,9.21,4.15,13.88.69,2.53.77,5.22,1.98,7.61-1.1.04-1.54-.72-1.99-1.54-.37-.67-.52-1.53-1.36-2-.2,1.78-.19,1.95,1.47,3.51,1.47,1.38,2.57,2.83,2.02,5-.05.21-.01.52.32.51.15,0,.36-.13.42-.26.14-.32.2-.68.3-1.02,1.3-.41,2.07-1.45,2.89-2.42.45-.39.88-.8,1.35-1.16,3.44-2.62,7.11-4.3,11.55-2.82.46.5,1.14.61,1.69.96,1.4.88,2.19,2.13,2.29,3.79.03.59-.01,1.18-.03,1.77ZM261.62,354.11c1.13-4.96-3.57-16.55-6.56-19.16,1.26,3.27,2.96,6.16,4.1,9.32,1.16,3.21,1.59,6.55,2.46,9.84ZM254.2,330q.09-1.67-.85-2.26c-.19.81.25,1.36.85,2.26Z"/>
      <path class="cls-2" d="M265.85,360.66c-1.21-2.39-1.3-5.08-1.98-7.61-1.26-4.66-2.34-9.37-4.15-13.88-.69-1.72-1.14-3.53-1.68-5.3-.09-.29-.09-.59.1-.86.42-.15.67.15.94.37,1.84,1.43,3.77,2.76,5.79,3.91,2.09,1.18,4.33,2.04,6.8,2.04,1.07,1.17,1.6,2.64,2.33,4.01,2.29,4.29,4.97,8.3,8.4,11.78,1.09,1.11,2.25,2.15,3.39,3.21,1.96,1.82,2.89,3.91,1.72,6.55-.05.1-.03.24-.04.36-.19,0-.38-.01-.58-.02-.04-.08-.08-.16-.12-.25.01-.59.06-1.18.03-1.77-.09-1.66-.88-2.9-2.29-3.79-.55-.35-1.23-.46-1.69-.96-.34-1.31-1.62-2.48-2.86-2.54-2.39-.12-4.61.26-6.51,1.91-.72.62-1.47,1.22-2.13,1.9-.52.53-1.07.95-1.84.98-.69-.25-1.25.15-1.81.42-.76.36-1.34.19-1.82-.45ZM278.23,354.56c-.77-.78-1.44-1.35-1.97-2.06-2.24-3.03-4.07-6.32-6-9.54-.21-.36-.23-.95-1.04-.91.46,1.34.94,2.59,1.33,3.88.8,2.67,2.28,4.99,3.76,7.3.85,1.32,1.98,2.04,3.91,1.35ZM267.11,350.11c.47-.72.17-1.22-.23-1.68-.39-.44-.72-.99-1.35-1.13-.38-.09-.73.07-.92.41-.23.41.02.77.38.83.95.17,1.36,1.09,2.12,1.56ZM267.49,357.59c-.02.27.24.48.6.49.74.02,1.26-.45,1.26-1.16,0-.35-.08-.73-.5-.82-.31-.07-1.34,1.08-1.37,1.49ZM263.37,342.96c.32.44.5.68.66.92.17.25.35.49.7.31.34-.18.52-.48.44-.87-.09-.42-.39-.28-.68-.25-.27.03-.55-.05-1.11-.11Z"/>
      <path class="cls-4" d="M276.7,332.96c-1.63.59-2.93.1-4.1-.81-1.32-1.03-2.55-2.18-3.88-3.2-3.49-2.65-7.03-5.23-11.55-5.85-1.11-.15-2.01-.64-2.74-1.53-1.76-2.13-3.34-4.4-4.55-6.88-.94-1.93-.73-3.98.12-5.92.72-1.64,2.47-2.33,4.42-1.83.7.18,1.38.46,1.93.94,2.61,2.33,5.59,3.01,8.98,2.26,1.78-.39,1.82-.32,2.49,1.32.78,1.89,1.39,3.84,1.3,5.92-.09,2,.42,3.67,2.28,4.72.46.26.62.67.67,1.19.1.89.18,1.8.44,2.65.59,1.95,1.32,3.85,2.83,5.34.46.45,1.03.83,1.37,1.69ZM267.95,321.61c.45,1.51,1.28,2.71,2.86,3.48-.13-1.36-1.54-1.83-1.82-3.01-.28-1.15-.24-2.4-.85-3.57-.61.59-.34,1.26-.57,1.79-.88-.6-.87-1.65-1.19-2.51-.64-1.71-1.56-3.23-2.7-4.63-.54-.67-1.08-1.09-1.91-.28-.41.4-1.05.58-1.69.41-1.33-.36-2.68-.6-3.85-1.43-.58-.41-1.25-.8-1.93-.93-1.01-.18-1.75-.68-2.46-1.35-.71-.67-1.15-.56-1.34.39-.36,1.77-.02,3.44.91,5,.59,1,1.51,1.67,2.24,2.53-.19.59.24.53.58.54,2.84.03,5.33,1.04,7.59,2.68.78.56,1.61,1.01,2.47,1.4.67.31,1.34.51,1.98-.09.57-.09,1.22.12,1.69-.42Z"/>
      <path class="cls-4" d="M271.31,376.79c-.44,1.69-.43,3.43-.43,5.35-1.77-.45-2.98-1.35-3.97-2.71-1.07-1.46.09-3.06-.41-4.6-1.25.28-.71,1.51-1.29,2.24-.98-.65-1.29-1.62-1.44-2.67-.06-.4.1-.75.55-.77,1.53-.07,2.26-1.21,3.07-2.25,1.66-2.12,3.16-4.36,5.08-6.28.85-.86,1.82-1.55,2.82-2.23,1.6-1.08,3.26-1.41,5.11-.76,2.2.78,4.19,1.79,5.05,4.18-.29.06-.58.13-.87.19-.11-.15-.22-.3-.32-.45,0-.22-.11-.34-.32-.38h0c-.19-.55-.63-.85-1.12-1.08-1.74-.81-5.03-.12-6.28,1.35-.13.15-.06.46-.09.69-.76.39-1.47.66-2.42.51-1.63-.26-2.22.26-2.85,1.95-.31.28-.62.55-.92.83-1.24,1.17-1.43,2.45-.6,3.99.53.98.81,2.1,1.68,2.89Z"/>
      <path class="cls-2" d="M244.38,320.66c.56-.02.96.16.92.8-.07,1.15.32,2.26.34,3.38.02,1.32.63,2.22,1.46,3.15,2.53,2.86,5.09,5.75,7.03,9.02,1.63,2.75,2.82,5.79,3.76,8.9.92,3.03,1.6,6.13,2.06,9.23.42,2.88.39,5.86-.07,8.77-.43,2.77.43,4.9,2.65,6.12.86.47,1.85.41,2.76.67-.66,1.05-1.59,1.13-2.67.76-2.46-.84-4.74-4.38-4.45-6.98.07-.6.11-1.2.27-1.78,1.37-4.96.31-9.74-1.02-14.51-1.6-5.75-4.37-10.88-8.13-15.49-.95-1.16-1.98-2.25-3.06-3.3-1.17-1.14-1.87-2.47-1.98-4.11.01-.05.04-.11.03-.15-.03-.1-.08-.19-.12-.28-.25-1.41.02-2.8.21-4.19Z"/>
      <path class="cls-4" d="M279.65,378.59c.2-1.45,1.3-2.24,2.32-3.04.46-.35,1.08-.44,1.7-.2,1.01.39,1.98.81,2.75,1.62,2.36,2.45,4.1,5.23,4.89,8.59.66,2.77.58,5.56.47,8.37,0,.24-.09.46-.32.6-.41-.1-.43-.52-.63-.8.19-1.36-.7-2.38-1.16-3.51-1.45-3.56-3.38-6.78-6.57-9.15-1.14-.85-2.43-1.49-3.47-2.48ZM290.64,386.96c.26-4.19-4.39-10.38-8.14-10.65,1.27,1.98,3.36,2.97,4.6,4.81,1.27,1.88,2.09,4.01,3.54,5.84Z"/>
      <path class="cls-3" d="M279.65,378.59c1.04.99,2.33,1.63,3.47,2.48,3.19,2.37,5.11,5.59,6.57,9.15.46,1.13,1.35,2.15,1.16,3.51-1.19-.57-1.67-1.82-2.53-2.71-1.99-2.06-4.32-3.56-6.93-4.64-3.15-1.3-3.32-3.16-2.51-6.22.14-.53.24-1.19.77-1.57Z"/>
      <path class="cls-2" d="M289.34,320.87c1.29,1.21.77,2.67.56,4.08-.68-.26-.46-.88-.55-1.38-.18-1.05-.88-1.82-1.84-1.9-1.01-.09-2.02-.05-3,.35-.91.37-1.4.97-1.57,2.08.93-.17,1.68-.3,2.42-.45,1.53-.32,2.02-.12,2.84,1.17.35.54.44,1.27,1.14,1.55-.17.71-.55,1.31-1.04,1.84-2.17.53-4.32.43-6.49-.04-2.08-.45-2.75-1.16-3-3.32,1.74-2.03,3.88-3.42,6.49-4.12,1.39-.37,2.7.18,4.04.15Z"/>
      <path class="cls-3" d="M311.29,385.48c-.74.07-1.23-.37-1.68-.86-1.28-1.4-2.86-2.27-4.69-2.81-1.93-.58-3.75-1.49-5.85-1.44-1.12.03-1.71-.68-1.77-1.85-.06-1.31.02-2.62.04-3.94,1.31.38,2.67.65,3.92,1.16,2.06.85,3.7,2.38,5.4,3.77.97.79,1.7,1.79,2.34,2.91.63,1.09,1.89,1.75,2.28,3.06Z"/>
      <path class="cls-4" d="M278.8,324.84c.25,2.17.93,2.87,3,3.32,2.17.47,4.32.57,6.49.04-1.26,2.28-3.17,3.85-5.52,4.84-1.87.78-3.29.18-4.44-1.51-.43-.64-.64-1.42-1.24-1.94-.07-.93-.52-1.8-.41-2.77.16-1.43.55-1.83,2.12-1.97Z"/>
      <path class="cls-4" d="M311.29,385.48c-.39-1.3-1.65-1.97-2.28-3.06-.64-1.11-1.38-2.12-2.34-2.91-1.7-1.39-3.34-2.92-5.4-3.77-1.26-.52-2.61-.78-3.92-1.16.11-1.36.98-2.27,1.92-3.08.92-.8,2.62-.3,3.4.9-.76.19-1.56-.66-2.39.1,1.48,1.26,3.3,1.88,4.79,3.03,1.58,1.21,2.82,2.7,4.09,4.19.04.17.07.34.11.51.04.17.13.41.3.34.32-.12.16-.38.02-.56-.1-.13-.26-.22-.4-.33.09-.91-.76-1.56-.67-2.47.16.06.39.07.48.18,1.88,2.61,3.04,5.46,3.02,8.74-.6.07-.57-.38-.72-.66Z"/>
      <path class="cls-2" d="M281.39,371.84c1.1.04,1.85.71,2.74,1.45-2.63.05-4.21,1.49-5.45,3.41-1.08,1.67-1.65,3.55-1.96,5.51-.93.06-1.52-.33-1.59-1.29-.1-1.31-.58-2.39-1.64-3.22-.25-.2-.33-.62-.49-.95.1-.48.2-.95.3-1.43.33-.54.67-1.08,1-1.62.22-.08.47-.09.6-.33.87-.12,1.69-.68,2.62-.38-.24.85-1.33,1.27-1.17,2.33.04.23.02.48.27.6.27.13.5-.04.62-.22,1.04-1.65,2.79-2.54,4.15-3.86Z"/>
      <path class="cls-4" d="M295.39,376.74c.01.06.03.12.03.18,0,2.24.59,4.14,3,5.06-2.05.52-3.91.17-5.7-.66-.36-.17-.7-.5-.9-.84-.74-1.23-1.55-2.4-2.38-3.56-.79-1.1-.13-2.25.27-3.35,1.76,1.3,3.53,2.58,5.68,3.17Z"/>
      <path class="cls-3" d="M246.01,310.17c1.18.67,1.38.94,1.08,2.07-.29,1.1-.68,2.16-.74,3.31-.03.56-2.23,2.08-2.74,2.02-.44-.06-.53-.46-.68-.76-1.14-2.34-1.86-4.79-1.9-7.4-.02-1.14,0-2.28.05-3.42,0-.24.22-.46.49-.25.12.09.14.31.2.48.23,1.68,1.03,3.12,1.92,4.51.39.61.41,1.79,1.28,1.7.82-.08.66-1.25,1.01-1.9.05-.1.02-.23.03-.35Z"/>
      <path class="cls-2" d="M295.39,376.74c-2.16-.59-3.92-1.88-5.68-3.17.72-3.13,2.36-4.14,5.43-4.36-.6,1.09-1.6,1.96-1.81,3.25-.07.4-.11.89.43,1.03.4.1.73-.14.87-.47.79-1.83,2.11-3.27,3.36-4.76.9-.03,1.56.4,2.29,1.12-2.84.33-3.68,2.42-4.4,4.57-.3.89-.34,1.86-.5,2.8Z"/>
      <path class="cls-4" d="M273,376.75c.16.32.23.75.49.95,1.06.83,1.54,1.91,1.64,3.22.07.96.66,1.35,1.59,1.29.36,1.95.8,3.87,2.6,5.16-4.09.12-8.27-3.04-7.19-8.11.18-.86.25-1.79.87-2.51Z"/>
      <path class="cls-4" d="M257.24,369.46c.61.72,1.22,1.43,1.83,2.15.08.09.19.15.26.24.81,1,2.66.75,2.96,2.28.25,1.24.74,2.38,1.2,3.73-1.21,0-2.34.07-3.45-.02-.94-.08-1.67-.58-2.14-1.45-.64-1.18-1.07-2.4-1.04-3.77.02-1.01,0-2.02,0-3.04.12-.04.24-.08.36-.13Z"/>
      <path class="cls-2" d="M271.31,376.79c-.86-.79-1.15-1.91-1.68-2.89-.83-1.54-.63-2.82.6-3.99.3-.28.61-.56.92-.83,2.26-.94,3.14-.76,4.47.9-.42,0-.81-.1-1.19-.27-.7-.31-1.12.12-1.45.63-.35.54.12.85.42,1.2.27.31.53.62.79.93,0,.11,0,.21,0,.32-.17.12-.35.24-.52.37-.32.28-.87.4-.62,1.05.16.42-.19.77-.28,1.15-.49.48-.84,1.09-1.46,1.44Z"/>
      <path class="cls-3" d="M278.8,324.84c-1.57.14-1.96.53-2.12,1.97-.11.97.35,1.84.41,2.77-.61.02-1.04-.33-1.3-.81-.84-1.56-1.76-3.09-1.89-5.15,3.12,1.01,5.19-.51,7-2.7.45-.54.92-1.11,1.59-1.41.23.68.48,1.13,1.41.84.95-.29,1.96-.71,2.98-.35.82.29,1.65.24,2.48.29,0,.19-.02.38-.02.58-1.35.03-2.66-.52-4.05-.15-2.61.7-4.75,2.09-6.49,4.12Z"/>
      <path class="cls-2" d="M276.43,366.62c.02-.23-.04-.54.09-.69,1.25-1.47,4.54-2.16,6.28-1.35.49.23.93.53,1.12,1.08-.64,0-1.29-.03-1.93-.02-.28,0-.62-.05-.74.32-.11.34.13.58.35.74.9.64,1.83,1.25,2.74,1.87,0,.13-.01.26-.02.39-.17.06-.26.17-.22.36,0,0-.08.08-.08.08-1.45-.09-2.73-.9-4.11-1.06-1.22-.15-2.24-.47-3.13-1.28,0,0-.01-.01-.01-.01-.02-.19-.13-.31-.31-.36l-.02-.05Z"/>
      <path class="cls-2" d="M308.52,377.22c-.09.91.76,1.56.67,2.47l-.04.03c-1.27-1.49-2.51-2.98-4.09-4.19-1.5-1.15-3.32-1.78-4.79-3.03.83-.77,1.63.09,2.39-.1,2.54.89,4.46,2.54,5.86,4.82Z"/>
      <path class="cls-3" d="M255.01,371.69c.03.89.26,1.75.39,2.62.18,1.12-.07,1.34-1.2,1.42-1.18.08-2.37-.18-3.53.22-.39.13-.89.33-1.14-.08-.28-.47.13-.87.45-1.22.31.35.67.34.88-.04.92-1.65,2.52-2.28,4.14-2.91Z"/>
      <path class="cls-6" d="M289.34,326.36c-.7-.28-.79-1.01-1.14-1.55-.82-1.29-1.31-1.49-2.84-1.17-.74.15-1.49.28-2.42.45.17-1.11.67-1.71,1.57-2.08.98-.4,1.99-.43,3-.35.96.08,1.65.85,1.84,1.9.09.5-.13,1.12.55,1.38-.16.48-.21,1.01-.56,1.42Z"/>
      <path class="cls-3" d="M253.63,323.49c-2.37-.6-3.8-2.36-5.14-4.21-.82-1.14-.65-2.44-.55-4.03,1.34,1.94,2.6,3.59,3.64,5.36.61,1.03,1.84,1.57,2.07,2.85l-.03.03Z"/>
      <path class="cls-4" d="M276.77,367.04c.89.8,1.9,1.13,3.13,1.28,1.38.16,2.67.97,4.11,1.06-.09.72-.41,1.13-1.2.86-1.12-.38-2.22-.34-3.35-.04-.8.21-1.44-.15-1.78-.86-.36-.74-.9-1.42-.91-2.3Z"/>
      <path class="cls-4" d="M289.36,320.29c-.83-.05-1.66,0-2.48-.29-1.01-.36-2.03.06-2.98.35-.93.28-1.18-.16-1.41-.84.4-.26.78-.55,1.21-.76,2.56-1.23,3.93-.85,5.65,1.54Z"/>
      <path class="cls-4" d="M246.01,310.17c0,.12.02.25-.03.35-.35.65-.19,1.82-1.01,1.9-.87.09-.89-1.09-1.28-1.7-.89-1.39-1.69-2.83-1.92-4.51,1.3,1.45,2.49,3.01,4.24,3.96Z"/>
      <path class="cls-3" d="M264.37,327.94c-2.14,1.71-3.75.66-5.41-.62-.33-.26-.28-.66.07-.91.39-.28.86-.55,1.33-.34,1.32.58,2.62,1.22,4.01,1.87Z"/>
      <path class="cls-4" d="M255.01,371.69c-1.62.63-3.23,1.26-4.14,2.91-.21.37-.57.39-.88.04.71-2.41,2.27-3.95,4.71-4.6.13.1.25.2.38.29-.02.45-.05.91-.07,1.36Z"/>
      <path class="cls-6" d="M297.99,368.25c-1.25,1.49-2.57,2.93-3.36,4.76-.14.33-.48.58-.87.47-.55-.14-.5-.63-.43-1.03.22-1.29,1.21-2.16,1.81-3.25.85-.61,1.74-1.12,2.85-.95Z"/>
      <path class="cls-2" d="M290.76,368.89c-.84,1.02-1.44,2.19-2.09,3.33-1.13-.39-2.29-.72-3.21-1.54.03-.92.76-1.31,1.35-1.82-.02.66.13,1.13.96,1.1.6-.02,1.16-.07,1.59-.56.37-.42.83-.63,1.4-.52Z"/>
      <path class="cls-4" d="M285.47,370.68c.92.82,2.08,1.15,3.21,1.54-.16,1.09-.33,2.19-.49,3.27-.55.02-.73-.33-.85-.64-.4-1.07-1.05-1.97-1.76-2.85-.28-.35-.87-.81-.11-1.31Z"/>
      <path class="cls-6" d="M281.39,371.84c-1.35,1.31-3.1,2.2-4.15,3.86-.12.18-.35.35-.62.22-.25-.12-.23-.37-.27-.6-.16-1.05.93-1.48,1.17-2.33,1.21-.67,2.39-1.39,3.87-1.15Z"/>
      <path class="cls-3" d="M252.76,343.89c.61-.17.83.03.95.32.33.77.67,1.53.92,2.32.13.42-.12.75-.58.53-.97-.46-1.91-1-2.6-1.85-.52-.64-.35-1.01.51-1.19.35-.07.7-.12.8-.13Z"/>
      <path class="cls-6" d="M284.33,368.56c-.92-.62-1.84-1.23-2.74-1.87-.23-.16-.46-.4-.35-.74.12-.36.46-.31.74-.32.64,0,1.29.01,1.93.02,0,0,0,0,0,0,.11.13.21.25.32.38.11.15.22.3.32.45.07.35,0,.75.39.97.02.07,0,.13-.02.2-.24.05-.38.17-.36.43,0,0,0,.01,0,.02-.19.11-.23.27-.13.46h-.11Z"/>
      <path class="cls-6" d="M274.19,372.47c-.26-.31-.52-.63-.79-.93-.3-.35-.77-.65-.42-1.2.33-.52.76-.94,1.45-.63.38.17.78.26,1.19.27,0,0,0,0,0,0,.02.51.03,1.02.05,1.53-.31.27-.62.54-.93.82-.18.05-.37.1-.55.15Z"/>
      <path class="cls-6" d="M290.76,368.89c-.57-.11-1.03.1-1.4.52-.43.48-.98.54-1.59.56-.83.03-.98-.44-.96-1.1.43-.61,1.14-.79,1.76-1.1.5,0,1.01,0,1.51,0,0,0-.05.06-.05.06-.14.17-.39.35-.38.51.01.31.35.21.55.21.22,0,.44-.07.66-.11,0,0,0,.01,0,.01-.03.14-.06.27-.09.41l-.02.03Z"/>
      <path class="cls-3" d="M254.13,355.07c.66-.4,1.26-.22,1.85-.25.57-.03.92.25.9.85-.02.58.3,1.38-.2,1.67-.57.33-1.05-.36-1.46-.78-.41-.42-.96-.73-1.09-1.49Z"/>
      <path class="cls-4" d="M272.77,375.36c.09-.39.44-.73.28-1.15-.25-.65.3-.77.62-1.05.18.14.35.28.53.42l.1.13c-.33.54-.67,1.08-1,1.62-.18.01-.35.03-.53.04Z"/>
      <path class="cls-2" d="M275.67,371.5c-.02-.51-.03-1.02-.05-1.53.35.15.42.51.6.79.45.71-.06.73-.55.75Z"/>
      <path class="cls-2" d="M284.95,367.46c-.39-.22-.32-.63-.39-.97.29-.06.58-.13.87-.19.11.12.21.23.32.35-.01.13-.03.27-.04.4-.22.2-.42.43-.76.42Z"/>
      <path class="cls-4" d="M274.19,372.47c.18-.05.37-.1.55-.15.05.35.1.7.16,1.05-.13.24-.38.26-.6.33,0,0-.1-.13-.1-.13,0-.26,0-.53,0-.79,0-.11,0-.21,0-.32Z"/>
      <path class="cls-2" d="M290.87,368.43c-.22.04-.44.12-.66.11-.2,0-.54.1-.55-.21,0-.17.25-.34.38-.51.45-.03.78.1.83.62Z"/>
      <path class="cls-4" d="M290.08,367.76c-.5,0-1.01,0-1.51,0,.5-.44,1.01-.6,1.51,0Z"/>
      <path class="cls-3" d="M255.08,370.33c-.13-.1-.25-.2-.38-.29.11-.22.28-.43.52-.24.25.2.08.4-.14.54Z"/>
      <path class="cls-4" d="M285.71,367.05c.01-.13.03-.27.04-.4.06-.15.19-.18.25-.05.12.26,0,.43-.29.45Z"/>
      <path class="cls-4" d="M286.89,365.21c.19,0,.38.01.58.02.01.2-.06.35-.27.34-.19-.01-.29-.16-.3-.36Z"/>
      <path class="cls-3" d="M253.66,323.45c.15.05.3.11.46.16-.25.32-.35.02-.48-.12,0,0,.03-.03.03-.03Z"/>
      <path class="cls-2" d="M291.97,315.5c-.15.14-.3.4-.47.01.15-.13.31-.13.47-.01Z"/>
      <path class="cls-4" d="M276.45,366.66c.18.05.29.17.31.36-.21-.03-.32-.14-.31-.36Z"/>
      <path class="cls-4" d="M284.57,368.09c-.02-.26.12-.38.36-.43,0,.23-.13.38-.36.43Z"/>
      <path class="cls-4" d="M284.44,368.57c-.1-.2-.06-.35.13-.46.08.19.04.34-.13.46Z"/>
      <path class="cls-2" d="M290.79,368.86c.03-.14.06-.27.09-.41.37.22.19.33-.09.41Z"/>
      <path class="cls-4" d="M284.09,369.3c-.04-.19.05-.3.22-.36-.07.12-.15.24-.22.36Z"/>
      <path class="cls-4" d="M244.16,324.86c.04.09.09.19.12.28.01.04-.02.1-.03.15-.06-.1-.13-.19-.17-.29-.01-.03.06-.1.09-.15Z"/>
      <path class="cls-2" d="M331.35,288.43c1.88,1.73,2.99,4.01,4.36,6.1,3.53,5.35,6.18,11.11,7.55,17.37,1.38,6.31,1.61,12.71.72,19.12-.68,4.84-2.01,9.48-4.38,13.78,0-.3-.09-.62,0-.89,1.46-4.64,1.91-9.48,2.89-14.21.43-2.07.2-4.16.18-6.43-1.66,2.02-1.28,4.57-2.36,6.7-.49-.57-.41-1.07-.48-1.53-.13-.77-.28-1.85-.99-1.92-.9-.09-.91,1.05-1.15,1.75-.11.34-.17.69-.26,1.04-.09.33-.34.47-.65.53-.1-.32-.19-.63-.29-.95.29-.81.29-1.64.15-2.49-.24-1.48-.52-2.94-.88-4.4-1.34-5.47-3.55-10.55-6.54-15.29-1.47-2.33-3.18-4.54-5.81-5.75-.9-.42-1.22-1.11-1.06-2.04.06-.35.19-.7,0-1.05-.77-2.06-1.67-2.59-3.4-1.98-.56.11-1.07.12-1.18-.62-.09-.58-.19-1.15-.28-1.72.34-1.33,1.29-2.25,2.13-3.24.46.56.71.09.97-.21,1.56-1.87,2.69-3.96,3.12-6.38.11-.61.13-1.23.49-1.89,1.07,1.12,2.08,2.07,2.45,3.46-.69.18-1.34.43-1.61,1.18-.17.47-.12.92.25,1.28.34.34.62.12.89-.13.49.42.93.93,1.48,1.25,1.58.91,2.48,2.27,2.89,4-.58-.09-.86-.62-1.33-.87-1.28-.69-3.21.32-3.25,1.72,0,.39.09,1,.71.52,1.08-.82,1.94-.1,2.89.25,1.05.39,2.26.47,2.82,1.66.15.32.29.71,0,1.01-.29.3-.66.17-.98-.03-.3-.19-.58-.42-.88-.62-.47-.31-.95-.46-1.52.02.71.49,1.39.96,2.06,1.43,1.19.83,1.34.82,2.67-.11.08,1.37.51,2.54,1.7,3.4,1.47,1.07,2.01,2.77,2.66,4.37.18.44.21.94.4,1.37,1.82,4.21,2.76,8.64,3.42,13.15.08.55.2,1.1.32,1.73.47-.42.52-.82.53-1.24.04-2.41-.55-4.74-1.07-7.05-.23-1.03-.45-2.09-.8-3.11-1.24-3.55-2.45-7.1-3.82-10.59-.78-1.99-1.12-2.25-3.32-2.03-.09-.68-.18-1.37-.28-2.05-.15-1.46-.4-2.89-.86-4.3-.35-1.07-1.11-1.94-1.26-3.08ZM332.11,301.52c-.1-1.01-.61-1.79-1.4-2.37-.81-.59-1.68-.15-1.76.85-.1,1.12.62,2.23,1.7,2.65,1.26.49,1.65.19,1.46-1.13ZM335.39,303.58c-.24,0-.34.18-.33.35.01.78.41,1.35,1.02,1.79.17.13.37.04.45-.13.21-.47.12-.95-.13-1.37-.22-.37-.55-.63-1-.64ZM336.72,308.8c.12.89.2,1.53.31,2.17.04.23.12.47.44.43.26-.03.45-.21.5-.44.22-.89.04-1.62-1.25-2.16ZM336.99,312.36c-.07.53-.18,1.07.47,1.32.11.04.4-.09.44-.2.22-.63-.5-.71-.71-1.1-.02-.03-.11-.02-.2-.03Z"/>
      <path class="cls-4" d="M322.34,297.89c.19.35.07.7,0,1.05-.15.94.16,1.63,1.06,2.04,2.63,1.21,4.34,3.42,5.81,5.75,2.98,4.73,5.2,9.82,6.54,15.29.36,1.46.64,2.92.88,4.4.14.85.14,1.67-.15,2.49-2.33-.83-2.38-.84-2.08-3.2.17-1.34-.03-2.63-.21-3.93-.08-.55-.22-1.21-.61-1.47-1.59-1.09-1.5-2.88-1.96-4.41-1.02-3.43-3.19-5.58-6.71-6.23-1.09-.2-1.71-.67-1.97-1.69-.53-2.09-1.87-3.6-3.54-4.83-1.24-.91-1.92-2.11-2.14-3.6-.22-1.48-.45-2.96-.28-4.47.06-.54.08-1.08.5-1.5.1.57.19,1.15.28,1.72.12.74.62.74,1.18.62-.13.33-.31.65-.39.99-.34,1.4.25,2.85,1.33,3.37.27.13.59.25.81-.03.27-.33-.06-.53-.27-.71-.18-.15-.42-.24-.6-.38-.7-.56-.8-1.48-.25-2.18.64-.81,1.12-.16,1.66.15.39.23.49.87,1.11.77Z"/>
      <path class="cls-4" d="M336.77,329.85c.31-.06.57-.2.65-.53.09-.35.15-.7.26-1.04.24-.7.25-1.84,1.15-1.75.71.07.85,1.15.99,1.92.08.45,0,.95.48,1.53,1.08-2.13.7-4.68,2.36-6.7.02,2.27.24,4.36-.18,6.43-.97,4.73-1.43,9.57-2.89,14.21-.08.27,0,.59,0,.89-.81,2-1.99,3.81-3.27,5.52-1.1,1.46-2.4,2.8-3.86,4.05-.47-.52-.09-.95.09-1.31,1.48-2.98,2.69-6.13,2.79-9.42.12-3.79,1.34-7.37,1.6-11.12.06-.92-.26-1.78-.19-2.68Z"/>
      <path class="cls-4" d="M319.29,283.88c.33.48.34.91-.28,1.14-.67.24-1.36.45-2.06.63-3.57.89-6.28,5.4-5.8,8.92.09.65.21,1.3.29,1.96.13,1.17-.33,1.54-1.45,1.12-1.2-.45-2.26-1.12-2.85-2.34-.39-.81-.8-1.61-1.14-2.44-2.13-5.15-5.33-9.6-9.06-13.69-.61-.67-.63-1.35-.53-2.21,1.18.02,2.25.48,3.41.29.64-.11.89.58.95,1.11.11,1.04.8,1.39,1.67,1.59.73,1.02,1.19,2.22,2.12,3.11,1.48,1.41,2.84,2.93,3.88,4.7.45.77,1.05.91,1.83.66-.14,1.25-1.03,2.43-.27,3.77.29-1.43.99-2.75.91-4.25,0,0,0,.02,0,.02.05-.03.14-.06.13-.08,0-.09-.04-.17-.07-.26-.07,0-.13-.01-.2-.03,2.15-2.33,4.94-3.24,7.97-3.65.19-.02.38-.03.56-.05Z"/>
      <path class="cls-3" d="M331.49,352.39c.29-1.82.57-3.65.87-5.47.14-.83.19-1.66.31-2.48.2-1.42-.02-2.59-1.07-3.6-.61-.59-.53-1.14-.04-1.87.79-1.18,1.58-2.39,1.74-3.89.2-1.91-.18-2.44-2.1-2.65-.92-.1-1.05-.3-.83-1.3.32-1.46.71-2.91.96-4.38.36-2.09-.28-3.05-2.33-3.42-.72-.13-.91-.45-.92-1.05,0-.3.06-.59.11-.89.52-2.9-.45-5.41-2.02-7.77-.43-.65-.88-1.29-1.3-1.95-.13-.2-.19-.45-.01-.67.18-.22.42-.13.66-.08,1.92.44,3.09,1.76,3.97,3.39.88,1.64,1.33,3.44,1.82,5.23.12.45.06,1.07.71,1.09.93.03.98.66,1.11,1.33.37,1.96.29,3.93.22,5.89-.05,1.41-.1,1.45,1.28,1.79,1.07.26,1.27,1.05,1.25,1.91-.04,2.1-.28,4.19-1.13,6.14-.28.64-.35,1.22-.29,1.9.37,4.46-.46,8.68-2.65,12.6-.06.1-.17.16-.26.24,0,0-.06-.04-.06-.04Z"/>
      <path class="cls-2" d="M310.27,288.41c-.78.25-1.38.11-1.83-.66-1.04-1.77-2.4-3.29-3.88-4.7-.93-.89-1.39-2.09-2.12-3.11-.09-.3-.17-.6-.26-.89,1.12-.4,2.19-.92,3.06-1.73.76-.72,1.61-1.17,2.62-1.38.64.24,1.06.74,1.49,1.23.55.62,1.12,1.22,1.65,1.86,1.62,1.96,3.56,3.28,6.2,3.32.43,0,.81.16,1.09.51-.04.05-.07.11-.11.17-1.48-.13-3.03.11-4.42-.52-1.58-.73-3.05-1.68-4.26-2.95-.79-.82-1.96-1.13-2.63-2.1-.14-.2-.44-.08-.63.11-.21.22-.15.43.04.62.37.39.73.79,1.12,1.16,1.57,1.53,3.14,3.06,4.78,4.66-1.23.98-2.1,1.99-1.41,3.55.07.02.13.03.2.03-.02.11-.04.23-.06.34,0,0,0-.02,0-.02-.3.05-.48.25-.64.48Z"/>
      <path class="cls-4" d="M315.11,297.22c.11.83.18,1.36.26,1.88.34,2.15,1.19,3.99,3.08,5.25,2.19,1.47,3.06,3.74,3.56,6.2.07.35.1.72.03,1.07-.11.57-.45.96-1.05,1.09-.6.12-.89-.27-1.12-.7-.85-1.58-1.72-3.13-2.99-4.45-1.25-1.3-2.68-2.15-4.5-2.36-1.65-.19-2.22-1.08-1.8-2.69.22-.83.65-1.58,1.16-2.21.89-1.1,1.98-2.03,3.36-3.08ZM314.73,300.44c-.71.54-1.25.9-1.72,1.32-.68.61-.67,1.26.12,1.75,1.47.91,3.01,1.7,4.52,2.54-.97-1.88-2.39-3.41-2.92-5.62Z"/>
      <path class="cls-6" d="M331.35,288.43c.14,1.13.91,2.01,1.26,3.08.46,1.42.71,2.84.86,4.3-.78-.73-1.16-1.79-2.07-2.41-.16-.4-.41-.62-.87-.51h0c-.42-1.73-1.31-3.09-2.89-4-.55-.32-.99-.83-1.48-1.25-.08-.41-.2-.86.26-1.11.48-.25.71.27,1.07.44.46.21.32,1.02.99,1.12.06-1.73-.17-2.06-1.84-2.78-.37-1.4-1.38-2.34-2.45-3.46-.36.65-.38,1.28-.49,1.89-.43,2.42-1.56,4.51-3.12,6.38-.26.31-.51.77-.97.21,2.09-3.18,2.62-6.87,3.37-10.48.09-.45-.01-.94.32-1.42.93.48,1.63,1.18,2.25,1.98.05.33.1.67.58.56,0,0,.02.02.02.02-.02.97.46,1.79.76,2.66.41,1.19,1.22,1.68,2.45,1.45.07.07.11.16.11.26.1.58-.08,1.33.85,1.41.34.56.68,1.12,1.02,1.67Z"/>
      <path class="cls-3" d="M313.39,326.93c-1.27-1.59-1.72-3.55-2.12-5.43-.89-4.22-1.25-8.49-.1-12.77.47-1.76.54-1.85,2.28-1.21.64.24,1.18.58,1.64,1.07.51.55.8,1.14.48,1.95-.31.77-.42,1.61-.46,2.45-.03.6-.11,1.21-.83,1.44-.63-.42-.3-1.53-1.25-1.83-.55,4.65-1,9.2.56,13.68.09.25-.04.46-.2.65Z"/>
      <path class="cls-3" d="M315.1,318.2c-.13-.69.17-1.29.37-1.92.51-1.65,1.25-3.22,1.5-5.33.93,1.43,2.23,2.19,1.56,4.03-.5,1.38-.6,2.92-.33,4.43.09.51.3,1.08-.38,1.41-.92.45-1.1,1.33-1.31,2.23-.14.6.07,1.38-.71,1.72-.2-.45-.3-.93-.23-1.41.26-1.76-.19-3.46-.45-5.17Z"/>
      <path class="cls-4" d="M313.39,326.93c.17-.18.29-.4.2-.65-1.57-4.48-1.12-9.03-.56-13.68.94.3.61,1.4,1.25,1.83-.03,1.45-.07,2.89-.11,4.34-.22,1.38-.06,2.74.12,4.11.33,2.49.67,4.98,1.39,7.4-1.16-.85-1.69-2.12-2.29-3.35Z"/>
      <path class="cls-3" d="M316.14,291.3c-.02,1.23-.65,2.28-1.04,3.39-.28.8-1.03,1.09-1.91,1.54-.38-2.51-.1-4.71,1.21-6.75.23-.36.53-.65.99-.7.15.87.14,1.79.75,2.52Z"/>
      <path class="cls-4" d="M307.85,275.94c-1,.21-1.85.66-2.62,1.38-.86.81-1.94,1.33-3.06,1.73-1.01-1.59-.85-2.41.66-3.33,1.81-1.11,3.61-1.03,5.01.22Z"/>
      <path class="cls-4" d="M315.1,318.2c.27,1.71.71,3.41.45,5.17-.07.47.03.96.23,1.41.05,1.28.69,2.45.66,3.74-1.09-.26-1.09-1.22-1.27-2.04-.57-2.58-.41-5.19-.42-7.8.11-.16.22-.32.34-.47Z"/>
      <path class="cls-4" d="M316.14,291.3c-.61-.73-.6-1.65-.75-2.52.61-.49,1.2-.98,1.82-1.45.4-.3.88-.52,1.31-.13.41.37.08.8-.12,1.14-.63,1.08-1.2,2.21-2.27,2.96Z"/>
      <path class="cls-3" d="M314.77,318.68c0,2.61-.15,5.23.42,7.8.18.82.18,1.78,1.27,2.04,0,.8,0,1.61,0,2.4-.58.07-.64-.32-.77-.64-.71-2.42-1.06-4.91-1.39-7.4-.18-1.37-.35-2.73-.12-4.11.2-.03.4-.06.6-.09Z"/>
      <path class="cls-3" d="M299.24,283.98c-2.18.19-3.01-1.31-4.07-2.57,1.68-.82,2.45-.33,4.07,2.57Z"/>
      <path class="cls-2" d="M329.37,285.09c-1.24.22-2.04-.26-2.45-1.45-.3-.87-.78-1.7-.76-2.66,1.31,1.18,2.52,2.45,3.22,4.11Z"/>
      <path class="cls-3" d="M298.89,287.29c1.82-.56,2.32-.43,3.03.67.19.3.45.61.21.97-.31.45-.74.21-1.12.09-.76-.24-1.15-.56-2.11-1.72Z"/>
      <path class="cls-2" d="M330.33,286.75c-.93-.08-.75-.83-.85-1.41.53.32.79.81.85,1.41Z"/>
      <path class="cls-2" d="M319.29,283.88c-.19.02-.38.03-.56.05-.05-.2-.11-.41-.16-.61.04-.05.09-.1.13-.15.33.12.49.39.6.7Z"/>
      <path class="cls-3" d="M331.55,352.43c-.04.16-.08.31-.11.47-.05-.03-.13-.05-.14-.08-.05-.19.05-.31.19-.42,0,0,.06.04.06.04Z"/>
      <path class="cls-4" d="M304.8,272.84c.29-.12.55-.07.78.14-.29.12-.56.12-.78-.14Z"/>
      <path class="cls-2" d="M326.13,280.95c-.48.12-.53-.22-.58-.56.3.08.48.28.58.56Z"/>
      <path class="cls-2" d="M318.28,282.87c.14.1.28.2.41.31-.04.05-.08.1-.13.15-.13-.1-.26-.19-.39-.28.03-.06.07-.11.11-.17Z"/>
      <path class="cls-2" d="M130.44,344.86c-1.85-2.58-2.79-5.55-3.65-8.54-1.9-6.66-2.24-13.46-1.48-20.32.46-4.2,1.64-8.22,3.21-12.13,1.97-4.92,4.66-9.45,7.55-13.87.16-.25.31-.52.62-.62-.48,1.97-1.24,3.86-1.61,5.87-.08.43-.11.68.36.79.03.64-.29,1.19-.43,1.79-.5-.07-.92.24-1.39.31-1.05.16-1.52.67-1.92,1.75-.77,2.08-1.32,4.22-2.07,6.29-1.76,4.88-2.71,9.91-3.09,15.07-.05.64-.19,1.32.58,1.95.11-.95.18-1.78.29-2.6.25-1.77.31-3.55.85-5.31.87-2.85,1.81-5.69,2.54-8.59.49-1.95,1.28-3.85,3-5.2.96-.75,1.48-1.88,1.44-3.17,1.63.61,2.95.08,4.14-1.74-1.32-.02-2.17,1.24-3.56,1.21.4-1.41.99-2.76,2.13-3.1,1.14-.34,1.97-1.29,3.19-1.32.36,0,.53-.24.52-.58,0-.27-.19-.41-.42-.52-.59-.3-1.16-.23-1.7.1-.4.24-.64.73-1.18.77-.01-.57.24-1.04.57-1.46.72-.93,1.03-1.99,1.08-3.14.52-.28.47-.92.84-1.32.29-.31.58-.66,1.04-.56.54.12.47.59.45,1-.02.27-.17.59.24.72,1.38-1.31,1.22-2.19-.5-2.91.17-1.44,1.28-2.28,2.07-3.44.51,2.74,1.71,4.99,3.27,7.06.39.51.7,1.15,1.48,1.19.6.38.92,1.01,1.33,1.56-.3,1.18-.09,2.49-.91,3.53-1,.21-2.1.28-2.31,1.63h.02c-.29-.15-.49-.04-.65.21-.15.61.12,1.18.23,1.76.16.88.05,1.51-.89,1.85-.61.23-1.08.7-1.59,1.12-2.5,2.07-4.24,4.69-5.74,7.51-1.71,3.24-3.18,6.6-3.97,10.16-.82,3.72-1.69,7.44-2.18,11.29-.4-1.42-.68-2.87-1.77-4.01-1.07.93-.44,2.41-1.35,3.76-.48-2.39-1.06-4.37-2.11-6.56-.47,1.99-.24,3.64-.08,5.24.45,4.61,1.89,9,3.2,13.42.2.69.53,1.35.3,2.09ZM138.08,302.55c.76.19,1.06-.3,1.31-.88.43-.41.38-.97.42-1.49.04-.44-.11-.83-.52-1.04-.42-.22-.82-.04-1.16.21-.95.72-1.41,1.72-1.53,2.88-.05.49,0,1.02.56,1.16.61.15.79-.35.91-.83ZM132.04,312.3c.4-.81.34-1.53.43-2.23.06-.49-.1-.83-.63-.9-.54-.08-.83.3-.89.7-.15.92-.03,1.79,1.09,2.42ZM133.83,304.64c-.04-.3,0-.59-.31-.62-.15-.01-.35.07-.46.17-.36.32-.58.74-.7,1.19-.11.42-.08.91.4,1.02.38.09.55-.35.68-.68.14-.38.28-.76.4-1.08ZM132.34,312.98c-.27.11-.51.16-.69.29-.28.21-.55.49-.48.88.02.11.25.27.38.27.39,0,.65-.23.81-.58.1-.22.16-.44-.02-.86ZM142.45,294.44c.37-.45.43-.93.06-1.39-.1-.12-.38-.07-.44.09-.16.5-.32,1.02.38,1.3Z"/>
      <path class="cls-4" d="M130.44,344.86c.23-.75-.09-1.41-.3-2.09-1.31-4.41-2.75-8.81-3.2-13.42-.16-1.61-.39-3.26.08-5.24,1.05,2.19,1.62,4.17,2.11,6.56.91-1.35.28-2.83,1.35-3.76,1.09,1.14,1.37,2.6,1.77,4.01.49-3.85,1.35-7.57,2.18-11.29.79-3.56,2.26-6.92,3.97-10.16,1.49-2.83,3.24-5.44,5.74-7.51.51-.42.98-.9,1.59-1.12.94-.35,1.05-.97.89-1.85-.1-.58-.38-1.15-.23-1.76.26.04.49,0,.65-.23,0,0-.02.01-.02.01.26-.14.52-.31.79-.4,1.13-.38,1.72.06,1.7,1.24-.01.56-.15,1.04-.6,1.43-.33.28-.78.48-.92,1.06,1.28.17,1.71-.73,1.99-1.5.44-1.21.49-2.47-.65-3.45.82-1.04.61-2.35.91-3.53,2.07,2.2,2.36,7.74.53,10.05-.15.19-.31.38-.5.51-2.15,1.51-3.47,3.6-4.3,6.04-.26.77-.6,1.36-1.63,1.32-2.83-.13-6.28,3.64-6.68,6.19-.16,1-.43,1.98-.63,2.98-.07.36-.17.69-.46.94-1.23,1.09-1.47,2.56-1.39,4.07.07,1.25-.3,2.5.06,3.76.14.5-.09.97-.63,1.14-1.19.36-1.43,1.28-1.56,2.36-.3,2.32.12,4.55.88,6.69.45,1.27.68,2.48.53,3.84-.21,1.93.27,3.82.92,5.62.77,2.14,1.66,4.24,2.49,6.35.13.33.3.66.24,1.04h0c-1.99-1.05-3.3-2.86-4.61-4.56-.98-1.28-2.04-2.61-2.47-4.25-.07-.1-.15-.2-.22-.3,0,0-.05-.09-.05-.09-.02-.26.06-.55-.27-.69h-.03Z"/>
      <path class="cls-4" d="M159.97,275.65c1.95-1.63,4.71-1.49,6.27.31.33.38.5.8.43,1.32-.06.46-.29.93,0,1.45.79.06.79-.69.88-1.08.21-.91.67-1.13,1.53-1.04.52.06,1.06-.13,1.6-.19.38-.04.84-.37,1.1.2.23.51.38,1.02-.12,1.48-2.59,2.38-3.95,5.65-6.05,8.4-1.62,2.12-2.44,4.66-3.31,7.15-.63,1.82-1.89,3.04-3.73,3.61-1,.31-1.35.02-1.3-1,.02-.42.11-.83.16-1.25.33-2.87-.69-5.31-2.52-7.42-1.19-1.37-2.85-1.93-4.62-2.19-1.23-.18-1.23-.21-1.25-1.55.59.08,1.19.24,1.78.24,2.77.03,4.94,1.25,6.75,3.26-.18.06-.37.22-.31.37.6,1.6.8,3.35,1.7,4.94.35-.83.12-1.55-.04-2.23-.21-.87-.52-1.71-.79-2.57.71.09,1.21-.14,1.7-.72,1.18-1.42,2.46-2.76,3.72-4.12,1.24-1.34,2.02-2.9,2.32-4.74-2.09-.69-4-1.64-5.91-2.6Z"/>
      <path class="cls-3" d="M141.53,323.62c-2.27-.11-2.96.47-3.18,2.64-.15,1.41.34,2.72.68,4.04.12.46.36.9.44,1.37.1.61-.09.99-.85,1.04-2.16.15-2.71.99-2.06,3.01.37,1.15.89,2.2,1.66,3.16.89,1.11.88,1.44,0,2.51-.94,1.15-.83,2.48-.72,3.76.12,1.42.25,2.86.76,4.22.14.39.2.82.23,1.23.02.28.03.64-.34.73-.36.09-.57-.2-.7-.45-.23-.42-.44-.86-.56-1.31-.5-1.9-.97-3.82-1.45-5.73-.04-.17-.09-.36-.08-.53.19-3.31-.69-6.46-1.37-9.65-.19-.9.1-1.9.22-2.85.1-.76.74-.93,1.34-.94.97,0,1.08-.61,1.01-1.32-.12-1.13-.28-2.25-.47-3.37-.19-1.09.11-2.15.19-3.22.03-.37.19-.75.55-.86,1.46-.45,1.47-1.76,1.63-2.88.19-1.39.68-2.67,1.26-3.91.79-1.69,2.88-3.03,4.81-3.22.19.49-.25.76-.43,1.1-.19.37-.42.73-.68,1.06-2.17,2.7-2.79,5.74-1.99,9.09.1.4.09.83.12,1.24l-.03.03Z"/>
      <path class="cls-2" d="M159.97,275.65c1.91.96,3.83,1.91,5.91,2.6-.3,1.84-1.09,3.4-2.32,4.74-1.25,1.36-2.53,2.7-3.72,4.12-.49.58-.99.81-1.7.72-.09-.14-.18-.27-.27-.41.34-1.11-.11-2.11-.83-2.78-.78-.73-.76-1.08,0-1.77.61-.56,1.17-1.2,1.85-1.69.79-.57,1.4-1.31,1.99-2.05.23-.29.72-.65.33-1.07-.37-.41-.89-.24-1.32.03-.76.48-1.37,1.14-2.01,1.77-1.95,1.93-4.04,3.61-7.09,2.73-.11-.03-.24-.04-.35-.05.66-.49,1.47-.46,2.22-.62,1.41-.29,2.55-.94,3.45-2.07.78-.98,1.63-1.91,2.46-2.85.43-.48.75-1.09,1.4-1.35Z"/>
      <path class="cls-4" d="M147.03,310.56c.55-2.6,1.66-4.92,3.83-6.52,1.59-1.17,2.36-2.65,2.46-4.56.01-.24.03-.48.09-.71.12-.43-.11-1.07.5-1.23.56-.14.72.52,1.08.75,1.13.71,2.15,1.51,2.85,2.66.52.87,1.08,1.75.78,2.86-.21.76-.53,1.26-1.47,1.25-2.15-.02-3.71,1.21-5.11,2.66-1.05,1.09-1.8,2.39-2.54,3.7-.34.6-.49,1.46-1.48,1.23-.68-.16-1.12-1.14-.98-2.09ZM150.7,306.49c1.97-.76,3.44-2.35,5.38-3.19.67-.29.71-.99.13-1.47-.63-.52-1.15-1.22-2.08-1.46-.4.9-.76,1.77-1.16,2.61-.42.89-1.22,1.47-1.87,2.16-.35.37-.39.86-.39,1.35-.04.01-.09.01-.13.03-.02.01-.02.06-.03.09.05-.04.11-.09.16-.13Z"/>
      <path class="cls-3" d="M155.33,315.73c-.95-.79-1.11-1.92-1.32-3.02-.12-.64-.11-1.31-.24-1.96-.15-.72-.36-1.47.2-2.05.74-.78,1.55-1.51,2.65-1.79.48-.12.84.05,1.06.46.17.32.33.66.38,1.01.35,2.71,1.17,5.38.63,8.18-.28,1.47-.43,2.98-.49,4.47-.08,2.05-1.09,3.77-1.78,5.61-.09.25-.31.34-.56.38-.11-.6-.06-1.21.12-1.78.95-2.9.87-5.89.75-8.88-.05-1.08-.26-2.16-.89-3.26-.19.98-.34,1.8-.5,2.62Z"/>
      <path class="cls-6" d="M135.44,296.05c-.47-.11-.44-.36-.36-.79.37-2,1.13-3.9,1.61-5.87.09-.13.18-.25.27-.38,1.1,0,1.73-.63,2.13-1.58.49-1.15,1.18-2.18,1.79-3.26.66-1.17,1.67-2.2,1.83-3.63.61-.81,1.26-1.57,2.26-2.08.49,2.79,1.28,5.39,2.13,7.98.45,1.36,1.02,2.66,1.81,3.86-.78-.04-1.09-.67-1.48-1.19-1.56-2.07-2.76-4.32-3.27-7.06-.79,1.16-1.9,2-2.07,3.44-1.75.35-2.33,1.21-2.06,3.06-.05,1.15-.36,2.21-1.08,3.14-.33.42-.58.9-.57,1.46-1.29.65-2.3,1.58-2.93,2.89Z"/>
      <path class="cls-6" d="M150.45,282.54c.12.02.24.02.35.05,3.05.88,5.14-.8,7.09-2.73.64-.63,1.25-1.29,2.01-1.77.42-.27.94-.43,1.32-.03.39.42-.1.78-.33,1.07-.6.74-1.2,1.48-1.99,2.05-.68.49-1.23,1.13-1.85,1.69-.75.69-.78,1.04,0,1.77.72.67,1.17,1.67.83,2.78-.09-.03-.19-.06-.28-.1-1.81-2-3.98-3.23-6.75-3.26-.6,0-1.19-.16-1.78-.24.25-.66.71-1.09,1.39-1.29Z"/>
      <path class="cls-3" d="M153.69,324.26c-.8-.31-.58-1.1-.76-1.69-.23-.74-.3-1.53-1.18-1.85-.61-.22-.75-.72-.66-1.31.24-1.67.28-3.3-.43-4.9-.17-.38-.08-.98.1-1.39.34-.8.82-1.53,1.42-2.6.6,2.96,1.91,5.31,2.29,7.96-.58.31-.43.91-.57,1.4-.4,1.45.07,2.93-.2,4.38Z"/>
      <path class="cls-4" d="M153.69,324.26c.28-1.45-.2-2.93.2-4.38.14-.49-.01-1.09.57-1.4.09.48.18.95.27,1.43.07,2.78-.3,5.54-.5,8.31.25-.68.31-1.4.53-2.06.84-2.48.74-5.08,1.08-7.62.03-.19-.18-.42-.28-.63.16-.75-.19-1.45-.22-2.18.15-.82.31-1.64.5-2.62.63,1.09.85,2.17.89,3.26.13,2.99.21,5.97-.75,8.88-.19.57-.23,1.17-.12,1.78-.3,1.45-1.27,2.53-2.06,3.71-.22-.04-.43-.08-.65-.12.24-2.11.52-4.22.55-6.35Z"/>
      <path class="cls-3" d="M153.73,289.41c1.99.86,1.74,2.76,1.97,4.39.09.62-.12,1.28-.19,1.94-1.64-.41-1.99-.99-2.18-3.46.13-.96.26-1.92.39-2.87Z"/>
      <path class="cls-4" d="M153.73,289.41c-.13.96-.26,1.92-.39,2.87-1.1-1.32-2.22-2.62-3.3-3.96-.25-.3-.58-.69-.25-1.11.35-.45.86-.38,1.31-.19,1.15.48,2.27,1.04,2.64,2.39Z"/>
      <path class="cls-2" d="M142.7,280.54c-.16,1.43-1.17,2.46-1.83,3.63-.61,1.08-1.3,2.11-1.79,3.26-.4.95-1.04,1.57-2.13,1.58,1.39-2.62,2.79-5.23,4.74-7.5.31-.36.54-.79,1.01-.97Z"/>
      <path class="cls-3" d="M155.56,317.91c.1.21.31.43.28.63-.34,2.54-.24,5.15-1.08,7.62-.22.66-.28,1.38-.53,2.06.19-2.77.57-5.53.5-8.31.69-.5.1-1.52.83-2Z"/>
      <path class="cls-3" d="M169.68,283.16c.45-1.32,1.15-2.23,2.09-2.94.32-.24.79-.44,1.15-.12.41.36.12.77-.12,1.1-.75.99-1.61,1.82-3.13,1.96Z"/>
      <path class="cls-3" d="M168.57,286.73c.24.05.68-.03.76.43.06.35-.27.48-.53.62-.21.11-.43.21-.64.32-.46.24-.91.63-1.47.34-.23-.12-.14-.45-.03-.65.32-.57.63-1.19,1.45-1.12.12,0,.24.03.45.05Z"/>
      <path class="cls-3" d="M153.14,330.61c.22.04.43.08.65.12-.11.25-.27.54-.57.45-.21-.07-.14-.36-.09-.56Z"/>
      <path class="cls-2" d="M130.47,344.87c.33.14.25.43.27.69-.22-.18-.31-.41-.27-.69Z"/>
      <path class="cls-4" d="M138.09,354.76c.16.06.31.12.47.19-.3.32-.36,0-.47-.18,0,0,0,0,0,0Z"/>
      <path class="cls-2" d="M130.79,345.65c.07.1.15.2.22.3-.07-.1-.15-.2-.22-.3Z"/>
      <path class="cls-3" d="M141.56,323.59s.13.09.12.11c-.04.12-.1.09-.16-.08,0,0,.03-.03.03-.03Z"/>
      <path class="cls-6" d="M194.04,279.34c-.38,1.56-.76,3.09-1.37,4.57-2.1,5.03-4.13,10.07-5.45,15.38-.52,2.08-1.19,4.15-2.2,6.07-.27.5-.42,1.13-1.26,1.31-.19-.91-.14-1.8-.03-2.65.58-4.45,1.47-8.83,2.9-13.1,1.35-4.04,3.57-7.57,6.13-10.91.27-.36.56-.81,1.29-.67Z"/>
      <path class="cls-6" d="M188.68,316.69c-.18-.03-.43,0-.52-.1-1.56-1.81-3.65-2.13-5.86-2.1-.48,0-.96.02-1.44.03-.65-.18-1.27.03-2,.29,1.33-2.06,3.75-2.79,5.97-1.91,1.58.63,2.72,1.88,3.98,2.95.36.31.25.62-.14.84Z"/>
      <path class="cls-3" d="M197.38,295.08c.06-.33.13-.67.2-1.04.25.35,0,2.16-.31,2.31-.46.21-.82-.02-1.09-.35-.51-.61-.36-2.37.23-3.21.83-1.17,1.67-1.46,2.96-1.03-1.66.35-2.24.89-2.37,2.27-.03.34.05.7.09,1.05,0,.01.18,0,.28,0Z"/>
      <path class="cls-3" d="M195.01,299.19c-.01.68-.25.96-.44,1.25-.27.41-.56.76-.02,1.22.32.27.16.66-.11.94-.27.28-.62.35-.98.21-.39-.16-.5-.53-.46-.89.11-1.22.79-2.04,2.02-2.74Z"/>
      <path class="cls-6" d="M182.02,310.63c-.28-1.01-.08-1.71.88-2.1.37-.15.69-.18.93.19.19.29.12.57-.09.81-.44.48-.86.98-1.72,1.1Z"/>
      <path class="cls-3" d="M190.26,313.55c-.11-.08-.34-.16-.36-.27-.05-.28-.08-.6.01-.86.2-.57.64-1.27,1.2-1.02.66.3-.02.89-.18,1.33-.12.32-.24.67-.67.82Z"/>
      <path class="cls-6" d="M275.38,279.58c2.54,1.86,3.86,4.61,5.36,7.21,3.48,6.04,4.01,12.77,4.74,19.82-1.3-.7-1.64-1.65-2.04-2.52-.92-2.02-1.39-4.2-2.01-6.32-1.34-4.6-2.89-9.13-4.88-13.5-.67-1.47-1.18-2.97-1.18-4.69Z"/>
      <path class="cls-6" d="M283.18,315.18c-1.18.24-2.05,1.1-3.13,1.54-.23-.11-.78-.13-.49-.49,2-2.54,5.52-4.56,9.11-3.15.78.31,1.5.7,1.9,1.55-1.71-.24-3.36-.22-5.02-.19-.47,0-.97-.05-1.3.41-.19.02-.39.04-.58.06-.23-.03-.39.05-.49.26Z"/>
      <path class="cls-3" d="M271.03,296.21s.02.03.02.03c.66-.38,1.04-.9,1.06-1.72.04-1.89-.65-2.51-2.57-2.19-.3-.43-.01-.69.32-.82,1.07-.42,2.15-.03,2.8.96.75,1.13.85,2.84.19,3.55-.55.59-1.18.45-1.82.19Z"/>
      <path class="cls-3" d="M274.2,301.86c.6.14.8-.13.64-.67-.23-.79-.78-1.4-1.23-2.08,1.19.41,2.01,1.18,2.4,2.37.17.51.35,1.12-.29,1.42-.58.28-1.04-.07-1.37-.54-.1-.14-.09-.34-.13-.51h-.01Z"/>
      <path class="cls-3" d="M277.8,310.34c.27.72.75,1.08,1.09,1.54.25.34.42.72.31,1.15-.04.15-.18.29-.31.39-.17.14-.41.04-.46-.09-.3-.9-1.27-1.63-.63-2.99Z"/>
      <path class="cls-6" d="M287.5,309.89c-.01.47-.3.66-.71.54-.58-.16-1.1-.46-1.48-.96-.21-.27-.22-.54-.03-.82.15-.21.37-.3.62-.29.58.02,1.54.95,1.59,1.52Z"/>
      <polygon class="cls-3" points="274.21 301.84 274.16 301.81 274.2 301.86 274.21 301.84"/>
      <path class="cls-3" d="M275.04,319.06c-1.02.22-1.8,0-2.26-1.26,1.09.09,1.62.78,2.26,1.26Z"/>
      <path class="cls-2" d="M283.18,315.18c.1-.2.26-.29.49-.26-.16.09-.33.17-.49.26Z"/>
      <path class="cls-3" d="M195.73,317.2c.34,0,.48.13.53.4.2,1.02-.83,2.04-1.83,1.77-.42-.12-.45-.38-.35-.81.21-.96,1.23-.81,1.65-1.36Z"/>
      <path class="cls-3" d="M304.82,272.19c-.67-.13-1.25.12-1.84.4-1,.46-.85-.26-.82-.84.87-.46,1.79-.59,2.76-.48.14,0,.28,0,.41-.01.1,0,.2,0,.3.02.04.2.08.41.12.61l-.94.31Z"/>
      <path class="cls-4" d="M305.75,271.88c-.04-.2-.08-.41-.12-.61.25-.03.43.09.59.27.13.14.2.32.06.45-.21.21-.4.1-.54-.11Z"/>
      <path class="cls-4" d="M305.34,271.26c-.14,0-.28,0-.41.01.13-.18.27-.18.41-.01Z"/>
      <path class="cls-1" d="M171.33,274.32c-.5,0-.94-.07-1.11-.64-.16-.51-.4-1.23.15-1.42.74-.25.68.56.78,1.04.07.34.11.69.16,1.03,0,0,.03-.02.03-.02Z"/>
      <path class="cls-3" d="M297.44,272.69c.74.78.81,1.38.21,1.98-.11.11-.35.13-.46-.04-.43-.65-.06-1.2.25-1.93Z"/>
      <path class="cls-6" d="M185.52,358.86c.47-1.83,2-2.61,3.54-2.86,3.2-.53,5.84.85,8.04,3.11.51.53.75,1.22.63,1.99-2.59-2.39-5.63-3.39-9.15-3.11-1.11.09-2.07.47-3.06.86Z"/>
      <path class="cls-1" d="M213.43,336.51c-.93,2.08-1.76,3.79-2.48,5.55-1.43,3.49-2.95,6.97-2.78,10.88.01.29-.06.59-.17.86-.05.11-.28.18-.44.21-.22.04-.34-.16-.36-.32-.05-.29-.06-.6-.02-.89.71-5.15,2.09-10.08,4.67-14.63.32-.56.48-1.25,1.57-1.66Z"/>
      <path class="cls-3" d="M202.78,364.19c-.08-1.21-.73-1.93-1.9-2.2-.17-.04-.35-.1-.5-.18-.35-.19-.85-.32-.51-.89.24-.4.56-.29.92-.14.79.33,1.57.96,2.46.24.17-.08.29-.19.3-.39,0,0,.03,0,.03,0,.75,0,.92-.65,1.28-1.09.16-.19.39-.32.61-.19.23.14.21.42.12.64-.21.49-.48.96-.88,1.32-.89.79-1.59,1.71-1.93,2.87Z"/>
      <path class="cls-3" d="M206.89,356.79c.32.45.26.85.07,1.24-.18.37-.4.89-.89.64-.56-.28-.1-.73.05-1.07.13-.31.22-.69.78-.81Z"/>
      <path class="cls-3" d="M215.53,327.75q-.14,1.44-1.03,2.41c-.17-1.12.49-1.75,1.03-2.41Z"/>
      <path class="cls-3" d="M202.08,365.26c.15-.42-.16-1.13.7-1.08-.28.33.53,1.37-.7,1.08Z"/>
      <path class="cls-5" d="M182.63,361.59c.03-.1.09-.18.18-.24,0,.13-.06.21-.18.24Z"/>
      <path class="cls-6" d="M199.86,342.1c0,1.06-.58,1.94-.86,2.88-.86,2.95-2.44,5.57-4.09,8.14-.52.81-1.25,1.46-2.26,1.66-.34.07-.74.14-.95-.26-.15-.3,0-.59.2-.82,1.01-1.18,1.78-2.52,2.59-3.84,1.34-2.18,2.7-4.35,4.08-6.52.3-.48.43-1.15,1.29-1.23Z"/>
      <path class="cls-4" d="M204.6,347.94c-.02.11,0,.29-.07.33-.85.51-1.56,1.18-2.33,1.78-.16.13-.43-.08-.44-.38-.02-.95,1.16-2.23,2.12-2.3.41-.03.69.12.73.57Z"/>
      <path class="cls-4" d="M201.55,357.52c-.12.17-.19.36-.33.45-.46.29-1.34.05-1.56-.44-.25-.54-.19-1.09.35-1.42.52-.31.73.18.96.51.2.29.38.59.58.9Z"/>
      <path class="cls-4" d="M205.59,343.29c-.12.56-.91,1.05-1.29.87-.46-.21-.48-.64-.39-1.07.06-.27.13-.57.51-.59-.02.8,1.06.25,1.17.79Z"/>
      <path class="cls-4" d="M203.55,360.63c0,.2-.13.31-.3.39,0-.21.08-.35.3-.39Z"/>
      <path class="cls-2" d="M201.44,319.22c.5-.07.69-.47.82-.86.49-1.43,1.39-2.64,2-3.99.53-1.18,1.44-1.82,2.52-2.37.7,1.35,1.04,1.58,2.35,1.29.98-.22,1.98-.48,2.87-1,1.24-.72,2.43-1.49,3.98-1.48.93,0,1.37-.84,1.74-1.86,1.48,1.62,1.05,3.2.55,4.69-.65,1.93-1.6,3.65-4,3.78-1.35-.4-2.61.08-3.9.35-.54-.61-.64-.17-.73.3-.09.04-.18.07-.27.11-.66-.21-1.14.24-1.66.5-1.71.85-3.4,1.74-5.12,2.58-.37.18-.81.67-1.24.05.14-.69.18-1.39.08-2.09Z"/>
      <path class="cls-1" d="M210.37,317.76c1.29-.27,2.55-.75,3.9-.35-.06.82-.73.93-1.3.96-2.07.11-3.78,1.07-5.44,2.17-1.25.84-2.55,1.57-4,2-.27.08-.55.24-.99-.24,2.29-.68,4.06-2.1,5.96-3.31.35-.22.79-.34.87-.83.09-.04.18-.07.27-.11.31.05.58.02.73-.3Z"/>
      <path class="cls-3" d="M201.44,319.22c.1.7.07,1.4-.08,2.09-.58,1.46-1.13,2.94-2.71,3.68-.28-.56.04-1.01.34-1.31,1.22-1.23,1.56-2.75,1.67-4.39.01-.21-.05-.56.28-.52.18.02.34.3.51.46Z"/>
      <path class="cls-1" d="M164.21,379.68c-.01-.38-.03-.76-.05-1.14,1.36-1.79,3.25-2.51,5.42-2.63.1.69.95.32,1.31,1-2.43.53-4.52,1.72-6.67,2.78,0,0-.02-.02-.02-.02Z"/>
      <path class="cls-1" d="M164.22,379.7c-.08.15-.32.34-.36.25-.19-.41.22-.18.35-.27,0,0,.02.02.02.02Z"/>
      <path class="cls-6" d="M269.48,360.69c.77-.03,1.33-.44,1.84-.98.66-.68,1.41-1.28,2.13-1.9,1.91-1.65,4.13-2.03,6.51-1.91,1.24.06,2.52,1.23,2.86,2.54-4.44-1.47-8.11.21-11.55,2.82-.47.36-.9.77-1.35,1.16-.36-.16-.41-.46-.4-.8.11-.32.04-.63-.05-.93Z"/>
      <path class="cls-1" d="M261.62,354.11c-.87-3.28-1.3-6.62-2.46-9.84-1.14-3.16-2.84-6.06-4.1-9.32,3,2.61,7.69,14.19,6.56,19.16Z"/>
      <path class="cls-3" d="M269.48,360.69c.09.31.16.62.05.93-.06.01-.12.02-.18.04q-2.68.64-2.32,3.19c-.09.34-.16.7-.3,1.02-.05.13-.27.26-.42.26-.34.01-.38-.31-.32-.51.55-2.17-.55-3.62-2.02-5-1.66-1.55-1.67-1.73-1.47-3.51.84.47,1,1.32,1.36,2,.45.82.89,1.58,1.99,1.54.49.64,1.06.81,1.82.45.56-.26,1.12-.67,1.81-.42Z"/>
      <path class="cls-2" d="M267.03,364.85q-.37-2.55,2.32-3.19c.06-.01.12-.02.18-.04,0,.34.05.64.4.8-.83.97-1.6,2.01-2.89,2.42Z"/>
      <path class="cls-3" d="M254.2,330c-.61-.9-1.04-1.44-.85-2.26q.94.59.85,2.26Z"/>
      <path class="cls-6" d="M278.23,354.56c-1.93.7-3.06-.03-3.91-1.35-1.49-2.31-2.96-4.63-3.76-7.3-.39-1.29-.87-2.55-1.33-3.88.81-.04.82.56,1.04.91,1.93,3.22,3.76,6.51,6,9.54.53.72,1.2,1.29,1.97,2.06Z"/>
      <path class="cls-4" d="M267.11,350.11c-.76-.47-1.17-1.39-2.12-1.56-.36-.06-.61-.42-.38-.83.19-.34.53-.5.92-.41.63.14.96.68,1.35,1.13.4.46.7.96.23,1.68Z"/>
      <path class="cls-3" d="M267.49,357.59c.03-.41,1.05-1.56,1.37-1.49.41.09.49.47.5.82,0,.71-.53,1.18-1.26,1.16-.36,0-.62-.22-.6-.49Z"/>
      <path class="cls-4" d="M263.37,342.96c.57.06.84.14,1.11.11.29-.03.59-.17.68.25.08.39-.1.68-.44.87-.35.19-.53-.05-.7-.31-.16-.24-.34-.47-.66-.92Z"/>
      <path class="cls-2" d="M253.64,317.5c-.73-.86-1.65-1.54-2.24-2.53-.93-1.57-1.28-3.23-.91-5,.19-.95.64-1.06,1.34-.39.71.68,1.45,1.17,2.46,1.35.68.12,1.35.51,1.93.93,1.17.83,2.53,1.07,3.85,1.43.64.17,1.28-.01,1.69-.41.84-.81,1.37-.39,1.91.28,1.14,1.41,2.06,2.92,2.7,4.63.32.86.31,1.91,1.19,2.51.13.44.25.87.38,1.31-.46.54-1.11.33-1.69.42-.1-.01-.2-.03-.3-.06-.97-1.97-2.75-2.59-4.76-2.81-1.37-.77-2.72-1.58-4.31-1.83-.11-.18-.24-.21-.38-.04-.97-.09-1.92.07-2.87.21Z"/>
      <path class="cls-1" d="M253.64,317.5c.95-.14,1.9-.3,2.87-.21.13.01.26.03.38.04,1.59.25,2.94,1.06,4.31,1.83,1.22,1.55,2.89,2.34,4.76,2.81.1.03.2.05.3.06-.63.6-1.31.39-1.98.09-.86-.4-1.7-.84-2.47-1.4-2.26-1.64-4.75-2.65-7.59-2.68-.34,0-.77.05-.58-.54Z"/>
      <path class="cls-1" d="M267.95,321.61c-.13-.44-.25-.87-.38-1.31.23-.53-.04-1.19.57-1.79.61,1.17.57,2.42.85,3.57.28,1.18,1.68,1.65,1.82,3.01-1.57-.77-2.41-1.97-2.86-3.48Z"/>
      <path class="cls-2" d="M284.24,366.04c-.11-.13-.21-.25-.32-.38.21.04.32.17.32.38Z"/>
      <path class="cls-2" d="M290.64,386.96c-1.45-1.83-2.28-3.96-3.54-5.84-1.24-1.84-3.33-2.83-4.6-4.81,3.75.28,8.4,6.47,8.14,10.65Z"/>
      <path class="cls-2" d="M309.19,379.69c.13.11.3.19.4.33.14.18.3.43-.02.56-.18.07-.26-.17-.3-.34-.04-.17-.07-.34-.11-.51,0,0,.04-.03.04-.03Z"/>
      <path class="cls-1" d="M274.2,372.79c0,.26,0,.53,0,.79-.18-.14-.35-.28-.53-.42.17-.12.35-.24.52-.37Z"/>
      <path class="cls-6" d="M333.75,297.86c2.2-.22,2.54.04,3.32,2.03,1.37,3.5,2.59,7.05,3.82,10.59.36,1.02.57,2.09.8,3.11.52,2.31,1.12,4.64,1.07,7.05,0,.42-.06.83-.53,1.24-.12-.63-.24-1.18-.32-1.73-.66-4.51-1.6-8.94-3.42-13.15-.19-.43-.22-.93-.4-1.37-.65-1.6-1.18-3.3-2.66-4.37-1.19-.86-1.61-2.03-1.7-3.4,0,0,0,0,0,0Z"/>
      <path class="cls-4" d="M331.4,293.39c.9.62,1.29,1.68,2.07,2.41.09.68.18,1.37.28,2.05,0,0,0,0,0,0-1.33.93-1.47.93-2.67.11-.67-.47-1.35-.93-2.06-1.43.57-.48,1.05-.33,1.52-.02.3.2.58.43.88.62.31.2.69.33.98.03.29-.29.15-.69,0-1.01-.56-1.19-1.77-1.27-2.82-1.66-.95-.35-1.82-1.07-2.89-.25-.62.48-.72-.13-.71-.52.03-1.4,1.96-2.42,3.25-1.72.47.25.75.78,1.33.87,0,0,0,0,0,0,.19.35.49.49.87.51Z"/>
      <path class="cls-4" d="M332.11,301.52c.18,1.32-.21,1.62-1.46,1.13-1.08-.42-1.8-1.53-1.7-2.65.09-.99.96-1.43,1.76-.85.8.58,1.31,1.36,1.4,2.37Z"/>
      <path class="cls-3" d="M322.34,297.89c-.61.1-.72-.54-1.11-.77-.54-.32-1.03-.96-1.66-.15-.55.7-.45,1.62.25,2.18.18.15.42.23.6.38.22.18.54.37.27.71-.22.28-.54.16-.81.03-1.08-.52-1.67-1.98-1.33-3.37.08-.34.26-.66.39-.99,1.72-.61,2.63-.08,3.4,1.98Z"/>
      <path class="cls-4" d="M326.64,285.29c1.68.71,1.9,1.04,1.84,2.78-.68-.1-.53-.9-.99-1.12-.35-.16-.59-.69-1.07-.44-.47.24-.34.7-.26,1.11-.27.25-.54.47-.89.13-.37-.37-.42-.81-.25-1.28.27-.75.92-.99,1.61-1.18Z"/>
      <path class="cls-4" d="M335.39,303.58c.45.01.78.27,1,.64.25.42.34.9.13,1.37-.07.17-.27.26-.45.13-.6-.44-1.01-1.02-1.02-1.79,0-.17.09-.35.33-.35Z"/>
      <path class="cls-4" d="M336.72,308.8c1.29.55,1.47,1.27,1.25,2.16-.06.23-.25.4-.5.44-.32.04-.4-.21-.44-.43-.11-.64-.18-1.28-.31-2.17Z"/>
      <path class="cls-4" d="M336.99,312.36c.08,0,.18,0,.2.03.21.39.92.47.71,1.1-.04.11-.33.24-.44.2-.65-.25-.53-.8-.47-1.32Z"/>
      <path class="cls-6" d="M318.18,283.03c.13.09.26.19.39.28.05.2.11.41.16.61-3.03.41-5.82,1.32-7.97,3.65-.69-1.55.18-2.56,1.41-3.55-1.65-1.6-3.22-3.13-4.78-4.66-.38-.38-.74-.77-1.12-1.16-.19-.2-.25-.41-.04-.62.18-.19.49-.31.63-.11.67.97,1.84,1.28,2.63,2.1,1.21,1.27,2.69,2.22,4.26,2.95,1.38.64,2.94.39,4.42.52Z"/>
      <path class="cls-3" d="M310.27,288.41c.16-.23.34-.43.64-.48.09,1.5-.62,2.82-.91,4.25-.76-1.33.13-2.52.27-3.77Z"/>
      <path class="cls-3" d="M310.9,287.95c.02-.11.04-.23.06-.34.03.09.06.17.07.26,0,.02-.09.06-.13.08Z"/>
      <path class="cls-2" d="M314.73,300.44c.53,2.21,1.95,3.74,2.92,5.62-1.51-.84-3.05-1.64-4.52-2.54-.79-.49-.8-1.14-.12-1.75.47-.43,1.01-.78,1.72-1.32Z"/>
      <path class="cls-2" d="M331.4,293.39c-.38-.02-.69-.17-.87-.51.46-.11.72.11.87.51Z"/>
      <path class="cls-6" d="M135.24,298.34c.04,1.29-.48,2.42-1.44,3.17-1.73,1.35-2.51,3.25-3,5.2-.73,2.9-1.67,5.73-2.54,8.59-.54,1.76-.6,3.54-.85,5.31-.11.82-.19,1.64-.29,2.6-.77-.64-.63-1.32-.58-1.95.38-5.16,1.34-10.19,3.09-15.07.75-2.08,1.3-4.21,2.07-6.29.4-1.08.87-1.6,1.92-1.75.47-.07.89-.38,1.39-.31.08.17.15.34.23.51Z"/>
      <path class="cls-4" d="M135.24,298.34c-.08-.17-.15-.34-.23-.51.14-.6.46-1.15.43-1.79.63-1.31,1.64-2.24,2.93-2.89.53-.04.77-.53,1.18-.77.54-.33,1.11-.39,1.7-.1.22.11.41.25.42.52,0,.34-.16.58-.52.58-1.22.02-2.06.98-3.19,1.32-1.13.34-1.73,1.69-2.13,3.1,1.39.03,2.23-1.23,3.56-1.21-1.19,1.82-2.51,2.34-4.14,1.74Z"/>
      <path class="cls-4" d="M138.08,302.55c-.12.48-.3.99-.91.83-.55-.14-.62-.67-.56-1.16.12-1.16.58-2.16,1.53-2.88.34-.26.73-.43,1.16-.21.41.21.55.6.52,1.04-.04.52.01,1.08-.42,1.49-.78-.49-.9-.41-1.31.88Z"/>
      <path class="cls-4" d="M140.02,288.56c-.27-1.84.31-2.71,2.06-3.06,1.72.72,1.88,1.6.5,2.91-.41-.13-.26-.46-.24-.72.02-.42.1-.89-.45-1-.46-.1-.74.25-1.04.56-.36.39-.32,1.03-.84,1.32Z"/>
      <path class="cls-3" d="M149.32,295.39c1.14.97,1.09,2.23.65,3.45-.28.78-.71,1.68-1.99,1.5.14-.58.59-.78.92-1.06.45-.38.59-.87.6-1.43.02-1.18-.57-1.62-1.7-1.24-.28.09-.53.27-.79.4.21-1.34,1.31-1.41,2.31-1.63Z"/>
      <path class="cls-4" d="M132.04,312.3c-1.13-.64-1.25-1.51-1.09-2.42.07-.4.36-.78.89-.7.53.07.69.41.63.9-.09.69-.03,1.42-.43,2.23Z"/>
      <path class="cls-4" d="M133.83,304.64c-.12.32-.26.7-.4,1.08-.13.33-.29.77-.68.68-.48-.11-.51-.6-.4-1.02.12-.45.34-.88.7-1.19.12-.1.31-.18.46-.17.32.03.27.32.31.62Z"/>
      <path class="cls-4" d="M132.34,312.98c.18.42.12.64.02.86-.15.35-.42.58-.81.58-.13,0-.36-.16-.38-.27-.07-.39.2-.66.48-.88.18-.13.42-.18.69-.29Z"/>
      <path class="cls-1" d="M138.08,302.55c.41-1.29.53-1.37,1.31-.88-.25.58-.55,1.07-1.31.88Z"/>
      <path class="cls-4" d="M142.45,294.44c-.69-.28-.54-.81-.38-1.3.05-.16.34-.21.44-.09.37.47.31.94-.06,1.39Z"/>
      <path class="cls-3" d="M147.03,297c-.16.23-.39.27-.65.23.15-.25.36-.36.65-.23Z"/>
      <path class="cls-3" d="M157.59,287.33c.09.03.19.07.28.1.09.14.18.27.27.41.27.86.58,1.7.79,2.57.16.69.39,1.4.04,2.23-.9-1.59-1.1-3.34-1.7-4.94-.06-.16.13-.31.31-.37Z"/>
      <path class="cls-2" d="M150.7,306.49c0-.49.04-.98.39-1.35.65-.7,1.45-1.27,1.87-2.16.4-.85.76-1.71,1.16-2.61.93.24,1.46.94,2.08,1.46.59.49.54,1.19-.13,1.47-1.94.83-3.42,2.42-5.38,3.19h0Z"/>
      <path class="cls-2" d="M150.7,306.49c-.05.04-.11.09-.16.13.01-.03.01-.08.03-.09.04-.02.08-.02.13-.03,0,0,0,0,0,0Z"/>
      <path class="cls-4" d="M210.37,317.76c-.15.32-.42.35-.73.3.09-.47.19-.91.73-.3Z"/>
      <path class="cls-4" d="M265.96,321.96c-1.87-.46-3.53-1.26-4.76-2.81,2.01.21,3.79.83,4.76,2.81Z"/>
      <path class="cls-4" d="M256.89,317.33c-.13-.01-.26-.03-.38-.04.15-.17.27-.14.38.04Z"/>
    </g>
  </g>
</svg>