<?xml version="1.0" encoding="UTF-8"?>
<svg id="Robot_Completo" data-name="Robot Completo" xmlns="http://www.w3.org/2000/svg" viewBox="0 0 431.88 432.95">
  <defs>
    <style>
      .cls-1 {
        fill: #959d9d;
      }

      .cls-1, .cls-2, .cls-3, .cls-4, .cls-5, .cls-6, .cls-7, .cls-8, .cls-9, .cls-10, .cls-11, .cls-12, .cls-13 {
        stroke-width: 0px;
      }

      .cls-2 {
        fill: #1a1c1f;
      }

      .cls-3 {
        fill: #275671;
      }

      .cls-4 {
        fill: #b6bebe;
      }

      .cls-5 {
        fill: #5e97b4;
      }

      .cls-6 {
        fill: #5c6569;
      }

      .cls-7 {
        fill: #2d4255;
      }

      .cls-8 {
        fill: #dce0df;
      }

      .cls-9 {
        fill: #3f3e3f;
      }

      .cls-10 {
        fill: #6f7879;
      }

      .cls-11 {
        fill: #fdfcfa;
      }

      .cls-12 {
        fill: #555a5a;
      }

      .cls-13 {
        fill: #292d2f;
      }
    </style>
  </defs>
  <g id="Legs">
    <g id="L2">
      <path class="cls-2" d="M212.48,293.3q2.14.04,2.24,1.93c.2,3.96-.42,7.85-1,11.74-.69,4.67-.16,9.22,1.12,13.72.21.74.45,1.48.58,2.23.22,1.32.74,2.43,1.65,3.46,3.03,3.43,2.4,10.78-1.13,14.45-6.51,6.75-11.51,14.61-15.55,23.06-.93,1.94-.67,2.5,1.37,3.18,1.4.46,2.86.61,4.33.49,1.08-.08,2.15-.16,3.23-.26.52-.05,1.12-.32,1.5.22.41.57.24,1.18-.15,1.72-.5.68-.93,1.45-1.54,2.01-3.55,3.18-7.56,5.31-12.5,4.96-1.05-.07-1.49.21-1.83,1.19-.6,1.7-1.18,3.28-.09,5.05.41.67.37,1.64.48,2.48.39,3.01,2.82,4.44,5.69,3.44,9.92-3.47,15.66,4.3,15.88,11.54.02.53.05,1.12-.49,1.46-.67.42-1.19-.05-1.67-.41-1.04-.8-2.02-1.66-3.22-2.24-2.37-1.14-4.62-1.4-6.91.31-2.46,1.83-5.18,1.71-7.54.01-3.05-2.19-5.84-.98-8.72.08-.33.12-.63.46-.82.78-1.09,1.81-2.62,3.23-4.15,4.64-1.18,1.08-1.83,2.44-2.28,3.94-.6,1.98-1.09,4.01-2.55,5.62-.95,1.05-1.98,1.98-3.38,2.3-1.25.28-1.97,1.08-2.6,2.1-1.75,2.81-2.34,6-3.02,9.16-.17.79.1,1.9-.96,2.11-1,.2-1.71-.64-2.26-1.38-2.03-2.73-3.14-5.82-3.31-9.21-.11-2.15-.05-4.32-.06-6.47.67-2.57,1.55-5.09,1.75-7.88-1.48.38-2.78,1.11-3.73,2.14-1.33,1.45-2.95,2.4-4.59,3.37-2.17.69-4.37.92-6.58.19-.78-.26-1.34.1-1.96.4-3.67,1.8-6.12,4.85-8.33,8.15-.17.26-.32.53-.46.8-.39.78-.87,1.62-1.84,1.45-.92-.16-1.29-1.08-1.45-1.93-.9-4.68-.52-9.2,1.81-13.46.84-1.54,1.83-2.97,3.41-4.41-3.3-.28-5.84.49-8.14,2.19-1.82,1.35-3.23,3.08-4.57,4.88-.37.49-.76,1.06-1.5.82-.67-.22-.84-.79-.89-1.46-.6-8.12,4.41-15.55,10.85-17.61,1.03-.33,2.04-.68,3.12-.77.38-.03.86.03,1.13-.17,1.98-1.5,4.08-.87,6.19-.45,3.56.7,7.14,1.41,10.71.13,1.59-.56,3.2-1.12,4.68-1.9,2.1-1.11,4.1-2.41,6.13-3.66.57-.35,1.22-.66,1.24-1.53.05-1.98,1.17-3.53,2.41-4.88,8.5-9.26,14.05-20.16,18.02-31.96.2-.58.4-1.16.65-1.73,1.08-2.47,1.6-4.88.1-7.45-.78-1.34-.93-2.98-.61-4.51.22-1.06-.16-1.77-.73-2.53-1.62-2.17-3.35-4.24-5.26-6.15-7.42-7.43-12.83-16.11-16.43-25.95-1.04-2.83-1.79-5.73-2.34-8.68-.13-.71-.56-1.63.23-2.14.85-.54,1.6.06,2.25.66-.02.23-.1.47-.06.68,2.14,10.54,6.76,19.91,13.47,28.27,1.01,1.25,2.24,2.37,3.73,3,2.52,1.06,4.81.45,6.82-1.35.19.36.53.46.9.49-.54.9-1.32,1.52-2.32,1.84-.78.03-1.62-.26-2.28.42-.63.28-1.24.08-1.86-.05-.35-.37-.68-.49-.93.1,2.63,3.06,5.6,5.87,7.29,9.65.15.33.42.65.72.88,3.62,2.8,8.45,1.03,9.36-3.43,1.61-.89,2.29-2.72,3.81-3.72.2-.13.12-.7.17-1.07.29,0,.58,0,.87,0,1.01.96,2.2.24,3.31.37.6,0,1.09.53,1.72.37.27-.48.07-.92-.06-1.35-.98-3.39-1.84-6.8-1.7-10.38.01-.38-.01-.77-.44-.96-.02-.37-.04-.73-.06-1.1.16-.34.42-.68.46-1.03.5-5.01,1.69-9.95,1.49-15.02ZM208.26,341.02c.12,0,.33.04.33.02.1-.34-.11-.48-.4-.56l-.78-.14c-1.27-1.46-2.3-3.02-2.75-4.96-.42-1.8.12-3.7-.49-5.67-1.58,2.24-2.39,4.35-1.36,6.83.84,2.03,2.23,3.43,4.36,4.06.29.33.7.31,1.08.41ZM208.27,325.21c.15,0,.3.01.43-.02.19-.05.38-.14.56-.22-.11-.26-.35-.27-.55-.19-.19.08-.34.24-.51.37-.16.15-.31.3-.47.45-1,.1-1.48.84-2.02,1.5.31.55,1.04.41,1.2.99-.26,1.03-1.19,1.81-1.08,2.97-.2.16-.31.34-.16.59-.19.45-.16.9-.02,1.35-.14,1.33-.02,2.57,1.09,3.51.05,1.76,1.14,2.94,2.61,3.38,1.77.52,3.59.49,5.11-1.11,1.93-2.04,2.25-4.44,2.13-7.05-.22-4.86-4.08-7.17-8.48-5.07-.1,0-.2,0-.29.03,0-.34-.02-.69-.03-1.03l.45-.46ZM141.55,412.22l-.02.04c.45-.18.85-.4.95-.94h0c2.53-1.57,5.02-3.23,8.05-3.71,1.02-.16,1.16-1.12,1.62-1.79.03-.33.05-.65.08-.98-.04-.65-.07-1.3-.11-1.95-.03-1.37-.81-2.31-1.81-3.13-.77-.82-1.59-.62-2.5-.21-2.99,1.36-5.47,3.31-7.24,6.12-1.7,2.2-2.64,4.68-2.8,7.46-.52,1.17-.26,2.36,0,3.57.41-1.12.83-2.25,1.24-3.37.08-.04.15-.1.19-.18.63-.11,1.5.84,1.86-.44.25-.08.42-.25.49-.5ZM194.82,334.43c0-.07,0-.15,0-.22.01-1.1-.6-1.85-1.62-1.6-1.16.28-.19,1.21-.22,1.85,0,.79.33,1.48.64,2.18.16.36.41.69.87.52.36-.13.71-.36.8-.75.17-.72-.22-1.33-.47-1.97ZM199.82,373.7c2.04-.56,4.13-1,5.68-2.62.5-.39,1.2-.56,1.52-1.17-.14-.14-.2-.23-.25-.23-2.89.03-5.81.29-8.4-1.48-.18-.13-.32.23-.36.45-.56.5-.62,1.25-.95,1.86-.42.96-.84,1.93-1.26,2.89,1.28.9,2.67.35,4.03.3ZM131.39,397.22l-.1.11c-.96.87-1.54,1.97-1.94,3.18-.66,1-1,2.05-.73,3.52.6-.64,1-1.07,1.4-1.5.8-.05,1.3-.56,1.76-1.14,1.52-1.22,3.26-1.88,5.17-2.26,1.45-.28,2.88-.33,4.33-.26,1.08.05,1.54-.44,1.62-1.43.64-.66.42-1.42.25-2.17-.06-.13-.07-.27,0-.4.11-.29,0-.51-.22-.7-1.11-2.73-1.1-2.71-4.06-1.95-3.09.8-5.65,2.36-7.5,5h.03ZM167.83,422.49c.53-.79,1.05-1.59,1.07-2.59,1.1-1.74,2.1-3.56,3.33-5.2.86-1.14,1.5-2.29,1.59-3.71.04-.93-.16-1.78-.84-2.47-.23-.8-.73-1.44-1.26-2.06-.74-.84-1.55-1.06-2.48-.28-2.16,1.8-3.26,4.16-3.69,6.88-.18.15-.3.32-.16.56-.53,2.64-.47,5.26.27,7.85.27,1.49.7,2.93,1.75,4.48.17-1.38.29-2.42.42-3.46ZM178.6,395.04c.3.03.6.06.89.09.78.44,1.56.89,2.34,1.33.57,1.3,1.45,2.45,1.47,4.1,2.59-2.05,2.96-5.32,1.27-8.71-1.29-2.25-1.77-2.45-4.58-1.83-1.27.48-1.45,1.74-2.01,2.74-.55.62-.89,1.33-.93,2.17.52.24,1.04.19,1.55.12ZM180.88,398.8c-.12-1.39-1.18-1.65-2.26-1.9-.75-.57-1.5-.4-2.05.22-.91,1-1.71,2.1-2.77,3.41,1.71-.02,2.89.55,3.84,1.57l.48.46c-.01.59-.33.87-.9.88-.17,0-.34.01-.51.02-1.83-2.14-3.99-2.26-6.37-1.04-.34.17-.65.39-.98.59-.97.65-1.92,1.31-2.35,2.76.99-.55,1.41-1.39,2.3-1.55.78-.23,1.56-.1,2.34.03,1.1.63,2.02,1.45,2.73,2.5.72,1.97,1.27,3.98,1.02,6.24,2.08-1.52,2.58-2.3,2.74-4.37.07-.83.27-1.66.3-2.47.04-.98.67-1.05,1.3-1.27.7-.91,1.31-1.87,1.82-2.91.8-1.62.82-1.78-.68-3.16ZM203.36,340.4c-1.42-1.62-2.92-3.06-5.34-2.7-2.13.03-3.08,1.37-3.63,3.22-1.67,5.6-3.65,11.1-6.19,16.37-3,6.24-6.23,12.37-10.79,17.67-1.7,1.98-3.37,3.99-4.78,6.2-.09,1,.4,1.37,1.36,1.36,3.86-.05,7.13,1.48,10.12,3.86.22-3.09,1.65-5.39,4.24-6.98.79-.04,1.57-.08,2.36-.12.43.17,1.06.85,1.19-.15.15-1.16.46-2.26.81-3.35,1.9-5.95,4.35-11.67,7.45-17.1,2.97-5.22,5.92-10.45,9.94-14.97.54-.39.45-.9-.14-.86-1.88.13-3.55-.37-5.13-1.32-.48-.29-.84.14-1.22.33.13-.52.28-1.04-.24-1.45ZM213.41,395.05c-.45-.65-.7-1.44-1.41-1.9-1.81-2.55-4.31-3.39-7.54-3.07.4.84.72,1.51,1.04,2.18.15.64.3,1.29.45,1.93-.14.89.29,1.28,1.13,1.31,1.14.04,2.29.07,3.43.11,1.4.3,2.32,1.53,3.72,2.09.11-1.17-.15-1.98-.83-2.66ZM162.8,392.28c.06-.95.1-2.19-1.26-1.74-2.44.82-4.97,1.22-7.44,1.69-.12.8.41,1.26.49,1.85-.23,1.2.23,1.7,1.48,1.55,2.21-.27,4.26-1.05,6.35-1.75,1.07-.36.63-.99.37-1.61ZM199,393.7l-.12-.08c-.71.07-1.21-.36-1.72-.75.76-.72.74-1.42-.12-2.02-.81-.57-1.64-1.12-2.49-1.62-.7-.41-.96-.02-.99.66-.35,1.33-.72,2.66-1.05,4-.17.69.02,1.18.86,1.27,1.52.17,2.93.91,4.48.93,1.24,1.45,2.94,1.86,4.64,1.12,1.42-.62,1.68-1.15,1.49-3.09.36-1.22-.48-2.01-1.1-2.84-.48-.64-1.12-1.03-1.98-.7-.76.3-1.64.41-1.6,1.58.02.51-.2,1.03-.31,1.55ZM158.64,397.41c-.44.03-.79.19-.94.64-2.24-.41-4.48-.53-6.9-.02,1.78,1.1,2.4,2.88,3.2,4.56.17,2.1-.72,3.83-1.89,5.46-.15.23-.72.46,0,.69,2.16-.02,3.96-1.04,5.7-2.14,1.83-1.16,2.43-3.41,1.55-5.28h.17s-.06-.17-.06-.17c.87-.69,1.16-.63,1.45.31q.64,2.01,2.49,1.21c.49-.21,1-.39,1.5-.6,4.41-1.84,3.94-1.27,2.88-5.77-.03-.12-.22-.2-.33-.29-.78-.59-1.58-1.74-2.53-1.28-2.05,1.01-4.36,1.38-6.28,2.66ZM153.07,395.04c-.11-2.56-.13-2.57-2.45-2.82-.45-.05-.9-.2-1.35-.24-1.8-.16-3.54-.9-5.49-.67.06,1.1.84,1.82,1.18,2.72-.04.84-.14,1.69-.12,2.53.02.86-.65,1.49-.94,2.5,1.59-.56,2.92-1.03,3.86-2.05.64-.7,1.34-.86,2.17-1.08,1.05-.28,2.33.21,3.14-.87ZM167.41,393.78c.64.74,1.28,1.48,1.92,2.22.2,1.35.39,2.7.6,4.09.33-.04.57-.01.76-.11,2.8-1.37,5.69-6.45,5.47-9.62,0-.13-.15-.26-.24-.38-.24-2.87-.94-3.35-3.46-2.39-2.33,1.29-4.05,3.29-5.81,5.2-.9.97.34.77.76.98ZM190.59,381.27c-2.87.1-3.96.85-4.59,3.17-.65.85-.37,1.73-.09,2.62.69,2.17,2.05,2.96,4.23,2.45.88-.21,1.5-.69,1.94-1.49,1.36-2.48.68-5.66-1.48-6.74ZM186.15,390.83c.79,1.72.77,3,.84,4.29.07,1.29.81,1.72,1.98,1.22,1.61-.69,2.74-3.23,2.3-5.16-1.51.29-3.01.28-5.11-.35ZM177.87,389.56c1.5-1.82,3.21-2.15,5.29-1.61-2.02-2.19-6.46-3.72-9.21-3.08,2.44.68,3.25,2.45,3.92,4.7ZM165,391.69c2.2-1.94,4.29-3.68,6.41-6.02-3.35.27-5.35,2.47-7.87,3.54.22.96.92,1.51,1.46,2.48ZM196.09,333.54c.28,2.12.29,2.28.92,2.24,1.6-.09,3.1.34,4.69.88q-.44-3.14-3.08-3.12c-.77,0-1.53,0-2.53,0Z"/>
      <path class="cls-2" d="M280.11,408.99c.22,2.6-.17,5.06-1.55,7.32-.62,1.02-.5,2.24-.68,3.36-.65,4.06-2,7.89-3.59,11.66-.18.42-.43.82-.74,1.15-.57.61-1.22.64-1.77-.04-.28-.35-.48-.78-.65-1.2-1.49-3.55-2.92-7.12-3.98-10.82-.43-1.49-.96-2.86-1.98-4.1-2.2-2.67-2.12-5.82-1.46-9,.28-1.34.96-2.62.5-4.33-2.84,1.55-5.73,2.77-7.39,5.83-1.78,3.3-4.51,5.29-8.46,4.8-1.52-.19-2.45.43-3.3,1.54-1.42,1.84-2.61,3.8-3.5,5.95-.29.71-.57,1.43-.89,2.13-.65,1.42-1.01,1.44-2.07.22-.42-.48-.68-1.02-.88-1.61-2.25-6.49-1.45-12.58,2.41-18.25.91-1.34,2.02-2.53,2.97-3.84,1.37-1.89,3.24-3.01,5.52-2.81,3.1.27,5.14-1.02,6.6-3.59.26-.46.62-.89.99-1.28.94-1.03,1.2-2.03.86-3.52-.54-2.35-.24-4.76,1.29-6.83.27-.37.6-.73.78-1.14.35-.81.37-1.5-.8-1.65-1.62-.2-2.81-1.18-3.92-2.28-1.62-1.61-2.61-3.63-3.41-5.71-.52-1.37.26-2.09,1.69-1.73.52.13.99.4,1.51.56.66.2,1.33.48,2,.51,2.16.11,2.71-.58,2.33-2.73-1.1-6.22-2.31-12.4-4.56-18.34-.45-1.2-1.03-2.13-2.37-2.58-1.38-.46-2.23-1.67-2.78-2.96-1.59-3.75-2.58-7.59-1.05-11.62.3-.78-.14-1.35-.41-1.94-1.24-2.68-3.13-4.94-5.01-7.18-3.28-3.89-6.35-7.94-8.88-12.37-2.14-3.75-3.98-7.64-5.52-11.68-.35-.93-.53-1.93-.86-2.87-.37-1.06.22-1.39,1.07-1.59,1.14.11,1.17,1.12,1.42,1.86,2.06,6.18,5.14,11.85,8.73,17.25,1.41,2.11,2.78,4.26,4.61,6.06.72.71,1.48,1.48,2.56.5,0,0,.19.02.19.02l.19-.04c.34.21.38.56.4.91q-1.13,1.29-.13,2.53c1.55,1.91,2.91,3.95,4.08,6.11.48.88.82,1.8,1.62,2.44,1.5,2.04,3.65,2.99,6.05,3.21,2.09.19,4.29.42,6.03-1.28,3.17-1.51,4.64-4.01,4.61-7.53-.03-3.55,1.01-6.94,1.81-10.35.02-.37.05-.74.07-1.11.05-.08.1-.17.15-.25-.08.05-.16.1-.25.15-.52.28-.86.7-.93,1.3-.46.68-.68,1.65-1.82,1.54,0,0-.05-.02-.05-.02-.14-.31-.28-.62-.42-.92,2.81-2.47,4.04-5.79,4.54-9.32.94-6.52.84-13.06-.24-19.58-.33-1.97-.44-3.98-1.16-5.87.28-.26.52-.59.84-.77.85-.49,1.39-.31,1.69.73.57,2.01.97,4.05,1.25,6.1.8,5.99.68,12,.39,18.02-.23,4.8-1.28,9.45-2.43,14.1-.32,1.27-.56,2.56-.77,3.85-.3,1.82-.52,3.46,1.21,5,1.31,1.16,1.23,3.26,1.55,4.98.37,1.97.37,3.98.13,5.99-.14,1.19-.49,2.31-1.34,3.13-.82.79-.98,1.64-.89,2.71.84,10.24,2.3,20.36,5.34,30.21.4,1.29.89,2.44,1.95,3.32,2.33,1.92,3.13,4.54,3.15,7.4,0,1.35.41,2.31,1.36,3.23,1.27,1.23,2.41,2.6,3.6,3.91,2.25,2.49,5.3,3.35,8.41,3.89,2.61.46,4.85,1.34,6.54,3.47.57.71,1.4,1.21,2.03,1.88,4.82,5.13,5.95,13.53,2.64,20.54-.13.27-.32.53-.54.74-.96.97-1.7.83-2.22-.46-.46-1.14-.87-2.3-1.24-3.48-.74-2.35-2.18-4.2-3.94-5.88-.79-.75-1.53-1.07-2.68-.81-2.81.62-5.09-.55-7.16-2.36-1.4-1.21-2.17-3.01-3.85-3.94-2.32-1.89-5.6-3.51-7.08-3.44.83,1.57,1.34,3.24,1.94,4.87ZM273.12,404.85c.77.67,1.54,1.35,2.31,2.02.38,1,.74,2,1.15,2.99.38.91.2,2.05,1.16,3.03.23-3.17,0-5.92-2.25-8.11-.41-.55-.46-1.44-1.44-1.42-.01-.5-.05-1.01.48-1.32.59-.23.48-.74.37-1.14-.48-1.64-1.26-3.05-3.08-3.55-1.42-.89-2.71-.21-3.47.81-1.11,1.5-1.9,3.28-.81,5.23,0,.32,0,.65.01.97-.43,1.07-.87,2.13-1.28,3.21-.88,2.31-.83,3.25.31,5.82.47-3.51,1.14-6.83,4.72-8.48.6-.01,1.21-.03,1.81-.04ZM259.65,385.39c-.1.91-.2,1.82-.29,2.74-.07.62-.21,1.3.68,1.42.83.11,1.08-.4,1.03-1.13-.07-1,.34-1.97.1-2.97-.09-.79.08-1.64-.44-2.43-1.25.53-1.15,1.45-1.08,2.36ZM273.1,407.19c-.47-.66-1.12-.6-1.79-.45-.79.1-1.02.82-1.45,1.3-.81,1.02-1.36,2.17-1.76,3.4-.24,4.55,1.45,8.66,2.94,12.81.01.04.14.03.22.05v-.03c-.14.69-.14,1.35.45,1.87-.1.92.3,1.67.86,2.35l.05.07c.29.34.41.21.44-.16.24-.81.46-1.62.71-2.43,1.04-3.3,1.64-6.68,1.98-10.11.08-1.06.18-2.12-.34-3.12-.14-2.11-.65-4.07-2.31-5.54ZM273.8,396.71c.18.16.25.63.57.38.23-.18.09-.53-.18-.74-.22-1.96-.55-3.86-2.42-5.03-.53-.58-1.18-.52-1.85-.33-1.22-.22-1.9.53-2.32,1.48-.7,1.61-1.17,3.29-.88,5.58,1.1-1.39,2.35-1.94,3.6-2.48.29.03.59.05.88.08.82.47,1.85.41,2.59,1.06ZM248.98,404.39c-.29-.35-.44-.83-.93-.99-1.31-1.57-2.24-1.7-3.81-.45-2.7,2.14-4.21,5.01-4.99,8.31-.16.16-.23.33-.11.54-.22.58-.23,1.17-.19,1.78-.16.33-.16.66-.05,1,0,.88,0,1.76,0,2.64-.22.88.53,1.44.56,2.69.93-1.45,1.51-2.49,1.68-3.71.38-.31.62-.67.49-1.19l-.02.03c1.82-1.44,3.29-3.38,5.49-4.28,1.51-.61,2.02-1.71,2.15-3.17.24-.66.07-1.32.06-1.99l-.11-.64c.09-.26-.02-.45-.24-.58ZM254.57,399.28c.58.81,1.09,1.67,1.85,2.33.07.69.1,1.38.23,2.06.09.5.36.8.98.52,2.27-1.03,2.84-2.09,2.34-4.53-.06-.3-.21-.58-.32-.87-.49-2.03-1.77-2.95-3.34-2.22-.88.41-1.69,1.07-2.35,1.78-.45.49.28.67.61.91ZM280.55,390.45c-.38-1.2-1.1-1.13-1.97-.54-1.36.87-2.02,2.1-1.91,3.73-.71,2.05-.22,4.08.12,6.11.13.77.78.85,1.41.92.69.08.96-.31,1.05-.92.13-.91.27-1.81.41-2.72.45-.63.89-1.25,1.34-1.88.78-.42,1.47-1,2.55-1.28-1.12-1.26-1.85-2.52-3-3.43ZM288.33,402.97c-.54.36-.37.9-.37,1.4-.59.53-.39,1.14-.05,1.66,1.59,2.47,3.32,4.78,6.5,5.32.16.25.49.47.63.21.17-.33-.29-.28-.49-.37-.04-.42-.07-.84-.11-1.26.51-.02,1.03-.04,1.54-.07,2.35,1.61,4.82,3.08,6.79,5.19.57,1.35,1.01,2.79,2.29,3.7.09.27.19.55.3.86.13-.14.25-.23.29-.34,1.64-5.48.45-10.38-3.32-14.58-1.03-1.15-2.43-2.14-4.16-2.27,0-.28,0-.56-.01-.84-.51-1-1.43-.9-2.33-.87-1.25-.57-2.64-.63-3.91-1.06-1.26-.43-2.01-.08-2.57,1.01-.83.56-.98,1.41-1.01,2.32ZM280.59,399.29c.08.99-.64,2.2.58,2.88,1.51.84,2.96,1.83,4.71,2.41.22-.71.24-1.37.16-2.05.17-.31.35-.62.52-.93.69-.45,1.08-1.12,1.39-1.85.61-.18,1.08-.51,1.27-1.13-1.37-.97-2.74-1.9-4.07-2.88-.75-.55-1.47-.76-2.27-.14-.91.68-2.16,1.16-1.72,2.7-.54.13-.64.51-.57.99ZM253.68,400.59c-.12-.13-.23-.26-.35-.39-1.73-1.42-4.72-1.37-6.89.16,1.26.4,2.37,1.01,3.4,1.75.46.99.91,1.97,1.37,2.96-.32.81-.28,1.66-.29,2.51-.02,1.28-.04,2.55-1.31,3.63,4.16-.57,6.65-4.31,5.5-7.78-.23-1.05-.52-2.06-1.49-2.69,0,0,.07-.15.07-.15ZM258.74,395.11c1.09.56,1.63,1.79,2.78,2.26.03,1.34.06,2.68.09,4.09,2.6-.81,2.73-.98,2.71-3.14-.01-1.3-.24-2.55-.89-3.69-.16-1.54-.32-3.07-2.37-3.21-1.78.21-2.39.85-3.44,3.62.39.03.76.05,1.13.07ZM271.64,337.15c.11-2.31-.39-4.48-1.52-6.63-.5.79-.82,1.53-1.34,2.06-1.38,1.4-1.51,2.94-.79,4.66,0,.53.05,1.07-.04,1.59-.29,1.54.76,2.16,1.81,2.81.69.43,1.11.16,1.45-.48.69-1.28.53-2.64.42-4ZM251.95,340.36c-.03.84-.02,1.69-.11,2.53-.12,1,.48,1.38,1.26,1.64,1.74.58,2.64,0,2.82-1.87.06-.6-.05-1.22-.08-1.84.07-2.15-.25-4.05-2.55-5.08-.89-.4-1.6-1.17-2.4-1.78-.06-.13-.11-.26-.17-.39-.04.08-.14.18-.12.25.04.18.18.21.33.1.2,2.17.58,4.31,1.03,6.44ZM257.34,344.57c-.91.93-1.9,1.76-1.28,3.34,2.6,6.6,3.8,13.56,5.09,20.49.3,1.64.03,3.39.83,4.94-.25,4.96.48,9.89.52,14.84-.05.03-.1.07-.15.1.04-.04.08-.09.12-.13,4.88-3.09,10.08-3.87,15.74-1.88-.25-1.54-.53-2.71-1.29-3.71-.94-2.68-2.06-5.31-2.79-8.05-2.61-9.7-4.37-19.54-4.67-29.6-.03-.96-.37-1.57-1.1-2.13-2.94-2.24-5.97-2.05-9.09-.45-1.06.38-1.65,1.17-1.93,2.23ZM277.82,388.43c-4.27-1.48-8.15-1.66-11.96.13-2.41,1.13-2.44,1.36-1.22,3.64.17.31.09.79.77.93.9-1.89,1.97-3.79,4.42-4,2.4-.2,3.88,1.3,5.27,3.39.5-1.74,1.26-2.95,2.73-4.1ZM257.52,341.02c.75.14,1.21-.36,1.76-.6,1.21-.52,2.44-.88,3.78-.89,3.24-.04,3.24-.07,3.15-3.23,0-.23-.04-.44-.42-.65-2.57,1.86-5.71,1.52-8.85,1.61.22,1.41.4,2.59.58,3.77ZM254.01,372.22c1.6,2.27,2.86,4.26,5.8,4.58-.87-1.2-.6-2.32-.23-3.46.07-.2,0-.46-.04-.68-.1-.57-.42-.82-.96-.53-1.36.72-2.77.59-4.57.09ZM249.23,334.92c-.32,1.9-.2,3.68,1.18,5.59.05-2.24-.72-3.9-1.18-5.59ZM279.76,387.62c.6-2.45.43-3.11-1.4-4.67.94,1.67.45,3.25,1.4,4.67ZM250.65,341.09c-.05.05-.16.11-.15.15.02.14.09.26.13.4.05-.05.16-.11.15-.15-.02-.14-.08-.26-.13-.4Z"/>
      <path class="cls-4" d="M270.22,282.06c.72,1.89.83,3.9,1.16,5.87,1.08,6.51,1.18,13.06.24,19.58-.51,3.53-1.73,6.84-4.54,9.32-.14,0-.28.04-.41.08,0-.53,0-1.07-.02-1.6-.02-.45,0-.96-.57-1.11-.61-.16-1.01.2-1.36.63-.36.44-.41.97-.41,1.51,0,.84.02,1.68.03,2.52-.92.89-2.17,1-3.3,1.41-.26-.06-.48,0-.66.19-2.31.27-4.53-.19-6.72-.87-.79-.44-1.18-1.53-2.32-1.4l.04.04c.41-.68-.7-1.07-.32-1.74,0,0,0,0,0,0-.2.09-.4.18-.6.26-.12-1.25-1.43-2.16-1.19-3.41.21-1.1-.17-1.98-.47-2.9-.79-2.49-1.67-4.96-2.5-7.45-.92-2.71-1.68-5.45-1.6-8.35.23-1.07.13-2.15.12-3.22,3.01-.93,6.03-1.84,9.03-2.79,1.61-.51,3.2-1.1,4.81-1.6,1.43-.45,1.61-.37,1.95,1.01,1.33,5.29,2.87,10.54,3.59,15.95.3,2.27.7,4.56.58,6.89-.03.63-.26,1.49.75,1.68.99.19,1.14-.62,1.31-1.26.79-2.9,1.44-5.83,1.59-8.83.3-5.86-.05-11.69-1.56-17.39-.31-1.15-.06-1.76.99-2.15.78-.29,1.42-.96,2.35-.83Z"/>
      <path class="cls-4" d="M192.03,317.28c-2.01,1.8-4.3,2.41-6.82,1.35-1.49-.63-2.72-1.75-3.73-3-6.71-8.36-11.33-17.73-13.47-28.27-.04-.21.04-.45.06-.68,1.5-.3,1.88.74,2.1,1.84.43,2.2,1.15,4.31,1.82,6.44,2.15,6.94,5.92,13.02,10.06,18.89.88,1.25,2.09,2.26,3.17,3.35.26.26.62.56,1,.23.35-.31.18-.72,0-1.06-.98-1.83-1.89-3.72-3-5.47-2.11-3.35-3.69-6.95-4.99-10.65-1.29-3.68-2.78-7.34-3.18-11.6,4.38.72,8.51,2.28,12.87,2.37-.29.93-.07,1.82.13,2.73,1.3,5.88,3.45,11.49,5.47,17.14.33,2.27-.16,4.37-1.36,6.31l-.14.08Z"/>
      <path class="cls-6" d="M193.93,292.24c5.07.35,10.15.69,15.22,1.04.38,1.1.49,2.22.48,3.38-.02,4.04.11,8.08-.84,12.06-.13.55-.31,1.23.38,1.64-4.14,3.56-9.01,1.22-10.79-2.05-2.73-5.01-3.81-10.48-4.45-16.07ZM204.55,308.63c.04-1.31-.7-2.26-1.77-2.27-.77-.01-1.71,1.11-1.8,2.14-.09.99.79,1.85,1.9,1.86,1.12,0,1.63-.52,1.67-1.72Z"/>
      <path class="cls-4" d="M190.61,319.61c1-.32,1.78-.94,2.32-1.84,0,0,.02-.03.02-.03.81-.88,1.39-1.86,1.47-3.08.2-.15.28-.35.19-.59.21-1.11.19-2.2-.28-3.25-.03-1.41-.67-2.66-1.1-3.97-1.69-5.09-3.49-10.15-4.49-15.44,1.4.15,2.81.3,4.21.45-.14.24-.27.49-.41.73-.62.64-.72,1.22.18,1.69.05.57.09,1.14.14,1.71-.52.56-.27.87.34,1.06.02.26.03.53.05.79-.24.23-.33.53-.24.84,1.53,5.24,2.89,10.52,4.89,15.62,1.68,4.29,4.11,8.29,5,12.88-.91,4.45-5.74,6.23-9.36,3.43-.29-.23-.57-.54-.72-.88-1.68-3.78-4.65-6.59-7.29-9.65.31-.03.62-.06.93-.1.62.12,1.23.33,1.86.05,0,.09,0,.18-.01.27.01.23-.06.52.06.68,1.17,1.58,2.37,3.15,3.57,4.71.19.25.51.37.79.13.26-.23.21-.57.09-.85-.73-1.79-1.79-3.36-3.14-4.74l.91-.61Z"/>
      <path class="cls-10" d="M244.7,294.63c-.09,2.9.68,5.64,1.6,8.35.84,2.48,1.71,4.95,2.5,7.45.29.93.67,1.81.47,2.9-.24,1.25,1.08,2.16,1.19,3.41-.05.71.18,1.26.91,1.48,0,0-.04-.04-.04-.04.17.37.34.75.51,1.12.34.53.21,1.6,1.37,1.2h0c-.36.32-.1.62.04.93.54,2.56,1.67,4.88,2.96,7.14,1.72,3.02,4.05,5.14,7.68,5.45-1.73,1.7-3.94,1.47-6.03,1.28-2.4-.22-4.55-1.17-6.05-3.21.29-.2.39-.49.25-.79-1.57-3.58-3-7.22-5.42-10.35,1.34-2.47.86-4.87-.18-7.31-2.51-5.88-5.25-11.66-7.23-17.75-.33-1.02-.87-1.98-.9-3.09,1.14-.73,2.5-.57,3.74-.9.16,2.92.91,5.67,2.32,8.24-.03.48-.1.97.2,1.52.39-.67.25-1.12-.21-1.51.06-1.93-.94-3.66-1.04-5.56.45.24.89,1.05,1.36.02ZM246.23,306.88c-.01.83.04,1.63.82,2.34.18-1.05-.11-1.77-.82-2.34ZM247.44,310.19c-.05.01-.13,0-.15.04-.03.05-.06.15-.03.19.1.17.2.15.25-.05.01-.05-.04-.12-.06-.18Z"/>
      <path class="cls-6" d="M231.86,294.13c1.8-.71,3.75-.74,5.59-1.27-.08.77-.02,1.52.27,2.26,1.17,2.93,2.35,5.85,3.44,8.81,1.36,3.67,3.26,7.13,4.3,10.93-.09.08-.18.16-.27.23q-1.82-1.16-3.2-.09c-.67-.02-.85-.57-1.13-1.02-1.46-2.26-2.67-4.64-3.87-7.04-2.07-4.13-3.93-8.34-5.12-12.81Z"/>
      <path class="cls-1" d="M231.86,294.13c1.19,4.48,3.05,8.68,5.12,12.81,1.2,2.4,2.42,4.79,3.87,7.04.29.45.47,1,1.14,1.02.04,1.62.5,2.95,2.32,3.32.1.79.22,1.56,1.16,1.8-1.08.98-1.83.21-2.56-.5-1.83-1.79-3.2-3.94-4.61-6.06-3.59-5.4-6.67-11.07-8.73-17.25-.25-.74-.28-1.75-1.42-1.86,1.2-.56,2.48-.17,3.71-.33Z"/>
      <path class="cls-13" d="M192.87,295.99c-.05-.57-.09-1.14-.14-1.71.18-.59.17-1.16-.18-1.69.14-.24.27-.49.41-.73.37,0,.73.04.98.37.64,5.59,1.72,11.06,4.45,16.07,1.78,3.27,6.65,5.61,10.79,2.05.45-.33.9-.67,1.36-1,.02.37.04.73.06,1.1-.48.73-1.2,1.23-1.86,1.77-.64.22-1.28.49-1.94.66-1,.26-1.27.7-.96,1.78.74,2.55,1.29,5.15,1.92,7.73-.29,0-.58,0-.87,0-.88-2.37-1.48-4.82-2.12-7.26-.29-1.11-.77-1.76-2.06-2.08-2.28-.57-4.11-1.94-5.31-4.1-1.47-2.65-2.15-5.57-3.1-8.39-.31-.91-.15-2.02-1.04-2.71-.02-.26-.03-.53-.05-.79.15-.44.08-.81-.34-1.06Z"/>
      <path class="cls-13" d="M244.31,318.33c-1.82-.38-2.28-1.7-2.32-3.32q1.38-1.07,3.2.09c.13.19.06.69.44.48.26-.15.04-.5-.17-.72-1.03-3.8-2.94-7.26-4.3-10.93-1.09-2.96-2.27-5.88-3.44-8.81-.3-.75-.35-1.49-.27-2.26.3-.01.6-.03.9-.04.03,1.11.57,2.07.9,3.09,1.99,6.09,4.73,11.87,7.23,17.75,1.04,2.44,1.52,4.84.18,7.31-.13.02-.27.04-.41.06-.02-.35-.06-.7-.4-.91.49-1.18.61-2.36.06-3.93-.68.88-.84,1.77-1.59,2.15ZM244.18,317.28c.28-.92.41-1.63-.46-2.1-.09-.05-.35,0-.4.09-.51.84-.09,1.38.86,2Z"/>
      <path class="cls-1" d="M210.53,309.36c-.45.33-.9.67-1.36,1-.7-.41-.52-1.09-.38-1.64.95-3.98.83-8.02.84-12.06,0-1.16-.1-2.28-.48-3.38,1.11,0,2.22.02,3.32.02.2,5.08-.99,10.02-1.49,15.02-.04.36-.3.69-.46,1.03Z"/>
      <path class="cls-9" d="M188.75,291.41c1,5.29,2.8,10.35,4.49,15.44.43,1.3,1.07,2.55,1.1,3.97-.27.02-.54.05-.8.07-2.02-5.65-4.16-11.26-5.47-17.14-.2-.91-.42-1.8-.13-2.73.27.13.54.26.81.39Z"/>
      <path class="cls-6" d="M244.7,294.63c-.47,1.04-.91.22-1.36-.02-.27-.9-.55-1.81-.82-2.71.72-.35,1.45-.68,2.29-.5.02,1.08.12,2.16-.12,3.22Z"/>
      <path class="cls-9" d="M242.53,291.9c.27.9.55,1.81.82,2.71.09,1.9,1.1,3.63,1.04,5.56h.02c-1.41-2.58-2.15-5.34-2.32-8.25.15-.08.29-.08.44-.02Z"/>
      <path class="cls-4" d="M172.63,381.16c1.41-2.21,3.08-4.22,4.78-6.2,4.56-5.31,7.79-11.43,10.79-17.67,2.54-5.27,4.52-10.76,6.19-16.37.55-1.85,1.5-3.19,3.63-3.22.08.29.1.61.24.86.85,1.59,2.35,2.77,2.9,4.57.09.28.51.26.8.11-.6,1.57-1.18,3.15-1.94,4.66-2.13,4.26-4.23,8.53-6.24,12.85-1.55,3.33-3.09,6.68-4.06,10.25-.52.86-.86,1.8-1.07,2.79-.47.36-.17,1.18-.85,1.41-.3.25-.37.59-.39.95l.03-.03c-.42.19-.48.56-.48.96,0,0,.02-.02.02-.02-1.12.73-1.6,2.03-2.6,2.88-1.5,1.27-4.03,1.64-5.97.73,1.69-2.66,3.59-5.21,5.04-7.99,4.69-8.93,8.68-18.19,12.05-27.7.42-1.2.75-2.43,1.15-3.75-.96.16-1.06.86-1.26,1.38-.55,1.43-.92,2.93-1.5,4.35-2.27,5.55-4.64,11.04-7.39,16.38-2.27,4.41-5.03,8.43-8.01,12.36-1.23,1.63-2.91,2.97-3.55,5.03-.17.15-.33.3-.5.45-.6,0-1.21-.02-1.81-.02Z"/>
      <path class="cls-6" d="M188.65,373.78c.21-.99.55-1.92,1.07-2.79.67-.02.89-.53,1.11-1.03,3.11-7.31,6.88-14.31,10.31-21.47,1.02-2.13,2.09-4.29,2.48-6.67l-.03.03c.39-.19.74-.62,1.22-.33,1.58.95,3.25,1.45,5.13,1.32.59-.04.68.47.14.86-1.08-.77-1.99-.61-2.75.47-.75,1.07-1.7,1.96-2.34,3.14-2.49,4.59-5.14,9.1-7.61,13.71-2.64,4.91-4.49,10.11-6.42,15.29-.37.98-.3,1.96-.27,2.96-.79.04-1.57.08-2.36.12-.23-1.03.57-1.67.95-2.46.75-1.54.58-2.38-.64-3.15Z"/>
      <path class="cls-10" d="M193.26,297.85c.89.69.73,1.8,1.04,2.71.96,2.83,1.63,5.74,3.1,8.39,1.2,2.16,3.03,3.53,5.31,4.1,1.29.32,1.77.98,2.06,2.08.64,2.44,1.23,4.89,2.12,7.26-.05.37.04.94-.17,1.07-1.52,1-2.2,2.83-3.81,3.72-.9-4.59-3.32-8.59-5-12.88-2-5.1-3.36-10.38-4.89-15.62-.09-.31,0-.61.24-.84Z"/>
      <path class="cls-1" d="M190.7,379.28c-.03-1-.1-1.98.27-2.96,1.94-5.18,3.79-10.38,6.42-15.29,2.47-4.61,5.12-9.12,7.61-13.71.64-1.18,1.59-2.07,2.34-3.14.76-1.08,1.68-1.24,2.75-.47-4.02,4.52-6.97,9.76-9.94,14.97-3.1,5.43-5.54,11.15-7.45,17.1-.35,1.09-.66,2.19-.81,3.35-.13,1-.75.32-1.19.15Z"/>
      <path class="cls-10" d="M208.14,326.67c4.4-2.11,8.26.21,8.48,5.07.12,2.61-.21,5.01-2.13,7.05-1.52,1.6-3.34,1.64-5.11,1.11-1.48-.44-2.56-1.62-2.61-3.38.74-.41,1.5-.79,2.39-.71.71.23.99.94,1.55,1.34.91.65,1.84.74,2.79.13,1.71-1.1,2.38-4.47,1.36-6.76-.86-1.91-1.86-2.25-4.55-1.54-.44-1.03-1.84-1.16-2.15-2.32Z"/>
      <path class="cls-8" d="M165.67,421.47c-.74-2.6-.8-5.21-.27-7.85.21-.14.25-.33.16-.56.43-2.72,1.53-5.09,3.69-6.88.24.24.22.51.2.83-.17,1.97-.3,3.94-.44,5.9-.03.11-.07.21-.13.31-.31-.02-.43.11-.3.41-.05.32-.11.64-.16.96-.29,0-.44.12-.34.43-.16.76-.33,1.52-.49,2.28-.68,1.29-.61,2.71-.69,4.1-.41.02-.82.05-1.23.07Z"/>
      <path class="cls-6" d="M141.06,412.73c-.35,1.27-1.23.33-1.86.44-.03-.95.46-1.73.93-2.48.74-1.2,1.56-2.36,2.34-3.53,1.14-.91,2.74-1.14,3.65-2.39,2.03-.49,3.81-1.8,5.98-1.85.04.65.07,1.3.11,1.95-.97.01-2.09-.38-2.56.96-.29.5-.78.72-1.28.87-1.33.39-2.47,1.16-3.6,1.88-1.01.64-2.33,1.2-2.29,2.78,0,0,0,0,0,0-.77-.14-.92.33-.95.94,0,0,.02-.04.02-.04-.16.17-.33.34-.49.5Z"/>
      <path class="cls-8" d="M131.36,397.21c1.85-2.64,4.41-4.2,7.5-5,2.96-.77,2.95-.79,4.06,1.95-.09.28-.04.53.22.7-.06.13-.06.27,0,.4-2.72.03-5.4.27-7.93,1.35-.29-.03-.5.08-.64.34-.27.18-.53.37-.8.55-.81-.1-1.61-.19-2.42-.29Z"/>
      <path class="cls-10" d="M188.65,373.78c1.22.77,1.39,1.61.64,3.15-.39.79-1.18,1.43-.95,2.46-2.59,1.59-4.02,3.89-4.24,6.98-2.99-2.38-6.26-3.9-10.12-3.86-.95.01-1.45-.37-1.36-1.36.6,0,1.21.02,1.81.02,2.36.51,4.74.9,6.99,1.83.47.19,1.14.31,1.54-.11,1.64-1.74,3.71-3.2,4-5.86,0,0-.02.02-.02.02.56-.12.49-.55.48-.96,0,0-.03.03-.02.03.44-.19.4-.58.39-.95.68-.23.38-1.05.85-1.41Z"/>
      <path class="cls-1" d="M190.59,381.27c2.16,1.08,2.84,4.26,1.48,6.74-.44.81-1.06,1.29-1.94,1.49-2.18.51-3.54-.28-4.23-2.45-.28-.89-.56-1.77.09-2.62.55.59,1.02.53,1.31-.23.18-.47.48-.71.98-.71.02,1.12-.72,2.16-.19,3.35.55,1.23.83,1.39,2.37.97-.03-.14,0-.32-.09-.41-1.58-1.66-1.55-2.42.24-3.89.46-.38-.08-.67,0-1.01l-.03-1.23Z"/>
      <path class="cls-10" d="M207.76,322.4c-.63-2.58-1.18-5.18-1.92-7.73-.32-1.09-.05-1.53.96-1.78.66-.17,1.29-.44,1.94-.66.03.61-.02,1.24.09,1.84.57,2.94,1.4,5.83,2.24,8.7-1.1-.13-2.3.59-3.31-.37Z"/>
      <path class="cls-6" d="M159.34,401.32c.88,1.87.28,4.12-1.55,5.28-1.74,1.1-3.54,2.12-5.7,2.14,0-.23,0-.46,0-.69,1.17-1.63,2.06-3.37,1.89-5.46,1.85-.14,3.8.14,5.35-1.26Z"/>
      <path class="cls-6" d="M175.92,389.98c.08.13.23.25.24.38.22,3.18-2.67,8.25-5.47,9.62-.19.09-.44.06-.76.11-.2-1.39-.4-2.74-.6-4.09,2.51-1.66,4.56-3.83,6.59-6.02Z"/>
      <path class="cls-6" d="M167.45,396.02c.11.1.31.18.33.29,1.06,4.49,1.53,3.93-2.88,5.77-.5.21-1,.39-1.5.6q-1.85.8-2.49-1.21c-.3-.94-.58-1-1.45-.31-.13-.46-.26-.93-.39-1.39.43-.03.85-.06,1.28-.09,1.12.39,1.94-.41,2.87-.74,1.64-.42,3.23-.91,4.16-2.51,0-.14.02-.27.06-.41Z"/>
      <path class="cls-4" d="M159.07,399.77c.13.46.26.93.39,1.39,0,0,.06.16.06.16,0,0-.17,0-.17,0-1.55,1.4-3.5,1.12-5.35,1.26-.79-1.68-1.42-3.46-3.2-4.56,2.42-.51,4.66-.39,6.9.02.46.57.92,1.15,1.37,1.72Z"/>
      <path class="cls-8" d="M146.12,404.75c-.92,1.26-2.51,1.48-3.65,2.39-1.03.03-1.52-.66-1.91-1.46,1.76-2.81,4.24-4.75,7.24-6.12.91-.42,1.73-.62,2.5.21-.38.97-1.39,1.13-2.16,1.5-1.53.73-2.32,1.75-2.01,3.48Z"/>
      <path class="cls-1" d="M175.92,389.98c-2.03,2.19-4.08,4.36-6.59,6.02-.64-.74-1.28-1.48-1.92-2.22,2.11-1.15,3.51-3.33,5.93-4.05.46-.14.57-.67.31-1.15-.26-.48-.64-.84-1.18-.98,2.52-.96,3.22-.48,3.46,2.39Z"/>
      <path class="cls-3" d="M135.21,396.61c2.54-1.08,5.21-1.32,7.93-1.35.17.75.39,1.51-.25,2.17-3.34-.12-6.53.47-9.42,2.24-.69.42-1.55.72-1.7,1.71-.46.58-.96,1.1-1.76,1.14.11-.48.22-.96.34-1.44,1.14-1.2,2.28-2.39,3.42-3.59.27-.18.53-.37.8-.55.28.02.5-.09.64-.34Z"/>
      <path class="cls-1" d="M211.06,322.77c-.84-2.88-1.67-5.76-2.24-8.7-.12-.6-.07-1.23-.09-1.84.67-.54,1.38-1.04,1.86-1.77.43.19.46.58.44.96-.14,3.58.72,6.99,1.7,10.38.12.43.32.87.06,1.35-.63.15-1.12-.38-1.72-.37Z"/>
      <path class="cls-10" d="M179.74,404.87c-.63.22-1.26.29-1.3,1.27-.03.81-.24,1.64-.3,2.47-.16,2.07-.67,2.86-2.74,4.37.24-2.27-.3-4.27-1.02-6.24.5-.3.94-.65,1.04-1.27.7-.5,1.02-1.25,1.3-2.02l.51-.02c.43.86.65,2.03,2.08,1.41l.22.04h.23Z"/>
      <path class="cls-8" d="M144.96,394.02c-.34-.9-1.12-1.62-1.18-2.72,1.95-.23,3.68.51,5.49.67.45.04.9.19,1.35.24,2.33.26,2.34.26,2.45,2.82-2.78.29-5.35-1.13-8.11-1.02Z"/>
      <path class="cls-6" d="M197.86,396.09c-1.55-.02-2.96-.76-4.48-.93-.84-.09-1.03-.58-.86-1.27.32-1.34.7-2.67,1.05-4,1.56.56,2.28,2.13,3.6,2.99.51.4,1,.82,1.72.75-.06.94-.16,1.86-1.02,2.46Z"/>
      <path class="cls-12" d="M186.15,390.83c2.1.63,3.61.64,5.11.35.44,1.93-.69,4.47-2.3,5.16-1.16.5-1.91.07-1.98-1.22-.07-1.28-.05-2.57-.84-4.29Z"/>
      <path class="cls-7" d="M168.88,413.22c.06-.1.1-.2.13-.31,1.28-1.5,2.08-3.45,3.98-4.39.68.69.88,1.54.84,2.47-.55-.23-.84.09-1.11.5-1.3,1.95-2.81,3.76-3.78,5.92-.45-.03-.9-.07-1.35-.1.16-.76.33-1.52.49-2.28.11-.14.23-.29.34-.43.05-.32.11-.64.16-.96.1-.14.2-.28.3-.41Z"/>
      <path class="cls-10" d="M207.18,340.61c-2.13-.63-3.52-2.04-4.36-4.06-1.03-2.47-.23-4.59,1.36-6.83.6,1.97.07,3.87.49,5.67.45,1.93,1.48,3.5,2.75,4.96-.08.09-.15.18-.23.26Z"/>
      <path class="cls-6" d="M184.57,391.85c1.69,3.39,1.32,6.66-1.27,8.71-.01-1.65-.9-2.8-1.47-4.1,1.06-1.45,1.26-3.41,2.74-4.61Z"/>
      <path class="cls-8" d="M167.45,396.02c-.04.13-.06.27-.06.41-.28-.12-.58-.36-.84-.33-1.56.19-2.63,1.36-3.9,2.12-.34.2.22.58.57.72-.94.33-1.75,1.13-2.87.74-.16-1.07-1.22-1.45-1.71-2.27,1.92-1.28,4.23-1.65,6.28-2.66.94-.47,1.75.69,2.53,1.28Z"/>
      <path class="cls-8" d="M208.14,326.67c.31,1.15,1.71,1.29,2.15,2.32-.67,1.3-1.68,2.46-1.65,4.04-.99,0-1.98-.01-2.97-.02-.15-.45-.17-.9.02-1.35.22-.15.26-.35.16-.59-.12-1.16.81-1.95,1.08-2.97.48-.35,1.02-.66.92-1.4.1-.02.19-.03.29-.03Z"/>
      <path class="cls-10" d="M144.96,394.02c2.76-.11,5.33,1.31,8.11,1.02-.82,1.08-2.1.59-3.14.87-.83.22-1.53.39-2.17,1.08-.94,1.02-2.27,1.49-3.86,2.05.29-1.01.96-1.64.94-2.5-.02-.84.07-1.69.12-2.53Z"/>
      <path class="cls-6" d="M177.87,389.56c-.67-2.25-1.48-4.02-3.92-4.7,2.75-.64,7.19.89,9.21,3.08-2.07-.54-3.79-.21-5.29,1.61Z"/>
      <path class="cls-10" d="M197.86,396.09c.86-.6.96-1.53,1.02-2.46,0,0,.12.08.12.08,1.61.89,3.33.37,5,.41.18,1.95-.07,2.47-1.49,3.09-1.71.74-3.41.33-4.64-1.12Z"/>
      <path class="cls-4" d="M184.57,391.85c-1.48,1.2-1.68,3.16-2.74,4.61-.78-.44-1.56-.89-2.34-1.33,2.66-2.25,2.75-3.23.5-5.12,2.8-.61,3.29-.42,4.58,1.83Z"/>
      <path class="cls-10" d="M162.8,392.28c.25.62.7,1.25-.37,1.61-2.09.69-4.14,1.48-6.35,1.75-1.25.15-1.71-.35-1.48-1.55,2.7-.77,5.4-1.51,8.2-1.8Z"/>
      <path class="cls-1" d="M165,391.69c-.54-.96-1.24-1.51-1.46-2.48,2.51-1.07,4.52-3.27,7.87-3.54-2.11,2.34-4.21,4.08-6.41,6.02Z"/>
      <path class="cls-8" d="M172.46,387.6c.55.15.92.5,1.18.98.26.48.15,1.02-.31,1.15-2.42.72-3.82,2.9-5.93,4.05-.42-.21-1.66-.01-.76-.98,1.77-1.91,3.48-3.91,5.81-5.2Z"/>
      <path class="cls-4" d="M146.12,404.75c-.31-1.73.48-2.75,2.01-3.48.77-.37,1.78-.52,2.16-1.5,1,.81,1.78,1.75,1.81,3.12-2.17.05-3.95,1.36-5.98,1.85Z"/>
      <path class="cls-8" d="M205.5,392.27c-.32-.67-.64-1.34-1.04-2.18,3.23-.32,5.73.51,7.54,3.07-.21.22-.42.44-.63.67-1.93-.63-3.86-1.24-5.87-1.56Z"/>
      <path class="cls-8" d="M162.8,392.28c-2.8.29-5.5,1.04-8.2,1.8-.09-.59-.62-1.05-.49-1.85,2.47-.47,4.99-.87,7.44-1.69,1.36-.45,1.32.79,1.26,1.74Z"/>
      <path class="cls-8" d="M176.7,403.45c-.27.77-.6,1.52-1.3,2.02-.91-1.48-2.25-1.61-3.76-1.23-.78-.13-1.55-.25-2.34-.03.02-.41.03-.81.05-1.22.33-.2.64-.41.98-.59,2.38-1.22,4.54-1.1,6.37,1.04Z"/>
      <path class="cls-6" d="M205.5,392.27c2.01.31,3.94.93,5.87,1.56.46.45.91.9,1.38,1.34.25.24.49.22.66-.11.68.67.95,1.48.83,2.66-1.41-.56-2.33-1.8-3.72-2.09.05-.06.12-.11.14-.18.02-.06,0-.18-.05-.2-1.48-.66-3.07-.86-4.66-1.04-.15-.64-.3-1.29-.45-1.93Z"/>
      <path class="cls-10" d="M201.96,343.24c-.3.16-.72.17-.8-.11-.55-1.8-2.05-2.98-2.9-4.57-.14-.26-.16-.57-.24-.86,2.42-.36,3.92,1.08,5.34,2.7-.91.44-.63,1.25-.62,1.98-.1.43-.23.83-.77.86Z"/>
      <path class="cls-4" d="M172.99,408.51c-1.9.94-2.7,2.89-3.98,4.39.14-1.97.27-3.94.44-5.9.03-.32.04-.59-.2-.83.93-.78,1.74-.56,2.48.28.54.61,1.04,1.25,1.26,2.06Z"/>
      <path class="cls-4" d="M204,394.11c-1.68-.03-3.4.49-5-.41.11-.52.33-1.04.31-1.55-.04-1.17.84-1.28,1.6-1.58.87-.34,1.51.06,1.98.7.62.83,1.46,1.61,1.1,2.84Z"/>
      <path class="cls-4" d="M140.56,405.69c.4.8.88,1.49,1.91,1.46-.79,1.18-1.6,2.33-2.34,3.53-.46.76-.96,1.53-.93,2.48-.04.08-.11.14-.19.18-.42-.06-.83-.13-1.25-.19.16-2.78,1.1-5.26,2.8-7.46Z"/>
      <path class="cls-4" d="M177.64,402.1c-.95-1.02-2.13-1.59-3.84-1.57,1.05-1.31,1.86-2.4,2.77-3.41.56-.62,1.3-.79,2.05-.22-.02.15,0,.32-.06.45-.35.66-.79,1.29-1.08,1.98-.48,1.12,1.49.78,1.16,1.85-.05.62-.43.88-1.01.92Z"/>
      <path class="cls-6" d="M177.64,402.1c.58-.04.95-.31,1.01-.92,1.3-.27,1.31-1.75,2.24-2.37,1.5,1.38,1.48,1.54.68,3.16-.51,1.04-1.12,2-1.82,2.91,0,0-.23,0-.23,0,0,0-.22-.04-.22-.04-.43-.74-.49-1.67-1.18-2.29l-.48-.46Z"/>
      <path class="cls-1" d="M142.48,411.33c-.04-1.58,1.28-2.14,2.29-2.78,1.13-.71,2.28-1.49,3.6-1.88.5-.15,1-.37,1.28-.87.2.03.39.07.58.1.22.16.41.12.57-.1.44,0,.89.01,1.33.02-.45.67-.6,1.63-1.62,1.79-3.03.48-5.52,2.14-8.05,3.71Z"/>
      <path class="cls-10" d="M196.09,333.54c.99,0,1.76,0,2.53,0q2.64-.02,3.08,3.12c-1.58-.54-3.09-.97-4.69-.88-.64.03-.64-.12-.92-2.24Z"/>
      <path class="cls-8" d="M198,368.65c.05-.22.18-.57.36-.45,2.58,1.77,5.51,1.51,8.4,1.48.05,0,.1.09.25.23-.32.61-1.01.79-1.52,1.17-1.08-.17-2.15-.02-3.22.06-1.65-.44-3.26-.96-4.27-2.49Z"/>
      <path class="cls-1" d="M168.93,417.4c.97-2.16,2.48-3.97,3.78-5.92.27-.4.56-.73,1.11-.5-.1,1.43-.73,2.57-1.59,3.71-1.24,1.64-2.23,3.46-3.33,5.2.01-.83.02-1.67.04-2.5Z"/>
      <path class="cls-8" d="M179.99,390.01c2.25,1.88,2.16,2.86-.5,5.12-.3-.03-.6-.06-.89-.09.06-.44.05-.89.18-1.31.24-.78-.25-.89-.8-.97.56-.99.75-2.26,2.01-2.74Z"/>
      <path class="cls-4" d="M131.78,401.38c.14-.99,1-1.28,1.7-1.71,2.89-1.77,6.07-2.35,9.42-2.24-.08.99-.54,1.48-1.62,1.43-1.44-.07-2.88-.02-4.33.26-1.91.37-3.65,1.03-5.17,2.26Z"/>
      <path class="cls-4" d="M205.67,333c.99,0,1.98.01,2.97.02.31.9.54,1.82.5,2.79-.89-.08-1.64.29-2.39.71-1.11-.94-1.23-2.19-1.09-3.51Z"/>
      <path class="cls-1" d="M180.88,398.8c-.93.62-.94,2.1-2.24,2.37.33-1.07-1.64-.73-1.16-1.85.29-.69.73-1.31,1.08-1.98.07-.12.04-.3.06-.45,1.08.25,2.15.51,2.26,1.9Z"/>
      <path class="cls-8" d="M190.59,381.27c0,.41.02.82.03,1.23-.93-.03-1.67.4-2.33.99-.5,0-.79.25-.98.71-.3.75-.76.81-1.31.23.63-2.32,1.73-3.07,4.59-3.17Z"/>
      <path class="cls-6" d="M168.93,417.4c-.01.83-.02,1.66-.04,2.5-.01,1-.54,1.8-1.07,2.59-.6-.12-.75-.62-.94-1.09.08-1.39,0-2.81.69-4.1.45.03.9.07,1.35.1Z"/>
      <path class="cls-12" d="M195.79,373.4c.42-.96.84-1.93,1.26-2.89.03.59.3.91.9,1.11,1.43.48,2.83.2,4.24,0-.06.55-.49.65-.92.85-.75.36-1.67.17-2.34.76-1.05.06-2.1.12-3.15.18Z"/>
      <path class="cls-1" d="M202.19,371.62c-1.41.2-2.81.48-4.24,0-.6-.2-.87-.52-.9-1.11.33-.61.4-1.36.95-1.86,1.02,1.53,2.62,2.05,4.27,2.49-.03.16-.06.32-.09.48Z"/>
      <path class="cls-4" d="M133.77,397.5c-1.14,1.2-2.28,2.39-3.42,3.59-.48.05-.79-.19-1-.59.4-1.21.98-2.31,1.94-3.18.11.07.22.14.32.21-.07-.11-.15-.21-.22-.32,0,0-.03,0-.03,0,.8.1,1.61.19,2.42.29Z"/>
      <path class="cls-4" d="M197.17,392.87c-1.32-.85-2.04-2.42-3.6-2.99.02-.68.29-1.07.99-.66.85.5,1.68,1.05,2.49,1.62.86.6.88,1.3.12,2.02Z"/>
      <path class="cls-10" d="M202.19,371.62c.03-.16.06-.32.09-.48,1.07-.08,2.14-.22,3.22-.06-1.55,1.62-3.64,2.05-5.68,2.62-.17-.39-.57-.34-.87-.48.67-.59,1.58-.4,2.34-.76.42-.2.85-.3.92-.85Z"/>
      <path class="cls-1" d="M166.89,421.4c.19.47.34.97.94,1.09-.13,1.04-.25,2.08-.42,3.46-1.05-1.56-1.48-2.99-1.75-4.48.41-.02.82-.05,1.23-.07Z"/>
      <path class="cls-4" d="M171.64,404.24c1.51-.38,2.86-.25,3.76,1.23-.1.62-.53.98-1.04,1.27-.71-1.05-1.63-1.87-2.73-2.5Z"/>
      <path class="cls-1" d="M194.82,334.43c.25.64.65,1.25.47,1.97-.09.39-.45.62-.8.75-.46.17-.71-.16-.87-.52-.3-.7-.63-1.39-.64-2.18.61,0,1.22-.01,1.84-.02Z"/>
      <path class="cls-1" d="M205.95,394.19c1.59.18,3.18.38,4.66,1.04.04.02.06.14.05.2-.02.07-.09.12-.14.18-1.14-.03-2.29-.06-3.43-.11-.84-.03-1.28-.43-1.13-1.31Z"/>
      <path class="cls-1" d="M137.76,413.15c.42.06.83.13,1.25.19-.41,1.12-.83,2.25-1.24,3.37-.27-1.21-.52-2.4,0-3.57Z"/>
      <path class="cls-10" d="M194.82,334.43c-.61,0-1.22.01-1.84.02.02-.64-.95-1.57.22-1.85,1.02-.25,1.63.5,1.62,1.6,0,.07,0,.15,0,.22Z"/>
      <path class="cls-4" d="M177.98,392.75c.55.09,1.04.19.8.97-.13.42-.12.87-.18,1.31-.52.07-1.03.13-1.55-.12.04-.84.38-1.54.93-2.17Z"/>
      <path class="cls-1" d="M129.35,400.5c.21.4.52.64,1,.59-.11.48-.22.96-.34,1.44-.4.43-.8.86-1.4,1.5-.26-1.47.07-2.53.73-3.52Z"/>
      <path class="cls-13" d="M207.85,326.69c.1.73-.44,1.05-.92,1.4-.15-.58-.88-.45-1.2-.99.54-.66,1.02-1.4,2.02-1.5,0,0,.07.07.07.07,0,.34.02.69.03,1.03Z"/>
      <path class="cls-9" d="M158.64,397.41c.49.81,1.55,1.2,1.71,2.27-.43.03-.85.06-1.28.09-.46-.57-.92-1.15-1.37-1.72.15-.45.5-.61.94-.64Z"/>
      <path class="cls-13" d="M178.11,402.55c.68.61.75,1.54,1.18,2.29-1.44.62-1.65-.55-2.08-1.41.58,0,.89-.29.9-.88Z"/>
      <path class="cls-1" d="M169.35,403c-.02.41-.03.81-.05,1.22-.89.15-1.32,1-2.3,1.55.43-1.46,1.39-2.11,2.35-2.76Z"/>
      <path class="cls-7" d="M152.14,405.83c-.44,0-.89-.01-1.33-.02-.19.03-.38.07-.57.1-.19-.03-.39-.07-.58-.1.47-1.34,1.59-.95,2.56-.96-.03.33-.05.65-.08.98Z"/>
      <path class="cls-8" d="M198.94,373.22c.31.13.71.09.87.48-1.35.05-2.74.6-4.03-.3,1.05-.06,2.1-.12,3.15-.18Z"/>
      <path class="cls-4" d="M213.41,395.05c-.17.34-.41.35-.66.11-.47-.44-.92-.9-1.38-1.34.21-.22.42-.44.63-.67.7.46.96,1.25,1.41,1.9Z"/>
      <path class="cls-6" d="M202.74,342.38c-.01-.73-.29-1.54.62-1.98.52.41.37.93.24,1.45,0,0,.03-.03.03-.03-.3.18-.59.37-.89.55Z"/>
      <path class="cls-9" d="M190.61,319.61c-.3.2-.61.41-.91.61-.46.03-.92.05-1.37.08.01-.09.02-.18.01-.27.66-.69,1.5-.39,2.28-.42Z"/>
      <path class="cls-1" d="M141.53,412.27c.03-.61.18-1.08.95-.94-.1.53-.5.76-.95.94Z"/>
      <path class="cls-13" d="M208.22,325.15c.17-.13.32-.3.51-.37.2-.08.43-.07.55.19-.19.07-.37.17-.56.22-.14.04-.29.02-.43.02,0,0-.06-.06-.06-.06Z"/>
      <path class="cls-9" d="M186.47,319.99c-.31.03-.62.06-.93.1.25-.58.58-.46.93-.1Z"/>
      <path class="cls-9" d="M152.1,408.05c0,.23,0,.46,0,.69-.71-.23-.14-.46,0-.69Z"/>
      <path class="cls-9" d="M192.03,317.28s.14-.08.14-.08c.26.18.52.36.78.53,0,0-.02.03-.02.03-.37-.03-.71-.12-.9-.49Z"/>
      <path class="cls-13" d="M208.2,340.48c.29.08.5.22.4.56,0,.03-.22-.01-.33-.02-.02-.18-.04-.36-.06-.54Z"/>
      <path class="cls-10" d="M208.2,340.48c.02.18.04.36.06.54-.37-.1-.79-.08-1.08-.41.08-.09.15-.17.23-.26.26.04.52.09.78.14Z"/>
      <path class="cls-4" d="M205.85,331.06c.09.24.06.44-.16.59-.14-.25-.03-.43.16-.59Z"/>
      <path class="cls-13" d="M208.27,325.21c-.15.15-.3.31-.45.46,0,0-.07-.07-.07-.07.16-.15.31-.3.47-.45,0,0,.06.06.06.06Z"/>
      <path class="cls-3" d="M143.14,394.86c-.27-.17-.31-.42-.22-.7.22.19.33.41.22.7Z"/>
      <path class="cls-8" d="M131.39,397.22c.07.11.15.21.22.32-.11-.07-.22-.14-.32-.21,0,0,.1-.11.1-.11Z"/>
      <path class="cls-1" d="M141.06,412.73c.16-.17.33-.34.49-.5-.07.26-.24.42-.49.5Z"/>
      <path class="cls-4" d="M165.55,413.05c.09.23.05.42-.16.56-.14-.24-.02-.41.16-.56Z"/>
      <path class="cls-4" d="M259.27,342.34c3.12-1.6,6.15-1.79,9.09.45.73.56,1.07,1.17,1.1,2.13.3,10.06,2.06,19.91,4.67,29.6.74,2.73,1.85,5.37,2.79,8.05-.35.18-.56.44-.48.86.35,1.77-.58.64-1.09.48,0-1.08-.96-1.7-1.26-2.65-1.23-3.89-2.8-7.69-3.71-11.65-1.59-6.95-2.85-13.98-3.79-21.06-.1-.75-.16-1.48-.81-1.89-.52.24-.55.56-.51.85.37,3.05.72,6.09,1.14,9.13.5,3.57,1.06,7.12,1.59,10.69-1.4-.05-2.83-.17-3.64,1.36-.18-.97-.37-1.95-.53-2.92-.88-5.39-2.08-10.72-3.41-16.02-.26-1.11-.55-2.22-.76-3.35-.25-1.34-.9-2.64-.4-4.06Z"/>
      <path class="cls-4" d="M263.9,334.03c-3.63-.31-5.96-2.43-7.68-5.45-1.28-2.26-2.42-4.57-2.96-7.14,1.02-.02,1.92.46,2.86.77,3.69,1.19,7.05.26,10.23-1.64.71-.43,1.48-.91,1.12-1.98l-.02.03c.25-.02.58.29.68-.18,0-.02-.25-.1-.38-.15.14-.26.07-.43-.22-.51h.01c1.14.13,1.35-.85,1.82-1.53.32-.03.64-.06.96-.09-.81,3.42-1.84,6.81-1.81,10.35.03,3.52-1.44,6.02-4.61,7.53ZM263.86,325.28c0,.23,0,.46,0,.69.03.73.2,1.43,1.08,1.48.89.05,1.12-.61,1.21-1.35.07-.6.13-1.21.25-1.8.11-.58.54-1.31-.14-1.63-.66-.31-1.28.25-1.79.72-.56.51-.64,1.19-.6,1.89Z"/>
      <path class="cls-1" d="M264.37,368.68c.81-1.53,2.24-1.41,3.64-1.36.96,4.2,1.56,8.47,2.3,12.71.29,1.69-.82,2.32-1.94,3.02-.29.13-.64.35-.53.64.23.61.76.25,1.18.22.25-.02.5-.03.75-.05,1.31.18,2.61.18,3.91-.03.56.02,1.11.05,1.67.07.51.16,1.44,1.29,1.09-.48-.08-.42.13-.68.48-.86.76,1,1.04,2.17,1.29,3.71-5.66-2-10.86-1.21-15.74,1.88l.03.03c-.04-4.95-.77-9.88-.52-14.84.3,0,.59.01.89.02,0,1.28,0,2.56,0,4.14,1.21-.78,1.34-1.65,1.42-2.58.19-2.08.12-4.16.08-6.24ZM267.21,384.37q-1.51-.23-2.13.77c.72.09,1.29-.19,2.13-.77Z"/>
      <path class="cls-10" d="M262.87,373.36c-.3,0-.59-.01-.89-.02-.8-1.55-.52-3.29-.83-4.94-1.29-6.94-2.48-13.89-5.09-20.49-.62-1.58.37-2.42,1.28-3.34.3.84.61,1.67.88,2.52.24.74.49,1.43,1.43,1.46-.83.57-.51,1.37-.37,2.09.83,4.1,1.72,8.18,2.55,12.28.7,3.44,1.42,6.89,1.02,10.45Z"/>
      <path class="cls-8" d="M298.15,402.41c1.73.13,3.13,1.12,4.16,2.27,3.77,4.2,4.96,9.1,3.32,14.58-.03.11-.16.19-.29.34-.11-.31-.2-.59-.3-.86.33-1.14.12-2.26-.08-3.38-.63-3.53-2.75-6.02-5.56-8.04.25-.81.09-1.49-.54-2.1-.6-.59-1.3-1.1-1.71-1.87.13-.53.56-.73.99-.94Z"/>
      <path class="cls-8" d="M238.94,413.58c-.04-.6-.03-1.2.19-1.78.19-.15.21-.33.11-.54.78-3.3,2.29-6.17,4.99-8.31,1.58-1.25,2.5-1.12,3.81.45-3.18,1.02-3.19,1.03-2.47,3.42l-.13.1c-.45-.17-.57.12-.66.46-2.55,2.64-4.46,5.63-5.2,9.28-.06.31-.37.47-.67.57,0-.88,0-1.76,0-2.64.37-.32.53-.64.05-.99Z"/>
      <path class="cls-6" d="M277.82,388.43c-1.47,1.15-2.23,2.36-2.73,4.1-1.39-2.09-2.86-3.6-5.27-3.39-2.45.21-3.52,2.1-4.42,4-.67-.14-.6-.62-.77-.93-1.23-2.28-1.19-2.51,1.22-3.64,3.81-1.79,7.7-1.61,11.96-.13Z"/>
      <path class="cls-12" d="M299.4,407.32c2.81,2.02,4.93,4.51,5.56,8.04.2,1.13.42,2.24.08,3.38-1.28-.91-1.72-2.35-2.29-3.7.25-.07.45-.3.33-.48-1.11-1.74-2.3-3.47-4.05-4.58-.88-.56-1.97-1.55-3.22-.52-.71-1.55-.67-3.1,0-4.65-.13.75.33,1.08.92,1.33.89.39,1.78.78,2.67,1.17Z"/>
      <path class="cls-6" d="M238.9,417.22c.3-.1.61-.26.67-.57.74-3.65,2.66-6.64,5.2-9.28.37.06.55-.15.66-.46,0,0,.13-.1.13-.1,1.25-.4,2.5-.8,3.76-1.2.01.66.18,1.33-.06,1.99-3.44,1.57-6.3,3.73-7.65,7.44,0,0,.02-.03.02-.03-.5.26-.45.74-.49,1.19-.18,1.22-.75,2.25-1.68,3.71-.04-1.25-.78-1.8-.56-2.69Z"/>
      <path class="cls-7" d="M272.56,428.48c-.57-.68-.96-1.43-.86-2.35-.11-.63.29-1.39-.46-1.87v.03c-.14-2.78-1.15-5.37-1.73-8.06-.35-1.62-.41-3.36-1.41-4.8.4-1.23.95-2.38,1.76-3.4-.15,2.56.66,4.99,1.04,7.47.05.34.33.49.65.55.03.25.06.5.09.75-.39.26-.33.43.11.51.71,1.48.21,3.19.88,4.68-.02,2.16-.04,4.32-.06,6.48Z"/>
      <path class="cls-12" d="M257.52,341.02c-.18-1.17-.36-2.36-.58-3.77,3.15-.08,6.28.25,8.85-1.61.38.2.41.42.42.65.08,3.17.09,3.2-3.15,3.23-1.34.02-2.57.37-3.78.89-.55.24-1.01.74-1.76.6Z"/>
      <path class="cls-11" d="M271.63,416.81c-.03-.25-.06-.5-.09-.75.49-2.05.04-4.11.1-6.16.63-.37,1.22-.09,1.81.1,0,.57,0,1.14.01,1.7-.2.06-.5.07-.46.35,0,.07.39.1.6.15.55.35,1.14.56,1.8.52.51,1,.41,2.06.34,3.12-1.47-.06-2,.83-2.12,2.12-.06.6-.07,1.21-.1,1.82-.04.85-.1,1.68-.91,2.21-.67-1.49-.17-3.2-.88-4.68.01-.06.05-.13.04-.19-.03-.11-.1-.22-.15-.32Z"/>
      <path class="cls-10" d="M294.43,409.92c.04.42.07.84.11,1.26l-.13.16c-3.18-.54-4.91-2.84-6.5-5.32-.33-.52-.54-1.13.05-1.66.36.11.73.2,1.09.32q2.05.7,2.14,2.81c0,.19-.04.42.29.57.63-1.01.64-2.33,1.47-3.25.33,0,.67-.01,1-.02.06,1.71-.49,3.48.47,5.11Z"/>
      <path class="cls-6" d="M255.1,403.43c1.16,3.47-1.34,7.21-5.5,7.78,1.27-1.07,1.29-2.35,1.31-3.63.02-.85-.03-1.7.29-2.51.86.37,1.6.11,2.29-.42.53-.41,1.07-.81,1.6-1.22Z"/>
      <path class="cls-4" d="M250.88,333.97c.79.6,1.51,1.38,2.39,1.78,2.3,1.03,2.62,2.93,2.55,5.08-1.34.26-2.63.06-3.88-.46-.45-2.13-.83-4.27-1.03-6.44l-.04.04Z"/>
      <path class="cls-4" d="M267.99,337.24c-.72-1.72-.59-3.26.79-4.66.53-.53.84-1.27,1.34-2.06,1.13,2.15,1.63,4.32,1.52,6.63-1.22-.03-2.42.76-3.65.08Z"/>
      <path class="cls-1" d="M271.31,404.89c-3.58,1.66-4.25,4.97-4.72,8.48-1.15-2.57-1.2-3.51-.31-5.82.41-1.08.85-2.14,1.28-3.21,1.13-.54,1.79-1.91,3.27-1.81-.02.82-.41,1.72.48,2.35Z"/>
      <path class="cls-1" d="M272.62,422c.81-.53.87-1.37.91-2.21.03-.61.04-1.22.1-1.82.12-1.28.65-2.17,2.12-2.12-.34,3.43-.94,6.81-1.98,10.11-.25.8-.48,1.62-.71,2.43-.15.05-.29.11-.44.16,0,0-.05-.07-.05-.07.02-2.16.04-4.32.06-6.48Z"/>
      <path class="cls-1" d="M246.25,321.01c.14-.01.27-.03.41-.06,2.42,3.13,3.86,6.77,5.42,10.35.13.31.04.59-.25.79-.8-.64-1.15-1.57-1.62-2.44-1.17-2.15-2.53-4.2-4.08-6.11q-1-1.24.13-2.53Z"/>
      <path class="cls-1" d="M281,395.15c-.45.63-.89,1.25-1.34,1.88-1.44-.74-2.46-1.86-2.99-3.39-.11-1.63.55-2.86,1.91-3.73.07.08.15.15.22.23.11.11.23.23.34.34l-.02-.02c-.04,1-.14,1.96.88,2.67.62.44.89,1.24.99,2.02Z"/>
      <path class="cls-1" d="M254.01,372.22c1.8.5,3.22.63,4.57-.09.54-.28.86-.03.96.53.04.22.1.48.04.68-.37,1.14-.64,2.26.23,3.46-2.94-.32-4.2-2.31-5.8-4.58Z"/>
      <path class="cls-1" d="M281.16,398.3c-.43-1.54.81-2.02,1.72-2.7-.1.74.44,1,.91,1.43,1.25,1.13,3.03,1.43,4.16,2.72-.32.73-.71,1.4-1.39,1.85-1.84-1.03-3.36-2.58-5.4-3.3Z"/>
      <path class="cls-1" d="M267.54,403.37c-1.09-1.95-.3-3.73.81-5.23.76-1.02,2.04-1.7,3.47-.81-.41.17-.91-.02-1.39.43.67.98.74,2.15.84,3.32-1.45.43-2.9.84-3.73,2.28Z"/>
      <path class="cls-1" d="M270.32,395.57c-1.25.54-2.5,1.09-3.6,2.48-.29-2.29.18-3.97.88-5.58.41-.95,1.09-1.7,2.32-1.48.13,1.53.27,3.05.4,4.58Z"/>
      <path class="cls-8" d="M249.84,402.11c-1.03-.74-2.14-1.35-3.4-1.75,2.17-1.54,5.16-1.58,6.89-.16-.08.3.05.42.35.39l-.07.15c-.78,1.76-2.26,1.6-3.77,1.38Z"/>
      <path class="cls-10" d="M251.95,340.36c1.25.53,2.54.73,3.88.46.03.61.14,1.23.08,1.84-.18,1.86-1.08,2.45-2.82,1.87-.77-.26-1.37-.64-1.26-1.64.1-.84.08-1.69.11-2.53Z"/>
      <path class="cls-6" d="M263.43,394.63c.65,1.14.88,2.39.89,3.69.02,2.16-.11,2.33-2.71,3.14-.03-1.41-.06-2.75-.09-4.09.4-1.08,1.16-1.9,1.91-2.74Z"/>
      <path class="cls-4" d="M263.43,394.63c-.74.84-1.5,1.67-1.91,2.74-1.16-.47-1.7-1.7-2.78-2.26,1.44-.81,1.9-2.24,2.31-3.69,2.05.14,2.22,1.67,2.37,3.21Z"/>
      <path class="cls-6" d="M276.68,393.64c.53,1.54,1.55,2.65,2.99,3.39-.14.91-.28,1.81-.41,2.72-.09.61-.36,1-1.05.92-.62-.07-1.28-.16-1.41-.92-.34-2.03-.83-4.06-.12-6.11Z"/>
      <path class="cls-10" d="M267.99,337.24c1.23.68,2.43-.11,3.65-.08.11,1.36.26,2.72-.42,4-.34.64-.76.9-1.45.48-1.05-.65-2.1-1.27-1.81-2.81.1-.51.03-1.06.04-1.59Z"/>
      <path class="cls-10" d="M259.65,398.79c.11.29.26.57.32.86.5,2.44-.07,3.51-2.34,4.53-.62.28-.88-.02-.98-.52-.13-.68-.16-1.37-.23-2.06.25-.81,1.09-1.16,1.46-1.87.59-.31,1.18-.63,1.77-.94Z"/>
      <path class="cls-13" d="M294.43,409.92c-.97-1.63-.41-3.4-.47-5.11.57-.83,1.14-1.66,1.71-2.5.1-.04.16-.12.17-.23.77-.17,1.44-.77,2.3-.51,0,.28,0,.56.01.84-.43.2-.86.41-.99.94-.61.34-.96.93-1.35,1.47-.68,1.55-.71,3.1,0,4.65.09.11.14.24.16.39-.51.02-1.03.04-1.54.07Z"/>
      <path class="cls-4" d="M249.84,402.11c1.51.23,2.99.38,3.77-1.38.97.63,1.27,1.65,1.49,2.69-.53.41-1.07.81-1.6,1.22-.69.53-1.43.79-2.29.42-.46-.99-.91-1.97-1.37-2.96Z"/>
      <path class="cls-5" d="M241.62,415.04c1.35-3.71,4.21-5.87,7.65-7.44-.13,1.45-.64,2.55-2.15,3.17-2.21.89-3.67,2.83-5.49,4.28Z"/>
      <path class="cls-10" d="M286.03,402.53c.07.67.06,1.33-.16,2.05-1.74-.58-3.19-1.56-4.71-2.41-1.22-.68-.49-1.89-.58-2.88,1.14.04,1.63,1.01,2.31,1.66.9.85,1.82,1.57,3.13,1.58Z"/>
      <path class="cls-8" d="M271.27,401.09c-.09-1.17-.17-2.35-.84-3.32.47-.45.98-.25,1.39-.43,1.81.5,2.6,1.91,3.08,3.55.12.4.22.91-.37,1.14-1.01-.57-2.07-.96-3.26-.94Z"/>
      <path class="cls-4" d="M295.97,409.85c-.02-.14-.07-.27-.16-.39,1.26-1.03,2.34-.04,3.22.52,1.75,1.11,2.94,2.84,4.05,4.58.12.18-.08.41-.33.48-1.97-2.11-4.44-3.58-6.79-5.19Z"/>
      <path class="cls-1" d="M271.64,409.9c-.06,2.05.39,4.12-.1,6.16-.32-.06-.59-.21-.65-.55-.38-2.49-1.19-4.91-1.04-7.47.44-.49.66-1.21,1.45-1.3-.12,1.08-.14,2.15.33,3.16Z"/>
      <path class="cls-8" d="M295.84,402.08c0,.11-.06.19-.17.23-.41-.09-.81-.18-1.22-.27-.64-1.11-1.21-.07-1.81.05-1.42.24-2.3-.74-3.3-1.45.56-1.09,1.31-1.44,2.57-1.01,1.27.43,2.66.49,3.91,1.06,0,.46.02.92.03,1.38Z"/>
      <path class="cls-8" d="M287.95,399.75c-1.13-1.29-2.91-1.59-4.16-2.72-.47-.42-1-.69-.91-1.43.8-.63,1.52-.42,2.27.14,1.33.98,2.7,1.91,4.07,2.88-.19.62-.66.95-1.27,1.13Z"/>
      <path class="cls-12" d="M292.64,402.09c.6-.13,1.17-1.16,1.81-.05-.7.82-1.45,1.61-1.5,2.78-.84.92-.84,2.23-1.47,3.25-.33-.14-.28-.37-.29-.57q-.09-2.11-2.14-2.81c-.36-.12-.73-.21-1.09-.32,0-.5-.17-1.04.37-1.4.41.07.62.42.92.64,1.39,1.06,1.75,1.01,2.82-.29.3-.37.53-.75.57-1.23Z"/>
      <path class="cls-1" d="M268.09,411.43c1.01,1.44,1.06,3.18,1.41,4.8.58,2.69,1.59,5.28,1.74,8.06-.08-.02-.2-.01-.22-.05-1.48-4.16-3.18-8.26-2.94-12.81Z"/>
      <path class="cls-8" d="M281,395.15c-.11-.79-.37-1.58-.99-2.02-1.02-.72-.92-1.68-.88-2.67.47,0,.95,0,1.42,0,1.16.91,1.88,2.17,3,3.43-1.08.28-1.77.86-2.55,1.28Z"/>
      <path class="cls-7" d="M259.66,348.55c-.94-.03-1.2-.72-1.43-1.46-.27-.85-.59-1.68-.88-2.52.28-1.05.87-1.85,1.93-2.23-.5,1.41.15,2.72.4,4.06.21,1.12.51,2.23.76,3.35-.68-.13-.75-.65-.77-1.2Z"/>
      <path class="cls-1" d="M259.65,398.79c-.59.31-1.18.63-1.77.94q-1.24-.54-.19-2.14c-1.29.33-2.51.39-3.12,1.69-.32-.24-1.06-.43-.61-.91.66-.71,1.47-1.38,2.35-1.78,1.57-.73,2.84.18,3.34,2.22Z"/>
      <path class="cls-4" d="M249.33,405.61c-1.25.4-2.51.8-3.76,1.2-.71-2.39-.71-2.4,2.47-3.42.5.15.64.64.93.99-.05.25,0,.45.24.58.04.21.07.43.11.64Z"/>
      <path class="cls-4" d="M292.64,402.09c-.04.48-.26.86-.57,1.23-1.08,1.3-1.43,1.35-2.82.29-.3-.23-.51-.58-.92-.64.03-.91.18-1.76,1.01-2.32,1,.71,1.89,1.68,3.3,1.45Z"/>
      <path class="cls-12" d="M286.03,402.53c-1.31,0-2.23-.73-3.13-1.58-.69-.65-1.18-1.62-2.31-1.66-.07-.48.02-.87.57-.99,2.03.72,3.55,2.27,5.4,3.3-.17.31-.35.62-.52.93Z"/>
      <path class="cls-13" d="M271.27,401.09c1.18-.02,2.25.37,3.26.94-.52.31-.49.82-.48,1.32-.14.05-.29.06-.44.03-.61-1.34-1.75-.92-2.78-.84-1.48-.1-2.15,1.27-3.27,1.81,0-.32,0-.65-.01-.97.83-1.44,2.28-1.85,3.73-2.28Z"/>
      <path class="cls-10" d="M275.49,404.77c2.25,2.19,2.48,4.94,2.25,8.11-.96-.98-.77-2.12-1.16-3.03-.41-.98-.77-1.99-1.15-2.99.02-.7.04-1.4.06-2.1Z"/>
      <path class="cls-1" d="M271.77,391.32c1.87,1.17,2.2,3.07,2.42,5.03-.13.12-.26.24-.4.36-.74-.65-1.77-.59-2.59-1.06.62-.38.61-.99.6-1.6-.01-.91-.02-1.82-.04-2.73Z"/>
      <path class="cls-4" d="M275.41,412.73c-.66.04-1.26-.17-1.8-.52-.05-.17-.09-.33-.14-.5,0-.57,0-1.14-.01-1.7-.3-.91-.39-1.85-.36-2.81,1.67,1.47,2.17,3.43,2.31,5.54Z"/>
      <path class="cls-8" d="M271.77,391.32c.01.91.02,1.82.04,2.73,0,.61.02,1.23-.6,1.6-.29-.03-.59-.05-.88-.08-.13-1.53-.27-3.05-.4-4.58.67-.19,1.32-.26,1.85.33Z"/>
      <path class="cls-8" d="M261.06,391.42c-.42,1.45-.87,2.88-2.31,3.69-.37-.02-.74-.05-1.13-.07,1.05-2.77,1.66-3.41,3.44-3.62Z"/>
      <path class="cls-10" d="M261.17,385.45c.23,1-.18,1.98-.1,2.97.05.72-.2,1.24-1.03,1.13-.89-.12-.75-.8-.68-1.42.1-.91.2-1.82.29-2.74.51.02,1.01.04,1.52.06Z"/>
      <path class="cls-4" d="M254.57,399.28c.61-1.29,1.83-1.35,3.12-1.69q-1.05,1.6.19,2.14c-.37.72-1.21,1.06-1.46,1.87-.76-.67-1.28-1.52-1.85-2.33Z"/>
      <path class="cls-8" d="M270.83,402.54c1.04-.08,2.18-.5,2.78.84-.17.49-.33.98-.5,1.47-.6.01-1.21.03-1.81.04-.89-.64-.5-1.53-.48-2.35Z"/>
      <path class="cls-8" d="M273.1,407.19c-.03.96.06,1.9.36,2.81-.6-.19-1.19-.47-1.81-.1-.47-1.02-.45-2.08-.33-3.16.67-.14,1.32-.2,1.79.45Z"/>
      <path class="cls-4" d="M273.12,404.85c.17-.49.33-.98.5-1.47.15.03.29.02.44-.03.97-.02,1.03.87,1.44,1.42-.02.7-.04,1.4-.06,2.1-.77-.67-1.54-1.35-2.31-2.02Z"/>
      <path class="cls-6" d="M244.31,318.33c.75-.38.91-1.27,1.59-2.15.55,1.57.43,2.75-.06,3.93,0,0-.19.04-.19.04,0,0-.19-.02-.19-.02-.95-.24-1.07-1.01-1.16-1.8Z"/>
      <path class="cls-6" d="M249.23,334.92c.46,1.69,1.23,3.34,1.18,5.59-1.39-1.91-1.51-3.68-1.18-5.59Z"/>
      <path class="cls-10" d="M279.76,387.62c-.94-1.41-.46-3-1.4-4.67,1.83,1.56,1.99,2.22,1.4,4.67Z"/>
      <path class="cls-1" d="M261.17,385.45c-.51-.02-1.01-.04-1.52-.06-.07-.91-.17-1.84,1.08-2.36.52.79.35,1.64.44,2.43Z"/>
      <path class="cls-4" d="M295.84,402.08c0-.46-.02-.92-.03-1.38.9-.03,1.82-.13,2.33.87-.86-.27-1.53.34-2.3.51Z"/>
      <path class="cls-1" d="M280.55,390.45c-.47,0-.95,0-1.42,0,0,0,.02.02.02.02-.11-.11-.23-.23-.34-.34-.08-.08-.15-.15-.22-.23.87-.59,1.59-.65,1.97.54Z"/>
      <path class="cls-13" d="M270.33,316.14c-.32.03-.64.06-.96.09.07-.6.41-1.02.93-1.3l.1.09c-.02.37-.05.74-.07,1.11Z"/>
      <path class="cls-1" d="M271.24,424.26c.75.47.35,1.23.46,1.87-.59-.51-.59-1.17-.46-1.87Z"/>
      <path class="cls-10" d="M294.54,411.18c.2.09.66.04.49.37-.13.26-.46.04-.63-.21,0,0,.13-.16.13-.16Z"/>
      <path class="cls-13" d="M266.67,316.91c.13-.05.27-.07.41-.08.14.31.28.62.42.92,0,0,.05-.04.05-.04-.34.01-.69.03-1.03.04.05-.28.1-.56.15-.84Z"/>
      <path class="cls-5" d="M241.15,416.2c.04-.45,0-.93.49-1.19.13.52-.11.88-.49,1.19Z"/>
      <path class="cls-1" d="M274.19,396.35c.27.2.41.55.18.74-.32.25-.39-.22-.57-.38.13-.12.26-.24.39-.36Z"/>
      <path class="cls-1" d="M238.94,413.58c.48.35.32.68-.05.99-.12-.34-.11-.67.05-.99Z"/>
      <path class="cls-6" d="M250.65,341.09c.05.13.11.26.13.4,0,.04-.1.1-.15.15-.05-.13-.11-.26-.13-.4,0-.04.1-.1.15-.15Z"/>
      <path class="cls-4" d="M250.92,333.92c-.15.11-.29.08-.33-.1-.02-.07.08-.16.12-.25.06.13.11.26.17.39,0,0,.04-.04.04-.04Z"/>
      <path class="cls-1" d="M262.47,388.15s-.08.09-.12.13c.05-.03.1-.07.15-.1,0,0-.03-.03-.03-.03Z"/>
      <path class="cls-7" d="M272.62,428.55c.15-.05.29-.11.44-.16-.03.38-.15.5-.44.16Z"/>
      <polygon class="cls-4" points="267.55 317.7 267.5 317.75 267.55 317.77 267.54 317.76 267.55 317.7"/>
      <path class="cls-13" d="M270.3,314.94c.08-.05.16-.1.25-.15-.05.08-.1.17-.15.25,0,0-.1-.09-.1-.09Z"/>
      <path class="cls-13" d="M253.68,400.59c-.3.03-.43-.09-.35-.39.12.13.23.26.35.39Z"/>
      <path class="cls-6" d="M249.22,404.97c-.24-.13-.29-.33-.24-.58.22.14.33.32.24.58Z"/>
      <path class="cls-1" d="M239.25,411.26c.1.21.08.39-.11.54-.12-.21-.05-.38.11-.54Z"/>
      <path class="cls-2" d="M267.55,317.7s-.01.06-.01.06c.29.08.36.25.22.51-.1.11-.21.22-.31.33,0,0,.02-.03.02-.03-.14.05-.28.08-.43.1-.14.12-.27.23-.41.35-1.3,1.14-2.81,1.82-4.53,2.03-.54-.07-1.08-.14-1.5.34-1.4.16-2.79.16-4.18-.05-.28-.32-.64-.36-1.02-.29-.67.03-1.23-.24-1.73-.64,0-.28,0-.55,0-.83,2.19.69,4.41,1.15,6.72.87.26.05.48,0,.66-.19,1.13-.4,2.38-.52,3.3-1.41.85-.13,1.4-.83,2.17-1.11.34-.01.69-.03,1.03-.04Z"/>
      <path class="cls-8" d="M266.52,317.75c-.77.28-1.33.98-2.17,1.11-.01-.84-.02-1.68-.03-2.52,0-.54.05-1.08.41-1.51.35-.43.75-.79,1.36-.63.57.15.55.66.57,1.11.02.53.01,1.07.02,1.6-.05.28-.1.56-.15.84Z"/>
      <path class="cls-13" d="M253.66,319.58c0,.28,0,.55,0,.83-.16,0-.3.02-.44.09,0,0,0,0,0,0-.29-.59-.84-.88-1.37-1.2-.17-.37-.34-.75-.51-1.12,1.14-.14,1.53.96,2.32,1.4Z"/>
      <path class="cls-13" d="M251.38,318.22c-.74-.23-.96-.77-.91-1.48.2-.09.4-.17.6-.26,0,0,0,0,0,0-.38.67.73,1.07.32,1.74Z"/>
      <path class="cls-13" d="M261.05,320.26c-.18.19-.41.25-.66.19.18-.2.4-.26.66-.19Z"/>
      <path class="cls-10" d="M251.06,316.48s0,0,0,0c0,0,0,0,0,0Z"/>
      <path class="cls-2" d="M192.95,317.74c-.26-.18-.52-.35-.78-.53,1.2-1.94,1.69-4.04,1.36-6.31.27-.02.54-.05.8-.07.47,1.05.49,2.14.28,3.25-.22.15-.27.35-.19.59-.08,1.22-.67,2.2-1.47,3.08Z"/>
      <path class="cls-13" d="M204.55,308.63c-.04,1.2-.55,1.73-1.67,1.72-1.11,0-1.99-.87-1.9-1.86.09-1.03,1.04-2.15,1.8-2.14,1.08.02,1.81.97,1.77,2.27ZM202.94,309.38c.77-.1.73-.67.72-1.2-.01-.47-.1-.98-.69-.99-.79-.01-1.01.63-1.05,1.24-.04.64.43.91,1.01.95Z"/>
      <path class="cls-8" d="M188.32,320.3c.46-.03.92-.05,1.37-.08,1.34,1.38,2.41,2.95,3.14,4.74.11.28.17.62-.09.85-.28.25-.59.12-.79-.13-1.21-1.56-2.4-3.13-3.57-4.71-.11-.15-.04-.45-.06-.68Z"/>
      <path class="cls-10" d="M192.55,292.6c.35.53.37,1.1.18,1.69-.9-.47-.8-1.05-.18-1.69Z"/>
      <path class="cls-10" d="M192.87,295.99c.43.25.49.62.34,1.06-.62-.19-.86-.51-.34-1.06Z"/>
      <path class="cls-9" d="M194.43,314.66c-.08-.24-.03-.44.19-.59.1.25.02.44-.19.59Z"/>
      <path class="cls-8" d="M253.23,320.51c.14-.07.29-.1.44-.09.51.41,1.06.68,1.73.64.27.34.63.38,1.02.29,1.39.21,2.79.21,4.18.05.54.07,1.07.11,1.5-.34,1.72-.21,3.23-.89,4.53-2.03.25.02.36-.12.41-.35.15-.02.29-.05.43-.1.36,1.07-.4,1.55-1.12,1.98-3.19,1.9-6.54,2.83-10.23,1.64-.94-.3-1.83-.78-2.86-.77-.14-.3-.4-.6-.04-.93Z"/>
      <path class="cls-7" d="M246.23,306.88c.71.57,1,1.29.82,2.34-.78-.7-.83-1.51-.82-2.34Z"/>
      <path class="cls-8" d="M251.86,319.3c.52.33,1.08.61,1.37,1.2-1.16.39-1.02-.67-1.37-1.2Z"/>
      <path class="cls-9" d="M244.38,300.17c.47.38.6.83.21,1.51-.3-.55-.23-1.04-.2-1.52,0,0-.02.01-.02.01Z"/>
      <path class="cls-7" d="M247.44,310.19c.02.06.08.13.06.18-.05.2-.15.22-.25.05-.03-.04,0-.14.03-.19.02-.03.1-.03.15-.04Z"/>
      <path class="cls-10" d="M244.18,317.28c-.95-.62-1.38-1.17-.86-2,.05-.09.31-.14.4-.09.87.47.75,1.18.46,2.1Z"/>
      <path class="cls-6" d="M245.46,314.86c.21.21.44.57.17.72-.37.21-.3-.3-.44-.48.09-.08.18-.15.27-.23Z"/>
      <path class="cls-11" d="M174.93,380.73c.64-2.06,2.31-3.4,3.55-5.03,2.97-3.93,5.74-7.96,8.01-12.36,2.75-5.34,5.12-10.84,7.39-16.38.58-1.42.95-2.92,1.5-4.35.2-.52.3-1.21,1.26-1.38-.4,1.31-.73,2.55-1.15,3.75-3.37,9.51-7.36,18.76-12.05,27.7-1.46,2.78-3.35,5.33-5.04,7.99-1.15.03-2.31.05-3.46.08Z"/>
      <path class="cls-2" d="M202.74,342.38c.3-.18.59-.37.89-.55-.39,2.39-1.46,4.54-2.48,6.67-3.43,7.16-7.2,14.16-10.31,21.47-.21.5-.44,1.01-1.11,1.03.97-3.57,2.51-6.91,4.06-10.25,2.01-4.31,4.11-8.59,6.24-12.85.76-1.52,1.34-3.09,1.94-4.66.55-.03.67-.43.77-.86Z"/>
      <path class="cls-8" d="M174.93,380.73c1.15-.03,2.31-.05,3.46-.08,1.94.91,4.47.54,5.97-.73,1-.85,1.48-2.15,2.6-2.88-.29,2.66-2.37,4.12-4,5.86-.39.42-1.06.3-1.54.11-2.25-.93-4.64-1.32-6.99-1.83.17-.15.33-.3.5-.45Z"/>
      <path class="cls-8" d="M187.8,375.2c0,.37.05.76-.39.95.02-.36.09-.7.39-.95Z"/>
      <path class="cls-8" d="M187.43,376.11c0,.4.08.84-.48.96,0-.4.07-.77.48-.96Z"/>
      <path class="cls-13" d="M209.15,335.81c.03-.96-.19-1.88-.5-2.79-.03-1.58.98-2.74,1.65-4.04,2.69-.71,3.69-.38,4.55,1.54,1.02,2.29.35,5.66-1.36,6.76-.95.61-1.88.52-2.79-.13-.56-.4-.84-1.11-1.55-1.34ZM213.81,331.19c-.02-.46-.1-.96-.57-1.07-.34-.08-.27.39-.36.63-.77.08-1.6-1.04-2.29.02-.75,1.16-.76,2.49-.39,3.79.31,1.08,1.27,1.2,2.21,1.25.2,1.17.91.64,1.2.22,1.02-1.53,1.06-3.18.21-4.83Z"/>
      <path class="cls-6" d="M168.41,414.59c-.11.14-.23.29-.34.43-.1-.31.06-.42.34-.43Z"/>
      <path class="cls-6" d="M168.88,413.22c-.1.14-.2.28-.3.41-.13-.31,0-.43.3-.41Z"/>
      <path class="cls-4" d="M135.21,396.61c-.14.24-.36.36-.64.34.14-.26.35-.37.64-.34Z"/>
      <path class="cls-9" d="M188.28,383.49c.67-.59,1.4-1.03,2.33-.99-.08.33.46.63,0,1.01-1.79,1.47-1.82,2.23-.24,3.89.08.09.06.27.09.41-1.54.43-1.82.26-2.37-.97-.53-1.18.2-2.23.19-3.35Z"/>
      <path class="cls-4" d="M163.22,398.93c-.35-.14-.91-.52-.57-.72,1.27-.75,2.33-1.93,3.9-2.12.26-.03.56.21.84.33-.93,1.6-2.53,2.08-4.16,2.51Z"/>
      <path class="cls-6" d="M150.24,405.91c.19-.03.38-.07.57-.1-.16.22-.35.26-.57.1Z"/>
      <path class="cls-11" d="M269.77,383.86c-.25.02-.5.03-.75.05-.22-.29-.43-.58-.65-.86,1.12-.7,2.23-1.33,1.94-3.02-.74-4.24-1.34-8.51-2.3-12.71-.53-3.56-1.1-7.12-1.59-10.69-.42-3.04-.77-6.09-1.14-9.13-.04-.29,0-.61.51-.85.65.42.71,1.15.81,1.89.94,7.08,2.2,14.11,3.79,21.06.9,3.96,2.47,7.76,3.71,11.65.3.95,1.26,1.57,1.26,2.65-.56-.03-1.11-.05-1.67-.07-1.31-.45-2.61-.51-3.91.03Z"/>
      <path class="cls-13" d="M259.66,348.55c.03.55.1,1.07.77,1.2,1.32,5.3,2.53,10.62,3.41,16.02.16.98.35,1.95.53,2.92.04,2.08.11,4.16-.08,6.24-.08.93-.22,1.8-1.42,2.58,0-1.58,0-2.86,0-4.14.4-3.55-.32-7-1.02-10.45-.83-4.1-1.72-8.18-2.55-12.28-.15-.72-.46-1.52.37-2.09Z"/>
      <path class="cls-8" d="M263.86,325.28c-.04-.71.04-1.38.6-1.89.51-.47,1.13-1.03,1.79-.72.69.32.26,1.05.14,1.63-.12.59-.18,1.2-.25,1.8-.09.74-.32,1.4-1.21,1.35-.88-.05-1.05-.75-1.08-1.48,0-.23,0-.46,0-.68Z"/>
      <path class="cls-8" d="M267.45,318.61c.1-.11.21-.22.31-.33.13.05.38.13.38.15-.11.47-.44.17-.68.18Z"/>
      <path class="cls-4" d="M267.21,384.37c-.84.58-1.42.86-2.13.77q.63-1,2.13-.77Z"/>
      <path class="cls-4" d="M269.77,383.86c1.3-.54,2.6-.48,3.91-.03-1.3.2-2.61.21-3.91.03Z"/>
      <path class="cls-4" d="M268.37,383.04c.22.29.43.58.65.86-.42.03-.95.39-1.18-.22-.11-.29.23-.52.53-.64Z"/>
      <path class="cls-4" d="M295.81,404.82c.39-.54.74-1.13,1.35-1.47.41.77,1.11,1.28,1.71,1.87.63.61.78,1.29.54,2.1-.89-.39-1.78-.78-2.67-1.17-.59-.25-1.05-.59-.92-1.33Z"/>
      <path class="cls-4" d="M245.44,406.91c-.11.3-.29.52-.66.46.09-.34.21-.63.66-.46Z"/>
      <path class="cls-1" d="M271.63,416.81c.05.11.11.21.15.32.02.05-.02.12-.04.19-.44-.08-.5-.25-.11-.51Z"/>
      <path class="cls-8" d="M273.47,411.7c.05.17.09.33.14.5-.21-.05-.59-.08-.6-.15-.03-.28.26-.29.46-.35Z"/>
      <path class="cls-4" d="M292.95,404.82c.05-1.17.8-1.96,1.5-2.78.41.09.81.18,1.22.27-.57.83-1.14,1.66-1.71,2.5-.33,0-.67.01-1,.02Z"/>
      <path class="cls-8" d="M278.81,390.14c.11.11.23.23.34.34-.11-.11-.23-.23-.34-.34Z"/>
      <path class="cls-13" d="M262.11,321.06c-.42.45-.96.4-1.5.34.42-.48.96-.41,1.5-.34Z"/>
      <path class="cls-13" d="M256.43,321.34c-.39.09-.75.06-1.02-.29.39-.07.75-.04,1.02.29Z"/>
      <path class="cls-13" d="M267.04,318.68c-.04.22-.16.36-.41.35.14-.12.27-.23.41-.35Z"/>
      <path class="cls-6" d="M202.94,309.38c-.59-.04-1.06-.31-1.01-.95.04-.61.26-1.25,1.05-1.24.59,0,.67.52.69.99.02.53.05,1.1-.72,1.2Z"/>
      <path class="cls-10" d="M212.41,335.81c-.95-.05-1.9-.17-2.21-1.25-.37-1.3-.36-2.62.39-3.79.69-1.06,1.52.06,2.29-.02h0c.18,1.71-.07,3.4-.46,5.07h0Z"/>
      <path class="cls-6" d="M213.81,331.19c.86,1.65.82,3.3-.21,4.83-.28.42-1,.95-1.2-.22,0,0,0,.01,0,.01,1.7-1.17,1.26-2.99,1.41-4.63Z"/>
      <path class="cls-6" d="M212.87,330.75c.09-.24.02-.71.36-.63.47.12.55.62.57,1.07-.31-.15-.63-.31-.94-.46,0,0,0,.01,0,.01Z"/>
      <path class="cls-13" d="M212.86,330.73c.31.15.63.31.94.46-.15,1.64.29,3.46-1.41,4.63.39-1.67.65-3.36.46-5.09Z"/>
    </g>
  </g>
</svg>