<?xml version="1.0" encoding="UTF-8"?>
<svg id="GRIFOS" xmlns="http://www.w3.org/2000/svg" viewBox="0 0 455.05 478.68">
  <defs>
    <style>
      .cls-1 {
        fill: #b1cc7c;
      }

      .cls-1, .cls-2, .cls-3, .cls-4, .cls-5, .cls-6, .cls-7 {
        stroke-width: 0px;
      }

      .cls-2 {
        fill: #faed88;
      }

      .cls-3 {
        fill: #7cbcdc;
      }

      .cls-4 {
        fill: #22211f;
      }

      .cls-5 {
        fill: #f8e023;
      }

      .cls-6 {
        fill: #4f5357;
      }

      .cls-7 {
        fill: #f9f7eb;
      }
    </style>
  </defs>
  <g id="F4">
    <path class="cls-3" d="M191.18,351.48c-2.98,2.84-5.72,5.89-8.3,9.09-3.38,4.21-7.29,7.93-10.83,11.98-6.04,6.91-12.13,13.79-18.23,20.65-2.88,3.24-5.8,6.44-8.78,9.57-2.88,3.03-6.63,3.49-10.26,2.2-3.56-1.27-5.8-4.23-6.4-8.06-.31-1.99.24-4.02,1.04-5.86,4.46-10.27,7.52-21.09,12.3-31.24.49-1.04.94-2.13,1.02-3.31,2.93-7.31,5.87-14.61,8.77-21.94.92-2.32.67-2.7-1.95-2.7-3.58,0-7.2.4-10.72.25-5.06-.22-10.11-.17-15.16-.21-3.09-.03-5.23-1.48-6.85-3.83-1.74-2.52-2.43-5.33-1.56-8.38.54-1.47,1.27-2.88,1.43-4.47,1.93-4.56,3.69-9.17,5.02-13.94,3.62-9.7,6.95-19.51,10.46-29.25,2.36-6.55,4.71-13.12,6.84-19.77,1.84-5.73,3.99-11.37,6.08-17.01,1.64-4.42,4.21-7.71,11.37-7.67,21.28.13,42.56.1,63.85,0,4.02-.02,7.1,1.49,8.96,4.86,1.94,3.52,1.88,7.2-.2,10.86-3.14,5.52-6.71,10.76-9.99,16.18-.33.55-.71,1.06-.74,1.72-.35.38-.81.7-1.05,1.14-2.06,3.8-4.55,7.31-6.86,10.95-1.69,2.66-3.31,5.37-4.84,8.12-.8,1.44-.5,1.93,1.1,1.99,1.57.06,3.15-.07,4.72-.12,6.13.39,12.26.14,18.39.15,2.45,0,4.53.75,6.41,2.28,4.37,3.56,4.51,9.83,1.11,13.89-3.39,4.04-6.92,7.96-10.48,11.85-6.49,7.08-12.81,14.31-19.17,21.51-3,3.4-6.14,6.68-9.01,10.19-2.85,2.45-5.02,5.52-7.48,8.32ZM156.96,328.08c.64.98.16,1.63-.1,2.3-1.23,3.26-2.46,6.53-3.71,9.78-6.54,17.07-13.1,34.13-19.63,51.21-.45,1.18-.89,2.4-1.05,3.64-.36,2.68.85,5.07,3.05,6.12,2.32,1.1,4.54.76,6.5-.89.81-.68,1.53-1.46,2.24-2.24,9.29-10.43,18.55-20.88,27.87-31.3,11.57-12.94,23.19-25.83,34.77-38.75,8.9-9.93,17.76-19.9,26.66-29.82,2.07-2.31,3.1-4.77,1.65-7.8-1.37-2.85-3.85-3.36-6.66-3.22-.11,0-.21,0-.32,0-9.32,0-18.63.03-27.95,0-.76,0-1.7.41-2.31-.65.23-.43.46-.9.73-1.34,6.04-9.82,12.09-19.63,18.13-29.45,3.16-5.13,6.42-10.21,9.42-15.44,2.44-4.25-.03-8.52-4.88-8.8-1.37-.08-2.75-.06-4.13-.06-19.8,0-39.6-.01-59.4-.02-6.87,0-7.68.7-9.96,7.26-5.42,15.57-10.96,31.09-16.43,46.64-4.07,11.56-8.16,23.12-12.16,34.71-1.63,4.74.97,8.12,6.07,8.13,2.01,0,4.02-.03,6.03-.03,8.57,0,17.14,0,25.57,0Z"/>
    <path class="cls-4" d="M202.54,347.01c.95-2.19,1.53-4.5,2.16-6.79.37-1.34,1.19-2.21,2.74-2.11,1.39.1,2.62,1.05,2.69,2.61.27,5.27.5,10.55.19,15.83-.13,2.26-1.68,3.29-3.95,3.04-1.41-.15-3.04-1.33-4.16-.18-.85.88-.93,2.51-1.33,3.81-.98,3.22-1.91,6.46-2.92,9.68-.36,1.14-1.01,2.13-2.41,2.16-1.25.03-2.26-.45-2.94-1.52-.49-.77-.35-1.64-.29-2.47.26-3.37.57-6.73.86-10.09.25-2.94.5-5.88.75-8.83,1.16-3.3,1.61-3.6,5-3.32.52.04,1.06.04,1.57.16,1.78.44,2.3-.37,2.04-1.99ZM195.33,367.32c-.78,1.53-.66,3.1-.18,4.73.57-.86,1.09-1.71,1.01-2.78,1.15-3.83,2.29-7.67,3.46-11.49.6-1.95.85-2.08,2.98-1.72,1.14.2,2.28.41,3.42.61,1.07.19,1.6-.28,1.6-1.35,0-4.45,0-8.9,0-13.34-1.6,2.12-1.82,4.55-2.55,6.82-1.07,3.34-1.04,3.35-4.63,2.83-.42-.06-.84-.11-1.26-.14-2.21-.16-2.22-.16-2.56,1.98-.73,4.59-.86,9.24-1.3,13.86Z"/>
    <path class="cls-4" d="M112.21,272.41c.03-2.13,1.06-3.35,3.23-4.06,3.39-1.12,3.35-1.12,2.87-4.66-.45-3.35-.85-6.71-1.19-10.08-.24-2.36.34-3.4,1.9-3.81,1.69-.44,3.02.29,3.82,2.47,2.18,5.94,4.33,11.9,6.34,17.9.99,2.94.1,4.29-2.88,5.14-3.61,1.02-3.62,1.03-3.17,4.78.21,1.78.59,3.55.72,5.34.16,2.15-.39,3-1.96,3.49-1.41.45-2.66-.07-3.53-1.9-1.63-3.43-3.12-6.93-4.58-10.43-.61-1.45-1.46-2.82-1.56-4.17ZM120.37,258.74c.25,2.2.58,4.39.75,6.6.31,4.07.28,4.07-3.67,5.27-.2.06-.41.09-.61.16-2.13.72-2.22.81-1.38,2.83,1.44,3.51,2.95,6.99,4.45,10.47.25.59.33,1.35,1.3,1.56-.41-3.24-.78-6.37-1.22-9.5-.17-1.25.11-2.02,1.49-2.24,1.14-.19,2.25-.54,3.37-.86,2.34-.69,2.41-.73,1.61-3.03-1.7-4.87-3.47-9.72-5.22-14.58-.05-1.35-.37-2.54-2.06-3.61.33,1.59.57,2.7.8,3.81.11.82.22,1.63.32,2.45-.07.07-.2.17-.18.21.06.16.17.31.27.46Z"/>
    <path class="cls-4" d="M121.38,341.69c1.92-1.81,3.82-3.65,5.77-5.42,2.32-2.11,4.14-1.91,6.06.61.32.42.64.85.92,1.29.76,1.18,1.56,1.46,2.84.55,1.63-1.16,3.39-2.13,5.14-3.11,2.23-1.25,3.54-1.19,4.56.08,1.01,1.26.88,2.59-.78,4.52-2.47,2.89-5.07,5.67-7.61,8.5-.41.46-.99.8-1.15,1.46-2.84,2.23-4.37,2.03-6.49-.81-.56-.75-1.17-1.47-1.86-2.33-2.41.94-4.29,2.65-6.43,3.89-1.73,1-3.39,2.11-5.13,3.09-2.12,1.2-3.45,1.06-4.45-.33-.95-1.31-.77-2.51.82-4.15,2.56-2.65,5.18-5.23,7.78-7.84ZM144.44,337.78c-.14-.13-.29-.26-.43-.39-1.59,1.01-3.17,2.04-4.77,3.04q-4.57,2.84-7.71-1.38-1.42-1.91-3.25-.19c-2.31,2.18-4.67,4.3-6.87,6.58-1.96,2.03-4.3,3.73-6.27,6.64,4.55-2.77,8.54-5.13,12.45-7.61,1.41-.9,2.28-.69,3.12.67.61.99,1.37,1.88,2.01,2.85.76,1.14,1.48,1.34,2.48.21,3.06-3.49,6.16-6.95,9.24-10.41Z"/>
    <path class="cls-4" d="M220.28,263.78c2.38-1.03,4,.11,5.51,1.82,1.61,1.82,1.65,1.77,3.45.31,2.8-2.26,5.63-4.48,8.37-6.8.96-.82,1.93-1.26,3.16-1.05,2.14.37,3.2,2.59,1.87,4.28-4.25,5.4-8.56,10.76-12.97,16.04-1.57,1.88-3.1,1.83-4.92.15-1-.93-1.85-2.03-2.83-3.13-2.3,1.14-4.13,2.89-6.13,4.4-1.12.85-2.23,1.59-3.66,1.71-2.46-2.06-2.87-3.07-1.49-4.9,3.22-4.27,6.05-8.83,9.63-12.83ZM239.8,261.07c-.44,0-.83.08-1.02.54-3.46,2.77-6.94,5.52-10.37,8.34-.83.68-1.38.73-2.1-.09-.9-1.04-1.91-1.98-2.84-2.98-.77-.83-1.47-1.13-2.29-.02-2.63,3.57-5.3,7.11-7.95,10.66-.17.23-.34.5.18.69,2.33-1.72,4.82-3.33,7.03-5.27,1.41-1.23,2.13-.71,3.11.34,1.14,1.22,2.11,2.61,3.65,3.69,4.34-4.56,7.95-9.62,11.91-14.39.34-.4.67-.79,1-1.19.06-.16.11-.32.17-.48-.16.05-.33.11-.49.16Z"/>
    <path class="cls-4" d="M156.96,328.08c-8.43,0-17,0-25.57,0-2.01,0-4.02.04-6.03.03-5.1-.01-7.7-3.4-6.07-8.13,3.99-11.59,8.08-23.15,12.16-34.71,5.47-15.55,11.01-31.07,16.43-46.64,2.29-6.56,3.09-7.26,9.96-7.26,19.8,0,39.6,0,59.4.02,1.38,0,2.76-.01,4.13.06,4.85.27,7.32,4.55,4.88,8.8-3,5.23-6.26,10.3-9.42,15.44-6.04,9.82-12.09,19.63-18.13,29.45-.27.44-.5.91-.73,1.34.61,1.07,1.56.65,2.31.65,9.32.02,18.63,0,27.95,0,.11,0,.21,0,.32,0,2.8-.13,5.29.37,6.66,3.22,1.45,3.03.42,5.49-1.65,7.8-8.9,9.93-17.76,19.89-26.66,29.82-11.58,12.93-23.2,25.82-34.77,38.75-9.31,10.41-18.57,20.87-27.87,31.3-.7.79-1.43,1.57-2.24,2.24-1.96,1.64-4.18,1.99-6.5.89-2.2-1.04-3.41-3.43-3.05-6.12.17-1.24.6-2.46,1.05-3.64,6.53-17.07,13.08-34.14,19.63-51.21,1.25-3.26,2.48-6.52,3.71-9.78.25-.67.74-1.33.1-2.3ZM163.81,323.87c.38,1.12-.22,2.05-.6,3.01-2.7,7-5.43,13.99-8.12,20.99-5.75,15-11.49,30-17.23,45-.3.79-.58,1.59-.79,2.41-.16.61-.28,1.36.33,1.74.58.37,1.23.1,1.71-.4.74-.76,1.49-1.5,2.2-2.28,15.09-16.88,30.16-33.77,45.26-50.64,14.25-15.92,28.54-31.82,42.78-47.75.87-.98,2.51-1.93,1.91-3.37-.7-1.67-2.61-.99-4.01-1-11.33-.02-22.65.03-33.98.04-1.1,0-2.26.21-3.29-.22-.06-1.28.66-1.98,1.14-2.77,4.65-7.56,9.32-15.12,13.99-22.67,5.39-8.72,10.81-17.43,16.17-26.17.63-1.02,2.06-2.01,1.27-3.32-.75-1.23-2.33-.65-3.54-.65-20.64-.02-41.28,0-61.92.01-3.48,0-3.47,0-4.65,3.38-7.14,20.33-14.27,40.67-21.42,61-2.42,6.88-4.91,13.73-7.35,20.59-.81,2.28-.57,2.63,1.76,2.76.63.04,1.27.01,1.9.01,11.11,0,22.23-.02,33.34,0,1.04,0,2.11-.24,3.13.28Z"/>
    <path class="cls-3" d="M195.33,367.32c.44-4.62.57-9.27,1.3-13.86.34-2.14.35-2.14,2.56-1.98.42.03.84.08,1.26.14,3.58.52,3.56.52,4.63-2.83.73-2.27.95-4.7,2.55-6.82,0,4.45,0,8.9,0,13.34,0,1.07-.53,1.54-1.6,1.35-1.14-.2-2.28-.42-3.42-.61-2.12-.36-2.38-.23-2.98,1.72-1.17,3.83-2.31,7.66-3.46,11.49-1.19-.26-.44-1.34-.83-1.95Z"/>
    <path class="cls-3" d="M195.33,367.32c.39.6-.36,1.69.83,1.95.08,1.08-.44,1.92-1.01,2.78-.48-1.63-.6-3.2.18-4.73Z"/>
    <path class="cls-3" d="M121.22,255.42c1.74,4.86,3.52,9.7,5.22,14.58.8,2.3.73,2.34-1.61,3.03-1.11.33-2.23.68-3.37.86-1.38.23-1.66.99-1.49,2.24.44,3.12.81,6.26,1.22,9.5-.97-.2-1.05-.97-1.3-1.56-1.5-3.48-3.01-6.96-4.45-10.47-.83-2.03-.75-2.11,1.38-2.83.2-.07.41-.1.61-.16,3.95-1.19,3.99-1.2,3.67-5.27-.17-2.21-.49-4.4-.75-6.6-.03-.22-.06-.45-.08-.67-.11-.82-.22-1.63-.32-2.45.38-.35.79-.49,1.26-.2Z"/>
    <path class="cls-3" d="M121.22,255.42c-.48-.29-.89-.14-1.26.2-.23-1.11-.46-2.22-.8-3.81,1.7,1.06,2.02,2.26,2.06,3.61Z"/>
    <path class="cls-6" d="M120.28,258.07c.03.22.06.45.08.67-.09-.15-.2-.3-.27-.46-.02-.04.12-.14.18-.21Z"/>
    <path class="cls-3" d="M144.44,337.78c-3.08,3.47-6.19,6.92-9.24,10.41-.99,1.13-1.72.93-2.48-.21-.64-.97-1.41-1.86-2.01-2.85-.83-1.36-1.71-1.57-3.12-.67-3.91,2.49-7.9,4.84-12.45,7.61,1.97-2.92,4.31-4.61,6.27-6.64,2.2-2.28,4.57-4.4,6.87-6.58q1.82-1.72,3.25.19,3.14,4.22,7.71,1.38c1.6-1,3.18-2.03,4.77-3.04.14.13.29.26.43.39Z"/>
    <path class="cls-3" d="M239.11,262.57c-3.96,4.77-7.57,9.83-11.91,14.39-1.55-1.08-2.52-2.48-3.65-3.69-.98-1.05-1.7-1.57-3.11-.34-2.21,1.93-4.7,3.55-7.03,5.27-.52-.19-.35-.46-.18-.69,2.65-3.55,5.32-7.09,7.95-10.66.82-1.11,1.52-.81,2.29.02.94,1,1.94,1.94,2.84,2.98.72.83,1.27.77,2.1.09,3.43-2.82,6.91-5.56,10.37-8.34.11.32.22.64.33.97Z"/>
    <path class="cls-3" d="M239.11,262.57c-.11-.32-.22-.64-.33-.97.19-.46.58-.55,1.02-.54.1.11.21.21.32.32-.34.4-.67.79-1.01,1.19Z"/>
    <path class="cls-3" d="M239.8,261.07c.16-.05.33-.11.49-.16-.06.16-.11.32-.17.48-.11-.1-.22-.21-.32-.32Z"/>
    <path class="cls-3" d="M163.81,323.87c-1.02-.51-2.1-.27-3.13-.28-11.11-.01-22.23,0-33.34,0-.64,0-1.27.02-1.9-.01-2.32-.13-2.56-.48-1.76-2.76,2.44-6.87,4.93-13.72,7.35-20.59,7.16-20.33,14.29-40.66,21.42-61,1.18-3.37,1.17-3.38,4.65-3.38,20.64-.01,41.28-.03,61.92-.01,1.21,0,2.8-.59,3.54.65.79,1.31-.64,2.3-1.27,3.32-5.37,8.74-10.78,17.45-16.17,26.17-4.67,7.55-9.34,15.1-13.99,22.67-.48.78-1.21,1.48-1.14,2.77,1.03.43,2.19.22,3.29.22,11.33,0,22.65-.06,33.98-.04,1.4,0,3.32-.67,4.01,1,.6,1.43-1.03,2.39-1.91,3.37-14.24,15.93-28.53,31.83-42.78,47.75-15.1,16.87-30.17,33.76-45.26,50.64-.7.79-1.46,1.53-2.2,2.28-.49.5-1.13.76-1.71.4-.61-.38-.49-1.13-.33-1.74.21-.82.49-1.62.79-2.41,5.74-15,11.47-30.01,17.23-45,2.69-7,5.42-13.99,8.12-20.99.37-.96.98-1.89.6-3.01ZM185.34,289.8c.38-.08.54-.3.46-.69.1-.15.18-.31.24-.49.37-.11.54-.36.47-.74,1.63-2.67,3.26-5.33,4.9-8,.16-.21.32-.41.48-.62,1.87-2.55,3.29-5.38,4.98-8.04,5.64-8.87,10.82-18.03,16.67-26.77.74-1.11,1.69-2.25.8-3.74v-.19s-.18.07-.18.07c-2.65-.55-5.32-.32-7.98-.11-.3-.08-.61-.23-.91-.23-15.44-.02-30.88,0-46.33-.07-2,0-2.81,1.05-3.35,2.7-3.45,10.54-7.32,20.94-11.05,31.38-4.91,13.73-9.71,27.49-14.58,41.23-1.14,3.23-.64,4.03,2.69,4.11.74.02,1.48,0,2.22,0,10.05,0,20.1-.01,30.15-.01,5.07,0,5.34.41,3.47,5.14-4.02,10.22-8.1,20.42-12.03,30.67-1.39,3.63-2.85,7.26-3.64,11.09-1.15,2.48-2.35,4.94-3.42,7.46-.57,1.34-1.24,2.71-.98,4.26-.48.22-.59.7-.19.91.64.35,1.13.01,1.28-.72,2.02-1.4,3.68-3.19,5.19-5.09,4.27-5.39,9.01-10.37,13.54-15.52,5.58-6.34,11.22-12.64,16.91-18.89,10.39-11.4,20.68-22.9,31-34.38,1.63-1.81,3.23-3.64,4.77-5.52.71-.87,1.6-1.88.13-2.91-.47-.52-1.1-.55-1.72-.55-5.32-.01-10.64-.03-15.96-.03-.63,0-1.25.06-1.72.57-5.99-.01-11.99-.02-17.98-.04-.87-.8-.85-1.83-.73-2.88.62-.86,1.24-1.72,1.86-2.57.35-.12.54-.35.51-.73l.03-.05Z"/>
    <path class="cls-5" d="M221.05,296.08c1.47,1.03.58,2.04-.13,2.91-1.54,1.88-3.14,3.71-4.77,5.52-10.32,11.47-20.61,22.97-31,34.38-5.69,6.25-11.33,12.55-16.91,18.89-4.53,5.15-9.27,10.13-13.54,15.52-1.5,1.9-3.16,3.69-5.18,5.09-.36-.06-.73-.13-1.09-.19-.26-1.55.4-2.92.98-4.26,1.07-2.51,2.27-4.97,3.42-7.45.25-.17.55-.29.74-.51,1.61-1.82,1.88-4.18,2.6-6.37,2.93-8.91,7.29-17.27,10.21-26.19,1.31-4,3.07-7.85,4.57-11.79,1.01-2.64.24-3.73-2.64-3.75-4.86-.03-9.73-.06-14.59.03-5.27.1-10.55-.44-15.81.49-1.54.27-3.17.01-4.75.06-1.6.05-1.97-.83-1.89-2.21.07-1.19.46-2.3.93-3.34.92-2.03,1.53-4.16,2.27-6.25,1.88-5.36,3.51-10.83,5.53-16.12,2.48-6.51,4.75-13.08,7.07-19.64.31-.89.72-1.75,1.07-2.64.48-1.2,1.44-1.43,2.58-1.31-1.57,5.76-3.98,11.23-5.88,16.88-.37,1.09-.8,2.16-.73,3.35.1,1.66.94,2.27,2.48,1.68.45-.17.76-.69,1.14-1.04,1.63-.72,1.94-1.49,1.22-3.05.86-2.38,1.71-4.76,2.57-7.15.42-.06.57-.27.37-.68.13-.57.27-1.15.4-1.72,1-.14,1.39-.58.76-1.53.15-.56.31-1.13.46-1.69,1.03-.09,1.43-.51.8-1.49.38-1.19.76-2.37,1.14-3.56,1.59-.93,1.85-1.7,1.05-3.13.25-.69.5-1.38.74-2.07.41-.07.56-.28.33-.67.7-3.35,2.23-6.39,3.44-9.55.29-.11.76-.14.84-.33.93-2.3,2.34-4.45,1.51-7.2-.61-2.01-.22-2.35,1.92-2.47.74-.04,1.48-.02,2.22-.02,11.73,0,23.45.02,35.18.02.84,0,1.69,0,2.53-.04.61-.03.95-.38.98-1,2.67-.21,5.33-.43,7.98.11,0,0,.03.15.03.15l.15-.03c.89,1.49-.06,2.63-.8,3.74-5.85,8.74-11.03,17.9-16.67,26.77-1.69,2.66-3.11,5.49-4.98,8.04-.44,0-.6.19-.48.62-1.63,2.67-3.26,5.33-4.9,8-.34.13-.51.37-.47.74-.06.17-.14.34-.24.49-.32.12-.48.34-.46.69,0,0-.03.05-.03.04-.38.1-.54.35-.51.73-.62.86-1.24,1.72-1.86,2.57-1.27.2-1.45,1.18-1.28,2.12.21,1.14,1.15.99,2.01.75,5.99.01,11.99.02,17.98.04,6.47.42,12.93.83,19.4.01Z"/>
    <path class="cls-2" d="M150.7,266.95c-1.14-.12-2.1.1-2.58,1.31-.35.88-.75,1.74-1.07,2.64-2.31,6.56-4.58,13.13-7.07,19.64-2.02,5.29-3.65,10.76-5.53,16.12-.73,2.09-1.34,4.22-2.27,6.25-.47,1.04-.86,2.15-.93,3.34-.08,1.38.3,2.26,1.89,2.21,1.58-.05,3.21.22,4.75-.06,5.26-.93,10.54-.39,15.81-.49,4.86-.09,9.73-.06,14.59-.03,2.88.02,3.65,1.11,2.64,3.75-1.5,3.94-3.26,7.79-4.57,11.79-2.92,8.92-7.28,17.28-10.21,26.19-.72,2.19-1,4.55-2.6,6.37-.19.22-.49.34-.74.51.79-3.84,2.25-7.46,3.64-11.09,3.93-10.25,8-20.45,12.03-30.67,1.86-4.73,1.59-5.14-3.47-5.14-10.05,0-20.1,0-30.15.01-.74,0-1.48.01-2.22,0-3.34-.08-3.84-.88-2.69-4.11,4.87-13.74,9.67-27.5,14.58-41.23,3.73-10.44,7.6-20.84,11.05-31.38.54-1.65,1.35-2.7,3.35-2.7,15.44.06,30.88.05,46.33.07.3,0,.61.15.91.23-.03.63-.37.97-.98,1-.84.04-1.69.04-2.53.04-11.73,0-23.45-.01-35.18-.02-.74,0-1.48-.02-2.22.02-2.15.12-2.53.45-1.92,2.47.83,2.74-.58,4.9-1.51,7.2-.08.19-.55.23-.84.33.46-1.72.99-3.43,1.36-5.17.17-.81.14-1.78-.93-2.07-.98-.27-1.94-.11-2.49.86-.68,1.19-1.12,2.47-1.52,3.8-1.85,6.15-3.97,12.2-6.72,18.02Z"/>
    <path class="cls-1" d="M221.05,296.08c-6.47.82-12.93.41-19.4-.01.47-.51,1.09-.57,1.72-.57,5.32,0,10.64.02,15.96.03.63,0,1.26.04,1.72.55Z"/>
    <path class="cls-1" d="M183.67,296.03c-.86.23-1.8.39-2.01-.75-.17-.94.01-1.93,1.28-2.12-.12,1.05-.14,2.08.73,2.88Z"/>
    <path class="cls-5" d="M148.42,378.2c.36.06.73.12,1.09.19-.15.74-.64,1.08-1.28.73-.4-.22-.29-.69.19-.91Z"/>
    <polygon class="cls-2" points="214.34 240.72 214.18 240.75 214.16 240.6 214.34 240.53 214.34 240.72"/>
    <path class="cls-1" d="M191.41,279.88c-.13-.43.04-.62.48-.62-.16.21-.32.41-.48.62Z"/>
    <path class="cls-1" d="M186.04,288.63c-.04-.37.13-.61.47-.74.06.39-.11.63-.47.74Z"/>
    <path class="cls-1" d="M184.8,290.58c-.03-.39.13-.63.51-.73.03.38-.16.62-.51.73Z"/>
    <path class="cls-1" d="M185.34,289.8c-.02-.35.14-.57.46-.69.08.38-.07.61-.46.69Z"/>
    <path class="cls-7" d="M150.7,266.95c2.74-5.82,4.87-11.87,6.72-18.02.4-1.33.84-2.61,1.52-3.8.55-.97,1.5-1.13,2.49-.86,1.08.29,1.11,1.26.93,2.07-.37,1.74-.9,3.45-1.36,5.17-1.21,3.16-2.75,6.21-3.44,9.55-.11.22-.22.45-.33.67-.25.69-.5,1.38-.74,2.07-.64.95-.94,2.01-1.05,3.13-.38,1.19-.76,2.37-1.14,3.56-.58.33-.85.82-.8,1.49-.15.56-.31,1.13-.45,1.69-.59.34-.86.84-.76,1.53-.13.57-.27,1.15-.4,1.72-.12.23-.25.45-.37.67-.86,2.38-1.71,4.76-2.57,7.15-.73.89-.95,1.98-1.22,3.05-.38.36-.69.87-1.14,1.04-1.55.59-2.38-.02-2.48-1.68-.07-1.19.36-2.26.73-3.35,1.9-5.65,4.31-11.12,5.88-16.88Z"/>
    <path class="cls-2" d="M147.71,287.81c.27-1.07.5-2.16,1.22-3.05.72,1.57.41,2.34-1.22,3.05Z"/>
    <path class="cls-2" d="M155.43,266.94c.11-1.12.41-2.19,1.05-3.13.8,1.44.54,2.21-1.05,3.13Z"/>
    <path class="cls-2" d="M153.49,271.99c-.05-.67.23-1.16.8-1.49.63.98.22,1.4-.8,1.49Z"/>
    <path class="cls-2" d="M152.27,275.21c-.1-.69.18-1.19.76-1.53.62.95.24,1.39-.76,1.53Z"/>
    <path class="cls-2" d="M151.51,277.61c.12-.22.25-.45.37-.67.2.4.05.61-.37.67Z"/>
    <path class="cls-2" d="M157.22,261.74c.11-.22.22-.45.33-.67.23.39.08.6-.33.67Z"/>
  </g>
</svg>