<?xml version="1.0" encoding="UTF-8"?>
<svg id="GRIFOS" xmlns="http://www.w3.org/2000/svg" viewBox="0 0 1569.5 840.16">
  <defs>
    <style>
      .cls-1 {
        fill: #e12a28;
      }

      .cls-1, .cls-2, .cls-3, .cls-4 {
        stroke-width: 0px;
      }

      .cls-2 {
        fill: #131314;
      }

      .cls-3 {
        fill: #d5d4d0;
      }

      .cls-4 {
        fill: #fdfdfc;
      }
    </style>
  </defs>
  <g id="F3">
    <path class="cls-2" d="M1242.22,57.94c.23,30.06-25.01,55.24-55.54,54.68-30.95-.56-54.34-25.67-54.18-55.11.16-29.31,23.61-54.66,55.4-54.4,30.8.25,54.64,25.19,54.32,54.83ZM1153.69,94.45c1.98,2.34,4.49,4.03,7.06,5.6,12.76,7.8,26.43,9.7,40.78,5.66,10.04-2.83,18.32-8.57,24.86-16.69,8.46-10.5,11.89-22.61,10.81-35.97-.57-7.04-2.75-13.66-6.26-19.8-1.86-3.25-3.86-6.43-6.66-8.99-3.01-3.46-6.54-6.31-10.44-8.68-11.59-7.07-24.05-9.34-37.34-6.39-8.98,2-16.9,6.11-23.58,12.51-9.53,9.12-14.67,20.27-15.45,33.41-.46,7.75.94,15.21,4,22.35,2.81,6.57,6.74,12.34,12.22,17Z"/>
    <path class="cls-4" d="M1153.69,94.45c-5.48-4.66-9.41-10.43-12.22-17-3.06-7.14-4.46-14.6-4-22.35.78-13.13,5.92-24.28,15.45-33.41,6.69-6.4,14.6-10.51,23.58-12.51,13.29-2.96,25.75-.68,37.34,6.39,3.9,2.38,7.43,5.23,10.44,8.68-.1.55-.01,1.02.35,1.48,2.48,3.12,4.2,6.66,5.65,10.35,1.63,4.13,2.58,8.43,2.98,12.81.25,2.71.41,5.44.17,8.23-.43,5.1-1.62,9.98-3.31,14.75-1.42,3.99-3.72,7.55-6.13,11.02-3.93,5.65-9.02,10.06-14.82,13.72-2.25,1.42-4.76,2.24-7.12,3.39-5.95,2.89-12.35,3.46-18.79,3.89-.39.03-.81.01-1.17-.11-.77-.26-1.56-.27-2.35-.23-1.8.09-3.56-.21-5.28-.59-6.98-1.57-13.69-3.83-19.47-8.24-.4-.3-.82-.39-1.3-.28ZM1187.52,19.98v.02c-3.5,0-7-.02-10.49,0-1.9.02-2.73.87-2.84,2.77-.02.39,0,.79,0,1.19,0,6.13-.02,12.27-.03,18.4,0,.46,0,.92-.01,1.38-.02.45-.23.73-.73.73-.53,0-1.06.02-1.58.02-6.27,0-12.54,0-18.81.01-2.75,0-3.55.82-3.55,3.51,0,5.54,0,11.08-.01,16.62,0,1.19-.03,2.38.04,3.56.1,1.92,1.07,2.86,2.98,2.97.53.03,1.06,0,1.58,0,6.14,0,12.27-.01,18.41-.03,2.02,0,1.75.04,1.75,1.65-.02,6.2-.03,12.4-.03,18.6,0,.59-.01,1.19.05,1.78.16,1.4,1.02,2.26,2.42,2.41.52.06,1.05.03,1.58.03,6.01,0,12.01-.11,18.01.04,4.01.1,4.36-1.28,4.33-4.37-.06-6.2-.02-12.4,0-18.6,0-1.51.04-1.52,1.52-1.52,6.53,0,13.07,0,19.6,0,2.71,0,3.45-.69,3.47-3.35.06-6.66.08-13.32.08-19.98,0-2.56-.8-3.33-3.3-3.34-6.34-.01-12.67,0-19.01.01-.4,0-.79-.03-1.19,0-.81.07-1.27-.2-1.19-1.09.03-.39,0-.79,0-1.19,0-6.2,0-12.4,0-18.6,0-3.02-.69-3.67-3.76-3.65-3.1.01-6.2,0-9.3,0Z"/>
    <path class="cls-3" d="M1153.69,94.45c.48-.1.9-.02,1.3.28,5.79,4.4,12.49,6.67,19.47,8.24,1.72.39,3.48.69,5.28.59.79-.04,1.58-.03,2.35.23.36.12.78.13,1.17.11,6.44-.43,12.84-1,18.79-3.89,2.36-1.15,4.87-1.97,7.12-3.39,5.8-3.66,10.89-8.07,14.82-13.72,2.41-3.46,4.71-7.02,6.13-11.02,1.69-4.77,2.88-9.65,3.31-14.75.24-2.79.07-5.52-.17-8.23-.4-4.38-1.35-8.69-2.98-12.81-1.45-3.69-3.17-7.23-5.65-10.35-.36-.46-.46-.93-.35-1.48,2.81,2.56,4.8,5.74,6.66,8.99,3.51,6.14,5.69,12.76,6.26,19.8,1.08,13.36-2.35,25.47-10.81,35.97-6.54,8.12-14.82,13.86-24.86,16.69-14.35,4.04-28.02,2.14-40.78-5.66-2.57-1.57-5.08-3.26-7.06-5.6Z"/>
    <path class="cls-2" d="M1187.52,19.98c3.1,0,6.2,0,9.3,0,3.07-.01,3.76.64,3.76,3.65,0,6.2,0,12.4,0,18.6,0,.4.03.79,0,1.19-.08.9.38,1.16,1.19,1.09.39-.03.79,0,1.19,0,6.34,0,12.67-.02,19.01-.01,2.51,0,3.3.78,3.3,3.34,0,6.66-.02,13.32-.08,19.98-.02,2.66-.76,3.35-3.47,3.35-6.53.01-13.07,0-19.6,0-1.48,0-1.51.01-1.52,1.52-.02,6.2-.06,12.4,0,18.6.03,3.09-.32,4.47-4.33,4.37-6-.15-12.01-.04-18.01-.04-.53,0-1.06.03-1.58-.03-1.4-.15-2.26-1.01-2.42-2.41-.07-.59-.05-1.19-.05-1.78,0-6.2.01-12.4.03-18.6,0-1.62.27-1.66-1.75-1.65-6.14.02-12.27.02-18.41.03-.53,0-1.06.02-1.58,0-1.91-.11-2.88-1.05-2.98-2.97-.06-1.18-.04-2.37-.04-3.56,0-5.54,0-11.08.01-16.62,0-2.69.8-3.5,3.55-3.51,6.27-.02,12.54,0,18.81-.01.53,0,1.06-.02,1.58-.02.5,0,.71-.28.73-.73.02-.46.01-.92.01-1.38,0-6.13.02-12.27.03-18.4,0-.4-.01-.79,0-1.19.11-1.9.94-2.75,2.84-2.77,3.5-.03,6.99,0,10.49,0v-.02ZM1164.42,67.97s0,0,0-.01c3.56,0,7.13-.03,10.69.01,1.73.02,2.22.56,2.32,2.26.03.46.01.92.02,1.39.03,6.33.06,12.66.11,19,.01,1.78.03,1.79,1.69,1.8,5.35.01,10.69.02,16.04.03,1.96,0,1.97-.01,1.96-1.95-.02-6.2-.04-12.4-.06-18.6,0-.59-.01-1.19.02-1.78.09-1.79.51-2.21,2.26-2.26.92-.03,1.85,0,2.77,0,5.94.02,11.88.04,17.82.05,1.77,0,1.78-.02,1.78-1.72,0-5.48,0-10.95-.01-16.43,0-1.85,0-1.88-1.82-1.89-6.4-.03-12.8-.05-19.2-.07-.59,0-1.19.01-1.78-.02-1.01-.06-1.57-.63-1.68-1.61-.06-.52-.04-1.05-.04-1.58,0-6.33,0-12.67,0-19,0-2.14-.02-2.12-2.21-2.16-5.21-.09-10.43.11-15.64-.14-.33-.02-.66,0-.99.02-.62.03-.97.35-.99.99-.01.53-.01,1.06,0,1.58.02,6.27.05,12.53.05,18.8,0,2.83-.27,3.08-3.03,3.09-6.6.02-13.2.02-19.8.04-1.72,0-1.8.07-1.82,1.78-.03,5.61-.05,11.21-.05,16.82,0,1.57.03,1.59,1.72,1.59,3.3.01,6.6,0,9.9,0Z"/>
    <path class="cls-1" d="M1164.42,67.97c-3.3,0-6.6,0-9.9,0-1.69,0-1.72-.02-1.72-1.59,0-5.61.02-11.21.05-16.82.01-1.7.09-1.77,1.82-1.78,6.6-.02,13.2-.03,19.8-.04,2.76,0,3.03-.26,3.03-3.09,0-6.27-.03-12.53-.05-18.8,0-.53,0-1.06,0-1.58.01-.64.36-.96.99-.99.33-.02.66-.03.99-.02,5.21.25,10.43.05,15.64.14,2.2.04,2.21.02,2.21,2.16,0,6.33,0,12.67,0,19,0,.53-.02,1.06.04,1.58.12.98.68,1.55,1.68,1.61.59.03,1.19.02,1.78.02,6.4.02,12.8.04,19.2.07,1.81,0,1.82.04,1.82,1.89,0,5.48.01,10.95.01,16.43,0,1.7,0,1.72-1.78,1.72-5.94,0-11.88-.03-17.82-.05-.92,0-1.85-.03-2.77,0-1.75.05-2.17.48-2.26,2.26-.03.59-.02,1.19-.02,1.78.02,6.2.04,12.4.06,18.6,0,1.94,0,1.95-1.96,1.95-5.35,0-10.69-.01-16.04-.03-1.66,0-1.68-.02-1.69-1.8-.04-6.33-.07-12.66-.11-19,0-.46.01-.92-.02-1.39-.1-1.7-.59-2.24-2.32-2.26-3.56-.05-7.13-.01-10.69-.01,0,0,0,0,0,.01Z"/>
  </g>
</svg>