<?xml version="1.0" encoding="UTF-8"?>
<svg id="Robot_Completo" data-name="Robot Completo" xmlns="http://www.w3.org/2000/svg" viewBox="0 0 431.88 432.95">
  <defs>
    <style>
      .cls-1 {
        fill: #8899a7;
      }

      .cls-1, .cls-2, .cls-3, .cls-4, .cls-5 {
        stroke-width: 0px;
      }

      .cls-2 {
        fill: #536e82;
      }

      .cls-3 {
        fill: #0b0d0e;
      }

      .cls-4 {
        fill: #bfd9e3;
      }

      .cls-5 {
        fill: #9dafbd;
      }
    </style>
  </defs>
  <g id="Body">
    <g>
      <path class="cls-3" d="M217.66,299.31c-5.26.05-10.51-.26-15.73-.89-10.03-1.21-19.75-3.51-28.9-7.95-7.25-3.52-13.74-8.05-19.22-13.97-.77-.83-1.64-1.42-2.67-1.85-4.75-2.01-8.91-4.93-12.77-8.32-4.2-3.69-7.67-7.99-10.63-12.71-2.72-4.35-4.69-9.06-6.09-13.99-1.68-5.93-2.37-11.98-2.05-18.14.42-8.02,2.43-15.61,6.03-22.8,2.33-4.64,5.23-8.88,8.59-12.81,1.49-1.75,3.15-3.34,4.89-4.83.95-.81,1.53-1.66,1.88-2.88,1.1-3.85,2.36-7.64,3.75-11.4,4.7-12.75,10.85-24.71,19.04-35.58,4.68-6.21,10.01-11.8,16.05-16.71,7-5.68,14.74-9.99,23.48-12.36,6.13-1.66,12.36-2.22,18.71-1.71,8.62.7,16.52,3.46,23.99,7.73,7.3,4.17,13.46,9.69,19.16,15.79,6.9,7.39,12.34,15.78,17.06,24.66,4.42,8.31,7.98,16.99,10.67,26.01.48,1.6,1.11,3.15,1.43,4.79.08.42.4.63.69.88,3.72,3.19,6.94,6.82,9.79,10.8,2.29,3.2,4.18,6.6,5.74,10.2,1.98,4.57,3.47,9.29,4.21,14.21.78,5.17.95,10.37.29,15.57-1.34,10.57-5.29,20.08-11.91,28.41-4.18,5.26-9.11,9.77-15.04,13.09-1.5.84-3.01,1.64-4.59,2.31-.98.42-1.83,1-2.54,1.81-3.16,3.63-6.94,6.55-10.91,9.23-6.98,4.71-14.69,7.76-22.79,9.94-4.89,1.32-9.89,1.98-14.9,2.63-4.89.63-9.8.84-14.72.83ZM280.79,184.84v-.02c-.59.37-1.04.87-1.41,1.46-4.68,4.93-9.68,9.5-15.31,13.34-8.03,5.48-16.73,9.46-26.13,11.9-3.28.85-6.61,1.42-9.95,1.92-4.12.62-8.26.85-12.42.73-4.35-.12-8.64-.79-12.92-1.49-6.57-1.08-12.87-3.08-18.9-5.84-6.97-3.2-13.41-7.24-19.28-12.21-6.35-5.37-11.92-11.44-16.81-18.14-.15-.21-.22-.56-.65-.49-.05.1-.13.21-.17.34-2.47,7.84-4.25,15.84-5.39,23.99-.11.8-.38,1.65-.23,2.4.18.83,1.12,1.25,1.68,1.89.31.35.62.73,1.06.95,3.69,3.99,7.82,7.52,11.95,11.04,2.06,1.76,4.13,3.52,6.39,5.02,2.18,1.88,4.51,3.56,6.91,5.14,1.03.93,2.15,1.72,3.39,2.35.3.23.58.49.9.69,3.25,2.09,6.59,4.03,10,5.83.84.44,1.64.98,2.57,1.23l.02-.08c.01.22.17.26.35.26.24.33.64.4.98.55,2.86,1.29,5.72,2.57,8.7,3.58,6.35,2.17,12.86,3.46,19.57,3.63,3.44.09,6.86-.1,10.28-.54,3.93-.51,7.76-1.43,11.52-2.67.45.04.83-.2,1.22-.35,6.59-2.39,12.85-5.49,18.87-9.06,3.56-2.11,7.06-4.32,10.3-6.91,3.14-2.09,6.05-4.47,8.93-6.88,1.98-1.64,4.03-3.21,5.93-4.93,2.97-2.69,5.8-5.54,8.8-8.19,1.71-1.51,2.8-3.05,1.94-5.41-.14-.39-.05-.86-.12-1.28-1.19-6.86-2.57-13.67-4.67-20.32-.25-.81-.33-1.68-.81-2.53-2.18,3.03-4.52,5.85-6.8,8.7-.15.1-.29.21-.3.41ZM190.35,280.73v.02c2.08,4.37,4.99,8.19,7.97,11.95.21.27.44.34.74.26,2.13.23,4.26.46,6.39.72,3.56.45,7.13.47,10.7.7,1.86.12,3.72-.12,5.58-.15,4.25-.06,8.46-.56,12.68-.98,1.18-.12,2.3-.31,3.06-1.49,1.14-1.76,2.51-3.36,3.68-5.1,2.99-4.45,5.43-9.2,7.54-14.12.79-1.84,1.7-3.63,2.03-5.63.36-.4.51-.91.68-1.4,1.29-3.68,2.39-7.41,3.28-11.2.63-2.68,1.15-5.39,1.65-8.09.57-3.13,1.02-6.28,1.19-9.46.04-.42.18-.83.05-1.36-.44.24-.85.46-1.24.69-4.87,2.82-9.92,5.25-15.2,7.22-7.34,2.75-14.92,4.22-22.75,4.32-7.4.1-14.61-1.05-21.65-3.33-6.22-2.02-12.08-4.83-17.79-8-.5-.28-.94-.76-1.65-.71.02.47.03.85.06,1.23.25,3.28.72,6.54,1.31,9.78,1.55,8.61,3.82,17,7.21,25.07,1.25,2.98,2.54,5.96,4.26,8.71-.02.17.03.3.2.36ZM310.31,226.14c.31-4.85-.21-9.63-1.42-14.33-2.07-8.01-5.65-15.26-11.03-21.58-.34-.39-.63-.86-1.21-1.17.61,3.07,1.19,6.02,1.77,8.96.39,3.79.82,7.57,1.12,11.36.54,6.76.62,13.53.13,20.29-.18,2.47-.47,4.93-.7,7.4-.89,5.36-1.99,10.67-3.83,15.8-1.42,3.95-2.86,7.89-5.05,11.5-.15.25-.48.5-.29.88.22.05.35-.11.49-.21,3.69-2.55,6.76-5.75,9.44-9.31,4.23-5.62,7.34-11.81,9.13-18.64.82-3.15,1.36-6.33,1.44-9.58.06-.46.13-.93.02-1.4ZM124.56,223.5c-.19.46-.11.94-.11,1.42.05,4.71.87,9.29,2.22,13.8,3.13,10.47,8.86,19.17,17.47,25.93.34.27.74.47,1.29.81-.13-.37-.16-.51-.23-.62-4.29-7.45-6.82-15.52-8.47-23.91-.25-1.3-.27-2.64-.76-3.9-.25-3.37-.52-6.74-.74-10.11-.37-5.76-.17-11.52.23-17.28.28-3.99.67-7.96,1.25-11.92.28-1.45.61-2.9.82-4.36.21-1.46.68-2.88.62-4.39-8.44,9.98-13.41,21.31-13.61,34.52ZM204.79,141.77c.43.43.99.25,1.5.3,1.47.14,2.94.26,4.41.39,3.28.3,6.55.59,9.86.3,1.66-.15,3.33-.23,4.99-.37,2.75-.24,5.5-.52,8.24-.87,1.7-.22,2.68-.85,3.35-2.61,1.62-4.28,3.33-8.52,4.52-12.95.91-3.4,1.87-6.79,2.37-10.29.03-.09.07-.18.09-.27.65-2.23.57-2.37-1.43-3.47-4.28-2.35-8.8-4.07-13.52-5.31-5.65-1.48-11.39-1.88-17.18-1.21-5.15.6-10.05,2.13-14.8,4.17-2.02.87-3.97,1.86-5.86,2.98-.71.42-.94.88-.77,1.73.78,3.93,1.69,7.83,2.78,11.69,1.36,4.82,3.04,9.53,5.05,14.12.25.57.51,1.03,1.17,1.09,1.75.16,3.44.78,5.22.58ZM172.93,232.76c-11.56-7.56-22.04-16.45-32.07-26.09-.03.55-.06.97-.09,1.39-.06.12-.17.24-.18.37-.26,3.09-.57,6.17-.61,9.27-.1,8.4.45,16.76,2.29,24.98.66,2.96,1.18,5.97,2.51,8.74.31,1.76,1.16,3.32,1.85,4.94,2.53,5.94,5.96,11.32,10.27,16.11,4.95,5.49,10.89,9.71,17.45,13.06,4.91,2.5,10.12,4.19,15.42,5.64,1.23.33,2.47.75,3.78.73.11.16.32.27.41.11.12-.21-.15-.21-.28-.28.01-.59-.44-.94-.72-1.36-1.49-2.22-3.06-4.39-4.34-6.74-2.48-4.57-4.77-9.23-6.59-14.12-2.12-5.68-3.82-11.48-5.11-17.4-1.22-5.65-2.06-11.35-2.43-17.1-.08-1.2-.58-1.82-1.57-2.23ZM148.96,170.78c-.93,1.14-.98,1.54-.2,2.59,3.08,4.14,6.25,8.2,9.82,11.94,4.61,4.82,9.64,9.15,15.17,12.84,6.26,4.17,13,7.44,20.25,9.56,2.83.83,5.66,1.68,8.58,2.17,3.1.52,6.21,1.05,9.34,1.28,2.38.18,4.77.45,7.15.29,3.95-.27,7.88-.66,11.79-1.3,6.01-.98,11.8-2.72,17.41-5.02,10.64-4.37,19.66-11.1,27.67-19.27,3.85-3.93,7.18-8.3,10.47-12.71.51-.69.45-1.29.17-2-1.44-3.64-2.76-7.33-4.33-10.91-3.53-8.07-7.7-15.79-12.82-22.97-.85-1.19-1.55-2.51-2.7-3.47-.25-.57-.63-1.06-1.02-1.54-3.68-4.64-7.81-8.86-12.29-12.73-1.76-1.52-3.55-3.01-5.62-4.11-.39-.32-.69-.56-.84.24-1.58,8.66-4.1,17.03-7.58,25.13-.79,1.84-1.72,3.15-3.89,3.09-.09,0-.18.06-.27.08-4.88.92-9.8,1.53-14.78,1.59-3.68.04-7.35.04-11.03-.27-3.71-.32-7.37-.93-11.04-1.59-1.06-.19-1.73-.71-2.13-1.67-.13-.31-.28-.61-.41-.91-2.78-6.3-4.92-12.81-6.54-19.5-.54-2.22-.99-4.46-1.48-6.7-.45.04-.71.35-1.02.56-6.16,4.15-11.3,9.42-16.09,15.02-5.49,6.41-9.89,13.57-13.83,21.01-3.1,5.85-5.53,12.01-7.95,18.17-.15.38-.04.75.01,1.12ZM281.65,218.09c-4.94,4.04-9.89,8.06-15.16,11.66-1.45.99-2.89,2-4.33,3-.33.18-.65.39-1,.55-.54.26-.71.66-.71,1.26-.05,5.66-1.07,11.2-2.21,16.71-1.18,5.75-2.71,11.41-4.78,16.92-3.09,8.22-6.88,16.06-12.16,23.12-.15.2-.45.39-.17.81,7.52-1.56,14.76-3.9,21.55-7.66,4.93-2.73,9.4-6.01,13.44-9.92,5.44-5.26,9.41-11.5,12.42-18.4,4.07-9.32,5.72-19.16,6.27-29.22.18-3.28.39-6.58.12-9.88-.21-2.62-.25-5.25-.4-7.87-.05-.79-.21-1.58-.35-2.6-4.16,4.06-8.36,7.78-12.54,11.52Z"/>
      <path class="cls-1" d="M247.81,115.41c2.07,1.1,3.86,2.59,5.62,4.11,4.48,3.87,8.6,8.09,12.29,12.73.39.49.77.97,1.02,1.54-.08.62.27,1.1.53,1.6,1.95,3.77,3.84,7.59,5.4,11.54,2,5.05,3.85,10.16,5.33,15.39.48,1.69,1.13,3.34,1.43,5.08-.85.62-1.66,1.25-1.76,2.44-.17,1.87,1.32,3.54,3.16,3.45-.06.45.07.86.25,1.25.34.75.12,1.35-.39,1.95-2.53,2.99-5.29,5.75-8.17,8.39-.67.61-1.31,1.44-2.41,1.37.42-.53.71-1.12.8-1.8.23-1.73-1.13-3.25-2.95-3.31-1.62-.05-2.99,1.37-2.92,3.02.09,2.32,2.19,3.45,4.56,2.47.09.67-.37,1.06-.8,1.43-2.34,2.03-4.91,3.75-7.47,5.46-2.73,1.83-5.59,3.44-8.51,4.93-1.12.57-2.23,1.25-3.48,1.54-.03-.33-.04-.66-.08-.99-.21-1.58-1.37-2.63-2.88-2.58-1.61.05-2.73,1.18-2.84,2.8-.06.97.25,1.76.87,2.47-.18.63-.78.65-1.26.81-3.73,1.32-7.5,2.45-11.37,3.27-4.01.85-8.06,1.39-12.16,1.44-3.1.03-6.2.13-9.28-.3-2.87-.4-5.73-.84-8.57-1.44-3.6-.75-7.1-1.82-10.56-3.03-.35-.12-.78-.16-.76-.69.67-.49.89-1.21,1.02-1.96.19-1.14-.46-2.44-1.46-3.03-1.01-.6-2.16-.49-3.19.28-1.02.76-1.33,1.77-1.14,2.99-.23-.05-.48-.05-.69-.15-5.67-2.64-11.1-5.7-16.19-9.33-2.91-2.07-5.6-4.42-8.23-6.83-3.2-2.93-6.15-6.1-8.85-9.5.79-.39.49-1.17.62-1.79.29.17.56.37.86.5,1.36.61,2.86.2,3.68-1,.86-1.26.65-2.81-.49-3.9-.69-.66-1.52-.73-2.38-.74.49-.31.84-.72,1.07-1.28,1.56-3.69,3.23-7.33,5.13-10.87,3.69-6.88,7.81-13.44,12.84-19.42,3.3-3.92,6.91-7.52,10.77-10.88,1.04-.91,2.2-1.68,3.29-2.52.39-.3.73-.32.88.19.45,1.6.88,3.21,1.06,4.88.07.66-.27.96-.82,1.15-2.63.93-4.71,2.68-6.68,4.57-1.28,1.23-2.35,2.64-3.47,4-2.96,3.62-5.18,7.66-6.73,12.06-.45,1.29-.81,2.64-.69,4.07.13,1.6.83,2.21,2.42,2.07.34-.03.65-.14.96-.26,1.71-.67,3.2-1.68,4.52-2.95,2.42-2.31,4.45-4.98,6.58-7.54,1.16-1.38,2.18-2.9,3.1-4.45.9-1.51,1.93-2.96,2.65-4.58.04-.1.22-.14.44-.27.48,1.19.91,2.34,1.4,3.46.82,1.88,1.41,3.85,2.56,5.59.43.64.98,1.01,1.69,1.22.83.23,1.7.23,2.54.39,2.62.48,5.28.78,7.93.99,2.99.24,6.01.17,9.02.25,4.57.12,9.15.25,13.72-.46,3.07-.47,6.1-1.03,9.05-2.01.49-.16.88-.38,1.05-.88,1.24-3.65,2.72-7.22,3.84-10.92,1.68-5.53,3.37-11.04,3.4-16.89,0-.25.05-.47.3-.6ZM164.56,164.41c.16.84-.1,1.6.43,2.3,1.24,1.64,3.72.89,4.62-.28,1.06-1.38,1.7-2.9,1.68-4.72-.02-2.37-2.1-3.41-3.95-2.33-1.92,1.13-2.69,2.97-2.78,5.03ZM169.99,183.96c-.04-1.46-1.44-2.81-2.9-2.8-1.63.02-3.01,1.43-2.96,3.04.05,1.64,1.36,2.93,2.94,2.87,1.6-.06,2.97-1.51,2.93-3.12Z"/>
      <path class="cls-1" d="M257.53,236.75c-.17,3.18-.62,6.33-1.19,9.46-.5,2.71-1.02,5.42-1.65,8.09-.9,3.79-1.99,7.53-3.28,11.2-.17.49-.32,1-.68,1.4-.53-.14-.91.17-1.31.43-2.73,1.77-5.62,3.21-8.6,4.5-4.71,2.04-9.63,3.31-14.65,4.2-3.27.58-6.58.93-9.89,1.25-2.47.24-4.94.14-7.41.42-3.27.37-6.57-.26-9.86-.24-.14,0-.29,0-.43-.03-2.57-.5-5.2-.51-7.76-1.07-.37-.08-.77-.08-1.03.3-.12-.2-.26-.39-.37-.6-2.15-4.42-3.59-9.11-5-13.8-.72-2.41-1.37-4.85-1.84-7.33-.42-2.23-1.18-4.42-1.03-6.74.38.19.74.42,1.14.58,1.22.5,2.59.05,3.4-1.09.77-1.08.71-2.56-.14-3.6-.81-.99-2.16-1.24-3.38-.72-.7.3-1.04.94-1.55,1.42-.64-.86-.39-1.9-.58-2.85-.14-.71-.17-1.49.02-2.15.32-.16.5-.06.65.04,1.61,1.04,3.36,1.8,5.05,2.68,2.71,1.41,5.49,2.65,8.35,3.73,3.8,1.44,7.74,2.37,11.73,3.1,3.28.61,6.58,1.07,9.92,1.13,3.86.06,7.69-.42,11.5-1.07,4.38-.74,8.69-1.81,12.8-3.46,6.03-2.42,11.92-5.13,17.07-9.2ZM254.11,246.22c.01-1.75-1.31-3.13-3.01-3.11-1.59.02-2.92,1.36-2.9,2.92.02,1.55,1.45,2.98,3.1,2.93,1.44-.04,2.85-.84,2.81-2.74Z"/>
      <path class="cls-5" d="M237.48,241.59c-3.76,1.24-7.58,2.16-11.52,2.67-3.42.44-6.84.63-10.28.54-6.72-.17-13.23-1.46-19.57-3.63-2.97-1.02-5.84-2.29-8.7-3.58-.34-.15-.74-.22-.98-.55-.12-.09-.23-.17-.35-.26,0,0-.02.08-.02.08.02-.52.06-1.05.07-1.57.05-2.86-.37-5.7-.31-8.57.1-5.02-.09-10.05.3-15.11,4.43,1.67,8.98,2.83,13.61,3.75,4.02.8,8.08,1.28,12.14,1.55,4.04.27,8.12.21,12.15-.27,2.97-.36,5.95-.71,8.86-1.41,3.19-.77,6.39-1.51,9.48-2.67,2.99-1.13,5.92-2.4,8.85-3.65.06,5.53.13,11.06-.27,16.59-.02.24-.02.48-.07.71-.91,4.29-3.2,7.67-6.64,10.36-1.85,1.44-3.87,2.6-5.82,3.88-.45.29-.91.55-.95,1.16Z"/>
      <path class="cls-2" d="M281.65,218.09c4.18-3.74,8.38-7.46,12.54-11.52.14,1.02.3,1.81.35,2.6.15,2.62.19,5.25.4,7.87.27,3.3.06,6.59-.12,9.88-.54,10.06-2.2,19.9-6.27,29.22-3.01,6.9-6.99,13.15-12.42,18.4-4.04,3.9-8.51,7.19-13.44,9.92-6.78,3.75-14.03,6.1-21.55,7.66-.29-.42.02-.6.17-.81,5.28-7.06,9.07-14.9,12.16-23.12,2.07-5.51,3.59-11.17,4.78-16.92,1.14-5.51,2.16-11.05,2.21-16.71,0-.6.17-1,.71-1.26.34-.16.66-.36,1-.55,0,1.62-.04,3.24.01,4.86.06,1.67-.23,3.32-.4,4.96-.17,1.64-.47,3.28-.73,4.91-.5,3.18-.95,6.37-1.72,9.5-.27,1.1-.82,2.15-.58,3.34v-.04s-.08.04-.11.07c-.06.08-.02.15.08.2.08.35-.13.64-.18.97-.18,1.26.48,2.5,1.62,3.06,1.04.51,2.41.26,3.29-.61.92-.91,1.13-2.08.61-3.27-.53-1.23-1.54-1.75-2.79-1.92.06-.71.65-1.04,1.08-1.45,2.6-2.48,4.8-5.27,6.85-8.21,2.81-4.04,5.25-8.27,7.25-12.78,2.45-5.5,4.17-11.22,5.44-17.08.09-.41.19-.86-.24-1.18ZM289.8,221.84c1.7.01,2.99-1.32,3-3.08,0-1.43-1.26-2.65-2.76-2.66-1.77,0-2.92,1.16-2.92,2.95,0,1.77.97,2.78,2.68,2.79ZM255.44,283.24c0-1.58-1.33-2.98-2.86-3.01-1.52-.03-2.96,1.47-2.96,3.08,0,1.57,1.3,2.98,2.71,2.94,1.55-.05,3.11-1.55,3.11-3.01Z"/>
      <path class="cls-1" d="M144.79,251.42c-1.33-2.77-1.85-5.78-2.51-8.74-1.84-8.23-2.39-16.58-2.29-24.98.04-3.1.35-6.18.61-9.27.01-.13.12-.25.18-.37.5.57,1.04,1.1,1.48,1.7,1.86,2.55,3.91,4.93,6.15,7.15,1.42,1.42,2.86,2.81,4.39,4.11,1.49,1.26,2.99,2.52,4.52,3.74,3.34,2.64,6.9,4.95,10.62,7,1.58.87,3.11,1.88,4.98,2.1,0,3.43,0,6.85.57,10.25.31,1.87.47,3.76.78,5.63.43,2.58,1.21,5.08,1.67,7.65.22,1.25.94,2.42.7,3.75-.25-.03-.23-.24-.31-.41-.72-1.52-2.05-2.16-3.49-1.69-1.54.5-2.38,1.85-2.13,3.44.21,1.36,1.38,2.33,2.83,2.35,1.54.02,2.74-1.08,2.98-2.72.05-.32-.11-.67.11-.97.5.26.46.8.6,1.23,1.04,3.05,2,6.13,3.22,9.12.38.92.9,1.79.82,2.84h-.01c-1.35-.05-2.6-.53-3.86-.95-5.21-1.73-10.24-3.86-14.94-6.74-4.03-2.47-7.77-5.33-11.26-8.5-2.01-1.82-3.75-3.92-5.42-6.06-.27-.35-.47-.73-1-.66ZM147.98,219.13c.01-1.74-1.25-3.13-2.83-3.12-1.61.01-3.06,1.43-3.04,2.98.01,1.48,1.47,2.94,2.93,2.94,1.7,0,2.93-1.17,2.94-2.81ZM171.81,238.62c.02-1.68-1.31-3.15-2.85-3.15-1.55,0-2.97,1.46-2.99,3.08-.01,1.5,1.26,2.78,2.82,2.82,1.67.05,2.99-1.16,3.01-2.75Z"/>
      <path class="cls-4" d="M251.23,208.9c-2.94,1.25-5.87,2.52-8.85,3.65-3.09,1.17-6.28,1.91-9.48,2.67-2.91.7-5.89,1.05-8.86,1.41-4.03.48-8.11.54-12.15.27-4.07-.27-8.13-.74-12.14-1.55-4.63-.92-9.18-2.08-13.61-3.75-.39,5.06-.2,10.09-.3,15.11-.06,2.87.35,5.71.31,8.57,0,.52-.05,1.05-.07,1.57-.93-.25-1.73-.79-2.57-1.23-3.42-1.8-6.76-3.74-10-5.83-.32-.2-.6-.46-.9-.69.16-1.85.19-3.71.27-5.56.19-4.14.04-8.29.35-12.44.07-.95.05-1.89.21-2.84.26-1.53.33-3.09-1.57-3.78-.25-.09-.42-.38-.64-.56-.67-.53-1.07-.41-1.11.43-.12,2.33-.49,4.64-.55,6.96-.09,3.96-.51,7.9-.35,11.86.05,1.19,0,2.39,0,3.58-2.4-1.58-4.73-3.26-6.91-5.14.33-2.22.34-4.46.33-6.7,0-.1,0-.19.01-.29.31-2.36.53-4.72.55-7.11,0-.29.01-.57.05-.86.32-2.5.54-5.01.54-7.54,0-.69-.23-1.18-.72-1.63-.63-.58-1.36-1.04-1.95-1.67-1.34-1.42-2.7-2.83-4.04-4.25-2.45-2.61-4.67-5.4-6.73-8.32-.3-.43-.56-.88-1.05-1.11-.46.4-.51.95-.65,1.44-.44,1.55-.85,3.12-1.23,4.69-.57,2.31-1.06,4.63-1.57,6.95-.43,2-.71,4.02-1.08,6.02-.27,1.44-.12,2.97-.83,4.32-.44-.21-.75-.59-1.06-.95-.56-.64-1.51-1.06-1.68-1.89-.16-.75.11-1.6.23-2.4,1.14-8.14,2.91-16.14,5.39-23.99.04-.13.12-.24.17-.34.43-.08.5.28.65.49,4.89,6.71,10.46,12.78,16.81,18.14,5.87,4.96,12.31,9.01,19.28,12.21,6.03,2.77,12.33,4.77,18.9,5.84,4.29.7,8.57,1.37,12.92,1.49,4.16.12,8.3-.11,12.42-.73,3.34-.5,6.68-1.07,9.95-1.92,9.41-2.44,18.11-6.42,26.13-11.9,5.63-3.85,10.63-8.41,15.31-13.34.17,0,.34,0,.52,0-.83,1.5-2.02,2.7-3.26,3.86-.38.35-.8.68-.89,1.23-1.38.62-2.49,1.58-3.11,2.96-.3.67-.53,1.18-1.39,1.13-.43-.02-.81.26-1.14.55-.75.65-1.49,1.32-2.23,1.99-2.91,2.54-6.04,4.78-9.32,6.79-2.39,1.46-4.88,2.75-7.33,4.12Z"/>
      <path class="cls-2" d="M189.79,276.68c.26-.38.67-.38,1.03-.3,2.56.56,5.19.56,7.76,1.07.14.03.29.03.43.03,3.29-.03,6.58.61,9.86.24,2.47-.28,4.94-.18,7.41-.42,3.31-.32,6.62-.67,9.89-1.25,5.02-.89,9.94-2.16,14.65-4.2,2.98-1.29,5.87-2.73,8.6-4.5.4-.26.78-.57,1.31-.43-.33,2-1.24,3.79-2.03,5.63-2.12,4.92-4.55,9.67-7.54,14.12-1.17,1.74-2.54,3.35-3.68,5.1-.77,1.18-1.89,1.37-3.06,1.49-4.22.42-8.43.92-12.68.98-1.86.03-3.72.27-5.58.15-3.57-.24-7.14-.26-10.7-.7-2.12-.27-4.26-.49-6.39-.72-.06-.18-.07-.39-.18-.52-1.76-2.08-3.06-4.45-4.39-6.81-1-1.77-2.06-3.51-3.09-5.26-.51-1.24-1.23-2.38-1.6-3.68Z"/>
      <path class="cls-4" d="M152.33,172.44c-.13.62.17,1.4-.62,1.79-.4-.45-.8-.9-1.19-1.36-.57-.66-.81-1.56-1.56-2.09-.05-.37-.16-.75-.01-1.12,2.42-6.16,4.85-12.32,7.95-18.17,3.94-7.43,8.34-14.6,13.83-21.01,4.79-5.6,9.93-10.86,16.09-15.02.31-.21.57-.51,1.02-.56.49,2.23.94,4.48,1.48,6.7,1.62,6.68,3.76,13.2,6.54,19.5.13.31.28.6.41.91.4.96,1.06,1.48,2.13,1.67,3.66.66,7.32,1.27,11.04,1.59,3.67.31,7.35.32,11.03.27,4.98-.06,9.89-.67,14.78-1.59.09-.02.18-.08.27-.08,2.17.07,3.1-1.24,3.89-3.09,3.48-8.1,6-16.47,7.58-25.13.14-.79.45-.56.84-.24-.25.13-.3.35-.3.6-.03,5.86-1.72,11.37-3.4,16.89-1.12,3.7-2.6,7.27-3.84,10.92-.17.49-.57.71-1.05.88-2.95.99-5.98,1.54-9.05,2.01-4.56.7-9.14.58-13.72.46-3.01-.08-6.02,0-9.02-.25-2.65-.22-5.3-.51-7.93-.99-.84-.16-1.71-.16-2.54-.39-.72-.2-1.27-.57-1.69-1.22-1.15-1.73-1.74-3.71-2.56-5.59-.49-1.12-.92-2.27-1.4-3.46-.22.13-.39.17-.44.27-.72,1.62-1.75,3.06-2.65,4.58-.92,1.55-1.95,3.07-3.1,4.45-2.14,2.56-4.16,5.23-6.58,7.54-1.32,1.26-2.81,2.28-4.52,2.95-.31.12-.62.23-.96.26-1.6.14-2.29-.47-2.42-2.07-.12-1.42.23-2.77.69-4.07,1.55-4.4,3.77-8.44,6.73-12.06,1.12-1.36,2.19-2.77,3.47-4,1.97-1.89,4.05-3.64,6.68-4.57.55-.2.89-.49.82-1.15-.18-1.67-.61-3.28-1.06-4.88-.14-.51-.49-.49-.88-.19-1.09.85-2.25,1.62-3.29,2.52-3.86,3.36-7.46,6.96-10.77,10.88-5.04,5.98-9.16,12.55-12.84,19.42-1.9,3.54-3.57,7.18-5.13,10.87-.23.55-.58.97-1.07,1.28-1.19.31-2.02.98-2.37,2.21-.32,1.13.09,2.04.7,2.92Z"/>
      <path class="cls-2" d="M148.96,170.78c.75.53.99,1.43,1.56,2.09.39.46.79.91,1.19,1.36,2.7,3.4,5.66,6.57,8.85,9.5,2.63,2.41,5.32,4.75,8.23,6.83,5.09,3.63,10.52,6.7,16.19,9.33.21.1.46.1.69.15.81,1.89,1.6,2.41,3.35,2.27.55-.04.94-.38,1.42-.54-.02.53.42.57.76.69,3.46,1.21,6.97,2.27,10.56,3.03,2.84.59,5.7,1.03,8.57,1.44,3.08.43,6.19.34,9.28.3,4.1-.04,8.15-.58,12.16-1.44,3.87-.82,7.65-1.96,11.37-3.27.47-.17,1.07-.18,1.26-.81,1.94,1.34,4.38.49,4.92-1.69,1.26-.29,2.36-.97,3.48-1.54,2.92-1.49,5.79-3.11,8.51-4.93,2.56-1.72,5.13-3.44,7.47-5.46.43-.37.89-.75.8-1.43.13-.18.27-.36.51-.39,1.1.07,1.74-.76,2.41-1.37,2.88-2.64,5.64-5.4,8.17-8.39.51-.6.73-1.19.39-1.95-.18-.39-.31-.8-.25-1.25.13-.06.25-.14.38-.18,1.59-.53,2.41-1.85,2.15-3.46-.24-1.45-1.42-2.33-3.08-2.31-.28,0-.57.03-.85.05-.3-1.74-.95-3.39-1.43-5.08-1.48-5.23-3.33-10.34-5.33-15.39-1.56-3.95-3.45-7.76-5.4-11.54-.26-.5-.61-.98-.53-1.6,1.15.96,1.85,2.28,2.7,3.47,5.13,7.18,9.29,14.91,12.82,22.97,1.57,3.58,2.88,7.27,4.33,10.91.28.71.34,1.31-.17,2-3.28,4.41-6.61,8.78-10.47,12.71-8,8.16-17.03,14.9-27.67,19.27-5.61,2.31-11.4,4.04-17.41,5.02-3.91.64-7.84,1.03-11.79,1.3-2.39.16-4.78-.12-7.15-.29-3.13-.23-6.24-.76-9.34-1.28-2.93-.49-5.75-1.34-8.58-2.17-7.25-2.12-13.99-5.39-20.25-9.56-5.54-3.69-10.56-8.03-15.17-12.84-3.58-3.74-6.74-7.8-9.82-11.94-.78-1.05-.73-1.45.2-2.59Z"/>
      <path class="cls-2" d="M181.27,274.34c.07-1.05-.45-1.93-.82-2.84-1.23-2.99-2.19-6.07-3.22-9.12-.14-.43-.11-.97-.6-1.23h0c.24-1.33-.48-2.5-.7-3.75-.45-2.57-1.24-5.07-1.67-7.65-.31-1.87-.46-3.77-.78-5.63-.57-3.41-.58-6.82-.57-10.25.12-.36.08-.73.02-1.1.99.42,1.49,1.03,1.57,2.23.38,5.76,1.21,11.46,2.43,17.1,1.29,5.93,2.99,11.72,5.11,17.4,1.82,4.89,4.11,9.55,6.59,14.12,1.28,2.35,2.85,4.52,4.34,6.74.29.42.73.78.72,1.36-.04.06-.09.11-.13.17-1.31.02-2.55-.39-3.78-.73-5.29-1.44-10.51-3.14-15.42-5.64-6.57-3.34-12.5-7.57-17.45-13.06-4.32-4.79-7.75-10.17-10.27-16.11-.69-1.62-1.54-3.18-1.85-4.94.53-.07.72.32.99.66,1.67,2.14,3.42,4.23,5.42,6.06,3.49,3.17,7.23,6.03,11.26,8.5,4.69,2.88,9.73,5.01,14.94,6.74,1.25.42,2.51.9,3.86.96.04.04.09.07.13.11-.04-.04-.08-.08-.12-.12ZM179.6,283.21c-.17,1.73,1.51,3,2.93,3.05,1.46.05,2.86-1.32,2.89-2.79.03-1.61-1.35-3.07-2.92-3.09-1.71-.01-2.87,1.12-2.9,2.83Z"/>
      <path class="cls-1" d="M251.23,208.9c2.45-1.37,4.94-2.66,7.33-4.12,3.29-2.01,6.42-4.25,9.32-6.79.1.16.27.31.28.47.21,2.22.47,4.44.59,6.67.21,4.01-.17,8-.28,12.01,0,.14-.02.29-.05.43-.38,2.15-.35,4.35-.78,6.5-.08.39-.14.87.23,1.21-3.24,2.59-6.74,4.8-10.3,6.91-6.02,3.57-12.27,6.68-18.87,9.06-.39.14-.77.39-1.22.35.04-.61.5-.87.95-1.16,1.95-1.28,3.97-2.44,5.82-3.88,3.44-2.69,5.73-6.07,6.64-10.36.05-.23.05-.47.07-.71.39-5.52.33-11.06.27-16.59Z"/>
      <path class="cls-5" d="M143.95,205.56c.71-1.35.56-2.88.83-4.32.37-2.01.65-4.02,1.08-6.02.5-2.32,1-4.64,1.57-6.95.38-1.57.79-3.14,1.23-4.69.14-.49.19-1.04.65-1.44.49.23.75.68,1.05,1.11,2.05,2.93,4.27,5.71,6.73,8.32,1.34,1.43,2.69,2.83,4.04,4.25.6.63,1.32,1.09,1.95,1.67.48.45.72.94.72,1.63,0,2.53-.22,5.03-.54,7.54-.04.28-.05.57-.05.86-.02,2.38-.24,4.75-.55,7.11-.01.09-.01.19-.01.29,0,2.24,0,4.48-.33,6.7-2.27-1.5-4.33-3.26-6.39-5.02-4.13-3.52-8.26-7.04-11.95-11.04Z"/>
      <path class="cls-2" d="M275.74,191.36c.1-.56.52-.88.89-1.23,1.24-1.16,2.43-2.35,3.26-3.86.46-.39.88-.8.9-1.46,0,0,0,.02,0,.02.19-.07.26-.23.3-.41,2.28-2.86,4.62-5.67,6.8-8.7.48.85.56,1.72.81,2.53,2.09,6.65,3.47,13.46,4.67,20.32.07.42-.02.89.12,1.28.86,2.36-.23,3.9-1.94,5.41-3,2.65-5.83,5.51-8.8,8.19-1.91,1.72-3.95,3.29-5.93,4.93.18-2.12.45-4.24.51-6.37.13-4.65.11-9.3-.51-13.94-.3-2.25-.42-4.53-1.07-6.72Z"/>
      <path class="cls-1" d="M281.65,218.09c.43.32.33.77.24,1.18-1.27,5.87-2.99,11.58-5.44,17.08-2.01,4.5-4.44,8.74-7.25,12.78-2.05,2.93-4.25,5.73-6.85,8.21-.43.41-1.02.75-1.08,1.45-1.08.12-1.74.93-2.53,1.54-.24-1.19.31-2.24.58-3.34.77-3.13,1.22-6.32,1.72-9.5.26-1.63.56-3.27.73-4.91.17-1.65.45-3.29.4-4.96-.05-1.62-.01-3.24-.01-4.86,1.44-1,2.88-2.01,4.33-3,5.27-3.6,10.22-7.62,15.16-11.66ZM266.07,241.36c1.66.02,2.91-1.23,2.9-2.89-.01-1.61-1.33-2.98-2.89-2.99-1.57,0-2.9,1.42-2.92,3.13-.02,1.49,1.3,2.73,2.91,2.75Z"/>
      <path class="cls-4" d="M204.79,141.77c-1.78.2-3.48-.42-5.22-.58-.66-.06-.92-.52-1.17-1.09-2.02-4.59-3.69-9.3-5.05-14.12-1.09-3.85-2-7.75-2.78-11.69-.17-.85.06-1.31.77-1.73,1.89-1.12,3.84-2.11,5.86-2.98,4.75-2.04,9.66-3.57,14.8-4.17,5.79-.67,11.53-.28,17.18,1.21,4.72,1.24,9.24,2.96,13.52,5.31,2,1.1,2.08,1.24,1.43,3.47-.03.09-.06.18-.09.27-.88-.44-1.69-1.04-2.7-1.18-1.01-1.6-2.41-2.23-4.26-1.67-.13.04-.28.02-.43.03-1.26-.86-2.75-.96-4.18-1.29-2.83-.64-5.7-1.19-8.6-1.29-3.09-.11-6.2-.23-9.28.29-2.16.24-4.27.77-6.38,1.27-2.99.71-5.89,1.75-8.81,2.69-.18-.28-.32-.59-.53-.84-1.32-1.57-3.9-1.28-4.78.58-.53,1.11-.29,2.21.36,3.23-.03.19-.07.41-.28.45-.93.18-.91.87-.81,1.55.07.47.26.91.4,1.37.42,1.37.94,2.71,1.24,4.1.75,3.47,2.07,6.72,3.6,9.9.21.43.39.89.97.94.17,2.54,1.64,3.58,4.1,2.91.09-.02.19-.04.28-.05-.04.5.1.85.69.84,1.57-.01,3.11.43,4.7.32.66-.05,1.32,0,1.99.16.59.14,1.26.19,1.84.05,1.23-.29,2.47-.19,3.7-.24.9-.03,1.79-.06,2.7-.21.85-.14,1.78-.35,2.63.14-4.27,1.14-8.61,1.82-13.04,1.79-1.09,0-2.18,0-3.28,0-.36,0-.77-.13-1.06.23Z"/>
      <path class="cls-4" d="M189.79,276.68c.37,1.3,1.09,2.44,1.6,3.68-.34.13-.69.26-1.03.39,0,0-.01-.02-.01-.02.04-.18-.05-.28-.2-.36-1.72-2.76-3.01-5.73-4.26-8.71-3.4-8.07-5.67-16.47-7.21-25.07-.58-3.24-1.05-6.5-1.31-9.78-.03-.38-.04-.76-.06-1.23.71-.05,1.15.43,1.65.71,5.7,3.17,11.56,5.99,17.79,8,7.04,2.28,14.25,3.44,21.65,3.33,7.83-.11,15.42-1.58,22.75-4.32,5.27-1.97,10.33-4.4,15.2-7.22.4-.23.8-.45,1.24-.69.13.53,0,.94-.05,1.36-5.15,4.07-11.05,6.78-17.07,9.2-4.11,1.65-8.42,2.71-12.8,3.46-3.81.65-7.63,1.13-11.5,1.07-3.33-.05-6.64-.52-9.92-1.13-3.99-.74-7.93-1.66-11.73-3.1-2.85-1.08-5.64-2.32-8.35-3.73-1.69-.88-3.44-1.65-5.05-2.68-.15-.1-.33-.19-.65-.04-.2.66-.16,1.44-.02,2.15.19.95-.06,2,.58,2.85-.19,1.19-.22,2.36.54,3.41-.15,2.32.62,4.5,1.03,6.74.46,2.48,1.11,4.92,1.84,7.33,1.41,4.69,2.85,9.38,5,13.8.1.21.24.4.37.6Z"/>
      <path class="cls-5" d="M136.73,197.73c-.58,3.96-.98,7.93-1.25,11.92-.4,5.75-.6,11.51-.23,17.28.22,3.37.49,6.74.74,10.11-.52.45-.24,1.07-.33,1.61-.08.48.12,1.05-.35,1.4-.34-.04-.48-.25-.64-.41-2.99-2.87-4.79-6.5-6.46-10.19-1.26-2.79-1.81-5.8-2.6-8.74,0-.23,0-.46,0-.69-.01-.48.04-.94.16-1.41,1.09-4.04,2.38-8,4.53-11.64,1.69-2.86,3.08-5.89,5.21-8.48.35-.43.61-.85,1.23-.76Z"/>
      <path class="cls-5" d="M298.97,237.07c.24-2.47.52-4.93.7-7.4.49-6.77.41-13.53-.13-20.29-.3-3.8-.74-7.58-1.12-11.36.32,0,.53.2.68.45,1.11,1.76,2.38,3.41,3.41,5.24,3.21,5.73,5.75,11.69,6.95,18.17-.4.26-.48.68-.57,1.1-.37,1.72-.92,3.38-1.51,5.03-1.44,4.01-3.54,7.66-6.29,10.92-.31.37-.63,1.02-1.2.85-.61-.19-.37-.88-.45-1.37-.08-.47.25-1.09-.48-1.33Z"/>
      <path class="cls-1" d="M214.57,110.56c3.08-.52,6.19-.4,9.28-.29,2.9.1,5.76.65,8.6,1.29,1.42.32,2.92.43,4.18,1.29-.04.53-.52.77-.77,1.17-.62,1-.55,2.18.2,3.21.65.89,2.08,1.36,3.2,1.06,1.01-.28,1.89-1.32,2-2.37.05-.47.05-.95.07-1.42,1.01.15,1.82.74,2.7,1.18-.5,3.49-1.46,6.89-2.37,10.29-1.18,4.42-2.9,8.67-4.52,12.95-.67,1.77-1.65,2.39-3.35,2.61-2.74.36-5.49.64-8.24.87-1.66.14-3.33.22-4.99.37-3.3.29-6.58,0-9.86-.3-1.47-.13-2.94-.25-4.41-.39-.51-.05-1.06.13-1.5-.3.29-.36.7-.23,1.06-.23,1.09-.01,2.18-.02,3.28,0,4.43.03,8.77-.65,13.05-1.79,2.57-.84,5.17-1.61,7.61-2.82.22.3.42.62.67.9.77.89,2.23,1.21,3.28.74.96-.43,1.53-1.53,1.48-2.72-.04-.95-.65-1.55-1.2-2.2,0-.44.06-.84.36-1.2,1.94-2.33,3.21-5.06,4.48-7.77,1.04-2.2.93-2.04-.9-3.7-.07-.06-.17-.09-.24-.15-1.7-1.46-3.65-2.57-5.48-3.84-1.09-.75-2.24-1.47-3.45-2.01-3.91-1.77-7.98-3.06-12.16-4.01-.68-.16-1.45.15-2.05-.4Z"/>
      <path class="cls-5" d="M275.74,191.36c.65,2.19.77,4.47,1.07,6.72.62,4.63.63,9.29.51,13.94-.06,2.13-.33,4.25-.51,6.37-2.88,2.42-5.8,4.8-8.93,6.88-.37-.35-.31-.82-.23-1.21.43-2.15.4-4.35.78-6.5.02-.14.04-.28.05-.43.1-4,.49-8,.28-12.01-.12-2.23-.38-4.45-.59-6.67-.02-.17-.18-.32-.28-.47.74-.66,1.48-1.33,2.23-1.99.33-.28.71-.57,1.14-.55.85.05,1.08-.46,1.39-1.13.63-1.38,1.73-2.34,3.11-2.96Z"/>
      <path class="cls-2" d="M125.6,220.71c.79,2.94,1.34,5.95,2.6,8.74,1.68,3.69,3.48,7.32,6.46,10.19.17.16.31.37.64.41.47-.35.28-.91.35-1.4.08-.54-.19-1.16.33-1.61.49,1.25.51,2.6.76,3.9,1.64,8.39,4.18,16.46,8.47,23.91.07.11.09.25.23.62-.55-.34-.95-.54-1.29-.81-8.62-6.76-14.34-15.46-17.47-25.93-1.35-4.51-2.17-9.09-2.22-13.8,0-.47-.08-.96.11-1.42.44-.08.42-.41.45-.75.07-.7-.05-1.42.29-2.08.1.01.2.02.29.04Z"/>
      <path class="cls-2" d="M298.97,237.07c.73.24.4.86.48,1.33.08.49-.16,1.19.45,1.37.57.17.89-.48,1.2-.85,2.75-3.26,4.85-6.91,6.29-10.92.59-1.65,1.15-3.31,1.51-5.03.09-.42.16-.84.57-1.1.22,1.42.43,2.83.65,4.25-.04.48-.14.97.18,1.41-.08,3.25-.62,6.43-1.44,9.58-1.79,6.83-4.89,13.01-9.13,18.64-2.68,3.56-5.75,6.76-9.44,9.31-.15.1-.27.25-.49.21-.19-.38.14-.63.29-.88,2.19-3.61,3.64-7.55,5.05-11.5,1.84-5.13,2.94-10.44,3.83-15.8Z"/>
      <path class="cls-4" d="M310.12,226.12c-.22-1.42-.43-2.83-.65-4.25-1.21-6.48-3.74-12.44-6.95-18.17-1.03-1.83-2.3-3.48-3.41-5.24-.16-.25-.36-.44-.68-.45-.58-2.94-1.16-5.89-1.77-8.96.59.31.88.78,1.21,1.17,5.37,6.33,8.96,13.57,11.03,21.58,1.21,4.7,1.73,9.47,1.42,14.33-.07,0-.13,0-.2-.02Z"/>
      <path class="cls-4" d="M172.93,232.76c.06.37.1.73-.02,1.1-1.86-.21-3.4-1.23-4.98-2.1-3.72-2.05-7.29-4.36-10.62-7-1.53-1.21-3.03-2.47-4.52-3.74-1.53-1.29-2.97-2.69-4.39-4.11-2.24-2.23-4.3-4.6-6.15-7.15-.44-.61-.99-1.14-1.48-1.7.03-.42.05-.84.09-1.39,10.03,9.64,20.52,18.52,32.07,26.09Z"/>
      <path class="cls-5" d="M169.21,226.75c0-1.19.04-2.39,0-3.58-.16-3.96.26-7.91.35-11.86.05-2.32.42-4.63.55-6.96.04-.84.44-.96,1.11-.43.22.18.39.47.64.56,1.91.7,1.84,2.25,1.57,3.78-.16.95-.14,1.9-.21,2.84-.32,4.14-.16,8.3-.35,12.44-.08,1.85-.11,3.71-.27,5.56-1.24-.63-2.36-1.42-3.39-2.35Z"/>
      <path class="cls-4" d="M125.3,220.68c-.34.66-.22,1.38-.29,2.08-.03.34-.01.67-.45.75.2-13.21,5.17-24.54,13.61-34.52.06,1.51-.41,2.93-.62,4.39-.21,1.46-.54,2.91-.82,4.36-.63-.09-.88.33-1.23.76-2.13,2.59-3.53,5.62-5.21,8.48-2.15,3.64-3.44,7.59-4.53,11.64-.13.47-.17.93-.16,1.41-.23.16-.32.38-.29.66Z"/>
      <path class="cls-5" d="M190.36,280.74c.34-.13.69-.26,1.03-.39,1.03,1.75,2.09,3.49,3.09,5.26,1.33,2.36,2.63,4.73,4.39,6.81.11.13.12.35.18.52-.3.08-.53,0-.74-.26-2.98-3.77-5.89-7.58-7.95-11.95Z"/>
      <path class="cls-1" d="M280.8,184.81c-.03.66-.45,1.07-.9,1.46-.17,0-.34,0-.51,0,.37-.58.82-1.09,1.42-1.46Z"/>
      <path class="cls-5" d="M310.12,226.12c.07,0,.13.01.2.02.11.47.04.93-.02,1.4-.31-.44-.21-.93-.18-1.41Z"/>
      <path class="cls-2" d="M193.69,291.72c.13.07.4.07.28.28-.09.16-.3.05-.41-.11.05-.05.09-.11.13-.17Z"/>
      <path class="cls-4" d="M186.08,236.78c.12.09.23.17.35.26-.18,0-.33-.04-.35-.26Z"/>
      <path class="cls-5" d="M190.15,280.37c.15.07.23.18.2.36-.17-.06-.21-.19-.2-.36Z"/>
      <path class="cls-1" d="M281.09,184.43c-.04.18-.11.34-.3.41.02-.2.15-.31.3-.41Z"/>
      <path class="cls-4" d="M164.56,164.41c.09-2.06.86-3.89,2.78-5.03,1.85-1.09,3.93-.05,3.95,2.33.02,1.82-.62,3.35-1.68,4.72-.89,1.16-3.38,1.92-4.62.28-.53-.7-.27-1.46-.43-2.3Z"/>
      <path class="cls-3" d="M152.33,172.44c-.62-.88-1.03-1.8-.7-2.92.35-1.23,1.18-1.9,2.37-2.21.87.01,1.7.08,2.38.74,1.13,1.09,1.35,2.63.49,3.9-.82,1.2-2.31,1.61-3.68,1-.3-.13-.57-.33-.86-.5ZM155.43,168.77c-.75-.47-1.46-.54-2.08.21-1.01.97-1.08,1.84-.23,2.64.8.74,2.21.59,2.91-.3.72-.92.5-1.85-.6-2.55Z"/>
      <path class="cls-3" d="M169.99,183.96c.04,1.6-1.32,3.06-2.93,3.12-1.58.05-2.89-1.23-2.94-2.87-.05-1.61,1.33-3.02,2.96-3.04,1.46-.02,2.86,1.33,2.9,2.8ZM168.53,183.13c-.81-1.28-1.65-1.36-2.61-.23-.85.83-.96,1.63-.32,2.42.61.75,1.56.88,2.4.31.94-.63,1.12-1.48.52-2.5Z"/>
      <path class="cls-3" d="M249.34,200.01c-.54,2.18-2.98,3.03-4.92,1.69-.62-.71-.94-1.5-.87-2.47.11-1.62,1.23-2.75,2.84-2.8,1.5-.04,2.67,1,2.88,2.58.04.33.05.66.08.99ZM245.72,197.69c-1.12.64-1.17.74-.96,2.04.32,1.23,1.18,1.78,2.27,1.44.89-.27,1.38-1.3,1.12-2.34-.27-1.07-1.2-1.51-2.43-1.15Z"/>
      <path class="cls-3" d="M279.42,167.4c.28-.02.57-.05.85-.05,1.66-.03,2.84.86,3.08,2.31.26,1.61-.56,2.93-2.15,3.46-.13.04-.25.12-.38.18-1.84.08-3.32-1.58-3.16-3.45.11-1.19.91-1.82,1.76-2.44ZM278.81,170.19c-.26.95.35,1.45,1.06,1.74.66.27,1.41.25,2-.28.61-.55.58-1.27.4-1.97-.23-.9-.88-1.23-2.09-1.16-.83.26-1.51.63-1.37,1.68Z"/>
      <path class="cls-3" d="M190.46,201.76c-.48.16-.87.5-1.42.54-1.75.14-2.55-.37-3.35-2.27-.19-1.21.12-2.23,1.14-2.99,1.03-.77,2.18-.87,3.19-.28,1,.59,1.65,1.89,1.46,3.03-.12.75-.35,1.48-1.02,1.96ZM187.86,197.74h0c-.98.5-1.31,1.08-1.15,1.99.15.83.81,1.43,1.67,1.51,1.08.1,1.49-.21,1.92-1.42.27-.95.16-1.74-.91-2.12-.52-.35-1.03-.52-1.53.04Z"/>
      <path class="cls-3" d="M270.1,186.25c-.24.03-.38.21-.51.39-2.37.98-4.47-.16-4.56-2.47-.06-1.66,1.3-3.07,2.92-3.02,1.82.06,3.17,1.57,2.95,3.31-.09.68-.38,1.27-.8,1.8ZM268.17,182.25c-.6-.13-1.12-.04-1.49.5-.83.58-.72,1.37-.4,2.15.31.75,1.04,1.18,1.81,1.14.88-.05,1.35-.63,1.67-1.35.47-1.09-.13-1.99-1.58-2.43Z"/>
      <path class="cls-3" d="M254.11,246.22c.04,1.9-1.37,2.7-2.81,2.74-1.64.05-3.08-1.38-3.1-2.93-.02-1.57,1.31-2.91,2.9-2.92,1.7-.02,3.03,1.36,3.01,3.11ZM249.48,245.95c-.16.81.14,1.4.9,1.72.7.29,1.4.28,2.01-.23.57-.47.75-1.13.55-1.81-.24-.8-.67-1.49-1.69-1.4-1.01.13-1.83.47-1.77,1.71Z"/>
      <path class="cls-3" d="M181.56,248.21c-.75-1.04-.73-2.21-.54-3.41.51-.48.84-1.12,1.55-1.42,1.23-.52,2.57-.27,3.38.72.85,1.04.91,2.52.14,3.6-.81,1.14-2.19,1.59-3.4,1.09-.39-.16-.76-.38-1.14-.58ZM185.07,244.74l-.02-.02c-.95-.78-1.86-.76-2.56.06-.7.82-.66,2.06.08,2.7.74.63,1.99.54,2.73-.19.77-.76.69-1.58-.24-2.55Z"/>
      <path class="cls-3" d="M258.74,260.33c.79-.6,1.45-1.41,2.53-1.54,1.25.17,2.26.69,2.79,1.92.51,1.19.31,2.35-.61,3.27-.88.87-2.25,1.13-3.29.61-1.14-.57-1.8-1.8-1.62-3.06.05-.33.26-.62.18-.97.06-.09.07-.18.03-.27v.04ZM260.65,260.23c-.21.05-.39.15-.49.35-.8.82-.92,1.71-.32,2.46.62.78,1.72.96,2.54.4.82-.54,1.07-1.46.65-2.36-.49-1.04-1.2-1.29-2.39-.86Z"/>
      <path class="cls-3" d="M289.8,221.84c-1.71-.01-2.68-1.02-2.68-2.79,0-1.79,1.15-2.95,2.92-2.95,1.5,0,2.77,1.22,2.76,2.66,0,1.76-1.3,3.09-3,3.08ZM288.56,217.82c-.37.25-.37.65-.38,1.02-.05,1.07.54,1.79,1.51,1.88.94.09,1.84-.55,2.02-1.43.19-.93-.38-1.71-1.45-2-.67-.16-1.25-.06-1.69.52Z"/>
      <path class="cls-3" d="M255.44,283.24c0,1.46-1.56,2.96-3.11,3.01-1.41.04-2.71-1.37-2.71-2.94,0-1.61,1.44-3.11,2.96-3.08,1.53.03,2.87,1.43,2.86,3.01ZM254.45,283.16c-.04-1.02-.92-1.77-2.03-1.75-1.11.03-1.85.82-1.79,1.93.05,1.1.9,1.96,1.88,1.91,1.03-.05,1.98-1.08,1.94-2.09Z"/>
      <path class="cls-1" d="M258.75,260.29c.04.09.03.19-.03.27-.11-.05-.14-.12-.08-.2.02-.03.07-.05.11-.07Z"/>
      <path class="cls-3" d="M147.98,219.13c-.01,1.64-1.24,2.81-2.94,2.81-1.46,0-2.92-1.47-2.93-2.94-.01-1.55,1.44-2.97,3.04-2.98,1.58-.01,2.85,1.38,2.83,3.12ZM145.96,217.55c.01-.22-.1-.28-.3-.22-1.59-.24-1.97.04-2.21,1.61.07,1.09.48,1.64,1.34,1.79.88.15,1.68-.23,2-.96.35-.8.07-1.58-.82-2.21h-.01Z"/>
      <path class="cls-3" d="M176.62,261.14c-.22.3-.06.65-.11.97-.24,1.65-1.44,2.74-2.98,2.72-1.44-.02-2.61-.99-2.83-2.35-.25-1.59.59-2.93,2.13-3.44,1.44-.47,2.76.17,3.49,1.69.08.16.06.38.31.41,0,0,0,0,0,0ZM174.7,260.49c-.8-.72-1.58-.75-2.35.05-.9,1.21-.89,2.15.04,2.82.83.6,2.08.47,2.73-.29.68-.79.54-1.6-.42-2.57Z"/>
      <path class="cls-3" d="M171.81,238.62c-.02,1.59-1.34,2.8-3.01,2.75-1.56-.04-2.84-1.32-2.82-2.82.01-1.62,1.43-3.07,2.99-3.08,1.54,0,2.88,1.47,2.85,3.15ZM170.04,237.09c-.64-.6-1.32-.6-2.02-.12-.8.55-1.11,1.29-.88,2.12.19.7.9,1.13,1.78,1.13.75,0,1.34-.33,1.59-1,.28-.76.38-1.58-.47-2.14Z"/>
      <path class="cls-3" d="M179.6,283.21c.03-1.71,1.19-2.84,2.9-2.83,1.57.01,2.96,1.47,2.92,3.09-.03,1.47-1.42,2.84-2.89,2.79-1.43-.05-3.11-1.33-2.93-3.05ZM180.59,283.21c-.03,1.1.84,2.03,1.92,2.05.92.02,1.92-1,1.92-1.94,0-1.02-.87-1.91-1.9-1.92-1.09-.02-1.92.76-1.95,1.82Z"/>
      <path class="cls-1" d="M181.27,274.34s.08.08.12.12c-.04-.04-.09-.07-.13-.11,0,0,.01-.01.01-.01Z"/>
      <path class="cls-3" d="M266.07,241.36c-1.61-.02-2.93-1.26-2.91-2.75.02-1.71,1.35-3.14,2.92-3.13,1.56,0,2.88,1.38,2.89,2.99.01,1.67-1.23,2.91-2.9,2.89ZM266.74,236.76c-1.36-.45-1.96-.07-2.24,1.43-.37.96.1,1.84,1.09,2.04.97.2,1.97-.26,2.29-1.06.35-.88-.06-1.75-1.14-2.42Z"/>
      <path class="cls-5" d="M214.57,110.56c.6.54,1.37.24,2.05.4,4.18.95,8.25,2.25,12.16,4.01,1.21.55,2.35,1.26,3.45,2.01,1.84,1.27,3.78,2.38,5.48,3.84.07.06.17.08.24.15,1.83,1.66,1.93,1.49.9,3.7-1.27,2.71-2.54,5.44-4.48,7.77-.3.36-.37.76-.36,1.2-.27-.08-.54-.17-.82-.24-1.61-.37-3.12.63-3.36,2.23-.06.42-.03.85-.05,1.28-2.44,1.21-5.04,1.98-7.61,2.82-.85-.5-1.78-.28-2.63-.14-.9.14-1.8.17-2.7.21-1.23.04-2.47-.05-3.7.24-.58.14-1.25.09-1.84-.05-.67-.16-1.33-.21-1.99-.16-1.58.12-3.12-.33-4.7-.32-.58,0-.73-.34-.69-.84.17-.16.35-.3.51-.47.86-.95,1.19-2,.69-3.25-.45-1.13-1.24-1.75-2.47-1.76-1.34-.01-2.2.71-2.76,1.86-.12.25-.23.51-.35.77-.58-.04-.76-.51-.97-.94-1.54-3.18-2.86-6.43-3.6-9.9-.3-1.39-.82-2.73-1.24-4.1-.14-.45-.33-.9-.4-1.37-.1-.68-.12-1.37.81-1.55.21-.04.26-.25.28-.45.16.09.34.16.49.27,1.14.78,2.29.84,3.45.03,1.05-.74,1.37-1.78,1.02-3.27,2.92-.95,5.82-1.98,8.81-2.69,2.11-.5,4.22-1.03,6.38-1.27Z"/>
      <path class="cls-2" d="M199.55,135.81c.12-.26.22-.52.35-.77.56-1.15,1.41-1.87,2.76-1.86,1.23.01,2.02.63,2.47,1.76.5,1.25.17,2.31-.69,3.25-.16.17-.34.31-.51.47-.09.02-.19.03-.28.05-2.46.67-3.93-.37-4.1-2.91ZM203.28,134.65c0-.15-.08-.21-.23-.19-1.36-.07-1.41-.04-1.91,1.05-.07.07-.19.13-.19.2-.07.89.49,1.67,1.34,1.92.57.16,1.39-.21,1.71-.76.41-.73.18-1.48-.68-2.15l-.04-.06Z"/>
      <path class="cls-2" d="M241.32,114.49c-.02.47-.03.95-.07,1.42-.1,1.05-.99,2.09-2,2.37-1.12.31-2.55-.17-3.2-1.06-.75-1.02-.82-2.21-.2-3.21.25-.4.73-.64.77-1.17.14,0,.29,0,.43-.03,1.86-.55,3.25.08,4.26,1.67ZM238.61,114.04c-.41-.08-.81-.13-1.1.25-.39.17-.54.52-.67.88-.23.65.17,1.48.88,1.89.67.39,1.39.26,1.89-.34.84-1.01.44-2.09-1.01-2.68Z"/>
      <path class="cls-2" d="M199.39,114.53c.35,1.49.03,2.53-1.02,3.27-1.15.81-2.3.74-3.45-.03-.15-.1-.33-.18-.49-.27-.65-1.02-.89-2.12-.36-3.23.88-1.86,3.46-2.15,4.78-.58.21.25.36.56.53.84ZM195.65,114.31c-.75.81-.82,1.83-.17,2.47.69.68,1.58.7,2.27.02.64-.63.91-1.44-.07-2.28q-.9-.92-2.04-.21Z"/>
      <path class="cls-1" d="M125.3,220.68c-.03-.27.07-.49.29-.66,0,.23,0,.46,0,.69-.1-.01-.2-.02-.29-.03Z"/>
      <path class="cls-3" d="M229.78,136.92c.01-.43-.01-.86.05-1.28.24-1.61,1.75-2.6,3.36-2.23.28.06.55.16.82.24.55.65,1.16,1.25,1.2,2.2.05,1.19-.52,2.29-1.48,2.72-1.05.47-2.51.14-3.28-.74-.24-.28-.45-.6-.67-.9ZM232.87,134.39c-1.72-.13-2.07.22-1.91,1.93.36,1.1,1.01,1.6,1.88,1.45.81-.14,1.51-.99,1.52-1.84,0-.82-.44-1.28-1.49-1.53Z"/>
      <path class="cls-2" d="M155.43,168.77c1.1.7,1.32,1.62.6,2.55-.7.9-2.11,1.04-2.91.3-.86-.79-.78-1.67.23-2.64.1.5.06,1.07.74,1.24,1.02.25,1.36-.1,1.34-1.45Z"/>
      <path class="cls-5" d="M155.43,168.77c.03,1.35-.32,1.7-1.34,1.45-.69-.17-.64-.74-.74-1.24.62-.75,1.33-.69,2.08-.21Z"/>
      <path class="cls-1" d="M168.53,183.13c.59,1.02.41,1.87-.52,2.5-.84.56-1.79.44-2.4-.31-.64-.79-.54-1.59.32-2.42.22.7.49,1.34,1.39,1.38.82.03,1.03-.53,1.21-1.14Z"/>
      <path class="cls-5" d="M168.53,183.13c-.19.61-.39,1.18-1.21,1.14-.9-.04-1.17-.67-1.39-1.38.96-1.12,1.8-1.05,2.61.23Z"/>
      <path class="cls-1" d="M245.72,197.69c1.23-.37,2.16.07,2.43,1.15.26,1.04-.24,2.07-1.12,2.34-1.08.33-1.95-.22-2.27-1.44.33,0,.66.03.99.02.81-.04.95-.24.92-1.04-.02-.65-.37-.93-.96-1.02Z"/>
      <path class="cls-5" d="M245.72,197.69c.58.09.93.37.96,1.02.03.8-.12,1.01-.92,1.04-.33.02-.66-.01-.99-.02-.21-1.31-.16-1.4.96-2.04Z"/>
      <path class="cls-2" d="M280.19,168.52c1.21-.07,1.86.27,2.09,1.16.18.7.21,1.43-.4,1.97-.59.53-1.34.55-2,.28-.71-.29-1.31-.79-1.06-1.74.53.02,1.12.65,1.58.07.39-.49.05-1.09-.16-1.61-.02-.04-.03-.09-.04-.14Z"/>
      <path class="cls-4" d="M280.19,168.52s.03.09.04.14c.21.53.55,1.13.16,1.61-.46.58-1.04-.05-1.58-.07-.14-1.05.55-1.42,1.37-1.68Z"/>
      <path class="cls-1" d="M190.3,199.82c-.43,1.21-.84,1.51-1.92,1.42-.85-.08-1.52-.67-1.67-1.51-.16-.9.17-1.48,1.15-1.98q.15,1.98,2.02,2.04c.14,0,.28.02.42.03Z"/>
      <path class="cls-5" d="M190.3,199.82c-.14-.01-.28-.03-.42-.03q-1.87-.06-2.02-2.04s0,0,0,0c.51-.01,1.02-.03,1.53-.04,1.07.38,1.18,1.16.91,2.12Z"/>
      <path class="cls-1" d="M189.39,197.7c-.51.01-1.02.03-1.53.04.49-.56,1.01-.39,1.53-.04Z"/>
      <path class="cls-2" d="M268.17,182.25c1.45.44,2.05,1.35,1.58,2.43-.31.73-.79,1.3-1.67,1.35-.77.04-1.5-.38-1.81-1.14-.32-.78-.43-1.56.4-2.15,0,.24,0,.48.02.71.07.57.43.84.98.81.58-.04.8-.42.84-.96.03-.41-.14-.74-.35-1.06Z"/>
      <path class="cls-5" d="M268.17,182.25c.22.32.39.65.35,1.06-.04.54-.26.93-.84.96-.55.03-.91-.24-.98-.81-.03-.24-.02-.48-.02-.71.37-.54.89-.63,1.49-.5Z"/>
      <path class="cls-1" d="M251.25,244.24c1.02-.09,1.45.59,1.69,1.4.2.68.02,1.34-.55,1.81-.61.51-1.31.52-2.01.23-.76-.32-1.06-.91-.9-1.72,2.23.65,2.32-.14,1.77-1.71Z"/>
      <path class="cls-5" d="M251.25,244.24c.56,1.57.46,2.36-1.77,1.71-.06-1.24.75-1.58,1.77-1.71Z"/>
      <path class="cls-1" d="M185.07,244.74c.92.96,1,1.79.24,2.55-.74.73-2,.82-2.73.19-.74-.64-.78-1.88-.08-2.7.7-.82,1.61-.84,2.56-.06-.42.04-.85.03-1.25.14-.43.12-.55.49-.4.9.13.37.43.47.8.39.8-.16.78-.82.87-1.42Z"/>
      <path class="cls-1" d="M260.65,260.23c1.19-.43,1.91-.18,2.39.86.42.89.16,1.81-.65,2.36-.83.55-1.92.38-2.54-.4-.6-.75-.48-1.64.32-2.46,0,.24-.02.48.02.71.09.49.41.73.91.71.37-.02.65-.18.73-.55.1-.46-.01-.86-.48-1.06-.21-.09-.46-.1-.69-.15Z"/>
      <path class="cls-4" d="M260.65,260.23c.23.05.48.06.69.15.47.2.58.6.48,1.06-.08.37-.36.54-.73.55-.5.02-.82-.22-.91-.71-.04-.23-.01-.47-.02-.71.1-.2.27-.3.49-.35Z"/>
      <path class="cls-1" d="M290.24,217.3c1.07.28,1.64,1.07,1.45,2-.18.88-1.08,1.52-2.02,1.43-.97-.1-1.56-.81-1.51-1.88.02-.37.02-.77.38-1.02.09.17.19.33.28.5.23.43.62.4,1,.33.41-.08.46-.43.45-.78,0-.19-.02-.38-.04-.57Z"/>
      <path class="cls-4" d="M290.24,217.3c.01.19.03.38.04.57.01.35-.05.7-.45.78-.37.08-.77.11-1-.33-.09-.17-.18-.33-.28-.5.44-.58,1.02-.68,1.69-.52Z"/>
      <path class="cls-2" d="M254.45,283.16c.04,1-.91,2.03-1.94,2.09-.98.05-1.83-.81-1.88-1.91-.05-1.11.69-1.9,1.79-1.93,1.11-.03,1.99.73,2.03,1.75Z"/>
      <path class="cls-1" d="M145.97,217.56c.89.64,1.18,1.41.82,2.21-.32.73-1.12,1.11-2,.96-.86-.15-1.28-.7-1.34-1.79,1.84.46,2.18.28,2.52-1.38Z"/>
      <path class="cls-4" d="M145.97,217.56c-.34,1.66-.67,1.85-2.52,1.38.24-1.57.62-1.85,2.21-1.61.03.16.12.25.3.22h.01Z"/>
      <path class="cls-1" d="M145.96,217.55c-.18.03-.26-.06-.3-.22.2-.06.31,0,.3.22Z"/>
      <path class="cls-1" d="M174.7,260.49c.97.97,1.1,1.78.42,2.57-.65.76-1.9.89-2.73.29-.93-.67-.94-1.61-.04-2.82.13,1.31.44,1.61,1.47,1.47.96-.14.8-.89.88-1.52Z"/>
      <path class="cls-5" d="M174.7,260.49c-.08.63.08,1.38-.88,1.52-1.03.15-1.34-.16-1.47-1.47.77-.8,1.55-.77,2.35-.05Z"/>
      <path class="cls-1" d="M170.04,237.09c.85.56.75,1.38.47,2.14-.25.67-.84,1-1.59,1-.88,0-1.59-.43-1.78-1.13-.23-.84.08-1.58.88-2.12.03.24.04.47.09.71.09.5.34.98.88.96.52-.03.99-.34,1.05-.97.02-.19,0-.38,0-.57Z"/>
      <path class="cls-4" d="M170.04,237.09c0,.19.01.38,0,.57-.06.63-.53.95-1.05.97-.54.03-.78-.45-.88-.96-.04-.23-.06-.47-.09-.71.7-.48,1.38-.49,2.02.12Z"/>
      <path class="cls-2" d="M180.59,283.21c.03-1.06.86-1.83,1.95-1.82,1.03.02,1.9.9,1.9,1.92,0,.94-1.01,1.96-1.92,1.94-1.08-.02-1.96-.95-1.92-2.05Z"/>
      <path class="cls-1" d="M266.74,236.76c1.08.67,1.5,1.54,1.14,2.42-.32.8-1.32,1.26-2.29,1.06-.99-.21-1.47-1.09-1.09-2.04.25-.06.44.11.66.17.8.24,1.26.02,1.52-.76.08-.26.04-.56.06-.84Z"/>
      <path class="cls-4" d="M266.74,236.76c-.02.28.02.58-.06.84-.25.78-.71,1.01-1.52.76-.22-.07-.41-.23-.66-.17.28-1.5.87-1.88,2.24-1.43Z"/>
      <path class="cls-1" d="M203.32,134.72c.86.68,1.09,1.42.68,2.15-.31.55-1.14.92-1.71.76-.85-.24-1.41-1.02-1.34-1.92,0-.07.13-.13.19-.2.51.48,1.09.77,1.77.44.52-.25.43-.77.4-1.24Z"/>
      <path class="cls-5" d="M203.32,134.72c.03.47.12.99-.4,1.24-.69.33-1.26.04-1.77-.44.51-1.09.55-1.12,1.91-1.05.08.06.15.13.23.19l.04.06Z"/>
      <path class="cls-1" d="M203.28,134.65c-.08-.06-.15-.13-.23-.19.15-.02.22.04.23.19Z"/>
      <path class="cls-1" d="M238.61,114.04c1.44.58,1.85,1.67,1.01,2.68-.5.6-1.22.73-1.89.34-.71-.41-1.11-1.24-.88-1.89.13-.35.28-.71.67-.88.01.41.13.81.61.73.53-.08.55-.54.49-.98Z"/>
      <path class="cls-5" d="M238.61,114.04c.06.44.04.9-.49.98-.48.08-.6-.32-.61-.73.3-.39.7-.33,1.1-.25Z"/>
      <path class="cls-1" d="M197.69,114.52c.98.84.71,1.65.07,2.28-.69.68-1.58.66-2.27-.02-.65-.64-.58-1.67.17-2.47-.09.66.18,1.17.81,1.3.68.14,1-.37,1.19-.96.01-.05.03-.09.04-.14Z"/>
      <path class="cls-4" d="M197.69,114.52s-.03.09-.04.14c-.18.59-.5,1.1-1.19.96-.63-.13-.9-.64-.81-1.3q1.14-.71,2.04.21Z"/>
      <path class="cls-1" d="M232.87,134.39c1.05.25,1.5.71,1.49,1.53,0,.86-.7,1.7-1.52,1.84-.86.15-1.51-.35-1.88-1.45.14,0,.28,0,.42,0,1.36,0,1.49-.12,1.48-1.51,0-.14,0-.28,0-.42Z"/>
      <path class="cls-4" d="M232.87,134.39c0,.14-.01.28,0,.42,0,1.39-.12,1.52-1.48,1.51-.14,0-.28,0-.42,0-.16-1.71.19-2.06,1.91-1.93Z"/>
      <path class="cls-4" d="M185.07,244.74c-.09.6-.07,1.25-.87,1.42-.37.07-.67-.03-.8-.39-.15-.41-.03-.78.4-.9.4-.11.83-.1,1.25-.14,0,0,.02.02.02.02Z"/>
    </g>
  </g>
</svg>