<?xml version="1.0" encoding="UTF-8"?>
<svg id="Robot_Completo" data-name="Robot Completo" xmlns="http://www.w3.org/2000/svg" viewBox="0 0 431.88 432.95">
  <defs>
    <style>
      .cls-1 {
        fill: #d58c67;
      }

      .cls-1, .cls-2, .cls-3, .cls-4, .cls-5, .cls-6, .cls-7, .cls-8 {
        stroke-width: 0px;
      }

      .cls-2 {
        fill: #a56447;
      }

      .cls-3 {
        fill: #211919;
      }

      .cls-4 {
        fill: #67777f;
      }

      .cls-5 {
        fill: #d4dddf;
      }

      .cls-6 {
        fill: #a4b5bb;
      }

      .cls-7 {
        fill: #7c898e;
      }

      .cls-8 {
        fill: #d4b160;
      }
    </style>
  </defs>
  <g id="Add_ons">
    <g id="A2">
      <path class="cls-3" d="M236.48,168.88c-.38-.55-.77-.86-1.51-.56-.36.14-.53.29-.61.63-.1.45-.23.9-.38,1.35-.16.46-.48.72-1.03.72-.83,0-1.67,0-2.5.02-.55.01-.88-.25-1.04-.7-.15-.41-.27-.83-.39-1.25-.25-.84-1.2-1.11-1.87-.51-.36.32-.71.65-1.08.97-.32.28-.68.33-1.1.17-.84-.32-1.61-.73-2.36-1.21-.41-.27-.55-.61-.44-1.05.12-.48.26-.96.38-1.44.18-.71-.54-1.37-1.3-1.2-.39.09-.79.13-1.16.26-.69.25-1.17,0-1.54-.5-.47-.64-.86-1.32-1.2-2.03-.23-.47-.12-.85.21-1.2.31-.33.66-.61.98-.92.55-.52.34-1.38-.4-1.63-.44-.15-.88-.28-1.33-.4-.63-.16-.96-.56-.98-1.14-.03-.71-.03-1.43,0-2.14.03-.54.33-.92.94-1.06.45-.1.9-.23,1.34-.36.77-.23.99-.94.45-1.51-.31-.33-.64-.63-.98-.93-.47-.43-.52-.9-.19-1.43.37-.59.72-1.19,1.1-1.77.32-.5.76-.75,1.42-.56.38.11.78.15,1.17.22,1.05.19,1.64-.39,1.37-1.35-.04-.15-.07-.3-.11-.45-.4-1.48-.37-1.56.98-2.33.43-.24.87-.46,1.31-.66.81-.36,1-.32,1.68.27.29.25.56.53.85.79.66.59,1.57.33,1.79-.5.1-.36.2-.72.28-1.08.13-.67.61-.93,1.27-.96.73-.03,1.47-.04,2.2-.01.65.02,1.15.28,1.3.94.07.33.2.66.26.99.09.47.31.73.84.89.54.16.81-.04,1.12-.34.35-.33.73-.63,1.09-.96.27-.24.61-.35.92-.2,1.09.51,2.23.95,3.08,1.83.32-.19.64-.43,1-.58.77-.3.95-.82.89-1.54-.03-.41-.13-.7-.52-.91-.37-.2-.72-.44-1.08-.67-.55-.35-.79-.8-.63-1.44.19-.72.45-1.43.75-2.11.19-.42.52-.62,1.01-.6.53.03,1.07,0,1.59.09.39.06.59-.03.84-.3.57-.6.75-1.14.39-1.96-.74-1.67-.66-1.7.89-2.73.32-.22.64-.44.98-.64.58-.35,1.02-.33,1.55.07.42.31.82.64,1.21.97.22.19.43.24.72.11.27-.12.56-.21.85-.26.35-.06.5-.26.59-.55.14-.51.31-1.01.44-1.52.13-.49.46-.73,1-.72.83,0,1.67.01,2.5,0,.56,0,.86.29,1.01.74.17.47.33.94.44,1.43.09.38.31.52.69.67.82.33,1.5.35,2.08-.37.12-.14.3-.24.46-.35.78-.57,1.05-.58,1.86-.04.54.36,1.07.74,1.61,1.1.53.36.67.82.44,1.39-.14.35-.23.72-.42,1.04-.31.54-.18.94.2,1.42.36.45.71.7,1.31.58.13-.02.27,0,.4,0,1.8.03,1.66-.22,2.33,1.5.16.41.26.83.41,1.24.2.55.02.97-.48,1.29-.39.24-.77.49-1.17.7-.45.23-.59.54-.64,1.04-.07.73.15,1.1.84,1.46,1.79.93,1.78.99,1.14,2.78-.18.5-.38.99-.59,1.52.08.06.17.15.28.2q1.22.53,2.4-.15c.17-.1.34-.2.51-.29.69-.35.97-.34,1.52.14.54.46,1.04.97,1.56,1.44.48.43.51.91.21,1.44-.23.41-.48.82-.71,1.23-.38.65.13,1.63.93,1.74.46.06.93.05,1.39.11.95.12,1.08.25,1.32,1.13.18.66.31,1.33.38,2.01.06.57-.21.96-.74,1.2-.45.2-.9.4-1.36.57-.35.13-.43.37-.53.7-.24.8.09,1.3.73,1.81,1.34,1.05,1.31,1.08.61,2.57-.2.42-.43.84-.65,1.25-.26.47-.65.68-1.23.58-.49-.09-.99-.14-1.47-.25-.47-.11-.76.02-1.13.32-.6.49-.64.95-.41,1.62.61,1.81.57,1.83-1.19,2.78-1.78.97-1.86.96-3.28-.43-.7-.69-1.15-.77-2.1-.42-.18.07-.25.17-.3.33-.13.38-.27.76-.4,1.15-.33,1.05-.45,1.14-1.59,1.14-.23,0-.47,0-.7,0-.35-.02-.62.02-.85.33-.2.27-.56.31-.9.29-.47-.03-.95,0-1.39-.12-.63-.17-.89.11-1.21.52-.26.33-.25.57-.05.91.25.43.42.91.62,1.37.21.49.13.92-.33,1.25-.63.46-1.25.92-1.95,1.3-.52.28-1.01.27-1.47-.11-.32-.27-.65-.53-.97-.81-.8-.68-1.66-.43-1.93.56-.13.48-.26.96-.39,1.44-.12.45-.45.69-.93.7-.87.01-1.73.01-2.6-.02-.51-.02-.86-.28-.98-.78-.12-.48-.26-.96-.38-1.44-.17-.72-1.1-1.04-1.71-.57-.39.3-.76.6-1.14.91-.47.38-.97.4-1.46.08-.63-.4-1.25-.82-1.87-1.24-.5-.35-.57-.83-.39-1.34.16-.44.38-.86.57-1.29.35-.76-.27-1.53-1.16-1.46-.46.04-.93.08-1.4.1-.74.04-.96-.06-1.23-.69-.3-.69-.51-1.41-.78-2.11-.2-.52.15-.87.43-1.22ZM250.26,153.51c.06-.07.15-.13.16-.2.03-.12.25-.24.06-.36-.1-.06-.23.04-.32.13-.06.06-.11.13-.17.2-.25.2-.51.4-.76.59-.79.59-1.09.61-1.95.07-.44-.27-.88-.56-1.3-.85-.4-.28-.76-.6-.75-1.23-.4.38-.8.52-.65,1.12.14.55.45.66.95.77.54.12,1.22.14,1.56.54.36.43.71.38,1.15.34.23-.02.47-.04.7,0,.68.12,1.07-.13,1.22-.75.03-.12.08-.23.12-.35ZM254.6,130.4c-.39-.09-.62.02-.72.4-.14.54-.33,1.06-.47,1.6-.08.31-.25.51-.58.55-.7.09-1.33.38-1.96.63-.4.16-.66.11-.97-.15-.45-.36-.94-.68-1.41-1.02-.24-.18-.46-.24-.66.04-.23.13-.46.24-.68.38-.71.45-.71.45-.45,1.19.12.35.19.74.39,1.05.36.56.2.96-.26,1.38-.5.45-.66,1.24-1.29,1.49-.62.25-1.38.03-2.07,0-.43-.02-.67.12-.83.49-.59,1.34-.62,1.38.71,2.12.83.46,1.34.97,1.12,1.92-.04.18-.04.38.02.55.25.81-.17,1.24-.89,1.62-1.51.81-1.48.83-.85,2.41.15.37.34.49.73.46.43-.04.87-.04,1.29-.12.68-.13,1.13.08,1.46.66.21.38.51.72.8,1.06.19.22.35.45.36.74-.37.2-.33.57-.43.88-.47,1.33-.46,1.32.78,2.14.32.21.55.28.86,0,.41-.36.86-.68,1.28-1.04.33-.29.65-.36,1.07-.16.56.27,1.15.49,1.78.6.46.09.69.32.71.76,0,.18.1.36.14.54.38,1.48.43,1.51,2.08,1.39.36-.03.54-.15.64-.46.16-.54.36-1.06.52-1.6.1-.33.31-.51.67-.61.57-.15,1.15-.31,1.7-.54.44-.18.76-.11,1.08.18.36.33.72.65,1.09.95.25.21.55.42.89.16.47-.37,1.14-.53,1.38-1.14.03-.07-.04-.18-.07-.27-.06-.18-.11-.36-.21-.52-.63-1.04-.49-1.9.41-2.82.57-.58,1-.88,1.89-.83,1.84.11,1.49.43,2.12-1.42.14-.41-.01-.63-.38-.82-.46-.24-.9-.53-1.35-.8-.31-.18-.45-.43-.43-.78.03-.56.06-1.12.02-1.67-.03-.43.15-.71.52-.92.2-.12.39-.24.58-.36,1.45-.87,1.24-.52.77-2.11-.14-.46-.4-.57-.86-.56-.7,0-1.51.27-2.06-.07-.57-.35-.89-1.05-1.32-1.6-.04-.05-.07-.11-.12-.15-.28-.26-.23-.53-.11-.85.15-.4.42-.78.39-1.23.31-.47.26-.82-.29-1.15-1.39-.85-.94-.9-2.22.04-.08.06-.16.12-.23.18-.52.48-1.06.65-1.77.27-.45-.24-1-.33-1.51-.47-.31-.09-.53-.24-.6-.55-.05-.24-.14-.48-.21-.71q-.42-1.4-1.98-1.31ZM224.03,161.67c-.05-.29-.26-.5-.42-.73-2.51-3.75-1.7-8.86,2.35-11.72,2.3-1.62,4.9-2,7.67-1.6,1.66.24,3.04,1.06,4.35,1.99.99,1.01,1.95,2.02,2.47,3.34.56,1.41.83,2.85.66,4.35.22.06.34-.06.48-.14,1.61-1.08,1.64-.92,2.76.12.54.5,1.05.23,1.57.1.5-.13.29-.56.33-.87.03-.24-.01-.5,0-.74.05-.5-.2-.69-.72-.81-2.22-.5-1.69-.05-2.37-2.18-.16-.51-.05-.83.36-1.12.16-.11.32-.23.47-.35q.98-.79.38-1.84c-.55-.97-.59-1.04-1.69-.68-1.03.35-1.89.39-2.59-.51-.72-.53-.92-1.18-.53-1.96.01-.03.01-.06.02-.09.34-1.51.54-1.06-.89-1.93-.44-.26-.77-.3-1.11.1-.1.12-.26.2-.36.32-.7.78-1.47,1.24-2.55.58-.05-.03-.13-.03-.19-.04-.79-.05-1.1-.48-1.28-1.17-.4-1.55-.44-1.53-2.1-1.47-.39.02-.63.11-.72.49-.1.39-.23.78-.37,1.16-.11.31-.1.72-.54.82-.77.18-1.51.49-2.31.48-.15,0-.31-.21-.45-.34-.36-.33-.7-.66-1.05-.99-.14-.13-.3-.32-.51-.22-.53.26-1.05.54-1.55.84-.19.11-.13.32-.08.51.13.48.22.97.37,1.44.14.41.08.7-.29.98-.39.29-.74.63-1.06.98-.26.28-.55.31-.89.24-.52-.11-1.04-.22-1.55-.33-.33-.07-.54.02-.73.31-.97,1.42-.98,1.41.32,2.6.12.11.24.21.35.33.09.09.18.19.24.3.07.13-.52,2.2-.67,2.28-.14.07-.31.11-.46.15-.51.14-1.02.28-1.53.42-.32.09-.46.27-.49.6-.12,1.51-.13,1.51,1.47,1.97.19.05.38.12.57.17.39.1.59.33.67.71.1.48.25.97.44,1.43.13.32.06.53-.18.74-.17.15-.33.31-.49.46-1.14,1.04-1.11,1.03-.32,2.27.27.42.53.44.97.33.7-.18,1.4-.4,2.14-.41.18.6.7.97,1.15,1.37.39.34.51.67.33,1.15-.14.38-.19.78-.28,1.18-.1.42.06.72.46.92.18.09.35.18.52.27.73.39.83.46,1.31-.16.93-1.21,2-1.29,3.35-.71.44.19.74.36.8.82.02.18.12.35.17.53.4,1.23.4,1.21,1.82,1.2.56,0,.91-.16.96-.68.13-1.28.85-2,2.23-2.15.13-.01.25-.08.37-.13.35-.11.65-.06.91.19.31.29.61.57.94.84.32.26.91.14,1.1-.19.26-.45.03-1.28-.45-1.56-.25-.15-.53-.27-.79-.4-.71-.35-1.27-.79-.93-1.74-.28.11-.44.16-.58.22-3.5,1.49-6.79,1.12-9.86-1-.69-.48-1.28-1.07-1.91-1.61ZM238.84,162.74q-.95-.06-1.26.75c-.06.15-.11.29-.16.44-.22.72-.23.73.43,1.12.42.25.86.48,1.28.73.16.1.42.15.44.35.09.74.07,1.48-.01,2.22-.02.2-.27.26-.44.36-.45.26-.91.51-1.37.76-.34.18-.41.44-.34.79.27,1.4.6,1.63,2.11,1.43.13-.02.26-.04.39-.08.52-.14.89-.02,1.15.45.31.55,1.06.94,1.07,1.52.01.57-.43,1.15-.68,1.72-.29.68-.3.67.35,1.12.11.07.22.14.33.21.91.58.78.67,1.54-.09.85-.86,1.69-1.34,2.88-.61.1.06.25.06.38.09.4.08.63.28.71.68.1.52.29,1.02.38,1.54.07.36.21.52.63.55,1.61.1,1.61.12,2.05-1.36,0-.03.03-.06.03-.09.08-.84.5-1.37,1.45-1.48.16-.02.33-.07.47-.15.63-.38,1.1-.18,1.54.31.26.28.6.49.87.76.32.33.61.38,1.02.1,1.61-1.1,1.4-.81.71-2.17-.42-.82-.54-1.49.26-2.13.17-.14.29-.34.39-.53.25-.48.65-.57,1.16-.45.16.04.32.09.49.1,1.88.1,1.46.23,1.94-1.23.25-.75.22-.76-.51-1.15-1.72-.91-1.71-.91-1.69-2.68,0-.4.16-.64.5-.83.48-.27.97-.55,1.44-.84.19-.12.44-.24.4-.49-.09-.55-.25-1.11-.59-1.56-.26-.34-.78-.18-1.12-.09-1.34.36-2.06-.22-2.71-1.22-.36-.55-.41-.93-.13-1.51.93-1.91.97-1.35-.72-2.5-.03-.02-.06-.03-.08-.05-.25-.18-.48-.18-.71.03-.17.15-.38.26-.53.43-.77.85-1.59,1.11-2.77.6-.56-.24-.87-.46-.97-.99-.03-.15-.07-.3-.11-.45-.4-1.48-.4-1.47-2.04-1.38-.4.02-.62.15-.69.51-.04.18-.14.36-.15.54-.07,1.09-.61,1.67-1.83,1.9-.91.17-1.47.12-2.04-.6-.75-.93-.93-.91-1.92-.26-.19.13-.37.27-.57.38-.35.19-.42.41-.24.76.26.5.47,1.02.71,1.53.17.38.1.68-.15,1.03-.7.97-1.5,1.62-2.85,1.19-.03,0-.07,0-.1,0ZM262.05,171.01c.16.14.33.11.49.14.58.11.84-.12.95-.65.09-.42.29-.82.43-1.24.11-.32.3-.51.69-.57.59-.09,1.19-.19,1.74-.38.56-.2.95-.13,1.29.32.11.15.26.28.4.42,1.05,1.05,1.06,1.04,2.36.21.37-.23.44-.47.36-.86-.15-.69-.71-1.4-.4-2.04.3-.61,1.03-1.03,1.54-1.56.28-.29.56-.39.97-.3.52.12,1.04.2,1.56.3.35.07.59-.05.7-.36.19-.53.78-.95.55-1.6-.05-.13-.24-.21-.37-.31-.33-.27-.64-.54-.98-.8-.32-.24-.44-.51-.35-.89.11-.48.23-.98.21-1.47-.03-.64.26-.98.86-1.19.19-.07.36-.16.55-.23,1.25-.5,1.24-.5.96-1.73-.11-.48-.27-.8-.89-.76-1.48.11-2.44-.52-2.93-1.81-.03-.09-.07-.17-.13-.25-.27-.38-.25-.73.01-1.12.33-.49.58-1.02.88-1.52.07-.12.12-.23.02-.33-.41-.45-.79-.98-1.38-1.17-.38-.12-.76.3-1.12.51-.2.11-.4.22-.59.35-.46.33-.88.3-1.36,0-.38-.24-.82-.4-1.24-.59-.42-.19-.9-.3-.87-.88,0-.19-.18-.23-.34-.27-1.08-.31-1.52-.18-2.18.66-.08.1-.16.2-.24.3-.53.69-.3,1.22.62,1.35,2.06.3,3.74,1.18,5.14,2.62,2.91,2.96,2.98,7.73.07,10.69-2.47,2.52-5.5,3.35-9.05,2.55-.99-.22-1.08-.12-1.01.81.03.4.16.71.59.88.21.09.41.21.61.32,1.23.71,1.27.8.93,2.1-.03.12-.03.24-.05.34ZM240.26,156.17c-.05-.56-.01-1.13-.15-1.66-.93-3.73-4.58-6.82-9.58-6.25-5.07.58-8.14,4.88-7.47,9.17.72,4.58,5.8,8.11,11.05,6.6,1.15-.33,2.38-.68,3.01-1.83.09-.16.24-.31.44-.36.76-.18,1.1-.76,1.45-1.33.84-1.34,1.32-2.77,1.25-4.34ZM260.89,161.67c-.25-.31-.41-.51-.55-.71-.94-1.25-1.15-2.58-.31-3.93.86-1.39,2.2-2.01,3.94-1.87,2.19.18,3.89,2.4,3.33,4.38-.62,2.2-2.84,3.34-5.19,2.69-.2-.06-.39-.28-.66-.05.11.31.25.62.33.95.16.66.63.9,1.3.92.2,0,.4.01.6,0,2.72-.11,4.93-1.93,5.48-4.5.49-2.29-.91-4.81-3.32-5.79-1.09-.44-2.24-.87-3.34.1-.29.26-.71.38-1.09.1-.34-.24-.61-.12-.91.05-1.23.72-2.11,1.69-2.57,2.98-.09.24-.22.52-.05.71.52.58.34,1.13.06,1.73-.42.88.16,1.54.62,2.22.12.18.34.21.53.16.55-.15,1.12-.07,1.81-.16ZM264.53,152.65c2.36.5,4.04,1.69,4.96,3.67,1.76,3.79-1.12,8.29-5.94,8.46-.97.03-1.59.31-2.08,1.02,2.13.86,6.04-.1,7.95-2.22,2.23-2.48,2.62-5.57,1.03-8.41-1.17-2.08-4.01-3.85-5.94-3.67.08.36.14.73.01,1.13ZM263.47,156.28c-1.48.01-2.68,1.11-2.69,2.47,0,1.41,1.14,2.45,2.67,2.43,1.51-.02,2.64-1.09,2.64-2.49,0-1.33-1.19-2.42-2.62-2.41ZM255.13,155.86c-.26-.13-.49-.09-.72-.1q-1.21-.06-1.56-1.15c-.12-.39-.19-.79-.35-1.16-.16-.38-.49-.39-.73-.06-.76,1.06-.73,1.24.28,2.06.03.02.05.04.08.06.75.45,1.12,1.03.75,1.87-.05.11-.1.25.03.34.14.09.34.1.47,0,.39-.29.76-.6,1.14-.91.29-.24.66-.45.6-.96ZM260.42,153.28c-.84-.82-.85-.79-1.75-.42-.86.35-1.23.98-1.44,1.77-.15.57-.27,1.13-1.07,1.3-.38.08-.38.46-.02.71.25.18.49.4.88.48.63-1.66,1.69-3,3.41-3.83ZM240.45,159.72c-.45.69-.89,1.36-1.32,2.04.79.34.84.33,1.39-.28.63-.7.63-.79-.07-1.76ZM241.64,147.84c-.1-.68-.36-1.14-.54-1.69q-.48.83.54,1.69Z"/>
      <path class="cls-8" d="M238.84,162.74s.07,0,.1,0c1.35.43,2.16-.22,2.85-1.19.25-.35.33-.66.15-1.03-.24-.51-.45-1.04-.71-1.53-.19-.35-.11-.57.24-.76.2-.11.38-.25.57-.38.99-.65,1.18-.68,1.92.26.57.71,1.13.77,2.04.6,1.23-.23,1.76-.81,1.83-1.9.01-.18.12-.36.15-.54.07-.37.29-.49.69-.51,1.64-.08,1.64-.09,2.04,1.38.04.15.09.3.11.45.1.53.41.75.97.99,1.18.51,2.01.25,2.77-.6.15-.16.36-.28.53-.43.23-.21.47-.21.71-.03.03.02.06.03.08.05,1.68,1.16,1.64.6.72,2.5-.28.58-.23.96.13,1.51.65,1,1.38,1.58,2.71,1.22.34-.09.86-.25,1.12.09.35.45.51,1.01.59,1.56.04.25-.21.38-.4.49-.47.29-.96.56-1.44.84-.34.19-.5.43-.5.83-.02,1.77-.04,1.77,1.69,2.68.73.39.76.39.51,1.15-.48,1.47-.06,1.33-1.94,1.23-.16,0-.33-.06-.49-.1-.51-.12-.91-.03-1.16.45-.1.19-.22.4-.39.53-.8.65-.68,1.31-.26,2.13.69,1.36.9,1.07-.71,2.17-.41.28-.7.23-1.02-.1-.27-.27-.62-.48-.87-.76-.44-.48-.91-.69-1.54-.31-.14.08-.31.13-.47.15-.95.11-1.37.64-1.45,1.48,0,.03-.02.06-.03.09-.44,1.48-.44,1.46-2.05,1.36-.42-.03-.56-.19-.63-.55-.09-.52-.28-1.02-.38-1.54-.07-.4-.31-.59-.71-.68-.13-.03-.28-.03-.38-.09-1.19-.73-2.03-.25-2.88.61-.76.77-.63.68-1.54.09-.11-.07-.22-.14-.33-.21-.65-.45-.64-.45-.35-1.12.25-.57.69-1.15.68-1.72-.01-.58-.76-.97-1.07-1.52-.26-.47-.64-.59-1.15-.45-.13.03-.26.06-.39.08-1.51.19-1.84-.04-2.11-1.43-.07-.35,0-.6.34-.79.46-.25.92-.49,1.37-.76.16-.1.41-.16.44-.36.08-.74.1-1.48.01-2.22-.02-.2-.28-.25-.44-.35-.42-.25-.86-.48-1.28-.73-.66-.4-.66-.41-.43-1.12.05-.15.11-.29.16-.44q.31-.81,1.26-.75ZM255.88,167.38c.13-3.54-3.15-6.31-6.55-6.3-4.16.01-6.81,3.33-6.77,6.2.05,4.12,3.9,6.38,6.73,6.3,3.94-.1,6.77-3.28,6.59-6.21Z"/>
      <path class="cls-1" d="M222.4,163.31c-.74.02-1.44.24-2.14.41-.44.11-.7.1-.97-.33-.79-1.24-.82-1.23.32-2.27.17-.15.32-.31.49-.46.25-.21.31-.43.18-.74-.19-.46-.34-.94-.44-1.43-.08-.39-.28-.61-.67-.71-.19-.05-.38-.11-.57-.17-1.6-.45-1.59-.46-1.47-1.97.03-.34.17-.51.49-.6.51-.14,1.02-.28,1.53-.42.16-.04.32-.08.46-.15.14-.08.74-2.15.67-2.28-.06-.11-.15-.21-.24-.3-.11-.12-.24-.22-.35-.33-1.3-1.19-1.29-1.18-.32-2.6.2-.29.4-.38.73-.31.52.11,1.04.22,1.55.33.35.08.64.04.89-.24.32-.35.67-.69,1.06-.98.37-.28.43-.57.29-.98-.16-.47-.24-.96-.37-1.44-.05-.19-.11-.39.08-.51.5-.3,1.02-.58,1.55-.84.21-.1.37.09.51.22.35.33.7.67,1.05.99.14.13.3.34.45.34.81.02,1.54-.3,2.31-.48.44-.1.43-.51.54-.82.13-.38.27-.77.37-1.16.09-.37.33-.47.72-.49,1.67-.07,1.7-.08,2.1,1.47.18.69.49,1.12,1.28,1.17.07,0,.14,0,.19.04,1.07.66,1.85.2,2.55-.58.11-.12.26-.2.36-.32.34-.4.67-.37,1.11-.1,1.43.86,1.22.41.89,1.93,0,.03,0,.06-.02.09-.39.79-.19,1.44.53,1.96-.39-.05-.68.1-.96.35-.37.34-.69.74-1.16.98-1.31-.93-2.69-1.75-4.35-1.99-2.77-.4-5.37-.02-7.67,1.6-4.05,2.86-4.86,7.97-2.35,11.72.16.23.37.45.42.73-.43.31-.87.61-1.3.93-.24.18-.4.4-.33.7Z"/>
      <path class="cls-8" d="M262.05,171.01c.01-.1.02-.22.05-.34.34-1.3.3-1.39-.93-2.1-.2-.11-.39-.23-.61-.32-.42-.17-.55-.48-.59-.88-.08-.92.02-1.03,1.01-.81,3.56.79,6.59-.04,9.05-2.55,2.91-2.97,2.84-7.73-.07-10.69-1.41-1.43-3.09-2.32-5.14-2.62-.92-.13-1.15-.66-.62-1.35.08-.1.16-.2.24-.3.66-.84,1.1-.97,2.18-.66.16.05.35.08.34.27-.02.57.45.69.87.88.42.19.86.35,1.24.59.48.3.9.32,1.36,0,.18-.13.39-.24.59-.35.36-.2.74-.63,1.12-.51.59.19.97.73,1.38,1.17.1.1.05.21-.02.33-.3.5-.56,1.03-.88,1.52-.26.39-.28.74-.01,1.12.05.08.09.16.13.25.49,1.29,1.46,1.92,2.93,1.81.62-.05.78.28.89.76.28,1.23.3,1.23-.96,1.73-.18.07-.36.16-.55.23-.59.21-.89.56-.86,1.19.02.49-.1.99-.21,1.47-.09.39.04.65.35.89.34.25.65.53.98.8.13.1.32.18.37.31.23.64-.36,1.06-.55,1.6-.11.31-.35.43-.7.36-.52-.1-1.05-.18-1.56-.3-.4-.09-.69,0-.97.3-.51.53-1.24.95-1.54,1.56-.31.64.25,1.35.4,2.04.08.38.01.62-.36.86-1.3.82-1.31.84-2.36-.21-.14-.14-.28-.27-.4-.42-.34-.45-.74-.51-1.29-.32-.55.19-1.16.29-1.74.38-.39.06-.58.24-.69.57-.14.41-.34.81-.43,1.24-.11.53-.37.76-.95.65-.16-.03-.33,0-.49-.14Z"/>
      <path class="cls-7" d="M263.41,134.11c.04.46-.24.83-.39,1.23-.12.32-.17.59.11.85.05.04.08.1.12.15.43.55.75,1.25,1.32,1.6.55.34,1.36.08,2.06.07.46,0,.73.1.86.56.47,1.59.68,1.24-.77,2.11-.2.12-.39.24-.58.36-.37.21-.55.49-.52.92.04.56.01,1.12-.02,1.67-.02.35.12.6.43.78.45.27.88.56,1.35.8.37.2.53.41.38.82-.64,1.85-.28,1.53-2.12,1.42-.89-.05-1.32.24-1.89.83-.9.92-1.04,1.78-.41,2.82.1.16.14.35.21.52.03.09.09.19.07.27-.24.61-.91.77-1.38,1.14-.33.26-.63.05-.89-.16-.38-.31-.74-.63-1.09-.95-.32-.3-.64-.37-1.08-.18-.54.23-1.12.39-1.7.54-.36.1-.57.27-.67.61-.16.54-.36,1.06-.52,1.6-.09.31-.28.44-.64.46-1.65.12-1.7.1-2.08-1.39-.05-.18-.14-.36-.14-.54-.02-.44-.25-.67-.71-.76-.62-.12-1.22-.33-1.78-.6-.43-.21-.74-.13-1.07.16-.41.36-.87.68-1.28,1.04-.31.28-.54.2-.86,0-1.24-.81-1.25-.81-.78-2.14.11-.3.07-.68.43-.88.46-.12.75-.44,1.01-.78.18-.25.35-.5.67-.61.27.18.54.36.8.55,3.25,2.34,7.6,2.26,10.78-.19,3.05-2.36,3.92-6.57,2.06-9.88-.5-.89-1.22-1.61-1.92-2.35.66-.43,1.17-.99,1.68-1.56.29-.32.45-.76.95-.9Z"/>
      <path class="cls-2" d="M240.26,156.17c.06,1.57-.41,3-1.25,4.34-.35.56-.69,1.14-1.45,1.33-.2.05-.35.2-.44.36-.63,1.15-1.85,1.5-3.01,1.83-5.24,1.51-10.33-2.03-11.05-6.6-.67-4.28,2.4-8.59,7.47-9.17,5.01-.57,8.65,2.52,9.58,6.25.13.54.1,1.11.15,1.66ZM238.86,156.3c.28-4.03-3.49-6.9-7.1-6.91-4.29-.01-7.4,3.38-7.39,6.73,0,4.44,3.8,7.03,7.46,7.07,3.4.04,7.42-3.13,7.03-6.89Z"/>
      <path class="cls-2" d="M222.4,163.31c-.07-.31.09-.53.33-.7.43-.32.87-.62,1.3-.93.64.54,1.23,1.14,1.91,1.61,3.07,2.12,6.36,2.49,9.86,1,.15-.06.3-.11.58-.22-.35.95.22,1.39.93,1.74.26.13.54.25.79.4.47.28.7,1.1.45,1.56-.19.34-.78.45-1.1.19-.33-.26-.63-.55-.94-.84-.26-.25-.57-.31-.91-.19-.13.04-.25.11-.37.13-1.38.15-2.1.87-2.23,2.15-.05.53-.4.68-.96.68-1.43,0-1.43.03-1.82-1.2-.06-.18-.15-.35-.17-.53-.06-.46-.36-.63-.8-.82-1.35-.59-2.42-.51-3.35.71-.47.62-.57.55-1.31.16-.17-.09-.35-.19-.52-.27-.4-.2-.56-.5-.46-.92.09-.39.14-.8.28-1.18.18-.48.06-.81-.33-1.15-.45-.4-.97-.77-1.15-1.37Z"/>
      <path class="cls-6" d="M249.07,148.45c-.32.11-.49.37-.67.61-.26.34-.55.66-1.01.78,0-.29-.17-.52-.36-.74-.29-.34-.59-.68-.8-1.06-.32-.58-.78-.78-1.46-.66-.42.08-.86.08-1.29.12-.38.03-.58-.09-.73-.46-.63-1.58-.66-1.6.85-2.41.72-.39,1.14-.81.89-1.62-.05-.17-.06-.38-.02-.55.22-.95-.3-1.46-1.12-1.92-1.33-.74-1.3-.78-.71-2.12.16-.37.4-.52.83-.49.69.04,1.45.25,2.07,0,.63-.25.79-1.04,1.29-1.49.46-.42.62-.82.26-1.38-.2-.31-.27-.69-.39-1.05-.26-.74-.26-.74.45-1.19.22-.14.45-.25.68-.38.39.68.8,1.35,1.16,2.04.31.58.7,1.13.84,1.77-.21.19-.43.38-.64.58-2.38,2.24-3.32,4.84-2.39,7.95.42,1.41,1.3,2.55,2.27,3.66Z"/>
      <path class="cls-8" d="M260.89,161.67c-.69.1-1.26.01-1.81.16-.19.05-.41.03-.53-.16-.46-.68-1.04-1.34-.62-2.22.28-.6.46-1.15-.06-1.73-.18-.2-.04-.48.05-.71.47-1.29,1.35-2.26,2.57-2.98.3-.17.57-.3.91-.05.38.28.8.16,1.09-.1,1.09-.97,2.25-.54,3.34-.1,2.4.97,3.81,3.49,3.32,5.79-.55,2.57-2.76,4.38-5.48,4.5-.2,0-.4,0-.6,0-.67-.02-1.14-.26-1.3-.92-.08-.33-.22-.64-.33-.95.27-.23.46,0,.66.05,2.36.66,4.57-.49,5.19-2.69.56-1.97-1.13-4.2-3.33-4.38-1.73-.14-3.07.48-3.94,1.87-.84,1.35-.63,2.68.31,3.93.15.2.31.39.55.71Z"/>
      <path class="cls-2" d="M237.98,149.6c.46-.25.78-.65,1.16-.98.28-.25.57-.4.96-.35.7.91,1.57.86,2.59.51,1.1-.37,1.14-.3,1.69.68q.6,1.05-.38,1.84c-.15.12-.31.24-.47.35-.41.29-.52.61-.36,1.12.67,2.13.15,1.68,2.37,2.18.52.12.76.31.72.81-.02.25.02.5,0,.74-.04.31.17.74-.33.87-.52.13-1.03.4-1.57-.1-1.12-1.04-1.15-1.2-2.76-.12-.13.09-.25.21-.48.14.18-1.49-.09-2.93-.66-4.35-.52-1.32-1.48-2.34-2.47-3.34Z"/>
      <path class="cls-2" d="M264.53,152.65c.13-.41.07-.77-.01-1.13,1.93-.18,4.77,1.59,5.94,3.67,1.59,2.83,1.2,5.93-1.03,8.41-1.91,2.12-5.82,3.08-7.95,2.22.49-.71,1.12-.99,2.08-1.02,4.82-.17,7.7-4.67,5.94-8.46-.92-1.98-2.6-3.17-4.96-3.67Z"/>
      <path class="cls-6" d="M263.41,134.11c-.49.14-.66.58-.95.9-.51.57-1.02,1.13-1.68,1.56-1.86-1.4-3.97-2.06-6.36-1.94-.11-1.42.35-2.81.19-4.23q1.57-.09,1.98,1.31c.07.24.16.47.21.71.07.31.28.47.6.55.51.14,1.05.23,1.51.47.71.38,1.25.2,1.77-.27.07-.07.15-.12.23-.18,1.28-.95.82-.9,2.22-.04.55.34.61.68.29,1.15Z"/>
      <path class="cls-5" d="M254.6,130.4c.17,1.42-.29,2.81-.19,4.23-1.69.14-3.21.72-4.59,1.63-.14-.65-.53-1.19-.84-1.77-.37-.69-.77-1.36-1.16-2.04.21-.28.42-.22.66-.04.47.35.96.66,1.41,1.02.31.25.57.31.97.15.63-.25,1.26-.54,1.96-.63.33-.04.5-.24.58-.55.14-.54.33-1.06.47-1.6.1-.38.33-.5.72-.4Z"/>
      <path class="cls-8" d="M255.13,155.86c.06.51-.31.71-.6.96-.37.31-.75.62-1.14.91-.13.1-.33.09-.47,0-.13-.09-.08-.23-.03-.34.37-.84,0-1.42-.75-1.87-.03-.02-.05-.04-.08-.06-1.02-.82-1.04-1-.28-2.06.24-.33.57-.32.73.06.16.37.23.77.35,1.16q.34,1.1,1.56,1.15c.23.01.47-.03.72.1Z"/>
      <path class="cls-2" d="M260.42,153.28c-1.71.83-2.78,2.17-3.41,3.83-.4-.08-.63-.3-.88-.48-.35-.25-.36-.63.02-.71.8-.16.91-.73,1.07-1.3.21-.78.59-1.42,1.44-1.77.9-.37.91-.4,1.75.42Z"/>
      <path class="cls-2" d="M240.45,159.72c.7.97.7,1.06.07,1.76-.55.61-.6.62-1.39.28.44-.68.88-1.35,1.32-2.04Z"/>
      <path class="cls-3" d="M255.88,167.38c.18,2.92-2.65,6.1-6.59,6.21-2.83.07-6.68-2.19-6.73-6.3-.03-2.87,2.61-6.19,6.77-6.2,3.39,0,6.68,2.76,6.55,6.3ZM255.05,167.3c.13-3.48-3.22-5.49-5.65-5.47-3.34.02-5.96,2.33-5.99,5.37-.03,3.09,2.49,5.57,5.79,5.57,3.16,0,5.91-2.19,5.86-5.47Z"/>
      <path class="cls-3" d="M249.83,136.26c1.38-.91,2.9-1.48,4.59-1.63,2.39-.12,4.5.54,6.36,1.94.7.74,1.42,1.46,1.92,2.36,1.86,3.31.99,7.52-2.06,9.88-3.17,2.45-7.52,2.53-10.78.19-.26-.19-.53-.37-.8-.55-.97-1.1-1.85-2.25-2.27-3.66-.93-3.11.01-5.71,2.39-7.95.21-.2.43-.38.64-.58ZM255.16,135.35c-4.26-.09-7.89,3.11-7.93,7.15-.04,4.14,3.45,7.39,7.83,7.48,3.62.07,7.9-2.66,7.88-7.33-.03-4.28-3.74-7.41-7.78-7.3Z"/>
      <path class="cls-3" d="M238.86,156.3c.39,3.77-3.63,6.93-7.03,6.89-3.65-.04-7.45-2.63-7.46-7.07,0-3.35,3.1-6.74,7.39-6.73,3.61,0,7.38,2.87,7.1,6.91ZM236.43,152.18c-1.44-1.71-3.48-2.26-5.61-1.97-5.15.69-7.14,6-4.58,9.41.18.42.57.67.88,1,1.76,1.88,5.21,2.44,7.79,1.04,2.01-1.1,3.08-2.8,3.29-4.93.17-1.74-.37-3.3-1.76-4.54Z"/>
      <path class="cls-8" d="M255.05,167.3c.05,3.28-2.7,5.47-5.86,5.47-3.29,0-5.81-2.48-5.79-5.57.03-3.05,2.65-5.35,5.99-5.37,2.43-.02,5.78,1.99,5.65,5.47ZM249.25,162.77c-2.46-.2-5.02,1.8-4.87,4.72.13,2.54,2.15,4.44,4.95,4.43,2.39,0,4.79-1.72,4.85-4.48.05-2.17-1.96-4.96-4.93-4.67Z"/>
      <path class="cls-4" d="M255.16,135.35c4.04-.11,7.75,3.02,7.78,7.3.03,4.67-4.25,7.4-7.88,7.33-4.38-.09-7.87-3.34-7.83-7.48.04-4.04,3.66-7.24,7.93-7.15ZM255.02,148.63c3.57.09,6.55-2.58,6.51-5.95-.04-3.65-3.04-6.02-6.36-6.06-3.14-.04-6.53,2.15-6.56,6.05-.03,3.28,2.87,5.96,6.41,5.97Z"/>
      <path class="cls-2" d="M236.43,152.18c1.39,1.24,1.93,2.81,1.76,4.54-.21,2.13-1.28,3.83-3.29,4.93-2.58,1.4-6.02.84-7.79-1.04-.3-.32-.69-.58-.88-1,.92-.32,1.64-.85,2.04-1.7.27.35.54.7.89.99,1.22,1.01,3.05,1.18,4.44.41,1.48-.82,2.14-2.26,1.78-3.79-.14-.59-.55-1.04-.79-1.58.32-.85.96-1.41,1.84-1.76Z"/>
      <path class="cls-1" d="M236.43,152.18c-.87.35-1.52.9-1.84,1.76-.26-.19-.51-.4-.79-.57-2.35-1.4-5.35-.17-5.88,2.37-.16.78.1,1.47.36,2.17-.4.86-1.12,1.38-2.04,1.7-2.56-3.41-.57-8.71,4.58-9.41,2.13-.29,4.17.26,5.61,1.97Z"/>
      <path class="cls-2" d="M249.25,162.77c2.97-.29,4.97,2.51,4.93,4.67-.06,2.76-2.47,4.48-4.85,4.48-2.79,0-4.82-1.9-4.95-4.43-.14-2.92,2.41-4.92,4.87-4.72ZM252.83,167.31c.09-1.82-1.92-3.39-3.64-3.39-1.88,0-3.57,1.66-3.57,3.46,0,1.77,1.65,3.25,3.62,3.24,1.9-.01,3.59-1.57,3.59-3.3Z"/>
      <path class="cls-3" d="M255.02,148.63c-3.53-.01-6.43-2.69-6.41-5.97.03-3.9,3.42-6.09,6.56-6.05,3.32.05,6.32,2.42,6.36,6.06.04,3.37-2.95,6.04-6.51,5.95ZM254.16,137.43c-1.07.07-1.95.51-2.74,1.15-1.92,1.42-2.44,3.72-1.8,5.6.79,2.34,3.1,3.86,5.67,3.76,2.6-.1,4.81-1.77,5.33-4.04.57-2.46-.59-4.88-2.92-5.97-1.1-.51-2.27-.9-3.54-.52Z"/>
      <path class="cls-3" d="M228.28,157.91c-.26-.7-.52-1.39-.36-2.17.54-2.54,3.54-3.76,5.88-2.37.28.17.53.38.79.57.24.54.65.99.79,1.58.36,1.53-.31,2.96-1.78,3.79-1.39.78-3.22.61-4.44-.41-.35-.29-.62-.64-.89-.99ZM234.22,156.29c.02-1.24-1.1-2.34-2.42-2.39-1.39-.05-2.65,1.09-2.65,2.38,0,1.27,1.17,2.38,2.53,2.39,1.32.02,2.52-1.11,2.54-2.38Z"/>
      <path class="cls-3" d="M252.83,167.31c0,1.74-1.69,3.29-3.59,3.3-1.97.01-3.62-1.46-3.62-3.24,0-1.8,1.7-3.46,3.57-3.46,1.72,0,3.73,1.57,3.64,3.39ZM251.57,167.29c.02-1.12-1.05-2.16-2.25-2.19-1.26-.03-2.42,1.05-2.41,2.26,0,1.1,1.11,2.12,2.32,2.13,1.24.01,2.33-1.01,2.35-2.2Z"/>
      <path class="cls-6" d="M254.16,137.43c1.27-.38,2.44,0,3.54.52,2.33,1.08,3.48,3.51,2.92,5.97-.52,2.26-2.73,3.94-5.33,4.04-2.57.1-4.88-1.42-5.67-3.76-.64-1.89-.12-4.18,1.8-5.6.18.55.46,1.03,1.02,1.32-.91.9-1.36,1.95-1.21,3.21.25,2.05,2.35,3.46,4.63,3.08,2.07-.35,3.52-2.44,3.03-4.34-.48-1.82-2.28-3.02-4.43-2.85,0-.4-.04-.8.01-1.2.04-.27-.12-.31-.31-.37Z"/>
      <path class="cls-5" d="M252.44,139.91c-.56-.3-.84-.77-1.02-1.32.79-.64,1.67-1.08,2.74-1.15.18.07.34.1.31.37-.05.39-.01.8-.01,1.2-.7.24-1.41.47-2.01.91Z"/>
      <path class="cls-3" d="M252.44,139.91c.6-.43,1.31-.67,2.01-.91,2.15-.16,3.95,1.03,4.43,2.85.5,1.89-.96,3.99-3.03,4.34-2.28.39-4.38-1.02-4.63-3.08-.15-1.26.3-2.3,1.21-3.21ZM255.06,140.22c-1.46,0-2.63,1.05-2.65,2.37-.02,1.4,1.2,2.54,2.7,2.52,1.44-.02,2.68-1.18,2.62-2.52-.06-1.37-1.42-2.46-2.67-2.37Z"/>
    </g>
  </g>
</svg>