<?xml version="1.0" encoding="UTF-8"?>
<svg id="Robot_Completo" data-name="Robot Completo" xmlns="http://www.w3.org/2000/svg" viewBox="0 0 431.88 432.95">
  <defs>
    <style>
      .cls-1 {
        fill: #d58c67;
      }

      .cls-1, .cls-2, .cls-3, .cls-4, .cls-5, .cls-6, .cls-7, .cls-8, .cls-9 {
        stroke-width: 0px;
      }

      .cls-2 {
        fill: #8b9da4;
      }

      .cls-3 {
        fill: #872426;
      }

      .cls-4 {
        fill: #211919;
      }

      .cls-5 {
        fill: #67777f;
      }

      .cls-6 {
        fill: #c43631;
      }

      .cls-7 {
        fill: #d4dddf;
      }

      .cls-8 {
        fill: #a4b5bb;
      }

      .cls-9 {
        fill: #7c898e;
      }
    </style>
  </defs>
  <g id="Add_ons">
    <g id="A4">
      <path class="cls-4" d="M328.26,297.45c-.33.37-.26.68-.21.96.17.99-.24,1.65-1.07,2.12-4.9,2.78-9.63,5.83-14.6,8.49-.95.51-1.73.53-2.72-.02-4.97-2.78-9.77-5.85-14.7-8.69-.77-.45-1.17-1.05-1-1.97.05-.28.21-.58-.18-.94-.59.59-1.2,1.17-1.78,1.78-.98,1.02-2.11,1.17-3.35.58-2.38-1.14-4.57-2.6-6.71-4.15-1.03-.75-1.21-1.8-.94-2.95.23-.95.48-1.91.84-2.81.25-.64.11-1.04-.36-1.44-1.75-1.46-3.2-3.21-4.69-4.92-.57-.65-1.08-.84-1.9-.51-.73.3-1.57.34-2.3.63-1.47.59-2.52.03-3.35-1.1-.57-.79-1.03-1.66-1.5-2.52-.7-1.29-1.41-2.58-2.04-3.9-.55-1.14-.48-2.25.46-3.22.34-.35.67-.72.96-1.11.51-.67,1.62-1.11,1.57-1.92-.07-1.12-.62-2.22-1.01-3.31-.18-.52-.71-.64-1.15-.83-1.63-.7-3.25-1.43-4.89-2.08-1.79-.71-2.78-1.86-3.22-3.84-1.33-5.97-2.9-11.88-4.32-17.83-.21-.87-.62-1.44-1.41-1.76-1.73-.7-2.59-1.97-3.12-3.78-1.74-5.92-3.67-11.79-5.52-17.68-.16-.52-.36-1.06-.39-1.6-.08-1.3.89-2.06,2.15-1.74.41.11.79.31,1.17.5,6.44,3.24,12.88,6.49,19.31,9.74q1.24.62,1.98-.49c2.07-3.1,2.15-3.28,5.65-2.24,1.97.59,3.13.27,4.22-1.43.89-1.39,2.16-2.51,3.45-3.54.56-.45.71-.91.49-1.58-.35-1.11-.58-2.25-.94-3.35-.35-1.06-.16-1.93.68-2.65,2.25-1.93,4.79-3.37,7.5-4.53.83-.35,1.56-.13,2.2.44.87.77,1.78,1.51,2.58,2.35.63.67,1.2.83,2.08.46,2.03-.86,4.13-1.51,6.33-1.77.73-.09,1.04-.49,1.22-1.16.35-1.3.74-2.59,1.14-3.87.33-1.06,1.04-1.51,2.18-1.6,2.64-.22,5.26-.16,7.9,0,1.25.08,1.94.63,2.31,1.71.43,1.27.86,2.55,1.2,3.85.18.71.55.99,1.25,1.1,2.24.36,4.41.97,6.49,1.86.61.26.99.19,1.44-.26.86-.87,1.75-1.72,2.66-2.54.72-.64,1.53-1.02,2.51-.56,2.5,1.16,4.93,2.43,7.06,4.22,1.09.91,1.32,1.99.94,3.28-.28.94-.54,1.88-.83,2.81-.21.69-.24,1.24.44,1.78,1.69,1.34,3.09,2.98,4.4,4.68.6.78,1.16.89,2.02.59.8-.28,1.66-.39,2.48-.63,1.56-.44,2.71.05,3.65,1.36.55.76.73,2.1,1.77,2.13.81.03,1.66-.7,2.47-1.11,5.9-2.97,11.8-5.94,17.7-8.91.98-.5,1.97-1.17,3.05-.3,1.14.93.44,2.03.13,3.04-1.81,5.84-3.69,11.66-5.46,17.52-.55,1.82-1.41,3.24-3.29,3.86-.86.29-1.15.92-1.34,1.76-1.38,5.96-3.05,11.85-4.27,17.85-.37,1.85-1.31,3.08-3.08,3.76-1.71.66-3.34,1.51-5.05,2.17-.78.3-1.24.72-1.4,1.51-.01.06-.02.12-.05.18-.91,1.75-1.03,3.32.9,4.54.4.25.66.72.97,1.1.69.82.91,1.71.46,2.73-1.08,2.47-2.36,4.84-3.93,7.04-.72,1.01-1.7,1.28-2.92.9-1.16-.36-2.39-1.04-3.53-.78-1.1.25-1.54,1.65-2.38,2.44-1.07,1.01-2.03,2.14-3.2,3.03-.51.39-.64.75-.39,1.4.41,1.08.63,2.23.97,3.35.31,1.02,0,1.84-.82,2.43-2.28,1.66-4.7,3.11-7.23,4.34-1.01.49-2.02.31-2.85-.57-.62-.65-1.29-1.24-1.95-1.86ZM330.32,228.71c-.21.01-.33.13-.35.34-.77,1.03-1.54,2.06-2.31,3.08-1.54,2.04-1.51,2,.34,3.65.54.48.92.47,1.4.05,1.51-1.32,3-2.66,4.27-4.22.5.08.9-.25,1.36-.33.81-.14,1.24.43.89,1.18-.22.48-.56.9-.84,1.34-1.87.93-3.08,2.66-4.71,3.88-.21.16-.28.39-.09.63.24.3.52.55.92.33,1.72-.98,3.71-1.49,5.17-2.93.12,0,.25.03.37.02,2.45-.36,2.76-1.04,1.4-3.01-3.9-5.65-9.07-9.72-15.37-12.37-.73-.31-1.48-.6-2.24-.82-.76-.22-1.34.05-1.52.88-.62,2.8-1.22,5.6-1.83,8.4-.14.64.12.92.74.95.31.02.61.03.92.05.65.61,1.1.57,1.43-.34.62-1.75,1.29-3.48,1.93-5.22.49-.32.35-1.01.8-1.37.34-.27.65-.57,1.12-.41.54.19.72.63.65,1.15-.06.47-.21.93-.33,1.39-.92,1.99-1.85,3.98-2.77,5.96.62.72,1.47.98,2.18,1.44.62.41,1.01.19,1.37-.34,1.09-1.61,2.29-3.14,3.16-4.88.5-.13.76-.56,1.12-.86.37-.29.75-.36,1.14-.07.32.23.43.57.35.95-.1.46-.39.88-.34,1.38-.11.03-.22.08-.32.14ZM282.79,272.82c-.04-.17-.09-.21-.13-.09,0,.01.09.05.14.08,1.23,2.78,3.12,5.13,5.32,7.15,1.93,1.77,4.08,3.31,6.34,4.67.66.4,1.3.9,2.13.92.32-.67.49-1.31.57-1.98.16-1.23-.16-2.05-1.4-2.63-2.99-1.39-5.75-3.27-8.85-4.46-.83-.32-1.32-.95-1.48-1.75-.3-1.51-1.22-2.02-2.64-1.9ZM257.18,243.71c1.08,5.27,2.54,10.46,3.78,15.69.22.94.7,1.47,1.57,1.84,6.84,2.97,13.67,5.98,20.51,8.96.35.15.7.56,1.18.24.08-.67-.33-1.15-.64-1.66.06-.75-.22-1.44-.43-2.14-1.21-4.09-2.49-8.16-3.58-12.29-.38-1.45-1.06-2.34-2.41-2.94-5.74-2.58-11.33-5.48-16.97-8.27-.43-.21-.85-.51-1.38-.42-.59-.5-1.2-.96-2.06-1.05-.12.83.22,1.42.42,2.04ZM338.02,270.6c.12-.01.25,0,.36-.04,7.16-3.15,14.31-6.32,21.47-9.45.83-.36,1.19-.96,1.38-1.78.71-2.97,1.46-5.93,2.17-8.9.41-1.72.79-3.45,1.18-5.17.44-1.17.76-2.37.88-3.74-1.01.22-1.74.61-2.34,1.24-.12.02-.25,0-.36.05-6.22,3.04-12.43,6.08-18.65,9.11-.72.35-1.13.88-1.34,1.63-.46,1.58-.99,3.15-1.44,4.74-.99,3.52-1.94,7.05-2.91,10.58-.34.54-.69,1.08-.39,1.76-.04.03-.08.05-.11.08.03-.03.06-.07.1-.1ZM285.73,236.02c1.57,1.04,3.33,1.72,4.98,2.59.44.23.79.22,1.08-.25.25-.4.13-.71-.2-.94-1.61-1.16-2.93-2.71-4.75-3.6-.22-.35-.49-.68-.65-1.06-.19-.45-.24-.97.16-1.34.37-.34.79-.09,1.15.12.41.24.8.51,1.2.76.95.86,1.87,1.75,2.84,2.57,1.99,1.7,1.99,1.67,3.85-.23.43-.43.52-.75.12-1.22-1.21-1.44-2.22-3.04-3.56-4.38-.24-.48-.49-.96-.71-1.44-.2-.43-.47-.9.04-1.3.57-.44,1.1-.27,1.62.15.52.42.63,1.17,1.26,1.5.67,1.01,1.33,2.01,2,3.02,1.46,2.19,1.58,2.2,3.74.66.49-.35.69-.73.38-1.22-1.04-1.65-1.53-3.58-2.7-5.17-.09-.47-.15-.94-.29-1.39-.18-.6-.1-1.11.49-1.35.62-.26,1.16-.07,1.52.55.24.41.34.9.74,1.21.47,1.96,1.49,3.71,2.06,5.63.12.4.44.55.87.37.39-.16.78-.36,1.2-.45.74-.16.96-.5.81-1.29-.36-1.79-.72-3.58-1.28-5.32.03-1.06-.36-2.03-.6-3.03-.15-.61-.54-.78-1.09-.7-.42.06-.86.11-1.25.27-6.67,2.66-12.4,6.53-16.4,12.67-1.64,2.52-1.66,2.53,1.37,3.64ZM254.81,238.2c.4.4.93.58,1.42.82,5.99,2.91,11.98,5.83,17.98,8.74,1.3.63,2.6,1.24,4.01,1.92-.09-1.8-.81-2.93-2.26-3.8-2.83-1.71-5.49-3.68-8.32-5.39-1.21-.74-1.6-1.68-1.74-2.97-.26-2.55-.61-5.1-.92-7.64.2-1.53-.45-2.42-1.86-3.1-4.61-2.24-9.15-4.63-13.72-6.95-.83-.42-1.69-.77-2.52-1.14-.2.44-.06.66,0,.88,1.67,5.29,3.42,10.56,4.97,15.89.48,1.64,1.39,2.46,2.95,2.75ZM367.83,237.9c1.34-.27,1.96-1.08,2.35-2.42,1.29-4.38,2.76-8.71,4.12-13.08.36-1.14.89-2.26.91-3.55-.82.17-1.44.54-2.08.87-4.79,2.41-9.55,4.87-14.38,7.19-1.33.64-1.82,1.46-1.6,2.84-.59,2.69-.86,5.43-1.08,8.17-.08,1.09-.42,1.79-1.35,2.38-2.99,1.91-5.91,3.93-8.91,5.83-1.25.79-1.89,1.81-1.9,3.24.32.19.51-.02.7-.11,3.91-1.88,7.83-3.76,11.72-5.67,3.83-1.88,7.65-3.79,11.47-5.69ZM307.75,203.22c-.47-.07-.6.22-.75.6-.51,1.32-.84,2.68-1.21,4.04-.22.79-.52,1.47-1.5,1.63-2.97.47-5.83,1.35-8.6,2.49-.82.34-1.5.26-2.15-.44-.88-.94-1.86-1.78-2.77-2.69-.56-.56-1.07-.67-1.77-.23-1.55.98-3.12,1.93-4.7,2.86-.62.36-.81.74-.56,1.48.42,1.21.6,2.5,1.02,3.71.36,1.03.15,1.69-.69,2.38-1.72,1.39-3.21,3.02-4.65,4.71-2.57,3.01-1.29,2.53-5.12,1.58-3.11-.77-3.1-.82-4.43,2.15-.02.05,0,.12-.02.3,2.29,1.18,4.61,2.39,6.94,3.58,1.09.56,1.09.54,1.74-.52,5.28-8.57,12.83-14.16,22.43-17.04,3.3-.99,6.71-1.33,10.15-1.47,1.64.2,3.29.19,4.94.42,9.32,1.28,16.96,5.64,23.28,12.49,1.67,1.81,3.13,3.77,4.36,5.9.4.7.77.72,1.44.36,1.55-.86,3.15-1.63,4.73-2.44.84-.43,1.78-.72,2.5-1.47-.46-.73-.93-1.37-1.28-2.08-.36-.73-.87-.73-1.52-.54-1.11.33-2.23.63-3.34.99-.92.3-1.63.15-2.26-.65-1.81-2.33-3.86-4.44-6.07-6.39-.63-.56-.84-1.17-.64-1.95.33-1.3.62-2.62,1.01-3.9.23-.76.14-1.27-.59-1.69-1.54-.88-3.08-1.77-4.57-2.74-.81-.53-1.32-.28-1.89.33-.84.89-1.76,1.71-2.61,2.59-.59.62-1.22.69-2,.39-2.8-1.09-5.68-1.89-8.61-2.5-.95-.2-1.48-.72-1.71-1.66-.31-1.25-.75-2.46-1.05-3.71-.15-.64-.48-.97-1.1-1.01-2.13-.15-4.27-.47-6.39.14ZM267.01,231.96c-.25,1.61.37,3.15.34,4.75-.02,1.21.5,2,1.56,2.67,3.05,1.93,6.01,4,9.03,5.98.69.45,1.21,1.01,1.6,1.72,2.59,8.79,5.19,17.58,7.77,26.38.25.85.82,1.26,1.58,1.63,3.13,1.53,6.25,3.1,9.36,4.68,1.69.86,1.64.87,1.3,2.64-.95,4.93-1.85,9.87-2.83,14.79-.15.76-.12,1.22.61,1.66,4.16,2.46,8.3,4.96,12.44,7.46.42.26.82.55,1.36.33.33.1.59-.07.85-.23,4.22-2.47,8.43-4.97,12.67-7.4.82-.47.85-.97.69-1.79-.96-4.98-1.87-9.97-2.78-14.96-.29-1.61-.29-1.65,1.14-2.37,3.1-1.58,6.21-3.17,9.36-4.66,1.09-.52,1.67-1.23,2-2.37,2.38-8.28,4.85-16.53,7.21-24.81.36-1.27.95-2.16,2.05-2.87,3.04-1.95,6.04-3.95,9.04-5.95.49-.33,1.13-.55,1.17-1.3.11-2.25.76-4.46.66-6.73.15-.76.35-1.52.11-2.32-.26.07-.45.1-.61.18-7.89,4.05-15.77,8.11-23.66,12.17-.85.12-1.34-.36-1.78-1-3.22-4.65-7.53-7.75-13.09-9.03-.92-.21-1.19-.68-.99-1.56.33-1.49.62-2.98.94-4.47.74-3.44,1.5-6.87,2.26-10.39-1.84-.26-3.52-.62-5.22-.72-1.69-.1-3.41-.41-5.08.16-1.45.06-2.89.2-4.29.68.44,1.94.87,3.78,1.27,5.63.65,3.05,1.26,6.11,1.93,9.16.2.91-.03,1.42-.98,1.54-.18.02-.37.05-.54.11-5.26,1.6-9.66,4.39-12.71,9.08-.72,1.11-.85,1.13-2.26.42-5.01-2.55-10.01-5.13-15.02-7.69-2.91-1.48-5.83-2.94-8.83-4.45-.14,1.26.08,2.27.35,3.28ZM295.14,294.04c.08-.35.13-.59.18-.83.52-2.52.81-2-1.48-3.12-5.45-2.65-9.9-6.49-13.64-11.21-2.07-2.61-3.52-5.58-4.88-8.59-.3-.67-.54-1.38-1.32-1.67-1.06-.38-2.04-.99-3.18-1.13-.14.55.12.93.29,1.29.54,1.16.36,2.09-.63,2.94-.69.6-1.28,1.31-1.91,1.98-.62.66-.67,1.35-.28,2.18.79,1.67,1.89,3.14,2.79,4.74.33.58.78.71,1.39.52,1.05-.32,2.1-.65,3.16-.93.88-.23,1.63-.1,2.26.72,1.79,2.34,3.85,4.43,6.16,6.27.73.58.87,1.23.55,2.09-.37.97-.68,1.96-.98,2.96-.28.91-.13,1.67.79,2.18,1.01.57,1.94,1.3,2.99,1.79,3.12,1.49,2.1,1.71,4.58-.61.36-.33.76-.62,1.09-.98.58-.62,1.22-.96,2.1-.61ZM351.45,267.35c-2.66.67-4.29,2-5.41,4.54-2.25,5.08-5.6,9.46-9.93,13.05-2.66,2.21-5.49,4.11-8.61,5.58-.81.38-1.39.75-.96,1.75.07.16.04.36.06.55.09.74.06,1.58,1.27,1.12.46-.17.77.28,1.08.57.79.77,1.59,1.53,2.34,2.34.49.53.93.61,1.6.29,1.83-.87,3.48-2.05,5.26-3.02.61-.33.66-.79.45-1.39-.36-1.04-.61-2.13-1.03-3.14-.39-.93-.21-1.55.52-2.26,2.15-2.09,4.39-4.11,6.2-6.52.59-.78,1.35-.77,2.15-.57,1.07.27,2.12.59,3.17.92.7.22,1.15.05,1.51-.61.83-1.57,1.67-3.14,2.59-4.66.56-.92.33-1.59-.35-2.27-.74-.74-1.43-1.52-2.16-2.26-.59-.59-.77-1.18-.36-1.97.3-.58.6-1.19.63-2.04ZM320.26,215.15c-.42.38-.3.86-.47,1.25-.38.86.06,1.23.84,1.42.24.06.47.14.7.23,3.11,1.14,6.14,2.42,8.86,4.39,3.96,2.88,7.42,6.22,9.93,10.46.48.82.93.96,1.74.45.99-.62,1.03-.57.43-1.67-.21-.38-.43-.74-.67-1.1-2.35-3.56-5.19-6.69-8.6-9.24-3.86-2.89-8.09-5.05-12.76-6.19ZM302.1,215.13c-.57.14-1.05.23-1.51.37-6.16,1.87-11.47,5.17-15.96,9.74-1.88,1.91-3.55,4.04-4.84,6.43-.41.75-.35,1.19.43,1.61,1.04.55,1.05.6,1.81-.6,4.46-7.04,10.64-11.87,18.52-14.56q2.03-.69,1.54-2.99ZM295.74,289.55c.86-2.09.86-2.1-.8-2.95-6.26-3.19-11.03-7.92-14.33-14.07-.91-1.69-2.22-2.21-4.02-2.66,4.04,9.05,10.33,15.56,19.15,19.68ZM345.35,269.95c-2.15.53-3.42,1.59-4.32,3.37-1.82,3.59-4.49,6.54-7.6,9.1-2.14,1.76-4.45,3.23-6.93,4.48-.71.36-.97,1.6-.48,2.21.49.61.99.06,1.46-.12.34-.13.67-.3.99-.48,7.67-4.22,13.25-10.35,16.88-18.56ZM339.51,272.48c-1.45.37-2.64.71-2.83,2.08-.18,1.33-1.09,1.85-2.1,2.28-2.81,1.21-5.5,2.68-8.23,4.06-1.76.89-1.84,1.19-1.31,3.21.37,1.42.62,1.57,1.84.84,4.02-2.39,7.66-5.25,10.55-8.95.77-.99,1.62-1.98,2.07-3.52Z"/>
      <path class="cls-2" d="M308.09,214.21c1.68-.56,3.39-.26,5.08-.16,1.7.1,3.38.45,5.22.72-.77,3.51-1.52,6.95-2.26,10.39-.32,1.49-.61,2.99-.94,4.47-.2.88.07,1.35.99,1.56,5.55,1.27,9.86,4.38,13.09,9.03.45.64.93,1.12,1.78,1-.16.36-.89.43-.63.98.29.61.75.06,1.12.04.8-.03,1.56-.33,2.27-.69,2.57-1.29,5.26-2.31,7.74-3.79,1.94-1.15,4.02-2.09,6.05-3.1.48-.24.95-.59,1.55-.41-.12.34-.29.67-.37,1.02-.26,1.17.24,2.17,1.24,2.54,1.15.43,2.42-.1,2.89-1.22.42-.99.05-2.02-1-2.63-.31-.18-.69-.24-1.03-.35,1.05-1.51,2.74-1.87,4.32-2.43.1,2.28-.55,4.48-.66,6.73-.04.75-.68.97-1.17,1.3-3,2-6,4.01-9.04,5.95-1.1.7-1.69,1.6-2.05,2.87-2.36,8.28-4.83,16.54-7.21,24.81-.33,1.15-.91,1.86-2,2.37-3.15,1.49-6.25,3.08-9.36,4.66-1.43.73-1.43.77-1.14,2.37.91,4.99,1.82,9.98,2.78,14.96.16.82.12,1.33-.69,1.79-4.24,2.43-8.45,4.92-12.67,7.4-.26.15-.52.33-.85.23-.03-.57-.07-1.14-.1-1.71.23-1.1.17-2.15-.63-3.03,1.54-.08,1.73-.17,1.74-1.45.04-4.95.02-9.9.04-14.85,0-.98-.46-1.47-1.41-1.55,0-1.03,0-2.05,0-3.08.49-.03.97-.07,1.46-.08,2.53-.08,2.58-.12,3.32-2.47.09-.29.22-.56.33-.84.76.15,1.44-.1,2.11-.43,1.68-.83,3.39-.88,5.12-.17.34.14.72.18,1.04.34.61.31,1.03.07,1.45-.36.85-.87,1.72-1.73,2.59-2.58.47-.46.72-.97.56-1.64,1-1.07,1.17-2.19.21-3.4-.11-.13-.13-.34-.2-.51.49-2.14,1.12-4.19,3.22-5.38.48-.27.86-.67.9-1.28.53-.39.7-.94.81-1.57.29-1.65.18-3.27.02-4.92-.18-1.83-.84-1.88-2.15-2.27-.46-.14-.97-.1-1.45-.2-.48-.1-.92-.27-1.14-.8-.88-2.04-2.17-4.06.02-6.08.09-.08.13-.21.19-.31.5-.75.48-1.46-.09-2.19-.75-.97-1.54-1.9-2.47-2.7q-2.25-1.95-4.69-.38c-.21.13-.42.26-.61.4-.53.37-1.1.67-1.68.19-1.14-.94-3.07-.53-3.77-2.2-.14-.34-.21-.7-.31-1.05-.1-.35-.19-.71-.3-1.05-.49-1.56-.57-1.63-2.13-1.76-.79-.06-1.58-.12-2.37-.17,0-3.6,0-7.2,0-10.81,2.2-.39,3.35-1.51,3.3-3.21-.05-1.74-1.24-2.78-3.46-3.01-.06,0-.12-.01-.18-.02.24-1,.46-2,.3-3.05.02-.57-.33-.71-.82-.72-.61,0-1.22.13-1.82-.07ZM316.27,292.88s.01,0,.02,0c0-1.59,0-3.18,0-4.77,0-.43.01-.86-.08-1.28-.09-.45-.4-.75-.9-.78-.49-.02-.83.2-.99.65-.1.28-.16.59-.17.89-.01,3.49,0,6.98-.01,10.46,0,.77.28,1.4,1.1,1.39.84-.01,1.04-.67,1.03-1.43-.02-1.71,0-3.43,0-5.14ZM318.1,292.62h.01c0,.98-.02,1.96,0,2.94.02.7.33,1.2,1.11,1.17.67-.02.99-.5,1-1.1.04-1.96.06-3.92.04-5.88,0-.69-.37-1.18-1.15-1.14-.77.04-1.03.55-1.02,1.25,0,.92,0,1.84,0,2.76Z"/>
      <path class="cls-8" d="M310.76,224.28c0,3.6,0,7.2,0,10.81-.49.04-.98.07-1.46.11-.14-.18-.26-.15-.37.03-1.46,0-2.27.71-2.43,2.17-.03.24-.12.48-.14.72-.13,1.28-.84,1.85-2.02,2.44-1.98.98-3.62,1.08-5.29-.45-.82-.75-1.7-.55-2.49.09-.91.73-1.77,1.51-2.53,2.4-2.33,2.72-1.79,2.38-.3,4.67.73,1.12.6,1.93.25,3.14-.61,2.1-1.7,3.2-3.88,3.26-1.14.03-1.61.77-1.68,1.81-.07,1.04-.13,2.08-.12,3.12.04,3.43.07,3.49,3.41,4.29.8.19,1.17.53,1.53,1.29.94,1.98,1.13,3.8-.39,5.56-.04.04-.05.11-.08.16-.48.69-.48,1.35.1,2,.25.27.44.58.66.88-.07.89.32,1.6.88,2.24.38.44.93.77.97,1.43-1.98-.79-3.84-1.82-5.69-2.87-.59-.34-.91-.94-1.11-1.63-.57-2.06-1.12-4.13-1.81-6.15-1.66-4.86-3.02-9.8-4.42-14.73-.25-.88-.62-1.73-1.04-2.54-.37-.7-.84-1.38-1.76-1.44-.39-.71-.9-1.26-1.6-1.72-3.02-1.97-5.98-4.05-9.03-5.98-1.06-.67-1.58-1.46-1.56-2.67.03-1.59-.59-3.14-.34-4.75,1.26.27,2.65.35,2.93,2.03-.25.41-.63.73-.75,1.22-.32,1.3.39,2.52,1.64,2.78,1.27.26,2.33-.59,2.45-2,.03-.36-.03-.72-.04-1.08.91-.16,1.65.29,2.44.64,3.18,1.42,6.04,3.47,9.33,4.69,1.43.53,2.84,1.11,4.23,1.75,2.94,1.35,3.16,1.32,5.14-1.23.11-.14.17-.33.29-.47,2.02-2.31,4.09-4.53,6.98-5.82,1.73-.77,3.47-1.52,5.25-2.15,1.29-.46,1.53-.88,1.23-2.2-.16-.71-.54-1.39-.61-2.11-.36-3.58-1.15-7.08-1.79-10.61-.26-1.44.05-1.87,1.57-1.98,1.15-.09,2.33.07,3.43-.43.16,1.04-.06,2.04-.3,3.05-.27.13-.56.25-.81.4-2.17,1.31-2.19,4.08-.03,5.36.36.21.79.32,1.18.48Z"/>
      <path class="cls-8" d="M307.75,203.22c2.12-.6,4.25-.28,6.39-.14.63.04.95.37,1.1,1.01.3,1.25.74,2.46,1.05,3.71.23.94.76,1.46,1.71,1.66,2.94.61,5.82,1.42,8.61,2.5.78.3,1.4.23,2-.39.85-.88,1.77-1.7,2.61-2.59.58-.61,1.09-.85,1.89-.33,1.49.97,3.03,1.86,4.57,2.74.73.42.82.93.59,1.69-.39,1.29-.68,2.6-1.01,3.9-.2.79,0,1.39.64,1.95,2.21,1.95,4.26,4.06,6.07,6.39.63.81,1.34.95,2.26.65,1.1-.36,2.23-.65,3.34-.99.65-.19,1.16-.19,1.52.54.35.71.83,1.35,1.28,2.08-.72.75-1.66,1.04-2.5,1.47-1.58.81-3.18,1.58-4.73,2.44-.67.37-1.03.34-1.44-.36-1.22-2.13-2.69-4.1-4.36-5.9-6.32-6.84-13.96-11.21-23.28-12.49-1.65-.23-3.3-.22-4.94-.42.09-2.48-.47-4.94-.35-7.43.08-1.64-.01-1.64-1.75-1.63-.42,0-.84-.04-1.27-.06Z"/>
      <path class="cls-7" d="M307.75,203.22c.42.02.84.06,1.27.06,1.74,0,1.83,0,1.75,1.63-.12,2.49.44,4.94.35,7.43-3.43.14-6.85.47-10.15,1.47-9.59,2.88-17.15,8.47-22.43,17.04-.65,1.06-.66,1.08-1.74.52-2.33-1.19-4.66-2.4-6.94-3.58,0-.18,0-.24.02-.3,1.33-2.97,1.32-2.92,4.43-2.15,3.83.95,2.55,1.43,5.12-1.58,1.43-1.68,2.93-3.31,4.65-4.71.84-.68,1.05-1.35.69-2.38-.43-1.21-.6-2.5-1.02-3.71-.26-.75-.06-1.12.56-1.48,1.58-.93,3.16-1.88,4.7-2.86.7-.44,1.21-.34,1.77.23.9.92,1.89,1.75,2.77,2.69.65.7,1.33.77,2.15.44,2.78-1.14,5.63-2.02,8.6-2.49.98-.16,1.29-.83,1.5-1.63.37-1.36.7-2.72,1.21-4.04.15-.38.27-.68.75-.6Z"/>
      <path class="cls-2" d="M367.83,237.9c-3.82,1.9-7.64,3.82-11.47,5.69-3.9,1.91-7.81,3.79-11.72,5.67-.19.09-.38.31-.7.11,0-1.43.65-2.45,1.9-3.24,3-1.9,5.92-3.93,8.91-5.83.93-.59,1.26-1.3,1.35-2.38.21-2.74.49-5.48,1.08-8.17.69-.24,1.41-.42,2.07-.73,3.27-1.53,6.52-3.09,9.78-4.65.5-.24.99-.48,1.49-.72.23-.11.5-.16.7-.02.32.21.16.53.08.82-.6,2.18-1.28,4.34-1.77,6.54-.52,2.32-1.39,4.55-1.68,6.92Z"/>
      <path class="cls-8" d="M264.98,229.87c.31,2.55.66,5.09.92,7.64.13,1.29.52,2.23,1.74,2.97,2.83,1.71,5.49,3.68,8.32,5.39,1.45.88,2.17,2,2.26,3.8-1.41-.67-2.72-1.28-4.01-1.92-5.99-2.91-11.98-5.83-17.98-8.74-.49-.24-1.02-.43-1.42-.82-.98-3.2-2.02-6.38-2.79-9.64-.28-1.18-.67-2.34-.86-3.54-.16-1.03.15-1.21,1.13-.75,2.38,1.1,4.71,2.33,7.13,3.33,1.85.77,3.54,1.94,5.56,2.27Z"/>
      <path class="cls-5" d="M295.14,294.04c-.87-.35-1.52-.01-2.1.61-.33.36-.74.64-1.09.98-2.48,2.33-1.46,2.11-4.58.61-1.04-.5-1.97-1.23-2.99-1.79-.92-.52-1.07-1.27-.79-2.18.3-.99.61-1.99.98-2.96.33-.86.19-1.5-.55-2.09-2.31-1.84-4.37-3.93-6.16-6.27-.63-.82-1.38-.95-2.26-.72-1.06.28-2.11.61-3.16.93-.61.19-1.06.06-1.39-.52-.9-1.6-1.99-3.08-2.79-4.74-.4-.83-.34-1.52.28-2.18.63-.67,1.22-1.39,1.91-1.98.99-.85,1.16-1.77.63-2.94-.17-.36-.43-.75-.29-1.29,1.15.14,2.13.75,3.18,1.13.79.29,1.02,1,1.32,1.67,1.37,3.01,2.81,5.98,4.88,8.59,3.74,4.71,8.19,8.55,13.64,11.21,2.3,1.12,2.01.6,1.48,3.12-.05.24-.1.47-.18.83Z"/>
      <path class="cls-5" d="M351.45,267.35c-.03.85-.33,1.46-.63,2.04-.41.79-.23,1.39.36,1.97.74.74,1.43,1.52,2.16,2.26.68.68.91,1.35.35,2.27-.92,1.52-1.75,3.09-2.59,4.66-.35.66-.81.83-1.51.61-1.05-.33-2.1-.65-3.17-.92-.8-.2-1.56-.22-2.15.57-1.82,2.41-4.05,4.44-6.2,6.52-.73.71-.91,1.32-.52,2.26.42,1.01.67,2.1,1.03,3.14.21.6.15,1.06-.45,1.39-1.77.97-3.42,2.15-5.26,3.02-.67.32-1.11.24-1.6-.29-.75-.81-1.55-1.57-2.34-2.34-.3-.29-.62-.74-1.08-.57-1.21.46-1.18-.37-1.27-1.12-.02-.18,0-.38-.06-.55-.43-1.01.14-1.37.96-1.75,3.12-1.47,5.95-3.37,8.61-5.58,4.33-3.59,7.68-7.97,9.93-13.05,1.12-2.54,2.76-3.87,5.41-4.54Z"/>
      <path class="cls-7" d="M279.54,247.07c.92.07,1.4.74,1.76,1.44.42.81.79,1.67,1.04,2.54,1.41,4.93,2.76,9.88,4.42,14.73.69,2.02,1.25,4.09,1.81,6.15.19.69.51,1.29,1.11,1.63,1.85,1.05,3.71,2.08,5.69,2.87.58.39,1.17.79,1.75,1.18.57.89,1.59,1.1,2.44,1.55,2.05,1.09,2.06,1.06,1.68,3.3-.1.6-.1,1.2-.24,1.81-.86,3.92-1.6,7.87-2.53,11.78-.26,1.09.05,1.56.88,2.05,2.58,1.51,5.07,3.17,7.6,4.76,1.27.8,2.59,1.62,4.06,2.07.03.57.07,1.14.1,1.71-.53.22-.94-.08-1.36-.33-4.14-2.49-8.28-5-12.44-7.46-.73-.43-.76-.9-.61-1.66.97-4.92,1.88-9.86,2.83-14.79.34-1.77.38-1.78-1.3-2.64-3.11-1.58-6.23-3.15-9.36-4.68-.75-.37-1.33-.78-1.58-1.63-2.58-8.8-5.18-17.59-7.77-26.38Z"/>
      <path class="cls-7" d="M310.73,215c-1.1.5-2.28.35-3.43.43-1.52.11-1.83.54-1.57,1.98.63,3.53,1.43,7.03,1.79,10.61.07.71.45,1.39.61,2.11.3,1.32.06,1.74-1.23,2.2-1.79.63-3.52,1.38-5.25,2.15-2.89,1.29-4.96,3.51-6.98,5.82-.12.14-.18.32-.29.47-1.98,2.55-2.2,2.58-5.14,1.23-1.39-.64-2.8-1.22-4.23-1.75-3.28-1.22-6.14-3.28-9.33-4.69-.78-.35-1.53-.8-2.44-.64-.88-1.11-1.95-1.49-3.3-.92-.28-1.68-1.67-1.76-2.93-2.03-.28-1.01-.49-2.02-.35-3.28,2.99,1.51,5.92,2.96,8.83,4.45,5.01,2.56,10.01,5.14,15.02,7.69,1.41.72,1.54.69,2.26-.42,3.05-4.69,7.45-7.48,12.71-9.08.17-.05.36-.08.54-.11.95-.12,1.18-.63.98-1.54-.67-3.05-1.27-6.11-1.93-9.16-.39-1.85-.83-3.69-1.27-5.63,1.4-.47,2.84-.62,4.29-.68.6.2,1.21.06,1.82.07.49,0,.84.15.82.72Z"/>
      <path class="cls-3" d="M258.81,242.72c.53-.09.95.21,1.38.42,5.64,2.79,11.23,5.69,16.97,8.27,1.35.6,2.02,1.49,2.41,2.94,1.09,4.12,2.37,8.2,3.58,12.29.21.7.49,1.39.43,2.14-1.27-.34-2.49-.8-3.6-1.54-.93-3.86-1.94-7.7-3.15-11.48-.3-.94-.92-1.55-1.82-1.95-1.57-.7-3.2-1.29-4.65-2.18-2.78-1.7-5.9-2.71-8.65-4.44-.52-.33-1.1-.54-1.72-.6-.25-.31-.5-.63-.75-.94.18-1.02-.46-1.93-.42-2.93Z"/>
      <path class="cls-3" d="M338.42,268.86c.97-3.53,1.92-7.06,2.91-10.58.45-1.59.98-3.15,1.44-4.74.22-.75.63-1.28,1.34-1.63,6.22-3.03,12.43-6.07,18.65-9.11.1-.05.24-.04.36-.06.09,1.13-.43,2.18-.43,3.3-.14.17-.29.34-.43.5-2.08.57-4.01,1.5-5.87,2.55-3.04,1.71-6.13,3.31-9.32,4.71-.98.43-1.67,1.11-1.96,2.24-.98,3.77-2.03,7.52-3.05,11.28-1.13.69-2.31,1.27-3.62,1.53Z"/>
      <path class="cls-7" d="M264.98,229.87c-2.03-.33-3.71-1.51-5.56-2.27-2.42-1-4.75-2.23-7.13-3.33-.98-.45-1.29-.27-1.13.75.19,1.2.58,2.36.86,3.54.77,3.26,1.81,6.44,2.79,9.64-1.56-.3-2.47-1.11-2.95-2.75-1.56-5.33-3.3-10.6-4.97-15.89-.07-.23-.21-.44,0-.88.83.38,1.69.73,2.52,1.14,4.57,2.32,9.11,4.7,13.72,6.95,1.41.69,2.06,1.57,1.86,3.1Z"/>
      <path class="cls-3" d="M324.43,225c.11-.46.26-.92.33-1.39.07-.52-.12-.96-.65-1.15-.47-.16-.78.14-1.12.41-.45.36-.32,1.04-.8,1.37-.28-1.08-1.31-.57-1.94-1.08-1,2.21-.83,4.51-1.42,6.64-.31-.02-.61-.04-.92-.05-.62-.03-.88-.31-.74-.95.62-2.8,1.22-5.6,1.83-8.4.18-.82.75-1.1,1.52-.88.76.22,1.51.51,2.24.82,6.31,2.65,11.47,6.73,15.37,12.37,1.36,1.97,1.04,2.65-1.4,3.01-.12.02-.24,0-.37-.01-.22-.78-.94-1.21-1.29-1.9.28-.45.62-.87.84-1.34.35-.75-.08-1.31-.89-1.18-.46.08-.86.41-1.36.33-1.23-.79-2.23-1.82-3.03-3.04-.05-.5.23-.91.34-1.38.08-.38-.03-.72-.35-.95-.39-.29-.77-.23-1.14.07-.37.29-.63.73-1.12.86-.9-.41-1.68-1-2.44-1.61-.45-.36-.89-.64-1.49-.56Z"/>
      <path class="cls-7" d="M367.83,237.9c.29-2.37,1.16-4.6,1.68-6.92.49-2.2,1.17-4.36,1.77-6.54.08-.29.24-.61-.08-.82-.2-.14-.47-.09-.7.02-.49.24-.99.49-1.49.72-3.26,1.55-6.51,3.12-9.78,4.65-.66.31-1.38.49-2.07.73-.22-1.37.27-2.2,1.6-2.84,4.83-2.32,9.59-4.78,14.38-7.19.64-.32,1.26-.7,2.08-.87-.03,1.29-.56,2.41-.91,3.55-1.36,4.36-2.83,8.69-4.12,13.08-.39,1.33-1.01,2.15-2.35,2.42Z"/>
      <path class="cls-3" d="M300.04,224.25c-.4-.31-.5-.8-.74-1.21-.36-.62-.9-.8-1.52-.55-.59.25-.67.76-.49,1.35.14.45.19.93.29,1.39-1.34.65-2.89,1.03-3.41,2.71-.62-.33-.74-1.07-1.26-1.5-.52-.42-1.05-.59-1.62-.15-.51.4-.24.87-.04,1.3.22.49.47.96.71,1.44-1.55.62-2.63,1.71-3.25,3.26-.4-.26-.79-.53-1.2-.76-.36-.21-.78-.47-1.15-.12-.4.36-.35.89-.16,1.34.16.38.43.71.65,1.06-.37.74-.74,1.47-1.11,2.21-3.02-1.11-3.01-1.12-1.37-3.64,4-6.13,9.73-10,16.4-12.67.39-.16.83-.21,1.25-.27.55-.08.94.09,1.09.7.24,1,.63,1.98.6,3.03-1.39-.22-2.54.35-3.65,1.06Z"/>
      <path class="cls-5" d="M320.26,215.15c4.67,1.14,8.9,3.3,12.76,6.19,3.41,2.55,6.26,5.68,8.6,9.24.24.36.46.72.67,1.1.6,1.1.56,1.05-.43,1.67-.81.5-1.26.36-1.74-.45-2.51-4.23-5.97-7.58-9.93-10.46-2.71-1.97-5.75-3.25-8.86-4.39-.23-.08-.46-.17-.7-.23-.78-.18-1.22-.55-.84-1.42.17-.39.05-.87.47-1.25Z"/>
      <path class="cls-1" d="M338.42,268.86c1.31-.26,2.49-.84,3.62-1.53,1.76-.39,3.22-1.45,4.83-2.18,3.61-1.65,7.19-3.37,10.79-5.04.84-.39,1.33-.98,1.54-1.9.33-1.42.84-2.81,1.14-4.24.51-2.51,1.54-4.88,1.92-7.42.14-.17.29-.34.43-.51.73-.02,1.08-.48,1.45-1.05.34-.53.31.12.44.26-.39,1.73-.76,3.45-1.18,5.17-.71,2.97-1.46,5.93-2.17,8.9-.2.82-.55,1.41-1.38,1.78-7.16,3.13-14.31,6.3-21.47,9.45-.11.05-.24.03-.36.04l.02.02c-.3-.68.05-1.22.39-1.76Z"/>
      <path class="cls-5" d="M302.1,215.13q.49,2.3-1.54,2.99c-7.87,2.69-14.06,7.53-18.52,14.56-.76,1.2-.77,1.16-1.81.6-.79-.42-.84-.85-.43-1.61,1.29-2.39,2.96-4.51,4.84-6.43,4.49-4.57,9.8-7.87,15.96-9.74.46-.14.94-.23,1.51-.37Z"/>
      <path class="cls-1" d="M279.98,267.24c1.1.74,2.32,1.19,3.6,1.54.31.51.72.99.64,1.66-.48.32-.83-.09-1.18-.24-6.84-2.98-13.66-5.99-20.51-8.96-.86-.38-1.35-.9-1.57-1.84-1.24-5.24-2.7-10.42-3.78-15.69.54.12.7.6.89,1.01.24.52.6.85,1.17.94.25.31.5.63.75.94.66,3.85,1.73,7.61,2.66,11.4.24.99.8,1.56,1.69,1.99,3.2,1.55,6.34,3.2,9.56,4.72,1.99.94,4.05,1.7,6.09,2.54Z"/>
      <path class="cls-5" d="M295.74,289.55c-8.82-4.12-15.1-10.63-19.15-19.68,1.79.45,3.11.97,4.02,2.66,3.3,6.15,8.07,10.88,14.33,14.07,1.67.85,1.66.86.8,2.95Z"/>
      <path class="cls-5" d="M345.35,269.95c-3.63,8.21-9.21,14.34-16.88,18.56-.32.18-.65.35-.99.48-.47.18-.98.72-1.46.12-.49-.61-.23-1.85.48-2.21,2.47-1.25,4.79-2.72,6.93-4.48,3.11-2.56,5.78-5.5,7.6-9.1.9-1.79,2.17-2.84,4.32-3.37Z"/>
      <path class="cls-7" d="M355.2,231.19c-1.58.55-3.27.92-4.32,2.43-.66,0-1.2.31-1.73.64-.6-.17-1.07.18-1.55.41-2.03,1.01-4.1,1.94-6.05,3.1-2.49,1.48-5.18,2.5-7.74,3.79-.71.36-1.46.65-2.27.69-.37.02-.84.57-1.12-.04-.26-.56.46-.62.63-.98,7.88-4.06,15.77-8.12,23.66-12.17.16-.08.35-.11.61-.18.24.8.04,1.56-.11,2.32Z"/>
      <path class="cls-3" d="M282.79,272.82c1.42-.12,2.34.39,2.64,1.9.16.79.65,1.43,1.48,1.75,3.1,1.19,5.85,3.07,8.85,4.46,1.24.58,1.55,1.4,1.4,2.63-.09.68-.25,1.31-.57,1.98-.83-.02-1.47-.52-2.13-.92-2.26-1.36-4.41-2.91-6.34-4.67-2.2-2.01-4.09-4.36-5.32-7.15h-.01Z"/>
      <path class="cls-3" d="M339.51,272.48c-.45,1.54-1.3,2.54-2.07,3.52-2.89,3.7-6.53,6.56-10.55,8.95-1.22.73-1.47.57-1.84-.84-.53-2.02-.45-2.32,1.31-3.21,2.73-1.38,5.41-2.85,8.23-4.06,1.01-.43,1.92-.96,2.1-2.28.19-1.37,1.37-1.71,2.83-2.08Z"/>
      <path class="cls-6" d="M324.43,225c.6-.08,1.04.2,1.49.56.76.61,1.55,1.2,2.44,1.61-.87,1.75-2.07,3.28-3.16,4.88-.36.53-.75.75-1.37.34-.71-.47-1.55-.72-2.18-1.44.92-1.98,1.85-3.97,2.77-5.96Z"/>
      <path class="cls-6" d="M288.71,232.31c.62-1.55,1.7-2.64,3.25-3.26,1.34,1.34,2.35,2.94,3.56,4.38.4.47.31.79-.12,1.22-1.87,1.9-1.86,1.93-3.85.23-.97-.83-1.9-1.71-2.84-2.57Z"/>
      <path class="cls-6" d="M294.17,227.95c.52-1.68,2.08-2.05,3.41-2.71,1.17,1.58,1.66,3.52,2.7,5.16.31.49.11.87-.38,1.22-2.15,1.53-2.27,1.53-3.74-.66-.67-1-1.33-2.01-2-3.02Z"/>
      <path class="cls-6" d="M330.64,228.57c.8,1.23,1.8,2.25,3.03,3.04-1.27,1.56-2.76,2.9-4.27,4.22-.48.42-.86.43-1.4-.05-1.85-1.64-1.88-1.61-.34-3.65.77-1.03,1.54-2.06,2.31-3.08.12-.11.23-.23.35-.34.1-.06.21-.11.32-.14Z"/>
      <path class="cls-6" d="M300.04,224.25c1.12-.71,2.27-1.28,3.65-1.06.55,1.74.92,3.53,1.28,5.32.16.79-.06,1.13-.81,1.29-.41.09-.8.28-1.2.45-.43.18-.75.03-.87-.37-.57-1.92-1.59-3.68-2.06-5.63Z"/>
      <path class="cls-6" d="M285.73,236.02c.37-.74.74-1.47,1.11-2.21,1.82.89,3.14,2.44,4.75,3.6.33.23.44.55.2.94-.29.46-.63.48-1.08.25-1.65-.88-3.41-1.56-4.98-2.59Z"/>
      <path class="cls-6" d="M335.07,233.81c.36.68,1.08,1.12,1.29,1.9-1.46,1.44-3.45,1.96-5.17,2.93-.4.23-.68-.02-.92-.33-.19-.24-.12-.47.09-.63,1.63-1.22,2.84-2.95,4.71-3.88Z"/>
      <path class="cls-6" d="M318.83,229.8c.59-2.14.42-4.44,1.42-6.64.63.5,1.66,0,1.94,1.08-.65,1.74-1.31,3.47-1.93,5.22-.32.91-.78.95-1.43.34Z"/>
      <path class="cls-6" d="M364.58,245.25c-.13-.13-.1-.79-.44-.26-.37.58-.72,1.04-1.45,1.05,0-1.12.52-2.17.43-3.3.6-.63,1.33-1.03,2.34-1.24-.12,1.37-.44,2.57-.88,3.74Z"/>
      <path class="cls-6" d="M259.23,245.65c-.57-.09-.92-.42-1.17-.94-.19-.41-.35-.89-.89-1.01-.2-.62-.54-1.21-.42-2.04.86.09,1.47.55,2.06,1.05-.04,1,.6,1.91.42,2.93Z"/>
      <path class="cls-3" d="M330.32,228.71c-.12.11-.23.23-.35.34.02-.21.14-.33.35-.34Z"/>
      <path class="cls-3" d="M282.8,272.81s-.14-.07-.14-.08c.03-.11.08-.08.13.09,0,0,.01-.01.01-.01Z"/>
      <path class="cls-1" d="M338.02,270.6s-.06.07-.1.1c.04-.03.08-.05.11-.08,0,0-.02-.02-.02-.02Z"/>
      <path class="cls-4" d="M293.52,272.76c-.22-.29-.42-.61-.66-.88-.59-.65-.58-1.31-.1-2,.03-.05.04-.12.08-.16,1.51-1.76,1.33-3.58.39-5.56-.36-.77-.73-1.1-1.53-1.29-3.34-.79-3.37-.86-3.41-4.29-.01-1.04.05-2.08.12-3.12.07-1.03.54-1.78,1.68-1.81,2.18-.06,3.27-1.16,3.88-3.26.35-1.21.48-2.02-.25-3.14-1.49-2.29-2.03-1.95.3-4.67.76-.89,1.62-1.67,2.53-2.4.8-.64,1.67-.84,2.49-.09,1.67,1.53,3.31,1.42,5.29.45,1.19-.58,1.9-1.16,2.02-2.44.02-.24.12-.48.14-.72.16-1.46.97-2.18,2.43-2.17.12,0,.25-.02.37-.03.49-.04.98-.07,1.46-.11.79.06,1.58.11,2.37.17,1.56.12,1.64.19,2.13,1.76.11.35.2.7.3,1.05.1.35.17.72.31,1.05.7,1.67,2.62,1.26,3.77,2.2.58.47,1.15.18,1.68-.19.2-.14.41-.27.61-.4q2.45-1.57,4.69.38c.93.81,1.71,1.73,2.47,2.7.57.73.58,1.44.09,2.19-.07.1-.11.23-.19.31-2.19,2.02-.9,4.05-.02,6.08.23.53.66.7,1.14.8.48.1.99.06,1.45.2,1.31.39,1.97.43,2.15,2.27.16,1.65.26,3.28-.02,4.92-.11.63-.29,1.18-.81,1.57-.18.02-.36.04-.54.05-2.35.11-3.58,1.37-4.28,3.6-.41,1.31-.31,2.18.7,3.01.06.17.09.37.2.51.96,1.2.79,2.32-.21,3.4-1.24.9-2.15,2.17-3.43,3.04-.67.46-1.24.63-2.01.2-.96-.53-1.84-1.57-2.87-1.51-1.09.06-2.14.82-3.2,1.27-.06.02-.12.03-.18.05-.96.22-1.25.88-1.18,1.78-.11.28-.24.56-.33.84-.74,2.35-.79,2.39-3.32,2.47-.49.02-.97.06-1.46.08-2.02-.07-4.07-.08-4.42-2.79,0-.06-.02-.12-.02-.18.16-1.3-.38-2.1-1.68-2.37-1.08-.23-1.92-1.4-2.97-1.2-1.01.19-1.91,1-2.83,1.59-.73.47-1.38.38-1.98-.16-1.12-1.02-2.22-2.06-3.33-3.09ZM295.62,265.28c.86,1.44.54,2.72-.5,3.92-.23.27-.37.62-.6.91-.46.59-.37,1.11.15,1.59.31.29.62.57.93.86.33.36.64.74.99,1.07,1.19,1.15,1.32,1.3,2.61.27,1.73-1.39,3.17-1.08,5.1-.3,2.23.9,3.85,1.86,3.82,4.5,0,.42.1.87.61,1.02,1.51.46,3.06.4,4.52-.05,1.17-.36.7-1.69,1.12-2.52.08-.16.09-.36.09-.54-.01-.99.61-1.41,1.46-1.58,1.22-.24,2.35-.75,3.36-1.42.93-.62,1.6-.46,2.47.13,2.4,1.64,2.43,1.6,4.63-.31,1.76-1.52,1.79-1.79.47-3.79-.13-.2-.25-.43-.4-.61-.68-.81-.72-1.62-.16-2.52.58-.94,1.06-1.95,1.29-3.02.22-1.01.79-1.29,1.74-1.53,3.04-.76,2.97.11,2.83-3.61,0-2.49.58-2.59-2.36-3.04-.18-.03-.36-.13-.53-.13-1.13.01-1.57-.7-1.85-1.66-.33-1.12-.72-2.22-1.37-3.19-.41-.62-.31-1.14.04-1.7.23-.36.44-.74.67-1.1,1.4-2.18,1.4-2.25-.5-4.1-.21-.21-.49-.35-.73-.53-1.41-1.51-1.34-1.08-2.72-.29-.42.24-.83.53-1.2.84-.69.59-1.35.65-2.16.19-1.11-.63-2.26-1.21-3.52-1.51-.96-.23-1.31-.82-1.5-1.79-.64-3.24-.06-2.89-3.56-2.95-.86-.02-1.81-.39-2.57.38-.22.89-.51,1.76-.62,2.66-.13.97-.54,1.51-1.51,1.75-1.12.28-2.2.76-3.18,1.37-.94.58-1.7.57-2.65-.08-2.65-1.79-2.69-1.74-4.86.6-.29.31-.56.65-.84.96-.38.42-.42.82-.07,1.3.5.69.94,1.43,1.43,2.13.47.67.54,1.3.05,2.02-.62.91-1.09,1.94-1.3,3.01-.26,1.33-1.06,1.73-2.25,1.94-2.62.46-2.62.5-2.61,3.1,0,.18.04.36.06.54q-.07,2.2,1.96,2.71c.35.09.7.21,1.06.26.93.14,1.54.49,1.7,1.55.12.82.5,1.61,1.01,2.31Z"/>
      <path class="cls-8" d="M306.31,278c0,.06.02.12.02.18.35,2.71,2.4,2.72,4.42,2.79,0,1.03,0,2.05,0,3.08-.9.35-.79,1.13-.8,1.86,0,4.76,0,9.52-.01,14.28,0,.61-.03,1.23.44,1.72.8.89.87,1.93.63,3.03-1.48-.45-2.79-1.27-4.06-2.07-2.53-1.59-5.02-3.25-7.6-4.76-.84-.49-1.14-.96-.88-2.05.93-3.9,1.67-7.85,2.53-11.78.13-.61.13-1.21.24-1.81.38-2.24.37-2.21-1.68-3.3-.85-.45-1.87-.65-2.44-1.55,1.07.14,2.09-.13,2.99-.63,1.22-.67,2.29-.52,3.44.15.83.48,1.72.93,2.75.86ZM307.87,292.82h0c0-1.53,0-3.05,0-4.58,0-.43,0-.86-.07-1.28-.09-.53-.39-.9-.98-.88-.5.02-.79.34-.88.79-.1.54-.17,1.09-.17,1.63,0,3.05,0,6.11.03,9.16,0,.42.02.86.13,1.27.12.44.45.75.95.69.44-.06.83-.28.93-.76.07-.35.06-.73.06-1.09,0-1.65,0-3.3,0-4.95ZM303.85,292.77s-.04,0-.05,0c0-1.1.04-2.2-.02-3.3-.03-.54-.4-.91-.98-.88-.55.03-.95.36-.95.92,0,2.08,0,4.15.06,6.23.02.62.44,1.01,1.1.97.61-.03.82-.49.84-1.01.03-.98,0-1.96,0-2.93Z"/>
      <path class="cls-4" d="M310.4,301.89c-.48-.49-.44-1.11-.44-1.72,0-4.76,0-9.52.01-14.28,0-.72-.1-1.51.8-1.86.95.08,1.41.58,1.41,1.55-.02,4.95,0,9.9-.04,14.85-.01,1.27-.2,1.36-1.74,1.45Z"/>
      <path class="cls-4" d="M316.27,292.88c0,1.71-.02,3.43,0,5.14.01.76-.19,1.42-1.03,1.43-.83.01-1.1-.62-1.1-1.39,0-3.49,0-6.98.01-10.46,0-.3.07-.61.17-.89.16-.45.5-.68.99-.65.5.02.8.33.9.78.09.41.08.85.08,1.28,0,1.59,0,3.18,0,4.77,0,0-.01,0-.02,0Z"/>
      <path class="cls-4" d="M310.76,224.28c-.4-.16-.82-.26-1.18-.48-2.16-1.28-2.14-4.06.03-5.36.26-.16.54-.27.81-.4.06,0,.12.02.18.02,2.22.23,3.41,1.27,3.46,3.01.04,1.7-1.1,2.82-3.3,3.21ZM312.62,221.14c-.03-.85-.87-1.56-1.74-1.48-.81.07-1.47.82-1.42,1.61.05.79.79,1.5,1.55,1.5.88,0,1.64-.77,1.61-1.63Z"/>
      <path class="cls-5" d="M315.87,277.56c-.07-.9.22-1.56,1.18-1.78.06-.01.12-.02.18-.05,1.07-.45,2.11-1.21,3.2-1.27,1.04-.06,1.92.98,2.87,1.51.77.43,1.33.26,2.01-.2,1.28-.87,2.19-2.13,3.43-3.04.16.67-.09,1.18-.56,1.64-.87.85-1.74,1.71-2.59,2.58-.42.43-.84.67-1.45.36-.32-.16-.7-.21-1.04-.34-1.74-.71-3.44-.66-5.12.17-.67.33-1.35.57-2.11.43Z"/>
      <path class="cls-4" d="M318.1,292.62c0-.92,0-1.84,0-2.76,0-.71.25-1.21,1.02-1.25.78-.05,1.14.45,1.15,1.14.02,1.96,0,3.92-.04,5.88-.01.6-.34,1.08-1,1.1-.77.03-1.09-.47-1.11-1.17-.02-.98,0-1.96,0-2.94h-.01Z"/>
      <path class="cls-5" d="M328.76,268.83c-1.01-.83-1.11-1.7-.7-3.01.7-2.23,1.93-3.49,4.28-3.6.18,0,.36-.03.54-.05-.04.61-.42,1.01-.9,1.28-2.1,1.19-2.74,3.24-3.22,5.38Z"/>
      <path class="cls-4" d="M349.15,234.26c.53-.33,1.07-.64,1.73-.64.35.11.73.17,1.03.35,1.05.61,1.42,1.64,1,2.63-.47,1.12-1.74,1.65-2.89,1.22-.99-.37-1.49-1.37-1.24-2.54.08-.35.24-.68.37-1.02ZM350.92,236.76c.57-.06,1.01-.37.96-1.02-.04-.54-.41-.86-.98-.85-.64.02-1.05.36-1.01,1.01.04.54.42.84,1.03.86Z"/>
      <path class="cls-5" d="M306.31,278c-1.03.07-1.92-.38-2.75-.86-1.15-.67-2.22-.82-3.44-.15-.9.49-1.92.77-2.99.63-.58-.39-1.17-.79-1.75-1.18-.05-.67-.59-.99-.97-1.43-.56-.64-.95-1.35-.88-2.24,1.11,1.03,2.21,2.07,3.33,3.09.6.55,1.25.64,1.98.16.92-.59,1.82-1.4,2.83-1.59,1.05-.2,1.89.98,2.97,1.2,1.29.27,1.84,1.07,1.68,2.37Z"/>
      <path class="cls-4" d="M269.94,233.99c1.34-.57,2.42-.18,3.3.92.02.36.07.73.04,1.08-.12,1.4-1.19,2.26-2.45,2-1.26-.26-1.97-1.49-1.64-2.78.12-.5.5-.81.75-1.22ZM271.11,234.85c-.61.11-.98.45-.88,1.11.08.55.45.84,1.02.8.68-.05.95-.45.88-1.1-.06-.58-.45-.81-1.02-.81Z"/>
      <path class="cls-2" d="M309.3,235.2c-.12,0-.25.02-.37.03.11-.17.23-.2.37-.03Z"/>
      <path class="cls-6" d="M279.98,267.24c-2.03-.84-4.1-1.6-6.09-2.54-3.21-1.52-6.36-3.17-9.56-4.72-.89-.43-1.45-1-1.69-1.99-.92-3.79-2-7.54-2.66-11.4.62.06,1.2.27,1.72.6,2.75,1.73,5.88,2.74,8.65,4.44,1.45.89,3.09,1.48,4.65,2.18.89.4,1.52,1.01,1.82,1.95,1.21,3.78,2.22,7.62,3.15,11.48Z"/>
      <path class="cls-6" d="M362.26,246.55c-.37,2.54-1.4,4.91-1.92,7.42-.29,1.43-.8,2.81-1.14,4.24-.21.92-.7,1.51-1.54,1.9-3.6,1.67-7.18,3.4-10.79,5.04-1.61.73-3.06,1.79-4.83,2.18,1.02-3.76,2.08-7.51,3.05-11.28.29-1.13.99-1.81,1.96-2.24,3.19-1.4,6.28-3,9.32-4.71,1.86-1.05,3.79-1.98,5.87-2.55Z"/>
      <path class="cls-5" d="M332.12,257.73c.15,3.72.22,2.85-2.83,3.61-.95.24-1.52.52-1.74,1.53-.24,1.07-.71,2.09-1.29,3.02-.56.9-.52,1.71.16,2.52.16.18.27.41.4.61,1.33,2,1.29,2.28-.47,3.79-2.21,1.91-2.23,1.94-4.63.31-.87-.59-1.54-.75-2.47-.13-1.01.67-2.14,1.18-3.36,1.42-.85.17-1.47.59-1.46,1.58,0,.18-.01.38-.09.54-.42.83.05,2.17-1.12,2.52-1.47.45-3.01.51-4.52.05-.51-.16-.61-.6-.61-1.02.03-2.64-1.6-3.6-3.82-4.5-1.92-.78-3.37-1.09-5.1.3-1.28,1.03-1.42.88-2.61-.27-.35-.34-.66-.72-.99-1.07.9-.72,1.88-1.37,2.68-2.18.83-.84,2.03-1.42,2.25-2.77.22.21.45.41.67.62,3.51,3.16,7.51,4.76,12.28,3.83,3.62-.7,6.62-2.43,8.87-5.43,1.91-2.55,2.75-5.42,2.9-8.55,2.31.24,4.56-.56,6.87-.33Z"/>
      <path class="cls-7" d="M289.89,258.44c-.02-.18-.06-.36-.06-.54-.01-2.6-.02-2.64,2.61-3.1,1.19-.21,1.99-.61,2.25-1.94.21-1.06.68-2.09,1.3-3.01.49-.72.42-1.35-.05-2.02-.49-.7-.92-1.44-1.43-2.13-.35-.48-.31-.88.07-1.3.29-.32.55-.65.84-.96,2.18-2.34,2.21-2.38,4.86-.6.96.65,1.72.66,2.65.08.98-.61,2.06-1.09,3.18-1.37.98-.24,1.39-.78,1.51-1.75.12-.9.41-1.78.62-2.66.3-.01.61-.04.91-.04,1.54-.02,1.57,0,1.59,1.48.02,1.71,0,3.41,0,5.12-.24.03-.48.06-.73.09-6.01.81-10.26,3.91-12.45,9.63-.66,1.73-.77,3.56-.87,5.39-.53-.38-1.14-.36-1.75-.36-1.7,0-3.4,0-5.09-.01Z"/>
      <path class="cls-2" d="M332.12,257.73c-2.31-.23-4.56.58-6.87.33-.11-.96-.18-1.93-.34-2.88-.51-2.84-2.03-5.15-3.84-7.31-.02-.77.59-1.14,1.02-1.63,1.14-1.31,2.27-2.63,3.41-3.95.24.18.52.32.73.53,1.9,1.85,1.9,1.92.5,4.1-.23.36-.45.73-.67,1.1-.35.56-.45,1.08-.04,1.7.65.97,1.05,2.08,1.37,3.19.28.96.71,1.67,1.85,1.66.18,0,.35.1.53.13,2.94.45,2.36.55,2.36,3.04Z"/>
      <path class="cls-8" d="M325.49,242.28c-1.14,1.32-2.27,2.64-3.41,3.95-.43.49-1.04.86-1.02,1.63-2.95-2.58-6.32-4.13-10.3-4.16,0-1.71.03-3.41,0-5.12-.02-1.48-.05-1.49-1.59-1.48-.3,0-.61.03-.91.04.76-.77,1.71-.39,2.57-.38,3.5.06,2.92-.29,3.56,2.95.19.97.54,1.56,1.5,1.79,1.26.3,2.41.88,3.52,1.51.81.46,1.47.4,2.16-.19.37-.32.78-.6,1.2-.84,1.38-.79,1.3-1.22,2.72.29Z"/>
      <path class="cls-8" d="M289.89,258.44c1.7,0,3.4.02,5.09.01.61,0,1.22-.02,1.75.36.41,1.87.72,3.76,1.51,5.53-.54,0-1.11.1-1.62-.03-.94-.24-.98.32-1,.96-.51-.7-.88-1.49-1.01-2.31-.16-1.06-.78-1.42-1.7-1.55-.36-.05-.71-.17-1.06-.26q-2.03-.51-1.96-2.71Z"/>
      <path class="cls-2" d="M295.62,265.28c.03-.64.06-1.2,1-.96.51.13,1.07.03,1.62.03.78,1.07,1.37,2.27,2.29,3.25-.22,1.35-1.42,1.93-2.25,2.77-.81.82-1.78,1.46-2.68,2.18-.31-.28-.62-.57-.93-.86-.52-.49-.6-1-.15-1.59.22-.28.36-.64.6-.91,1.04-1.2,1.36-2.48.5-3.92Z"/>
      <path class="cls-4" d="M307.87,292.82c0,1.65,0,3.3,0,4.95,0,.37.01.74-.06,1.09-.1.47-.48.7-.93.76-.5.07-.83-.25-.95-.69-.11-.4-.13-.84-.13-1.27-.02-3.05-.04-6.11-.03-9.16,0-.55.06-1.1.17-1.63.09-.45.38-.77.88-.79.59-.02.9.35.98.88.07.42.06.85.07,1.28,0,1.53,0,3.05,0,4.58h0Z"/>
      <path class="cls-4" d="M303.85,292.77c0,.98.02,1.96,0,2.93-.01.53-.23.98-.84,1.01-.66.04-1.08-.35-1.1-.97-.06-2.08-.07-4.15-.06-6.23,0-.56.41-.9.95-.92.57-.03.95.34.98.88.05,1.1.02,2.2.02,3.3.02,0,.04,0,.05,0Z"/>
      <path class="cls-8" d="M312.62,221.14c.03.86-.73,1.63-1.61,1.63-.76,0-1.51-.71-1.55-1.5-.05-.79.61-1.54,1.42-1.61.87-.08,1.71.64,1.74,1.48Z"/>
      <path class="cls-9" d="M350.92,236.76c-.61-.02-1-.32-1.03-.86-.04-.65.37-.99,1.01-1.01.57-.02.95.31.98.85.04.65-.39.96-.96,1.02Z"/>
      <path class="cls-8" d="M271.11,234.85c.57,0,.95.23,1.02.81.07.64-.2,1.05-.88,1.1-.57.04-.94-.25-1.02-.8-.09-.66.27-1,.88-1.11Z"/>
      <path class="cls-4" d="M300.53,267.59c-.92-.97-1.51-2.18-2.29-3.25-.79-1.76-1.1-3.66-1.51-5.53.1-1.83.21-3.66.87-5.39,2.19-5.73,6.44-8.83,12.45-9.63.24-.03.48-.06.73-.09,3.98.03,7.35,1.58,10.3,4.16,1.81,2.16,3.34,4.47,3.84,7.31.17.95.23,1.92.34,2.88-.15,3.13-.99,6-2.9,8.55-2.25,3-5.24,4.73-8.87,5.43-4.77.93-8.78-.67-12.28-3.83-.23-.2-.45-.41-.67-.62ZM323.54,258.39c.35-4.57-1.72-8.04-5.21-10.66-6.23-4.67-15.41-2.31-18.78,4.91-1.47,3.16-1.68,6.46-.42,9.78.72,2.13,1.95,3.88,3.67,5.35,2.5,2.15,5.36,2.98,8.63,2.91,3.58-.08,6.58-1.34,8.93-3.98,2.09-2.34,3.36-5.07,3.18-8.31Z"/>
      <path class="cls-6" d="M299.13,262.42c-1.26-3.32-1.06-6.63.42-9.78,3.37-7.22,12.55-9.58,18.78-4.91,3.49,2.62,5.56,6.09,5.21,10.66-.44.02-.87.04-1.31.07-.05-.71-.1-1.42-.15-2.14.07-.21-.01-.35-.18-.47-.55-2.84-2.02-5.09-4.41-6.74-.35-.24-.67-.64-1.13-.44-.56.24-.42.82-.45,1.3-.02.37-.01.74-.01,1.1-.02,2.45-.05,4.9-.07,7.35l-.31.36h-.02c-.55.05-1.03-.02-1.09-.71.24-3.11.07-6.23.11-9.35.01-.92-.51-1.36-1.29-1.52-1.57-.33-3.15-.34-4.71.12-.76.22-1.1.66-1.1,1.46.02,2.63.02,5.26,0,7.89,0,.72.27,1.3.74,1.81-.28.69-.89.72-1.49.76-.87-.31-.67-1.06-.68-1.71,0-2.56.01-5.13.01-7.69,0-.4.14-.85-.38-1.23-1.75.77-3.03,2.09-4.04,3.72-1.6,2.58-1.83,5.38-1.45,8.3-.09.32-.03.59.24.8.05.24.09.48.14.72-.46.15-.89.44-1.41.27Z"/>
      <path class="cls-3" d="M299.13,262.42c.52.17.95-.12,1.41-.27.16.25.35.49.49.75,1.71,3.16,4.17,5.35,7.8,6.03,1.41.27,1.54.21,1.56-1.3.02-1.52-.05-3.05,0-4.58.03-.97-.37-1.55-1.16-2.09-.84-.58-1.9-.86-2.55-1.72.6-.05,1.22-.08,1.49-.76.54.14.99.47,1.42.8,1.01.78,1.96.78,2.96-.05.56-.46,1.23-.78,1.85-1.16.06.69.54.77,1.09.73-.64,1.03-1.75,1.49-2.7,2.1-.89.57-1.24,1.29-1.25,2.27-.01,1.47-.04,2.93-.03,4.4.01,1.53.38,1.83,1.88,1.48,1.94-.45,3.66-1.35,5.11-2.73,1.96-1.88,3.34-4.05,3.34-6.88,0-.37.03-.74.37-.98.44-.02.87-.04,1.31-.07.18,3.24-1.1,5.97-3.19,8.31-2.35,2.64-5.35,3.9-8.93,3.98-3.27.07-6.13-.76-8.63-2.91-1.71-1.47-2.95-3.22-3.67-5.35Z"/>
      <path class="cls-4" d="M322.23,258.45c-.34.24-.37.61-.37.98,0,2.83-1.38,5-3.34,6.88-1.44,1.38-3.16,2.28-5.11,2.73-1.51.35-1.87.06-1.88-1.48-.01-1.47.01-2.93.03-4.4,0-.98.36-1.7,1.25-2.27.95-.61,2.06-1.07,2.7-2.1,0,0,.02-.01.02-.01.22-.02.33-.14.31-.36.02-2.45.05-4.9.07-7.35,0-.37,0-.74.01-1.1.02-.48-.11-1.05.45-1.3.46-.2.79.2,1.13.44,2.38,1.65,3.85,3.89,4.41,6.74-.05.2.01.35.18.47.05.71.1,1.42.15,2.14ZM317.23,255.58c.36,2.97-.82,5.03-3.62,6.14-.06.02-.11.06-.16.09-.39.25-.58.6-.56,1.07.08,1.58-.11,3.17.13,4.74,5.13-.01,9.81-7.42,7.13-13.24-.56-1.62-1.43-3-2.92-3.99v5.19Z"/>
      <path class="cls-4" d="M306.69,259.24c.65.87,1.7,1.14,2.55,1.72.79.54,1.19,1.12,1.16,2.09-.05,1.52.01,3.05,0,4.58-.02,1.51-.15,1.57-1.56,1.3-3.64-.69-6.09-2.87-7.8-6.03-.14-.26-.33-.5-.49-.75-.05-.24-.09-.48-.14-.72.08-.31.03-.59-.24-.8-.39-2.92-.15-5.72,1.45-8.3,1.01-1.63,2.29-2.95,4.04-3.72.52.37.38.83.38,1.23,0,2.56-.02,5.13-.01,7.69,0,.65-.19,1.39.68,1.71ZM304.91,259.88v-9.39c-3.36,2.56-4.75,7.69-3.01,11.3,1.12,2.94,3.32,4.72,6.21,5.74.61.22,1.08.21,1.06-.65-.02-1.28,0-2.56,0-3.84,0-.36.05-.81-.32-.99-1.35-.66-2.37-1.9-3.94-2.17Z"/>
      <path class="cls-4" d="M314.42,258.07c-.62.38-1.3.7-1.85,1.16-1.01.83-1.95.83-2.96.05-.43-.33-.88-.66-1.42-.8-.48-.51-.75-1.09-.74-1.81.01-2.63.01-5.26,0-7.89,0-.8.34-1.24,1.1-1.46,1.57-.46,3.14-.45,4.71-.12.78.16,1.3.6,1.29,1.52-.04,3.12.13,6.23-.11,9.35ZM313.32,256.62c.02-1.83.06-3.66.07-5.49,0-3.12-.16-3.26-3.29-2.99-.06,0-.12,0-.18.01-1.19.14-1.32.24-1.33,1.48-.02,2.32.01,4.64.03,6.95,0,.31.02.61.35.77.31.49.85.65,1.32.89,1.16.6,2.66-.22,3.04-1.63Z"/>
      <path class="cls-3" d="M300.16,260.63c.26.21.32.48.24.8-.27-.21-.33-.48-.24-.8Z"/>
      <path class="cls-3" d="M315.84,258.42c.01.22-.1.34-.31.36.1-.12.21-.24.31-.36Z"/>
      <path class="cls-3" d="M322.09,256.32c-.17-.12-.23-.27-.18-.47.16.12.25.26.18.47Z"/>
      <path class="cls-2" d="M320.16,254.38c2.68,5.82-2,13.23-7.13,13.24-.24-1.57-.05-3.16-.13-4.74-.02-.48.17-.82.56-1.07.05-.03.1-.07.16-.09,2.8-1.11,3.98-3.17,3.62-6.14,1.14,0,1.81-1.13,2.92-1.2Z"/>
      <path class="cls-8" d="M320.16,254.38c-1.11.07-1.78,1.21-2.92,1.2,0-1.68,0-3.36,0-5.19,1.5,1,2.36,2.37,2.92,3.99Z"/>
      <path class="cls-8" d="M304.91,259.88c1.56.27,2.59,1.51,3.94,2.17.37.18.32.63.32.99,0,1.28-.02,2.56,0,3.84.01.86-.45.87-1.06.65-2.9-1.02-5.09-2.8-6.21-5.74.41-.32.66-.85,1.32-.79.84.07,1.3-.48,1.69-1.12Z"/>
      <path class="cls-7" d="M304.91,259.88c-.39.64-.85,1.2-1.69,1.12-.66-.06-.91.47-1.32.79-1.74-3.61-.35-8.74,3.01-11.3v9.39Z"/>
      <path class="cls-7" d="M308.96,257.36c-.33-.16-.35-.46-.35-.77-.01-2.32-.04-4.64-.03-6.95,0-1.23.14-1.34,1.33-1.48.06,0,.12,0,.18-.01,3.13-.28,3.3-.13,3.29,2.99,0,1.83-.04,3.66-.07,5.49-.29-.07-.54-.3-.87-.21-1.16.32-2.33.63-3.49.95Z"/>
      <path class="cls-8" d="M308.96,257.36c1.16-.32,2.33-.63,3.49-.95.33-.09.58.14.87.21-.37,1.41-1.88,2.23-3.04,1.63-.47-.24-1.01-.4-1.32-.89Z"/>
    </g>
  </g>
</svg>