<?xml version="1.0" encoding="UTF-8"?>
<svg id="Sprite_Alien" xmlns="http://www.w3.org/2000/svg" viewBox="0 0 471.47 423.94">
  <defs>
    <style>
      .cls-1 {
        fill: #8f5ba1;
      }

      .cls-1, .cls-2, .cls-3, .cls-4, .cls-5, .cls-6 {
        stroke-width: 0px;
      }

      .cls-2 {
        fill: #1d211c;
      }

      .cls-3 {
        fill: #dcda63;
      }

      .cls-4 {
        fill: #f0f6ea;
      }

      .cls-5 {
        fill: #339066;
      }

      .cls-6 {
        fill: #a3c155;
      }
    </style>
  </defs>
  <g id="A2">
    <g>
      <path class="cls-2" d="M233.33,145.6c-8.47-.25-15.24-3.76-20.28-10.59-.8-1.09-1.51-2.24-2.17-3.41-.34-.59-.4-1.19-.19-1.82,2.09-6.14,5.58-11.22,11.21-14.66,8.14-4.96,18.68-4.08,25.93,2.13,3.9,3.33,6.41,7.56,8.12,12.31.27.75.19,1.46-.2,2.19-3.87,7.26-9.86,11.7-17.87,13.45-1.48.32-3.01.43-4.55.4ZM246.36,139.71c.14-.03.24-.1.27-.25h0c3.24-2.01,5.52-4.89,7.32-8.19.18-.33.22-.62-.17-.85-1.08-.64-2.05-1.49-3.25-1.94-2.12-1.38-4.46-2.22-6.97-3.02,1.57,5.39.59,9.95-4.06,13.07-3.78,2.54-7.96,2.7-11.88.24-4.95-3.11-6.01-7.74-4.44-13.28-2.67.82-5.1,1.82-7.34,3.25-.93.41-1.77.96-2.61,1.51-.72.48-.73.5-.28,1.29,1.77,3.15,4.03,5.87,7.05,7.91l.02.02c.11.08.21.16.32.24,3.22,2.31,6.85,3.62,10.74,4.03,5.4.57,10.42-.69,14.93-3.8.16-.02.31-.06.39-.23h0ZM253.17,127.86c-2.38-6.95-9.81-14.11-19.45-14.22-9.71-.11-17.6,6.7-20.22,14.3,13.18-7.76,26.39-7.81,39.67-.08ZM233.63,123.97c-2.58-.06-5.14.17-7.65.79-.48.12-.89.28-1.1.75-.72,1.67-1.35,3.39-1.08,5.25.72,5.11,4.86,8.34,9.83,8.33,6.39-.01,11.07-6.55,8.63-12.83-.41-1.07-1.09-1.6-2.2-1.79-2.13-.36-4.27-.48-6.42-.52Z"/>
      <path class="cls-2" d="M215.24,113.82c.32-.68.82-1.22,1.3-1.77,2.67-3.05,6.13-4.89,9.94-5.98,4.33-1.24,8.76-1.35,13.11-.07,4.23,1.25,7.98,3.36,10.92,6.74.28.33.71.6.66,1.18-.51-.01-.77-.38-1.09-.6-3.02-2.1-6.15-4-9.71-5.02-7.18-2.05-13.99-1.12-20.44,2.61-1.35.78-2.6,1.71-3.86,2.64-.21.15-.38.5-.83.26Z"/>
      <path class="cls-2" d="M248.86,145.41c-.56,1.02-1.41,1.75-2.32,2.39-2.32,1.66-4.89,2.81-7.66,3.48-7.14,1.71-13.6.22-19.42-4.19-.59-.45-1.16-.94-1.6-1.73.62-.01.98.31,1.36.52,3.01,1.62,6.12,2.91,9.53,3.54,5.45,1.01,10.63.26,15.64-1.99,1.23-.55,2.45-1.12,3.59-1.84.23-.14.47-.39.87-.19Z"/>
      <path class="cls-3" d="M245.98,139.94c-4.51,3.1-9.53,4.36-14.93,3.8-3.89-.41-7.52-1.72-10.74-4.03,0-.22-.17-.22-.32-.25,0,0-.02-.02-.02-.02-.02-.41-.29-.68-.53-.97-1.03-1.29-1.84-2.69-2.45-4.23-.71-1.78-.96-3.64-1.17-5.51,2.24-1.42,4.67-2.43,7.34-3.25-1.57,5.54-.51,10.18,4.44,13.28,3.92,2.46,8.1,2.3,11.88-.24,4.65-3.12,5.63-7.68,4.06-13.07,2.51.79,4.85,1.64,6.97,3.02.08,2.12-.18,4.17-1.05,6.15-.56,1.28-1.23,2.47-2.05,3.6-.29.4-.74.71-.8,1.25,0,0,0-.01,0-.01-.14.03-.23.12-.27.25,0,0,0,0,0,0-.17,0-.32.05-.39.23Z"/>
      <path class="cls-6" d="M253.17,127.86c-13.28-7.73-26.5-7.68-39.67.08,2.62-7.6,10.51-14.41,20.22-14.3,9.65.11,17.07,7.27,19.45,14.22ZM245.74,122.27c-.27-.63-.72-.67-1.11-.8-2.58-.92-5.24-1.46-7.94-1.81-3.75-.49-7.47-.24-11.16.56-1.77.39-3.47,1.02-5.18,1.63-.48.17-1.11.28-1.36,1.18,8.91-3.41,17.75-3.16,26.74-.75Z"/>
      <path class="cls-1" d="M233.63,123.97c2.15.03,4.29.15,6.42.52,1.11.19,1.79.72,2.2,1.79,2.44,6.28-2.24,12.81-8.63,12.83-4.97.01-9.11-3.23-9.83-8.33-.26-1.86.36-3.57,1.08-5.25.2-.47.62-.63,1.1-.75,2.51-.63,5.07-.85,7.65-.79ZM236.24,125.62c-.38-.17-.76-.36-1.15-.52-2.33-.93-5.28.25-6.12,2.52-.99,2.66.03,5.5,2.63,6.5,2.87,1.1,6.56-.8,6.49-4.48,1.62-.89,2.02-2.24.98-3.45-.78-.92-1.77-1.01-2.84-.56Z"/>
      <path class="cls-1" d="M246.62,139.48c.07-.54.51-.85.8-1.25.82-1.13,1.49-2.32,2.05-3.6.86-1.97,1.13-4.03,1.05-6.15,1.2.45,2.16,1.29,3.25,1.94.39.23.35.52.17.85-1.8,3.3-4.08,6.18-7.32,8.2Z"/>
      <path class="cls-1" d="M215.82,128.73c.22,1.87.47,3.73,1.17,5.51.61,1.54,1.42,2.94,2.45,4.23.24.3.51.56.53.97-3.02-2.04-5.28-4.76-7.05-7.91-.44-.79-.44-.81.28-1.29.84-.56,1.68-1.1,2.61-1.51Z"/>
      <path class="cls-1" d="M245.98,139.94c.07-.18.21-.23.39-.23-.07.17-.22.21-.39.23Z"/>
      <path class="cls-1" d="M220,139.46c.15.03.32.03.32.25-.11-.08-.21-.16-.32-.25Z"/>
      <path class="cls-1" d="M246.36,139.71c.04-.14.13-.22.27-.25-.03.15-.13.22-.27.25Z"/>
      <path class="cls-5" d="M245.74,122.27c-8.99-2.41-17.84-2.66-26.74.75.25-.9.88-1.01,1.36-1.18,1.7-.61,3.4-1.24,5.18-1.63,3.69-.8,7.4-1.05,11.16-.56,2.71.35,5.37.89,7.94,1.81.38.14.83.17,1.11.8Z"/>
      <path class="cls-2" d="M238.1,129.64c.07,3.68-3.62,5.58-6.49,4.48-2.6-1-3.62-3.83-2.63-6.5.84-2.26,3.79-3.45,6.12-2.52.39.16.77.34,1.15.52-.2.21-.43.41-.58.65-.93,1.42-.12,3.16,1.56,3.36.29.03.58,0,.88,0Z"/>
      <path class="cls-4" d="M238.1,129.64c-.29,0-.59.02-.88,0-1.68-.19-2.49-1.93-1.56-3.36.16-.24.39-.43.58-.65,1.07-.44,2.06-.35,2.84.56,1.03,1.21.63,2.56-.98,3.45Z"/>
    </g>
  </g>
</svg>