<?xml version="1.0" encoding="UTF-8"?>
<svg id="Sprite_Alien" xmlns="http://www.w3.org/2000/svg" viewBox="0 0 471.47 423.94">
  <defs>
    <style>
      .cls-1 {
        fill: #1d211c;
      }

      .cls-1, .cls-2, .cls-3, .cls-4, .cls-5, .cls-6 {
        stroke-width: 0px;
      }

      .cls-2 {
        fill: #739072;
      }

      .cls-3 {
        fill: #243734;
      }

      .cls-4 {
        fill: #759b55;
      }

      .cls-5 {
        fill: #5a8049;
      }

      .cls-6 {
        fill: #fefcfc;
      }
    </style>
  </defs>
  <g id="Add-ons">
    <g id="A4">
      <g>
        <path class="cls-1" d="M254.77,39.73c-2.13,2.43-3.83,5.15-5.32,8-3.34,6.39-5.31,13.22-6.34,20.35-.76,5.21-1.03,10.43-.95,15.69.01.86.4,1.11,1.05,1.4,3.81,1.68,6.39,4.45,7.45,8.54.24.92.39,1.85.42,2.8.03,1.02-.31,1.36-1.31,1.42-.24.01-.47,0-.71,0-8.52,0-17.03,0-25.55,0-.19,0-.38,0-.57,0-1.17-.05-1.44-.29-1.4-1.44.13-3.69,1.55-6.77,4.37-9.18,1.08-.92,2.25-1.75,3.61-2.19.78-.25.96-.65.95-1.44-.02-4.93.42-9.81,1.31-14.66,1.49-8.19,4.1-15.99,8.26-23.22,2.39-4.15,5.2-8,8.52-11.47.16-.17.31-.36.46-.54.67-.59,1.33-1.2,2.03-1.75.68-.53.86-1.1.57-1.95-.7-2.06-.71-4.2-.27-6.3,1.63-7.75,9.75-12.19,17.43-9.15,6,2.37,9.04,8.55,7.76,14.63-1.7,8.08-10.22,12.37-17.83,9.14-.71-.3-1.38-1.16-2.13-.79-.66.33-1.09,1.15-1.61,1.76-.09.1-.12.24-.18.37ZM250.54,35.2c-.32.02-.47.29-.66.48-2.12,2.14-3.88,4.56-5.61,7.02-.68.96-1.26,1.98-1.94,2.94-.47.67-.38,1.21.2,1.72.63.56,1.2,1.2,2.02,1.5.15.27.45.34.69.45,1.08.51,1.06.48,1.57-.54.72-1.44,1.45-2.87,2.24-4.26,1.54-2.73,3.48-5.18,5.52-7.54.26-.3.71-.56.29-1.07-.74-.89-1.47-1.79-2.22-2.72-.83.68-1.63,1.18-2.12,2.02ZM226.38,95.9h14.13c-.05-1.45-.8-3.67-1.46-4.58-.32-.45-.73-.52-1.23-.51-3.35.03-6.7.05-10.05.08-.52-.01-1.04,0-1.55-.04-.64-.06-1.05.19-1.37.75-.77,1.32-1.17,2.72-1.23,4.31h2.76ZM236.29,85.74c-3.85-.17-8.49,1.71-9.77,3.98.91.06,1.8.07,2.69-.04.52.02,1.03.06,1.55.06,2.41.02,4.81.05,7.22.02.83,0,1.4.23,1.87.97.79,1.25,1.42,2.54,1.69,4.01.23,1.22.25,1.22,1.53,1.21,1.56,0,3.11-.01,4.67-.03,1.2,0,1.33-.11,1.07-1.31-.51-2.32-1.61-4.34-3.47-5.85-2.63-2.12-5.64-3.17-9.04-3.03ZM243.73,49.91c-.48-.37-.96-.74-1.44-1.11l-.59-.53c-.18-.39-.39-.74-.76-.17-.23.36-.41.74-.6,1.12-5.42,10.74-7.79,22.2-7.99,34.17,0,.23-.03.47.2.7,1.5-.16,3.05-.41,4.61-.39,1.01.14,2.03.29,3.15.45-.2-5.74.03-11.39.94-16.98.9-5.57,2.22-11.04,4.51-16.24-.79-.39-1.42-.71-2.04-1.02ZM264.18,37.6c5.75.16,11.19-4.99,10.84-11.69-.27-5.02-4.53-10.82-11.88-10.39-5.86.34-10.5,5.13-10.35,11.33.14,5.74,4.82,11,11.39,10.75Z"/>
        <path class="cls-2" d="M254.77,39.73c.06-.12.1-.27.18-.37.52-.61.94-1.43,1.61-1.76.75-.37,1.42.49,2.13.79,7.61,3.23,16.13-1.05,17.83-9.14,1.28-6.08-1.77-12.25-7.76-14.63-7.68-3.04-15.8,1.4-17.43,9.15-.44,2.1-.43,4.24.27,6.3.29.85.12,1.42-.57,1.95-.7.55-1.36,1.16-2.03,1.75-1.35-.47-1.29-.76-1.42-1.93-.14-1.26.28-2.48-.06-3.74-.23-.88-.31-1.87.35-2.71.17-.21.21-.52.29-.79.26-.98.02-1.26-.99-1.19-.82.06-1.13-.24-1.22-1.14-.14-1.46.39-2.79.86-4.12.92-2.57,2.72-4.52,4.73-6.27.86-.75,1.97-1.1,3-1.59.5-.24.94-.02,1.28.34.65.72,1.34.7,2.15.28.41-.21.84-.41,1.25-.63,1.76-.9,3.62-1.23,5.52-.59.87.29,1.78.13,2.64.43.46.16.73-.3.55-.8-.46-1.21-.12-1.76,1.16-1.73,2.09.04,4,.8,5.74,1.84,2.98,1.76,5.41,4.17,6.92,7.31,1.39,2.89,1.93,6.01,1.76,9.23-.03.58-.26,1.03-.82,1.2-.5.15-1.04.18-1.4-.36-.16-.24-.32-.5-.67-.36-.33.14-.27.46-.29.73-.02.39.09.74.24,1.09.51,1.21.6,2.33-.5,3.35-1.22,1.13-1.69,2.66-1.99,4.24-.02.09-.02.19-.02.28-.01.71-.41,1.23-.85,1.73-.51.57.37,1.27-.14,1.87-.15.18-.23.42-.38.6-2.87,3.38-6.47,5.25-10.96,5.32-.77.01-1.49-.22-2.24-.29-.5-.05-.97-.33-.93-.88.05-.6.55-.84,1.13-.83.42,0,.85-.02,1.26.13.32.12.65.18.97.07.3-.1.72-.16.64-.6-.06-.3-.37-.44-.67-.42-1.3.09-2.54-.11-3.67-.8-.11-.07-.29-.09-.41-.06-1.63.44-2.95-.35-4.19-1.18-.9-.6-1.85-.9-2.87-1.09Z"/>
        <path class="cls-2" d="M288.36,24.16c-.22-5.92-2.09-11.22-6.27-15.48-2.92-2.97-6.52-4.96-10.57-6.04-.45-.12-.94-.1-1.39-.22-.87-.21-1.27-.82-1.08-1.54.17-.66.74-1.01,1.57-.84,4.7.97,9.02,2.73,12.48,6.21,1.73,1.74,3.45,3.47,4.58,5.72,1.41,2.8,2.44,5.7,2.91,8.82.26,1.7.23,3.39.25,5.08,0,.24.01.48-.02.71-.1.81-.57,1.23-1.3,1.18-.66-.04-1.11-.45-1.15-1.19-.04-.8,0-1.61,0-2.41Z"/>
        <path class="cls-2" d="M265.64,51.34c-.73,0-1.49,0-2.24,0-.49,0-.94-.1-1.36-.35-.32-.2-.69-.45-.57-.89.12-.44.48-.71.96-.7.28,0,.56.06.84.1,3.84.47,7.58.12,10.99-1.8,2.36-1.33,4.4-3.09,5.84-5.45.2-.33.43-.63.78-.8.29-.14.6-.36.91-.06.28.25.32.61.2.92-.19.48-.42.96-.72,1.38-2.4,3.24-5.47,5.58-9.34,6.82-.58.19-1.17.4-1.76.53-1.49.31-2.99.43-4.54.32Z"/>
        <path class="cls-2" d="M240.36,21.52c.35-2.86.91-5.58,2.33-8.03,2.09-3.61,5.01-6.34,8.85-8.03.22-.09.42-.23.64-.29.49-.13.82.13,1.06.52.24.4.04.71-.25,1-.17.17-.38.25-.6.35-2.08.94-3.92,2.21-5.56,3.8-1.91,1.86-3.11,4.14-3.87,6.64-.34,1.11-.71,2.25-.71,3.45,0,.27-.15.54-.21.81-.12.53-.35,1.14-.92,1.05-.62-.1-.71-.78-.76-1.28Z"/>
        <path class="cls-5" d="M264.18,37.6c-6.57.26-11.25-5.01-11.39-10.75-.15-6.2,4.49-10.99,10.35-11.33,7.35-.43,11.62,5.37,11.88,10.39.36,6.7-5.09,11.85-10.84,11.69ZM260.53,24.44c1.49-.05,2.95-.82,3.95-2.34,1.15-1.75.42-3.56-1.53-4.3-1.7-.64-4.76.38-5.72,2.54-.75,1.69-.11,3.26,1.57,3.92.46.18.92.16,1.73.18ZM269.61,21.81c-.02-.92-.6-1.46-1.53-1.43-.85.02-1.66.85-1.59,1.63.06.67.99,1.45,1.69,1.42.78-.04,1.45-.8,1.43-1.61Z"/>
        <path class="cls-2" d="M242.3,48.8c.48.37.96.74,1.44,1.11.01.43-.37.76-.3,1.2-.55-.06-1.06.03-1.33.57-.29.59.13.96.51,1.33.03.75-.43,1.34-.64,2.01-2.01,6.33-3.79,12.71-4.27,19.39-.22,3.1-.59,6.19-.53,9.3-1.56-.01-3.1.23-4.61.39-.23-.23-.21-.47-.2-.7.2-11.96,2.57-23.42,7.99-34.17.19-.38.37-.77.6-1.12.37-.57.58-.23.76.17-1.76,3.09-3.08,6.36-4.21,9.73-1.11,3.32-1.99,6.68-2.62,10.12-.53,2.88-.7,5.79-1.02,8.69-.07.61-.04,1.24.41,1.77.32-.43.25-.92.3-1.38.14-1.26.32-2.52.47-3.78.26-2.16.79-4.26,1.26-6.37,1.05-4.66,2.39-9.22,4.18-13.65.62-1.53,1.43-2.98,1.81-4.6Z"/>
        <path class="cls-5" d="M236.29,85.74c3.4-.14,6.42.91,9.04,3.03,1.87,1.5,2.96,3.53,3.47,5.85.26,1.21.13,1.3-1.07,1.31-1.56.01-3.11.02-4.67.03-1.28,0-1.3,0-1.53-1.21-.27-1.47-.9-2.76-1.69-4.01-.47-.74-1.03-.98-1.87-.97-2.41.03-4.81,0-7.22-.02-.52,0-1.03-.04-1.55-.06.02-.41.3-.67.56-.94,1.01-1.03,2.27-1.64,3.58-2.18.95-.39,2-.42,2.94-.82Z"/>
        <path class="cls-3" d="M243.43,51.11c-.07-.44.32-.77.3-1.2.63.31,1.26.63,2.04,1.02-2.29,5.19-3.61,10.67-4.51,16.24-.91,5.59-1.13,11.24-.94,16.98-1.13-.16-2.14-.3-3.15-.45-.06-3.11.31-6.2.53-9.3.48-6.68,2.25-13.05,4.27-19.39.21-.67.67-1.26.64-2.01,1.33-.29,1.43-.51.82-1.89Z"/>
        <path class="cls-3" d="M227.78,90.89c3.35-.02,6.7-.05,10.05-.08.49,0,.9.06,1.23.51.66.92,1.41,3.13,1.46,4.58-4.71,0-9.42,0-14.13,0-.03-.7.1-1.37.33-2.03.35-1,.71-1.99,1.06-2.99ZM237.88,92.84c0-.51-.46-1.01-.96-1.04-.52-.02-.99.44-1,.97,0,.53.44,1.02.95,1.04.51.02.99-.45,1-.98Z"/>
        <path class="cls-2" d="M244.56,48.86c-.82-.3-1.39-.94-2.02-1.5-.58-.51-.68-1.05-.2-1.72.68-.96,1.26-1.98,1.94-2.94,1.72-2.45,3.48-4.88,5.61-7.02.19-.19.33-.46.66-.48.19.53.35,1.08.71,1.53.43.52.37.99-.09,1.49-.47.52-.87,1.11-1.31,1.66-1.72,2.15-2.99,4.57-4.32,6.96-.36.65-.95,1.2-.97,2.02Z"/>
        <path class="cls-3" d="M244.56,48.86c.02-.81.61-1.37.97-2.02,1.33-2.39,2.6-4.81,4.32-6.96.44-.55.83-1.15,1.31-1.66.46-.5.52-.97.09-1.49-.37-.45-.52-1-.71-1.53.49-.84,1.3-1.35,2.12-2.02.75.92,1.49,1.82,2.22,2.72.42.5-.03.76-.29,1.07-2.04,2.37-3.98,4.81-5.52,7.54-.79,1.4-1.52,2.83-2.24,4.26-.51,1.03-.5,1.05-1.57.54-.25-.12-.54-.18-.69-.45Z"/>
        <path class="cls-6" d="M242.3,48.8c-.38,1.62-1.2,3.07-1.81,4.6-1.79,4.43-3.14,9-4.18,13.65-.47,2.11-1.01,4.21-1.26,6.37-.15,1.26-.32,2.52-.47,3.78-.05.46.02.95-.3,1.38-.45-.53-.48-1.16-.41-1.77.32-2.9.49-5.81,1.02-8.69.63-3.44,1.52-6.8,2.62-10.12,1.12-3.37,2.44-6.64,4.21-9.73.2.18.39.36.59.53Z"/>
        <path class="cls-2" d="M227.78,90.89c-.35.99-.71,1.99-1.06,2.99-.23.66-.36,1.33-.33,2.03-.89,0-1.78,0-2.76,0,.05-1.59.46-2.99,1.23-4.31.32-.56.73-.81,1.37-.75.51.05,1.04.03,1.55.04Z"/>
        <path class="cls-4" d="M236.29,85.74c-.94.4-1.99.42-2.94.82-1.31.54-2.57,1.15-3.58,2.18-.26.27-.54.53-.56.94-.89.1-1.78.1-2.69.04,1.28-2.27,5.92-4.15,9.77-3.98Z"/>
        <path class="cls-2" d="M260.53,24.44c-.81-.03-1.27,0-1.73-.18-1.68-.66-2.32-2.23-1.57-3.92.96-2.16,4.02-3.18,5.72-2.54,1.95.74,2.67,2.55,1.53,4.3-1,1.52-2.45,2.29-3.95,2.34Z"/>
        <path class="cls-2" d="M269.61,21.81c.02.81-.65,1.57-1.43,1.61-.7.04-1.63-.75-1.69-1.42-.07-.78.74-1.6,1.59-1.63.93-.03,1.51.52,1.53,1.43Z"/>
        <path class="cls-1" d="M243.43,51.11c.61,1.39.51,1.6-.82,1.89-.37-.37-.8-.74-.51-1.33.26-.53.77-.63,1.33-.57Z"/>
        <path class="cls-1" d="M237.88,92.84c0,.53-.5,1-1,.98-.51-.02-.96-.52-.95-1.04,0-.53.48-.99,1-.97.5.02.97.53.96,1.04Z"/>
      </g>
    </g>
  </g>
</svg>