<?xml version="1.0" encoding="UTF-8"?>
<svg id="Sprite_Alien" xmlns="http://www.w3.org/2000/svg" viewBox="0 0 471.47 423.94">
  <defs>
    <style>
      .cls-1 {
        fill: #111412;
      }

      .cls-1, .cls-2, .cls-3, .cls-4, .cls-5, .cls-6 {
        stroke-width: 0px;
      }

      .cls-2 {
        fill: #fefefe;
      }

      .cls-3 {
        fill: #527948;
      }

      .cls-4 {
        fill: #bedfe8;
      }

      .cls-5 {
        fill: #738d6f;
      }

      .cls-6 {
        fill: #6c9553;
      }
    </style>
  </defs>
  <g id="Add-ons">
    <g id="A1">
      <path class="cls-1" d="M303.44,272.78c.62.91,1.33,1.9,1.99,2.92,5.39,8.28,4.56,17.14-2.28,24.25-5.59,5.81-12.52,9.5-19.92,12.35-10.23,3.94-20.89,6.19-31.76,7.4-17.43,1.94-34.76,1.32-51.94-2.34-10.16-2.16-20.02-5.2-28.99-10.67-4.06-2.48-7.61-5.51-10.42-9.37-5.35-7.36-5.44-14.43-.32-21.92.62-.91,1.33-1.76,2-2.64-.4-1.35-1.65-1.84-2.57-2.62-17.43-14.64-29.28-32.98-35.87-54.74-.84-2.76-2.05-4.34-4.83-5.44-8.88-3.5-13.05-10.92-14.44-19.82-1.35-8.62-.7-17.18,4.09-24.89,2.64-4.25,6.26-7.53,11-9.03,2.45-.78,3.51-1.96,4.24-4.3,10.13-32.6,31.19-55.61,61.84-69.81,17.62-8.17,36.31-11.04,55.71-9.66,17.81,1.26,34.38,6.42,49.77,15.39,2.14,1.25,3.71,1.51,5.92.09,2.33-1.5,5.21-2.16,7.98-1.38,2.5.7,3.49-.55,4.49-2.39,3.27-6.01,7.4-11.36,12.47-15.95.92-.83,1.82-1.74,2.87-2.39,3.12-1.93,5.01-4,5.01-8.33,0-6.28,6.52-10.71,12.91-9.81,6.23.88,10.51,7.23,9.36,13.9-1.06,6.18-7.13,10.71-13.06,9.12-2.84-.76-4.28.04-5.97,1.98-5.65,6.46-9.42,13.93-12.18,21.99-.45,1.3-.17,2.35.42,3.54,2.06,4.19,2.17,8.6.63,12.93-.61,1.73-.3,2.77.78,4.08,9,10.94,15.14,23.4,19.18,36.94.48,1.62.88,3.12,2.86,3.67,10.11,2.8,14.56,10.46,16.28,20.01,1.55,8.62,1.08,17.09-3.54,24.95-2.64,4.49-6.25,7.76-11.16,9.38-2.23.73-3.4,2.01-4.02,4.2-6.46,22.81-19.07,41.58-37.15,56.74-.52.44-1.16.77-1.4,1.67ZM337.56,51.96c-.69.53-1.37,1.07-2.06,1.6-1.07.25-1.5,1.17-1.96,2-1.9,3.43-.98,7.43,2.25,10.01,2.92,2.33,7.11,2.23,9.89-.24,3.08-2.74,3.68-7.05,1.47-10.55-2.13-3.36-5.83-4.45-9.59-2.82ZM346.72,186.11c-.96,6.35-.97,12.81-2.49,19.67,4.02-1.86,7.02-3.93,8.83-7.35,2.61-4.94,4.11-10.17,3.52-15.85.11-9.38-4.49-19.99-12.5-21.59,1.72,8.39,2.62,16.71,2.64,25.11ZM108.47,182.47c-1.13,10.59,5.25,21.82,12.2,22.29-.71-6.59-1.89-13.09-2.12-19.68,0-8.08,1.02-16.06,2.58-24.42-4.22,1.47-6.98,3.81-8.9,7.16-2.59,4.53-3.89,9.41-3.76,14.65ZM147.9,151.16c-6.2,1.78-12.13,4.33-18.17,6.56-2.69.99-3.85,2.69-3.9,5.64,1.91-.13,3.28-1.11,4.78-1.65,7.46-2.67,14.9-5.42,22.34-8.14.8-.18,1.61-.33,2.41-.55,17.26-4.82,34.8-8.07,52.64-9.76,8.65-.82,17.33-.93,25.98-1.53,8.88.62,17.76,1.23,26.65,1.85,1.24.66,2.58.7,3.94.6,25.61,3.17,50.55,8.99,74.57,19.51,0-3.22-1.14-4.82-3.62-5.87-7.75-3.27-15.66-6.11-23.7-8.52-17.19-5.16-34.66-9.03-52.57-10.63-8.38-.75-16.75-1.58-25.19-1.05-.69-.05-1.37-.14-2.06-.14-14.95-.16-29.76,1.38-44.49,3.73-13.48,2.15-26.67,5.6-39.62,9.96ZM166.99,276.17c-.74-.76-1.3-.53-1.74.32-.68.86-1.46,1.67-2.03,2.61-1.93,3.13-1.93,3.48.81,5.88,4.9,4.3,10.2,8.03,16.15,10.76,16.55,7.59,33.95,11.31,52.13,11.48,4.4.04,5.9,1.5,6.25,5.82.06.8-.57,1.61.13,2.56,6.4.53,12.82-.51,19.19-1.6,11.03-1.89,21.89-4.48,31.87-9.86,4.67-2.52,8.91-5.55,11.93-10.05,3.89-5.78,3.47-11.39-1.01-16.75-1.46-1.74-2.57-1.74-3.95-.14-.26.08-.56.1-.78.25-22.91,15.04-47.96,21.17-75.22,18.33-17.87-1.86-34.41-7.51-49.62-17.1-1.27-.8-2.34-1.97-3.9-2.28l-.21-.24ZM180.35,278.37c1.6,1.26,3.18,2.57,5.43,2.32.26.95,1.16,1.14,1.87,1.45,11.72,5.02,23.91,8.31,36.61,9.31,15.12,1.19,29.94-.7,44.3-5.72,3.72-1.3,7.57-2.42,10.72-4.99,2.17.31,3.6-1.21,5.27-2.15,3.39-1.38,6.27-3.62,9.33-5.56,1.79-.89,3.27-2.19,4.7-3.55.68-.48,1.39-.91,2.03-1.43,17.46-13.95,29.36-31.72,36.13-53.01.16-.51.22-1.06-.12-1.27-69.59,26.51-139.01,26.21-208.87-.39,6.97,22.39,19.1,40.31,36.55,54.63,1.04.85,1.98,2,3.54,1.95.4,1.48,1.74,1.82,2.88,2.39,2.92,2.48,6.24,4.32,9.64,6.03ZM259.31,146.48c-7.1-.74-14.21-1.39-21.36-1.27-12.64-.61-25.21.45-37.75,1.81-4.18.46-8.49.52-12.49,2.17-1.53-.27-3.03,0-4.51.32-5.92,1.3-11.85,2.54-17.75,3.94-12.77,3.02-25.14,7.27-37.26,12.3-2.47,1.03-3.52,2.39-3.92,5.09-1.19,7.88-.7,15.74-.36,23.62.14,3.28,1.32,5.84,5.05,6.43,1.06.17,2.04.82,3.08,1.19,7.39,2.62,14.67,5.59,22.39,7.18,1.12,1.18,2.69,1.28,4.12,1.68,8.64,2.42,17.4,4.29,26.24,5.78,4.19.71,8.31,2.04,12.65,1.45.63.26,1.25.74,1.89.76,4.97.1,9.84,1.38,14.83,1.09,5.43.95,10.87,1.26,16.35.49.54.12,1.07.32,1.61.33,5.94.08,11.86-.28,17.79-.61,13.39-.75,26.6-2.66,39.72-5.34,16.27-3.32,31.93-8.64,47.53-14.22,2.76-.99,3.75-2.57,3.96-5.48.5-6.92.82-13.79.11-20.73-.75-7.23-.82-7.67-7.55-10.09-10.76-3.86-21.5-7.66-32.62-10.52-10.17-2.62-20.43-4.41-30.73-6.17-3.67-.41-7.34-.81-11.01-1.22ZM336.64,152.87c-16.43-54.39-71.65-83.24-123.14-74.25-25.74,4.49-47.22,16.65-64.34,36.33-10.54,12.12-20.32,31.06-20.19,37.67,69.05-26.77,138.11-26.87,207.68.24ZM125.75,203.06c.05,4.04.04,4.08,3.2,5.33,21.37,8.5,43.37,14.56,66.19,17.65,19.78,2.68,39.57,3.32,59.46,1.67,18.19-1.51,36.09-4.61,53.65-9.6,9.43-2.68,18.68-5.87,27.76-9.57,2.54-1.04,3.67-2.61,3.23-5.59-71.25,28.11-142.37,27.63-213.49.11ZM161.09,286.64c.34,4.13,1.03,6.01,3.1,8.59,1.74,2.17,3.81,3.99,6.08,5.61,4.42,3.16,9.29,5.41,14.35,7.3,11.46,4.29,23.36,6.56,35.52,7.38,5.35.36,10.74.69,16.12.1-.76-5.72-.83-5.72-6.23-5.9-3.45-.11-6.89-.41-10.33-.68-16.6-1.3-32.24-5.75-46.76-14.06-4.09-2.34-7.68-5.33-11.86-8.34ZM297.84,92.28c7.46,5.14,13.88,10.85,19.88,17.42,2.07-6.28.39-11.34-4.74-15.4-5.13-4.06-10.34-4.86-15.13-2.02ZM317.5,92.4c.4-1.03.77-2.06,1.2-3.06,2.96-6.85,6.06-13.61,11.2-19.19.81-.89,2.94-1.6,1.72-3.18-1.4-1.81-2.75.12-3.76.91-6.03,4.71-10.96,10.44-15.03,16.92-1.91,3.04-1.86,3.12,1.23,5.29,1.11.78,1.95,1.97,3.44,2.31Z"/>
      <path class="cls-4" d="M336.64,152.87c-69.56-27.12-138.63-27.01-207.68-.24-.13-6.61,9.65-25.56,20.19-37.67,17.12-19.68,38.61-31.84,64.34-36.33,51.49-8.99,106.71,19.86,123.14,74.25ZM178.39,125.15s0-.04,0-.06c.97,0,1.97.17,2.89-.03,10.39-2.2,19.06-7.4,25.03-16.17,3.94-5.79,2.57-10.65-4.76-12.49-4.84-1.21-9.23.83-13.58,2.39-7.15,2.57-12,8.24-16.98,13.6-2.41,2.59-2.27,6.08-1.18,9.04,1.04,2.81,4.03,3.52,6.91,3.71.55.04,1.1,0,1.66,0ZM222.53,100.16c2.37.23,4.31-.59,5.93-2.27,1.84-1.9,1.8-2.94-.22-4.78-2.93-2.67-8.91-2.25-11.52.81-1.23,1.44-1.2,3.02.17,4.39,1.56,1.56,3.5,2.07,5.63,1.85ZM156.09,132.66c-.18,1.48.38,2.83,1.84,3.69,1.54.91,3.04.34,4.25-.6,2.24-1.74,2.85-4.38,2.87-7,.01-1.98-2.31-3.12-4.36-2.52-2.66.78-4.54,3.33-4.6,6.42Z"/>
      <path class="cls-4" d="M167.83,269.96c-1.56.04-2.5-1.1-3.54-1.95-17.45-14.32-29.58-32.24-36.55-54.63,69.86,26.6,139.29,26.9,208.87.39.33.21.28.76.12,1.27-6.76,21.29-18.67,39.06-36.13,53.01-.65.52-1.35.96-2.03,1.43-3.51-1.28-6.39-3.78-9.89-5.12-8.4-3.2-17.04-5.6-25.89-6.94-14.89-2.25-29.86-3.11-44.93-1.74-12.81,1.17-25.41,3.31-37.58,7.53-4.47,1.55-9.12,2.98-12.45,6.75Z"/>
      <path class="cls-3" d="M270.32,147.7c10.3,1.77,20.56,3.56,30.73,6.17,11.12,2.86,21.86,6.66,32.62,10.52,6.74,2.42,6.81,2.85,7.55,10.09.72,6.94.39,13.81-.11,20.73-.21,2.9-1.19,4.49-3.96,5.48-15.6,5.58-31.26,10.9-47.53,14.22-13.12,2.68-26.33,4.59-39.72,5.34-5.93.33-11.85.69-17.79.61-.54,0-1.07-.22-1.61-.33-.03-1.18.67-2.05,1.16-3.04,4.03-8.02,8.87-15.59,13.22-23.43,7.69-13.88,15.46-27.71,23.13-41.59.84-1.53,2.32-2.79,2.3-4.75Z"/>
      <path class="cls-5" d="M187.72,149.2c4-1.66,8.31-1.72,12.49-2.17,12.54-1.37,25.11-2.42,37.75-1.81-3.39,7.41-7.76,14.28-11.73,21.37-8.43,15.03-16.95,30.02-25.45,45.01-1.22,2.15-2.85,4.07-3.34,6.59-4.34.59-8.46-.74-12.65-1.45-8.84-1.49-17.6-3.36-26.24-5.78-1.43-.4-3-.5-4.12-1.68,3.13-3.2,4.7-7.38,6.85-11.17,7.34-12.91,14.57-25.89,21.68-38.94,1.75-3.22,4.08-6.21,4.75-9.96Z"/>
      <path class="cls-3" d="M187.72,149.2c-.67,3.75-3,6.75-4.75,9.96-7.11,13.05-14.34,26.02-21.68,38.94-2.15,3.79-3.73,7.97-6.85,11.17-7.72-1.58-15-4.56-22.39-7.18-1.04-.37-2.02-1.03-3.08-1.19-3.73-.59-4.91-3.14-5.05-6.43-.34-7.88-.83-15.74.36-23.62.41-2.7,1.45-4.06,3.92-5.09,12.12-5.03,24.49-9.28,37.26-12.3,5.9-1.4,11.83-2.64,17.75-3.94,1.48-.32,2.98-.59,4.51-.32Z"/>
      <path class="cls-3" d="M197.44,218.17c.49-2.52,2.12-4.44,3.34-6.59,8.5-14.99,17.02-29.98,25.45-45.01,3.98-7.09,8.34-13.96,11.73-21.37,7.15-.12,14.25.53,21.35,1.27-3.52-.27-5.19,1.66-6.82,4.65-3.92,7.16-7.82,14.33-11.88,21.4-9.02,15.72-17.63,31.66-26.45,47.49-4.99.29-9.87-.99-14.83-1.09-.64-.01-1.26-.49-1.89-.76Z"/>
      <path class="cls-5" d="M296.72,277.2c1.38-1.59,2.49-1.6,3.95.14,4.49,5.36,4.9,10.97,1.01,16.75-3.02,4.49-7.27,7.53-11.93,10.05-9.98,5.38-20.84,7.97-31.87,9.86-6.36,1.09-12.79,2.13-19.19,1.6-.7-.95-.07-1.76-.13-2.56-.35-4.33-1.85-5.78-6.25-5.82-18.18-.17-35.58-3.88-52.13-11.48-5.95-2.73-11.25-6.46-16.15-10.76-2.74-2.41-2.75-2.75-.81-5.88.58-.93,1.35-1.74,2.03-2.6.58-.11,1.16-.21,1.74-.32,0,0,.21.24.21.24-.55,2.93,1.57,4.6,3.19,6.37,7.15,7.81,16.58,11.93,26.31,15.05,12.53,4.02,25.64,4.78,38.72,5.12,2.74.07,5.42-.85,8.21-.71,3.87.19,7.67-.6,11.44-1.34,5.38-1.06,10.71-2.34,16.07-3.53.04.54.01,1.1.12,1.62.32,1.61.6,3.44,2.64,3.62,2.06.18,4.14-.22,5.44-2.08,1.12-1.61.99-3.34-.23-4.91-.41-.53-.91-1-1.37-1.5.38-.63,1.02-.84,1.65-1.13,5.96-2.69,11.2-6.4,15.44-11.43,1.06-1.26,2.24-2.48,1.89-4.36Z"/>
      <path class="cls-5" d="M214.16,220.02c8.82-15.83,17.43-31.77,26.45-47.49,4.06-7.07,7.96-14.25,11.88-21.4,1.63-2.99,3.3-4.92,6.82-4.65,3.67.41,7.34.81,11.01,1.22.02,1.96-1.46,3.22-2.3,4.75-7.67,13.89-15.44,27.72-23.13,41.59-4.35,7.84-9.19,15.41-13.22,23.43-.5.99-1.19,1.86-1.16,3.04-5.48.77-10.93.46-16.35-.49Z"/>
      <path class="cls-4" d="M279.27,280.73c-3.15,2.58-7,3.69-10.72,5-14.36,5.02-29.18,6.91-44.3,5.72-12.69-.99-24.89-4.29-36.61-9.31-.71-.31-1.61-.5-1.87-1.45,12.33-4.28,25.1-6.38,38.06-7.13,18.9-1.1,37.41,1.29,55.44,7.17Z"/>
      <path class="cls-5" d="M293.88,273.02c-3.06,1.94-5.94,4.18-9.33,5.56-3.46-.49-6.2-2.84-9.54-3.72-4.52-1.18-9.05-2.19-13.66-2.95-9.35-1.54-18.73-2.63-28.21-2.83-3.45-.07-6.86.62-10.26.65-9.69.09-19.04,2.08-28.44,4.11-4.87,1.05-9.33,3.22-14.1,4.52-3.4-1.71-6.72-3.55-9.63-6.02,6.83-3.68,14.07-6.16,21.56-8.14,12.34-3.27,24.93-4.53,37.59-4.97,9.49-.33,18.92.95,28.35,2.25,10.89,1.5,21.28,4.36,31.41,8.44,1.65.67,3.37,1.32,4.25,3.1Z"/>
      <path class="cls-3" d="M125.75,203.06c71.12,27.52,142.24,28,213.49-.11.45,2.98-.68,4.55-3.23,5.59-9.08,3.71-18.33,6.9-27.76,9.57-17.56,4.99-35.46,8.09-53.65,9.6-19.89,1.65-39.68,1.01-59.46-1.67-22.82-3.09-44.82-9.15-66.19-17.65-3.17-1.26-3.15-1.3-3.2-5.33Z"/>
      <path class="cls-3" d="M296.72,277.2c.35,1.88-.83,3.1-1.89,4.36-4.25,5.04-9.48,8.74-15.44,11.43-.64.29-1.27.5-1.65,1.13-2.28.92-5.32.27-6.6,3.25-5.35,1.19-10.69,2.47-16.07,3.53-3.77.74-7.57,1.53-11.44,1.34-2.79-.14-5.47.78-8.21.71-13.08-.35-26.19-1.1-38.72-5.12-9.72-3.12-19.15-7.24-26.31-15.05-1.62-1.76-3.73-3.44-3.19-6.37,1.56.31,2.63,1.48,3.9,2.28,15.21,9.59,31.74,15.24,49.62,17.1,27.26,2.84,52.31-3.29,75.22-18.33.22-.14.52-.17.78-.25Z"/>
      <path class="cls-3" d="M293.88,273.02c-.87-1.78-2.59-2.43-4.25-3.1-10.13-4.08-20.53-6.94-31.41-8.44-9.44-1.3-18.87-2.57-28.35-2.25-12.66.44-25.25,1.7-37.59,4.97-7.5,1.98-14.74,4.46-21.56,8.14-1.15-.57-2.49-.91-2.88-2.39,3.33-3.77,7.99-5.2,12.45-6.75,12.17-4.22,24.77-6.36,37.58-7.53,15.07-1.38,30.04-.51,44.93,1.74,8.85,1.34,17.49,3.74,25.89,6.94,3.51,1.33,6.38,3.84,9.89,5.12-1.43,1.37-2.91,2.66-4.7,3.55Z"/>
      <path class="cls-5" d="M161.09,286.64c4.18,3.01,7.77,6,11.86,8.34,14.52,8.31,30.16,12.76,46.76,14.06,3.44.27,6.88.57,10.33.68,5.4.18,5.47.18,6.23,5.9-5.38.6-10.77.27-16.12-.1-12.16-.82-24.06-3.09-35.52-7.38-5.06-1.89-9.93-4.15-14.35-7.3-2.27-1.62-4.34-3.44-6.08-5.61-2.07-2.58-2.76-4.46-3.1-8.59Z"/>
      <path class="cls-5" d="M260.64,143.57c-8.88-.62-17.76-1.23-26.65-1.85.02-1.37.05-2.74.07-4.1,8.43-.53,16.81.3,25.19,1.05,17.91,1.6,35.38,5.47,52.57,10.63,8.04,2.41,15.95,5.25,23.7,8.52,2.48,1.05,3.63,2.64,3.62,5.87-24.02-10.52-48.96-16.35-74.56-19.51-1.19-1.05-2.59-.65-3.95-.6Z"/>
      <path class="cls-3" d="M180.35,278.37c4.76-1.3,9.23-3.47,14.1-4.52,9.39-2.03,18.75-4.02,28.44-4.11,3.41-.03,6.81-.72,10.26-.65,9.48.2,18.86,1.29,28.21,2.83,4.61.76,9.14,1.76,13.66,2.95,3.34.87,6.08,3.23,9.54,3.72-1.67.94-3.1,2.46-5.27,2.15-18.03-5.88-36.54-8.26-55.44-7.17-12.96.75-25.73,2.85-38.06,7.13-2.24.25-3.83-1.06-5.43-2.32Z"/>
      <path class="cls-4" d="M234.06,137.62c-.02,1.37-.05,2.74-.07,4.1-8.66.6-17.33.71-25.98,1.53-17.84,1.69-35.38,4.94-52.64,9.76-.79.22-1.6.37-2.41.55-1.78-.6-3.56-1.21-5.06-2.41,12.95-4.36,26.13-7.8,39.62-9.96,14.72-2.35,29.54-3.88,44.49-3.73.69,0,1.37.09,2.06.14Z"/>
      <path class="cls-5" d="M108.47,182.47c-.12-5.24,1.17-10.12,3.76-14.65,1.92-3.35,4.67-5.69,8.9-7.16-1.56,8.36-2.58,16.34-2.58,24.42-3.79.79-6.8-1.41-10.08-2.61Z"/>
      <path class="cls-5" d="M346.72,186.11c-.02-8.4-.92-16.72-2.64-25.11,8.01,1.6,12.61,12.21,12.5,21.58-3.35.99-6.09,3.72-9.86,3.53Z"/>
      <path class="cls-3" d="M108.47,182.47c3.27,1.2,6.29,3.4,10.08,2.61.23,6.59,1.41,13.09,2.12,19.68-6.95-.47-13.33-11.7-12.2-22.29Z"/>
      <path class="cls-3" d="M346.72,186.11c3.77.19,6.51-2.53,9.86-3.53.58,5.68-.91,10.91-3.52,15.85-1.8,3.42-4.81,5.49-8.83,7.35,1.52-6.87,1.53-13.32,2.49-19.67Z"/>
      <path class="cls-5" d="M297.84,92.28c4.8-2.84,10-2.04,15.13,2.02,5.13,4.06,6.82,9.12,4.74,15.4-5.99-6.57-12.42-12.28-19.88-17.42Z"/>
      <path class="cls-3" d="M337.56,51.96c3.76-1.63,7.46-.55,9.59,2.82,2.21,3.5,1.61,7.81-1.47,10.55-2.78,2.47-6.96,2.57-9.89.24-3.23-2.57-4.15-6.58-2.25-10.01.46-.83.89-1.75,1.96-2-.03.55-.16,1.11-.08,1.65.36,2.5,1.53,3.57,3.71,3.48,2.02-.09,3.49-1.48,3.5-3.32.02-1.91-1.28-3.04-3.84-3.36-.4-.05-.82-.03-1.23-.04Z"/>
      <path class="cls-5" d="M317.5,92.4c-1.48-.34-2.33-1.53-3.44-2.31-3.09-2.18-3.14-2.26-1.23-5.29,4.06-6.48,9-12.21,15.03-16.92,1.01-.79,2.36-2.72,3.76-.91,1.23,1.58-.9,2.3-1.72,3.18-5.14,5.58-8.24,12.35-11.2,19.19-.43,1-.8,2.03-1.2,3.06Z"/>
      <path class="cls-5" d="M147.9,151.16c1.5,1.2,3.28,1.81,5.06,2.41-7.44,2.72-14.88,5.47-22.34,8.14-1.5.54-2.87,1.52-4.78,1.65.04-2.95,1.2-4.65,3.9-5.64,6.04-2.23,11.97-4.77,18.17-6.56Z"/>
      <path class="cls-4" d="M337.56,51.96c.41.01.82,0,1.23.04,2.57.32,3.86,1.45,3.84,3.36-.02,1.84-1.48,3.23-3.5,3.32-2.18.09-3.35-.97-3.71-3.48-.08-.53.05-1.1.08-1.65.69-.53,1.37-1.07,2.06-1.6Z"/>
      <path class="cls-6" d="M260.64,143.57c1.35-.04,2.76-.45,3.95.6-1.36.1-2.7.06-3.95-.6Z"/>
      <path class="cls-3" d="M166.99,276.17c-.58.11-1.16.21-1.74.32.45-.85,1-1.08,1.74-.32Z"/>
      <path class="cls-2" d="M178.39,125.15c-.55,0-1.11.03-1.66,0-2.88-.19-5.87-.89-6.91-3.71-1.09-2.96-1.23-6.45,1.18-9.04,4.98-5.36,9.82-11.03,16.98-13.6,4.35-1.57,8.74-3.6,13.58-2.39,7.33,1.83,8.7,6.7,4.76,12.49-5.97,8.77-14.65,13.98-25.03,16.17-.93.2-1.93.03-2.89.03,0,.02,0,.04,0,.06Z"/>
      <path class="cls-2" d="M222.53,100.16c-2.13.22-4.07-.3-5.63-1.85-1.37-1.37-1.41-2.95-.17-4.39,2.61-3.06,8.59-3.48,11.52-.81,2.02,1.84,2.06,2.88.22,4.78-1.62,1.68-3.56,2.5-5.93,2.27Z"/>
      <path class="cls-2" d="M156.09,132.66c.06-3.1,1.94-5.64,4.6-6.42,2.05-.6,4.37.54,4.36,2.52-.02,2.61-.63,5.26-2.87,7-1.21.94-2.71,1.51-4.25.6-1.46-.86-2.02-2.21-1.84-3.69Z"/>
      <path class="cls-1" d="M271.14,297.36c1.28-2.97,4.32-2.33,6.6-3.25.46.5.95.96,1.36,1.5,1.22,1.57,1.35,3.3.23,4.91-1.29,1.86-3.38,2.26-5.44,2.08-2.04-.18-2.31-2.01-2.64-3.62-.11-.53-.08-1.08-.12-1.62ZM275.31,295.39c-1.67-.13-2.99.81-2.97,2.31.02,1.39,1,1.77,2.17,1.85,1.82.13,3.47-.83,3.4-2.06-.09-1.48-1.09-2.05-2.6-2.1Z"/>
      <path class="cls-6" d="M275.31,295.39c1.51.05,2.51.62,2.6,2.1.07,1.23-1.58,2.19-3.4,2.06-1.17-.08-2.15-.46-2.17-1.85-.02-1.49,1.3-2.44,2.97-2.31Z"/>
    </g>
  </g>
</svg>