<?xml version="1.0" encoding="UTF-8"?>
<svg id="Sprite_Alien" xmlns="http://www.w3.org/2000/svg" viewBox="0 0 471.47 423.94">
  <defs>
    <style>
      .cls-1 {
        fill: #6a924a;
      }

      .cls-1, .cls-2, .cls-3, .cls-4, .cls-5, .cls-6 {
        stroke-width: 0px;
      }

      .cls-2 {
        fill: #1d211c;
      }

      .cls-3 {
        fill: #405c3f;
      }

      .cls-4 {
        fill: #6a9150;
      }

      .cls-5 {
        fill: #709756;
      }

      .cls-6 {
        fill: #5a8049;
      }
    </style>
  </defs>
  <g id="Add-ons">
    <g id="A3">
      <g>
        <path class="cls-2" d="M186.41,93.13c-2.31,1.35-5.51-.08-5.92-3.4-.18-1.41.06-2.78.65-4.09.5-1.09,1.04-2.15,1.69-3.16.93-1.46,1.6-3.02,2-4.71,1.7-7.12,5.73-12.63,11.63-16.84,3.63-2.59,7.42-4.96,10.92-7.73,1.57-1.24,3.05-2.57,4.28-4.16,2.31-2.98,3.6-6.3,3.24-10.12-.19-1.99-.77-3.87-2.07-5.56-.25.51-.11.95-.2,1.37-.2,1-.95,1.73-1.85,1.76-.94.03-1.93-.81-2.08-1.82-.09-.64-.07-1.28.09-1.91.16-.63.18-1.26.2-1.9.04-1.02-.41-1.75-1.26-2.28-.8-.49-.8-.52-1.61.08-.64.48-1.35.58-2.1.42-.8-.17-.99-.07-1.01.69,0,.32.07.63.1.95.05.52.13,1.03.12,1.55-.02,1.22-.69,1.91-1.8,1.93-1.29.01-1.98-.67-2.04-1.97-.03-.65.24-1.25.27-1.89.03-.77-.15-1.01-.89-1.14-1.49-.26-2.88.48-3.62,1.87-.18.34,0,.51.18.73,1.06,1.34.92,2.82.48,4.33-.15.51-.48.93-.9,1.24-.36.26-.32.48-.05.78.4.45.79.9,1.29,1.24.08-.02.16-.02.22-.07,1.76-1.49,3.03-1.61,4.94-.36.41.27.63.19.91-.09.51-.5,1.03-.99,1.55-1.48.41-.38.85-.72,1.42-.84,1.85-.4,3.23.67,3.24,2.65.02,2.52-.94,4.66-2.76,6.41-.81.78-1.73,1.41-2.7,1.96-.74.42-.96,1.01-.83,1.8.11.63.28,1.25.32,1.89.06,1.14-.68,2.18-1.67,2.52-1.04.36-2.28.02-2.95-.76-.39-.46-.52-.97-.46-1.56.05-.48.13-.95.14-1.43.02-.78-.29-1.1-1.05-1.12-.93-.03-1.65.56-1.85,1.53-.17.84-.08,1.67.13,2.49.22.85.48,1.69.69,2.54.32,1.31.36,2.6-.31,3.84-1.1,2.01-3.95,2.18-5.28.3-.82-1.16-.91-2.45-.62-3.78.21-.97.44-1.95.72-2.9.76-2.57.03-4.81-1.51-6.85-.62-.83-1.36-1.57-1.99-2.39-2.67-3.44-3.57-7.38-2.94-11.63,1.16-7.86,5.77-12.92,13.07-15.67,3.65-1.37,7.42-1.75,11.27-1.38,2.02.19,3.98.71,5.84,1.56.43.2.8.36,1.33.07.83-.46,1.78-.36,2.67-.08,1.17.37,2.13,1.06,2.92,1.99.34.4.65.86.63,1.39-.02.74.4,1.15.88,1.6.67.62,1.3,1.29,1.93,1.96.29.3.55.48,1.02.46,1.01-.04,1.86.41,2.53,1.16,1.36,1.52,2.28,3.19,1.49,5.32-.15.41-.03.77.13,1.15.27.66.54,1.33.74,2.02.26.92.43,1.86,1.52,2.23.27.09.47.42.66.68,1.02,1.42,1.44,5.04-.4,6.69-.36.32-.5.68-.5,1.15.02,1.04-.19,2.07-.4,3.08-.09.44-.04.75.26,1.09.48.52.67,1.19.64,1.88-.11,2.4-.81,4.49-3.2,5.57-.52.23-.78.59-.96,1.12-.66,2.02-.86,4.03-.25,6.12.34,1.18.78,2.35.87,3.6.06.81-.01,1.6-.37,2.34-.62,1.28-2.15,2.01-3.5,1.68-1.25-.31-2.02-1.4-2.02-2.9,0-.93.19-1.82.42-2.71.12-.47.2-.94.16-1.42-.03-.33-.13-.65-.45-.79-.34-.14-.64.04-.86.28-1.15,1.26-1.91,2.65-1.49,4.45.2.85.43,1.7.37,2.6-.12,1.75-1.49,3.08-3.09,3-1.53-.07-2.5-1.19-2.33-2.72.06-.53.26-1.06.05-1.71-1.62,1.59-2.62,3.45-3.3,5.52-.09.27,0,.4.18.6,2.16,2.31,2.45,5.55.72,8.21-.22.33-.32.6-.12.97.21.38.35.8.54,1.19.39.78.73,1.58,1.92,1.11.57-.22,1.16.2,1.68.49,2.56,1.42,3.81,4.46,2.97,7.27-.09.31-.2.59-.12.92,1.08,4.36-.73,7.64-3.99,10.28-2.48,2.01-5.42,3.02-8.57,3.27-3.45.28-6.82-.22-10.07-1.47-2.63-1.01-4.58-2.83-6.13-5.14-1.67-2.5-3.02-5.16-4.02-8-.1-.3-.22-.6-.35-.97ZM203.68,98.42c.01.18.08.31.25.38.61,1.37,1.67,2.41,2.59,3.55,1.1,1.36,1.97,2.79,1.54,4.63.4.16.71.07,1.02,0,1.88-.44,3.6-1.24,5.19-2.34,1.44-.99,2.57-2.26,3.35-3.83.78-1.59,1.04-3.26.66-5.01-.3-1.37-1.03-2.49-1.93-3.53-1.54-1.78-2.98-3.65-4.2-5.67-1.83-3.06-2.77-6.35-2.3-9.95.1-.78.19-1.55.28-2.37-.43.11-.52.45-.72.68-.52.62-1.1,1.16-1.85,1.48-1.66.71-3.26-.16-3.49-1.89-.04-.28.11-.34.34-.35.12.21.22.43.36.61.85,1.13,1.7,1.29,2.88.53,1.16-.76,1.84-1.86,2.09-3.21.32-1.71-.41-2.66-2.14-2.83-.16-.02-.31-.05-.47-.08.94-.77,1.85-.79,2.64-.05.54.51.86,1.15.88,1.91.02.49,0,.99,0,1.69.63-1.12,1.12-2.06,1.67-2.97.54-.9,1.17-1.73,2.08-2.27.9-.54,1.89-.08,2.09.95.06.31.03.64-.02.95-.06.39-.19.78-.26,1.17-.11.59.02,1.13.53,1.49.49.34.99.19,1.46-.09.13-.08.22-.22.33-.33.96-.85.84-1.92.55-2.98-.36-1.35-.43-2.66.1-3.98.07-.18.06-.39.08-.59l-.02.03c.36-.12.48-.45.63-.75.28-.28.58-.55.85-.83.54-.57,1.22-.81,1.95-.55.75.27,1.01.96,1.09,1.71.09.85-.05,1.67-.29,2.47-.17.58-.29,1.16-.26,1.76.08,1.76.99,2.34,2.71,1.73,1.14-.62,1.41-1.66,1.29-2.83-.1-.95-.39-1.86-.71-2.76-.54-1.49-.69-3.03-.52-4.59.17-1.58.5-3.13,1.07-4.63.49-1.3,1.03-2.58,1.32-3.94h-.03c.26-.08.2-.31.21-.5.87-2.03,1.1-4.17,1.21-6.34.03-.64-.14-1.16-.58-1.6.09-.11.18-.22.27-.33.96.39,1.62.11,1.99-.93.48-1.36.31-2.68-.47-3.89-.65-.99-1.15-1.05-2.14-.36.4-1.04.09-2.02-.25-3-.2-.57-.38-1.13-.57-1.7-.24-.73-.48-1.44-1.41-1.56-.15-.02-.36-.15-.31-.47.19.02.38.04.57.06.81.08,1.11-.15,1.2-.92.17-1.46-1.41-3.73-2.83-4.07-.78-.19-1.04-.02-1.21.82-.04.18.02.41-.28.47-.3-.15-.26-.47-.21-.71.14-.69-.2-1.14-.65-1.57-.63-.61-1.24-1.25-1.86-1.86-.43-.43-.89-.77-1.58-.63-.41.08-.83-.02-1.08-.44.3-.33.57-.09.83-.08.62.02.78-.16.78-.77,0-.29-.05-.56-.21-.8-.8-1.16-1.79-1.98-3.31-1.99-.55,0-1.13.1-1.39.43-.36.46.37.77.52,1.2-.6-.03-.92-.09-.98-.41-.15-.8-.8-.93-1.37-1.15-4.4-1.73-8.89-1.98-13.48-.9-2.42.57-4.72,1.4-6.79,2.81-3.47,2.08-5.84,5.08-7.19,8.88-1,2.82-1.41,5.7-.61,8.66.44,2.54,1.55,4.71,3.44,6.47.44.66.91,1.31,1.31,1.99,1.45,2.5,1.81,5.15.99,7.95-.26.88-.54,1.75-.72,2.65-.14.69-.22,1.42.33,2.02h-.02c-.02.22.07.4.27.51.19.37.47.64.9.7.53.29,1.06.33,1.59,0,.07,0,.12-.02.16-.07,1.28-.77,1.33-2,1.1-3.26-.19-1.06-.53-2.08-.77-3.13-.25-1.09-.48-2.18-.14-3.31.38-1.28,1.37-2.16,2.67-2.17,1.38,0,2.21.38,2.35,2.08.04.43-.05.87-.09,1.31-.1,1.08.27,1.56,1.25,1.6,1.08.05,1.55-.4,1.56-1.47,0-.48-.12-.95-.22-1.42-.35-1.7.08-2.73,1.51-3.68.4-.26.81-.52,1.19-.8,1.78-1.28,2.75-3.07,3.18-5.17.13-.66.23-1.4-.51-2.12-.66,1.58-1.58,2.81-2.59,3.98-.84.61-1.66,1.22-2.68,1.53-5.39,1.66-10.8-1.95-11.14-7.83-.21-3.62,1.27-6.62,3.85-9.06,2.59-2.45,5.74-3.65,9.28-3.81,1.11.06,2.22.17,3.3.43,6.43,1.59,10.72,5.6,13.2,11.69,1.21,2.97,1.74,6.06,1.33,9.25-.57,4.49-2.5,8.35-5.61,11.63-.17.17-.34.34-.34.61h.05c-.18.01-.27.13-.34.26-.59.5-1.14,1.04-1.58,1.68-.22.11-.37.27-.48.48h0c-2.07,1.98-4.18,3.92-6.2,5.95-1.8,1.81-3.37,3.83-4.62,6.08-1.73,3.1-2.86,6.38-3.09,9.97-.36,5.55,1.04,10.67,3.52,15.56.3.59.52,1.26,1.07,1.7l.02.07c.01.15.07.26.22.29l-.02-.02ZM193.65,28.33c-.14.03-.22.13-.25.27h0c-1.78,2.03-2.62,4.39-2.47,7.12.19,3.33,2.23,6.13,5.34,7.03,3.26.93,6.11.09,8.22-2.74.46-.62.93-1.23,1.14-2.14-.87.39-1.44.92-1.96,1.48-1.05,1.14-2.25,2.02-3.81,2.28-.32.01-.64.03-.95.03-2.33-.02-4.15-1-5.3-3.04-1.69-2.98-1.22-5.87.66-8.55,2.4-3.45,6.64-4.92,10.75-3.97,2.05.48,3.84,1.26,4.85,3.26.2.91.17,1.82.03,2.74-.06.39-.16.78-.21,1.18-.05.48-.09.96.1,1.42.21.5.6.72,1.14.65.51-.07.63-.42.66-.85.03-.36.01-.72.07-1.07.13-.78.3-1.56,1.16-1.91.56.08.86.5,1.15.92.33.48.65.97.97,1.45.07.19.12.38.21.55,1.34,2.63,1.52,5.4,1.04,8.27-.59,3.52-2.41,6.36-4.83,8.89-1.07,1.12-2.29,2.08-3.42,3.15-.11.03-.25.03-.34.09-2.33,1.86-4.84,3.48-7.3,5.15-1.67,1.14-3.37,2.24-4.86,3.63-2.03,1.53-3.75,3.35-5.15,5.47-.13.15-.27.29-.38.45-1.8,2.59-2.91,5.48-3.67,8.52-.42,1.68-1.02,3.27-1.92,4.75-.43.71-.8,1.46-1.19,2.2-.9,1.37-1.3,2.88-1.2,4.51.08,1.23.84,2.25,1.93,2.61,1.02.33,1.92-.02,2.77-1.09.1-.12.23-.21.34-.31.25.67.51,1.34.75,2.02,1,2.74,2.18,5.41,3.76,7.87,1.28,1.99,2.73,3.85,4.96,4.88,3.06,1.41,6.29,1.93,9.63,1.84.84-.02,1.13-.32,1.21-1.15.04-.48-.03-.95-.24-1.4-.33-.69-.7-1.36-1.2-1.93-1.62-1.83-3.02-3.81-4.23-5.93-.21-.47-.4-.95-.63-1.42-2.24-4.61-3.25-9.47-3.03-14.6.06-1.48.3-2.94.67-4.35,1.11-4.19,3.26-7.85,6.08-11.12.2-.23.5-.42.44-.8.36,0,.55-.27.78-.49,1.33-1.26,2.66-2.52,3.98-3.79,2.57-2.45,5.14-4.9,7.13-7.87,2.59-3.87,3.98-8.07,3.16-12.79-1.23-7.02-4.84-12.24-11.55-14.96-3.89-1.58-7.78-1.34-11.53.56-1.28.65-2.44,1.48-3.25,2.72-.13.07-.22.18-.25.34l.02-.03ZM205.9,27.66c-2.61-.68-5.12-1.01-7.61.6.21.07.28.11.36.12,1.53.21,1.99.83,1.75,2.33-.09.55-.32,1.07-.26,1.65.08.75.41,1.06,1.16,1.08.85.02,1.18-.32,1.24-1.23.04-.69-.19-1.34-.24-2.02-.1-1.5.72-2.5,2.11-1.92.55.23,1.09.07,1.49-.61ZM218.31,93.28c.33-.33.35-.53.33-.73-.21-1.9-1.14-3.37-2.69-4.45-.43-.3-.92-.37-1.56-.06,1.39,1.71,2.78,3.34,3.92,5.23ZM211.33,76.43c-.45,1.57-.22,4.2.48,5.53,1.02-1.71.78-4.5-.48-5.53ZM228.35,54.44c1.66-1.23,2.39-3.28,1.73-4.77-.58,1.59-1.14,3.14-1.73,4.77ZM194.29,32.66c-.59,1.61-.64,2.33-.29,3.65,1.03-.93,1.15-2.2.29-3.65ZM197.44,40.23c1.44.37,2.18.32,3.15-.17-1.11-.92-2.04-.9-3.15.17Z"/>
        <path class="cls-2" d="M222.68,86.21c-.97.05-1.79-.36-2.49-1.07-1.5-1.53-1.74-4.08-.54-5.82.93-1.35,2.08-1.75,3.61-1.26,1.92.62,3.45,3.29,3.04,5.28-.37,1.78-1.73,2.88-3.61,2.88ZM221.37,84.79h-.03c1.81,1.07,3.72.21,4.02-1.8.2-1.31-.68-3.14-1.82-3.8-1.19-.69-2.34-.39-3.1.76-.44.67-.58,1.37-.46,2.15-.08,1.07.34,1.92,1.16,2.59.07.03.15.06.22.1Z"/>
        <path class="cls-1" d="M218.55,71.66c-.11.11-.2.25-.33.33-.47.28-.97.43-1.46.09-.51-.36-.64-.89-.53-1.49.07-.39.2-.77.26-1.17.05-.31.08-.65.02-.95-.2-1.04-1.19-1.5-2.09-.95-.91.54-1.55,1.38-2.08,2.27-.55.91-1.04,1.85-1.67,2.97,0-.71.01-1.2,0-1.69-.02-.76-.34-1.4-.88-1.91-.79-.75-1.7-.72-2.64.05-.06.1-.1.24-.18.3-1.71,1.09-2.27,2.81-2.53,4.69-.22,0-.38.07-.34.35.24,1.73,1.83,2.6,3.49,1.89.75-.32,1.33-.86,1.85-1.48.2-.23.29-.57.72-.68-.1.82-.18,1.6-.28,2.37-.46,3.6.47,6.89,2.3,9.95,1.21,2.02,2.65,3.89,4.2,5.67.9,1.04,1.63,2.17,1.93,3.53.38,1.75.13,3.41-.66,5.01-.78,1.58-1.91,2.84-3.35,3.83-1.59,1.1-3.31,1.9-5.19,2.34-.31.07-.62.16-1.02,0,.43-1.84-.44-3.27-1.54-4.63-.92-1.14-1.98-2.18-2.59-3.55-.03-.16-.09-.3-.25-.38,0,0,.02.02.02.02-.07-.1-.15-.19-.22-.29,0,0-.02-.07-.02-.07.07-.58-.18-1.09-.37-1.61-1.07-2.96-1.98-5.94-2.32-9.09-.29-2.67-.24-5.33.15-7.96.47-3.13,1.52-6.09,3.14-8.82.71-1.19,1.3-2.5,2.3-3.47,1.89-1.83,3.36-4.02,5.12-5.97.57-.63,1.21-1.37,1.31-2.34,0,0,0,0,0,0,.32,0,.48-.17.48-.48.44-.64.99-1.18,1.58-1.68.15-.03.28-.09.34-.25,0,0-.05-.01-.05-.01.4.08.76-.01,1.15-.13,1.66-.49,3.2-1.25,4.74-2.02,1.13,1.01,1.84,1.16,2.85.56.52-.3.94-.71,1.28-1.21.66-.95.89-2.01.87-3.15.49-.04.62-.44.8-.79.61-1.18,1.01-2.42,1.29-3.71.25-1.17.55-2.32.98-3.43,0,0,.1-.03.1-.03.44.44.61.96.58,1.6-.11,2.17-.34,4.32-1.21,6.34-.19.12-.23.3-.21.51,0,0,.03-.01.03-.01-.13.08-.32.13-.39.24-1.11,1.9-2,3.92-2.47,6.07-.24,1.07-.46,2.2-.28,3.32.29,1.8.35,3.64.86,5.41.14.46.18.96-.55,1.06-.36.05-.51.38-.49.72.02.27.25.41.5.43.58.05.63.34.45.82-.08.22-.06.47-.09.7-1.72.61-2.63.03-2.71-1.73-.03-.6.08-1.18.26-1.76.24-.8.38-1.63.29-2.47-.08-.75-.34-1.44-1.09-1.71-.73-.26-1.4-.02-1.95.55-.27.29-.57.56-.85.83-.53-.02-.72.25-.63.75,0,0,.02-.03.02-.03-1.29.81-1.31,2.1-1.2,3.38.05.56.23,1.06-.18,1.57-.18.22-.17.62.07.77.75.46.51,1.18.58,1.82ZM216.95,58.77c-2,.27-3.54,1.72-4.01,3.76-.13-.15-.25-.41-.38-.41-.36,0-.24.33-.24.53,0,1.51,1.32,2.49,2.89,2.09,1.54-.39,2.69-1.32,3.42-2.74.33-.65.45-1.36.34-2.09-.16-1.05-1.2-1.84-2.1-1.62-.11.03-.36.04-.2.27.06.09.18.14.28.21ZM204.19,89.79l-.02-.02c.07.92.77,1.24,1.49,1.44,1.53.43,3.02-.51,3.51-2.25.59-2.05.21-3.95-1.09-5.64-.44-.57-.98-1.04-1.68-1.3-1.28-.48-2.7,0-3.29,1.16-.15.28-.31.59.1.8-.47,1.63-.25,3.19.42,4.72.13.29.22.59.32.88.04.11.06.24.23.2ZM211.61,101.81c-.03.29.14.44.39.53,2.21.77,3.95-.49,4.12-2.42.22-2.49-1.93-5.56-4.35-6.23-1.88-.52-3.68.59-3.91,2.44-.05.4-.19.89.39,1.09.38.8.48,1.7,1.06,2.44.67.84,1.38,1.61,2.3,2.16Z"/>
        <path class="cls-4" d="M186.97,90.71c-.12.1-.25.19-.34.31-.85,1.07-1.75,1.42-2.77,1.09-1.1-.36-1.86-1.38-1.93-2.61-.1-1.64.31-3.14,1.2-4.51.45.01.61-.37.77-.66.61-1.12,1.51-2.05,2.05-3.21.34-.72.76-1.41.97-2.17.85-3.07,1.76-6.11,3.22-8.95.15-.3.2-.6.16-.92,1.4-2.12,3.13-3.94,5.15-5.47.96-.04,1.85-.28,2.71-.73.64-.34,1.96.06,2.08.74.12.68.52.72.98.73.95.03,1.9,0,2.85.01.38,0,.81-.13,1.09.28.05.38-.24.57-.44.8-2.83,3.27-4.97,6.92-6.08,11.12-.37,1.41-.61,2.87-.67,4.35-.22,5.13.8,9.99,3.03,14.6.23.46.42.95.63,1.42-1.05.74-2.2,1.21-3.5,1.28-1.9.11-3.45-.74-4.91-1.8-2.13-1.53-3.77-3.5-5.01-5.81-.15-.28-.3-.67-.62-.65-.38.01-.58.36-.61.76ZM193.83,78.33c.09-.29.08-.57-.02-.86-.05-1.19.74-2,1.4-2.95-1.32.36-2.15,1.45-2.25,2.91-.04.59,0,1.19,0,1.78-.51-.5-.2-1.13-.26-1.7-.04-.43-.16-.68-.63-.68-.19,0-.41,0-.49-.31.11-.36.59-.47.72-.87.09-.28.19-.55-.17-.7-1.23-.51-1.99-.32-2.79.67.42,1.28.25,2.51-.3,3.72-.3.66-.48,1.35-.62,2.06-.47.41-.26.97-.27,1.46-.01,2.27,2.32,3.79,4.42,2.89,1.46-.62,2.15-2.53,1.57-4.35l-.33-3.06ZM190.06,72.34c.02.73.12,1.3.64,1.51.62.25.92-.34,1.19-.75.49-.72.92-1.48,1.39-2.22,1.2-1.89,2.68-3.53,4.47-4.87.39-.29.74-.6,1.02-.99.19-.28.21-.6-.02-.89-.18-.22-.41-.18-.65-.1-.64.21-1.3.37-1.87.75-2.54,1.68-4.46,3.91-5.84,6.62-.18.36-.36.72-.33.94ZM197.23,93.8c0-.7-.41-1.96-.81-2.51-.56-.77-1.37-.69-1.76.19-.5,1.15-.28,2.29.24,3.34.45.91,1.61.85,2.11-.03.18-.32.25-.67.22-1ZM191.25,90.26c.02.47-.03.87.15,1.25.28.61.79.84,1.48.65.53-.15.85-.59.76-1.19-.1-.63-.28-1.25-.69-1.76-.24-.3-.56-.45-.95-.34-.37.11-.62.37-.7.74-.05.23-.03.48-.04.64ZM183.89,86.72c-.07.04-.19.08-.27.16-.53.52-.64,2.15-.17,2.7.21.25.48.42.84.3.38-.12.7-.42.64-.77-.13-.74-.39-1.45-.62-2.17-.05-.16-.2-.23-.42-.22Z"/>
        <path class="cls-5" d="M221,54.25c-1.54.76-3.08,1.53-4.74,2.02-.38.11-.75.21-1.15.13,0-.26.17-.43.34-.61,3.11-3.27,5.04-7.14,5.61-11.63.4-3.19-.12-6.27-1.33-9.25-2.48-6.08-6.77-10.1-13.2-11.69-1.08-.27-2.19-.37-3.3-.43.08-.19.13-.37-.12-.48-.33-.15-.62-.34-.9-.58-1.46-1.21-3.14-1.8-5.04-1.77-1.07.02-2.14.01-3.21,0-.34,0-.72.1-1.01-.22,2.07-1.42,4.37-2.24,6.79-2.81,4.59-1.08,9.08-.83,13.48.9.56.22,1.21.36,1.37,1.15.06.31.38.37.98.41-.15-.43-.88-.73-.52-1.2.26-.33.84-.44,1.39-.43,1.52.01,2.51.83,3.31,1.99.16.24.21.51.21.8,0,.61-.16.79-.78.77-.26,0-.52-.25-.83.08.25.42.67.52,1.08.44.69-.13,1.14.2,1.58.63.63.61,1.23,1.25,1.86,1.86.45.43.79.88.65,1.57-.05.24-.09.55.21.71.3-.06.24-.29.28-.47.17-.83.43-1.01,1.21-.82,1.42.34,3,2.61,2.83,4.07-.09.76-.39.99-1.2.92-.19-.02-.38-.04-.57-.06-.04.32.17.45.31.47.93.12,1.17.83,1.41,1.56.18.57.37,1.14.57,1.7.34.98.65,1.96.25,3-.7,1.54-.73,3.08.03,4.61,0,.11.02.22.17.2h0c-.09.25,0,.49.04.72-.44,1.11-.74,2.26-.98,3.43-.28,1.29-.68,2.54-1.29,3.71-.18.35-.32.75-.8.79-.11-.47-.25-.92-.53-1.32-.7-.99-1.58-1.12-2.64-.4-1.73.83-2.64,3.35-1.92,5.29.03.07.06.15.08.22ZM202.64,20.64c.17.16.31.36.51.48,1.63.95,3.15.6,4.61-.41,1.02-1.19.91-2.12-.36-2.94-1.26-.81-2.61-.89-3.98-.37-1.38.52-1.96,2.17-.78,3.24ZM221.88,33.16c1.46.47,2.73-.51,2.54-2.07-.19-1.56-.91-2.87-2.32-3.68-1.46-.84-2.69-.26-3.08,1.44-.09,2.31.78,3.62,2.86,4.31ZM223.11,38.03c-1.23,2.01-.91,3.78.93,5.22,1.34.91,2.62.58,3.15-.89.58-1.59.43-3.13-.56-4.55-.84-1.21-2.71-1.61-3.51.23ZM216.59,25.03c1.08-.93,1.31-1.91.58-2.89-.9-1.2-2.08-1.95-3.65-1.94-1.63.01-2.35.99-1.91,2.59.89,1.98,2.99,2.93,4.97,2.24ZM216.14,18.28c.29.34.56.72.89,1.03.43.42.95.7,1.59.64.15-.01.32-.03.36-.23.03-.2-.11-.29-.26-.31-.83-.09-1.48-.45-1.92-1.19-.13-.21-.4-.2-.65.06ZM225.72,26.1c-.41.67-.19,1.27.15,1.84.31.5.65,1.03,1.65.78-1.14-.62-1.59-1.53-1.81-2.62Z"/>
        <path class="cls-1" d="M205.15,64.64c-.28-.41-.71-.28-1.09-.28-.95-.02-1.9.01-2.85-.01-.47-.01-.86-.05-.98-.73-.12-.67-1.44-1.08-2.08-.74-.85.45-1.75.7-2.71.73,1.49-1.39,3.19-2.49,4.86-3.63,2.46-1.68,4.97-3.29,7.3-5.15.08-.07.22-.06.34-.09.54.1,1.01-.06,1.47-.34,1.72-1.02,3.29-2.21,4.67-3.67,2.41-2.55,3.5-5.61,3.73-9.06.13-1.9-.22-3.74-.78-5.52-.34-1.07-.57-2.27-1.6-2.99-.55-1-1.26-1.83-2.42-2.14-.04-.93-.61-1.41-1.43-1.66-.33-.28-.22-.97-.86-.95-.57.01-.48.62-.77.89-.03.03-.06.05-.09.07-1.01-2-2.79-2.79-4.85-3.26-4.12-.95-8.35.52-10.75,3.97-1.87,2.68-2.34,5.57-.66,8.55,1.16,2.04,2.97,3.02,5.3,3.04.32,0,.64-.02.95-.03-1.12.4-2.27.3-3.38.02-2.91-.75-4.88-3.46-4.99-6.77-.06-1.76.54-3.36,1.37-4.87.25-.45.58-.86.53-1.42,0,0,0,.01,0,.01.08-.09.17-.18.25-.27,0,0-.02.03-.02.03.14-.07.21-.19.25-.34.81-1.24,1.97-2.07,3.25-2.72,3.75-1.9,7.64-2.14,11.53-.56,6.71,2.73,10.33,7.95,11.55,14.96.82,4.72-.57,8.92-3.16,12.79-1.99,2.97-4.56,5.42-7.13,7.87-1.33,1.27-2.66,2.53-3.98,3.79-.23.22-.42.49-.78.49ZM203.39,61.03c-.03-.32-.24-.46-.55-.51-.64-.1-1.45.47-1.81,1.28-.23.52-.03.76.54.87.69.13,1.76-1.1,1.82-1.65Z"/>
        <path class="cls-1" d="M192.96,19.76c.28.32.66.21,1.01.22,1.07.01,2.14.01,3.21,0,1.9-.03,3.58.56,5.04,1.77.28.23.57.43.9.58.26.12.21.29.12.48-3.55.16-6.69,1.36-9.28,3.81-2.58,2.44-4.06,5.44-3.85,9.06.34,5.88,5.75,9.49,11.14,7.83,1.01-.31,1.84-.92,2.68-1.53.18.78-.48,1.12-.86,1.59-1.08,1.35-2.45,2.24-4.21,2.3-1.18.04-2.36.06-3.52.26,0-.16,0-.32,0-.48-.07-.79-.64-1.27-1.42-1.19-.61.06-.9.57-.61,1.11.18.33.46.55.86.56.4,0,.79,0,1.19,0-1.33.51-2.26.36-2.79-.63-.46-.88-1.14-1.53-1.82-2.19-1.14-1.11-2.24-2.25-3-3.69-.35-.66-.76-1.31-1.3-1.85-.36-.36-.73-.62-1.26-.46-.8-2.96-.39-5.84.61-8.66,1.35-3.8,3.72-6.8,7.19-8.88ZM189.16,26.2c.26,0,.46-.13.62-.31,1.21-1.33,2.67-2.34,4.17-3.32.49-.32.53-.77.35-1.25-.16-.43-.58-.5-1.23-.23-1.77.74-3.14,1.95-4.15,3.59-.19.31-.31.64-.28,1.01.03.34.19.51.52.5ZM187.66,29.85c.02-.44,0-.8-.36-.9-.4-.11-.53.25-.65.54-.21.51-.44,1.02-.41,1.59.01.23,0,.49.29.58.26.08.46-.07.62-.26.41-.48.31-1.12.51-1.55Z"/>
        <path class="cls-3" d="M186.97,90.71c.02-.4.22-.75.61-.76.32-.01.47.37.62.65,1.24,2.31,2.88,4.27,5.01,5.81,1.46,1.06,3.01,1.9,4.91,1.8,1.3-.07,2.44-.54,3.5-1.28,1.21,2.12,2.61,4.1,4.23,5.93.5.57.87,1.24,1.2,1.93.22.45.29.92.24,1.4-.08.83-.37,1.12-1.21,1.15-3.34.09-6.57-.43-9.63-1.84-2.23-1.03-3.68-2.89-4.96-4.88-1.59-2.46-2.76-5.12-3.76-7.87-.25-.67-.5-1.34-.75-2.02Z"/>
        <path class="cls-6" d="M195.33,46.12c1.17-.21,2.34-.22,3.52-.26,1.76-.06,3.13-.95,4.21-2.3.38-.47,1.03-.81.86-1.59,1.01-1.17,1.93-2.4,2.59-3.98.73.72.64,1.46.51,2.12-.43,2.1-1.4,3.9-3.18,5.17-.39.28-.79.53-1.19.8-1.43.95-1.87,1.98-1.51,3.68.1.47.22.93.22,1.42,0,1.08-.48,1.52-1.56,1.47-.98-.05-1.35-.52-1.25-1.6.04-.44.12-.88.09-1.31-.14-1.7-.97-2.08-2.35-2.08-1.31,0-2.3.89-2.67,2.17-.33,1.13-.1,2.22.14,3.31.24,1.05.58,2.08.77,3.13.23,1.26.18,2.48-1.1,3.26,0-.28-.05-.58.03-.83.55-1.72.04-3.19-.94-4.59-.27-.38-.62-.74-.54-1.28.01-.2,0-.41.04-.6.47-1.98.28-3.87-.75-5.65-.2-.35-.37-.71-.54-1.07-.34-.75-.98-1.25-1.54-1.8-.21-.21-.42-.19-.58.07-1.89-1.76-3-3.94-3.44-6.47.54-.17.91.1,1.26.46.54.54.95,1.19,1.3,1.85.76,1.44,1.86,2.58,3,3.69.68.66,1.36,1.32,1.82,2.19.53.99,1.46,1.14,2.79.63h0ZM200.16,52.12c.43-.05.61-.37.59-.74-.03-.39-.38-.48-.72-.45-.29.03-.58.16-.55.5.03.38.21.68.68.69Z"/>
        <path class="cls-5" d="M212.78,58.82c-.1.97-.74,1.71-1.31,2.34-1.75,1.95-3.23,4.13-5.12,5.97-1,.97-1.59,2.28-2.3,3.47-1.63,2.73-2.67,5.69-3.14,8.82-.4,2.64-.44,5.29-.15,7.96.34,3.15,1.26,6.14,2.32,9.09.19.52.44,1.03.37,1.61-.56-.44-.77-1.1-1.07-1.7-2.48-4.89-3.88-10.01-3.52-15.56.23-3.59,1.36-6.86,3.09-9.97,1.25-2.25,2.82-4.26,4.62-6.08,2.02-2.04,4.13-3.98,6.2-5.96Z"/>
        <path class="cls-6" d="M215.44,33.14c1.03.72,1.26,1.92,1.6,2.99.56,1.78.91,3.62.78,5.52-.23,3.45-1.32,6.51-3.73,9.06-1.38,1.46-2.95,2.66-4.67,3.67-.46.27-.93.44-1.47.34,1.12-1.07,2.34-2.03,3.42-3.15,2.42-2.53,4.23-5.37,4.83-8.89.48-2.87.3-5.64-1.04-8.27-.09-.18-.14-.37-.21-.55.31-.15.17-.6.5-.73Z"/>
        <path class="cls-5" d="M193.41,28.58c.05.56-.28.96-.53,1.42-.83,1.51-1.43,3.11-1.37,4.87.11,3.31,2.08,6.02,4.99,6.77,1.1.28,2.25.38,3.38-.02,1.57-.26,2.76-1.14,3.81-2.28.53-.57,1.09-1.1,1.96-1.48-.2.91-.68,1.52-1.14,2.14-2.11,2.83-4.96,3.68-8.22,2.74-3.12-.89-5.15-3.7-5.34-7.03-.16-2.73.69-5.09,2.47-7.13Z"/>
        <path class="cls-1" d="M205.9,27.66c-.4.68-.94.84-1.49.61-1.39-.58-2.21.42-2.11,1.92.05.68.28,1.33.24,2.02-.06.91-.39,1.25-1.24,1.23-.75-.02-1.08-.33-1.16-1.08-.06-.57.17-1.1.26-1.65.24-1.5-.21-2.12-1.75-2.33-.08-.01-.15-.05-.36-.12,2.49-1.6,4.99-1.28,7.61-.6Z"/>
        <path class="cls-5" d="M204.42,74.19c.27-1.88.82-3.59,2.53-4.69.09-.06.12-.19.18-.3.16.03.31.06.47.08,1.73.17,2.45,1.12,2.14,2.83-.25,1.36-.93,2.46-2.09,3.21-1.17.77-2.02.6-2.88-.53-.14-.19-.24-.41-.36-.61ZM207.01,74.66c1.52-.41,2.06-1.32,1.89-3.21-.38-.72-.6-.83-1.24-.6-1.01.36-1.89,1.76-1.79,2.83.07.72.3.92,1.14.97Z"/>
        <path class="cls-5" d="M225.93,69.69c.03-.24.01-.49.09-.7.18-.48.13-.77-.45-.82-.25-.02-.48-.16-.5-.43-.02-.34.13-.67.49-.72.73-.1.68-.6.55-1.06-.52-1.77-.58-3.6-.86-5.41-.18-1.12.04-2.25.28-3.32.48-2.15,1.36-4.16,2.47-6.07.07-.12.26-.16.39-.24-.29,1.36-.83,2.65-1.32,3.94-.57,1.5-.9,3.05-1.07,4.63-.17,1.56-.02,3.1.52,4.59.32.9.62,1.81.71,2.76.12,1.17-.15,2.21-1.29,2.83Z"/>
        <path class="cls-1" d="M228.86,41.6c-.77-1.53-.74-3.07-.03-4.61.99-.69,1.5-.63,2.14.36.79,1.21.95,2.53.47,3.89-.37,1.04-1.02,1.32-1.99.93-.08-.19-.22-.31-.42-.36,0,0,0,0,0,0-.06-.07-.12-.13-.17-.2ZM230.61,40.89c-.11-.87-.26-1.72,0-2.57.05-.16-.02-.33-.2-.35-.09,0-.22.08-.27.16-.46.72-.26,2.08.49,2.77Z"/>
        <path class="cls-6" d="M209.87,29.35s.06-.05.09-.07c.29-.27.2-.88.77-.89.64-.01.52.68.86.95.12.66-.32,1.48.53,1.94.06.11.11.08.16-.01.16-.01.33-.02.49-.04.02.09.03.18.05.27-.86.35-1.03,1.12-1.16,1.91-.06.35-.05.72-.07,1.07-.03.43-.15.79-.66.85-.55.07-.93-.14-1.14-.65-.19-.46-.15-.94-.1-1.42.04-.39.14-.78.21-1.18.15-.91.17-1.83-.03-2.74Z"/>
        <path class="cls-1" d="M190.29,69.07c.04.32,0,.63-.16.92-1.46,2.84-2.36,5.89-3.22,8.95-.21.75-.63,1.45-.97,2.17-.54,1.16-1.44,2.09-2.05,3.21-.16.29-.32.68-.77.66.4-.73.76-1.49,1.19-2.2.9-1.48,1.51-3.07,1.92-4.75.76-3.04,1.86-5.93,3.67-8.52.11-.16.25-.3.38-.45Z"/>
        <path class="cls-4" d="M191.97,52.82c-.09.54.27.91.54,1.28.99,1.4,1.49,2.87.94,4.59-.08.25-.03.55-.03.83-.04.06-.09.08-.16.07-.53,0-1.06,0-1.59,0-.43-.06-.71-.33-.9-.7,0-.23-.01-.44-.27-.53,0,0,.02.01.02.01-.08-2,.5-3.83,1.46-5.56ZM190.78,57.43c.01.59.38,1.05.87,1.09.38.03.82-.6.8-1.15-.02-.42-.58-1.1-.93-1.12-.4-.02-.76.54-.75,1.17Z"/>
        <path class="cls-1" d="M191.97,52.82c-.95,1.73-1.54,3.56-1.46,5.56-.55-.6-.47-1.33-.33-2.02.18-.9.46-1.77.72-2.65.82-2.8.45-5.44-.99-7.95-.4-.69-.87-1.33-1.31-1.99.17-.26.37-.28.58-.07.56.56,1.2,1.05,1.54,1.8.16.36.34.72.54,1.07,1.03,1.78,1.21,3.67.75,5.65-.05.19-.03.4-.04.6Z"/>
        <path class="cls-1" d="M218.31,93.28c-1.14-1.9-2.53-3.52-3.92-5.23.64-.32,1.13-.24,1.56.06,1.55,1.08,2.48,2.55,2.69,4.45.02.19,0,.4-.33.73Z"/>
        <path class="cls-5" d="M218.55,71.66c-.07-.64.17-1.36-.58-1.82-.24-.15-.25-.55-.07-.77.42-.51.23-1.01.18-1.57-.11-1.28-.09-2.58,1.2-3.38-.03.2-.01.41-.08.59-.53,1.32-.46,2.63-.1,3.98.28,1.05.4,2.13-.55,2.98Z"/>
        <path class="cls-1" d="M211.33,76.43c1.26,1.03,1.5,3.82.48,5.53-.7-1.33-.93-3.96-.48-5.53Z"/>
        <path class="cls-1" d="M228.35,54.44c.59-1.64,1.15-3.19,1.73-4.77.66,1.5-.07,3.55-1.73,4.77Z"/>
        <path class="cls-1" d="M194.29,32.66c.86,1.46.74,2.73-.29,3.65-.36-1.32-.31-2.05.29-3.65Z"/>
        <path class="cls-1" d="M197.44,40.23c1.11-1.07,2.04-1.09,3.15-.17-.97.49-1.71.54-3.15.17Z"/>
        <path class="cls-3" d="M212.82,31.5c-.02-.09-.03-.18-.05-.27.08-.08.17-.15.25-.23,1.16.31,1.87,1.13,2.42,2.14-.33.13-.19.58-.5.73-.32-.48-.63-.98-.97-1.45-.29-.42-.59-.84-1.15-.92Z"/>
        <path class="cls-5" d="M219.26,64.15c-.09-.5.1-.77.63-.75-.15.3-.27.63-.63.75Z"/>
        <path class="cls-6" d="M191.67,59.6c.53,0,1.06,0,1.59,0-.53.33-1.06.29-1.59,0Z"/>
        <path class="cls-3" d="M229.04,41.81c.2.05.34.17.42.36-.09.11-.18.22-.27.33,0,0-.11.03-.11.03-.05-.24-.14-.47-.04-.71Z"/>
        <path class="cls-5" d="M213.25,58.34c0,.32-.16.48-.48.48.11-.21.27-.38.48-.48Z"/>
        <path class="cls-5" d="M228.35,50.94c-.02-.21.03-.39.21-.51-.02.19.05.42-.21.51Z"/>
        <path class="cls-1" d="M190.5,58.37c.26.09.28.3.27.53-.2-.12-.29-.3-.27-.53Z"/>
        <path class="cls-5" d="M215.17,56.41c-.06.16-.19.22-.34.25.07-.14.16-.25.34-.25Z"/>
        <path class="cls-5" d="M193.87,28.02c-.03.15-.1.27-.25.34.02-.15.11-.26.25-.34Z"/>
        <path class="cls-5" d="M203.47,98.15c.07.1.15.19.22.29-.15-.04-.21-.15-.22-.29Z"/>
        <path class="cls-5" d="M203.68,98.42c.16.08.22.22.25.38-.17-.07-.24-.2-.25-.38Z"/>
        <path class="cls-5" d="M193.65,28.33c-.08.09-.17.18-.25.27.03-.14.11-.23.25-.27Z"/>
        <path class="cls-1" d="M219.99,82.1c-.12-.78.02-1.48.46-2.15.75-1.15,1.9-1.44,3.1-.76,1.14.66,2.02,2.49,1.82,3.8-.31,2.01-2.21,2.87-4.02,1.81.43-.02.86-.05,1.3-.05.37,0,.7-.11,1-.31.38-.24.73-.55.56-1.06-.15-.46-.59-.28-.92-.31-.08,0-.16,0-.24,0-.95.09-1.81-.08-2.43-.89-.18-.24-.39-.21-.62-.08ZM222.84,80.28c-.01-.54-.31-.84-.8-.79-.47.04-1.11.67-1.11,1.08,0,.39.47.82.88.79.59-.04,1.04-.52,1.03-1.08Z"/>
        <path class="cls-6" d="M219.99,82.1c.23-.13.44-.15.62.08.63.81,1.48.98,2.43.89.08,0,.16-.01.24,0,.33.04.77-.15.92.31.16.51-.18.81-.56,1.06-.3.19-.63.31-1,.31-.43,0-.86.03-1.3.05,0,0,.03-.01.03-.01-.01-.17-.07-.24-.22-.1-.82-.67-1.23-1.52-1.16-2.59Z"/>
        <path class="cls-1" d="M221.15,84.69c.15-.14.21-.07.22.1-.07-.03-.15-.06-.22-.1Z"/>
        <path class="cls-5" d="M211.61,101.81c-.93-.55-1.63-1.31-2.3-2.16-.59-.74-.68-1.64-1.06-2.44.1-.34.17-.7.32-1.02.72-1.55,2-2.03,3.52-1.29,1.83.89,2.78,2.45,3.03,4.42.18,1.46-.86,2.54-2.32,2.57-.39,0-.79-.05-1.19-.08ZM211.36,96.03c-.8-.2-1.1-.04-1.25.67-.29,1.38.96,3.32,2.33,3.62.91.19,1.25-.1,1.26-1.13.14-.09.25-.2.24-.38-.08-1.4-1.16-2.55-2.58-2.79Z"/>
        <path class="cls-5" d="M203.96,89.59c-.11-.29-.2-.6-.32-.88-.67-1.53-.89-3.09-.42-4.72,1.09-1.3,2.28-1.58,3.38-.8,1.63,1.16,2.38,4.28,1.44,6.05-.56,1.07-1.43,1.44-2.57,1.08-.45-.14-.87-.37-1.3-.55,0,0,.02.02.02.02-.05-.09-.09-.2-.23-.2ZM207.04,88.37c.97-1.44.5-3.28-1.01-3.91-.46-.44-.83-.3-1.18.15-.83,1.09-.34,3.54.85,4.24.62.37.91.26,1.34-.49Z"/>
        <path class="cls-2" d="M211.61,101.81c.4.03.79.09,1.19.08,1.45-.03,2.5-1.11,2.32-2.57-.24-1.96-1.19-3.53-3.03-4.42-1.53-.74-2.8-.25-3.52,1.29-.15.32-.22.68-.32,1.02-.58-.2-.44-.69-.39-1.09.23-1.85,2.03-2.96,3.91-2.44,2.41.67,4.57,3.74,4.35,6.23-.17,1.94-1.91,3.19-4.12,2.42-.24-.08-.42-.23-.39-.53Z"/>
        <path class="cls-2" d="M204.17,89.77c.43.19.85.41,1.3.55,1.14.36,2.01-.02,2.57-1.08.94-1.77.19-4.89-1.44-6.05-1.1-.78-2.29-.5-3.38.8-.42-.22-.25-.52-.1-.8.59-1.15,2.01-1.64,3.29-1.16.7.26,1.24.73,1.68,1.3,1.31,1.69,1.68,3.59,1.09,5.64-.5,1.74-1.99,2.68-3.51,2.25-.72-.2-1.42-.52-1.49-1.44Z"/>
        <path class="cls-2" d="M216.95,58.77c-.1-.07-.22-.12-.28-.21-.16-.23.08-.24.2-.27.9-.22,1.94.57,2.1,1.62.11.72,0,1.44-.34,2.09-.73,1.42-1.88,2.36-3.42,2.74-1.57.39-2.89-.58-2.89-2.09,0-.2-.11-.54.24-.53.13,0,.25.27.38.41.52,1.55,1.62,1.85,3.03.86,0,0,.11-.02.11-.02.16.03.28-.01.3-.2h0c.39-.08.65-.3.73-.7h0c.81-.63,1.16-1.44.97-2.46-.09-.68-.51-1.05-1.13-1.24Z"/>
        <path class="cls-5" d="M215.97,63.38c-1.41,1-2.5.69-3.03-.86.46-2.04,2.01-3.49,4.01-3.76.62.19,1.04.56,1.13,1.24-.06.39-.3.55-.68.52-.23-.39-.58-.5-1-.47-1.41.13-2.41,1.71-1.96,3.1.24.33.49.29.75.02.16-.01.31-.02.47-.03.07.07.14.14.22.21l.09.03Z"/>
        <path class="cls-2" d="M221,54.25c-.03-.07-.06-.15-.08-.22.05-.26.14-.48.47-.46.77.89,1.45,1.06,2.22.46,1.13-.88,1.77-2.05,1.6-3.52-.09-.77-.36-1.49-1.32-1.57-.31-.27-.74.07-1.05-.2,1.06-.72,1.94-.59,2.64.4.28.4.42.85.53,1.32.02,1.14-.21,2.2-.87,3.15-.34.5-.77.91-1.28,1.21-1.01.6-1.73.45-2.85-.56Z"/>
        <path class="cls-2" d="M203.96,89.59c.14,0,.17.11.23.2-.17.04-.19-.09-.23-.2Z"/>
        <path class="cls-5" d="M190.06,72.34c-.02-.23.15-.59.33-.94,1.38-2.71,3.31-4.94,5.84-6.62.57-.38,1.23-.53,1.87-.75.24-.08.47-.13.65.1.23.28.21.61.02.89-.27.39-.63.71-1.02.99-1.8,1.34-3.28,2.98-4.47,4.87-.47.74-.89,1.5-1.39,2.22-.28.41-.57,1-1.19.75-.52-.21-.62-.78-.64-1.51Z"/>
        <path class="cls-1" d="M189.35,75.63c.8-.99,1.56-1.18,2.79-.67.36.15.27.41.17.7-.13.4-.62.5-.72.87.08.31.29.31.49.31.47,0,.58.26.63.68.06.57-.25,1.2.26,1.7.28,1.06.36,2.11-.16,3.13-.37.71-1.12,1.11-1.86.93-.68-.16-1.49-.81-1.43-1.67.05-.64.17-1.26.38-1.86.29-.87.51-1.76.42-2.69-.06-.64-.18-1.27-.97-1.43ZM191.12,79.96c-.44,0-.57.16-.58.69-.01.6.23.98.64.93.45-.06.7-.36.74-.8.04-.44-.36-.83-.8-.83Z"/>
        <path class="cls-2" d="M189.35,75.63c.79.16.91.79.97,1.43.09.93-.13,1.81-.42,2.69-.2.6-.33,1.21-.38,1.86-.06.85.75,1.5,1.43,1.67.73.18,1.49-.22,1.86-.93.52-1.02.45-2.07.16-3.13,0-.59-.05-1.19,0-1.78.1-1.46.92-2.55,2.25-2.91-.66.94-1.45,1.76-1.4,2.95-.17.29-.16.58.02.86.11,1.02.22,2.04.33,3.06-.18.48-.3,1-.55,1.44-.94,1.65-2.8,1.91-4.23.68-.67-.58-.76-1.35-.95-2.11.14-.71.32-1.4.62-2.06.55-1.2.72-2.44.3-3.72Z"/>
        <path class="cls-3" d="M188.43,81.4c.19.76.28,1.54.95,2.11,1.43,1.23,3.29.97,4.23-.68.25-.44.37-.96.55-1.44.58,1.82-.11,3.73-1.57,4.35-2.1.89-4.43-.62-4.42-2.89,0-.49-.2-1.04.27-1.46Z"/>
        <path class="cls-3" d="M197.23,93.8c.03.33-.04.68-.22,1-.5.88-1.66.94-2.11.03-.52-1.05-.74-2.2-.24-3.34.39-.88,1.19-.96,1.76-.19.4.55.82,1.8.81,2.51Z"/>
        <path class="cls-6" d="M191.25,90.26c0-.17,0-.41.04-.64.08-.38.33-.64.7-.74.39-.11.71.04.95.34.41.51.59,1.13.69,1.76.09.6-.23,1.04-.76,1.19-.68.19-1.19-.05-1.48-.65-.18-.38-.13-.78-.15-1.25Z"/>
        <path class="cls-5" d="M183.89,86.72c.22-.01.37.06.42.22.22.72.49,1.43.62,2.17.06.35-.26.65-.64.77-.36.12-.62-.06-.84-.3-.47-.55-.36-2.19.17-2.7.08-.08.2-.12.27-.16Z"/>
        <path class="cls-3" d="M193.83,78.33c-.18-.28-.19-.57-.02-.86.1.28.1.57.02.86Z"/>
        <path class="cls-1" d="M216.59,25.03c-1.98.69-4.09-.26-4.97-2.24.36.04.32-.2.35-.45.14-1.08.56-1.43,1.63-1.44.84-.01,1.53.38,2.18.84,1.23.86,1.38,1.58.64,2.92-.15.26-.08.34.17.38ZM216.28,22.94q-1.48-.17-2.37-1.2c-.13-.15-.26-.15-.41-.07-.12.06-.15.18-.12.3.18.62.58,1.05,1.17,1.28.56.22,1.14.39,1.73-.31Z"/>
        <path class="cls-2" d="M223.11,38.03c.8-1.84,2.67-1.44,3.51-.23.99,1.42,1.14,2.96.56,4.55-.53,1.46-1.81,1.79-3.15.89.32-.03.64-.05.97-.08,1.09-.03,1.47-.81,1.65-1.7.19-.92.03-1.82-.34-2.69-.49-1.17-1.78-1.82-2.74-.69-.16-.02-.32-.04-.48-.06Z"/>
        <path class="cls-2" d="M219.02,28.85c.39-1.69,1.62-2.28,3.08-1.44,1.41.81,2.13,2.12,2.32,3.68.19,1.56-1.08,2.54-2.54,2.07.25-.3.74-.07.97-.42.67-.31.94-.91.85-1.56-.18-1.31-.76-2.43-1.98-3.08-.83-.44-1.36-.3-2.04.47-.23.08-.37.34-.66.28Z"/>
        <path class="cls-2" d="M216.59,25.03c-.24-.04-.31-.12-.17-.38.74-1.34.59-2.06-.64-2.92-.65-.45-1.34-.85-2.18-.84-1.08.01-1.5.36-1.63,1.44-.03.25,0,.49-.35.45-.44-1.59.28-2.57,1.91-2.59,1.56-.01,2.75.73,3.65,1.94.73.98.5,1.96-.58,2.89Z"/>
        <path class="cls-2" d="M202.64,20.64c-1.18-1.07-.6-2.72.78-3.24,1.37-.52,2.72-.44,3.98.37,1.28.82,1.38,1.75.36,2.94-.4-.31.09-.68-.06-1,.18-.57-.16-.93-.57-1.2-1.14-.74-2.35-.92-3.61-.3-.71.35-1.07.93-.96,1.75.03.23.07.47.11.7,0,0-.03-.02-.03-.02Z"/>
        <path class="cls-1" d="M222.85,32.74c-.23.35-.72.12-.97.42-2.07-.69-2.94-2-2.86-4.31.29.06.44-.2.66-.28.13.1.24.21.25.38.02,1.63.78,2.67,2.36,3.11.31.09.57.28.56.67Z"/>
        <path class="cls-1" d="M225,43.17c-.32.03-.64.05-.97.08-1.84-1.44-2.16-3.2-.93-5.21.16.02.32.04.48.06,0,.12,0,.24-.03.35-.52,1.65-.14,3.02,1.23,4.09.22.17.22.4.22.64Z"/>
        <path class="cls-1" d="M221.39,53.57c-.33-.02-.42.2-.47.46-.72-1.94.19-4.47,1.92-5.29.31.27.74-.07,1.05.2-1.37.92-2.27,2.12-2.26,3.86,0,.29-.12.53-.24.78Z"/>
        <path class="cls-1" d="M207.7,19.7c.15.33-.33.69.06,1-1.46,1.01-2.98,1.36-4.61.41-.2-.11-.34-.32-.51-.48,0,0,.03.02.03.02.58-.31,1.15-.38,1.84-.26,1.11.2,2.25.1,3.19-.69Z"/>
        <path class="cls-2" d="M216.14,18.28c.25-.26.52-.27.65-.06.44.74,1.09,1.09,1.92,1.19.15.02.3.11.26.31-.03.21-.21.22-.36.23-.63.05-1.15-.23-1.59-.64-.33-.31-.6-.69-.89-1.03Z"/>
        <path class="cls-2" d="M225.72,26.1c.22,1.09.66,2,1.81,2.62-1,.25-1.35-.28-1.65-.78-.34-.56-.56-1.17-.15-1.84Z"/>
        <path class="cls-3" d="M228.86,41.6c.06.07.12.13.17.2-.16.02-.17-.09-.17-.2Z"/>
        <path class="cls-5" d="M203.39,61.03c-.06.55-1.13,1.79-1.82,1.65-.57-.11-.77-.35-.54-.87.36-.81,1.18-1.39,1.81-1.28.3.05.52.18.55.51Z"/>
        <path class="cls-4" d="M213.02,31c-.08.08-.17.15-.25.23-.17.01-.33.02-.49.04-.05,0-.11,0-.16.01-.85-.46-.41-1.28-.53-1.94.82.25,1.39.73,1.43,1.66Z"/>
        <path class="cls-5" d="M189.16,26.2c-.34,0-.5-.16-.53-.5-.03-.38.1-.71.28-1.01,1.01-1.63,2.38-2.85,4.15-3.59.65-.27,1.07-.2,1.23.23.18.48.14.93-.35,1.25-1.49.97-2.96,1.98-4.17,3.32-.16.18-.37.3-.62.31Z"/>
        <path class="cls-6" d="M195.33,46.11c-.4,0-.79,0-1.19,0-.4,0-.68-.23-.86-.56-.29-.54,0-1.05.61-1.11.78-.08,1.35.4,1.42,1.19.01.16,0,.32,0,.48,0,0,0,0,0,0Z"/>
        <path class="cls-5" d="M187.66,29.85c-.2.43-.1,1.07-.51,1.55-.16.18-.35.33-.62.26-.29-.08-.28-.34-.29-.58-.03-.57.2-1.08.41-1.59.12-.29.25-.65.65-.54.36.1.38.46.36.9Z"/>
        <path class="cls-1" d="M200.16,52.12c-.47-.01-.65-.32-.68-.69-.03-.34.26-.48.55-.5.34-.03.69.06.72.45.02.37-.15.7-.59.74Z"/>
        <path class="cls-1" d="M208.9,71.45c.18,1.88-.36,2.8-1.89,3.21-.58-.76-.53-1.51-.01-2.29.46-.68.95-1.27,1.9-.92Z"/>
        <path class="cls-2" d="M208.9,71.45c-.95-.35-1.44.24-1.9.92-.52.77-.57,1.53.01,2.29-.84-.05-1.07-.25-1.14-.97-.11-1.07.78-2.47,1.79-2.83.64-.23.86-.12,1.24.6Z"/>
        <path class="cls-2" d="M230.61,40.89c-.75-.69-.94-2.05-.49-2.77.05-.08.19-.17.27-.16.19.02.25.19.2.35-.25.85-.1,1.7,0,2.57Z"/>
        <path class="cls-3" d="M212.12,31.28c.05-.01.11-.02.16-.01-.05.09-.1.12-.16.01Z"/>
        <path class="cls-1" d="M190.78,57.43c-.01-.63.34-1.19.75-1.17.35.02.91.7.93,1.12.02.54-.43,1.18-.8,1.15-.49-.04-.86-.5-.87-1.09Z"/>
        <path class="cls-5" d="M222.84,80.28c.01.56-.44,1.04-1.03,1.08-.41.03-.87-.4-.88-.79,0-.41.64-1.04,1.11-1.08.48-.04.79.26.8.79Z"/>
        <path class="cls-1" d="M211.36,96.03c1.42.23,2.5,1.39,2.58,2.79.01.18-.11.29-.24.38-.3.26-.62.56-1.04.43-.85-.26-1.35-.93-1.7-1.69-.33-.71-.24-1.38.41-1.9Z"/>
        <path class="cls-2" d="M211.36,96.03c-.65.52-.74,1.2-.41,1.9.36.76.86,1.43,1.7,1.69.42.13.74-.17,1.04-.43-.01,1.02-.34,1.32-1.26,1.13-1.37-.29-2.62-2.23-2.33-3.62.15-.71.46-.87,1.25-.67Z"/>
        <path class="cls-1" d="M206.03,84.46c1.51.63,1.98,2.46,1.01,3.91-.88.2-1.32-.31-1.58-1.04-.19-.52-.36-1.05-.28-1.61.08-.54.16-1.11.85-1.25Z"/>
        <path class="cls-2" d="M206.03,84.46c-.69.14-.77.71-.85,1.25-.08.56.09,1.1.28,1.61.26.73.7,1.24,1.58,1.04-.43.75-.72.86-1.34.49-1.19-.7-1.68-3.16-.85-4.24.34-.45.72-.59,1.18-.15Z"/>
        <path class="cls-4" d="M215.66,63.15c-.16.01-.31.02-.47.03-.08-.01-.16-.02-.24-.03-.09-1.11.24-1.77,1.1-2.22.39-.21.73-.27,1.02.15.01.46.02.93.03,1.39,0,0,0,.01,0,.01-.51-.04-.75.19-.73.7,0,0,0,0,0,0-.14,0-.23.08-.3.2,0,0-.11.02-.11.02,0,0-.09-.03-.09-.03-.02-.12-.1-.18-.22-.21Z"/>
        <path class="cls-1" d="M217.12,62.45c-.01-.46-.02-.93-.03-1.39.27-.08.26-.33.33-.54.38.02.62-.13.68-.52.19,1.02-.16,1.83-.97,2.45Z"/>
        <path class="cls-1" d="M216.39,63.17c-.02-.51.22-.74.73-.7-.08.4-.34.62-.73.7Z"/>
        <path class="cls-1" d="M216.08,63.37c.07-.12.16-.19.3-.2-.02.19-.14.23-.3.2Z"/>
        <path class="cls-2" d="M217.41,60.53c-.06.21-.05.46-.33.54-.29-.41-.63-.35-1.02-.15-.86.45-1.19,1.11-1.1,2.23-.17,0-.34.01-.51.02-.45-1.39.55-2.97,1.96-3.1.42-.04.77.08,1,.47Z"/>
        <path class="cls-1" d="M214.45,63.16c.17,0,.34-.01.51-.02.08.01.16.02.24.03-.26.27-.51.31-.75-.02Z"/>
        <path class="cls-1" d="M215.66,63.15c.11.03.2.08.22.21-.07-.07-.14-.14-.22-.21Z"/>
        <path class="cls-5" d="M221.39,53.57c.12-.25.25-.49.24-.78-.01-1.74.89-2.94,2.26-3.86.96.08,1.23.81,1.32,1.57.17,1.47-.47,2.64-1.6,3.52-.77.6-1.45.43-2.22-.46ZM223.3,53.34c1.08-.48,1.48-1.26,1.32-2.57-.44-.68-.7-.76-1.27-.38-.74.49-1.23,1.76-.98,2.63.15.51.43.75.93.33Z"/>
        <path class="cls-5" d="M191.12,79.96c.44,0,.84.38.8.83-.04.44-.29.74-.74.8-.41.05-.65-.32-.64-.93.01-.53.14-.69.58-.69Z"/>
        <path class="cls-2" d="M216.28,22.94c-.59.71-1.17.53-1.73.31-.59-.23-.99-.66-1.17-1.28-.04-.12,0-.24.12-.3.15-.08.28-.08.41.07q.89,1.03,2.37,1.2Z"/>
        <path class="cls-5" d="M225,43.17c0-.24,0-.47-.22-.64-1.36-1.07-1.75-2.45-1.23-4.09.03-.11.02-.23.03-.35.96-1.13,2.24-.48,2.74.69.37.87.53,1.77.34,2.69-.19.89-.56,1.66-1.65,1.7ZM225.29,38.68c-.35-.34-.6-.1-.74.18-.44.86-.44,1.75.01,2.62.13.25.35.45.63.51.59.12.57-.21.42-.61.63-.58.74-.91.4-1.61-.19-.39-.47-.72-.71-1.08Z"/>
        <path class="cls-5" d="M222.85,32.74c.01-.39-.25-.59-.56-.67-1.58-.44-2.34-1.49-2.36-3.11,0-.17-.12-.29-.25-.38.68-.78,1.2-.92,2.04-.47,1.22.65,1.81,1.76,1.98,3.08.09.66-.18,1.25-.85,1.56ZM222.78,31.07c.04-1.33-.33-1.97-1.31-2.28-.51-.41-.7-.09-.78.37-.12.74.57,1.97,1.25,2.28.3.14.62.19.91,0,.21-.13-.04-.25-.07-.38Z"/>
        <path class="cls-5" d="M207.7,19.7c-.94.8-2.08.89-3.19.69-.69-.12-1.26-.05-1.84.26-.04-.23-.08-.47-.11-.7-.1-.82.25-1.39.96-1.75,1.26-.62,2.47-.44,3.61.3.4.26.74.62.57,1.2ZM204.16,18.53c-.56.06-.57.38-.3.74.59.8,2.24.75,2.85-.08.1-.14.02-.3-.12-.41-.74-.74-1.57-.66-2.43-.25Z"/>
        <path class="cls-1" d="M224.62,50.77c.16,1.31-.24,2.09-1.32,2.57-.61-1.4-.13-2.34,1.32-2.57Z"/>
        <path class="cls-2" d="M224.62,50.77c-1.45.23-1.93,1.18-1.32,2.57-.5.42-.78.18-.93-.33-.25-.87.24-2.13.98-2.63.57-.38.83-.3,1.27.38Z"/>
        <path class="cls-2" d="M225.6,41.38c.16.41.17.74-.42.61-.28-.06-.49-.25-.63-.51-.45-.87-.45-1.75-.01-2.62.15-.29.4-.53.74-.18-.15.4-.38.77-.38,1.22,0,.6,0,1.2.69,1.47Z"/>
        <path class="cls-1" d="M225.6,41.38c-.69-.27-.68-.87-.69-1.47,0-.45.23-.82.38-1.22.24.36.52.7.71,1.08.34.7.24,1.03-.4,1.61Z"/>
        <path class="cls-2" d="M222.78,31.07c.02.13.28.25.07.38-.29.18-.61.13-.91,0-.68-.31-1.37-1.54-1.25-2.28.08-.47.27-.78.78-.37-.23,1.31.04,1.77,1.31,2.28Z"/>
        <path class="cls-1" d="M222.78,31.07c-1.27-.5-1.54-.97-1.31-2.28.98.31,1.35.94,1.31,2.28Z"/>
        <path class="cls-2" d="M206.59,18.78c.14.11.22.27.12.41-.62.83-2.26.88-2.85.08-.27-.36-.25-.68.3-.74.36.76.97.85,1.68.59.26-.09.5-.23.75-.34Z"/>
        <path class="cls-1" d="M206.59,18.78c-.25.11-.49.25-.75.34-.71.26-1.32.17-1.68-.59.86-.41,1.69-.48,2.43.25Z"/>
      </g>
    </g>
  </g>
</svg>