<?xml version="1.0" encoding="UTF-8"?>
<svg id="Robot_Completo" data-name="Robot Completo" xmlns="http://www.w3.org/2000/svg" viewBox="0 0 431.88 432.95">
  <defs>
    <style>
      .cls-1 {
        fill: #8b9da4;
      }

      .cls-1, .cls-2, .cls-3, .cls-4, .cls-5, .cls-6, .cls-7, .cls-8, .cls-9 {
        stroke-width: 0px;
      }

      .cls-2 {
        fill: #378057;
      }

      .cls-3 {
        fill: #211919;
      }

      .cls-4 {
        fill: #67777f;
      }

      .cls-5 {
        fill: #d4dddf;
      }

      .cls-6 {
        fill: #60a95d;
      }

      .cls-7 {
        fill: #a4b5bb;
      }

      .cls-8 {
        fill: #7c898e;
      }

      .cls-9 {
        fill: #d4b160;
      }
    </style>
  </defs>
  <g id="Add_ons">
    <g id="A3">
      <path class="cls-3" d="M136.75,208.61c.7,0,1.29,0,1.89,0,1.51.01,2.16.66,2.18,2.2.02,1.63.01,3.26.01,4.89,0,.64.02,1.29-.02,1.93-.08,1.11-.7,1.71-1.81,1.78-.34.02-.69,0-1.03.01-.38.02-.81-.13-1.13.09-.31.21-.11.63-.2.96-.32,1.05-.92,1.52-2.07,1.56-.26.01-.52.03-.77,0-.49-.04-.7.15-.67.66.05.98-.07,1.96.09,3,.41,0,.79-.01,1.17,0,1.3.06,2.09.69,2.27,1.98.08.57.28.73.8.69.47-.03.94-.01,1.42,0,1.2.05,1.91.62,1.94,1.78.06,2.44.05,4.89,0,7.33-.02.93-.63,1.45-1.59,1.53-.43.04-.86,0-1.29.03-.38.02-.77-.08-1.17.11-.03.28-.03.58-.09.87-.22,1.05-.88,1.63-1.94,1.75-.3.03-.6.05-.9.02-.56-.06-.74.18-.73.73.02,1.37-.6,2.47-1.57,3.4-.96.93-2.01,1.74-3.16,2.41-1.18.69-2.46.93-3.82.93-11.5-.01-23,0-34.5,0-7.72,0-15.45-.09-23.17.05-2.94.05-5.21-1.04-7.33-2.85-1.5-1.28-2.18-2.81-2.17-4.83.06-11.84.06-23.68,0-35.52-.01-2.25.69-4.01,2.47-5.35.41-.31.79-.66,1.2-.97,1.37-1.04,2.85-1.54,4.63-1.54,19.91.05,39.83.03,59.74.02,1.31,0,2.45.33,3.47,1.12.81.63,1.6,1.3,2.39,1.95,1.16.96,1.74,2.2,1.85,3.68.08.98.1.98,1.11.99.13,0,.26,0,.39,0,1.23.04,1.88.6,2.1,1.82.04.21.03.43.05.78ZM134.88,227.69c-.58-.46-1.17-.41-1.77-.04-.12.69-.13,1.38-.02,2.07-.26,2.14-.18,4.28-.07,6.41-.18,1.02,0,2.05-.08,3.07-.04.61.2.84.81.83.94-.01,1.09-.07,1.11-.8.03-1.03,0-2.05,0-3.08.12-2.15.08-4.3,0-6.45.08-.67.12-1.35,0-2.02ZM136.47,210.43c-.18,0-.25.07-.21.25,0,.35,0,.69,0,1.04-.04,1.29-.09,2.57.02,3.86-.01.42-.01.85-.05,1.27-.05.61.23.79.82.81,2.08.08,2.08.1,1.94-2.08.01-1.2.03-2.39.04-3.59.02-.21.05-.42.05-.63-.01-.95-.02-.96-.98-.97-.55,0-1.09.03-1.64.05ZM136.31,230.31l.02,1.45c-.13,1.11-.1,2.23-.02,3.34-.02.51-.04,1.02-.08,1.53-.05.62.25.79.83.81,2.05.1,2.05.12,1.98-1.95,0-.13-.03-.25-.04-.38.06-1.11.12-2.22,0-3.33.06-.51.08-1.01,0-1.52-.88-.41-1.93-.39-2.7.04ZM134.89,209.65c.01-.29.04-.59.03-.88-.02-.95-.04-.94-1-.97-.63-.02-.95.16-.9.84.03.41-.11.84.07,1.25-.27,1.81-.09,3.63-.13,5.45-.01.42-.07.85.17,1.24-.34.95-.08,1.93-.15,2.89-.03.44,0,.87.62.87.85,0,1.26-.22,1.28-.82.03-.97.11-1.95-.02-2.92.21-2.31.06-4.63.03-6.94ZM63.96,200.44q-.17-.33-.63-.05c-1.12.7-2.11,1.57-3.11,2.42-.72.61-1.09,1.39-1.06,2.35.03.89.03,1.78.04,2.67-.03.25-.07.51-.07.76.01,8.98.03,17.95.05,26.93,0,.47-.04.94.11,1.4-.16,1.23-.09,2.47-.09,3.71,0,3.17.21,3.55,2.72,5.47.34.26.7.49,1.07.7.28.16.56.4.98.23.26-2.25-.21-4.5-.12-6.75.22-.8.2-1.62.2-2.43,0-10.94,0-21.88-.01-32.82,0-.46.11-.95-.19-1.37.31-1.07.1-2.15.13-3.23ZM73.31,200.16c-.08-.26-.29-.27-.51-.27-2.38,0-4.77,0-7.15,0-.21,0-.43.01-.49.28.02.92.03,1.85.05,2.77-.02,2.83-.07,5.66-.07,8.49,0,9.7.03,19.39.04,29.09-.02,2.06-.03,4.11-.07,6.17-.01.6.2.84.82.83,2.19-.03,4.37-.03,6.56-.01.58,0,.86-.14.85-.79-.03-2.06-.02-4.11-.03-6.17,0-.6.07-1.21-.01-1.79-.31-2.07.97-3.82,3.02-4.05.38-.04.77-.03,1.16-.03,11.83,0,23.65-.01,35.48-.02.39,0,.77-.02,1.16.02,1.86.17,3.03,1.44,3.06,3.3.01.86.02,1.71.03,2.57,0,2.01-.02,4.03,0,6.04,0,.88.03.9.96.91,2.1.02,4.2.03,6.3.02.92,0,.94-.02.94-.92,0-2.01-.03-4.03-.04-6.04.02-.73.05-1.45.05-2.18,0-8.77,0-17.53,0-26.3,0-3.04-.04-6.07-.06-9.11.02-.73,0-1.46.06-2.18.05-.64-.21-.81-.82-.8-2.19.04-4.38.05-6.57.03-.65,0-.89.19-.87.88.05,2.1.05,4.2.02,6.31-.03,1.8-1.18,2.94-2.99,3.02-.17,0-.34,0-.51,0-12.28,0-24.55-.03-36.83.04-2.17.01-3.6-1.73-3.5-3.53.12-2.18,0-4.37-.03-6.56ZM131.27,209.1c.01-1.33.03-2.65.04-3.98,0-.62-.11-1.22-.51-1.68-1.14-1.33-2.53-2.35-4.11-3.36-.07,1.34-.15,2.48.07,3.62-.17.41-.1.85-.1,1.27-.02,11.39-.03,22.78-.04,34.17,0,.38.05.77.07,1.15-.04.12-.14.24-.12.35.21,1.74.16,3.48-.02,5.23-.05.43-.16.92.24,1.37,1.57-.72,2.74-1.9,3.92-3.05.39-.37.6-.93.6-1.51,0-1.92.05-3.83-.1-5.75.19-.76.12-1.53.12-2.3,0-7.83,0-15.65,0-23.48,0-.68-.03-1.36-.05-2.05ZM74.61,240.83c0,1.8,0,3.6,0,5.4q0,1.26,1.27,1.27c.09,0,.17,0,.26,0,12.78,0,25.55,0,38.33-.01.26,0,.51-.01.77,0,.5.02.67-.24.68-.71.04-1.8.1-3.59.14-5.39,0-.21-.08-.41-.13-.62,0-1.07.03-2.14-.03-3.2-.06-.98-.66-1.54-1.65-1.64-.3-.03-.6-.01-.9-.01-11.58,0-23.16,0-34.75-.01-.69,0-1.37-.02-2.06.02-1.12.07-1.83.73-1.93,1.85-.09,1.02-.15,2.05,0,3.08ZM95.36,199.93h0c-4.33-.01-8.67-.02-13-.01-2.23,0-4.46,0-6.69.02-1.11,0-1.12.03-1.12,1.17,0,1.84,0,3.69.04,5.53.03,1.81.69,2.45,2.52,2.45,12.01,0,24.03,0,36.04,0,.51,0,1.03.02,1.52-.19.68-.28,1.19-.72,1.24-1.49.14-2.27.16-4.54.14-6.81,0-.41-.17-.65-.61-.65-.3,0-.6,0-.9,0-6.39,0-12.79,0-19.18,0Z"/>
      <path class="cls-7" d="M125.35,202.94c.02,3.04.05,6.07.06,9.11,0,8.77,0,17.53,0,26.3,0,.73-.03,1.45-.05,2.18-2.72,0-5.44,0-8.16,0,0-.86-.02-1.71-.03-2.57-.03-1.86-1.2-3.13-3.06-3.3-.38-.03-.77-.02-1.16-.02-11.83,0-23.65.01-35.48.02-.39,0-.77-.01-1.16.03-2.05.22-3.33,1.97-3.02,4.05.09.59.01,1.2.01,1.79-.58.41-1.25.32-1.87.24-1.53-.2-3.07-.18-4.6-.2-.56,0-1.11-.04-1.66-.06-.02-9.7-.04-19.39-.04-29.09,0-2.83.04-5.66.07-8.49,1.93,0,3.86,0,5.79.03.91.01,1.24.29,1.01,1.03-.45,1.43.28,2.8.12,4.2-.02.19.11.41.2.6.81,1.81,2.32,2.63,4.2,2.63,12.48.03,24.96.03,37.44.01,2.7,0,4.4-1.72,4.47-4.41.02-.94,0-1.89.02-2.83.02-.89.13-1.03.99-1.18.33-.06.68-.05,1.02-.05,1.63,0,3.26-.01,4.89-.01ZM93.87,214.26c-5.15,0-10.29,0-15.44,0-1.71,0-2.21.5-2.21,2.22-.01,3.64-.01,7.29-.01,10.93,0,.64-.03,1.29.02,1.93.08,1.03.71,1.62,1.74,1.69.3.02.6.01.9.01,9.95,0,19.9-.04,29.85.02,2.57.01,2.94-.74,2.97-2.91.01-.9.03-.9.89-.96,1.21-.09,1.7-.56,1.72-1.75.02-1.8.02-3.6-.02-5.4-.03-1.37-.46-1.86-1.84-1.91-.72-.03-.9-.32-.84-.94.02-.21,0-.43,0-.64.11-1.59-.64-2.33-2.3-2.31-5.15.06-10.29.02-15.44.02Z"/>
      <path class="cls-6" d="M95.36,199.93c6.39,0,12.79,0,19.18,0,.3,0,.6,0,.9,0,.44,0,.61.24.61.65.02,2.27,0,4.55-.14,6.81-.05.78-.56,1.21-1.24,1.49-.49.2-1.01.19-1.52.19-12.01,0-24.03,0-36.04,0-1.83,0-2.49-.64-2.52-2.45-.03-1.84-.04-3.69-.04-5.53,0-1.14.01-1.16,1.12-1.17,2.23-.02,4.46-.02,6.69-.02,4.33,0,8.67,0,13,0h0Z"/>
      <path class="cls-2" d="M115.93,240.75c.04.21.13.42.13.62-.04,1.8-.1,3.59-.14,5.39-.01.47-.18.73-.68.71-.26-.01-.51,0-.77,0-12.78,0-25.55,0-38.33.01-.09,0-.17,0-.26,0q-1.26,0-1.27-1.27c0-1.8,0-3.6,0-5.4,1.5-.06,2.99-.09,4.49-.22,1.74-.14,3.5.01,5.26.13,2.78.18,5.58.05,8.37.05.6,0,1.17-.37,1.77-.17.67.22,1.36.16,2.04.17,1.63.02,3.23-.28,4.87-.24,2.7.07,5.41.02,8.11.02.34,0,.7-.04,1.03.03,1.79.35,3.59.18,5.38.16Z"/>
      <path class="cls-6" d="M115.93,240.75c-1.8.02-3.6.19-5.38-.16-.33-.06-.68-.02-1.03-.03-2.7,0-5.41.05-8.11-.02-1.64-.04-3.24.26-4.87.24-.68,0-1.37.06-2.04-.17-.6-.2-1.17.17-1.77.17-2.79,0-5.59.13-8.37-.05-1.76-.11-3.52-.27-5.26-.13-1.5.12-2.99.15-4.49.22-.15-1.03-.08-2.06,0-3.08.1-1.12.8-1.78,1.93-1.85.68-.04,1.37-.02,2.06-.02,11.58,0,23.16,0,34.75.01.3,0,.6-.02.9.01.99.11,1.59.67,1.65,1.64.06,1.07.03,2.14.03,3.2Z"/>
      <path class="cls-8" d="M59.29,236.93c-.14-.46-.11-.93-.11-1.4-.02-8.98-.04-17.95-.05-26.93,0-.25.05-.51.07-.76.93-1.51,2.16-2.72,3.58-3.77.32-.24.64-.42,1.05-.4.3.42.19.91.19,1.37.01,10.94.02,21.88.01,32.82,0,.81.02,1.63-.2,2.43-1.73-.71-3.21-1.75-4.32-3.28-.04-.06-.15-.06-.23-.09Z"/>
      <path class="cls-8" d="M126.68,240.29c-.02-.38-.07-.77-.07-1.15,0-11.39.02-22.78.04-34.17,0-.42-.07-.86.1-1.27.31-.03.58.07.83.25,1.78,1.32,3.47,2.71,3.69,5.15.02.68.04,1.36.05,2.05,0,7.83,0,15.65,0,23.48,0,.77.07,1.54-.12,2.3-.46.1-.67.48-.93.82-.95,1.19-2.08,2.13-3.58,2.55Z"/>
      <path class="cls-5" d="M125.35,202.94c-1.63,0-3.26,0-4.89.01-.34,0-.69,0-1.02.05-.86.15-.97.29-.99,1.18-.02.94,0,1.89-.02,2.83-.07,2.69-1.77,4.41-4.47,4.41-12.48.02-24.96.02-37.44-.01-1.89,0-3.39-.82-4.2-2.63-.09-.19-.22-.41-.2-.6.16-1.4-.56-2.77-.12-4.2.23-.74-.1-1.02-1.01-1.03-1.93-.03-3.86-.02-5.79-.03-.02-.92-.03-1.85-.05-2.77,2.72-.11,5.43-.04,8.15,0,.02,2.19.14,4.38.03,6.56-.1,1.8,1.33,3.55,3.5,3.53,12.28-.07,24.55-.04,36.83-.04.17,0,.34,0,.51,0,1.81-.09,2.96-1.22,2.99-3.02.03-2.1.03-4.2-.02-6.31-.02-.69.22-.88.87-.88,2.19.02,4.38,0,6.57-.03.6-.01.87.16.82.8-.06.73-.05,1.46-.06,2.18Z"/>
      <path class="cls-8" d="M117.2,240.52c2.72,0,5.44,0,8.16,0,.02,2.01.04,4.03.04,6.04,0,.9-.02.92-.94.92-2.1,0-4.2,0-6.3-.02-.93,0-.96-.03-.96-.91-.01-2.01,0-4.03,0-6.04Z"/>
      <path class="cls-4" d="M65.18,240.51c.55.02,1.11.06,1.66.06,1.54.02,3.07,0,4.6.2.61.08,1.29.18,1.87-.24,0,2.06,0,4.11.03,6.17.01.65-.28.79-.85.79-2.19-.02-4.37-.02-6.56.01-.62,0-.83-.23-.82-.83.04-2.06.05-4.11.07-6.17Z"/>
      <path class="cls-4" d="M59.29,236.93c.08.03.19.04.23.09,1.11,1.53,2.59,2.56,4.32,3.28-.08,2.25.38,4.5.12,6.75-.41.17-.69-.07-.98-.23-.37-.21-.73-.44-1.07-.7-2.51-1.92-2.71-2.31-2.72-5.47,0-1.24-.08-2.48.09-3.71Z"/>
      <path class="cls-4" d="M126.68,240.29c1.5-.42,2.63-1.36,3.58-2.55.27-.34.47-.72.93-.82.15,1.91.1,3.83.1,5.75,0,.58-.22,1.14-.6,1.51-1.18,1.15-2.35,2.34-3.92,3.05-.4-.44-.28-.94-.24-1.37.18-1.74.23-3.48.02-5.23-.01-.11.08-.23.12-.35Z"/>
      <path class="cls-7" d="M63.83,203.67c-.41-.02-.73.16-1.05.4-1.41,1.05-2.65,2.26-3.58,3.77-.01-.89-.01-1.78-.04-2.67-.03-.96.34-1.74,1.06-2.35,1-.86,1.99-1.72,3.11-2.42.21.02.42.03.63.05-.03,1.08.17,2.17-.13,3.23Z"/>
      <path class="cls-7" d="M131.27,209.1c-.22-2.44-1.91-3.83-3.69-5.15-.25-.19-.52-.29-.83-.25-.21-1.14-.13-2.28-.07-3.62,1.58,1.02,2.97,2.04,4.11,3.36.4.47.52,1.07.51,1.68-.02,1.33-.03,2.65-.04,3.98Z"/>
      <path class="cls-8" d="M133.12,216.57c-.24-.39-.18-.82-.17-1.24.04-1.82-.14-3.64.13-5.45.61,0,1.24.14,1.8-.23.03,2.31.18,4.63-.03,6.94-.58,0-1.15-.02-1.73-.03Z"/>
      <path class="cls-8" d="M133.03,236.14c-.12-2.14-.19-4.28.07-6.41.59,0,1.19,0,1.78-.01.09,2.15.13,4.3,0,6.45-.62,0-1.24-.01-1.86-.02Z"/>
      <path class="cls-8" d="M136.28,215.57c-.11-1.28-.06-2.57-.02-3.86.88.53,1.85.19,2.78.27-.01,1.2-.03,2.39-.04,3.59-.91,0-1.81,0-2.72,0Z"/>
      <path class="cls-1" d="M139.01,231.79c.11,1.11.05,2.22,0,3.33-.9,0-1.79-.01-2.69-.02-.09-1.12-.11-2.23.02-3.35.89,0,1.79.02,2.68.03Z"/>
      <path class="cls-4" d="M133.03,236.14c.62,0,1.24.01,1.86.02,0,1.03.02,2.05,0,3.08-.02.73-.17.78-1.11.8-.61,0-.86-.22-.81-.83.07-1.02-.11-2.05.08-3.07Z"/>
      <path class="cls-4" d="M133.12,216.57c.58,0,1.15.02,1.73.03.13.97.05,1.94.02,2.92-.02.6-.43.83-1.28.82-.63,0-.65-.43-.62-.87.07-.96-.2-1.94.15-2.89Z"/>
      <path class="cls-4" d="M136.31,235.11c.9,0,1.79.01,2.69.02.02.13.04.25.04.38.07,2.06.07,2.05-1.98,1.95-.58-.03-.88-.19-.83-.81.04-.51.05-1.02.08-1.53Z"/>
      <path class="cls-4" d="M136.28,215.57c.91,0,1.81,0,2.72,0,.14,2.18.14,2.16-1.94,2.08-.59-.02-.87-.2-.82-.81.03-.42.03-.85.05-1.27Z"/>
      <path class="cls-5" d="M139.01,231.79c-.89,0-1.79-.02-2.68-.03,0-.48-.01-.97-.02-1.45.9-.01,1.8-.03,2.7-.04.08.51.06,1.01,0,1.52Z"/>
      <path class="cls-7" d="M139.03,211.98c-.93-.07-1.89.26-2.78-.27,0-.34,0-.69,0-1.04.07-.08.14-.17.21-.25.55-.02,1.09-.05,1.64-.05.96,0,.96.02.98.97,0,.21-.03.42-.05.63Z"/>
      <path class="cls-1" d="M134.89,209.65c-.56.37-1.19.22-1.8.23-.18-.41-.04-.83-.07-1.25-.05-.68.26-.86.9-.84.96.04.98.02,1,.97,0,.29-.02.59-.03.88Z"/>
      <path class="cls-7" d="M134.88,229.72c-.59,0-1.19,0-1.78.01-.1-.69-.1-1.38.02-2.07.59.01,1.18.02,1.77.04.11.67.08,1.35,0,2.02Z"/>
      <path class="cls-8" d="M73.31,200.16c-2.72-.04-5.43-.1-8.15,0,.06-.27.28-.28.49-.28,2.38,0,4.77,0,7.15,0,.21,0,.43.01.51.27Z"/>
      <path class="cls-4" d="M139.01,230.27c-.9.01-1.8.03-2.7.04.77-.44,1.82-.45,2.7-.04Z"/>
      <path class="cls-4" d="M134.88,227.69c-.59-.01-1.18-.02-1.77-.04.6-.37,1.19-.42,1.77.04Z"/>
      <path class="cls-4" d="M63.96,200.44c-.21-.02-.42-.03-.63-.05q.46-.28.63.05Z"/>
      <path class="cls-8" d="M136.47,210.43c-.07.08-.14.17-.21.25-.04-.18.04-.26.21-.25Z"/>
      <path class="cls-3" d="M93.87,214.26c5.15,0,10.29.04,15.44-.02,1.66-.02,2.4.72,2.3,2.31-.01.21.01.43,0,.64-.06.62.11.91.84.94,1.38.05,1.82.54,1.84,1.91.03,1.8.04,3.6.02,5.4-.01,1.2-.5,1.66-1.72,1.75-.86.06-.88.06-.89.96-.03,2.17-.39,2.92-2.97,2.91-9.95-.06-19.9-.02-29.85-.02-.3,0-.6,0-.9-.01-1.03-.07-1.67-.66-1.74-1.69-.05-.64-.02-1.29-.02-1.93,0-3.64,0-7.29.01-10.93,0-1.72.5-2.22,2.21-2.22,5.15,0,10.29,0,15.44,0ZM113.03,222.78c.02-.51.07-1.02.07-1.54.02-1.94.02-1.97-1.91-2.07-.57-.03-.75-.25-.73-.78.02-.56,0-1.11,0-1.67-.02-1.33-.07-1.39-1.38-1.39-10.13,0-20.25,0-30.38,0-.42,0-.87-.11-1.21.27-.13.05-.2.13-.15.27-.12,2.28-.04,4.57,0,6.85-.17,1.79-.04,3.59-.07,5.39-.03,1.83,0,1.85,1.87,1.86,9.77,0,19.54,0,29.31.02,2.18,0,2,.12,2.01-2.02q0-1.75,1.71-1.85s.09,0,.13,0c.55.04.77-.23.76-.77-.02-.86-.02-1.71-.03-2.57Z"/>
      <path class="cls-7" d="M77.5,215.59c.34-.38.79-.27,1.21-.27,10.13,0,20.25,0,30.38,0,1.31,0,1.36.06,1.38,1.39,0,.56.03,1.12,0,1.67-.02.53.15.75.73.78,1.93.1,1.93.13,1.91,2.07,0,.51-.05,1.03-.07,1.54-1.29,0-2.59,0-3.88.01-.03-1.58-.05-3.17-.1-4.75-.03-1.22-.23-1.42-1.44-1.42-9.18,0-18.36,0-27.54.01-1.15,0-1.31.18-1.33,1.36-.03,1.59-.04,3.17-.06,4.76-.45.08-.9.11-1.34-.02-.04-2.28-.12-4.57,0-6.85.05-.09.1-.18.15-.27Z"/>
      <path class="cls-4" d="M109.15,222.79c1.29,0,2.59,0,3.88-.01,0,.86.01,1.71.03,2.57.01.53-.21.81-.76.77-.04,0-.09,0-.13,0q-1.7.1-1.71,1.85c0,2.14.17,2.02-2.01,2.02-9.77,0-19.54-.01-29.31-.02-1.86,0-1.9-.02-1.87-1.86.03-1.8-.1-3.6.07-5.39.44.13.89.11,1.34.02.15,1.45.05,2.91.07,4.36.02,1.39.16,1.55,1.55,1.55,9.09,0,18.17,0,27.26,0,1.24,0,1.5-.26,1.53-1.5.04-1.46.04-2.91.05-4.37Z"/>
      <path class="cls-4" d="M77.5,215.59c-.05.09-.1.18-.15.27-.05-.14.02-.23.15-.27Z"/>
      <path class="cls-3" d="M109.15,222.79c-.02,1.46-.01,2.91-.05,4.37-.03,1.24-.3,1.5-1.53,1.5-9.09,0-18.17,0-27.26,0-1.39,0-1.53-.17-1.55-1.55-.02-1.45.08-2.91-.07-4.36.02-1.59.03-3.17.06-4.76.02-1.18.18-1.35,1.33-1.36,9.18,0,18.36-.01,27.54-.01,1.21,0,1.4.2,1.44,1.42.04,1.58.06,3.17.1,4.75ZM89.84,227.62c2.87-.06,5.75.03,8.62.02,1.56,0,2.22-.41,2.62-1.9.57-2.14.66-4.3-.16-6.42-.62-1.6-.73-1.69-2.42-1.69-5.36,0-10.72,0-16.08,0-.56,0-1.12.02-1.67.06-.88.05-.87.06-.92.99-.03.64-.06,1.28-.12,1.92-.18,1.92-.13,3.85-.03,5.78.06,1.21.16,1.23,1.43,1.24,2.92.02,5.83,0,8.75,0Z"/>
      <path class="cls-2" d="M89.84,227.62c-2.92,0-5.83.01-8.75,0-1.27,0-1.36-.03-1.43-1.24-.1-1.92-.15-3.86.03-5.78.06-.64.09-1.28.12-1.92.05-.92.05-.93.92-.99.56-.03,1.11-.05,1.67-.06,5.36,0,10.72-.02,16.08,0,1.7,0,1.8.1,2.42,1.69.82,2.12.73,4.29.16,6.42-.39,1.48-1.06,1.89-2.62,1.9-2.87,0-5.75-.08-8.62-.02ZM85.72,222.61s0,0,0,0c0-.98.03-1.97-.01-2.95-.04-.89-.39-1.21-1.28-1.25-.68-.03-1.37-.02-2.05,0-1.07.02-1.15.06-1.35,1.12-.38,2.07-.15,4.17-.12,6.26,0,.68.47,1.03,1.21,1.08.72.05,1.45.05,2.18,0,.98-.05,1.37-.45,1.42-1.44.04-.94,0-1.88,0-2.82ZM94.99,222.43h.02c0,.9-.03,1.79,0,2.69.05,1.22.53,1.69,1.73,1.75.38.02.77.01,1.15,0,1.51-.04,1.91-.48,1.99-2.02.09-1.8-.32-3.57-.23-5.36.04-.7-.37-1.03-1-1.08-.68-.05-1.37-.03-2.05-.02-1.24.02-1.57.34-1.62,1.6-.03.81,0,1.62,0,2.43ZM92.67,222.6h.03c0-.94.03-1.89,0-2.83-.03-.99-.36-1.32-1.31-1.36-.69-.03-1.37-.03-2.06,0-.91.04-1.26.34-1.28,1.25-.04,1.97-.03,3.95,0,5.92.01.82.34,1.18,1.15,1.26.68.07,1.37.06,2.06.02.99-.05,1.37-.42,1.42-1.44.04-.94,0-1.89,0-2.83Z"/>
      <path class="cls-6" d="M85.72,222.61c0,.94.03,1.88,0,2.82-.04.99-.44,1.39-1.42,1.44-.72.04-1.46.04-2.18,0-.74-.05-1.2-.41-1.21-1.08-.02-2.09-.26-4.18.12-6.26.19-1.06.28-1.09,1.35-1.12.68-.01,1.37-.02,2.05,0,.89.04,1.24.36,1.28,1.25.05.98.01,1.96.01,2.95,0,0,0,0,0,0ZM83.36,221.25c-.78.01-1.23.43-1.23,1.15,0,.82.61,1.41,1.45,1.41.84,0,1.33-.39,1.33-1.03,0-.82-.73-1.53-1.55-1.52Z"/>
      <path class="cls-6" d="M94.99,222.43c0-.81-.02-1.62,0-2.43.05-1.27.37-1.58,1.62-1.6.68-.01,1.37-.03,2.05.02.63.05,1.03.38,1,1.08-.09,1.79.32,3.56.23,5.36-.08,1.54-.48,1.99-1.99,2.02-.38,0-.77.02-1.15,0-1.2-.06-1.68-.53-1.73-1.75-.04-.89,0-1.79,0-2.69h-.02ZM97.17,221c-.91.01-1.36.39-1.36,1.15,0,.86.8,1.64,1.65,1.63.72-.01,1.38-.68,1.37-1.4-.01-.8-.72-1.39-1.67-1.38Z"/>
      <path class="cls-6" d="M92.67,222.6c0,.94.03,1.89,0,2.83-.05,1.02-.43,1.39-1.42,1.44-.68.03-1.38.05-2.06-.02-.81-.08-1.14-.45-1.15-1.26-.03-1.97-.03-3.95,0-5.92.02-.91.36-1.21,1.28-1.25.69-.03,1.37-.03,2.06,0,.95.04,1.28.37,1.31,1.36.03.94,0,1.89,0,2.83h-.03ZM90.39,220.99c-.82-.01-1.52.59-1.56,1.34-.03.71.6,1.41,1.31,1.45.81.05,1.49-.65,1.49-1.54,0-.84-.41-1.25-1.24-1.26Z"/>
      <path class="cls-9" d="M83.36,221.25c.82-.01,1.55.7,1.55,1.52,0,.65-.49,1.03-1.33,1.03-.84,0-1.45-.58-1.45-1.41,0-.72.45-1.13,1.23-1.15Z"/>
      <path class="cls-9" d="M97.17,221c.95-.01,1.66.57,1.67,1.38,0,.72-.65,1.39-1.37,1.4-.85.01-1.65-.77-1.65-1.63,0-.76.45-1.14,1.36-1.15Z"/>
      <path class="cls-9" d="M90.39,220.99c.83.01,1.24.42,1.24,1.26,0,.88-.68,1.58-1.49,1.54-.71-.04-1.34-.74-1.31-1.45.04-.75.73-1.36,1.56-1.34Z"/>
    </g>
  </g>
</svg>