<?xml version="1.0" encoding="UTF-8"?>
<svg id="Robot_Completo" data-name="Robot Completo" xmlns="http://www.w3.org/2000/svg" viewBox="0 0 431.88 432.95">
  <defs>
    <style>
      .cls-1 {
        fill: #8b9da4;
      }

      .cls-1, .cls-2, .cls-3, .cls-4, .cls-5, .cls-6, .cls-7, .cls-8, .cls-9 {
        stroke-width: 0px;
      }

      .cls-2 {
        fill: #558cba;
      }

      .cls-3 {
        fill: #fefdfd;
      }

      .cls-4 {
        fill: #211919;
      }

      .cls-5 {
        fill: #67777f;
      }

      .cls-6 {
        fill: #3b628a;
      }

      .cls-7 {
        fill: #d4dddf;
      }

      .cls-8 {
        fill: #a4b5bb;
      }

      .cls-9 {
        fill: #7c898e;
      }
    </style>
  </defs>
  <g id="Add_ons">
    <g id="A1">
      <path class="cls-4" d="M232.88,97.19c.36.36.73.71,1.07,1.09.77.85,1.36,1.8,1.47,2.97.15,1.63-.72,2.75-2.33,3.07-.3.06-.6.11-.9.17-.03,0-.05.03-.09.05,0,.31.26.46.42.67.51.69.93,1.43,1.15,2.27.53,2.02-.59,3.69-2.7,3.98-.84.12-1.69.08-2.67-.01.32.47.57.82.8,1.18.15.23.28.47.4.72,1.13,2.31-.02,4.29-2.6,4.47-1.41.1-2.78-.19-4.11-.6-.25.19-.26.47-.32.73.59.26,1.15.49,1.7.75,1.03.5,1.75,1.3,2.1,2.39.33,1,.58,2.03.92,3.03.44,1.27-.07,2.2-.99,2.98-.9.77-1.98,1.22-3.09,1.54-3.48.98-6.94.89-10.35-.36-.74-.27-1.44-.62-2.07-1.09-1.16-.87-1.48-1.85-1.07-3.23.26-.88.56-1.75.8-2.64.33-1.23,1.08-2.1,2.22-2.66,1.08-.53,2.21-.89,3.4-1.03.4-.05.59-.19.69-.59.21-.79.7-1.58.65-2.34-.05-.78-1.1-.99-1.64-1.55-1-1.03-1.97-2.05-2.35-3.52-.39-1.49.4-3.32,2.58-3.5.63-.05,1.27,0,2.05,0-.39-.45-.68-.78-.96-1.1-.54-.62-.99-1.31-1.29-2.08-.92-2.38.43-4.47,2.98-4.59.7-.03,1.4,0,2.17,0-.19-.59-.48-1.09-.59-1.66-.29-1.53.58-3.03,2.1-3.35.72-.15,1.4-.17,2.12.01.76.19,1.19.68,1.34,1.39.15.7-.03,1.36-.63,1.83-.13.1-.33.13-.34.37.08.26.32.4.58.62.8-1.18,1.6-2.34,2.4-3.51.32-.2.45-.57.71-.82.3.27.59.54.89.81-.04.05-.07.1-.1.16-.11.04-.17.12-.17.24-.78,1.15-1.57,2.29-2.33,3.45-.66,1.01-.65,1.02.49,1.55.05.02.12,0,.19,0,.87-1.66,1.73-3.32,2.87-4.81.67.01.75.48.78.99-.15.12-.23.32-.04.39.67.25,1.07.86,1.7,1.16ZM225.31,101.85c-.34-.34-.62-.48-.89.11-.44.95-.94,1.88-1.44,2.81-.17.31-.12.51.16.68.17.11.35.2.53.3.78.5.79.51,1.12-.27.34-.82.66-1.64.98-2.46.27-.71.26-.71-.45-1.16ZM215.86,107.6c-.9.16-1.05.31-1.13,1.18-.16.5.05.93.27,1.36.36.7.85,1.32,1.43,1.85,2.35,2.18,5.1,3.62,8.2,4.36.89.21,1.8.39,2.72.1,1.17-.37,1.46-.9,1.09-2.15-.64-2-2.26-3.08-3.91-4.12-.34-.22-.49,0-.6.29-.12.31.02.5.28.68,1.4.94,2.58,2.09,3.36,3.62-.52.76-1.33.7-2.04.56-3.36-.68-6.28-2.23-8.73-4.63-.46-.45-.86-.98-.97-1.65.37-.74,1.08-.61,1.68-.57.6.04,1.19.24,1.78.36.48.1.72-.06.82-.56.08-.4-.24-.42-.49-.48-.56-.13-1.12-.3-1.68-.36-.7-.07-1.42-.21-2.09.17ZM222.07,108.76c-.22-.22-.45-.41-.83-.43-.38.97-.73,1.96-1.15,2.92-.23.52-.11.83.38,1.06.18.09.36.19.54.29.17.11.33.24.51.33.56.27.57.26.74-.33.25-.84.5-1.69.78-2.53.17-.5.09-.85-.42-1.06-.19-.08-.37-.17-.55-.25ZM223.11,95.93c.36-.07.73-.13,1.08-.22.33-.08.5-.32.51-.66,0-.35-.25-.47-.51-.52-.52-.09-1.06-.23-1.55.11-.94.47-1.18.91-.97,1.85.13.57.37,1.09.74,1.55,2.18,2.72,5.04,4.3,8.41,5.04.71.16,1.41.22,2.12,0,1.04-.32,1.45-1.12,1.08-2.14-.07-.19-.19-.36-.28-.54-.65-1.36-1.7-2.34-2.87-3.23-.31-.23-.51-.24-.75.09-.26.37-.32.62.14.9,1.16.7,2.13,1.57,2.56,2.92.02.07.16.11.24.16-.12.48-.5.6-.91.62-.43.02-.86,0-1.29-.01-2.29-.55-4.31-1.62-6.13-3.09-.69-.56-1.32-1.18-1.66-2.03-.02-.23-.04-.45-.06-.68.02-.05.02-.1,0-.15l.04.05.06-.02ZM218.54,116.32c-.73,1.22-.91,2.62-1.21,3.97-.06.26.11.46.3.62.46.39,1,.6,1.61.54.74-.06,1.06-.36,1.23-1.13.17-.77.31-1.54.47-2.31.11-.43.2-.86.35-1.28.12-.33.03-.5-.28-.64-.71-.33-1.41-.67-2.13-1.02-.22.39-.37.79-.33,1.24ZM228.79,108.83c-1.72-.44-3.39-1.05-4.95-1.89-2.12-1.14-4.06-2.51-5.41-4.57-.1-.38-.19-.75-.09-1.14.58-.3,1.19-.49,1.86-.37.83.16,1.67.27,2.47.59.74.3.75.28,1.11-.58-.58-.35-1.21-.64-1.86-.8-1.24-.3-2.49-.75-3.79-.25-1.32.54-1.66,1.29-1.13,2.55.32.76.75,1.44,1.31,2.05,2.57,2.77,5.71,4.58,9.35,5.56,1.09.29,2.21.44,3.33.13,1.42-.4,1.77-1.1,1.29-2.53-.82-2.48-2.76-3.75-5.03-4.67-.17-.07-.33,0-.41.19-.06.14-.05.27.06.37.1.09.22.15.33.23,1.6,1.12,3.11,2.31,3.92,4.17.02.05.11.07.17.1-.1.53-.46.73-.95.87-.55.17-1.05-.05-1.57-.03ZM219.77,124.97c-2.39.14-4.71-.1-6.94-1.04-.46-.35-.93-.7-1.44-1.09-.17.61-.27,1.15-.46,1.65-.22.57-.05.99.36,1.36.27.25.52.54.91.62.14.21.38.26.59.36,2.44,1.15,5.04,1.14,7.65.98.12,0,.24-.11.36-.17,1.66.09,3.03-.63,4.34-1.52.72-.49,1.03-1.14.61-2.02-.17-.35-.24-.75-.39-1.23-.61.57-1.22.91-1.85,1.23-.65.33-1.35.47-2.03.65-.56.15-1.17-.1-1.7.23ZM216.5,119.66c.1-.24.24-.47.12-.77-1.31.17-2.52.48-3.61,1.16-1.51.94-1.52,2.12.04,2.92,2.25,1.15,4.66,1.43,7.15.99,1.17-.04,2.27-.35,3.32-.86.39-.19.77-.43,1.06-.78.47-.59.47-1.06-.02-1.64-.38-.45-.89-.73-1.41-.98-1.43-.69-1.46-.69-1.71.92-.12.79-.51,1.33-1.26,1.57-1.03.34-1.99.2-2.92-.37-.86-.53-.82-1.33-.75-2.15ZM229.49,107.59c-.85-1.24-1.66-1.95-3.04-2.75-.3.35-.33.8-.52,1.2-.15.33.01.48.32.59,1.02.37,2.03.75,3.24.96ZM219.97,102.25c.48.82,1.12,1.36,1.88,1.88.27-.5.49-.93.62-1.45-.84-.21-1.59-.54-2.51-.43ZM225.48,113.9c-.44-.75-1.17-1.06-1.72-1.61-.41.92-.43,1.05-.06,1.18.55.19,1.1.47,1.78.43ZM229.41,98.91c-.56.92-.57.94.3,1.2.41.12.8.36,1.26.31-.01-.26-.21-.36-.35-.49-.37-.34-.76-.65-1.21-1.03ZM218,109.93c.24.29.44.64.85.78q.23-.62-.85-.78Z"/>
      <path class="cls-7" d="M232.88,97.19c-.63-.29-1.04-.91-1.7-1.16-.19-.07-.11-.27.04-.39.45-.38.77-.83.79-1.45.38-.14.76-.17,1.17-.07,4.2,1,7.73-3.2,6.45-7.25-1.3-4.11-6.44-5.32-9.38-2.22-1.75,1.84-2.1,4.34-.92,6.61.15.29.43.56.11.91-.35.3-.65.64-.83,1.07-.26.25-.39.62-.71.82-.73-.05-.99-.66-1.1-1.18-.28-1.25-.9-2.41-1.02-3.69-.1-1.02-.04-2.01.38-3,.43-1.03.87-2.04,1.5-2.96.16-.23.32-.42.54-.59.58-.47,1.14-.97,1.7-1.46.26-.23.56-.38.9-.46.2-.04.42-.06.58-.17,1.42-.98,3.03-.58,4.57-.65.13,0,.29.01.4.08,1.02.61,2.2.85,3.17,1.61.84.66,1.3,1.55,1.88,2.37.82,1.17,1.06,2.56,1.14,3.95.12,1.99-.04,3.92-1.62,5.43-.21.2-.32.52-.45.79-.18.38-.42.7-.73.98-.76.7-3.09,1.68-4.14,1.8-.7.08-1.39.27-2.1,0-.22-.08-.47.01-.61.26Z"/>
      <path class="cls-8" d="M216.5,119.66c-.07.83-.11,1.62.75,2.15.93.57,1.9.71,2.92.37.75-.25,1.14-.79,1.26-1.57.25-1.6.27-1.61,1.71-.92.52.25,1.03.53,1.41.98.49.58.5,1.05.02,1.64-.28.35-.66.59-1.06.78-1.04.51-2.15.83-3.32.86-.13-.28-.36-.41-.65-.39-.65.05-1.28-.14-1.91-.23-1.14-.17-2.27-.4-3.29-.97-.93-.52-.98-1.18-.08-1.77.68-.45,1.42-.79,2.23-.94Z"/>
      <path class="cls-8" d="M220.79,127.64c-.12.06-.24.16-.36.17-2.61.16-5.21.18-7.65-.98-.21-.1-.45-.15-.59-.36.21-.85.43-1.7.64-2.54,2.22.94,4.55,1.18,6.94,1.04.52.01.9.13.82.8-.07.63.17,1.24.2,1.87Z"/>
      <path class="cls-1" d="M228.45,114.29c.37,1.25.09,1.78-1.09,2.15-.93.29-1.84.12-2.72-.1-3.11-.75-5.85-2.19-8.2-4.36-.58-.54-1.07-1.15-1.43-1.85-.22-.42-.44-.86-.27-1.36.33-.04.6.19.91.23.06,0,.12.02.19.03.11.68.51,1.2.97,1.65,2.46,2.39,5.38,3.94,8.73,4.63.71.15,1.52.2,2.04-.56.38.02.57-.32.87-.46Z"/>
      <path class="cls-1" d="M232.28,107.59c.48,1.43.12,2.13-1.29,2.53-1.12.31-2.24.16-3.33-.13-3.63-.98-6.77-2.79-9.35-5.56-.57-.61-1-1.29-1.31-2.05-.52-1.26-.19-2.01,1.13-2.55.1.46-.18.98.21,1.4-.11.39-.01.77.09,1.14-.16.09-.26.21-.2.41.15.61.45,1.12.87,1.59,1.87,2.07,4.22,3.41,6.79,4.37.85.32,1.78.42,2.69.47.32.02.33-.14.21-.37.52-.02,1.02.2,1.57.03.49-.15.85-.34.95-.87.38.01.63-.29.97-.4Z"/>
      <path class="cls-5" d="M220.79,127.64c-.03-.63-.28-1.24-.2-1.87.08-.66-.31-.78-.82-.8.53-.32,1.14-.08,1.7-.23.69-.18,1.39-.32,2.03-.65.63-.32,1.25-.66,1.85-1.23.15.48.22.88.39,1.23.42.88.1,1.53-.61,2.02-1.3.89-2.68,1.61-4.34,1.52Z"/>
      <path class="cls-1" d="M230.85,101.85c.43,0,.86.03,1.29.01.41-.02.79-.14.91-.62.42-.12.36-.64.68-.84.1.18.22.35.28.54.37,1.02-.04,1.82-1.08,2.14-.71.22-1.41.16-2.12,0-3.37-.74-6.23-2.33-8.41-5.04-.37-.46-.62-.98-.74-1.55-.21-.94.04-1.38.97-1.85.29.05.74-.07.52.51-.1.25-.08.51-.04.77l-.06.02s-.04-.05-.04-.05c-.3.11-.34-.46-.69-.25-.25.91.12,1.65.68,2.32,1.5,1.78,3.37,3.04,5.55,3.79.86.3,1.77.5,2.84.47-.27-.19-.41-.28-.54-.38Z"/>
      <path class="cls-7" d="M216.5,119.66c-.81.15-1.56.49-2.23.94-.9.59-.85,1.25.08,1.77,1.02.57,2.15.81,3.29.97.63.09,1.26.28,1.91.23.29-.02.53.11.65.39-2.49.44-4.9.16-7.15-.99-1.56-.8-1.55-1.98-.04-2.92,1.09-.67,2.3-.99,3.61-1.16.12.3-.02.53-.12.77Z"/>
      <path class="cls-1" d="M220.93,118.02c-.15.77-.3,1.54-.47,2.31-.17.76-.49,1.06-1.23,1.13-.61.05-1.14-.16-1.61-.54-.19-.16-.36-.36-.3-.62.3-1.35.48-2.74,1.21-3.97.53.95,1.51,1.25,2.39,1.7Z"/>
      <path class="cls-7" d="M228.79,108.83c.12.23.11.39-.21.37-.92-.05-1.84-.15-2.69-.47-2.57-.96-4.92-2.31-6.79-4.37-.42-.47-.72-.98-.87-1.59-.05-.2.04-.32.2-.41,1.35,2.06,3.29,3.43,5.41,4.57,1.56.84,3.23,1.45,4.95,1.89Z"/>
      <path class="cls-8" d="M230.44,94.65c-1.14,1.49-2,3.15-2.87,4.81-.06,0-.14.02-.19,0-1.14-.53-1.15-.54-.49-1.55.76-1.16,1.55-2.3,2.33-3.45.11-.04.18-.12.17-.24.02-.06.06-.11.1-.16.33-.14.34-.54.58-.75.09-.1.18-.2.27-.3.13-.14.22-.41.47-.25.25.16.56.32.41.72-.05.13-.14.24-.21.35-.22.26-.47.5-.57.83Z"/>
      <path class="cls-5" d="M232.28,107.59c-.33.1-.59.41-.97.4-.06-.03-.14-.05-.16-.1-.81-1.86-2.32-3.05-3.92-4.17-.11-.08-.23-.14-.33-.23-.11-.1-.12-.24-.06-.37.08-.18.24-.26.41-.19,2.27.92,4.21,2.18,5.03,4.67Z"/>
      <path class="cls-7" d="M230.85,101.85c.13.09.27.19.54.38-1.07.03-1.98-.17-2.84-.47-2.19-.75-4.06-2.02-5.55-3.79-.56-.67-.93-1.41-.68-2.32.35-.21.39.36.69.25.01.05,0,.1,0,.15-.29.25-.17.47.06.68.34.85.97,1.47,1.66,2.03,1.82,1.47,3.84,2.54,6.13,3.09Z"/>
      <path class="cls-5" d="M228.45,114.29c-.3.14-.49.48-.87.46-.77-1.53-1.96-2.68-3.36-3.62-.26-.17-.4-.36-.28-.68.11-.28.26-.5.6-.29,1.65,1.04,3.27,2.12,3.91,4.12Z"/>
      <path class="cls-5" d="M218.34,101.22c-.39-.42-.11-.94-.21-1.4,1.3-.5,2.55-.06,3.79.25.66.16,1.28.45,1.86.8-.36.86-.37.87-1.11.58-.8-.32-1.64-.43-2.47-.59-.66-.13-1.27.06-1.86.37Z"/>
      <path class="cls-5" d="M233.73,100.4c-.32.2-.27.71-.68.84-.08-.05-.22-.09-.24-.16-.42-1.35-1.4-2.22-2.56-2.92-.46-.28-.4-.52-.14-.9.24-.34.44-.32.75-.09,1.18.89,2.23,1.88,2.87,3.23Z"/>
      <path class="cls-1" d="M222.07,108.76c.18.08.36.17.55.25.52.21.59.56.42,1.06-.28.84-.53,1.68-.78,2.53-.18.59-.18.6-.74.33-.18-.09-.34-.22-.51-.33-.03-.48.19-.91.32-1.35.24-.83.64-1.61.74-2.48Z"/>
      <path class="cls-5" d="M220.93,118.02c-.88-.45-1.87-.75-2.39-1.7-.04-.46.11-.86.33-1.24.72.35,1.42.69,2.13,1.02.3.14.39.31.28.64-.15.41-.24.85-.35,1.28Z"/>
      <path class="cls-5" d="M215.83,109.03c-.06,0-.12-.02-.19-.03.09-.47-.04-.97.21-1.41.67-.37,1.39-.24,2.09-.17.57.06,1.12.23,1.68.36.25.06.57.08.49.48-.1.5-.34.66-.82.56-.59-.13-1.18-.33-1.78-.36-.61-.04-1.31-.17-1.68.57Z"/>
      <path class="cls-7" d="M212.83,123.93c-.21.85-.43,1.7-.64,2.54-.39-.09-.64-.37-.91-.62-.4-.37-.58-.79-.36-1.36.2-.5.3-1.04.46-1.65.52.39.98.74,1.44,1.09Z"/>
      <path class="cls-8" d="M222.07,108.76c-.1.87-.5,1.65-.74,2.48-.13.45-.35.87-.32,1.35-.18-.1-.35-.2-.54-.28-.49-.23-.61-.53-.38-1.06.42-.96.77-1.95,1.15-2.92.38.02.61.21.83.43Z"/>
      <path class="cls-9" d="M225.31,101.85c.71.44.72.45.45,1.16-.31.82-.64,1.65-.98,2.46-.32.78-.33.78-1.12.27.46-1.08.84-2.2,1.42-3.22.12-.2.23-.42.22-.67Z"/>
      <path class="cls-8" d="M225.31,101.85c.01.25-.1.46-.22.67-.59,1.03-.96,2.14-1.42,3.22-.18-.1-.36-.19-.53-.3-.28-.17-.33-.37-.16-.68.5-.92,1-1.85,1.44-2.81.27-.59.55-.45.89-.11Z"/>
      <path class="cls-5" d="M223.11,95.93c-.04-.26-.05-.52.04-.77.23-.58-.22-.46-.52-.51.5-.34,1.03-.2,1.55-.11.27.04.52.17.51.52,0,.34-.18.58-.51.66-.36.09-.72.15-1.08.22Z"/>
      <path class="cls-5" d="M230.44,94.65c.11-.34.35-.58.57-.83.37.03.76-.02.99.38-.02.61-.34,1.06-.79,1.45-.03-.51-.11-.98-.78-.99Z"/>
      <path class="cls-5" d="M230.07,93.31c-.24.21-.24.61-.58.75-.3-.27-.59-.54-.89-.81.18-.43.48-.77.83-1.07.22.37.29.82.64,1.12Z"/>
      <path class="cls-7" d="M215.86,107.6c-.25.44-.12.94-.21,1.41-.31-.04-.58-.27-.91-.23.08-.87.23-1.02,1.13-1.18Z"/>
      <path class="cls-5" d="M223.06,96.72c-.23-.21-.35-.42-.06-.68.02.22.04.45.06.68Z"/>
      <path class="cls-5" d="M229.4,94.22c0,.13-.06.2-.17.24,0-.12.06-.2.17-.24Z"/>
      <path class="cls-6" d="M230.07,93.31c-.34-.3-.41-.76-.64-1.12.32-.35.04-.62-.11-.91-1.18-2.27-.83-4.77.92-6.61,2.95-3.1,8.08-1.89,9.38,2.22,1.28,4.05-2.25,8.25-6.45,7.25-.42-.1-.79-.07-1.17.07-.23-.4-.62-.35-.99-.38.07-.12.16-.23.21-.35.15-.39-.16-.56-.41-.72-.25-.16-.34.11-.47.25-.09.1-.18.2-.27.3ZM234.3,84.17c-2.02-.26-4.5,1.76-4.47,4.33.02,2.48,1.91,4.5,4.32,4.53,2.48.04,4.47-1.88,4.51-4.33.03-2.58-1.82-4.52-4.36-4.54Z"/>
      <path class="cls-8" d="M234.3,84.17c2.54.02,4.39,1.96,4.36,4.54-.03,2.45-2.03,4.36-4.51,4.33-2.41-.04-4.3-2.05-4.32-4.53-.02-2.57,2.45-4.59,4.47-4.33ZM231.5,86.37c-.22.56-.9.86-.85,1.56.03.48,0,.96,0,1.43,0,.45.11.9.38,1.25,1.38,1.83,4.35,2.34,5.93.32.83-1.06,1.16-2.21.67-3.52-.09-.23-.2-.43-.39-.58-.14-.11-.3-.17-.47-.07-.13.07-.17.21-.15.35.02.13.05.26.09.4.26,1.05,0,1.94-.83,2.66-.74.66-1.85.8-2.86.33-.82-.39-1.47-1.41-1.32-2.31.11-.63,0-1.2-.2-1.82ZM233.87,85.22c-.95,0-1.75.62-1.75,1.35,0,.79.6,1.32,1.5,1.31.84,0,1.58-.75,1.55-1.57-.03-.74-.45-1.09-1.3-1.09Z"/>
      <path class="cls-2" d="M231.5,86.37c.21.62.31,1.19.2,1.82-.15.9.5,1.92,1.32,2.31,1.01.48,2.11.33,2.86-.33.83-.73,1.09-1.61.83-2.66-.03-.13-.07-.26-.09-.4-.02-.14.02-.28.15-.35.17-.09.33-.04.47.07.19.15.31.35.39.58.48,1.31.16,2.46-.67,3.52-1.58,2.02-4.55,1.51-5.93-.32-.27-.35-.38-.8-.38-1.25,0-.48.03-.96,0-1.43-.05-.7.62-.99.85-1.56Z"/>
      <path class="cls-3" d="M233.87,85.22c.85,0,1.27.35,1.3,1.09.03.82-.71,1.57-1.55,1.57-.9,0-1.5-.52-1.5-1.31,0-.73.8-1.34,1.75-1.35Z"/>
    </g>
  </g>
</svg>