<?xml version="1.0" encoding="UTF-8"?>
<svg id="GRIFOS" xmlns="http://www.w3.org/2000/svg" viewBox="0 0 458.93 422.16">
  <defs>
    <style>
      .cls-1 {
        fill: #abb063;
      }

      .cls-1, .cls-2, .cls-3, .cls-4, .cls-5, .cls-6, .cls-7, .cls-8, .cls-9, .cls-10, .cls-11, .cls-12, .cls-13 {
        stroke-width: 0px;
      }

      .cls-2 {
        fill: #e78f3c;
      }

      .cls-3 {
        fill: #f1a196;
      }

      .cls-4 {
        fill: #f9ebd6;
      }

      .cls-5 {
        fill: #df6258;
      }

      .cls-6 {
        fill: #f4f1e8;
      }

      .cls-7 {
        fill: #f2ae32;
      }

      .cls-8 {
        fill: #e9c474;
      }

      .cls-9 {
        fill: #dc3431;
      }

      .cls-10 {
        fill: #e3c8a7;
      }

      .cls-11 {
        fill: #c0cfd6;
      }

      .cls-12 {
        fill: #fefdfc;
      }

      .cls-13 {
        fill: #1a1717;
      }
    </style>
  </defs>
  <g id="Expressions">
    <g id="E6">
      <path class="cls-13" d="M206.43,36.53c-.81-5.89-1.07-11.46.17-17,.92-4.12,2.68-7.82,5.7-10.84,6.7-6.7,16.92-5.81,22.32,1.94.76,1.1,1.15,2.77,2.16,3.28.98.5,2.55-.19,3.86-.3,6.29-.54,12.08,4.13,13.24,12.12.62,4.28.07,8.46-1.62,12.66,3.84,1.46,7.64,2.99,11.32,4.81,14.71,7.27,25.98,18.23,34.53,32.1,8.26,13.4,12.8,28.13,15.55,43.51.78,4.4,1.46,8.79,1.23,13.26-.07,1.35.51,1.91,1.66,2.09,2.16.33,4.21,1,6.2,1.88,2.73,1.2,4.09,3.08,4.06,6.26-.12,14.39-.08,28.78-.08,43.18,0,1.55,0,3.11.09,4.66.13,2.48-1.07,4.12-3.16,5.24-3.33,1.78-6.95,2.54-10.66,3-4.46.55-8.89.38-13.32-.26-.85-.12-1.32-.1-1.63.82-.67,2.05-2.39,3.03-4.22,3.84-2.47,1.11-5.06,1.82-7.74,2.13-7.04.81-14.04.92-20.85-1.46-.97-.34-1.91-.77-2.85-1.2-2.39-1.09-3.74-2.86-3.61-5.59.03-.61-.07-1.22-.12-1.97-3.03.64-5.95,1.26-8.87,1.87-8.56,1.78-17.24,2.19-25.95,2.09-13.33-.15-26.37-2.21-39-6.46-14.18-4.77-26.57-12.31-36.02-24.16-8.99-11.27-12.71-24.21-12.07-38.5.54-12,3.62-23.47,7.59-34.7,4.32-12.21,10.7-23.27,19.27-33.01,10.75-12.21,24.1-20.23,39.78-24.46.99-.27,1.97-.54,3.04-.83ZM248.92,26.13l.02.03c-.18-5.14-4.43-8.09-8.09-7.9-2.25.12-2.59.55-2.4,3.07-.07,1.43-.11,2.87-.23,4.3-.05.6-.19,1.22-.42,1.77-.3.72-.95,1.12-1.72,1.05-.78-.07-.8-.78-.93-1.39-.39-1.8-.5-3.67-1.38-5.34.08-.65.08-1.28-.44-1.78h0c-.41-3.15-1.68-5.91-4-8.14-4.47-4.31-10.48-3.92-14.28,1.03-4.63,6.04-5.53,12.91-4.11,20.21.42,6.3,2.51,12.11,5.42,17.61,1.78,3.37,3.95,6.56,6.81,9.17,1.19,1.09,1.54.97,2.17-.51.24-.57.43-1.16.63-1.75,1.53-4.66,3.77-8.95,6.81-12.79,2.91-3.68,6.45-6.38,11.33-6.86,3.54-.35,3.68-.5,4.55-3.86.21-.8.37-1.61.26-2.45.58-1.83.67-3.66,0-5.48ZM314.98,180.62h.08c2.18-.18,4.27-.75,6.26-1.64,2.67-1.19,2.87-1.79,1.86-4.89-3.15,2.01-6.85,2.08-10.31,3.03-4.12-.03-8.24.31-12.35-.35-2.01-.33-3.02,1.13-2.17,2.98.51,1.11,1.67,1.11,2.67,1.2,4.22.38,8.44.67,12.65-.04.48.09.94.11,1.32-.28ZM315.52,194.74c2.34.07,4.42-.81,6.42-1.86,1.93-1.02,2.09-1.66,1.38-4.4-2.44,1.41-5.2,1.78-7.81,2.64-1.02.12-2.03.32-3.05.36-4.02.17-8.04.39-12.04-.35-1.88-.35-2.35.22-2.23,2.13.08,1.35.91,1.79,2.01,1.91,2.05.22,4.11.5,6.17.49,3.07-.02,6.18.05,9.16-.91ZM310.44,136.69c-3.94-.66-7.83.02-11.72.48-2.05.24-4.09.67-5.94,1.67-.9.49-2.06.92-2.19,2.03-.16,1.29,1.2,1.53,2.02,2.06.51.32,1.13.46,1.7.68,3.78,1.57,7.72,2.15,11.79,1.89,4.81.46,9.44-.44,14-1.87.78-.24,1.53-.63,2.23-1.05,1.69-1.03,1.77-1.93.26-3.03-1.35-.98-2.98-1.92-4.53-1.69-1.34.2-2.01-.7-3.04-.8-1.5-.37-3.03-.38-4.57-.37ZM276.8,172.2c-1.85-.22-3.69-.05-5.51.19-2.84.38-5.67.92-8.15,2.49-1.54.98-1.57,1.76-.16,2.79.82.6,1.68,1.17,2.72,1.34,5.65,2.1,11.49,2.4,17.42,1.85,3.61-.34,7.18-.85,10.38-2.73,2.1-1.23,2.08-2.36-.02-3.54-2.19-1.23-4.62-1.71-7.07-2.11-3.2-.3-6.39-.64-9.61-.28ZM287.49,197.79c-.63.04-1.25.07-1.88.11-1.1-.1-2.17-.07-3.19.44-6.92.12-13.75-.33-20.24-3.14-.54,3.12-.13,3.91,3.08,5.04,7.07,2.47,14.29,2.7,21.6,1.24,2.3-.14,4.46-.85,6.49-1.89,2.06-1.05,2.29-1.79,1.64-4.53-2.33,1.44-5.1,1.55-7.5,2.73ZM314.84,169.69c-8.18.41-16.36.86-24.16-2.84-.32,1.44-.79,2.93.68,3.46,2.63.95,4.88,2.77,7.7,3.21,5.46.86,10.92,1.07,16.36-.16,2.17-.24,4.24-.84,6.19-1.8,2.3-1.13,2.41-1.44,1.67-4.49-2.65,1.44-5.63,1.75-8.44,2.63ZM209.1,46.66h0c-.51-1.75-1.03-3.52-1.54-5.28-15.46,3.17-30.24,11.96-40.59,24.08-7.65,8.96-13.53,18.98-17.63,30-2.37,6.37-4.32,12.9-5.49,19.62-.05.35-.1.7-.14,1.04-.88,2.5-1.24,5.1-1.34,7.73-.8,2.64-.57,5.35-.54,8.05-.07.3-.22.6-.21.9.14,10.04,2.54,19.43,8.07,27.92,6.94,10.64,16.59,18.09,27.97,23.32,14.69,6.75,30.32,9.45,46.39,9.89,6.53.18,13.05-.39,19.52-1.2,4.5-.56,8.98-1.41,13.37-2.64,1.2-.34,1.95-.79,1.85-2.31-.19-2.89-.15-5.79-.21-8.69-.32-4.23,1.77-6.79,5.64-8.12.49-.17.97-.35,1.46-.49,5.29-1.54,10.73-1.85,16.2-1.94.49.15.97.39,1.47.44,4.7.53,4.1.46,3.85-3.58.06-1.13.16-2.25.16-3.38,0-6.49.06-12.97-.09-19.46-.08-3.38,1.55-5.36,4.44-6.67,2.06-.93,4.29-1.26,6.4-2.01,3.25-.23,6.51-.56,9.76-.64,1.56-.04,2.28-.43,2.01-2.05-.07-.4-.08-.81-.12-1.21,0-.41,0-.83,0-1.24-.03-3.74-.53-7.4-1.65-10.98.34-.3.17-.56-.08-.8-.17-2.83-.83-5.55-1.69-8.24l-.27-1.09c-.09-.99-.03-2.05-1.13-2.62.03-.17,0-.34-.06-.5.56-1.18-.09-2.22-.44-3.26-3.39-10-7.59-19.6-13.76-28.28-10.27-14.44-23.56-24.7-40.55-30.05-4.7-1.48-8.72-.47-12.12,3.08-2.26,1.89-3.74,4.37-5.08,6.92-1.88,3.55-3.12,7.38-4.52,11.14-1.04,2.8-2.47,3.3-4.95,1.71-2.27-1.46-4.18-3.34-5.98-5.34-3.33-3.73-5.61-8.1-7.84-12.51.05-.52-.08-.97-.53-1.28ZM262.17,188.29c-.93,2.78.1,3.65,2.68,4.64,5.91,2.27,12.06,2.66,18.29,2.08,3.39-.31,6.76-.86,9.89-2.32,2.38-1.11,2.56-1.62,1.97-4.55-10.93,4.06-21.88,4.08-32.83.14ZM290.77,152.92c-.44,2.7-.28,3.17,1.75,4.23.81.42,1.7.73,2.58,1,5.3,1.65,10.75,2.01,16.24,1.5,3.48-.32,6.99-.75,10.19-2.37,2.31-1.17,2.43-1.45,1.85-4.41-12.16,3.96-18.71,3.97-32.6.06ZM290.8,145.74c-.18.28-.28.37-.28.45-.07,2.74.97,3.87,4.45,4.89,4.19,1.22,8.49,1.8,12.83,1.72,4.75-.08,9.48-.59,13.84-2.71,2.29-1.11,2.41-1.6,1.59-4.29-10.79,3.93-21.56,3.95-32.43-.06ZM295.13,181.17c-11.13,3.94-22.04,3.96-32.91-.15-.44,2.92-.34,3.24,1.79,4.32,1,.51,2.09.89,3.17,1.21,5.75,1.66,11.64,1.81,17.54,1.21,2.86-.29,5.71-.95,8.33-2.28,2.35-1.2,2.35-1.18,2.09-4.31ZM323.49,159.94c-11.08,4.43-21.91,3.89-32.72,0-.59,2.89-.46,3.27,1.84,4.4.92.45,1.9.81,2.89,1.09,6.48,1.87,13.06,1.75,19.66.79,2.04-.3,4.07-.72,5.98-1.53,2.53-1.08,2.78-1.62,2.36-4.74ZM323.36,181.47c-4.45,1.75-9.07,2.65-13.83,2.85-3.22.13-6.4-.12-9.59-.43-.61-.06-1.22-.3-1.6.46-.75,1.51.01,3.21,1.61,3.51,4.09.78,8.24.87,12.35.37,3.26-.4,6.58-.81,9.56-2.41,2.11-1.13,2.19-1.38,1.5-4.34Z"/>
      <path class="cls-4" d="M308.02,116.97c.25.25.42.5.08.8-.34,3.79.44,7.42,1.65,10.98,0,.41,0,.83,0,1.24-1.79,1.98-4.06,2.68-6.67,2.5-.71-.05-1.43-.02-2.14,0-1.15.04-2.23.24-2.84,1.39-2.11.75-4.34,1.08-6.4,2.01-2.89,1.31-4.51,3.29-4.44,6.67.14,6.48.08,12.97.09,19.46,0,1.13-.1,2.25-.16,3.38-1.4.62-2.79,1.3-4.22,1.85-.67.25-1.04.6-1.1,1.29-5.47.09-10.91.4-16.2,1.94-.49.14-.98.33-1.46.49-3.86,1.33-5.95,3.89-5.64,8.12-5.25.61-10.27,2.25-15.45,3.21,1.71-6.17-.27-11.78-2.83-17.42,1.3-.64,2.5-1.22,3.69-1.81,5.71-2.8,10.26-6.9,13.69-12.24,3.41-5.3,5.38-11.12,6.54-17.27.86-4.57-.58-7.08-5.06-8.46-2.27-.7-4.56-1.31-6.85-1.93-4.4-1.17-8.21-3.28-11.25-6.73-1.85-2.09-3.95-3.95-6.26-5.53-5.99-4.1-12.98-3.83-18.73.58-2.64,2.02-4.92,4.42-7.23,6.78-1.69,1.73-3.63,2.97-5.94,3.77-3.31,1.16-6.72,1.96-10.07,2.97-4.56,1.39-6.06,3.72-5.31,8.33.38,2.34.86,4.67,1.62,6.93,3.37,9.98,9.06,18.04,18.76,22.8,1.08.53,2.19,1.02,3.43,1.6-2.34,5.25-4.19,10.49-3.38,16.25-.9,1.07-2.13.78-3.18.55-5.13-1.14-10.27-2.29-15.32-3.78-7.1-2.1-13.53-5.56-19.92-9.23-7.52-4.32-13.54-10.17-18.49-17.14-3.86-5.43-6.44-11.52-7.89-18.05-.18-.81-.38-1.38-1.31-1.38-.04-2.7-.26-5.41.54-8.05,1.72-2.36,1.37-5.07,1.34-7.73.05-.35.1-.7.14-1.04.24-.2.66-.37.69-.59.38-3.56,3.09-6.28,3.15-10.11.04-2.81,1.82-5.62,3.08-8.16,2.56-5.12,4.55-10.56,8.05-15.25,1.71-2.29,3.13-4.89,5.19-6.85,3.8-3.62,6.78-8.04,11.06-11.18,2.82-2.07,5.34-4.62,8.36-6.3,4.74-2.65,9.48-5.42,14.66-7.19,3.59-1.22,7.13-2.72,11.02-2.78,0,0,0-.01,0-.01.01.5.08.97.53,1.28,2.23,4.41,4.51,8.78,7.84,12.51,1.79,2.01,3.71,3.89,5.98,5.34,2.48,1.59,3.9,1.09,4.95-1.71,1.4-3.76,2.64-7.59,4.52-11.14,1.35-2.54,2.82-5.03,5.08-6.92,3.63.74,7.28,1.34,10.87,2.23,6.86,1.71,13.09,4.89,19.16,8.46,4.95,2.91,9.25,6.53,13.15,10.7,1.91,2.04,3.93,3.97,5.92,5.93.82.8,1.58,1.64,2.02,2.72,1.46,3.58,4.43,6.12,6.4,9.37,1.93,3.16,4.22,6.1,3.79,10.12-.05.47,0,.95,0,1.57,1.61-1.22,1.79-1.21,1.81.03.02,1.45.38,2.62,1.51,3.55.66.55,1.03,1.26,1.06,2.15.02.8.51,1.32,1.2,1.68.06.16.08.33.06.5.09,1-.49,2.28,1.13,2.62.09.36.18.73.27,1.09-1.81,2.32-.72,5.57,1.69,8.24ZM259,108.52c-2.29-.65-3.81-1.63-4.93-3.16-.62-.84-1.22-1.68-2.04-2.31-1.76-1.36-4.09-1.41-5.75-.15-1.53,1.15-1.9,2.81-1.04,5.04,1.05,2.74,2.97,4.69,5.61,5.93,2.06.97,4.18,1.78,6.5,1.9,1.1.06,1.75.49,1.68,1.72-.03.51-.02,1.04.11,1.53.42,1.65,1.44,2.36,3.17,2.35,1.55,0,2.56-.69,2.94-2.22.1-.4.24-.82.2-1.22-.16-1.54.36-2.17,2.03-2.31,2.15-.18,4.23-.97,6.15-2.01,4.15-2.25,5.96-5.87,5.94-10.48-.03-4.47-2.13-7.69-6.14-9.61-1.95-.94-4.01-1.66-6.15-2.03-.87-.15-1.76-.29-1.8-1.33-.11-2.82-.12-5.64-.02-8.73.9.4,1.4.54,1.81.82.51.34.96.78,1.4,1.21.59.58,1.11,1.24,1.73,1.78,1.74,1.53,4.41,1.66,5.96.33,1.57-1.34,1.76-3.45.51-5.66-.62-1.11-1.5-1.95-2.51-2.71-2.11-1.6-4.54-2.55-7.09-2.94-1.58-.24-2.06-.71-2.07-2.29,0-2.18-.76-2.87-2.63-3.02-1.97-.16-3.07.7-3.52,2.68-.18.77.25,1.66-.43,2.36-2.74.14-5.23,1.03-7.61,2.37-6.95,3.92-7.01,15.27-.09,18.89,2.13,1.12,4.34,1.89,6.65,2.45,1.1.27,1.49.82,1.46,1.96-.07,2.79-.02,5.58-.02,8.85ZM186.59,108.64c-2.22-.55-3.83-1.53-4.89-3.31-.65-1.09-1.49-1.98-2.57-2.64-1.73-1.07-4.1-.96-5.5.23-1.46,1.25-1.8,2.99-.97,5.08.51,1.27,1.35,2.33,2.31,3.27,2.44,2.4,5.52,3.59,8.77,4.34,2.42.56,2.44.49,2.77,2.85.32,2.3,1.73,3.32,3.9,2.8,1.5-.36,2.49-1.44,2.35-2.87-.22-2.28.85-2.63,2.77-2.9,2.23-.32,4.39-1.17,6.3-2.46,3.74-2.53,5.47-6.13,5.22-10.59-.25-4.44-2.59-7.48-6.68-9.25-1.91-.82-3.86-1.42-5.9-1.81-.95-.18-1.73-.5-1.69-1.78.08-2.64.02-5.28.02-8.17,1.73.46,2.73,1.3,3.66,2.26.72.74,1.44,1.51,2.29,2.07,1.54,1.03,3.6.89,4.93-.18,1.43-1.16,1.83-2.82,1.01-4.75-.79-1.85-2.09-3.28-3.83-4.33-1.97-1.19-4.08-2.09-6.35-2.27-1.56-.12-1.89-.7-1.84-2.09.04-1.42-.43-2.62-1.99-3.13-2.32-.76-4.05.35-4.11,2.89-.03,1.45-.22,2.23-1.96,2.34-1.95.12-3.81.92-5.53,1.88-3.82,2.14-5.99,5.41-5.92,9.83.07,4.39,2.09,7.71,6.1,9.69,1.85.92,3.78,1.7,5.83,2,1.2.17,1.53.74,1.51,1.85-.05,2.97-.02,5.94-.02,9.15ZM281.02,132.46c.86,0,1.7.11,2.51-.02,3.14-.5,6.36-.8,8.84-3.2,2.74-2.65,2.59-5.23-.62-7.35-4.33-2.86-9.11-3.73-14.18-2.75-2.95.57-5.83,1.38-8.06,3.6-2.47,2.47-2.39,4.61.41,6.71.97.73,2.12,1.3,3.28,1.7,2.53.88,5.13,1.59,7.83,1.3ZM171.29,132.5c3.06.17,6.14-.51,9.04-2.07,1.96-1.05,3.29-2.43,3.31-4.82.02-2.49-1.57-3.85-3.51-4.65-6.86-2.82-13.69-2.96-20.22,1.02-2.95,1.8-3.21,4.58-.72,6.96.59.56,1.31,1.01,2.02,1.42,3.06,1.74,6.4,2.24,10.09,2.15Z"/>
      <path class="cls-10" d="M243.14,182.31c5.17-.96,10.2-2.6,15.45-3.21.06,2.9.02,5.8.21,8.69.1,1.52-.65,1.97-1.85,2.31-4.39,1.24-8.87,2.08-13.37,2.64-6.47.81-12.99,1.38-19.52,1.2-16.06-.45-31.69-3.14-46.39-9.89-11.39-5.23-21.04-12.69-27.97-23.32-5.54-8.49-7.93-17.88-8.07-27.92,0-.3.14-.6.21-.9.93,0,1.12.57,1.31,1.38,1.46,6.52,4.04,12.62,7.89,18.05,4.95,6.96,10.97,12.82,18.49,17.14,6.39,3.67,12.82,7.13,19.92,9.23,5.05,1.49,10.19,2.63,15.32,3.78,1.06.24,2.28.52,3.18-.55.12.16.28.31.35.5,2.86,7.5,9.82,9.58,16.12,4.71,1.18-.91,1.72-.83,2.81.07,5.23,4.33,12.66,2.91,15.4-3.16.12-.27.34-.5.52-.74Z"/>
      <path class="cls-9" d="M233.78,21.73c.88,1.67,1,3.54,1.38,5.34.13.61.15,1.32.93,1.39.77.07,1.42-.33,1.72-1.05.23-.56.37-1.17.42-1.77.12-1.43.16-2.87.23-4.3.51-.04,1.01-.06,1.52-.12,3.65-.5,6.26,1.07,8.19,4.05.21.33.52.6.78.9,0,0-.02-.03-.02-.03,0,1.83,0,3.66,0,5.48.11.84-.05,1.64-.26,2.45-.87,3.36-1.01,3.51-4.55,3.86-4.88.48-8.42,3.19-11.33,6.86-3.04,3.84-5.27,8.14-6.81,12.79-.19.59-.39,1.18-.63,1.75-.62,1.48-.98,1.6-2.17.51-2.86-2.61-5.03-5.8-6.81-9.17-2.91-5.5-5-11.31-5.42-17.61.2-4.12.6-8.18,2.43-11.98,1.78-3.69,4.16-6.8,8.5-7.26,4.47-.48,8.04,1.31,10.21,5.43.27.52.7.71,1.25.73,0,0,0-.01,0-.01.01.63-.04,1.27.44,1.78Z"/>
      <path class="cls-6" d="M304.87,104.53c-.69-.35-1.17-.88-1.2-1.68-.03-.89-.4-1.61-1.06-2.15-1.13-.93-1.49-2.11-1.51-3.55-.02-1.24-.2-1.24-1.81-.03,0-.62-.04-1.1,0-1.57.43-4.01-1.86-6.95-3.79-10.12-1.98-3.24-4.94-5.79-6.4-9.37-.44-1.08-1.2-1.91-2.02-2.72-1.99-1.96-4.01-3.89-5.92-5.93-3.9-4.17-8.2-7.79-13.15-10.7-6.07-3.57-12.3-6.75-19.16-8.46-3.59-.89-7.24-1.5-10.87-2.23,3.4-3.55,7.42-4.56,12.12-3.08,16.99,5.34,30.28,15.61,40.55,30.05,6.17,8.68,10.37,18.27,13.76,28.28.35,1.05,1.01,2.08.44,3.26Z"/>
      <path class="cls-6" d="M209.11,46.67c-3.89.06-7.44,1.56-11.02,2.78-5.18,1.77-9.91,4.54-14.66,7.19-3.02,1.68-5.54,4.24-8.36,6.3-4.28,3.14-7.27,7.56-11.06,11.18-2.06,1.97-3.48,4.56-5.19,6.85-3.5,4.69-5.49,10.13-8.05,15.25-1.27,2.53-3.04,5.35-3.08,8.16-.05,3.83-2.77,6.56-3.15,10.11-.02.22-.45.39-.69.59,1.17-6.72,3.12-13.25,5.49-19.62,4.1-11.02,9.98-21.04,17.63-30,10.35-12.12,25.13-20.91,40.59-24.08.51,1.76,1.03,3.52,1.54,5.29Z"/>
      <path class="cls-7" d="M262.17,188.29c10.96,3.94,21.91,3.92,32.83-.14.59,2.93.41,3.44-1.97,4.55-3.13,1.45-6.49,2-9.89,2.32-6.23.58-12.39.19-18.29-2.08-2.58-.99-3.61-1.87-2.68-4.64Z"/>
      <path class="cls-7" d="M290.77,152.92c13.9,3.91,20.44,3.9,32.6-.06.58,2.96.46,3.24-1.85,4.41-3.2,1.62-6.7,2.05-10.19,2.37-5.49.51-10.93.14-16.24-1.5-.88-.27-1.77-.57-2.58-1-2.03-1.06-2.2-1.53-1.75-4.23Z"/>
      <path class="cls-7" d="M290.8,145.74c10.86,4.02,21.64,3.99,32.43.06.82,2.69.7,3.18-1.59,4.29-4.36,2.11-9.09,2.62-13.84,2.71-4.34.08-8.64-.5-12.83-1.72-3.48-1.02-4.51-2.15-4.45-4.89,0-.09.1-.17.28-.45Z"/>
      <path class="cls-7" d="M295.13,181.17c.27,3.12.26,3.11-2.09,4.31-2.62,1.34-5.46,1.99-8.33,2.28-5.89.6-11.78.45-17.54-1.21-1.08-.31-2.17-.7-3.17-1.21-2.13-1.08-2.23-1.4-1.79-4.32,10.87,4.11,21.77,4.08,32.91.15Z"/>
      <path class="cls-7" d="M323.49,159.94c.42,3.13.17,3.67-2.36,4.74-1.91.81-3.93,1.23-5.98,1.53-6.6.96-13.17,1.09-19.66-.79-.99-.28-1.97-.64-2.89-1.09-2.3-1.13-2.44-1.51-1.84-4.39,10.81,3.89,21.64,4.43,32.72,0Z"/>
      <path class="cls-5" d="M233.34,19.97c-.55-.01-.98-.21-1.25-.73-2.17-4.11-5.73-5.91-10.21-5.43-4.33.46-6.72,3.58-8.5,7.26-1.83,3.8-2.23,7.86-2.43,11.98-1.42-7.3-.52-14.17,4.11-20.21,3.8-4.95,9.81-5.34,14.28-1.03,2.31,2.23,3.59,4.98,4,8.15Z"/>
      <path class="cls-7" d="M323.36,181.47c.7,2.96.61,3.2-1.5,4.34-2.98,1.6-6.29,2.01-9.56,2.41-4.11.5-8.25.42-12.35-.37-1.6-.31-2.36-2.01-1.61-3.51.37-.75.98-.52,1.6-.46,3.19.32,6.37.56,9.59.43,4.77-.19,9.38-1.1,13.83-2.85Z"/>
      <path class="cls-7" d="M315.43,173.36c-5.44,1.23-10.9,1.03-16.36.16-2.82-.45-5.08-2.26-7.7-3.21-1.47-.53-1-2.02-.68-3.46,7.8,3.71,15.98,3.25,24.16,2.84.67.54.74,1.21.36,1.93-.35.65-.04,1.19.23,1.74Z"/>
      <path class="cls-7" d="M315,137.07c1.03.1,1.7,1,3.04.8,1.55-.24,3.18.71,4.53,1.69,1.51,1.1,1.43,2-.26,3.03-.7.43-1.45.81-2.23,1.05-4.55,1.43-9.19,2.33-14,1.87-.59-.98-1.93-.19-2.88-1.12,1.95-1.15,3.73-2.13,5.43-3.22,2.12-1.36,4.65-2.1,6.37-4.1Z"/>
      <path class="cls-7" d="M286.41,172.48c2.45.4,4.88.87,7.07,2.11,2.1,1.18,2.12,2.3.02,3.54-3.19,1.88-6.76,2.4-10.38,2.73-1.65-.94-3.46-.23-5.17-.48-.83-.12-1.82.39-2.65-.6,2.25-2.23,4.98-3.48,7.57-4.95,1.23-.7,2.81-.88,3.53-2.35Z"/>
      <path class="cls-7" d="M286.87,201.48c-7.31,1.46-14.54,1.23-21.6-1.24-3.22-1.12-3.62-1.92-3.08-5.04,6.48,2.81,13.32,3.26,20.24,3.14,1.09.04,2.21.34,3.19-.44.63-.04,1.25-.07,1.88-.11-.75,1.14-.62,2.42-.62,3.69Z"/>
      <path class="cls-8" d="M286.41,172.48c-.72,1.46-2.3,1.65-3.53,2.35-2.59,1.47-5.32,2.72-7.57,4.95.83.99,1.82.48,2.65.6,1.71.25,3.52-.46,5.17.48-5.93.56-11.77.25-17.42-1.85,3.86-1.36,6.99-4.1,10.71-5.73.42-.18.38-.67.38-1.08,3.22-.36,6.41-.02,9.61.28Z"/>
      <path class="cls-8" d="M315,137.07c-1.71,2-4.24,2.73-6.37,4.1-1.7,1.09-3.48,2.07-5.43,3.22.95.93,2.29.14,2.88,1.12-4.07.26-8.01-.32-11.79-1.89,2.68-1.09,5.17-2.55,7.55-4.15,2.64-1.77,5.33-3.04,8.58-2.78,1.53-.01,3.07,0,4.57.37Z"/>
      <path class="cls-7" d="M315.52,194.74c-2.99.97-6.09.9-9.16.91-2.06.01-4.12-.27-6.17-.49-1.1-.12-1.93-.56-2.01-1.91-.11-1.91.35-2.48,2.23-2.13,4,.74,8.02.52,12.04.35,1.02-.04,2.04-.24,3.05-.36,0,1.21,0,2.41.01,3.62Z"/>
      <path class="cls-7" d="M313.66,180.91c-4.21.71-8.43.42-12.65.04-1-.09-2.16-.1-2.67-1.2-.85-1.85.16-3.3,2.17-2.98,4.11.67,8.23.33,12.35.35q2.76.43,2.21,3.21c-.02.1-.02.2-.03.31,0,0-.08,0-.08,0-.51-.23-.96-.18-1.32.29Z"/>
      <path class="cls-7" d="M310.44,136.69c-3.25-.27-5.95,1.01-8.58,2.78-2.38,1.59-4.87,3.06-7.55,4.15-.57-.22-1.2-.36-1.7-.68-.83-.53-2.18-.77-2.02-2.06.13-1.11,1.29-1.55,2.19-2.03,1.85-1,3.89-1.43,5.94-1.67,3.89-.46,7.78-1.13,11.72-.48Z"/>
      <path class="cls-7" d="M276.8,172.2c0,.41.05.9-.38,1.08-3.73,1.62-6.85,4.37-10.71,5.73-1.05-.16-1.91-.74-2.72-1.34-1.41-1.03-1.38-1.82.16-2.79,2.48-1.57,5.31-2.11,8.15-2.49,1.81-.24,3.66-.42,5.51-.19Z"/>
      <path class="cls-2" d="M315.05,180.63c0-.1,0-.21.03-.31q.54-2.78-2.21-3.21c3.46-.95,7.15-1.02,10.31-3.03,1.01,3.1.8,3.7-1.86,4.89-1.99.89-4.08,1.45-6.26,1.64Z"/>
      <path class="cls-2" d="M315.52,194.74c0-1.21,0-2.41-.01-3.62,2.61-.86,5.36-1.23,7.81-2.64.71,2.73.55,3.37-1.38,4.4-2,1.06-4.08,1.93-6.42,1.86Z"/>
      <path class="cls-2" d="M286.87,201.48c0-1.26-.13-2.55.62-3.69,2.4-1.19,5.18-1.29,7.5-2.73.66,2.74.43,3.48-1.64,4.53-2.03,1.04-4.18,1.74-6.49,1.89Z"/>
      <path class="cls-2" d="M315.43,173.36c-.27-.55-.58-1.09-.23-1.74.38-.72.31-1.39-.36-1.93,2.81-.88,5.79-1.19,8.44-2.63.74,3.05.63,3.36-1.67,4.49-1.95.96-4.02,1.56-6.19,1.8Z"/>
      <path class="cls-5" d="M248.94,26.16c-.26-.3-.57-.57-.78-.9-1.93-2.98-4.54-4.55-8.19-4.05-.5.07-1.01.08-1.52.12-.19-2.52.14-2.95,2.4-3.07,3.66-.19,7.91,2.76,8.09,7.9Z"/>
      <path class="cls-10" d="M281.88,168.55c.07-.69.43-1.03,1.1-1.29,1.43-.54,2.82-1.22,4.22-1.85.25,4.04.85,4.11-3.85,3.58-.5-.06-.98-.29-1.47-.44Z"/>
      <path class="cls-6" d="M298.11,133.9c.61-1.15,1.69-1.35,2.84-1.39.71-.03,1.43-.05,2.14,0,2.61.18,4.88-.52,6.67-2.5.04.4.05.81.12,1.21.28,1.62-.44,2.02-2.01,2.05-3.26.08-6.51.41-9.76.64Z"/>
      <path class="cls-6" d="M308.02,116.97c-2.41-2.67-3.51-5.92-1.69-8.24.86,2.69,1.53,5.41,1.69,8.24Z"/>
      <path class="cls-6" d="M309.75,128.76c-1.21-3.56-1.98-7.19-1.65-10.98,1.12,3.57,1.62,7.24,1.65,10.98Z"/>
      <path class="cls-6" d="M143.71,116.13c.02,2.66.37,5.38-1.34,7.73.1-2.64.46-5.23,1.34-7.73Z"/>
      <path class="cls-5" d="M248.92,31.61c0-1.83,0-3.66,0-5.48.66,1.83.58,3.66,0,5.48Z"/>
      <path class="cls-6" d="M306.06,107.64c-1.62-.33-1.04-1.62-1.13-2.62,1.1.56,1.04,1.62,1.13,2.62Z"/>
      <path class="cls-1" d="M285.61,197.89c-.97.78-2.1.48-3.19.44,1.01-.51,2.09-.54,3.19-.44Z"/>
      <path class="cls-5" d="M233.78,21.73c-.48-.51-.43-1.15-.44-1.78.52.5.52,1.13.44,1.78Z"/>
      <path class="cls-6" d="M209.63,47.94c-.45-.32-.52-.79-.53-1.28.45.31.58.76.53,1.28Z"/>
      <path class="cls-2" d="M313.66,180.91c.36-.47.81-.51,1.32-.29-.37.4-.84.37-1.32.29Z"/>
      <path class="cls-13" d="M243.14,182.31c-.17.25-.39.47-.52.74-2.74,6.07-10.17,7.49-15.4,3.16-1.09-.9-1.63-.98-2.81-.07-6.3,4.87-13.25,2.79-16.12-4.71-.07-.18-.23-.33-.35-.5-.81-5.76,1.04-11,3.38-16.24-1.24-.58-2.35-1.07-3.43-1.6-9.7-4.76-15.39-12.82-18.76-22.8-.76-2.26-1.24-4.59-1.62-6.93-.75-4.61.75-6.94,5.31-8.33,3.35-1.02,6.76-1.82,10.07-2.97,2.31-.81,4.25-2.04,5.94-3.77,2.31-2.36,4.59-4.76,7.23-6.78,5.75-4.41,12.74-4.68,18.73-.58,2.31,1.58,4.41,3.43,6.26,5.53,3.05,3.45,6.86,5.55,11.25,6.73,2.29.61,4.58,1.23,6.85,1.93,4.47,1.38,5.91,3.89,5.06,8.46-1.15,6.15-3.13,11.98-6.54,17.27-3.44,5.34-7.98,9.44-13.69,12.24-1.19.59-2.38,1.17-3.69,1.81,2.57,5.64,4.54,11.25,2.83,17.42ZM223.5,181.02l-.07.06c.4-.08.55-.36.59-.73v.03c.45-.3.61-.74.63-1.26.67-.63,1.25-1.84,2.1-.08.55,1.15.94,2.46,2.13,3.2,1.87,2.36,4.33,3.15,7.12,2.19,2.84-.98,3.62-3.44,3.66-6.19.03-2.37-.07-4.73-1.3-6.87.04-1.39-.65-2.57-1.12-3.81-.33-.89-.85-1.35-1.88-1.04-.89.26-1.81.4-2.71.62-4.7,1.15-9.37,1.11-14.06-.13-1.04-.28-2.09-.83-3.24-.46-2.81,3.92-4.09,8.23-3.32,13.07.42,2.59,1.73,4.56,4.37,5.02,2.69.48,5.11-.27,6.54-2.92h-.11c.48,0,.64-.29.68-.7ZM194.15,141.82c-.1-.26-.2-.53-.3-.79-.05.08-.15.16-.16.24,0,.3,0,.62.46.54-.31.76.03,1.33.51,1.87.12.39.21.8.37,1.17,5.18,12,21.22,21.08,35.37,18.82,12.11-1.94,21.02-8.08,26.49-19.09.55-1.1,1.13-2.23,1.08-3.9-.84,1.26-1.44,2.22-2.1,3.15-3.02,4.27-6.49,8.08-11.29,10.37-8.85,4.22-18.05,5.72-27.74,3.41-7.52-1.79-14.11-5.09-19.05-11.22-.97-1.2-1.94-2.41-2.91-3.62-.09-.44-.19-.88-.74-.97ZM200.44,138.09c1.24,3.02,4.02,4,6.75,4.91,3.27,1.09,6.63,1.94,10.47,3.04-.96.13-1.36.23-1.76.24-4.06.1-8.04-.42-11.91-1.68-.59-.19-1.27-.54-1.69.09-.46.7-.1,1.38.52,1.9.8.66,1.56,1.37,2.4,1.96,10.51,7.46,21.89,8.56,33.87,4.33,3.62-1.28,6.82-3.41,9.67-6.03.67-.61,1.13-1.4.63-2.18-.52-.81-1.28-.1-1.94.07-4.16,1.09-8.34,1.88-12.69,1.17,4.08-1.07,8.15-2.1,12.08-3.61,1.76-.68,3.41-1.53,4-3.55.85-1.08,1.64-2.19,1.75-3.86-1.36.29-2.46.51-3.55.75-7.45,1.66-15.16,1.91-22.53,3.99-.53.15-.98.09-1.5-.06-6.29-1.73-12.82-2.08-19.19-3.32-2.16-.42-4.34-.79-6.64-1.21.27,1.26.63,2.21,1.28,3.03ZM198.46,130.71c3.04,1.38,6.33,1.82,9.56,2.42,5.59,1.03,11.3,1.36,16.8,2.94.72.21,1.42.2,2.14-.02,4.18-1.27,8.54-1.54,12.81-2.3,4.56-.82,9.2-1.27,13.54-3.06,1.9,0,3.44-1.08,5.5-1.65-2.29-1.37-4.6-1.51-6.75-2.12-5.59-1.58-10.63-3.98-14.32-8.68-1.15-1.47-2.62-2.66-4.13-3.75-4.55-3.31-9.25-3.71-14.18-.77-2.08,1.24-3.76,2.89-5.44,4.56-2.64,2.61-5.13,5.4-8.74,6.79-2.51.96-5.07,1.74-7.66,2.43-1.48.39-3.06.52-4.59,1.66,2.06.29,3.55,1.61,5.47,1.55Z"/>
      <path class="cls-13" d="M259,108.52c0-3.27-.05-6.06.02-8.85.03-1.14-.36-1.69-1.46-1.96-2.3-.56-4.51-1.33-6.65-2.45-6.92-3.63-6.86-14.98.09-18.89,2.38-1.34,4.87-2.23,7.61-2.37.69-.7.26-1.59.43-2.36.45-1.98,1.54-2.84,3.52-2.68,1.86.15,2.62.84,2.63,3.02,0,1.58.5,2.04,2.07,2.29,2.55.4,4.97,1.35,7.09,2.94,1.01.76,1.89,1.6,2.51,2.71,1.24,2.22,1.06,4.32-.51,5.66-1.55,1.32-4.23,1.2-5.96-.33-.62-.54-1.13-1.2-1.73-1.78-.44-.43-.89-.86-1.4-1.21-.41-.28-.91-.42-1.81-.82-.1,3.08-.09,5.91.02,8.73.04,1.04.93,1.18,1.8,1.33,2.14.37,4.2,1.1,6.15,2.03,4.01,1.92,6.11,5.14,6.14,9.61.03,4.61-1.79,8.23-5.94,10.48-1.92,1.04-3.99,1.83-6.15,2.01-1.67.14-2.19.78-2.03,2.31.04.39-.1.82-.2,1.22-.38,1.53-1.39,2.21-2.94,2.22-1.74.01-2.75-.7-3.17-2.35-.12-.49-.14-1.02-.11-1.53.08-1.22-.58-1.66-1.68-1.72-2.32-.12-4.44-.93-6.5-1.9-2.63-1.25-4.56-3.19-5.61-5.93-.86-2.23-.49-3.89,1.04-5.04,1.66-1.25,3.99-1.2,5.75.15.83.64,1.43,1.47,2.04,2.31,1.12,1.53,2.64,2.51,4.93,3.16ZM265.38,108.61c3.46-1.01,4.81-2.49,4.6-4.77-.21-2.26-1.7-3.59-4.6-4.02v8.79ZM258.89,81.54c-2.83.8-3.73,1.73-3.85,3.77-.12,2.01.87,3.09,3.85,4.09v-7.86Z"/>
      <path class="cls-13" d="M186.59,108.64c0-3.21-.03-6.18.02-9.15.02-1.11-.31-1.68-1.51-1.85-2.05-.29-3.98-1.08-5.83-2-4-1.98-6.03-5.3-6.1-9.69-.07-4.43,2.1-7.69,5.92-9.83,1.71-.96,3.58-1.76,5.53-1.88,1.74-.11,1.92-.89,1.96-2.34.06-2.55,1.79-3.65,4.11-2.89,1.56.51,2.03,1.72,1.99,3.13-.04,1.38.28,1.96,1.84,2.09,2.26.18,4.38,1.08,6.35,2.27,1.74,1.05,3.04,2.48,3.83,4.33.82,1.93.43,3.6-1.01,4.75-1.33,1.07-3.39,1.21-4.93.18-.85-.57-1.57-1.34-2.29-2.07-.94-.96-1.93-1.8-3.66-2.26,0,2.89.05,5.53-.02,8.17-.04,1.28.74,1.6,1.69,1.78,2.03.39,3.99.99,5.9,1.81,4.09,1.77,6.42,4.81,6.68,9.25.25,4.46-1.47,8.05-5.22,10.59-1.91,1.29-4.07,2.14-6.3,2.46-1.92.27-3,.62-2.77,2.9.14,1.43-.84,2.51-2.35,2.87-2.17.52-3.57-.5-3.9-2.8-.33-2.36-.35-2.29-2.77-2.85-3.25-.75-6.33-1.94-8.77-4.34-.96-.95-1.81-2-2.31-3.27-.84-2.1-.5-3.84.97-5.08,1.4-1.19,3.77-1.3,5.5-.23,1.08.66,1.91,1.55,2.57,2.64,1.06,1.77,2.67,2.75,4.89,3.31ZM192.94,99.65c-.09,3-.34,5.96.04,8.98,3.34-1.08,4.35-2.2,4.35-4.59,0-2.34-1.05-3.42-4.39-4.39ZM186.51,81.58c-2.77.27-4.2,1.6-4.22,3.83-.02,2.03,1.4,3.3,4.22,3.78v-7.61Z"/>
      <path class="cls-3" d="M281.02,132.46c-2.71.29-5.3-.42-7.83-1.3-1.15-.4-2.3-.98-3.28-1.7-2.8-2.1-2.88-4.24-.41-6.71,2.23-2.23,5.12-3.03,8.06-3.6,5.07-.98,9.85-.11,14.18,2.75,3.21,2.12,3.36,4.7.62,7.35-2.48,2.4-5.69,2.7-8.84,3.2-.81.13-1.65.02-2.51.02Z"/>
      <path class="cls-3" d="M171.29,132.5c-3.69.09-7.03-.41-10.09-2.15-.71-.41-1.43-.85-2.02-1.42-2.49-2.38-2.23-5.16.72-6.96,6.54-3.97,13.36-3.83,20.22-1.02,1.94.8,3.53,2.16,3.51,4.65-.02,2.39-1.35,3.77-3.31,4.82-2.9,1.56-5.98,2.24-9.04,2.07Z"/>
      <path class="cls-7" d="M253.31,130.68c-4.34,1.79-8.98,2.24-13.54,3.06-4.27.76-8.63,1.03-12.81,2.3-.72.22-1.42.22-2.14.02-5.5-1.57-11.21-1.91-16.8-2.94-3.23-.59-6.52-1.03-9.56-2.42-.02-.45-.47-1.02.26-1.29.86-.32,1.75-.57,2.62-.87,4.35-1.52,8.72-3,12.18-6.28.73-.7,1.74-1.08,2.83-1,1.19,1.46,2.7,2.5,4.38,3.58.13-4.17-.69-5.22-3.59-4.88-.67-2.26,1.29-2.91,2.55-3.6,5.11-2.77,13.07-1.46,16.76,3.65,1.91,2.65,4.39,4.52,7.48,5.78,3.07,1.25,6.13,2.47,9.29,3.45,1.68.52,0,.96.09,1.42ZM230.95,125.05c1.39-1.04,2.35-2.1,3.62-2.8,1.13-.62.89-1.72-.31-2.34-1.18-.61-2.01-.06-2.65.83-.82,1.14-1.01,2.46-.66,4.31Z"/>
      <path class="cls-12" d="M250.84,138.76c-.59,2.02-2.24,2.87-4,3.55-3.92,1.52-8,2.55-12.08,3.61,4.34.7,8.53-.09,12.69-1.17.66-.17,1.42-.89,1.94-.07.5.78.03,1.57-.63,2.18-2.84,2.62-6.05,4.75-9.67,6.03-11.98,4.22-23.35,3.12-33.87-4.33-.84-.6-1.6-1.3-2.4-1.96-.62-.51-.98-1.19-.52-1.9.41-.64,1.1-.28,1.69-.09,3.87,1.26,7.85,1.78,11.91,1.68.4,0,.8-.1,1.76-.24-3.84-1.1-7.2-1.95-10.47-3.04-2.73-.91-5.51-1.89-6.75-4.91,2.23.3,4.49.51,6.7.92,5.64,1.05,11.27,2.21,16.91,3.3,1.22.24,2.48.23,3.69-.01,5.93-1.18,11.77-2.88,17.81-3.35,1.73-.14,3.49-1.5,5.28-.18Z"/>
      <path class="cls-9" d="M215.34,166.55c1.15-.37,2.2.19,3.24.46,4.69,1.24,9.36,1.27,14.06.13.9-.22,1.82-.36,2.71-.62,1.03-.31,1.55.16,1.88,1.04.47,1.24,1.16,2.42,1.12,3.81-.01,1.03,0,2.06-.04,3.09-.08,2.89-1.38,5.14-3.75,6.71-1.71,1.13-3.73,1.04-5.69,1.06-1.19-.74-1.58-2.06-2.13-3.2-.85-1.76-1.43-.55-2.1.08-.52.27-.6.75-.64,1.26,0,0,.01-.03.01-.03-.2.24-.39.49-.59.73,0,0,.07-.06.07-.06-.36.1-.59.33-.68.69,0,0,.11.01.11,0-2.76.76-5.26.59-7.22-1.86-1.15-1.43-1.51-3.06-1.68-4.84-.28-2.96,1.04-5.63,1.31-8.48Z"/>
      <path class="cls-2" d="M194.89,142.79c.97,1.21,1.94,2.41,2.91,3.62,4.94,6.13,11.53,9.44,19.05,11.22,9.69,2.3,18.89.81,27.74-3.41,4.8-2.29,8.27-6.11,11.29-10.37.65-.92,1.26-1.89,2.1-3.15.04,1.67-.53,2.8-1.08,3.9-5.47,11.01-14.38,17.15-26.49,19.09-14.15,2.26-30.19-6.82-35.37-18.82-.16-.37-.25-.78-.37-1.17.07-.3.15-.6.22-.9Z"/>
      <path class="cls-8" d="M216.36,121.27c-1.09-.08-2.1.3-2.83,1-3.46,3.29-7.82,4.77-12.18,6.28-.87.3-1.76.55-2.62.87-.73.27-.28.84-.26,1.29-1.93.06-3.41-1.26-5.47-1.55,1.54-1.14,3.12-1.26,4.59-1.66,2.59-.69,5.15-1.47,7.66-2.43,3.62-1.39,6.11-4.17,8.74-6.79,1.69-1.67,3.37-3.32,5.44-4.56,4.94-2.93,9.63-2.53,14.18.77,1.51,1.1,2.97,2.28,4.13,3.75,3.69,4.7,8.73,7.1,14.32,8.68,2.15.61,4.46.75,6.75,2.12-2.06.57-3.6,1.65-5.5,1.65-.1-.46,1.59-.9-.09-1.42-3.15-.98-6.22-2.21-9.29-3.45-3.09-1.26-5.57-3.13-7.48-5.78-3.69-5.11-11.64-6.43-16.76-3.65-1.27.69-3.22,1.34-2.55,3.6-.26.43-.53.86-.79,1.29Z"/>
      <path class="cls-11" d="M250.84,138.76c-1.79-1.31-3.55.05-5.28.18-6.04.48-11.89,2.17-17.81,3.35-1.22.24-2.47.25-3.69.01-5.64-1.09-11.26-2.24-16.91-3.3-2.21-.41-4.47-.62-6.7-.92-.65-.83-1-1.77-1.28-3.03,2.3.42,4.48.78,6.64,1.21,6.37,1.24,12.9,1.59,19.19,3.32.51.14.96.21,1.5.06,7.38-2.08,15.08-2.33,22.53-3.99,1.09-.24,2.19-.46,3.55-.75-.1,1.67-.89,2.78-1.75,3.86Z"/>
      <path class="cls-5" d="M215.34,166.55c-.27,2.85-1.6,5.52-1.31,8.48.17,1.78.52,3.41,1.68,4.84,1.96,2.44,4.46,2.62,7.22,1.86-1.43,2.65-3.85,3.4-6.54,2.92-2.64-.47-3.95-2.43-4.37-5.02-.78-4.84.5-9.15,3.32-13.07Z"/>
      <path class="cls-5" d="M228.87,182.24c1.96-.02,3.98.07,5.69-1.06,2.37-1.57,3.67-3.82,3.75-6.71.03-1.03.02-2.06.04-3.09,1.23,2.14,1.33,4.5,1.3,6.87-.03,2.75-.81,5.21-3.66,6.19-2.79.96-5.25.17-7.12-2.19Z"/>
      <path class="cls-1" d="M194.89,142.79c-.07.3-.15.6-.22.9-.48-.54-.83-1.12-.51-1.87h0c.55.09.65.53.74.97Z"/>
      <path class="cls-5" d="M224,180.38c.04-.51.12-1,.64-1.26-.02.52-.18.97-.64,1.26Z"/>
      <path class="cls-1" d="M194.15,141.82c-.45.07-.46-.25-.46-.54,0-.08.1-.16.16-.24.1.26.2.53.3.79h0Z"/>
      <path class="cls-5" d="M223.42,181.09c.2-.24.39-.49.59-.73-.04.37-.19.65-.59.73Z"/>
      <path class="cls-5" d="M222.81,181.71c.1-.36.33-.59.68-.69-.04.42-.21.71-.68.69Z"/>
      <path class="cls-10" d="M265.38,108.61v-8.79c2.9.44,4.39,1.77,4.6,4.02.21,2.28-1.14,3.76-4.6,4.77Z"/>
      <path class="cls-4" d="M258.89,81.54v7.86c-2.98-1.01-3.97-2.09-3.85-4.09.12-2.03,1.03-2.96,3.85-3.77Z"/>
      <path class="cls-4" d="M192.94,99.65c3.34.97,4.39,2.05,4.39,4.39,0,2.4-1.01,3.51-4.35,4.59-.38-3.02-.14-5.97-.04-8.98Z"/>
      <path class="cls-10" d="M186.51,81.58v7.61c-2.82-.48-4.25-1.75-4.22-3.78.03-2.23,1.46-3.56,4.22-3.83Z"/>
      <path class="cls-13" d="M216.36,121.27c.26-.43.53-.86.79-1.29,2.89-.34,3.71.71,3.59,4.88-1.68-1.08-3.19-2.12-4.38-3.58Z"/>
      <path class="cls-13" d="M230.95,125.05c-.35-1.86-.16-3.17.66-4.31.64-.89,1.47-1.44,2.65-.83,1.19.62,1.44,1.72.31,2.34-1.27.7-2.23,1.76-3.62,2.8Z"/>
    </g>
  </g>
</svg>