<?xml version="1.0" encoding="UTF-8"?>
<svg id="GRIFOS" xmlns="http://www.w3.org/2000/svg" viewBox="0 0 458.93 422.16">
  <defs>
    <style>
      .cls-1 {
        fill: #abb063;
      }

      .cls-1, .cls-2, .cls-3, .cls-4, .cls-5, .cls-6, .cls-7, .cls-8, .cls-9, .cls-10, .cls-11, .cls-12, .cls-13 {
        stroke-width: 0px;
      }

      .cls-2 {
        fill: #e78f3c;
      }

      .cls-3 {
        fill: #f1a196;
      }

      .cls-4 {
        fill: #f9ebd6;
      }

      .cls-5 {
        fill: #df6258;
      }

      .cls-6 {
        fill: #f4f1e8;
      }

      .cls-7 {
        fill: #f2ae32;
      }

      .cls-8 {
        fill: #e9c474;
      }

      .cls-9 {
        fill: #dc3431;
      }

      .cls-10 {
        fill: #e3c8a7;
      }

      .cls-11 {
        fill: #c0cfd6;
      }

      .cls-12 {
        fill: #6b221a;
      }

      .cls-13 {
        fill: #1a1717;
      }
    </style>
  </defs>
  <g id="Expressions">
    <g id="E5">
      <path class="cls-13" d="M152.18,54.34c-3.88,2.15-7.9,4.05-11.6,6.5-1.99,1.31-3.93,2.69-5.37,4.64-1.73,2.35-1.48,3.48,1.21,4.78,2.44,1.18,5.12,1.74,7.74,2.02,3.9.42,7.83.8,11.78.69,1.14-.03,1.94-.33,2.59-1.3,3.82-5.7,8.57-10.6,13.39-15.44,2.7-2.07,5.4-4.14,8.25-6.32-2.32-1.1-4.29-1.97-6.2-2.95-.87-.44-2-.66-2.26-1.88,1.26-1.29,2.56-1.34,4.15-.45,1.8,1,3.76,1.71,5.64,2.57.97.45,1.91.73,2.94.12,7.21-4.34,14.97-7.32,23.24-9.25-.5-4.78-1.01-9.39-.31-14.04.78-5.13,2.44-9.8,6.14-13.6,6.71-6.9,17.1-6.22,22.5,1.73,1.64,2.42,2.97,3.52,6.18,3.06,4.97-.71,8.72,1.96,11.2,6.24,2.7,4.67,2.52,9.7,1.55,14.78-.23,1.21-.66,2.39-1.05,3.73,3.2,1.32,6.49,2.49,9.6,4.09,2.57,1.32,5.18,2.58,7.6,4.16.96.63,1.79.86,2.87.41,5.82-2.43,11.55-5.03,16.52-9,1.52-1.21,3.39-2.48,2.84-4.75-.5-2.08-2.62-2.44-4.39-2.95-5.1-1.47-10.36-1.91-15.61-2.37-2.55-.22-5.1-.38-8.3-1.06,9.97-.17,19.25-.78,28.21,2.38,2.2,1.46,3.63,3.31,3.11,6.14-1.62,2.82-3.9,5.01-6.53,6.88-1.17.83-2.56,1.3-3.55,2.39-3.52,1.38-6.73,3.42-10.55,4.71,2.62,2.19,5.14,4.15,7.51,6.29,5.25,4.75,9.71,10.19,13.65,16.06.82,1.22,1.72,1.79,3.24,1.83,4.77.12,9.53.23,14.23-.79.3-.07.62-.07.92-.15,5.09-1.29,5.85-3.29,2.95-7.62-.49-.74-1.21-1.42-.95-2.65,2.17,1.29,3.76,2.93,4.69,5.18,1.1,2.65.5,4.51-2.05,6.02-2.25,1.34-4.77,1.97-7.34,2.29-2.05.25-4.12.48-6.18.58-1.96.1-3.94.02-5.87.02-.52.9.19,1.42.51,1.99,8.04,14.61,12.58,30.32,14.38,46.81,1.83,16.69-1.87,31.92-13.07,44.85-6.95,8.02-15.52,13.88-25.11,18.34-8.85,4.12-18.14,6.91-27.74,8.46-11.9,1.92-23.88,2.24-35.93,1.06-11.19-1.09-22.01-3.54-32.43-7.7-10.31-4.12-19.52-9.91-27.24-17.97-11.2-11.69-16.48-25.65-15.67-41.76.98-19.45,6.64-37.57,16.34-54.43.25-.43.68-.8.49-1.79-1.9-.08-3.9-.21-5.91-.26-4.05-.1-8.03-.6-11.9-1.88-1.59-.52-3.1-1.16-4.33-2.33-1.84-1.75-2.13-4.02-.81-6.19.76-1.25,1.77-2.31,2.91-3.21,4.75-3.75,10.05-6.47,15.83-8.26.49.09,1,.15,1.36.57ZM249.72,25.79l.03.03c-.84-4.03-3.97-6.51-7.63-6.07-2.09.25-2.36.68-1.93,3.06-.15.49-.13.97.07,1.45-.35.86-.34,1.75-.21,2.65-.09.29-.22.58-.26.88-.15,1.1-.59,2.17-1.78,2.13-1.4-.05-1.19-1.44-1.32-2.38-.25-1.83-.61-3.62-1.4-5.31-.3-2.74-1.45-5.16-3-7.36-3.79-5.35-10.4-5.97-14.99-1.45-1.33,1.31-2.43,2.81-3.17,4.54-2.8,6.59-3.15,13.32-1.14,20.19,1.18,8.56,5.02,15.86,10.82,22.15,2.02,2.2,2.57,2,3.59-.97,1.68-4.93,3.92-9.57,7.32-13.54,3.18-3.71,7.03-6.4,12.2-6.4,1.64,0,2.47-.78,2.82-2.27.8-3.32,1.57-6.64.46-10.05.06-.5.2-1.03-.46-1.27ZM196.14,52.59c6.58,2.85,13.47,4.77,20.4,6.77-2.4-3.58-3.95-7.5-6.05-11.12.09-.97-.43-1.79-.72-2.65-.91-2.79-.94-2.76-3.87-2.05-5.1,1.23-9.93,3.18-14.6,5.53-.58.29-1.49.34-1.47,1.38,2.09.7,4.07,1.8,6.31,2.14ZM260.34,53.22c2.32.08,4.24-.89,6.24-2.15-5.09-2.88-10.14-5.17-15.55-6.7-4.56-1.29-8.32-.22-11.52,3.17-4.36,3.76-6.15,9-8.3,14.03.54.33.92.18,1.32.07,6.13-1.66,12.31-3.17,18.38-5.02,3.19-.97,6.55-1.55,9.43-3.4ZM191.31,54.41c-.68-.72-1.72-.64-2.5-1.14-1.99-1.28-3.66-.83-5.59.47-5.37,3.61-10.13,7.87-14.36,12.73-1.59,1.82-3.4,3.52-4.58,5.99,1.92.13,3.54.09,5.16-.18,17.11-1.41,34-4.16,50.7-8.27-8.98-2.98-17.97-5.96-26.95-8.95-.35-.49-.81-.69-1.41-.58-.14-.13-.29-.15-.46-.06ZM264.48,55.64c-.31.02-.64-.02-.92.08-7.08,2.55-14.34,4.47-21.54,6.62-2.07.62-4.16,1.18-6.45,1.82.47.44.59.65.74.69,7.84,1.76,15.65,3.61,23.52,5.21,8.99,1.83,18.04,3.31,27.2,4.04,1.39.31,2.79.38,4.53.26-3.36-5.05-7.14-9.34-11.3-13.3-2.54-2.42-5.26-4.63-8.18-6.57-.94-.62-1.89-1.32-3.11-.73-1.46.71-3.14.91-4.49,1.88ZM143.31,134.66c-.54,6.75.91,13.19,3.38,19.37,4.66,11.67,13.03,20.22,23.53,26.79,13.8,8.64,29.15,12.44,45.14,14.12,9,.95,17.97.58,26.97-.45,13.08-1.5,25.57-4.88,37.2-11.07,11.01-5.86,19.96-14.02,25.81-25.15,4.06-7.73,5.98-16.04,5.3-24.84.16-1.68.05-3.36-.15-5.03.14-.33.11-.63-.12-.91-.3-4.07-.83-8.1-2.03-12.02-.16-1.12,0-2.31-.76-3.29.11-.19.08-.36-.08-.51,0-.31.05-.63-.02-.92-2.18-9.08-5.17-17.85-9.65-26.08-4.14-7.6-2.76-7.11-12-7.31-.48-.15-.96-.39-1.46-.44-9.37-.88-18.62-2.56-27.84-4.4-8.29-1.65-16.53-3.52-24.66-5.84-1.28-.36-2.26-.65-3.21.72-.65.93-1.81.88-2.81.24-1.2-.77-2.46-.91-3.85-.58-3.11.74-6.23,1.45-9.36,2.09-7.59,1.54-15.23,2.75-22.87,4.01-7.15,1.17-14.37,1.57-21.54,2.48-1.03-.01-2.08.08-3.09-.06-2.64-.38-4.05.91-5.37,3.07-4.34,7.15-7.91,14.67-10.58,22.56-1.29,3.81-2.66,7.69-2.97,11.78l.06.07c-.41.26-.46.66-.39,1.09-.06.4-.11.79-.17,1.19-1.2,3.91-1.72,7.94-2.14,11.99-.49,2.43-.4,4.89-.27,7.35Z"/>
      <path class="cls-13" d="M144.61,30.1c-.97-3.77-.34-7.21,1.78-10.37.29-.43.57-.86.89-1.26,2.09-2.59,3.09-2.53,4.67.41,1.34,2.48,2.89,4.76,5.37,6.39,1.73-2.29,3.64-4.23,6.74-4.43,3.74-.24,7.25,1.62,8.16,5.25.73,2.92,2.06,5.26,4.25,7.33-.94,1.03-1.95,1.63-3.05,1.65-1.59.02-2.38.86-3.13,2.08-5.69,9.33-15.86,10.03-23.84,4.44-3.36-2.35-5.83-5.53-7.03-9.56-.15-.49-.34-.98-.42-1.49-.13-.84-.13-1.68.7-2.21.72-.46,1.41-.1,2.05.21.91.45,1.56,1.35,2.87,1.56ZM149.45,19.7c-2.55,4.51-3.65,8.45-.56,12.6.84,1.13,2.01,1.83,2.95,2.92-3.26-.34-6.08-1.98-9.61-2.91,2.26,4.75,5.54,7.67,10.02,9.25,2.13.75,4.3,1.37,6.65.79,6.46-1.59,9.91-5.94,11.26-12.18.61-2.81-.9-5.3-3.62-6.37-2.44-.96-4.89-.18-6.47,2.15-.61.9-1.09,1.9-1.66,2.91-3.8-2.16-6.76-4.92-8.95-9.16ZM172.55,32.36c-.08-.3-.18-.65-.57-.44-.22.12-.42.43-.45.68-.04.34.22.56.58.45.31-.09.43-.37.44-.69Z"/>
      <path class="cls-4" d="M296.35,37c.52-2.83-.92-4.68-3.11-6.14.02-.44.04-.89.06-1.33.77-.48.97-1.24,1.16-2.07.27-1.2.76-2.35,1.53-3.32,1.42-1.81,3.22-2.98,5.6-2.55,2.48.45,4.6,1.89,5.18,4.32,1.29,5.36.19,10.28-3.84,14.31-1.63.47-3.06-.37-4.58-.58-1.9-.26-2.1-1.18-1.99-2.64ZM304.21,26.83c-.12-1.04-.63-1.87-1.64-1.97-1.08-.11-1.63.76-1.8,1.71-.17.99.51,1.55,1.38,1.7,1.1.19,1.69-.51,2.06-1.44Z"/>
      <path class="cls-13" d="M302.91,40.22c4.03-4.03,5.13-8.95,3.84-14.31-.58-2.43-2.7-3.87-5.18-4.32-2.37-.43-4.18.74-5.6,2.55-.76.98-1.26,2.12-1.53,3.32-.19.84-.39,1.59-1.16,2.07-1.21.18-1.29-.59-1.33-1.5-.16-3.5,2.46-7.33,5.92-8.62,3.43-1.28,7.97-.18,9.89,3.04,1.4,2.35,3.25,3.41,5.62,4.26,2.19.79,2.19,1.4.36,2.8-.57.44-1.11.94-1.73,1.29-1.63.92-2.38,2.27-2.85,4.11-1.47,5.87-5.23,9.66-11.1,11.31-.99.28-1.98.55-2.97.83-1.03-.03-2.06-.08-3.09-.09-.78,0-1.55-.15-1.55-1.08,0-.98.65-1.44,1.64-1.4.52.02,1.04.05,1.55-.03,3.5-.52,6.88-1.3,9.28-4.23ZM310.02,29.08c.31-.11.84-.06.94-.55.11-.53-.34-.65-.75-.71-.49-.07-.78.16-.79.66,0,.33.13.58.6.59Z"/>
      <path class="cls-13" d="M263.3,18.65c.06-.51-.02-1.1.19-1.53,1.39-2.83.02-4.62-2.1-6.33-.88-.71-2.35-1.45-1.79-2.93.48-1.28,2.03-.66,3.03-1.09.09-.04.21-.05.31-.04,3.05.43,4.45-1.29,5.33-3.9.37-1.11.68-2.76,2.07-2.82,1.67-.07,1.66,1.84,2.34,2.91.38.61.64,1.3.89,1.98.45,1.23,1.29,1.82,2.61,1.71,1.37-.11,2.67.31,3.97.63,1.43.36,1.66,1.1.75,2.21-.65.79-1.37,1.61-2.21,2.17-1.88,1.24-2.12,2.83-1.5,4.83.3.98.45,2.03.48,3.05.03,1.22-.76,1.72-1.85,1.29-1.15-.44-2.29-1.01-3.29-1.71-1.5-1.05-2.85-.91-4.28.07-.68.47-1.42.85-2.17,1.21-2.13,1.04-2.87.57-2.75-1.72ZM274.83,17.57c-.1-1.58-.57-3.11-.28-4.62.31-1.63,2.26-2.2,2.92-4.07-3.76.33-5.73-1.64-6.7-4.88-1.49,1.15-1.53,2.98-2.73,3.95-1.26,1.01-3.17.36-4.72,1.67,2.75,1.94,3.66,4.42,2.57,7.5-.03.08.22.26.33.39q3.93-1.77,8.61.06Z"/>
      <path class="cls-13" d="M303.45,64.19c.02-.21.02-.42.07-.62.83-2.76.19-5.03-2.13-6.84-.59-.46-1.56-1.04-1.03-1.99.41-.73,1.32-.99,2.19-.92,2.8.23,4.45-1.09,5.18-3.74.11-.39.36-.74.59-1.09,1.02-1.52,1.75-1.54,2.78-.04.29.42.61.88.71,1.37.55,2.83,2.63,3.39,5.05,3.51.51.03,1.07.03,1.52.23.87.4,1.24,1.09.64,2-.22.34-.5.71-.84.9-2.89,1.63-3,4.12-2.2,6.92.2.69.48,1.47-.16,2.04-.82.72-1.53-.08-2.28-.32-.19-.06-.37-.18-.54-.31-2.15-1.56-4.28-1.7-6.41.05-.23.19-.54.31-.82.44-1.82.83-2.44.4-2.33-1.6ZM313.1,62.75c-.9-2.97,1.01-4.8,2.41-7.08-3.21.29-4.71-1.39-5.83-4.32-.85,3.3-2.95,4.39-6.24,4.51,2.74,2.04,3.32,4.27,2.21,7.42,2.66-1.87,4.92-2.44,7.45-.53Z"/>
      <path class="cls-6" d="M302.91,40.22c-2.4,2.93-5.78,3.71-9.28,4.23-.51.08-1.03.05-1.55.03-.99-.04-1.65.41-1.64,1.4,0,.93.77,1.07,1.55,1.08,1.03.01,2.06.06,3.09.09-1.96.99-3.95.74-5.89.04-.97-.35-1.88-.79-2.93-.81.99-1.09,2.38-1.57,3.55-2.39,2.63-1.87,4.91-4.06,6.53-6.88-.12,1.46.09,2.38,1.99,2.64,1.52.21,2.95,1.05,4.58.58Z"/>
      <path class="cls-13" d="M194.55,21.7c.02,2.38-2.04,4.48-4.48,4.58-2.3.09-4.49-2.08-4.53-4.5-.05-2.61,1.75-4.56,4.28-4.64,2.62-.09,4.71,1.93,4.73,4.57ZM192.58,21.77c.02-1.4-1.08-2.65-2.37-2.7-1.48-.06-2.73,1.15-2.78,2.67-.05,1.44,1.28,2.75,2.73,2.7,1.29-.04,2.41-1.27,2.43-2.68Z"/>
      <path class="cls-6" d="M171.7,45.09c.26,1.22,1.39,1.43,2.26,1.88,1.91.97,3.88,1.85,6.2,2.95-2.84,2.18-5.54,4.25-8.25,6.32-.17-1.41.41-2.6,1.01-3.82,1.18-2.39.8-3.46-1.53-4.71q-1.54-.83-2.3-2.11c.75-.8,1.73-.37,2.6-.5Z"/>
      <path class="cls-12" d="M152.18,54.34c-.36-.42-.86-.48-1.36-.57,2.8-1.41,5.75-2.39,9.07-3.2-2.59,1.67-5.15,2.73-7.72,3.77Z"/>
      <path class="cls-4" d="M168.22,75.62c7.17-.91,14.4-1.31,21.54-2.48,7.64-1.26,15.28-2.47,22.87-4.01,3.13-.64,6.25-1.34,9.36-2.09,1.39-.33,2.65-.19,3.85.58,1,.64,2.16.69,2.81-.24.95-1.37,1.93-1.08,3.21-.72,8.13,2.32,16.37,4.19,24.66,5.84,9.22,1.84,18.47,3.52,27.84,4.4.49.05.97.29,1.46.44.41.8,1.19.81,1.88.71,2.07-.31,3.31.96,4.37,2.36,1.34,1.76,1.76,4.21,3.98,5.32,1.12,3.23,3.21,5.95,4.68,8.96.98,2.02,1.67,4.3,2.45,6.47,1.15,3.16,2.56,6.27,3.19,9.61.11.61.59.78,1.12.89.16.15.18.32.08.51.15,1.12-.48,2.42.76,3.29,1.2,3.92,1.73,7.95,2.03,12.02-.23.34-.18.64.12.91.2,1.67.3,3.35.15,5.03-1.84.25-1.31,1.95-1.63,2.96-1.35,4.23-2.71,8.47-4.84,12.36-3.56,6.51-8.61,11.74-14.31,16.48-6.87,5.7-14.62,9.67-22.91,12.67-6.68,2.42-13.53,4.36-20.54,5.65-1.12.21-2.24.58-3.14-.52,2.28-4.89,1.94-9.83.26-14.79-1.1-3.25-2.75-6.23-4.57-9.11-.79-1.25-.66-1.92.57-2.75,3.52-2.4,7.15-4.43,11.45-5.16,3.89-.66,4.85-1.93,4.89-5.86.06-6.57-2.78-11.77-7.8-15.82-3.01-2.42-5.62-5.16-7.85-8.31-1.56-2.21-3.56-4.07-5.77-5.59-4.7-3.24-9.54-3.56-14.46-.38-2.74,1.77-4.93,4.08-6.86,6.66-1.92,2.58-4.03,4.93-6.48,7.05-5.18,4.49-8.85,9.81-8.6,17.08.11,3.11.86,4.18,4,4.85,4.51.96,8.64,2.68,12.36,5.43,1.14.85,1.38,1.52.62,2.79-1.26,2.12-2.45,4.31-3.44,6.57-2.59,5.96-3.98,11.99-.35,18.09-2.42-.51-4.89-.6-7.31-1.14-13.41-2.97-26.22-7.3-37.48-15.52-4.55-3.32-8.71-7.1-12.15-11.45-4.37-5.52-7.65-11.76-9.35-18.71-.21-.86-.14-2.22-1.64-2.28-.13-2.46-.22-4.91.28-7.35.47-.25.9-.6.89-1.14-.06-1.97.71-3.76,1.08-5.64.34-1.67.83-3.46.17-5.21.06-.4.11-.79.17-1.19.32-.3.42-.67.39-1.09,0,0-.06-.07-.06-.07,1.57-.56,1.55-2.09,1.96-3.31.8-2.39,1.56-4.8,2.19-7.25.72-2.82,2.2-5.26,3.4-7.86,1.38-2.99,2.77-5.96,4.39-8.82,2.42-4.28,5.38-8.06,10.06-10.11ZM262.21,124.58c-.26.11-.78.34-.66.44.78.62,2.27.35,2.98-.43,3.91-.6,7.67-1.59,10.96-3.95,7-5.03,10.72-11.82,10.07-20.44-.57-7.56-4.42-13.46-10.86-17.55-2.28-1.45-4.76-2.47-7.41-3.05-1.32-.29-2.28.11-2.72,1.37-.48,1.34.42,1.81,1.51,2.19,2.06.7,4.03,1.62,5.88,2.77,6.5,4.03,10.11,11.89,8.79,19.15-1.32,7.29-6.71,12.77-14.12,14.37-9.88,2.13-21.91-6.15-20.11-18.19.72-4.78,4.9-9.41,9.75-10.57,4.67-1.12,9.94,1.03,12.72,5.2,2.83,4.22,1.94,9.8-1.98,12.42-3.48,2.33-8.76.83-10.27-2.92-.85-2.1.09-4.45,2.05-5.14,1.67-.6,2.31-.17,3.31,2.42.33.86.82,1.45,1.76,1.49,1.09.05,1.71-.63,2.05-1.57.38-1.03.17-2.06-.25-3.03-1.11-2.55-4.38-4.23-7.16-3.72-5.74,1.05-8.49,7.36-5.47,12.56,2.56,4.42,7.43,6.58,12.46,5.54,5.08-1.05,9.09-5.39,9.77-10.4,1.13-8.26-4.81-15.91-13.3-17.37-5.28-.91-10.24.08-14.33,3.79-9.54,8.63-7.6,22.67,2.59,30,3.63,2.61,7.65,3.98,11.99,4.62ZM212.52,104.06c.66-9.6-8.32-19.86-19.85-18.03-8.31,1.32-14.63,8.66-13.91,16.93.45,5.21,4.7,9.92,9.91,11.01,4.95,1.03,10.03-1.4,12.6-5.95.9-1.6,1.3-3.28,1.05-5.07-.43-3.1-2.08-5.47-4.94-6.67-2.67-1.12-5.28-.58-7.52,1.33-1.53,1.31-2.17,3.01-1.82,5,.18,1.02.88,1.62,1.97,1.64.9.01,1.63-.27,1.88-1.25.11-.4.21-.81.38-1.18.92-1.97,3.06-2.25,4.48-.6,1.17,1.35,1.19,3.51.05,5.18-2.47,3.64-8.08,4.09-11.11.88-3.1-3.28-3-8.67.31-12.45,3.19-3.64,7.24-5.23,11.98-4.06,5.08,1.25,8.12,4.84,9.38,9.78,1.55,6.06-1.33,12.29-7.19,16.2-5.87,3.92-13.42,3.91-18.99.16-7.47-5.02-8.98-13.07-7.63-18.58,1.77-7.24,6.32-11.89,13.05-14.66.76-.31,1.53-.61,2.23-1.03.71-.43.76-1.15.56-1.92-.21-.82-.76-1.26-1.54-1.28-.6-.02-1.23.12-1.82.28-6.84,1.88-11.99,5.79-15.2,12.25-1.92,3.88-2.84,7.88-2.34,12.17.91,7.75,5,13.41,11.62,17.36,15.25,9.11,32.74-4.31,32.39-17.44ZM277.82,126.53c-3.95-.1-7.41.77-10.61,2.55-2.95,1.65-3.42,4.67-1.21,7.22,1.2,1.38,2.78,2.16,4.48,2.61,1.68.44,3.43.68,5.15.95,4.22.67,8.23-.09,11.93-2.11,3.76-2.06,4.61-5.37.8-8.29-.92-.7-1.85-1.29-2.94-1.65-2.56-.82-5.13-1.53-7.61-1.28ZM176.62,126.54c-4.43-.13-8.41.76-11.87,3.35-2.6,1.95-2.55,5.11.04,7.06.66.49,1.35,1.01,2.11,1.3,6.37,2.43,12.68,2.63,18.91-.53,1.7-.86,2.88-1.99,2.95-4,.08-2.19-.92-3.74-2.81-4.8-2.95-1.66-6.09-2.57-9.33-2.37Z"/>
      <path class="cls-10" d="M143.31,134.66c1.5.06,1.43,1.42,1.64,2.28,1.7,6.95,4.98,13.2,9.35,18.71,3.45,4.35,7.6,8.12,12.15,11.45,11.25,8.22,24.06,12.56,37.48,15.52,2.42.54,4.89.63,7.31,1.14,2.61,2.55,5.54,4.33,9.38,3.68,2.5-.42,4.52-1.82,6.36-3.41,6.27,5.31,12.17,4.27,16.29-1,.89,1.1,2.01.72,3.14.52,7.01-1.29,13.86-3.24,20.54-5.65,8.28-3,16.04-6.97,22.91-12.67,5.71-4.74,10.75-9.97,14.31-16.48,2.13-3.89,3.49-8.13,4.84-12.36.32-1.01-.21-2.71,1.63-2.96.68,8.8-1.24,17.11-5.3,24.84-5.85,11.14-14.81,19.29-25.81,25.15-11.62,6.19-24.12,9.57-37.2,11.07-8.99,1.03-17.96,1.4-26.97.45-15.99-1.68-31.34-5.48-45.14-14.12-10.5-6.58-18.87-15.13-23.53-26.79-2.47-6.18-3.92-12.62-3.38-19.37Z"/>
      <path class="cls-9" d="M235.27,22.22c.79,1.68,1.15,3.47,1.4,5.31.13.94-.08,2.33,1.32,2.38,1.2.05,1.64-1.02,1.78-2.13.04-.3.17-.59.26-.88.47-.85.26-1.76.21-2.65-.2-.47-.22-.96-.07-1.45,3.7-.62,6.78.73,9.57,3.01,0,0-.03-.03-.03-.03-.04.49.05.94.46,1.27,1.12,3.41.34,6.73-.46,10.05-.36,1.49-1.18,2.27-2.82,2.27-5.17,0-9.02,2.69-12.2,6.4-3.4,3.97-5.63,8.61-7.32,13.54-1.02,2.97-1.56,3.17-3.59.97-5.8-6.29-9.63-13.59-10.82-22.15-.02-4.63-.35-9.26,1.26-13.78,1.93-5.39,5.42-9.88,11.55-9.13,3.79.46,6.48,2.48,8.25,5.76.32.59.57,1.07,1.23,1.22Z"/>
      <path class="cls-4" d="M287.03,74.1c-9.16-.73-18.21-2.21-27.2-4.04-7.87-1.6-15.68-3.45-23.52-5.21-.16-.04-.27-.24-.74-.69,2.29-.65,4.38-1.21,6.45-1.82,7.2-2.15,14.47-4.07,21.54-6.62.28-.1.61-.06.92-.08,3.11.9,5.49,3.07,8.17,4.71,4.3,2.62,7.6,6.5,11.46,9.7,1.2.99,2.77,2.13,2.93,4.06Z"/>
      <path class="cls-4" d="M193.18,55.05c8.98,2.98,17.97,5.96,26.95,8.95-16.7,4.11-33.59,6.87-50.7,8.27-.05-1.62.97-2.64,2.05-3.59,1.47-1.27,3-2.48,4.51-3.7,4.84-3.91,9.7-7.78,15.32-10.58.17-.09.32-.07.46.06.35.48.83.66,1.41.58Z"/>
      <path class="cls-4" d="M260.34,53.22c-2.88,1.85-6.24,2.43-9.43,3.4-6.07,1.85-12.25,3.36-18.38,5.02-.4.11-.78.26-1.32-.07,2.16-5.03,3.95-10.27,8.3-14.03,6.1.75,12.03,2.12,17.64,4.72,1.02.47,2,1.05,3.19.96Z"/>
      <path class="cls-6" d="M191.31,54.41c-5.61,2.79-10.48,6.67-15.32,10.58-1.51,1.22-3.04,2.43-4.51,3.7-1.09.94-2.11,1.97-2.05,3.59-1.62.28-3.24.31-5.16.18,1.18-2.47,3-4.18,4.58-5.99,4.23-4.85,8.99-9.11,14.36-12.73,1.93-1.3,3.61-1.75,5.59-.47.78.5,1.83.42,2.5,1.14Z"/>
      <path class="cls-5" d="M235.27,22.22c-.67-.16-.92-.64-1.23-1.22-1.77-3.28-4.45-5.3-8.25-5.76-6.13-.75-9.62,3.74-11.55,9.13-1.62,4.52-1.28,9.15-1.26,13.78-2.01-6.87-1.66-13.6,1.14-20.19.74-1.74,1.84-3.24,3.17-4.54,4.58-4.51,11.2-3.89,14.99,1.45,1.55,2.19,2.7,4.62,3,7.36Z"/>
      <path class="cls-6" d="M287.03,74.1c-.16-1.93-1.73-3.07-2.93-4.06-3.86-3.2-7.15-7.08-11.46-9.7-2.68-1.63-5.06-3.81-8.17-4.71,1.35-.97,3.03-1.17,4.49-1.88,1.22-.6,2.17.1,3.11.73,2.93,1.94,5.65,4.16,8.18,6.57,4.16,3.96,7.94,8.26,11.3,13.3-1.74.12-3.14.05-4.53-.26Z"/>
      <path class="cls-6" d="M260.34,53.22c-1.19.09-2.17-.49-3.19-.96-5.6-2.59-11.54-3.97-17.64-4.72,3.2-3.38,6.96-4.45,11.52-3.17,5.41,1.53,10.46,3.82,15.55,6.7-2,1.26-3.93,2.23-6.24,2.15Z"/>
      <path class="cls-4" d="M210.49,48.24c2.11,3.62,3.66,7.54,6.05,11.12-6.94-2.01-13.82-3.92-20.4-6.77,1.05-.43,2.16-.75,3.15-1.3,3.49-1.94,7.3-2.66,11.2-3.05Z"/>
      <path class="cls-6" d="M210.49,48.24c-3.9.4-7.71,1.11-11.2,3.05-.98.55-2.09.87-3.15,1.3-2.24-.35-4.21-1.45-6.31-2.14-.01-1.05.9-1.09,1.47-1.38,4.67-2.35,9.5-4.3,14.6-5.53,2.94-.71,2.97-.73,3.87,2.05.28.87.81,1.68.72,2.65Z"/>
      <path class="cls-6" d="M168.22,75.62c-4.67,2.06-7.64,5.84-10.06,10.11-1.62,2.86-3.01,5.84-4.39,8.82-1.2,2.6-2.68,5.04-3.4,7.86-.62,2.44-1.38,4.86-2.19,7.25-.41,1.22-.4,2.75-1.96,3.31.31-4.09,1.68-7.97,2.97-11.78,2.66-7.89,6.23-15.41,10.58-22.56,1.32-2.17,2.74-3.46,5.37-3.07,1.01.15,2.06.05,3.09.06Z"/>
      <path class="cls-6" d="M307.49,111.66c-.52-.1-1-.28-1.12-.89-.62-3.35-2.04-6.45-3.19-9.61-.79-2.17-1.47-4.45-2.45-6.47-1.46-3.01-3.56-5.73-4.68-8.96-2.22-1.11-2.64-3.56-3.98-5.32-1.07-1.4-2.3-2.66-4.37-2.36-.69.1-1.47.1-1.88-.71,9.23.21,7.86-.29,12,7.31,4.49,8.23,7.48,17,9.65,26.08.07.29.02.62.02.92Z"/>
      <path class="cls-5" d="M249.75,25.82c-2.78-2.29-5.87-3.63-9.57-3.01-.43-2.37-.16-2.8,1.93-3.06,3.66-.44,6.79,2.04,7.63,6.07Z"/>
      <path class="cls-6" d="M145.72,115.31c.66,1.75.17,3.54-.17,5.21-.38,1.87-1.14,3.66-1.08,5.64.02.55-.42.9-.89,1.14.42-4.05.94-8.08,2.14-11.99Z"/>
      <path class="cls-5" d="M240.25,24.26c.05.89.25,1.8-.21,2.65-.13-.9-.13-1.79.21-2.65Z"/>
      <path class="cls-6" d="M308.34,115.46c-1.24-.87-.61-2.17-.76-3.29.76.98.6,2.17.76,3.29Z"/>
      <path class="cls-11" d="M193.18,55.05c-.58.07-1.06-.1-1.41-.58.6-.11,1.06.09,1.41.58Z"/>
      <path class="cls-5" d="M250.18,27.06c-.4-.33-.5-.78-.46-1.27.66.24.52.77.46,1.27Z"/>
      <path class="cls-6" d="M146.28,113.04c.03.42-.07.79-.39,1.09-.07-.43-.02-.83.39-1.09Z"/>
      <path class="cls-10" d="M310.49,128.39c-.3-.27-.35-.57-.12-.91.23.28.27.58.12.91Z"/>
      <path class="cls-4" d="M149.45,19.7c2.2,4.24,5.16,7.01,8.95,9.16.58-1.02,1.05-2.01,1.66-2.91,1.58-2.32,4.03-3.11,6.47-2.15,2.72,1.07,4.23,3.56,3.62,6.37-1.35,6.25-4.79,10.6-11.26,12.18-2.35.58-4.51-.04-6.65-.79-4.48-1.57-7.76-4.5-10.02-9.25,3.52.92,6.35,2.56,9.61,2.91-.94-1.09-2.11-1.8-2.95-2.92-3.09-4.15-1.99-8.09.56-12.6ZM168.05,28.17c-.3-.63-.7-1.18-1.58-1.09-.91.09-1.26.78-1.23,1.51.03.69.66,1.04,1.35,1,.8-.05,1.34-.47,1.46-1.42Z"/>
      <path class="cls-12" d="M172.55,32.36c0,.32-.12.6-.43.69-.36.1-.62-.12-.58-.45.03-.25.23-.56.45-.68.38-.21.49.14.57.44Z"/>
      <path class="cls-13" d="M304.21,26.83c-.37.93-.96,1.63-2.06,1.44-.88-.15-1.56-.71-1.38-1.7.17-.95.72-1.82,1.8-1.71,1.01.11,1.53.94,1.64,1.97Z"/>
      <path class="cls-1" d="M310.02,29.08c-.46,0-.6-.26-.6-.59.01-.5.3-.73.79-.66.41.06.87.18.75.71-.1.49-.63.44-.94.55Z"/>
      <path class="cls-7" d="M274.83,17.57q-4.68-1.83-8.61-.06c-.11-.13-.36-.31-.33-.39,1.09-3.08.18-5.57-2.57-7.5,1.55-1.31,3.46-.67,4.72-1.67,1.21-.97,1.25-2.79,2.73-3.95.97,3.24,2.94,5.21,6.7,4.88-.67,1.87-2.61,2.44-2.92,4.07-.29,1.51.18,3.04.28,4.62Z"/>
      <path class="cls-7" d="M313.1,62.75c-2.53-1.91-4.79-1.34-7.45.53,1.11-3.15.53-5.38-2.21-7.42,3.28-.12,5.39-1.21,6.24-4.51,1.12,2.92,2.62,4.61,5.83,4.32-1.4,2.28-3.32,4.11-2.41,7.08Z"/>
      <path class="cls-8" d="M192.58,21.77c-.02,1.4-1.13,2.64-2.43,2.68-1.45.05-2.77-1.27-2.73-2.7.05-1.52,1.3-2.73,2.78-2.67,1.29.05,2.39,1.3,2.37,2.7Z"/>
      <path class="cls-13" d="M243.27,183.03c-4.12,5.28-10.02,6.32-16.29,1-1.84,1.59-3.87,2.99-6.36,3.41-3.85.65-6.78-1.13-9.38-3.68-3.63-6.1-2.24-12.13.35-18.09.98-2.26,2.17-4.45,3.44-6.57.76-1.27.52-1.95-.62-2.79-3.72-2.75-7.85-4.47-12.36-5.43-3.14-.67-3.89-1.74-4-4.85-.25-7.27,3.42-12.59,8.6-17.08,2.44-2.12,4.55-4.47,6.48-7.05,1.92-2.58,4.11-4.89,6.86-6.66,4.93-3.18,9.76-2.85,14.46.38,2.22,1.53,4.21,3.38,5.77,5.59,2.23,3.15,4.84,5.89,7.85,8.31,5.02,4.05,7.86,9.25,7.8,15.82-.03,3.93-.99,5.19-4.89,5.86-4.3.73-7.92,2.77-11.45,5.16-1.22.83-1.36,1.5-.57,2.75,1.82,2.88,3.47,5.86,4.57,9.11,1.68,4.96,2.03,9.9-.26,14.79ZM247.25,134.01c-.03-.4-.25-.62-.65-.65l.02.02c-4.14-3.58-7.75-7.65-11.01-12.05-.92-1.25-2.18-2.18-3.51-3-3.18-1.97-6.39-2.07-9.66-.26-2.29,1.27-4.17,3.01-5.72,5.12-2.69,3.67-5.71,7-9.22,9.94-2.16,1.82-4.23,3.97-4.55,7.1l.05-.05c-.69.5-.61,1.22-.57,1.93-.77,1.54-.76,3.14-.55,4.71.89.35,1.58.13,2.25-.12,5.51-2.05,11.17-3.69,16.49-6.25,4-1.93,8.09-3.66,12.38-4.83,1.98-.54,3.99-1.11,6.1-.74,4.86.85,7.81,4.18,8.78,9.9.33,1.96,1.05,2.44,3.17,2.24,1.89-.17,1.24-1.62,1.23-2.6,0-1,.04-2.09-.69-2.95,0-.61.06-1.25-.61-1.61l.1-.09c-.04-.59-.1-1.17-.75-1.44h.06c-.28-1.63-1.25-2.79-2.56-3.72l.02.03c-.04-.39-.24-.63-.65-.66l.03.03ZM216.02,166.35v-.07c-2.2,2.53-2.46,5.74-3,8.82-.23,1.32-.1,2.66.36,3.97.81,2.29,2.13,4.08,4.68,4.4,2.53.32,4.67-.44,5.96-2.84,1.49-1.03,1.6-3.04,2.9-4.29,1.62,1.08,1.39,3.3,2.96,4.26,1.27,2.41,3.42,3.22,5.94,2.98,2.25-.21,3.7-1.67,4.53-3.75.42-1.07.67-2.16.67-3.32,0-2.82-.55-5.5-1.87-8-.17-2.27-1.54-4.02-2.55-5.92-1.5-2.81-1.54-2.81-4.37-1.57-2.82,1.24-5.6,2.02-8.66.64-1.37-.61-2.79-2.11-4.26-1.38-1.43.72-1.77,2.67-2.57,4.09-.57.53-.87,1.16-.7,1.95ZM209.73,149.21c4.25,2.23,7.63,4.93,11.31,7.21,3.74,2.32,7.49,2.72,11.36.4.44-.27.86-.56,1.3-.84,2.87-1.83,5.75-3.65,8.61-5.51.54-.35,1.45-.4,1.39-1.33-11.16-2.18-22.3-3.42-33.97.08ZM223.74,143.31c6.63.53,12.74,1.31,18.82,2.33,1.71.29,2.41-.24,2.03-1.62-.76-2.72-2.92-5.88-6.74-5.74-3.3.12-6.09,1.75-9.16,2.53-1.61.41-3.37.87-4.95,2.49Z"/>
      <path class="cls-13" d="M212.52,104.06c.35,13.12-17.14,26.54-32.39,17.44-6.62-3.95-10.71-9.6-11.62-17.36-.5-4.29.41-8.29,2.34-12.17,3.2-6.46,8.35-10.38,15.2-12.25.59-.16,1.21-.3,1.82-.28.78.03,1.33.46,1.54,1.28.2.77.15,1.49-.56,1.92-.7.42-1.47.72-2.23,1.03-6.74,2.77-11.28,7.42-13.05,14.66-1.35,5.51.16,13.55,7.63,18.58,5.58,3.75,13.12,3.76,18.99-.16,5.86-3.91,8.74-10.14,7.19-16.2-1.26-4.94-4.3-8.53-9.38-9.78-4.74-1.17-8.79.42-11.98,4.06-3.31,3.78-3.41,9.16-.31,12.45,3.02,3.21,8.63,2.76,11.11-.88,1.14-1.67,1.12-3.83-.05-5.18-1.43-1.65-3.56-1.37-4.48.6-.17.37-.28.78-.38,1.18-.26.98-.98,1.27-1.88,1.25-1.09-.02-1.79-.62-1.97-1.64-.35-1.99.29-3.69,1.82-5,2.23-1.91,4.85-2.44,7.52-1.33,2.87,1.2,4.51,3.57,4.94,6.67.25,1.79-.14,3.46-1.05,5.07-2.57,4.55-7.65,6.98-12.6,5.95-5.21-1.09-9.45-5.8-9.91-11.01-.72-8.27,5.59-15.61,13.91-16.93,11.53-1.83,20.51,8.43,19.85,18.03Z"/>
      <path class="cls-13" d="M262.21,124.58c-4.35-.64-8.36-2.01-11.99-4.62-10.19-7.33-12.13-21.37-2.59-30,4.09-3.7,9.05-4.69,14.33-3.79,8.5,1.46,14.44,9.1,13.3,17.37-.69,5.02-4.69,9.35-9.77,10.4-5.03,1.04-9.9-1.12-12.46-5.54-3.02-5.2-.27-11.51,5.47-12.56,2.78-.51,6.06,1.17,7.16,3.72.42.96.63,1.99.25,3.03-.34.94-.96,1.62-2.05,1.57-.94-.05-1.42-.63-1.76-1.49-1-2.59-1.63-3.02-3.31-2.42-1.96.7-2.9,3.05-2.05,5.14,1.51,3.74,6.79,5.24,10.27,2.92,3.92-2.62,4.81-8.2,1.98-12.42-2.79-4.16-8.05-6.31-12.72-5.2-4.85,1.16-9.03,5.79-9.75,10.57-1.81,12.04,10.23,20.32,20.11,18.19,7.41-1.6,12.8-7.07,14.12-14.37,1.31-7.27-2.3-15.12-8.79-19.15-1.85-1.15-3.82-2.07-5.88-2.77-1.09-.37-1.99-.85-1.51-2.19.45-1.26,1.4-1.66,2.72-1.37,2.66.58,5.13,1.6,7.41,3.05,6.44,4.09,10.29,9.99,10.86,17.55.65,8.62-3.07,15.41-10.07,20.44-3.29,2.36-7.04,3.36-10.96,3.95-.77-.2-1.55-.19-2.32,0Z"/>
      <path class="cls-3" d="M277.82,126.53c2.47-.26,5.05.46,7.61,1.28,1.09.35,2.03.94,2.94,1.65,3.81,2.91,2.96,6.23-.8,8.29-3.7,2.03-7.71,2.79-11.93,2.11-1.73-.27-3.47-.51-5.15-.95-1.7-.45-3.29-1.23-4.48-2.61-2.21-2.54-1.75-5.57,1.21-7.22,3.2-1.78,6.66-2.65,10.61-2.55Z"/>
      <path class="cls-3" d="M176.62,126.54c3.25-.21,6.38.71,9.33,2.37,1.89,1.06,2.89,2.61,2.81,4.8-.07,2.01-1.26,3.14-2.95,4-6.23,3.16-12.54,2.96-18.91.53-.76-.29-1.45-.8-2.11-1.3-2.59-1.94-2.63-5.11-.04-7.06,3.46-2.6,7.44-3.49,11.87-3.35Z"/>
      <path class="cls-6" d="M262.21,124.58c.78-.18,1.55-.19,2.32,0-.71.78-2.21,1.04-2.98.43-.12-.1.39-.33.66-.44Z"/>
      <path class="cls-13" d="M168.05,28.17c-.12.95-.66,1.37-1.46,1.42-.69.04-1.32-.31-1.35-1-.03-.73.32-1.42,1.23-1.51.88-.09,1.28.46,1.58,1.09Z"/>
      <path class="cls-7" d="M251.09,139.76s-.1.09-.1.09c-.01.62,0,1.23.61,1.61.73.86.69,1.96.69,2.95,0,.98.65,2.43-1.23,2.6-2.13.2-2.84-.29-3.17-2.24-.97-5.72-3.92-9.05-8.78-9.9-2.11-.37-4.12.2-6.1.74-4.29,1.17-8.38,2.91-12.38,4.83-5.32,2.56-10.98,4.2-16.49,6.25-.67.25-1.36.47-2.25.12-.21-1.57-.23-3.17.55-4.71.69-.5.58-1.23.57-1.93,0,0-.05.05-.05.05,1.39-1.49,2.83-2.94,4.17-4.47,3.2-3.62,7.08-6.58,10.01-10.49,1.73-2.3,4.03-4.11,6.67-5.43,1.14-.57,2.33-1.01,3.57-.72,4.03.94,7.65,2.7,9.88,6.33,1.55,2.52,3.52,4.54,5.9,6.21,1.06.75,1.85,2.06,3.45,1.71,0,0-.02-.02-.02-.02.07.37.28.58.65.65,0,0-.03-.03-.03-.03.06.37.28.59.65.66l-.02-.03c.06,1.79.61,3.23,2.56,3.72,0,0-.06,0-.06,0-.05.64.16,1.13.75,1.44ZM222.81,129.74c.58-1.9.12-3.19-.99-4.25-.97-.93-2.07-.42-2.77.27-.79.78.26,1.21.76,1.63.87.73,1.78,1.41,2.99,2.35ZM231.25,129.61c1.36-1,2.54-1.81,3.65-2.71.61-.49.53-1.07-.22-1.44-1.62-.8-2.83-.34-3.43,1.34-.28.79-.37,1.6,0,2.81Z"/>
      <path class="cls-9" d="M229.88,180.61c-1.57-.96-1.34-3.19-2.96-4.26-1.3,1.26-1.41,3.26-2.9,4.3-1.07.22-2.03.66-3.26.27-3.38-1.07-4.97-3.06-5.28-7.04-.2-2.56.2-5.07.56-7.59,0,0-.01.07-.01.07.84-.43.63-1.24.7-1.95.8-1.42,1.14-3.37,2.57-4.09,1.46-.73,2.89.76,4.26,1.38,3.07,1.38,5.85.6,8.66-.64,2.83-1.25,2.87-1.25,4.37,1.57,1.01,1.9,2.39,3.65,2.55,5.92,0,1.54.05,3.09.02,4.63-.12,5.62-3.83,8.6-9.27,7.45Z"/>
      <path class="cls-2" d="M209.73,149.21c11.67-3.5,22.81-2.26,33.97-.08.07.93-.85.98-1.39,1.33-2.85,1.86-5.74,3.68-8.61,5.51-.44.28-.86.58-1.3.84-3.87,2.33-7.63,1.92-11.36-.4-3.68-2.28-7.06-4.99-11.31-7.21Z"/>
      <path class="cls-8" d="M246.62,133.38c-1.61.35-2.4-.97-3.45-1.71-2.38-1.68-4.35-3.69-5.9-6.21-2.24-3.63-5.85-5.39-9.88-6.33-1.24-.29-2.43.15-3.57.72-2.64,1.31-4.94,3.12-6.67,5.43-2.93,3.91-6.81,6.86-10.01,10.49-1.35,1.53-2.78,2.98-4.17,4.47.32-3.13,2.38-5.29,4.55-7.1,3.51-2.95,6.52-6.28,9.22-9.94,1.55-2.11,3.43-3.84,5.72-5.12,3.27-1.82,6.48-1.71,9.66.26,1.33.82,2.59,1.76,3.51,3,3.26,4.4,6.87,8.46,11.01,12.05Z"/>
      <path class="cls-12" d="M223.74,143.31c1.58-1.62,3.34-2.08,4.95-2.49,3.07-.78,5.87-2.41,9.16-2.53,3.82-.14,5.98,3.01,6.74,5.74.38,1.38-.32,1.9-2.03,1.62-6.08-1.02-12.2-1.8-18.82-2.33Z"/>
      <path class="cls-5" d="M216.03,166.28c-.35,2.52-.76,5.03-.56,7.59.31,3.98,1.9,5.96,5.28,7.04,1.23.39,2.19-.06,3.26-.27-1.29,2.4-3.43,3.16-5.96,2.84-2.56-.33-3.87-2.11-4.68-4.4-.46-1.3-.59-2.65-.36-3.97.55-3.09.8-6.3,3.01-8.82Z"/>
      <path class="cls-5" d="M229.88,180.61c5.44,1.14,9.15-1.83,9.27-7.45.03-1.54,0-3.09-.02-4.63,1.33,2.5,1.87,5.18,1.87,8,0,1.16-.24,2.25-.67,3.32-.83,2.08-2.28,3.53-4.53,3.75-2.51.24-4.67-.57-5.94-2.98Z"/>
      <path class="cls-8" d="M250.4,138.33c-1.95-.49-2.5-1.93-2.56-3.72,1.32.92,2.28,2.09,2.56,3.72Z"/>
      <path class="cls-8" d="M203,140.19c.02.7.12,1.43-.57,1.93-.05-.71-.12-1.43.57-1.93Z"/>
      <path class="cls-5" d="M216.72,164.4c-.07.71.14,1.52-.7,1.95-.17-.8.13-1.42.7-1.95Z"/>
      <path class="cls-8" d="M251.6,141.47c-.62-.38-.63-.99-.61-1.61.67.36.61,1,.61,1.61Z"/>
      <path class="cls-8" d="M251.09,139.76c-.59-.3-.8-.8-.75-1.44.65.27.7.85.75,1.44Z"/>
      <path class="cls-8" d="M247.86,134.64c-.37-.07-.58-.29-.65-.66.41.03.6.27.65.66Z"/>
      <path class="cls-8" d="M247.25,134.01c-.37-.06-.59-.28-.65-.65.41.03.62.24.65.65Z"/>
      <path class="cls-13" d="M222.81,129.74c-1.21-.94-2.13-1.62-2.99-2.35-.5-.42-1.55-.85-.76-1.63.7-.69,1.79-1.2,2.77-.27,1.11,1.06,1.56,2.35.99,4.25Z"/>
      <path class="cls-13" d="M231.25,129.61c-.37-1.21-.27-2.02,0-2.81.59-1.68,1.81-2.15,3.43-1.34.75.37.82.94.22,1.44-1.11.9-2.29,1.71-3.65,2.71Z"/>
    </g>
  </g>
</svg>