<?xml version="1.0" encoding="UTF-8"?>
<svg id="Sprite_Alien" xmlns="http://www.w3.org/2000/svg" viewBox="0 0 471.47 423.94">
  <defs>
    <style>
      .cls-1 {
        fill: #821c3b;
      }

      .cls-1, .cls-2, .cls-3, .cls-4, .cls-5, .cls-6, .cls-7, .cls-8, .cls-9, .cls-10, .cls-11, .cls-12, .cls-13, .cls-14 {
        stroke-width: 0px;
      }

      .cls-2 {
        fill: #fefefe;
      }

      .cls-3 {
        fill: #b52853;
      }

      .cls-4 {
        fill: #8c2d74;
      }

      .cls-5 {
        fill: #661c4b;
      }

      .cls-6 {
        fill: #822e82;
      }

      .cls-7 {
        fill: #dd2630;
      }

      .cls-8 {
        fill: #c32746;
      }

      .cls-9 {
        fill: #22412b;
      }

      .cls-10 {
        fill: #cd283d;
      }

      .cls-11 {
        fill: #110b0c;
      }

      .cls-12 {
        fill: #961c33;
      }

      .cls-13 {
        fill: #3a6446;
      }

      .cls-14 {
        fill: #a02b66;
      }
    </style>
  </defs>
  <g id="Faces_ALIEN">
    <g id="E6">
      <g>
        <path class="cls-11" d="M199.2,265.7c-.81-.05-1.64-.03-2.44-.18-3.03-.56-4.67-2.65-4.7-6.01-.03-3.85,1.07-7.47,2.44-11.01,3.29-8.51,8.09-16.05,14.86-22.21,5.16-4.7,11.05-8.1,18.06-9.28,6.37-1.07,12.32.26,17.97,3.18,7.04,3.64,12.43,9.1,16.83,15.57,3.87,5.68,6.88,11.78,8.48,18.5.54,2.28.92,4.61.41,6.94-.62,2.81-2.37,4.19-5.22,4.41-3.7.28-7.26-.6-10.8-1.42-5.89-1.36-11.75-2.83-17.73-3.81-4.59-.75-9.1-.39-13.63.39-6.14,1.06-12.13,2.77-18.21,4.08-2.08.45-4.18.78-6.32.84ZM249.77,260.49c.85.09.98-.65,1.3-1.1.54-.74,1.37-1.54,1.39-2.32.02-.88-1.11-1.46-1.8-2.08-4.92-4.47-10.5-6.45-17.08-4.31-1.48.48-2.86.46-4.35.02-2.65-.79-5.35-1.27-8.13-.71-4.14.83-7.53,2.94-10.45,5.94-.37.38-.22.61-.03.9.7,1.06,1.43,2.11,2.12,3.18.33.51.76.56,1.29.43,1.27-.31,2.54-.63,3.81-.91,4.31-.95,8.65-1.84,13.07-1.96,4.98-.14,9.83.94,14.67,1.96,1.42.3,2.82.66,4.19.99ZM264.16,263.26h.71c2.85,0,4-1.15,4.02-3.97.01-2.58-.59-5.04-1.38-7.46-2.02-6.21-5.09-11.88-9-17.09-1.85-2.46-3.83-4.81-6.24-6.76-.51-.41-.67-.23-.93.17-.67,1.04-1.33,2.09-2.18,3-.38.41-.3.7.04,1.09,2.26,2.59,3.99,5.47,4.84,8.83.6,2.37,1,4.73.62,7.21-.31,2-.76,3.94-1.55,5.8-.22.52-.06.82.31,1.07.47.31.53-.26.66-.43.66-.92,1.25-1.88,1.86-2.84.24-.38.38-.93.93-.91.54.02.69.55.9.95,1.62,3.09,2.45,6.38,2.36,9.87-.02.82.28,1.23,1.04,1.24,1.06.01,2.09.41,2.99.24ZM194.57,258.93c0,.46-.02.92,0,1.38.1,1.56,1.18,2.78,2.73,2.91,1.7.15,3.39,0,5.08-.22.48-.06.69-.34.73-.87.09-1.3.24-2.59.41-3.88.29-2.31,1.06-4.46,2.21-6.48.63-1.1.98-1.12,1.67-.05.52.8,1.07,1.58,1.53,2.42.45.82.74.33,1.05-.06.3-.37.06-.73-.08-1.09-1.28-3.38-1.6-6.84-.94-10.4.74-3.96,2.6-7.36,5.26-10.34.38-.42.47-.75.02-1.16-.81-.75-1.47-1.64-1.97-2.61-.44-.87-.9-.8-1.53-.22-2.57,2.35-4.82,4.99-6.82,7.82-2.89,4.08-5.31,8.42-7.1,13.1-1.2,3.15-2.2,6.33-2.24,9.74ZM243.94,227.12c-.28-1.78-.8-3.36-.86-5.03-.02-.48-.47-.61-.82-.74-1.06-.39-2.13-.76-3.2-1.1-3.33-1.06-6.72-1.6-10.22-1.04-2.66.43-5.26,1.05-7.73,2.16-.38.17-.72.35-.8.88-.23,1.49-.54,2.98-.81,4.46-.04.23-.13.53.12.68.25.14.46-.09.67-.2.94-.49,1.84-1.08,2.82-1.48,3.93-1.61,7.98-2.23,12.22-1.48,2.86.51,5.52,1.46,7.98,2.98.17.1.33.33.54.15.09-.07.08-.26.08-.25ZM206.59,253.99c-1.11,2.65-1.56,5.27-1.6,7.98,0,.59.27.53.64.44,1.84-.44,3.68-.89,5.59-1.35-1.56-2.38-3.06-4.67-4.63-7.07ZM252.17,261.04c1.52.36,2.89.67,4.26,1.01,2.02.5,2.02.51,1.84-1.5-.03-.32-.02-.64-.06-.95-.2-1.89-.61-3.73-1.48-5.59-1.54,2.37-3.02,4.63-4.57,7.03ZM246.53,231.2c1.56-1.36,2.64-2.93,3.65-4.55.19-.31.18-.47-.11-.69-1.58-1.18-3.21-2.29-5.06-3.3.51,2.89,1.01,5.66,1.52,8.54ZM218.4,222.68c-1.84,1.01-3.47,2.08-5.01,3.3-.2.16-.37.29-.18.6,1,1.66,2.09,3.25,3.66,4.63.52-2.88,1.01-5.64,1.53-8.54Z"/>
        <path class="cls-11" d="M200.16,211.9c5.38-1.32,10.57-3.13,15.45-5.8-12.8,2.86-25.23,3.23-36.52-4.95,9.01,4.76,18.56,5.75,28.59,4.21-.31-.29-.58-.16-.81-.18-.25-.02-.5,0-.74.01-6.28.12-12.43-.56-18.32-2.96-8.38-3.41-13.79-9.55-16.6-18.05-2-6.05-2.48-12.26-1.59-18.56.13-.92.02-1.45-1-1.79-1.79-.6-3.52-1.39-5.55-2.22,3.38-.67,6.37-.3,9.34.45,6.31,1.59,12.01,4.57,17.51,7.95,8.73,5.35,16.78,11.6,24.49,18.31,2.7,2.35,5.35,4.76,8.01,7.17-5.45-12.12-12.82-22.8-23.37-31.12.53-.23.82.18,1.16.39,7.96,5.07,14.03,11.97,19.11,19.82,3.14,4.86,5.66,10.03,7.76,15.41.59,1.52.55,1.68-.82,2.59-6.86,4.54-14.23,7.83-22.42,9.08-1.21.18-2.42.41-3.68.23ZM179.68,167.92h0c-.09-.17-.25-.21-.42-.2h-.01c-.43-.38-.93-.58-1.48-.67-1.41-.54-2.82-1.09-4.25-1.61-.46-.16-1-.31-1.05.5-.13,1.9-.44,3.8-.38,5.69.09,3.1.41,6.19,1.23,9.2.88,3.22,2.01,6.32,4,9.05,1.1,1.97,2.56,3.63,4.29,5.06.14.29.36.5.66.64.07.18.22.23.39.27.07.06.14.12.21.18.08.07.16.13.23.2.88.78,1.89,1.38,2.91,1.93,2.94,1.58,5.99,2.89,9.37,3.22.27.24.6.19.92.18l.09.02h.09c.32.3.72.18,1.1.2.22.05.43.1.65.15,1.41.22,2.82.39,4.25.42.14,0,.29.01.43.02,3.13.13,6.25.11,9.36-.4,3.25-.23,6.44-.81,9.6-1.52.98-.22.52-.66.04-1.02-1.56-1.5-3-3.13-4.72-4.46-.31-.43-.7-.78-1.15-1.05-1.32-1.15-2.63-2.31-3.95-3.46-.43-.5-.88-.97-1.49-1.25,0,0,0,.02,0,.02-.08-.08-.15-.16-.23-.24-1.18-1.01-2.26-2.16-3.62-2.95h0c-.39-.54-.86-1.01-1.48-1.29h0c-.08-.06-.16-.13-.23-.19h0c-.07-.17-.2-.26-.39-.27h.01c-.07-.22-.23-.34-.46-.39h0c-.24-.28-.48-.74-.89-.51-.3.17-.18.63-.09.97-.02.29-.03.57-.05.86-.43,2.75-.74,5.52-1.74,8.15-.43,1.12-.85,2.24-1.54,3.24-.4.59-.8.64-1.21.01-.3-.47-.59-.95-.88-1.43h0c0-.17-.03-.33-.22-.42h0c0-.19-.04-.36-.2-.47-1.64-5.3-2.6-10.68-1.75-16.25.1-.64-.23-.99-.83-1.14l-.24-.16-.04-.02c-.06-.18-.2-.24-.38-.23h0c-.02-.13-.09-.18-.22-.16-.08-.18-.23-.26-.42-.27-.02-.13-.1-.18-.22-.17l-.04-.03c-.05-.2-.2-.23-.37-.23h0c-.07-.22-.22-.33-.45-.35-.04-.06-.1-.09-.17-.08l-.25-.18s-.02-.01-.02-.01c-.76-.82-1.87-1.1-2.71-1.8-1.01-.72-2.08-1.34-3.22-1.83-1.32-.94-2.77-1.67-4.23-2.36h0c-.02-.12-.1-.16-.22-.15-.05-.05-.11-.08-.18-.07-.22-.28-.52-.41-.87-.43h0c-.1-.17-.25-.21-.43-.21h0c-.1-.17-.25-.2-.43-.2Z"/>
        <path class="cls-11" d="M299.14,161.67c-2.09.86-3.97,1.65-5.88,2.4-.56.22-.69.46-.61,1.08.87,7.06.49,14.02-2.13,20.7-3.93,10.03-11.41,15.91-21.81,18.26-4.17.94-8.41,1.19-12.68,1.1-.56-.01-1.13,0-1.68.06,9.99,1.64,19.63.78,28.73-4.1-.84.88-1.8,1.54-2.83,2.12-6.82,3.86-14.21,5.02-21.93,4.55-4.1-.25-8.14-.87-12.11-1.98,4.99,2.69,10.24,4.66,15.74,6-1.16.28-2.29-.03-3.41-.17-1.12-.14-2.23-.37-3.34-.62-6.91-1.56-13.21-4.54-19.1-8.43-1.41-.93-1.45-1.1-.85-2.66,3.73-9.59,8.86-18.33,15.84-25.94,3.15-3.44,6.68-6.44,10.6-8.98.21-.14.4-.43.91-.18-10.09,8.22-17.29,18.53-22.59,30.25.55.22.76-.32,1.06-.61,10-9.49,20.69-18.11,32.52-25.23,5.13-3.09,10.47-5.75,16.34-7.21,2.46-.61,4.94-.92,7.48-.76.53.03,1.05.1,1.72.35ZM278.89,196.45c.08-.07.16-.14.24-.2.28-.04.49-.19.6-.45,1.99-1.44,3.6-3.23,4.92-5.29,1.45-1.82,2.34-3.94,3.17-6.08,1.43-3.65,2.12-7.47,2.32-11.37.12-2.3-.01-4.59-.31-6.88-.09-.68-.38-.92-1.06-.72-1.49.44-2.99.84-4.34,1.64-1.12.37-2.21.81-3.19,1.48-1.62.74-3.23,1.51-4.7,2.52-.93.37-1.77.91-2.56,1.52-1.53.76-2.94,1.7-4.27,2.77-1.14.37-1.79,1.45-2.86,1.93-.3.13-.17.42-.15.66.1.94.23,1.89.27,2.84.22,4.97-.72,9.75-2.49,14.38-.02.07-.04.13-.07.2h0c-.17.09-.22.25-.22.43-.17.08-.2.23-.21.4-.18.08-.23.23-.26.4-.06.08-.12.16-.19.24-.9.79-1-.35-1.46-.61h0c-.06-.1-.12-.2-.18-.29-.13-.45-.31-.88-.65-1.22h0c-.04-.12-.08-.26-.11-.39-1.2-3.39-1.76-6.9-2.02-10.47-.04-.6-.25-.68-.69-.34-.22.17-.41.38-.61.57h0c-.28.04-.48.18-.59.45-.08.07-.17.13-.25.2-.08.07-.15.13-.23.2,0,0,0,0,0,0-.08.07-.16.14-.24.21v-.02c-1.1.56-1.76,1.64-2.75,2.32-.17.03-.33.08-.37.28-.08.07-.17.14-.25.22-.07.06-.15.13-.22.19,0,0,0,0,0,0-.07.07-.15.14-.22.21,0,0,0,0,0,0-.07.07-.15.14-.22.21h0c-.08.06-.15.14-.23.21v-.02c-1.08.57-1.93,1.43-2.77,2.29-1.08.76-2.02,1.67-2.9,2.65-.72.48-1.4,1.01-1.94,1.7-1.5,1.22-2.85,2.59-4.16,4-.37.13-.51.44-.65.87,3.56.84,7.1,1.52,10.73,1.71,3.96.59,7.93.58,11.91.17.21-.02.43-.04.64-.05.48.03.93-.06,1.36-.28,4.94-.36,9.45-1.96,13.55-4.73.08-.06.16-.13.24-.19.17-.01.31-.09.4-.25.07-.06.15-.12.22-.19,0,0,0,0,0,0Z"/>
        <path class="cls-11" d="M218.8,268.61c8-6.48,19.07-5.73,25.78.01-8.59-3.1-17.17-3.04-25.78-.01Z"/>
        <path class="cls-11" d="M275.35,255.85c1.38,2.92,2.26,5.94,1.53,9.19-.88,3.92-3.91,6.29-7.96,6.31-2.54.02-4.93-.64-7.23-1.71,2.45.03,4.88.12,7.31-.32,4.52-.82,5.88-3.67,6.27-7.29.22-2.05.22-4.1.09-6.18Z"/>
        <path class="cls-11" d="M201.79,269.61c-3.02,1.34-6.12,2.27-9.43,1.46-3.22-.78-5.21-2.87-5.89-6.11-.68-3.25.21-6.25,1.6-9.15-.17,2.47-.21,4.94.26,7.37.73,3.84,2.83,5.75,6.7,6.25,2.26.3,4.52.28,6.77.18Z"/>
        <polygon class="cls-11" points="199.76 212.1 199.67 212.07 199.76 212.05 199.76 212.1"/>
        <path class="cls-13" d="M249.77,260.49c-1.37-.32-2.77-.69-4.19-.99-4.84-1.02-9.69-2.1-14.67-1.96-4.42.13-8.76,1.02-13.07,1.96-1.28.28-2.54.6-3.81.91-.53.13-.96.09-1.29-.43-.69-1.07-1.42-2.12-2.12-3.18-.19-.29-.34-.52.03-.9,2.91-2.99,6.31-5.11,10.45-5.94,2.78-.56,5.49-.08,8.13.71,1.49.44,2.87.46,4.35-.02,6.58-2.13,12.16-.16,17.08,4.31.69.63,1.81,1.21,1.8,2.08-.02.78-.85,1.58-1.39,2.32-.33.45-.45,1.19-1.3,1.1Z"/>
        <path class="cls-9" d="M264.16,263.26c-.9.17-1.93-.23-2.99-.24-.75-.01-1.06-.41-1.04-1.24.09-3.49-.74-6.78-2.36-9.87-.21-.4-.36-.93-.9-.95-.55-.02-.69.53-.93.91-.61.95-1.2,1.92-1.86,2.84-.12.17-.19.75-.66.43-.38-.25-.54-.55-.31-1.07.79-1.86,1.24-3.79,1.55-5.8.38-2.48-.02-4.84-.62-7.21-.85-3.36-2.59-6.24-4.84-8.83-.34-.39-.42-.68-.04-1.09.85-.9,1.51-1.96,2.18-3,.26-.4.42-.58.93-.17,2.41,1.96,4.39,4.31,6.24,6.76,3.91,5.21,6.99,10.88,9,17.09.78,2.41,1.39,4.88,1.38,7.46-.02,2.81-1.17,3.97-4.02,3.97h-.71Z"/>
        <path class="cls-9" d="M194.57,258.93c.04-3.41,1.04-6.6,2.24-9.74,1.79-4.68,4.21-9.02,7.1-13.1,2.01-2.83,4.25-5.47,6.82-7.82.63-.58,1.09-.65,1.53.22.5.98,1.16,1.86,1.97,2.61.45.41.36.74-.02,1.16-2.66,2.98-4.52,6.38-5.26,10.34-.66,3.55-.34,7.02.94,10.4.14.37.37.72.08,1.09-.31.39-.6.88-1.05.06-.46-.84-1.01-1.62-1.53-2.42-.69-1.07-1.04-1.05-1.67.05-1.15,2.02-1.92,4.17-2.21,6.48-.16,1.29-.32,2.59-.41,3.88-.04.52-.24.81-.73.87-1.69.21-3.38.37-5.08.22-1.54-.14-2.63-1.35-2.73-2.91-.03-.46,0-.92,0-1.38Z"/>
        <path class="cls-9" d="M243.94,227.12s0,.17-.08.25c-.22.19-.37-.04-.54-.15-2.46-1.52-5.12-2.48-7.98-2.98-4.24-.75-8.29-.13-12.22,1.48-.98.4-1.88.99-2.82,1.48-.21.11-.43.34-.67.2-.25-.15-.16-.45-.12-.68.27-1.49.58-2.97.81-4.46.08-.53.41-.71.8-.88,2.47-1.11,5.07-1.73,7.73-2.16,3.5-.56,6.89-.02,10.22,1.04,1.08.34,2.15.71,3.2,1.1.35.13.8.26.82.74.05,1.67.58,3.26.86,5.03Z"/>
        <path class="cls-2" d="M206.59,253.99c1.57,2.4,3.07,4.69,4.63,7.07-1.91.46-3.75.9-5.59,1.35-.37.09-.65.15-.64-.44.04-2.71.5-5.33,1.6-7.98Z"/>
        <path class="cls-2" d="M252.17,261.04c1.56-2.39,3.03-4.65,4.57-7.03.87,1.85,1.28,3.69,1.48,5.59.03.32.03.64.06.95.18,2,.18,1.99-1.84,1.5-1.37-.34-2.75-.65-4.26-1.01Z"/>
        <path class="cls-2" d="M246.53,231.2c-.51-2.88-1-5.65-1.52-8.54,1.85,1.01,3.47,2.12,5.06,3.3.29.22.3.38.11.69-1.01,1.62-2.09,3.19-3.65,4.55Z"/>
        <path class="cls-2" d="M218.4,222.68c-.52,2.9-1.01,5.65-1.53,8.54-1.57-1.38-2.65-2.98-3.66-4.63-.19-.31-.02-.44.18-.6,1.54-1.22,3.18-2.29,5.01-3.3Z"/>
        <path class="cls-8" d="M197.79,195.15c.29.48.58.96.88,1.43.4.63.8.58,1.21-.01.68-1,1.11-2.12,1.54-3.24,1-2.63,1.31-5.4,1.74-8.15.29.5.17,1.03.09,1.54-.32,1.9-.67,3.79-1.01,5.69-.24.61-.47,1.22-.71,1.83-.13.34-.26.72.07.98.36.28.68-.03.93-.24,1.62-1.37,3.41-2.5,4.65-4.34,1.38-2.04,1.44-2.67-.48-4.18,0-.15,0-.29,0-.44,1.36.79,2.44,1.93,3.62,2.95.08.08.15.16.23.24,0,0,0-.02,0-.02-.09.49.67.85.35,1.26-.64.81-.74,1.93-1.55,2.61-1.47,1.23-2.72,2.72-4.39,3.71-.87.51-1.75,1.15-2.7,1.34-1.16.23-2.31.54-3.48.71-.39.06-.38.35-.39.64-.54.07-1.05-.11-1.56-.22-2.4-.54-4.77-1.18-6.96-2.33.44-.94-.4-1.22-.9-1.49-1.38-.76-2.28-2.06-2.81-3.32-1-2.35-1.79-4.85-1.4-7.53.19-1.29.2-2.7.9-3.77,1.07-1.63,1.72-3.53,3.22-4.89.78-.7,1.37-1.79,2.68-.94.1.07.28.02.42.02,0,0,.02.01.02.01.08.06.17.12.25.18.07,0,.13.02.17.08,0,.12.01.24.02.37-.9.22-1.32,1.06-1.84,1.66-1.57,1.82-3.43,3.56-3.1,6.33.01.12-.06.29-.14.39-.78,1-.38,2.05-.14,3.09.09.38.25.74.3,1.12.19,1.31.76,2.45,1.4,3.59.81,1.45,2.31,2.11,3.43,3.21.69.67,1.62.93,2.53,1.26.71.26,1.48.14,2.16.52.4.22.58-.18.65-.48.08-.37.07-.77.09-1.16Z"/>
        <path class="cls-10" d="M197.79,195.15c-.03.39,0,.78-.09,1.16-.07.3-.24.7-.65.48-.68-.38-1.45-.26-2.16-.52-.9-.33-1.84-.58-2.53-1.26-1.12-1.09-2.62-1.76-3.43-3.21-.64-1.14-1.21-2.28-1.4-3.59-.06-.38-.22-.74-.3-1.12-.24-1.04-.63-2.09.14-3.09.08-.11.16-.27.14-.39-.33-2.77,1.53-4.51,3.1-6.33.52-.6.93-1.44,1.84-1.66.14,0,.28-.01.43-.02,0,0,0,0,0,0,.07.17.21.21.37.23,0,0,.04.03.04.03.07.06.15.11.22.17.19,0,.34.09.42.27.07.05.14.11.22.16,0,0,0,0,0,0,.07.17.22.21.38.23,0,0,.04.02.04.02.08.05.16.11.24.16.6.15.92.49.83,1.14-.85,5.57.11,10.95,1.75,16.25-.09.23-.29.5.2.47,0,0,0,0,0,0-.02.19.01.36.22.44,0,0,0-.01,0-.01ZM195,181.08c0-.69,0-1.61,0-2.52,0-.79-.34-.92-1-.56-1.05.57-1.97,1.37-2.5,2.36-.83,1.55-1.53,3.21-1.42,5.08.09,1.72.78,3.29,1.49,4.76.4.82,1.2,1.77,2.41,2.03,2.24.5,2.38-.04,1.97-2.02-.61-2.95-1.01-5.89-.96-9.13Z"/>
        <path class="cls-5" d="M177.3,189.88c-1.99-2.73-3.12-5.83-4-9.05-.82-3.01-1.14-6.1-1.23-9.2-.06-1.89.25-3.8.38-5.69.06-.81.6-.66,1.05-.5,1.42.51,2.83,1.07,4.25,1.61-.06.16-.11.31-.17.47-.34,1.19-.75,2.37-.9,3.61-.23.17-.21.4-.16.64-.02.28-.05.56-.07.84-.16.11-.19.26-.13.43-.03.57-.05,1.13-.08,1.7-.3,1.13-.3,2.27,0,3.4.02.35.04.7.06,1.05-.08.36.04.69.1,1.03.4,2.22,1.16,4.32,1.98,6.4-1.32-.31-1.94.29-1.56,1.55.17.56.51,1.07.47,1.69Z"/>
        <path class="cls-14" d="M186.06,171.34c1.14.49,2.21,1.11,3.22,1.83-.38,1.03-1.24,1.69-1.93,2.46-1.23,1.38-2.12,2.97-2.83,4.62-.56,1.31-.6,2.84-1.07,4.21-.28.82.44,1.43.21,2.11-.29.84-.02,1.59.12,2.38.25,1.37.55,2.71,1.19,3.97.23.45.3.91-.43.98-.55-.36-1.11-.73-1.66-1.09-.13-.26-.33-.43-.64-.43,0,0,0,0,0,0,0-.32-.24-.49-.4-.71-.85-1.14-1.96-2.1-2.4-3.52.32-.09.82.18.81-.51-.02-2.3.07-4.63.75-6.82.67-2.16,1.44-4.3,3.07-6.09.84-.91,2.26-1.74,1.98-3.4Z"/>
        <path class="cls-12" d="M182.88,192.81c.55.36,1.11.73,1.66,1.09,1.61,1.29,3.25,2.54,5.34,2.98,2.2,1.14,4.56,1.78,6.96,2.33.51.12,1.02.3,1.56.22,1.71.27,3.42.54,5.13.81.85.04,1.71.05,2.54.27.66,1.2.38,1.63-1.03,1.69-.72.03-1.46-.18-2.16.16-.14,0-.29-.01-.43-.02-1.38-.54-2.8-.67-4.25-.42-.22-.05-.43-.1-.65-.15-.31-.37-.72-.18-1.1-.21h-.09s-.09,0-.09,0c-.25-.33-.6-.2-.92-.18-3.38-.33-6.42-1.64-9.37-3.22-1.02-.55-2.04-1.14-2.91-1.93-.08-.07-.16-.13-.23-.2-.07-.06-.14-.12-.21-.18-.05-.2-.21-.25-.39-.27-.3-.13-.52-.34-.66-.64-.03-.74-.58-1.24-.9-1.84-.18-.36-.59-.71-.22-1.12.39-.44.77-.06,1.11.14.21.12.39.3.66.26,0,0,0,0,0,0-.01.47.32.45.64.43Z"/>
        <path class="cls-4" d="M186.06,171.34c.28,1.66-1.14,2.49-1.98,3.4-1.64,1.78-2.41,3.92-3.07,6.09-.68,2.19-.77,4.52-.75,6.82,0,.69-.5.42-.81.51,0,0,0,0,0,0,.02-.32.02-.63-.42-.65-.21-.29-.42-.58-.64-.87-.82-2.09-1.57-4.19-1.98-6.4-.06-.35-.18-.68-.1-1.03.6.39.43,1.13.74,1.66.11.17.1.44.37.45.26,0,.37-.21.43-.41.34-1.25.78-2.46,1.35-3.62.78-1.59,1.21-3.34,2.36-4.74.84-1.01,1.57-2.04.29-3.25-.06-.05-.03-.2-.04-.31,1.46.69,2.91,1.42,4.23,2.36Z"/>
        <path class="cls-6" d="M181.82,168.98c.01.1-.02.25.04.31,1.28,1.21.55,2.23-.29,3.25-1.16,1.4-1.59,3.15-2.36,4.74-.57,1.17-1.01,2.37-1.35,3.62-.05.2-.17.42-.43.41-.27,0-.27-.27-.37-.45-.32-.52-.14-1.26-.74-1.66-.02-.35-.04-.7-.06-1.05.35-1.13.36-2.27,0-3.4.03-.57.05-1.13.08-1.7.28-.07.46-.18.13-.43.02-.28.05-.56.07-.84.42-.13.49-.34.16-.64.16-1.24.56-2.42.9-3.61.55.07,1.1.13,1.65.2,0,0,.01,0,.01,0,.09.18.24.22.42.2,0,0,0,0,0,0,.09.19.25.23.43.2,0,0,0,0,0,0,.08.21.24.24.43.21,0,0,0,0,0,0,.14.45.48.49.87.43.07,0,.13.02.18.07.07.05.15.1.22.15h0Z"/>
        <path class="cls-14" d="M206.08,200.51c-.83-.23-1.69-.24-2.54-.27-.09-.55.27-.91.66-1.11,1.73-.87,3.02-2.39,4.79-3.21.2-.09.37-.33.46-.55.44-1.02,1.21-1.8,1.93-2.58.66-.72.97-1.42.68-2.36,1.32,1.15,2.63,2.31,3.95,3.46-.84,0-1.38.54-1.77,1.16-.92,1.46-2.14,2.67-3.32,3.9-.51.53-.6.94-.4,1.54-1.48,0-2.97,0-4.45.01Z"/>
        <path class="cls-3" d="M189.88,196.88c-2.09-.44-3.73-1.69-5.34-2.98.73-.07.66-.53.43-.98-.63-1.25-.94-2.6-1.19-3.97-.14-.79-.41-1.54-.12-2.38.23-.68-.49-1.29-.21-2.11.47-1.37.51-2.9,1.07-4.21.71-1.65,1.6-3.25,2.83-4.62.69-.77,1.55-1.43,1.93-2.46.84.7,1.96.98,2.71,1.8-.14,0-.32.04-.42-.02-1.31-.85-1.9.23-2.68.94-1.5,1.35-2.15,3.26-3.22,4.89-.7,1.06-.71,2.47-.9,3.77-.39,2.68.4,5.18,1.4,7.53.54,1.26,1.43,2.56,2.81,3.32.5.28,1.34.56.9,1.49Z"/>
        <path class="cls-6" d="M217.16,194.94c1.72,1.34,3.16,2.96,4.72,4.46-.32.3-.73.4-1.15.45-2.04.26-4.09.45-6.15.44-.13-.21-.33-.23-.55-.23-.48-.02-1.1.1-1.28-.46-.16-.51.32-.85.67-1.21.67-.69,1.61-1.21,1.81-2.24.23-1.14.86-1.47,1.92-1.21Z"/>
        <path class="cls-3" d="M212.06,190.43c.29.94-.02,1.64-.68,2.36-.72.78-1.5,1.56-1.93,2.58-.09.21-.26.46-.46.55-1.77.82-3.06,2.34-4.79,3.21-.39.2-.75.56-.66,1.11-1.71-.27-3.42-.54-5.13-.81,0-.29,0-.58.39-.64,1.17-.17,2.32-.48,3.48-.71.95-.19,1.83-.82,2.7-1.34,1.66-.99,2.92-2.48,4.39-3.71.81-.68.92-1.8,1.55-2.61.32-.41-.44-.77-.35-1.26.62.28,1.06.75,1.5,1.25Z"/>
        <path class="cls-7" d="M206.71,186.01c0,.15,0,.29,0,.44-.44.5-.03,1.19-.4,1.7-.88,1.24-1.5,2.66-2.5,3.82-.42.48-.93.74-1.59.44.34-1.89.69-3.79,1.01-5.69.08-.51.2-1.04-.09-1.54.02-.29.03-.57.05-.86.33-.15.54-.54.98-.46,0,0,0,0,0,0,.05.25.19.4.46.4,0,0-.01-.01-.01-.01.02.25.19.28.39.28,0,0,0,0,0,0,.08.07.16.14.23.21,0,0,0-.01,0-.01.22.75.62,1.29,1.48,1.3h0Z"/>
        <path class="cls-1" d="M178.39,186.64c.21.29.42.58.64.87,0,.31.13.53.42.65,0,0,0,0,0,0,.44,1.42,1.55,2.38,2.4,3.52.17.22.41.39.4.71-.27.04-.45-.14-.66-.26-.34-.2-.73-.58-1.11-.14-.37.42.04.77.22,1.12.31.61.86,1.1.9,1.84-1.73-1.43-3.19-3.1-4.29-5.06.04-.62-.3-1.13-.47-1.69-.38-1.26.24-1.87,1.56-1.55Z"/>
        <path class="cls-4" d="M217.16,194.94c-1.06-.26-1.7.08-1.92,1.21-.21,1.03-1.15,1.54-1.81,2.24-.35.36-.83.71-.67,1.21.18.57.8.44,1.28.46.22,0,.42.02.55.23-.9.41-1.86.05-2.78.24-.43-.01-.85-.03-1.28-.04-.21-.6-.12-1.01.4-1.54,1.18-1.23,2.4-2.44,3.32-3.9.39-.62.93-1.16,1.77-1.16.46.27.84.62,1.15,1.05Z"/>
        <path class="cls-5" d="M211.81,200.53c.92-.19,1.88.18,2.78-.24,2.06.01,4.11-.18,6.15-.44.42-.05.83-.15,1.15-.45.48.36.94.81-.04,1.02-3.17.71-6.36,1.3-9.6,1.52.08-.54-.37-.92-.43-1.42Z"/>
        <path class="cls-1" d="M211.81,200.53c.06.5.51.88.43,1.42-3.1.52-6.23.53-9.36.4.7-.34,1.44-.13,2.16-.16,1.41-.06,1.69-.49,1.03-1.69,1.48,0,2.97,0,4.45-.01.43.01.85.03,1.28.04Z"/>
        <path class="cls-1" d="M198.2,201.92c1.46-.25,2.87-.13,4.25.42-1.43-.02-2.84-.19-4.25-.42Z"/>
        <path class="cls-8" d="M206.72,186.02c-.86-.01-1.27-.55-1.48-1.3.62.28,1.09.75,1.48,1.3Z"/>
        <path class="cls-8" d="M204.17,183.86c-.44-.08-.65.31-.98.46-.09-.34-.21-.8.09-.97.41-.23.65.23.89.51Z"/>
        <path class="cls-4" d="M179.24,167.72c-.55-.07-1.1-.13-1.65-.2.06-.16.11-.31.17-.47.55.1,1.05.3,1.48.67Z"/>
        <path class="cls-4" d="M181.41,168.76c-.39.06-.73.02-.87-.43.35.02.65.15.87.43Z"/>
        <path class="cls-1" d="M196.46,201.57c.37.02.79-.16,1.1.21-.38-.02-.78.1-1.1-.21Z"/>
        <path class="cls-1" d="M195.36,201.38c.32-.02.67-.15.92.18-.32,0-.65.06-.92-.18Z"/>
        <path class="cls-3" d="M192.88,175.59c-.14,0-.28.01-.43.02,0-.12-.01-.24-.02-.37.22.02.37.14.45.35Z"/>
        <path class="cls-8" d="M197.58,194.73c-.5.03-.29-.25-.2-.47.17.12.21.29.2.47Z"/>
        <path class="cls-8" d="M204.64,184.26c-.27,0-.41-.15-.46-.4.23.04.39.17.46.4Z"/>
        <path class="cls-4" d="M180.54,168.33c-.19.03-.36,0-.43-.21.18,0,.34.04.43.21Z"/>
        <path class="cls-8" d="M193.24,175.83c-.16-.02-.31-.06-.37-.23.17,0,.33.03.37.23Z"/>
        <path class="cls-8" d="M194.52,176.68c-.16-.02-.3-.07-.38-.23.18,0,.32.05.38.23Z"/>
        <path class="cls-8" d="M205.01,184.53c-.2,0-.37-.03-.39-.28.18.02.32.1.39.28Z"/>
        <path class="cls-8" d="M197.79,195.16c-.21-.08-.23-.25-.22-.44.19.09.22.25.22.44Z"/>
        <path class="cls-1" d="M182.25,195.58c.18.02.33.07.39.27-.17-.03-.32-.09-.39-.27Z"/>
        <path class="cls-4" d="M179.67,167.92c-.18.02-.34-.02-.42-.2.18,0,.33.03.42.2Z"/>
        <path class="cls-4" d="M180.11,168.13c-.19.02-.35,0-.43-.2.18,0,.34.03.43.2Z"/>
        <path class="cls-3" d="M210.57,189.2c-.08-.08-.15-.16-.23-.24.08.08.15.16.23.24Z"/>
        <path class="cls-8" d="M205.24,184.73c-.08-.07-.16-.14-.23-.21.08.07.16.14.23.21Z"/>
        <path class="cls-8" d="M194.8,176.87c-.08-.05-.16-.11-.24-.16.08.05.16.11.24.16Z"/>
        <path class="cls-8" d="M194.14,176.45c-.07-.05-.14-.11-.22-.16.12-.02.2.03.22.16Z"/>
        <path class="cls-8" d="M193.51,176.02c-.07-.06-.15-.11-.22-.17.13-.01.2.04.22.17Z"/>
        <path class="cls-3" d="M192.26,175.16c-.08-.06-.17-.12-.25-.18.08.06.17.12.25.18Z"/>
        <path class="cls-4" d="M181.82,168.98c-.07-.05-.15-.1-.22-.15.12-.02.2.02.22.15Z"/>
        <path class="cls-1" d="M182.84,196.03c.08.07.16.13.23.2-.08-.07-.16-.13-.23-.2Z"/>
        <path class="cls-3" d="M262.07,196.24c.47.25.57,1.39,1.46.61l.04.04c-.04.96.64.96,1.29.93,1.81-.09,3.51-.58,5.11-1.41,1.63-.85,3.25-1.82,4.13-3.47,1.48-2.78,2.83-5.64,2.26-8.98-.21-1.25-.52-2.45-.93-3.65-.44-1.29-1.44-2.22-2.11-3.38-.68-1.18-1.75-2.15-3.38-1.52-.08-.01-.16-.02-.23-.03,1.33-1.07,2.74-2.01,4.27-2.77.5-.04.77.17,1.09.61.51.72.67,1.6,1.14,2.28,1.07,1.54,1.91,3.16,2.56,4.91.57,1.53.91,3.15.91,4.72,0,2.01-.3,4.06-.84,6.02-.28,1.02.14,1.1.91,1.04-.17.41-.53.66-.85.93-1.91,1.58-3.99,2.88-6.29,3.82-4.87,1.99-9.93,3.11-15.19,3.34.15-.78-.23-1.33-.89-1.6-1.31-.54-2.15-1.65-3.22-2.46-1.79-1.36-2.94-3.14-3.8-5.16.84-.87,1.69-1.72,2.77-2.29,0,1.84.93,3.15,2.14,4.48,1.72,1.9,3.93,2.92,6.13,3.97,1.03.49,1.51.09,1.55-.97Z"/>
        <path class="cls-5" d="M284.43,167.09c1.35-.8,2.85-1.2,4.34-1.64.68-.2.98.04,1.06.72.3,2.28.43,4.58.31,6.88-.21,3.9-.89,7.72-2.32,11.37-.84,2.14-1.73,4.26-3.17,6.08-.14-1,.58-1.86.44-2.89-.14-1.07-.23-1.21-1.28-.97-.03-.23.13-.39.22-.58,1.26-2.64,1.99-5.41,2.07-8.35,0-1.27-.01-2.55-.02-3.82-.11-.71-.05-1.45-.37-2.13-.02-.28-.05-.56-.07-.84-.04-.45-.07-.9-.36-1.28-.02-.14-.03-.28-.05-.42-.02-.39-.1-.76-.37-1.06-.07-.15-.14-.3-.21-.45-.08-.2-.15-.41-.23-.61Z"/>
        <path class="cls-10" d="M269.7,175.38c.08.01.16.02.23.03.04.1.05.23.12.29,2.1,1.74,3.74,3.72,4.76,6.38.7,1.84.23,3.53.33,5.25.1,1.77-1.09,3.36-2.05,4.84-1.02,1.58-2.52,2.74-4.33,3.43-1.02.39-1.99.84-3.14.91-.56.03-1.08.26-1.61-.07-.01-.08-.03-.15-.04-.23,0-.17.05-.32.21-.4.19-.08.23-.24.22-.42,0,0,0,0,0,0,.03-.01.08-.02.08-.04,0-.05-.01-.11-.02-.16,1.77-4.63,2.71-9.41,2.49-14.38-.04-.95-.18-1.89-.27-2.84-.02-.24-.15-.52.15-.66,1.07-.48,1.73-1.56,2.86-1.93ZM272.45,185.86c.09-3.59-1.53-5.94-3.76-7.97-.27-.25-.63-.51-1.05-.26-.38.22-.5.58-.46,1,.06.63.19,1.25.2,1.88.06,3.68-.31,7.3-1.36,10.84-.17.59-.41,1.36.19,1.77.58.4,1.34.21,1.89-.23,1.06-.86,2.56-1.29,2.81-2.95.05-.36.3-.72.53-1.01.8-1.02.72-2.31,1.02-3.06Z"/>
        <path class="cls-12" d="M257.39,200.28c5.26-.23,10.32-1.35,15.19-3.34,2.3-.94,4.38-2.24,6.29-3.82.32-.27.67-.52.85-.93,0,0,.05,0,.05,0,.49.24,1.2-.65,1.49.16.24.69.06,1.45-.58,1.99-.19.16-.35.36-.53.52-.28.25-.45.54-.42.93-.12.26-.32.41-.6.45-.08.07-.16.14-.24.2h0c-.07.06-.15.12-.22.19-.08.16-.22.23-.4.25-.08.06-.16.13-.24.19-4.1,2.77-8.61,4.37-13.55,4.73-.46.05-1.01-.31-1.36.28-.21.02-.43.04-.64.05-.34-.28-.74-.16-1.12-.16-1.78-.01-3.55,0-5.33,0-.57,0-1.22.05-1.5-.52-.3-.61.77-.39.72-.94.71-.08,1.42-.16,2.14-.24Z"/>
        <path class="cls-4" d="M286.1,177.72c-.08,2.93-.8,5.71-2.07,8.35-.09.19-.25.34-.22.58-.15.22-.3.44-.44.65-1.03.2-1.16-.09-1.19-1.13-.04-1.41-.02-2.87-.55-4.2-.63-1.58-.97-3.25-1.82-4.78-.68-1.23-1.21-2.56-2.19-3.56-.73-.75-1.04-1.55-1.09-2.53,1.47-1.01,3.08-1.78,4.7-2.52,0,0,.05.05.05.05-.06.27-.31.37-.49.52-.63.54-.87,1.88-.49,2.6.58,1.1,1.31,2.11,1.87,3.23.34.68.3,1.5.7,2,.68.87,1.02,1.78,1.19,2.84.07.42.33,1.06.9,1.04.74-.02.39-.75.57-1.15.28-.64-.16-1.5.59-1.99Z"/>
        <path class="cls-14" d="M276.53,171.09c.04.98.36,1.79,1.09,2.53.98,1.01,1.51,2.34,2.19,3.56.85,1.53,1.19,3.2,1.82,4.78.53,1.33.52,2.79.55,4.2.03,1.04.16,1.33,1.19,1.13-.08.54-.43.96-.67,1.43-.71,1.39-2.04,2.24-2.93,3.47,0,0-.05,0-.05,0-.77.06-1.19-.02-.91-1.04.54-1.96.85-4.01.84-6.02,0-1.57-.34-3.19-.91-4.72-.65-1.75-1.49-3.37-2.56-4.91-.47-.68-.63-1.56-1.14-2.28-.31-.44-.58-.65-1.09-.61.79-.61,1.62-1.15,2.56-1.52Z"/>
        <path class="cls-10" d="M253.75,187.46c.99-.69,1.65-1.76,2.75-2.32-1.01,1.19-.72,2.33.13,3.45.08.1.04.3.12.4.6.75.87,1.79,1.85,2.2.45.19.82.42.77-.5-.11-1.87-.28-3.72-.47-5.58-.08-.8-.36-1.08-1.1-1.02.2-.19.39-.4.61-.57.44-.34.65-.26.69.34.26,3.57.82,7.08,2.02,10.47-.16.19-.11.32.11.4,0,0,0,0,0,0-.24.38.46,1.34-.61,1.18-1.22-.18-2.36-.84-3.23-1.58-1.36-1.15-2.74-2.35-3.5-4.1-.25-.58-.42-1.37-1.18-1.66,0-.07,0-.14-.01-.21,0,0,0,0,0,0,.07-.07.15-.14.22-.21,0,0,0,0,0,0,.07-.06.15-.13.22-.19.08-.07.17-.14.25-.22.17-.03.32-.08.37-.28Z"/>
        <path class="cls-14" d="M257.39,200.28c-.71.08-1.42.16-2.14.24-.99,0-1.98-.02-2.97-.03-.02-.48-.04-.83-.52-1.24-.84-.71-1.64-1.5-2.39-2.34-.95-1.06-1.71-2.28-2.79-3.22.88-.98,1.82-1.89,2.9-2.65.86,2.02,2.01,3.8,3.8,5.16,1.07.82,1.91,1.93,3.22,2.46.66.27,1.04.82.89,1.6Z"/>
        <path class="cls-6" d="M240.48,199.39c1.31-1.41,2.66-2.78,4.16-4,.83-.39,1.62-.48,2.4.18.42.35.13.98.52,1.21.85.49,1.31,1.34,2,1.97.52.47.71,1.03.35,1.7-1.64-.06-3.3-.02-4.93-.23-1.51-.19-3.09-.07-4.5-.82Z"/>
        <path class="cls-1" d="M279.77,192.2c.89-1.23,2.22-2.09,2.93-3.47.24-.47.59-.88.67-1.43.15-.22.3-.44.44-.65,1.05-.24,1.13-.1,1.28.97.14,1.03-.58,1.89-.44,2.89-1.32,2.06-2.92,3.86-4.92,5.29-.04-.39.14-.68.42-.93.18-.17.34-.36.53-.52.64-.54.82-1.3.58-1.99-.28-.81-1,.08-1.49-.16Z"/>
        <path class="cls-7" d="M257.8,184.1c.74-.07,1.02.22,1.1,1.02.19,1.86.36,3.71.47,5.58.05.92-.32.69-.77.5-.98-.42-1.25-1.45-1.85-2.2-.08-.1-.04-.3-.12-.4-.84-1.13-1.14-2.26-.13-3.45,0,0,0,.02,0,.02.08-.07.16-.14.24-.21,0,0,0,0,0,0,.08-.07.15-.13.23-.2.08-.07.17-.13.25-.2.31,0,.6-.04.59-.45h0Z"/>
        <path class="cls-8" d="M252.71,188.57c.76.28.93,1.08,1.18,1.66.76,1.75,2.14,2.96,3.5,4.1.87.74,2.02,1.39,3.23,1.58,1.07.16.36-.8.61-1.18.34.34.52.77.65,1.22.06.09.12.19.18.28,0,0,0,0,0,0-.04,1.06-.52,1.46-1.55.97-2.2-1.05-4.4-2.07-6.13-3.97-1.22-1.34-2.15-2.64-2.14-4.48,0,0,0,.02,0,.02.08-.07.15-.15.23-.22,0,0,0,0,0,0,.08,0,.16,0,.24,0Z"/>
        <path class="cls-5" d="M240.48,199.39c1.41.76,2.99.63,4.5.82,1.63.21,3.28.16,4.93.23.51.03,1.01.07,1.52.1-.28.48-1.13.61-.85,1.42-3.63-.19-7.18-.86-10.73-1.71.14-.42.28-.73.65-.87Z"/>
        <path class="cls-4" d="M251.42,200.54c-.51-.03-1.01-.06-1.52-.1.36-.66.17-1.23-.35-1.7-.7-.62-1.16-1.47-2-1.97-.39-.23-.1-.86-.52-1.21-.78-.66-1.57-.57-2.4-.18.54-.68,1.22-1.22,1.94-1.7,1.08.94,1.84,2.16,2.79,3.22.75.84,1.55,1.63,2.39,2.34.48.4.5.76.52,1.24-.29.02-.57.03-.86.05Z"/>
        <path class="cls-1" d="M251.42,200.54c.29-.02.57-.03.86-.05.99,0,1.98.02,2.97.03.05.55-1.02.33-.72.94.28.57.94.52,1.5.52,1.78,0,3.55-.01,5.33,0,.37,0,.78-.12,1.12.16-3.98.4-7.95.42-11.91-.18-.28-.81.57-.95.85-1.43Z"/>
        <path class="cls-4" d="M284.43,167.09c.08.2.15.41.23.61-1.24-.12-2.17.91-3.38.93,0,0-.05-.05-.05-.05.98-.67,2.07-1.12,3.19-1.48Z"/>
        <path class="cls-1" d="M263.12,202.09c.35-.59.9-.23,1.36-.28-.42.23-.88.31-1.36.28Z"/>
        <path class="cls-10" d="M257.8,184.1c0,.42-.28.44-.59.45.11-.27.31-.41.59-.45Z"/>
        <path class="cls-3" d="M253.75,187.46c-.04.19-.19.25-.37.28.04-.2.2-.25.37-.28Z"/>
        <path class="cls-8" d="M261.24,194.74c-.23-.08-.27-.21-.11-.4.04.13.08.27.11.4Z"/>
        <path class="cls-3" d="M264.41,195.38c0,.18-.03.34-.22.42,0-.18.05-.33.22-.42Z"/>
        <path class="cls-3" d="M263.97,196.21c.01.08.03.15.04.23-.08.08-.16.15-.23.23l-.06-.06c.03-.17.08-.33.26-.4Z"/>
        <path class="cls-3" d="M252.48,188.56c-.08.07-.15.15-.23.22.08-.07.15-.15.23-.22Z"/>
        <path class="cls-3" d="M252.71,188.57c-.08,0-.16,0-.24,0,.07-.07.15-.14.22-.21,0,.07,0,.14.01.21Z"/>
        <path class="cls-3" d="M252.92,188.15c-.07.07-.15.14-.22.21.07-.07.15-.14.22-.21Z"/>
        <path class="cls-3" d="M253.14,187.96c-.07.06-.15.13-.22.19.07-.06.15-.13.22-.19Z"/>
        <path class="cls-10" d="M256.74,184.95c-.08.07-.16.14-.24.21.08-.07.16-.14.24-.21Z"/>
        <path class="cls-10" d="M256.96,184.75c-.08.07-.15.13-.23.2.08-.07.15-.13.23-.2Z"/>
        <path class="cls-1" d="M278.03,197.08c.08-.06.16-.13.24-.19-.08.06-.16.13-.24.19Z"/>
        <path class="cls-3" d="M263.53,196.85c.06-.08.12-.16.19-.24,0,0,.06.06.06.06-.07.07-.14.14-.21.22l-.04-.04Z"/>
        <path class="cls-1" d="M278.67,196.63c.07-.06.15-.12.22-.19-.07.06-.15.12-.22.19Z"/>
        <path class="cls-1" d="M278.89,196.45c.08-.07.16-.14.24-.2-.08.07-.16.14-.24.2Z"/>
        <path class="cls-3" d="M262.06,196.23c-.06-.09-.12-.19-.18-.28.06.09.12.19.18.28Z"/>
        <path class="cls-3" d="M264.47,195.18c0,.05.02.11.02.16,0,.01-.06.03-.08.04.02-.07.04-.13.07-.2Z"/>
        <path class="cls-10" d="M202.22,192.41c.65.3,1.17.05,1.59-.44,1-1.16,1.62-2.58,2.5-3.82.36-.51-.04-1.21.4-1.7,1.92,1.52,1.85,2.14.48,4.18-1.24,1.84-3.03,2.98-4.65,4.34-.25.21-.57.53-.93.24-.33-.26-.21-.63-.07-.98.24-.61.47-1.22.71-1.83Z"/>
        <path class="cls-7" d="M195,181.08c-.05,3.24.35,6.18.96,9.13.41,1.98.28,2.52-1.97,2.02-1.21-.27-2.02-1.22-2.41-2.03-.71-1.47-1.4-3.04-1.49-4.76-.1-1.87.6-3.53,1.42-5.08.52-.98,1.45-1.79,2.5-2.36.66-.36,1-.22,1,.56,0,.92,0,1.84,0,2.52Z"/>
        <path class="cls-4" d="M176.24,174.75c.37,1.13.36,2.27,0,3.4-.31-1.13-.31-2.27,0-3.4Z"/>
        <path class="cls-4" d="M176.68,171.13c.33.31.26.52-.16.64-.05-.24-.07-.47.16-.64Z"/>
        <path class="cls-4" d="M176.45,172.62c.33.26.15.36-.13.43-.06-.17-.03-.32.13-.43Z"/>
        <path class="cls-1" d="M182.88,192.81c-.32.02-.65.04-.64-.43.31,0,.5.17.64.43Z"/>
        <path class="cls-14" d="M179.44,188.16c-.29-.12-.42-.34-.42-.65.44.02.44.33.42.65Z"/>
        <path class="cls-8" d="M263.57,196.88c.07-.07.14-.14.21-.22.08-.08.16-.15.23-.23.54.33,1.05.1,1.61.07,1.15-.06,2.12-.52,3.14-.91,1.8-.69,3.3-1.84,4.33-3.43.95-1.48,2.15-3.07,2.05-4.84-.1-1.73.38-3.42-.33-5.25-1.02-2.66-2.66-4.64-4.76-6.38-.07-.06-.08-.19-.12-.29,1.63-.63,2.7.34,3.38,1.52.67,1.15,1.67,2.09,2.11,3.38.41,1.19.72,2.4.93,3.65.57,3.35-.78,6.2-2.26,8.98-.87,1.64-2.5,2.62-4.13,3.47-1.59.83-3.3,1.33-5.11,1.41-.65.03-1.33.03-1.29-.93Z"/>
        <path class="cls-6" d="M281.28,168.63c1.21-.02,2.14-1.05,3.38-.93.07.15.14.3.21.45-.28.5-.09.83.37,1.06.02.14.03.28.05.42-.36.56-.37,1.02.36,1.28.02.28.05.56.07.84-.44.81-.2,1.5.37,2.13,0,1.27.01,2.55.02,3.82-.75.49-.3,1.34-.59,1.99-.18.4.17,1.13-.57,1.15-.57.02-.83-.62-.9-1.04-.17-1.06-.51-1.97-1.19-2.84-.4-.51-.36-1.32-.7-2-.56-1.12-1.29-2.13-1.87-3.23-.38-.72-.13-2.06.49-2.6.19-.16.43-.25.49-.52Z"/>
        <path class="cls-4" d="M286.08,173.9c-.57-.63-.81-1.32-.37-2.13.31.68.25,1.42.37,2.13Z"/>
        <path class="cls-4" d="M285.64,170.92c-.73-.26-.72-.72-.36-1.28.29.38.32.83.36,1.28Z"/>
        <path class="cls-4" d="M285.23,169.22c-.47-.24-.65-.57-.37-1.06.27.3.35.67.37,1.06Z"/>
        <path class="cls-7" d="M272.45,185.86c-.3.75-.22,2.03-1.02,3.06-.23.3-.48.66-.53,1.01-.25,1.66-1.75,2.09-2.81,2.95-.54.44-1.31.63-1.89.23-.59-.41-.36-1.17-.19-1.77,1.05-3.54,1.42-7.16,1.36-10.84-.01-.63-.13-1.26-.2-1.88-.04-.42.08-.78.46-1,.42-.24.78.02,1.05.26,2.23,2.04,3.85,4.39,3.76,7.97Z"/>
      </g>
    </g>
  </g>
</svg>