<?xml version="1.0" encoding="UTF-8"?>
<svg id="GRIFOS" xmlns="http://www.w3.org/2000/svg" viewBox="0 0 458.93 422.16">
  <defs>
    <style>
      .cls-1 {
        fill: #abb063;
      }

      .cls-1, .cls-2, .cls-3, .cls-4, .cls-5, .cls-6, .cls-7, .cls-8, .cls-9, .cls-10, .cls-11, .cls-12, .cls-13 {
        stroke-width: 0px;
      }

      .cls-2 {
        fill: #e78f3c;
      }

      .cls-3 {
        fill: #abcb78;
      }

      .cls-4 {
        fill: #c9d587;
      }

      .cls-5 {
        fill: #df6258;
      }

      .cls-6 {
        fill: #f4f1e8;
      }

      .cls-7 {
        fill: #f2ae32;
      }

      .cls-8 {
        fill: #e9c474;
      }

      .cls-9 {
        fill: #dc3431;
      }

      .cls-10 {
        fill: #c0cfd6;
      }

      .cls-11 {
        fill: #fefdfc;
      }

      .cls-12 {
        fill: #6b221a;
      }

      .cls-13 {
        fill: #1a1717;
      }
    </style>
  </defs>
  <g id="Expressions">
    <g id="E3">
      <path class="cls-13" d="M290.65,64c1.82-3.16,3.46-6.02,5.13-8.87,1.65-2.82,2.73-2.93,4.37-.26,4.11,6.71,8.02,13.52,10.49,21.05,1.9,5.78,1.65,11.22-2.68,15.95-.76.83-.72,1.53-.35,2.51,3.9,10.29,6.28,20.99,8.14,31.79,2.69,15.66.1,30.32-9.05,43.51-5.65,8.14-13.2,14.23-21.85,18.99-12.39,6.82-25.72,10.55-39.68,12.33-8.66,1.1-17.36,1.53-26.06,1.02-18.67-1.09-36.67-4.89-52.9-14.72-12.7-7.69-22.3-18.08-26.98-32.47-2.94-9.04-3.33-18.28-1.97-27.63,1.48-10.15,3.69-20.14,7.07-29.83,4.71-13.51,11.41-25.92,21.12-36.54,10.93-11.95,23.94-20.56,39.93-24.2,1.55-.35,1.8-1.08,1.56-2.61-1.14-7.3-.71-14.45,2.62-21.21,2.26-4.59,5.76-7.67,10.77-9.11,5.81-1.67,12.2,1.22,15.72,6.69.33.52.67,1.06.9,1.63.44,1.08,1.19,1.19,2.25,1.03,8.3-1.27,14.45,3.3,15.84,11.74.66,3.96.43,7.87-.9,11.64-.48,1.36-.12,1.74,1.12,2.2,10.92,4.06,20.5,10.24,28.82,18.36,2.21,2.16,4.24,4.5,6.58,6.99ZM234.56,19.92l.02.03c-.3-3.32-1.71-6.12-3.95-8.53-4.19-4.51-9.98-4.57-14.12,0-5.31,5.86-5.88,12.95-4.94,20.36.11,9.73,7.56,24.7,14.13,28.2,1.48-3.75,2.89-7.51,4.87-11.03,3.69-6.55,8.39-11.55,16.56-11.75,1.16-.03,1.89-.59,2.24-1.76,1.17-3.9,2.16-7.78.11-11.7-.99-4.32-4.67-7.01-8.5-6.19-1.89.4-2.05.76-1.42,3.04-.22,2.04.1,4.15-.72,6.12-.25.59-.6,1.13-1.32,1.11-.75-.02-.95-.62-1.18-1.23-.58-1.55-.31-3.31-1.21-4.77.01-.69.21-1.45-.57-1.91ZM141.58,136.79c-.68,2.81-.03,5.6.41,8.31,2.51,15.33,10.52,27.12,23.33,35.84,9.56,6.51,20.15,10.54,31.29,13.07,13.59,3.09,27.39,3.91,41.33,2.8,13.1-1.04,25.78-3.72,37.79-9.06,10.54-4.69,19.91-11.04,26.68-20.65,6.53-9.26,9.82-19.49,9.13-30.89.14-1.47.11-2.94-.19-4.4.23-.47.19-.9-.17-1.28-.79-6.6-1.99-13.13-3.58-19.58-1.13-4.61-2.59-9.13-4.04-13.64-.45-1.4-1.2-2.04-2.72-1.46-1.27.49-2.64.46-3.98.52-.28-.14-.54-.33-.83-.4-8.55-2.05-12.73-8.56-11.17-17.29.4-2.23,1.25-4.31,1.86-6.46.68-1.61,2.13-2.95.42-4.99-9.63-11.54-21.47-19.88-35.66-24.84-5.14-1.8-9.51-.45-13.04,3.68-2.69,2.4-4.29,5.54-5.71,8.74-1.34,3.01-2.43,6.14-3.71,9.18-1.1,2.63-2.47,3.04-4.78,1.42-3.05-2.15-5.53-4.89-7.88-7.77-2.69-3.31-4.41-7.16-6.21-10.97-.35-1.18-.68-2.37-1.06-3.54-.8-2.47-.83-2.51-3.18-1.88-7.93,2.12-15.35,5.41-22.17,9.98-14.45,9.7-24.25,23.17-31.23,38.85-4.64,10.42-7.44,21.4-9.47,32.6-.85,4.68-1.69,9.34-1.47,14.13ZM298.03,58.19c-4.1,6.79-7.67,13.27-9.7,20.48-.4,1.42-.37,2.87-.33,4.32.12,4.24,2.69,7.66,6.75,9.11,3.95,1.41,7.94.42,10.76-2.63,3.07-3.32,3.37-7.21,2.19-11.31-2.02-7.02-5.6-13.3-9.67-19.97Z"/>
      <path class="cls-3" d="M210.15,46.65c1.8,3.81,3.52,7.66,6.21,10.97,2.34,2.88,4.82,5.63,7.88,7.77,2.31,1.63,3.68,1.21,4.78-1.42,1.28-3.04,2.37-6.17,3.71-9.18,1.43-3.21,3.02-6.34,5.71-8.74,3.01-.11,5.89.4,8.84,1.13,12.68,3.14,23.34,9.72,32.75,18.56,2.26,2.12,4.46,4.31,6.68,6.47-.61,2.16-1.47,4.23-1.86,6.46-1.56,8.73,2.63,15.25,11.17,17.29.29.07.55.26.83.4-1.15.16-2.59-.21-2.67,1.71-.04.94-.84,1.37-1.62,1.67-.95.37-1.91.82-2.9.96-1.35.18-1.61.92-1.64,2.1-.03,1.19.41,2.48-.52,3.54,0-1.24,0-2.48-.01-3.71-.1-11.22-9.32-22.49-23.52-22.01-13.33.45-21.94,10.94-22.01,22.93-.04,7.33,1.95,14.04,6.37,19.96-.71,2.24-2.6,2.48-4.52,2.66-.93-1.09-1.91-2.15-2.79-3.28-1.65-2.14-3.49-4.09-5.63-5.75-5.85-4.53-11.33-4.55-17.31-.23-2.47,1.78-4.23,4.21-6.37,6.29-.99.22-1.42.88-1.42,1.86,0,0,.01-.02.01-.02-.2.23-.41.47-.61.7,0,0,.06,0,.06,0-2-.29-3.95-.62-3.86-3.33,4.17-6.81,6.13-14.1,5.05-22.14-.96-7.13-4.48-12.62-10.54-16.34-7.11-4.36-14.59-4.18-22.15-1.15-.33.19-.65.37-.98.56,0,0-.1.13-.1.13l-.15-.07c-.41.07-.75.25-.95.64l.04-.02c-.54,0-1.02.1-1.27.66-.28.96-1.16,1.41-1.82,2.03-4.16,3.84-6.48,8.6-7.32,14.17-.41,2.71.24,5.31.44,7.96-.08.21-.04.4.11.56.16.65.33,1.31.49,1.96-.82.42-.57,1.22-.66,1.89-.86-.11-1.68.06-2.37.55-1.72,1.23-3.25,2.92-5.75,2.05-.24-.08-.76.33-1.01.62-1.49,1.78-3.72,1.64-5.67,2.14-1.36.35-2.07-.58-1.77-2.03.08-.4.24-.79.41-1.17,1.12-2.53.78-4.9-1.02-6.93-.9-1.02-.98-2-.6-3.12.95-2.81,1.81-5.66,2.95-8.4,2.34-5.62,5.32-10.94,8.81-15.92,4.25-6.08,8.85-11.83,14.6-16.7,3.79-3.21,7.41-6.58,11.75-9.01,6.86-3.84,13.92-7.23,21.7-8.89.78-.17,1.39-.2,2.05.19Z"/>
      <path class="cls-4" d="M287.49,106.34c.93-1.06.49-2.35.52-3.54.03-1.18.29-1.91,1.64-2.1.99-.14,1.95-.59,2.9-.96.78-.3,1.58-.73,1.62-1.67.08-1.92,1.53-1.55,2.67-1.71,1.34-.06,2.7-.03,3.98-.52,1.52-.58,2.27.06,2.72,1.46,1.45,4.52,2.91,9.03,4.04,13.64,1.59,6.46,2.78,12.98,3.58,19.58-.19.46-.21.9.17,1.28.29,1.46.33,2.92.19,4.4-1.17.17-.98,1.1-1.13,1.9-1.61,8.33-5.55,15.57-11.06,21.85-5.49,6.26-12.16,11.19-19.63,14.9-9.87,4.9-20.32,8.08-31.2,9.75-1.73.26-3.7.79-5.36-.56,2.36-4.78,2.04-9.61.27-14.46-1.31-3.6-2.98-7.05-5.17-10.2-.64-.92-.65-1.57.25-2.36,4.87-4.32,9.33-9.11,15-12.5,2.46-1.47,2.57-2.35,1.72-5.22-.88-3-2.86-5.2-5.05-7.3-2.08-1.99-4.72-3.37-6.36-5.84,1.92-.18,3.81-.42,4.52-2.66,2.96,3.07,6.48,5.24,10.47,6.71,3.4,2.41,7.33,2.22,10.95,1.35,11.47-2.76,15.77-9.8,17.62-19.45.13-.69.2-1.46-.5-1.98.21-1.26.41-2.53.62-3.79Z"/>
      <path class="cls-4" d="M205.88,122.42c-.09,2.71,1.86,3.04,3.86,3.33-1.34,2.32-3.72,3.54-5.67,5.2-2.28,1.96-4.27,4.11-5.51,6.87-1.66,3.7-1.37,4.93,1.78,7.52-4.57,3.77-9.13,7.51-13.65,11.29-.76.63-1.42.45-2.27.35-7.71-.93-13.72,6.71-11.12,14.04.6,1.7,1.71,3.05,2.79,4.43-.67.83-1.3.18-1.92-.07-3.99-1.58-7.22-4.37-10.68-6.77-3.37-2.34-6.45-4.99-9.16-8.2-5.55-6.59-9.49-13.93-11.86-22.16-.17-.6-.17-1.23-.9-1.46-.23-4.78.62-9.45,1.47-14.13,2.03-11.2,4.83-22.18,9.47-32.6,6.98-15.68,16.78-29.16,31.23-38.85,6.82-4.58,14.24-7.87,22.17-9.98,2.34-.62,2.38-.59,3.18,1.88.38,1.17.71,2.36,1.06,3.54-.66-.39-1.27-.35-2.05-.19-7.78,1.66-14.84,5.05-21.7,8.89-4.34,2.43-7.96,5.8-11.75,9.01-5.75,4.87-10.35,10.62-14.6,16.7-3.49,4.98-6.47,10.29-8.81,15.92-1.14,2.74-2,5.59-2.95,8.4-.38,1.13-.3,2.11.6,3.12,1.8,2.03,2.14,4.4,1.02,6.93-.17.38-.32.77-.41,1.17-.3,1.45.41,2.38,1.77,2.03,1.95-.5,4.18-.36,5.67-2.14.25-.3.77-.71,1.01-.62,2.5.87,4.02-.82,5.75-2.05.69-.49,1.51-.67,2.37-.55,1.46,11.28,12.14,19.39,22.65,18.63,1.69-.12,3.5-.02,4.8-1.49.4-.08.8-.16,1.2-.23.28.33.46.21.59-.14,4.09-1.75,7.66-4.23,10.57-7.61Z"/>
      <path class="cls-1" d="M141.58,136.79c.72.23.72.86.9,1.46,2.37,8.23,6.31,15.57,11.86,22.16,2.71,3.21,5.79,5.87,9.16,8.2,3.46,2.4,6.7,5.19,10.68,6.77.62.25,1.25.9,1.92.07,1.89,1.42,4.02,2.31,6.28,2.91-.18.25-.37.59.03.72,3.52,1.17,7.01,2.44,10.67,3.17,5.95,1.19,11.9,2.4,17.94,3.08,5.15,4.29,8.71,4.49,14.51.63.93-.62,1.38-.3,2.12.22,5.81,4.04,10.92,3.32,15.49-2.13,1.66,1.35,3.63.82,5.36.55,10.88-1.66,21.33-4.85,31.2-9.75,7.47-3.71,14.14-8.64,19.63-14.9,5.51-6.28,9.45-13.52,11.06-21.85.15-.79-.04-1.73,1.13-1.9.69,11.4-2.6,21.63-9.13,30.89-6.77,9.61-16.14,15.96-26.68,20.65-12.01,5.34-24.69,8.01-37.79,9.06-13.94,1.11-27.74.3-41.33-2.8-11.14-2.53-21.73-6.56-31.29-13.07-12.81-8.72-20.83-20.51-23.33-35.84-.44-2.71-1.09-5.5-.41-8.31Z"/>
      <path class="cls-9" d="M249.48,23.74c2.05,3.92,1.06,7.8-.11,11.7-.35,1.16-1.08,1.73-2.24,1.76-8.17.19-12.88,5.19-16.56,11.75-1.98,3.52-3.39,7.29-4.87,11.03-6.57-3.5-14.02-18.47-14.13-28.2.95-1.18.45-2.58.53-3.88.3-4.59,1.92-8.66,5.07-11.96,4.38-4.59,11.39-4.38,15.09,1.23.65.98,1,2.32,2.32,2.77,0,0-.02-.03-.02-.03-.04.7-.11,1.42.57,1.91.9,1.46.63,3.22,1.21,4.77.23.6.43,1.2,1.18,1.23.73.02,1.08-.51,1.32-1.11.82-1.97.5-4.08.72-6.12,1.48-.53,2.9-.46,4.5-.2,2.4.38,3.66,2.18,5.42,3.36Z"/>
      <path class="cls-10" d="M298.03,58.19c4.07,6.68,7.65,12.96,9.67,19.97,1.18,4.1.88,7.98-2.19,11.31-2.81,3.04-6.81,4.03-10.76,2.63-4.06-1.45-6.63-4.87-6.75-9.11-.04-1.44-.07-2.9.33-4.32,2.03-7.21,5.6-13.69,9.7-20.48Z"/>
      <path class="cls-4" d="M286.72,72.21c-2.23-2.16-4.42-4.35-6.68-6.47-9.41-8.84-20.06-15.42-32.75-18.56-2.96-.73-5.83-1.24-8.84-1.13,3.53-4.12,7.9-5.47,13.04-3.68,14.19,4.96,26.02,13.3,35.66,24.84,1.71,2.04.25,3.38-.42,4.99Z"/>
      <path class="cls-5" d="M234.58,19.94c-1.32-.45-1.68-1.79-2.32-2.77-3.7-5.61-10.71-5.82-15.09-1.23-3.15,3.3-4.77,7.37-5.07,11.96-.08,1.3.42,2.69-.53,3.88-.94-7.41-.37-14.5,4.94-20.36,4.15-4.58,9.93-4.52,14.12,0,2.24,2.41,3.65,5.22,3.95,8.53Z"/>
      <path class="cls-5" d="M249.48,23.74c-1.75-1.18-3.02-2.97-5.42-3.36-1.59-.25-3.02-.33-4.5.2-.63-2.28-.47-2.64,1.42-3.04,3.82-.81,7.51,1.88,8.5,6.19Z"/>
      <path class="cls-5" d="M235.13,21.82c-.68-.49-.61-1.2-.57-1.91.78.46.58,1.21.57,1.91Z"/>
      <path class="cls-1" d="M311.35,131.81c-.38-.38-.36-.82-.17-1.28.36.39.4.82.17,1.28Z"/>
      <path class="cls-13" d="M182.38,178.36c-2.27-.6-4.4-1.49-6.28-2.91-1.08-1.38-2.19-2.73-2.79-4.43-2.6-7.33,3.41-14.97,11.12-14.04.85.1,1.52.28,2.27-.35,4.52-3.79,9.08-7.52,13.65-11.29-3.15-2.59-3.45-3.82-1.78-7.52,1.24-2.76,3.22-4.92,5.51-6.87,1.95-1.67,4.32-2.88,5.67-5.2,0,0-.06,0-.06,0,.39-.07.57-.33.61-.7,0,0-.01.02-.01.02.71-.44,1.09-1.13,1.42-1.86,2.14-2.08,3.9-4.51,6.37-6.29,5.99-4.32,11.47-4.31,17.31.23,2.14,1.66,3.98,3.61,5.63,5.75.87,1.14,1.86,2.19,2.79,3.28,1.63,2.47,4.27,3.85,6.36,5.84,2.19,2.1,4.17,4.3,5.05,7.3.85,2.87.74,3.75-1.72,5.22-5.67,3.39-10.13,8.18-15,12.5-.89.79-.89,1.43-.25,2.36,2.2,3.16,3.86,6.6,5.17,10.2,1.77,4.84,2.09,9.68-.27,14.46-4.58,5.44-9.68,6.17-15.49,2.13-.74-.52-1.19-.84-2.12-.22-5.8,3.86-9.36,3.66-14.51-.63-2.86-4.5-3.28-9.23-1.61-14.27,1.01-3.06,2.28-5.98,3.81-8.81.77-1.43,2.65-2.82,2.21-4.18-.47-1.47-2.39-2.45-3.59-3.73-.77-.82-1.32-.62-2.08.01-4.63,3.83-9.28,7.63-13.94,11.43-.66.54-1.09,1.09-1.26,2.01-1.33,7.34-4.9,10.4-12.19,10.57ZM249.5,136.84c-.03-.4-.25-.62-.65-.66l.03.02c-.49-1.22-1.59-1.89-2.53-2.66-3.45-2.85-6.62-5.93-9.21-9.61-1.31-1.86-2.94-3.47-4.9-4.71-4.18-2.64-8.21-2.46-12.07.58-1.72,1.35-3.22,2.95-4.51,4.7-2.66,3.62-5.83,6.71-9.38,9.45-1.21.94-2.46,1.9-2.96,3.48h.04c-.76.26-.93,1.01-1.25,1.61-.22.41-.68.96-.17,1.34.38.29.98.11,1.43-.18,5.76-.51,11.28.39,16.57,2.73,1.6.71,3.24,1.31,4.83,2.04,1.2.55,2.32.62,3.55.06,4.03-1.85,8.25-3.16,12.47-4.49.98.06,1.95.04,2.9-.26,1.75.02,3.49.04,5.24.06.78.19,1.55.4,2.38.03.13-1.2-.46-2.08-1.27-2.87h0c-.04-.35-.22-.6-.6-.67l.03.03ZM202.05,147.6c-.67.24-1.12.73-1.49,1.31-.53.45-1.02.97-1.6,1.34-1.16.72-.48,1.25.11,1.82.17.36.35.72.52,1.07-.48.41-1,.7-1.67.59-.28-.86-.4-2.05-1.76-1.17-.58.37-1.21.88-1.47,1.47-.27.6.5,1.03.86,1.51.23,1.1-.34,1.39-1.3,1.26-.53-1.21-1.17-1.93-2.45-.72-.98.92-2.06,1.73-3.07,2.63-1.19,1.06-2.28,1.75-4.13,1.18-2-.61-4.08-.15-5.85,1.25-2.89,2.28-3.99,6.14-2.61,9.48,1.34,3.25,5.32,5.39,8.91,4.79,3.42-.57,6.56-3.76,6.51-7.28-.03-2.34,1.06-3.58,2.64-4.85,6.7-5.38,13.37-10.81,20.03-16.24.68-.55,1.6-.9,1.92-2.01-1.04-.14-1.92-.88-3.02-.44-1.07-.56-2.2-.84-3.42-.71-1.39-.49-2.68-.34-3.85.59-.76.25-1.25.82-1.72,1.42l-2.09,1.7ZM214.58,169.18l.02-.03c-2.05,2.75-1.98,5.96-1.95,9.15.03,2.82,1.16,5.11,3.93,6.08,2.69.93,5.06.17,6.84-2.13,1.6-.91,1.51-3.24,3.24-4.12,1.27,1.63,1.57,3.76,3.47,4.72,1.96,1.92,4.24,2.5,6.77,1.4,2.64-1.15,3.84-3.34,3.93-6.16.09-3.03-.29-5.96-1.9-8.61-.47-2.6-2.28-4.55-3.37-6.85-1.06-2.24-1.23-2.28-3.47-1.24-3.7,1.72-7.3,1.91-10.9-.18-.35-.2-.75-.33-1.13-.5-.82-.37-1.4-.08-1.77.67-1,2.01-2.37,3.84-3,6.03-.63.44-.83,1.05-.7,1.79ZM214.17,151.42c1.98,2.53,4.54,4.12,7.08,5.71,3.6,2.25,7.2,2.35,10.76-.12,1.27-.88,2.64-1.66,3.8-2.68,3.26-2.87,6.44-5.84,9.63-8.8.48-.44,1.37-.67,1.1-1.65-1.15-.19-2.26-.02-3.4.12-4.47.56-8.6,2.19-12.72,3.87-2.27.92-4.49,1.26-6.91.28-4.11-1.66-4.16-1.57-7.55,1.33-.62.53-1.38.93-1.79,1.93Z"/>
      <path class="cls-13" d="M205.88,122.42c-2.91,3.38-6.48,5.86-10.57,7.61-.19.05-.39.09-.59.14-.4.08-.8.16-1.2.23-.16-.36-1.31-.24-.65-.91.62-.64,1.57-.97,2.37-1.43,2.35-1.34,4.48-2.92,5.98-5.25-.76.14-1.34.52-1.97.82-2.61,1.23-5.24,2.43-8.17,2.68-9.69.81-18.41-4-22.97-12.6-.42-.8-.54-1.78-1.37-2.34-.16-.65-.33-1.31-.49-1.96.05-.06.15-.15.14-.18-.06-.13-.16-.25-.25-.38-.2-2.65-.84-5.26-.44-7.96.84-5.57,3.15-10.33,7.32-14.17.67-.61,1.54-1.06,1.82-2.03.46-.15,1.03-.08,1.27-.66,0,0-.04.02-.03.02.43-.04.74-.26.95-.64l.15.07s.1-.13.1-.13c.44,0,.77-.17.98-.56,7.56-3.03,15.04-3.21,22.15,1.15,6.06,3.72,9.58,9.2,10.54,16.34,1.08,8.03-.87,15.33-5.05,22.14ZM207.44,98.79c-2.2-9.21-9.68-14.79-19.15-14.98-8.46-.17-19.16,6.85-19.58,19.65-.07,2.2.11,2.34,2.24,1.97,9.26-1.58,18.52-3.1,27.76-4.81,2.91-.54,5.93-.74,8.73-1.83ZM169.83,108.82c.14,1.4.72,2.27,1.17,3.19,4.3,8.85,13.55,12.1,20.43,10.83,9.06-1.67,15.66-8.68,16.6-17.58.31-2.94.24-3.01-2.62-2.58q-2.67.4-3.36,3.25c-1.1,4.59-5.16,7.85-9.87,7.95-4.21.09-7.37-1.73-9.48-5.32-.62-1.06-1.17-1.83-2.61-1.55-3.33.65-6.69,1.18-10.25,1.8ZM197.53,104.07c-2.25-.03-3.69.73-3.61,2.05.08,1.31,1.07,2.22,2.49,2.28,1.64.07,2.68-.95,2.72-2.68.02-.89-.12-1.69-1.59-1.65Z"/>
      <path class="cls-13" d="M287.49,106.34c-.21,1.26-.41,2.53-.62,3.79-.61.35-.66,1.02-.85,1.59-4.07,11.73-19.51,18.83-31.69,12.07-.47-.26-.94-.9-1.66-.31,2.18,2.89,5.62,4.18,8.44,6.36-.86.64-1.62.15-2.3.38-3.99-1.46-7.51-3.64-10.47-6.71-4.42-5.92-6.41-12.64-6.37-19.96.07-11.99,8.68-22.49,22.01-22.93,14.2-.48,23.42,10.79,23.52,22.01.01,1.24,0,2.48.01,3.71ZM245.77,98.89c1,.24,1.79.48,2.59.62,2.95.5,5.94.84,8.87,1.47,8.39,1.8,16.92,2.79,25.31,4.54,1.47.31,1.82-.21,1.84-1.54.04-1.99-.28-3.92-.78-5.82-2.22-8.56-9.97-14.16-19.1-14.37-8.14-.19-17.29,6.56-18.73,15.1ZM245.34,102.34c-1.27,8.35,5.71,19.48,17.45,20.77,10.16,1.12,19.47-6.68,20.27-14.3-2.66-.79-5.45-.98-8.17-1.49-3.03-.57-3.06-.59-4.78,2.11-2.49,3.92-6.19,4.92-10.49,4.36-3.82-.5-7.79-3.72-8.18-7.46-.31-2.98-1.87-3.44-4.13-3.69-.61-.07-1.22-.19-1.96-.3ZM259.11,105.64c-.16-.24-.32-.77-.62-.86-1.18-.35-2.4-.59-3.61-.79-.21-.03-.56.27-.71.51-.63,1.02-.31,1.98.29,2.89.76,1.14,1.88,1.21,3.03.83,1.11-.37,1.47-1.35,1.62-2.57Z"/>
      <path class="cls-1" d="M166.73,111.37c.83.56.95,1.54,1.37,2.34,4.56,8.6,13.29,13.41,22.97,12.6,2.93-.25,5.56-1.45,8.17-2.68.63-.3,1.22-.67,1.97-.82-1.5,2.33-3.64,3.9-5.98,5.25-.8.46-1.74.79-2.37,1.43-.65.67.49.55.65.91-1.29,1.47-3.11,1.37-4.8,1.5-10.5.77-21.19-7.35-22.65-18.63.08-.68-.17-1.47.66-1.89Z"/>
      <path class="cls-4" d="M211.71,123.2c-.33.73-.71,1.42-1.42,1.86,0-.98.43-1.64,1.42-1.86Z"/>
      <path class="cls-4" d="M176.09,84.03c-.24.57-.81.51-1.27.66.25-.56.73-.66,1.27-.66Z"/>
      <path class="cls-1" d="M166.13,108.85c.09.12.19.24.25.38.02.03-.09.12-.14.18-.15-.16-.19-.35-.11-.56Z"/>
      <path class="cls-4" d="M210.29,125.04c-.04.37-.22.63-.61.7.2-.23.41-.47.61-.7Z"/>
      <path class="cls-4" d="M177.01,83.41c-.21.37-.52.6-.95.64.2-.38.54-.56.95-.64Z"/>
      <path class="cls-4" d="M178.24,82.79c-.21.38-.54.57-.98.56.33-.19.65-.37.98-.56Z"/>
      <path class="cls-1" d="M258.8,130.22c.68-.24,1.45.25,2.3-.38-2.82-2.18-6.26-3.46-8.44-6.36.72-.59,1.19.04,1.66.31,12.18,6.76,27.62-.34,31.69-12.07.2-.57.24-1.23.85-1.59.7.53.63,1.29.5,1.98-1.86,9.66-6.15,16.7-17.62,19.45-3.62.87-7.55,1.06-10.95-1.35Z"/>
      <path class="cls-1" d="M194.72,130.16c.2-.05.39-.09.59-.14-.13.34-.3.47-.59.14Z"/>
      <path class="cls-4" d="M182.38,178.36c7.29-.17,10.86-3.23,12.19-10.57.17-.92.6-1.47,1.26-2.01,4.66-3.8,9.32-7.59,13.94-11.43.76-.63,1.3-.83,2.08-.01,1.2,1.27,3.12,2.26,3.59,3.73.43,1.36-1.45,2.75-2.21,4.18-1.52,2.83-2.79,5.75-3.81,8.81-1.67,5.04-1.24,9.77,1.61,14.27-6.04-.68-11.98-1.89-17.94-3.08-3.66-.73-7.15-2-10.67-3.17-.4-.13-.22-.47-.03-.72Z"/>
      <path class="cls-7" d="M240.82,140.52c-4.22,1.33-8.44,2.64-12.47,4.49-1.23.57-2.35.5-3.55-.06-1.59-.73-3.23-1.33-4.83-2.04-5.29-2.34-10.82-3.24-16.57-2.73,0-.93,0-1.86-.01-2.79,0,0-.04.01-.04.01.31-.04.68.03.91-.12,4.01-2.72,8-5.5,10.8-9.55,1.14-1.65,2.48-3.09,3.99-4.3,1.92-1.54,4.08-2.64,6.71-2.86,4.91-.4,8.39,2.04,11.14,5.52,2.71,3.43,5.67,6.49,9.2,9.04.84.61,1.64,1.29,2.8,1.05,0,0-.03-.02-.03-.02.07.37.28.59.65.66,0,0-.03-.03-.03-.03.07.34.26.57.6.68,0,0,0-.01,0-.01.06,1.11.23,2.27-1.11,2.84-1.75-.02-3.49-.04-5.24-.06-1-.32-2-.58-2.9.26Z"/>
      <path class="cls-9" d="M230.13,182.83c-1.9-.95-2.19-3.09-3.47-4.72-1.73.89-1.64,3.21-3.24,4.12-5.69-.1-8.7-3.11-8.77-8.77-.02-1.44-.04-2.88-.06-4.32,0,0-.02.03-.02.03.84-.36.62-1.13.7-1.79.63-2.2,2-4.02,3-6.03.38-.75.95-1.05,1.77-.67.37.17.77.3,1.13.5,3.6,2.09,7.21,1.9,10.9.18,2.24-1.04,2.41-1,3.47,1.24,1.09,2.3,2.91,4.25,3.37,6.85-.02,1.64-.01,3.29-.07,4.93-.18,5.49-3.25,8.44-8.73,8.44Z"/>
      <path class="cls-2" d="M214.17,151.42c.41-1,1.18-1.4,1.79-1.93,3.39-2.9,3.44-2.99,7.55-1.33,2.42.98,4.64.64,6.91-.28,4.12-1.68,8.25-3.31,12.72-3.87,1.13-.14,2.25-.32,3.4-.12.27.98-.62,1.21-1.1,1.65-3.19,2.96-6.37,5.92-9.63,8.8-1.15,1.02-2.52,1.79-3.8,2.68-3.56,2.47-7.17,2.37-10.76.12-2.54-1.59-5.1-3.18-7.08-5.71Z"/>
      <path class="cls-10" d="M213.12,144.6c1.1-.44,1.98.3,3.02.44-.32,1.11-1.24,1.46-1.92,2.01-6.66,5.43-13.33,10.86-20.03,16.24-1.59,1.28-2.67,2.51-2.64,4.85.05,3.52-3.1,6.71-6.51,7.28-3.59.6-7.57-1.54-8.91-4.79-1.38-3.34-.28-7.2,2.61-9.48,1.77-1.4,3.86-1.86,5.85-1.25,1.85.57,2.94-.12,4.13-1.18,1-.9,2.09-1.71,3.07-2.63,1.29-1.21,1.92-.49,2.45.72-1.14.89-2.32,1.74-3.41,2.68-2.18,1.87-4.15,3.6-7.57,3.06-3.04-.48-5.15,2.66-4.65,5.92.44,2.82,3.11,4.67,5.92,4.09,2.61-.54,4.02-2.14,4.12-5.04.05-1.42.27-2.51,1.48-3.49,3.91-3.18,7.72-6.49,11.56-9.74,1.54-.64,2.72-1.71,3.72-3.02,2.72-2.04,5.61-3.89,7.71-6.66Z"/>
      <path class="cls-9" d="M201.69,154.28c-3.85,3.26-7.65,6.57-11.56,9.74-1.2.98-1.43,2.07-1.48,3.49-.1,2.9-1.51,4.5-4.12,5.04-2.81.58-5.48-1.26-5.92-4.09-.51-3.26,1.61-6.4,4.65-5.92,3.43.55,5.39-1.19,7.57-3.06,1.1-.94,2.27-1.79,3.41-2.68.96.12,1.53-.16,1.3-1.26.79-.6,1.59-1.21,2.38-1.81.67.12,1.19-.18,1.67-.59.6.57,1.16,1.19,2.1,1.13Z"/>
      <path class="cls-8" d="M248.88,136.2c-1.16.24-1.96-.45-2.8-1.05-3.53-2.55-6.49-5.61-9.2-9.04-2.75-3.48-6.23-5.92-11.14-5.52-2.64.22-4.79,1.32-6.71,2.86-1.51,1.21-2.85,2.65-3.99,4.3-2.8,4.05-6.78,6.83-10.8,9.55-.23.15-.6.09-.91.12.5-1.57,1.74-2.54,2.96-3.48,3.54-2.74,6.71-5.83,9.38-9.45,1.29-1.75,2.79-3.35,4.51-4.7,3.87-3.04,7.9-3.22,12.07-.58,1.96,1.24,3.58,2.85,4.9,4.71,2.59,3.68,5.76,6.77,9.21,9.61.94.77,2.04,1.44,2.53,2.66Z"/>
      <path class="cls-5" d="M214.59,169.15c.02,1.44.04,2.88.06,4.32.07,5.66,3.08,8.67,8.77,8.77-1.79,2.3-4.15,3.07-6.84,2.13-2.77-.96-3.91-3.25-3.93-6.08-.03-3.18-.1-6.4,1.95-9.15Z"/>
      <path class="cls-5" d="M230.13,182.83c5.48,0,8.55-2.96,8.73-8.44.06-1.64.05-3.29.07-4.93,1.62,2.65,1.99,5.59,1.9,8.61-.08,2.82-1.28,5-3.93,6.16-2.54,1.11-4.82.53-6.77-1.4Z"/>
      <path class="cls-9" d="M213.12,144.6c-2.1,2.76-4.99,4.62-7.71,6.66-.86-.2-1.8.18-2.61-.38.09-.5.17-1,.26-1.49.66-.62,1.29-1.26,2.21-1.48,1.51.44,2.06-.2,1.87-1.67.85-.78,1.7-1.56,2.56-2.34,1.22-.13,2.35.15,3.42.71Z"/>
      <path class="cls-5" d="M202.8,150.87c.8.57,1.75.19,2.61.38-.99,1.31-2.18,2.38-3.72,3.02-.94.06-1.51-.56-2.1-1.13-.17-.36-.35-.72-.52-1.08.82-.5,1.64-1,2.47-1.5.42.1.84.2,1.26.3Z"/>
      <path class="cls-12" d="M207.14,146.23c.19,1.47-.37,2.1-1.87,1.67.05-.91-.25-1.62-1.13-2,.47-.6.96-1.17,1.72-1.43-.29,1.11.6,1.36,1.29,1.75Z"/>
      <path class="cls-10" d="M197.92,153.73c-.79.6-1.59,1.21-2.38,1.81-.36-.48-1.12-.91-.86-1.51.26-.6.89-1.1,1.47-1.47,1.37-.88,1.48.31,1.76,1.17Z"/>
      <path class="cls-10" d="M207.14,146.23c-.69-.39-1.58-.65-1.29-1.75,1.17-.93,2.46-1.08,3.85-.59-.85.78-1.7,1.56-2.56,2.34Z"/>
      <path class="cls-10" d="M201.53,150.57c-.82.5-1.64,1-2.47,1.5-.59-.57-1.28-1.1-.11-1.82.58-.36,1.07-.89,1.6-1.33.51.45,1.01.89.98,1.65Z"/>
      <path class="cls-10" d="M204.13,145.9c.89.38,1.18,1.09,1.13,2-.92.22-1.55.87-2.21,1.48-.64-.42-1.13-.93-1.01-1.78l2.09-1.7Z"/>
      <path class="cls-12" d="M202.05,147.6c-.12.85.37,1.35,1.01,1.78-.09.5-.17,1-.26,1.49-.42-.1-.84-.2-1.26-.3.03-.76-.47-1.21-.98-1.65.37-.58.82-1.08,1.49-1.31Z"/>
      <path class="cls-8" d="M248.96,140.32c1.34-.57,1.17-1.72,1.11-2.84.81.79,1.4,1.67,1.27,2.87-.82.37-1.6.16-2.38-.03Z"/>
      <path class="cls-8" d="M203.38,137.41c0,.93,0,1.86.01,2.79-.45.29-1.05.46-1.43.18-.51-.38-.05-.93.17-1.34.32-.6.49-1.35,1.25-1.63Z"/>
      <path class="cls-8" d="M240.82,140.52c.9-.84,1.9-.58,2.9-.26-.95.3-1.92.33-2.9.26Z"/>
      <path class="cls-5" d="M215.28,167.39c-.08.66.14,1.43-.7,1.79-.13-.74.08-1.35.7-1.79Z"/>
      <path class="cls-8" d="M250.07,137.49c-.34-.11-.53-.33-.6-.68.37.07.56.31.6.68Z"/>
      <path class="cls-8" d="M249.5,136.84c-.37-.07-.58-.29-.65-.66.4.04.61.26.65.66Z"/>
      <path class="cls-1" d="M207.44,98.79c-2.8,1.09-5.82,1.29-8.73,1.83-9.23,1.71-18.5,3.23-27.76,4.81-2.12.36-2.31.23-2.24-1.97.41-12.8,11.12-19.82,19.58-19.65,9.47.19,16.95,5.77,19.15,14.98Z"/>
      <path class="cls-11" d="M169.83,108.82c3.56-.62,6.92-1.15,10.25-1.8,1.44-.28,1.99.49,2.61,1.55,2.12,3.59,5.27,5.41,9.48,5.32,4.7-.1,8.76-3.36,9.87-7.95q.69-2.85,3.36-3.25c2.86-.43,2.93-.36,2.62,2.58-.94,8.9-7.54,15.91-16.6,17.58-6.88,1.27-16.13-1.98-20.43-10.83-.45-.92-1.03-1.79-1.17-3.19Z"/>
      <path class="cls-6" d="M197.53,104.07c1.47-.03,1.61.76,1.59,1.65-.03,1.73-1.08,2.75-2.72,2.68-1.42-.06-2.41-.97-2.49-2.28-.08-1.33,1.36-2.09,3.61-2.05Z"/>
      <path class="cls-1" d="M245.77,98.89c1.44-8.54,10.59-15.28,18.73-15.1,9.13.21,16.88,5.8,19.1,14.37.49,1.91.82,3.83.78,5.82-.03,1.33-.38,1.84-1.84,1.54-8.39-1.75-16.93-2.73-25.31-4.54-2.93-.63-5.91-.97-8.87-1.47-.8-.14-1.59-.38-2.59-.62Z"/>
      <path class="cls-11" d="M245.34,102.34c.74.12,1.35.24,1.96.3,2.26.25,3.82.71,4.13,3.69.39,3.75,4.36,6.96,8.18,7.46,4.3.56,8.01-.44,10.49-4.36,1.72-2.7,1.74-2.68,4.78-2.11,2.72.51,5.51.7,8.17,1.49-.8,7.62-10.11,15.41-20.27,14.3-11.74-1.29-18.72-12.42-17.45-20.77Z"/>
      <path class="cls-6" d="M259.11,105.64c-.15,1.23-.51,2.2-1.62,2.57-1.15.38-2.26.31-3.03-.83-.61-.9-.92-1.87-.29-2.89.15-.24.5-.55.71-.51,1.22.2,2.43.44,3.61.79.29.09.46.62.62.86Z"/>
    </g>
  </g>
</svg>