<?xml version="1.0" encoding="UTF-8"?>
<svg id="GRIFOS" xmlns="http://www.w3.org/2000/svg" viewBox="0 0 458.93 422.16">
  <defs>
    <style>
      .cls-1 {
        fill: #abb063;
      }

      .cls-1, .cls-2, .cls-3, .cls-4, .cls-5, .cls-6, .cls-7, .cls-8, .cls-9, .cls-10, .cls-11, .cls-12, .cls-13, .cls-14 {
        stroke-width: 0px;
      }

      .cls-2 {
        fill: #e78f3c;
      }

      .cls-3 {
        fill: #f1a196;
      }

      .cls-4 {
        fill: #f9ebd6;
      }

      .cls-5 {
        fill: #df6258;
      }

      .cls-6 {
        fill: #f4f1e8;
      }

      .cls-7 {
        fill: #f2ae32;
      }

      .cls-8 {
        fill: #e9c474;
      }

      .cls-9 {
        fill: #dc3431;
      }

      .cls-10 {
        fill: #e3c8a7;
      }

      .cls-11 {
        fill: #c0cfd6;
      }

      .cls-12 {
        fill: #fefdfc;
      }

      .cls-13 {
        fill: #6b221a;
      }

      .cls-14 {
        fill: #1a1717;
      }
    </style>
  </defs>
  <g id="Expressions">
    <g id="E1">
      <path class="cls-14" d="M228.14,200.58c-14.7.13-28.61-1.96-42.13-6.29-10.96-3.51-21.07-8.76-29.66-16.51-13.45-12.13-19.93-27.34-19.01-45.44.59-11.76,3.29-23.18,6.85-34.37,4.67-14.69,11.69-28.11,22.23-39.5,10.19-11.01,22.2-19.2,36.84-23.18,1.48-.4,3.39-.17,4.33-1.35.91-1.15-.29-2.74-.39-4.17-.4-5.65-.1-11.22,1.94-16.55,1.92-5.02,5.04-9.01,10.3-10.96,5.67-2.1,10.57-.7,14.86,3.32.75.7,1.55,1.45,2.03,2.33,1.27,2.33,2.55,3.39,5.7,2.81,5.07-.93,10.35,2.98,12.54,8.35,1.62,3.96,1.68,8.08,1,12.24-.17,1.02-.44,2.03-.8,3-.51,1.37-.11,1.93,1.29,2.45,5.36,1.96,10.41,4.55,15.25,7.59,11.67,7.32,20.72,17.11,27.86,28.82,7.66,12.55,12.23,26.23,15.27,40.5,1.32,6.19,2.53,12.4,2.79,18.75.51,12.47-2.21,24.1-9.19,34.57-5.16,7.74-12.06,13.7-19.97,18.44-12.88,7.72-26.92,12.1-41.79,13.99-6.19.79-12.39,1.21-18.15,1.16ZM250.27,22.3l.03.05c-.12-2.1-1.34-3.6-2.76-4.97-1.76-1.7-3.86-2.22-6.24-1.67-1.15.27-1.75.84-1.6,2.14.19,1.62.24,3.26.35,4.89-.13.6-.24,1.21-.41,1.8-.24.84-.66,1.56-1.69,1.46-.93-.09-1.02-.92-1.2-1.6-.33-1.28-.09-2.7-.87-3.89-.22-3.62-1.64-6.83-3.58-9.8-1.14-1.74-2.61-3.19-4.67-3.96-4.81-1.78-10.45.57-12.94,5.81-2.59,5.45-3.6,11.22-2.43,17.25.84,10.37,4.81,19.38,11.87,27.02.53.58.96,1.39,1.99,1.37.76-.89.93-2.03,1.3-3.08,1.49-4.23,3.58-8.15,6.2-11.78,2.67-3.7,5.99-6.6,10.58-7.67,1.31-.31,2.65-.43,3.99-.62.75-.1,1.49-.24,1.72-1.08.81-2.98,1.93-5.93.99-9.1.02-.91.14-1.85-.63-2.56ZM239.03,44.22c-.31.06-.49.24-.49.57-2.09,1.94-3.32,4.44-4.58,6.93-1.69,3.33-2.7,6.92-4.26,10.3-1.31,2.85-2.52,3.18-4.97,1.35-3.75-2.81-7.03-6.06-9.59-10.04-1.63-2.53-2.79-5.28-4.24-7.89-.41-1.38-.8-2.77-1.23-4.15-.79-2.51-.8-2.51-3.45-1.82-12.96,3.37-24.01,10.04-33.43,19.47-9.83,9.84-16.85,21.49-21.75,34.46-1.53,4.06-3.11,8.12-3.79,12.44-1.47,3.53-1.96,7.31-2.69,11.01-1.21,6.03-2.65,12.07-2.15,18.31-.57,11.45,2.97,21.71,9.66,30.78,6.73,9.12,15.78,15.49,26.11,20.02,11.95,5.25,24.46,8.19,37.48,9.21,12.9,1,25.71.62,38.38-2.05,13.7-2.89,26.65-7.63,37.88-16.3,9.05-6.99,15.54-15.76,18.55-26.87,1.66-6.12,2.57-12.35,1.67-18.72-.01-4.34-.95-8.56-1.77-12.79-.73-3.8-1.3-7.66-2.69-11.31-.2-2.19-1.05-4.2-1.67-6.28-4.15-13.87-10.6-26.51-20.09-37.5-9.34-10.83-20.76-18.6-34.41-22.99-4.98-1.6-9.12-.17-12.43,3.81l-.04.05Z"/>
      <path class="cls-4" d="M307.68,107.12c1.39,3.65,1.96,7.51,2.69,11.31.81,4.23,1.76,8.44,1.77,12.79-1.05,3.99-1.76,8.06-3.29,11.93-4.17,10.56-11.07,18.96-20.49,25.12-9.23,6.05-19.25,10.51-30.14,12.68-4.34.87-8.61,2.25-13.11,2.17.89-4.88-.08-9.48-2.19-13.89-.94-1.96-1.9-3.91-2.96-5.8-.54-.96-.7-1.66.38-2.29.44-.26.82-.63,1.22-.96,8.57-7.21,14.37-16.25,17.65-26.91.86-2.8.1-4.84-2.26-6.5-1.18-.83-2.46-1.56-3.78-2.11-4.95-2.04-9.38-4.77-13.02-8.78-1.74-1.92-3.97-3.32-6.25-4.57-4.31-2.36-8.67-2.49-13.08-.27-2.24,1.13-4.34,2.5-6.04,4.32-3.96,4.24-8.74,7.17-13.97,9.59-6.34,2.94-7.18,5.35-4.5,11.84,3.86,9.33,9.31,17.55,17.34,23.89.56.44,1.24.78,1.48,1.48-1.16,2.34-2.33,4.63-3.42,6.97-1.97,4.2-3.12,8.56-2.4,13.25-.75,1.01-1.88.93-2.85.71-6.52-1.52-13.21-2.41-19.55-4.59-8.55-2.94-16.54-7.07-23.79-12.5-10.05-7.51-16.63-17.38-19.48-29.65-.17-.72-.49-1.09-1.19-1.19-.5-6.24.94-12.28,2.15-18.31.74-3.7,1.23-7.48,2.69-11.01.51-.23.75-.67.99-1.15.52-1.04.27-2.55,1.86-2.97.21-.05.33-.72.36-1.11.37-4.44,2.83-8.11,4.55-12.02,2.43-5.51,6.23-10.23,9.7-15.05,4.51-6.27,10.11-11.7,16.39-16.33,6.29-4.64,13.15-8.23,20.51-10.76,2.93-1.01,5.98-2.64,9.27-1.01,1.45,2.61,2.61,5.36,4.24,7.89,2.57,3.98,5.84,7.23,9.59,10.04,2.45,1.84,3.66,1.5,4.97-1.35,1.55-3.37,2.57-6.97,4.26-10.3,1.27-2.49,2.49-4.99,4.58-6.93.16-.19.32-.38.49-.57,0,0,.04-.05.04-.05,6.2-.6,11.81,1.83,17.4,3.81,10.7,3.79,19.55,10.56,27.58,18.44.66.65,1.2,1.43,1.82,2.1,2.13,2.29,3.4,5.18,5.39,7.54,2.14,2.52,4.1,5.09,5.65,8.06,2.27,4.35,4.82,8.55,5.7,13.48.09.52.14,1.1.71,1.27,1.26.36,1.36,1.53,1.63,2.45.5,1.67,1.58,3.15,1.56,5,0,.59.65.71,1.17.81ZM207.35,101.02c-.03-7.69-2.4-13.63-6.95-18.05-6.36-6.18-15.28-6.87-22.39-1.58-4.97,3.69-7.89,8.73-8.8,14.84-.67,4.45-.62,8.9,1.05,13.18.44,1.13.46,1.99-.85,2.49-.38.15-.74.37-1.1.58-.52.31-1.29.61-1.05,1.31.3.9,1.16.65,1.87.5.3-.06.6-.18.9-.23,9.1-1.49,18.16-1.63,27.07,1.17,1.97.62,3.91,1.36,5.85,2.07.52.19,1.02.31,1.43-.13.47-.52.11-1.04-.27-1.33-1.16-.91-.53-1.73-.02-2.64,2.23-3.97,3.35-8.24,3.25-12.18ZM285.73,100.1c-.21-5.55-1.84-11.23-6.08-15.9-8.21-9.05-19.55-7.95-26.67-.16-7.29,7.97-7.43,20.56-3.02,28.47.64,1.15,1.98,2.23.4,3.73-.41.39.06.96.71.96.85,0,1.58-.44,2.36-.7,5.02-1.61,10.06-3.04,15.39-3.38,5.32-.35,10.54.19,15.76,1.04.98.16,2.35.88,2.79-.16.51-1.19-.96-1.65-1.87-1.96-1.77-.6-1.67-1.57-1.11-3.07.99-2.63,1.29-5.43,1.33-8.87ZM281.53,135.13c1.04,0,1.88.06,2.7-.01,3.46-.3,6.72-1.23,9.5-3.4,2.96-2.31,3.14-4.77.74-7.67-1.58-1.91-3.59-3.08-5.9-3.83-3.83-1.25-7.73-1.09-11.63-.47-2.37.38-4.61,1.27-6.6,2.62-4.34,2.94-4.29,7.14.1,9.99.95.62,2.01,1.09,3.07,1.47,2.65.95,5.37,1.54,8.01,1.3ZM172.59,135.13c.83,0,1.67.09,2.49-.01,4.16-.52,8.2-1.37,11.12-4.78,1.52-1.78,1.56-4.15.02-5.9-1.3-1.48-2.75-2.69-4.65-3.49-3.57-1.5-7.25-1.49-10.99-1.46-3.55.02-6.62,1.24-9.55,3.18-3.38,2.24-3.17,7.43.07,9.43,3.58,2.21,7.37,3.16,11.5,3.03Z"/>
      <path class="cls-10" d="M245.11,183.12c4.5.08,8.77-1.3,13.11-2.17,10.89-2.17,20.91-6.63,30.14-12.68,9.41-6.17,16.32-14.57,20.49-25.12,1.53-3.87,2.24-7.94,3.29-11.93.9,6.37-.01,12.6-1.67,18.72-3.01,11.11-9.5,19.88-18.55,26.87-11.24,8.68-24.18,13.41-37.88,16.3-12.67,2.67-25.47,3.06-38.38,2.05-13.02-1.01-25.53-3.96-37.48-9.21-10.33-4.54-19.38-10.9-26.11-20.02-6.69-9.08-10.23-19.34-9.66-30.78.7.09,1.02.47,1.19,1.19,2.85,12.27,9.43,22.13,19.48,29.65,7.25,5.42,15.25,9.56,23.79,12.5,6.34,2.18,13.03,3.07,19.55,4.59.97.22,2.09.31,2.85-.71.34.85.65,1.73,1.03,2.56,2.67,5.72,8.49,7.71,13.99,4.73,1.08-.58,2.06-1.36,3.1-2.05.68.53,1.29,1.08,1.97,1.54,5.59,3.73,12.27,1.79,15.01-4.34.25-.56.18-1.25.72-1.68Z"/>
      <path class="cls-9" d="M250.89,24.87c.93,3.17-.19,6.12-.99,9.1-.23.84-.97.98-1.72,1.08-1.33.18-2.68.31-3.99.62-4.59,1.07-7.9,3.97-10.58,7.67-2.62,3.63-4.71,7.55-6.2,11.78-.37,1.05-.54,2.19-1.3,3.08-1.03.03-1.45-.79-1.99-1.37-7.06-7.64-11.03-16.65-11.87-27.02.81-.74.59-1.74.54-2.63-.22-3.98.93-7.64,3.11-10.83,4.33-6.35,9.44-7.54,15.18-3.28.67.5,1.2,1.1,1.71,1.76,1.32,1.74,2.06,3.78,3.07,5.67.78,1.19.54,2.6.87,3.89.17.68.27,1.5,1.2,1.6,1.03.11,1.45-.62,1.69-1.46.17-.59.28-1.2.41-1.8.07-.92.13-1.83.2-2.75.05-.65.29-1.13,1.01-1.35,2.72-.83,5.9.14,7.74,2.46.38.48.66,1.04,1.3,1.25,0,0-.03-.05-.03-.05.06.89-.27,1.88.63,2.56Z"/>
      <path class="cls-6" d="M307.68,107.12c-.52-.1-1.18-.23-1.17-.81.02-1.85-1.06-3.33-1.56-5-.27-.92-.37-2.08-1.63-2.45-.57-.17-.62-.75-.71-1.27-.88-4.93-3.43-9.12-5.7-13.48-1.55-2.96-3.51-5.54-5.65-8.06-1.99-2.35-3.26-5.24-5.39-7.54-.62-.67-1.16-1.45-1.82-2.1-8.03-7.89-16.87-14.65-27.58-18.44-5.59-1.98-11.19-4.41-17.4-3.81,3.31-3.98,7.46-5.41,12.43-3.81,13.65,4.38,25.07,12.16,34.41,22.99,9.49,11,15.94,23.63,20.09,37.5.62,2.08,1.46,4.09,1.67,6.28Z"/>
      <path class="cls-6" d="M210.9,45.43c-3.3-1.63-6.35,0-9.27,1.01-7.36,2.53-14.22,6.13-20.51,10.76-6.28,4.63-11.88,10.06-16.39,16.33-3.47,4.82-7.28,9.54-9.7,15.05-1.73,3.92-4.19,7.58-4.55,12.02-.03.39-.15,1.06-.36,1.11-1.59.42-1.34,1.93-1.86,2.97-.23.47-.48.92-.99,1.15.68-4.32,2.25-8.38,3.79-12.44,4.9-12.96,11.91-24.61,21.75-34.46,9.42-9.43,20.47-16.1,33.43-19.47,2.65-.69,2.66-.69,3.45,1.82.43,1.38.82,2.77,1.23,4.15Z"/>
      <path class="cls-5" d="M235.87,20.51c-1.01-1.9-1.75-3.94-3.07-5.67-.51-.67-1.04-1.26-1.71-1.76-5.74-4.26-10.84-3.07-15.18,3.28-2.18,3.19-3.33,6.85-3.11,10.83.05.89.26,1.88-.54,2.63-1.17-6.03-.16-11.8,2.43-17.25,2.49-5.24,8.13-7.59,12.94-5.81,2.06.76,3.53,2.21,4.67,3.96,1.94,2.97,3.35,6.18,3.58,9.8Z"/>
      <path class="cls-5" d="M250.3,22.35c-.64-.21-.91-.77-1.3-1.25-1.84-2.31-5.02-3.28-7.74-2.46-.72.22-.96.7-1.01,1.35-.08.92-.14,1.83-.2,2.75-.11-1.63-.16-3.27-.35-4.89-.15-1.3.45-1.87,1.6-2.14,2.38-.55,4.47-.03,6.24,1.67,1.42,1.37,2.64,2.87,2.76,4.97Z"/>
      <path class="cls-5" d="M250.89,24.87c-.9-.69-.57-1.67-.63-2.56.76.72.64,1.66.63,2.56Z"/>
      <path class="cls-6" d="M239.03,44.22c-.16.19-.32.38-.49.57,0-.33.18-.5.49-.57Z"/>
      <path class="cls-14" d="M245.11,183.12c-.54.43-.47,1.12-.72,1.68-2.74,6.13-9.42,8.07-15.01,4.34-.68-.45-1.3-1.01-1.97-1.54-1.04.7-2.02,1.47-3.1,2.05-5.5,2.97-11.32.99-13.99-4.73-.39-.83-.69-1.71-1.03-2.56-.71-4.69.44-9.05,2.4-13.25,1.09-2.33,2.27-4.62,3.42-6.97-.24-.69-.92-1.04-1.48-1.48-8.03-6.33-13.48-14.55-17.34-23.89-2.68-6.49-1.83-8.9,4.5-11.84,5.23-2.43,10.01-5.36,13.97-9.59,1.7-1.82,3.8-3.2,6.04-4.32,4.42-2.22,8.77-2.09,13.08.27,2.29,1.25,4.51,2.65,6.25,4.57,3.64,4.01,8.07,6.74,13.02,8.78,1.33.55,2.61,1.28,3.78,2.11,2.36,1.66,3.11,3.71,2.26,6.5-3.27,10.67-9.08,19.7-17.65,26.91-.4.33-.78.7-1.22.96-1.08.63-.92,1.33-.38,2.29,1.06,1.89,2.03,3.84,2.96,5.8,2.11,4.41,3.08,9,2.19,13.89ZM200.33,136.43c-.08-.23-.16-.47-.24-.7-.03.07-.1.18-.08.22.1.16.23.3.36.45.05.49.12.97.62,1.23-.05.36.05.66.33.89,1.47,4.15,4,7.67,6.7,11.07,4.56,5.74,9.98,10.46,16.52,13.87,1.66.87,3.17,1.22,4.97.3,10.29-5.31,17.92-13.15,22.82-23.64.61-.92,1.23-1.84,1.13-3.03.13-.1.27-.2.4-.3-.09-.09-.18-.19-.27-.28-.07.17-.14.33-.21.5-.94.54-1.29,1.52-1.82,2.37-1.18,1.44-2.4,2.85-3.55,4.31-4.52,5.77-9.75,10.7-16.1,14.46-3.34,1.98-6.25,1.85-9.52-.19-6.65-4.16-12.45-9.17-17.08-15.53-1.08-1.49-2.06-3.11-3.56-4.28,0-.22-.08-.4-.25-.53-.28-.5-.4-1.15-1.16-1.19ZM215.29,171.28l.02-.03c-1.83,2.92-2.16,6.19-2.03,9.51.1,2.7,1.34,4.89,3.91,5.86,2.4.9,4.68.37,6.49-1.61,1.87-1.05,1.87-3.65,3.77-4.73,1.39,1.53,1.7,3.72,3.57,4.72,3.89,3.5,8.63,2.29,10.04-2.61.86-2.98.49-5.88-.77-8.69.03-1.74-.93-3.15-1.63-4.62-2.23-4.64-2.29-4.68-6.81-2.18-3.05,1.69-5.99,2.05-9,0-.85-.58-1.8-1.02-2.66-1.58-1.03-.67-1.87-.82-2.46.53-.58,1.31-1.58,2.43-1.79,3.91-.49.39-.72.88-.63,1.51ZM202.23,131.32c5.61,2.44,11.49,4.06,17.4,5.52,9.3,2.29,6,2.32,15.43.02,5.81-1.42,11.61-2.95,17.07-5.48,1.16.09,2.09-.45,3.29-1.01-1.66-1.61-3.51-2.33-5.26-3.09-4.13-1.8-7.76-4.26-10.99-7.4-1.92-1.87-4.04-3.54-6.31-5.02-3.79-2.47-7.54-2.43-11.34-.06-2.03,1.27-3.9,2.77-5.56,4.46-3.6,3.69-7.78,6.43-12.53,8.4-1.48.61-3.04,1.24-4.26,2.75,1.13.42,2,.91,3.05.91ZM206.35,137.18c-.39.98.1,1.63.55,2.12,2.17,2.36,4.03,4.97,6.36,7.2,1.05,1.01,1.72.86,2.9.17,5.68-3.28,11.72-3.63,17.97-1.86,1.64.46,2.92,1.54,4.4,2.26.85.41,1.49.47,2.22-.22,2.57-2.41,4.85-5.08,6.95-7.9.33-.44.86-1.05.27-1.65-.42-.43-.96-.14-1.45,0-4.55,1.38-9.1,2.73-13.64,4.14-3.11.97-6.11,1.18-9.39.37-4.12-1.03-8.15-2.26-12.18-3.54-1.63-.51-3.25-1.21-4.97-1.1ZM216.83,149.83c2.54,2.12,5.04,4.25,7.93,5.88,1.32.75,2.75,1.18,4.14.46,3.27-1.7,6.32-3.73,8.82-6.54-6.03-4.55-15.98-4.45-20.88.2Z"/>
      <path class="cls-14" d="M207.35,101.02c.1,3.94-1.02,8.21-3.25,12.18-.51.91-1.14,1.72.02,2.64.37.29.74.81.27,1.33-.41.45-.91.32-1.43.13-1.94-.71-3.87-1.45-5.85-2.07-8.91-2.8-17.97-2.66-27.07-1.17-.31.05-.6.17-.9.23-.71.14-1.57.4-1.87-.5-.24-.71.53-1,1.05-1.31.36-.21.71-.44,1.1-.58,1.31-.5,1.29-1.35.85-2.49-1.67-4.28-1.72-8.73-1.05-13.18.91-6.1,3.83-11.14,8.8-14.84,7.11-5.28,16.04-4.6,22.39,1.58,4.55,4.42,6.91,10.36,6.95,18.05ZM199.73,89.09c.69,1.03,1.77,1.71,2.38,2.84.08-1.54-.62-2.69-1.68-3.67-3.78-6.58-12.12-8.72-18.33-5.53-9.51,4.89-12.29,17.33-8.3,26.82.23.54.72.87,1.24.59,1.35-.73,3-.33,4.38-.97-1.62-4.96-1.93-6.65-1.48-10.23,1.33-10.49,12.57-17.12,21.25-10.14.16.13.35.2.53.3ZM200.04,94.9c-.03-2.75-2.2-4.82-5.01-4.78-2.78.03-4.84,2.18-4.78,4.98.06,2.63,2.1,4.57,4.84,4.59,2.88.02,4.99-2.02,4.95-4.78ZM183.56,102.78c-1.13.02-2.05,1.02-2.01,2.22.03,1.21.68,1.9,1.85,2.02,1.14.12,2.16-.87,2.2-2.05.05-1.18-.92-2.22-2.04-2.2Z"/>
      <path class="cls-14" d="M285.73,100.1c-.04,3.45-.34,6.24-1.33,8.87-.56,1.5-.66,2.47,1.11,3.07.91.31,2.38.78,1.87,1.96-.45,1.04-1.81.33-2.79.16-5.22-.86-10.44-1.39-15.76-1.04-5.33.35-10.37,1.77-15.39,3.38-.78.25-1.51.69-2.36.7-.65,0-1.12-.57-.71-.96,1.58-1.5.24-2.59-.4-3.73-4.41-7.91-4.27-20.5,3.02-28.47,7.13-7.79,18.46-8.89,26.67.16,4.24,4.67,5.87,10.36,6.08,15.9ZM252.62,90.6c-.75.61-.99,1.41-.86,2.39.19-.63,1-.87.95-1.66.49-.54.95-1.09,1.47-1.6,5.08-5.04,12.31-5.19,17.52-.27,5.02,4.75,6.17,10.51,4.24,17.05-.27.91-1.22,1.71-.7,2.81,1.36.4,2.76.17,4.03.71,1.03.43,1.45-.15,1.77-1.08,2.82-8.18,1.74-15.73-3.79-22.44-2.15-2.61-5-4.33-8.39-4.97-6.85-1.3-13,2.16-16.24,9.07ZM264.13,94.73c-.06-2.78-2.19-4.75-5.03-4.66-2.66.08-4.75,2.41-4.62,5.13.13,2.56,2.25,4.49,4.93,4.47,2.84-.02,4.79-2.05,4.72-4.94ZM272.88,104.81c-.07-1.36-.88-2.14-2.14-2.07-1.17.07-2.12,1.11-2.05,2.25.06,1.15,1.09,2.1,2.26,2.07,1.27-.03,2-.88,1.94-2.25Z"/>
      <path class="cls-3" d="M281.53,135.13c-2.63.24-5.36-.35-8.01-1.3-1.07-.38-2.13-.86-3.07-1.47-4.38-2.85-4.43-7.06-.1-9.99,1.99-1.35,4.23-2.24,6.6-2.62,3.89-.62,7.8-.78,11.63.47,2.3.75,4.32,1.92,5.9,3.83,2.4,2.9,2.22,5.37-.74,7.67-2.78,2.17-6.04,3.1-9.5,3.4-.82.07-1.66.01-2.7.01Z"/>
      <path class="cls-3" d="M172.59,135.13c-4.13.12-7.92-.82-11.5-3.03-3.25-2-3.46-7.19-.07-9.43,2.94-1.95,6.01-3.16,9.55-3.18,3.73-.02,7.42-.04,10.99,1.46,1.91.8,3.36,2.01,4.65,3.49,1.53,1.75,1.5,4.12-.02,5.9-2.92,3.41-6.96,4.26-11.12,4.78-.82.1-1.66.01-2.49.01Z"/>
      <path class="cls-7" d="M252.13,131.38c-5.46,2.53-11.26,4.06-17.07,5.48-9.43,2.3-6.13,2.27-15.43-.02-5.91-1.46-11.79-3.08-17.4-5.52-.23-1.37.67-1.77,1.74-2.08,5.52-1.58,10.11-4.59,13.93-8.86,5.08-5.67,13.61-5.28,18.47-.02,3.83,4.15,8.44,6.86,13.73,8.57,1.18.38,1.95,1.13,2.03,2.44ZM233.93,121.63c-.17.07-.38.12-.53.23-.79.61-1.46,3.42-1,4.28.2.37.58.72.98.45,1.01-.69,2.02-1.46,2.44-2.65.34-.95-.93-2.42-1.89-2.31Z"/>
      <path class="cls-9" d="M231.01,185c-1.87-1-2.19-3.19-3.57-4.72-1.9,1.08-1.9,3.68-3.77,4.73-5.54-.38-7.96-3.97-8.31-9.16-.1-1.53-.04-3.06-.05-4.6,0,0-.02.03-.02.03.7-.3.62-.92.63-1.51.21-1.48,1.21-2.6,1.79-3.91.59-1.35,1.43-1.2,2.46-.53.87.56,1.81,1.01,2.66,1.58,3.01,2.05,5.95,1.69,9,0,4.52-2.5,4.58-2.46,6.81,2.18.71,1.47,1.66,2.88,1.63,4.62,0,.72.03,1.44.02,2.17,0,5.63-3.61,9.17-9.29,9.13Z"/>
      <path class="cls-2" d="M201.75,138.15c1.5,1.16,2.47,2.79,3.56,4.28,4.63,6.36,10.43,11.37,17.08,15.53,3.27,2.04,6.18,2.17,9.52.19,6.35-3.77,11.58-8.7,16.1-14.46,1.15-1.46,2.36-2.88,3.55-4.31.26.25.52.5.77.74-4.9,10.49-12.53,18.33-22.82,23.64-1.8.93-3.31.57-4.97-.3-6.54-3.41-11.96-8.13-16.52-13.87-2.7-3.4-5.23-6.92-6.7-11.07.15-.12.29-.25.42-.38Z"/>
      <path class="cls-13" d="M206.35,137.18c1.73-.11,3.34.59,4.97,1.1,4.03,1.28,8.07,2.51,12.18,3.54,3.27.82,6.28.6,9.39-.37,4.54-1.41,9.09-2.76,13.64-4.14.49-.15,1.03-.43,1.45,0,.59.6.06,1.21-.27,1.65-2.1,2.82-4.38,5.49-6.95,7.9-.74.69-1.37.64-2.22.22-1.48-.72-2.76-1.79-4.4-2.26-6.25-1.77-12.29-1.42-17.97,1.86-1.19.69-1.85.84-2.9-.17-2.33-2.23-4.19-4.85-6.36-7.2-.45-.49-.94-1.14-.55-2.12Z"/>
      <path class="cls-8" d="M252.13,131.38c-.08-1.31-.85-2.06-2.03-2.44-5.29-1.71-9.9-4.42-13.73-8.57-4.86-5.26-13.39-5.65-18.47.02-3.82,4.27-8.42,7.28-13.93,8.86-1.07.31-1.97.7-1.74,2.08-1.05,0-1.92-.49-3.05-.91,1.22-1.5,2.78-2.13,4.26-2.75,4.75-1.97,8.93-4.71,12.53-8.4,1.66-1.7,3.52-3.2,5.56-4.46,3.8-2.37,7.56-2.41,11.34.06,2.26,1.48,4.38,3.14,6.31,5.02,3.23,3.14,6.86,5.6,10.99,7.4,1.75.76,3.6,1.48,5.26,3.09-1.2.56-2.12,1.1-3.29,1.01Z"/>
      <path class="cls-5" d="M216.83,149.83c4.9-4.65,14.85-4.75,20.88-.2-2.49,2.82-5.55,4.84-8.82,6.54-1.39.72-2.82.29-4.14-.46-2.89-1.63-5.38-3.76-7.93-5.88Z"/>
      <path class="cls-5" d="M215.31,171.25c.01,1.53-.05,3.07.05,4.6.35,5.19,2.77,8.78,8.31,9.16-1.8,1.98-4.09,2.52-6.49,1.61-2.57-.97-3.8-3.16-3.91-5.86-.13-3.32.21-6.59,2.03-9.51Z"/>
      <path class="cls-5" d="M231.01,185c5.68.04,9.28-3.49,9.29-9.13,0-.72-.02-1.44-.02-2.17,1.27,2.81,1.63,5.7.77,8.68-1.41,4.9-6.15,6.11-10.04,2.61Z"/>
      <path class="cls-1" d="M252.33,140.12c-.26-.25-.52-.5-.77-.74.53-.85.88-1.83,1.82-2.37l.08.09c.1,1.19-.52,2.1-1.13,3.03Z"/>
      <path class="cls-1" d="M200.99,137.63c-.5-.27-.57-.74-.62-1.23l-.04.03c.76.03.88.69,1.16,1.19-.17.02-.34.02-.5.01Z"/>
      <path class="cls-5" d="M215.92,169.77c0,.59.07,1.21-.63,1.51-.09-.63.14-1.12.63-1.51Z"/>
      <path class="cls-1" d="M200.37,136.4c-.12-.15-.25-.29-.36-.45-.03-.04.05-.14.08-.22.08.23.16.47.24.7,0,0,.04-.03.04-.03Z"/>
      <path class="cls-2" d="M200.99,137.63c.17,0,.34,0,.5-.01.17.14.25.31.25.53-.14.13-.28.25-.42.38-.28-.23-.39-.54-.34-.89Z"/>
      <path class="cls-1" d="M253.38,137.01c.07-.17.14-.33.21-.5.09.09.18.19.27.28-.13.1-.27.2-.4.3,0,0-.08-.09-.08-.09Z"/>
      <path class="cls-6" d="M199.73,89.09c-.18-.1-.38-.18-.53-.3-8.69-6.97-19.92-.35-21.25,10.14-.45,3.58-.14,5.27,1.48,10.23-1.37.64-3.02.24-4.38.97-.52.28-1.01-.05-1.24-.59-3.99-9.48-1.21-21.93,8.3-26.82,6.21-3.19,14.55-1.05,18.33,5.53-.24.28-.47.55-.71.83Z"/>
      <path class="cls-12" d="M200.04,94.9c.03,2.77-2.08,4.8-4.95,4.78-2.74-.02-4.78-1.96-4.84-4.59-.06-2.8,2-4.94,4.78-4.98,2.81-.04,4.98,2.03,5.01,4.78Z"/>
      <path class="cls-6" d="M183.56,102.78c1.13-.02,2.09,1.02,2.04,2.2-.05,1.18-1.07,2.17-2.2,2.05-1.17-.13-1.82-.82-1.85-2.02-.03-1.21.88-2.21,2.01-2.22Z"/>
      <path class="cls-11" d="M199.73,89.09c.24-.28.47-.55.71-.83,1.06.98,1.75,2.13,1.67,3.67-.61-1.12-1.7-1.81-2.38-2.84Z"/>
      <path class="cls-6" d="M252.62,90.6c3.24-6.92,9.39-10.37,16.24-9.07,3.39.64,6.24,2.36,8.39,4.97,5.53,6.72,6.61,14.26,3.79,22.44-.32.93-.74,1.51-1.77,1.08-1.28-.53-2.67-.31-4.03-.71-.51-1.1.44-1.9.7-2.81,1.93-6.54.78-12.3-4.24-17.05-5.21-4.93-12.45-4.77-17.52.27-.51.51-.98,1.07-1.47,1.6.03-.09.1-.18.08-.26-.03-.16-.11-.32-.16-.47Z"/>
      <path class="cls-12" d="M264.13,94.73c.07,2.89-1.88,4.92-4.72,4.94-2.68.02-4.8-1.9-4.93-4.47-.13-2.72,1.96-5.05,4.62-5.13,2.84-.09,4.97,1.88,5.03,4.66Z"/>
      <path class="cls-6" d="M272.88,104.81c.07,1.37-.66,2.22-1.94,2.25-1.17.03-2.2-.92-2.26-2.07-.06-1.14.89-2.18,2.05-2.25,1.26-.07,2.08.72,2.14,2.07Z"/>
      <path class="cls-1" d="M252.62,90.6c.06.16.13.31.16.47.02.08-.05.17-.08.26.06.79-.75,1.03-.95,1.66-.12-.98.12-1.78.86-2.39Z"/>
      <path class="cls-2" d="M233.93,121.63c.96-.11,2.23,1.37,1.89,2.31-.43,1.19-1.43,1.96-2.44,2.65-.4.27-.78-.08-.98-.45-.46-.86.21-3.67,1-4.28.15-.12.36-.16.53-.23Z"/>
    </g>
  </g>
</svg>