<?xml version="1.0" encoding="UTF-8"?>
<svg id="Robot_Completo" data-name="Robot Completo" xmlns="http://www.w3.org/2000/svg" viewBox="0 0 431.88 432.95">
  <defs>
    <style>
      .cls-1 {
        fill: #13161a;
      }

      .cls-1, .cls-2, .cls-3, .cls-4, .cls-5, .cls-6, .cls-7, .cls-8, .cls-9, .cls-10, .cls-11 {
        stroke-width: 0px;
      }

      .cls-2 {
        fill: #353e46;
      }

      .cls-3 {
        fill: #4d8cb1;
      }

      .cls-4 {
        fill: #758694;
      }

      .cls-5 {
        fill: #8fa2aa;
      }

      .cls-6 {
        fill: #6a7b83;
      }

      .cls-7 {
        fill: #19304b;
      }

      .cls-8 {
        fill: #1b4266;
      }

      .cls-9 {
        fill: #4a5864;
      }

      .cls-10 {
        fill: #f6c0be;
      }

      .cls-11 {
        fill: #abc3cf;
      }
    </style>
  </defs>
  <g id="f5">
    <path class="cls-1" d="M216.06,287.95c-3.11.12-6.47-.91-9.87-1.77-5.57-1.42-10.8-3.69-15.98-6.11-5.16-2.4-10.08-5.21-14.68-8.58-2.08-1.53-3.55-3.47-4.52-5.8-1.6-3.82-2.74-7.78-3.36-11.88-.09-.57-.07-1.15-.08-1.73-.01-1.24.55-2.11,1.69-2.62.53-.24,1.05-.49,1.54-.79,1.14-.71,2.33-.74,3.58-.34,3.28,1.06,6.58,2.1,9.95,2.85,3.16.7,6.35,1.28,9.59,1.49,2.32.15,4.49-.37,6.57-1.34,1.97-.91,3.91-1.9,5.89-2.78,2.55-1.14,5.13-2.19,7.92-2.63,2.46-.4,4.85-.17,7.23.53,3.46,1.02,6.63,2.74,9.9,4.19,1.62.72,3.23,1.44,4.98,1.81,1.46.31,2.92.26,4.38.13,4.52-.42,8.92-1.42,13.26-2.73,1.65-.5,3.3-1.01,4.94-1.54,1.3-.42,2.53-.31,3.69.45.44.29.93.52,1.4.75,1.28.63,1.74,1.68,1.64,3.06-.1,1.47-.41,2.91-.74,4.33-.68,2.98-1.47,5.94-2.7,8.76-.96,2.2-2.3,4.07-4.23,5.54-3.29,2.52-6.8,4.66-10.46,6.58-4.28,2.25-8.65,4.29-13.18,5.99-4.19,1.58-8.48,2.83-12.87,3.75-1.65.35-3.34.45-5.49.43ZM236.45,275.87c.36-.04.82.17,1.02-.34.05-.13-.03-.3-.15-.31-.48-.05-.65.34-.86.66-.03.01-.06.02-.09.04-.01.01-.01.04-.02.07.03-.04.07-.08.1-.11ZM234.6,266.01s-.01.01-.01.01c.8-.24,1.34-.64,1.42-1.59.18-2.19.44-4.37.68-6.55.07-.62-.18-.91-.8-.91-2.07-.66-4.12-1.37-6.1-2.28-2.46-1.13-4.88-2.35-7.45-3.23-2.49-.85-5-1.52-7.7-1.01-2.47.47-4.76,1.36-7.03,2.39-3.42,1.56-6.75,3.38-10.49,4.14-.25.05-.52.17-.5.51-.05,2.36.44,4.67.59,7.01.04.62.35,1.09.86,1.42.41.27.81.54,1.22.81.47.32.71.77.79,1.33.46,3.47.96,6.93,1.37,10.41.12,1.02.54,1.6,1.51,1.92,2.61.86,5.23,1.66,7.94,2.16,1.13.21,2.23.59,3.41.46,1.68.24,3.35.36,5.03.02,2.48-.1,4.85-.78,7.2-1.49,1.63-.49,3.3-.89,4.83-1.67.37-.18.45-.57.47-.89.14-2.02.66-4,.6-6.04.28-1.32.4-2.66.52-4.01.23-1.1.55-2.15,1.58-2.8.03-.02.03-.08.05-.12ZM176.67,255.33c-.06-1.4-.06-1.44-1.24-1.84-1.88-.64-3.78-1.23-5.67-1.85-.6.31-.34.87-.31,1.29.07.92.28,1.83.41,2.75.43,3.06,1.62,5.89,2.6,8.78.68,2,1.89,3.7,3.58,5.03,1.54,1.21,3.09,2.38,4.73,3.44.74.47,1.44,1.03,2.31,1.29.3.23.55.56,1.07.43-.03-.24-.02-.46-.08-.67-.39-1.46-.82-2.9-1.19-4.36-.27-1.09-.82-1.96-1.73-2.6-1.64-1.16-2.74-2.64-2.95-4.69-.04-.35-.16-.69-.24-1.04-.44-1.99-.88-3.97-1.31-5.96ZM248.99,274.8c.51.12.74-.3,1.06-.56,2.41-1.14,4.5-2.78,6.66-4.31,1.36-.96,2.5-2.1,3.22-3.63,1.56-3.29,2.48-6.8,3.45-10.29.31-1.1.43-2.26.52-3.4.1-1.14-.11-1.23-1.32-.8-1.48.54-2.95,1.16-4.46,1.58-1.06.29-1.55.85-1.54,1.91-.37,1.73-.85,3.44-1.1,5.18-.39,2.79-1.38,5.18-3.74,6.88-.78.56-1.19,1.4-1.44,2.33-.4,1.49-.74,3-1.26,4.46-.07.2-.03.43-.04.65-.12.05-.14.08-.04.09,0,0,.02-.07.03-.11ZM222.27,250.01c4.58,1.71,8.81,4.29,13.74,5.73-.3-.96-.64-1.49-1.39-1.77-.87-.32-1.73-.71-2.57-1.09-2.67-1.21-5.33-2.44-8-3.64-.29-.13-.58-.47-.97-.19-.3-.34-.7-.51-1.11-.65-4.49-1.47-8.83-1.14-13.01,1.06-.33-.04-.6.14-.88.26-3.22,1.37-6.23,3.2-9.57,4.31-.69.23-1.27.74-1.17,1.71,1.92-.57,3.72-1.18,5.44-2.02,2.23-1.08,4.47-2.12,6.71-3.18l.26-.07c.16.01.28-.04.37-.18,2.28-.69,4.56-1.39,6.97-1.37,1.79.02,3.47.63,5.18,1.07ZM191.88,271.06c-.13.18-.25.37-.39.53-.19.23-.52.4-.27.78.17.26.43.26.71.25,1.41-.06,1.89.39,1.86,1.75,0,.32.1.51.36.62.29.12.56.03.63-.28.19-.79.79-.69,1.37-.7.57-.01.87.23,1.11.74.21.44.92.43.92.09-.02-.92.5-1.44,1.08-2.01.22-.21.13-.61.07-.9-.18-.8-.24-1.62-.29-2.44-.27.03-.21.2-.24.32-.49,1.58-1.19,2.04-2.79,2.09-1.14.04-1.84-.5-2.38-1.38-.34-2.48.64-3.54,3.42-3.53-.89-.88-.95-2.06-1.34-3.11-.18.11-.28.14-.31.2-.69,1.42-1.14,1.62-2.66,1.12-.26-.09-.42-.05-.57.14-.13.17-.24.34-.17.6.4,1.52.33,1.65-.99,2.23-.49.21-.65.79-.22.98.9.39.99,1.14,1.11,1.92ZM182.48,254.13c1.97.67,4.02,1.03,6.06,1.4,1.87.33,3.76.61,5.67.61,1.4,0,1.4.01,1.8-1.54-.22-.02-.43-.06-.64-.06-3.61,0-7.14-.57-10.64-1.39-.56-.13-1.09-.39-1.68-.21-.15-.09-.29-.22-.45-.27-3.01-.9-6.02-1.82-9.04-2.67-.86-.24-1.72-.11-2.51.72,3.87,1.24,7.54,2.69,11.43,3.42ZM188.39,258.29c-.68-.02-1.07-.35-1.13-1.05-.01-.17-.13-.36-.32-.38-.28-.03-.32.2-.39.42-.31.88-.81,1.12-1.69.84-.74-.24-.78-.21-.76.56.03,1.01-.05,1.1-1.13,1.34-.12.03-.23.12-.42.23.73.95.85,1.93-.16,3.07.94-.14,1.4.24,1.77.78.24.42-.08.92.13,1.35,1.48-.33,1.55-.3,2.26.8.26.41.58.36.8-.04.43-.79.97-1.23,1.93-.85.35.14.54-.03.57-.46.07-1.1.1-1.09,1.11-1.33.63-.15.8-.49.33-.86-.46-.37-.48-.8-.51-1.28.05-.29,0-.58.32-.81.49-.37.33-.72-.24-.72-.77,0-1.1-.43-1.33-1.06.23-.24.37-.52.14-.82-.3-.39-.52-.03-.77.1-.15.08-.33.1-.5.15ZM239.36,271.05c-.58.49-1.2.88-1.98.99-1.57.21-2.85-.95-2.85-2.53,0-.64.36-1.19.42-1.91-.4.16-.58.38-.61.64-.15,1.27-.33,2.55-.33,3.84,0,.4.15.68.45.91.47.35.73.76.49,1.37-.1.25-.12.55.19.68.32.14.56.02.79-.27.9-1.07,1.48-1.07,2.46-.01.16.18.34.31.57.24.22-.07.4-.24.4-.48.01-.49.07-.97.31-1.41.5-.3.9-.79,1.56-.77.29.49.6.44.9.02.24-.35.02-.57-.29-.71-.16-.07-.33-.1-.5-.15-.05-.91-.07-1.74,1.06-2.14.61-.22.55-.88-.05-1.18-.12-.06-.26-.06-.38-.11-1.18-.48-1.37-.9-.85-2.08.16-.35.1-.59-.16-.82-.28-.24-.51-.06-.67.14-.41.51-.83.34-1.29.1-.58-.3-1.07-.62-1.02-1.38.01-.19-.19-.28-.52-.4-.15,1.24-.28,2.5-1.44,3.3.69-.04,1.26-.24,1.89.04,1.68.73,2.2,2.13,1.44,4.06ZM248.94,264.64c.29-.62.46-1.35,1.36-1.36.28.05.55,0,.55-.34,0-.33-.26-.4-.55-.36-.76-.98-.24-1.74.49-2.39-.1-.11-.12-.17-.15-.17-1.5-.11-1.62-.24-1.48-1.67.05-.48-.19-.58-.76-.34-.91.39-1.44.18-1.82-.74-.07-.16-.09-.34-.3-.39-.74,1.4-.86,1.46-2.36,1.15-.44-.09-.54.1-.51.5.07,1.01-.08,1.25-.92,1.55-.22.08-.55-.05-.65.34.91.95.92,1.92-.13,2.87.64.37,1.4.17,1.74.81-.02.22-.01.45-.08.65-.09.29-.33.57.02.82.3.22.45-.09.67-.21.61-.35,1.08.08,1.56.36.32.18.04.9.66.82.44-.06.4-.64.76-.84.14-.08.24-.25.36-.38.26-.11.53-.13.81-.09.12.23.28.47.56.41.32-.07.27-.37.25-.62-.01-.12-.05-.25-.07-.37ZM247.89,274.18c-.35-.06-.56.12-.79.24-1.18.62-2.33,1.31-3.54,1.85-2.31,1.02-4.62,2.06-6.95,3.04-4.88,2.05-9.91,3.6-15.07,4.77-1.51.34-3.08.63-4.61.52-3.36-.22-6.66-.82-9.93-1.73-6.97-1.93-13.53-4.81-20-7.97-.54-.26-.97-.75-1.72-.87.25,1.04.64,1.76,1.56,2.27,3.39,1.87,6.93,3.4,10.48,4.92,4.34,1.86,8.84,3.18,13.43,4.22,2.87.65,5.77.99,8.7.54,3.73-.58,7.4-1.46,10.96-2.7,5.63-1.95,11.11-4.25,16.36-7.09.89-.48,1.14-1.12,1.11-2.02ZM262.13,250.59c-1-.66-1.89-.77-2.82-.51-.77.21-1.53.45-2.29.7-6.34,2.07-12.77,3.69-19.5,3.81-.07,0-.13.09-.2.13.48,1.35.57,1.42,1.82,1.42,1.87,0,3.72-.31,5.55-.64,4.49-.82,8.94-1.87,13.28-3.32,1.34-.45,2.7-.85,4.16-1.6ZM190.79,258.69c.08.03.17.09.25.08.86-.1,1.12.53,1.41,1.14.26.57.45,1.09-.34,1.39-.14.06-.17.25-.07.33.63.55.62,1.31.75,2.04.07.39.44.65.89.69.49.04.55-.31.63-.67.12-.53.48-.83,1.02-.9.48-.06.59-.34.43-.75-.15-.38-.16-.78-.15-1.18.02-.8-.07-1.58-.27-2.36-.18-.73-.6-1.03-1.32-1.03-.53,0-1.07.06-1.58-.13-.43-.16-.9-.25-1.29-.07-.36.17.09.66-.19.95-.11.12-.23.26-.16.46ZM242.18,257.32c-.97-.33-1.75.18-2.6.16-1.42-.03-1.42.02-1.53,1.38-.02.22-.09.44-.1.65,0,1.27-.99,2.76.8,3.65.13.06.18.3.25.46.17.36.33.8.83.72.54-.09.83-.47.86-1.03.02-.39-.04-.81.25-1.14.24-.28.17-.47-.01-.8-.42-.73-.27-2.03.35-2.27.95-.35.84-1.03.89-1.79ZM185.37,266.7c-.13.08-.16.23-.13.35.32,1.1.74,2.17.77,3.34.01.39.29.64.6.83.38.23.78.43,1.17.62,1.5.75,1.44.7,2.49-.6.52-.65.29-.93-.25-1.2-.61-.3-.65-.81-.53-1.35.16-.7.36-1.38,1.26-1.49.38-.05.47-.33.27-.69-.19-.34-.42-.49-.71-.15-.58.69-1.23.42-1.82.06-.95,1.58-1.45,1.61-3.13.28ZM243.21,272.85c.95-.27,1.65-.75,2.4-1.09,1.2-.54,1.96-1.21,1.9-2.65-.03-.68.29-1.38.46-2.06.04-.17.11-.36-.12-.43-.21-.06-.38.08-.39.26-.05.67-.48.74-1.02.74-.64,0-1.26,0-1.63-.65-.13-.23-.32-.31-.54-.17-.55.33-1.01.14-1.47-.18-.2-.15-.45-.43-.65-.07-.15.28.09.49.35.61.16.08.32.17.48.23.63.26.98.63.99,1.4,0,.74-.27,1.17-.93,1.42-.24.09-.51.19-.54.59.45.54,1.3.99.73,2.06ZM248.19,270.5c.04.24.02.58.32.64.46.09.42-.33.48-.61.02-.13,0-.27.02-.4.31-1.71.97-3.18,2.5-4.2,1.21-.81,1.99-1.93,2.33-3.42.54-2.33,1.06-4.65,1.46-7,.07-.41.36-1-.22-1.14-.64-.16-.46.6-.7.92-.02.03-.02.09-.03.13-.47,2.07-.91,4.14-1.4,6.21-.41,1.71-.99,3.38-2.56,4.37-1.71,1.08-1.77,2.85-2.21,4.52ZM184.57,271.15c.1-.07.2-.1.23-.16.06-.16.14-.34.12-.5-.16-1.91-.61-3.67-2.41-4.77-.86-.53-1.41-1.3-1.7-2.3-.56-1.96-1.08-3.93-1.5-5.92-.19-.91-.35-1.82-.56-2.73-.08-.32-.34-.56-.7-.46-.44.11-.29.45-.21.75.51,2.06.84,4.16,1.23,6.24.34,1.8.9,3.45,2.59,4.6,1.4.96,2.42,2.33,2.55,4.18.02.33.04.78.36,1.06ZM251.75,262.03c.63-2.22,1.05-4.29,1.43-6.36.1-.52-.19-.61-.63-.5-1.38.32-2.76.64-4.13.95-.35.08-.97-.15-.92.43.05.56.55.12.85.12.69-.02,1.1.54,1.66.79.44.2.26.57.18.92-.08.38.26.39.5.47,1.12.38.94.86,1,1.77.02.41-.48.79.07,1.41ZM185.86,271.96c-.33-.06-.44.08-.54.23-.11.16-.12.36.02.49.16.14.37.24.56.34,1.15.58,2.31,1.15,3.45,1.74,3.24,1.68,6.58,3.12,10.02,4.32.23.08.52.35.68-.01.16-.35-.12-.58-.42-.71-.49-.21-.99-.4-1.48-.6-3.91-1.59-7.82-3.18-11.45-5.37-.3-.18-.63-.32-.85-.43ZM181.74,262.15c-.09-.97-.42-1.72-.03-2.51.27-.54.75-.69,1.16-1,.39-.3.05-1.02.67-1.34.55-.29.99-.72,1.69-.43.3.12.51-.17.53-.44.03-.32-.27-.28-.47-.28-1.52-.03-2.93-.59-4.41-.85-.69-.12-.86-.02-.72.6.37,1.63.42,3.33.95,4.93.13.41.05.9.63,1.34ZM232.93,279.37c2.27-.63,4.19-1.42,6.07-2.27,2.7-1.22,5.39-2.48,7.98-3.93.23-.13.47-.25.69-.4.21-.14.29-.32.15-.56-.16-.28-.37-.36-.66-.18-.19.12-.37.25-.57.34-2.34,1.16-4.54,2.58-6.99,3.53-1.57.61-3.1,1.31-4.68,1.87-.71.25-1.56.41-1.99,1.59ZM237.07,270.8c1.07.02,1.52-.39,1.52-1.37,0-1.03-.45-1.53-1.38-1.56-1.13-.04-1.56.37-1.56,1.46,0,1.05.38,1.45,1.42,1.47ZM196.19,270.8c.94-.03,1.33-.51,1.28-1.6-.04-.8-.56-1.31-1.34-1.31-.74,0-1.64.95-1.58,1.67.06.67.85,1.26,1.64,1.24ZM199.85,277.09c-.08-.99.26-1.97-.37-3.12-.23,1.23-.53,2.19-2.02,2.21.81.53,1.46.85,2.39.9ZM233.57,277.24c.8-.41,1.54-.49,2.35-1.13-1.52.23-1.89-.7-2.25-1.67-.18.9-.19,1.73-.1,2.81ZM195.98,275.03c-.04.08-.1.15-.11.23,0,.24,0,.66.33.46.34-.2.03-.5-.22-.69Z"/>
    <path class="cls-1" d="M274.87,183.15c1.63.14,3.29.08,4.88.58,2.66.84,4.59,2.45,5.36,5.24.22.81.48,1.62.47,2.48,0,.62.25.97.87,1.15.55.16,1.04.49,1.59.68,1.5.52,2.22,1.68,2.6,3.13,1.15,4.42,1.58,8.92,1.27,13.48-.18,2.62-.52,5.21-1.17,7.76-.39,1.56-1.2,2.64-2.69,3.21-.04.02-.08.03-.13.04-1.57.4-2.13,1.42-2.42,3.01-.67,3.6-3.41,5.96-7.35,6.51-4.83.68-9.67,1.32-14.53,1.84-3,.32-6.03.46-9.05.55-6.27.18-12.55.08-18.81-.24-3.92-.2-8.9-2.86-10.21-8.86-1.55-7.03-2.02-14.16-1.57-21.34.19-3.01.65-6,1.25-8.97.93-4.6,3.85-7.26,8.19-8.57,1.88-.57,3.86-.6,5.8-.78,4.38-.39,8.77-.69,13.16-1,1.37-.1,2.75-.11,4.13-.17.18,0,.36,0,.54,0,2.3-.03,4.6-.06,6.9-.07,1.41-.01,2.82.19,4.24.07,1.54.03,3.07.06,4.61.09.69.14,1.38.25,2.09.19ZM286.63,196.81c0,.82-.05,1.65.22,2.45.36,4.52.44,9.05.31,13.58-.33,1.5-.33,3.04-.42,4.57-.09.66-.45,1.31-.24,2.03,1.78-.42,2.54-1.56,2.59-3.24.74-1.41.44-2.98.68-4.47.5-3.83.44-7.65-.24-11.46-.15-.89-.2-1.79-.52-2.65-.36-1.94-.86-2.47-2.84-2.88.15.72.3,1.39.45,2.07ZM229.5,189.06c-1.07.86-1.73,2-2.11,3.3-.65,2.21-1.09,4.47-1.33,6.76-.42,4.02-.43,8.05-.27,12.09-.12.98.15,1.94.2,2.91.14,2.84.68,5.62,1.13,8.42.38,2.36,1.52,4.34,3.25,5.98,1.12,1.06,2.49,1.66,4.01,1.95,2.41.46,4.87.34,7.29.43,5.68.2,11.37.21,17.05-.17,2.57-.17,5.15-.22,7.68-.62,3.94-.63,7.93-.83,11.85-1.53.74-.13,1.51-.22,2.15-.65,1.67-1.13,2.84-2.62,3.35-4.62.4-1.55.7-3.1.91-4.69.32-2.37.84-4.72.6-7.13.59-3.67.11-7.34-.1-11.01-.16-2.83-.74-5.61-1.21-8.4-.3-1.79-.62-3.59-2.1-4.89-1.08-1.43-2.65-1.94-4.31-2.07-3.99-.3-7.98-.52-11.98-.57-4.98-.06-9.95,0-14.92.47-3.93.38-7.88.58-11.82.9-1.41.11-2.84.25-4.23.53-1.93.39-3.75,1.09-5.11,2.63Z"/>
    <path class="cls-1" d="M196.92,183.93c2.25.27,4.54.26,6.74.85,4.68,1.26,7.6,4.25,8.5,9.05,1.1,5.79,1.32,11.65,1.09,17.53-.17,4.36-.52,8.7-1.62,12.94-.88,3.38-2.98,5.76-6.18,7.24-1.61.74-3.27,1.01-5.02,1.08-4.22.16-8.45.25-12.68.25-5.48,0-10.95-.25-16.38-.89-4.31-.52-8.64-1-12.93-1.73-3.02-.52-6.36-3.05-6.86-7.18-.12-.95-.51-1.46-1.34-1.75-2.42-.85-3.55-2.6-4.07-5.1-1.28-6.16-1.24-12.27.12-18.38.74-3.32.55-3.56,4.37-5.17.59-.25.77-.57.89-1.14.25-1.13.35-2.29.89-3.37,1.44-2.87,3.67-4.47,6.87-4.73.6.04,1.19-.05,1.78-.18,2.69-.12,5.39-.25,8.08-.37,1.51.14,3.01-.08,4.52-.05,2.04.03,4.08.05,6.12.07,1.9.16,3.8.06,5.71.22,3.35.27,6.71.45,10.07.67.42.19.87.24,1.32.17ZM148.35,197.62c-.34.87-.62,1.75-.6,2.69-.07.21-.17.41-.19.63-.17,1.72-.38,3.44-.47,5.17-.1,1.9-.04,3.81.44,5.67-.06,1.46.21,2.87.68,4.25.04.31.08.62.13.92.23,1.41,1.07,2.23,2.64,2.55-.11-.72-.21-1.41-.31-2.11-.16-1.62-.32-3.25-.47-4.87-.01-.44,0-.88-.04-1.32-.27-2.69-.21-5.37.03-8.06.11-1.22.35-2.45.25-3.69.26-.87.38-1.75.31-2.65.11-.72.45-1.42.25-2.24-1.6.45-2.54,1.37-2.62,3.04ZM153.1,193.8c-.24.3-.2.67-.24,1.01-.29,2.63-.69,5.25-.89,7.9-.22,2.92-.27,5.83-.07,8.74-.11.44-.09.88-.04,1.32.16,1.27.31,2.54.5,3.81.36,2.41.69,4.81,1.25,7.19.56,2.36,2.09,3.79,4.3,4.46,2.08.63,4.25.97,6.4,1.09,2.84.15,5.64.59,8.44.92,3.35.39,6.71.5,10.07.69,2.88.16,5.78.02,8.66.06,3.46.05,6.92-.16,10.38-.29.36-.01.7-.08,1.04-.17,3.79-1.02,6.04-3.54,7.08-7.23.59-2.09.74-4.27,1.05-6.41.26-1.8.45-3.61.23-5.43.35-.66.31-1.37.32-2.08.06-4.93-.33-9.83-1.1-14.69-.32-2.02-.93-3.97-2.55-5.41-1.09-1.39-2.61-2.13-4.26-2.56-2-.53-4.08-.66-6.14-.84-2.61-.22-5.22-.39-7.83-.62-4.07-.36-8.14-.64-12.23-.71-5.78-.11-11.54.16-17.3.56-1.95.13-3.75.68-4.99,2.36-.69.54-1.03,1.3-1.3,2.09-.47,1.38-.74,2.8-.8,4.26Z"/>
    <path class="cls-11" d="M268.17,182.86c-1.42.12-2.83-.08-4.24-.07-2.3.02-4.6.05-6.9.07-.02-.07-.02-.13-.02-.2,3.25,0,6.49-.02,9.74,0,.47,0,.98-.14,1.41.21Z"/>
    <path class="cls-10" d="M179.83,182.88c-2.04-.02-4.08-.04-6.12-.07-1.51-.03-3.01.19-4.52.05.26-.24.58-.19.88-.19,2.92,0,5.83,0,8.75,0,.35,0,.71-.07,1.01.2Z"/>
    <path class="cls-10" d="M274.87,183.15c-.71.06-1.4-.05-2.09-.19.71-.05,1.42-.2,2.09.19Z"/>
    <path class="cls-11" d="M161.11,183.22c-.58.14-1.17.22-1.78.18.56-.39,1.17-.25,1.78-.18Z"/>
    <path class="cls-10" d="M196.92,183.93c-.46.07-.9.02-1.32-.17.46-.07.92-.16,1.32.17Z"/>
    <path class="cls-10" d="M257.02,182.67c0,.07,0,.13.02.2-.18,0-.36,0-.54,0,.13-.19.33-.19.52-.19Z"/>
    <path class="cls-6" d="M214.31,283.02c-1.17.13-2.28-.25-3.41-.46-2.7-.51-5.33-1.31-7.94-2.16-.97-.32-1.39-.9-1.51-1.92-.41-3.47-.91-6.94-1.37-10.41-.07-.56-.32-1.01-.79-1.33-.4-.28-.81-.55-1.22-.81-.52-.34-.82-.81-.86-1.42-.15-2.34-.65-4.65-.59-7.01.34-.09.69-.28,1.02-.25,1.47.14,2.75-.39,4.05-.95,1.34-.58,2.71-1.06,4.05-1.65,2.05-.9,4.13-1.72,6.33-2.34.17.71-.04,1.4.24,2.02.17.37-.03.69-.17,1.01-.29.37-.74.47-1.13.65-4.84,2.31-7.85,7.99-6.58,13.66.8,3.59,2.69,6.41,5.93,8.26,1,.57,2.13.84,3.12,1.42.16.35,1,.59.15,1.09-.35.21-.02.23.11.24.48.05.53.38.53.76,0,.53.02,1.06.02,1.59ZM201.38,259.44c-.02-.82-.9-1.67-1.75-1.68-.99-.01-1.68.66-1.66,1.62.02,1.21.72,1.89,1.9,1.85.94-.03,1.52-.72,1.5-1.79ZM202.48,277.76c0,1.11.63,1.82,1.64,1.83.84,0,1.61-.77,1.61-1.62,0-.98-.81-1.84-1.74-1.83-.92,0-1.51.64-1.52,1.62Z"/>
    <path class="cls-6" d="M232.97,268.93c-.12,1.34-.25,2.68-.52,4.01-1.03-.13-1.01-.13-1.07-1.06-.03-.42.15-.89-.27-1.47,0,.72,0,1.25,0,1.78,0,.53-.04,1.07,0,1.6.06.69-.27,1.04-.86,1.32-.69.32-1.4.19-2.1.21-.74.03-.73-.85-1.28-1.05.19-.35.39-.69.57-1.04,2.45-4.72,2.23-9.28-.89-13.64-1.54-2.16-3.7-3.51-6.12-4.49.44-.59.61-1.25.55-1.99-.04-.46.17-.88.68-.68.99.38,2.07.4,3.05.86,1.2.56,2.36,1.22,3.58,1.68,1.14.43,2.24.94,3.36,1.41-.52.48-.56,1.16-.73,1.77-.21.77-.06.91.9,1.16.35,1.56.55,1.76,1.96,1.94.16.07.3.16.47.21,1.1.3,1.11.3,1.12,1.39,0,.86.15,1.76-.66,2.42-.2.17-.14.49-.13.75,0,0,.01-.01.01-.01-.27,0-.56-.06-.79.04-.98.41-1.92.88-3.05.8-.48-.03-.52.45-.38.8.19.46.53.87,1.03.97.52.1,1,.38,1.55.32Z"/>
    <path class="cls-9" d="M247.89,274.18c.03.89-.22,1.53-1.11,2.02-5.25,2.84-10.74,5.13-16.36,7.09-3.56,1.24-7.23,2.12-10.96,2.7-2.93.45-5.83.11-8.7-.54-4.59-1.03-9.09-2.36-13.43-4.22-3.55-1.52-7.09-3.05-10.48-4.92-.91-.5-1.31-1.22-1.56-2.27.75.12,1.18.61,1.72.87,6.46,3.16,13.03,6.04,20,7.97,3.27.91,6.57,1.51,9.93,1.73,1.53.1,3.1-.18,4.61-.52,5.16-1.17,10.19-2.72,15.07-4.77,2.33-.98,4.64-2.02,6.95-3.04,1.22-.54,2.36-1.23,3.54-1.85.23-.12.44-.3.79-.24Z"/>
    <path class="cls-9" d="M183.09,274.22c-.87-.26-1.57-.82-2.31-1.29-1.64-1.05-3.2-2.23-4.73-3.44-1.69-1.33-2.9-3.03-3.58-5.03-.98-2.89-2.17-5.72-2.6-8.78-.13-.92-.33-1.83-.41-2.75-.03-.43-.29-.99.31-1.29.23.77.99.88,1.56,1.2.52.29,1.12.45,1.38,1.06-.32.14-.68.23-.96.43-.88.62-.88,2.15-.03,2.78.54.4,1.19.39,1.72-.01.73-.56.9-1.12.67-1.83-.18-.53-.71-.78-.91-1.28,1.18-.13,2.17.12,2.64,1.37.02.31-.01.64.08.92.65,1.97.96,4.03,1.42,6.04.49,2.13,1.48,3.86,3.2,5.18.22.17.41.33.41.63-.44,0-.89-.05-1.33,0-.69.08-1.07.55-1.11,1.26-.05.85.25,1.45.84,1.64,1.25.41,2.06-.15,2.14-1.48.01-.22.06-.44.09-.65.32.06.4.3.46.57.36,1.59.72,3.17,1.07,4.76Z"/>
    <path class="cls-9" d="M262.59,251.82c1.21-.43,1.41-.34,1.32.8-.1,1.14-.22,2.3-.52,3.4-.98,3.48-1.89,6.99-3.45,10.29-.72,1.52-1.86,2.66-3.22,3.63-2.16,1.53-4.25,3.17-6.66,4.31.21-1.71.82-3.33,1.13-5.02.06-.33.31-.52.65-.59.1.32-.1.6-.12.91-.04.73.47,1.39,1.18,1.54.92.19,1.69-.11,1.92-.76.26-.72-.07-1.79-.71-2.11-.35-.18-.75-.26-1.13-.39.02-.5.39-.79.72-1.06,1.03-.86,1.59-1.97,1.97-3.23.79-2.62,1.18-5.32,1.83-7.97.02-.08-.02-.17-.03-.26.4-.97.64-1.11,1.68-1.04.12.69-.29,1.35-.03,2.07.29.82,1.04,1.29,1.94,1.07.95-.23,1.35-.91,1.09-1.87-.31-1.16-.61-1.4-1.94-1.55.05-.22.14-.38.37-.49.77-.4,1.56-.77,2.27-1.27.49-.35-.11-.28-.25-.39Z"/>
    <path class="cls-5" d="M231.66,256.39c-1.12-.47-2.22-.98-3.36-1.41-1.22-.46-2.39-1.12-3.58-1.68-.98-.46-2.05-.48-3.05-.86-.51-.19-.72.22-.68.68.06.74-.11,1.4-.55,1.99-2.78-.77-5.54-.67-8.28.23.14-.32.33-.64.17-1.01-.28-.63-.06-1.32-.24-2.02-2.2.62-4.28,1.45-6.33,2.34-1.33.58-2.71,1.07-4.05,1.65-1.3.56-2.58,1.09-4.05.95-.33-.03-.68.16-1.02.25-.02-.35.25-.46.5-.51,3.74-.75,7.07-2.58,10.49-4.14,2.27-1.03,4.56-1.92,7.03-2.39,2.7-.51,5.21.16,7.7,1.01,2.57.87,4.99,2.1,7.45,3.23,1.98.91,4.03,1.62,6.1,2.28-.36.35-1.28.14-1.05,1.07-.26-.12-.52-.24-.79-.36.08-.58-.33-.71-.76-.88-.53-.21-1.15-.06-1.64-.42Z"/>
    <path class="cls-6" d="M231.37,279.88c-1.53.79-3.2,1.18-4.83,1.67-2.35.71-4.72,1.39-7.2,1.49.11-.56.22-1.13.32-1.69.07-.41.31-.61.72-.66.28-.04.61.12.85-.17q-1.22-.2-1.34-1.29c2.55-.74,4.63-2.21,6.42-4.14.33.25.65.55,1.01.75.42.24.6.57.65,1.02-.63,1.31-.42,2.18.64,2.64.58.25,1.11.07,1.64-.17.5-.08.81.23,1.12.54Z"/>
    <path class="cls-4" d="M262.13,250.59c-1.46.75-2.82,1.15-4.16,1.6-4.34,1.45-8.78,2.5-13.28,3.32-1.82.33-3.67.64-5.55.64-1.24,0-1.34-.08-1.82-1.42.07-.05.13-.13.2-.13,6.73-.12,13.16-1.74,19.5-3.81.76-.25,1.52-.49,2.29-.7.93-.26,1.82-.14,2.82.51Z"/>
    <path class="cls-6" d="M243.45,264.1c-.35-.64-1.1-.44-1.74-.81,1.05-.94,1.05-1.92.13-2.87.1-.38.43-.26.65-.34.83-.3.98-.54.92-1.55-.03-.4.07-.59.51-.5,1.5.31,1.62.24,2.36-1.15.21.05.23.23.3.39.38.92.91,1.13,1.82.74.57-.25.81-.14.76.34-.14,1.43-.02,1.56,1.48,1.67.03,0,.06.06.15.17-.74.65-1.25,1.41-.49,2.39-.13.23-.15.47,0,.7-.9.01-1.07.75-1.36,1.36-.36.05-.62.23-.74.58-.28-.04-.55-.02-.81.09,0-.49-.02-.99-.03-1.48.16-.16.32-.31.47-.47.73-.77.89-1.67.45-2.53-.46-.9-1.59-1.44-2.57-1.23-.83.18-1.64,1.07-1.72,1.99-.09.98.44,1.67,1.17,2.24-.59-.03-1.15.16-1.72.27Z"/>
    <path class="cls-2" d="M190.79,258.69c-.07-.2.05-.34.16-.46.27-.29-.17-.78.19-.95.4-.19.87-.09,1.29.07.51.19,1.05.13,1.58.13.72,0,1.14.31,1.32,1.03.2.78.29,1.56.27,2.36-.01.4,0,.79.15,1.18.16.41.05.69-.43.75-.54.07-.9.37-1.02.9-.08.37-.14.71-.63.67-.45-.03-.81-.3-.89-.69-.13-.73-.12-1.49-.75-2.04-.09-.08-.07-.28.07-.33.79-.31.61-.83.34-1.39-.29-.62-.55-1.24-1.41-1.14-.08,0-.16-.05-.25-.08Z"/>
    <path class="cls-6" d="M241.25,272.35c-.66-.02-1.06.47-1.56.77-.36-.65-.3-1.37-.33-2.07.76-1.93.24-3.33-1.44-4.06-.63-.27-1.2-.08-1.89-.04,1.16-.8,1.29-2.07,1.44-3.3.34.12.54.2.52.4-.05.76.45,1.09,1.02,1.38.46.24.89.41,1.29-.1.17-.21.39-.39.67-.14.26.23.32.46.16.82-.52,1.18-.33,1.6.85,2.08.12.05.27.05.38.11.6.3.67.97.05,1.18-1.12.39-1.1,1.23-1.06,2.14-.04.28-.07.56-.11.84Z"/>
    <path class="cls-6" d="M184.16,264.11c-.36-.54-.83-.92-1.77-.78,1.01-1.15.89-2.13.16-3.07.2-.11.3-.21.42-.23,1.08-.24,1.16-.33,1.13-1.34-.02-.77.02-.8.76-.56.87.28,1.37.04,1.69-.84.08-.22.11-.45.39-.42.19.02.31.21.32.38.06.7.44,1.03,1.13,1.05.3.34.71.47,1.13.57.23.63.56,1.06,1.33,1.06.57,0,.73.35.24.72-.31.24-.27.52-.32.81-.55.11-1.01-.32-1.55-.26-.45-1.07-1.21-1.69-2.41-1.67-.11-.11-.2-.08-.28.04-1.87.82-2.23,1.86-1.3,3.74-.24.42-.5.81-1.06.81Z"/>
    <path class="cls-2" d="M242.18,257.32c-.05.75.06,1.44-.89,1.79-.62.23-.78,1.53-.35,2.27.19.33.26.52.01.8-.29.33-.23.75-.25,1.14-.03.55-.32.94-.86,1.03-.5.08-.66-.36-.83-.72-.08-.16-.12-.4-.25-.46-1.78-.89-.81-2.38-.8-3.65,0-.22.08-.43.1-.65.11-1.36.11-1.41,1.53-1.38.84.02,1.63-.5,2.6-.16Z"/>
    <path class="cls-2" d="M185.37,266.7c1.69,1.33,2.18,1.31,3.13-.28.59.36,1.24.63,1.82-.06.29-.34.52-.2.71.15.2.36.11.64-.27.69-.9.12-1.11.79-1.26,1.49-.12.54-.08,1.05.53,1.35.55.27.77.55.25,1.2-1.05,1.3-.99,1.35-2.49.6-.4-.2-.79-.39-1.17-.62-.31-.19-.59-.43-.6-.83-.03-1.17-.45-2.24-.77-3.34-.03-.12,0-.26.13-.35Z"/>
    <path class="cls-5" d="M219.89,279.23q.12,1.09,1.34,1.29c-.24.29-.57.13-.85.17-.41.05-.64.25-.72.66-.1.56-.21,1.13-.32,1.69-1.68.34-3.36.22-5.03-.02,0-.53-.02-1.06-.02-1.59,0-.38-.05-.71-.53-.76-.13-.01-.47-.03-.11-.24.85-.51,0-.75-.15-1.09,2.14.44,4.27.27,6.4-.1Z"/>
    <path class="cls-6" d="M183.05,252.94c.59-.18,1.13.08,1.68.21,3.5.82,7.03,1.39,10.64,1.39.21,0,.42.04.64.06-.4,1.55-.4,1.54-1.8,1.54-1.91,0-3.8-.28-5.67-.61-2.04-.37-4.09-.73-6.06-1.4.09-.44.61-.69.57-1.19Z"/>
    <path class="cls-2" d="M243.21,272.85c.57-1.07-.28-1.53-.73-2.06.03-.4.31-.5.54-.59.66-.25.94-.67.93-1.42,0-.76-.36-1.14-.99-1.4-.16-.07-.32-.15-.48-.23-.26-.13-.5-.34-.35-.61.2-.35.45-.07.65.07.46.33.92.52,1.47.18.23-.14.41-.06.54.17.37.65.99.64,1.63.65.54,0,.97-.06,1.02-.74.01-.18.18-.32.39-.26.23.07.16.26.12.43-.16.69-.49,1.38-.46,2.06.06,1.45-.69,2.11-1.9,2.65-.76.34-1.46.82-2.4,1.09Z"/>
    <path class="cls-9" d="M193.61,270.52c.55.88,1.25,1.42,2.38,1.38,1.61-.05,2.3-.51,2.79-2.09.04-.12-.02-.28.24-.32.05.81.11,1.63.29,2.44.07.3.15.69-.07.9-.58.56-1.1,1.09-1.08,2.01,0,.35-.7.36-.92-.09-.25-.51-.55-.76-1.11-.74-.58.01-1.18-.09-1.37.7-.07.31-.34.4-.63.28-.26-.11-.37-.3-.36-.62.03-1.37-.45-1.81-1.86-1.75-.28.01-.54.01-.71-.25-.25-.38.08-.55.27-.78.14-.17.26-.35.39-.53.67.11,1.14-.4,1.73-.54Z"/>
    <path class="cls-4" d="M209.75,250.48c-.09.02-.17.05-.26.07.04-.47-.37-.71-.53-1.08,4.19-2.2,8.53-2.53,13.01-1.06.42.14.81.32,1.11.65.06.6-.42.73-.81.94-1.71-.44-3.39-1.05-5.18-1.07-2.42-.02-4.69.68-6.97,1.37-.16-.01-.28.05-.37.18Z"/>
    <path class="cls-4" d="M251.82,268.63c-.34.07-.59.26-.65.59-.32,1.69-.92,3.31-1.13,5.02-.32.25-.54.67-1.06.56h.02c0-.2-.04-.44.04-.64.53-1.46.86-2.97,1.26-4.46.25-.92.66-1.77,1.44-2.33,2.37-1.7,3.35-4.1,3.74-6.88.25-1.74.72-3.45,1.1-5.18.29,0,.59,0,.88-.01.01.09.05.18.03.26-.65,2.65-1.04,5.35-1.83,7.97-.38,1.25-.94,2.37-1.97,3.23-.33.28-.7.56-.72,1.06-.38.28-.87.4-1.15.81Z"/>
    <path class="cls-6" d="M222.27,250.01c.39-.21.88-.34.81-.94.39-.29.68.06.97.19,2.67,1.19,5.33,2.43,8,3.64.85.38,1.7.77,2.57,1.09.75.27,1.09.8,1.39,1.77-4.94-1.44-9.16-4.03-13.74-5.73Z"/>
    <path class="cls-4" d="M180.92,268.13c0-.3-.19-.46-.41-.63-1.72-1.32-2.7-3.05-3.2-5.18-.47-2.01-.77-4.07-1.42-6.04-.09-.29-.06-.61-.08-.92.29,0,.57-.02.86-.02.44,1.99.87,3.97,1.31,5.96.08.35.2.69.24,1.04.21,2.05,1.31,3.54,2.95,4.69.91.64,1.46,1.51,1.73,2.6.36,1.46.79,2.91,1.19,4.36.06.21.05.43.08.67-.51.13-.77-.2-1.07-.43-.36-1.59-.72-3.17-1.07-4.76-.06-.27-.15-.51-.46-.57-.21-.25-.42-.51-.63-.76Z"/>
    <path class="cls-6" d="M193.61,270.52c-.59.13-1.07.64-1.73.54-.12-.78-.21-1.53-1.11-1.92-.43-.19-.27-.76.22-.98,1.32-.57,1.38-.7.99-2.23-.07-.26.04-.42.17-.6.15-.19.31-.23.57-.14,1.52.51,1.97.31,2.66-1.12.03-.06.14-.09.31-.2.39,1.06.45,2.23,1.34,3.11-2.77,0-3.76,1.05-3.42,3.53Z"/>
    <path class="cls-4" d="M183.05,252.94c.04.51-.47.75-.57,1.19-3.89-.73-7.56-2.17-11.43-3.42.79-.83,1.65-.96,2.51-.72,3.03.85,6.03,1.77,9.04,2.67.16.05.3.18.45.27Z"/>
    <path class="cls-6" d="M208.96,249.47c.16.37.57.62.53,1.08-2.24,1.06-4.48,2.1-6.71,3.18-1.72.84-3.52,1.44-5.44,2.02-.11-.97.48-1.48,1.17-1.71,3.34-1.11,6.35-2.94,9.57-4.31.28-.12.55-.3.88-.26Z"/>
    <path class="cls-2" d="M248.19,270.5c.44-1.66.5-3.44,2.21-4.52,1.57-.99,2.15-2.66,2.56-4.37.49-2.06.94-4.14,1.4-6.21,0-.04,0-.1.03-.13.24-.32.06-1.08.7-.92.58.15.28.74.22,1.14-.4,2.35-.92,4.68-1.46,7-.35,1.49-1.12,2.62-2.33,3.42-1.53,1.02-2.19,2.49-2.5,4.2-.02.13,0,.27-.02.4-.05.29-.02.7-.48.61-.31-.06-.29-.4-.32-.64Z"/>
    <path class="cls-2" d="M184.57,271.15c-.32-.28-.33-.74-.36-1.06-.13-1.85-1.14-3.23-2.55-4.18-1.69-1.15-2.25-2.8-2.59-4.6-.39-2.08-.72-4.18-1.23-6.24-.08-.3-.23-.64.21-.75.36-.09.63.14.7.46.21.9.36,1.82.56,2.73.42,1.99.94,3.96,1.5,5.92.29,1,.84,1.77,1.7,2.3,1.8,1.1,2.25,2.86,2.41,4.77.01.16-.06.34-.12.5-.03.07-.13.1-.23.16Z"/>
    <path class="cls-9" d="M239.36,271.05c.03.7-.04,1.42.33,2.07-.25.44-.3.92-.31,1.41,0,.24-.18.41-.4.48-.23.07-.41-.06-.57-.24-.98-1.06-1.57-1.06-2.46.01-.24.28-.47.41-.79.27-.31-.14-.29-.43-.19-.68.23-.61-.02-1.03-.49-1.37-.3-.23-.45-.51-.45-.91,0-1.29.17-2.56.33-3.84.03-.26.21-.48.61-.64-.06.71-.42,1.27-.42,1.91,0,1.58,1.28,2.75,2.85,2.53.79-.11,1.4-.5,1.98-.99Z"/>
    <path class="cls-9" d="M189.21,261.19c.54-.05,1,.37,1.55.26.03.48.06.9.51,1.28.47.38.29.72-.33.86-1.01.24-1.04.24-1.11,1.33-.03.43-.21.6-.57.46-.96-.38-1.5.06-1.93.85-.22.4-.54.45-.8.04-.7-1.1-.77-1.14-2.26-.8-.21-.43.11-.93-.13-1.35.56,0,.82-.39,1.06-.81.75.58,1.61.7,2.49.47,1.05-.28,1.45-1.01,1.5-2.58Z"/>
    <path class="cls-4" d="M231.37,279.88c-.31-.31-.62-.62-1.12-.54.97-1.37.8-2.45-.44-3.01-.79-.36-1.33,0-1.84.54-.05-.45-.23-.78-.65-1.02-.36-.2-.68-.5-1.01-.75.19-.27.37-.54.56-.81.55.2.55,1.08,1.28,1.05.7-.03,1.41.1,2.1-.21.59-.28.92-.62.86-1.32-.05-.53,0-1.07,0-1.6,0-.53,0-1.06,0-1.78.42.58.24,1.04.27,1.47.06.92.04.92,1.07,1.06.06,2.04-.46,4.02-.6,6.04-.02.32-.1.71-.47.89Z"/>
    <path class="cls-2" d="M251.75,262.03c-.55-.62-.05-1-.07-1.41-.05-.91.12-1.39-1-1.77-.24-.08-.58-.1-.5-.47.08-.35.26-.72-.18-.92-.56-.25-.96-.8-1.66-.79-.29,0-.79.44-.85-.12-.05-.58.57-.35.92-.43,1.38-.32,2.76-.63,4.13-.95.44-.1.73-.02.63.5-.39,2.08-.8,4.15-1.43,6.36Z"/>
    <path class="cls-9" d="M185.86,271.96c.22.11.55.25.85.43,3.63,2.18,7.54,3.78,11.45,5.37.49.2.99.39,1.48.6.31.13.58.36.42.71-.16.36-.45.09-.68.01-3.45-1.2-6.79-2.64-10.02-4.32-1.14-.59-2.3-1.16-3.45-1.74-.2-.1-.4-.2-.56-.34-.14-.13-.13-.32-.02-.49.1-.15.21-.29.54-.23Z"/>
    <path class="cls-2" d="M181.74,262.15c-.58-.44-.5-.93-.63-1.34-.53-1.6-.58-3.29-.95-4.93-.14-.62.04-.72.72-.6,1.47.26,2.89.82,4.41.85.21,0,.5-.04.47.28-.02.28-.24.57-.53.44-.7-.29-1.14.15-1.69.43-.62.32-.28,1.05-.67,1.34-.41.31-.89.46-1.16,1-.39.79-.07,1.54.03,2.51Z"/>
    <path class="cls-9" d="M232.93,279.37c.43-1.18,1.28-1.33,1.99-1.59,1.58-.57,3.12-1.27,4.68-1.87,2.45-.95,4.65-2.37,6.99-3.53.2-.1.38-.23.57-.34.28-.17.5-.1.66.18.14.24.06.43-.15.56-.22.15-.46.27-.69.4-2.59,1.45-5.28,2.71-7.98,3.93-1.87.85-3.8,1.63-6.07,2.27Z"/>
    <path class="cls-4" d="M234.84,258.04c-.23-.93.69-.73,1.05-1.07.62,0,.87.3.8.91-.24,2.18-.51,4.36-.68,6.55-.08.96-.62,1.35-1.42,1.59,0-.26-.07-.59.13-.75.81-.66.66-1.56.66-2.42,0-1.09-.03-1.1-1.12-1.39-.16-.04-.31-.14-.47-.21,1.43-.53,1.77-1.58,1.05-3.21Z"/>
    <path class="cls-2" d="M237.07,270.8c-1.04-.02-1.42-.42-1.42-1.47,0-1.1.43-1.5,1.56-1.46.93.03,1.37.54,1.38,1.56,0,.99-.44,1.39-1.52,1.37Z"/>
    <path class="cls-9" d="M247.36,263.83c0,.49.02.99.03,1.48-.12.13-.21.3-.36.38-.36.2-.32.78-.76.84-.62.08-.34-.63-.66-.82-.48-.28-.95-.71-1.56-.36-.22.12-.37.43-.67.21-.35-.25-.11-.53-.02-.82.07-.2.06-.43.08-.65.57-.11,1.13-.31,1.72-.27.73,0,1.46,0,2.19,0Z"/>
    <path class="cls-5" d="M176.67,255.33c-.29,0-.57.02-.86.02-.47-1.25-1.45-1.5-2.64-1.37-.16-.03-.32-.06-.47-.09-.26-.62-.86-.78-1.38-1.06-.58-.32-1.33-.43-1.56-1.2,1.89.61,3.78,1.21,5.67,1.85,1.18.4,1.18.44,1.24,1.84Z"/>
    <path class="cls-2" d="M196.19,270.8c-.79.02-1.57-.57-1.64-1.24-.07-.72.83-1.67,1.58-1.67.78,0,1.3.51,1.34,1.31.05,1.09-.34,1.57-1.28,1.6Z"/>
    <path class="cls-4" d="M232.97,268.93c-.55.06-1.03-.22-1.55-.32-.5-.09-.84-.5-1.03-.97-.14-.35-.1-.83.38-.8,1.13.08,2.07-.39,3.05-.8.23-.1.53-.03.79-.04-.02.04-.02.1-.05.12-1.03.65-1.35,1.7-1.58,2.8Z"/>
    <path class="cls-5" d="M257.46,255.3c-.29,0-.59,0-.88.01-.01-1.06.48-1.62,1.54-1.91,1.52-.42,2.98-1.04,4.46-1.58.13.11.73.04.25.39-.7.5-1.5.87-2.27,1.27-.22.12-.32.27-.37.49-.33.16-.69.26-1.06.28-1.04-.08-1.28.07-1.68,1.04Z"/>
    <path class="cls-2" d="M199.85,277.09c-.92-.05-1.57-.37-2.39-.9,1.49-.02,1.79-.99,2.02-2.21.63,1.15.29,2.12.37,3.12Z"/>
    <path class="cls-2" d="M233.57,277.24c-.09-1.08-.08-1.9.1-2.81.36.97.73,1.9,2.25,1.67-.81.65-1.55.72-2.35,1.13Z"/>
    <path class="cls-9" d="M241.25,272.35c.04-.28.07-.56.11-.84.17.05.34.08.5.15.31.14.53.35.29.71-.29.42-.61.48-.9-.02Z"/>
    <path class="cls-9" d="M189.51,258.86c-.42-.1-.83-.23-1.13-.57.17-.05.35-.07.5-.15.25-.14.47-.49.77-.1.23.3.09.58-.14.82Z"/>
    <path class="cls-9" d="M248.2,265.22c.13-.35.38-.53.74-.58.02.12.06.25.07.37.02.25.07.55-.25.62-.28.06-.44-.19-.56-.41Z"/>
    <path class="cls-2" d="M236.45,275.88c.21-.33.38-.71.86-.66.13.01.2.19.15.31-.2.51-.65.3-1.02.34h0Z"/>
    <path class="cls-9" d="M250.3,263.28c-.15-.23-.13-.47,0-.7.29-.03.55.03.55.36,0,.34-.27.39-.55.34Z"/>
    <path class="cls-2" d="M195.98,275.03c.25.18.56.48.22.69-.33.2-.34-.22-.33-.46,0-.08.07-.15.11-.23Z"/>
    <path class="cls-4" d="M248.99,274.8s-.02.11-.03.11c-.1-.01-.08-.05.04-.09,0,0-.02-.01-.02-.01Z"/>
    <path class="cls-2" d="M236.45,275.87s-.07.08-.1.11c0-.02,0-.05.02-.07.02-.02.06-.03.09-.04,0,0,0,0,0,0Z"/>
    <path class="cls-6" d="M209.75,250.48c.09-.13.21-.19.37-.18-.09.13-.21.19-.37.18Z"/>
    <path class="cls-9" d="M285.27,211.48c.24,2.42-.28,4.77-.6,7.13-.22,1.58-.51,3.14-.91,4.69-.51,2-1.68,3.49-3.35,4.62-.64.43-1.4.52-2.15.65-3.92.71-7.91.91-11.85,1.53-2.53.41-5.12.45-7.68.62-5.68.38-11.37.37-17.05.17-2.42-.09-4.88.03-7.29-.43-1.52-.29-2.89-.89-4.01-1.95-1.73-1.63-2.87-3.62-3.25-5.98-.45-2.8-.99-5.58-1.13-8.42-.05-.97-.32-1.93-.2-2.91,1.01.23,1.62.73,1.67,1.88.04,1.05.36,2.08.42,3.13.13,2.26.68,4.44,1.07,6.65.12.67.45,1.24.77,1.82.13.25.31.43.62.41h-.03c0,.44.25.69.66.81,1.51,1.45,3.25,2.49,5.38,2.63,1.77.12,3.55.21,5.31.24,7.76.13,15.52.13,23.26-.68,1.98-.21,3.95-.5,5.91-.79,1.97-.29,3.93-.68,5.91-.84,1.54-.12,2.85-.58,3.95-1.64.79.12,1.24-.21,1.43-1,.29-1.2.68-2.36.8-3.61.22-2.32.52-4.63.81-6.95.15-1.22.45-1.53,1.55-1.81Z"/>
    <path class="cls-5" d="M229.5,189.06c1.36-1.54,3.18-2.24,5.11-2.63,1.39-.28,2.81-.41,4.23-.53,3.94-.32,7.89-.52,11.82-.9,4.97-.48,9.94-.53,14.92-.47,4,.05,7.99.27,11.98.57,1.66.12,3.23.64,4.31,2.07-.27.78-.66,1.48-1.39,1.93-1.45-1.31-3.15-1.82-5.1-1.93-3.06-.16-6.13-.21-9.19-.36-4.58-.23-9.15.01-13.72.23-5.01.24-10,.75-15,1.2-2.37.21-4.52.84-6.3,2.46-.86-.24-1.68-.52-1.65-1.64Z"/>
    <path class="cls-6" d="M280.47,189.1c.74-.45,1.12-1.15,1.39-1.93,1.48,1.3,1.8,3.1,2.1,4.89.47,2.79,1.05,5.57,1.21,8.4.21,3.67.69,7.33.1,11.01-1.1.28-1.39.59-1.55,1.81-.29,2.31-.58,4.63-.81,6.95-.12,1.24-.51,2.41-.8,3.61-.19.79-.64,1.12-1.43,1,.8-1.38.98-2.93,1.25-4.46.83-4.69,1.32-9.4,1.23-14.16-.02-.98-.2-1.94-.25-2.92-.12-2.7-.34-5.4-.87-8.06-.41-2.07-.51-4.24-1.59-6.14Z"/>
    <path class="cls-4" d="M229.5,189.06c-.02,1.13.8,1.4,1.65,1.64-1.08,1.23-1.72,2.65-2.07,4.26-.68,3.14-.97,6.32-1.11,9.5-.22,4.66-.09,9.33.76,13.93.42,2.26.62,4.57,1.61,6.7-.31.03-.49-.16-.62-.41-.32-.58-.65-1.15-.77-1.82-.38-2.21-.93-4.39-1.07-6.65-.06-1.05-.37-2.09-.42-3.13-.05-1.15-.67-1.65-1.67-1.88-.16-4.03-.15-8.07.27-12.09.24-2.29.68-4.55,1.33-6.76.38-1.3,1.04-2.43,2.11-3.3Z"/>
    <path class="cls-6" d="M289.53,200.27c.68,3.81.74,7.63.24,11.46-.84.44-1.64.98-2.61,1.11.13-4.53.05-9.06-.31-13.58.52-.04.91.29,1.35.48.44.19.81.55,1.33.53Z"/>
    <path class="cls-9" d="M287.16,212.84c.97-.13,1.77-.67,2.61-1.11-.24,1.49.06,3.06-.68,4.47-.39.09-.68.34-.97.6-.39.34-.84.59-1.38.61.09-1.53.09-3.06.42-4.57Z"/>
    <path class="cls-5" d="M289.53,200.27c-.52.01-.89-.34-1.33-.53-.44-.19-.83-.52-1.35-.48-.27-.8-.23-1.63-.22-2.45.92-.1,1.54.71,2.39.81.31.86.37,1.76.52,2.65Z"/>
    <path class="cls-4" d="M289.02,197.62c-.85-.1-1.47-.91-2.39-.81-.15-.68-.29-1.35-.45-2.07,1.98.41,2.48.94,2.84,2.88Z"/>
    <path class="cls-6" d="M286.74,217.41c.54-.02.99-.27,1.38-.61.29-.25.58-.51.97-.6-.06,1.68-.81,2.82-2.59,3.24-.21-.73.15-1.37.24-2.03Z"/>
    <path class="cls-9" d="M211.29,211.46c.22,1.82.03,3.64-.23,5.43-.31,2.14-.46,4.32-1.05,6.41-1.04,3.69-3.3,6.21-7.08,7.23-.35.09-.69.16-1.04.17-3.46.12-6.91.34-10.38.29-2.89-.04-5.78.09-8.66-.06-3.36-.18-6.72-.3-10.07-.69-2.81-.33-5.61-.77-8.44-.92-2.16-.11-4.33-.46-6.4-1.09-2.21-.67-3.74-2.1-4.3-4.46-.56-2.37-.89-4.78-1.25-7.19-.19-1.27-.34-2.54-.5-3.81-.06-.44-.08-.89.04-1.32.92.15,1.43.58,1.61,1.61.18,1.02.12,2.03.21,3.04.23,2.77,1.13,5.43,1.32,8.21.04.53.42.64.82.26.15-.14.19-.39.28-.59.67.9,1.43,1.68,2.5,2.12.76.31,1.56.27,2.35.38,3.9.57,7.78,1.22,11.7,1.63,3.53.37,7.07.55,10.61.65,5.91.18,11.82.1,17.72-.21,1.63-.09,3-.73,4.2-1.78.33-.29.66-.59.99-.89.17-.03.29-.1.33-.28h-.01c.16-.01.26-.1.27-.27h-.03c.24.03.41-.07.57-.25.59-.69.92-1.51,1.08-2.39.57-3.16,1.19-6.32,1.34-9.55.06-1.24.31-1.52,1.53-1.7Z"/>
    <path class="cls-5" d="M155.21,187.45c1.24-1.68,3.04-2.23,4.99-2.36,5.76-.4,11.53-.66,17.3-.56,4.08.08,8.16.35,12.23.71,2.61.23,5.22.4,7.83.62,2.06.18,4.14.31,6.14.84,1.64.44,3.16,1.17,4.26,2.56-.3.79-1.28.83-1.69,1.5-1.59-1.36-3.38-2.26-5.5-2.43-2.08-.17-4.16-.4-6.24-.56-3.15-.24-6.28-.55-9.44-.69-4.22-.18-8.44-.49-12.66-.31-3.42.15-6.84.11-10.26.39-1.43.12-2.82.28-4.13.89-.43-.04-.91-.2-1.25.1-.5.43-.74.23-1-.22-.13-.23-.32-.4-.58-.49Z"/>
    <path class="cls-6" d="M206.26,190.78c.41-.67,1.39-.71,1.69-1.5,1.62,1.44,2.23,3.39,2.55,5.41.77,4.86,1.16,9.76,1.1,14.69,0,.71.03,1.42-.32,2.08-1.22.18-1.47.46-1.53,1.7-.15,3.22-.77,6.38-1.34,9.55-.16.88-.48,1.7-1.08,2.39-.16.18-.33.28-.57.25.46-1.1,1.01-2.15,1.2-3.35.58-3.63,1.05-7.27,1.22-10.95.19-4.17-.03-8.32-.44-12.47-.28-2.81-.58-5.54-2.49-7.8Z"/>
    <path class="cls-6" d="M156.14,223.99c-.09.2-.13.45-.28.59-.41.38-.79.27-.82-.26-.2-2.78-1.09-5.44-1.32-8.21-.08-1.01-.03-2.02-.21-3.04-.18-1.02-.69-1.45-1.61-1.61-.19-2.92-.15-5.83.07-8.74.2-2.64.6-5.26.89-7.9.04-.35,0-.71.24-1.01.34.79.32,1.62.33,2.45,0,1.32.05,1.34,1.33,1.1-.03.57,0,1.16-.08,1.72-.23,1.71-.38,3.43-.45,5.16-.17,4.26-.06,8.51.51,12.74.32,2.37.7,4.73,1.41,7.02Z"/>
    <path class="cls-4" d="M147.52,211.78c-.48-1.87-.54-3.77-.44-5.67.09-1.73.3-3.45.47-5.17.02-.21.13-.42.19-.63.9-.24,1.61-1.09,2.66-.84.1,1.24-.14,2.46-.25,3.69-.24,2.69-.29,5.37-.03,8.06.04.44.03.88.04,1.32-.54.11-1-.11-1.47-.33-.38-.18-.72-.47-1.19-.42Z"/>
    <path class="cls-4" d="M154.76,197.35c-1.28.25-1.33.22-1.33-1.1,0-.83.01-1.66-.33-2.45.06-1.46.33-2.88.8-4.26.27-.79.61-1.55,1.3-2.09.26.09.45.26.58.49.25.45.5.65,1,.22.34-.3.83-.14,1.25-.1-1.25.99-1.99,2.28-2.25,3.85-.05.3-.17.59-.25.88-.33-.11-.14-.81-.66-.64-.39.13-.38.55-.38.9,0,.53,0,1.05,0,1.58,0,.38.22.55.57.59-.03.26-.06.53-.08.79-.72.25-.61.64-.18,1.09.02.09,0,.17-.04.26Z"/>
    <path class="cls-9" d="M147.52,211.78c.46-.05.81.24,1.19.42.47.22.93.44,1.47.33.16,1.62.32,3.25.47,4.87-.59-.05-1.08-.31-1.5-.72-.28-.27-.52-.6-.95-.65-.47-1.38-.74-2.79-.68-4.25Z"/>
    <path class="cls-5" d="M150.42,199.47c-1.05-.25-1.76.6-2.66.84-.02-.95.26-1.83.6-2.69.87-.02,1.5-.76,2.37-.8.07.9-.05,1.79-.31,2.65Z"/>
    <path class="cls-6" d="M148.2,216.03c.43.06.67.38.95.65.42.4.91.66,1.5.72.1.7.21,1.39.31,2.11-1.57-.33-2.4-1.15-2.64-2.55-.05-.31-.09-.62-.13-.92Z"/>
    <path class="cls-4" d="M150.72,196.82c-.87.04-1.5.78-2.37.8.08-1.67,1.03-2.59,2.62-3.04.2.82-.15,1.52-.25,2.24Z"/>
    <path class="cls-1" d="M226.87,274.28c-.19.27-.37.54-.56.81-1.78,1.93-3.87,3.4-6.42,4.14-2.13.38-4.26.54-6.4.1-.99-.58-2.12-.85-3.12-1.42-3.25-1.86-5.13-4.68-5.93-8.26-1.27-5.67,1.74-11.35,6.58-13.66.39-.19.85-.28,1.13-.65,2.74-.9,5.5-.99,8.28-.23,2.42.98,4.58,2.33,6.12,4.49,3.12,4.36,3.34,8.91.89,13.64-.18.35-.38.7-.57,1.04ZM212.22,277.67c2.31,1,4.68,1.15,7.1.52,2.35-.37,4.18-1.7,5.72-3.38,1.06-1.16,2.08-2.42,2.47-4.02.27-1.12.5-2.24.45-3.41.34-.7.04-1.4-.06-2.07-.45-2.83-1.63-5.27-4.01-7.01-1.22-1.04-2.56-1.83-4.14-2.23-1.75-.44-3.49-.62-5.26-.22-3.97.9-6.87,3.13-8.45,6.94-.98,2.15-1.03,4.38-.51,6.65.05,1.62.89,2.91,1.75,4.2,1.24,1.85,2.84,3.23,4.93,4.02Z"/>
    <path class="cls-1" d="M201.38,259.44c.02,1.07-.56,1.76-1.5,1.79-1.19.04-1.88-.64-1.9-1.85-.02-.95.67-1.63,1.66-1.62.85,0,1.73.86,1.75,1.68ZM200.64,259.91c-.07-.62-.22-1.18-.76-1.55-.03-.02-.19.07-.19.12-.05.64.37,1.04.77,1.44.02.02.07,0,.19,0ZM199.57,260.54c.07-.65-.02-1.12-.67-1.44-.18.71-.08,1.17.67,1.44Z"/>
    <path class="cls-1" d="M202.48,277.76c0-.98.6-1.61,1.52-1.62.93,0,1.73.84,1.74,1.83,0,.85-.77,1.63-1.61,1.62-1.01,0-1.65-.72-1.64-1.83ZM203.13,277.35c.86.12.86.11,1.56-.23-.59-.22-1.02-.34-1.56.23ZM203.28,278.49c.58.42.97.49,1.4-.07-.48-.2-.87-.23-1.4.07Z"/>
    <path class="cls-1" d="M234.84,258.04c.72,1.64.38,2.68-1.05,3.21-1.41-.18-1.62-.38-1.96-1.94.22-1.26,1.09-1.64,2.23-1.64.26.12.52.24.79.36ZM232.81,259.69c.35-.29.69-.59.71-1.19-.78.16-.81.64-.71,1.19ZM234.27,259.17c-.3.03-.43.21-.51.42-.09.23-.35.43-.15.7.04.05.16.09.23.07.3-.06.44-.26.45-.56,0-.21-.02-.43-.03-.64Z"/>
    <path class="cls-4" d="M234.06,257.68c-1.14,0-2.01.38-2.23,1.64-.96-.24-1.11-.39-.9-1.16.17-.61.21-1.3.73-1.77.49.36,1.11.2,1.64.42.43.17.84.3.76.88Z"/>
    <path class="cls-1" d="M172.7,253.9c.16.03.32.06.47.09.2.5.74.75.91,1.28.24.71.06,1.27-.67,1.83-.53.41-1.18.41-1.72.01-.85-.63-.85-2.16.03-2.78.28-.2.64-.29.96-.43ZM172.54,254.98c-.4.23-.88.43-.63,1.1.42-.27.61-.62.63-1.1ZM173.35,255.68c-.36.12-.56.33-.68.61-.05.12-.01.24.16.29.28-.2.51-.43.52-.9Z"/>
    <path class="cls-1" d="M180.92,268.13c.21.25.42.51.63.76-.03.22-.07.43-.09.65-.09,1.33-.9,1.89-2.14,1.48-.58-.19-.89-.79-.84-1.64.04-.71.42-1.18,1.11-1.26.44-.05.88,0,1.33,0ZM180.7,269.55c-.32.17-.51.4-.52.77,0,.03.16.12.19.1.31-.17.53-.4.33-.87ZM179.71,269.22c.04-.12.01-.22-.09-.22-.25-.02-.41.15-.5.36-.05.12.02.27.17.27.27,0,.33-.24.41-.41Z"/>
    <path class="cls-1" d="M259.14,254.26c.37-.02.72-.12,1.06-.28,1.33.15,1.63.39,1.94,1.55.26.96-.14,1.64-1.09,1.87-.9.22-1.65-.25-1.94-1.07-.25-.72.15-1.38.03-2.07ZM259.78,255.74c-.06.18.04.37.12.56.09.22.08.54.45.5.08,0,.16-.07.21-.13.24-.26.05-.48-.11-.67-.15-.19-.29-.45-.68-.27ZM261.47,256c.03-.24.08-.33.05-.4-.08-.21-.17-.62-.43-.38-.24.22.13.49.38.77Z"/>
    <path class="cls-1" d="M251.82,268.63c.28-.41.77-.53,1.15-.81.38.13.78.21,1.13.39.64.32.97,1.38.71,2.11-.24.65-1,.95-1.92.76-.71-.15-1.22-.81-1.18-1.54.02-.3.22-.59.12-.91ZM252.54,269.3c-.06.68.08,1.11.86,1.23-.1-.6-.35-.95-.86-1.23ZM253.42,268.84c-.11.18-.01.33.11.45.16.17.35.53.59.31.33-.29-.03-.52-.24-.71-.13-.11-.29-.19-.45-.05Z"/>
    <path class="cls-1" d="M227.97,276.86c.51-.53,1.05-.89,1.84-.54,1.24.56,1.41,1.64.44,3.01-.53.23-1.06.42-1.64.17-1.06-.46-1.27-1.32-.64-2.64ZM230.04,277.4c-.51-.58-.94-.58-1.54-.03.57.13,1,.21,1.54.03ZM229.9,278.43c-.53-.25-.94-.26-1.49.02.58.47.99.54,1.49-.02Z"/>
    <path class="cls-1" d="M247.36,263.83c-.73,0-1.46,0-2.19,0-.73-.57-1.26-1.27-1.17-2.25.08-.92.89-1.81,1.72-1.99.98-.21,2.11.34,2.57,1.23.44.87.28,1.76-.45,2.53-.15.16-.31.31-.47.47ZM246.36,262.79c.58.03.96-.34,1-.98.05-.69-.54-1.37-1.17-1.36-.47,0-.91.53-.93,1.11-.02.7.42,1.2,1.09,1.23Z"/>
    <path class="cls-1" d="M189.21,261.19c-.04,1.57-.44,2.3-1.5,2.58-.89.24-1.74.12-2.49-.47-.93-1.87-.57-2.92,1.3-3.74.09-.01.19-.03.28-.04,1.2-.02,1.96.6,2.41,1.67ZM186.75,260.67c-.73.02-1,.26-1,.92,0,.75.5,1.23,1.26,1.19.69-.04,1.15-.54,1.11-1.21-.03-.6-.51-.92-1.37-.9Z"/>
    <path class="cls-9" d="M186.8,259.52c-.09.01-.19.03-.28.04.08-.12.17-.15.28-.04Z"/>
    <path class="cls-1" d="M230.34,225.1c-.99-2.12-1.19-4.44-1.61-6.7-.85-4.61-.98-9.27-.76-13.93.15-3.19.44-6.37,1.11-9.5.35-1.6.99-3.03,2.07-4.26,1.79-1.62,3.94-2.25,6.3-2.46,5-.45,9.99-.96,15-1.2,4.57-.22,9.14-.46,13.72-.23,3.06.15,6.13.2,9.19.36,1.95.1,3.65.61,5.1,1.93,1.08,1.9,1.18,4.07,1.59,6.14.53,2.65.75,5.35.87,8.06.04.98.23,1.93.25,2.92.09,4.77-.41,9.48-1.23,14.16-.27,1.53-.46,3.08-1.25,4.46-1.1,1.07-2.41,1.52-3.95,1.64-1.98.16-3.94.55-5.91.84-1.97.29-3.93.58-5.91.79-7.74.81-15.5.81-23.26.68-1.77-.03-3.54-.12-5.31-.24-2.13-.15-3.87-1.18-5.38-2.63-.21-.28-.31-.65-.66-.82h.03ZM277.56,189.34s-.02-.07-.04-.09c-.01-.01-.04-.01-.07-.02.04.04.07.07.11.11.22.95.85,1.76,1.04,2.73.44,2.3.57,4.65,1.16,6.92.07.61.17,1.23.2,1.84.1,2.22.17,4.44.26,6.65-.03,3.96-.59,7.86-1.14,11.77-.13.95-.25,1.95-1.02,2.68-.08.08-.15.23-.14.34.02.27,1.08,1.18,1.37,1.19.63.01.61-.53.75-.92.07-.21.14-.42.18-.64.86-4.13,1.4-8.3,1.41-12.53.3-.39.19-.86.18-1.29-.11-3.14-.25-6.27-.8-9.37-.03-2.6-.57-5.13-1.33-7.59-.3-.97-1.09-1.56-2.12-1.76ZM261.83,188.29c-1.84.08-4.19.12-6.53.17-3.33.07-6.63.48-9.94.69-1.21.08-2.46.17-3.69.4-1.82.34-3.69.4-5.53.62-2.45.3-4.22,1.53-5.1,3.89-.44,1.17-.56,2.4-.75,3.63-.59,3.78-.84,7.57-.76,11.39.02.8-.08,1.62.07,2.39.3,1.53.24,3.09.41,4.62.15,1.36.31,2.72.55,4.07.33,1.83,1.14,3.19,2.97,3.92.63.25,1.2.49,1.88.48.62-.01,1.26-.07,1.87.04,2.72.49,5.49.29,8.22.43,4.51.23,9.04.14,13.56-.39,1.74-.21,3.52-.4,5.3-.37,1.05.02,2.12-.17,3.16-.32,2.14-.31,4.27-.85,6.42-.93,2.08-.07,3.54-1.66,3.98-3.57.17-.75.09-1.5.28-2.24.78-3.07.75-6.23.93-9.36.13-2.21-.35-4.42-.24-6.64,0-.13,0-.27-.04-.4-.48-2.16-.65-4.37-1.03-6.54-.23-1.36-.5-2.7-1.21-3.91-.52-.9-1.2-1.44-2.3-1.57-2.78-.33-5.57-.31-8.35-.49-1.2-.08-2.4-.01-4.12-.01ZM232.81,225.07c.28.64.69.88,1.09,1.14,1.04.66,2.22.94,3.42.98,3.11.1,6.22.08,9.33.25,2.52.14,5.06-.04,7.59-.11,3.38-.09,6.73-.42,10.09-.68,1.27-.1,2.56-.15,3.84-.36,2.32-.38,4.66-.57,6.99-.92,1.25-.19,2.57-.2,3.62-1.11-.75-.79-1.41-1.74-2.58-.64-.14.13-.42.11-.63.16-1.29.33-2.63.39-3.94.58-3.03.43-6.05.86-9.11,1.02-1.42.08-2.84.17-4.25.31-2.34.24-4.68.49-7.03.45-2.93-.05-5.86.03-8.79-.16-3.17-.21-6.38,0-9.63-.91Z"/>
    <path class="cls-4" d="M230.31,225.09c.35.17.44.54.66.82-.41-.12-.66-.37-.66-.82Z"/>
    <path class="cls-1" d="M154.76,197.35c.04-.08.05-.17.03-.26.27-.33.22-.71.18-1.09.03-.26.06-.53.08-.79.31-.78.36-1.6.46-2.42.09-.29.2-.58.25-.88.27-1.57,1.01-2.86,2.25-3.85,1.31-.61,2.7-.77,4.13-.89,3.42-.29,6.84-.25,10.26-.39,4.22-.18,8.44.13,12.66.31,3.15.14,6.29.45,9.44.69,2.08.16,4.16.39,6.24.56,2.12.17,3.91,1.08,5.5,2.43,1.9,2.26,2.21,4.99,2.49,7.8.41,4.15.63,8.31.44,12.47-.17,3.67-.63,7.32-1.22,10.95-.19,1.2-.74,2.26-1.2,3.35,0,0,.03,0,.03,0-.19-.01-.27.1-.27.27,0,0,.01,0,.01,0-.18.01-.27.13-.33.28-.33.3-.65.6-.99.89-1.2,1.05-2.57,1.7-4.2,1.78-5.91.31-11.82.39-17.72.21-3.54-.11-7.08-.29-10.61-.65-3.92-.41-7.8-1.06-11.7-1.63-.79-.11-1.59-.07-2.35-.38-1.06-.44-1.83-1.22-2.5-2.12-.72-2.29-1.1-4.65-1.41-7.02-.56-4.23-.68-8.48-.51-12.74.07-1.72.22-3.44.45-5.16.08-.57.06-1.15.08-1.72ZM204.66,225.08c-1.68.27-3.36.54-5.05.81-.36,0-.71.01-1.07.02-.09,0-.19,0-.28,0-.53,0-1.06.02-1.58.03-.38-.05-.77-.14-1.1.17-6.92.08-13.83.08-20.74-.69-3.69-.41-7.39-.89-11.09-1.21-1.21-.1-2.49-.26-3.54-1.01-.33-.23-.57-.2-.81.08-.25.3-.7.4-.88.92.53.45,1.12.81,1.83.89,2.02.23,4.04.47,6.06.81,4.15.71,8.36.98,12.56,1.26,2.43.16,4.87.27,7.31.32,4.44.1,8.88-.33,13.32-.28,1.97-.06,3.77-.52,5.11-2.1.03-.05.07-.09.1-.14-.05.03-.09.07-.14.1ZM155.91,201.4c-.4,3.07-.42,6.16-.34,9.25.01.47-.12.98.24,1.4.28,3.83.62,7.65,1.73,11.3.55.03.74-.25.98-.42.77-.55.75-.56.37-1.48-.17-.41-.32-.83-.41-1.26-.71-3.48-1.18-6.99-1.33-10.54.08-2.75.15-5.5.23-8.26.31-4.03,1.02-7.99,2.07-12-1.16.34-1.77,1.02-2.04,2.1-.82,3.26-1.08,6.6-1.5,9.91ZM187.34,225.06c3.48.26,6.84-.41,10.21-.22,1.52.08,2.99-.31,4.51-.32.64,0,1.31-.24,1.92-.5,1.49-.62,2.48-1.66,2.58-3.38.05-.84.16-1.67.32-2.5.48-2.48.61-5.01.69-7.52.09-2.83.13-5.67-.17-8.51-.25-2.42-.39-4.85-.88-7.23-.56-2.75-2.26-4.2-5.01-4.65-1.77-.29-3.6-.48-5.4-.58-2.17-.12-4.32-.41-6.47-.64-2.86-.31-5.73-.56-8.59-.66-5.5-.2-11.01-.16-16.51.21-2.8.19-3.73.94-4.63,3.57-.26.77-.27,1.57-.42,2.35-.61,3.18-1.03,6.37-1,9.61,0,.4-.03.8-.1,1.19-.26,1.41-.26,2.85-.07,4.25.25,1.89.16,3.8.43,5.68.24,1.71.35,3.43.95,5.07.59,1.62,1.75,2.49,3.46,2.68,1.05.12,2.1.28,3.15.43,2.1.3,4.19.69,6.3.88,2.2.2,4.41.39,6.61.51,2.74.15,5.48.54,8.14.27Z"/>
    <path class="cls-6" d="M206.53,225.63c0-.17.08-.28.27-.27-.02.17-.11.26-.27.27Z"/>
    <path class="cls-6" d="M206.21,225.9c.07-.15.16-.26.33-.28-.04.18-.17.25-.33.28Z"/>
    <path class="cls-6" d="M155.52,192.8c-.1.82-.15,1.64-.46,2.42-.35-.04-.56-.21-.57-.59,0-.53,0-1.05,0-1.58,0-.35-.02-.77.38-.9.52-.17.33.53.66.64Z"/>
    <path class="cls-6" d="M154.98,196.01c.03.38.08.76-.18,1.09-.43-.44-.54-.84.18-1.09Z"/>
    <path class="cls-4" d="M206.04,262.79c1.58-3.82,4.48-6.04,8.45-6.94,1.76-.4,3.51-.22,5.26.22,1.58.4,2.92,1.19,4.14,2.23-.04.34-.24.58-.52.76-.41-.27-.8-.55-1.22-.79-2.09-1.17-4.31-1.8-6.73-1.45-3.6.51-6.37,2.24-8.06,5.54-.08.16-.2.29-.29.44-.34,0-.68,0-1.02,0Z"/>
    <path class="cls-9" d="M227.96,267.38c.06,1.16-.17,2.29-.45,3.41-.39,1.6-1.42,2.87-2.47,4.02-1.54,1.68-3.37,3-5.72,3.38,0-.38-.26-.59-.54-.78.2-.08.4-.18.61-.24,2.75-.78,4.75-2.49,6.22-4.91.93-1.53,1.22-3.21,1.37-4.95.33.02.66.04.99.06Z"/>
    <path class="cls-9" d="M212.22,277.67c-2.09-.79-3.7-2.17-4.93-4.02-.86-1.29-1.7-2.58-1.75-4.2.28.01.56.02.84.03.28.31.35.71.47,1.08.5,1.65,1.44,3.01,2.67,4.22.94.92,2.13,1.4,3.18,2.13.08.4-.26.54-.47.76Z"/>
    <path class="cls-6" d="M227.96,267.38c-.33-.02-.66-.04-.99-.06-.02-1.98-.4-3.85-1.44-5.58-.6-1.01-1.44-1.79-2.17-2.68.28-.18.48-.41.52-.76,2.38,1.74,3.56,4.18,4.01,7.01.11.67.4,1.37.06,2.07Z"/>
    <path class="cls-6" d="M206.37,269.48c-.28-.01-.56-.02-.84-.03-.52-2.27-.47-4.49.51-6.65.34,0,.68,0,1.02,0-.86,2.16-1.03,4.4-.69,6.68Z"/>
    <path class="cls-6" d="M212.22,277.67c.21-.22.55-.36.47-.76,1.99.63,4.03.69,6.09.5.29.19.54.39.54.78-2.43.63-4.8.48-7.1-.52Z"/>
    <path class="cls-9" d="M200.64,259.91c-.12,0-.17.03-.19,0-.4-.4-.82-.81-.77-1.44,0-.05.17-.14.19-.12.54.38.69.94.76,1.55Z"/>
    <path class="cls-9" d="M199.57,260.54c-.74-.28-.85-.74-.67-1.44.65.33.74.79.67,1.44Z"/>
    <path class="cls-9" d="M203.13,277.35c.54-.57.97-.45,1.56-.23-.7.34-.7.35-1.56.23Z"/>
    <path class="cls-6" d="M203.28,278.49c.53-.31.92-.27,1.4-.07-.43.56-.83.49-1.4.07Z"/>
    <path class="cls-6" d="M232.81,259.69c-.1-.55-.07-1.03.71-1.19-.02.6-.37.9-.71,1.19Z"/>
    <path class="cls-4" d="M234.27,259.17c.01.21.04.43.03.64,0,.29-.15.5-.45.56-.07.01-.19-.02-.23-.07-.2-.28.06-.48.15-.7.08-.21.2-.39.51-.42Z"/>
    <path class="cls-9" d="M172.54,254.98c-.01.48-.2.82-.63,1.1-.25-.66.23-.87.63-1.1Z"/>
    <path class="cls-6" d="M173.35,255.68c0,.47-.24.7-.52.9-.17-.05-.21-.18-.16-.29.12-.28.32-.49.68-.61Z"/>
    <path class="cls-9" d="M180.7,269.55c.2.47-.02.69-.33.87-.04.02-.19-.06-.19-.1,0-.36.2-.6.52-.77Z"/>
    <path class="cls-9" d="M179.71,269.22c-.08.17-.15.4-.41.41-.16,0-.23-.15-.17-.27.09-.21.24-.38.5-.36.11,0,.14.1.09.22Z"/>
    <path class="cls-9" d="M259.78,255.74c.39-.19.52.08.68.27.16.19.35.41.11.67-.05.06-.14.12-.21.13-.37.04-.36-.28-.45-.5-.08-.19-.18-.38-.12-.56Z"/>
    <path class="cls-9" d="M261.47,256c-.25-.28-.62-.55-.38-.77.26-.24.35.17.43.38.03.07-.02.16-.05.4Z"/>
    <path class="cls-2" d="M252.54,269.3c.51.29.77.63.86,1.23-.78-.13-.92-.55-.86-1.23Z"/>
    <path class="cls-9" d="M253.42,268.84c.17-.15.33-.06.45.05.21.19.57.42.24.71-.25.22-.43-.14-.59-.31-.12-.12-.21-.27-.11-.45Z"/>
    <path class="cls-6" d="M230.04,277.4c-.54.17-.97.1-1.54-.03.6-.55,1.03-.54,1.54.03Z"/>
    <path class="cls-4" d="M229.9,278.43c-.5.56-.91.49-1.49.02.55-.28.96-.26,1.49-.02Z"/>
    <path class="cls-2" d="M246.36,262.79c-.68-.04-1.12-.53-1.09-1.23.02-.58.45-1.1.93-1.11.63-.01,1.22.68,1.17,1.36-.04.63-.43,1.01-1,.98Z"/>
    <path class="cls-2" d="M186.75,260.67c.85-.02,1.34.3,1.37.9.04.68-.42,1.17-1.11,1.21-.76.04-1.27-.44-1.26-1.19,0-.66.27-.9,1-.92Z"/>
    <path class="cls-7" d="M261.83,188.29c1.71,0,2.92-.06,4.12.01,2.78.18,5.58.16,8.35.49,1.1.13,1.78.67,2.3,1.57.71,1.22.97,2.56,1.21,3.91.37,2.18.54,4.38,1.03,6.54.03.13.04.27.04.4-.11,2.22.37,4.43.24,6.64-.18,3.13-.15,6.29-.93,9.36-.19.73-.1,1.49-.28,2.24-.44,1.91-1.9,3.5-3.98,3.57-2.15.08-4.28.62-6.42.93-1.05.15-2.11.34-3.16.32-1.78-.03-3.56.16-5.3.37-4.52.53-9.05.62-13.56.39-2.74-.14-5.5.07-8.22-.43-.6-.11-1.24-.05-1.87-.04-.68.01-1.25-.22-1.88-.48-1.83-.73-2.64-2.09-2.97-3.92-.24-1.35-.4-2.71-.55-4.07-.17-1.54-.11-3.09-.41-4.62-.15-.77-.06-1.59-.07-2.39-.09-3.82.17-7.61.76-11.39.19-1.23.31-2.46.75-3.63.89-2.35,2.66-3.59,5.1-3.89,1.84-.23,3.71-.29,5.53-.62,1.23-.23,2.48-.32,3.69-.4,3.31-.21,6.61-.62,9.94-.69,2.34-.05,4.7-.09,6.53-.17ZM239.4,201.34h0c.25.66.6,1.17,1.43,1.1.31-.02.67.12.81.38.42.77,1.46,1.22,1.24,2.34-.02.11.02.31.11.37.84.6.45,1.27.12,1.93-.37.02-.71.08-.73.56-.53,0-.79.5-1.27.65-.88.29-1.43.98-1.72,1.86-.09.26-.17.56-.44.61-.98.2-.9.93-.89,1.65.01.71-.02,1.42,0,2.12.03.91.04.91,1.08,1.11h0c-.07.71.22,1.1.97,1.08.44-.01.87.1,1.31.17,1.35.24,2.7.48,4.08.36.48-.04.97-.23,1.43-.18.99.12,1.99-.1,2.98.17.43.11.88,0,1.22-.37.29-.32.66-.44,1.08-.41.94.07,1.83-.07,2.71-.48.91-.42,1.9-.66,2.89-.79.61-.08,1.22-.18,1.83-.31.5-.11.85-.3.84-.84-.01-.73.4-1.15,1.01-1.41.81-.35,1.2-1.24,1.89-1.61.73-.39,1.71-.25,2.54-.6.92-.39,1.63-1.21,2.69-1.32.06,0,.11-.23.16-.35q1.08-.14,1.1-1.14c0-.18-.02-.35-.03-.53-.03-.03-.05-.07-.08-.1-.39-.33-.85-.39-1.33-.42-.77-.06.07-1.04-.65-1.17-.15-.03-.26-.21-.39-.33-.26-.24-.49-.49-.49-.88.37-.06.51-.31.53-.65.01-.23.08-.51.3-.54.6-.08.94-.66,1.38-.8.72-.23.75-.61.74-1.16,0-.27,0-.53,0-.8-.02-1.11-.02-1.12-1.08-1.13-1.55-.01-3.1-.02-4.65,0-1.84.02-1.74-.3-1.72,1.82-.12.64.16.9.79.88.28,0,.55.11.64.38.13.36-.17.57-.4.76-.77.61-1.86.58-2.26-.33-.71-1.6-2.03-1.25-3.04-.97-.95.26-1.81.13-2.7.13-.52,0-1.04-.17-1.56-.25-.71-.1-1.7-.92-1.89-1.57q-.3-1.08-1.42-1.06c-.07-.01-.13-.04-.19-.08-.68-.38-1.23-1.02-2.09-1.03-1.46,0-2.91-.03-4.37.01-.75.02-1.49.2-1.85,1-.65.02-1.31.07-1.96.04-.61-.03-.73.33-.75.81-.68.55-.66.91.07,1.34ZM232.74,201.6c0,.49-.04.98.01,1.46.04.39.15.84.64.89.43.05.59-.33.74-.66.52-1.13,1.01-2.27,1.55-3.38,1.13-2.3,2.85-4.04,5.16-5.17.88-.43,1.78-.79,2.67-1.2.36-.17.75-.36.65-.87-.09-.42-.47-.5-.8-.61-.16-.05-.35-.04-.53-.04-2.58-.12-4.9.73-7.07,1.99-.79.46-1.48,1.16-1.85,2.05-.73,1.77-1.23,3.6-1.17,5.54Z"/>
    <path class="cls-9" d="M232.81,225.07c3.25.92,6.46.71,9.63.91,2.94.19,5.86.12,8.79.16,2.36.04,4.69-.22,7.03-.45,1.41-.14,2.83-.24,4.25-.31,3.06-.16,6.08-.59,9.11-1.02,1.32-.19,2.65-.25,3.94-.58.21-.05.49-.03.63-.16,1.17-1.1,1.83-.15,2.58.64-1.05.91-2.38.93-3.62,1.11-2.32.35-4.67.54-6.99.92-1.28.21-2.57.25-3.84.36-3.36.27-6.71.59-10.09.68-2.53.07-5.07.24-7.59.11-3.11-.17-6.22-.15-9.33-.25-1.2-.04-2.37-.31-3.42-.98-.41-.26-.81-.51-1.09-1.14Z"/>
    <path class="cls-6" d="M281.63,209.36c0,4.23-.55,8.4-1.41,12.53-.04.22-.11.43-.18.64-.14.39-.12.94-.75.92-.29,0-1.34-.92-1.37-1.19,0-.11.05-.26.14-.34.77-.73.89-1.73,1.02-2.68.54-3.91,1.1-7.81,1.14-11.77.48.02.53.34.57.73.05.54.15,1.07.84,1.15Z"/>
    <path class="cls-9" d="M281.63,209.36c-.69-.08-.79-.61-.84-1.15-.03-.38-.09-.71-.57-.73-.08-2.22-.16-4.44-.26-6.65-.03-.62-.13-1.23-.2-1.84.42-.09.79-.38,1.25-.28.54,3.1.68,6.24.8,9.37.02.43.12.89-.18,1.29Z"/>
    <path class="cls-2" d="M281.01,198.7c-.46-.09-.83.19-1.25.28-.59-2.27-.71-4.62-1.16-6.92-.19-.97-.81-1.77-1.04-2.73h0c1.03.2,1.82.79,2.12,1.77.76,2.47,1.3,4.99,1.33,7.59Z"/>
    <path class="cls-2" d="M277.56,189.34l-.11-.11s.06,0,.07.02c.02.02.03.06.04.09,0,0,0,0,0,0Z"/>
    <path class="cls-7" d="M187.34,225.06c-2.66.27-5.4-.12-8.14-.27-2.2-.12-4.41-.31-6.61-.51-2.11-.19-4.2-.58-6.3-.88-1.05-.15-2.1-.31-3.15-.43-1.7-.2-2.87-1.06-3.46-2.68-.6-1.64-.71-3.36-.95-5.07-.27-1.89-.18-3.79-.43-5.68-.18-1.39-.19-2.83.07-4.25.07-.39.11-.79.1-1.19-.03-3.24.4-6.44,1-9.61.15-.78.15-1.58.42-2.35.9-2.62,1.83-3.37,4.63-3.57,5.5-.38,11.01-.41,16.51-.21,2.86.1,5.73.35,8.59.66,2.15.23,4.3.52,6.47.64,1.8.1,3.63.29,5.4.58,2.75.45,4.45,1.9,5.01,4.65.49,2.39.63,4.81.88,7.23.29,2.84.26,5.68.17,8.51-.08,2.51-.21,5.03-.69,7.52-.16.82-.27,1.66-.32,2.5-.09,1.73-1.08,2.76-2.58,3.38-.61.25-1.28.49-1.92.5-1.51.01-2.99.41-4.51.32-3.38-.19-6.73.47-10.21.22ZM167.33,211.52c-.29.01-.54.12-.54.45-.01,1.1,0,2.21,0,3.31,0,.33.24.44.53.48.26.4.69.23,1.04.31.16.66.57,1.15,1.22,1.25.82.14,1.63.34,2.49.32,2.96-.05,5.93.03,8.89-.27.92-.09,1.86.06,2.74-.35.2-.09.43-.2.64-.07.9.56,1.67.05,2.47-.28.25-.1.48-.28.73-.32.59-.07.92-.38,1.36-.79.57-.53.96-.94.86-1.72-.02-.17.06-.37.26-.43.49-.15.62-.6.85-.97.36-.59.87-1.09,1.55-1.18,1.46-.2,2.67-1.04,4.04-1.45.34-.1.47-.38.51-.71.44-.1,1.09.18,1.11-.69.02-.87-.03-1-.84-1.22-.25-.72-.3-1.41-.09-2.18.15-.57.35-1.31-.27-1.84.06-.21.09-.43.33-.52.09-.02.17-.05.26-.07.19-.09.46-.16.47-.39.04-.92.32-1.86-.16-2.75-1.42-.94-2.9-1.63-4.66-1.04-.04.01-.09,0-.13,0-1.07-.11-2.02.18-2.87.83-.69.53-1.42.57-2.26.38-.89-.2-1.66-.89-2.65-.7-.17.03-.38-.06-.43-.24-.24-.81-.74-.89-1.44-.59-.25.11-.54.04-.74-.17-.27-.3-.62-.33-.98-.3-.59.05-1.13-.17-1.69-.28-1.05-.21-2.1-.37-3.16-.51-.3-.04-.7-.08-.91.08-.89.65-1.88.46-2.84.43-1.39-.04-2.55.64-3.77,1.1-.3.11-.82.2-.85.73-.28.07-.69,0-.71.4-.03.61-.26,1.27.19,1.83.96.86,2.27.81,3.39,1.26.45.18.68.35.91.8.32.65.33,1.14-.01,1.78-.37.69-.68,1.44-.84,2.22-.21.04-.43.07-.55.28-.42.07-.97-.18-1.23.26-.55.91-1.27,1.64-2,2.39-.3.31-.22.74-.19,1.13h0ZM170.79,190.98c-1.1-.1-1.96.03-2.83.25-1.04.27-1.97.79-2.93,1.24-1.52.71-2.58,1.83-3.05,3.45-.17.59-.34,1.19-.44,1.8-.26,1.52-.6,3.04-.11,4.58.08.25.04.55.4.59.3.03.5-.16.63-.41.31-.63.64-1.26.88-1.93,1.35-3.65,3.83-6.18,7.5-7.55.5-.18.96-.45,1.44-.69.28-.14.61-.28.53-.66-.08-.37-.38-.63-.75-.67-.48-.06-.97-.01-1.26-.01Z"/>
    <path class="cls-9" d="M196.68,225.95c.53,0,1.06-.02,1.58-.03.1.13.19.13.28,0,.36,0,.71-.01,1.07-.02,0,.44-.02.88-.03,1.32-4.44-.05-8.87.38-13.32.28-2.44-.06-4.88-.16-7.31-.32-4.19-.28-8.4-.54-12.56-1.26-2.01-.35-4.03-.58-6.06-.81-.71-.08-1.31-.44-1.83-.89.19-.52.63-.62.88-.92.23-.27.48-.31.81-.08,1.06.74,2.33.9,3.54,1.01,3.71.31,7.4.79,11.09,1.21,6.91.77,13.82.77,20.74.69.38.04.77.14,1.1-.17Z"/>
    <path class="cls-6" d="M157.15,209.64c.14,3.55.62,7.06,1.33,10.54.09.43.24.85.41,1.26.38.92.4.92-.37,1.48-.24.17-.43.46-.98.42-1.11-3.65-1.45-7.47-1.73-11.3.44-.39.24-.91.27-1.37.05-.93.04-.93,1.06-1.03Z"/>
    <path class="cls-2" d="M155.91,201.4c.42-3.32.67-6.66,1.5-9.91.27-1.08.88-1.76,2.04-2.1-1.05,4.01-1.76,7.97-2.07,12-.49-.24-.98-.3-1.46.01Z"/>
    <path class="cls-9" d="M155.91,201.4c.48-.31.97-.25,1.46-.01-.08,2.75-.15,5.5-.23,8.26-1.02.1-1.01.1-1.06,1.03-.03.47.17.99-.27,1.37-.36-.42-.23-.93-.24-1.4-.08-3.09-.06-6.17.34-9.25Z"/>
    <path class="cls-2" d="M199.59,227.22c0-.44.02-.88.03-1.32,1.68-.27,3.36-.54,5.05-.81l.03.04c-1.34,1.58-3.14,2.04-5.11,2.1Z"/>
    <path class="cls-2" d="M196.68,225.95c-.33.31-.72.21-1.1.17.33-.3.72-.21,1.1-.17Z"/>
    <path class="cls-2" d="M198.54,225.92c-.09.14-.18.14-.28,0,.09,0,.19,0,.28,0Z"/>
    <path class="cls-2" d="M204.66,225.08s.09-.07.14-.1c-.03.05-.07.09-.1.14,0,0-.03-.03-.03-.03Z"/>
    <path class="cls-1" d="M218.78,277.41c-2.06.19-4.1.14-6.09-.5-1.04-.73-2.24-1.22-3.18-2.13-1.24-1.21-2.17-2.56-2.67-4.22-.12-.38-.19-.78-.47-1.08-.34-2.29-.17-4.52.69-6.68.1-.15.21-.28.29-.44,1.69-3.3,4.46-5.03,8.06-5.54,2.42-.35,4.63.28,6.73,1.45.42.24.82.52,1.22.79.73.89,1.57,1.67,2.17,2.68,1.04,1.73,1.42,3.61,1.44,5.58-.14,1.73-.44,3.42-1.37,4.95-1.47,2.42-3.47,4.13-6.22,4.91-.21.06-.41.16-.61.24ZM225.81,267.05c.54-5.19-4.54-9.63-9.66-9.34-2.71.15-4.78,1.43-6.62,3.29-1.84,1.86-2.15,4.18-2.18,6.63-.05,4.86,4.35,8.85,9.27,8.87,4.15.01,9.72-3.52,9.19-9.44Z"/>
    <path class="cls-8" d="M250.53,199.25q1.12-.02,1.42,1.06c.18.65,1.18,1.47,1.89,1.57.52.07,1.04.25,1.56.25.9,0,1.75.13,2.7-.13,1.01-.28,2.33-.62,3.04.97.4.91,1.5.94,2.26.33.24-.19.53-.39.4-.76-.09-.27-.36-.39-.64-.38-.63.02-.91-.24-.79-.88,1.42.02,2.84.06,4.26.06.49,0,.75.15.73.68-.02.46.01.95-.65.9-.81-.06-1.26.14-1.19,1.08.06.86-1.38.18-1.29,1.16,0,.04,0,.09,0,.13.05.57-.22.76-.78.8-1.08.08-1.08.12-1.09,1.14,0,.27,0,.53,0,.8.04,1,.04,1.01,1.07,1.03,1.77.03,3.55.03,5.32.05-.05.12-.09.34-.16.35-1.06.11-1.77.93-2.69,1.32-.83.35-1.81.21-2.54.6-.69.37-1.08,1.27-1.89,1.61-.61.26-1.02.68-1.01,1.41,0,.54-.34.74-.84.84-.61.13-1.21.22-1.83.31-1,.13-1.98.37-2.89.79-.88.41-1.77.55-2.71.48-.42-.03-.79.09-1.08.41-.33.37-.79.49-1.22.37-.99-.26-1.99-.05-2.98-.17-.46-.05-.95.13-1.43.18-1.38.13-2.74-.12-4.08-.36-.44-.08-.86-.19-1.31-.17-.75.02-1.04-.37-.97-1.08,3.42,0,6.85,0,10.27,0,1.04,0,1.15-.14,1.15-1.14,0-.93-.06-1.01-1.1-1.02-2.05-.01-4.09,0-6.14,0-.35,0-.72,0-1.06-.07-.54-.11-.48-.56-.48-.96,0-.36-.02-.78.49-.77.9.01,1.19-.45,1.1-1.26-.08-.7.25-.98.92-.92.22.02.44,0,.67,0,.68.29.92.94,1.18,1.54.29.67.74.87,1.45.89.96.02,1.84-.2,2.72-.51.79-.28,1.18-1.06.84-1.81-.15-.32-.44-.59-.52-.92-.17-.67-.6-.8-1.19-.78-.84.02-1.69.03-2.53,0-.69-.03-1.3.08-1.82.56-.15-.58-.2-1.03.64-1.08,1.08-.07,1.09-.11,1.37-1.27.07-.28.12-.56.45-.54.92.06,1.01-.49.93-1.18-.09-.72.16-1.01.94-1.04.86-.03,1.09-.3,1.12-1.16.04-1.11,0-2.22-.01-3.32ZM256.62,213.92h0c.93,0,1.86-.03,2.8,0,.64.02.85-.25.86-.87.01-.68-.33-.82-.91-.81-.93.02-1.86.02-2.8,0-.33,0-.78.12-.86-.38-.07-.39-.09-.81.46-.94.27-.06.49-.2.57-.5.11-.42-.15-1.06.66-1.04.67.01.35-.99,1.04-1.03.64-.03.81-.86,1.52-.94.43-.05.35-2.68-.07-2.94-.14-.09-.34-.13-.5-.13-1.86,0-3.73-.02-5.59.02-.7.02-.81.27-.82,1.08,0,.62.31.74.83.73,1.02-.01,2.04,0,3.06,0,.26,0,.52,0,.63.34.22.69-.09,1.28-.81,1.46-.21.05-.58,0-.58.21.02,1.08-.75,1.2-1.53,1.38-.12.03-.21.27-.29.42-.15.28-.34.57-.65.63-.57.12-.66.49-.64.98.02.49.01.98-.02,1.46-.04.61.19.89.84.87.93-.03,1.86,0,2.8,0Z"/>
    <path class="cls-3" d="M250.53,199.25c0,1.11.05,2.22.01,3.32-.03.86-.26,1.13-1.12,1.16-.78.02-1.03.32-.94,1.04.08.69,0,1.25-.93,1.18-.33-.02-.39.26-.45.54-.28,1.16-.29,1.2-1.37,1.27-.84.05-.79.51-.64,1.08-.04.35-.08.69-.13,1.04-.22,0-.45.01-.67,0-.67-.05-1,.22-.92.92.09.81-.2,1.28-1.1,1.26-.51,0-.49.42-.49.77,0,.4-.06.85.48.96.34.07.71.07,1.06.07,2.05,0,4.09-.02,6.14,0,1.04,0,1.1.09,1.1,1.02,0,1-.11,1.13-1.15,1.14-3.42.01-6.85,0-10.27,0,0,0,0,0,0,0,0-1.23-.02-2.47-.03-3.7,0-.42.03-.85.6-.79.88.1,1.07-.36.99-1.1-.05-.52.13-.78.72-.83,1.03-.08,1.12-.29.94-1.57.02-.48.36-.54.73-.56,1.2,0,1.23,0,1.29-1.2.03-.6.19-.94.83-.9.54.03.77-.2.81-.77.08-1.03.12-1.03,1.11-1.15.26-.03.59.04.68-.27.15-.52.19-1.08-.02-1.57-.16-.37-.63-.23-.97-.23-2.48-.02-4.97-.02-7.45-.02,0,0,0,0,0,0-.02-.45-.05-.89-.07-1.34.02-.48.13-.83.75-.81.65.03,1.3-.02,1.96-.04,2.77.08,5.54.08,8.31.01.06.04.12.06.19.08Z"/>
    <path class="cls-8" d="M232.74,201.6c-.06-1.94.44-3.77,1.17-5.54.37-.89,1.06-1.59,1.85-2.05,2.17-1.26,4.49-2.11,7.07-1.99.18,0,.37,0,.53.04.33.11.72.19.8.61.11.51-.28.7-.65.87-.89.41-1.79.77-2.67,1.2-2.31,1.13-4.03,2.87-5.16,5.17-.55,1.11-1.03,2.26-1.55,3.38-.15.32-.31.71-.74.66-.49-.06-.59-.51-.64-.89-.05-.48-.01-.98-.01-1.46Z"/>
    <path class="cls-3" d="M268.76,209.12c-1.77-.02-3.55-.02-5.32-.05-1.04-.02-1.04-.03-1.07-1.03,0-.27,0-.53,0-.8.01-1.02.01-1.06,1.09-1.14.56-.04.83-.23.78-.8,0-.04,0-.09,0-.13-.09-.98,1.35-.3,1.29-1.16-.06-.94.39-1.14,1.19-1.08.66.05.63-.44.65-.9.02-.53-.25-.68-.73-.68-1.42,0-2.84-.04-4.26-.06-.02-2.12-.12-1.79,1.72-1.82,1.55-.02,3.1-.01,4.65,0,1.06,0,1.07.02,1.08,1.13,0,.27,0,.53,0,.8.02.55-.02.94-.74,1.16-.44.14-.78.72-1.38.8-.22.03-.28.32-.3.54-.02.35-.16.59-.53.65-.54-.08-.54.3-.56.66-.01.33-.07.64-.5.61-.89-.07-.53.6-.58.99-.06.54.31.65.76.65,1.27,0,2.55,0,3.82,0,.01.18.04.35.03.53q-.02.99-1.1,1.14Z"/>
    <path class="cls-8" d="M239.39,201.34c2.48,0,4.97,0,7.45.02.34,0,.81-.14.97.23.21.49.17,1.05.02,1.57-.09.31-.43.24-.68.27-.99.12-1.03.12-1.11,1.15-.04.57-.27.8-.81.77-.64-.03-.81.31-.83.9-.06,1.21-.09,1.21-1.29,1.2.33-.67.72-1.33-.12-1.93-.08-.06-.13-.25-.11-.37.21-1.11-.82-1.57-1.24-2.34-.14-.26-.5-.4-.81-.38-.83.07-1.18-.44-1.43-1.1Z"/>
    <path class="cls-8" d="M242.38,208.02c.18,1.29.09,1.5-.94,1.57-.6.05-.78.31-.72.83.08.74-.12,1.2-.99,1.1-.58-.06-.61.37-.6.79,0,1.23.02,2.47.03,3.7-1.04-.2-1.05-.2-1.08-1.11-.02-.71,0-1.41,0-2.12-.01-.72-.09-1.45.89-1.65.27-.06.35-.35.44-.61.29-.87.84-1.57,1.72-1.86.47-.15.74-.64,1.27-.65Z"/>
    <path class="cls-8" d="M250.34,199.17c-2.77.06-5.54.07-8.31-.01.37-.8,1.1-.97,1.85-1,1.45-.05,2.91-.02,4.37-.01.86,0,1.41.64,2.09,1.03Z"/>
    <path class="cls-8" d="M269.83,207.46c-1.27,0-2.55,0-3.82,0-.45,0-.82-.11-.76-.65.04-.39-.31-1.06.58-.99.43.04.49-.27.5-.61.01-.36.02-.74.56-.66,0,.39.23.64.49.88.13.12.25.3.39.33.72.13-.12,1.11.65,1.17.48.04.95.1,1.33.42.03.03.05.07.08.1Z"/>
    <path class="cls-8" d="M239.33,200c.02.45.05.89.07,1.34-.73-.42-.75-.79-.07-1.34Z"/>
    <path class="cls-8" d="M196.95,209.12c-.04.33-.17.61-.51.71-1.37.41-2.58,1.24-4.04,1.45-.67.09-1.18.59-1.55,1.18-.23.37-.36.82-.85.97-.19.06-.28.25-.26.43.09.78-.3,1.19-.86,1.72-.44.41-.77.72-1.36.79-.25.03-.48.21-.73.32-.79.33-1.57.83-2.47.28-.21-.13-.44-.02-.64.07-.88.41-1.83.26-2.74.35-2.96.3-5.92.22-8.89.27-.86.01-1.67-.19-2.49-.32-.65-.11-1.06-.59-1.22-1.25,3.06-.02,6.12-.03,9.19-.06,1.23,0,1.26-.08,1.24-1.27,0-.62-.23-.9-.86-.87-.49.02-.98,0-1.46,0-1.91,0-3.82-.02-5.73,0-.59,0-.78-.28-.75-.82.02-.47-.13-1.07.65-1.02.93.06,1.01-.5.95-1.19-.06-.65.17-.93.88-.97.88-.05.98-.17.87-1.09-.07-.62.1-.74.66-.83,1.08-.16,1.09-.2,1.29-1.42.06-.34.12-.65.53-.62.97.08,1.12-.5,1.06-1.26-.05-.62.21-.84.84-.89.96-.08.99-.16,1.03-1.14.02-.4.02-.8.01-1.2-.04-2.55.38-2.19-2.14-2.22-2.75-.03-5.5-.03-8.25-.04.04-.52.56-.62.85-.73,1.22-.45,2.38-1.13,3.77-1.1.95.02,1.95.21,2.84-.43.21-.15.61-.12.91-.08,1.06.14,2.12.3,3.16.51.56.11,1.1.33,1.69.28.36-.03.71,0,.98.3.19.22.49.28.74.17.7-.3,1.2-.22,1.44.59.05.19.27.27.43.24,1-.19,1.76.5,2.65.7.84.19,1.58.15,2.26-.38.85-.66,1.8-.94,2.87-.83.04,0,.09.01.13,0,1.76-.59,3.24.1,4.66,1.04-.49,0-.98.03-1.47.03-1.51,0-3.03,0-4.54.01-.3,0-.7-.09-.86.21-.21.4-.17.88-.06,1.31.12.48.57.33.9.34,1.02.02,2.05.04,3.07,0,.68-.03.82.28.8.88-.03.66-.28,1-.97.96-.53-.04-.86.15-.84.74.02.89-.75.51-1.16.72-.49.25.09,1.16-.73,1.23-.09,0-.18.02-.27.02-.64-.04-.86.3-.85.9.01.44-.03.89-.02,1.33.01.91.04.95,1,.96,1.73.02,3.47.03,5.2.04ZM184.87,213.95s0-.01,0-.02c.98,0,1.96-.02,2.94,0,.66.02.83-.3.82-.9,0-.58-.26-.79-.81-.78-1.02.01-2.05,0-3.07-.02-.34,0-.78.06-.81-.45-.02-.41-.19-.96.46-1.06.45-.07.6-.3.6-.71,0-.22,0-.49.26-.55,1.24-.29,1.53-1.94,2.92-2.05.16-.01.19-.28.19-.46.01-.49.03-.98.03-1.47-.01-1.07-.11-1.25-1.12-1.16-1.78.15-3.55.16-5.33.16-.68,0-.79.37-.8.93-.01.59.26.77.81.77.98-.01,1.96,0,2.94.02.29,0,.69-.08.75.35.07.43.23,1.14-.13,1.24-.8.22-1.31.54-1.44,1.38-.01.07-.22.16-.34.16-.61.03-1.03.23-1.04.94,0,.25-.23.33-.46.39-1.09.3-1.09.3-1.11,1.43,0,.36,0,.71,0,1.07-.03.56.23.8.79.79.98-.02,1.96,0,2.94,0Z"/>
    <path class="cls-3" d="M168.35,199.17c2.75.01,5.5,0,8.25.04,2.52.03,2.1-.33,2.14,2.22,0,.4,0,.8-.01,1.2-.04.98-.07,1.07-1.03,1.14-.63.05-.89.27-.84.89.06.76-.09,1.33-1.06,1.26-.4-.03-.47.28-.53.62-.2,1.22-.21,1.26-1.29,1.42-.56.08-.73.21-.66.83.11.92.02,1.04-.87,1.09-.71.04-.94.32-.88.97.06.69-.01,1.25-.95,1.19-.78-.05-.63.55-.65,1.02-.03.54.16.82.75.82,1.91-.01,3.82,0,5.73,0,.49,0,.98.03,1.46,0,.63-.03.85.24.86.87.02,1.19-.01,1.26-1.24,1.27-3.06.02-6.12.04-9.19.06-.35-.08-.78.09-1.04-.31,0-1.42,0-2.83.01-4.25,0,0,0,0,0,0,.22-.02.45-.06.66-.04.77.07,1.19-.2,1.13-1.04-.04-.63.3-.89.9-.83.61.06.78-.27.74-.81-.02-.35-.02-.71-.03-1.06.12-.21.34-.24.55-.28,1.22.04,1.26.04,1.29-1.13.02-.68.24-.99.93-.93.21.02.43.1.64-.06.17-.23.09-.51.11-.76.06-.99.05-1.05,1.01-1.09.95-.03.79-.35.84-1.26.04-.75-.34-.87-.97-.86-2.43.02-4.87.02-7.3.02-.45-.57-.22-1.22-.19-1.83.02-.4.43-.33.71-.4Z"/>
    <path class="cls-8" d="M170.79,190.98c.28,0,.78-.04,1.26.01.36.04.67.3.75.67.08.38-.25.52-.53.66-.48.24-.94.51-1.44.69-3.67,1.36-6.15,3.9-7.5,7.55-.25.67-.57,1.3-.88,1.93-.12.25-.32.44-.63.41-.35-.04-.32-.34-.4-.59-.49-1.54-.15-3.06.11-4.58.1-.61.27-1.21.44-1.8.48-1.62,1.53-2.75,3.05-3.45.96-.45,1.89-.97,2.93-1.24.87-.22,1.73-.35,2.83-.25Z"/>
    <path class="cls-3" d="M196.95,209.12c-1.73-.01-3.47-.01-5.2-.04-.96-.01-.98-.05-1-.96,0-.44.04-.89.02-1.33-.02-.6.2-.93.85-.9.09,0,.18-.01.27-.02.82-.08.24-.98.73-1.23.41-.21,1.18.17,1.16-.72-.01-.6.31-.78.84-.74.69.05.94-.3.97-.96.02-.6-.12-.91-.8-.88-1.02.04-2.05.03-3.07,0-.33,0-.77.14-.9-.34-.11-.43-.15-.91.06-1.31.16-.31.56-.21.86-.21,1.51,0,3.02,0,4.54-.01.49,0,.98-.02,1.47-.03.48.89.2,1.83.16,2.75,0,.23-.28.3-.47.39-.12-.1-.2-.03-.26.07-.24.09-.27.32-.33.52-.67.19-1.4.47-1.7,1.05-.35.68-.73,1.26-1.38,1.64-.41.24-.31.59-.29.93.03.43.38.43.69.43,1.02,0,2.03,0,3.05-.02.82.21.86.35.84,1.22-.02.87-.66.59-1.11.69Z"/>
    <path class="cls-8" d="M167.84,201.4c2.43,0,4.87,0,7.3-.02.63,0,1.01.11.97.86-.05.91.1,1.22-.84,1.26-.96.03-.96.1-1.01,1.09-.01.26.06.53-.11.76-.2.17-.43.08-.64.06-.69-.06-.92.24-.93.93-.03,1.17-.07,1.17-1.29,1.13.16-.79.47-1.53.84-2.22.34-.64.33-1.13.01-1.78-.22-.45-.46-.62-.91-.8-1.12-.45-2.43-.4-3.39-1.26Z"/>
    <path class="cls-8" d="M197.21,207.21c-1.02,0-2.03.02-3.05.02-.31,0-.66,0-.69-.43-.02-.34-.12-.69.29-.93.65-.38,1.03-.96,1.38-1.64.3-.58,1.03-.86,1.7-1.05.62.53.42,1.27.27,1.84-.21.78-.16,1.46.09,2.18Z"/>
    <path class="cls-8" d="M170.74,207.74c0,.35,0,.71.03,1.06.03.54-.14.86-.74.81-.6-.06-.95.2-.9.83.06.84-.36,1.11-1.13,1.04-.22-.02-.44.02-.66.04-.03-.39-.12-.82.19-1.13.72-.75,1.45-1.48,2-2.39.26-.43.81-.19,1.23-.26Z"/>
    <path class="cls-8" d="M167.33,211.52c0,1.42,0,2.83-.01,4.25-.28-.04-.52-.16-.53-.48-.01-1.1-.01-2.21,0-3.31,0-.33.25-.43.54-.45Z"/>
    <path class="cls-8" d="M197.18,202.66c.06-.1.14-.18.26-.07-.09.03-.17.05-.26.07Z"/>
    <path class="cls-9" d="M225.81,267.05c.53,5.91-5.04,9.45-9.19,9.44-4.92-.02-9.32-4-9.27-8.87.03-2.45.34-4.77,2.18-6.63,1.84-1.86,3.91-3.14,6.62-3.29,5.13-.29,10.2,4.15,9.66,9.34ZM220.96,273.02c.02-.77-.28-1.14-.94-1.14-.54,0-1.1.44-1.14.91-.05.59.53,1.21,1.13,1.22.62,0,.93-.32.95-.99ZM220.98,265.28c.03-.67-.35-1.1-1-1.12-.56-.02-1.07.48-1.1,1.09-.03.54.51,1.03,1.13,1.03.62,0,.93-.32.96-.99ZM223.14,268.14c.63,0,1.29-.55,1.28-1.08,0-.51-.48-1.01-1-1.04-.62-.04-1.16.52-1.15,1.17.01.58.35.94.87.95ZM213.29,273.99c.56-.03,1.04-.6.99-1.17-.05-.53-.54-.96-1.07-.94-.53.03-1.04.54-1.02,1.01.03.58.58,1.13,1.1,1.1ZM217.66,271.04c.03-.59-.45-1.2-.96-1.21-.57-.01-1.08.48-1.1,1.08-.02.64.31,1,.93,1.01.57.01,1.1-.4,1.13-.87ZM216.59,262.29c-.49,0-.98.53-.98,1.05,0,.59.51,1.08,1.11,1.06.56-.02,1.03-.49,1-1.01-.03-.54-.61-1.11-1.13-1.1ZM213.36,260.36c-.55,0-1.11.45-1.15.92-.04.48.63,1.19,1.09,1.16.52-.03,1-.53,1.01-1.06.02-.64-.34-1.02-.95-1.02ZM219.92,260.38c-.56.03-1.07.51-1.05.98.02.49.72,1.12,1.17,1.06.55-.07.99-.59.94-1.1-.05-.58-.5-.97-1.06-.94ZM213.28,264.17c-.54.03-1.1.64-1.05,1.15.05.51.6.98,1.09.94.52-.04.96-.54.94-1.07-.01-.55-.48-1.03-.99-1.01ZM211.01,267.1c.01-.47-.5-1.02-1.01-1.07-.51-.05-1.03.42-1.06.96-.04.6.45,1.14,1.04,1.14.51,0,1.01-.51,1.03-1.03ZM217.66,267.14c.01-.4-.56-1.03-1-1.08-.5-.06-1.03.51-1.03,1.12,0,.58.32.95.84.96.55.01,1.18-.52,1.2-1ZM216.6,275.62c.55-.01,1.11-.48,1.11-.93,0-.52-.6-.99-1.22-.96-.59.03-.88.36-.9.93-.02.62.36.97,1,.96ZM224.33,263.49c-.03-.58-.58-1.04-1.18-1-.6.05-.93.46-.88,1.08.05.57.38.86.97.83.61-.02,1.12-.45,1.09-.92ZM219.99,270.02c.64,0,.98-.33.98-.97,0-.57-.25-.91-.85-.95-.56-.03-1.15.37-1.19.81-.05.54.48,1.09,1.06,1.1ZM224.16,270.9c.03-.52-.45-1.09-.92-1.1-.46-.01-.92.52-.95,1.08-.02.58.29.97.81.99.51.02,1.02-.44,1.05-.97ZM214.29,269.07c0-.67-.33-.99-.98-.95-.65.03-.96.38-.92,1.03.03.59.33.89.93.89.65.01.99-.32.98-.97ZM216.64,258.57c-.47-.04-1,.48-1.01,1-.02.5.49,1.07.95,1.07.4,0,.94-.52.97-.93.03-.47-.47-1.1-.9-1.14ZM211.02,263.46c-.01-.47-.59-.98-1.07-.95-.53.03-1.05.55-.98,1.03.09.54.45.83.99.87.51.04,1.07-.48,1.06-.95ZM210.85,270.9c-.02-.56-.24-.91-.86-.92-.62-.01-1.03.41-1.02,1.08,0,.57.31.84.93.83.63-.01.95-.34.94-.99Z"/>
    <path class="cls-3" d="M256.62,213.92c-.93,0-1.86-.02-2.8,0-.64.02-.88-.26-.84-.87.03-.49.03-.98.02-1.46-.02-.49.07-.86.64-.98.31-.07.49-.35.65-.63.08-.15.17-.39.29-.42.77-.18,1.54-.29,1.53-1.38,0-.2.37-.16.58-.21.72-.17,1.03-.76.81-1.46-.11-.34-.37-.34-.63-.34-1.02-.01-2.04-.02-3.06,0-.52,0-.84-.11-.83-.73.01-.81.11-1.06.82-1.08,1.86-.04,3.73-.02,5.59-.02.17,0,.36.04.5.13.43.26.51,2.89.07,2.94-.72.09-.89.91-1.52.94-.7.04-.37,1.04-1.04,1.03-.81-.01-.55.63-.66,1.04-.08.29-.3.44-.57.5-.55.13-.53.55-.46.94.09.5.53.38.86.38.93.01,1.86.01,2.8,0,.58-.01.92.13.91.81-.01.61-.22.89-.86.87-.93-.03-1.86,0-2.8,0h0Z"/>
    <path class="cls-7" d="M244.97,209.88c.04-.35.08-.69.13-1.04.52-.48,1.13-.59,1.82-.56.84.04,1.68.02,2.53,0,.59-.01,1.02.12,1.19.78.08.33.38.6.52.92.34.75-.05,1.53-.84,1.81-.88.31-1.76.52-2.72.51-.71-.01-1.17-.22-1.45-.89-.26-.6-.5-1.25-1.18-1.54Z"/>
    <path class="cls-3" d="M184.87,213.95c-.98,0-1.96-.01-2.94,0-.57.01-.82-.23-.79-.79.02-.36,0-.71,0-1.07.02-1.12.01-1.13,1.11-1.43.23-.06.46-.14.46-.39,0-.7.43-.91,1.04-.94.12,0,.33-.09.34-.16.13-.84.64-1.16,1.44-1.38.35-.1.19-.81.13-1.24-.07-.43-.46-.34-.75-.35-.98-.02-1.96-.03-2.94-.02-.55,0-.82-.17-.81-.77.01-.57.12-.93.8-.93,1.78,0,3.55,0,5.33-.16,1.01-.09,1.11.1,1.12,1.16,0,.49-.02.98-.03,1.47,0,.18-.04.45-.19.46-1.38.11-1.67,1.75-2.92,2.05-.26.06-.26.34-.26.55,0,.41-.15.65-.6.71-.66.1-.49.65-.46,1.06.03.52.46.45.81.45,1.02.01,2.05.03,3.07.02.55,0,.8.2.81.78,0,.6-.16.92-.82.9-.98-.03-1.96,0-2.94,0,0,0,0,.01,0,.02Z"/>
    <path class="cls-1" d="M220.96,273.02c-.02.68-.33,1-.95.99-.6,0-1.18-.63-1.13-1.22.04-.47.59-.91,1.14-.91.66,0,.97.37.94,1.14Z"/>
    <path class="cls-1" d="M220.98,265.28c-.03.67-.34.99-.96.99-.62,0-1.16-.49-1.13-1.03.03-.61.54-1.11,1.1-1.09.64.02,1.02.45,1,1.12Z"/>
    <path class="cls-1" d="M223.14,268.14c-.52,0-.86-.37-.87-.95-.01-.66.53-1.21,1.15-1.17.52.03,1,.53,1,1.04,0,.53-.65,1.08-1.28,1.08Z"/>
    <path class="cls-1" d="M213.29,273.99c-.52.03-1.07-.52-1.1-1.1-.02-.47.49-.98,1.02-1.01.53-.03,1.03.41,1.07.94.05.57-.43,1.14-.99,1.17Z"/>
    <path class="cls-1" d="M217.66,271.04c-.03.48-.56.89-1.13.87-.62-.01-.95-.38-.93-1.01.02-.6.52-1.09,1.1-1.08.51.01.99.63.96,1.21Z"/>
    <path class="cls-1" d="M216.59,262.29c.52,0,1.1.57,1.13,1.1.03.51-.45.99-1,1.01-.6.02-1.11-.47-1.11-1.06,0-.52.49-1.05.98-1.05Z"/>
    <path class="cls-1" d="M213.36,260.36c.62,0,.98.38.95,1.02-.02.52-.5,1.03-1.01,1.06-.46.03-1.13-.68-1.09-1.16.04-.47.6-.92,1.15-.92Z"/>
    <path class="cls-1" d="M219.92,260.38c.56-.03,1.01.36,1.06.94.05.51-.4,1.02-.94,1.1-.45.06-1.14-.57-1.17-1.06-.02-.47.49-.95,1.05-.98Z"/>
    <path class="cls-1" d="M213.28,264.17c.51-.02.98.45.99,1.01.01.54-.42,1.03-.94,1.07-.5.04-1.04-.42-1.09-.94-.05-.5.51-1.12,1.05-1.15Z"/>
    <path class="cls-1" d="M211.01,267.1c-.01.52-.52,1.03-1.03,1.03-.59,0-1.08-.54-1.04-1.14.04-.54.56-1.02,1.06-.96.51.05,1.02.6,1.01,1.07Z"/>
    <path class="cls-1" d="M217.66,267.14c-.02.49-.65,1.01-1.2,1-.52-.01-.84-.39-.84-.96,0-.61.53-1.17,1.03-1.12.43.05,1.01.68,1,1.08Z"/>
    <path class="cls-1" d="M216.6,275.62c-.64.01-1.02-.34-1-.96.02-.57.31-.9.9-.93.62-.04,1.22.44,1.22.96,0,.45-.56.92-1.11.93Z"/>
    <path class="cls-1" d="M224.33,263.49c.03.47-.47.9-1.09.92-.59.02-.92-.26-.97-.83-.05-.62.28-1.04.88-1.08.6-.05,1.14.41,1.18,1Z"/>
    <path class="cls-1" d="M219.99,270.02c-.58,0-1.11-.56-1.06-1.1.04-.45.63-.85,1.19-.81.6.03.85.38.85.95,0,.64-.34.97-.98.97Z"/>
    <path class="cls-1" d="M224.16,270.9c-.04.53-.54.99-1.05.97-.52-.02-.83-.41-.81-.99.02-.57.48-1.09.95-1.08.47.01.95.59.92,1.1Z"/>
    <path class="cls-1" d="M214.29,269.07c0,.65-.33.98-.98.97-.59,0-.9-.31-.93-.89-.03-.65.27-1,.92-1.03.65-.03.98.28.98.95Z"/>
    <path class="cls-1" d="M216.64,258.57c.43.04.94.67.9,1.14-.03.41-.57.93-.97.93-.46,0-.96-.57-.95-1.07.02-.52.54-1.03,1.01-1Z"/>
    <path class="cls-1" d="M211.02,263.46c.01.47-.55.98-1.06.95-.54-.04-.9-.33-.99-.87-.08-.47.44-.99.98-1.03.48-.03,1.06.48,1.07.95Z"/>
    <path class="cls-1" d="M210.85,270.9c0,.64-.31.98-.94.99-.62.01-.92-.26-.93-.83,0-.67.4-1.09,1.02-1.08.61.01.84.37.86.92Z"/>
  </g>
</svg>