<?xml version="1.0" encoding="UTF-8"?>
<svg id="GRIFOS" xmlns="http://www.w3.org/2000/svg" viewBox="0 0 455.05 478.68">
  <defs>
    <style>
      .cls-1 {
        fill: #abb063;
      }

      .cls-1, .cls-2, .cls-3, .cls-4, .cls-5, .cls-6, .cls-7, .cls-8, .cls-9, .cls-10, .cls-11, .cls-12 {
        stroke-width: 0px;
      }

      .cls-2 {
        fill: #e78f3c;
      }

      .cls-3 {
        fill: #f1a196;
      }

      .cls-4 {
        fill: #f9ebd6;
      }

      .cls-5 {
        fill: #df6258;
      }

      .cls-6 {
        fill: #f4f1e8;
      }

      .cls-7 {
        fill: #f2ae32;
      }

      .cls-8 {
        fill: #e9c474;
      }

      .cls-9 {
        fill: #dc3431;
      }

      .cls-10 {
        fill: #e3c8a7;
      }

      .cls-11 {
        fill: #c0cfd6;
      }

      .cls-12 {
        fill: #1a1717;
      }
    </style>
  </defs>
  <g id="Expressions">
    <g id="E4">
      <path class="cls-4" d="M278.45,93.66c1.23,1.68,2.67,3.14,4.34,4.38,0,.83.01,1.66.02,2.49-.64,1.04-1.26,2.09-1.92,3.11-.94,1.43-1.07,2.83.09,4.21.37,1.58,1.39,2.1,2.97,2.01,1.86-.1,3.72.02,5.58-.04,1.26-.04,2.06.41,2.79,1.5,1.83,2.74,3.08,5.75,4.53,8.67,1.55,3.11,2.28,6.09,2.17,9.46-.03.8-.51,1.88.6,2.41.93-.27.21-1.79,1.5-1.72.48,1.45,1,2.89,1.45,4.36.22.72.4,1.41,1.32,1.47.08.17.11.35.09.53.24,1.12-.75,2.67,1.13,3.2.07.38.13.77.2,1.15-.32.26-.71.55-.61,1,.92,4.05,1.3,8.23,2.86,12.13.2,2.09.57,4.17.2,6.27-1.81.12-1.56,1.77-1.89,2.8-1.74,5.43-3.59,10.77-6.87,15.53-5.93,8.62-13.73,15.14-22.84,20.07-9.43,5.1-19.58,8.3-30.03,10.52-1.8.38-3.77.63-5.68.22,2.41-4.64,2.06-9.39.53-14.16-1.11-3.46-2.68-6.72-4.68-9.75-.88-1.34-.88-2.17.46-3.33,4.69-4.05,8.86-8.7,14.12-12.11,1.73-1.12,2.22-2.73,1.53-4.86-1.16-3.62-3.55-6.26-6.35-8.6-3.19-2.66-6.14-5.52-8.69-8.83-2.03-2.64-4.44-4.93-7.49-6.4-2.56-1.23-5.17-1.78-8.1-1.16-4.66,1-7.98,3.89-10.72,7.42-2.63,3.38-5.51,6.42-8.85,9.08-2.44,1.95-4.5,4.29-5.78,7.2-1.53,3.49-1.08,4.91,2.14,6.99,2.01,1.3,3.91,2.73,5.64,4.36,2.94,2.76,5.71,5.69,8.83,8.24-1.44,2.74-2.98,5.32-4.18,8.05-2.65,6.02-4.19,12.15-.61,18.41-1.86,0-3.71-.39-5.49-.75-9.74-1.96-19.19-4.93-28.19-9.19-6.4-3.03-12-7.27-17.26-11.95-4.84-4.31-8.72-9.34-11.4-15.3-1.74-3.88-2.85-7.96-4.35-11.91-.23-.62-.33-1.18-1.1-1.27-.13-1.48-.17-2.95.17-4.41.07-.05.19-.11.19-.16,0-.16-.06-.31-.09-.47l.08.04c.36-.22.59-.51.69-.94.58-2.58.81-5.18.63-7.81l-.03.05c.86-.46,1-1.43,1.06-2.14.44-5.3,2.79-10.08,4.38-15,2.6-8.03,6.51-15.58,11.58-22.41,3.86-5.21,7.93-10.25,13.04-14.38,4-3.23,7.84-6.65,12.38-9.14,5.18-2.85,10.63-5.09,16.2-7.01,2.16-.74,4.48-1.64,6.91-.87l-.04-.04c.13.25.26.51.39.76,1.54,3.25,3.15,6.47,5.3,9.38,2.28,3.08,4.84,5.89,8,8.09,2.84,1.98,4.38,1.52,5.59-1.69.62-1.63,1.12-3.31,1.8-4.92,1.95-4.63,3.8-9.33,7.71-12.78.72.05,1.45.03,2.16.15,5.93.96,11.64,2.74,17.12,5.11,4.72,2.05,9.41,4.24,13.49,7.5,3.05,2.44,6.17,4.79,9.26,7.18ZM266.56,147.08c.57.12,1.04-.04,1.39-.52,3.02-1.62,5.87-3.44,7.96-6.24,1.32-1.77,2.19-3.73,2.68-5.88.23-.98.22-1.86-.77-2.43-.95-.54-1.57.14-2.16.68-.53.49-.95,1.09-1.42,1.64-6.07,6.99-16.02,7.59-22.96,3.77-2.49-1.37-4.55-3.21-6.32-5.43-.49-.62-1.18-1.26-2.13-.66-.81.51-1.02,1.23-.81,2.14.57,2.56,1.63,4.87,3.31,6.92,2.8,3.42,6.45,5.38,10.63,6.53,2.3,1.06,5.66,1.1,8.2.11h-.05c.92.09,1.86.25,2.53-.65l-.06.02ZM173.42,152.71c-3.46,0-6.24.61-8.99,1.94-2.13,1.03-4.07,2.37-4.1,4.97-.03,2.55,2.02,3.84,4.01,4.66,6.51,2.68,12.95,2.67,19.43-.51,3.29-1.61,3.4-6.37.54-8.11-3.4-2.08-6.99-2.96-10.88-2.95ZM287.81,159.67c-.07-2.65-1.94-4.15-3.97-5.04-6.12-2.67-12.33-2.85-18.44.21-1.93.97-3.6,2.34-3.63,4.62-.04,2.45,1.75,3.82,3.78,4.83.28.14.55.29.84.39,5.31,1.75,10.66,2.08,16.02.3,1.67-.55,3.19-1.44,4.38-2.81.64-.74,1.09-1.49,1.02-2.51ZM187.98,147.81c8.33.07,15.36-4.64,17.84-11.91.27-.8.55-1.58.49-2.41-.1-1.49-1.48-2.13-2.65-1.2-.63.51-1.08,1.24-1.63,1.86-7.47,8.39-20.53,8.44-28.03.12-.55-.61-1.07-1.27-1.67-1.83-.52-.48-1.1-1.03-1.91-.5-.68.44-.95,1.09-.83,1.87.09.61.25,1.21.44,1.79,2.37,7.35,9.43,12.14,17.96,12.21ZM270.63,115.38c1.17-2.26,2.74-3.9,4.01-5.75.64-.93,1.38-1.82,1.86-2.83.77-1.62.13-2.75-1.63-2.7-2.57.08-5.16,0-7.71.52-.92.18-1.92.24-1.8,1.59.14,1.55,1.26,1.35,2.29,1.3,1.27-.06,2.55-.13,4.36-.22-1.38,1.89-2.41,3.28-3.41,4.69-.89,1.26-1.86,2.49-2.58,3.84-.89,1.68-.16,2.88,1.74,2.83,2.78-.07,5.56-.34,8.34-.54,1.02-.07,1.88-.43,1.82-1.63-.07-1.35-1.05-1.67-2.18-1.59-1.61.11-3.22.3-5.11.48Z"/>
      <path class="cls-12" d="M305.3,140.84c-.07-.38-.13-.77-.2-1.15-.04-1.19-.19-2.33-1.13-3.2.01-.18-.02-.36-.09-.53.18-.61.16-1.23-.02-1.82-1.44-4.71-2.86-9.42-4.82-13.94-1.54-3.56-3.11-7.1-4.81-10.99,2.05.43,2.98-1.66,4.77-1.32,4.71,9.47,8.3,19.35,10.8,29.62,1.92,7.86,3.24,15.81,3.11,23.95-.28,17.96-7.42,32.6-21.25,44.02-10.24,8.45-22.12,13.54-34.82,16.94-12,3.21-24.23,4.15-36.6,3.89-12.6-.27-24.88-2.35-36.81-6.4-12.42-4.22-23.55-10.57-32.65-20.16-9.99-10.53-15.02-23.12-15.36-37.57-.26-10.88,2.02-21.39,4.99-31.76,4.44-15.51,11.6-29.61,22.49-41.65,7.74-8.56,16.86-15.18,27.45-19.84,4.65-2.05,9.51-3.34,14.55-4.73-1.34-5.86-1.19-11.6.15-17.32.79-3.37,2.19-6.45,4.37-9.16,6.6-8.21,18.27-7.76,23.89,1.13,1.38,2.19,2.53,3.01,5.21,2.62,7.84-1.13,13.19,5.54,13.82,12.71.36,4.04.08,8.03-1.69,12.03,11.93,4.02,22.37,10.32,31.39,18.96-.79,1.46-3.11.39-3.61,2.24-1.71.45-2.36-1.07-3.3-1.89-7.92-6.88-16.86-11.87-26.9-14.93-4.63-1.41-8.52-.34-11.81,3.13-3.91,3.45-5.77,8.15-7.71,12.78-.68,1.61-1.18,3.28-1.8,4.92-1.21,3.21-2.75,3.67-5.59,1.69-3.16-2.21-5.72-5.01-8-8.09-2.16-2.91-3.76-6.13-5.3-9.38.08-.36-.03-.62-.39-.76,0,0,.04.04.04.04-.32-1.08-.62-2.18-.98-3.25-.88-2.66-1.02-2.75-3.64-2.06-16.92,4.5-30.36,14.15-40.97,27.88-8.91,11.53-14.52,24.65-18.04,38.7-.8,3.19-1.8,6.36-1.91,9.69,0,0,.03-.05.03-.05-.91,2.85-1.36,5.76-1.31,8.75,0,0-.08-.04-.08-.04-.07.05-.19.11-.19.16,0,.16.06.31.1.47-.34,1.46-.3,2.93-.17,4.41-.35,8.86,1.43,17.31,5.53,25.15,5.43,10.37,13.77,17.93,23.85,23.68,16.04,9.15,33.56,12.56,51.74,13.28,7.57.3,15.08-.59,22.57-1.68,14.42-2.11,27.9-6.67,39.94-15.02,11.44-7.93,19.49-18.34,22.58-32.15.93-4.14,1.49-8.33,1.05-12.59.37-2.1,0-4.18-.2-6.27-.37-4.44-.9-8.85-2.25-13.12ZM232.46,50.14c-.24-2.93-1.13-5.65-2.65-8.15-.48-.78-1.11-1.49-1.74-2.16-4.75-4.96-11.27-4.5-15.33,1.46-4.16,6.1-4.92,12.99-3.36,20.15.96,9.92,5,18.42,11.84,25.63.14.15.3.29.46.42,1.23.96,1.58.9,2.14-.64,1.45-3.99,3.05-7.89,5.36-11.49,3.57-5.56,7.9-9.85,15.1-9.79,1.18,0,1.98-.59,2.29-1.72,1.07-3.91,1.85-7.84.36-11.83-1.3-4.09-3.74-6.11-7.35-6.07-2.41.03-2.82.52-2.6,3.08.04.41.08.82.12,1.22-.18.54-.18,1.07,0,1.61-.25,1.08-.43,2.18-.78,3.22-.24.7-.88,1.18-1.66,1.06-.67-.1-.91-.71-1.05-1.34-.36-1.56-.28-3.23-1.12-4.67Z"/>
      <path class="cls-12" d="M311.43,71.93c-3.05-.1-5.71.09-8.38.33-2.87.26-4.1-.44-4.32-2.29-.24-2.02.84-2.87,3.95-3.11,4.43-.34,8.86-.71,13.29-1.02,1.44-.1,2.99-.3,3.88,1.24.95,1.64.48,3.19-.56,4.62-3.28,4.52-6.57,9.02-9.84,13.53-.46.64-1.2,1.16-1.03,2.37,2.33-.14,4.66-.27,6.99-.42,1.24-.08,2.48-.26,3.71-.24,1.9.04,2.73.84,2.87,2.53.13,1.62-.72,2.79-2.51,2.86-5.69.24-11.35.74-17.03,1.16-2.45.18-3.74-1.75-2.97-4.12.48-1.5,1.45-2.73,2.37-3.98,3.18-4.31,6.44-8.57,9.57-13.48Z"/>
      <path class="cls-12" d="M280.97,107.84c-1.16-1.38-1.03-2.77-.09-4.21.67-1.02,1.28-2.07,1.92-3.11.85-.66,1.67-1.34,1.79-2.52.46-.58.92-1.15,1.38-1.73,1.2-1.25,2.12-2.69,3.22-4.49-1.79.13-3.21-.21-4.54.58-1.24-.03-2.48-.15-3.71-.06-1.1.08-1.32-.78-1.69-1.38-.52-.84-.02-1.52.66-2.12.58-.5,1.2-.71,1.96-.75,3.4-.18,6.8-.44,10.2-.62,1.32-.07,2.84-.38,3.56,1.15.71,1.5-.05,2.79-.95,3.99-2.48,3.3-4.96,6.6-7.43,9.9-.18.24-.32.5-.66,1.04,2.74-.26,5.23-.62,7.73-.55,2.29.07,2.29.06,3.04,2.54-.45,1.01-1.21,1.75-2.32,1.7-4.72-.21-9.36,1.13-14.09.63Z"/>
      <path class="cls-6" d="M236.41,73.72c3.29-3.47,7.18-4.55,11.81-3.13,10.04,3.06,18.98,8.05,26.9,14.93.93.81,1.59,2.34,3.3,1.89-1.3,1.29-1.77,2.67-.47,4.24.49.59.5,1.3.5,2.02-3.09-2.39-6.21-4.74-9.26-7.18-4.08-3.26-8.77-5.45-13.49-7.5-5.48-2.38-11.19-4.15-17.12-5.11-.71-.11-1.44-.1-2.16-.15Z"/>
      <path class="cls-6" d="M280.97,107.84c4.73.5,9.37-.85,14.09-.63,1.11.05,1.87-.68,2.32-1.7.54.79,1.08,1.58,1.62,2.37-1.79-.34-2.72,1.75-4.77,1.32,1.7,3.89,3.27,7.43,4.81,10.99,1.96,4.52,3.39,9.24,4.82,13.94.18.6.2,1.21.02,1.82-.92-.07-1.1-.75-1.32-1.47-.45-1.46-.96-2.91-1.45-4.36-1.29-.07-.57,1.45-1.5,1.72-1.11-.53-.63-1.61-.6-2.41.11-3.36-.62-6.35-2.17-9.46-1.46-2.92-2.7-5.93-4.53-8.67-.73-1.09-1.54-1.54-2.79-1.5-1.86.05-3.73-.06-5.58.04-1.58.09-2.6-.43-2.97-2.01Z"/>
      <path class="cls-6" d="M284.66,92.37c1.32-.8,2.75-.45,4.54-.58-1.11,1.8-2.02,3.24-3.22,4.49-.58-1.25-1.07-2.54-1.32-3.91Z"/>
      <path class="cls-6" d="M284.6,98.01c-.12,1.18-.94,1.85-1.79,2.52,0-.83-.01-1.66-.02-2.49.6,0,1.21-.02,1.81-.03Z"/>
      <path class="cls-1" d="M292.26,100.47c-.32.04-.56-.1-.62-.41-.07-.34.17-.51.46-.58.37-.09.5.2.6.46.17.43-.2.43-.44.53Z"/>
      <path class="cls-10" d="M307.76,160.23c.44,4.26-.12,8.46-1.05,12.59-3.1,13.81-11.14,24.21-22.58,32.15-12.03,8.34-25.52,12.91-39.94,15.02-7.49,1.1-14.99,1.98-22.57,1.68-18.19-.72-35.71-4.12-51.74-13.28-10.08-5.75-18.42-13.31-23.85-23.68-4.1-7.84-5.88-16.28-5.53-25.15.77.08.86.65,1.1,1.27,1.5,3.95,2.61,8.04,4.35,11.91,2.67,5.97,6.55,11,11.4,15.3,5.26,4.68,10.86,8.92,17.26,11.95,9,4.26,18.45,7.22,28.19,9.19,1.77.36,3.62.75,5.49.75.24.18.52.33.73.54,4.12,4.28,9.38,4.2,13.58.78,1.53-1.24,2.19-.91,3.51.12,3.24,2.54,6.82,3.2,10.64,1.16,1.48-.79,2.58-1.99,3.72-3.17,1.91.42,3.88.17,5.68-.22,10.45-2.22,20.61-5.41,30.03-10.52,9.11-4.93,16.91-11.45,22.84-20.07,3.28-4.76,5.13-10.1,6.87-15.53.33-1.03.08-2.68,1.89-2.8Z"/>
      <path class="cls-12" d="M240.45,209.37c-1.14,1.18-2.24,2.38-3.72,3.17-3.82,2.04-7.4,1.39-10.64-1.16-1.32-1.03-1.98-1.36-3.51-.12-4.2,3.42-9.46,3.5-13.58-.78-.21-.21-.48-.36-.73-.54-3.59-6.26-2.04-12.39.61-18.41,1.2-2.73,2.75-5.31,4.18-8.05-3.12-2.54-5.89-5.48-8.83-8.24-1.73-1.63-3.63-3.06-5.64-4.36-3.23-2.08-3.67-3.5-2.14-6.99,1.27-2.91,3.34-5.25,5.78-7.2,3.34-2.67,6.22-5.7,8.85-9.08,2.74-3.53,6.06-6.42,10.72-7.42,2.92-.63,5.53-.08,8.1,1.16,3.05,1.47,5.47,3.76,7.49,6.4,2.54,3.31,5.5,6.17,8.69,8.83,2.8,2.34,5.19,4.98,6.35,8.6.69,2.13.2,3.74-1.53,4.86-5.26,3.4-9.43,8.05-14.12,12.11-1.34,1.16-1.35,1.99-.46,3.33,1.99,3.03,3.56,6.29,4.68,9.75,1.53,4.77,1.88,9.52-.53,14.16ZM229.34,169.64c.52-.06,1.07-.05,1.35-.62l-.1.06c.68-.12,1.42-.11,1.91-.73l-.06.05c.7-.07,1.44.01,1.93-.67l-.07.05c4.72-1.07,9.49-1.65,14.29-1.3.23-1.38-.43-2.09-.91-2.87-1.22-1.97-2.97-3.44-4.74-4.86-2.84-2.27-5.35-4.84-7.53-7.76-1.86-2.49-3.95-4.75-6.75-6.3-3.09-1.71-6.05-1.72-9.11.03-2.48,1.42-4.4,3.43-6.09,5.65-2.38,3.15-5.12,5.92-8.1,8.5-1.27,1.1-3.07,1.82-3.54,3.73h.03c-1.48.8-1.97,2.13-2.18,3.83h7.8c4.01.63,7.87,1.79,11.68,3.16.33.52.87.58,1.41.62l-.04-.03c2.53,1.82,5.07,1.75,7.6,0l-.06.04c.52-.05,1.02-.14,1.33-.64l-.06.05ZM236.2,194.4c.03-.62-.13-1.16-.65-1.55l.05-.16-.13-.11c0-.51-.14-.93-.61-1.19-.16-1.18-.95-2.05-1.52-3.02-1.35-2.29-1.41-2.35-3.78-1.3-3.41,1.52-6.78,1.7-10.21.15-.57-.25-1.13-.52-1.7-.77-.77-.33-1.44-.22-1.84.57-.88,1.74-2.3,3.2-2.7,5.18-1.12,1.39-1.71,3.04-2.15,4.73-.67,2.59-1.38,5.19-.6,7.89.7,2.42,1.94,4.48,4.6,4.85,2.58.36,4.87-.42,6.29-2.87,1.57-.96,1.49-3.05,2.81-4.24,1.63.76,1.37,2.76,2.63,3.65.11.37.26.7.73.66l-.11.02c1.36,2.56,3.68,3.08,6.24,2.69,2.72-.41,4.06-2.47,4.43-4.91.54-3.59.15-7.14-1.81-10.35l.03.06ZM204.24,170.2c4.84,4.28,8.61,8.79,13.6,12.02,4.03,2.6,7.97,3.09,12.15.44,5.27-3.34,9.4-7.9,14.14-12.54-4.94-.15-9.23.73-13.06,2.71-4.76,2.45-9.07,2.4-13.79-.06-3.76-1.96-7.94-2.9-13.05-2.57Z"/>
      <path class="cls-6" d="M142.12,145.88c.11-3.33,1.11-6.5,1.91-9.69,3.53-14.05,9.14-27.17,18.04-38.7,10.6-13.73,24.05-23.38,40.97-27.88,2.62-.7,2.76-.61,3.64,2.06.35,1.08.65,2.17.98,3.25-2.43-.77-4.75.12-6.91.87-5.56,1.92-11.02,4.16-16.2,7.01-4.54,2.5-8.38,5.91-12.38,9.14-5.1,4.13-9.17,9.18-13.04,14.38-5.07,6.83-8.98,14.38-11.58,22.41-1.59,4.93-3.94,9.7-4.38,15-.06.72-.2,1.68-1.06,2.14Z"/>
      <path class="cls-3" d="M173.42,152.71c3.9-.01,7.49.87,10.88,2.95,2.86,1.75,2.75,6.5-.54,8.11-6.48,3.18-12.92,3.19-19.43.51-1.99-.82-4.04-2.11-4.01-4.66.03-2.6,1.97-3.94,4.1-4.97,2.75-1.33,5.54-1.93,8.99-1.94Z"/>
      <path class="cls-3" d="M287.81,159.67c.07,1.02-.38,1.78-1.02,2.51-1.19,1.37-2.71,2.26-4.38,2.81-5.36,1.77-10.71,1.45-16.02-.3-.29-.1-.57-.25-.84-.39-2.03-1.02-3.82-2.39-3.78-4.83.03-2.28,1.71-3.66,3.63-4.62,6.11-3.06,12.32-2.88,18.44-.21,2.04.89,3.9,2.39,3.97,5.04Z"/>
      <path class="cls-12" d="M187.98,147.81c-8.53-.07-15.59-4.86-17.96-12.21-.19-.59-.35-1.19-.44-1.79-.12-.78.16-1.43.83-1.87.81-.53,1.39.02,1.91.5.61.56,1.12,1.21,1.67,1.83,7.5,8.32,20.56,8.26,28.03-.12.55-.62,1-1.35,1.63-1.86,1.17-.93,2.55-.29,2.65,1.2.06.83-.22,1.62-.49,2.41-2.48,7.27-9.51,11.98-17.84,11.91Z"/>
      <path class="cls-12" d="M255.95,147.6c-4.18-1.14-7.83-3.11-10.63-6.53-1.68-2.05-2.74-4.35-3.31-6.92-.2-.91,0-1.63.81-2.14.96-.6,1.64.04,2.13.66,1.77,2.22,3.83,4.06,6.32,5.43,6.94,3.83,16.89,3.23,22.96-3.77.47-.55.89-1.15,1.42-1.64.59-.54,1.22-1.22,2.16-.68.99.57,1,1.45.77,2.43-.5,2.14-1.36,4.11-2.68,5.88-2.09,2.8-4.95,4.62-7.96,6.24-.55-.07-1.05,0-1.39.52,0,0,.06-.02.06-.02-.9,0-1.8.02-2.53.66,0,0,.05-.01.05-.01-2.73-.04-5.46-.07-8.2-.11Z"/>
      <path class="cls-12" d="M270.63,115.38c1.9-.18,3.5-.37,5.11-.48,1.13-.08,2.12.24,2.18,1.59.06,1.2-.8,1.56-1.82,1.63-2.78.19-5.56.46-8.34.54-1.9.05-2.62-1.14-1.74-2.83.72-1.36,1.69-2.58,2.58-3.84,1-1.41,2.03-2.8,3.41-4.69-1.81.09-3.09.17-4.36.22-1.03.04-2.15.25-2.29-1.3-.12-1.36.88-1.41,1.8-1.59,2.55-.51,5.14-.44,7.71-.52,1.76-.06,2.4,1.08,1.63,2.7-.48,1.01-1.22,1.9-1.86,2.83-1.26,1.85-2.84,3.48-4.01,5.75Z"/>
      <path class="cls-6" d="M305.3,140.84c1.35,4.27,1.88,8.68,2.25,13.12-1.56-3.9-1.94-8.08-2.86-12.13-.1-.44.28-.74.61-1Z"/>
      <path class="cls-6" d="M140.84,154.57c-.04-2.99.4-5.9,1.31-8.75.19,2.64-.04,5.24-.63,7.81-.1.43-.33.72-.69.94Z"/>
      <path class="cls-11" d="M255.95,147.6c2.73.04,5.46.07,8.2.11-2.54.99-5.89.95-8.2-.11Z"/>
      <path class="cls-6" d="M303.98,136.49c.94.87,1.09,2.02,1.13,3.2-1.88-.54-.89-2.09-1.13-3.2Z"/>
      <path class="cls-11" d="M264.09,147.73c.73-.64,1.63-.66,2.53-.66-.67.89-1.61.74-2.53.66Z"/>
      <path class="cls-11" d="M266.56,147.08c.33-.51.83-.59,1.39-.52-.35.48-.82.64-1.39.52Z"/>
      <path class="cls-6" d="M207.61,74.87c.36.13.48.39.39.76-.13-.25-.26-.51-.39-.76Z"/>
      <path class="cls-10" d="M140.67,155.16c-.04-.16-.09-.31-.1-.47,0-.05.12-.11.19-.16.03.16.09.31.09.47,0,.05-.12.11-.19.16Z"/>
      <path class="cls-9" d="M246.9,52.02c1.5,3.99.71,7.92-.36,11.83-.31,1.13-1.1,1.72-2.29,1.72-7.19-.06-11.53,4.23-15.1,9.79-2.31,3.6-3.9,7.5-5.36,11.49-.56,1.54-.91,1.6-2.14.64-.16-.13-.32-.27-.46-.42-6.84-7.21-10.88-15.71-11.84-25.63-.02-2.57.08-5.13.67-7.65.9-3.87,2.5-7.33,5.46-10.14,2.43-2.31,7.85-3.21,11.12-.81,2.67,1.96,4.31,4.54,5.84,7.31.84,1.44.76,3.11,1.12,4.67.14.63.38,1.23,1.05,1.34.79.12,1.43-.37,1.66-1.06.36-1.04.53-2.14.78-3.22.35-.54.33-1.07,0-1.61-.04-.41-.08-.82-.12-1.23,3.55-.52,6.77.09,9.38,2.77.13.13.38.15.57.22Z"/>
      <path class="cls-5" d="M232.46,50.14c-1.53-2.77-3.17-5.35-5.84-7.31-3.27-2.39-8.68-1.5-11.12.81-2.96,2.81-4.56,6.27-5.46,10.14-.59,2.52-.69,5.08-.67,7.65-1.56-7.16-.79-14.05,3.36-20.15,4.06-5.95,10.58-6.41,15.33-1.46.64.67,1.27,1.38,1.74,2.16,1.52,2.5,2.41,5.22,2.65,8.15Z"/>
      <path class="cls-5" d="M246.9,52.02c-.19-.07-.44-.09-.57-.22-2.61-2.67-5.83-3.29-9.38-2.77-.22-2.56.19-3.05,2.6-3.08,3.61-.04,6.05,1.98,7.35,6.07Z"/>
      <path class="cls-5" d="M237.08,50.26c.32.54.35,1.08,0,1.61-.17-.54-.18-1.08,0-1.61Z"/>
      <path class="cls-7" d="M219.16,169.59c-3.81-1.38-7.67-2.54-11.68-3.16-.78-.94-1.86-.52-2.82-.61-1.15-.11-2.34.15-3.55-.25.28-1.09,1.14-1.89.75-2.97,0,0-.03,0-.03,0,.54.1.99-.09,1.45-.36,4.5-2.67,8.05-6.45,11.33-10.39,1.75-2.09,3.79-3.49,6.07-4.61,2.52-1.23,5.19-1.19,7.7.34,1.5.92,2.94,1.88,4.22,3.11,3.94,3.79,7.48,8,11.88,11.31.73.55,1.39,1.26,1.9,2.02.58.87.33,1.65-.82,1.73-1.44.1-2.91-.09-4.33.1-2.38.33-4.99-.06-6.91,1.92,0,0,.07-.05.07-.05-.73-.03-1.52-.24-1.93.67,0,0,.06-.05.06-.05-.74-.02-1.55-.23-1.91.73,0,0,.1-.06.09-.06-.59-.09-1.11-.04-1.35.62,0,0,.06-.05.06-.05-.56-.02-1.09,0-1.33.64,0,0,.06-.04.06-.04-2.53,0-5.07,0-7.6,0,0,0,.04.03.04.03-.28-.63-.84-.64-1.41-.62Z"/>
      <path class="cls-9" d="M226.69,206.22c-1.26-.9-1-2.89-2.63-3.65-1.32,1.19-1.23,3.28-2.81,4.24-5.82.8-8.62-1.63-8.72-7.59-.01-.72.03-1.44,0-2.15-.04-1.65.89-3.18.58-4.85.4-1.98,1.83-3.44,2.7-5.18.4-.79,1.07-.9,1.84-.57.57.24,1.13.51,1.7.77,3.43,1.54,6.8,1.37,10.21-.15,2.37-1.06,2.43-1,3.78,1.3.57.97,1.36,1.84,1.52,3.02.08.46.18.91.61,1.19l.13.11s-.05.16-.05.17c.01.6,0,1.22.65,1.55,0,0-.03-.06-.03-.06,0,1.74.03,3.48,0,5.23-.07,5.73-3.35,8.44-8.87,7.34,0,0,.11-.02.11-.02-.24-.22-.49-.44-.73-.66Z"/>
      <path class="cls-2" d="M204.24,170.2c5.11-.33,9.29.61,13.05,2.57,4.72,2.46,9.03,2.51,13.79.06,3.83-1.97,8.12-2.86,13.06-2.71-4.74,4.64-8.88,9.2-14.14,12.54-4.18,2.65-8.13,2.16-12.15-.44-4.99-3.23-8.76-7.74-13.6-12.02Z"/>
      <path class="cls-8" d="M234.3,167.78c1.93-1.98,4.54-1.59,6.91-1.92,1.42-.2,2.89,0,4.33-.1,1.16-.08,1.4-.86.82-1.73-.51-.76-1.17-1.47-1.9-2.02-4.4-3.31-7.95-7.51-11.88-11.31-1.28-1.23-2.72-2.19-4.22-3.11-2.51-1.54-5.19-1.58-7.7-.34-2.27,1.11-4.32,2.51-6.07,4.61-3.28,3.93-6.82,7.72-11.33,10.39-.47.28-.91.46-1.45.36.46-1.91,2.26-2.62,3.54-3.73,2.98-2.58,5.72-5.35,8.1-8.5,1.68-2.23,3.61-4.23,6.09-5.65,3.06-1.76,6.02-1.74,9.11-.03,2.8,1.55,4.88,3.82,6.75,6.3,2.18,2.92,4.69,5.48,7.53,7.76,1.77,1.42,3.52,2.89,4.74,4.86.48.78,1.14,1.49.91,2.87-4.8-.35-9.57.23-14.29,1.3Z"/>
      <path class="cls-5" d="M213.11,192.21c.31,1.68-.62,3.21-.58,4.85.02.72-.02,1.44,0,2.15.1,5.96,2.9,8.39,8.72,7.59-1.41,2.45-3.71,3.23-6.29,2.87-2.67-.37-3.91-2.43-4.6-4.85-.78-2.71-.07-5.31.6-7.89.44-1.69,1.03-3.34,2.15-4.73Z"/>
      <path class="cls-5" d="M227.31,206.9c5.52,1.1,8.8-1.61,8.87-7.34.02-1.74,0-3.48,0-5.23,1.96,3.21,2.35,6.76,1.81,10.35-.37,2.43-1.7,4.5-4.43,4.91-2.56.39-4.88-.13-6.24-2.69Z"/>
      <path class="cls-8" d="M201.86,162.61c.39,1.08-.47,1.87-.75,2.97,1.21.39,2.4.14,3.55.25.96.09,2.04-.34,2.82.61-2.55,0-5.09,0-7.8,0,.21-1.69.69-3.03,2.18-3.82Z"/>
      <path class="cls-8" d="M220.53,170.19c2.53,0,5.07,0,7.6,0-2.53,1.75-5.07,1.82-7.6,0Z"/>
      <path class="cls-8" d="M230.59,169.07c.37-.96,1.18-.74,1.91-.73-.5.61-1.23.6-1.91.73Z"/>
      <path class="cls-8" d="M232.45,168.39c.41-.91,1.2-.69,1.93-.67-.49.68-1.24.59-1.93.67Z"/>
      <path class="cls-8" d="M219.16,169.59c.57-.02,1.13-.02,1.41.62-.54-.04-1.08-.1-1.41-.62Z"/>
      <path class="cls-8" d="M228.07,170.23c.24-.63.77-.66,1.33-.64-.3.5-.8.59-1.33.64Z"/>
      <path class="cls-5" d="M235.47,192.57c-.43-.28-.52-.73-.61-1.19.47.26.62.69.61,1.19Z"/>
      <path class="cls-5" d="M236.2,194.4c-.65-.33-.64-.95-.65-1.55.52.39.68.93.65,1.55Z"/>
      <path class="cls-8" d="M229.34,169.64c.24-.66.76-.72,1.35-.62-.28.57-.83.57-1.35.62Z"/>
      <path class="cls-5" d="M226.69,206.22c.24.22.49.44.73.66-.48.03-.63-.29-.73-.66Z"/>
    </g>
  </g>
</svg>