<?xml version="1.0" encoding="UTF-8"?>
<svg id="Sprite_Alien" xmlns="http://www.w3.org/2000/svg" viewBox="0 0 471.47 423.94">
  <defs>
    <style>
      .cls-1 {
        fill: #152119;
      }

      .cls-1, .cls-2, .cls-3, .cls-4 {
        stroke-width: 0px;
      }

      .cls-2 {
        fill: #285234;
      }

      .cls-3 {
        fill: #71b054;
      }

      .cls-4 {
        fill: #040506;
      }
    </style>
  </defs>
  <g id="Faces_ALIEN">
    <g id="E1">
      <path class="cls-4" d="M243.6,172.05c.64-2.03,1.55-3.93,2.74-5.69.31.03.66-.04.91.09,1.13.6,1.83.17,2.43-.82.79-1.3,1.64-2.57,2.51-3.82.58-.82,1.16-1.54-.3-2.09-.5-.19-.34-.8-.41-1.24,1.14-1.8,2.51-3.38,4.17-4.71.26-.03.41-.18.46-.44,0,0,.02-.02.02-.02.26-.03.41-.18.44-.44,0,0,.03-.03.03-.03,1.7.07,3.32.43,4.93-.85,1.61-1.29,2.82-2.45,2.05-4.65,4.88-3.23,10.22-4.86,16.07-4.19,6.38.72,10.86,4.37,13.65,9.98,2.76,5.55,3.44,11.55,2.74,17.67-1.53,13.4-7.37,24.68-17.15,33.89-4.61,4.34-9.85,7.77-16.09,9.39-2.8.73-5.67,1.06-8.53.58-5.05-.86-8.75-3.69-11.21-8.17,0-.26-.11-.44-.35-.55,0,0-.04-.1-.04-.1-.07-.73.18-1.37.52-1.98.36-.65.4-1.28.16-2-1.07-3.22-1.65-6.54-1.66-9.94,0-1.52-.58-2.5-2.16-2.73.1-1.57.16-3.14.56-4.68.2-.13.24-.31.16-.53-.08-.14-.06-.26.05-.37.06-.04.15-.06.18-.12.09-.15.04-.27-.14-.34.04-.32.08-.64.13-.95.22-.16.28-.37.2-.62.04-.25.09-.51.13-.76.51-.36.49-.87.41-1.4,0,0,0,0,0,0q2.3.57,2.96-1.65c.09-.3.21-.58.3-.87.29-.88.68-1.74.83-2.64.19-1.19-1.51-.96-1.66-1.97-.01-.08-.04-.15-.06-.22ZM245.92,193.63c-.48.25-.46.58-.46.88-.07,3.7,1.08,7.04,3.38,9.88,1.19,1.48,2.41,3.13,4.35,3.75,2.62.84,5.34.87,8.03.39,5.91-1.05,10.4-4.67,14.59-8.58,3.68-3.43,6.51-7.59,9-12.01,1.88-3.34,3.31-6.8,4.24-10.49.13-.49.34-.99-.05-1.41-.48.07-.58.37-.74.63-2.96,4.71-6.01,9.31-10.36,12.96-4.58,3.84-9.46,6.98-15.44,8.06-4.27.76-8.45.6-12.47-1.31-1.53-.73-2.7-1.97-4.08-2.75ZM267.58,163.39c4.22-.38,7.72-2.13,9.81-5.73,1.71-2.94.45-5.63-2.86-6.26-3.86-.74-9.16,2.2-10.85,6.01-1.46,3.28.31,5.99,3.9,5.97ZM259.74,163.9c-1.6-.04-3.04,1.36-3.13,3.05-.07,1.4.81,2.46,2.09,2.51,1.58.06,3.27-1.57,3.33-3.22.05-1.31-.92-2.3-2.29-2.34Z"/>
      <path class="cls-4" d="M211.94,157.03c.8.64,1.37,1.46,1.84,2.36-1.8,1.61-1.82,1.69-.46,3.76.59.9,1.23,1.75,1.79,2.67,1.39,2.29,1.38,2.3,3.83,1.93,1.05,1.58,1.81,3.29,2.3,5.12-.1.44.06,1.17-.4,1.24-1.86.27-1.09,1.34-.86,2.34.87,3.72,2.32,7.31,2.25,11.25-.03,1.57.55,3.16.91,4.72.21.89.68,1.57,1.76,1.44.15,1.93-.21,3.8-.77,5.64-.04.14-.08.28-.12.42.02.52.02,1.04-.37,1.45-.13.1-.16.23-.1.39-.04.16-.08.32-.12.48-.36.14-.4.44-.36.77-.71,2.65-2.12,4.92-3.95,6.93-3.96,4.34-8.96,5.56-14.59,4.64-7.37-1.21-13.41-5.01-18.82-9.93-5.33-4.85-9.32-10.71-12.64-17.06-.57-1.09-.92-2.26-1.29-3.42.09-.28,0-.47-.27-.57-.45-1.07-1.03-2.1-1.04-3.31.07-.08.06-.16-.02-.22-.31-.5-.51-1.02-.45-1.63.06-.34.04-.65-.28-.86-.06-.36-.11-.71-.17-1.07,0,0-.02-.13-.02-.13-.19-.35-.34-.71-.28-1.13.53-.11,1.4.24,1.42-.61.02-.74-.77-.78-1.39-.8-.08,0-.15,0-.23,0-.86-3.54-1.03-7.11-.45-10.71.06-.04.15-.07.18-.12.09-.15.03-.27-.14-.34.03-.32.06-.64.1-.96.46-.37.39-.87.31-1.36-.08-1,.26-1.9.57-2.82.36-.23.42-.57.34-.95.08-.3.15-.61.23-.91.22-.08.28-.24.25-.46,2.33-7.26,8.69-12,16.25-12.16,4.18-.09,8.11.75,11.71,2.93-.44,2.42.78,3.87,2.83,4.84.41.2.85.41,1.17.72,1.73,1.71,3.75,2.36,6.13,1.83,0,0,.1.09.1.09.04.21.16.34.37.37,0,0,.09.09.09.09.03.21.16.34.37.37,0,0,.09.1.09.1.12.12.24.25.36.37,0,0,.1.11.1.11.12.12.24.24.35.36,0,0,.11.11.11.11.11.12.23.24.35.35h.12s0,.13,0,.13c.02.17.11.27.27.29.09.13.18.26.27.39.02.28.17.45.44.52ZM175.27,175.22c.49,3.45,1.43,6.78,2.94,9.91,1.95,4.04,4.38,7.76,7.33,11.21,4.24,4.98,9.08,9.05,15.18,11.47,3,1.19,6.22,1.43,9.34.66,5.12-1.25,7.11-5.37,8.32-9.94.4-1.52,1-3.18.19-4.95-5.48,4.7-11.67,5.44-18.22,3.75-7.96-2.06-14-7.05-19.15-13.23-2.27-2.73-4.15-5.73-5.93-8.88ZM190.71,151.28c-1.16.03-2.84.24-3.82,1.95-.97,1.7-.45,3.28.44,4.81.11.2.24.4.39.58,2.35,2.95,5.5,4.5,9.19,4.74,3.74.25,5.51-2.59,3.91-6.01-.29-.62-.65-1.25-1.1-1.76-2.24-2.51-4.94-4.16-8.99-4.32ZM202.58,166.02c-.04,1.77,1.49,3.46,3.11,3.42,1.22-.02,2.23-1,2.29-2.2.08-1.61-1.6-3.38-3.21-3.41-1.27-.02-2.16.86-2.19,2.18Z"/>
      <path class="cls-1" d="M231.31,248.3c-5.82-.19-12.02-2.83-17.15-7.91-1.82-1.8-3.57-3.68-4.96-5.84-.37-.58-.84-1.18-.5-1.93.46-1.01,1.28-1.23,2.32-.97,2.48.62,5,1.05,7.53,1.45,11.28,1.78,22.08.24,32.43-4.52,1.4-.65,2.74-1.44,4.09-2.2.71-.4,1.41-.71,2.13-.09.71.6.57,1.37.35,2.14-3.7,12.77-14.17,19.89-26.25,19.88ZM225.43,243.69c.23.57.72.73,1.27.87,4.79,1.3,9.48.91,14.09-.78.83-.3,1.83-.48,2.23-1.49,1.51-.25,2.77-.99,3.78-2.1,1.4-1.54,2.87-3.05,4.08-4.74,1.08-1.51,2.39-2.95,2.81-5.11-.78.35-1.35.58-1.89.86-3.6,1.83-7.37,3.24-11.35,3.97-2.73.5-5.49.82-8.24,1.19-4.59.63-9.07.22-13.6-.4-1.51-.21-3.04-1.04-4.62-.45-.05.83.46,1.14.83,1.5,2.63,2.54,5.65,4.56,8.79,6.39.57.33,1.2.27,1.81.29Z"/>
      <path class="cls-1" d="M224.91,193.86c-1.08.13-1.56-.56-1.76-1.44-.36-1.57-.94-3.15-.91-4.72.07-3.94-1.38-7.53-2.25-11.25-.23-.99-1-2.07.86-2.34.46-.07.3-.8.4-1.24,2.75,6.73,4.23,13.68,3.67,20.99Z"/>
      <path class="cls-1" d="M239.55,189.19c1.58.23,2.16,1.21,2.16,2.73,0,3.4.58,6.72,1.66,9.94.24.72.2,1.35-.16,2-.34.62-.59,1.26-.52,1.98-2.17-3.57-2.87-7.55-3.21-11.61-.14-1.67-.25-3.37.07-5.04Z"/>
      <path class="cls-2" d="M242.12,250.53c-2.72,5.74-11.57,5.79-15.51,1.48,5.45.94,10.52,1.14,15.51-1.48Z"/>
      <path class="cls-1" d="M208.53,153.37c-2.38.52-4.4-.13-6.13-1.83-.32-.31-.75-.53-1.17-.72-2.05-.97-3.27-2.42-2.83-4.84,3.89,1.77,7.23,4.28,10.13,7.4Z"/>
      <path class="cls-1" d="M218.94,167.75c-2.45.36-2.43.36-3.83-1.93-.56-.91-1.2-1.77-1.79-2.67-1.35-2.07-1.34-2.15.46-3.76,2.1,2.55,3.89,5.29,5.15,8.36Z"/>
      <path class="cls-1" d="M251.49,158.48c.07.44-.09,1.05.41,1.24,1.46.55.87,1.26.3,2.09-.87,1.25-1.72,2.52-2.51,3.82-.6.99-1.3,1.42-2.43.82-.25-.13-.6-.07-.91-.09,1.24-2.94,3.11-5.46,5.14-7.87Z"/>
      <path class="cls-2" d="M262.54,229.47q-1.6-4.68-6.65-7.35c2.56-.77,4.4-.47,5.8,1.05,1.63,1.77,1.8,3.79.85,6.3Z"/>
      <path class="cls-1" d="M263.6,147.34c.76,2.2-.44,3.37-2.05,4.65-1.61,1.28-3.24.92-4.93.85,2.01-2.24,4.34-4.08,6.99-5.51Z"/>
      <path class="cls-1" d="M243.6,172.05c.02.07.05.15.06.22.15,1.01,1.86.78,1.66,1.97-.15.9-.54,1.76-.83,2.64-.1.29-.21.58-.3.87q-.66,2.22-2.96,1.65c.31-2.61,1.3-5,2.37-7.36Z"/>
      <path class="cls-2" d="M204.43,235.75c-2.71-4.76-.56-8.46,5.04-8.48-3.56,1.85-4.96,4.58-5.04,8.48Z"/>
      <path class="cls-1" d="M169.06,173.83c.08,0,.15,0,.23,0,.61.02,1.4.07,1.39.8-.02.85-.89.5-1.42.61-.21-.45-.26-.93-.19-1.42Z"/>
      <path class="cls-1" d="M241.24,179.41c.09.53.11,1.04-.41,1.4-.09-.53.03-1,.41-1.4Z"/>
      <path class="cls-1" d="M169.05,160.34c.08.5.15.99-.31,1.36-.11-.5.01-.95.31-1.36Z"/>
      <path class="cls-1" d="M169.73,177.57c.31.22.34.53.28.86-.21-.25-.38-.51-.28-.86Z"/>
      <path class="cls-1" d="M223.06,203.01c-.04-.33,0-.62.36-.77.06.34,0,.62-.36.77Z"/>
      <path class="cls-1" d="M169.96,156.57c.08.39.02.72-.34.95-.09-.39.03-.7.34-.95Z"/>
      <path class="cls-1" d="M240.37,183.15c.17.08.23.2.14.34-.03.06-.12.08-.18.12.02-.15.03-.31.05-.46Z"/>
      <path class="cls-1" d="M242.74,205.94c.24.11.36.29.35.55-.25-.1-.39-.27-.35-.55Z"/>
      <polygon class="cls-1" points="169.54 176.38 169.56 176.51 169.44 176.41 169.54 176.38"/>
      <path class="cls-1" d="M223.54,201.76c-.06-.15-.02-.28.1-.39.01.1.04.2.03.3,0,.03-.09.06-.13.09Z"/>
      <path class="cls-1" d="M170.45,180.06c.08.07.09.14.02.22,0,0-.11-.11-.11-.11l.08-.11Z"/>
      <path class="cls-1" d="M240.27,183.98c.08.22.04.4-.16.53-.15-.24-.04-.4.16-.53Z"/>
      <path class="cls-1" d="M168.65,162.66c.17.07.23.19.14.34-.03.06-.12.08-.18.12.01-.15.02-.31.04-.46Z"/>
      <path class="cls-1" d="M240.7,181.57c.08.25.02.46-.2.62-.09-.26-.04-.47.2-.62Z"/>
      <path class="cls-1" d="M256.59,152.87c-.04.26-.18.41-.44.44.03-.27.17-.42.44-.44Z"/>
      <path class="cls-1" d="M209,153.83c-.21-.04-.34-.16-.37-.37.24,0,.37.13.37.37Z"/>
      <path class="cls-1" d="M211.94,157.03c-.27-.07-.42-.24-.44-.52.28.07.42.24.44.52Z"/>
      <path class="cls-1" d="M256.12,153.33c-.04.26-.2.41-.46.44.03-.27.18-.42.46-.44Z"/>
      <path class="cls-1" d="M211.23,156.12c-.17-.03-.26-.13-.27-.29.2,0,.28.1.27.29Z"/>
      <path class="cls-1" d="M210.83,155.69c-.12-.12-.23-.24-.35-.35.22.01.34.13.35.35Z"/>
      <path class="cls-2" d="M171.51,183.6c.28.1.37.29.27.57-.25-.12-.35-.3-.27-.57Z"/>
      <path class="cls-1" d="M170.44,155.2c.03.21-.03.38-.25.46-.11-.26.04-.37.25-.46Z"/>
      <path class="cls-1" d="M224.02,199.92c.04-.14.08-.28.12-.42.01.11.03.22.02.32,0,.04-.09.07-.14.1Z"/>
      <path class="cls-1" d="M209.47,154.3c-.21-.04-.34-.16-.37-.37.24,0,.37.13.37.37Z"/>
      <path class="cls-1" d="M209.92,154.76c-.12-.12-.24-.25-.36-.37.23.01.36.13.36.37Z"/>
      <path class="cls-1" d="M210.38,155.23c-.12-.12-.24-.24-.35-.36.23.01.34.14.35.36Z"/>
      <path class="cls-1" d="M245.92,193.63c1.38.78,2.55,2.02,4.08,2.75,4.02,1.92,8.2,2.08,12.47,1.31,5.98-1.07,10.86-4.21,15.44-8.06,4.35-3.65,7.4-8.25,10.36-12.96.16-.26.27-.56.74-.63.39.43.17.92.05,1.41-.93,3.69-2.36,7.15-4.24,10.49-2.49,4.42-5.32,8.58-9,12.01-4.19,3.9-8.68,7.52-14.59,8.58-2.69.48-5.41.45-8.03-.39-1.94-.62-3.16-2.28-4.35-3.75-2.3-2.84-3.45-6.18-3.38-9.88,0-.3-.02-.63.46-.88Z"/>
      <path class="cls-3" d="M267.58,163.39c-3.59.02-5.36-2.69-3.9-5.97,1.69-3.81,6.99-6.75,10.85-6.01,3.31.63,4.56,3.32,2.86,6.26-2.09,3.6-5.59,5.34-9.81,5.73Z"/>
      <path class="cls-3" d="M259.74,163.9c1.37.04,2.34,1.03,2.29,2.34-.06,1.65-1.74,3.28-3.33,3.22-1.28-.05-2.16-1.11-2.09-2.51.09-1.69,1.53-3.09,3.13-3.05Z"/>
      <path class="cls-1" d="M175.27,175.22c1.77,3.14,3.65,6.15,5.93,8.88,5.15,6.18,11.19,11.17,19.15,13.23,6.55,1.69,12.75.95,18.22-3.75.81,1.77.21,3.43-.19,4.95-1.2,4.57-3.2,8.69-8.32,9.94-3.12.77-6.34.53-9.34-.66-6.09-2.42-10.93-6.49-15.18-11.47-2.94-3.45-5.37-7.17-7.33-11.21-1.51-3.12-2.45-6.45-2.94-9.91Z"/>
      <path class="cls-3" d="M190.71,151.28c4.05.16,6.76,1.81,8.99,4.32.45.51.81,1.13,1.1,1.76,1.6,3.42-.17,6.25-3.91,6.01-3.69-.24-6.84-1.79-9.19-4.74-.14-.18-.27-.38-.39-.58-.88-1.54-1.41-3.12-.44-4.81.99-1.72,2.67-1.93,3.82-1.95Z"/>
      <path class="cls-3" d="M202.58,166.02c.03-1.32.92-2.2,2.19-2.18,1.61.03,3.28,1.8,3.21,3.41-.06,1.2-1.07,2.17-2.29,2.2-1.62.03-3.15-1.66-3.11-3.42Z"/>
      <path class="cls-2" d="M225.43,243.69c-.62-.02-1.24.04-1.81-.29-3.15-1.83-6.16-3.85-8.79-6.39-.37-.36-.88-.66-.83-1.5,1.58-.59,3.11.24,4.62.45,4.53.62,9,1.03,13.6.4,2.75-.38,5.51-.7,8.24-1.19,3.98-.73,7.74-2.14,11.35-3.97.54-.28,1.11-.51,1.89-.86-.41,2.16-1.73,3.6-2.81,5.11-1.21,1.69-2.68,3.2-4.08,4.74-1.01,1.11-2.27,1.86-3.78,2.1-2.19-1.15-4.39-2.2-6.95-2.28-4.03-.12-7.59.99-10.63,3.67Z"/>
      <path class="cls-3" d="M225.43,243.69c3.04-2.69,6.6-3.8,10.63-3.67,2.56.08,4.77,1.12,6.95,2.28-.39,1.01-1.4,1.19-2.23,1.49-4.61,1.69-9.3,2.08-14.09.78-.55-.15-1.04-.3-1.27-.87Z"/>
    </g>
  </g>
</svg>