<?xml version="1.0" encoding="UTF-8"?>
<svg id="Sprite_Alien" xmlns="http://www.w3.org/2000/svg" viewBox="0 0 471.47 423.94">
  <defs>
    <style>
      .cls-1 {
        fill: #92be5c;
      }

      .cls-1, .cls-2, .cls-3, .cls-4, .cls-5, .cls-6, .cls-7 {
        stroke-width: 0px;
      }

      .cls-2 {
        fill: #3f7341;
      }

      .cls-3 {
        fill: #425c3d;
      }

      .cls-4 {
        fill: #d6e29e;
      }

      .cls-5 {
        fill: #739c51;
      }

      .cls-6 {
        fill: #65864a;
      }

      .cls-7 {
        fill: #16191f;
      }
    </style>
  </defs>
  <g id="Wings">
    <g id="W2">
      <path class="cls-7" d="M210.87,211.52c-2.36-1.53-4.29-3.55-6.24-5.5-4.32-4.32-9.25-7.76-14.72-10.43-6.08-2.97-12.56-3.8-19.15-2.53-5.08.98-9.1,4.08-12.59,7.77-1.86,1.96-3.21,4.32-4.49,6.71-.67,1.24-.79,2.32-.13,3.62,1.53,3.05,1.68,6.1-.05,9.21-1.2,2.15-.17,4.28.54,6.31.67,1.92,2.14,3.97.16,5.65-1.67,1.4-3.88.77-5.9.21-3.82-1.05-6.48-3.56-8.61-6.73-1.21-1.8-2.19-3.74-3.77-5.32-1.39-1.39-1.96-3.3-2.09-5.28-.13-2.05-1.1-3.62-2.54-5.02-4.4-4.29-9.66-6.66-15.76-7.24-4.64-.44-9.21.19-13.79.78-1.31.17-2.46.75-3.53,1.45-4.29,2.84-8.43,5.85-11.79,9.84-2.21,2.63-4.05,5.24-3.57,8.96.23,1.82-.37,3.77-1.76,4.94-2.09,1.76-2.2,3.9-2.04,6.25.1,1.41.23,2.81.32,4.22.19,3.09-1.65,4.59-4.62,3.61-1.19-.39-2.31-1.12-3.33-1.87-.92-.68-1.73-1.54-2.49-2.41-3.9-4.49-6.9-14.9-5.26-20.57,1.22-4.23.66-8.13-.42-12.1-1.5-5.48-3.99-10.55-7-15.37-.93-1.5-1.99-2.34-4-2.38-3.08-.06-5.64-2.19-8.69-2.81-1.76-.36-1.5-2.65-1.91-4.06-1.33.06-1.44,1.01-1.75,1.61-1.03,1.97-2.67,3.07-4.73,3.64-2.62.73-5.07,1.81-7.36,3.27-1.58,1.01-2.67,2.21-2.95,4.23-.42,2.97-2.02,5.35-4.86,6.49-2.75,1.1-3.8,3.26-4.4,5.85-.26,1.12-.41,2.28-.7,3.39-.83,3.11-2.87,3.79-5.46,1.83-1.36-1.03-2.34-2.39-2.99-3.95-.89-2.15-1.38-4.39-1.59-6.72-.39-4.27,1.29-8.32,1.22-12.59-.03-1.73,1.25-3.38,2.48-4.7,3.99-4.31,6.41-9.58,9.07-14.7,10.23-19.71,22.71-37.89,37.24-54.67,3.41-3.94,7.37-7.13,12.05-9.44,19.9-9.79,39.98-19.17,60.62-27.34.48-.19.95-.5,1.44-.52,4.44-.18,5.21-4.1,7.04-6.9.58-.88-.03-1.72-.53-2.47-1.23-1.85-2.99-3.16-4.69-4.54-2.72-2.22-2.35-4.86,1.04-5.96,6.16-2,11.92-.99,17.07,3.04.71.55,1.39,1.17,1.96,1.85,1.63,1.96,3.37,3.53,5.84,4.66,3.55,1.63,5.05,5.18,4.81,8.99-.17,2.65.53,4.68,2.01,6.73,2.15,2.99,2.92,6.51,3.55,10.08,2.2,12.4,6.31,24.04,13.6,34.46,4.56,6.52,10.28,11.76,16.94,16.16.65-.88,1.19-1.77,1.89-2.5,1.9-1.99,4.27-1.82,5.87.41.59.83.99,1.8,1.53,2.67,1.63,2.63,3.88,4.49,6.97,5.02,6.57,1.13,10.51,5.07,12.12,11.37,1.63,6.36.09,12.18-4.61,16.58-2.9,2.71-4.42,5.74-5.46,9.35-2.32,8.05-4.16,16.17-4.54,24.56,0,.21-.23.41-.48.82ZM169.43,118.09c-.08-.48-.16-.97-.24-1.45-1.2-3.12-2.39-6.24-3.59-9.36-1.03-4.73-2.26-9.42-3.02-14.19-.63-3.92-2.18-7.35-4.56-10.38-1.07-1.36-1.38-2.61-1.2-4.19.17-1.52.34-3.07-.08-4.57-.36-1.31-1.41-2.31-2.56-2.62-1.23-.33-1.3,1.23-1.82,2.01-2.27,1.65-4.73,2.87-7.55,3.27-2.23,0-3.85-1.73-5.92-2.31-1.11,2.22,0,4.11.33,6.05-2.78-1.18-5.37-.54-8.03.58-5.41,2.27-10.76,4.7-16.22,6.83-11.44,4.47-22.34,10.09-33.44,15.26-.1.05-.15.21-.22.31-6.16,1.93-11.63,5.18-16.92,8.78-1.38.7-2.54,1.68-3.64,2.75-2.83,2.76-5.25,5.88-7.71,8.96-4.94,6.16-9.85,12.35-14.18,18.96-.76,1.02-1.58,2-2.28,3.06-6.61,10.05-12.58,20.47-17.98,31.23-1.73,3.44-3.65,6.75-6.36,9.54-.81.84-1.56,1.71-1.44,3.22,1.94.25,3.96.51,5.67,1.69.43,1.34.77,2.72,1.32,4.01.55,1.3,1.65,1.38,2.2.16.52-1.15,1.01-2.43,1.03-3.67.18-7.64,2.71-14.61,6.25-21.21,5.7-10.64,12.14-20.79,19.53-30.41,9.38-12.22,20.94-21.75,33.96-29.75,9-5.54,18.4-10.21,28.37-13.72,7.13-2.51,14.14-5.41,21.58-6.98,1.75-.37,3.5-1.06,5.01.55-4.03,6.11-8.92,11.53-13.68,17.05-7.35,8.53-14.99,16.79-22.73,24.97-3.21,3.4-7.12,6.3-8.79,10.97-1.35,2.15-1.88,4.56-2.24,7.03-.59.39-.64,1.04-.83,1.66-6.54,21.16-11.93,42.65-18.72,63.73-.69,2.16-1.54,4.34-1,6.82,1.5-.24,2.85-.46,4.21-.68,2.41.56,3.68,2.93,5.84,3.99,1.1-2.26,1.47-4.3.76-6.54-.34-1.07-.25-2.28-.28-3.43-.26-7.99,1-15.77,2.83-23.54,2.76-11.75,6.63-23.14,11.07-34.33,2.36-5.94,5.01-11.81,8.61-17.15,5.38-7.98,11.67-15.26,18.2-22.3,6.46-6.97,13.66-13.16,21.23-18.91,1.02-.77,2.05-1.56,3.18-2.15,1.11-.57,1.18.51,1.44,1.18-.7,3.64-1.31,7.3-2.12,10.92-1.85,8.27-4.49,16.28-8.01,24.01-.89,1.95-1.89,3.95-1.37,6.26,1.74,7.69,1.75,15.47,1.39,23.29-.1,2.19-1.13,4.23-.82,6.46-.1.22-.15.45-.16.69-.86.92-.69,2.04-.61,3.14-.31,2.38-.54,4.75.78,6.95.17,3.72,1.81,7.1,2.69,10.64,1.67,6.71,2.36,13.34,1.32,20.15-.22,1.45.27,2.8.51,4.18.24,1.38,1.12,1.64,2.23.87,1.21-.85,2.57-1.11,3.99-1.24,1.58,1.18,3.32,1.97,5.25,2.67.7-3.4-.74-5.8-2.64-7.96-1.12-1.28-2.16-2.54-2.55-4.23-2.47-10.86-4.86-21.71-4.68-32.97.14-8.59-.14-17.18.67-25.76.31-3.31.62-6.64,1.19-9.9,1.58-9.1,4.08-17.97,7.3-26.64.67-1.8,1.28-3.63,2.07-5.38.83-1.86,1.87-2,3.13-.51.58.68,1.06,1.45,1.54,2.21,5.47,8.67,9.03,18.12,11.03,28.12.73,3.67,1.79,7.18,3.16,10.65,2.49,6.33,6.54,10.76,13.35,12.75,6.17,1.8,11.84,4.81,16.99,8.8,3.25,2.52,5.89,5.71,9.3,8.05,3.07,2.11,4.84,2.23,7.52-.31,4.05-3.84,5.53-8.69,4.21-14.04-.83-3.36-2.41-6.59-6.58-7.14-2.46-.99-5.21-1.12-7.47-2.8-2.11-1.57-3.13-4.18-5.31-5.62-.91.82-1.27,1.69-1.19,2.58.23,2.34-1.16,1.6-2.34,1.33-8.75-4.84-15.83-11.48-21.76-19.53-2.39-3.25-4.52-6.63-6.67-10.02l.04.06c-.11-.62-.04-1.33-.81-1.61l.05.06ZM163.22,190.69l.07.08c3.3-.76,6.37-2.39,9.83-2.54,1.38.13,2.75.17,4.11-.17,4.22.07,8.29.86,12.17,2.56,2.32,1.02,4.64,2.01,6.96,3.01,3.87,2.56,7.38,5.6,11.24,8.86,1.45-7.94,2.77-15.2,5.84-22.37-2.99-.22-4.79-1.76-6.74-3.27-3.17-2.46-5.75-5.49-8.79-8.06-4.7-3.98-10.38-6.01-16.05-8.1-3.47-1.28-7.2-2.15-9.58-5.36-2.52-3.41-4.77-6.96-6.05-11.06-2.63-8.42-4.32-17.13-7.54-25.38-1.33-3.41-3.01-6.57-5.31-9.72-.47.9-.79,1.45-1.05,2.03-5.91,13.28-8.57,27.28-9.25,41.72-.09,1.92.03,3.83-.26,5.76-.92,6.12-1.03,12.37-.24,18.42.83,6.34.95,12.75,2.09,19.04.67,3.69,1.2,7.49,3.68,10.66,1.13-.88,1.14-2.02,1.69-2.86,2.99-3.77,5.9-7.61,9.38-10.96,1.14-.2,2.17-.63,3-1.47.4-.14.74-.34.78-.82ZM143.71,218.61c-1.08.3-2.54.36-1.8,2.12,1.48,3.48,3.64,6.3,7.74,7.73-.67-1.15-1.12-1.91-1.56-2.68.55-.93.41-1.97.42-2.98.01-3.94-.48-4.36-4.79-4.19ZM74.16,233.98c.25-1.35.48-2.7.74-4.04.59-2.98-.28-4.24-3.65-5.22-1.26.06-2.12.5-2.34,1.93-.49,3.24,2.41,8.96,5.58,10.73-.12-1.17-.23-2.28-.34-3.39ZM150.57,71.33c.27-.6.4-1.26.12-1.84-2.2-4.49-5.83-7.23-10.65-8.37-1.32-.31-2.13-.05-3.78.67,2.36,2.94,4.83,5.81,4.71,9.96-.03.97.81,1.57,1.8,1.6,1.13.04,2.26-.06,3.39-.11,1.89.33,3.37-.28,4.41-1.92ZM130.15,136.61c.35-.53.76-1.02,1.03-1.58,3.76-7.75,6.81-15.75,8.73-24.16.57-2.5,1.37-4.99,1.42-7.86-5.86,3.72-10.7,8.16-15.28,12.75-5.86,5.89-11.45,12.11-16.57,18.68-1.89,2.42-4.3,4.45-5.74,7.2-2.97,5.67-6.45,11.05-8.9,17.04-1.99,4.88-3.54,9.9-5.44,14.79-4.68,12-7.73,24.38-8.77,37.24-.09,1.08-.25,2.22.38,3.76,1.29-1.68,2.35-3.06,3.41-4.44.95-.86,1.87-1.75,2.85-2.57,5.14-4.32,10.44-8.07,17.51-8.84,9.93-1.08,19.2,0,27.34,6.29,1.26.98,2.48,2.01,3.92,3.19.61-7.59-.81-14.53-3.2-21.13-2.14-5.94-3.44-11.72-1.91-17.93,1.69-6.22,1.77-12.52,1-18.86-.55-4.53-1.18-9.04-1.78-13.56ZM80.64,165.25c.53-.44.59-1.09.8-1.69,2.08-5.75,3.15-11.79,5.11-17.6,1.39-4.12,3.12-7.79,6.44-10.65.87-.75,1.57-1.68,2.34-2.53,2.59-1.93,4.73-4.34,6.84-6.73,6.01-6.83,11.88-13.79,18.22-20.32,2.42-2.49,4.65-5.13,6.61-7.99.88-1.29,2.59-2.09,2.69-3.88-.78-.49-1.37-.26-2-.09-11.94,3.17-23.27,7.89-34.52,12.93-10.08,4.51-18.06,12.16-27.53,17.54-.43.25-.76.69-1.13,1.04-5.77,5.49-11.31,11.2-16.08,17.6-3.13,4.2-6.71,8.09-8.92,12.93-6.85,8.34-14.88,24.89-14.78,30.68,1.66-.85,3.24-1.66,4.82-2.46,3.89-1.14,7.43-2.72,9.12-6.83.23-.57.7-1.1,1.18-1.5,1.15-.95,2.19-2.6,3.89-1.93,1.5.59,1.31,2.33,1.44,3.72.01.13.02.26.03.38.12,2.23.97,3.64,3.34,4.47,2.04.71,3.98,1.65,6.16,1.95,1.75.24,2.97,1.2,4.08,2.59,4.16,5.2,7.03,10.99,8.53,17.47.25,1.08.24,2.27,1.42,3.06,1.52-3.88,2.46-7.86,3.59-11.79,2.9-10.09,5.91-20.15,8.32-30.37ZM10.82,206.58c.95-3.84,1.89-6.72,4.15-8.97,1.09-1.09.96-2.23-.18-3.32-2.41-2.31-4.47-1.8-5.2,1.47-.77,3.43-.62,6.83,1.23,10.82Z"/>
      <path class="cls-7" d="M268.79,143.24c4.52-2.81,8.56-6.08,12.1-10.04,9.77-10.96,15.5-23.83,18.05-38.16.94-5.25,2.26-10.28,5.44-14.66.73-1,.81-2.04.74-3.25-.38-6.49,1.11-8.88,7.24-11.42,1.13-.47,1.44-1.39,2.05-2.14,4.18-5.15,9.46-7.75,16.18-7.17,2.08.18,4.08.64,5.8,1.85,1.71,1.21,1.85,2.74.31,4.17-1.5,1.4-3.26,2.52-4.73,3.95-2.19,2.13-2.16,2.57-.49,5.1.07.11.2.2.22.31.45,4.02,3.79,4.49,6.71,5.62,20.93,8.13,41.19,17.76,61.37,27.56,5.94,2.88,10.43,7.4,14.54,12.41,15.15,18.44,28.21,38.23,38.62,59.73.9,1.86,2.05,3.52,3.54,5,2.72,2.69,4.68,5.73,4.24,9.89-.14,1.33.54,2.73.8,4.11.92,4.87.19,9.44-2.58,13.62-.65.98-1.38,1.86-2.39,2.47-2.23,1.34-3.84.7-4.63-1.88-.3-.98-.5-1.99-.72-3-.63-2.98-1.64-5.52-4.95-6.69-3.09-1.09-4.37-3.94-4.83-6.95-.29-1.91-1.22-2.94-2.81-3.75-2.17-1.11-4.25-2.46-6.61-3.09-3.12-.83-5.72-2.16-6.58-5.63-.98.76-.97,1.74-1.31,2.55-.48,1.14-1.34,2.09-2.54,2.11-4.08.09-7.79,2.7-12.41,1.28.42,4.71-1.54,8.3-3.28,12.02-1.13,2.42-1.98,4.99-2.68,7.6-1.04,3.89-1.72,7.6-.08,11.61,1.07,2.6.92,5.54-.39,8.26-.61,1.27-.75,2.7-.98,4.1-.85,5.14-3.72,8.92-8.14,11.55-.65.39-1.37.73-2.11.89-2.94.63-4.58-.82-4.05-3.75.3-1.66.39-3.31.43-4.98.04-2.05.08-3.91-1.94-5.47-1.62-1.25-2.16-3.51-1.92-5.64.26-2.37-.7-4.24-1.93-6.08-3.15-4.69-7.23-8.46-12.24-10.93-3.61-1.78-6.83-3.52-7.53-7.89-.47.22-.83.27-.88.43-1.2,3.51-3.73,4.38-7.22,4.1-7.21-.59-13.31,2.07-18.56,6.92-1.45,1.34-2.57,2.77-2.72,4.89-.19,2.63-1.15,4.98-3.21,6.8-1.19,1.05-1.57,2.63-2.4,3.92-2.88,4.43-6.69,7.46-12.22,7.57-3.59.07-4.72-1.75-2.89-4.88,1.75-2.99,2.41-5.77.52-8.98-1.24-2.11-1.11-4.6.03-6.67,1.34-2.44.62-4.43-.58-6.48-7.7-13.09-20.25-16.6-34.17-10.93-6.89,2.81-12.62,7.35-17.82,12.6-1.4,1.41-2.73,2.95-4.79,4.25-.62-4.89-1.13-9.31-1.74-13.71-.59-4.21-1.76-8.28-3.03-12.33-1.01-3.22-2.49-5.91-5.04-8.38-7.17-6.93-7.48-17.82-1.18-24.69,1.89-2.06,4.17-3.59,6.93-3.81,4.21-.33,6.78-2.73,8.79-6.07.26-.44.43-.94.71-1.37,1.95-3,4.56-3.06,6.78-.18.38.5.69,1.05,1.19,1.8ZM315.91,70.03c.02.25.03.51.05.76.48,2.15,1.91,2.72,3.91,2.33,1.27.07,2.54.18,3.82.19.83,0,1.59-.35,1.59-1.29-.02-3.77,2.27-6.64,3.75-9.82.62-.07,1.19-.22,1.56-.79-6.98-1.02-11.72,1.72-14.63,8.43-.22-.12-.32-.05-.26.22,0,0,.14,0,.22-.02ZM318.52,225.99c-.33.59-1.09,1-.75,2.01,2.63-1.46,4.77-3.32,6.14-5.99q1.23-2.4-1.71-3.38c-3.38.18-3.62.37-3.69,3.17-.03,1.39,0,2.79.01,4.18ZM452.77,193.75c-2.41,1.01-3.12,2.16-1.88,3.68,1.15,1.41,2.06,3.13,3.82,3.98.27,1.25.55,2.49.98,4.44,1.68-4.08,1.78-7.43.7-10.82-.67-2.1-.95-2.17-3.61-1.28ZM302.89,190.66c.29.71,1.02.78,1.57,1.1.77,1.02,1.94,1.45,3.02,2.01,3.34,2.45,5.89,5.57,7.9,9.16.06.42.31.66.72.72h.04c.44,1.12.62,2.46,2.03,2.87,1.21-.99,1.43-2.28,1.86-3.48,2.58-7.2,3.33-14.79,3.55-22.28.38-13.31.79-26.65-1.2-39.95-1.63-10.94-4.03-21.55-9.2-31.77-2.75,4.17-4.86,8.36-6.47,12.81-2.22,6.16-3.77,12.5-5.39,18.83-1.28,5.01-3.3,9.68-6.53,13.81-3.05,3.9-7.44,5.4-11.82,6.82-6.86,2.22-12.77,5.75-17.84,10.94-2.74,2.81-5.64,5.62-9.4,7.22-2.63,1.12-2.64,1.23-1.57,3.92,1.13,2.86,2.04,5.76,2.66,8.81.65,3.21,1.15,6.45,1.8,10.07,4.13-2.8,7.76-5.53,11.14-8.61,1.46-.08,2.59-.98,3.85-1.56,4.88-2.23,9.86-4.06,15.33-3.97,1.37.23,2.73.23,4.1.03,3.48.1,6.64,1.43,9.87,2.5v-.03ZM392.67,237.13c4.18-2.24,4.55-6.43,5.12-10.39.25-1.75-1.46-2.58-3.19-1.88-2.09.85-3.22,2.61-2.64,4.84.63,2.4.67,4.76.44,7.17-.3.11-.44.33-.26.51.18.18.41.05.54-.24ZM299.05,113.41c-.67.32-.71.99-.89,1.59-1.05,1.16-1.6,2.55-1.96,4.04-3.1,6.21-7.19,11.76-11.72,16.98-4.9,5.66-10.81,10.08-17.35,13.67l-1.18.02c-.55-1.48-.28-3.25-1.69-4.73-1.6,1.92-3.09,3.72-4.58,5.51-1.88,1.21-3.82,2.24-6.11,2.42-.42-.04-.74.13-.96.48-.21.06-.42.13-.63.2-2.06-.26-3.46.96-4.6,2.34-5.02,6.09-3.17,13.59,1.38,18.53,2.73,2.97,5.27,2.8,8.48.31.81-.63,1.49-1.42,2.27-2.09,2.74-2.32,5.44-4.68,8.25-6.91,5-3.99,10.89-6.26,16.85-8.3,5.08-1.74,8.36-5.23,10.68-9.9,2.48-4.99,4-10.31,5.09-15.69,1.63-8.03,4.71-15.43,8.54-22.58.9-1.69,1.92-3.34,3.26-4.75.99-1.04,1.88-1.36,2.63.24.65,1.4,1.33,2.78,1.96,4.18,2.21,4.94,3.41,10.21,5.03,15.34,2.24,7.1,3.57,14.43,4.16,21.83.54,6.77-.07,13.6.77,20.38.41,3.32-.52,6.65-.52,9.96.02,7.49-1,14.83-2.56,22.09-1.07,5-2.24,10.02-5.98,13.97-1.22,1.29-1.79,3-1.18,5.08,2.05-.84,3.92-1.61,5.79-2.38,1.88-.22,3.21,1.46,4.97,1.59,1.52-2.17,1.29-4.52,1.16-6.81-.49-9.2.62-18.21,3.76-26.87,1.59-4.38,2-8.66.93-13.18-.59-2.48-.98-5.04-1.23-7.58-.69-7.18-.2-14.33,1.14-21.4.42-2.24.51-4.27-.5-6.33-.84-1.73-1.59-3.5-2.37-5.26-4.57-10.26-6.61-21.22-8.75-32.14,1.51.04,2.63.9,3.75,1.79,3.42,2.71,6.96,5.27,10.25,8.12,3.98,3.44,7.89,6.98,11.56,10.74,3.31,3.39,6.34,7.06,9.31,10.76,3.61,4.49,7.43,8.82,10.31,13.88,2.54,4.46,4.76,9.07,6.81,13.77,4.77,10.95,8.56,22.25,11.76,33.75.85,3.08,1.38,6.25,1.96,9.39,1.22,6.56,2.27,13.12.89,19.82-.47,2.3.24,4.46,1.28,7.16.99-1.48,2.03-2.24,1.67-3.73,2.66-.51,5.32-1.9,7.94.22.73-1.63.11-2.82-.26-4.02-.76-2.44-1.63-4.86-2.34-7.32-4.11-14.41-8.14-28.84-12.27-43.24-2.01-7.01-4.19-13.97-6.29-20.96-.11-1.43-.82-2.63-1.52-3.83-1.13-2.6-2.84-4.78-4.84-6.76-7.28-7.21-14.04-14.91-20.99-22.44-7.04-7.63-13.46-15.75-19.68-24.06,1.45-1.41,3.09-.82,4.68-.38,4.2,1.15,8.39,2.31,12.58,3.51,9.28,2.67,18.07,6.55,26.63,10.95,7.88,4.06,15.26,8.94,22.6,13.91,4.39,2.97,8.53,6.15,12.07,10.08,1.2,1.33,2.27,2.78,3.48,4.11,10.8,11.8,19.69,24.9,27.04,39.1,3.42,6.6,5.74,13.4,5.98,20.85.06,1.88.93,3.12,3.15,4.09-.45-1.95.92-3.28.72-5.01,1.99-.75,3.94-1.62,6.03-1.87.12-1.7-.78-2.7-1.69-3.55-2.59-2.43-4.2-5.46-5.78-8.56-5.29-10.41-10.85-20.68-17.33-30.41-7.26-10.9-14.85-21.57-23.8-31.18-2.45-2.63-5.23-4.79-8.43-6.59-5.17-2.9-10.58-5.2-15.93-7.69-15.78-7.36-31.5-14.84-47.86-20.87-1.54-.57-3.03-1.46-4.79-1.17-.96-.27-1.66.36-2.45.68-.16-1.7,1.06-3.15.84-4.87-.2-1.6-.93-2.06-2.16-1.07-1.45,1.17-3,1.92-4.85,2.07-2.38-.13-4.26-1.62-6.43-2.34-.83-1.22-1.65-2.43-2.49-3.67-2.89,1.63-3.14,4.17-2.84,6.79.27,2.4.01,4.39-1.76,6.33-1.7,1.87-3.02,4.21-3.42,6.78-1.21,7.85-3.19,15.51-5.47,23.1l.05-.06ZM363.69,191.5c1.05,2.32,2.22,4.6,3.11,6.98.55,1.46,1.47,2.26,2.83,2.86,4.48,1.97,8.51,4.63,12.03,8.03,1.15,1.3,2.3,2.6,3.73,4.2,0-3.93.41-7.41-.08-10.75-1.42-9.65-4.18-19.01-7.31-28.23-.9-2.64-2.22-5.14-3.22-7.76-3.42-8.99-6.69-18.05-12.38-25.95-8.22-11.4-17.95-21.45-28.13-31.06-2.63-2.48-5.69-4.52-8.93-7.07,0,1.11-.1,1.64.01,2.11,1.79,7.34,3.42,14.72,6.17,21.79,1.53,3.94,3.76,7.57,4.92,11.66-1.46,6.79-2.22,13.65-1.94,20.61-.32,4.02.53,7.93,1.31,11.8.9,4.5.87,8.7-.9,13.11-3.06,7.63-4.4,15.7-4.82,23.88.73.18,1.1-.18,1.49-.52,6.62-5.73,14.11-9.26,23.08-8.81,1.82.09,2.82-.74,3.74-2.12,1.27-1.9,2.41-3.98,4.74-4.87l.26.11s.28-.03.28-.03ZM386.12,165.36c3.71,13.62,7.42,27.23,11.14,40.85.14.51.45.91,1.14,1.14,1.04-3.4,1.82-6.92,3.47-10.09,2.07-4.01,4.3-7.93,3.82-12.7-.04-.36.13-.76.27-1.11.81-2,2.29-2.64,3.85-1.23,1.73,1.56,3.35,1.66,5.26.74,1.75-.83,3.85-.57,5.48-1.72.55-.39.56-1.12.67-1.75.23-1.26.4-2.54.76-3.77.53-1.84,1.62-2.21,3.16-1.12,1.5,1.07,2.42,2.64,3.35,4.18.66,1.09,1.1,2.45,2.41,2.9,2.41.82,4.58,2.26,7.11,2.76,1.18,1.09,2.43,2,4.24,2.15-.53-6.38-3.23-11.62-6.18-16.73-6.36-11-13.13-21.74-21.47-31.36-4.11-4.73-8.05-9.61-13.09-13.52-3.26-2.53-7.04-4.24-10.13-6.94-4.88-4.26-10.43-7.48-16.13-10.4-10.63-5.43-21.81-9.57-33.2-13.12-1.68-.52-3.45-1.49-5.85-.79,2.86,3.46,5.55,6.52,8.02,9.75,2.83,3.68,6.41,6.66,9.29,10.26,5.95,7.43,12.56,14.21,19.56,20.63,4.19,4.33,6.69,9.5,8.23,15.3,1.4,5.27,2.64,10.62,4.79,15.67Z"/>
      <path class="cls-3" d="M144.81,98.87c-.26-.68-.32-1.76-1.44-1.18-1.13.58-2.16,1.37-3.18,2.15-7.57,5.75-14.77,11.93-21.23,18.91-6.53,7.05-12.82,14.32-18.2,22.3-3.59,5.33-6.25,11.2-8.61,17.15-4.44,11.19-8.31,22.57-11.07,34.33-1.82,7.77-3.09,15.55-2.83,23.54.04,1.15-.05,2.36.28,3.43.71,2.25.33,4.29-.76,6.54-2.16-1.06-3.43-3.42-5.84-3.99.25-.83.86-1.19,1.67-1.4,1.89-.5,2.46-1.6,1.56-3.43-.76-1.54-1.02-3.22-.72-4.89,1.3-7.16,1.59-14.53,4.57-21.34.26-.59.49-1.2.62-1.82,2.1-10.59,5.5-20.79,9.24-30.9,1.15-3.09,2.57-6.13,3.1-9.44,1.13-1.32,1.46-2.8.92-4.47,1.83.41,2.52-.98,3.24-2.16,6.7-10.93,16.14-19.54,24.57-29,4.19-4.69,8.89-8.93,13.35-13.38,1.91-1.91,3.8-3.84,5.69-5.76.66-.67,1.17-1.42.8-2.41-.36-.97-1.19-1.31-2.15-1.3-.9,0-1.79.1-2.69.15-1.52-1.61-3.26-.92-5.01-.55-7.44,1.57-14.44,4.47-21.58,6.98-9.97,3.51-19.37,8.19-28.37,13.72-13.01,8-24.57,17.53-33.96,29.75-7.38,9.61-13.82,19.77-19.53,30.41-3.54,6.59-6.07,13.56-6.25,21.21-.03,1.24-.51,2.52-1.03,3.67-.56,1.22-1.65,1.14-2.2-.16-.55-1.29-.89-2.67-1.32-4.01.75-1.49,1.09-3.12,1.59-4.7,2.15-6.81,4.42-13.6,8.06-19.78,3.49-5.93,7.34-11.65,11.06-17.45.83-1.29,1.82-2.49,1.79-4.14,1.5-.4,1.35-2.07,2.24-2.94,4.96-4.79,8.57-10.78,13.67-15.47,4.64-4.27,8.12-9.67,13.74-13.08,2.18-1.32,4.79-2.37,6.51-4.5,1.56-.3,2.49-1.66,3.86-2.28,1.12.17,1.99-.45,2.84-.98,7.41-4.64,15.38-8.14,23.47-11.37,4.99-1.99,9.96-4.05,15.02-5.84,6.05-2.14,12.18-3.98,18.76-3.41,2.06.18,3.73.64,4.65,2.72.94,2.13,2.44,3.59,5,3.52,1-.02,1.71.56,2.07,1.46,1.35,3.38,3.92,5.23,8.02,5.93-1.93,1.56-1.6,2.96-.85,4.59,3.21,6.98,6.5,13.92,9.19,21.13.74,2.99,1.91,5.83,3.15,8.64,1.15,3.64,2.52,7.17,5.12,10.07,1.21,2.96,6,7.66,9.36,9.18.11.1.23.2.34.3-.1-.11-.2-.23-.31-.34.46-1.4-1.34-2.78,0-4.58,1.3,1.5,2.19,3.15,3.97,3.72,1.59.51,3.51-.59,4.94.72-.26,1.46-2.24,1.09-2.17,2.64.56.34,1.14.63,1.64,1.01,1.53,1.18,2.63,3.31,5.17,2.02.39-.19.95.32,1,.92.29,3.2,2.7,3.07,4.87,3.44.46-2.29-1.62-3.38-1.76-5.19l.14-.12c1.54.87,3,1.98,4.95,1.61,1.78-.33.81-2.25,1.78-3.05.29-.24.56-.52,1-.36.4.15.56.47.59.87.1,1.51-.02,3.08,1.42,4.16.76.56,1.52.94,2.46.55.87-.36.78-1.19.91-1.93.35-1.97-.86-3.7-.84-5.61,4.17.54,5.75,3.78,6.58,7.13,1.32,5.35-.16,10.19-4.21,14.04-2.68,2.54-4.45,2.42-7.52.31-3.41-2.34-6.05-5.53-9.3-8.05-5.15-4-10.81-7-16.99-8.8-6.81-1.99-10.86-6.42-13.35-12.75-1.36-3.47-2.42-6.98-3.16-10.65-2-10.01-5.57-19.45-11.03-28.12-.48-.76-.96-1.53-1.54-2.21-1.26-1.49-2.29-1.35-3.13.51-.78,1.75-1.4,3.58-2.07,5.38-3.21,8.67-5.72,17.54-7.3,26.64-.56,3.26-.87,6.58-1.19,9.9-.81,8.58-.53,17.17-.67,25.76-.18,11.26,2.21,22.11,4.68,32.97.38,1.69,1.43,2.95,2.55,4.23,1.9,2.16,3.34,4.56,2.64,7.96-1.92-.7-3.67-1.49-5.25-2.67.25-1.73-.43-3.29-1.03-4.82-1.88-4.79-2.7-9.84-3.55-14.87-.85-5.01-1.68-10.01-2.97-14.92-.21-1.73-.9-3.58-.52-5.17.57-2.42.29-4.77.36-7.16.86-3.39.74-6.86.75-10.31.01-5,0-10.01,0-15.01,0-1.54.18-3.03.53-4.55,1.12-4.87,2.78-9.59,3.95-14.43,1.56-6.48,3.05-12.94,5.9-19,.43-.92.75-1.91,1.03-2.89.35-1.2.08-2.26-.85-3.16-1.16-1.11-2.28-.95-3.43-.03ZM213.14,164.43c-.3-1.45-1.41-2.05-2.58-2.61-1.21-.57-2.44-.81-3.64-.08-.26.16-.4.64-.44.99-.19,1.93,2.39,4.3,4.29,3.92,1.22-.24,2.02-1,2.36-2.22Z"/>
      <path class="cls-3" d="M150.06,203.93c-.56.83-.57,1.97-1.69,2.86-2.48-3.17-3.01-6.97-3.68-10.66-1.14-6.29-1.26-12.7-2.09-19.04-.79-6.05-.68-12.3.24-18.42.29-1.93.17-3.84.26-5.76.68-14.44,3.34-28.44,9.25-41.72.26-.58.58-1.13,1.05-2.03,2.3,3.16,3.98,6.32,5.31,9.72,3.23,8.25,4.91,16.96,7.54,25.38,1.28,4.11,3.53,7.66,6.05,11.06,2.38,3.21,6.11,4.08,9.58,5.36,5.66,2.08,11.34,4.12,16.05,8.1,3.04,2.57,5.62,5.6,8.79,8.06,1.95,1.51,3.75,3.05,6.74,3.27-3.06,7.17-4.39,14.43-5.84,22.37-3.86-3.26-7.37-6.3-11.24-8.86-.93-2.17-1.87-4.35-2.78-6.47-.41.03-.69-.02-.89.09-3.94,2.19-4.07,2.14-7.16-.81-1.5-1.44-2.57-3.12-3.46-4.97-.33-.69-.09-1.88-1.83-2.02.4,3.38-1.76,5.81-3.02,8.61-1.36.34-2.73.3-4.11.17-1.9-1.85-6.69-5.15-8.15-5.56-.48,1.93-.4,4.05-1.81,5.66-.35-.26-.71-.51-1.06-.77.39-1.35.31-2.73.3-4.1,0-.93-.22-1.76-1.14-2.18-1.47-.67-2.59-2.01-4.28-2.25-.05-1.29-.68-2.15-1.92-2.58-.75.8-1.19,1.68-.96,2.79-.33.98-.66,1.95-.99,2.93-.55,0-1.09,0-1.64,0-.04-1.95.71-3.72,1.28-5.52.62-1.93-.52-2.18-1.97-2.2-.27-.62-.81-.79-1.42-.85-.82-1.03-1.44-2.33-3.05-2.43-.69,4.46.83,8.58.68,12.81-.03.97.61,1.65,1.5,2.06.01.76.02,1.51.04,2.27-.6.46-.5,1.02-.4,1.69.68,4.64,1.28,9.28,1.91,13.92ZM147.11,150.46c-.17,4.06-.12,7.53-.87,10.91-1.04,4.7,1.88,7.37,4.98,9.99,1.04.88,1.9.52,2.63-.4,1.2-1.53,1.89-3.3,2.57-5.12.92-2.47.68-4.47-1.46-6.17-1.63-1.3-2.78-2.95-3.43-5-.6-1.88-2-3.13-4.41-4.2ZM186.66,168.41c-.5,3.13-.97,5.89-2.81,8.15-.72.89-.81,1.9-.33,2.87,1.06,2.18,2.26,4.32,4.19,5.85,1.69,1.35,3.34.95,4.46-.87,1.05-1.71,1.45-3.58.91-5.5-1.1-3.92-2.4-7.76-6.41-10.51ZM153.18,130.32c-2.59,3.15-3.86,6.37-5.39,9.46-1.27,2.57-.49,4.65,1.08,6.69,1.82,2.37,3.88,2.32,5.55-.17,2.43-3.63,3.44-7.36.94-11.43-.78-1.27-1.31-2.71-2.17-4.55ZM159.63,162.38c-.92,2.67-1.53,5.06-2.54,7.26-1.36,2.93-.74,5.07,1.74,7.03,1.64,1.3,3.19,2.98,5.4,2.34,2.24-.66,2.52-2.94,3.09-4.93.39-1.38.61-2.5-.83-3.32-3.17-1.81-4.74-4.96-6.86-8.37ZM184.06,170.41c0-.82,0-1.08,0-1.33,0-1.54.14-3.2-1.69-3.9-2.13-.81-4.3-1.53-6.61-.8-.34.1-.64.42-.88.71-1.82,2.26-1.55,6.03.57,8.18.54.55,1.07,1.11,1.66,1.6,2.67,2.17,6.01,1.04,6.8-2.33.2-.86.13-1.78.15-2.11ZM158.94,142.11c-1.78,3.38-3.16,6.39-5.2,9.04-1.46,1.89.29,3.39,1.09,4.84.81,1.46,2.27,2.36,3.96,2.73.1.02.23-.09.35-.14,2.1-.88,4.64-6.45,3.71-8.61-1.09-2.54-2.45-4.97-3.9-7.86ZM165.08,153.41c-1.22,2.53-2.14,4.46-3.08,6.38-.36.74-.41,1.47-.01,2.2,1.36,2.54,3.27,4.53,5.84,5.88,1.67.88,2.68-.2,3.57-1.3,1.02-1.25,2.62-2.72,1.33-4.35-2.32-2.95-5.32-5.3-7.65-8.81ZM169.7,171.85c-.46,2.94-.67,5.26-2.13,7.16-.58.75-.33,1.47.25,2.06,1.25,1.28,2.39,2.68,4.04,3.51,1.34.67,2.63,1,3.95-.03,1.69-1.32,2.66-3.1,3.14-5.13.07-.32-.46-1-.85-1.17-3.12-1.31-5.15-4.08-8.4-6.41Z"/>
      <path class="cls-3" d="M39.51,155.8c2.21-4.83,5.79-8.73,8.92-12.93,4.77-6.39,10.31-12.1,16.08-17.6.37-.35.7-.79,1.13-1.04,9.47-5.38,17.45-13.03,27.53-17.54,11.25-5.04,22.58-9.77,34.52-12.93.63-.17,1.22-.4,2,.09-.1,1.79-1.8,2.59-2.69,3.88-1.95,2.86-4.19,5.5-6.61,7.99-6.35,6.53-12.21,13.49-18.22,20.32-2.11,2.39-4.26,4.8-6.84,6.73-1.74-1.46-3.45-1.75-5.53-.45-2.17,1.36-4.54,2.42-7.14,2.77-1.17.15-1.69.92-2.29,1.82-2.06,3.06-1.27,6.45-1.32,9.75-.47.25-.84.65-.39,1.1.45.46.85.09,1.1-.37.75-.09,1.51-.13,2.24-.3.72-.17,1.61-.7,1.99.2.36.84-.54,1.27-1.2,1.65-1.02.59-2.1.88-3.27.75-1.3-.14-2.52.11-3.65.77-.26-.25-.51-.49-.77-.74.78-1.15,1.7-2.16,1.62-3.77-.11-2.03-.11-4.07.52-6.09.44-1.41-.49-1.93-1.74-1.49-2.9,1.01-5.77,2.1-8.63,3.24-.77.31-.93,1.17-1.09,1.94-.71,0-1.42,0-2.13.01-.14-1.09-.57-1.54-1.79-1.14-2.67.86-5.4,1.27-8.24,1.17-1.74-.06-3.06.88-4.07,2.38-2.47,3.64-5.06,7.2-7.61,10.79-.82-.32-1.64-.64-2.45-.95ZM64.97,129.53c-4.23,2.32-6.93,6.28-10.23,9.59-1.05,1.05-.31,2.2,1.32,2.14,2.04-.08,4-.65,5.89-1.43,1.04-.43,1.74-1.24,1.6-2.36-.34-2.79.7-5.23,1.67-7.71.32-.22.57-.49.5-.91-.01-.09-.17-.16-.26-.25-.17.31-.33.63-.5.94ZM80.35,121.63c-3.49-.55-6.16,1.08-8.76,2.57-4.38,2.51-5.28,6.98-5.7,11.48-.18,1.92,1.23,2.89,3.05,2.28,2.42-.8,4.85-1.66,7.07-2.98.68-.41,1.33-.89,1.39-1.72.28-3.98,1.9-7.64,2.96-11.63ZM94.24,118.97c-2.73.76-5.05,1.38-7.36,2.06-3.7,1.09-5.7,3.67-6.37,7.39-.78,4.37-.57,4.57,3.94,3.72.38-.07.77-.07,1.15-.13,3.42-.56,5.93-2.07,6.81-5.78.53-2.22,1.41-4.37,1.83-7.27ZM98.69,116.57c5.46.02,9.05-2.35,10.82-7.13.27-.74.55-1.53.1-2.2-.6-.89-1.57-.67-2.43-.41-2.19.66-4.38,1.3-6.54,2.05-2.15.75-3.77,2.13-4.44,4.4-.71,2.4-.04,3.28,2.49,3.3ZM103.66,119.06c-7.5,1.03-9.81,4.46-7.73,11.07,3.29-3.1,5.5-6.76,7.73-11.07ZM82.18,118.14c2.57,1.5,4.61.17,6.63-.11,3.69-.52,4.19-1.28,4.52-5.83-4.28.76-7.78,2.76-11.14,5.94Z"/>
      <path class="cls-5" d="M80.64,165.25c-2.41,10.22-5.42,20.28-8.32,30.37-1.13,3.93-2.07,7.91-3.59,11.79-1.18-.8-1.17-1.99-1.42-3.06-1.5-6.48-4.37-12.27-8.53-17.47-1.11-1.39-2.33-2.35-4.08-2.59-2.17-.3-4.12-1.24-6.16-1.95-2.37-.82-3.22-2.24-3.34-4.47,0-.13-.02-.26-.03-.38-.13-1.39.06-3.13-1.44-3.72-1.7-.67-2.74.98-3.89,1.93-.48.4-.95.93-1.18,1.5-1.69,4.11-5.23,5.69-9.12,6.83-.27-2.52.72-4.73,1.78-6.9,1.44-2.96,2.97-5.89,4.46-8.83,5.64,1.38,9.88-1.37,13.92-4.72.67.28.82.86.87,1.51-.06,2.92-.52,5.87.34,8.75.89,2.96,1.52,3.29,4.37,2.47,1.61-.46,3.05-1.19,4.47-2.11,1.69-1.09,3.17-2.65,5.35-2.84l.02.03c-.5,3.12-1.3,6.18-.17,9.39,1.02,2.92,2.19,3.65,4.99,2.43,1.4-.61,2.52-1.52,3.21-2.91-.26-.19-.39-.35-.47-.33-.61.15-1.22.29-1.8.51-2.81,1.04-4.01.32-4.2-2.69-.12-1.91-.06-3.83-.08-5.74.66-1.11,1.49-2.05,2.84-2.21,2.16-.26,3.48-1.75,4.92-3.12,1.36,0,2.63.07,3.54-1.39.67-1.07,1.78-1.3,2.73-.07Z"/>
      <path class="cls-5" d="M130.93,169.04c-1.53,6.21-.23,12,1.91,17.93,2.39,6.6,3.81,13.55,3.2,21.13-1.44-1.18-2.66-2.21-3.92-3.19-8.15-6.3-17.41-7.37-27.34-6.29-7.08.77-12.38,4.51-17.51,8.84-.98.82-1.9,1.71-2.85,2.57-.31-1.96.67-3.76.71-5.69.15-8.26,2.62-16.08,4.67-23.97.22-.85.67-1.34,1.51-1.5.27,1.63.73,3.21.96,4.86.41,3.11.88,6.23,2.79,8.98,1.04,1.5,1.86,1.77,3.42.97,3.52-1.82,5.91-4.81,8.39-7.72,1.27.01,2.54.02,3.82.04-.08,3.12.39,6.13,2.23,8.71,1.82,2.54,3.13,2.54,5.72.81,3.08-2.06,4.84-5.86,8.86-6.68.2-.04.3-.59.55-1.15-2.52-.3-3.48-2.08-4.15-4.08-.36-1.09-.63-2.21-1.54-3.01-.46-3.29-.05-6.31,2.72-8.59,1.17-.96,1.02-2.58,1.84-3.72,1.43-.22,2.62.78,4.01.76Z"/>
      <path class="cls-3" d="M91.31,178.87c-.84.16-1.29.66-1.51,1.51-2.05,7.9-4.52,15.71-4.67,23.97-.03,1.93-1.01,3.72-.71,5.69-1.06,1.38-2.12,2.76-3.41,4.44-.63-1.54-.47-2.68-.38-3.76,1.04-12.85,4.09-25.24,8.77-37.24,1.91-4.89,3.45-9.91,5.44-14.79,2.45-5.98,5.92-11.36,8.9-17.04,1.45-2.76,3.85-4.78,5.74-7.2,5.13-6.57,10.71-12.79,16.57-18.68,4.58-4.6,9.41-9.03,15.28-12.75-.06,2.87-.85,5.36-1.42,7.86-1.91,8.41-4.97,16.41-8.73,24.16-.27.56-.69,1.06-1.04,1.58-1.8.85-2.85,2.55-4.28,3.8-.96.84-1.75,1.86-2.94,2.45-2.13,1.06-2.99.85-3.97-1.27-.92-1.99-1.44-4.07-1.37-6.31.04-1.28.52-2.77-.91-4.11-4.68,4.34-9.28,8.56-12.27,14.2-.24.45-.47.92-.58,1.41-.36,1.63.52,2.49,2.16,2.03.97-.27,1.84-.9,2.79-1.25,1.58-.58,2.39-2.4,4.21-2.56.03.32.06.63.09.94-.12.82-.03,1.72-.82,2.3-.67-.02-1.26.13-1.59.79-1.68,1.09-3.4,2.13-4.65,3.75-1.39.08-2.15.88-2.48,2.17-.23.05-.45.1-.67.15-2.67-.18-3.27,1.74-3.8,3.74-2.73,4.09-4.58,8.6-6.12,13.23-.68,2.03-2.06,3.91-1.64,6.24-.05.18-.05.36,0,.54ZM129.77,121.77c-2.98,1.79-5.07,3.02-7.12,4.29-2.69,1.67-3.56,4.28-3.4,7.26.1,1.77.42,3.55.78,5.29.35,1.69,1.27,2.14,2.81,1.13,2.01-1.32,4.11-2.58,5.57-4.62,2.86-4,1.22-8.27,1.37-13.35Z"/>
      <path class="cls-5" d="M167.15,124.95c-2.69-7.21-5.98-14.15-9.19-21.13-.75-1.63-1.08-3.04.85-4.59-4.1-.7-6.67-2.55-8.02-5.93-.36-.9-1.07-1.49-2.07-1.46-2.56.06-4.06-1.39-5-3.52-.92-2.08-2.59-2.55-4.65-2.72-6.58-.57-12.71,1.26-18.76,3.41-5.06,1.79-10.03,3.85-15.02,5.84-8.1,3.23-16.06,6.73-23.47,11.37-.85.53-1.72,1.16-2.84.98,0-1.08.15-2.02,1.44-2.34.74-.19.83-.87.89-1.52.07-.11.12-.27.22-.31,11.11-5.17,22-10.79,33.44-15.26,5.45-2.13,10.81-4.56,16.22-6.83,2.66-1.12,5.25-1.76,8.03-.58,0,0-.02-.06-.02-.06-.01.3-.03.61-.04.91,2.36,2.55,5.68,1.94,8.57,2.82-1.69-2.31-5.14-3.69-2.9-7.4,2.82-.4,5.28-1.62,7.55-3.27,1.74,2.18,2.55,4.66,2.35,7.44-.12,1.72.16,3.3,1.39,4.59,2.85,2.99,3.76,6.82,4.75,10.64.48,1.84.76,3.84,1.71,5.42,1.14,1.9.7,4.61,3.03,5.84,1.2,3.12,2.39,6.24,3.59,9.36-.72.62-.49,1.08.24,1.45,0,0-.05-.06-.05-.06.03.66.14,1.28.81,1.61,0,0-.04-.06-.04-.06,0,.77,0,1.55.01,2.32-.61.32-.52.63.02.92.05.17.06.34.05.51-1.03.54-2.06,1.08-3.09,1.62Z"/>
      <path class="cls-6" d="M112.99,145c-1.82.16-2.63,1.98-4.21,2.56-.96.35-1.82.98-2.79,1.25-1.64.46-2.52-.4-2.16-2.03.11-.49.34-.97.58-1.41,2.99-5.65,7.58-9.86,12.27-14.2,1.43,1.35.95,2.83.91,4.11-.07,2.25.45,4.33,1.37,6.31.98,2.12,1.84,2.32,3.97,1.27,1.19-.59,1.98-1.61,2.94-2.45,1.44-1.26,2.48-2.96,4.28-3.8.6,4.52,1.22,9.04,1.78,13.56.77,6.34.69,12.65-1,18.86-1.39.02-2.58-.98-4.01-.76-.26,0-.53,0-.79,0,1.38-2.14,1.77-4.2.32-6.61-.87-1.44-1.38-3.23-1.05-5.05,1.3-3.28,1.08-3.9-1.57-4.55-2.25-2.02-4.47-4.08-6.78-6.04-.66-.56-1.55-.91-2.49-.9.08-.66,1.06-1.43.15-1.94-.79-.44-1.29.37-1.58,1.08-.09.22-.09.48-.13.72Z"/>
      <path class="cls-6" d="M184.78,152.84c-3.36-1.52-8.15-6.22-9.36-9.18,1.6-.03,3.19-.05,4.79-.08,1.19,1.06,2.45,1.95,4.19,2,.18-2.31-2.1-1.61-2.74-2.73.68-.09,1.33-.22,1.62-.96,1.82.28,2.75,1.8,3.95,2.91,2.58,2.39,5.53,4.07,8.86,5.21,1.24.43,1.95.2,2.51-.88,1.18.27,2.57,1.01,2.34-1.33-.09-.89.27-1.76,1.19-2.58,2.18,1.43,3.2,4.05,5.31,5.62,2.26,1.68,5,1.8,7.47,2.8-.01,1.91,1.19,3.64.84,5.62-.13.74-.04,1.57-.91,1.93-.94.38-1.7.01-2.46-.55-1.44-1.07-1.32-2.64-1.42-4.16-.03-.4-.19-.71-.59-.87-.44-.17-.7.11-1,.36-.97.8,0,2.72-1.78,3.05-1.95.37-3.41-.74-4.95-1.61-.5-1.42-.52-3.08-2.26-4.44-.05,2.27.62,3.61,2.12,4.57.14,1.82,2.22,2.91,1.76,5.19-2.17-.38-4.58-.24-4.87-3.44-.05-.6-.62-1.11-1-.92-2.54,1.28-3.65-.85-5.17-2.02-.5-.39-1.08-.67-1.64-1.01-.07-1.55,1.91-1.18,2.17-2.64-1.43-1.31-3.35-.21-4.94-.72-1.78-.57-2.67-2.22-3.97-3.72-1.34,1.8.46,3.18,0,4.58l-.04.04Z"/>
      <path class="cls-6" d="M144.81,98.87c1.15-.92,2.27-1.08,3.43.03.94.9,1.2,1.96.85,3.16-.28.98-.6,1.97-1.03,2.89-2.85,6.06-4.34,12.53-5.9,19-1.16,4.84-2.82,9.56-3.95,14.43-.35,1.52-.53,3.01-.53,4.55,0,5,0,10.01,0,15.01,0,3.45.11,6.92-.75,10.32-1.33-.11-2.01,1.07-3.05,1.55-.31-2.22.72-4.27.82-6.46.37-7.82.35-15.6-1.39-23.29-.52-2.31.48-4.32,1.37-6.26,3.52-7.73,6.17-15.73,8.01-24.01.81-3.62,1.42-7.28,2.12-10.92Z"/>
      <path class="cls-6" d="M80.64,165.25c-.95-1.23-2.06-1-2.73.07-.91,1.46-2.19,1.39-3.54,1.39.06-.51.86-1.02.01-1.53,2.4-1.37,3.96-3.05,2.41-6.03-.21-.4-.13-1.01-.05-1.51.4-2.59-.83-4.09-3.18-4.87.62-.93,2.04-1.05,2.32-2.31,1.13-.65,2.35-.9,3.65-.77,1.18.12,2.26-.17,3.27-.75.66-.38,1.56-.81,1.2-1.65-.38-.89-1.27-.37-1.99-.2-.73.17-1.49.21-2.24.3-.24-.24-.47-.48-.71-.73.05-3.3-.74-6.69,1.32-9.75.6-.89,1.12-1.66,2.29-1.82,2.6-.34,4.97-1.41,7.14-2.77,2.08-1.31,3.79-1.01,5.53.45-.78.85-1.48,1.78-2.34,2.53-3.32,2.86-5.05,6.53-6.44,10.65-1.96,5.8-3.03,11.84-5.11,17.6-.22.6-.27,1.25-.8,1.69Z"/>
      <path class="cls-6" d="M91.97,148.81c-.52,3.31-1.95,6.35-3.1,9.44-3.74,10.11-7.14,20.31-9.24,30.9-.12.62-.36,1.24-.62,1.82-2.98,6.8-3.27,14.18-4.57,21.34-.3,1.67-.04,3.35.72,4.89.9,1.83.34,2.93-1.56,3.43-.81.21-1.41.58-1.67,1.4-1.36.22-2.72.44-4.21.68-.54-2.49.3-4.67,1-6.82,6.79-21.08,12.19-42.58,18.72-63.73.19-.61.23-1.26.83-1.66,1.23-.56,2.46-1.13,3.69-1.69Z"/>
      <path class="cls-6" d="M135.71,90.49c.9-.05,1.79-.14,2.69-.15.97-.01,1.79.33,2.15,1.3.37.98-.14,1.74-.8,2.41-1.9,1.92-3.78,3.86-5.69,5.76-4.46,4.45-9.17,8.68-13.35,13.38-8.43,9.46-17.87,18.07-24.57,29-.72,1.18-1.41,2.57-3.24,2.16-.92.05-1.62-.49-2.37-.87,1.66-4.66,5.58-7.57,8.79-10.97,7.74-8.18,15.38-16.44,22.73-24.97,4.76-5.52,9.65-10.94,13.68-17.05Z"/>
      <path class="cls-5" d="M75.12,109.47c-1.72,2.12-4.33,3.18-6.51,4.5-5.62,3.41-9.1,8.81-13.74,13.08-5.1,4.69-8.71,10.67-13.67,15.47-.89.86-.74,2.53-2.24,2.93-.03-.89-.07-1.78-.1-2.67,4.34-6.61,9.25-12.8,14.18-18.96,2.47-3.08,4.88-6.2,7.71-8.96,1.1-1.07,2.26-2.05,3.64-2.75.21,1.07,1.29,1.92,1.73.99,1.39-2.87,4.64-2.29,6.59-4.03.58-.52,1.72-.45,2.41.4Z"/>
      <path class="cls-6" d="M38.85,142.77c.03.89.06,1.78.1,2.67.03,1.65-.96,2.85-1.79,4.14-3.72,5.8-7.57,11.52-11.06,17.45-3.63,6.18-5.91,12.97-8.06,19.78-.5,1.58-.83,3.21-1.59,4.7-1.71-1.19-3.73-1.44-5.67-1.69-.12-1.51.63-2.38,1.44-3.22,2.7-2.79,4.63-6.1,6.36-9.54,5.4-10.75,11.37-21.17,17.98-31.23.7-1.06,1.51-2.04,2.28-3.06Z"/>
      <path class="cls-6" d="M137.09,180.58c1.29,4.92,2.13,9.92,2.97,14.92.85,5.03,1.67,10.07,3.55,14.87.6,1.53,1.28,3.09,1.03,4.82-1.42.13-2.78.39-3.99,1.24-1.11.78-1.99.52-2.23-.87-.24-1.38-.73-2.73-.51-4.18,1.04-6.81.35-13.44-1.32-20.15-.88-3.54-2.51-6.92-2.69-10.64,1.06,0,2.13,0,3.19,0Z"/>
      <path class="cls-2" d="M35.79,168.28c-1.49,2.94-3.02,5.86-4.46,8.83-1.06,2.17-2.05,4.38-1.78,6.9-1.58.81-3.16,1.62-4.82,2.47-.1-5.78,7.94-22.33,14.78-30.68.82.32,1.64.63,2.45.95-.58,2.04-1.94,3.64-3.04,5.38-1.11-.04-1.93.42-2.27,1.49-.48,1.51-1.12,3.01-.86,4.66Z"/>
      <path class="cls-1" d="M198.58,149.12c-.56,1.08-1.27,1.31-2.51.88-3.32-1.15-6.28-2.82-8.86-5.21-1.2-1.11-2.13-2.62-3.95-2.91-3.07-3.37-6.08-6.79-8.44-10.73-1.98-2.35-2.72-5.42-4.6-7.83.01-.17,0-.34-.05-.51,0-.31-.01-.62-.02-.92,0-.77,0-1.55-.01-2.32,2.15,3.39,4.27,6.77,6.67,10.02,5.93,8.04,13.01,14.68,21.76,19.53Z"/>
      <path class="cls-1" d="M165.6,107.27c-2.33-1.23-1.89-3.94-3.03-5.84-.95-1.58-1.24-3.58-1.71-5.42-.99-3.82-1.9-7.66-4.75-10.64-1.23-1.29-1.51-2.87-1.39-4.59.19-2.78-.62-5.26-2.35-7.44.52-.79.59-2.34,1.82-2.01,1.15.31,2.2,1.31,2.56,2.62.41,1.5.25,3.05.08,4.57-.18,1.58.13,2.83,1.2,4.19,2.38,3.02,3.93,6.46,4.56,10.38.77,4.77,2,9.47,3.02,14.19Z"/>
      <path class="cls-6" d="M150.06,203.93c-.63-4.64-1.24-9.29-1.91-13.92-.1-.68-.2-1.23.4-1.69,1.32-.1,2.47-.99,3.84-.8v.02c.25.25.51.51.76.76h.03c1.53,2.29,3.29,4.28,6.25,4.67-3.48,3.35-6.39,7.2-9.38,10.96Z"/>
      <path class="cls-6" d="M177.23,188.06c1.26-2.8,3.42-5.22,3.02-8.61,1.74.14,1.5,1.33,1.83,2.02.89,1.86,1.95,3.54,3.46,4.97,3.08,2.95,3.22,3,7.16.81.19-.11.48-.05.89-.09.91,2.12,1.84,4.3,2.78,6.47-2.32-1-4.65-2-6.96-3.02-3.88-1.7-7.95-2.49-12.17-2.56Z"/>
      <path class="cls-5" d="M10.82,206.58c-1.84-3.99-2-7.4-1.23-10.82.74-3.27,2.8-3.78,5.2-1.47,1.14,1.1,1.27,2.23.18,3.32-2.26,2.25-3.2,5.13-4.15,8.97Z"/>
      <path class="cls-3" d="M146.16,73.25c-1.13.04-2.26.14-3.39.11-.99-.03-1.83-.64-1.8-1.6.12-4.15-2.35-7.02-4.71-9.96,2.19-.42,3.63,1.01,4.99,2.26,1.77,1.63,3.31,3.51,4.95,5.28-.01,1.31-.02,2.61-.03,3.92Z"/>
      <path class="cls-3" d="M144.81,76.6c-2.24,3.71,1.21,5.09,2.9,7.4-2.89-.88-6.2-.26-8.57-2.82.42-.28.77-.57.04-.91,0,0,.02.06.02.06-.33-1.94-1.44-3.82-.33-6.05,2.07.58,3.69,2.3,5.92,2.31Z"/>
      <path class="cls-4" d="M146.19,69.33c-1.64-1.77-3.17-3.65-4.95-5.28-1.36-1.25-2.8-2.68-4.99-2.26,1.65-.72,2.46-.98,3.78-.67,4.83,1.14,8.45,3.87,10.65,8.37.29.58.15,1.24-.12,1.84-1.06-.44-1.91-1.17-2.74-1.95-.51-.49-1.08-.58-1.64-.05Z"/>
      <path class="cls-6" d="M163.17,188.33c1.41-1.62,1.33-3.74,1.81-5.66,1.45.41,6.25,3.71,8.15,5.56-3.46.15-6.53,1.78-9.83,2.54-.04-.81-.08-1.62-.12-2.43Z"/>
      <path class="cls-5" d="M137.09,180.58c-1.06,0-2.13,0-3.19,0-1.33-2.2-1.1-4.57-.78-6.95.97-.9.75-2.03.61-3.14,0-.24.06-.47.16-.69,1.04-.48,1.71-1.66,3.05-1.55-.07,2.38.21,4.73-.36,7.16-.38,1.59.31,3.44.52,5.17Z"/>
      <path class="cls-1" d="M75.12,109.47c-.69-.85-1.82-.92-2.41-.4-1.95,1.74-5.2,1.16-6.59,4.03-.45.93-1.53.07-1.73-.99,5.29-3.6,10.76-6.85,16.92-8.78-.06.65-.16,1.34-.89,1.52-1.28.33-1.44,1.27-1.44,2.34-1.37.62-2.3,1.98-3.86,2.28Z"/>
      <path class="cls-5" d="M74.16,233.98c.11,1.11.22,2.22.34,3.39-3.18-1.76-6.08-7.49-5.58-10.73.22-1.43,1.08-1.87,2.34-1.93.3,2.11.53,4.24.92,6.33.23,1.2.48,2.53,1.98,2.93Z"/>
      <path class="cls-4" d="M148.08,225.77c.45.77.9,1.54,1.56,2.68-4.1-1.42-6.26-4.25-7.74-7.73-.75-1.76.72-1.82,1.79-2.12,1.28,2.5,1.71,5.51,4.38,7.17Z"/>
      <path class="cls-2" d="M163.17,188.33c.04.81.08,1.62.12,2.43,0,0-.07-.08-.07-.08-.35.06-.71.13-1.06.19.1.21.19.42.29.63-.83.83-1.86,1.27-3,1.47-2.96-.39-4.73-2.38-6.25-4.68,1.42-.22,2.31.68,3.35,1.43,2.02,1.45,2.82,1.25,4.36-.72.38-.49.81-.95,1.21-1.43.35.26.71.51,1.06.77Z"/>
      <path class="cls-3" d="M74.16,233.98c-1.5-.4-1.76-1.73-1.98-2.93-.4-2.09-.63-4.22-.92-6.33,3.37.99,4.25,2.24,3.65,5.22-.27,1.34-.5,2.7-.74,4.04Z"/>
      <path class="cls-3" d="M148.08,225.77c-2.66-1.65-3.1-4.67-4.38-7.17,4.31-.17,4.81.26,4.79,4.19,0,1.01.13,2.04-.42,2.98Z"/>
      <path class="cls-1" d="M90.52,143.47c.76.38,1.46.92,2.37.87.54,1.66.21,3.15-.92,4.47-1.23.56-2.46,1.13-3.69,1.69.36-2.47.9-4.88,2.24-7.03Z"/>
      <path class="cls-5" d="M146.19,69.33c.56-.53,1.13-.44,1.64.05.82.78,1.68,1.51,2.74,1.95-1.04,1.64-2.52,2.26-4.41,1.92.01-1.31.02-2.61.03-3.92Z"/>
      <path class="cls-2" d="M133.72,170.5c.14,1.12.36,2.25-.61,3.14-.08-1.1-.26-2.22.61-3.14Z"/>
      <path class="cls-6" d="M162.44,191.5c-.1-.21-.19-.42-.29-.63.35-.06.71-.13,1.06-.19-.04.48-.38.68-.78.82Z"/>
      <path class="cls-1" d="M170.19,119.64c-.67-.34-.78-.95-.81-1.61.78.28.7,1,.81,1.61Z"/>
      <path class="cls-1" d="M169.43,118.09c-.73-.38-.96-.84-.24-1.45.08.48.16.97.24,1.45Z"/>
      <path class="cls-3" d="M322.29,215.26c-1.87.77-3.74,1.54-5.79,2.38-.61-2.08-.03-3.79,1.18-5.08,3.73-3.94,4.91-8.97,5.98-13.97,1.55-7.27,2.57-14.61,2.56-22.09,0-3.3.93-6.63.52-9.96-.84-6.78-.23-13.61-.77-20.38-.59-7.4-1.93-14.72-4.16-21.83-1.61-5.13-2.82-10.4-5.03-15.34-.63-1.41-1.32-2.79-1.96-4.18-.74-1.6-1.63-1.29-2.63-.24-1.34,1.41-2.35,3.06-3.26,4.75-3.83,7.15-6.91,14.55-8.54,22.58-1.09,5.38-2.61,10.71-5.09,15.69-2.33,4.67-5.6,8.17-10.68,9.9-5.96,2.04-11.85,4.31-16.85,8.3-2.8,2.23-5.51,4.59-8.25,6.91-.78.66-1.46,1.46-2.27,2.09-3.21,2.5-5.75,2.66-8.48-.31-4.55-4.95-6.4-12.45-1.38-18.53,1.14-1.38,2.54-2.59,4.6-2.34-.49,1.59-1.05,3.16-1.46,4.77-.32,1.25.19,2.36,1.24,3.01,1.27.79,1.76-.57,2.47-1.18,1.34-1.16,1.33-3.06,1.94-4.62.85.45.99.92,1.13,1.43.83,2.88,1.82,3.29,4.26,1.83,1.16-.69,1.84-1.74,2.43-2.91.43-.85.5-1.99,1.65-2.41.58,1.55.09,2.76-.87,3.94-.88,1.09-1.65,2.28-2.45,3.44-.32.46-.31,1.02-.02,1.46.3.45.88.58,1.38.44.6-.16,1.21-.4,1.75-.72,1.29-.74.92-2.34,1.6-3.34.98-1.44,2.68.98,3.82-.48,1.2-1.53,3.26-1.94,4.8-3.41-1.05-.5-1.83-.86-2.61-1.24-.52-.25-.78-.68-.6-1.24.17-.54.65-.88,1.17-.83.76.07,1.49.43,2.24.48,2.57.17,4.03-1.02,4.77-3.78,1.41.06,1.56.99,1.36,2.07-.16.84-.45,1.65-.69,2.48-.26.2-1.11-.3-.75.56.07.18.59-.21.77-.54,4.04-1.23,6.57-4.12,8.5-7.68,3.13-3.01,4.79-6.88,6.28-10.84,1.57-4.19,3.04-8.42,4.62-12.6,2.26-5.99,4.85-11.83,7.95-17.43.54-.98,1.65-2.28.9-3.16-1.87-2.21-.13-2.57,1.31-2.99,2.54-.73,4.35-2.15,5.06-4.75.28-1.02.87-1.54,1.91-1.52,2.6.06,4.06-1.6,4.91-3.66.78-1.89,2.09-2.44,3.87-2.5,2.18-.07,4.36-.1,6.54-.14,9.11,1.69,17.67,5.2,26.28,8.43,7.18,2.69,14.17,5.95,20.83,9.83,3.99,2.32,7.93,4.75,12.08,6.74,4.78,2.3,9.24,5.03,12.67,9.03,4.83,5.64,10.11,10.87,14.72,16.71,9.95,12.62,18.78,25.93,25.34,40.64,2.08,4.67,3.81,9.49,4.55,14.6.21,1.73-1.17,3.05-.72,5.01-2.21-.98-3.09-2.21-3.15-4.09-.24-7.45-2.56-14.25-5.98-20.85-7.35-14.21-16.24-27.3-27.04-39.1-1.21-1.32-2.28-2.77-3.48-4.11-3.54-3.94-7.68-7.11-12.07-10.08-7.34-4.97-14.72-9.85-22.6-13.91-8.56-4.41-17.35-8.29-26.63-10.95-4.18-1.2-8.38-2.36-12.58-3.51-1.59-.44-3.23-1.02-4.68.38-.77.01-1.54.03-2.3.04-1.04.01-2.21-.04-2.65,1.1-.4,1.05.29,2.02.95,2.77,1.18,1.34,2.36,2.76,3.79,3.8,2.72,1.97,4.87,4.53,7.34,6.75,9.26,8.32,16.88,18.16,25.49,27.08,1.87,1.94,3.24,4.29,4.56,6.62,1.52,2.68,3.23,5.19,5.42,7.36-.15.89.33,1.59.69,2.33.11.5.18,1.01.34,1.48,2.69,8,5.89,15.82,8.58,23.83,3.56,10.58,5.91,21.44,8.43,32.26.78,3.35,2.03,6.98.43,10.55-.92,2.06-1.01,4.21-.83,6.41.36,1.49-.68,2.25-1.67,3.73-1.04-2.7-1.75-4.87-1.28-7.16,1.38-6.69.32-13.26-.89-19.82-.58-3.15-1.11-6.32-1.96-9.39-3.2-11.5-6.98-22.79-11.76-33.75-2.05-4.7-4.27-9.31-6.81-13.77-2.87-5.05-6.7-9.38-10.31-13.88-2.97-3.7-6-7.37-9.31-10.76-3.67-3.76-7.59-7.3-11.56-10.74-3.29-2.85-6.83-5.41-10.25-8.12-1.12-.89-2.23-1.74-3.75-1.79-4.74,2.99-4.8,3.22-2.72,8.45.47,1.19.91,2.4,1.27,3.63,2.58,8.86,5.19,17.71,7.65,26.6,1.1,3.95,1.64,8.01,1.57,12.15-.09,5.27-.06,10.55-.05,15.82,0,2.57-.09,5.16.19,7.71.25,2.3.82,4.28.08,6.87-1.46,5.1-1.78,10.56-2.72,15.82-.96,5.37-1.42,10.93-3.67,16.03-.68,1.55-.97,3.19-.71,4.89ZM257.37,161.27c-2.23.07-3.84,1.42-3.81,3.11.02,1.48,1.2,2.41,2.91,2.28,1.66-.12,3.22-1.91,3.19-3.69-.02-1.67-1.24-1.67-2.29-1.7Z"/>
      <path class="cls-3" d="M293.03,188.19c-1.37.19-2.74.2-4.1-.03-.16-3.03-2.77-4.97-3.32-8.39-1.94,2.7-3.09,5.27-5.23,7.1-3.37,2.89-3.4,2.91-7.07.34-.16-.11-.48-.01-1.18-.01.39,2.57-.92,4.57-2.38,6.5-3.37,3.08-7.01,5.81-11.14,8.61-.65-3.62-1.15-6.86-1.8-10.07-.61-3.05-1.52-5.95-2.66-8.81-1.07-2.69-1.05-2.8,1.57-3.92,3.77-1.6,6.67-4.42,9.4-7.22,5.07-5.2,10.98-8.72,17.84-10.94,4.39-1.42,8.77-2.92,11.82-6.82,3.23-4.13,5.25-8.81,6.53-13.81,1.62-6.33,3.17-12.68,5.39-18.83,1.6-4.45,3.72-8.64,6.47-12.81,5.17,10.23,7.57,20.83,9.2,31.77,1.99,13.31,1.58,26.64,1.2,39.95-.22,7.48-.96,15.07-3.55,22.28-.43,1.2-.66,2.49-1.86,3.48-1.41-.41-1.59-1.75-2.03-2.88,1.15-4.15,2.15-8.34,2.22-12.66.04-2.93-1.62-3.82-4.1-2.17-2.33,1.54-4.52,3.3-6.77,4.96-1.08-.56-2.25-.99-3.02-2.02-.16-.88-.77-1.14-1.57-1.1v.03c.23-2.58-.89-4.91-1.14-8-2.92,2.51-6.08,3.56-8.72,5.5ZM302.08,169.72c-1.58.44-3.05,1.31-2.84,3.06.24,2.06.1,4.53,2.22,5.81,2.15,1.31,3.84-.25,5.51-1.38.32-.21.66-.39.96-.62,2.61-2.04,2.86-3.51,1.16-6.76-.62-2.13-1.24-4.26-1.94-6.7-1.84,2.4-3.45,4.5-5.05,6.6ZM318.43,145.17c1.61-1.71,1.78-3.53.65-5.61-1.29-2.36-2.42-4.81-3.65-7.21-.4-.78-.74-1.7-1.99-1.5-.46,1.01-.92,2.06-1.41,3.09-.49,1.04-1.07,2.05-1.51,3.12-.79,1.93-1.31,3.89.25,5.74.09,1.31.66,2.42,1.46,3.43,2.47,3.13,4.64,2.77,6.21-1.05ZM318.78,150.61c-2.1.8-3.08,2.04-3.69,3.85-.69,2.05-1.47,4.21-3.44,5.4-1.76,1.06-1.81,2.54-1.79,4.27.03,2.31,1.12,4.16,2.31,5.98.79,1.22,1.83,1.5,3.29.81,3.88-1.84,5.54-4.95,4.76-9.2-.21-1.12-.26-2.28-.27-3.42-.03-2.54-.78-4.93-1.16-7.68ZM279.31,168.52c-2.8,2.66-4.51,5.7-5.46,8.99-.73,2.54-.73,5.37,1.06,7.75.87,1.16,1.74,1.72,3.17.54,2.35-1.94,3.67-4.58,5.21-7.08.37-.6.35-1.34-.13-1.8-2.3-2.17-2.37-5.33-3.85-8.4ZM291.71,164.23c-.96.06-1.83.12-2.71.15-1.02.04-2.06-.04-3.07.09-2.56.31-3.66,1.6-3.86,4.37-.26,3.59,1.07,6.51,3.3,7.04.71.17,1.55.14,2.26-.05,3.47-.91,5.85-4.79,5.1-8.34-.23-1.1-.67-2.15-1.03-3.26ZM307.61,142.34c-1.8,2.53-2.78,5.31-4.13,7.88-.17.33-.3.72-.31,1.09-.03,1.76,3.09,6.48,4.46,6.83,1.8.45,4.66-1.97,5.79-4.84.31-.79.36-1.54-.23-2.14-2.43-2.46-3.34-5.9-5.59-8.82ZM301.68,153.86c-2.59,2.85-5.15,5.51-7.51,8.34-1.04,1.25-.25,3.7,1.31,5.18,1.23,1.18,2.43,1.01,3.84.22,2.47-1.39,4.01-3.53,5.3-5.93.31-.58.6-1.26.11-1.8-1.51-1.65-1.63-4.01-3.04-6ZM311.47,176.16c-1.2,1.81-2.98,2.65-4.46,3.84-2.65,2.13-3.32,4.27-2.27,7.33,1.11,3.26,2.91,3.93,5.82,2.16.77-.47,1.51-.98,2.24-1.49,1.42-.99,1.98-2.13,1.24-3.94-1-2.46-1.77-5.02-2.57-7.89ZM292.65,185.21c1.99-.04,5.56-2.38,6.18-4.13.16-.45.26-1.11.05-1.48-1.07-1.82-1.25-3.88-1.77-5.85-.42-1.62-1.23-1.8-2.46-.6-1.84,1.79-3.59,3.68-5.83,5.01-.55.33-1.02.82-1.1,1.5-.27,2.14,2.82,5.58,4.94,5.54ZM318.76,185.79c1.97-4.73.9-9.3,1.21-14.01-2.37.36-3.84,1.61-5.42,2.66-.77.51-.97,1.24-.82,2,.66,3.54,1.64,6.92,5.03,9.36Z"/>
      <path class="cls-3" d="M373.1,134.38c-7-6.42-13.61-13.2-19.56-20.63-2.88-3.6-6.46-6.58-9.29-10.26-2.48-3.23-5.17-6.3-8.02-9.75,2.4-.7,4.17.26,5.85.79,11.39,3.55,22.57,7.69,33.2,13.12,5.69,2.91,11.25,6.14,16.13,10.4,3.09,2.7,6.87,4.42,10.13,6.94,5.04,3.9,8.98,8.78,13.09,13.52,8.35,9.62,15.12,20.37,21.47,31.36,2.95,5.11,5.65,10.35,6.18,16.73-1.8-.16-3.06-1.07-4.24-2.15-.94-6.75-4.61-12.25-8.11-17.87-.62.89-.8,2.61-2.18,2.25-2.72-.71-5.9-.68-7.58-3.63.31-.22.63-.45.94-.67,1.34.39,2.67.83,4.02,1.16,2.57.64,3.28-.1,2.6-2.74-.45-1.73-1.14-3.38-2.07-4.91-2.13-3.48-4.47-6.8-7.63-9.45-.85-3-3.14-5.07-6.14-4.98-3.01.09-5.76-.56-8.47-1.71-.16-.08-.33-.17-.49-.25.08.16.17.33.25.49.04.78-.02,1.6.56,2.24.49,2.86.28,5.75.25,8.63-.01,1.26-.1,2.51.66,3.62-.46.77-.93,1.54-1.39,2.31,0,0-.02.02-.02.02-.45-.03-.91-.05-1.36-.08-.46-3.14-2.95-3.48-5.39-3.88-1.89-1.52-4.22-2.47-5.8-4.39-.99-1.2-1.99-1.51-3.66-1.08-2.44.64-3.05.05-4.07-2.43.44-.42.95-.23,1.45-.15,2.91.49,3.43.1,3.47-2.73.03-2.33-.66-4.55-1.19-6.78-.27-1.12-.94-2.12-2.3-2.32-2.94-.44-5.68-1.42-8.37-2.72-1.82-.87-2.11-.55-2.92,2ZM401.05,128.82c-.15-.09-.3-.19-.44-.28.09.15.19.3.28.44,0,.64.19,1.19.71,1.6.17,1.89,1.32,3.62.94,5.61-.38,2.03.86,3.19,2.42,3.86,1.74.74,3.6,1.28,5.55,1.25,1.9-.03,2.46-.84,1.31-2.32-2.51-3.21-5.3-6.19-8.7-8.5-.29-.2-.74-.15-1.12-.22-.16-.58-.34-1.14-.94-1.43ZM397.18,127.18c-.09-.65-.28-1.29-.85-1.64-2.28-1.38-4.66-2.59-7.19-3.43-.77-.26-1.75-.4-2.56.55.73,2.05,1.48,4.18,2.23,6.31-.93,4,.84,6.29,4.61,7.38,1.1.32,2.15.81,3.22,1.25,1.08.44,2.34,1.06,3.19-.01.76-.96,1.14-2.19.7-3.6-.78-2.45-1.61-4.85-3.35-6.81ZM401.74,148.84c.26-2.23-.37-4.06-1.03-5.87-.31-.86-.82-1.57-1.86-1.75-2.56-.45-4.86-1.59-7.19-2.66-1.62-.74-2.29-.31-2.19,1.32.13,2.15.81,4.27.09,6.45-.13.38.15,1.08.48,1.4,2.6,2.58,5.6,4.5,9.29,5.04,1.32.19,2.26-.44,2.4-1.87.07-.76.01-1.54.01-2.06ZM386.33,129.93c-.08-3.77-2.74-7.53-6.21-8.86-1.78-.68-3.53-1.46-5.31-2.15-.66-.26-1.38-.94-2.08-.2-.59.61-.43,1.48-.21,2.19.41,1.33,1.19,2.58,1.41,3.94.64,3.88,2.82,6.13,6.63,6.89.87.18,1.73.41,2.6.61,2.78.64,3.23.29,3.17-2.42ZM367.12,116.59c1.09-.27,2.86.74,3.58-1,.71-1.71-.24-3.23-1.25-4.62-.15-.21-.34-.39-.53-.56-3.16-2.8-7.12-3.32-11.07-3.78-1.4-.16-1.87.83-1.29,2.02,2.93,5.96,3.88,7.91,10.56,7.94ZM370.83,129.99c1.97-6.13-.83-11.32-8.57-11.39,2.23,4.25,5.32,7.51,8.57,11.39ZM373.26,112.27c-.01,2.33.12,4.35,2.09,5.24,2.18.99,4.58,1.54,7.05,1.31.49-.04,1.07-.04,1.21-.69.12-.57-.23-.95-.64-1.26-2.8-2.04-5.91-3.46-9.7-4.61Z"/>
      <path class="cls-5" d="M363.15,191.42c-2.33.89-3.47,2.96-4.74,4.87-.92,1.38-1.92,2.21-3.74,2.12-8.97-.45-16.45,3.07-23.08,8.81-.39.34-.75.7-1.49.52.42-8.19,1.76-16.25,4.82-23.88,1.77-4.41,1.8-8.61.9-13.11-.78-3.87-1.63-7.79-1.31-11.8,2.18,3.13,3.48,3.14,5.48.04.65-.31.72-.9.78-1.51,0,0,0,0,0,0,1.13-.49.38-1.94,1.42-2.65,1.7,1.3,2.45,3.56,4.53,4.54,3.73,1.76,3.91,4.99,3.12,8.46-.28,1.24-.75,2.45-1.23,3.64-1.07,2.66-1.95,2.83-4.18,1.01-1.3-1.06-2.1-2.82-4.27-3.31.06,1.86.98,2.88,1.91,3.91.77.84,1.74,1.56,1.82,2.85.18,2.41-.64,4.69-1.04,7.01-.48,2.75-1.93,3.61-5.11,3.76-.15-.09-.29-.18-.44-.27l.27.44c.22,1.89,1.71,2.58,3.2,2.86,1.41.26,2.17,1.04,3.05,2.01,1.45,1.6,2.83,3.34,4.79,4.4,1.3.7,2.59,1.1,3.94.05,1.82-1.41,2.95-5.49,2.17-7.99-1.06.58-.88,1.78-1.34,2.66-1.76,3.34-2.61,3.05-5.46,1.65-1.55-.76-2.72-2.3-4.04-3.51-.31-.29-.33-.71-.13-1.04,2.06-3.44,1.22-7.52,2.46-11.14.9-.63,1.87-.97,2.97-.75.89,2.92,3.18,4.81,5.1,6.99,1.11,1.26,2.18,2.53,3.91,2.73,3.43.39,4.79,2.46,4.96,5.65Z"/>
      <path class="cls-5" d="M420.16,165.19c1.68,2.95,4.86,2.91,7.58,3.63,1.38.36,1.56-1.36,2.18-2.25,3.5,5.62,7.18,11.13,8.11,17.87-2.53-.5-4.7-1.93-7.11-2.76-1.31-.45-1.75-1.81-2.41-2.9-.93-1.55-1.85-3.12-3.35-4.18-1.55-1.1-2.63-.72-3.16,1.12-.36,1.23-.53,2.51-.76,3.77-.11.63-.12,1.36-.67,1.75-1.63,1.15-3.73.88-5.48,1.72-1.91.91-3.53.81-5.26-.74-1.56-1.4-3.04-.76-3.85,1.23-.14.35-.31.75-.27,1.11.49,4.77-1.74,8.69-3.82,12.7-1.64,3.17-2.43,6.69-3.47,10.09-.69-.23-1.01-.63-1.14-1.14-3.72-13.61-7.43-27.23-11.14-40.85,1.18-1.41,2.45-1.18,3.68-.11,2.26,1.95,4.81,3.41,7.5,4.66.69.32,1.65.58,1.81,1.33.59,2.84,1.74,5.68.24,8.61-.64,1.24-1.46,1.69-2.8,1.2-1.25-.46-2.34-1.46-4.11-1.53,1.12,2.53,3.04,3.51,5.05,4.36,2.09.89,3.56.34,4.13-1.84.61-2.31,1.55-4.65.45-7.14-.39-.9-.57-1.96.17-3.05,1.68.33,2.88,1.59,4.24,2.46,1.32.84,2.67,1.5,4.17,1.93,3.09.88,3.48.67,4.34-2.32.93-3.25,1.57-6.52.92-10.08,1.75.24,2.7,1.75,4.25,1.35Z"/>
      <path class="cls-3" d="M336.45,138.33c-1.16-4.09-3.39-7.73-4.92-11.66-2.75-7.07-4.39-14.45-6.17-21.79-.12-.47-.01-1-.01-2.11,3.24,2.54,6.29,4.58,8.93,7.07,10.19,9.61,19.92,19.67,28.13,31.06,5.69,7.89,8.96,16.96,12.38,25.95.99,2.62,2.32,5.11,3.22,7.76,3.13,9.23,5.88,18.58,7.31,28.23.49,3.34.08,6.82.08,10.75-1.42-1.6-2.57-2.9-3.73-4.2.16-3.45.54-6.98-.15-10.34-1.38-6.73-2.8-13.48-5.26-19.94.07-.66-.06-1.24-.69-1.6-1.43-6.66-4.8-12.5-7.82-18.49-.67-1.34-1.71-2.33-2.97-3.1-1.75-2.87-4.86-4.05-7.42-5.91-.69-.5-1.47-.22-1.98.52-.26,0-.52.01-.78.02.19-1.47-.32-2.75-1.19-3.86-.74-.94-1.19-1.91-1.05-3.12l-.02.02c2.64.59,3.92,3.22,6.29,4.2,1.52.63,3.16,2.83,4.65,1.07,1.23-1.44-.2-3.37-1.33-4.76-3.47-4.26-6.93-8.55-11.05-12.23-.43-.38-.9-.41-1.53-.01-.09,1.81.1,3.79-.35,5.61-1.39,5.66-1.26,8.06-7.91,3.09-1.34-1-2.5-2.75-4.64-2.2ZM337.41,121.99c-.45,1.55-.9,2.63-1.06,3.75-.92,6.25,1.34,10.32,6.22,13.31,2.41,1.47,3.99.68,4.28-2.11.25-2.41.09-4.86.09-7.29,0-1.13-.7-1.94-1.51-2.56-2.4-1.87-4.89-3.61-8.01-5.09Z"/>
      <path class="cls-5" d="M449.62,191.55c-.75-5.11-2.47-9.93-4.55-14.6-6.56-14.71-15.39-28.02-25.34-40.64-4.61-5.84-9.89-11.07-14.72-16.71-3.42-4-7.89-6.74-12.67-9.03-4.15-2-8.09-4.42-12.08-6.74-6.66-3.88-13.66-7.14-20.83-9.83-8.6-3.23-17.16-6.74-26.28-8.43,1.94-2.49,1.9-2.47-.56-3.85-.94-.53-1.71-1.36-2.56-2.05,1.76-.29,3.25.6,4.79,1.17,16.35,6.04,32.08,13.51,47.86,20.87,5.34,2.49,10.76,4.79,15.93,7.69,3.2,1.8,5.98,3.96,8.43,6.59,8.95,9.61,16.54,20.28,23.8,31.18,6.48,9.73,12.05,19.99,17.33,30.41,1.57,3.1,3.19,6.14,5.78,8.56.91.85,1.81,1.85,1.69,3.55-2.09.25-4.04,1.12-6.03,1.87Z"/>
      <path class="cls-6" d="M420.16,165.19c-1.54.4-2.5-1.11-4.25-1.35.65,3.56.02,6.83-.92,10.08-.86,2.98-1.25,3.2-4.34,2.32-1.5-.43-2.85-1.08-4.17-1.93-1.37-.87-2.56-2.13-4.24-2.46-.75,1.09-.57,2.15-.17,3.05,1.09,2.49.15,4.83-.45,7.14-.57,2.18-2.04,2.73-4.13,1.84-2-.85-3.93-1.83-5.05-4.36,1.77.07,2.85,1.07,4.11,1.53,1.34.49,2.16.04,2.8-1.2,1.51-2.93.36-5.77-.24-8.61-.16-.75-1.12-1.01-1.81-1.33-2.69-1.25-5.24-2.71-7.5-4.66-1.23-1.07-2.5-1.3-3.68.11-2.15-5.05-3.39-10.4-4.79-15.67-1.54-5.81-4.05-10.98-8.23-15.3.81-2.54,1.1-2.87,2.92-2,2.68,1.29,5.43,2.28,8.37,2.72,1.36.2,2.03,1.2,2.3,2.32.53,2.23,1.22,4.45,1.19,6.78-.04,2.83-.56,3.23-3.47,2.73-.5-.08-1-.27-1.45.15,1.02,2.48,1.62,3.07,4.07,2.43,1.67-.44,2.67-.12,3.66,1.08,1.58,1.92,3.91,2.87,5.8,4.39-1.96.29-3.86,1.15-5.75.45-.79.97-.5,1.93-.7,2.78-.99,4.44-.5,5.52,3.57,7.49,1.26.61,2.57,1.15,3.92,1.52,2.38.64,3.99-.5,4.23-3,.17-1.78.1-3.57.13-5.36.45.03.91.05,1.36.08.02,2.05.05,4.09.05,6.13,0,4.5,3.07,7.69,7.5,7.78.75.01,1.56.11,2.17-.49,1.67-1.64,1.07-8.58-1.11-9.38-3.02-1.1-5.45-3.34-8.6-4.07.46-.77.93-1.54,1.39-2.31,2.47,1.64,5.01,3.11,8.1,3.16.88.01,1.83.17,2.55-.55,1.91-1.92,1.25-8.82-1.14-10.21-3.29-1.92-6.84-3.33-10.42-4.64-.59-.65-.52-1.46-.56-2.24l.24-.24c2.71,1.15,5.46,1.8,8.47,1.71,3.01-.09,5.3,1.98,6.14,4.98-.17.85-.85,1.61-.5,2.56.82,2.23.38,4.54.43,6.82.09,4.09.04,4.09,3.15,6.55-.31.22-.63.45-.94.67Z"/>
      <path class="cls-6" d="M322.29,215.26c-.26-1.7.03-3.35.71-4.9,2.25-5.11,2.71-10.66,3.67-16.03.94-5.26,1.27-10.72,2.72-15.82.74-2.59.16-4.57-.08-6.87-.27-2.55-.18-5.14-.19-7.71-.01-5.27-.04-10.55.05-15.82.07-4.14-.47-8.2-1.57-12.15-2.47-8.89-5.08-17.74-7.65-26.6-.36-1.23-.8-2.44-1.27-3.63-2.08-5.22-2.02-5.45,2.72-8.45,2.14,10.92,4.18,21.88,8.75,32.14.78,1.76,1.53,3.53,2.37,5.26,1.01,2.06.93,4.09.5,6.33-1.34,7.07-1.83,14.22-1.14,21.4.24,2.54.64,5.1,1.23,7.58,1.08,4.52.66,8.8-.93,13.18-3.15,8.66-4.25,17.66-3.76,26.87.12,2.29.36,4.64-1.16,6.81-1.76-.13-3.08-1.81-4.97-1.59Z"/>
      <path class="cls-6" d="M330.04,79.66c.85.69,1.62,1.52,2.56,2.05,2.46,1.38,2.49,1.36.56,3.85-2.18.04-4.36.07-6.54.14-1.77.06-3.09.6-3.87,2.5-.85,2.05-2.31,3.72-4.91,3.66-1.03-.03-1.63.5-1.91,1.52-.71,2.6-2.52,4.01-5.06,4.75-1.44.42-3.17.78-1.31,2.99.75.89-.36,2.18-.9,3.16-3.11,5.61-5.69,11.45-7.95,17.43-1.58,4.19-3.05,8.41-4.62,12.6-1.49,3.96-3.15,7.82-6.28,10.83-.95-.23-2.53,1.13-2.69.08-.34-2.32-2.44-2.17-3.55-3.29.38-.5.71-1.05,1.15-1.5,4.74-4.88,8.44-10.46,11.06-16.74.63-1.51,1.52-2.99.42-4.66.36-1.49.9-2.89,1.96-4.04.82-.24.81-.94.89-1.59,0,0-.05.06-.05.06.78-.27,1.28-.84,1.51-1.6,1.44-4.69,3.51-9.16,4.73-13.93.4-1.56.44-3.26,1.44-4.64,3.94.35,6.45-1.53,7.86-5.08.75-1.89,1.41-3.85,3.89-4.09,3.41-.38,6.84-.73,9.15-3.78.79-.33,1.5-.96,2.46-.69Z"/>
      <path class="cls-6" d="M352.35,143.55c-.14,1.2.31,2.18,1.05,3.12.87,1.11,1.38,2.39,1.2,3.86-.95.49-.47,1.73-1.24,2.32-1.11.17-1.56,1.03-2.02,1.91-.56,1.06-.94,2.28-2.24,2.74-.81-.06-1.44-.47-2-1.03-1.18-1.18-2.36-2.36-3.57-3.51-.56-.54-1.21-1.01-2.05-.6-.69.34-.68,1.03-.69,1.66-.02,1.15,0,2.31-.01,3.46,0,0,0,0,0,0-.62.32-.74.9-.78,1.51-2,3.1-3.3,3.09-5.48-.04-.28-6.96.48-13.81,1.94-20.61,2.15-.55,3.3,1.2,4.65,2.21,6.65,4.97,6.53,2.57,7.91-3.09.45-1.82.25-3.8.35-5.61.63-.39,1.11-.37,1.53.01,4.12,3.68,7.58,7.97,11.05,12.23,1.13,1.39,2.56,3.32,1.33,4.76-1.49,1.76-3.13-.44-4.65-1.07-2.37-.98-3.65-3.61-6.29-4.2-.12-.37-.23-.43-.29-.18,0,.03.2.1.31.15Z"/>
      <path class="cls-5" d="M390.95,222.72c-.18-2.19-.09-4.35.83-6.41,1.6-3.57.35-7.21-.43-10.55-2.52-10.82-4.87-21.68-8.43-32.26-2.7-8.01-5.89-15.83-8.58-23.83-.16-.48-.23-.99-.34-1.48,1.35.27,2.46-.64,3.73-.77,2.1,6.98,4.28,13.95,6.29,20.96,4.13,14.4,8.17,28.83,12.27,43.24.7,2.46,1.57,4.88,2.34,7.32.37,1.2.99,2.39.26,4.02-2.62-2.12-5.27-.73-7.94-.22Z"/>
      <path class="cls-5" d="M373.31,145.84c-2.19-2.17-3.89-4.69-5.42-7.36-1.32-2.33-2.69-4.68-4.56-6.62-8.61-8.92-16.24-18.77-25.49-27.08-2.47-2.22-4.61-4.78-7.34-6.75-1.43-1.04-2.61-2.45-3.79-3.8-.66-.75-1.36-1.72-.95-2.77.43-1.14,1.61-1.09,2.65-1.1.77,0,1.54-.03,2.3-.04,6.21,8.3,12.64,16.43,19.68,24.06,6.95,7.53,13.7,15.23,20.99,22.44,2,1.98,3.71,4.16,4.84,6.76-1.67-.14-1.92,1.53-2.9,2.27Z"/>
      <path class="cls-5" d="M376.25,179.09c2.46,6.46,3.88,13.21,5.26,19.94.69,3.37.31,6.89.15,10.34-3.53-3.4-7.55-6.06-12.03-8.03-1.36-.6-2.28-1.4-2.83-2.86-.9-2.38-2.06-4.66-3.11-6.98,1.85-.29,2.62,1.4,3.89,2.15,1.51.89,2.64,1.11,3.84-.67,1.71-2.53,2.95-5.11,2.54-8.22-.32-2.37.34-4.26,2.3-5.67Z"/>
      <path class="cls-6" d="M280.62,148.26c-.74,2.76-2.2,3.95-4.77,3.78-.75-.05-1.49-.41-2.24-.48-.52-.05-1,.3-1.17.83-.18.56.08.98.6,1.24.78.38,1.57.74,2.61,1.24-1.54,1.47-3.6,1.88-4.8,3.41-1.14,1.46-2.84-.96-3.82.48-.68,1-.31,2.59-1.6,3.34-.54.31-1.14.55-1.75.72-.51.14-1.08,0-1.38-.44-.28-.43-.29-1,.02-1.46.8-1.16,1.56-2.35,2.45-3.44.96-1.18,1.45-2.4.87-3.94-1.15.42-1.22,1.56-1.65,2.41-.59,1.17-1.27,2.22-2.43,2.91-2.44,1.46-3.43,1.05-4.26-1.83-.15-.5-.28-.98-1.13-1.43-.62,1.56-.6,3.45-1.94,4.62-.71.61-1.2,1.97-2.47,1.18-1.05-.65-1.56-1.76-1.24-3.01.41-1.61.97-3.18,1.46-4.77.21-.07.42-.14.63-.2.43.06.72-.16.96-.49,2.29-.18,4.23-1.21,6.11-2.42,2.15.21,4.23-.14,6.27-.78.39,0,.79-.02,1.18-.02,1.58,1.58,3.17,1.63,4.96.26,2.23-1.7,4.57-3.26,6.87-4.88.91.88,1.81,1.76,1.65,3.19Z"/>
      <path class="cls-6" d="M376.25,179.09c-1.95,1.41-2.61,3.3-2.3,5.67.41,3.1-.83,5.69-2.54,8.22-1.2,1.79-2.32,1.57-3.84.67-1.27-.75-2.04-2.44-3.89-2.15,0,0-.28.03-.28.03,0,0-.26-.11-.26-.11-.17-3.19-1.53-5.26-4.96-5.65-1.73-.2-2.8-1.47-3.91-2.73-1.92-2.18-4.21-4.07-5.1-6.99.26-.04.52-.08.78-.12,1.96,1.77,3.44,4.03,5.88,5.3,2.66,1.39,3.88,1.06,4.97-1.79.63-1.65,1.08-3.38,1.62-5.07.98-.78,1.32-2.37,2.96-2.33.84,2.81,3.46,3.98,5.41,5.74,1.99,1.8,2.36,1.7,4.77-.3.63.36.76.94.69,1.6ZM364.31,175.42c-.67,2.48-1.3,4.54-1.76,6.65-.3,1.37-.58,2.89.46,4.06,1.45,1.63,3.03,3.14,4.59,4.66.72.7,1.59.75,2.46.19,1.62-1.03,2.75-7.73,1.53-9.19-.16-.2-.34-.41-.56-.53-2.53-1.36-4.16-3.77-6.73-5.84Z"/>
      <path class="cls-5" d="M318.43,84.12c-2.48.24-3.15,2.2-3.89,4.09-1.41,3.56-3.92,5.43-7.86,5.08.07-.89.22-1.76.65-2.57,2.39-4.54,5.77-8.71,5.26-14.33-.05-.57.35-1.23.67-1.76.38-.61,1.07-.59,1.72-.51,2.16.72,4.05,2.21,6.43,2.34,1.29,1.74,1,3.27-.49,4.78-.88.9-2.03,1.6-2.49,2.87Z"/>
      <path class="cls-1" d="M278.97,145.07c-2.29,1.62-4.64,3.18-6.87,4.88-1.8,1.37-3.39,1.33-4.96-.26,6.54-3.59,12.45-8.01,17.35-13.67,4.53-5.23,8.61-10.77,11.72-16.98,1.11,1.66.21,3.15-.42,4.66-2.62,6.28-6.32,11.85-11.06,16.74-.44.45-.77,1-1.15,1.5-1.67.84-3.26,1.81-4.61,3.14Z"/>
      <path class="cls-1" d="M314.99,74.14c-.65-.08-1.34-.1-1.72.51-.33.53-.73,1.19-.67,1.76.51,5.62-2.87,9.79-5.26,14.33-.43.82-.58,1.68-.65,2.57-1.01,1.38-1.05,3.08-1.45,4.64-1.22,4.77-3.28,9.24-4.73,13.93-.23.75-.73,1.33-1.51,1.6,2.28-7.59,4.26-15.25,5.47-23.1.4-2.58,1.72-4.92,3.42-6.78,1.77-1.94,2.03-3.93,1.76-6.33-.3-2.62-.04-5.15,2.84-6.79.84,1.24,1.66,2.45,2.49,3.67Z"/>
      <path class="cls-6" d="M307.48,193.78c2.25-1.66,4.44-3.42,6.77-4.96,2.49-1.65,4.15-.76,4.1,2.17-.06,4.33-1.06,8.51-2.22,12.66,0,0-.03,0-.03,0-.24-.24-.48-.48-.72-.73-2.01-3.59-4.56-6.72-7.9-9.16Z"/>
      <path class="cls-6" d="M269.74,193.68c1.46-1.93,2.77-3.93,2.38-6.5.71,0,1.02-.1,1.18.01,3.68,2.57,3.7,2.55,7.07-.34,2.13-1.83,3.29-4.4,5.23-7.1.55,3.42,3.16,5.36,3.32,8.39-5.48-.09-10.45,1.73-15.33,3.97-1.26.58-2.39,1.48-3.85,1.56Z"/>
      <path class="cls-6" d="M392.39,236.86c.24-2.41.2-4.77-.44-7.17-.59-2.23.55-3.99,2.64-4.84,1.73-.7,3.44.13,3.19,1.88-.57,3.96-.94,8.15-5.12,10.39l-.28-.26Z"/>
      <path class="cls-3" d="M318.43,84.12c.47-1.27,1.61-1.97,2.49-2.87,1.49-1.51,1.78-3.04.49-4.78,1.85-.15,3.4-.9,4.85-2.07,1.23-.99,1.96-.53,2.16,1.07.22,1.72-1,3.18-.84,4.87-2.31,3.05-5.74,3.4-9.15,3.78Z"/>
      <path class="cls-6" d="M329.02,62.19c-1.49,3.18-3.77,6.05-3.75,9.82,0,.95-.75,1.3-1.59,1.29-1.27-.01-2.54-.12-3.82-.19-.31-1.72.75-3.2.86-4.84,1.22-1.28,2.31-2.72,3.68-3.81,1.34-1.06,2.41-2.91,4.62-2.28Z"/>
      <path class="cls-4" d="M329.02,62.19c-2.21-.63-3.28,1.22-4.62,2.28-1.37,1.09-2.47,2.52-3.68,3.81-.1-.85-.19-1.69-.29-2.54-.57,2.53-3.1,3.29-4.47,5.06-.02-.25-.03-.51-.05-.76,0,0,.05-.2.05-.2,2.9-6.71,7.64-9.45,14.63-8.43-.37.57-.94.73-1.56.79Z"/>
      <path class="cls-6" d="M293.03,188.19c2.64-1.95,5.8-3,8.72-5.5.25,3.09,1.37,5.42,1.15,8-3.23-1.07-6.4-2.4-9.87-2.5Z"/>
      <path class="cls-4" d="M452.77,193.75c2.66-.89,2.94-.82,3.61,1.28,1.08,3.39.98,6.74-.7,10.82-.43-1.95-.7-3.2-.98-4.44.8-2.92-.41-5.33-1.94-7.66Z"/>
      <path class="cls-4" d="M322.19,218.63q2.94.98,1.71,3.38c-1.37,2.67-3.5,4.53-6.14,5.99-.34-1,.43-1.41.75-2,2.03-2.05,3.57-4.35,3.67-7.36Z"/>
      <path class="cls-3" d="M452.77,193.75c1.52,2.33,2.73,4.75,1.94,7.66-1.76-.86-2.67-2.58-3.82-3.99-1.24-1.51-.52-2.67,1.88-3.68Z"/>
      <path class="cls-5" d="M315.96,70.8c1.38-1.77,3.91-2.53,4.47-5.06.1.85.19,1.69.29,2.54-.11,1.65-1.17,3.13-.86,4.85-2,.4-3.42-.18-3.91-2.33Z"/>
      <path class="cls-6" d="M322.19,218.63c-.1,3.01-1.65,5.31-3.67,7.36,0-1.4-.05-2.79-.01-4.19.07-2.8.31-2.99,3.69-3.17Z"/>
      <path class="cls-5" d="M265.96,149.72c-2.04.64-4.12.99-6.27.78,1.49-1.8,2.98-3.59,4.58-5.51,1.41,1.48,1.15,3.25,1.69,4.73Z"/>
      <path class="cls-1" d="M373.31,145.84c.98-.74,1.23-2.41,2.9-2.27.7,1.2,1.41,2.39,1.52,3.83-1.27.14-2.38,1.04-3.73.77-.35-.74-.83-1.45-.69-2.33Z"/>
      <path class="cls-6" d="M302.89,190.66c.81-.04,1.41.22,1.57,1.1-.55-.32-1.29-.39-1.57-1.1Z"/>
      <path class="cls-1" d="M299.05,113.41c-.08.65-.07,1.35-.89,1.59.18-.59.22-1.27.89-1.59Z"/>
      <path class="cls-5" d="M315.95,69.83s-.05.2-.05.2c-.08,0-.22.02-.22.01-.05-.27.04-.34.26-.22Z"/>
      <path class="cls-3" d="M253.57,152.92c-.24.32-.53.55-.96.49.22-.36.54-.52.96-.49Z"/>
      <path class="cls-6" d="M392.67,237.13c-.12.29-.35.42-.54.24-.18-.18-.04-.4.26-.51,0,0,.28.26.28.26Z"/>
      <path class="cls-3" d="M315.38,202.94c.24.24.48.48.72.73-.42-.07-.66-.31-.72-.73Z"/>
      <path class="cls-5" d="M174.83,131.16c2.35,3.94,5.37,7.35,8.44,10.73-.28.75-.94.87-1.62.96-.6,0-1.14.15-1.45.73-1.6.03-3.19.05-4.79.08-2.6-2.9-3.98-6.43-5.13-10.07,1.61-.64,3.14-1.42,4.54-2.43Z"/>
      <path class="cls-6" d="M174.83,131.16c-1.41,1.01-2.94,1.79-4.54,2.43-1.24-2.81-2.4-5.65-3.14-8.64,1.03-.54,2.06-1.08,3.09-1.62,1.87,2.41,2.61,5.48,4.6,7.83Z"/>
      <path class="cls-6" d="M213.14,164.43c-.34,1.22-1.14,1.98-2.36,2.22-1.9.38-4.48-1.99-4.29-3.92.04-.35.18-.84.44-.99,1.2-.73,2.43-.49,3.64.08,1.17.56,2.28,1.16,2.58,2.61Z"/>
      <path class="cls-6" d="M184.82,152.81c.1.11.2.23.31.34-.11-.1-.23-.2-.34-.3,0,0,.04-.04.04-.04Z"/>
      <path class="cls-6" d="M147.11,150.46c2.42,1.07,3.81,2.32,4.41,4.2.65,2.05,1.8,3.69,3.43,5,2.14,1.7,2.38,3.7,1.46,6.17-.68,1.82-1.37,3.59-2.57,5.12-.72.92-1.58,1.28-2.63.4-3.1-2.61-6.02-5.29-4.98-9.99.75-3.38.7-6.85.87-10.91Z"/>
      <path class="cls-6" d="M186.66,168.41c4.01,2.75,5.32,6.59,6.41,10.51.54,1.92.14,3.79-.91,5.5-1.12,1.82-2.77,2.22-4.46.87-1.93-1.54-3.13-3.67-4.19-5.85-.47-.98-.39-1.98.33-2.87,1.84-2.26,2.32-5.03,2.81-8.15Z"/>
      <path class="cls-6" d="M153.18,130.32c.87,1.84,1.39,3.27,2.17,4.55,2.5,4.07,1.49,7.8-.94,11.43-1.67,2.49-3.72,2.54-5.55.17-1.57-2.04-2.35-4.12-1.08-6.69,1.53-3.09,2.8-6.3,5.39-9.46Z"/>
      <path class="cls-6" d="M159.63,162.38c2.12,3.41,3.69,6.56,6.86,8.37,1.44.82,1.22,1.95.83,3.32-.57,1.99-.85,4.27-3.09,4.93-2.21.65-3.76-1.04-5.4-2.34-2.48-1.96-3.1-4.1-1.74-7.03,1.02-2.2,1.62-4.58,2.54-7.26Z"/>
      <path class="cls-6" d="M184.06,170.41c-.02.33.06,1.25-.15,2.11-.79,3.38-4.13,4.51-6.8,2.33-.59-.48-1.12-1.05-1.66-1.6-2.12-2.14-2.39-5.91-.57-8.18.23-.29.54-.6.88-.71,2.31-.72,4.49,0,6.61.8,1.83.7,1.69,2.35,1.69,3.9,0,.26,0,.51,0,1.33Z"/>
      <path class="cls-6" d="M158.94,142.11c1.45,2.88,2.81,5.31,3.9,7.86.93,2.16-1.6,7.73-3.71,8.61-.12.05-.25.16-.35.14-1.69-.37-3.15-1.27-3.96-2.73-.8-1.45-2.55-2.95-1.09-4.84,2.04-2.64,3.43-5.66,5.2-9.04Z"/>
      <path class="cls-6" d="M165.08,153.41c2.33,3.5,5.33,5.86,7.65,8.81,1.28,1.63-.31,3.09-1.33,4.35-.89,1.1-1.9,2.18-3.57,1.3-2.56-1.35-4.48-3.34-5.84-5.88-.39-.73-.35-1.46.01-2.2.94-1.92,1.86-3.85,3.08-6.38Z"/>
      <path class="cls-6" d="M169.7,171.85c3.24,2.33,5.27,5.1,8.4,6.41.4.17.93.85.85,1.17-.48,2.03-1.45,3.81-3.14,5.13-1.32,1.03-2.62.7-3.95.03-1.65-.83-2.79-2.23-4.04-3.51-.58-.6-.83-1.31-.25-2.06,1.47-1.89,1.67-4.22,2.13-7.16Z"/>
      <path class="cls-5" d="M162.11,187.57c-.4.48-.83.94-1.21,1.43-1.54,1.97-2.34,2.17-4.36.72-1.04-.75-1.93-1.64-3.35-1.43,0,0-.03.01-.03.01-.09-.42-.35-.67-.77-.76,0,0,0-.02,0-.02-.32-1.86.36-3.58.73-5.34.33-.98.66-1.95.99-2.93.96-.07,1.92-.14,2.88-.21,1.69.24,2.81,1.57,4.28,2.25.92.42,1.14,1.25,1.14,2.18,0,1.38.08,2.76-.3,4.1Z"/>
      <path class="cls-6" d="M148.51,186.05c-.88-.41-1.53-1.09-1.5-2.06.15-4.22-1.38-8.35-.68-12.81,1.61.1,2.23,1.4,3.05,2.43.03,1.02.15,1.89,1.42.85,1.45.02,2.59.27,1.97,2.2-.58,1.8-1.32,3.57-1.28,5.52-.99,1.29-1.98,2.58-2.97,3.87Z"/>
      <path class="cls-2" d="M148.51,186.05c.99-1.29,1.98-2.58,2.97-3.87.55,0,1.09,0,1.64,0-.38,1.76-1.05,3.49-.73,5.34-1.38-.19-2.53.7-3.84.8-.01-.76-.02-1.51-.04-2.27Z"/>
      <path class="cls-2" d="M156.99,179.04c-.96.07-1.92.14-2.88.21-.23-1.11.21-1.99.96-2.79,1.23.43,1.86,1.29,1.92,2.58Z"/>
      <path class="cls-2" d="M150.8,174.47c-1.27,1.04-1.39.17-1.42-.85.6.07,1.15.24,1.42.85Z"/>
      <path class="cls-5" d="M38.93,162.13c1.1-1.74,2.47-3.34,3.04-5.38,2.54-3.59,5.13-7.15,7.61-10.79,1.02-1.5,2.33-2.44,4.07-2.38,2.84.1,5.57-.31,8.24-1.17,1.21-.39,1.65.05,1.79,1.14-1.24,1.85-.84,3.95-.86,5.97-.07,7.06-.05,7.06-6.52,9.7-.12.05-.23.12-.35.16-3.59,1.32-5.79-.48-5.12-4.31.33-1.86.33-3.65.21-5.66-1.58.57-1.85,1.59-2.2,2.73-1.07,3.52-.52,7.1-.62,10.65-1.8.89-3.55,1.9-5.41,2.65-2.89,1.18-3.77.55-3.91-2.57-.01-.25.02-.5.03-.75Z"/>
      <path class="cls-2" d="M48.22,162.8c.1-3.55-.45-7.13.62-10.65.35-1.14.62-2.17,2.2-2.73.12,2,.11,3.8-.21,5.66-.67,3.83,1.53,5.63,5.12,4.31.12-.04.23-.12.35-.16,6.47-2.64,6.44-2.64,6.52-9.7.02-2.01-.38-4.12.86-5.97.71,0,1.42,0,2.13-.01-.65,2.35-.85,4.74-.72,7.16.1,1.96.76,2.48,2.67,2.06.98-.21,1.9-.71,2.84-1.08,1.53-.61,2.82-1.76,4.52-1.96.26.25.51.49.77.74-.28,1.26-1.7,1.38-2.32,2.31-1.8,1.51-3.93,2.37-6.15,2.99-1.2.34-2.22.82-2.26,2.21-.06,2.3-.15,4.61.02,6.9.09,1.26.65,2.51,2.2,2.79.33.35.64.3.92-.07,2.03-.8,4.07-1.61,6.1-2.41.85.52.04,1.02-.01,1.53-1.43,1.36-2.76,2.86-4.92,3.12-1.35.16-2.18,1.1-2.84,2.21-.49-.22-.99-.45-1.48-.67,0,0-.02-.03-.02-.03.07-1.16.01-2.24-1.53-2.35-.55-3.32-1.19-6.64-.01-9.96-.17-.61-.45-.61-.82-.15-2.56,1.42-5.12,2.89-7.89,3.86-1.22.42-2,1.06-2.19,2.35-.69,0-1.39-.01-2.08-.02-.05-.64-.2-1.22-.87-1.5-.34-.56-.89-.71-1.49-.76Z"/>
      <path class="cls-5" d="M80.35,121.63c-1.05,4-2.68,7.65-2.96,11.63-.06.83-.71,1.31-1.39,1.72-2.22,1.32-4.65,2.17-7.07,2.98-1.82.6-3.22-.37-3.05-2.28.41-4.5,1.32-8.97,5.7-11.48,2.6-1.49,5.27-3.12,8.76-2.57Z"/>
      <path class="cls-5" d="M75.11,149.72c-1.7.21-3,1.35-4.52,1.96-.94.38-1.86.87-2.84,1.08-1.91.42-2.57-.11-2.67-2.06-.13-2.42.07-4.82.72-7.16.16-.77.32-1.63,1.09-1.94,2.85-1.14,5.73-2.23,8.63-3.24,1.25-.44,2.18.08,1.74,1.49-.63,2.02-.63,4.06-.52,6.09.08,1.61-.84,2.62-1.62,3.77Z"/>
      <path class="cls-6" d="M94.24,118.97c-.42,2.9-1.3,5.04-1.83,7.27-.88,3.7-3.39,5.22-6.81,5.78-.38.06-.77.06-1.15.13-4.51.85-4.73.65-3.94-3.72.67-3.72,2.67-6.3,6.37-7.39,2.3-.68,4.62-1.3,7.36-2.06Z"/>
      <path class="cls-6" d="M98.69,116.57c-2.53-.01-3.21-.9-2.49-3.3.68-2.27,2.29-3.65,4.44-4.4,2.16-.75,4.35-1.39,6.54-2.05.87-.26,1.83-.48,2.43.41.46.67.17,1.47-.1,2.2-1.77,4.79-5.36,7.16-10.82,7.13Z"/>
      <path class="cls-6" d="M65.23,129.76c-.97,2.48-2.01,4.92-1.67,7.71.14,1.12-.56,1.92-1.6,2.36-1.89.79-3.85,1.35-5.89,1.43-1.63.06-2.37-1.08-1.32-2.14,3.3-3.31,6-7.27,10.23-9.59l.26.22Z"/>
      <path class="cls-6" d="M103.66,119.06c-2.23,4.31-4.44,7.96-7.73,11.07-2.08-6.61.22-10.03,7.73-11.07Z"/>
      <path class="cls-6" d="M82.18,118.14c3.37-3.18,6.86-5.18,11.14-5.94-.33,4.56-.83,5.32-4.52,5.83-2.02.28-4.05,1.61-6.63.11Z"/>
      <path class="cls-2" d="M79.06,146.67c.24.24.47.48.71.73-.26.46-.66.83-1.1.37-.44-.45-.07-.85.39-1.1Z"/>
      <path class="cls-6" d="M64.97,129.53c.17-.31.33-.63.5-.94.09.08.25.15.26.25.07.42-.18.69-.5.91,0,0-.26-.22-.26-.22Z"/>
      <path class="cls-6" d="M63.57,168.99c1.55.1,1.6,1.18,1.53,2.35-2.18.19-3.66,1.74-5.35,2.84-1.42.92-2.86,1.65-4.47,2.11-2.86.82-3.49.49-4.37-2.47-.86-2.88-.4-5.82-.34-8.75.7,0,1.39.01,2.09.02.03,1.52.05,3.04.08,4.57.07,3.12.81,3.7,3.93,3.25.94-.13,1.62-.64,2.37-1.12,1.49-.95,3.02-1.86,4.53-2.79Z"/>
      <path class="cls-6" d="M48.22,162.8c.6.05,1.15.2,1.49.76-4.03,3.36-8.27,6.1-13.92,4.72-.26-1.65.38-3.15.86-4.66.34-1.07,1.16-1.53,2.27-1.49-.01.25-.04.5-.03.75.14,3.12,1.02,3.75,3.91,2.57,1.85-.76,3.61-1.76,5.41-2.65Z"/>
      <path class="cls-6" d="M65.13,171.36c.49.22.99.45,1.48.67.02,1.91-.04,3.83.08,5.74.18,3.01,1.38,3.73,4.2,2.69.58-.22,1.2-.36,1.8-.51.08-.02.2.14.47.33-.68,1.39-1.8,2.29-3.21,2.91-2.8,1.23-3.97.49-4.99-2.43-1.13-3.22-.33-6.27.17-9.39Z"/>
      <path class="cls-2" d="M126.13,168.29c.26,0,.53,0,.79,0-.82,1.14-.67,2.77-1.84,3.72-2.78,2.28-3.18,5.29-2.72,8.59-.3,0-.6,0-.9.01-.11-.23-.2-.47-.32-.69-.61-1.16-.4-3.12-2.34-3.01-1.7.09-3.17.85-3.62,2.81-.24,1.04-1.1,1.69-1.94,2.28-1.38.98-1.85,2.36-1.85,3.97-.24,0-.47,0-.71.03-1.27-.01-2.54-.02-3.82-.04.04-1.06-.36-2.24.74-3.05,4.09-1.13,6.5-4.19,8.66-7.54.42-.65.11-1.24-.2-1.79-1.5-2.67-2.31-5.56-2.47-9.16-3.04,2.74-5.45,5.39-8.68,7-.34.17-.4.9-.59,1.37-1.71.28-2.24,1.43-2.21,3-1.11.08-1.5,1.15-2.3,1.67-.87.07-1.55-.42-2.28-.76.84-.96,1.74-1.87,2.5-2.89.75-1.01,1.61-2.07.93-3.48-1.33-2.77-1.14-5.72-1.11-8.66.01-1.01.16-2.07-.79-2.82.53-2,1.13-3.92,3.8-3.73-.11.75-.14,1.52-.34,2.24-.74,2.63-.58,5.32-.33,7.96.25,2.68,1.35,3.23,3.87,2.08,2.22-1.01,4.11-2.52,5.66-4.44,1.03-1.29,1.27-2.55.66-4.22-1.14-3.1-1.78-6.35-1.71-9.7.33-.66.92-.82,1.59-.79.46,2.86.61,5.78,1.63,8.52.75,2,1.92,2.44,3.45,1.08,2.16-1.92,4.9-3.2,6.48-5.77,2.65.65,2.86,1.27,1.57,4.55-.09-.62.15-1.41-.45-1.78-.77-.47-1.04.34-1.43.8-1.67,1.95-3.38,3.85-5.64,5.16-1.51.88-2.07,2.22-1.82,3.9.36,2.4.82,4.78,2.02,6.94,1.26,2.28,2.12,2.55,4.15.83,1.45-1.22,2.61-2.78,3.9-4.18Z"/>
      <path class="cls-6" d="M97.54,176.7c.73.33,1.42.82,2.28.76-.83,1.69-2.23,2.77-3.87,3.57-1.01.5-1.5,1.22-1.54,2.41-.07,2.46.19,4.83,1.17,7.12.59,1.37,1.4,1.71,2.67.87,2.52-1.65,4.35-3.92,5.89-6.46.35-.58.27-1.22.05-1.85-.83-2.41-.98-5.01-2.08-7.34-.04-1.57.5-2.72,2.21-3,.03,3.72.81,7.19,3.27,10.13-1.1.81-.69,1.98-.74,3.05-2.48,2.91-4.87,5.9-8.39,7.72-1.56.81-2.38.53-3.42-.97-1.91-2.75-2.38-5.87-2.79-8.98-.22-1.66-.68-3.23-.96-4.86-.05-.18-.05-.37,0-.55,1.25.76,2.41.52,3.55-.25.83-.56,1.55-1.36,2.67-1.37Z"/>
      <path class="cls-6" d="M110.68,185.99c.24-.02.47-.03.71-.03,1.28,1.75,1.25,4.08,2.57,5.82.61.81,1.15,1.76,2.34,1.71,2.3-.1,6.25-4.97,5.62-7.22-.53-1.9-.34-3.78-.46-5.66.3,0,.6,0,.9-.01.91.8,1.18,1.92,1.54,3.01.67,2,1.63,3.78,4.15,4.08-.26.56-.35,1.11-.55,1.15-4.02.82-5.79,4.61-8.86,6.68-2.59,1.74-3.9,1.74-5.72-.81-1.84-2.58-2.31-5.6-2.23-8.71Z"/>
      <path class="cls-6" d="M129.77,121.77c-.14,5.08,1.49,9.35-1.37,13.35-1.46,2.04-3.55,3.3-5.57,4.62-1.54,1.01-2.47.56-2.81-1.13-.36-1.75-.68-3.52-.78-5.29-.16-2.98.71-5.58,3.4-7.26,2.05-1.28,4.14-2.5,7.12-4.29Z"/>
      <path class="cls-5" d="M110.67,149.04c-.07,3.35.57,6.6,1.71,9.7.61,1.67.37,2.94-.66,4.22-1.54,1.92-3.43,3.42-5.66,4.44-2.53,1.15-3.62.61-3.87-2.08-.25-2.65-.41-5.33.33-7.96.2-.72.24-1.49.34-2.24.22-.06.45-.11.67-.15,1.62.19,2.4-.59,2.48-2.17,1.25-1.62,2.97-2.66,4.65-3.75Z"/>
      <path class="cls-5" d="M97.54,176.7c-1.12.01-1.84.81-2.67,1.37-1.14.77-2.31,1.01-3.55.25-.42-2.33.97-4.21,1.64-6.24,1.54-4.63,3.39-9.14,6.12-13.23.95.75.8,1.81.79,2.82-.03,2.94-.22,5.89,1.11,8.66.68,1.41-.19,2.47-.93,3.48-.76,1.02-1.66,1.93-2.5,2.89Z"/>
      <path class="cls-5" d="M123.82,152.08c-1.58,2.57-4.32,3.85-6.48,5.77-1.53,1.36-2.7.93-3.45-1.08-1.02-2.73-1.17-5.66-1.63-8.52.79-.58.7-1.48.82-2.3.49-.27.98-.54,1.47-.81.94,0,1.83.34,2.49.9,2.31,1.96,4.53,4.02,6.78,6.04Z"/>
      <path class="cls-2" d="M114.56,145.14c-.49.27-.98.54-1.47.81-.03-.31-.06-.63-.09-.94.04-.24.04-.5.13-.73.29-.71.79-1.52,1.58-1.08.91.51-.06,1.28-.15,1.94Z"/>
      <path class="cls-6" d="M106.02,152.8c-.08,1.58-.85,2.35-2.48,2.17.33-1.29,1.09-2.09,2.48-2.17Z"/>
      <path class="cls-7" d="M139.19,80.28c.73.34.37.62-.04.91.01-.3.03-.61.04-.91Z"/>
      <path class="cls-6" d="M170.17,121.9c0,.31.01.61.02.92-.54-.29-.63-.6-.02-.92Z"/>
      <path class="cls-5" d="M126.13,168.29c-1.29,1.41-2.45,2.96-3.9,4.18-2.03,1.72-2.89,1.45-4.15-.83-1.2-2.16-1.66-4.54-2.02-6.94-.25-1.68.31-3.02,1.82-3.9,2.26-1.31,3.97-3.21,5.64-5.16.39-.45.66-1.27,1.43-.8.6.37.37,1.17.45,1.78-.33,1.82.19,3.62,1.05,5.05,1.45,2.41,1.06,4.47-.32,6.61Z"/>
      <path class="cls-3" d="M180.21,143.58c.31-.58.84-.73,1.45-.73.64,1.12,2.93.42,2.74,2.73-1.74-.05-3-.94-4.19-2Z"/>
      <path class="cls-3" d="M202.48,157.52c-1.5-.95-2.17-2.3-2.12-4.57,1.74,1.36,1.76,3.03,2.26,4.44,0,0-.14.12-.14.12Z"/>
      <path class="cls-5" d="M67.36,167.66c-1.55-.29-2.1-1.53-2.2-2.79-.17-2.29-.08-4.6-.02-6.9.04-1.39,1.05-1.87,2.26-2.21,2.22-.63,4.35-1.49,6.15-2.99,2.35.78,3.58,2.28,3.18,4.87-.08.49-.16,1.1.05,1.51,1.56,2.98-.01,4.66-2.41,6.03-2.03.8-4.07,1.61-6.1,2.41-.31.02-.61.04-.92.07Z"/>
      <path class="cls-2" d="M152.39,187.54c.41.1.67.35.77.76-.26-.25-.51-.51-.77-.76Z"/>
      <path class="cls-2" d="M278.97,145.07c1.35-1.32,2.93-2.29,4.61-3.14,1.12,1.13,3.22.97,3.55,3.29.15,1.05,1.73-.31,2.69-.08-1.93,3.56-4.46,6.45-8.5,7.68l-.02-.02c.23-.83.53-1.64.69-2.48.2-1.08.05-2.01-1.36-2.07.16-1.43-.75-2.31-1.65-3.19Z"/>
      <path class="cls-5" d="M257.37,161.27c1.06.03,2.27.03,2.29,1.7.02,1.79-1.53,3.57-3.19,3.69-1.7.13-2.88-.8-2.91-2.28-.03-1.69,1.58-3.04,3.81-3.11Z"/>
      <path class="cls-2" d="M281.31,152.83c-.18.33-.69.72-.77.54-.36-.86.49-.36.75-.56,0,0,.02.02.02.02Z"/>
      <path class="cls-6" d="M318.78,150.61c.38,2.76,1.13,5.15,1.16,7.68.02,1.14.07,2.3.27,3.42.78,4.25-.88,7.36-4.76,9.2-1.46.69-2.5.41-3.29-.81-1.18-1.82-2.28-3.67-2.31-5.98-.02-1.73.03-3.21,1.79-4.27,1.97-1.18,2.75-3.35,3.44-5.4.61-1.81,1.6-3.05,3.69-3.85Z"/>
      <path class="cls-6" d="M279.31,168.52c1.49,3.08,1.55,6.24,3.85,8.4.48.45.5,1.19.13,1.8-1.54,2.5-2.86,5.14-5.21,7.08-1.43,1.18-2.29.62-3.17-.54-1.78-2.38-1.79-5.21-1.06-7.75.94-3.28,2.66-6.33,5.46-8.99Z"/>
      <path class="cls-6" d="M291.71,164.23c.36,1.11.8,2.16,1.03,3.26.75,3.54-1.63,7.43-5.1,8.34-.71.19-1.55.22-2.26.05-2.24-.53-3.56-3.45-3.3-7.04.2-2.77,1.29-4.05,3.86-4.37,1.01-.12,2.04-.05,3.07-.09.88-.03,1.75-.1,2.71-.15Z"/>
      <path class="cls-6" d="M307.61,142.34c2.25,2.92,3.15,6.35,5.59,8.82.59.6.54,1.35.23,2.14-1.13,2.87-3.99,5.29-5.79,4.84-1.38-.35-4.49-5.07-4.46-6.83,0-.37.14-.76.31-1.09,1.35-2.57,2.32-5.35,4.13-7.88Z"/>
      <path class="cls-6" d="M301.68,153.86c1.42,1.99,1.54,4.35,3.04,6,.49.54.2,1.21-.11,1.8-1.28,2.41-2.83,4.55-5.3,5.93-1.41.79-2.6.96-3.84-.22-1.55-1.48-2.35-3.93-1.31-5.18,2.36-2.83,4.92-5.49,7.51-8.34Z"/>
      <path class="cls-6" d="M311.47,176.16c.8,2.87,1.57,5.43,2.57,7.89.74,1.81.18,2.95-1.24,3.94-.74.51-1.48,1.03-2.24,1.49-2.91,1.78-4.71,1.1-5.82-2.16-1.04-3.06-.37-5.19,2.27-7.33,1.48-1.19,3.26-2.03,4.46-3.84Z"/>
      <path class="cls-5" d="M292.65,185.21c-2.12.04-5.21-3.4-4.94-5.54.09-.68.56-1.18,1.1-1.5,2.24-1.33,3.99-3.21,5.83-5.01,1.23-1.2,2.03-1.02,2.46.6.52,1.97.7,4.03,1.77,5.85.21.36.11,1.02-.05,1.48-.62,1.75-4.19,4.09-6.18,4.13Z"/>
      <path class="cls-6" d="M310.76,142.79c-1.56-1.85-1.04-3.8-.25-5.74.44-1.07,1.02-2.07,1.51-3.12.49-1.03.95-2.08,1.41-3.09,1.26-.19,1.6.72,1.99,1.5,1.23,2.4,2.36,4.85,3.65,7.21,1.13,2.08.97,3.9-.65,5.61-.22-1.64-1.16-2.38-2.8-2.35-1.62.02-3.24-.02-4.87-.03Z"/>
      <path class="cls-5" d="M309.07,169.82c1.7,3.25,1.45,4.72-1.16,6.76-.3.23-.64.41-.96.62-1.68,1.13-3.36,2.69-5.51,1.38-2.12-1.28-1.98-3.75-2.22-5.81-.2-1.75,1.26-2.62,2.85-3.06,2.33.2,4.65.81,7,.1Z"/>
      <path class="cls-6" d="M318.76,185.79c-3.39-2.43-4.37-5.82-5.03-9.36-.14-.76.06-1.49.82-2,1.58-1.05,3.05-2.3,5.42-2.66-.31,4.72.76,9.29-1.21,14.01Z"/>
      <path class="cls-5" d="M310.76,142.79c1.62.01,3.25.05,4.87.03,1.64-.02,2.59.71,2.8,2.35-1.57,3.82-3.74,4.18-6.21,1.05-.8-1.01-1.37-2.12-1.46-3.43Z"/>
      <path class="cls-6" d="M309.07,169.82c-2.34.71-4.67.1-7-.1,1.61-2.1,3.21-4.2,5.05-6.6.71,2.44,1.33,4.57,1.94,6.7Z"/>
      <path class="cls-5" d="M403.73,144.38c3.58,1.32,7.13,2.72,10.42,4.64,2.39,1.39,3.05,8.29,1.14,10.21-.72.73-1.67.57-2.55.55-3.08-.05-5.62-1.52-8.1-3.16-.76-1.11-.68-2.35-.66-3.62.03-2.88.24-5.77-.25-8.63Z"/>
      <path class="cls-5" d="M401.74,148.84c0,.52.06,1.3-.01,2.06-.14,1.43-1.08,2.07-2.4,1.87-3.69-.54-6.69-2.46-9.29-5.04-.32-.32-.6-1.02-.48-1.4.72-2.18.04-4.3-.09-6.45-.1-1.64.57-2.07,2.19-1.32,2.34,1.07,4.64,2.21,7.19,2.66,1.04.18,1.54.9,1.86,1.75.66,1.81,1.29,3.64,1.03,5.87Z"/>
      <path class="cls-5" d="M401.88,158.87c-.04,1.79.03,3.58-.13,5.36-.24,2.5-1.85,3.64-4.23,3-1.35-.36-2.66-.91-3.92-1.52-4.06-1.98-4.56-3.05-3.57-7.49.19-.86-.09-1.81.7-2.78,1.89.7,3.79-.16,5.75-.45,2.44.4,4.93.74,5.39,3.88Z"/>
      <path class="cls-6" d="M386.33,129.93c.06,2.71-.39,3.06-3.17,2.42-.87-.2-1.73-.44-2.6-.61-3.81-.77-5.99-3.01-6.63-6.89-.22-1.35-1-2.6-1.41-3.94-.22-.71-.38-1.57.21-2.19.7-.73,1.41-.06,2.08.2,1.78.7,3.52,1.47,5.31,2.15,3.48,1.33,6.14,5.09,6.21,8.86Z"/>
      <path class="cls-5" d="M421.1,164.52c-3.11-2.46-3.06-2.46-3.15-6.55-.05-2.27.39-4.59-.43-6.82-.35-.96.33-1.71.5-2.56,3.16,2.65,5.51,5.96,7.63,9.45.93,1.53,1.63,3.18,2.07,4.91.68,2.64-.03,3.38-2.6,2.74-1.35-.33-2.68-.77-4.02-1.16Z"/>
      <path class="cls-6" d="M367.12,116.59c-6.68-.03-7.63-1.99-10.56-7.94-.58-1.18-.11-2.18,1.29-2.02,3.94.46,7.91.98,11.07,3.78.19.17.38.35.53.56,1.01,1.38,1.95,2.9,1.25,4.62-.72,1.74-2.48.74-3.58,1Z"/>
      <path class="cls-5" d="M397.18,127.18c1.75,1.96,2.58,4.35,3.35,6.81.45,1.41.06,2.65-.7,3.6-.85,1.07-2.11.46-3.19.01-1.07-.44-2.12-.93-3.22-1.25-3.77-1.09-5.55-3.38-4.61-7.38,2.03-1.11,4.01-2.2,6.44-.93.67.35,1.51-.06,1.93-.86Z"/>
      <path class="cls-6" d="M401.99,130.25c.38.07.83.03,1.12.22,3.41,2.31,6.2,5.29,8.7,8.5,1.15,1.48.59,2.29-1.31,2.32-1.94.03-3.81-.51-5.55-1.25-1.57-.66-2.81-1.83-2.42-3.86.38-1.99-.77-3.72-.94-5.61.13-.11.26-.22.4-.33Z"/>
      <path class="cls-6" d="M370.83,129.99c-3.24-3.88-6.34-7.14-8.57-11.39,7.74.07,10.54,5.25,8.57,11.39Z"/>
      <path class="cls-6" d="M397.18,127.18c-.42.8-1.26,1.21-1.93.86-2.43-1.27-4.42-.18-6.44.93-.75-2.13-1.5-4.26-2.23-6.31.81-.95,1.79-.81,2.56-.55,2.53.84,4.9,2.06,7.19,3.43.57.34.76.99.85,1.64Z"/>
      <path class="cls-6" d="M373.26,112.27c3.8,1.15,6.9,2.57,9.7,4.61.42.3.77.69.64,1.26-.14.65-.72.64-1.21.69-2.47.22-4.86-.32-7.05-1.31-1.97-.89-2.1-2.91-2.09-5.24Z"/>
      <path class="cls-6" d="M401.59,130.58c-.51-.41-.71-.96-.71-1.6l.16-.16c.6.29.78.86.94,1.43-.13.11-.27.22-.4.33Z"/>
      <path class="cls-6" d="M403.17,142.14c-.08-.16-.17-.33-.25-.49.16.09.33.17.49.25,0,0-.24.24-.24.24Z"/>
      <path class="cls-6" d="M400.89,128.98c-.09-.15-.19-.3-.28-.44.15.09.3.19.44.28,0,0-.16.16-.16.16Z"/>
      <path class="cls-2" d="M365.39,172.05c-1.63-.05-1.97,1.55-2.96,2.33-.13-.98.36-2.29-.67-2.85-2.86-1.57-5.33-3.74-8.29-5.65-.97,3.68-2.84,6.64-3.51,10.05-.26.04-.52.08-.78.12-1.11-.22-2.08.12-2.98.75-.52-.94-1.45-.82-2.3-.89-.08-1.28-1.06-2-1.82-2.85-.93-1.02-1.85-2.05-1.91-3.91,2.17.48,2.97,2.25,4.27,3.31,2.23,1.82,3.11,1.65,4.18-1.01.48-1.19.94-2.4,1.23-3.64.79-3.47.61-6.7-3.12-8.46-2.08-.98-2.83-3.24-4.53-4.54-1.04.71-.29,2.16-1.42,2.65,0-1.15-.01-2.31.01-3.46.01-.63,0-1.32.69-1.66.84-.41,1.49.07,2.05.6,1.21,1.15,2.39,2.33,3.57,3.51.56.56,1.19.97,2,1.03,2.13.75,3.22.46,3.79-1.27.35-1.06.32-2.25.47-3.38.77-.58.3-1.83,1.24-2.32.26,0,.52-.01.78-.02.29,3.13-.59,6.08-1.45,9.03-.21.72-.78,1.42-.09,2.13,1.79,1.84,3.36,3.93,5.68,5.16,3.18,1.68,4.94.75,5.18-2.83.17-2.69.06-5.39.07-8.09,1.26.77,2.3,1.76,2.97,3.1-.22.31-.63.62-.62.92.12,4.15-1,8.11-1.73,12.13Z"/>
      <path class="cls-6" d="M343.9,175.91c.85.08,1.78-.05,2.3.89-1.24,3.62-.39,7.7-2.46,11.14-.2.33-.18.76.13,1.04,1.33,1.2,2.49,2.74,4.04,3.51,2.85,1.4,3.7,1.69,5.46-1.65.46-.88.28-2.08,1.34-2.66.78,2.5-.35,6.57-2.17,7.99-1.35,1.05-2.64.65-3.94-.05-1.96-1.06-3.34-2.8-4.79-4.4-.88-.97-1.64-1.75-3.05-2.01-1.49-.28-2.98-.97-3.2-2.86l.17-.17c3.18-.15,4.64-1.01,5.11-3.76.4-2.32,1.22-4.6,1.04-7.01Z"/>
      <path class="cls-2" d="M339.99,158.98c.04-.62.17-1.19.78-1.51-.06.61-.14,1.21-.78,1.51Z"/>
      <path class="cls-6" d="M337.58,186.85l-.27-.44c.15.09.29.18.44.27,0,0-.17.17-.17.17Z"/>
      <path class="cls-5" d="M364.77,155.9c-.01,2.7.1,5.4-.07,8.09-.23,3.58-2,4.52-5.18,2.83-2.32-1.23-3.89-3.32-5.68-5.16-.68-.7-.12-1.4.09-2.13.86-2.95,1.74-5.9,1.45-9.03.51-.74,1.29-1.02,1.98-.52,2.56,1.85,5.67,3.04,7.42,5.91Z"/>
      <path class="cls-6" d="M337.41,121.99c3.11,1.48,5.6,3.22,8.01,5.09.81.63,1.51,1.43,1.51,2.56,0,2.43.16,4.88-.09,7.29-.29,2.79-1.87,3.58-4.28,2.11-4.88-2.99-7.14-7.05-6.22-13.31.16-1.12.61-2.2,1.06-3.75Z"/>
      <path class="cls-5" d="M365.39,172.05c.73-4.02,1.85-7.98,1.73-12.13,0-.3.41-.61.62-.92,3.01,5.99,6.39,11.83,7.82,18.49-2.41,2-2.78,2.1-4.77.3-1.95-1.76-4.57-2.93-5.41-5.74Z"/>
      <path class="cls-5" d="M403.26,158.93c3.15.72,5.58,2.96,8.6,4.07,2.18.8,2.78,7.74,1.11,9.38-.62.6-1.42.51-2.17.49-4.43-.09-7.5-3.28-7.5-7.78,0-2.04-.03-4.09-.05-6.13,0,0,.02-.02.02-.02Z"/>
      <path class="cls-5" d="M353.35,152.85c-.14,1.13-.11,2.32-.47,3.38-.57,1.73-1.66,2.02-3.79,1.27,1.3-.46,1.69-1.68,2.24-2.74.46-.88.9-1.74,2.02-1.91Z"/>
      <path class="cls-3" d="M352.35,143.55c-.11-.05-.32-.13-.31-.15.06-.26.17-.19.29.18,0,0,.02-.02.02-.02Z"/>
      <path class="cls-5" d="M349.96,175.93c.68-3.4,2.55-6.37,3.51-10.05,2.95,1.9,5.42,4.08,8.29,5.65,1.03.56.54,1.87.67,2.85-.53,1.69-.98,3.41-1.62,5.07-1.09,2.85-2.31,3.18-4.97,1.79-2.44-1.28-3.92-3.53-5.88-5.3Z"/>
      <path class="cls-5" d="M364.31,175.42c2.58,2.07,4.21,4.47,6.73,5.84.22.12.4.33.56.53,1.22,1.47.09,8.16-1.53,9.19-.88.56-1.74.51-2.46-.19-1.57-1.52-3.15-3.03-4.59-4.66-1.04-1.17-.76-2.7-.46-4.06.46-2.1,1.09-4.17,1.76-6.65Z"/>
      <path class="cls-5" d="M63.57,168.99c-1.51.93-3.03,1.84-4.53,2.79-.75.48-1.43.98-2.37,1.12-3.12.44-3.86-.13-3.93-3.25-.04-1.52-.05-3.04-.08-4.57.19-1.29.97-1.93,2.18-2.35,2.78-.97,5.33-2.43,7.89-3.85.27.05.55.1.82.15-1.17,3.32-.53,6.64.01,9.96Z"/>
      <path class="cls-6" d="M67.36,167.66c.3-.02.61-.05.92-.07-.28.37-.58.42-.92.07Z"/>
      <path class="cls-6" d="M63.56,159.03c-.27-.05-.55-.1-.82-.15.37-.46.65-.46.82.15Z"/>
      <path class="cls-5" d="M107.6,182.91c-2.46-2.93-3.24-6.41-3.27-10.13.19-.47.25-1.2.58-1.37,3.23-1.61,5.64-4.25,8.68-7,.16,3.6.97,6.49,2.47,9.16.31.55.62,1.14.2,1.79-2.16,3.35-4.57,6.41-8.66,7.54Z"/>
      <path class="cls-5" d="M121.46,180.61c.12,1.89-.07,3.76.46,5.66.63,2.25-3.32,7.12-5.62,7.22-1.19.05-1.73-.9-2.34-1.71-1.32-1.74-1.29-4.07-2.57-5.82,0-1.61.47-2.99,1.85-3.97.83-.59,1.69-1.24,1.94-2.28.46-1.96,1.93-2.72,3.62-2.81,1.94-.1,1.73,1.86,2.34,3.01.12.23.21.46.32.69Z"/>
      <path class="cls-5" d="M102.12,175.79c1.1,2.33,1.25,4.93,2.08,7.34.22.63.3,1.27-.05,1.85-1.54,2.54-3.37,4.81-5.89,6.46-1.27.83-2.07.5-2.67-.87-.99-2.29-1.24-4.66-1.17-7.12.03-1.19.52-1.91,1.54-2.41,1.64-.81,3.04-1.89,3.87-3.57.79-.52,1.19-1.59,2.3-1.68Z"/>
    </g>
  </g>
</svg>