<?xml version="1.0" encoding="UTF-8"?>
<svg id="Sprite_Alien" xmlns="http://www.w3.org/2000/svg" viewBox="0 0 471.47 423.94">
  <defs>
    <style>
      .cls-1 {
        fill: #92be5c;
      }

      .cls-1, .cls-2, .cls-3, .cls-4, .cls-5, .cls-6 {
        stroke-width: 0px;
      }

      .cls-2 {
        fill: #3f7341;
      }

      .cls-3 {
        fill: #425c3d;
      }

      .cls-4 {
        fill: #d6e29e;
      }

      .cls-5 {
        fill: #739c51;
      }

      .cls-6 {
        fill: #65864a;
      }
    </style>
  </defs>
  <g id="Wings">
    <g id="W1">
      <path class="cls-2" d="M220.37,138.92c5.79,1.92,9.58,5.88,11.71,11.52,1.47,3.9,2.44,7.89,2.35,12.09-.24,10.85-6.2,17.21-17.34,18.65-.38.05-.77.04-1.16.07-7.31.5-11.53,4.47-12.45,11.82-.4,3.22-.28,6.46.28,9.66.4,2.31.56,4.63.4,6.95-.34,4.97-3.52,8.22-8,8.34-4.63.12-8.23-3.17-8.8-8.07-.27-2.36.38-4.62.81-6.9.29-1.53.57-3.05.45-4.61-.25-3.38-2.57-5.44-5.96-5.17-3.79.3-6.89,2.02-9.41,4.84-4.41,4.93-6.69,10.68-6.66,17.3.02,4.41.54,8.76,1.6,13.04.71,2.9,1.22,5.81.36,8.79-1.02,3.55-3.17,5.89-6.89,6.5-3.66.6-6.64-.71-8.78-3.67-1.89-2.62-2.57-5.59-1.87-8.82.6-2.78,1.19-5.56,1.65-8.36.77-4.7-.26-8.91-3.32-12.69-3.91-4.83-8.4-8.71-14.51-10.46-6.18-1.77-9.34.55-9.16,6.86.04,1.55.24,3.09.26,4.64.02,1.42.05,2.86-.2,4.25-.59,3.26-3.49,5.81-6.69,6.1-2.32.21-7.08-2.21-7.66-4.4-.48-1.8-.07-3.83-.07-5.75,0-1.08.9-2.26-.48-3.39-3.66,2.51-6.11,6.1-8.23,9.88-5.64,10.05-6.66,20.74-4.26,31.89.84,3.91,2.05,7.75,2.03,11.81-.01,1.94-.08,3.86-.8,5.72-1.52,3.94-4.33,5.98-8.55,6.08-3.93.1-7.26-2.07-8.7-5.88-1.52-4-1.4-8.11-.41-12.21,1.07-4.4,2.02-8.81,2.38-13.33.38-4.74-.14-9.35-2.67-13.45-2.41-3.9-3.32-8.08-3.14-12.57.45-11.28-3.78-21.21-8.91-30.86-.92-1.74-2.04-4.69-4.02-4.13-2.25.64-.89,3.56-.95,5.51-.05,1.67.13,3.37-.07,5.02-.51,4.19-3.01,6.72-6.55,6.89-4.07.19-7.2-2.13-8.39-6.04-.76-2.49-.29-4.89.35-7.25.75-2.8.92-5.61.65-8.45-.47-4.93-3.25-6.9-8.01-5.4-5.4,1.7-9.6,5.17-12.11,10.22-4.11,8.26-5.38,16.89-2.46,25.9.95,2.94,1.78,5.93,1.7,9.1-.12,4.86-3.58,8.81-7.91,8.93-4.73.13-8.33-3.45-8.65-8.61-.19-3.14.46-6.15,1.37-9.14,1.82-5.95,2.11-12.03.23-17.95-1.88-5.91-1.48-11.75-.3-17.6,3.64-18.14,11.47-34.16,24.2-47.73,6.65-7.08,12.43-14.85,17.49-23.15,2.35-3.86,5.01-7.53,7.99-10.95,5.08-5.82,11.3-9.8,18.9-11.38,9.28-1.92,18.12-5.05,26.66-9.12,7.56-3.61,15.54-5.48,23.92-5.73,2.31-.07,4.67-.28,6.91-.81,4.45-1.06,5.24-3.81,2.28-7.24-.42-.49-.91-.92-1.29-1.44-3.72-5.02-1.09-11.29,5.12-12.24,8.91-1.35,18.44,4.22,21.5,12.99,1.3,3.73,2.75,7.07,5.85,9.75,2.38,2.06,3.31,5.16,3.89,8.26.62,3.32.71,6.67.78,10.03.29,14.19,4.39,27.17,12.46,38.88,2.52,3.66,5.85,6.5,9.17,9.36-1.24,1.12-.58,2.59-.74,3.91-.56-.22-1.13-.45-1.69-.67-2.26-2.12-4.84-3.86-6.93-6.18-7.82-8.69-12.01-19.11-14.73-30.29-1.96-8.05-1.59-16.35-2.85-24.47-.49-3.14-1.59-5.75-4.1-7.56-2.14-1.54-3.28-3.57-3.93-6-.27-1-.47-2.01-.75-3-1.91-6.61-10.09-11.98-16.84-11.05-3.25.45-4.51,3.32-2.56,5.94.54.72,1.28,1.28,1.84,1.99,3.51,4.43,2.43,9.38-2.62,11.88-2.58,1.28-5.33,1.86-8.21,1.95-8.87.27-17.36,2.13-25.43,5.9-8.42,3.94-17.04,7.3-26.24,9.01-4.2.78-8.1,2.39-11.66,4.92-4.11,2.92-7.01,6.83-9.78,10.87-5.33,7.76-10.34,15.74-16.46,22.94-3.93,4.62-7.91,9.2-11.62,13.99-8.79,11.35-13.84,24.39-16.72,38.31-1.02,4.94-1.21,9.91.26,14.91,1.63,5.53,1.43,11.19.4,16.86-.39,2.15-1.29,4.21-1.15,6.46-.71,2.13-.96,4.25.07,6.35.39,1.87,1.46,3.01,3.45,2.98,1.79-.02,3.66-1.59,4.24-3.47.39-1.27.3-2.58.08-3.85-.31-1.77-.66-3.56-1.21-5.27-2.52-7.88-2.43-15.78-.06-23.63,2.81-9.33,8.83-15.64,18.34-18.25,6.24-1.71,11.58,2.21,11.83,8.6.14,3.47.24,6.96-.69,10.4-.5,1.87-.57,3.86.07,5.75.65,1.93,2.01,2.83,3.79,2.64,1.7-.18,2.94-1.46,2.99-3.45.05-1.93,0-3.9-.38-5.78-.38-1.9.04-3.65.58-5.32,1.16-3.62,4.48-4.6,7.57-2.48,2.3,1.58,3.87,3.78,5.27,6.12,5.75,9.63,8.95,19.97,8.69,31.28-.1,4.34.82,8.42,2.95,12.27,3.06,5.53,3.54,11.5,2.77,17.66-.45,3.6-1.36,7.09-2.22,10.6-.68,2.8-.83,5.63-.51,8.47.39,3.48,2.84,5.84,5.72,5.74,2.95-.11,5.11-2.56,5.23-6.12.06-1.67,0-3.37-.27-5.02-.46-2.79-1.13-5.55-1.71-8.33-3.15-14.99-.45-28.7,8.99-40.94,1.62-2.1,3.52-3.78,6.03-4.67,2.5-.89,4.22-.22,5.46,2.09.63,1.17.83,2.42.79,3.74-.04,1.42-.14,2.86.05,4.26.34,2.49,2.94,3.42,4.95,1.86.98-.76,1.44-1.79,1.45-3.03.02-2.2-.17-4.37-.45-6.56-.89-7.01,2.26-10.61,7.67-11.88,2.31-.54,4.36.05,6.44.65,5.09,1.46,9.14,4.63,13.14,7.97,5.2,4.34,7.98,9.64,7.95,16.45-.01,2.87-.46,5.66-1.15,8.41-.55,2.17-.54,4.36-.43,6.55.13,2.57,2.28,4.78,4.59,4.97,2.29.18,4.14-1.32,5.05-3.96.57-1.65.63-3.28.21-4.95-.54-2.13-1.1-4.24-1.61-6.38-1.68-7.08-1.68-14.1,1.3-20.87,3.08-7.01,7.51-12.52,15.61-14.24,5.98-1.27,10.68,1.96,11.72,7.11.4,1.96.47,3.8.04,5.72-.59,2.67-.56,5.39-.37,8.1.12,1.73,1.07,2.92,2.78,3.29,1.75.38,3.37.09,4.49-1.48.76-1.07,1.24-2.26,1.22-3.61-.02-1.68,0-3.34-.35-5.01-.63-3.02-.88-6.12-.73-9.2.27-5.76,2.33-10.77,6.64-14.74,0,0-.06.01-.06.01,1.23-.16,2.28-.68,3.13-1.59l-.06.04c.67-.06,1.32-.19,1.74-.8,2.96.07,5.9,0,8.79-.82,5.87-1.64,9.86-5.89,10.32-11.6.24-3.04.3-6.11-.39-9.21-.51-2.3-.98-4.56-2.43-6.4-2.92-3.73-6.49-6.62-11.28-7.58-1.02-.2-2.02-.37-2.91-.92.45-1.68,1.57-2.26,3.19-1.84,1.52.4,3.01.61,4.51-.06Z"/>
      <path class="cls-2" d="M431.43,180.3c-.29,3.71,1.03,7.14,1.9,10.64.53,2.14.97,4.3,1.06,6.48.21,4.98-3.24,8.79-8.07,9.12-4.2.29-8.14-3.1-8.81-7.65-.48-3.27.25-6.42,1.14-9.55.63-2.23,1.49-4.46.97-6.82-.21-.96-.32-2.22-1.42-2.6-1.19-.41-1.85.7-2.52,1.42-3.04,3.28-4.9,7.28-6.53,11.35-3.05,7.59-5.28,15.36-4.88,23.7.16,3.38-.41,6.79-2.18,9.72-4.32,7.13-4.25,14.7-2.76,22.5.75,3.92,2.16,7.72,2.19,11.78.02,2.47,0,4.91-1.01,7.23-1.62,3.76-5.33,6.11-9.2,5.82-4.32-.33-7.53-2.99-8.45-7.27-.72-3.32-.5-6.68.19-10,1.29-6.32,2.93-12.58,2.6-19.14-.47-9.32-3.73-17.6-9.13-25.1-.89-1.24-2.1-2.28-3.26-3.29-1.98-1.74-4.17-2.37-6.8-1.35-1.3.51-2.8.9-4.15.77-2.86-.28-4.92-1.81-6.27-4.52-2.31-4.65-4.59-5.36-9.4-3.47-4.66,1.83-8.55,4.71-12.02,8.28-4.43,4.58-5.72,9.96-4.43,16.08.53,2.53,1.2,5.03,1.69,7.56.57,2.93-.04,5.65-1.8,8.08-2.06,2.86-4.86,4.29-8.36,3.84-3.63-.47-6.18-2.52-7.38-6.03-1.03-3.01-1.01-6.07-.25-9.16,1.27-5.15,2.33-10.32,1.86-15.7-.51-5.9-2.73-11-6.81-15.25-2.61-2.72-5.87-4.18-9.67-4.23-3.43-.04-4.98,1.39-5.4,4.74-.26,2.08-.01,4.13.52,6.14.53,2.03.62,4.09.44,6.16-.37,4.07-2.86,6.84-6.65,7.5-3.56.62-7.31-1.32-8.99-4.69-1-2.01-1.38-4.16-1.13-6.4.25-2.18.55-4.36.84-6.53.48-3.49.46-6.96-.58-10.37-1.66-5.48-5.23-8.41-10.96-8.78-2.46-.16-4.82-.53-7.18-1.3-7.35-2.42-11.15-7.64-11.99-15.11-.64-5.64.46-11.08,2.86-16.2,2.44-5.22,6.68-8.43,12.08-10.18,1.47-.48,2.97-.88,4.49-1.17,13.87-2.71,22.7-11.54,28.77-23.69,5.05-10.11,7.52-20.83,7.45-32.14-.02-3.1.03-6.19.85-9.23.8-2.94,2.04-5.66,4.27-7.69,2.5-2.28,3.79-5.08,4.87-8.18,3.23-9.34,11.66-14.85,21.2-14.18,3.08.22,5.51,1.4,6.91,4.2,1.5,2.99.82,5.78-1.1,8.34-.7.93-1.54,1.74-2.25,2.66-1.56,2.01-1.42,2.94.68,4.44,2.19,1.57,4.77,2.16,7.33,2.12,10.87-.15,20.82,3.08,30.51,7.65,6.78,3.2,13.92,5.56,21.28,7.01,10.23,2.01,17.95,7.61,23.76,16.02,3.45,4.99,6.64,10.16,10.07,15.17,4.39,6.41,9.58,12.18,14.63,18.07,11.54,13.47,18.56,29.08,21.5,46.52.56,3.31.39,6.7.24,10.06-.07,1.58-.57,3.04-1.39,4.38-2.85,4.68-8.34,4.83-11.42.3-1.24-1.83-2.03-3.89-2.8-5.94-2.26-6-6.87-9.6-12.51-11.96-4.66-1.95-8.21.18-9.02,5.15-.21,1.27-.16,2.58-.23,3.86ZM429.99,193.68c-.13-.38-.27-.75-.4-1.13-.11-.4-.22-.79-.34-1.19-.12-.87-.18-1.76-.37-2.61-1.12-5.11-1.69-10.23-.57-15.41,2.74-5.71,5.15-7,11.49-6.19.89.11,1.79.13,2.68.18,7.69,3.68,13.32,9.18,15.76,17.58.21.72.61,1.44,1.09,2.03,1.57,1.92,3.39,1.73,4.57-.46.75-1.39,1.05-2.88,1.09-4.47.11-4.03-.45-8-1.36-11.89-3.28-14.06-9.5-26.72-18.63-37.89-6.86-8.39-14.27-16.33-19.89-25.69-2.12-3.54-4.57-6.89-7-10.23-5.36-7.39-12.18-12.4-21.5-13.87-7.16-1.13-13.97-3.62-20.45-6.92-9.48-4.82-19.52-7.33-30.14-7.58-3.43-.08-6.63-1.06-9.45-3.05-3.34-2.36-3.99-6.58-1.57-9.87.53-.72,1.18-1.37,1.85-1.98,1.49-1.35,2.16-2.96,1.34-4.85-.78-1.81-2.46-2.03-4.24-2.06-7.24-.1-14.15,5.11-16.08,12.15-.68,2.48-1.06,5.17-3.31,6.83-5.25,3.87-6.39,9.38-6.4,15.4,0,4.26-.07,8.49-.7,12.74-1.37,9.31-4.73,17.86-9.17,26.07-2.86,5.29-6.93,9.61-11.19,13.76-6.21,4.57-13.1,7.38-20.73,8.8-4.64.86-8.54,3.57-10.81,8.01-2.08,4.08-3.17,8.52-3.11,13,.05,4.45,1.51,8.67,5.76,11.13,1.99,1.15,4.09,2.07,6.35,2.74,2.64.78,5.44.1,7.96,1.25,4.94,1.76,8.45,4.99,9.8,10.11,1.19,4.53,1.39,9.19.62,13.82-.45,2.7-.57,5.4-.43,8.1.12,2.5,2.15,4.38,4.48,4.44,1.89.05,3.7-1.61,4.06-4,.3-2.05.26-4.13-.31-6.15-.72-2.54-.66-5.14-.35-7.7.41-3.36,2.16-6.02,5.58-6.66,4.96-.93,9.95-.47,13.98,2.9,6.11,5.12,9.52,11.76,9.92,19.82.29,5.85-.46,11.58-1.95,17.23-.68,2.56-.85,5.12.51,7.52,1.02,1.8,2.47,2.97,4.72,2.69,2.14-.26,3.78-1.64,4.32-3.87.52-2.17.32-4.38,0-6.55-.32-2.16-.88-4.3-1.16-6.46-.79-6.1-.27-11.94,4.26-16.64,4.61-4.78,9.71-8.85,16.26-10.8,4.7-1.4,9.47-.43,11.41,4.31.4.97,1.03,1.76,1.75,2.52,1.69,1.78,3.62,2.46,5.93,1.33,4.82-2.35,8.67-.4,11.7,3.14,7.25,8.49,11.35,18.33,12.02,29.57.39,6.69-1.23,13.07-2.68,19.47-.61,2.69-.73,5.39-.46,8.08.32,3.15,2.48,5.17,5.24,5.27,2.42.09,4.86-1.83,5.52-4.61.32-1.36.3-2.82.29-4.23,0-3.79-1.19-7.37-2.03-11.01-1.87-8.16-1.77-16.07,2.26-23.71,1.95-3.69,2.74-7.76,2.66-11.97-.04-2.06.12-4.13.17-6.2.04-1.53.38-2.97.78-4.47,1.59-6,3.71-11.79,6.1-17.49,1.72-2.54,3.03-5.35,5.36-7.46,1.76-1.59,3.6-2.91,6.13-2.68,3.69,1.84,4.94,4.94,4.7,8.88-.16,2.6-.89,5.05-1.71,7.46-.59,1.74-.86,3.48-.78,5.29.15,3.34,1.96,5.5,4.65,5.59,2.88.1,4.55-1.91,4.69-5.65.18-1.26-.26-2.42-.58-3.59Z"/>
      <path class="cls-2" d="M437.95,224.6c.08-2.1.35-3.87,1.19-5.52,1.12-2.21,2.69-3.77,5.33-3.87,2.7-.1,4.88,1.02,6.14,3.32,1.81,3.27,2.34,6.83,1.06,10.45-1.06,3-3.71,4.63-6.95,4.47-3.24-.16-5.5-2.02-6.26-5.3-.29-1.25-.37-2.55-.51-3.55ZM447,220.02h0c-2.59-1.17-3.52-1.01-4.73.9-1.33,2.1-1.32,4.35-.56,6.62.5,1.49,1.72,2.19,3.17,2.45,1.59.28,2.69-.58,3.51-1.83,1.67-2.52,1.1-5.73-1.4-8.13Z"/>
      <path class="cls-2" d="M363.27,216.75c3.69.06,6.56,3.43,6.53,7.67-.03,3.67-3.02,6.56-6.74,6.5-3.81-.06-6.95-3.25-6.82-6.93.15-4.12,3.24-7.31,7.03-7.25ZM365.62,221.62c-1.05-1.98-2.58-1.91-4.17-.84-1.46.98-2.44,2.35-1.8,4.24.51,1.53,1.37,2.76,3.24,2.79,1.84.03,3.37-.31,3.33-2.64.13-1.24.45-2.51-.6-3.55Z"/>
      <path class="cls-3" d="M220.37,138.92c-1.5.67-2.99.45-4.51.06-1.62-.42-2.74.16-3.19,1.84-4.8-.73-9.31-2.18-13.12-5.35.16-1.32-.5-2.79.74-3.91,6.15,3.93,13.28,5.21,20.08,7.36Z"/>
      <path class="cls-1" d="M17.77,212.18c-.14-2.24.76-4.31,1.15-6.46,1.03-5.67,1.23-11.33-.4-16.86-1.48-5-1.29-9.97-.26-14.91,2.89-13.92,7.94-26.97,16.72-38.31,3.71-4.79,7.69-9.37,11.62-13.99,6.12-7.19,11.13-15.18,16.46-22.94,2.78-4.04,5.68-7.95,9.78-10.87,3.57-2.54,7.46-4.14,11.66-4.92,9.2-1.72,17.82-5.08,26.24-9.01,8.07-3.77,16.56-5.63,25.43-5.9,2.88-.09,5.63-.67,8.21-1.95,5.04-2.5,6.13-7.45,2.62-11.88-.56-.71-1.3-1.27-1.84-1.99-1.95-2.62-.7-5.49,2.56-5.94,6.74-.93,14.93,4.44,16.84,11.05.29.99.49,2,.75,3,.65,2.43,1.79,4.45,3.93,6,2.51,1.81,3.61,4.42,4.1,7.56,1.26,8.13.9,16.42,2.85,24.47,2.72,11.18,6.9,21.6,14.73,30.29,2.09,2.32,4.67,4.06,6.93,6.18-.59.85-1.18,1.7-1.77,2.55-2.55-1.11-3.91-4.19-7.07-4.52-.02,1.88,1.4,2.83,1.97,4.21-2.14.3-4.27.63-6.22,1.62-.77-.19-1.12-1.52-2.25-.83-.34,2.99.06,5.82,1.64,8.42.72,3.14,2.67,4.43,5.72,3.55.55,1.32.32,2.35.27,3.37-5.9,1.08-8.38-1.29-10.61-6.96-1.73-4.39-2.61-9.06-2.49-13.84,1.93-.63,3.26-1.25,2.5-3.98-.53-1.88-.64-4.06-1.07-6.01-1.28-5.81-3.78-11.18-7.19-16.06-1.35-1.94-3.28-2.28-5.48-1.27-4.11,1.89-5.53,5.39-5.58,9.65-.58,4.22-1.65,8.34-2.74,12.45-1.56,5.88-2.44,11.88-2.79,17.91-.58,10.06.32,20.12.73,30.17.14,3.33.91,6.62,1.39,9.94.04,7.59,1.11,13.91,3.09,16.76-.61-5.95-1.17-11.41-1.73-16.87-.45-2.53-.45-5.09-.46-7.65-.02-2.69.04-5.39-.18-8.07-.74-8.94-1.05-17.87.32-26.79,1.68-.47,1.87-1.9,2.17-3.29.67-3.19,2.08-6.06,4.02-8.64,1.39-1.86,3.1-1.79,4.32.12.62.97,1.06,2.05,1.51,3.11,1.16,2.71,2.24,5.44,3.43,8.13.4.91.75,1.97,2.02,2.1.41,2.57,1.71,4.78,2.89,7.02,1.55,2.97,3.87,5.01,7.29,5.57.19,1.17,1.2,1.49,2.06,1.94,1.46.76,2.61,1.83,3.44,3.26-1.03-.04-2.05-.09-3.08-.11-3.8-.07-5.6,1.29-6.69,4.98-.69,2.32.45,3.99,1.96,5.48,1.71,1.69,3.76,2.13,6.01,1.24,2.06-.81,3.26-2.19,3.47-4.59.24-2.6-1.08-4.69-1.67-7.01,2.54.04,2.97,2.61,4.53,3.85,2.82,2.23,3.57,9.96,1.43,12.81-.3.4-.71.73-1.11,1.05-2.84,2.23-5.46,2.25-9.24.01-2.78-1.65-5.59-3.47-8.83-3.64-3.06-.16-5.59-.11-5.88-4.16-.04-.57-.97-3.52-3.41-2.15-4.3.1-5.55,1.09-6.12,5.15-.41,2.95-.05,5.86.93,8.68.09,3.9,3.98,2.4,5.69,4,1.04.98,2.07.52,3.18.03,2.21-.96,4.21-2.25,6.79-2.52,4.37-.45,8.43,1.85,12.79,1.06.42-.08.93.37,1.41.55,1.44.52,2.9,1.46,4.33,1.42,1.88-.06,1.43-2.42,2.42-3.53.76-.85,1.28-1.92,2-2.81.99-1.23,2.14-2.25,3.92-1.94-4.32,3.97-6.37,8.98-6.64,14.74-.14,3.08.11,6.17.73,9.2.35,1.67.33,3.33.35,5.01.02,1.34-.46,2.54-1.22,3.61-1.12,1.57-2.74,1.86-4.49,1.48-1.71-.37-2.66-1.56-2.78-3.29-.19-2.71-.22-5.43.37-8.1.42-1.92.35-3.75-.04-5.72-1.04-5.15-5.74-8.38-11.72-7.11-8.1,1.72-12.52,7.23-15.61,14.24-2.97,6.77-2.98,13.78-1.3,20.87.51,2.13,1.07,4.25,1.61,6.38.42,1.67.36,3.3-.21,4.95-.91,2.64-2.76,4.14-5.05,3.96-2.31-.18-4.46-2.4-4.59-4.97-.11-2.18-.12-4.37.43-6.55.69-2.75,1.14-5.53,1.15-8.41.03-6.81-2.75-12.12-7.95-16.45-4-3.34-8.05-6.51-13.14-7.97-2.08-.6-4.12-1.19-6.44-.65-5.42,1.27-8.56,4.87-7.67,11.88.28,2.19.47,4.36.45,6.56-.01,1.24-.47,2.27-1.45,3.03-2.01,1.56-4.61.63-4.95-1.86-.19-1.4-.09-2.84-.05-4.26.04-1.32-.16-2.58-.79-3.74-1.24-2.31-2.96-2.98-5.46-2.09-2.51.9-4.41,2.58-6.03,4.67-9.44,12.24-12.14,25.94-8.99,40.94.58,2.77,1.25,5.53,1.71,8.33.27,1.64.33,3.35.27,5.02-.12,3.57-2.28,6.02-5.23,6.12-2.88.1-5.33-2.25-5.72-5.74-.32-2.83-.18-5.66.51-8.47.85-3.51,1.77-7,2.22-10.6.78-6.16.3-12.14-2.77-17.66-2.13-3.84-3.05-7.92-2.95-12.27.27-11.31-2.93-21.65-8.69-31.28-1.4-2.34-2.97-4.54-5.27-6.12-3.1-2.12-6.42-1.13-7.57,2.48-.54,1.68-.96,3.42-.58,5.32.38,1.88.42,3.86.38,5.78-.05,2-1.3,3.27-2.99,3.45-1.77.19-3.14-.71-3.79-2.64-.63-1.89-.57-3.88-.07-5.75.93-3.44.82-6.92.69-10.4-.25-6.39-5.59-10.31-11.83-8.6-9.51,2.61-15.52,8.92-18.34,18.25-2.37,7.85-2.46,15.75.06,23.63.55,1.71.9,3.5,1.21,5.27.22,1.27.3,2.58-.08,3.85-.57,1.88-2.44,3.44-4.24,3.47-1.99.03-3.06-1.12-3.45-2.98,2.93-.65,3.29-1,3.26-3.22-.03-2.23-.41-2.59-3.32-3.13ZM48.03,134.47c-.24.28-.48.56-.72.84-.88.74-1.88,1.4-2.05,2.95,1.35-.65,2.08-1.43,2.48-2.5.27-.25.55-.5.82-.76.26-.25.52-.51.78-.76,4.63-3.53,8.6-7.71,12.22-12.25,2.73-3.42,4.67-7.39,7.58-10.67,2.23-.16,3.58-1.81,5.18-3.04,5.04-3.86,10.52-6.96,16.67-8.55,4.96-1.28,10.1-1.7,15.25-1.42.4,4.31,1.93,6.16,5.35,6.68,1.21.18,2.21-.6,3.37-.49.19,2.43-2,4.27-1.64,6.74-5.99,5.16-10.41,11.3-12.08,19.18-.32,1.5-.73,2.98-1.1,4.48-1.97,8.1-3.89,16.19-7.9,23.65-1.81,3.36-3.08,7.04-3.44,10.94-2.25,3.1-1.71,6.57-1.38,10.03,1.29-3.21,2.18-6.51,2.74-9.9.62-2.23,1.49-4.33,2.64-6.36,1.65-2.9,3.04-5.96,4.41-9.01,3.34-7.44,4.88-15.43,6.9-23.26,1.39-5.37,3.81-10.11,7.87-13.92,4.89-4.58,9.82-9.11,14.73-13.66,5.11-4.74,9.9-9.75,13.24-15.96,4.01,1.21,4.11,1.15,4.5-2.7.04-.38,0-.79.11-1.15.44-1.46,1.75-1.94,3.02-1.06.52.36.93.89,1.33,1.39.41.51.77,1.11,1.54.74.62-.3.86-.91.95-1.59.29-2.09-.66-3.82-1.87-5.32-.75-.92-1.06-1.6-.57-2.72.46-1.05.68-2.21,1.05-3.31.44-1.3,1.17-2.03,2.74-2.24,4.89-.64,7.08-6.05,4.38-10.22-.9-1.38-2.06-1.33-3.35-1.25-1.46.08-1.35,1.19-1.56,2.22-1.06,5.32-4.09,8.7-9.62,9.57-4.3.68-8.64,1.17-12.87,2.18-3.51.84-7.87.03-9.96,4.34-.22.46-1.08.64-1.68.89-2.38.98-4.72,2.1-7.17,2.84-3.3,1-6.37,2.88-9.99,2.68.28-.52.56-1.04.83-1.57.35-.13.41-.23.18-.27-.03,0-.09.2-.14.3-.76.11-1.55.1-2.27.34-4.02,1.38-8.03,2.6-12.34,2.91-3.04.22-6.15.8-8.91,2.27-4.77,2.53-8.94,5.63-10.28,11.33-.48,2.04.72,1.78,1.94,1.66-2.36,3.58-5.81,6.13-8.69,9.22-1.2,1.28-2.99,2.34-.38,4.13.81.55.99,2.02,1.46,3.06-2.06,4.18-4.92,7.77-8.04,11.19-1.89,2.07-4.11,3.87-5.49,6.39l-.77.77ZM151.46,191.17c.14.34.21.77.45,1.01.39.37.76.04.8-.34.14-1.4-.03-2.87.31-4.21,1.46-5.65.21-11.21-.47-16.77-.14-1.17,0-2.83-1.75-3.96,0,2.28-.29,4.22.06,6.05.82,4.34.47,8.69.57,13.04-.22-.45-.64-.91-.63-1.35.13-3.36-.98-6.59-.98-9.94,0-1.82-.14-3.66-1.59-5.2-.79.88-.77,1.66-.63,2.39.76,4.03,1.08,8.12,1.77,12.14.41,2.38-.33,5.28,2.09,7.13ZM25.73,173.45c1.14-.39,1.34-1.42,1.71-2.39,3.06-7.9,5.63-16.03,10.4-23.17.04-.06-.08-.21-.19-.51-1.26.03-1.96,1-2.59,1.86-5.34,7.21-7.76,15.55-9.31,24.22-.35.09-.42.19-.19.26.02,0,.11-.18.16-.28ZM82.1,165.24c2.4-2.24,3.48-6.36,2.39-9.03-.82-2-3.24-2.82-5.14-1.61-.85.54-1.59,1.31-2.26,2.08-1.71,1.97-.06,1.99,1.3,2.15-1.53,3.1-3.07,6.2-2.95,9.79.04,1.34.24,2.7,1.78,3.02,1.48.31,2.3-.71,2.98-1.91.81-1.43.69-3.24,1.9-4.5ZM114.78,186.61c.51-.07,1.1-.09,1.33-.61,1.01-2.21.37-6.57-1.14-8.01-1.64-1.58-5.34-2.04-7.6-.61-4.12,2.6-6.31,6.56-7.06,11.29-.22,1.36-.12,2.85.18,4.2.25,1.14,1.14,2.18,2.46,2.05,1.46-.14.93-1.57,1.21-2.47,3.36-1.76,6.73-3.52,10.08-5.29.22-.11.36-.36.54-.54ZM145.45,134.03c-.16,1.82-.85,3.5-1.38,5.23-1.75,5.7-2.1,11.35.16,17.05,1.24,3.12,1.85,6.44,2.49,9.73.19.97.06,2.13,1.61,2.48.49-3.13.14-6.14-.87-9.06-2.3-6.65-3.29-13.25-.15-19.96.76-1.62,1.02-3.46,1.59-5.17,3.83-11.46,6.36-23.12,5.79-35.3,1.32-4.36-.24-8.39-4.1-10.46-1.48-.79-2.64-.26-2.89,1.32-.25,1.6-1,2-2.51,2.22-3.23.46-5.74,2.35-7.5,5.01-6.17,9.34-14.14,17.31-20.2,26.73-.75,1.17-1.85,2.2-2.98,3.01-5.01,3.57-7.54,8.73-8.9,14.42-1.93,8.08-3.53,16.23-6.66,23.97-.55,1.35-.15,2.51.66,3.61-1.62,5.43-3.04,10.92-4.9,16.26-2.84,8.15-3.69,16.54-3.72,25.08,0,1.9,0,3.79,0,6.54,1.37-2.53,1.31-4.33,1.41-6.12.31-5.4,1.01-10.75,2.16-16.04,1.93-8.83,4.84-17.33,8.53-25.58,3.32-7.4,6.19-14.99,8.88-22.64,3.06-1.12,4.91-3.68,6.74-6.08,5.44-7.13,10.67-14.42,16.02-21.61,1.15-1.55,2.47-2.99,4.14-4,2.8-1.7,4.75-1.08,6.17,1.89,1.64,3.44,1.04,7.1.59,10.61-.29,2.32-.51,4.57-.19,6.87ZM171.17,93.81c.99.02,1.05-.45,1.06-.79.06-5.17.27-10.34.07-15.5-.14-3.55-1.4-6.81-4.42-9.11-1.36-1.03-2.17-2.42-2.86-4.03-1.68-3.91-3.49-7.78-5.82-11.35-1.7-2.61-4.07-4.28-7.29-4.49-.92-.06-1.85.03-2.37.95-.59,1.02.16,1.68.73,2.37,1.35,1.65,3.18,2.61,5.04,3.53,3.15,1.56,5.23,3.68,4.63,7.57-.31,1.99.47,3.56,2.55,4.22,2.56.81,3.97,2.78,5.03,5.05,1.28,2.73,1.72,5.63,1.75,8.64.05,4.43.63,8.8,1.9,12.94ZM21.38,186.66c.48-2.18.72-3.82,1.22-5.39,1.33-4.21,1.25-8.63,2.13-12.9,2.13-10.3,5.99-19.95,11.29-29.03.2-.35.31-.68.02-1.1-1.21-.38-1.4.7-1.88,1.38-6.85,9.71-11.16,20.51-13.94,32.02-1.19,4.94-2.23,9.74,1.16,15.02ZM93.96,113.77c-7.98,2.06-11.53,6.31-12.49,13.31-.51,3.75-.33,7.46-.51,11.19-.19,3.89-3.12,5.69-6.74,4.23-2.35-.94-3.52-3.1-3.2-5.97.33-2.99,1.39-5.76,2.68-8.44.82-1.69,1.12-3.43.94-5.27-.28-2.86-1.37-3.62-4.55-3.31,3.17,2.38,3.62,3.75,1.99,7.13-1.35,2.8-2.58,5.59-3.24,8.66-.47,2.17-.09,4.12.7,6.03,1.35,3.3,4.4,4.79,8.27,4.19,3.23-.5,5.25-2.87,5.39-6.54.09-2.45-.12-4.92.04-7.36.29-4.4.98-8.68,3.72-12.4,1.68-2.29,4.21-3.34,7.02-5.46ZM63.54,165.69c3.52-.06,6.4-2.54,6.34-5.46-.05-2.65-2.91-5.32-5.7-5.33-3.27-.01-5.99,2.96-5.84,6.4.12,2.78,2.09,4.45,5.21,4.4ZM121.61,144.6c0,.13-.05.31.01.38.17.18.38.37.61.45,2.94.99,3.8,3.21,3.65,6.07-.1,1.8-.02,3.6-.52,5.38-.62,2.23-.11,4.38.98,6.35,1.21,2.19,3.47,2.95,6.41,2.45,2.27-.39,3.49-2,3.66-3.98.28-3.38.08-6.79.08-10.15-1.14-.09-1.14.53-1.31.97-.87,2.36-.72,4.81-.76,7.26-.04,2.4-1.09,3.5-3.12,3.66-1.95.15-3.36-.89-3.82-3.05-.38-1.78-.27-3.62.22-5.37.5-1.78.57-3.59.38-5.38-.39-3.69-2.83-5.53-6.46-5.04ZM133.6,183.77c.03-3.04-1.24-5.06-3.34-5.55-2.2-.51-4.69.86-5.58,3.03-.92,2.26-.12,4.33.96,6.19,1.65,2.83,3.83,2.89,6.24.55,1.29-1.26,1.94-2.66,1.72-4.23ZM166.92,94.99c.08-2.05-1.67-4.58-3.68-5.33-2.05-.77-3.53-.35-4.67,1.33-1.34,1.96-1.21,4.47.33,6.47,1.26,1.63,3.6,2.64,5.04,2.16,1.46-.48,2.91-2.73,2.98-4.63ZM166.24,77.6c.09-2.82-2.64-6.08-5.25-6.29-1.81-.14-3.32,1.35-3.4,3.36-.12,3.26,2.53,6.45,5.38,6.46,1.87,0,3.2-1.43,3.27-3.53ZM54.12,148.38c0-.87.05-1.7-.74-2.15-.82-.47-1.48.08-2.08.53-1.9,1.43-3.36,3.2-3.78,5.6-.2,1.13-.38,2.42.97,3.01,1.19.53,2.27.04,3.17-.79,1.84-1.7,2.13-4.01,2.45-6.22ZM111.56,126.08c2.75-.85,4.73-2.78,6.03-5.42.57-1.17,1.08-2.66-.24-3.49-1.08-.68-2.43-.34-3.59.54-2.22,1.67-2.99,4.15-3.85,6.55-.36,1,.41,1.66,1.65,1.82ZM92.48,260.33c-.01-.16.03-.82-.11-1.43-.27-1.14-.69-2.24-2.09-2.39-1.32-.15-2.14.54-2.71,1.68-.85,1.69-.95,3.42-.31,5.18.48,1.31,1.47,2.15,2.86,2.16,1.26,0,1.44-1.26,1.93-2.11.47-.81.47-1.71.44-3.08ZM77.76,133.29c-.05-.8,0-1.97-.25-3.08-.2-.9-1-1.11-1.81-.63-1.93,1.15-3.32,6.02-2.27,8.01.42.79.99,1.57,2.03,1.52,1.03-.05,1.53-.88,1.92-1.68.58-1.2.29-2.52.38-4.14ZM147.51,146.68c0,1.51-.02,2.66,0,3.81.02.77.06,1.63.98,1.85,1.21.29,1.6-.74,1.79-1.55.74-3.14.39-6.34.25-9.52-.03-.54-.44-.95-.99-.99-.54-.04-.92.31-1.21.77-1.19,1.87-.66,3.97-.82,5.61ZM102.17,105.06c-.36-1.07-1.1-1.9-2.37-1.96-1.32-.06-2.73,1.59-2.43,2.8.32,1.29,1.32,1.81,2.54,1.85,1.13.03,2.39-1.48,2.27-2.69ZM160.6,231.34c-.04-1.19-.74-2.09-1.91-2.5-.97-.34-2.36,1.03-2.51,2.4-.15,1.32.34,2.31,1.74,2.53,1.13.18,2.57-1.14,2.68-2.43ZM137.48,127.82c1.36-.1,2.34-.69,2.22-2.11-.12-1.43-1.09-2.38-2.51-2.48-1.4-.1-2.08.89-2.1,2.21-.02,1.58.92,2.29,2.39,2.39ZM94.2,174.06c-.21-.73-.04-1.63-.97-1.92-1.22-.39-1.49.63-1.88,1.41-.17.34-.32.71-.36,1.08-.08.98-.48,2.2.94,2.5,1.12.23,1.46-.82,1.84-1.6.22-.45.28-.97.42-1.47ZM132.07,158.96c.04-1.5-.53-2.88-1.24-3.04-.82-.18-1.92,1.53-1.87,2.97.04,1.16.52,2.07,1.8,2.04,1.22-.03,1.27-1.04,1.31-1.97Z"/>
      <path class="cls-5" d="M196.09,137.35c.59-.85,1.18-1.7,1.77-2.55.56.22,1.13.45,1.69.67,3.81,3.17,8.32,4.62,13.12,5.35.89.56,1.9.72,2.91.92,4.8.96,8.36,3.86,11.28,7.58,1.45,1.84,1.92,4.1,2.43,6.4.69,3.09.63,6.17.39,9.21-.46,5.71-4.45,9.96-10.32,11.6-2.89.81-5.83.88-8.79.82-.7.01-1.38.05-1.74.8,0,0,.06-.04.06-.04-1.25.13-2.91-.56-3.13,1.59,0,0,.06-.01.06-.01-1.78-.32-2.93.71-3.92,1.94-.72.89-1.24,1.96-2,2.81-.99,1.11-.54,3.48-2.42,3.53-1.43.04-2.89-.9-4.33-1.42-.48-.17-.99-.62-1.41-.55-4.35.79-8.42-1.51-12.79-1.06-2.57.26-4.58,1.56-6.79,2.52-1.12.49-2.14.95-3.18-.03-1.71-1.61-5.6-.1-5.69-4,1.33.38,2.59,1.05,4.07.87.81-.1,1.52-.22,1.7-1.17,1.79-3.38,1.27-6.78.05-10.17.29-1.21-.03-2.31-.63-3.35,2.43-1.37,3.37,1.58,3.41,2.15.29,4.06,2.82,4.01,5.88,4.16,3.24.17,6.06,1.99,8.83,3.64,3.77,2.24,6.4,2.22,9.24-.01.4-.31.81-.65,1.11-1.05,2.14-2.85,1.4-10.58-1.43-12.81-1.56-1.23-1.99-3.8-4.53-3.85h0c-.82-1.43-1.97-2.49-3.44-3.26-.86-.45-1.87-.76-2.06-1.94,5.06-.1,10.42-1.93,14.69,2.57.07.07.43-.14.65-.22-1.54-3.18-5.46-5.33-10.67-5.85.05-1.02.28-2.05-.27-3.37-3.05.88-5-.41-5.72-3.55.9.1,1.72-.06,2.53-.49,2.25-1.19,2.46-2.12.81-4.03-.9-1.04-1.82-2.05-2.74-3.07,1.96-.99,4.09-1.32,6.22-1.62,2.84,2.61,5.82,5.05,9.27,6.82,1.8.92,3.66,1.35,6.14.26-3.49-2.81-7.61-3.75-10.31-6.76ZM209.19,152.35c-1.51.27-2.88,1.12-4.49.98-.76-.07-1.64-.03-1.87.94-.17.72.44,1.09.94,1.52,2.79,2.47,5.16,5.37,7.32,8.35,2.24,3.1,4.97,4.22,8.59,3.9,2.5-.22,3.95-1.31,4.67-3.77.88-3.02,1.1-5.9-.43-8.93-1.63-3.21-1.4-3.32-4.81-2.74-.86-2.61-3.03-3.72-5.4-4.39-3.27-.92-4.81.57-4.51,4.14ZM194.89,144.42c-.15-.85-.51-1.83-1.84-1.66-.7.09-1.72.36-1.7,1.24.03,1.29.98,2.03,2.22,2.16.98.1,1.27-.64,1.31-1.74ZM204.59,163.17q-.76-1.9-2.52-2.44c.31,1.39,1.01,2.2,2.52,2.44ZM206.28,165c-.09-.2-.13-.48-.29-.57-.13-.08-.39.07-.59.11.11.19.19.42.33.58.22.23.42.17.55-.12Z"/>
      <path class="cls-4" d="M17.77,212.18c2.91.54,3.29.9,3.32,3.13.03,2.22-.32,2.58-3.26,3.22-1.03-2.11-.78-4.23-.07-6.35Z"/>
      <path class="cls-1" d="M205.75,179.71c.22-2.15,1.89-1.45,3.13-1.59-.85.91-1.9,1.43-3.13,1.59Z"/>
      <path class="cls-1" d="M208.83,178.16c.35-.75,1.04-.79,1.74-.8-.42.62-1.06.74-1.74.8Z"/>
      <path class="cls-1" d="M428.31,173.34c-1.12,5.19-.55,10.31.57,15.41.19.86.25,1.74.37,2.61-1.34-.12-2.7,0-3.04,1.54-.34,1.58-.77,3.47.25,4.76,1.23,1.56,2.73-.07,4.11-.39-.14,3.74-1.81,5.75-4.69,5.65-2.69-.09-4.5-2.25-4.65-5.59-.08-1.81.19-3.55.78-5.29.82-2.42,1.55-4.87,1.71-7.46.24-3.95-1.01-7.04-4.7-8.88-1.42-4.37-2.34-4.67-6.11-2.25-2.69,1.73-4.28,4.36-5.69,7.03-.87,1.63-1.09,3.65.3,5.36-2.39,5.71-4.51,11.49-6.1,17.49-.4,1.51-.74,2.94-.78,4.47-.05,2.07-.21,4.13-.17,6.2.08,4.22-.71,8.28-2.66,11.97-4.04,7.63-4.13,15.54-2.26,23.71.83,3.64,2.02,7.22,2.03,11.01,0,1.41.03,2.88-.29,4.23-.66,2.78-3.1,4.69-5.52,4.61-2.76-.1-4.92-2.12-5.24-5.27-.28-2.69-.15-5.39.46-8.08,1.45-6.41,3.07-12.78,2.68-19.47-.66-11.24-4.76-21.09-12.02-29.57-3.03-3.54-6.87-5.5-11.7-3.14-2.31,1.13-4.23.45-5.93-1.33-.72-.76-1.35-1.55-1.75-2.52-1.95-4.74-6.72-5.71-11.41-4.31-6.55,1.95-11.65,6.02-16.26,10.8-4.53,4.7-5.05,10.55-4.26,16.64.28,2.17.84,4.3,1.16,6.46.32,2.18.52,4.39,0,6.55-.54,2.24-2.18,3.61-4.32,3.87-2.25.28-3.7-.89-4.72-2.69-1.37-2.41-1.19-4.96-.51-7.52,1.49-5.65,2.24-11.38,1.95-17.23-.4-8.06-3.8-14.7-9.92-19.82-4.03-3.37-9.01-3.83-13.98-2.9-3.42.64-5.17,3.3-5.58,6.66-.31,2.56-.37,5.15.35,7.7.57,2.02.62,4.11.31,6.15-.35,2.39-2.16,4.04-4.06,4-2.34-.06-4.36-1.94-4.48-4.44-.13-2.71-.01-5.4.43-8.1.77-4.63.57-9.29-.62-13.82-1.34-5.13-4.86-8.36-9.8-10.11.75-1.27,1.66-2.63,3.31-1.97,1.92.78,3.95,1.31,5.06,3.67,1.03,2.18,2.33,4.26,3.36,6.48.99,2.12,1.64,2.33,3.49.85,1.74-1.39,3.48-3.03,5.61-3.28,5.12-.61,8.46-3.44,10.92-7.63.79-1.35,2.06-1.57,3.26-1.58,1.23-.01,1.96.94,2.34,2.21.34,1.13.46,2.25.63,3.4.29,1.97.24,4.34,3.3,4.22.38-.01.86.22.7.66-1.02,2.89,1.32,1.52,2.06,1.43,1.39-.17,2.04-1.36,2.48-2.67,1.28-3.82.94-7.61-.07-11.41-.61-2.3-2.81-4.14-5.19-4.39-5.29-.55-9.36,1.77-11.29,6.73-1.21,3.1-3.32,5.21-6.21,6.54-3,1.38-6.16,2.16-8.99-.4-2.8-2.54-4.57-5.51-3.39-9.56,1.45-4.96,4.63-8.45,8.94-11.07,1.17-.71,2.77-.98,2.96-2.75,3.04-.25,5.03-2.21,6.97-4.27,3.04-3.21,3.92-7.35,4.93-11.44,1.29-.43,1.55-1.61,1.99-2.67.97-2.38,1.93-4.76,2.96-7.12.64-1.46,1.52-2.66,3.38-2.74,2-.09,3.09,1.03,3.85,2.66,1.68,3.62,3.13,7.33,3.71,11.3.15,1.04.04,2.11,1.37,2.43.09,1.55.2,3.09.26,4.64.5,13.68-.33,27.32-1.36,40.95-.06,3.42-1.43,6.74-.56,10.26,1.26-3.27,1.76-6.7,1.87-10.2.52-4.09,1.23-8.16,1.51-12.27.8-11.86,1.3-23.72.94-35.62-.11-3.5-.59-6.95-1.31-10.35-1.37-6.42-2.93-12.8-4.41-19.2.55-3.79-1.46-6.42-4.12-8.65-1.5-1.26-3.84-1.18-5.38.04-1.11.88-2.13,1.88-2.78,3.19-3.09,6.23-5.77,12.6-6.87,19.53-.39,2.46-.13,4.64,2.38,5.92-.02,5-.74,9.75-3.1,14.36-2.78,5.43-4.31,6.47-10.1,4.78.2-1.13-.96-2.11-.37-3.36.92-.48,1.69.16,2.52.35,1.8.42,3.09-.45,3.7-1.99,1.49-3.75,3.3-7.47,2.71-11.71.08-.16.17-.32.25-.48-.16.09-.32.17-.47.26-1.13.55-1.36,1.85-2.19,2.62-2.09,1.92-3.49,4.97-7.08,4.59-1.12-.89-2.43-.98-3.77-.94-.3-.27-.6-.54-.9-.8,3.3-2.53,5.91-5.57,7.72-10.04-2.82,1.24-3.9,3.85-6.4,4.35-.18-.93-.36-1.86-.54-2.79,4.26-4.15,8.33-8.47,11.19-13.76,4.44-8.2,7.79-16.76,9.17-26.07.63-4.25.69-8.48.7-12.74,0-6.03,1.15-11.53,6.4-15.4,2.25-1.66,2.63-4.35,3.31-6.83,1.93-7.04,8.84-12.25,16.08-12.15,1.77.03,3.46.24,4.24,2.06.81,1.89.15,3.5-1.34,4.85-.67.61-1.32,1.26-1.85,1.98-2.42,3.29-1.77,7.51,1.57,9.87,2.81,1.99,6.02,2.97,9.45,3.05,10.63.24,20.67,2.76,30.14,7.58,6.48,3.3,13.29,5.79,20.45,6.92,9.32,1.46,16.14,6.48,21.5,13.87,2.43,3.34,4.88,6.69,7,10.23,5.61,9.37,13.03,17.3,19.89,25.69,9.13,11.17,15.35,23.83,18.63,37.89.91,3.89,1.47,7.86,1.36,11.89-.04,1.59-.34,3.08-1.09,4.47-1.18,2.19-3,2.38-4.57.46-.48-.59-.88-1.31-1.09-2.03-2.44-8.39-8.07-13.9-15.76-17.58.2-2.38-.95-3.76-3.08-4.73-2.3-1.06-4.5-1.2-6.61.15-2.07,1.33-3.62,3.26-5.25,5.08-1.04,1.17-.67,2.68-.66,4.08,0,.91.48,1.42,1.43,1.43ZM434.83,135.25c-.25-.27-.5-.54-.75-.81-.35-1.35-1.36-2.18-2.4-2.98-5.25-5.6-9.97-11.57-13.4-18.49.8-1.59,3.09-2.81,2.78-4.34-.29-1.45-2.39-2.49-3.55-3.83-1.21-1.4-3.32-2.24-3.11-4.61,1.39-2.37-.26-4.2-1.34-5.91-3.32-5.28-8.36-8.05-14.39-9.29-5.23-1.08-10.65-1.28-15.67-3.47-1.1-.48-.26.73-.29,1.17-4.21-.09-7.98-1.79-11.71-3.46-3.76-1.68-7.66-2.92-11.58-4.08-2.75-.82-3.69.19-3.31,2.98.1.76.08,1.54.12,2.31-2.32-.27-4.55-1.13-6.93-1.02-1.37-1.14.1-3.71-1.87-4.3-1.55-.46-3.31-.19-4.98-.21-1.29-.02-2.6-.16-3.85.06-4.32.75-6.44,2.68-7.18,7.28-.16,1.03-.63,2.57.65,3.11,1.28.53,1.46-1.06,2.08-1.78,1.72-2.01,3.53-1.97,4.61.07.4.75.3,1.46.03,2.22-.47,1.31.24,1.96,1.42,2.16.88.15,1.79.13,2.69.19,5.89,10.32,15.16,17.45,23.9,25.03,5.72,4.96,10.19,10.52,11.91,18.04.94,4.14,2.05,8.24,3.08,12.36,1.25,5,2.71,9.86,5.44,14.35,3.85,6.35,5.74,13.47,7.25,20.68-.26,2.95.75,5.53,2.53,7.78.88,1.11,2.22,1.95,3.72,1.42,1.47-.52,2.06-1.82,2-3.39-.14-3.36-.81-6.58-2.64-9.47-.73-1.16-1.29-2.98-2.87-2.7-2.08.37-1.13,2.51-1.51,3.87-.22-.46-.59-.9-.62-1.37-.39-5.91-2.42-11.35-5.08-16.52-2.86-5.56-4.62-11.42-5.96-17.46-1.18-5.28-2.79-10.45-4.41-15.6-.86-2.73-2.31-5.13-3.99-7.46-1.99-2.75-4.71-4.74-6.96-7.21-.06-2.07-1.23-3.98-.81-6.11,5.95,1.44,8.37-.27,8.68-6.12,4.21.03,8.39-.4,12.62.56,7.54,1.71,14.18,5.02,20.04,9.99,1.09.92,2.23,1.74,3.78,1.6,2.94,3.21,5.09,6.99,7.6,10.51,2.97,4.15,6.16,8.12,10.16,11.35.68,1.18,1.63,2.04,2.93,2.48.26.25.53.49.79.74l.83.72c.26.26.52.52.78.78.14.4.4.65.82.74.05.1.08.23.16.3.05.05.16.03.25.04-.13-.12-.25-.25-.38-.37-.04-.44-.27-.73-.7-.86-.11-.41-.35-.68-.77-.78-.22-.29-.44-.59-.67-.88ZM404.91,136.93c.22,1.56.55,3.24-1.55,3.76-1.36.34-2.95-1.09-3.53-2.95-.22-.71.09-1.6-.91-2.54,0,1.6-.05,2.76.01,3.91.13,2.41,1.08,3.28,3.65,3.41,2.35.12,3.82-.9,4.1-3.13.24-1.92.33-3.91-.28-5.76-.92-2.82-.34-5.17,2.47-7.54-3.9.7-3.86,3.45-4.61,5.61-2.54.21-2.91,2.01-2.97,4.05-.03,1.07.13,2.06,1.24,2.53,1.33.56,1.73-.62,2.37-1.35ZM407.46,160.29c.12.38.24.45.31.18.01-.04-.19-.13-.29-.2,0-3-2.35-4.36-4.33-5.86-.91-.69-2.26-.56-3.28.08-1.48.94-2.74,2.56-2.19,4.1.68,1.9-.69,5.01,2.73,5.58.13.02.25.02.38.04.53,1.57.92,3.2,1.62,4.68.56,1.19,1.05,3.04,2.8,2.64,1.7-.39,2.09-2.13,2.04-3.73-.04-1.01-.41-2-.58-3-.19-1.12-1.1-2.07-.79-3.31-.06-1.17.29-1.8,1.58-1.21ZM355.57,185.03s-.13.14-.13.14c-.86.25-1.7.57-2.57.73-3.99.75-5.84-.76-5.93-4.82-.03-1.41.19-2.79.46-4.19.42-2.24-.68-4.28-2.43-5.19-1.72-.91-3.21-.79-4.33.96-1.33.64-1.98,1.51-2.31,3.15-.84,4.13-.64,8.36-1.93,12.49-.95,3.03-.82,6.56,1.57,9.81,1.02-1.79,1.79-3.39,3.32-4.47,5.51-3.87,11.73-3.23,16.54,1.8.53.55,1.16,1,1.77,1.48,1.79,1.41,2.09,1.39,3.04-.6.88-1.83,1.18-3.96,2.88-5.36,1.43-1.18,2.04-2.59,1.18-4.42-.53-1.13-.33-2.02,1.1-2.25.13,2.12,1.1,3.49,3.17,4.29,1.4.54,2.65,1.51,3.91,2.38,2.96,2.05,3.58,1.78,4.17-1.92.35.03,1.01.11,1.01.08.27-1.52,1.77-2.47,1.83-4.08.05-1.55,1.06-2.2,2.45-2.43.42.79.93,1.54,1.24,2.36,2.21,5.92,2.98,12.17,4.11,18.34.58,3.18.79,6.4,1.19,9.62.26-5.77.7-11.5-.29-17.26-.98-5.72-3.09-11.12-4.21-16.79,2.86-2.24,2.93-2.41,1.7-5.35-2.89-6.89-5.8-13.76-8.72-20.64-.86-2.03-1.47-4.09-1.4-6.35.23-6.74-3.05-12.07-7.07-17.08-1.63-2.04-4.22-3.06-5.74-5.13-3.21-4.35-6.36-8.74-9.67-13.01-3.78-4.88-7.37-9.91-10.99-14.92-1.59-2.2-3.72-3.67-6.29-4.22-1.64-.35-2.78-.46-3.15-2.53-.29-1.61-1.6-1.79-3.01-.88-3.82,2.45-5.09,5.74-3.95,10.26,0,7.21.04,14.4,1.79,21.48,1.69,6.88,3.76,13.63,6.27,20.25,1.36,3.57,1.87,7.19.75,10.95-1.21,4.07-1.89,8.24-2.17,12.47-.63.71-.92,1.54-.92,2.48,0,4.4-1.13,8.68-1.41,13.02-.21,3.28-1.42,6.55-.57,9.89,2.44-8.31,2.94-16.91,4.28-25.38-.18-1.84.27-3.7,1.17-5.12,4.01-6.31,3.53-12.83,1.35-19.5-.68-2.09-1.19-4.17-1.13-6.37.06-2.19.05-4.38.2-6.57.22-3.26,4.1-6.56,6.89-5.74,1.96.57,3.77,1.53,5.18,3.21,4.3,5.11,8.65,10.18,13.11,15.16,1.93,2.16,3.47,4.44,4.23,7.24,1.5,5.52,4.07,10.57,6.9,15.49.31.53.88.97.35,1.91-1.59.16-2.85-1.44-4.59-1.21-5.39.7-10.13,5.28-11.11,10.9-.64,3.67-1.3,7.33-2.49,10.87-.2.18-.4.36-.6.55ZM447.02,137.8c-.04-.09-.06-.19-.12-.26-.03-.04-.12-.04-.19-.05l.34.29c-.16,2.33,1.2,4.18,2.08,6.14,4.22,9.39,8.25,18.81,9.76,29.14.39,2.65.14,5.42,1.17,7.98.29.71.4,1.62,1.37,1.61,1.02-.01.96-1,1.25-1.69,1.57-3.74.33-7.51-.54-10.97-1.97-7.86-4.81-15.51-8.85-22.59-1.89-3.3-3.36-6.93-6.27-9.6ZM428.54,148.69c-.87.07-1.75-.13-2.3.95-1.53,3.05-1.58,3.03-4.58,1.91-2.24-.84-4.9-.02-6.01,1.99-1.72,3.11-1.26,6.28.34,9.2,1.36,2.49,4.46,3.08,6.64,1.2,3.92-3.37,8.23-5.18,13.46-4.51,1.37.18,2.6-.27,3.34-1.5,1.06-1.79.43-3.78.53-5.69.07-1.29-.33-2.43-1.68-3.4-.92,2.03-.29,3.87-.61,5.58-.28,1.46-.8,2.85-2.65,2.74-1.37-.08-3.36.8-3.41-1.82,3.61.2,4.41-.84,3.17-4.12-.6-1.61-1.65-2.91-2.96-3.96-1.73-1.38-2.34-1.08-3.27,1.43ZM359.39,142.61c0-6.29-3.27-10.23-8.55-10.26-4.26-.02-7.8,4.24-7.78,9.38.01,5.06,3.54,9.17,7.94,9.25,5.27.1,8.39-3.01,8.39-8.37ZM310.44,94.17c1.76-1.49,2.39-3.32,2.33-5.23-.12-3.64.54-7.19.9-10.77.48-4.82,1.95-9.13,7.08-11.01,1.95-.71,2.7-2.28,2.08-3.98-1.28-3.56.94-5.27,3.24-6.96,1.13-.83,2.48-1.37,3.73-2.04,1.16-.62,2.17-1.44,2.87-2.55,1.05-1.67.29-3.06-1.65-3.19-1.19-.08-2.34.12-3.34.78-2.62,1.73-5.07,3.72-6.11,6.77-1.13,3.33-2.97,6.29-4.42,9.45-.49,1.06-1.07,2.1-2.06,2.77-3.46,2.34-4.49,5.89-4.6,9.71-.17,5.41-.04,10.84-.04,16.25ZM332.22,66.11c-.35-1.69-.73-3.83-1.26-5.92-.23-.92-.32-2.09-1.72-2.23-1.38-.13-2.5.2-3.4,1.32-2.52,3.1-1.35,8.1,2.32,9.77,2.51,1.14,4.04.21,4.07-2.94ZM289.61,168.06c.07,3.07,3.34,6.44,6.27,6.09,3.86-.46,6.14-2.23,6.04-6.51-.08-3.3-3.41-6.71-6.35-6.6-2.98.1-6.03,3.7-5.96,7.01ZM324.46,93.81c-.08-1.48.34-3.17-1.55-3.93-1.68-.68-3.78-.08-5.16,1.5-.49.57-.93,1.22-1.25,1.9-.97,2.04-.08,4.92,1.79,6.02,1.68.99,3.58.22,5.16-1.9.82-1.11,1.09-2.27,1.01-3.59ZM455.79,173.23c.47-.18.95-.35,1.42-.53-2.17-9.78-5.56-19-12.65-26.93-.21.67-.43.98-.35,1.12,4.99,8.27,8.76,17.08,11.58,26.33ZM319.61,80.46c3.14.08,6.24-3.8,5.5-6.91-.44-1.84-2.23-2.81-4.16-2.25-2.73.79-4.64,3.63-4.33,6.46.2,1.92,1.01,2.65,2.99,2.7ZM385.74,202.87c.03-2.28-1.39-4.73-2.94-5.24-1.38-.45-2.5.01-3.37,1.13-1.18,1.53-.92,3.25.83,5.53.08.1.13.22.21.32.91,1.35,2.23,1.78,3.66,1.21,1.35-.54,1.55-1.89,1.6-2.95ZM372.58,123.56c-.55-2.73-2.59-4.71-5.27-6.17-.67-.37-1.45-.67-2.13-.05-.64.59-.53,1.43-.36,2.16.69,2.94,2.74,4.87,5.15,6.38,1.5.93,2.69-.03,2.6-2.32ZM387.32,108.99c-.04-2.08-1.43-3.61-3.23-3.55-1.91.06-3.83,2.18-3.77,4.16.06,2.01,1.4,3.34,3.41,3.38,2.32.04,3.64-1.43,3.59-3.98ZM335.35,147.97c-.03-2.74.3-4.97-1.14-6.87-.31-.4-.68-.77-1.25-.75-.77.03-1.22.58-1.28,1.2-.38,3.57-.55,7.14,1.12,10.5.22.44.52.92,1.15.84.76-.09,1.1-.69,1.17-1.31.16-1.39.19-2.8.24-3.62ZM396.65,260.42c.02-.33-.47-1.07-1.14-1.7-.73-.7-1.4-1.59-2.59-1.38-1.39.25-1.59,1.45-2.02,2.53-.62,1.55.2,2.74.77,4,1.06,2.33,2.23,2.46,3.74.39.68-.94,1.2-1.97,1.24-3.83ZM398.74,115.9c1.59,0,3.06-1.32,3.07-2.55,0-1.21-1.44-2.58-2.79-2.63-1.55-.05-2.43.97-2.36,2.74.05,1.5.74,2.37,2.08,2.44ZM321.38,233.7c.05,1.28.45,2.43,1.9,2.39,1.66-.05,1.96-1.36,1.92-2.76-.03-1.28-.47-2.42-1.9-2.39-1.68.04-1.91,1.4-1.92,2.75ZM344.72,123.89c-1.26-.07-2.23.76-2.34,1.99-.11,1.22,1.03,2.37,2.42,2.41,1.21.03,1.89-.63,2.06-1.8.19-1.39-.76-2.53-2.13-2.6Z"/>
      <path class="cls-5" d="M286.35,141.58c.3.27.6.54.9.8.09,1.39-.6,3.33,1.52,3.59,1.54.19,2.46-.95,2.25-2.65,3.59.38,4.99-2.66,7.08-4.59.83-.76,1.06-2.07,2.19-2.62l.23.23c.59,4.25-1.22,7.96-2.71,11.71-.61,1.54-1.9,2.41-3.7,1.99-.83-.19-1.61-.83-2.52-.35-.59,1.26.57,2.23.37,3.36-2.02.42-4,.98-5.83,1.92-4.2,2.17-7.48,5.24-9.15,9.8-.91.18-1.42.72-1.47,1.66-.33.19-.59.44-.53.86.01.09.17.15.27.23.14-.32.27-.64.41-.96.97-.06,1.41-.65,1.56-1.54,2.29-2.21,4.54-4.47,6.88-6.63,2.18-2.02,4.65-2.96,7.66-1.86,1.3.47,2.71.66,4.07.97-.19,1.77-1.79,2.03-2.96,2.75-4.31,2.62-7.5,6.11-8.94,11.07-1.18,4.05.59,7.01,3.39,9.56,2.82,2.56,5.98,1.78,8.99.4,2.89-1.33,5-3.44,6.21-6.54,1.93-4.96,6.01-7.28,11.29-6.73,2.38.25,4.57,2.08,5.19,4.39,1.01,3.79,1.35,7.59.07,11.41-.44,1.31-1.09,2.5-2.48,2.67-.74.09-3.07,1.46-2.06-1.43.15-.44-.32-.67-.7-.66-3.06.12-3.01-2.26-3.3-4.22-.17-1.15-.29-2.27-.63-3.4-.38-1.27-1.11-2.22-2.34-2.21-1.2.01-2.47.23-3.26,1.58-2.45,4.19-5.8,7.02-10.92,7.63-2.13.25-3.87,1.89-5.61,3.28-1.85,1.48-2.5,1.27-3.49-.85-1.03-2.22-2.33-4.3-3.36-6.48-1.11-2.35-3.14-2.89-5.06-3.67-1.64-.66-2.56.7-3.31,1.97-2.53-1.15-5.33-.47-7.96-1.25-2.26-.67-4.36-1.59-6.35-2.74-4.25-2.46-5.71-6.67-5.76-11.13-.05-4.48,1.03-8.92,3.11-13,2.27-4.45,6.17-7.15,10.81-8.01,7.63-1.42,14.52-4.23,20.73-8.8.18.93.36,1.86.54,2.79-.55.9-1.34,1.52-2.2,2.12-2.32,1.64-4.74,3.1-7.28,4.38-.79.4-1.82.85-1.41,1.96.37,1.01,1.38.96,2.33.78,2.74-.52,4.99-2.02,7.23-3.55ZM264.04,151.17c-.68-1.35-1.53-2.2-2.94-.81-.64.63-1.38,1.28-1.71,2.07-1.72,4.14-2.39,8.37-.93,12.78.42,1.26,1.21,2.01,2.35,2.35,2.82.82,5.66.98,8.06-1.08,1.76-1.51,3.34-3.24,4.94-4.92,1.27-1.32,1.3-2.73.05-4.13-.85-.95-1.97-1.71-2.27-3.07.47-.62,1.03-1.18,1.39-1.86,1.35-2.48.3-4.28-2.53-4.47-1.49-.1-2.82.36-4.02,1.17-.85.58-1.6,1.3-2.4,1.95ZM312.22,178.51c.05.7.02,1.49.17,2.24.2,1,.4,2.17,1.6,2.42,1.11.23,1.93-.52,2.58-1.37,1.48-1.94,1.37-6.98-.21-8.81-.82-.95-1.74-1.09-2.57-.02-1.24,1.61-1.4,3.54-1.56,5.54Z"/>
      <path class="cls-4" d="M428.31,173.34c-.95,0-1.43-.52-1.43-1.43,0-1.39-.38-2.91.66-4.08,1.62-1.82,3.18-3.75,5.25-5.08,2.11-1.35,4.3-1.21,6.61-.15,2.13.98,3.29,2.35,3.08,4.73-.89-.06-1.79-.07-2.68-.18-6.34-.81-8.75.48-11.49,6.19Z"/>
      <path class="cls-4" d="M407.52,185.84c-1.39-1.71-1.17-3.73-.3-5.36,1.41-2.67,3-5.3,5.69-7.03,3.77-2.42,4.69-2.12,6.11,2.25-2.54-.24-4.38,1.09-6.14,2.68-2.33,2.11-3.65,4.92-5.36,7.46Z"/>
      <path class="cls-4" d="M430.57,197.28c-1.38.32-2.88,1.95-4.11.39-1.02-1.29-.59-3.18-.25-4.76.33-1.54,1.7-1.66,3.04-1.54.11.4.22.79.34,1.19-.2.49,0,.84.4,1.12.33,1.18.76,2.34.58,3.59Z"/>
      <path class="cls-1" d="M429.99,193.68c-.39-.28-.6-.63-.4-1.12.13.37.27.75.4,1.12Z"/>
      <path class="cls-1" d="M447,220.02c2.5,2.4,3.07,5.61,1.4,8.13-.82,1.25-1.92,2.11-3.51,1.83-1.45-.26-2.67-.96-3.17-2.45-.76-2.27-.77-4.52.56-6.62,1.2-1.9,2.13-2.06,4.73-.89-.75.07-1.55-.08-2.18.51-.64.59-.91,1.25-.16,1.94.73.68,1.4.42,1.96-.25.55-.65.33-1.46.37-2.21Z"/>
      <path class="cls-1" d="M366.22,225.17c.04,2.33-1.49,2.66-3.33,2.64-1.87-.03-2.73-1.26-3.24-2.79-.64-1.89.34-3.26,1.8-4.24,1.59-1.07,3.13-1.14,4.17.84-.25-.02-.5-.03-.75-.04-1.3-.06-2.81-.07-2.79,1.63.02,1.36,1.24,2.1,2.65,2.16.49.02.99-.13,1.49-.2Z"/>
      <path class="cls-4" d="M366.22,225.17c-.5.07-1,.22-1.49.2-1.41-.06-2.63-.8-2.65-2.16-.03-1.7,1.48-1.7,2.79-1.63.25.01.5.03.75.04,1.04,1.04.73,2.31.6,3.55Z"/>
      <path class="cls-5" d="M99.61,168.85c-.81-1.1-1.2-2.26-.66-3.61,3.12-7.74,4.72-15.89,6.66-23.97,1.36-5.69,3.89-10.85,8.9-14.42,1.14-.81,2.23-1.84,2.98-3.01,6.06-9.42,14.03-17.39,20.2-26.73,1.75-2.66,4.27-4.55,7.5-5.01,1.51-.22,2.26-.62,2.51-2.22.25-1.58,1.41-2.11,2.89-1.32,3.85,2.07,5.41,6.09,4.1,10.46-2.51-2.69-5.24-2.84-8.2-.75-.84.59-1.8,1-2.64,1.6-5.95,4.23-10.57,9.78-14.95,15.5-4.38,5.71-8.05,11.92-12.34,17.71-1.71,2.31-3.72,4.63-3.94,7.77-.1.11-.21.22-.31.34.12-.1.23-.2.35-.3,2.85-1.91,4.57-4.88,6.71-7.41,5.9-6.98,10.47-14.97,16.47-21.91,3.58-4.14,7.77-7.51,12.14-10.67,2.52-1.83,4.51-.76,3.98,2.27-.64,3.6-.33,7.2-.82,10.77-.79,5.75-2.51,11.29-3.84,16.91-.27,1.14-.29,2.67-1.85,3.17-.32-2.3-.11-4.55.19-6.87.45-3.51,1.05-7.17-.59-10.61-1.42-2.97-3.37-3.59-6.17-1.89-1.67,1.01-2.99,2.46-4.14,4-5.35,7.19-10.58,14.48-16.02,21.61-1.83,2.4-3.68,4.96-6.74,6.08-.04-.51-.07-1.02-.11-1.53-.04-.51-.06-1.08-.63-1.26-.77-.25-1.2.33-1.5.88-.37.67-.66,1.39-.93,2.11-1.05,2.89-1.95,5.83-3.13,8.66-1.91,4.59-3.37,9.39-6.06,13.64Z"/>
      <path class="cls-5" d="M100.92,82.72c3.62.2,6.7-1.68,9.99-2.68,2.45-.74,4.79-1.86,7.17-2.84.59-.24,1.45-.43,1.68-.89,2.09-4.31,6.45-3.5,9.96-4.34,4.22-1.01,8.57-1.51,12.87-2.18,5.53-.87,8.56-4.25,9.62-9.57.2-1.03.1-2.14,1.56-2.22,1.3-.07,2.46-.13,3.35,1.25,2.7,4.17.51,9.58-4.38,10.22-1.57.21-2.3.94-2.74,2.24-.37,1.1-.59,2.25-1.05,3.31-.49,1.12-.18,1.81.57,2.72,1.22,1.5,2.16,3.22,1.87,5.32-.09.67-.33,1.28-.95,1.59-.77.37-1.13-.23-1.54-.74-.4-.5-.81-1.03-1.33-1.39-1.27-.88-2.58-.4-3.02,1.06-.11.36-.07.77-.11,1.15-.4,3.85-.49,3.9-4.5,2.7,1.19-5.5-.84-7.8-6.51-7.91-3.89-.08-7.28,1.54-10.86,2.51-11.8,3.18-23.73,5.91-35.18,10.26-8.68,3.3-15.78,8.51-20.58,16.69-1.41,2.41-2.28,5.21-4.48,7.14-.47-1.05-.65-2.51-1.46-3.06-2.61-1.79-.81-2.85.38-4.13,2.88-3.08,6.34-5.64,8.69-9.22,1.29-2.02,3.53-2.96,5.19-4.59,4.8-4.71,10.58-7.74,17.13-9.25,3.03-.7,5.96-1.61,8.67-3.14Z"/>
      <path class="cls-2" d="M62.32,116.12c2.2-1.93,3.07-4.73,4.48-7.14,4.8-8.18,11.9-13.39,20.58-16.69,11.45-4.35,23.38-7.08,35.18-10.26,3.58-.96,6.97-2.59,10.86-2.51,5.67.12,7.7,2.42,6.51,7.91-3.34,6.21-8.12,11.22-13.24,15.96-4.91,4.55-9.85,9.08-14.73,13.66-4.06,3.81-6.48,8.54-7.87,13.92-2.02,7.83-3.56,15.82-6.9,23.26-1.37,3.05-2.76,6.11-4.41,9.01-1.15,2.04-2.02,4.13-2.64,6.36-.45-.04-.91-.09-1.36-.13.36-3.89,1.63-7.57,3.44-10.94,4.02-7.45,5.93-15.54,7.9-23.65.36-1.49.78-2.98,1.1-4.48,1.66-7.88,6.09-14.02,12.08-19.18.35-.16.74-.26,1.03-.49,6-4.91,11.43-10.41,16.79-15.98,2.14-2.22,4.09-4.66,5.41-7.47,1.35-2.88.34-4.41-2.85-4.54-2.99-.12-5.86.66-8.71,1.45-9.53,2.65-19.08,5.26-28.59,8.01-6.44,1.87-12.83,3.95-18.04,8.44-3.59,3.09-7.39,6.04-9.23,10.66-2.91,3.28-4.85,7.25-7.58,10.67-3.62,4.54-7.59,8.71-12.22,12.24-.17-.18-.35-.36-.53-.53,1.38-2.52,3.6-4.31,5.49-6.39,3.12-3.42,5.98-7.01,8.04-11.19Z"/>
      <path class="cls-5" d="M69.13,111.32c1.84-4.62,5.64-7.57,9.23-10.66,5.21-4.49,11.6-6.58,18.04-8.44,9.5-2.76,19.05-5.36,28.59-8.01,2.85-.79,5.71-1.57,8.71-1.45,3.19.13,4.2,1.66,2.85,4.54-1.32,2.81-3.28,5.25-5.41,7.47-5.36,5.57-10.79,11.08-16.79,15.98-.29.23-.68.33-1.03.49-.36-2.47,1.82-4.32,1.64-6.74.59-1.01,1.84-1.36,2.38-2.48.96-1.98,1.24-4.06.21-5.93-1.08-1.94-3.1-2.67-5.31-2.47-2.97.27-4.99,1.86-5.99,4.69-5.15-.29-10.29.13-15.25,1.42-6.15,1.59-11.63,4.69-16.67,8.55-1.6,1.23-2.95,2.88-5.18,3.04Z"/>
      <path class="cls-2" d="M190.14,153.16c5.21.52,9.13,2.67,10.67,5.85-.22.08-.58.29-.65.22-4.26-4.5-9.63-2.67-14.69-2.57-3.42-.55-5.74-2.6-7.29-5.57-1.17-2.25-2.47-4.46-2.88-7.02.24-1.41.23-2.82-.08-4.22-1-4.51-1.89-9.04-3.02-13.52-.91-3.6-1.5-7.31-3.51-10.57-.73-1.19-1.48-2.04-3-2-1.68.04-2.06,1.29-2.52,2.5-1.85,4.95-3.18,10.04-3.97,15.26-.55,3.66-1.97,7.21-1.36,11.01-1.37,8.91-1.06,17.84-.32,26.79.22,2.68.17,5.38.18,8.07.01,2.56.01,5.12.46,7.65-.45.04-.91.08-1.36.11-.48-3.31-1.25-6.61-1.39-9.94-.42-10.05-1.31-20.11-.73-30.17.35-6.04,1.22-12.03,2.79-17.91,1.09-4.11,2.16-8.23,2.74-12.45,1.26-.35,1.57-1.63,2.33-2.45,3.07-3.31,5.53-3.16,7.96.68,1.65,2.61,2.6,5.54,3.43,8.5,1.03,3.65,2.07,7.3,3.1,10.94-.12,4.78.76,9.45,2.49,13.84,2.23,5.67,4.71,8.04,10.61,6.96Z"/>
      <path class="cls-2" d="M112.61,140.87c.22-3.14,2.23-5.45,3.94-7.77,4.28-5.79,7.96-12,12.34-17.71,4.38-5.72,9-11.27,14.95-15.5.84-.59,1.8-1.01,2.64-1.6,2.96-2.1,5.69-1.95,8.2.75.57,12.18-1.96,23.84-5.79,35.3-.57,1.71-.83,3.55-1.59,5.17-3.14,6.71-2.16,13.31.15,19.96,1.01,2.91,1.36,5.92.87,9.06-1.55-.35-1.42-1.51-1.61-2.48-.64-3.29-1.25-6.61-2.49-9.73-2.26-5.7-1.91-11.35-.16-17.05.53-1.72,1.23-3.4,1.39-5.23,1.56-.49,1.58-2.02,1.85-3.17,1.32-5.63,3.05-11.17,3.84-16.91.49-3.57.18-7.17.82-10.77.53-3.03-1.45-4.09-3.98-2.27-4.37,3.16-8.56,6.53-12.14,10.67-6.01,6.93-10.57,14.93-16.47,21.91-2.14,2.53-3.86,5.5-6.71,7.41l-.04-.04Z"/>
      <path class="cls-5" d="M157.85,142.54c-.61-3.8.81-7.35,1.36-11.01.79-5.22,2.12-10.31,3.97-15.26.45-1.21.84-2.46,2.52-2.5,1.52-.04,2.26.81,3,2,2.01,3.26,2.6,6.97,3.51,10.57,1.13,4.48,2.02,9.01,3.02,13.52.31,1.4.32,2.81.08,4.22-1.26-.13-1.62-1.19-2.02-2.1-1.18-2.69-2.27-5.43-3.43-8.13-.45-1.06-.89-2.15-1.51-3.11-1.22-1.91-2.93-1.98-4.32-.12-1.93,2.59-3.35,5.46-4.02,8.64-.29,1.39-.49,2.82-2.17,3.29Z"/>
      <path class="cls-2" d="M99.61,168.85c2.69-4.25,4.14-9.05,6.06-13.64,1.18-2.83,2.08-5.78,3.13-8.66.26-.72.55-1.44.93-2.11.31-.55.73-1.13,1.5-.88.58.18.59.75.63,1.26.04.51.07,1.02.11,1.53-2.69,7.65-5.57,15.24-8.88,22.64-3.7,8.25-6.6,16.74-8.53,25.58-1.16,5.29-1.85,10.64-2.16,16.04-.1,1.79-.04,3.59-1.41,6.12,0-2.75,0-4.64,0-6.54.04-8.54.88-16.93,3.72-25.08,1.86-5.34,3.28-10.84,4.9-16.26Z"/>
      <path class="cls-4" d="M171.17,93.81c-1.26-4.14-1.85-8.51-1.9-12.94-.03-3.01-.47-5.91-1.75-8.64-1.07-2.27-2.48-4.24-5.03-5.05-2.07-.66-2.85-2.22-2.55-4.22.6-3.89-1.49-6.01-4.63-7.57-1.85-.92-3.69-1.88-5.04-3.53-.56-.69-1.31-1.35-.73-2.37.53-.92,1.45-1.01,2.37-.95,3.22.21,5.59,1.88,7.29,4.49,2.33,3.58,4.14,7.45,5.82,11.35.69,1.61,1.5,2.99,2.86,4.03,3.02,2.3,4.27,5.55,4.42,9.11.21,5.16,0,10.33-.07,15.5,0,.34-.07.81-1.06.79Z"/>
      <path class="cls-4" d="M21.38,186.66c-3.39-5.28-2.35-10.08-1.16-15.02,2.78-11.5,7.09-22.3,13.94-32.02.48-.68.67-1.76,1.88-1.38.29.42.18.75-.02,1.1-5.31,9.08-9.16,18.72-11.29,29.03-.88,4.27-.8,8.7-2.13,12.9-.5,1.56-.73,3.21-1.22,5.39Z"/>
      <path class="cls-2" d="M93.96,113.77c-2.81,2.13-5.34,3.18-7.02,5.46-2.74,3.73-3.42,8.01-3.72,12.4-.16,2.44.06,4.91-.04,7.36-.14,3.67-2.16,6.04-5.39,6.54-3.87.6-6.92-.89-8.27-4.19-.78-1.92-1.16-3.87-.7-6.03.66-3.07,1.89-5.87,3.24-8.66,1.63-3.38,1.19-4.75-1.99-7.13,3.19-.31,4.28.45,4.55,3.31.18,1.83-.13,3.58-.94,5.27-1.29,2.68-2.35,5.45-2.68,8.44-.32,2.87.85,5.03,3.2,5.97,3.62,1.45,6.56-.34,6.74-4.23.18-3.73,0-7.44.51-11.19.96-7,4.51-11.25,12.49-13.31Z"/>
      <path class="cls-5" d="M177.04,132.35c-1.03-3.65-2.07-7.29-3.1-10.94-.83-2.96-1.78-5.88-3.43-8.5-2.43-3.84-4.89-4-7.96-.68-.77.83-1.07,2.1-2.33,2.45.05-4.26,1.47-7.76,5.58-9.65,2.19-1.01,4.12-.67,5.48,1.27,3.41,4.88,5.91,10.26,7.19,16.06.43,1.95.54,4.13,1.07,6.01.76,2.73-.56,3.35-2.5,3.98Z"/>
      <path class="cls-4" d="M100.92,82.72c-2.72,1.53-5.65,2.44-8.67,3.14-6.55,1.52-12.33,4.54-17.13,9.25-1.66,1.63-3.9,2.57-5.19,4.59-1.22.12-2.42.38-1.94-1.66,1.34-5.7,5.51-8.8,10.28-11.33,2.76-1.47,5.87-2.05,8.91-2.27,4.31-.31,8.32-1.54,12.34-2.91.71-.24,1.51-.23,2.27-.34l-.04-.03c-.28.52-.56,1.04-.83,1.57Z"/>
      <path class="cls-5" d="M63.54,165.69c-3.12.05-5.09-1.61-5.21-4.4-.15-3.44,2.57-6.42,5.84-6.4,2.79.01,5.65,2.68,5.7,5.33.06,2.93-2.82,5.41-6.34,5.46Z"/>
      <path class="cls-5" d="M104.16,192.44c-.27.9.25,2.33-1.21,2.47-1.32.13-2.21-.91-2.46-2.05-.29-1.36-.39-2.84-.18-4.2.75-4.73,2.94-8.69,7.06-11.29,2.26-1.43,5.96-.97,7.6.61,1.5,1.45,2.14,5.8,1.14,8.01-.24.52-.83.54-1.33.61.01-1.53.01-3.05-.58-4.51-1.05-2.58-3.15-3.25-5.52-1.76-3.43,2.17-5.56,7.87-4.52,12.1Z"/>
      <path class="cls-2" d="M121.61,144.6c3.63-.49,6.07,1.35,6.46,5.04.19,1.79.12,3.6-.38,5.38-.49,1.75-.6,3.59-.22,5.37.46,2.16,1.87,3.2,3.82,3.05,2.02-.16,3.08-1.26,3.12-3.66.04-2.45-.11-4.91.76-7.26.16-.45.16-1.06,1.31-.97,0,3.36.2,6.77-.08,10.15-.16,1.98-1.38,3.59-3.66,3.98-2.93.5-5.19-.27-6.41-2.45-1.09-1.96-1.6-4.12-.98-6.35.5-1.78.42-3.58.52-5.38.16-2.87-.7-5.08-3.65-6.07-.23-.08-.43-.27-.61-.45-.06-.07-.01-.25-.01-.38Z"/>
      <path class="cls-5" d="M133.6,183.77c.22,1.57-.42,2.97-1.72,4.23-2.4,2.34-4.58,2.28-6.24-.55-1.09-1.86-1.88-3.93-.96-6.19.89-2.17,3.38-3.54,5.58-3.03,2.1.49,3.37,2.51,3.34,5.55Z"/>
      <path class="cls-5" d="M166.92,94.99c-.07,1.89-1.52,4.14-2.98,4.63-1.44.48-3.78-.53-5.04-2.16-1.54-2-1.67-4.5-.33-6.47,1.14-1.68,2.62-2.1,4.67-1.33,2.01.75,3.75,3.28,3.68,5.33Z"/>
      <path class="cls-4" d="M166.24,77.6c-.07,2.09-1.4,3.53-3.27,3.53-2.85,0-5.51-3.19-5.38-6.46.08-2.01,1.59-3.5,3.4-3.36,2.62.2,5.34,3.47,5.25,6.29Z"/>
      <path class="cls-6" d="M190.98,161.85c.58,2.33,1.9,4.42,1.67,7.01-.22,2.39-1.41,3.77-3.47,4.59-2.25.89-4.31.45-6.01-1.24-1.5-1.49-2.64-3.16-1.96-5.48,1.1-3.69,2.9-5.05,6.69-4.98,1.03.02,2.05.07,3.08.11,0,0,0,0,0,0ZM185.59,164.22c-.43.06-.7.29-.77.73v.04c-2.39,1.11-1.85,3.15-1.32,4.92.49,1.64,1.98,2.22,3.69,2.04,1.63-.17,3.27-1.64,3.56-3.51.3-1.91-.28-3.49-2.38-4.1-.12-.07-.24-.14-.37-.19-.82-.92-1.61-1.06-2.39.05l-.03.02Z"/>
      <path class="cls-4" d="M196.09,137.35c2.7,3.01,6.82,3.95,10.31,6.76-2.48,1.08-4.34.66-6.14-.26-3.46-1.77-6.43-4.21-9.27-6.82-.56-1.37-1.99-2.33-1.97-4.2,3.17.34,4.52,3.41,7.07,4.52Z"/>
      <path class="cls-2" d="M25.75,173.47c1.54-8.67,3.97-17.01,9.31-24.22.64-.86,1.33-1.83,2.59-1.86.12.3.23.45.19.51-4.77,7.14-7.34,15.26-10.4,23.17-.38.97-.57,2-1.71,2.39l.02.02Z"/>
      <path class="cls-2" d="M106.23,98.31c1-2.84,3.02-4.42,5.99-4.69,2.21-.2,4.24.53,5.31,2.47,1.04,1.87.75,3.95-.21,5.93-.54,1.12-1.79,1.47-2.38,2.48-1.16-.1-2.16.67-3.37.49-3.42-.51-4.95-2.37-5.35-6.68ZM112.58,95.01c-2.28.08-4.58,2.31-4.51,4.39.05,1.73,2.35,3.57,4.38,3.5,2.15-.08,4.08-2.08,4.09-4.25.01-2.27-1.57-3.72-3.96-3.64Z"/>
      <path class="cls-4" d="M151.44,186c-.1-4.35.25-8.7-.57-13.04-.35-1.83-.06-3.77-.06-6.05,1.76,1.13,1.61,2.78,1.75,3.96.68,5.56,1.93,11.13.47,16.77-.35,1.34-.18,2.81-.31,4.21-.04.38-.41.71-.8.34-.25-.24-.31-.67-.45-1.01,0-1.72-.02-3.45-.03-5.17Z"/>
      <path class="cls-6" d="M168.47,169.61c.6,1.05.92,2.14.63,3.35-1.36-1.1-2.56-1.22-3.3.66-1.1,2.77-1.29,5.51.41,8.15.67,1.03,1.44,1.86,2.84,1.36-.18.96-.89,1.07-1.7,1.17-1.47.18-2.73-.49-4.07-.87-.98-2.82-1.34-5.73-.93-8.68.56-4.06,1.82-5.05,6.12-5.15Z"/>
      <path class="cls-4" d="M111.56,126.08c-1.24-.16-2.01-.83-1.65-1.82.86-2.4,1.64-4.88,3.85-6.55,1.17-.88,2.51-1.22,3.59-.54,1.32.83.81,2.32.24,3.49-1.3,2.64-3.29,4.57-6.03,5.42Z"/>
      <path class="cls-4" d="M92.48,260.33c.03,1.37.02,2.27-.44,3.08-.49.85-.67,2.12-1.93,2.11-1.39,0-2.38-.85-2.86-2.16-.64-1.76-.54-3.49.31-5.18.57-1.13,1.39-1.83,2.71-1.68,1.4.16,1.83,1.25,2.09,2.39.14.61.1,1.27.11,1.43Z"/>
      <path class="cls-4" d="M77.76,133.29c-.09,1.62.2,2.94-.38,4.14-.39.8-.88,1.63-1.92,1.68-1.04.05-1.61-.73-2.03-1.52-1.05-2,.33-6.86,2.27-8.01.81-.48,1.61-.27,1.81.63.25,1.11.2,2.29.25,3.08Z"/>
      <path class="cls-5" d="M82.1,165.24c-.35-.96.07-1.83.3-2.72.09-.05.26-.11.26-.14-.03-.16-.11-.32-.17-.48,0-.61.03-1.23,0-1.84-.16-2.52-.17-2.52-3.13-2.72-.61.18-.81.62-.76,1.21,0,0-.2.27-.2.27-1.36-.16-3.01-.19-1.3-2.15.67-.77,1.41-1.54,2.26-2.08,1.9-1.21,4.32-.4,5.14,1.61,1.1,2.67,0,6.79-2.39,9.03Z"/>
      <path class="cls-4" d="M147.51,146.68c.16-1.64-.37-3.74.82-5.61.29-.46.67-.81,1.21-.77.55.04.96.45.99.99.15,3.18.5,6.37-.25,9.52-.19.81-.58,1.84-1.79,1.55-.93-.22-.97-1.08-.98-1.85-.02-1.15,0-2.3,0-3.81Z"/>
      <path class="cls-6" d="M184.77,138.65c.91,1.02,1.84,2.03,2.74,3.07,1.65,1.91,1.44,2.84-.81,4.03-.81.43-1.64.59-2.53.49-1.58-2.61-1.98-5.44-1.64-8.42,1.13-.69,1.47.64,2.25.83Z"/>
      <path class="cls-6" d="M151.44,186c0,1.73.02,3.45.03,5.17-2.42-1.85-1.67-4.75-2.08-7.13-.7-4.02-1.01-8.11-1.77-12.14-.14-.73-.16-1.51.63-2.39,1.45,1.54,1.59,3.38,1.59,5.2,0,3.35,1.11,6.58.98,9.94-.02.44.41.9.63,1.35Z"/>
      <path class="cls-6" d="M156.82,185.16c.45-.04.91-.08,1.36-.11.56,5.46,1.12,10.92,1.73,16.87-1.98-2.85-3.05-9.17-3.09-16.76Z"/>
      <path class="cls-4" d="M102.17,105.06c.12,1.21-1.14,2.72-2.27,2.69-1.21-.03-2.22-.56-2.54-1.85-.3-1.21,1.12-2.86,2.43-2.8,1.28.06,2.01.89,2.37,1.96Z"/>
      <path class="cls-4" d="M160.6,231.34c-.11,1.29-1.55,2.61-2.68,2.43-1.4-.22-1.89-1.21-1.74-2.53.15-1.37,1.55-2.74,2.51-2.4,1.17.41,1.87,1.31,1.91,2.5Z"/>
      <path class="cls-6" d="M88.78,169.48c.45.04.91.09,1.36.13-.56,3.39-1.45,6.69-2.74,9.9-.33-3.46-.86-6.93,1.38-10.03Z"/>
      <path class="cls-4" d="M137.48,127.82c-1.47-.1-2.41-.81-2.39-2.39.02-1.32.7-2.31,2.1-2.21,1.41.1,2.39,1.05,2.51,2.48.12,1.43-.86,2.01-2.22,2.11Z"/>
      <path class="cls-4" d="M94.2,174.06c-.14.5-.2,1.02-.42,1.47-.38.78-.72,1.84-1.84,1.6-1.43-.3-1.03-1.53-.94-2.5.03-.37.19-.74.36-1.08.38-.78.66-1.8,1.88-1.41.93.3.76,1.2.97,1.92Z"/>
      <path class="cls-4" d="M132.07,158.96c-.03.93-.09,1.95-1.31,1.97-1.28.03-1.76-.88-1.8-2.04-.05-1.44,1.05-3.15,1.87-2.97.71.16,1.27,1.54,1.24,3.04Z"/>
      <path class="cls-2" d="M47.74,135.76c-.4,1.07-1.13,1.85-2.48,2.5.17-1.55,1.17-2.22,2.06-2.95.14.15.29.3.43.45Z"/>
      <path class="cls-4" d="M101.79,81.19c.05-.11.11-.31.14-.3.24.03.17.14-.18.27,0,0,.04.03.04.03Z"/>
      <path class="cls-2" d="M48.56,135c-.27.25-.55.5-.82.76-.14-.15-.28-.3-.43-.45.24-.28.48-.56.71-.84.17.18.35.36.53.53Z"/>
      <path class="cls-2" d="M48.03,134.47c.26-.26.51-.51.77-.77.18.17.36.35.53.53-.26.26-.52.51-.77.77-.18-.17-.35-.35-.53-.53Z"/>
      <path class="cls-2" d="M25.73,173.45c-.06.1-.14.29-.16.28-.23-.07-.16-.17.19-.26,0,0-.02-.02-.02-.02Z"/>
      <path class="cls-6" d="M219.1,152.6c3.42-.58,3.19-.46,4.81,2.74,1.53,3.03,1.31,5.91.43,8.93-.72,2.45-2.16,3.55-4.67,3.77-3.62.31-6.34-.8-8.59-3.9-2.16-2.98-4.53-5.88-7.32-8.35-.49-.44-1.1-.8-.94-1.52.22-.96,1.1-1,1.87-.94,1.61.14,2.98-.71,4.49-.98,1.09,1.1,2.13,2.25,3.61,2.87,3.06,1.27,5.15.41,6.3-2.61Z"/>
      <path class="cls-4" d="M219.1,152.6c-1.15,3.02-3.24,3.88-6.3,2.61-1.48-.61-2.52-1.76-3.61-2.87-.3-3.57,1.24-5.06,4.51-4.14,2.37.67,4.53,1.78,5.4,4.39Z"/>
      <path class="cls-2" d="M194.89,144.42c-.05,1.09-.33,1.84-1.31,1.74-1.24-.13-2.2-.87-2.22-2.16-.02-.87,1-1.15,1.7-1.24,1.33-.17,1.69.81,1.84,1.66Z"/>
      <path class="cls-2" d="M204.59,163.17c-1.51-.25-2.2-1.05-2.52-2.44q1.76.54,2.52,2.44Z"/>
      <path class="cls-2" d="M206.28,165c-.13.29-.33.35-.55.12-.15-.16-.23-.38-.33-.58.2-.05.46-.19.59-.11.15.09.2.37.29.57Z"/>
      <path class="cls-5" d="M384.33,182.61c-1.39.24-2.4.89-2.45,2.43-.05,1.61-1.56,2.57-1.83,4.08,0,.03-.66-.05-1.01-.08-.78-2.84-1.72-5.6-3.91-7.73-2.92-2.83-5.49-2.26-6.86,1.52-.17.48-.32.97-.47,1.45-1.43.23-1.62,1.12-1.1,2.25.86,1.84.24,3.24-1.18,4.42-1.7,1.4-2,3.53-2.88,5.36-.95,1.98-1.25,2.01-3.04.6-.6-.48-1.24-.93-1.77-1.48-4.81-5.03-11.03-5.67-16.54-1.8-1.54,1.08-2.31,2.68-3.32,4.47-2.39-3.24-2.52-6.77-1.57-9.81,1.29-4.13,1.1-8.36,1.93-12.49.33-1.64.98-2.51,2.31-3.15.51.02,1.02,0,1.53.05,2.77.25,3.08.53,3.22,3.15.06,1.15,0,2.3.03,3.44.04,1.9-.17,3.8.62,5.65.84,1.97,2.29,3.07,4.34,3.14,2.21.07,4.42-.14,5.06-2.92,0,0,.13-.14.13-.13.2-.18.4-.36.6-.55,1.2-3.54,1.85-7.2,2.49-10.87.98-5.63,5.71-10.21,11.11-10.9,1.74-.22,2.99,1.37,4.59,1.21.53-.93-.05-1.38-.35-1.91-2.83-4.93-5.4-9.97-6.9-15.49-.76-2.8-2.3-5.09-4.23-7.24-4.46-4.97-8.81-10.05-13.11-15.16-1.41-1.68-3.21-2.64-5.18-3.21-2.8-.82-6.67,2.48-6.89,5.74-.15,2.18-.14,4.38-.2,6.57-1.13-.15-1.26-1.09-1.59-1.93-2.8-7.25-3.95-14.89-5.07-22.5-.41-2.81-.28-5.78.1-8.5,1.19-.24,1.74.16,2.29.44,7.98,4.15,14.03,10.4,18.81,17.87,4.03,6.3,8.5,12.23,13.39,17.87,2.27,2.62,4.86,5.15,5.48,8.71.51,2.96,1.56,5.69,2.59,8.46,3.38,9.03,7.45,17.8,10.52,26.95-.07.06-.22.17-.21.18.09.14.21.27.31.4.07.48.14.96.2,1.44Z"/>
      <path class="cls-2" d="M394.51,178.69c-1.51-7.22-3.4-14.34-7.25-20.68-2.72-4.49-4.19-9.36-5.44-14.35-1.03-4.12-2.14-8.22-3.08-12.36-1.72-7.52-6.19-13.08-11.91-18.04-8.73-7.58-18.01-14.71-23.9-25.03-.97-5.04.23-7.54,4.15-8.55.72-.19,1.5-.17,2.25-.24,2.38-.11,4.61.75,6.93,1.02.66.95,1.8,1.04,2.74,1.26,10.78,2.5,21.32,5.77,31.84,9.19,7.81,2.54,14.52,6.33,20.32,12.08,2.99,2.96,4.75,6.68,7.12,10.01,3.42,6.92,8.15,12.9,13.39,18.5-.3.29-.6.59-.9.88-4-3.24-7.19-7.2-10.16-11.35-2.51-3.52-4.67-7.3-7.6-10.51-.37-1.7-1.42-2.98-2.55-4.25-5.37-6.01-11.96-10.22-19.6-12.57-11.42-3.51-22.93-6.75-34.45-9.93-2.69-.74-5.51-1.34-8.39-1-2.21.27-3.02,1.33-2.36,3.39.47,1.47,1.2,2.84,2.14,4.09,5.9,7.87,12.7,14.83,20.9,20.34,2.25,2.47,4.96,4.46,6.96,7.21,1.69,2.33,3.14,4.73,3.99,7.46,1.62,5.16,3.23,10.32,4.41,15.6,1.34,6.04,3.1,11.9,5.96,17.46,2.66,5.16,4.69,10.61,5.08,16.52.03.47.41.92.62,1.37-.25.9.5,2.31-1.22,2.49Z"/>
      <path class="cls-5" d="M368.71,110.57c-8.2-5.51-15-12.47-20.9-20.34-.94-1.25-1.68-2.62-2.14-4.09-.66-2.06.15-3.13,2.36-3.39,2.87-.35,5.7.25,8.39,1,11.52,3.18,23.03,6.42,34.45,9.93,7.64,2.35,14.23,6.56,19.6,12.57,1.13,1.26,2.18,2.54,2.55,4.25-1.54.14-2.69-.68-3.78-1.6-5.86-4.97-12.5-8.28-20.04-9.99-4.23-.96-8.41-.53-12.62-.56-.53-2.2-2.09-3.48-4.03-4.31-2.89-1.25-5.69-.36-7.44,2.06-1.32,1.83-1.25,4.33,1.02,6.92.5.57,1.17.98,1.77,1.46-.42,2.13.75,4.05.81,6.11Z"/>
      <path class="cls-5" d="M328.08,99.04c-1.14-4.52.13-7.81,3.95-10.26,1.42-.91,2.72-.73,3.01.88.38,2.07,1.51,2.18,3.15,2.53,2.56.55,4.69,2.02,6.29,4.22,3.62,5,7.21,10.04,10.99,14.92,3.31,4.27,6.47,8.66,9.67,13.01,1.53,2.07,4.11,3.09,5.74,5.13,4.02,5.01,7.3,10.33,7.07,17.08-.08,2.27.53,4.32,1.4,6.35,2.91,6.88,5.83,13.75,8.72,20.64,1.24,2.95,1.16,3.11-1.7,5.36-1.29-3.07-2.56-6.15-3.88-9.22-.96-2.25-2.23-4.4-2.93-6.72-2.59-8.64-5.63-17.1-10.12-24.95-1.72-3.01-3.2-6.22-5.78-8.65-1.71-1.61-3.02-3.52-4.27-5.48-5.3-8.31-11.69-15.71-18.87-22.45-1.52-1.43-3.25-2.54-5.08-3.51-3.59-1.92-4.43-1.76-7.37,1.13Z"/>
      <path class="cls-2" d="M328.08,99.04c2.94-2.89,3.77-3.05,7.37-1.13,1.82.97,3.56,2.09,5.08,3.51,7.18,6.74,13.57,14.14,18.87,22.45,1.25,1.96,2.56,3.86,4.27,5.48,2.58,2.43,4.06,5.65,5.78,8.65,4.5,7.85,7.53,16.31,10.12,24.95.7,2.32,1.97,4.47,2.93,6.72,1.31,3.06,2.59,6.14,3.88,9.22,1.12,5.66,3.23,11.07,4.21,16.79.98,5.75.55,11.48.29,17.26-.4-3.21-.6-6.44-1.19-9.62-1.14-6.17-1.9-12.42-4.11-18.34-.31-.83-.82-1.58-1.24-2.37-.07-.48-.13-.96-.2-1.44,0-.2-.04-.39-.11-.58-3.07-9.15-7.14-17.92-10.52-26.95-1.04-2.77-2.08-5.5-2.59-8.46-.62-3.56-3.21-6.09-5.48-8.71-4.89-5.64-9.36-11.58-13.39-17.87-4.78-7.47-10.82-13.72-18.81-17.87-.55-.29-1.1-.68-2.29-.44-.39,2.72-.51,5.69-.1,8.5,1.11,7.61,2.27,15.25,5.07,22.5.33.85.46,1.78,1.59,1.93-.06,2.2.44,4.29,1.13,6.37,2.18,6.66,2.66,13.18-1.35,19.5-.9,1.42-1.35,3.28-1.17,5.12-.46,0-.92,0-1.38,0,.28-4.23.96-8.41,2.17-12.47,1.12-3.77.6-7.39-.75-10.95-2.52-6.62-4.58-13.37-6.27-20.25-1.74-7.08-1.78-14.27-1.79-21.48Z"/>
      <path class="cls-2" d="M276.98,164.78c1.66-4.56,4.95-7.62,9.15-9.8,1.83-.95,3.81-1.5,5.83-1.92,5.79,1.69,7.32.65,10.1-4.78,2.36-4.61,3.08-9.35,3.1-14.36,1.13-2.73,1.56-5.67,2.09-8.53.84-4.53,2.68-8.62,4.9-12.55,2.06-3.64,5.04-3.78,7.69-.57.59.72,1.12,1.41,2.08,1.6,1.48,6.4,3.05,12.77,4.41,19.2.72,3.4,1.2,6.85,1.31,10.35.36,11.89-.14,23.76-.94,35.62-.28,4.11-.99,8.18-1.51,12.27-.44-.02-.87-.04-1.31-.06,1.03-13.63,1.86-27.27,1.36-40.95-.06-1.55-.17-3.09-.26-4.64.77-2.86-.25-5.62-.61-8.39-.89-6.87-2.24-13.65-4.44-20.24-.38-1.14-.92-2.09-1.75-2.94-1.02-1.05-1.93-1.02-2.98-.04-1.66,1.56-2.41,3.59-3.12,5.67-1.94,5.72-3.13,11.59-3.96,17.56-.21,1.5-1.04,2.94-.4,4.52-1.02,4.08-1.89,8.22-4.93,11.44-1.94,2.05-3.93,4.02-6.97,4.27-1.36-.31-2.77-.5-4.07-.97-3.01-1.1-5.48-.16-7.66,1.86-2.34,2.16-4.59,4.42-6.88,6.63,0,0-.23-.24-.23-.24Z"/>
      <path class="cls-5" d="M418.29,112.97c-2.37-3.33-4.13-7.04-7.12-10.01-5.8-5.75-12.52-9.54-20.32-12.08-10.52-3.42-21.06-6.68-31.84-9.19-.94-.22-2.08-.31-2.74-1.26-.04-.77-.02-1.55-.12-2.3-.38-2.79.55-3.79,3.31-2.98,3.92,1.16,7.82,2.4,11.58,4.08,3.72,1.67,7.49,3.37,11.71,3.46,2.39,1.28,4.83,2.47,7.48,3.1,7.73,1.84,14.38,5.56,19.8,11.41,1.25,1.35,2.56,2.54,4.4,2.99-.21,2.37,1.89,3.21,3.11,4.61,1.16,1.34,3.26,2.38,3.55,3.83.31,1.53-1.98,2.75-2.78,4.34Z"/>
      <path class="cls-5" d="M359.39,142.61c0,5.35-3.12,8.46-8.39,8.37-4.4-.08-7.92-4.19-7.94-9.25-.01-5.14,3.52-9.4,7.78-9.38,5.27.03,8.55,3.96,8.55,10.26Z"/>
      <path class="cls-5" d="M307.73,141.8c-.64-1.58.19-3.01.4-4.52.83-5.97,2.02-11.84,3.96-17.56.71-2.09,1.46-4.11,3.12-5.67,1.05-.99,1.97-1.01,2.98.04.82.85,1.37,1.8,1.75,2.94,2.2,6.59,3.55,13.37,4.44,20.24.36,2.77,1.37,5.53.61,8.39-1.34-.32-1.22-1.39-1.37-2.43-.58-3.97-2.03-7.68-3.71-11.3-.75-1.62-1.85-2.74-3.85-2.66-1.86.08-2.74,1.28-3.38,2.74-1.03,2.35-1.98,4.74-2.96,7.12-.44,1.06-.7,2.25-1.99,2.67Z"/>
      <path class="cls-5" d="M431.61,155.33c.05,2.62,2.05,1.74,3.41,1.82,1.85.11,2.37-1.28,2.65-2.74.33-1.71-.31-3.55.61-5.58,1.35.97,1.75,2.11,1.68,3.4-.1,1.9.53,3.9-.53,5.69-.73,1.24-1.96,1.68-3.34,1.5-5.23-.68-9.54,1.13-13.46,4.51-2.19,1.88-5.28,1.3-6.64-1.2-1.6-2.92-2.06-6.1-.34-9.2,1.11-2.01,3.77-2.83,6.01-1.99,3,1.12,3.04,1.14,4.58-1.91.55-1.09,1.43-.89,2.3-.95.34,2.53,1.48,4.69,3.06,6.65Z"/>
      <path class="cls-4" d="M310.44,94.17c0-5.42-.12-10.84.04-16.25.12-3.82,1.14-7.37,4.6-9.71.99-.67,1.57-1.71,2.06-2.77,1.46-3.16,3.29-6.12,4.42-9.45,1.04-3.06,3.49-5.05,6.11-6.77,1-.66,2.15-.86,3.34-.78,1.94.13,2.7,1.52,1.65,3.19-.69,1.1-1.71,1.93-2.87,2.55-1.25.67-2.6,1.21-3.73,2.04-2.3,1.7-4.52,3.41-3.24,6.96.62,1.7-.13,3.27-2.08,3.98-5.12,1.88-6.6,6.18-7.08,11.01-.35,3.58-1.02,7.13-.9,10.77.06,1.91-.57,3.74-2.33,5.23Z"/>
      <path class="cls-5" d="M321.92,113.88c-.96-.19-1.49-.88-2.08-1.6-2.65-3.22-5.63-3.07-7.69.57-2.23,3.92-4.06,8.01-4.9,12.55-.53,2.86-.96,5.8-2.09,8.53-2.51-1.29-2.77-3.46-2.37-5.92,1.1-6.93,3.78-13.3,6.87-19.53.65-1.31,1.67-2.31,2.78-3.19,1.53-1.22,3.87-1.3,5.38-.04,2.66,2.23,4.67,4.85,4.12,8.65Z"/>
      <path class="cls-4" d="M447.02,137.8c2.9,2.66,4.38,6.29,6.27,9.6,4.04,7.07,6.88,14.72,8.85,22.59.87,3.46,2.11,7.23.54,10.97-.29.69-.22,1.68-1.25,1.69-.97.01-1.08-.9-1.37-1.61-1.04-2.56-.79-5.33-1.17-7.98-1.51-10.34-5.54-19.75-9.76-29.14-.88-1.96-2.25-3.81-2.08-6.14l-.03.03Z"/>
      <path class="cls-5" d="M349.34,79.42c-.75.08-1.53.06-2.25.24-3.92,1.01-5.12,3.51-4.15,8.55-.9-.06-1.81-.04-2.69-.19-1.18-.2-1.89-.85-1.42-2.16.27-.76.37-1.47-.03-2.22-1.08-2.04-2.9-2.08-4.61-.07-.62.72-.8,2.31-2.08,1.78-1.28-.53-.81-2.07-.65-3.11.73-4.6,2.86-6.53,7.18-7.28,1.25-.22,2.57-.07,3.85-.06,1.67.02,3.44-.25,4.98.21,1.98.59.5,3.16,1.87,4.3Z"/>
      <path class="cls-4" d="M414.42,100.19c-1.84-.45-3.16-1.64-4.4-2.99-5.42-5.85-12.07-9.56-19.8-11.41-2.65-.63-5.09-1.82-7.48-3.1.03-.44-.82-1.65.29-1.17,5.02,2.19,10.44,2.39,15.67,3.47,6.02,1.24,11.06,4.01,14.39,9.29,1.08,1.72,2.72,3.54,1.34,5.91Z"/>
      <path class="cls-5" d="M394.51,178.69c1.73-.19.97-1.59,1.22-2.49.38-1.36-.56-3.5,1.51-3.87,1.59-.28,2.14,1.54,2.87,2.7,1.82,2.89,2.49,6.11,2.64,9.47.07,1.57-.52,2.87-2,3.39-1.5.53-2.84-.31-3.72-1.42-1.78-2.25-2.79-4.83-2.53-7.78Z"/>
      <path class="cls-5" d="M332.22,66.11c-.03,3.15-1.55,4.08-4.07,2.94-3.66-1.67-4.84-6.67-2.32-9.77.9-1.11,2.02-1.45,3.4-1.32,1.4.14,1.49,1.31,1.72,2.23.53,2.09.91,4.23,1.26,5.92Z"/>
      <path class="cls-6" d="M289.61,168.06c-.07-3.31,2.98-6.91,5.96-7.01,2.94-.1,6.27,3.3,6.35,6.6.1,4.28-2.18,6.05-6.04,6.51-2.93.35-6.2-3.02-6.27-6.09ZM294.18,164.93v-.02c-1.89.07-2.29,1.36-2.29,2.91,0,1.94,1.23,3.09,2.81,3.8,1.37.62,2.77.39,3.95-.68,2.08-1.89,1.92-3.77-.47-5.42-.06-.13-.12-.26-.17-.4-1.57-2.24-2.51-2.29-3.83-.2Z"/>
      <path class="cls-5" d="M324.46,93.81c.09,1.32-.18,2.48-1.01,3.59-1.58,2.12-3.48,2.89-5.16,1.9-1.88-1.1-2.76-3.98-1.79-6.02.32-.68.76-1.33,1.25-1.9,1.37-1.58,3.48-2.18,5.16-1.5,1.89.76,1.47,2.45,1.55,3.93Z"/>
      <path class="cls-4" d="M286.35,141.58c-2.24,1.53-4.49,3.03-7.23,3.55-.95.18-1.96.23-2.33-.78-.41-1.1.62-1.55,1.41-1.96,2.54-1.28,4.95-2.74,7.28-4.38.86-.61,1.65-1.22,2.2-2.12,2.5-.49,3.58-3.1,6.4-4.35-1.82,4.47-4.43,7.51-7.72,10.04Z"/>
      <path class="cls-2" d="M455.79,173.23c-2.82-9.25-6.59-18.07-11.58-26.33-.08-.14.13-.46.35-1.12,7.09,7.92,10.48,17.15,12.65,26.93-.47.18-.95.35-1.42.53Z"/>
      <path class="cls-6" d="M367.9,104.46c-.59-.48-1.27-.89-1.77-1.46-2.27-2.59-2.34-5.09-1.02-6.92,1.75-2.42,4.55-3.31,7.44-2.06,1.94.84,3.5,2.12,4.03,4.31-.31,5.85-2.74,7.56-8.68,6.12ZM368.03,96.11c-1.82,2.33-1.96,3.19-.67,4.98.98,1.36,2.24,2.13,3.99,1.59,1.57-.49,2.81-1.36,3.18-3.05.35-1.58-.46-2.83-1.64-3.66-1.52-1.06-3.22-1.66-4.79.07l-.08.08Z"/>
      <path class="cls-4" d="M319.61,80.46c-1.99-.05-2.79-.78-2.99-2.7-.3-2.83,1.6-5.67,4.33-6.46,1.94-.56,3.73.41,4.16,2.25.74,3.11-2.36,6.99-5.5,6.91Z"/>
      <path class="cls-6" d="M355.43,185.16c-.64,2.78-2.85,3-5.06,2.92-2.06-.07-3.5-1.16-4.34-3.14-.79-1.85-.58-3.75-.62-5.65-.03-1.15.03-2.3-.03-3.44-.14-2.61-.44-2.9-3.22-3.15-.51-.05-1.02-.04-1.53-.05,1.13-1.75,2.61-1.86,4.33-.96,1.74.92,2.85,2.96,2.43,5.19-.26,1.4-.49,2.78-.46,4.19.09,4.06,1.94,5.57,5.93,4.82.87-.16,1.71-.49,2.57-.73Z"/>
      <path class="cls-6" d="M385.74,202.87c-.05,1.06-.26,2.42-1.6,2.95-1.43.57-2.76.14-3.66-1.21-.07-.11-.13-.22-.21-.32-1.75-2.28-2.01-4-.83-5.53.86-1.12,1.99-1.58,3.37-1.13,1.55.51,2.97,2.97,2.94,5.24Z"/>
      <path class="cls-4" d="M372.58,123.56c.08,2.29-1.1,3.26-2.6,2.32-2.41-1.5-4.46-3.44-5.15-6.38-.17-.73-.28-1.57.36-2.16.68-.62,1.46-.32,2.13.05,2.67,1.46,4.72,3.44,5.27,6.17Z"/>
      <path class="cls-5" d="M387.32,108.99c.05,2.56-1.27,4.02-3.59,3.98-2.01-.03-3.36-1.36-3.41-3.38-.06-1.98,1.87-4.09,3.77-4.16,1.79-.06,3.18,1.47,3.23,3.55Z"/>
      <path class="cls-4" d="M335.35,147.97c-.05.82-.08,2.23-.24,3.62-.07.62-.41,1.22-1.17,1.31-.63.08-.93-.4-1.15-.84-1.67-3.35-1.5-6.92-1.12-10.5.07-.62.51-1.17,1.28-1.2.57-.02.95.34,1.25.75,1.44,1.9,1.1,4.12,1.14,6.87Z"/>
      <path class="cls-5" d="M405.88,161.5c-1.31-.75-1.5-2.33-2.46-3.34-.64-.68-1.4-1.21-2.38-.91-1.03.32-1.1,1.24-1.2,2.17-.18,1.71.56,3.21.96,4.79-.13-.01-.25-.01-.38-.04-3.42-.57-2.05-3.68-2.73-5.58-.55-1.54.71-3.16,2.19-4.1,1.01-.65,2.37-.77,3.28-.08,1.98,1.5,4.32,2.85,4.33,5.86l-.02.02c-1.29-.59-1.64.04-1.58,1.21Z"/>
      <path class="cls-6" d="M404.27,131.7c.75-2.16.71-4.9,4.61-5.61-2.81,2.37-3.39,4.71-2.47,7.54.61,1.85.52,3.85.28,5.76-.28,2.22-1.76,3.25-4.1,3.13-2.57-.13-3.52-1-3.65-3.41-.06-1.15-.01-2.31-.01-3.91,1,.93.69,1.83.91,2.54.58,1.86,2.17,3.29,3.53,2.95,2.1-.52,1.77-2.2,1.55-3.76-.21-1.74-.43-3.49-.64-5.23Z"/>
      <path class="cls-6" d="M334.72,164.2c.46,0,.92,0,1.38,0-1.35,8.47-1.84,17.07-4.28,25.38-.85-3.34.37-6.61.57-9.89.27-4.34,1.41-8.62,1.41-13.02,0-.93.29-1.77.92-2.48Z"/>
      <path class="cls-4" d="M396.65,260.42c-.04,1.86-.56,2.9-1.24,3.83-1.5,2.07-2.68,1.94-3.74-.39-.57-1.26-1.39-2.45-.77-4,.43-1.08.63-2.28,2.02-2.53,1.19-.21,1.86.68,2.59,1.38.66.64,1.16,1.38,1.14,1.7Z"/>
      <path class="cls-4" d="M398.74,115.9c-1.34-.07-2.02-.95-2.08-2.44-.06-1.76.81-2.79,2.36-2.74,1.35.05,2.8,1.42,2.79,2.63,0,1.23-1.49,2.54-3.07,2.55Z"/>
      <path class="cls-4" d="M404.27,131.7c.22,1.74.43,3.49.64,5.23-.64.72-1.04,1.9-2.37,1.35-1.12-.47-1.27-1.46-1.24-2.53.05-2.04.42-3.84,2.97-4.05Z"/>
      <path class="cls-4" d="M321.38,233.7c.01-1.36.24-2.72,1.92-2.75,1.43-.03,1.87,1.11,1.9,2.39.04,1.4-.26,2.7-1.92,2.76-1.45.05-1.85-1.11-1.9-2.39Z"/>
      <path class="cls-4" d="M344.72,123.89c1.37.08,2.33,1.22,2.13,2.6-.16,1.17-.85,1.83-2.06,1.8-1.39-.04-2.52-1.19-2.42-2.41.11-1.24,1.08-2.06,2.34-1.99Z"/>
      <path class="cls-6" d="M323.88,191.25c.44.02.87.04,1.31.06-.11,3.5-.6,6.92-1.87,10.2-.87-3.52.5-6.84.56-10.26Z"/>
      <path class="cls-6" d="M291.02,143.32c.21,1.7-.71,2.84-2.25,2.65-2.12-.26-1.43-2.2-1.52-3.59,1.35-.05,2.66.05,3.77.94Z"/>
      <path class="cls-6" d="M430.78,132.34c.3-.29.6-.59.9-.88,1.04.8,2.05,1.63,2.4,2.98-.12.13-.25.25-.37.38-1.3-.44-2.25-1.31-2.93-2.48Z"/>
      <path class="cls-5" d="M407.48,160.27c.1.07.31.16.29.2-.07.26-.2.19-.31-.18,0,0,.02-.02.02-.02Z"/>
      <path class="cls-6" d="M436.97,137.76c.13.12.25.25.38.37-.09-.01-.2.01-.25-.04-.08-.08-.11-.2-.16-.3,0,0,.03-.03.03-.03Z"/>
      <path class="cls-4" d="M447.05,137.77c-.11-.1-.22-.19-.34-.29.07.02.16.01.19.05.06.07.08.17.12.26,0,0,.03-.03.03-.03Z"/>
      <path class="cls-6" d="M436.27,136.9c.42.13.65.42.69.86,0,0-.03.03-.03.03-.42-.09-.68-.34-.82-.74,0,0,.15-.15.15-.15Z"/>
      <path class="cls-6" d="M435.5,136.13c.42.1.66.37.77.78,0,0-.15.15-.15.15-.26-.26-.52-.52-.78-.78l.16-.15Z"/>
      <path class="cls-6" d="M435.34,136.28c-.28-.24-.56-.48-.83-.72.11-.1.22-.21.32-.31.22.29.44.59.67.88,0,0-.16.15-.16.15Z"/>
      <path class="cls-5" d="M300.3,136.12c.16-.09.32-.17.47-.26-.08.16-.17.32-.25.48,0,0-.23-.22-.23-.22Z"/>
      <path class="cls-6" d="M434.08,134.45c.25.27.5.54.75.81-.1.1-.21.2-.32.31-.27-.24-.53-.49-.79-.74.12-.13.24-.25.37-.38Z"/>
      <path class="cls-6" d="M356.17,184.48c-.2.18-.4.37-.6.55.2-.18.4-.37.6-.55Z"/>
      <path class="cls-6" d="M271.59,154.37c.3,1.36,1.43,2.11,2.27,3.07,1.25,1.4,1.22,2.81-.05,4.13-1.61,1.68-3.19,3.41-4.94,4.92-2.39,2.06-5.24,1.9-8.06,1.08-1.14-.33-1.93-1.09-2.35-2.35-1.46-4.41-.79-8.64.93-12.78.33-.79,1.08-1.44,1.71-2.07,1.4-1.39,2.25-.54,2.93.81-.47,1.25-1.47,2.54-.05,3.77,1.2,1.03,2.64,1.54,4.19,1,1.18-.4,2.27-1.04,3.41-1.57Z"/>
      <path class="cls-4" d="M271.59,154.37c-1.13.53-2.23,1.17-3.41,1.57-1.56.53-3,.02-4.19-1-1.42-1.22-.42-2.51.05-3.77.8-.66,1.55-1.38,2.4-1.95,1.2-.81,2.53-1.27,4.02-1.17,2.83.19,3.88,1.99,2.53,4.47-.37.67-.92,1.24-1.39,1.86Z"/>
      <path class="cls-2" d="M275.51,166.43c.05-.94.57-1.47,1.47-1.66,0,0,.23.24.23.24-.15.89-.59,1.48-1.56,1.54l-.14-.12Z"/>
      <path class="cls-2" d="M275.65,166.56c-.14.32-.27.64-.41.96-.09-.08-.25-.14-.27-.23-.06-.42.2-.67.53-.86,0,0,.14.12.14.12Z"/>
      <path class="cls-4" d="M447,220.02c-.04.75.18,1.56-.37,2.21-.56.66-1.23.92-1.96.25-.75-.69-.48-1.35.16-1.94.63-.58,1.43-.44,2.18-.51,0,0,0,0,0,0Z"/>
      <path class="cls-2" d="M112.65,140.91c-.12.1-.23.2-.35.3.1-.11.21-.22.31-.34,0,0,.04.04.04.04Z"/>
      <path class="cls-1" d="M78.59,158.56c-.05-.59.15-1.03.76-1.21-.06.53-.14,1.04-.76,1.21Z"/>
      <path class="cls-1" d="M82.48,161.91c.06.16.14.31.17.48,0,.03-.17.09-.26.14-.12-.23-.09-.43.09-.61Z"/>
      <path class="cls-1" d="M188.37,164.34c2.1.61,2.68,2.2,2.38,4.1-.29,1.87-1.93,3.34-3.56,3.51-1.7.18-3.2-.41-3.69-2.04-.53-1.77-1.06-3.81,1.33-4.92.04,1.64.3,3.29,2.43,3.03,2.18-.27,1.32-2,1.2-3.31-.01-.12-.06-.25-.09-.37Z"/>
      <path class="cls-4" d="M188.37,164.34c.03.12.08.24.09.37.12,1.3.97,3.03-1.2,3.31-2.13.27-2.4-1.39-2.43-3.03,0,0,0-.04,0-.04.45-.04.7-.29.77-.73,0,0,.03-.02.03-.02.8-.02,1.59-.03,2.39-.05.13.05.25.12.37.19Z"/>
      <path class="cls-1" d="M188.01,164.15c-.8.02-1.59.03-2.39.05.77-1.11,1.57-.97,2.39-.05Z"/>
      <path class="cls-1" d="M185.59,164.22c-.07.44-.32.69-.77.73.06-.44.33-.67.77-.73Z"/>
      <path class="cls-1" d="M112.58,95.01c2.39-.09,3.97,1.36,3.96,3.64-.01,2.17-1.94,4.17-4.09,4.25-2.02.07-4.32-1.77-4.38-3.5-.06-2.07,2.23-4.3,4.51-4.39ZM114.19,97.45c-.05-1.02-.53-1.51-1.44-1.53-1.08-.03-1.69.49-1.66,1.6.03.89.53,1.41,1.43,1.45,1.1.04,1.63-.54,1.67-1.52Z"/>
      <path class="cls-1" d="M384.02,180.59c.07.19.1.38.11.58-.11-.13-.22-.26-.31-.4,0,0,.14-.12.21-.18Z"/>
      <path class="cls-1" d="M298.17,165.53c2.39,1.64,2.55,3.52.47,5.42-1.17,1.07-2.57,1.3-3.95.68-1.58-.71-2.81-1.86-2.81-3.8,0-1.55.4-2.84,2.3-2.91.14,1.15-.61,2.78,1.28,3.07,1.74.27,2.5-.86,2.7-2.46Z"/>
      <path class="cls-4" d="M298.17,165.53c-.19,1.6-.95,2.72-2.7,2.46-1.89-.29-1.15-1.91-1.28-3.07,0,0-.01.02-.01.02,1.28-.08,2.57-.14,3.83.2.05.13.11.27.17.4Z"/>
      <path class="cls-1" d="M298.01,165.13c-1.26-.34-2.54-.28-3.83-.2,1.31-2.09,2.25-2.04,3.83.2Z"/>
      <path class="cls-1" d="M368.11,96.03c1.57-1.73,3.27-1.13,4.79-.07,1.18.82,1.98,2.07,1.64,3.66-.37,1.7-1.61,2.57-3.18,3.05-1.75.54-3.01-.23-3.99-1.59-1.29-1.79-1.16-2.64.66-4.98.01.87-.15,1.79.68,2.44.79.61,1.66.65,2.47.16.58-.35.68-1.03.53-1.69-.21-.9-.9-1.15-1.71-1.14-.63,0-1.26.1-1.89.15Z"/>
      <path class="cls-4" d="M114.19,97.45c-.04.97-.57,1.56-1.67,1.52-.9-.04-1.4-.55-1.43-1.45-.03-1.11.58-1.63,1.66-1.6.91.02,1.39.51,1.44,1.53Z"/>
      <path class="cls-4" d="M368.11,96.03c.63-.05,1.26-.15,1.89-.15.81,0,1.5.24,1.71,1.14.15.66.05,1.34-.53,1.69-.81.49-1.68.46-2.47-.16-.83-.65-.67-1.57-.68-2.44,0,0,.08-.08.08-.08Z"/>
    </g>
  </g>
</svg>