<?xml version="1.0" encoding="UTF-8"?>
<svg id="Robot_Completo" data-name="Robot Completo" xmlns="http://www.w3.org/2000/svg" viewBox="0 0 431.88 432.95">
  <defs>
    <style>
      .cls-1 {
        fill: #c0c8ce;
      }

      .cls-1, .cls-2, .cls-3, .cls-4, .cls-5, .cls-6, .cls-7, .cls-8, .cls-9, .cls-10 {
        stroke-width: 0px;
      }

      .cls-2 {
        fill: #646462;
      }

      .cls-3 {
        fill: #343333;
      }

      .cls-4 {
        fill: #4a4945;
      }

      .cls-5 {
        fill: #e7ebf0;
      }

      .cls-6 {
        fill: #fdfdfc;
      }

      .cls-7 {
        fill: #899298;
      }

      .cls-8 {
        fill: #222225;
      }

      .cls-9 {
        fill: #b0b3b0;
      }

      .cls-10 {
        fill: #818484;
      }
    </style>
  </defs>
  <g id="Wings">
    <g id="W2">
      <path class="cls-8" d="M180.57,158.02c-.32.14-.62.16-.7.31-2.03,3.92-2.19,4-6.14,1.96-9.23-4.76-18.45-9.55-27.67-14.33-.67-.35-1.36-.66-2.36-1.14-1.11,3.89-2.16,7.62-3.23,11.35-.21.73-.37,1.5-.71,2.17-.68,1.29-1.71,1.84-3.26,1.55-5.68-1.09-8.74-4.09-10.02-9.83-1.05-4.7-2.18-9.38-3.26-14.07-.19-.85-.28-1.65-1.12-2.25-7.53-5.31-14.4-11.45-21.69-17.08-.16-.12-.38-.16-.86-.36-.34,2.5-.61,4.94-1.02,7.36-.57,3.36-2.3,3.96-4.98,1.89-2.66-2.06-4.28-4.46-4.11-8.07.13-2.82-.41-5.68-.54-8.52-.05-1.13-.6-1.82-1.38-2.45-1.61-1.32-3.21-2.65-4.83-3.96-19.62-15.83-39.22-31.67-58.86-47.47-2.92-2.35-5.49-5.03-7.96-7.83-2.61-2.95-4.04-6.53-5.2-10.17-2.66-8.37-3.85-17.07-5.22-25.71-.25-1.6-.09-3.28,0-4.92.06-1.03.57-1.97,1.63-2.26,1.09-.29,2.18-.15,2.94.9.57.8,1.2,1.56,1.79,2.35,1.76,2.38,3.49,4.78,5.26,7.14,1.88,2.51,4.26,4.32,7.22,5.48,17.68,6.95,35.34,13.94,52.98,20.96,19.18,7.63,38.34,15.31,57.5,22.98,11.05,4.42,22.1,8.83,33.14,13.29,1.87.75,3.85.82,5.78,1.12,3.67.57,7.4.82,11.09,1.3,1.36.18,1.95-.31,2.4-1.54.8-2.16,1.95-4.16,3.2-6.09,3.59-5.58,7.96-5.36,11.15.56,2.36,4.39,3.45,9.2,4.55,14,1.34,5.89,1.95,11.89,2.41,17.9,1.12,14.45,1.23,28.91-.48,43.33-.23,1.95-.78,3.86-1.2,5.78-.27,1.24-.89,2.44-2.05,2.82-1.85.61-1.78,1.57-1.41,3.19.73,3.19,1.53,6.39,1.58,9.71.03,2.15-.38,3.14-2.37,3.76-6.98,2.19-14.02,2.27-21-.01-2.47-.81-2.87-1.86-2.66-4.51.18-2.31.71-4.53,1.23-6.77.28-1.22.84-2.45.47-3.81ZM200.79,125.29l.02-.18c-.93-.84-2.06-.5-3.13-.56-.32-.62-.27-1.28-.14-1.93.41.22.83.45,1.24.67l.03.03c.13.35.35.48.69.25.67-.08,1.35-.17,2.02-.25.33,0,.66.02.99,0,3.54-.17,3.54-.25,3.63-3.86.12-4.61-.97-9.15-.74-13.77.04-.89-.29-1.48-1.29-1.48-.25.12-.49.24-.74.36-.62.08-1.24.15-1.85.23-.91.01-1.81.02-2.72.04-.33.06-.51.23-.4.59.27,2.84.32,5.69.15,8.53-.36.03-.72.07-1.09.1-.06-2.5-.17-5.01-.17-7.51,0-2.69.04-2.69,2.85-3.15,1.3-.13,2.6-.26,3.9-.38,1-.09,1.26-.64,1.13-1.57-.22-1.49-.38-3-.6-4.7-5,1.26-9.89.94-14.78.68-1.53-.84-3.17-.54-4.79-.49-.82-.11-1.17.32-1.31,1.08-.87,4.71-1.8,9.4-2.61,14.12-.15.86-.68,1.97.55,2.62,1.11.81,2.42,1.16,3.69,1.6,1.36.77,3.06,1.15,3.45,3.03-.18.18-.17.34.02.5-.27,6.87-.42,13.75-.21,20.63-.04,1.84-.08,3.68-.12,5.51-.03,1.07.49,1.62,1.56,1.61,1.84,0,3.68-.03,5.53-.05,1.58.03,3.18.24,4.64-.63,1.38.21,2.65-.18,3.91-.69,1.39-.2,1.23-1.32,1.31-2.26.21-2.72.44-5.43.57-8.15.15-3.16.18-6.32.28-9.48.03-1.07-.04-2.01-1.51-1.81-.9-.02-1.82-.2-2.6.46-.23.07-.45.14-.68.2l-.66.05ZM31.35,56.04c-.01-.36-.03-.72-.04-1.08.09-.64.22-1.28.28-1.93.24-2.64.39-2.7,2.82-1.08-.06.39-.13.78-.19,1.17-.44-.13-1.01-.78-1.21.22-.15.74-.29,1.51.03,2.25-.04.2-.1.4-.18.59-.74.67-.74,1.32.04,1.96.3.31.57.66.91.93,9.14,7.44,18.28,14.87,27.43,22.3,5.85,4.74,11.69,9.49,17.58,14.18.77.62,1.4,1.82,2.76,1.28.21.53.62.76,1.17.81.09,1.22.96,1.88,1.82,2.57,8.79,6.98,17.56,13.98,26.37,20.93.62.49,1.13,1.36,2.29,1.13-.07-.98-.14-1.95-.21-2.92.14-.37.09-.7-.17-1-.08-.55-.16-1.09-.23-1.64.6-1.97-.65-4.22.95-6.54.59,2.91.95,5.36.84,7.87-.65.66-.64,1.3.03,1.93.07.24.15.48.22.72.05,1.08.1,2.15.15,3.23-.11.38.1.54.42.62,1.56,1.05,2.42,3.07,4.57,3.3.18.37.47.57.87.62.73,1.31,2,1.97,3.23,2.64,4.49,2.43,8.99,4.86,13.52,7.22.59.31,1.17,1.06,2.04.57.07-1.51,1.17-2.81.86-4.38.71-.7.5-1.62.62-2.46.43-3.19.95-3.53,4.03-2.27,7.75,3.18,15.45,6.48,23.23,9.58,2.19.87,2.99,2.19,2.93,4.44-.06,2.17-.18,4.36.25,6.52.11,1.4.2,2.8.32,4.2.06.64.15,1.28.85,1.63,1.32.66,2.61,1.37,4.22,2.21.23-2.1.77-3.72.32-5.44-.72-2.76-.72-5.59-.73-8.41-.02-3.8,0-7.6,0-11.4.16-1.96.32-3.92.49-5.87.27-2.41.55-4.83.82-7.24.25-.69.1-1.16-.62-1.49-1.12-.52-2.19-1.12-3.29-1.69l.74-.77c1.2-.03,2.03,1.18,3.51.98.32-2.93,1.16-5.83,1.04-8.85-.36-1.43,1.07-2.53.72-3.95,1.26-5.06,2.52-10.11,3.78-15.17.79-1.99,1.61-3.97,2.09-6.35-4.87-.16-9.44-1.06-14.06-1.48-1.19-.11-2.47-1.26-3.68-.01-.44-.44-.87-.88-1.31-1.32-.32-.06-.66-.08-.96-.2-14.86-6-29.68-12.08-44.58-17.97-4.34-1.71-8.58-3.73-13.13-4.87-.41,0-.83.01-1.24.02-.34-1.08-1.33-1.37-2.21-1.74-2.42-1-4.86-1.95-7.3-2.91-20.71-8.17-41.43-16.35-62.15-24.48-1.15-.45-2.2-1.43-3.59-1.15-.33,1.02-.2,1.86.03,2.71-.41.96-.19,1.62.84,2.03.89.35,1.74.84,2.6,1.26-.3.52-.83.56-1.34.62-3.16-.39-4.18-2.4-4.02-5.3-.02-.9.71-2.18-.59-2.54-1.72-.48-3.3-2.48-5.33-.74-.26,0-.52-.02-.78-.03.24-1.35-.62-1.94-1.65-2.43-2.71-1.29-4.83-3.31-6.63-5.65-1.58-2.06-3-4.25-4.51-6.37-.38-.53-.5-1.39-1.46-1.37-.32,1.15.06,2.21.13,3.29-.21.32-.18.62.09.9.26.58.52,1.15.79,1.73-.39.39-.29.85-.19,1.32-.48,1.79.24,3.5.6,5.16.72,3.26.54,6.74,2.36,9.73.02.85-.22,1.79.77,2.33l-.02-.03c.9,6.98,4.23,12.53,9.81,16.78,1.18-.56,1.42.53,1.94,1.11-.03,1.01.73,1.48,1.39,2.01,1.33,1.06,2.69,2.08,4.03,3.12.76.69.79.69,1.04-.12ZM127.24,139.66c.55,2.5,1.16,4.99,1.62,7.5.24,1.29.96,1.82,2.14,1.97,1.63.83,3.28,1.61,5.1,1.93,2.28,1.02,2.3,1.02,2.8-.89.47-1.78.78-3.6,1.34-5.34.45-1.41.07-2.17-1.25-2.79-3.53-1.65-7.01-3.4-10.51-5.11-.5-.55-1.03-1.07-1.99-.94-.27,1.33.63,2.43.75,3.67ZM131.61,151.06c-.57-.16-1.01-.77-1.88-.47.34,2.08,1.08,3.83,3.27,4.62.96.48,1.91.98,2.89,1.42.74.33,1.21,0,1.51-.72.6-1.45.29-2.38-1.26-3.08-1.48-.66-3.02-1.18-4.53-1.77ZM202.79,154.11c1.97-1.59,1.81-3.9,1.84-6.05,0-.63-.83-.14-1.25.11-1.32.27-2.65.54-3.97.8-.18-.05-.35-.06-.53-.01-4.41.19-8.81.31-13.22.05-1.55-.14-3-.92-4.6-.78-.58-.56-1.31-.98-2.03-.5-.64.44-.15,1.2-.05,1.8.15.85.39,1.68.57,2.52.32,1.52,1.26,2.19,2.78,2.14.9.96,2.12.64,3.22.77,3.05,1.04,6.17.89,9.31.52,1.6.19,3.1-.13,4.56-.77,1.23.36,2.28-.24,3.37-.61ZM190.34,163.25c2.94.44,5.8-.3,8.7-.56.88-.08,1.37-.58,1.15-1.55-.18-.83-.76-.97-1.46-.81-.84.19-1.68.41-2.52.62-1.55-.19-3.09-.25-4.61.16l-1.18.03c-1.75-.63-3.68-.15-5.44-.86-.71-.29-1.26.17-1.38.94-.11.73.17,1.4.95,1.4,1.96,0,3.8.98,5.79.63ZM190.38,164.95c-2.13-.47-4.36-.04-6.46-.87-.86-.34-1.42.31-1.5,1.23-.07.78.29,1.33,1.07,1.32,2.29,0,4.47,1.1,6.8.67,2.66,1.32,5.27.09,7.9-.13.8.34,1.38-.4,2.1-.44.77-.04,1.18-.45.89-1.25-.24-.65-.27-1.55-1.33-1.47-.62.05-1.28,0-1.77.53-2.57.13-5.14.26-7.71.39ZM93.57,121.25c.32.86.9,1.45,2.14,1.77.33-2.84.67-5.61.98-8.39.06-.56-.1-1.07-.55-1.47-1.19-1.05-2.2-2.35-3.8-2.99-.41,1.27-.26,2.31.09,3.35.43,2.57-.17,5.29,1.15,7.72ZM199.58,170.77c1-.17,2.46.16,2.11-1.62-.38-1.92-1.62-.69-2.54-.57-.11.01-.21.07-.31.11-2.38.17-4.77.37-7.15.51-1.52.09-3.05.09-4.57.15-.55.02-1.15.08-1.26.75-.16.95.61.94,1.23,1.1,4.21,1.09,8.36.95,12.48-.43ZM194.06,72.55c-.39,0-.51.29-.63.59-3.64,4.51-5.53,9.82-7.05,15.3-.51,1.82-1.02,3.65-1.54,5.47-.23.79,0,1.22.88,1.15.78.63,1.69.62,2.62.51,2.17.37,4.31.97,6.55.64,1.53.16,3.05.2,4.57-.07,1.11-.21,2.23-.41,3.34-.62,1.58.33,1.54-.61,1.41-1.72-.69-6-2.02-11.85-4.27-17.46-.56-1.4-1.38-2.75-2.29-3.96-1.19-1.58-1.77-1.49-3.59.19ZM185.64,147c.46.32.98.65,1.32-.06.17-.36.11-.85.11-1.28,0-8.36,0-16.72,0-25.07,0-.73.2-1.55-.62-2.05-1.21-.72-2.49-1.24-3.91-1.37-.79-.4-1.87-1.96-2.14.29-1.01,8.45-1.67,16.93-1.95,25.44-.06,1.92.34,3.23,2.56,3.23,1.52.45,3.04.87,4.64.86ZM141.65,135.82c-1.39,3.77-1.26,3.99,2.19,5.7,4.58,2.27,9.12,4.63,13.68,6.94,4.06,2.06,7.98,4.4,12.38,6.25.08-2.29.13-4.34-.27-6.37.28-1.19.01-2.39.02-3.58.02-2.37-1-3.64-3.3-4.52-6.41-2.46-12.7-5.21-19.04-7.85q-4.78-1.99-5.66,3.42ZM184.58,158.27c4.75,1.97,9.55,2.44,14.37.1-4.81.74-9.57-.01-14.37-.1Z"/>
      <path class="cls-8" d="M331.74,116.18c-5.41,4.32-10.28,8.2-15.13,12.11-2.13,1.72-4.16,3.58-6.57,4.91-1.16.64-1.65,1.55-1.92,2.84-1.05,5.14-2.21,10.27-3.37,15.39-.95,4.18-5.94,8.33-10.18,8.54-1.52.08-2.8-.92-3.43-2.99-1.03-3.34-1.93-6.72-2.9-10.09-.18-.62-.41-1.23-.69-2.07-3.8,1.96-7.46,3.85-11.14,5.74-6.52,3.34-13.02,6.71-19.57,10.01-2.78,1.4-2.82,1.32-5.28-.19-.89.43-.39,1.12-.28,1.7.41,2.26.93,4.5,1.27,6.77.34,2.25-.4,3.64-2.57,4.29-6.87,2.06-13.8,2.35-20.69.1-2.76-.91-3.13-1.68-2.92-4.65.22-3.18,1.01-6.26,1.64-9.37.24-1.18.55-1.96-.97-2.53-1.91-.72-2.58-2.53-3.03-4.41-.84-3.54-.96-7.17-1.32-10.76-1.25-12.37-.87-24.74.15-37.11.64-7.76,1.51-15.48,3.55-23.02.8-2.97,1.96-5.8,3.36-8.53.49-.97,1.07-1.94,1.8-2.73,2.71-2.91,5.95-2.77,8.38.39,1.68,2.17,3.03,4.59,4.01,7.14.73,1.87,1.75,2.38,3.67,2.15,8.37-1.03,16.54-2.58,24.42-5.89,15.4-6.46,30.94-12.59,46.46-18.76,27.29-10.85,54.62-21.63,81.93-32.44,2.54-1,5.06-2.05,7.6-3.06,2.41-.96,4.33-2.57,5.88-4.6,1.86-2.44,3.65-4.93,5.46-7.41.39-.53.71-1.11,1.13-1.61.92-1.09,1.83-2.36,3.52-1.84,1.81.56,1.93,2.09,1.96,3.72.08,4.09-.62,8.08-1.36,12.06-1,5.37-1.95,10.75-3.44,16.03-2.15,7.6-6.65,13.48-12.65,18.34-17.54,14.21-35.11,28.39-52.68,42.57-3.84,3.1-7.67,6.21-11.6,9.19-1.27.96-1.8,1.97-1.87,3.54-.13,3.28-.5,6.56-.7,9.84-.22,3.55-2.75,5.34-5.37,6.95-1.25.77-2.67.09-3.18-1.33-.37-1.01-.5-2.13-.66-3.21-.25-1.71-.44-3.43-.73-5.72ZM251.42,158.16c.08-.64.2-1.42-.78-1.24-.72.13-.52.74-.21,1.22.11.41.21.82.32,1.23.11.38.2.89.73.74.59-.17.27-.66.19-1.03-.06-.31-.17-.61-.26-.92ZM302.88,137.09l-.03.03c-3.49,1.09-6.61,2.94-9.81,4.65-1.34.36-2.52.91-2.09,2.61.61,2.38,1.28,4.75,1.99,7.1.24.81.81.39,1.27.15,1.94-.77,4.09-1.11,5.68-2.63h-.04c1.59.29,2.46-.42,2.75-1.96.46-2.43.92-4.86,1.38-7.29.27-1.02.75-2.05.75-3.07-.01-1.37-.76-.34-1.21-.19-.36.04-.62.2-.65.6ZM400.28,56.62c2.05-1,3.57-2.71,5.39-4.04.73-.53,1.1-1.32.97-2.27.1-2.26.8-4.45.63-6.73.3-2.17.36-4.34.12-6.52.26-.86.33-1.73.14-2.61.29-2.64.18-5.28-.14-7.91-.18-3.2-.11-2.97-3.08-2.11-1.81.52-2.51,2.17-4.01,2.88-.03-.45-.27-.68-.72-.69-.42.08-.87.1-1.26.26-23.21,9.18-46.41,18.37-69.62,27.57-1.11.44-2.12,1.15-3.38,1.13-.5.16-.67.53-.64,1.02.38.74-.17,1.59-.58,1.08-1.16-1.44-2.14-.6-3.18-.18-7.39,2.96-14.76,5.97-22.16,8.91-11.34,4.51-22.69,8.98-34.04,13.47-.51.23-1.02.46-1.53.7-5.76.84-11.52,1.68-17.34,2.53.35,1.78.77,3.3,1.54,4.71,1.38,5.46,2.76,10.92,4.15,16.38-.13,1.36.23,2.64.66,3.91.1,2.92.68,5.75,1.39,8.45,1.09.36,1.8-.56,2.67-.36.81.19.61.69.31,1.2-1,.64-2.47.54-3.01,1.91l1.07,7.18c.1,2.19.19,4.39.29,6.58,0,.86-.11,1.74,0,2.58.73,5.72.32,11.41-.42,17.09-.8,1.8-.4,3.51.12,5.22,3.14-.77,5.17-2.24,5.32-5.48.02-.42.31-.81,1.1-.64.6.72-.12,1.96.46,2.78.39-.09.62-.09.8-.19,8.82-4.52,17.63-9.06,26.45-13.56,1.25-.64,1.81-1.47,1.43-2.88-.19-.73-.26-1.5-.39-2.25.4,0,.8.01,1.21.02.69.99.14,2.36,1.05,3.47,5-2.63,9.92-5.34,14.96-7.82,2.67-1.31,4.05-3.08,3.48-6.11.32-2.87.64-5.74.96-8.62.37,0,.75,0,1.12,0,.03,1.75.06,3.51.09,5.26-.1.13-.13.28-.07.43-.31.23-.4.53-.3.9-.11.43-.23.87-.34,1.3-.89.96-.6,2.06-.41,3.16,2.74-.7,4.23-2.61,5.02-5.19.46.02.91.04,1.37.05l.02.07c.15.35.35.46.65.15,9.02-7.26,18.01-14.56,27.1-21.73,2.09-1.65,3.33-3.4,2.65-6.11.57-2.31.61-4.56-.76-6.65v-1.28c.7-.89,1.7-1.35,2.65-1.89,0,.41,0,.82,0,1.23,0,0-.02.02-.02.02-.6.28-.78.66-.32,1.22.36,3.24.26,6.46-.17,9.68.56.49.88.16,1.17-.33,12.69-10.27,25.39-20.53,38.05-30.84,3.22-2.62,6.62-5.02,9.5-8.04.07-.06.21-.13.2-.18-.03-.16-.11-.3-.17-.45-.1-.64-.19-1.27-.29-1.91.33-.9.75-1.57,1.79-.75.01.44.02.88.03,1.32-.2.33-.18.54.29.46ZM339,110.08c-.6.1-.81.56-.98,1.06-1.43.37-2.83,1.11-2.96,2.6-.2,2.3-.52,4.71.71,6.9,0,.76-.15,1.53.22,2.29,1.37-.49,2.16-1.55,2.4-2.86.6-3.32,1.1-6.66.57-10.04.25.12.38-.03.26-.08-.4-.16.14-.11-.23.13ZM228.37,148.39c-.59-.18-1.06-.78-1.98-.41.29,1.52.54,3.1.91,4.65.21.86.66,1.62,1.77,1.49,1,.66,2.11.84,3.28.72,1.91.87,3.92.74,5.94.63,1.98.48,3.95.15,5.93-.02,1.79-.38,3.59-.75,5.38-1.15,1.13-.25,2.04-.87,2.31-2.04.35-1.55.93-3.09.69-5.15-3.38,1.56-6.75,2.05-10.22,1.99-3.14-.05-6.28-.05-9.43-.07-.37,0-.73,0-1.1,0-1.16-.24-2.23-.94-3.49-.64ZM227.79,102.87c1.06.46,2.14.8,3.32.59,1.13.19,2.45-.03,2.98,1.42-.27,1.51-.32,3.01.07,4.51-.05,1.18-.13,2.37-.15,3.55-.08,3.88-.13,7.76-.19,11.65-1.25.75-2.71.31-4.02.68-.85-.06-1.71-.12-2.56-.18-1-.49-2.13-1.24-2.17.8-.12,6.25.45,12.47.92,18.69.08,1.08.47,1.94,1.83,1.74,1.03.54,2.11.85,3.29.59,2.1,1.07,4.34.73,6.56.67.98.03,1.96.03,2.93.11,1.6.14,2.43-.3,2.26-2.16-.2-2.16-.11-4.35-.15-6.52.32-6.78-.03-13.57,0-20.35.05-.22.1-.44.16-.66.15-.08.22-.2.22-.38.82-.34,1.64-.67,2.45-1.01,1.38-.59,2.76-1.18,4.13-1.77.58-.16.96-.47.88-1.15-.65-5.31-1.7-10.54-2.92-15.74-.19-.81-.61-1.08-1.38-.94-.48,0-.95,0-1.43,0-.95.02-1.95-.21-2.81.41-2.78.09-5.56.19-8.33.28-.86-.02-1.73-.05-2.59-.07-1.05-.44-2.12-.79-3.28-.72-.39-.17-1.05-.44-1.14-.01-.34,1.58-.56,3.2-.68,4.82-.09,1.28.86,1.28,1.79,1.15ZM299.57,154.43c1.53-.92,2.13-2.26,2.01-4.04-1,.05-1.62.45-2.16,1.01-1.76.13-3.28,1-4.84,1.69-1.38.61-.86,1.75-.56,2.78.35,1.22,1.16,1.08,2.02.68,1.24-.59,2.66-.9,3.53-2.12ZM233,168.75c-.62-.18-1.22-.42-1.85-.54-1.23-.23-1.75.42-1.37,1.59.31.95,1.15.8,1.84.97,4.01,1.45,8.08,1.6,12.2.55.67-.17,1.73,0,1.54-1.18-.13-.84-.92-.77-1.57-.81-3.6-.19-7.19-.39-10.79-.58ZM233.66,160.88c-.31-.06-.65-.07-.93-.2-.56-.26-1.15-.81-1.57.08-.36.78-.14,1.51.74,1.79.59.19,1.25.18,1.88.26,4.35,1.51,8.66.1,12.98-.24.77-.06,1-.77.82-1.5-.19-.82-.82-1.04-1.5-.78-2.01.78-4.11.51-6.18.57-2.08.06-4.16.02-6.24.03ZM233.78,164.66c-.51-.18-1.02-.39-1.54-.54-1.06-.29-1.85-.23-2.17,1.14-.3,1.3.46,1.45,1.34,1.71.74.22,1.47.39,2.25.28,4.8,1.74,9.45-.13,14.15-.63.81-.09,1.11-.63.93-1.39-.25-1.03-.98-1.5-1.96-1.1-2,.82-4.08.54-6.13.55-2.29.01-4.58-.02-6.87-.04ZM245.58,95.15c.95.02,1.44-.27,1.1-1.35-1.88-6.01-3.54-12.11-6.68-17.63-.99-1.75-1.74-3.75-3.71-4.76-2.03-.7-2.79.91-3.5,2.15-3.69,6.37-4.86,13.46-5.72,20.62-.12.97.35,1.43,1.35,1.26,1.06.15,2.12.29,3.19.44,1.54.67,3.15.39,4.74.33,2.23.26,4.41,0,6.56-.64.93.05,1.87.24,2.68-.42ZM421.41,10.16c-.96,1.32-1.9,2.65-2.88,3.95-2.17,2.88-4.34,5.77-7.6,7.56q-2.38,1.31-1.97,4.2c.02.86.03,1.72.05,2.59.02.27.04.54.06.82.02,1.7.03,3.41.05,5.11-.44,3.96-.21,7.93-.33,11.89-.15,1.06-.29,2.12-.44,3.18-.14.28-.18.57.19.67.1.03.26-.22.4-.34,3.93-3.16,6.72-7.15,8.39-11.87,2.89-8.16,4.42-16.62,5.2-25.22.19-1.33.33-2.65,0-4.66-.56,1.09-.83,1.61-1.1,2.12ZM229.76,104.87c-1.25.11-2.42-.97-3.88-.29.21,4.83-.46,9.57-.56,14.34-.08,3.89-.05,3.9,3.8,4.3.22.02.43,0,.65,0,2.75.12,2.79.12,2.82-2.41.06-4.38.06-8.76.08-13.14q.01-2.72-2.92-2.81ZM250.17,146.26c2.73-.86,2.74-.86,2.75-3.43.05-8.2-.73-16.36-1.59-24.5-.07-.64-.18-1.34-.51-1.87-.42-.68-.92-.08-1.35.19-1.56.64-3.12,1.28-4.68,1.92-.71.37-.68,1.05-.68,1.7,0,8.6.04,17.19.04,25.79,0,1.96.99,1.5,2.08.92,1.37.05,2.68-.2,3.94-.71ZM232.18,158.18c2.65,1.75,8.01,2.17,13.22,1.18.77-.15,1.77-.22,1.75-1.85-4.99,1.13-9.96,1.66-14.97.67Z"/>
      <path class="cls-1" d="M29.56,27.86c-.17,2.91.86,4.91,4.02,5.3.36.23.71.51,1.09.68,11.41,4.97,22.8,9.99,34.24,14.88,6.68,2.85,5.2,1.24,4.54,8.51-.2-.37-.4-.73-.6-1.1-1.51,1.05-2.64-.16-3.85-.7-2.99-1.33-5.75-3.16-8.9-4.13-1.77-.55-3.05.21-3.71,2.09-.6,1.7.96,1.71,1.77,2.16,4,2.23,8,4.47,11.91,6.86,1.29.79,1.85,1.7,1.75,3.18-.17,2.39.19,4.81-.26,7.19-4.88-2.24-9.02-5.69-13.62-8.39-4.88-2.86-9.65-5.91-14.48-8.87-5.41-3.69-11.04-7.02-16.61-10.45-.77-.47-1.53-.83-2.45-.76-.61-1.31-.54-2.71-.59-4.1.18-.58.17-1.16-.03-1.73.03-.47.06-.95.1-1.42.93-.09,1.64.39,2.42.82,5.74,3.18,11.55,6.25,17.28,9.45,1.96,1.09,3.99,1.06,6.06.87.89-.08,1.09-.73.46-1.35-.45-.45-1.07-.74-1.66-1.04-5.78-2.9-11.5-5.92-17.38-8.6-2.34-1.07-4.57-2.64-7.31-2.74-.07-2.41-.13-4.82-.2-7.24.09-.23.19-.46.28-.69,2.05-.18,3.79.98,5.71,1.32Z"/>
      <path class="cls-7" d="M176.37,133.09c0,3.8-.02,7.6,0,11.4.01,2.82.01,5.65.73,8.41-2.23-.14-3.51-2.39-5.71-2.6-.43-2.16-.3-4.35-.25-6.52.06-2.25-.74-3.57-2.93-4.44-7.78-3.1-15.48-6.4-23.23-9.58-3.08-1.26-3.6-.92-4.03,2.27-.11.84.09,1.77-.62,2.46-1.69.02-3.24-.6-4.68-1.35-4.62-2.4-9.82-3.8-13.59-7.73-.36-.37-.96-.51-1.45-.76-.23-3.25-.57-6.5-.67-9.76-.11-3.58-.54-7.17-.03-10.75,1.04-.1,1.83.38,2.58,1.03.97.83,2.01,1.58,3.35,1.72.2.84.36,1.68.61,2.5,1.26,4.07,3,7.83,6.82,10.19-.42,2.26,1.21,2.96,2.8,3.72,3.37,1.61,6.96,1.3,10.52,1.27,1.69-.01,2.28-.98,2.21-2.52,5.17-1.88,9.09-5.15,11.36-10.26.07-.16.34-.22.52-.33.04.39.08.79.12,1.18-.8,3.12-2.91,5.44-4.8,7.9-2.1,1.11-3.88,2.79-6.97,3.38,4.64,2.51,8.83,4.52,13.31,5.83,4.61,1.34,9.25,2.58,14.01,3.32Z"/>
      <path class="cls-7" d="M114.67,120.68c-.07-.24-.15-.48-.22-.72-.01-.64-.02-1.29-.03-1.93.11-2.51-.26-4.96-.84-7.87-1.6,2.33-.35,4.57-.95,6.54-1.34.03-2.17-.98-3.12-1.63-6.03-4.08-11.57-8.8-17.38-13.17-3.03-2.28-5.59-5.18-9.07-6.86-.21-2.14-.17-4.27-.01-6.33,1.22-.28,1.65.47,2.25.89,9.1,6.43,18.19,12.87,27.29,19.3.26.04.57.2.65-.21.09-.45-.28-.64-.56-.88-.73-.65-1.41-1.37-2.19-1.94-11.05-7.97-22.05-16.01-33.21-23.83-2.42-1.7-3.42-3.46-2.63-6.25.73.02,1.45.05,1.78.88q.47,1.98,2.3,1.16c.6.25,1.24.42,1.79.76,8.89,5.56,17.78,11.14,26.66,16.73,3.33,2.09,6.65,4.2,9.97,6.3.13.83.45,1.21,1.23.52.39,1.16.22,2.36.22,3.55.02,5.41,0,10.83,0,16.24-1.47.1-2.33-1.7-3.91-1.27Z"/>
      <path class="cls-1" d="M183.55,89.01c-1.26,5.06-2.52,10.11-3.78,15.17-1.3-.17-2.51-.66-3.69-1.18-5.25-2.32-10.72-4.05-16.09-6.04-1.77-2.45-3.39-4.97-6.01-6.72-5.61-3.75-11.5-4.04-17.7-1.92.06-.86-.36-1.46-1.1-1.81-4.78-2.22-9.57-4.42-14.36-6.61-.18-.08-.43,0-.64,0,.13-2.07.21-4.15.41-6.21.19-1.96.39-2.08,2.22-1.29,5.33,2.27,10.64,4.57,15.94,6.9,8.1,3.56,16.18,7.19,24.29,10.73,2.64,1.15,2.9.95,3.51-1.77.24-1.07.53-2.12.8-3.18,4.7.87,9.38,1.79,14.09,2.58.99.17,1.53.71,2.1,1.36Z"/>
      <path class="cls-3" d="M167.36,85.08c-.27,1.06-.57,2.11-.8,3.18-.61,2.72-.87,2.93-3.51,1.77-8.11-3.55-16.19-7.17-24.29-10.73-5.3-2.33-10.62-4.63-15.94-6.9-1.84-.78-2.03-.66-2.22,1.29-.2,2.06-.28,4.14-.41,6.21-.49,3.7-.39,7.41-.28,11.13-.22,4.37-.28,8.74.01,13.11-.51,3.58-.08,7.17.03,10.75.1,3.26.44,6.51.67,9.76.02,1.27.04,2.53.06,3.8-.4-.05-.69-.26-.87-.62-.41-1.96-.82-3.92-1.23-5.88,0-5.41.02-10.83,0-16.24,0-1.18.16-2.39-.22-3.55.02-8.45-.21-16.91.56-25.34.06-.31.12-.62.19-.93.05-.86.09-1.72.14-2.58.1-.44.21-.88.31-1.32.46-1.76-1.16-1.6-1.97-1.96-8.37-3.74-16.76-7.42-25.16-11.08-5.48-2.38-10.98-4.7-16.6-7.09-.7,2.4-.83,4.67-.7,6.97-.23.98-.37,1.97-.22,2.97-.48.72-.4,1.48-.2,2.26,0,.42-.02.85-.03,1.27-.34,3.49-.43,6.99-.04,10.48-.79,2.79.21,4.55,2.63,6.25,11.15,7.82,22.16,15.85,33.21,23.83.79.57,1.47,1.29,2.2,1.94-.03.36-.06.73-.09,1.09-9.09-6.44-18.19-12.87-27.29-19.3-.59-.42-1.03-1.17-2.25-.89-.16,2.06-.2,4.19.01,6.33-.09.86-.19,1.72-.28,2.58-.54-.05-.96-.28-1.17-.81-.2-1.49-.4-2.98-.6-4.46.16-.75.31-1.5.47-2.25.42-2.03-.17-3.5-1.96-4.75-12.99-9.1-25.93-18.29-38.88-27.45-.58-.41-1.36-.75-1.01-1.75,1.46-.41,2.09,1.02,3.19,1.34.15.16.27.35.44.47,9.42,6.66,18.84,13.31,28.26,19.96.34.24.68.57,1.39.22.22-1.34.3-2.81.01-4.3.02-.61.04-1.23.05-1.84,0-.24,0-.48,0-.72.16-4.68.32-9.36.48-14.04.66-7.27,2.14-5.66-4.54-8.51-11.45-4.89-22.84-9.9-34.24-14.88-.39-.17-.73-.45-1.09-.68.51-.06,1.04-.1,1.34-.62,1.02.37,2.06.7,3.05,1.13,18.42,8.04,36.84,16.09,55.25,24.14,3.5,1.53,7.01,3.05,10.51,4.59,1.13.5,1.7.3,1.51-1.05,0,0,.18.1.18.1.23.26.46.51.69.77-.25,1.79,1.32,1.8,2.31,2.23,15.87,7.01,31.76,14,47.66,20.97,2.87,1.26,5.77,2.45,8.89,3.77.3-1.81.55-3.3.8-4.79.21-1.53,1.36-2.9.84-4.56.44.44.87.88,1.31,1.32-.04.6-.08,1.2-.12,1.8-.3.21-.42.47-.28.83-.05.43-.1.85-.15,1.28Z"/>
      <path class="cls-1" d="M188.57,140.53c-.21-6.88-.06-13.76.21-20.63,0,0,.14-.26.14-.26l-.16-.25c-.38-1.88-2.09-2.26-3.45-3.03.78-5.13,1.58-10.26,2.33-15.4.22-1.51.13-3.13,2.14-3.52,4.89.26,9.78.57,14.78-.68.21,1.71.38,3.21.6,4.7.14.92-.13,1.48-1.13,1.57-1.3.12-2.6.25-3.9.38,0-1.2,0-2.41-.03-3.61-.01-.43,0-.95-.43-1.18-1.24-.64-2.57-.38-3.84-.19-1.21.18-.98,1.29-.98,2.12,0,7.34-.03,14.67.05,22.01.04,3.16,3.03,5.78,6.49,5.93,0,1.08.12,2.18,0,3.25-.6,5.06-1.1,10.13-1.21,15.23-1.46.87-3.06.66-4.64.63-.23-1.72-.48-3.43-.69-5.15-.09-.72-.37-1.4-1.13-1.34-1.77.14-3.37-.99-5.15-.59Z"/>
      <path class="cls-10" d="M42.81,57.48c-1.1-.31-1.73-1.75-3.19-1.34-.35.99.43,1.34,1.01,1.75,12.95,9.17,25.89,18.35,38.88,27.45,1.79,1.25,2.38,2.73,1.96,4.75-.15.75-.31,1.5-.47,2.25-.85.04-1.39-.52-2-.99-7.91-6.17-15.84-12.32-23.76-18.48-7.4-5.76-14.79-11.53-22.19-17.29-.32-.74-.18-1.51-.03-2.25.2-1,.76-.35,1.21-.22.33.23.73.57.95-.03.23-.62-.36-.85-.76-1.14-2.43-1.62-2.58-1.56-2.82,1.08-.06.65-.18,1.29-.28,1.93-1.96-.95-3.33-2.67-5.09-3.89-.49-.34-.87-.61-1.33-.03-.53-.58-.76-1.67-1.94-1.11.01-.27.03-.54.04-.8.74.33,1.27.16,1.32-.69.08-1.37.06-2.74.09-4.11.92-.07,1.68.29,2.45.76,5.57,3.43,11.21,6.75,16.61,10.45.04.74-.38,1.33-.65,1.97ZM36.39,53.88c-.1-.31-.35-.56-.64-.45-.3.11-.31.46-.2.76.25.12.52.38.73.34.31-.06.3-.38.11-.64Z"/>
      <path class="cls-5" d="M31.47,29.25c-.23-.84-.36-1.69-.03-2.71,1.39-.28,2.44.7,3.59,1.15,20.73,8.14,41.44,16.31,62.15,24.48,2.44.96,4.88,1.91,7.3,2.91.88.36,1.88.65,2.21,1.74-.9,1.41-1.44,2.93-1.28,4.63,0,0-.18-.1-.18-.1-.38-1.73-1.47-2.65-3.13-3.24-2.67-.96-5.29-2.07-7.88-3.24-9.05-4.12-18.34-7.68-27.52-11.49-8.38-3.47-16.7-7.07-25.11-10.45-3.33-1.34-6.53-3.09-10.13-3.68Z"/>
      <path class="cls-5" d="M166.6,79.84c.52,1.67-.63,3.03-.84,4.56-9.09-4.49-18.69-7.78-27.97-11.82-7.58-3.3-15.36-6.1-22.91-9.5-2.52-1.13-5.02-2.62-7.91-2.85.32-1.15.64-2.29.96-3.44,4.56,1.14,8.8,3.16,13.13,4.87,14.9,5.89,29.72,11.97,44.58,17.97.3.12.64.13.96.2Z"/>
      <path class="cls-3" d="M136.29,88.32c6.2-2.12,12.09-1.83,17.7,1.92,2.62,1.75,4.24,4.27,6.01,6.72.44,1.31.89,2.62,1.33,3.93-.03,2.28.43,4.58,0,6.84-.33,1.73.4,2.49,1.95,3.14,3.8,1.59,7.7,2.97,11.23,5.14-.25.26-.49.52-.74.77-.6-.22-1.2-.44-1.8-.67-3.8-1.45-7.37-3.45-11.28-4.63-.18.11-.45.17-.52.33-2.27,5.1-6.19,8.37-11.36,10.26-1.49.2-2.97.48-4.46.59-4.05.3-7.6-1.27-11.08-3.06-3.82-2.36-5.56-6.13-6.82-10.19-.25-.82-.41-1.67-.61-2.5-.22-4.19.62-8.15,2.61-11.86,2.19-2.73,4.68-5.11,7.83-6.72ZM128.97,110.13c-.01.67.2,1.27.51,1.87,3.75,7.22,12.34,10.35,20.2,7.34,5.56-2.13,9.51-7.57,9.6-13.21.47-2.65.01-5.31-1-7.63-2.56-5.86-7.14-9.46-13.64-9.77-6.07-.29-11.1,2-14.39,7.39-2.81,4.45-3.55,9.09-1.27,14.01Z"/>
      <path class="cls-1" d="M31.47,29.25c3.61.59,6.8,2.34,10.13,3.68,8.41,3.38,16.74,6.98,25.11,10.45,9.18,3.81,18.47,7.36,27.52,11.49,2.58,1.18,5.21,2.29,7.88,3.24,1.66.59,2.75,1.52,3.13,3.24.19,1.35-.38,1.55-1.51,1.05-3.5-1.54-7.01-3.06-10.51-4.59-18.42-8.05-36.83-16.1-55.25-24.14-.99-.43-2.03-.76-3.05-1.13-.87-.43-1.71-.91-2.6-1.26-1.04-.41-1.26-1.06-.84-2.03Z"/>
      <path class="cls-7" d="M141.65,135.82q.88-5.41,5.66-3.42c6.34,2.64,12.63,5.39,19.04,7.85,2.29.88,3.31,2.15,3.3,4.52,0,1.19.25,2.39-.02,3.58-.78,0-1.46-.34-2.18-.62-7.67-2.9-14.91-6.7-22.19-10.42-1.15-.59-2.23-1.41-3.6-1.49Z"/>
      <path class="cls-1" d="M176.37,133.09c-4.76-.74-9.4-1.97-14.01-3.32-4.49-1.31-8.68-3.32-13.31-5.83,3.09-.59,4.87-2.27,6.97-3.38,1.26.29,2.48.68,3.81.78,4.14.32,7.95,1.99,11.85,3.27.54.18,1.14.43,1.23.97.43,2.78,2.34,1.81,3.96,1.63-.16,1.96-.32,3.92-.49,5.87Z"/>
      <path class="cls-9" d="M33.05,55.58c7.4,5.76,14.79,11.53,22.19,17.29,7.92,6.16,15.85,12.31,23.76,18.48.61.47,1.15,1.03,2,.99.2,1.49.4,2.98.6,4.46-1.36.54-1.99-.66-2.76-1.28-5.89-4.69-11.73-9.43-17.58-14.18-9.15-7.42-18.29-14.86-27.43-22.3-.33-.27-.61-.62-.91-.93-.01-.65-.03-1.31-.04-1.96.08-.19.13-.39.18-.59Z"/>
      <path class="cls-9" d="M174.51,116.01c-3.53-2.17-7.44-3.55-11.23-5.14-1.54-.65-2.27-1.41-1.95-3.14.43-2.27-.04-4.56,0-6.84,1.46.15,2.63,1.01,3.88,1.63,4.47,2.25,9,4.33,13.85,5.61.13,3.03-.71,5.92-1.04,8.85-1.47.2-2.31-1-3.51-.98Z"/>
      <path class="cls-1" d="M194.89,96.2c-2.24.33-4.38-.27-6.55-.64,1.06-4.57,2.05-9.15,3.2-13.7.58-2.3.95-4.72,2.56-6.64,2.17.21,3.48,1.49,4.45,3.36,2.78,5.31,3.36,11.15,4.24,16.93-1.11.21-2.23.41-3.34.62.15-5.04-.52-9.91-3.11-15.14-1.5,5.5-1.6,10.34-1.46,15.21Z"/>
      <path class="cls-9" d="M176.85,127.21c-1.61.19-3.52,1.16-3.96-1.63-.08-.54-.69-.79-1.23-.97-3.9-1.28-7.7-2.95-11.85-3.27-1.33-.1-2.55-.49-3.81-.78,1.89-2.46,4-4.78,4.79-7.9,3.12,1.2,6.14,2.61,9.16,4.05,2.51,1.2,5.14,2.18,7.71,3.25-.27,2.41-.55,4.83-.82,7.24Z"/>
      <path class="cls-9" d="M141.65,135.82c1.37.08,2.45.9,3.6,1.49,7.28,3.72,14.52,7.52,22.19,10.42.72.27,1.4.61,2.18.62.4,2.03.35,4.08.27,6.37-4.4-1.86-8.32-4.2-12.38-6.25-4.56-2.31-9.1-4.67-13.68-6.94-3.45-1.71-3.58-1.93-2.19-5.7Z"/>
      <path class="cls-9" d="M82.77,97.62c.09-.86.19-1.72.28-2.58,3.48,1.68,6.05,4.58,9.07,6.86,5.81,4.37,11.35,9.09,17.38,13.17.96.65,1.79,1.66,3.12,1.63.08.55.16,1.09.23,1.64-.18.38-.12.71.18,1,.07.97.14,1.94.21,2.92-1.16.23-1.67-.64-2.29-1.13-8.8-6.96-17.58-13.95-26.37-20.93-.86-.68-1.73-1.34-1.82-2.57Z"/>
      <path class="cls-7" d="M23.78,38.48c.2.57.22,1.15.03,1.73-1.1-.7-1.38.02-1.36.89.04,1.96.18,3.92.28,5.88-.68.1-1.33,0-1.77-.57-2.53-3.24-5.3-6.33-6.37-10.46-.27-1.04-.45-2.14-1.46-2.8,0,0,.02.03.02.03.09-.89-.09-1.69-.77-2.33-1.82-2.99-1.65-6.47-2.36-9.73-.37-1.67-1.08-3.37-.6-5.16,1.46.26,1.29,1.64,1.61,2.56,1.16,3.38,2.41,6.73,4.03,9.92,1.61,3.15,3.99,5.58,7.12,7.27.09.74.14,1.48.26,2.22.14.85.61,1.04,1.33.55Z"/>
      <path class="cls-9" d="M186.45,118.54c.81.5.62,1.32.62,2.05.02,8.36.01,16.72,0,25.07,0,.43.06.92-.11,1.28-.34.71-.86.38-1.32.06-.73-3.09-.52-6.25-.68-9.37.49-.73,1.03-1.48.16-2.29-.95-.89-2.13-1.03-3.34-.83-1.51.26-1.66.84-.8,2.74v8.89c-2.2,0-2.6-1.31-2.54-3.23.28-8.51.94-16.99,1.95-25.44.27-2.25,1.35-.69,2.14-.29-1.3,1.6-.77,3.5-.88,5.29-.97.31-1.43.92-1.14,1.96.21.75.42,1.49.63,2.24-1.09,2.32-1.01,2.53,1.03,2.65.54.03,1.09.05,1.63.01,2.06-.14,2.19-.47,1.08-2.61.06-.46.12-.93.18-1.39,1.39-.94.52-1.79-.1-2.66.05-.75.13-1.51.13-2.26,0-.98.3-1.68,1.36-1.87ZM182.47,130.37c-.09,0-.43,0-.73.08-.77.21-1.45.6-1.39,1.51.06.93.76,1.22,1.58,1.26.75.04,1.51.08,2.26.05.67-.03,1.32-.21,1.42-1.02.07-.58-.28-.99-.76-1.31-.66-.44-1.37-.61-2.37-.58Z"/>
      <path class="cls-5" d="M201.4,128.49c-3.47-.15-6.46-2.77-6.49-5.93-.08-7.34-.06-14.67-.05-22.01,0-.83-.24-1.94.98-2.12,1.27-.19,2.6-.45,3.84.19.43.22.42.75.43,1.18.03,1.2.02,2.41.03,3.61-2.8.46-2.85.46-2.85,3.15,0,2.5.11,5.01.17,7.51-.23,2.85-.17,5.69.08,8.54-.13.66-.18,1.31.14,1.93.88,1.08,2.05.6,3.13.56,0,0-.02.18-.02.18.21.21.42.42.63.63,0,.86-.01,1.72-.02,2.57Z"/>
      <path class="cls-5" d="M167.36,85.08c.05-.43.1-.85.15-1.28.34-.19.41-.48.28-.83.04-.6.08-1.2.12-1.8,1.21-1.25,2.49-.09,3.68.01,4.62.42,9.19,1.32,14.06,1.48-.48,2.38-1.31,4.36-2.09,6.35-.57-.65-1.11-1.19-2.1-1.36-4.71-.79-9.4-1.71-14.09-2.58Z"/>
      <path class="cls-1" d="M22.18,35.7c-3.12-1.69-5.51-4.12-7.12-7.27-1.63-3.19-2.87-6.53-4.03-9.92-.31-.92-.15-2.3-1.61-2.56-.09-.46-.2-.92.19-1.32.91-.13,1.37.4,1.82,1.09,1.2,1.83,2.51,3.59,3.69,5.43.6.94,1.23,1.93,2.19,2.4,2.61,1.26,3.54,3.64,4.42,6.09.3,1.38-.43,2.86.46,4.17,0,.62-.02,1.25-.02,1.87Z"/>
      <path class="cls-2" d="M201.51,104.81c.62-.08,1.24-.15,1.85-.23.35.09.56-.09.74-.36,1,0,1.34.59,1.29,1.48-.23,4.61.85,9.15.74,13.77-.09,3.61-.09,3.69-3.63,3.86-.33.02-.66,0-.99,0,0-6.17,0-12.34,0-18.51Z"/>
      <path class="cls-9" d="M120.68,128.45c-.02-1.27-.04-2.53-.06-3.8.49.25,1.09.39,1.45.76,3.76,3.93,8.96,5.33,13.59,7.73,1.44.75,2.99,1.37,4.68,1.35.32,1.58-.78,2.88-.86,4.39-.87.49-1.44-.26-2.04-.57-4.53-2.37-9.03-4.79-13.52-7.22-1.24-.67-2.5-1.33-3.23-2.64Z"/>
      <path class="cls-5" d="M179.05,108.14c-4.85-1.28-9.38-3.36-13.85-5.61-1.25-.63-2.42-1.48-3.88-1.63-.44-1.31-.89-2.62-1.33-3.93,5.37,1.99,10.84,3.72,16.09,6.04,1.19.52,2.39,1.01,3.69,1.18.34,1.43-1.09,2.53-.72,3.95Z"/>
      <path class="cls-7" d="M201.4,128.49c0-.86.01-1.72.02-2.57,0-.22.02-.45.03-.67.23-.07.45-.14.68-.2.65.05,1.31.11,1.96.16,0,7.03,0,14.05,0,21.08-1.25.52-2.52.91-3.91.69.11-5.1.62-10.17,1.21-15.23.13-1.07.01-2.17,0-3.25Z"/>
      <path class="cls-5" d="M21.75,29.65c-.89-2.45-1.81-4.83-4.42-6.09-.96-.46-1.59-1.45-2.19-2.4-1.17-1.84-2.49-3.6-3.69-5.43-.46-.7-.92-1.22-1.82-1.09-.26-.58-.52-1.15-.79-1.73.38-.34.26-.63-.09-.9-.07-1.07-.44-2.13-.13-3.29.95-.02,1.08.84,1.46,1.37,1.51,2.12,2.93,4.31,4.51,6.37,1.8,2.34,3.92,4.36,6.63,5.65,1.03.49,1.89,1.08,1.65,2.43-.54.83-.45,1.75-.37,2.67-.09.84-.17,1.69-.26,2.53-.16-.07-.32-.1-.49-.1Z"/>
      <path class="cls-7" d="M189.79,97.44c-2.01.39-1.92,2.02-2.14,3.52-.75,5.14-1.55,10.27-2.33,15.4-1.27-.43-2.58-.79-3.69-1.6,1.29-.96,1.38-2.35,1.39-3.78,0-1.4.33-2.79.43-4.16.25-3.34,1.96-6.44,1.55-9.87,1.62-.05,3.26-.35,4.79.49Z"/>
      <path class="cls-7" d="M194.11,75.22c-1.61,1.92-1.98,4.34-2.56,6.64-1.16,4.54-2.15,9.13-3.2,13.7-.93.11-1.83.12-2.62-.51.37-1.54.75-3.09,1.09-4.63.16-.71.42-1.48-.43-1.98,1.52-5.48,3.41-10.79,7.05-15.3.17.38.42.69.86.77l-.19,1.31Z"/>
      <path class="cls-10" d="M128.48,136.93c3.5,1.71,6.98,3.46,10.51,5.11,1.32.62,1.7,1.38,1.25,2.79-.55,1.75-.87,3.57-1.34,5.34-.5,1.91-.52,1.9-2.8.89,1.64-3.28.42-7.27-2.75-8.84-1.17-.58-2.41-1.02-3.74-1.15l-.52-.78c-.2-1.12-.41-2.24-.61-3.36Z"/>
      <path class="cls-5" d="M194.11,75.22c.06-.44.13-.87.19-1.31.76-.6.49-1.02-.23-1.36,1.82-1.67,2.4-1.77,3.59-.19.91,1.21,1.72,2.56,2.29,3.96,2.25,5.61,3.58,11.46,4.27,17.46.13,1.11.17,2.05-1.41,1.72-.88-5.78-1.46-11.62-4.24-16.93-.98-1.87-2.28-3.15-4.45-3.36Z"/>
      <path class="cls-9" d="M194.87,155.49c-3.13.37-6.25.52-9.31-.52.06-1.76.11-3.53.17-5.29,3.09.02,6.18.04,9.27.06-.32,1.91-.18,3.83-.13,5.75Z"/>
      <path class="cls-5" d="M194.89,96.2c-.14-4.86-.05-9.71,1.46-15.21,2.59,5.23,3.26,10.09,3.11,15.14-1.52.27-3.05.23-4.57.07Z"/>
      <path class="cls-7" d="M201.51,104.81c0,6.17,0,12.34,0,18.51-.67.08-1.35.17-2.02.25-.23-.09-.46-.17-.69-.25,0,0-.03-.03-.03-.03-.12-3.1.22-6.22-.24-9.31.17-2.85.12-5.69-.15-8.53.13-.2.27-.39.4-.59.91-.01,1.81-.02,2.72-.04Z"/>
      <path class="cls-7" d="M129.61,141.07c1.32.13,2.56.57,3.74,1.15,3.17,1.57,4.39,5.56,2.75,8.84-1.82-.32-3.47-1.1-5.1-1.93.03-2.77-.93-5.38-1.39-8.07Z"/>
      <path class="cls-9" d="M188.57,140.53c1.78-.4,3.38.74,5.15.59.76-.06,1.04.62,1.13,1.34.21,1.72.46,3.43.69,5.15-1.84.02-3.68.04-5.53.05-1.07,0-1.59-.54-1.56-1.61.04-1.84.08-3.68.12-5.51Z"/>
      <path class="cls-7" d="M181,146.13c0-2.96,0-5.93-.01-8.89,1.37-.36,2.63.45,3.98.38.16,3.13-.06,6.29.68,9.37-1.6,0-3.13-.41-4.64-.86Z"/>
      <path class="cls-1" d="M204.08,146.28c0-7.03,0-14.05,0-21.08.21-.21.43-.41.64-.62,1.47-.2,1.55.74,1.51,1.81-.1,3.16-.13,6.32-.28,9.48-.13,2.72-.35,5.44-.57,8.15-.07.94.08,2.06-1.31,2.26Z"/>
      <path class="cls-10" d="M199.58,170.77c-4.12,1.38-8.28,1.53-12.48.43-.62-.16-1.39-.15-1.23-1.1.11-.67.71-.73,1.26-.75,1.52-.05,3.05-.06,4.57-.15,2.39-.14,4.77-.34,7.15-.51-.11.82-.1,1.6.74,2.08Z"/>
      <path class="cls-10" d="M92.42,113.52c-.35-1.04-.5-2.09-.09-3.35,1.61.64,2.62,1.93,3.8,2.99.45.4.61.9.55,1.47-.31,2.78-.64,5.55-.98,8.39-1.24-.32-1.81-.9-2.14-1.77.15-.13.45-.28.44-.39-.23-2.29-.49-4.58-.8-6.87-.03-.19-.51-.31-.79-.46Z"/>
      <path class="cls-9" d="M171.38,150.3c2.2.21,3.47,2.46,5.71,2.6.45,1.72-.09,3.34-.32,5.44-1.61-.84-2.9-1.55-4.22-2.21-.7-.35-.79-.98-.85-1.63-.13-1.4-.22-2.8-.32-4.2Z"/>
      <path class="cls-9" d="M185,96.95c.4,3.43-1.3,6.52-1.55,9.87-.1,1.37-.43,2.76-.43,4.16,0,1.43-.1,2.82-1.39,3.78-1.22-.65-.69-1.76-.55-2.62.81-4.72,1.74-9.41,2.61-14.12.14-.75.49-1.18,1.31-1.08Z"/>
      <path class="cls-5" d="M194.87,155.49c-.05-1.92-.19-3.84.13-5.75,1.31-.19,2.7.06,3.88-.78.18-.05.35-.04.53.01.41,1.91-.1,3.83.01,5.75-1.46.64-2.96.96-4.56.77Z"/>
      <path class="cls-9" d="M13.14,33.15c1.01.66,1.19,1.77,1.46,2.8,1.07,4.13,3.84,7.22,6.37,10.46.44.56,1.09.67,1.77.57.09.71.17,1.43.26,2.14-.01.27-.03.54-.04.8-5.58-4.25-8.91-9.8-9.81-16.78Z"/>
      <path class="cls-10" d="M185.73,149.68c-.06,1.76-.11,3.53-.17,5.29-1.1-.13-2.31.19-3.22-.77-.42-1.99-.85-3.98-1.28-5.97,1.6-.14,3.05.64,4.6.78.02.22.04.44.07.67Z"/>
      <path class="cls-10" d="M198.2,167.18c-2.63.22-5.25,1.45-7.9.13.03-.79.06-1.57.09-2.36,2.57-.13,5.14-.26,7.71-.39.04.87.07,1.75.11,2.62Z"/>
      <path class="cls-1" d="M177.67,119.97c-2.57-1.08-5.2-2.05-7.71-3.25-3.02-1.44-6.04-2.85-9.16-4.05-.04-.39-.08-.79-.12-1.18,3.91,1.18,7.48,3.19,11.28,4.63.6.23,1.2.45,1.8.67,1.09.57,2.17,1.17,3.29,1.69.72.33.87.81.62,1.49Z"/>
      <path class="cls-10" d="M196.21,160.95c.84-.21,1.67-.43,2.52-.62.71-.16,1.28-.02,1.46.81.22.97-.27,1.47-1.15,1.55-2.89.26-5.76,1-8.7.56.02-.7.05-1.41.07-2.11.39,0,.79-.02,1.18-.03,1.56.51,3.1.67,4.61-.16Z"/>
      <path class="cls-7" d="M199.43,154.73c-.11-1.92.4-3.83-.01-5.75,1.32-.27,2.65-.54,3.97-.8-.15,1.98-.98,3.9-.59,5.94-1.09.38-2.14.97-3.37.61Z"/>
      <path class="cls-9" d="M118.58,121.95c.41,1.96.82,3.92,1.23,5.88-2.15-.23-3.01-2.26-4.57-3.3-.14-.21-.28-.41-.42-.62-.05-1.08-.1-2.15-.15-3.23,1.58-.43,2.43,1.37,3.91,1.27Z"/>
      <path class="cls-7" d="M131.61,151.06c1.51.58,3.05,1.1,4.53,1.77,1.55.7,1.86,1.62,1.26,3.08-.3.72-.77,1.05-1.51.72-.98-.44-1.93-.95-2.89-1.42-.26-1.45-1.39-2.61-1.39-4.15Z"/>
      <path class="cls-2" d="M190.38,164.95c-.03.79-.06,1.57-.09,2.36-2.33.42-4.51-.68-6.8-.67-.78,0-1.14-.54-1.07-1.32.08-.92.63-1.57,1.5-1.23,2.1.83,4.34.39,6.46.87Z"/>
      <path class="cls-2" d="M184.58,158.27c4.8.09,9.57.84,14.37.1-4.82,2.34-9.62,1.87-14.37-.1Z"/>
      <path class="cls-10" d="M186.45,118.54c-1.05.19-1.36.89-1.36,1.87,0,.75-.08,1.51-.13,2.26-1.1-.07-2.21-.13-3.31-.2.11-1.8-.41-3.7.88-5.29,1.42.12,2.7.64,3.91,1.37Z"/>
      <path class="cls-1" d="M129.61,141.07c.46,2.69,1.41,5.3,1.39,8.07-1.18-.15-1.9-.69-2.14-1.97-.46-2.52-1.07-5-1.62-7.5.62.21,1.23.42,1.85.63l.52.78Z"/>
      <path class="cls-2" d="M190.42,161.14c-.02.7-.05,1.41-.07,2.11-1.99.35-3.83-.64-5.79-.63-.79,0-1.06-.67-.95-1.4.12-.77.67-1.23,1.38-.94,1.76.71,3.68.23,5.44.86Z"/>
      <path class="cls-9" d="M181.07,148.24c.43,1.99.85,3.98,1.28,5.97-1.52.06-2.46-.62-2.78-2.14-.18-.84-.42-1.68-.57-2.52-.1-.6-.59-1.36.05-1.8.71-.49,1.44-.07,2.03.5Z"/>
      <path class="cls-5" d="M29.56,27.86c-1.93-.34-3.66-1.51-5.71-1.32-.07-.65-.14-1.31-.2-1.96,2.03-1.74,3.61.26,5.33.74,1.29.36.57,1.64.59,2.54Z"/>
      <path class="cls-9" d="M24.89,51.03c.46-.58.84-.31,1.33.03,1.76,1.22,3.13,2.94,5.09,3.89.01.36.02.72.04,1.08-.35.04-.69.08-1.04.12-1.35-1.04-2.7-2.06-4.03-3.12-.66-.52-1.42-1-1.39-2.01Z"/>
      <path class="cls-4" d="M198.54,113.97c.46,3.09.11,6.21.24,9.31-.41-.22-.83-.45-1.24-.67-.26-2.84-.32-5.69-.08-8.54.36-.03.72-.07,1.09-.1Z"/>
      <path class="cls-7" d="M198.2,167.18c-.04-.87-.07-1.75-.11-2.62.48-.53,1.14-.48,1.77-.53,1.06-.08,1.09.82,1.33,1.47.3.8-.11,1.2-.89,1.25-.73.04-1.31.77-2.1.44Z"/>
      <path class="cls-7" d="M185.73,149.68c-.02-.22-.04-.44-.07-.67,4.41.27,8.81.14,13.22-.05-1.18.83-2.58.58-3.88.78-3.09-.02-6.18-.04-9.27-.06Z"/>
      <path class="cls-4" d="M107.93,56.8c-.32,1.15-.64,2.29-.96,3.44-.48.58-.18,1.5-.87,1.99-.23-.26-.46-.51-.69-.77-.16-1.71.38-3.22,1.28-4.63.41,0,.83-.01,1.24-.02Z"/>
      <path class="cls-1" d="M202.79,154.11c-.38-2.04.44-3.95.59-5.94.43-.25,1.26-.74,1.25-.11-.03,2.15.13,4.45-1.84,6.05Z"/>
      <path class="cls-1" d="M92.42,113.52c.27.15.76.28.79.46.31,2.28.57,4.58.8,6.87.01.11-.29.26-.44.39-1.32-2.44-.72-5.16-1.15-7.72Z"/>
      <path class="cls-7" d="M129.09,140.3c-.62-.21-1.23-.42-1.85-.63-.12-1.24-1.02-2.34-.75-3.67.96-.13,1.48.38,1.99.94.2,1.12.41,2.24.61,3.36Z"/>
      <path class="cls-1" d="M131.61,151.06c0,1.54,1.12,2.7,1.39,4.15-2.19-.79-2.93-2.54-3.27-4.62.86-.3,1.3.31,1.88.47Z"/>
      <path class="cls-1" d="M186.39,88.44c.85.5.59,1.27.43,1.98-.35,1.55-.73,3.09-1.09,4.63-.88.07-1.11-.35-.88-1.15.52-1.82,1.03-3.65,1.54-5.47Z"/>
      <path class="cls-9" d="M199.58,170.77c-.84-.48-.85-1.26-.74-2.08.1-.04.2-.09.31-.11.92-.12,2.16-1.36,2.54.57.35,1.78-1.11,1.46-2.11,1.62Z"/>
      <path class="cls-3" d="M23.64,24.58c.07.65.14,1.31.2,1.96-.09.23-.19.46-.28.69-.35,0-.71,0-1.07,0-.09-.92-.18-1.84.37-2.67.26,0,.52.02.78.03Z"/>
      <path class="cls-2" d="M196.21,160.95c-1.51.83-3.06.67-4.61.16,1.53-.41,3.07-.35,4.61-.16Z"/>
      <path class="cls-4" d="M200.81,125.11c-1.08.04-2.25.52-3.13-.56,1.07.06,2.2-.28,3.13.56Z"/>
      <path class="cls-1" d="M194.06,72.55c.72.34,1,.76.23,1.36-.44-.09-.69-.39-.86-.77.12-.29.24-.58.63-.59Z"/>
      <path class="cls-4" d="M204.72,124.58c-.21.21-.43.41-.64.62-.65-.05-1.31-.11-1.96-.16.78-.66,1.7-.48,2.6-.46Z"/>
      <path class="cls-3" d="M114.41,118.03c.01.64.02,1.29.03,1.93-.67-.63-.68-1.28-.03-1.93Z"/>
      <path class="cls-3" d="M32.87,56.17c.01.65.03,1.31.04,1.96-.78-.64-.78-1.29-.04-1.96Z"/>
      <path class="cls-9" d="M12.39,30.85c.67.64.86,1.44.77,2.33-.99-.53-.74-1.48-.77-2.33Z"/>
      <path class="cls-10" d="M30.32,56.16c.35-.04.69-.08,1.04-.12-.25.81-.28.81-1.04.12Z"/>
      <path class="cls-3" d="M34.41,51.95c.4.29.99.51.76,1.14-.22.6-.62.25-.95.03.06-.39.13-.78.19-1.17Z"/>
      <path class="cls-7" d="M113.03,119.34c-.3-.29-.35-.63-.18-1,.27.3.32.63.18,1Z"/>
      <path class="cls-9" d="M188.76,119.39l.16.25s-.14.26-.14.26c-.19-.16-.2-.33-.02-.5Z"/>
      <path class="cls-4" d="M198.8,123.31c.23.08.46.17.69.25-.34.22-.56.1-.69-.25Z"/>
      <path class="cls-7" d="M114.82,123.91c.14.21.28.41.42.62-.32-.08-.53-.24-.42-.62Z"/>
      <path class="cls-1" d="M201.44,125.25c0,.22-.02.45-.03.67-.21-.21-.42-.42-.63-.63.22-.02.44-.03.66-.05Z"/>
      <path class="cls-7" d="M8.74,12.02c.35.27.47.56.09.9-.28-.27-.3-.57-.09-.9Z"/>
      <path class="cls-4" d="M198.79,104.85c-.13.2-.27.4-.4.59-.1-.36.07-.53.4-.59Z"/>
      <path class="cls-4" d="M204.1,104.22c-.17.27-.39.45-.74.36.25-.12.49-.24.74-.36Z"/>
      <path class="cls-7" d="M254.49,152.75c.74-5.68,1.15-11.37.42-17.09-.11-.85,0-1.72,0-2.58,3.46.16,6.65-1.07,9.89-1.97,5.76-1.6,11.39-3.55,16.67-6.92-1.79-1.02-3.39-1.94-4.99-2.86-2.88-1.98-4.35-5.03-6.03-7.93.22-.37.51-.65.98-.66.8.48,1.04,1.38,1.52,2.1,5.41,8.07,16.5,10.28,24.61,4.95,4.72-3.11,7.02-7.63,7.99-13,1.21.05,1.88-.96,2.81-1.44.94-.49,1.71-1.34,2.9-1.22.44,1.04.23,2.13.23,3.2,0,3.13-.03,6.25-.04,9.38-.32,2.87-.64,5.74-.96,8.61-1.39.16-2.42.94-3.35,1.9-.61.64-1.27,1.22-2.11,1.53-3.73,1.33-7.14,3.31-10.68,5.03-1.01.49-2.03.8-3.15.75-.31-1.12-.61-2.24-.92-3.36.15-1.84-.74-2.38-2.41-1.89-.63.19-1.24.42-1.85.67-7.86,3.27-15.71,6.58-23.59,9.81-1.3.53-1.83,1.3-1.89,2.69-.1,2.62-.36,5.23-.55,7.85-1.3.07-2.07,1.14-3.12,1.68-.76.4-1.38,1.1-2.37.79Z"/>
      <path class="cls-1" d="M251.54,104.2c-1.38-5.46-2.76-10.92-4.15-16.38,5.52-.91,11.04-1.81,16.57-2.72.47.77.56,1.64.69,2.51.54,3.4.56,3.43,3.82,2.12,13.15-5.29,26.02-11.22,39.03-16.85.95-.41,1.84-1.28,3.14-.82.2,2.79.83,5.57.63,8.43-.52-.41-.72-1.12-1.79-.5-3.37,1.95-6.9,3.6-10.5,5.12-1.66.7-3.48,1.24-4.75,2.69-.75-.14-1.5-.27-2.24-.43-7.92-1.7-15.31,1.42-19.53,8.18-1.18,1.88-1.51,4.08-2.52,6.01-1.18-.19-2.16.59-3.29.66-.32-1.02.73-2.03.11-3.14-5.3,1.27-10.19,3.4-15.21,5.12Z"/>
      <path class="cls-5" d="M264.72,79.88c11.35-4.49,22.7-8.96,34.04-13.47,7.4-2.94,14.77-5.95,22.16-8.91,1.05-.42,2.02-1.26,3.18.18.42.51.97-.34.58-1.08.21-.34.42-.68.64-1.02,1.26.02,2.28-.69,3.38-1.13,23.2-9.19,46.41-18.39,69.62-27.57.39-.15.84-.17,1.26-.26.22.2.43.4.65.6,0,0-.05-.04-.05-.04-.03.66-.06,1.32-.1,1.97-5.43,1.96-10.77,4.14-16.06,6.46-5.08,2.23-10.34,4.04-15.48,6.15-8.89,3.66-17.72,7.42-26.6,11.12-5.34,2.22-10.71,4.38-16.06,6.57-.14-.28-.29-.57-.43-.85-.22-.44-.28-1.11-1-.93-.74.19-.49.82-.41,1.3.18,1.04.41,2.07.63,3.11-1.16-1.33-2.4-1.51-4.05-.69-2.63,1.29-5.38,2.35-8.09,3.48-6.75,2.81-13.49,5.65-20.26,8.41-8.88,3.63-17.79,7.19-26.69,10.78-.22-1.4-1.19-2.65-.86-4.17Z"/>
      <path class="cls-3" d="M264.72,79.88c-.33,1.52.64,2.77.86,4.17.22,1.6.44,3.19.7,5.04,1.18-.45,2.2-.79,3.18-1.22,15.12-6.57,30.24-13.15,45.36-19.73,3-1.31,5.99-2.65,8.98-3.99.92-.41,1.97-.81.87-2.08-.21-1.04-.45-2.07-.63-3.11-.08-.48-.34-1.11.41-1.3.72-.18.78.49,1,.93.14.28.29.57.43.85,0,1.17-.12,2.38.84,3.33,7.12-3.07,14.14-6.08,21.13-9.14,14.1-6.17,28.19-12.37,42.29-18.55,2.8-1.22,5.62-2.4,8.44-3.56,1.1-.45,2-.96,1.49-2.38.03-.66.06-1.32.1-1.97,1.14-1.2,1.29-.19,1.5.67-.03.32-.13.66-.08.97.42,2.36-.69,3.45-2.86,4.3-5.15,2.02-10.19,4.34-15.26,6.56-8.25,3.61-16.5,7.24-24.75,10.85-1.63.25-1.36,1.51-1.23,2.54.87,7.07.72,14.19,1,21.3-.41,1.36-.46,2.69.11,4.42,6.32-4.46,12.34-8.77,18.44-12.98,6.12-4.22,11.86-9.05,18.87-12.79-.26,2.04-1.55,2.39-2.46,3.04-8.55,6.09-17.08,12.21-25.71,18.19-5.84,4.05-11.43,8.46-17.51,12.16,0-.41,0-.82,0-1.23,1.43-1.12,2.74-2.43,4.3-3.31,1.97-1.11,2.66-2.6,2.37-4.73-.09-.63-.09-1.28-.14-1.92.17-3.3.2-6.59-.1-9.88.19-2.45.28-4.89-.29-7.3-.1-2.04-.19-4.09-.28-6-.67-.34-1.05-.06-1.44.11-12.48,5.48-24.97,10.94-37.43,16.47-1.73.77-3.65,1.26-5.03,2.71-.31,2.95.44,5.83.62,8.75.45,7.59.3,15.19.58,22.78-.37,1.77-.15,3.56-.08,5.34-.25,2.83-.5,5.67-.74,8.5-.37,0-.75,0-1.12,0,.02-3.13.04-6.25.04-9.38,0-1.07.22-2.16-.23-3.2.61-4.14.34-8.29.09-12.44.32-3.74.11-7.47-.08-11.2.2-2.86-.43-5.64-.63-8.43-1.3-.46-2.19.41-3.14.82-13,5.63-25.88,11.56-39.03,16.85-3.26,1.31-3.28,1.29-3.82-2.12-.14-.86-.22-1.74-.69-2.51.23-1.59-.56-3.01-.77-4.52.51-.23,1.02-.46,1.53-.7Z"/>
      <path class="cls-1" d="M237.66,147.58c-2.21.06-4.46.4-6.56-.67.32-.71.3-1.39.21-2.19-.72-6.47-1.5-12.93-1.52-19.45,1.32-.37,2.77.06,4.02-.68,1.39.11,1.91-.54,1.92-1.92.06-7.04-.16-14.08.57-21.11.28-2.76.03-2.78-2.63-3.84,2.78-.09,5.56-.19,8.33-.28.26.06.53.11.79.17.99,1.91.77,4.06,1.09,6.09.58,3.65,1.66,7.23,1.55,10.97-1.52.4-2.55,1.2-2.37,2.96,0,.17-.07.3-.22.38-.09.05-.2.08-.26.15-.15.19-.1.37.11.51-.03,6.78.31,13.57,0,20.35-2.05-.9-3.59.31-5.3,1.14-1.58.77-1.8,1.93-1.6,3.44.21,1.53,1.38,2.59,1.85,3.99Z"/>
      <path class="cls-7" d="M350.23,86.42c6.08-3.7,11.67-8.11,17.51-12.16,8.63-5.98,17.16-12.11,25.71-18.19.91-.65,2.2-1,2.46-3.04-7.02,3.74-12.75,8.56-18.87,12.79-6.1,4.21-12.12,8.52-18.44,12.98-.57-1.73-.52-3.06-.11-4.42.92-.18.85-1.01,1.09-1.64,1.03-.06,1.83-.6,2.67-1.14,11.24-7.16,22.45-14.35,33.77-21.38,3.7-2.3,7.21-4.93,11.26-6.64.17,2.28-.53,4.48-.63,6.73-.68.04-1.12.49-1.65.83-1.77,1.11-3.03,2.9-5.02,3.7-1.05-.83-1.47-.15-1.79.74-15.55,12.25-30.98,24.67-46.83,36.66-1.03-1.89.19-3.73-1.07-5.11-.02-.23-.04-.46-.05-.69l.02-.02ZM398.94,50.85c-.62-.1-1.08.16-1.42.66-.63.27-1.35.76-1.04,1.41.39.82,1.11.11,1.68-.08.1-.03.18-.13.26-.19.54.04.81-.19.78-.74.41-.47.43-.85-.26-1.06Z"/>
      <path class="cls-1" d="M407.27,43.58c-4.05,1.71-7.56,4.35-11.26,6.64-11.32,7.03-22.53,14.22-33.77,21.38-.84.54-1.64,1.08-2.67,1.14-.05-2.51-.09-5.02-.17-7.54-.04-1.23.46-2,1.56-2.61,4.19-2.36,8.3-4.83,12.48-7.2,6.83-3.87,13.58-7.88,20.56-11.46,4.46-2.29,8.58-5.25,13.38-6.87.24,2.18.18,4.35-.12,6.52Z"/>
      <path class="cls-7" d="M312.56,116.7c.25-2.83.5-5.67.74-8.5,1.21-1.69.55-3.58.59-5.39.11-.7.53-1.23.94-1.77,1.32-.27,2.43-1,3.53-1.7,8.93-5.71,17.81-11.49,26.76-17.17,2.47-1.57,4.78-3.45,7.67-4.3.62,0,1.44.16,1.35-.8-.06-.68-.79-.5-1.3-.54,1.03-1.25,2.85-.17,3.92-1.3.04.64.05,1.28.14,1.92.29,2.13-.4,3.62-2.37,4.73-1.56.88-2.88,2.19-4.3,3.31-.95.53-1.95,1-2.64,1.89-10,6.45-19.35,13.8-29.03,20.69-1.04.74-1.24,1.65-1.3,2.79-.18,3.16-.44,6.31-.67,9.46-1.68-.11-2.24,2.06-3.93,1.94-.03-1.75-.06-3.51-.09-5.26Z"/>
      <path class="cls-1" d="M358.72,50.54c8.25-3.62,16.5-7.24,24.75-10.85,5.07-2.22,10.11-4.54,15.26-6.56,2.18-.85,3.28-1.94,2.86-4.3-.05-.31.05-.65.08-.97,1.9-.44,3.8-.88,5.71-1.31.33,2.63.44,5.26.14,7.91-.9-.07-1.71.2-2.52.57-6.12,2.86-12.35,5.52-18.35,8.6-6.35,3.26-12.75,6.43-19.2,9.48-2.71,1.28-5.48,2.42-8.73,3.85v-6.42Z"/>
      <path class="cls-5" d="M358.72,50.54v6.42c3.25-1.43,6.02-2.57,8.73-3.85,6.45-3.05,12.85-6.22,19.2-9.48,6.01-3.08,12.23-5.74,18.35-8.6.81-.38,1.62-.65,2.52-.57.2.88.12,1.75-.14,2.61-4.8,1.62-8.92,4.58-13.38,6.87-6.97,3.58-13.73,7.59-20.56,11.46-4.18,2.37-8.3,4.84-12.48,7.2-1.09.61-1.6,1.38-1.56,2.61.08,2.51.11,5.02.17,7.54-.24.63-.17,1.46-1.09,1.64-.28-7.1-.13-14.22-1-21.3-.13-1.03-.4-2.29,1.23-2.54Z"/>
      <path class="cls-7" d="M347.59,88.36c1.37,2.09,1.32,4.34.76,6.65-8.34,5.74-16.07,12.28-24.12,18.41-1.69,1.29-3.05,3.17-5.44,3.33-.29-1.85-.05-3.7.05-5.54.07-1.35.57-2.46,1.79-3.3,2.87-1.98,5.66-4.07,8.48-6.12,6.16-4.48,12.33-8.95,18.49-13.43Z"/>
      <path class="cls-9" d="M270.45,113.4c1.68,2.9,3.15,5.95,6.03,7.93-.61,1.09-1.41,1.99-2.77,1.92-1.87-.09-3.63.57-5.42.85-1.61.26-3.55,0-4.87,1.41-.92.98-2.05,1.09-3.27,1.06-1.84-.05-3.68-.05-5.53-.07-.36-2.39-.71-4.79-1.07-7.18,1.7.29,3.19-.45,4.66-1.08,2.87-1.23,5.71-2.56,8.53-3.91,1.19-.56,2.35-1.1,3.71-.92Z"/>
      <path class="cls-9" d="M254.49,152.75c.99.31,1.6-.39,2.37-.79,1.05-.54,1.82-1.61,3.12-1.68.37.81.93.95,1.37.16.36-.64.46-1.43.67-2.15,1.33-.45,2.73-.77,3.99-1.38,6.76-3.26,13.66-6.22,20.28-9.76,1.04-.56,2.04-1.27,3.29-1.34l.2-.06c.13.75.19,1.52.39,2.25.37,1.41-.18,2.24-1.43,2.88-8.83,4.5-17.64,9.04-26.45,13.56-.18.09-.41.1-.8.19-.58-.82.14-2.06-.46-2.78-.79-.16-1.08.23-1.1.64-.15,3.24-2.18,4.71-5.32,5.48-.52-1.71-.92-3.42-.12-5.22Z"/>
      <path class="cls-9" d="M350.27,87.13c1.27,1.38.05,3.22,1.07,5.11,15.85-11.99,31.28-24.41,46.83-36.66.1.64.19,1.27.29,1.91-.12.21-.13.42-.02.63-2.88,3.02-6.28,5.42-9.5,8.04-12.66,10.31-25.36,20.56-38.05,30.84-.39.11-.78.22-1.17.33.44-3.22.53-6.45.17-9.68.15-.16.27-.33.37-.53Z"/>
      <path class="cls-9" d="M266.64,102.23c1.13-.08,2.11-.86,3.29-.66.03,2.28-.41,4.61.23,6.83.39,1.36-.24,1.76-1.21,2.16-.6.25-1.21.49-1.81.75-2.81,1.18-5.62,2.33-8.41,3.56-.56.25-1.62.53-.62,1.52-.31.65-.82,1-1.55,1.02.3-.51.5-1.01-.31-1.2-.88-.2-1.58.72-2.67.36-.71-2.7-1.28-5.53-1.39-8.45,4.99-1.53,9.88-3.31,14.45-5.88Z"/>
      <path class="cls-1" d="M242.89,95.56c-2.14.65-4.32.9-6.56.64-.16-4.67.59-9.44-1.54-14.72-2.05,5.09-2.6,9.75-3.2,14.39-1.06-.15-2.12-.29-3.19-.44-.3-1.57.44-3,.74-4.47.92-4.57,1.91-9.13,4.28-13.25.8-1.39,1.62-2.59,3.43-2.57,1.66,2.19,1.69,5.09,3.21,7.34.94,4.36,1.88,8.72,2.83,13.08Z"/>
      <path class="cls-1" d="M254.62,126.49c1.84.02,3.69.02,5.53.07,1.23.03,2.36-.08,3.27-1.06,1.32-1.4,3.25-1.15,4.87-1.41,1.79-.29,3.55-.95,5.42-.85,1.37.07,2.16-.82,2.77-1.92,1.6.92,3.2,1.84,4.99,2.86-5.28,3.37-10.91,5.31-16.67,6.92-3.24.9-6.43,2.13-9.89,1.97-.1-2.19-.19-4.39-.29-6.58Z"/>
      <path class="cls-9" d="M318.78,116.75c2.39-.16,3.75-2.04,5.44-3.33,8.05-6.13,15.78-12.67,24.12-18.41.68,2.72-.56,4.46-2.65,6.11-9.09,7.18-18.07,14.48-27.1,21.73-.22-.05-.44-.1-.65-.15,0,0-.02-.07-.02-.07.28-1.96.57-3.92.85-5.88Z"/>
      <path class="cls-7" d="M246.23,146.98c-1.09.58-2.08,1.04-2.08-.92,0-8.6-.03-17.19-.04-25.79,0-.64-.03-1.33.68-1.7.96.14,1.45.67,1.43,1.66-.01.82.02,1.64.03,2.47-.92,2.17-.77,2.5,1.25,2.5.74,0,1.53-.05,2.2-.31,1.19-.46,1.31-1.29.44-2.24-.65-1.95-.75-3.97-.68-6,.43-.27.92-.86,1.35-.19.33.53.45,1.23.51,1.87.86,8.15,1.64,16.3,1.59,24.5-.02,2.57-.03,2.57-2.75,3.43,0-3.01,0-6.02.01-9.03.55-.37,1.16-.79,1.02-1.51-.17-.87-.96-1.12-1.73-1.16-.98-.05-1.98,0-2.84.52-1.07.66-1.19,1.47-.17,2.32-.42,3.19-.12,6.39-.22,9.58ZM248.87,133.14c-.19.01.35.02.89-.07.7-.12,1.22-.52,1.22-1.28,0-.77-.53-1.17-1.25-1.2-1.07-.05-2.18-.28-3.19.29-.49.28-.92.68-.84,1.28.07.6.57.9,1.14.98.43.06.87.01,2.04.01ZM247.7,129.19c.84,0,1.27.03,1.7,0,.81-.08,1.54-.37,1.48-1.33-.06-.95-.81-1.18-1.62-1.23-.43-.02-.87-.03-1.3-.02-1.16.02-2.41.24-2.26,1.66.14,1.34,1.5.85,1.99.93Z"/>
      <path class="cls-10" d="M408.78,46.28c.12-3.96-.11-7.94.33-11.89.47.29.29,1.85,1.48.74,1.75-1.63,3.4-3.35,4.84-5.26,2.68.58,2.96.94,2.18,3.38-1.23,3.84-3.29,7.29-5.17,10.82-.7,1.33-1.85,2.45-3.66,2.21Z"/>
      <path class="cls-5" d="M263.19,80.58c.21,1.52,1,2.93.77,4.52-5.52.91-11.04,1.81-16.57,2.72-.78-1.41-1.2-2.93-1.54-4.71,5.82-.85,11.58-1.69,17.34-2.53Z"/>
      <path class="cls-9" d="M291.19,134.51c1.12.06,2.14-.26,3.15-.75,3.54-1.72,6.96-3.71,10.68-5.03.85-.3,1.5-.89,2.11-1.53.93-.96,1.96-1.74,3.35-1.9.57,3.02-.81,4.79-3.48,6.11-5.03,2.48-9.96,5.19-14.96,7.82-.91-1.11-.36-2.48-1.05-3.47.07-.42.13-.83.2-1.25Z"/>
      <path class="cls-7" d="M408.78,46.28c1.81.24,2.96-.88,3.66-2.21,1.87-3.53,3.94-6.99,5.17-10.82.78-2.44.5-2.8-2.18-3.38.03-1.36.94-2.37,1.46-3.52,1.32-2.91,2.78-5.78,3.01-9.05.11-1.63.8-3.07,1.44-4.53.39-.02.79-.05,1.18-.07-.77,8.6-2.31,17.06-5.2,25.22-1.67,4.72-4.46,8.71-8.39,11.87-.2-.11-.39-.21-.59-.32.15-1.06.29-2.12.44-3.18Z"/>
      <path class="cls-1" d="M419.9,17.29c-.23,3.28-1.69,6.14-3.01,9.05-.52,1.16-1.43,2.16-1.46,3.52-1.44,1.91-3.09,3.63-4.84,5.26-1.19,1.11-1.01-.44-1.48-.74-.02-1.7-.03-3.41-.05-5.11.38-.3.32-.57-.06-.82-.02-.86-.03-1.72-.05-2.59,3.71-1.23,6.81-3.24,8.92-6.64.48-.77.82-1.85,2.02-1.94Z"/>
      <path class="cls-3" d="M318.78,116.75c-.28,1.96-.57,3.92-.85,5.88-.46-.02-.91-.04-1.37-.05.01-.85.02-1.7.03-2.55.23-3.15.49-6.3.67-9.46.06-1.14.26-2.05,1.3-2.79,9.68-6.89,19.04-14.24,29.03-20.69,0,.43,0,.85,0,1.28-6.16,4.48-12.32,8.95-18.49,13.43-2.82,2.05-5.61,4.14-8.48,6.12-1.21.84-1.71,1.95-1.79,3.3-.1,1.84-.34,3.69-.05,5.54Z"/>
      <path class="cls-10" d="M229.77,123.23c-.22,0-.44.02-.65,0-3.85-.4-3.88-.4-3.8-4.3.1-4.77.77-9.51.56-14.34,1.46-.68,2.63.4,3.88.29-.18,3.44.42,6.92-.58,10.33-.17.59-.16,1.35.04,1.93.71,2,.47,4.06.55,6.11Z"/>
      <path class="cls-5" d="M233.68,97.72c2.65,1.05,2.91,1.08,2.63,3.84-.73,7.03-.51,14.07-.57,21.11-.01,1.38-.53,2.03-1.92,1.92.06-3.88.12-7.76.19-11.65.02-1.18.1-2.37.15-3.55.42-1.51.5-3.01-.07-4.51-.53-1.45-1.85-1.24-2.98-1.42,0-1.94-.01-3.88-.02-5.81.86.02,1.73.05,2.59.07Z"/>
      <path class="cls-7" d="M229.8,125.27c.02,6.52.79,12.99,1.52,19.45.09.8.11,1.48-.21,2.19-1.18.26-2.25-.06-3.29-.59-.01-1.31.15-2.65-.07-3.92-1.01-5.75-.46-11.54-.5-17.31.85.06,1.71.12,2.56.18Z"/>
      <path class="cls-5" d="M266.64,102.23c-4.56,2.58-9.45,4.35-14.45,5.88-.43-1.27-.79-2.55-.66-3.91,5.02-1.71,9.91-3.85,15.21-5.12.62,1.11-.43,2.13-.11,3.14Z"/>
      <path class="cls-7" d="M245.45,114.67c.1-3.74-.98-7.33-1.55-10.97-.32-2.03-.1-4.18-1.09-6.09.71-.08,1.5.12,2.02-.59.48,0,.95,0,1.43,0,.04,1.07-.11,2.2.15,3.21.89,3.43,1.57,6.89,2.02,10.41.17,1.36-.1,3.09,1.25,4.2-1.38.59-2.76,1.18-4.13,1.77-.03-.65-.06-1.3-.09-1.95Z"/>
      <path class="cls-7" d="M232.96,149.02c3.14.02,6.29.02,9.43.07,3.46.06,6.83-.43,10.22-1.99.24,2.05-.34,3.59-.69,5.15-.27,1.17-1.17,1.79-2.31,2.04-1.79.4-3.58.77-5.38,1.15-.2-4.97-1.13-5.9-5.8-5.77-.54.01-1.08.1-1.61.15-1.27-.35-2.7.09-3.85-.8Z"/>
      <path class="cls-5" d="M236.86,75.14c-1.81-.02-2.63,1.18-3.43,2.57-2.37,4.12-3.36,8.68-4.28,13.25-.29,1.47-1.03,2.9-.74,4.47-1,.16-1.47-.29-1.35-1.26.86-7.16,2.03-14.26,5.72-20.62.72-1.24,1.47-2.85,3.51-2.15-.11,1.29.36,2.5.57,3.75Z"/>
      <path class="cls-9" d="M237.66,147.58c-.46-1.4-1.64-2.46-1.85-3.99-.21-1.51.02-2.68,1.6-3.44,1.7-.83,3.25-2.03,5.3-1.14.04,2.17-.04,4.36.15,6.52.17,1.86-.66,2.29-2.26,2.16-.97-.08-1.95-.08-2.93-.11Z"/>
      <path class="cls-7" d="M229.77,123.23c-.08-2.04.16-4.1-.55-6.11-.21-.58-.22-1.33-.04-1.93,1-3.41.4-6.88.58-10.33q2.92.09,2.92,2.81c-.02,4.38-.02,8.76-.08,13.14-.03,2.53-.07,2.53-2.82,2.41Z"/>
      <path class="cls-5" d="M419.9,17.29c-1.2.09-1.54,1.17-2.02,1.94-2.12,3.4-5.22,5.41-8.92,6.64q-.41-2.9,1.97-4.2c3.26-1.79,5.43-4.68,7.6-7.56.98-1.3,1.92-2.63,2.88-3.95,1.05.9-.44,1.72-.07,2.6-.64,1.46-1.33,2.9-1.44,4.53Z"/>
      <path class="cls-5" d="M231.6,95.87c.59-4.65,1.14-9.3,3.2-14.39,2.13,5.28,1.37,10.05,1.54,14.72-1.59.06-3.2.34-4.74-.33Z"/>
      <path class="cls-10" d="M299.85,149s.04,0,.04,0c-2.35-1.85-.13-4.21-.63-6.5-1.58.08-2.78,1.45-4.33,1.15.13-1.39-1.48-1.02-1.89-1.87,3.19-1.71,6.32-3.56,9.81-4.65-.04.83-.08,1.65-.12,2.48-.78.93-1.07,2-1.32,3.19-.44,2.08-.37,4.31-1.55,6.21Z"/>
      <path class="cls-9" d="M236.86,75.14c-.21-1.25-.68-2.45-.57-3.75,1.98,1.01,2.72,3.01,3.71,4.76,3.14,5.52,4.79,11.62,6.68,17.63.34,1.09-.15,1.37-1.1,1.35-.74-3.38-1.58-6.73-2.74-9.99-.47-1.31-.89-2.77-2.77-2.68-1.52-2.25-1.55-5.15-3.21-7.34Z"/>
      <path class="cls-2" d="M233.78,164.66c2.29.01,4.58.05,6.87.04,2.06-.01,4.13.27,6.13-.55.98-.4,1.71.07,1.96,1.1.18.75-.12,1.3-.93,1.39-4.7.5-9.35,2.36-14.15.63.04-.87.08-1.73.12-2.6Z"/>
      <path class="cls-1" d="M227.24,125.09c.04,5.77-.51,11.55.5,17.31.22,1.27.06,2.61.07,3.92-1.35.21-1.75-.66-1.83-1.74-.46-6.22-1.04-12.44-.92-18.69.04-2.04,1.17-1.29,2.17-.8Z"/>
      <path class="cls-9" d="M236.81,149.82c.54-.05,1.07-.14,1.61-.15,4.68-.12,5.6.8,5.8,5.77-1.98.17-3.95.5-5.93.02-.89-.69-1.49-1.48-1.38-2.73.08-.96-.06-1.94-.1-2.92Z"/>
      <path class="cls-10" d="M246.23,146.98c.11-3.19-.19-6.4.22-9.58,1.24-.05,2.48-.11,3.73-.16,0,3.01,0,6.02-.01,9.03-1.26.52-2.57.77-3.94.71Z"/>
      <path class="cls-2" d="M233.66,160.88c2.08,0,4.16.03,6.24-.03,2.07-.06,4.16.22,6.18-.57.68-.27,1.31-.05,1.5.78.17.74-.05,1.44-.82,1.5-4.32.34-8.62,1.75-12.98.24-.04-.64-.08-1.28-.11-1.92Z"/>
      <path class="cls-7" d="M240.07,82.48c1.88-.1,2.3,1.36,2.77,2.68,1.16,3.26,2,6.61,2.74,9.99-.81.66-1.76.47-2.69.42-.94-4.36-1.88-8.72-2.83-13.08Z"/>
      <path class="cls-10" d="M233,168.75c3.6.19,7.19.39,10.79.58.65.03,1.44-.03,1.57.81.18,1.19-.87,1.01-1.54,1.18-4.12,1.05-8.19.89-12.2-.55,1.21-.16,1.55-.91,1.38-2.02Z"/>
      <path class="cls-7" d="M294.93,143.65c1.55.3,2.75-1.07,4.33-1.15.5,2.29-1.71,4.65.63,6.5-1.59,1.53-3.74,1.86-5.68,2.64.06-2.68.96-5.28.71-7.98Z"/>
      <path class="cls-5" d="M236.81,149.82c.04.97.19,1.95.1,2.92-.11,1.25.49,2.04,1.38,2.73-2.01.12-4.03.25-5.94-.63-.77-1.88-.56-3.85-.5-5.81.37,0,.73,0,1.1,0,1.15.89,2.59.44,3.85.8Z"/>
      <path class="cls-9" d="M249.67,114.85c-1.35-1.11-1.07-2.84-1.25-4.2-.45-3.53-1.13-6.98-2.02-10.41-.26-1.02-.11-2.14-.15-3.21.77-.15,1.19.13,1.38.94,1.22,5.2,2.27,10.44,2.92,15.74.08.68-.3.99-.88,1.15Z"/>
      <path class="cls-2" d="M294.93,143.65c.24,2.7-.65,5.31-.71,7.98-.46.25-1.02.66-1.27-.15-.71-2.35-1.39-4.72-1.99-7.1-.43-1.7.75-2.25,2.09-2.61.41.85,2.02.48,1.89,1.87Z"/>
      <path class="cls-1" d="M256.57,117.4c.73-.01,1.23-.37,1.55-1.02,1.26.08,2.22-.72,3.29-1.15,2.8-1.11,5.58-2.27,8.32-3.49,1.18-.53,1.57-.07,1.7,1-.47.01-.75.29-.98.66-1.36-.18-2.52.36-3.71.92-2.83,1.34-5.66,2.67-8.53,3.91-1.47.63-2.96,1.37-4.66,1.08.54-1.36,2.01-1.27,3.01-1.91Z"/>
      <path class="cls-7" d="M299.57,154.43c-.87,1.22-2.28,1.53-3.53,2.12-.86.41-1.67.54-2.02-.68-.3-1.03-.82-2.17.56-2.78,1.56-.69,3.08-1.56,4.84-1.69.05,1.01.1,2.02.14,3.02Z"/>
      <path class="cls-10" d="M335.78,120.64c-1.23-2.19-.91-4.6-.71-6.9.13-1.49,1.53-2.23,2.96-2.6.05,2.92-.58,5.75-1.07,8.6-.11.62-.59.85-1.17.9Z"/>
      <path class="cls-9" d="M316.59,120.02c-.01.85-.02,1.7-.03,2.55-.79,2.58-2.28,4.49-5.02,5.19.42-1.02.53-2.07.41-3.16.11-.43.23-.87.34-1.3.3-.23.39-.54.3-.9-.06-.16-.04-.3.07-.43,1.69.12,2.25-2.05,3.93-1.94Z"/>
      <path class="cls-9" d="M231.1,97.64c0,1.94.01,3.88.02,5.81-1.18.22-2.26-.13-3.32-.59,0-1.98.02-3.97.02-5.95,1.16-.06,2.23.29,3.28.72Z"/>
      <path class="cls-2" d="M232.18,158.18c5.01.98,9.98.46,14.97-.67.02,1.63-.98,1.71-1.75,1.85-5.2.99-10.56.57-13.22-1.18Z"/>
      <path class="cls-10" d="M249.47,116.65c-.06,2.03.03,4.05.68,6-1.3.02-2.6.03-3.9.05-.01-.82-.04-1.64-.03-2.47.01-.99-.48-1.52-1.43-1.66,1.56-.64,3.12-1.28,4.68-1.92Z"/>
      <path class="cls-7" d="M231.86,149.03c-.06,1.96-.27,3.92.5,5.81-1.17.11-2.28-.06-3.28-.72-.3-1.9-.85-3.77-.7-5.73,1.26-.29,2.33.41,3.49.64Z"/>
      <path class="cls-5" d="M407.38,26.54c-1.9.44-3.8.88-5.71,1.31-.21-.87-.36-1.88-1.5-.67,0,0,.05.04.05.04,0,0,.06.09.06.09,1.5-.7,2.19-2.35,4.01-2.88,2.97-.86,2.91-1.09,3.08,2.11Z"/>
      <path class="cls-9" d="M335.78,120.64c.59-.05,1.07-.27,1.17-.9.49-2.85,1.13-5.68,1.07-8.6.16-.5.38-.96.98-1.07l-.04-.06c.54,3.39.04,6.73-.57,10.05-.24,1.31-1.03,2.37-2.4,2.86-.37-.76-.22-1.53-.22-2.29Z"/>
      <path class="cls-1" d="M299.85,149c1.18-1.9,1.11-4.12,1.55-6.21.25-1.19.55-2.26,1.32-3.19.42.05.84.09,1.26.14-.46,2.43-.92,4.86-1.38,7.29-.29,1.54-1.17,2.25-2.75,1.97Z"/>
      <path class="cls-9" d="M399.96,54.84c1.99-.79,3.25-2.59,5.02-3.7.54-.34.98-.79,1.65-.83.13.95-.24,1.74-.97,2.27-1.81,1.32-3.33,3.04-5.39,4.04-.01-.21-.11-.36-.29-.46-.01-.44-.02-.88-.03-1.32Z"/>
      <path class="cls-1" d="M228.37,148.39c-.15,1.96.4,3.83.7,5.73-1.11.13-1.56-.63-1.77-1.49-.37-1.55-.62-3.13-.91-4.65.92-.36,1.39.24,1.98.41Z"/>
      <path class="cls-7" d="M233.78,164.66c-.04.87-.08,1.73-.12,2.6-.78.1-1.51-.06-2.25-.28-.88-.27-1.64-.41-1.34-1.71.32-1.38,1.11-1.43,2.17-1.14.52.14,1.03.36,1.54.54Z"/>
      <path class="cls-1" d="M227.81,96.92c0,1.98-.02,3.97-.02,5.95-.93.14-1.89.14-1.79-1.15.12-1.62.34-3.24.68-4.82.09-.43.75-.15,1.14.01Z"/>
      <path class="cls-9" d="M233,168.75c.17,1.11-.17,1.86-1.38,2.02-.69-.17-1.53-.01-1.84-.97-.38-1.17.14-1.82,1.37-1.59.63.12,1.23.36,1.85.54Z"/>
      <path class="cls-3" d="M291.19,134.51c-.07.42-.13.83-.2,1.25-.4,0-.8-.01-1.21-.02,0,0-.2.06-.2.06.18-1.59-.84-3.04-.58-4.64.42,0,.84,0,1.26,0,.31,1.12.61,2.24.92,3.36Z"/>
      <path class="cls-1" d="M299.57,154.43c-.05-1.01-.1-2.02-.14-3.02.54-.56,1.15-.97,2.16-1.02.12,1.78-.48,3.12-2.01,4.04Z"/>
      <path class="cls-9" d="M303.99,139.74c-.42-.05-.84-.09-1.26-.14.04-.83.08-1.66.12-2.48,0,0,.03-.03.03-.03.38-.02.54-.29.65-.6.45-.15,1.2-1.19,1.21.19,0,1.02-.48,2.05-.75,3.07Z"/>
      <path class="cls-10" d="M233.66,160.88c.04.64.08,1.28.11,1.92-.63-.08-1.29-.07-1.88-.26-.88-.28-1.1-1.01-.74-1.79.42-.9,1.01-.35,1.57-.08.28.13.62.14.93.2Z"/>
      <path class="cls-9" d="M245.45,114.67c.03.65.06,1.3.09,1.95-.82.34-1.64.67-2.45,1.01-.18-1.76.85-2.55,2.37-2.96Z"/>
      <path class="cls-1" d="M421.33,12.76c-.36-.88,1.12-1.71.07-2.6.27-.52.54-1.04,1.1-2.12.33,2.01.2,3.33,0,4.66-.39.02-.79.05-1.18.07Z"/>
      <path class="cls-1" d="M234.09,104.88c.57,1.49.5,3,.07,4.51-.39-1.5-.35-3-.07-4.51Z"/>
      <path class="cls-3" d="M311.94,124.6c.12,1.09.01,2.15-.41,3.16-.19-1.1-.48-2.21.41-3.16Z"/>
      <path class="cls-9" d="M244.83,97.02c-.52.71-1.31.51-2.02.59-.27-.06-.53-.11-.79-.17.86-.63,1.86-.4,2.81-.41Z"/>
      <path class="cls-9" d="M250.43,158.14c-.31-.48-.5-1.09.21-1.22.98-.18.86.61.78,1.24-.33,0-.66-.01-.99-.02Z"/>
      <path class="cls-6" d="M250.43,158.14c.33,0,.66.01.99.02.09.31.2.61.26.92.07.37.4.86-.19,1.03-.53.15-.62-.36-.73-.74-.11-.41-.22-.82-.32-1.23Z"/>
      <path class="cls-3" d="M349.72,97.34c.39-.11.78-.22,1.17-.33-.28.49-.61.82-1.17.33Z"/>
      <path class="cls-3" d="M350.27,87.13c-.1.19-.22.37-.37.53-.46-.56-.28-.94.32-1.22.02.23.04.46.05.69Z"/>
      <path class="cls-9" d="M242.71,118.66c-.21-.14-.26-.32-.11-.51.06-.07.17-.1.26-.15-.05.22-.1.44-.16.66Z"/>
      <path class="cls-7" d="M312.59,122.39c.09.36,0,.67-.3.9-.09-.37-.01-.67.3-.9Z"/>
      <path class="cls-3" d="M398.44,58.13c-.1-.22-.09-.43.02-.63.06.15.14.3.17.45,0,.04-.13.12-.2.18Z"/>
      <path class="cls-3" d="M317.94,122.7c.22.05.44.1.65.15-.3.3-.51.19-.65-.15Z"/>
      <path class="cls-7" d="M400,56.15c.18.1.27.26.29.46-.46.07-.48-.13-.29-.46Z"/>
      <path class="cls-1" d="M400.29,27.31s-.06-.09-.06-.09c-.22-.2-.43-.4-.65-.6.45.01.69.24.72.69Z"/>
      <path class="cls-10" d="M409,28.46c.38.25.43.52.06.82-.02-.27-.04-.54-.06-.82Z"/>
      <path class="cls-3" d="M325.32,55.58c-.21.34-.42.68-.64,1.02-.03-.49.14-.86.64-1.02Z"/>
      <path class="cls-9" d="M339,110.08c.37-.24-.18-.29.23-.13.12.05-.01.19-.26.08,0,0,.04.05.04.05Z"/>
      <path class="cls-10" d="M408.93,49.78c-.14.12-.3.37-.4.34-.37-.1-.33-.38-.19-.67.2.11.39.21.59.32Z"/>
      <path class="cls-10" d="M303.52,136.49c-.11.32-.26.58-.65.6.03-.4.28-.56.65-.6Z"/>
      <path class="cls-7" d="M42.81,57.48c.27-.64.69-1.23.65-1.97,4.82,2.96,9.6,6.01,14.48,8.87,4.6,2.7,8.73,6.15,13.62,8.39.2.67.55,1.15,1.35,1.06.29,1.49.21,2.96-.01,4.3-.71.36-1.04.03-1.39-.22-9.42-6.65-18.84-13.3-28.26-19.96-.17-.12-.3-.31-.44-.47Z"/>
      <path class="cls-5" d="M72.91,73.83c-.8.1-1.15-.38-1.35-1.06.45-2.38.09-4.8.26-7.19.1-1.48-.46-2.39-1.75-3.18-3.91-2.39-7.9-4.63-11.91-6.86-.81-.45-2.37-.46-1.77-2.16.67-1.88,1.94-2.64,3.71-2.09,3.15.98,5.91,2.8,8.9,4.13,1.2.54,2.34,1.75,3.85.7.2.37.4.73.6,1.1-.16,4.68-.32,9.36-.48,14.04-.07.07-.2.15-.19.21.03.18.11.34.18.51-.02.61-.04,1.23-.05,1.84Z"/>
      <path class="cls-5" d="M23.75,34.47c2.73.11,4.96,1.67,7.31,2.74,5.88,2.68,11.6,5.7,17.38,8.6.58.29,1.21.59,1.66,1.04.63.63.42,1.28-.46,1.35-2.07.18-4.11.22-6.06-.87-5.73-3.2-11.53-6.27-17.28-9.45-.78-.43-1.49-.91-2.42-.82-.26-.85-.27-1.72-.12-2.59Z"/>
      <path class="cls-8" d="M23.75,34.47c-.15.87-.14,1.74.12,2.59-.03.47-.06.95-.1,1.42-.72.48-1.19.29-1.33-.55-.12-.73-.18-1.48-.26-2.22,0-.62.02-1.25.02-1.87.27-1.36.37-2.71.03-4.07.09-.84.17-1.69.26-2.53.36,0,.71,0,1.07,0,.07,2.41.13,4.82.2,7.24Z"/>
      <path class="cls-8" d="M22.99,49.12c-.09-.71-.17-1.43-.26-2.14-.1-1.96-.24-3.92-.28-5.88-.02-.87.26-1.59,1.36-.89.04,1.39-.02,2.79.59,4.1-.03,1.37-.01,2.75-.09,4.11-.05.86-.58,1.02-1.32.69Z"/>
      <path class="cls-1" d="M128.45,95.03c-1.99,3.71-2.83,7.67-2.61,11.86-1.34-.14-2.37-.89-3.35-1.72-.76-.65-1.55-1.13-2.58-1.03-.29-4.37-.23-8.74-.01-13.11,3.03.95,5.66,2.77,8.55,4.01Z"/>
      <path class="cls-10" d="M133.28,119.59c3.48,1.79,7.03,3.36,11.08,3.06,1.49-.11,2.97-.39,4.46-.59.07,1.55-.53,2.51-2.21,2.52-3.56.02-7.15.33-10.52-1.27-1.59-.76-3.22-1.46-2.8-3.72Z"/>
      <path class="cls-1" d="M74.63,75.8c-.39-3.5-.3-6.99.04-10.48,1.34.49,2.73.87,3.67,2.07-.85-.04-1.53.14-1.55,1.18,0,.55.38.76.83.8.98.09,1.35-.5,1.41-1.38,1.59.17,2.83,1.1,4.15,1.86,4.82,2.8,9.63,5.63,14.45,8.42,5.77,3.34,11.54,6.67,17.33,9.98.92.52,1.64,1.12,1.6,2.26-.14,3.72,1.08,7.37.56,11.1-3.32-2.1-6.64-4.21-9.97-6.31-8.88-5.58-17.76-11.16-26.66-16.73-.54-.34-1.19-.51-1.79-.76-.21-1.49-1.19-1.47-2.3-1.16-.33-.83-1.05-.86-1.78-.88Z"/>
      <path class="cls-5" d="M78.34,67.39c-.93-1.2-2.33-1.59-3.67-2.07,0-.42.02-.85.03-1.27.63-.7.47-1.48.2-2.26-.15-1.01,0-1.99.22-2.97.62,0,1.25-.01,1.87-.02.11.78.48,1.28,1.34,1.29,3.2,1.38,6.44,2.68,9.6,4.15,8.59,4.01,17.15,8.1,25.72,12.15.88.42,1.83.71,2.73,1.08,1.05.43,1.38-.09,1.47-1.03.04-.42.08-.95.74-.5.11.29.21.58.32.87-.77,8.43-.54,16.89-.56,25.34-.78.68-1.1.31-1.23-.52.51-3.74-.71-7.38-.56-11.1.04-1.14-.68-1.74-1.6-2.26-5.79-3.31-11.56-6.64-17.33-9.98-4.82-2.8-9.63-5.62-14.45-8.42-1.32-.76-2.56-1.69-4.15-1.86-.23-.2-.46-.4-.69-.61Z"/>
      <path class="cls-3" d="M76.41,76.68c1.12-.31,2.09-.34,2.3,1.16q-1.84.82-2.3-1.16Z"/>
      <path class="cls-8" d="M112.57,108.9c.03-.36.06-.72.09-1.09.28.24.65.43.56.88-.08.41-.4.25-.65.21Z"/>
      <path class="cls-5" d="M128.45,95.03c-2.9-1.23-5.52-3.06-8.55-4.01-.11-3.71-.21-7.43.28-11.13.22,0,.47-.08.64,0,4.79,2.19,9.58,4.39,14.36,6.61.74.34,1.16.94,1.1,1.81-3.15,1.61-5.64,3.99-7.83,6.72Z"/>
      <path class="cls-1" d="M77,58.8c-.62,0-1.25.01-1.87.02-.13-2.3,0-4.57.7-6.97,5.61,2.4,11.12,4.71,16.6,7.09,8.4,3.66,16.8,7.34,25.16,11.08.81.36,2.44.2,1.97,1.96-.84.27-1.24.64-.31,1.32-.05.86-.09,1.72-.14,2.58-.17.03-.34.05-.5.06-.66-.46-.7.08-.74.5-.09.94-.42,1.46-1.47,1.03-.91-.37-1.85-.66-2.73-1.08-8.58-4.04-17.13-8.14-25.72-12.15-3.16-1.47-6.4-2.77-9.6-4.15.37-.51,1.08-1.07.57-1.67-.67-.78-1.36-.23-1.9.38Z"/>
      <path class="cls-1" d="M106.1,62.23c.69-.49.39-1.41.87-1.99,2.89.23,5.4,1.72,7.91,2.85,7.55,3.4,15.33,6.2,22.91,9.5,9.28,4.04,18.88,7.33,27.97,11.82-.25,1.49-.5,2.98-.8,4.79-3.12-1.32-6.02-2.51-8.89-3.77-15.89-6.97-31.78-13.95-47.66-20.97-.99-.44-2.56-.44-2.31-2.23Z"/>
      <path class="cls-1" d="M74.91,61.79c.27.78.43,1.56-.2,2.26-.19-.78-.28-1.55.2-2.26Z"/>
      <path class="cls-5" d="M119.24,73.3c-.93-.68-.53-1.05.31-1.32-.1.44-.21.88-.31,1.32Z"/>
      <path class="cls-1" d="M167.79,82.97c.13.35.06.64-.28.83-.14-.36-.02-.62.28-.83Z"/>
      <path class="cls-9" d="M118.6,75.95c.17-.01.34-.04.5-.06-.06.31-.12.62-.19.93-.11-.29-.21-.58-.32-.87Z"/>
      <path class="cls-7" d="M72.96,71.99c-.06-.17-.15-.34-.18-.51-.01-.06.12-.14.19-.21,0,.24,0,.48,0,.73Z"/>
      <path class="cls-8" d="M36.39,53.88c.19.26.2.58-.11.64-.21.04-.49-.21-.73-.34.28-.1.56-.2.84-.31Z"/>
      <path class="cls-3" d="M36.39,53.88c-.28.1-.56.2-.84.31-.11-.3-.1-.65.2-.76.29-.1.54.14.64.45Z"/>
      <path class="cls-1" d="M130.25,96.12c3.29-5.39,8.32-7.68,14.39-7.39,6.5.31,11.08,3.9,13.64,9.77,1.02,2.33,1.47,4.98,1,7.63-.58-.01-1.15-.02-1.73-.03-.03-.77-.05-1.53-.1-2.3-.56-8.22-7.7-13.97-15.85-12.87-4.47.6-7.61,3.08-10.07,6.66-.9-.07-1.17-.7-1.28-1.46Z"/>
      <path class="cls-7" d="M157.55,106.1c.58.01,1.15.02,1.73.03-.09,5.64-4.04,11.08-9.6,13.21-7.85,3.01-16.45-.12-20.2-7.34-.31-.59-.53-1.2-.51-1.87.54-.02,1.09-.05,1.63-.07.52.82.97,1.69,1.56,2.46,3.26,4.28,7.55,6.59,12.97,5.98,5.55-.62,9.35-3.81,11.45-8.96.45-1.1.65-2.29.97-3.44Z"/>
      <path class="cls-9" d="M130.6,110.06c-.54.02-1.09.05-1.63.07-2.28-4.91-1.54-9.55,1.27-14.01.12.76.38,1.39,1.28,1.46-2.13,4.02-2.29,8.19-.93,12.47Z"/>
      <path class="cls-3" d="M184.96,137.62c-1.35.07-2.61-.74-3.98-.38-.86-1.9-.71-2.49.8-2.74,1.21-.21,2.39-.06,3.34.83.87.81.33,1.56-.16,2.29Z"/>
      <path class="cls-8" d="M184.88,126.72c1.11,2.15.98,2.47-1.08,2.61-.54.04-1.09.02-1.63-.01-2.04-.12-2.11-.33-1.03-2.65,1.25.02,2.49.03,3.74.05Z"/>
      <path class="cls-3" d="M182.47,130.37c1-.04,1.72.14,2.37.58.49.32.83.73.76,1.31-.09.81-.75.99-1.42,1.02-.75.03-1.51,0-2.26-.05-.82-.04-1.52-.34-1.58-1.26-.06-.92.61-1.31,1.39-1.51.31-.08.64-.07.73-.08Z"/>
      <path class="cls-8" d="M181.65,122.47c1.1.07,2.21.13,3.31.2.62.86,1.48,1.72.1,2.66-1.54-.2-3.15.02-4.55-.9-.29-1.04.17-1.65,1.14-1.96Z"/>
      <path class="cls-10" d="M180.51,124.43c1.39.92,3.01.7,4.55.9-.06.46-.12.93-.18,1.39-1.25-.02-2.49-.03-3.74-.05-.21-.75-.42-1.49-.63-2.24Z"/>
      <path class="cls-7" d="M22.24,29.76c.34,1.36.24,2.72-.03,4.07-.89-1.31-.16-2.8-.46-4.17.17,0,.33.03.49.1Z"/>
      <path class="cls-3" d="M271.43,112.74c-.13-1.07-.52-1.53-1.7-1-2.75,1.23-5.53,2.38-8.32,3.49-1.08.43-2.04,1.23-3.29,1.15-1-.99.06-1.27.62-1.52,2.78-1.23,5.6-2.38,8.41-3.56.6-.25,1.21-.5,1.81-.75.97-.4,1.6-.8,1.21-2.16-.64-2.22-.2-4.55-.23-6.83,1.02-1.93,1.35-4.13,2.52-6.01,4.22-6.76,11.61-9.88,19.53-8.18.74.16,1.49.29,2.24.43,3.42,1.74,6.35,4.08,8.63,7.18,2.15,3.65,2.92,7.61,2.69,11.8-.97,5.37-3.27,9.9-7.99,13-8.1,5.33-19.19,3.12-24.61-4.95-.48-.71-.71-1.61-1.52-2.1ZM300.87,95.62c-.68-1.27-1.7-2.25-2.76-3.18-8.81-7.72-23.71-3.06-25.6,8.42-1.33,3.41-.59,6.66.78,9.86,1.77,4.89,5.42,7.73,10.22,9.22,8.64,2.68,18.68-3.75,19.87-12.51.42-3.68.5-7.29-1.89-10.47-.06-.22-.13-.45-.19-.67.07-.36-.14-.54-.42-.68Z"/>
      <path class="cls-1" d="M305.54,106.78c.23-4.19-.54-8.15-2.69-11.8,1.03.12,1.79-.44,2.65-.9,1.86-1,3.58-2.4,5.85-2.39.25,4.15.52,8.29-.09,12.44-1.19-.13-1.96.73-2.9,1.22-.93.49-1.61,1.5-2.81,1.44Z"/>
      <path class="cls-8" d="M290.27,131.15c-.42,0-.84,0-1.26,0-1.53-.65-2.76.33-4.02.84-5.74,2.32-11.44,4.77-17.17,7.13-5.98,2.46-5.99,2.44-5.8,9.16-.21.72-.31,1.51-.67,2.15-.44.78-1,.64-1.37-.16.19-2.62.45-5.23.55-7.85.05-1.39.59-2.15,1.89-2.69,7.88-3.23,15.73-6.53,23.59-9.81.6-.25,1.22-.48,1.85-.67,1.67-.49,2.56.04,2.41,1.89Z"/>
      <path class="cls-5" d="M311.35,91.69c-2.27,0-4,1.39-5.85,2.39-.86.46-1.62,1.02-2.65.9-2.28-3.11-5.21-5.44-8.63-7.18,1.26-1.45,3.09-1.99,4.75-2.69,3.6-1.52,7.13-3.17,10.5-5.12,1.07-.62,1.27.09,1.79.5.19,3.73.41,7.47.08,11.2Z"/>
      <path class="cls-1" d="M324.67,62.08c1.1,1.27.06,1.67-.87,2.08-2.99,1.34-5.98,2.68-8.98,3.99-15.12,6.59-30.24,13.16-45.36,19.73-.98.42-1.99.77-3.18,1.22-.26-1.85-.48-3.44-.7-5.04,8.9-3.59,17.8-7.16,26.69-10.78,6.77-2.76,13.51-5.6,20.26-8.41,2.71-1.13,5.46-2.18,8.09-3.48,1.65-.81,2.89-.63,4.05.69Z"/>
      <path class="cls-1" d="M400.08,29.15c.5,1.42-.39,1.93-1.49,2.38-2.82,1.16-5.64,2.34-8.44,3.56-14.1,6.17-28.19,12.38-42.29,18.55-7,3.06-14.02,6.06-21.13,9.14-.96-.95-.84-2.16-.84-3.33,5.35-2.19,10.72-4.35,16.06-6.57,8.87-3.69,17.71-7.46,26.6-11.12,5.13-2.11,10.4-3.91,15.48-6.15,5.29-2.33,10.63-4.51,16.06-6.46Z"/>
      <path class="cls-1" d="M356.77,75.23c-1.07,1.14-2.88.06-3.92,1.3-.02.45-.04.89-.06,1.34-2.88.85-5.2,2.73-7.67,4.3-8.95,5.68-17.83,11.46-26.76,17.17-1.09.7-2.21,1.43-3.53,1.7-.06-2.72.06-5.47-.22-8.17-.26-2.53.59-4.17,2.84-5.23.58-.27,1.05-.79,1.63-1.08,8.07-4.08,15.75-8.85,23.59-13.32,3.11-1.77,5.79-4.29,9.34-5.29.46.89,1.06,1.79,2.17,1.21,1.09-.57.46-1.4-.05-2.09.31-1.35,1.46-1.5,2.53-1.74.3,3.29.27,6.59.1,9.88Z"/>
      <path class="cls-5" d="M352.02,67.96c-3.54,1-6.23,3.52-9.34,5.29-7.85,4.47-15.52,9.24-23.59,13.32-.58.29-1.05.81-1.63,1.08-2.26,1.05-3.11,2.7-2.84,5.23.28,2.7.16,5.44.22,8.17-.41.54-.83,1.07-.94,1.77-.17.01-.34.03-.51.05-.28-7.59-.13-15.19-.58-22.78-.17-2.92-.92-5.8-.62-8.75.99.11,1.19.77,1.2,1.63,0,.98-.05,1.99.13,2.94.31,1.65.91,1.94,2.48,1.3,1.72-.7,3.42-1.44,5.1-2.23,3.95-1.87,7.86-3.82,11.82-5.68,7.07-3.32,14.16-6.59,21.25-9.89.02-.42.04-.84.06-1.26.72-.03,1.44-.06,2.16-.09.57,2.41.48,4.86.29,7.3-1.08.24-2.22.39-2.53,1.74-.81.05-1.64.04-2.11.88Z"/>
      <path class="cls-1" d="M354.15,59.4c-7.08,3.29-14.17,6.57-21.25,9.89-3.96,1.86-7.87,3.81-11.82,5.68-1.68.79-3.38,1.53-5.1,2.23-1.57.64-2.17.34-2.48-1.3-.18-.96-.12-1.96-.13-2.94,0-.86-.21-1.52-1.2-1.63,1.38-1.45,3.3-1.95,5.03-2.71,12.46-5.53,24.95-10.99,37.43-16.47.39-.17.77-.45,1.44-.11.09,1.91.19,3.96.28,6-.72.03-1.44.06-2.16.09-.81-.17-1.96-.72-1.89.73.05,1.09,1.1.7,1.83.54Z"/>
      <path class="cls-1" d="M313.39,102.86c.17-.03.34-.04.51-.05-.04,1.81.62,3.71-.59,5.39-.07-1.78-.29-3.56.08-5.34Z"/>
      <path class="cls-3" d="M398.43,52.65c-.09.07-.17.16-.26.19-.57.19-1.29.9-1.68.08-.31-.64.41-1.13,1.04-1.41.3.38.6.76.9,1.14Z"/>
      <path class="cls-8" d="M398.43,52.65c-.3-.38-.6-.76-.9-1.14.34-.51.79-.76,1.42-.66.09.35.17.71.26,1.06.04.55-.24.79-.78.74Z"/>
      <path class="cls-3" d="M399.2,51.91c-.09-.35-.17-.71-.26-1.06.69.21.67.58.26,1.06Z"/>
      <path class="cls-8" d="M352.79,77.87c.02-.45.04-.89.06-1.34.5.03,1.23-.14,1.3.54.09.96-.74.8-1.35.8Z"/>
      <path class="cls-7" d="M262.02,148.29c-.18-6.72-.18-6.7,5.8-9.16,5.73-2.36,11.42-4.81,17.17-7.13,1.25-.51,2.49-1.49,4.02-.84-.26,1.6.76,3.05.58,4.64-1.25.07-2.25.79-3.29,1.34-6.62,3.54-13.53,6.5-20.28,9.76-1.26.61-2.65.93-3.99,1.38Z"/>
      <path class="cls-3" d="M248.87,133.14c-1.17,0-1.61.04-2.04-.01-.57-.07-1.06-.38-1.14-.98-.07-.6.36-1,.84-1.28,1.01-.58,2.11-.35,3.19-.29.73.04,1.25.43,1.25,1.2,0,.76-.52,1.16-1.22,1.28-.53.09-1.08.09-.89.07Z"/>
      <path class="cls-8" d="M250.18,137.23c-1.24.06-2.48.11-3.73.16-1.02-.85-.9-1.66.17-2.32.86-.53,1.87-.57,2.84-.52.77.04,1.57.29,1.73,1.16.14.73-.48,1.14-1.02,1.51Z"/>
      <path class="cls-3" d="M247.7,129.19c-.5-.07-1.85.41-1.99-.93-.15-1.42,1.1-1.64,2.26-1.66.43,0,.87,0,1.3.02.81.04,1.56.28,1.62,1.23.06.97-.67,1.26-1.48,1.33-.43.04-.86,0-1.7,0Z"/>
      <path class="cls-8" d="M246.26,122.69c1.3-.02,2.6-.03,3.9-.05.86.95.75,1.78-.44,2.24-.68.26-1.46.31-2.2.31-2.02,0-2.17-.33-1.25-2.5Z"/>
      <path class="cls-4" d="M78.34,67.39c.23.2.46.4.69.61-.06.88-.43,1.47-1.41,1.38-.45-.04-.84-.25-.83-.8.01-1.04.7-1.23,1.55-1.18Z"/>
      <path class="cls-4" d="M77,58.8c.55-.61,1.24-1.16,1.9-.38.52.6-.19,1.17-.57,1.67-.85-.01-1.23-.52-1.34-1.29Z"/>
      <path class="cls-8" d="M130.6,110.06c-1.36-4.28-1.2-8.45.93-12.47,2.46-3.58,5.6-6.06,10.07-6.66,8.15-1.1,15.29,4.66,15.85,12.87.05.77.07,1.53.1,2.3-.32,1.15-.52,2.34-.97,3.44-2.1,5.15-5.9,8.33-11.45,8.96-5.43.61-9.71-1.7-12.97-5.98-.58-.77-1.04-1.63-1.56-2.46ZM140.23,93.65c-1.53.11-3.26.14-3.21,2.26.04,1.41.83,2.68,1.81,3.71.58.62,1.29.42,1.34-.45.11-1.83.06-3.67.07-5.5.32-.11.36-.22.14-.27-.03,0-.1.17-.15.26ZM143.78,101.26c-2.04.02-3.46,1.29-3.51,3.12-.05,1.86,1.72,3.62,3.57,3.54,1.73-.07,3.08-1.66,3.08-3.62,0-1.79-1.32-3.06-3.14-3.04ZM151.99,112.82c2.89-3.22,2.85-3.7-.31-5.48-.9-.51-1.78-1.22-3.3-.89,1.2,2.12,2.33,4.1,3.61,6.37ZM144.58,109.84c-1.53,1.61-2.25,3.34-3.1,4.98-.58,1.12-.06,1.63,1.01,1.82,1.59.29,2.54-.29,2.91-1.87.39-1.67.01-3.25-.82-4.93ZM135.31,113.02c.81.7,1.46,1.27,2.12,1.83.35.31.79.48,1.2.25,1.08-.59,1.95-1.46,2.57-2.49.58-.96.6-2.01-.22-3.12-1.91,1.19-3.65,2.27-5.68,3.53ZM139.13,105.59c-2.61-1.51-4.68-2.61-7.02-3.19-.53,3.29-.26,3.68,2.66,3.76,1.26.03,2.56.16,4.36-.58ZM155.13,107.33c.3-3.9-.18-4.47-3.32-4.48-.55,0-1.1.03-1.64.1-.46.06-.89.32-.99.76-.1.45.24.81.65,1.02,1.65.82,3.31,1.63,5.29,2.61ZM147.56,101.44h7.35c-.16-1.72-.9-2.93-2.48-3.08-2.02-.2-3.39,1.07-4.88,3.08ZM146.44,93.35c-2.66-1.33-3.98-.75-4.24,1.91-.08.86,0,1.73.03,2.6.01.32.12.63.47.77.51.21.9-.08,1.1-.43.91-1.6,1.76-3.23,2.64-4.84ZM132.63,107.75c.44,3.75,1.64,4.4,4.48,2.66.67-.41,1.37-.8,1.03-1.74-.29-.79-1.01-1.35-1.77-1.02-1.25.55-2.49.14-3.75.1ZM147.13,115.79c3.39-1.53,3.85-3.29,1.71-5.59-.39-.42-.77-.77-1.38-.54-.64.24-.66.84-.63,1.36.07,1.5-.21,3.03.3,4.77ZM138.88,102.84c-1.33-2.35-2.43-4.27-3.54-6.23-3.15,2.63-1.77,5.4,3.54,6.23ZM145.62,99.37c1.98-.01,2.98-1.33,4.27-2.04.86-.47,1.14-1.36.5-2.22-.73-.99-1.68-.9-2.54-.16-1.25,1.07-2.26,2.3-2.23,4.42Z"/>
      <path class="cls-7" d="M303.38,107.43c-1.19,8.77-11.23,15.19-19.87,12.51-4.8-1.49-8.46-4.33-10.22-9.22.63.01,1.07-.29,1.39-.82.46.73.91,1.47,1.37,2.19,3.07,4.76,7.57,6.95,13.07,6.36,5.49-.59,9.44-3.68,11.51-8.93.27-.69.17-1.54.86-2.07.63,0,1.26-.01,1.89-.02Z"/>
      <path class="cls-1" d="M301.29,96.3c.06.22.13.45.19.67-.64.45-.74,1.13-.83,1.83-.56-.8-1.11-1.6-1.7-2.39-5.46-7.3-15.09-7.71-21.52-1.16-2.01,2.05-2.78,4.44-3.57,6.96-.91,0-1.23-.58-1.37-1.36,1.89-11.48,16.79-16.14,25.6-8.42,1.06.93,2.08,1.91,2.76,3.18.14.23.28.45.42.68Z"/>
      <path class="cls-9" d="M300.66,98.8c.08-.7.19-1.38.83-1.83,2.39,3.17,2.31,6.79,1.89,10.47-.63,0-1.26.01-1.89.02.2-2.93.13-5.83-.83-8.65Z"/>
      <path class="cls-9" d="M272.5,100.86c.13.78.46,1.36,1.37,1.36-.06,2.59.11,5.16.8,7.68-.31.53-.75.83-1.39.82-1.37-3.2-2.11-6.45-.78-9.86Z"/>
      <path class="cls-9" d="M301.29,96.3c-.14-.23-.28-.45-.42-.68.28.14.49.32.42.68Z"/>
      <path class="cls-2" d="M352.02,67.96c.48-.84,1.31-.83,2.11-.88.51.69,1.15,1.52.05,2.09-1.11.57-1.71-.32-2.17-1.21Z"/>
      <path class="cls-4" d="M354.15,59.4c-.73.16-1.78.55-1.83-.54-.07-1.45,1.09-.89,1.89-.73-.02.42-.04.84-.06,1.26Z"/>
      <path class="cls-9" d="M143.78,101.26c1.82-.02,3.13,1.26,3.14,3.04,0,1.96-1.35,3.55-3.08,3.62-1.85.08-3.62-1.68-3.57-3.54.05-1.83,1.47-3.1,3.51-3.12Z"/>
      <path class="cls-2" d="M151.99,112.82c-1.29-2.27-2.41-4.25-3.61-6.37,1.52-.33,2.4.38,3.3.89,3.16,1.78,3.2,2.26.31,5.48Z"/>
      <path class="cls-4" d="M144.58,109.84c.84,1.68,1.21,3.26.82,4.93-.37,1.58-1.32,2.16-2.91,1.87-1.07-.19-1.59-.7-1.01-1.82.85-1.64,1.56-3.37,3.1-4.98Z"/>
      <path class="cls-4" d="M135.31,113.02c2.02-1.26,3.77-2.34,5.68-3.53.83,1.11.8,2.17.22,3.12-.62,1.03-1.5,1.89-2.57,2.49-.42.23-.85.06-1.2-.25-.66-.57-1.32-1.14-2.12-1.83Z"/>
      <path class="cls-4" d="M139.13,105.59c-1.8.74-3.1.61-4.36.58-2.92-.08-3.19-.47-2.66-3.76,2.34.57,4.4,1.68,7.02,3.19Z"/>
      <path class="cls-4" d="M155.13,107.33c-1.97-.97-3.63-1.79-5.29-2.61-.42-.21-.75-.57-.65-1.02.1-.43.53-.7.99-.76.54-.07,1.09-.1,1.64-.1,3.14,0,3.62.58,3.32,4.48Z"/>
      <path class="cls-4" d="M147.56,101.44c1.49-2.02,2.86-3.28,4.88-3.08,1.58.16,2.32,1.36,2.48,3.08h-7.35Z"/>
      <path class="cls-4" d="M146.44,93.35c-.87,1.62-1.72,3.25-2.64,4.84-.2.35-.59.64-1.1.43-.35-.14-.46-.45-.47-.77-.03-.87-.11-1.74-.03-2.6.26-2.65,1.58-3.24,4.24-1.91Z"/>
      <path class="cls-4" d="M132.63,107.75c1.25.04,2.5.45,3.75-.1.76-.33,1.48.22,1.77,1.02.34.94-.37,1.33-1.03,1.74-2.84,1.75-4.04,1.09-4.48-2.66Z"/>
      <path class="cls-4" d="M147.13,115.79c-.5-1.74-.23-3.27-.3-4.77-.02-.53,0-1.12.63-1.36.61-.23.99.13,1.38.54,2.14,2.29,1.67,4.05-1.71,5.59Z"/>
      <path class="cls-4" d="M138.88,102.84c-5.31-.82-6.69-3.6-3.54-6.23,1.11,1.96,2.21,3.88,3.54,6.23Z"/>
      <path class="cls-4" d="M140.25,93.67c-.01,1.83.04,3.67-.07,5.5-.05.88-.76,1.07-1.34.45-.97-1.03-1.77-2.3-1.81-3.71-.06-2.12,1.67-2.15,3.21-2.26,0,0,.01.01.01.01Z"/>
      <path class="cls-4" d="M145.62,99.37c-.03-2.12.97-3.35,2.23-4.42.86-.74,1.81-.83,2.54.16.64.86.36,1.75-.5,2.22-1.29.71-2.29,2.03-4.27,2.04Z"/>
      <path class="cls-4" d="M140.23,93.65c.05-.09.12-.27.15-.26.23.05.18.16-.14.27,0,0-.01-.01-.01-.01Z"/>
      <path class="cls-8" d="M274.67,109.9c-.69-2.52-.86-5.09-.8-7.68.79-2.52,1.56-4.91,3.57-6.96,6.43-6.55,16.07-6.15,21.52,1.16.58.78,1.13,1.59,1.7,2.39.96,2.82,1.03,5.72.83,8.65-.69.52-.58,1.37-.86,2.07-2.07,5.26-6.02,8.34-11.51,8.93-5.5.59-10-1.59-13.07-6.36-.47-.73-.92-1.46-1.37-2.19ZM287.66,107.68c1.72-.05,3.49-1.99,3.37-3.7-.1-1.48-1.81-2.9-3.45-2.85-1.92.05-3.38,1.53-3.29,3.31.09,1.87,1.57,3.29,3.37,3.24ZM286.9,110.1c-1.43,1.81-1.43,3.5-.87,5.2.44,1.31,1.85,1.82,3.19,1.21,1.47-.67.52-1.64.12-2.4-.68-1.29-1.08-2.79-2.45-4.01ZM276.07,107.17c1.98-.87,3.78-1.63,5.55-2.45.86-.4.82-1.07.06-1.42-1.67-.75-3.53-.8-5.05.1-1.3.77-.7,2.3-.55,3.77ZM291.28,93.24c-.58,2.2.01,4.11-.67,5.89-.09.23.06.7.26.86.34.27.81.25,1.22,0,1.56-.98,1.95-2.62,2.1-4.23.17-1.82-1.56-1.75-2.9-2.52ZM282.36,106.27c-1.95.47-3.51,1.07-4.67,2.4-.93,1.07-.2,2.03.39,2.93.26.39.89.63,1.11.33,1.21-1.65,3.13-2.94,3.17-5.66ZM296.48,96.51c-1.16,1.69-2.31,3.24-3.32,4.88-.48.79.2,1.58,1.11,1.34,1.66-.43,3.05-1.39,3.73-2.95.58-1.34-.78-2.1-1.52-3.27ZM276.76,101.14c2-.42,3.72.78,5.58.46.7-.12,1.56-.39.97-1.14-1.01-1.29-2.34-2.28-4.17-2.21-1.73.07-1.98,1.42-2.38,2.89ZM298.84,108.78c-.01-.76-.33-1.25-1.16-1.17-.84.07-1.62.65-2.51.27-.94-.4-1.76-.22-2.11.78-.39,1.11.57,1.47,1.31,1.89.37.21.76.41,1.17.55,1.7.59,3.29-.53,3.3-2.3ZM284.41,108.82c-2.05,1.32-3.01,2.65-3.25,4.43-.16,1.21,1.24,2.68,2.41,2.5,1.28-.2.78-1.34.82-2.1.08-1.39.02-2.79.02-4.83ZM295.36,113.3c0-.51-.36-.76-.73-.97-.75-.44-1.52-.85-2.29-1.26-.71-.38-1.43-1.42-2.25-.51-.82.92.04,1.85.55,2.63.35.53.85,1.02,1.4,1.32,1.05.58,3.24-.28,3.31-1.2ZM282.31,94.57c-.64.12-1.28.39-1.61.97-.41.73.11,1.2.69,1.6.99.68,1.93,1.43,2.94,2.08.51.33,1.06.3,1.28-.41.47-1.52-1.68-4.29-3.3-4.24ZM296.03,106.22v-.04c.64,0,1.29.03,1.93,0,.53-.03,1.1-.06,1.35-.66.24-.59-.1-.98-.48-1.39-.69-.75-1.31-1.41-2.46-.68-.62.4-1.38.57-2.09.83-.54.2-1.06.54-1.02,1.1.06.86.84.8,1.47.84.43.03.86,0,1.29,0ZM289.61,97.37c.05-1.21-.48-2.43-1.1-2.83-.77-.49-2.13-.06-2.03.7.19,1.36.51,2.74,1.44,3.83.36.42.83.2,1.05-.19.31-.55.5-1.16.64-1.51Z"/>
      <path class="cls-9" d="M287.66,107.68c-1.8.05-3.28-1.37-3.37-3.24-.09-1.79,1.38-3.26,3.29-3.31,1.64-.05,3.35,1.37,3.45,2.85.12,1.71-1.65,3.66-3.37,3.7Z"/>
      <path class="cls-4" d="M286.9,110.1c1.37,1.22,1.77,2.71,2.45,4.01.4.76,1.35,1.72-.12,2.4-1.35.62-2.76.11-3.19-1.21-.57-1.7-.56-3.39.87-5.2Z"/>
      <path class="cls-2" d="M276.07,107.17c-.14-1.47-.75-3,.55-3.77,1.52-.9,3.39-.85,5.05-.1.76.35.8,1.02-.06,1.42-1.77.82-3.57,1.58-5.55,2.45Z"/>
      <path class="cls-4" d="M291.28,93.24c1.34.77,3.08.7,2.9,2.52-.15,1.6-.54,3.25-2.1,4.23-.41.26-.87.28-1.22,0-.2-.16-.35-.63-.26-.86.69-1.78.09-3.69.67-5.89Z"/>
      <path class="cls-2" d="M282.36,106.27c-.04,2.72-1.96,4.01-3.17,5.66-.22.31-.86.06-1.11-.33-.6-.9-1.32-1.86-.39-2.93,1.16-1.34,2.72-1.93,4.67-2.4Z"/>
      <path class="cls-4" d="M296.48,96.51c.73,1.17,2.1,1.93,1.52,3.27-.68,1.56-2.07,2.52-3.73,2.95-.91.24-1.59-.56-1.11-1.34,1.01-1.64,2.16-3.19,3.32-4.88Z"/>
      <path class="cls-4" d="M276.76,101.14c.4-1.47.65-2.82,2.38-2.89,1.83-.07,3.17.92,4.17,2.21.58.75-.28,1.02-.97,1.14-1.86.32-3.58-.89-5.58-.46Z"/>
      <path class="cls-4" d="M298.84,108.78c0,1.78-1.6,2.9-3.3,2.3-.4-.14-.79-.34-1.17-.55-.74-.42-1.7-.77-1.31-1.89.35-1,1.17-1.18,2.11-.78.89.38,1.67-.19,2.51-.27.83-.07,1.15.42,1.16,1.18Z"/>
      <path class="cls-4" d="M284.41,108.82c0,2.04.06,3.44-.02,4.83-.04.76.46,1.9-.82,2.1-1.16.18-2.57-1.29-2.41-2.5.24-1.78,1.21-3.12,3.25-4.43Z"/>
      <path class="cls-2" d="M295.36,113.3c-.07.92-2.26,1.78-3.31,1.21-.55-.3-1.05-.8-1.4-1.32-.52-.78-1.38-1.71-.55-2.63.82-.91,1.54.13,2.25.51.77.41,1.53.82,2.29,1.26.37.21.73.47.73.97Z"/>
      <path class="cls-2" d="M282.31,94.57c1.62-.05,3.77,2.72,3.3,4.24-.22.71-.77.74-1.28.41-1.01-.65-1.95-1.4-2.94-2.08-.58-.4-1.09-.87-.69-1.6.33-.58.97-.85,1.61-.97Z"/>
      <path class="cls-4" d="M296.03,106.22c-.43,0-.86.02-1.29,0-.63-.04-1.42.02-1.47-.84-.04-.56.48-.9,1.02-1.1.7-.26,1.47-.44,2.09-.83,1.14-.73,1.76-.07,2.46.68.39.42.72.8.48,1.39-.25.6-.82.63-1.35.66-.64.04-1.29,0-1.93,0v.04Z"/>
      <path class="cls-4" d="M289.61,97.37c-.14.35-.33.96-.64,1.51-.22.39-.69.61-1.05.19-.94-1.09-1.25-2.47-1.44-3.83-.1-.76,1.26-1.18,2.03-.7.62.39,1.15,1.62,1.1,2.83Z"/>
    </g>
  </g>
</svg>