<?xml version="1.0" encoding="UTF-8"?>
<svg id="GRIFOS" xmlns="http://www.w3.org/2000/svg" viewBox="0 0 455.05 452.32">
  <defs>
    <style>
      .cls-1 {
        fill: #ad5b3c;
      }

      .cls-1, .cls-2, .cls-3, .cls-4, .cls-5, .cls-6, .cls-7, .cls-8 {
        stroke-width: 0px;
      }

      .cls-2 {
        fill: #3a2720;
      }

      .cls-3 {
        fill: #f5eed5;
      }

      .cls-4 {
        fill: #7e4326;
      }

      .cls-5 {
        fill: #261d19;
      }

      .cls-6 {
        fill: #593b2b;
      }

      .cls-7 {
        fill: #9d6231;
      }

      .cls-8 {
        fill: #f8f4e8;
      }
    </style>
  </defs>
  <g id="Wings">
    <g id="W3">
      <path class="cls-5" d="M409.01,221.5c5.76,4.52,10.74,10.16,15.39,16.24,1.4,1.83,2.6,3.87,3.59,6.08.41.92.88,1.88.3,2.93-.56,1.02-1.44,1.17-2.32.9-5.82-1.83-11.87-2.76-17.14-6.68-.88-.65-1.63-1.68-2.86-.55-.75.69-1.65-.14-2.43-.54-2.18-1.12-4.35-2.26-6.53-3.4-.63-.72-1.23-1.56-2.37-1.27.58.96,1.06,1.75,1.85,2.14,1.57,2.17,3.22,4.25,4.67,6.52.97,1.52,2.76,2.81,1.47,5.42-.39.79.57,1.27,1.01,1.75,3,3.28,5.45,7.07,7.41,11.36.82,1.8,2.2,3.77,1.2,5.71-1.08,2.08-2.99.61-4.48.23-4.5-1.15-8.39-3.94-12.09-7.15-.83-.72-1.32-1.67-1.64-2.83-.3-1.1-.54-2.27-1.28-3.14-.82,0-.45.87-.64,1.3-.22.51-.53.95-.95.91-.51-.05-.99-.5-1.5-.56-1.55-.19-2.57-1.72-3.97-2.23-1.04-2.32-1.33-2.62-4.19-4.07,1,1.62,1.83,2.94,2.65,4.27,1.27,3.03,2.57,6.03,3.81,9.08.68,1.67,1.14,3.43,1.01,5.33-.12,1.72-.78,2.28-2.17,1.9-.1-.03-.21-.08-.3-.14-7.69-4.95-16.04-8.77-21.01-18.34-.56-1.09-1.07-1.38-2.01-.89-.68.36-1.35-.85-2.21-.04,1.8,4.15,3.68,8.27,5.39,12.49,1.14,2.82,2.03,5.8,3.05,8.69.41,1.16.57,2.29-.23,3.29-.75.95-1.58.42-2.42.17-4.95-1.49-9.07-4.79-12.86-8.77-.83-.87-1.31-2.03-1.68-3.32-.49-1.71-1.19-3.34-1.84-5.12-2.06,2.74-1.95,2.72-1.59,6.08.21,2.01.97,4.56-.56,5.96-1.54,1.4-3.26-.23-4.8-1.1-2.25-1.27-4-3.47-6.23-5.25-.01,2.98.72,5.49,1.06,8.07.33,2.49.54,5,.2,7.48-.39,2.8-1.82,3.5-3.71,1.82-1.53-1.36-2.89-2.99-4.8-5,.16,2.98.35,5.28.39,7.58.03,1.97.04,3.98-.21,5.92-.26,2.05-1.24,2.6-2.83,1.79-1.98-1.02-3.59-2.78-5.68-4.7,0,3.07.07,5.63-.02,8.18-.06,1.71-.28,3.42-.56,5.09-.63,3.7-1.8,4.2-4.07,1.78-1.56-1.66-2.77-3.68-3.85-5.82-.31-.61-.76-1.67-1.45-.82-1.13,1.4-2.14.21-3.42-.22.13,2.51.28,4.71.36,6.92.05,1.41.46,3.04-.82,3.97-1.41,1.02-2.04-.92-3.2-1.54-.7.93-.31,2.58-1.39,3.35-1.77-.88-2.12-3.55-3.69-4.71-1.89,1.94-2.2,1.93-3.79-.14-.85-1.11-1.38-2.6-2.81-3.55-.35,2.66-.69,5.07-.99,7.48-.21,1.71-.61,3.34-1.23,4.89-.84,2.11-1.74,2.41-3.28.93-2.57-2.49-4.45-5.72-6.14-9.1-.49-.97-.98-1.95-1.53-3.03-.95,1.41-.95,3.09-1.49,4.51-.95,2.51-1.95,2.82-3.67.93-1.37-1.51-2.43-3.35-3.45-5.23-1.43-2.63-2.55-5.46-3.65-8.45-1.28.68-1.03,2.29-1.58,3.31-1.34,2.49-2.87,2.79-4.37.42-1.59-2.5-2.72-5.36-3.52-8.39-.36-1.37-.56-2.83-1.42-3.98-.63.34-.66,1.19-.93,1.81-1.76,4.02-2.75,4.11-4.75.1-1.98-3.96-3.2-8.32-3.84-12.9-.11-.76-.19-1.53-.28-2.28q-2.98-.06-3.8-3.45c-.27-1.14-.58-2.27-.8-3.42-.94-4.77-2.78-8.64-6.37-11.34-3.71-2.79-5.49-7.16-5.84-12.55-.52-8.11.68-15.51,5.28-21.67,2.96-3.95,6.61-5.7,11.07-4.72,2.03.45,4,1.06,5.94,1.85,7.9,3.23,15.02,1.51,21.61-4.64,6.83-6.37,12.79-13.77,18.24-21.84,3.03-4.48,6.11-8.9,9.51-12.97,2.26-2.71,4.8-4.88,7.83-6.15,1.13-.48,2.19-.79,2.66.92.43,1.55,1.15,1.15,2.02.8,1.94-.77,3.9-1.51,5.86-2.19,3.59-1.24,3.86-1,3.98,3.12,2.17,0,4.33.08,6.48-.02,6.53-.3,12.93.69,19.21,2.82,2.73.93,5.47,1.3,8.29,1.45,9.38.49,18.74,1.38,27.82,4.64.93.33,1.87.63,2.78,1.05.6.28,1.43.77,1.28,1.58-.53,2.88,1.28,2.78,2.62,3.32,4.2,1.68,8.35,3.49,12.28,5.98.48.3,1,.54,1.43.92.92.82,2.38,1.31,2.17,3.09-.23,1.95-1.71,2.15-3,2.34-2,.3-3.99.76-6.12,1.05,3.55,2.37,7.13,4.67,10.63,7.13,4.69,3.3,9.11,7.09,12.94,11.8.93,1.14,2.51,2.36,1.67,4.24-.97,2.19-2.63.91-4.03.43-3.93-1.36-7.85-2.73-11.78-4.1-.25-.66-.85-1.1-1.2-.64-.57.78.45.75.67,1.17.07.14.37.12.56.17ZM365.5,243.03c.2.24.39.48.59.72,0,0,.05.07.05.07,0,.24,0,.48-.05.71.08,4.39,2.24,7.73,4.56,10.38,4.14,4.74,8.99,8.44,14.34,11.01.04.09.06.2.11.27.03.04.11.02.17.03-.1-.1-.2-.19-.3-.29.01-2.96-1.44-5.21-2.64-7.49-4.96-9.48-10.55-18.32-18.13-24.98.01-.61.03-1.21.04-1.82,3.9,3.22,8.07,5.95,11.55,9.9.43.49.82,1.32,1.58.47,1.42-1.59,2.45-.4,3.17.96,1.68,3.18,4.04,5.43,6.49,7.6q2.21,1.96,3.85-.91c.98-1.72,1.8-1.78,2.67.01.93,1.92,1.7,3.96,2.5,5.98.57,1.45,1.29,2.68,2.45,3.57,2.38,1.83,4.86,3.41,7.45,4.73.64.33,1.37.8,2.15-.17-1.1-2.71-2.62-5.08-4.39-7.2-1.69-2.03-3.47-3.95-5.17-5.97-.59-.7-1.61-1.7-.88-2.63,1.53-1.95.2-2.97-.56-4.31-1.06-1.86-2.36-3.43-3.76-4.88-5.49-5.71-11.15-11.16-17.06-16.21-1.49-1.27-3.28-2.03-4.41-3.91.04-.58.08-1.16.12-1.74.72.31,1.29.87,1.89,1.45,2.42,2.36,4.94,4.72,7.88,5.86,6.21,2.4,11.97,5.95,17.76,9.46,1.23.75,2.43,1.67,3.8,1.96.16-.35.3-.55.36-.78.23-.95-.44-2.34.58-2.85,1.25-.62,1.96.72,2.66,1.68.78,1.08,1.24,2.5,2.27,3.31,4.34,3.39,9.18,4.92,14.24,6.09-.03-.57.01-.85-.07-1.05-.15-.35-.35-.67-.57-.95-6.79-8.74-14.09-16.71-22.88-22.43-1.71-1.11-3.39-2.33-4.98-3.68-.81-.69-1.97-1.19-2.02-2.92,8.29,2.66,16.56,5.04,24.79,7.82-1.49-2.81-3.75-4.35-5.89-5.96-12.13-9.16-25.22-15.44-39.15-19.12-.23-.74-.74-.93-1.32-1,.47-.98,1.31-.68,2.01-.88,2.79.82,5.57,1.66,8.37,2.45,1.25.35,2.52.65,3.8.87,4.82.85,9.68.67,14.52.8.64.02,1.4.33,2.1-.55-7.84-5.16-16.39-6.86-24.65-10.14,1.29-2.08,3.09-.51,4.52-1.7-8.09-2.25-16.11-3.42-24.96-3.48,1.72,1.44,2.42,2.83,2.31,4.66-.94.47-2.06.55-2.77,1.64.76,1.34,1.89,1.58,2.78,2.29,1.18.94,1.15,2.11.43,3.37-.52.9-1.28,1.3-2.19,1.48-1.96.38-3.89.91-5.97.96.4,1.6,1.35,2.14,1.94,3.05,1,1.54.93,2.28-.49,3-1.29.65-2.64,1.06-4.09.97-1.7-.11-3.41-.03-5.13-.03.42,4.86.04,5.4-3.64,5.51-.65.02-1.3-.05-1.94.02-2.14.21-4.1-1.28-6.27-1.25.33,3.63-.04,4.22-2.64,4.36-.97.05-1.92-.05-2.88-.38-1.6-.56-3.23-.97-4.96-1.48.75,4.45.23,5.04-3.05,4.43-.87-.16-1.76-1.21-2.74-.27.2,1.2.41,2.35.59,3.51.37,2.43.22,2.7-1.77,2.96-.53.07-1.08.01-1.62.01-.96-.79-2.3-1.08-2.75-2.96.57.08.88.1,1.19.18.92.24,2.01.97,2.69-.19.52-.9-.22-1.99-.45-2.99-.47-1.99-1.99-3.39-2.2-5.71,2.83-.1,4.98,2.87,7.78,2.57.07-1.02-.35-1.49-.69-1.98-1.27-1.8-2.7-3.39-4.25-4.82l.64-.79c4.87,1.61,9.39,4.83,14.99,4.99-.74-1.63-1.38-2.79-2.26-3.74-.95-1.02-2.39-1.23-3.06-2.72l.09-.13c.99-.12,1.91.2,2.85.54,2.37.87,4.75,1.81,7.18,2.38,2.33.55,4.73,1.14,7.23-.01-1.45-2.87-4.19-3.39-5.86-5.95,2.88-.44,5.23.79,7.65,1.28,3.08.62,5.58.43,7.48-.81-2.24-3.32-5.95-3.82-8.5-6.53,4.96-.19,9.9,1.94,14.9-1.17-3.55-2.98-7.66-3.13-11.66-5.19,3.71-2.18,7.54.12,10.88-2.3-12.47-8.99-25.81-7.71-39.08-5.51-.56-1.59.88-2.27.56-3.69-3.91.85-7.18,3.23-10.57,5.48-.26-1.83,1.2-3,.22-4.66-2,1.34-3.67,3.15-5.18,5.2-5.91,8.03-11.3,16.63-17.74,24.09-3.84,4.45-7.6,8.96-12.27,12.17-6.31,4.35-12.84,5.96-19.9,3.09-1.94-.79-3.91-1.44-5.92-1.98-4.33-1.16-7.64.39-9.99,4.98-.6.39-.99,1-1.26,1.74-1.42,3.88-2.35,7.95-2.51,12.17-.22,5.88,1.37,10.89,5.61,14.2,3.16,2.47,4.97,6.02,6.14,10.29,1.07,3.92,1.19,3.87,4.05,1.49,1.51,6.75.76,14.18,4.39,20.37,1.63-1.97,2.34-4.3,3.1-6.59.22-.65.46-1.23,1.1-1.19.63.03.92.65,1.08,1.29.19.75.29,1.53.42,2.3.72,4.27,1.69,8.44,3.36,12.31.32.73.42,1.86,1.66,1.77.76-2.79,1.51-5.63,1.53-8.7,0-1.31-.08-2.65.46-3.87.21-.47.43-.96.94-.89.47.06.79.46.91.98.15.62.14,1.31.3,1.93.61,2.34.5,4.98,1.88,7.01,1.34,4.62,2.78,9.17,5.97,13.04.9-2.41,1.06-4.43,1.19-6.51.3-4.6-.39-9.12-.64-13.67l-.04.04c1.44,1.11.85,3.45,1.95,4.77.29,1.52.67,2.97,1.81,3.9,1.08,7.08,3.99,12.89,8.44,18.41,1.06-4.46,1.21-8.48,1.48-12.48,2.83-3.53-.17-7.71.82-11.58,1,1.31,1.1,2.95,1.53,4.39.83,2.74,1.74,5.41,3.22,7.71.7,1.09,1.21,3.17,2.81.96.44-.6,1.23.04,1.7.63.66.84,1.28,1.73,2.11,2.84.67-2.21,1.95-2.05,3.22-1.19,0-3.29.12-6.33-.03-9.35-.15-2.88-.55-5.75-.91-8.6-.35-2.83-1.3-5.55-.99-8.53,2.78,5.52,3.13,12.29,6.19,17.62q2.87-1.85,4.69,1.15c.45.74.88,1.5,1.31,2.26.7,1.26,1.28,2.65,2.77,3.38.49-7.82.49-15.19-2.12-22.37,3.63,3.88,6.53,8.57,11,11.61.47-4.25-.1-7.99-.63-11.69-1.05-7.33-3.74-13.97-6.12-20.72,1.43-.19,1.61,1.61,2.5,2.3.03.26,0,.57.11.77,3.35,6.05,6.13,12.61,10.6,17.65.43.49.65,1.47,1.69.74-.27-4.29-.44-8.7-1.94-12.83,0-1.14-.24-2.2-.75-3.16.02-.63-.07-1.2-.54-1.58-.06-.27-.11-.54-.17-.82-.15-.33-.31-.65-.46-.98-1.16-3.08-2.32-6.17-3.48-9.25.05-.47.09-.94.14-1.41,2.63,3.07,4.77,6.66,7.11,10.04,1.49,2.16,2.91,4.45,5.08,5.72,1.44,2.13,3.2,3.66,5.75,4.69-.53-2.55-.68-4.63-1.7-6.4-.64-4.23-2.38-7.95-3.66-11.89l1.09-.05c1.3,1.57,2.62,3.11,3.89,4.72,1.61,2.04,1.59,2.07,3.06-.31.97-1.57,1.17-1.5,2.3.11,1.44,2.05,2.21,4.53,2.91,6.99.86,3.03,2.43,5.22,4.6,6.86,1.65,1.24,3.29,2.51,4.99,3.65.57.38,1.2,1.28,2.12.29-3.78-11.85-9.58-22.21-16.02-32.13-1.78-2.75-4.21-4.79-5.65-7.89.19-.24.39-.48.58-.72,3.85,3.92,7.71,7.83,11.55,11.77,1.47,1.51,3.03,2.84,4.99,4.13-.13-2.62,1.14-3.65,2.61-4.48.22-.01.44-.03.66-.04l.05.05.59.72s.06.07.06.07Z"/>
      <path class="cls-5" d="M62.35,253.13c-1.55.59-2.76,1.83-4.02,3-2,1.86-2.08,1.79-3.46-1.13-.66.04-.85.69-.96,1.28-.72,3.82-2.98,5.93-5.62,7.61-3.05,1.94-6.16,3.7-9.53,4.67-.63.18-1.26.43-1.89.45-1.87.06-2.49-.97-1.93-3.2.83-3.31,2.37-6.17,4.09-8.87.92-1.44,2.06-2.69,3.05-4.07,1.12-1.56,3.47-2.45,2.08-5.45,1.24-2.23,1.94-4.91,3.73-6.67,1.45-1.76,2.89-3.53,4.34-5.29.49-.59.37-1-.08-1.59-.5-.67-.97-.62-1.32-.04-1.38,2.28-3.47,3.47-5.24,5.15-1.73.5-3.22,2.7-5.28.86-.51-.45-1.17.44-1.7.85-5.28,4.12-11.36,5.28-17.3,6.94-.85.24-1.76.12-2.31-.9-.55-1.01-.23-2.03.21-2.96,1.19-2.5,2.54-4.86,4.23-6.92,1.06-1.29,2.08-2.65,3.11-3.97,3.82-3.98,7.42-8.28,11.54-11.93-2.9.74-5.61,1.88-8.37,2.83-2.25.78-4.45,1.93-6.87,1.7,0,0-.03-.03-.03-.03-.06-.44-.29-.67-.63-.77-.03-.52-.05-1.05-.08-1.57.76-1.17,1.51-2.35,2.27-3.52,0,0,.06-.07.06-.07.63-.52,1.22-1.08,1.55-1.96,6.61-6.35,13.9-11.39,21.31-16.6-1.53-.2-3.06-.36-4.58-.6-.85-.13-1.7-.13-2.52-.62-1.9-1.13-2.13-2.58-.46-4.11,1.64-1.5,3.52-2.52,5.39-3.56,3.45-1.91,7.04-3.28,10.66-4.58.74-.27,1.55-.38,1.39-1.67-.26-2.15,1.02-2.65,2.26-3.21,3.35-1.52,6.86-2.27,10.36-3.01,6.92-1.47,13.92-2.19,20.94-2.33,3.4-.07,6.51-1.65,9.75-2.53,6.94-1.87,13.93-1.89,20.96-1.26.41.04.83.12,1.54.23.04-1.49-.76-3.07.51-4.03,1.08-.81,2.06-.2,3.09.19,2.47.94,4.95,1.82,7.44,2.73,1.38-3.01,1.56-3.11,4.12-1.72,3.41,1.86,6.3,4.62,8.78,7.97,3.34,4.5,6.61,9.08,9.84,13.69,5.3,7.55,11.22,14.27,17.86,20.06,5.85,5.11,12.17,6.36,19.04,3.76,2.26-.86,4.53-1.67,6.86-2.21,4.06-.95,7.57.37,10.36,3.88,6.24,7.84,7.27,17.31,5.26,27.54-.55,2.81-2,5.23-3.98,6.53-5.11,3.34-6.86,9.13-8.25,15.32-.2.88-.34,1.82-.69,2.61-.71,1.6-1.89,1.32-3.07.75-.83,4.75-1.3,9.5-3.23,13.72-.1.23-.11.53-.23.74-.89,1.6-1.38,4.11-3.14,4.18-1.76.07-1.81-2.58-2.63-4.03-.16-.29-.34-.56-.62-1.03-1.17,1.99-1.38,4.28-2.2,6.22-.98,2.34-1.83,4.8-3.24,6.83-1.37,1.97-2.37,1.99-3.58-.15-.72-1.27-1.13-2.8-1.77-4.41-1.14,3.23-2.31,6.2-3.79,8.96-.53.99-1.11,1.96-1.72,2.87-3.07,4.59-4.69,4.33-6.05-1.01-.16-.63-.37-1.23-.67-2.23-1.35,2.37-2.63,4.51-3.82,6.71-1.03,1.89-2.34,3.47-3.7,4.97-1.9,2.1-3.1,1.69-4.02-1.32-.8-2.61-1.04-5.37-1.24-8.13-.08-1.15.12-2.35-.53-3.79-1.45,1.06-2.04,2.98-3.16,4.23-1.67,1.88-1.61,1.95-3.66-.04-1.46,1.14-2.06,3.29-3.45,4.54-1.44-.26-1.03-2.15-1.86-3.06-.3.31-.58.69-.92.93-1.61,1.09-2.55.68-2.7-1.46-.15-2.22.06-4.48.1-6.72.01-.63,0-1.26,0-1.96-1.21.02-2.24,1.61-3.33,0-.51-.75-.9.03-1.22.54-1.26,1.98-2.48,3.99-3.79,5.92-.61.9-1.31,1.86-2.45,1.49-1.11-.37-1.35-1.55-1.6-2.73-.65-3.1-.71-6.27-.7-9.44,0-1.26,0-2.52,0-4.2-1.6,1.4-2.86,2.57-4.18,3.63-2.71,2.16-3.44,1.82-4.63-1.99.05-.09.17-.2.15-.26-.05-.2-.16-.38-.24-.56.15-2.05.32-4.1.11-6.16.52-1.7.39-3.43.43-5.9-2.25,2.76-4.06,5.06-6.33,6.67-2.12-.43-2.34-2.43-2.39-4.47-.08-3.71.49-7.33,1.18-10.92.17-.88.31-1.77.48-2.73-1.15-.17-1.56.89-2.17,1.48-1.94,1.9-3.98,3.64-6.35,4.62-2.54,1.04-3.41.24-3.4-2.97,0-1.31,0-2.7.34-3.91.62-2.23.97-4.22-1.26-5.6-1.05.73-1.35,2.34-1.75,3.78-.86,3.13-2.45,5.47-4.63,7.35-3.18,2.74-6.43,5.27-10.26,6.43-2.71.83-3.78-.39-2.92-3.57.71-2.61,1.48-5.26,2.61-7.61,1.62-3.36,2.43-7.22,4.47-10.29.65-1.18,1.3-2.36,2.03-3.69-1.24-.24-2.33,1.27-3.16.2-.65-.83-.92-.89-1.29.04-.32.81-.91,1.5-.84,2.5-1.77,2.85-3.91,5.22-6.35,7.21-4.3,3.49-8.66,6.88-13.41,9.41-.87.46-1.83,1.1-2.76.27-1.05-.94-.9-2.38-.6-3.62,1.15-4.61,2.69-9.03,5.01-12.97.62-.74,1.31-1.43,1.27-2.73-1.07.1-1.65.73-2.11,1.56ZM87.6,184.15c.52-1.09,1.5-1.67,2.63-2.97-8.73-.17-16.68,1.35-24.72,3.49,1.27,1.03,2.91-.31,4.16,1.63-8.27,3.5-16.81,5.16-24.55,10.33,1.09.8,1.95.46,2.77.43,3.87-.15,7.74-.31,11.6-.74,4.05-.45,8.04-1.14,11.95-2.54.73.11,1.56-.11,2.04.88-5.23,1.97-10.47,3.89-15.68,5.92-8.48,3.3-16.11,8.75-23.68,14.31-1.54,1.13-3.18,2.26-4.22,4.2-.26.17-.52.34-.77.51.07.08.14.22.22.24.34.08.6-.09.78-.45,7.21-1.45,14.13-4.36,21.25-6.28,1.1-.3,1.95-1.75,3.28-1.06-1.75,2.06-3.47,4.16-5.67,5.56-8.22,5.23-15.24,12.42-22.02,20.01-1.28,1.43-2.21,3.16-3.58,5.65,6.42-1.98,12.52-2.55,16.63-8.94.63-.98,1.25-2.42,2.5-2.2,1.26.22,1.07,1.75,1.25,2.86.06.35.19.47.87.22.19-.14.74-.53,1.29-.94,2.16-1.6,3.76-3.94,5.53-6.07.93-1.11,1.91-2.1,2.57.31.33,1.2.94.8,1.5.4,5.13-3.66,11.22-4.81,16.07-9.21.58-.52,1.27-.83,1.81-.16.03.78-.22.99-.5,1.21-4.79,3.78-9.06,8.4-13.58,12.62-3.52,3.29-6.84,6.88-9.82,10.9-.76,1.03-1.72,2.04-.26,3.55.83.86.16,1.93-.48,2.72-1.13,1.41-2.27,2.81-3.4,4.22-3.2,2.19-4.72,6.1-7.09,9.72,4.77-.89,9.55-3.91,11.81-7.24.84-1.81,1.66-3.64,2.52-5.43,1.69-3.48,2.45-3.5,4.59-.19.2.31.4.63,1.04.47.33-.27.87-.69,1.39-1.13,3.46-2.93,6.98-5.73,8.3-11.1.43-1.75,1.62-3.05,2.71-4.42,1.71,1.69-.17,3.76.42,5.57,1.23-.51,2.03-1.63,3.03-2.38,2.07-1.55,3.87-3.68,6.25-4.6.32.37.64.75.97,1.12-6.4,6-11.4,13.52-15.7,21.76-1.4,2.68-3.01,5.33-3.61,9.2,4.75-2.67,8.8-5.53,12.58-9,1.47-1.35,2.95-2.68,3.96-4.59,1.7-3.2,3.36-6.43,5.03-9.64.52-.24,1.03-.49,1.55-.73,1.16,1.09-.09,3.08.99,4.19.76-.05,1.28-.63,1.68-1.16,3.04-4.02,7.16-6.41,10.22-10.45,2.09-2.77,4.58-5.09,6.89-7.62.67-.73,1.35-1.29,2.3-.81-.04,1.08-.86,1.44-1.35,2.08-2.91,3.72-6.04,7.21-8.76,11.11-5.63,8.06-10.09,17.1-14.05,26.49-.75,1.79-1.62,3.64-1.76,6.12,2.14-.45,3.5-2.02,5.04-3.07,3.27-2.25,6.03-5.09,7.1-9.79.34-1.51.99-2.92,1.53-4.36.5-1.32,1.02-2.95,2.34-2.93,1.34.02,1.17,1.95,1.71,3.01.09.18.34.23.17.12,2.07-2.29,4.05-4.48,6.04-6.67.27.33.55.66.82.99-1.88,5.82-4.29,11.44-5.14,17.96,2.07-.48,3.31-1.8,4.53-3.02,3.08-3.08,5.7-6.72,8.34-10.35,1.6-2.2,2.68-5.05,4.98-6.45,0,0,.19.19.19.19-.14.49-.22,1.02-.43,1.46-3.03,6.27-5.36,12.89-6.38,20.08-.4,2.81-1.31,5.64-.85,8.83,1.53-.93,2.31-2.2,3.12-3.41,2.65-3.97,5.15-8.07,7.26-12.52.39-.82.58-2.13,1.79-1.83.03.51.17,1.06.06,1.52-1.28,5.55-2.86,11-3.63,16.71-.42,3.09-.48,6.15-.22,9.7,2.55-1.6,4.32-3.39,5.68-5.8,1.4-.74,2.02-2.29,2.66-3.81,1.17-.66,1.2-2.62,2.65-3.23-2.29,7.41-3.55,14.87-2.15,23.04,2.04-1.25,2.78-3.55,3.89-5.36,2.08-3.37,2.05-3.42,4.64-.75,3.26-5.38,3.45-12.36,6.38-17.96-1.95,8.72-1.88,17.63-2.28,26.47.9.29,1.68-1.48,2.4-.04,1.04,2.1,1.69.67,2.3-.36.83-1.38,1.59-2.65,3.05-.92.63.75,1.16.22,1.63-.4,1.34-1.79,2.11-3.96,2.81-6.19.7-2.23,1.15-4.6,2.6-7.05.12,2.84.09,5.06-.4,7.25-.2.87-.54,2.12.29,2.5,1.75.81,1.32,2.52,1.31,3.98-.02,3.16.61,6.16.96,9.15.87.15,1.15-.49,1.54-.91,3.34-3.63,5.13-8.4,6.68-13.37,1.27-4.07,2.65-8.1,3.99-12.14-.29,6.9-.58,13.59.73,20.85,3.53-4.71,5.01-9.85,6.27-15.13.93-1.07.98-2.57,1.27-3.94.16-.76.2-1.56.41-2.3.2-.73.45-1.61,1.26-1.54.83.07.9.94.98,1.74.2,1.95.3,3.94.68,5.85.36,1.82.16,3.94,1.65,5.64,1.87-2.74,2.1-6.18,3.3-9.06,1.16-2.79,1.17-6.2,2.85-9.4,1.21,2.72,2.06,4.85,3.09,6.84.78,1.51,1.44,1.45,2.05-.2,1.16-3.14,1.92-6.41,1.99-9.9.06-2.98.51-5.88,1.08-8.61,1.75-.07,1.69,2.43,3.21,2.29.28-.99.64-1.96.83-2.97,1-5.31,3.4-9.33,7.28-12.02,1.47-1.02,2.36-2.59,3.19-4.35,2.05-4.34,1.5-9.01,1.06-13.53-.32-3.27-.54-6.94-3.33-9.01-1.69-4.63-5.08-6.85-9.16-5.8-2.52.65-5.03,1.47-7.48,2.45-5.53,2.21-10.83,1.39-16.03-1.5-3.97-2.21-7.37-5.43-10.65-8.86-7.08-7.39-13.19-15.87-19.07-24.65-2.39-3.57-4.89-7.21-8.45-9.27-.88,1.47.68,2.85-.18,4.26-3.36-2.43-6.62-4.7-10.36-5.62l-.48-.24c.07.19.13.39.2.58-.05,1.25,1.23,2.09.9,3.59-13.48-3.14-26.48-3.06-39.11,5.25,1.95,1.19,3.56,1.25,5.18,1.4,1.64.15,3.41-.58,5.28,1.07-3.92,1.47-7.74,2.22-11.32,5.36,5.16,2.66,9.99.97,14.77,1.01-2.73,2.39-6.21,3.09-8.43,6.75,2.6,1.03,5,.57,7.45.26,2.44-.31,4.83-1.78,7.84-.83-2.11,2.11-4.55,2.96-5.56,5.82,1.48.77,2.81.76,4.25.58,3.57-.45,6.88-2.19,10.38-2.91.23.29.46.58.69.87-1.26,1.26-2.71,2.37-3.03,4.88,3.49.04,6.43-1.57,9.44-2.75,1.92-.75,3.65-2.17,5.71-2.38.14.19.29.38.43.58-2.05,1.98-4.45,3.54-5.5,6.73-.1.17-.32.43-.28.49.21.4.44.2.64-.05,2.56-.14,4.75-2.14,7.55-2.36-.86,3.22-2.69,5.66-2.89,8.79,1.25,1.11,2.49-.48,3.74.09-.52,1.76-1.8,2.01-2.75,2.78-.22-.02-.43-.04-.65-.06q-3.24-.27-2.28-4.04c.64-2.48.37-2.83-1.83-2.42-.43.08-.86.14-1.29.17-2.83.18-3.03-.12-2.56-3.67.02-.19-.2-.42-.3-.63-1.89.52-3.76,1.09-5.66,1.54-3.27.78-4.24-.23-4.07-4.14-1.02-.67-1.89.22-2.76.52-2.33.79-4.69.91-7.06.68-2.39-.23-2.77-.99-2.4-4.13.05-.4.04-.76-.5-1.25-1.35,0-2.96.02-4.57,0-1.07-.02-2.15.03-3.18-.54-1.97-1.09-2.21-2.12-.9-4.15.44-.69,1.28-1.06,1.23-2.38-1.76-.32-3.54-.63-5.32-.98-2.13-.42-2.42-.84-2.77-3.85.92-1.49,2.65-1.5,3.69-3.01-.76-1.54-2.94-1.28-3.06-3.55Z"/>
      <path class="cls-8" d="M24.4,219.6c-.76,1.17-1.51,2.35-2.27,3.52"/>
      <path class="cls-8" d="M22.21,224.69c.34.09.57.33.63.77-.36-.08-.57-.34-.63-.77Z"/>
      <path class="cls-3" d="M116.39,288.75c.08.19.19.36.24.56.02.06-.1.18-.15.26-.06-.18-.14-.36-.18-.55-.02-.08.06-.18.09-.28Z"/>
      <path class="cls-1" d="M236.94,223.1c2.35-4.59,5.66-6.13,9.99-4.98,2.01.54,3.99,1.19,5.92,1.98,7.06,2.88,13.59,1.26,19.9-3.09,4.67-3.22,8.44-7.73,12.27-12.17,6.44-7.46,11.82-16.06,17.74-24.09,1.51-2.06,3.18-3.86,5.18-5.2.97,1.66-.49,2.83-.22,4.66,3.39-2.25,6.66-4.64,10.57-5.48.32,1.41-1.12,2.1-.56,3.69,13.27-2.2,26.61-3.48,39.08,5.51-3.34,2.42-7.16.12-10.88,2.3,3.99,2.06,8.11,2.21,11.66,5.19-5,3.11-9.94.98-14.9,1.17,2.55,2.71,6.26,3.21,8.5,6.53-1.91,1.24-4.4,1.44-7.48.81-2.42-.49-4.77-1.72-7.65-1.28,1.68,2.57,4.41,3.09,5.86,5.95-2.49,1.15-4.9.56-7.23.01-2.43-.57-4.8-1.51-7.18-2.38-.94-.35-1.86-.66-2.85-.54-.11-.38-.35-.58-.66-.54-.09.01-.17.25-.25.39.27.09.55.19.82.28.67,1.49,2.11,1.71,3.06,2.72.88.95,1.52,2.1,2.26,3.74-5.6-.16-10.12-3.37-14.99-4.99-1.17-1.22-2.41-2.22-4.23-1.51,1.19.77,2.39,1.54,3.58,2.31,1.55,1.43,2.98,3.02,4.25,4.82.34.49.75.96.69,1.98-2.8.3-4.95-2.67-7.78-2.57.21,2.32,1.73,3.71,2.2,5.71.23.99.97,2.09.45,2.99-.67,1.16-1.76.43-2.69.19-.31-.08-.62-.1-1.19-.18.45,1.88,1.79,2.17,2.75,2.96q.83,3.7-1.43,4.97c-.95-.69-1.89-1.37-2.84-2.06-.05-.21-.14-.4-.26-.55-.27-.62-.71-.87-1.28-.81-.1-.11-.2-.23-.3-.34.08.13.17.27.25.4.05.41.22.69.56.79.21.3.43.6.64.9.24,1.46,1.05,2.53,1.64,3.77,1.19,2.52,2.44,5.1,2.23,8.5-2.33-1.36-4.15-3.1-6.16-4.97-.14,2.2.92,3.55,1.27,5.17.37,1.71.83,3.34.34,5.21-2.33-1.4-3.24-4.14-5.46-6.15.74,3.16,1.43,5.62,1.86,8.15.44,2.53,1.54,5.07.62,7.92-2.24-1.36-3.22-4.02-5.21-5.88.74,7.95,1.62,15.47-.59,23.17-3.6-4.41-3.37-10.15-5.05-14.97-.63,7.04.91,14.29-1.85,21.49-2.42-3.39-3.56-6.96-5.03-10.28.25-.24.47-.57.75-.72,4.25-2.18,4.6-3.21,2.79-8.3-.17-.48-.34-.97-.56-1.43-.86-1.76-3.04-3.19-3.99-2.64-.97.56-1.4,2.84-1.23,4.97.21,2.78,1.56,5.17,1.65,7.97-1.24,2.41-.33,5.14-.74,7.67-.39.24-.79.47-1.18.71-2.18-2.14-3.74-5.1-6.15-6.94-.94-1.46-1.71-3.14-3.18-3.99-.67,1.2.18,1.83.33,2.64-1.65-.1-2.21,1.93-3.44,2.63-1.73-1.35-2.34-3.99-4.18-5.81-.41,2.7.75,4.81.29,7.01-2.89-2.74-4.87-6.22-5.66-10.61-.28-1.55-.48-3.15-1.24-4.42-.59-.97-.82-3.01-2.06-2.56-1.2.44-.49,2.27-.61,3.49-.05.24-.09.47-.13.71-.07.08-.21.18-.21.24.03.21.11.41.17.62.02,1.82.04,3.65.06,5.47-1.5.16-1.94-1.97-3.24-2.23h-.05c-.68-3.1-1.68-6.14-1.09-9.45.41-.31.83-.62,1.24-.93,1.48-.85,1.52-1.09.34-2.35.04-.37.09-.74.13-1.11.29.05.57.09.85.14.81.86,1.61,1.74,2.44,2.58.91.91,2.17,1.41,2.93.37,1.21-1.66,2.04-.77,2.99.08.7.63,1.42,1.18,2.26,1.48,1.1.38,1.7-.15,1.66-1.52-.04-1.75-.58-3.28-1.58-4.58-.95,1.25.56,2.57-.26,3.89-2.23-.61-3.43-3.39-5.53-4.34-.93,3.37-.96,3.42-2.98,1.48-1.47-1.41-2.83-2.98-4.66-4.92,0,2.06.03,3.36-.01,4.66-.03.87.26,2-.64,2.42-.99.47-1.61-.46-2.12-1.3-.44-.73-.82-1.55-1.1-2.4-.5-1.53-1.34-2.67-2.48-3.5q-.67-2.82-2.36-1.36c-2.36,2.02-4.08,1.8-5.79-.92-1.45-2.32-2.45-4.87-2.35-7.93.07-2.09,0-4.18-.02-6.28ZM281.11,238.01c-.02,2.1,1.28,4.31,3.55,5.4,1.66.8,2.95-.18,4.07-1.48,1.57-1.81,1.68-3.75.52-6.83-.98-2.61-2.86-4.21-4.72-4.05-.67.06-1.33.25-1.69.96-.85,1.67-1.76,3.33-1.73,6ZM331.16,190.64c1.35.18,2.58-.24,3.67-1.16,1.67-1.39,1.77-2.66.44-4.5-2.43-3.38-4.92-3.68-8.63-1.07-1.64,1.16-1.82,2.28-.58,4.06,1.33,1.9,2.99,2.97,5.1,2.67ZM290.11,218.42c-.04-2.33-2.78-5.02-4.83-4.61-1.16.23-2.37.69-2.74,2.32-.39,1.69.08,3.14,1.25,4.12.79.66,1.66,1.23,2.56,1.62,2.2.96,3.82-.56,3.76-3.44ZM269.08,235.07c1.33,0,2.34-.12,2.78-1.41.42-1.2.11-2.32-.64-3.24-.3-.37-.59-.78-.93-1.09-1.16-1.05-2.42-1.76-3.9-1.25-.96.33-.83,1.38-.86,2.28-.09,2.14,1.01,3.38,2.32,4.38.42.32,1.03.28,1.24.33ZM272.04,221.55c-1.77.03-2.68.96-2.56,2.61.13,1.78,2.06,3.75,3.66,3.72,1.65-.03,3.25-1.29,3.22-2.55-.05-2.03-2.09-3.82-4.32-3.78ZM262.35,235.89c-.04-2.48-1.63-4.72-3.25-4.75-1.27-.03-2.55,1.45-2.52,2.9.05,2.09,2.04,4.1,4.04,4.16,1.5.05,1.79-1.01,1.73-2.31ZM289.99,207.26c-.75-.04-1.72.2-1.73,2.07,0,1.94,2.25,4.79,4,4.99,1.16.13,1.87-.8,1.88-2.52.02-2.32-1.73-4.45-4.15-4.54ZM325.21,194.54c-.06-1.58-1.67-3.05-3.28-2.99-1.56.06-2.52,1.16-2.47,2.84.05,1.77,1.77,3.45,3.39,3.31,1.26-.11,2.42-1.66,2.37-3.16ZM310,189.1c1.39-.03,2.34-.37,2.91-.96.72-.76,1-3.07.42-3.94-.68-1.01-1.54-.73-2.32-.25-.95.58-1.89,1.22-2.77,1.93-.52.42-1.06,1.04-.81,1.93.22.81.84,1.13,1.51,1.21.42.05.85.06,1.08.08ZM300.17,220.08c-.94.2-1.62.93-1.35,2.13.32,1.36.9,2.64,1.48,3.87.41.87,1.17,1.13,1.96.9.98-.29,1.32-1.3,1.44-2.34.17-1.45-2.28-4.57-3.54-4.55ZM252.05,228.69c1.15,0,2.2-.27,2.35-1.94.14-1.55-1.44-2.86-3.23-2.82-1.15.02-2.19.29-2.34,1.95-.14,1.58,1.4,2.86,3.23,2.81ZM277.41,253.23c1.12-.05,1.76-1.07,1.74-2.78-.02-1.84-1.5-3.6-2.94-3.4-1.01.14-1.51.94-1.43,2.19.12,1.84,1.57,4.03,2.63,3.99ZM302.35,204.23c-.81.05-1.38.42-1.51,1.31-.17,1.13,1.59,3.22,2.79,3.32.69.06,1.29-.16,1.39-1.19.01-.13.01-.27-.02-.39-.51-1.55-1.4-2.59-2.64-3.05ZM296.17,242.36c-.16,2.34-.41,4.16.26,5.91.12.3.46.56.75.66.33.11.68-.22.7-.6.1-2.02.61-4.22-1.71-5.97Z"/>
      <path class="cls-1" d="M384.98,265.93c-5.35-2.57-10.2-6.27-14.34-11.01-2.32-2.65-4.48-5.99-4.56-10.38.24.26.49.51.73.77.22.27.44.53.66.8.22.26.43.53.65.79.04.1.06.21.12.29.03.04.12.03.18.04-.11-.1-.22-.2-.33-.29-.05-.46-.25-.76-.65-.79-.03-.5-.23-.78-.65-.8.12-.72-.02-1.28-.65-1.53,0,0-.05-.07-.05-.07-.02-.45-.22-.69-.59-.72,0,0-.06-.07-.06-.07-.03-.45-.22-.69-.59-.72,0,0-.05-.05-.05-.05-.14-.5-.35-.92-.83-.55-.18.14-.07.43.17.59-1.48.82-2.75,1.86-2.61,4.48-1.96-1.29-3.52-2.62-4.99-4.13-3.84-3.94-7.7-7.85-11.55-11.77-.06-.2-.16-.37-.31-.49-.24-.71-.64-1.22-1.24-1.47-1.12.51-1.12.81,0,2.16.14.22.32.33.55.35.12.12.26.18.41.19,1.45,3.09,3.87,5.13,5.65,7.88,6.43,9.92,12.23,20.28,16.02,32.13-.92.99-1.54.1-2.12-.29-1.7-1.14-3.34-2.41-4.99-3.65-2.18-1.64-3.74-3.83-4.6-6.86-.7-2.46-1.47-4.94-2.91-6.99-1.13-1.61-1.34-1.68-2.3-.11-1.46,2.38-1.45,2.35-3.06.31-1.27-1.61-2.59-3.15-3.89-4.72-.65-1.27-1.13-2.75-2.52-3.66-.12,2.01.71,2.83,1.43,3.72,1.27,3.94,3.01,7.66,3.66,11.89-.87,2.25-2.64,1.35-4.05,1.71-2.18-1.26-3.59-3.56-5.08-5.72-2.34-3.38-4.47-6.97-7.11-10.03-.12-.58-.4-1-.91-.72-.33.18-.29.69-.1,1.01.24.41.57.75.87,1.12,1.16,3.08,2.32,6.17,3.47,9.25,0,.43.16.76.46.98.06.27.11.54.17.82-.88,0-1.75,0-2.63.01-1.39-4.24-3.28-8.14-5.3-11.97-1.15-2.18-2.47-4.27-2.82-6.95.57-3.71-.13-7.18-1.41-10.5-.54-1.4-1.31-2.67-1.86-4.06-.48-1.21-.86-2.55.85-2.88,2.48,3.61,4.96,7.23,7.45,10.83.84,1.21,1.57,2.49,1.76,4.11-1.44,1.84-.38,3.39.53,4.74.73,1.09,1.79,1.36,2.71.06.74-.1,1.29.51,1.93.79.08.43.3.7.64.85-.15,1.9.73,3.04,1.95,3.92.21.26.43.52.64.79.22.26.44.52.66.79l.32.32c-.09-.13-.18-.26-.27-.39-.09-.41-.3-.69-.64-.8-.09-.41-.3-.68-.64-.79.11-1.87-.67-3.08-1.93-3.94-.11-.41-.31-.72-.68-.79.18-1.47-.61-2.38-1.26-3.44-2.48-4.07-4.9-8.19-7.34-12.3-.47-3.38-1.02-6.76.03-10.47,1.9,1.77,3.58,3.33,5.25,4.88.23,0,.46,0,.69,0,0,0-.03-.02-.03-.02.01.52.03,1.04.04,1.56-1.16.11-1.53,1.05-1.21,2.2.73,2.64,1.62,5.27,3.87,6.5,1.4.76,2.51,1.37,2.88,3.57.3,1.83,2.02,2.26,3.4,2.46,1.09.16,1.37-1,1.44-2.13,2.26,1.12,3.09,4.44,5.66,5.72-.09-1.88-1.06-2.6-1.72-3.53-2.59-3.64-5.19-7.26-7.79-10.89.03-.82-.18-1.73.55-2.29,1.1.61,1.64,2.41,3.81,2.29-2.14-3.34-4.36-5.51-7-7.11l.02.04c-.23-.36-.45-.73-.68-1.09-.04-.25-.15-.42-.35-.51-.3-.32-.59-.63-.89-.95-.22-.6-.54-1.17-.63-1.79-.17-1.17-.25-2.41.74-3.19.92-.71,1.6.03,2.33.61.8.64,1.6,1.35,2.63,1.38.23.27.47.55.7.82l-.04-.04c.06.48.29.76.68.83l-.03-.04c.06.48.3.74.68.83l-.03-.02c.76,1.8,2.09,2.95,3.32,4.17,3.33,3.26,6.74,6.41,10.09,9.64,2.42,2.33,4.56,5.1,7.31,6.89.14.15.37.45.41.41.43-.37.05-.53-.15-.73-.17-1.12-.87-1.78-1.5-2.45-2.56-2.74-5.25-5.31-7.71-8.17-1.82-2.12-4.32-3.42-5.43-6.43.07-.41.13-.82.2-1.24,1.13.92,2.24,1.88,3.4,2.73.95.7,1.72,2,3.07,1.5,0,0,.02.02.02.02.12,1.97,1.65,2.12,2.61,3.01,1.02.72,1.8,2.12,3.22,1.73h0c.16,1.43.84,1.89,1.94,1.58,0,0,.01.01.01.01.21,1.77,1.65,1.82,2.52,2.65.24.18.48.35.71.53,7.58,6.66,13.17,15.5,18.13,24.98,1.19,2.28,2.65,4.53,2.64,7.49h0ZM326.56,243.75c.03.09.06.2.11.27.03.04.11.04.17.06-.09-.11-.18-.23-.27-.34-.03-.09-.05-.2-.1-.27-.03-.05-.11-.04-.17-.06.09.12.17.23.26.35ZM351.24,249.28c.11.38.2.44.25.18,0-.03-.17-.1-.26-.16.02-.67-.07-1.27-.57-1.67-.06-.62-.18-1.2-.69-1.52-.54-.94-.68-2.36-1.96-2.4l.02.02c-.07-.19-.11-.51-.22-.54-.34-.11-.4.23-.43.55-.39.9-1.18,1.1-1.83,1.54-.79.54-1.53,1.16-1.3,2.42.23,1.26,1,1.99,2.01,2.31,1.78.56,2.52-.22,3.05-3.13.22.05.43.1.65.16.19.26.37.52.56.78.04.65.21,1.2.74,1.48ZM358.4,258.18c-.05-1.56-1.05-3.23-1.98-3.11-.95.12-1.55.93-1.73,2.02-.17,1.06,1.48,3.27,2.37,3.25,1.18-.02,1.35-1.03,1.34-2.17ZM369.98,248.74l-.02.28.28-.11-.27-.17Z"/>
      <path class="cls-1" d="M320.8,255.71c2.39,6.76,5.08,13.39,6.13,20.72.53,3.7,1.1,7.44.63,11.69-4.47-3.04-7.37-7.73-11-11.61,2.61,7.18,2.61,14.56,2.12,22.37-1.49-.73-2.07-2.13-2.77-3.38-.42-.76-.86-1.52-1.31-2.26q-1.82-3-4.69-1.15c-3.06-5.33-3.41-12.1-6.19-17.62-.31,2.98.64,5.71.99,8.53.36,2.86.76,5.72.91,8.6.16,3.02.03,6.06.03,9.35-1.27-.86-2.55-1.02-3.22,1.19-.82-1.11-1.44-2-2.11-2.84-.47-.59-1.26-1.23-1.7-.63-1.61,2.21-2.12.13-2.81-.96-1.48-2.31-2.4-4.98-3.22-7.71-.43-1.44-.52-3.07-1.53-4.39-.99,3.87,2.02,8.05-.82,11.58-.27,4-.42,8.02-1.48,12.48-4.45-5.52-7.36-11.33-8.43-18.41,1.89-.05,1.46-1.77,1.48-3.11.01-1.29-.49-2.44-1.49-2.71-1.03-.28-1.06,1.44-1.8,1.92-1.1-1.32-.52-3.66-1.95-4.77-.04-.6-.08-1.21-.13-2-.66.95-.49,1.51.17,1.96.25,4.55.94,9.07.64,13.67-.13,2.08-.29,4.1-1.19,6.51-3.18-3.87-4.63-8.42-5.97-13.04.91-.91.52-2.18.63-3.32.12-1.27-.3-2.67.59-3.76.27,1.17.41,2.41,1.34,3.66.17-3.41-.99-6.26-.59-9.26.57-.24.72-1.1,1.57-1.07,4.05.17,4.17,0,5.64-4.85,1.07.44,1.58,1.62,2.31,2.54,1.47,1.85,2.99,3.72,5.41,3.27.27.77.78,1.23,1.35,1.64,3.15,2.3,3.66,2.18,6.09-1.41.14-.2.27-.41.43-.6,1.02-1.25,1.63-1.22,2.11.43.69,2.34,1.68,4.58,1.74,7.16-1.08.17-2.05.65-2.89,1.5-.91.92-1.34,2.13-.85,3.45.53,1.42,1.32,2.82,2.73,2.91,1.17.08,1.48-1.22,1.77-2.36.06-.22.27-.37.41-.56.17.66-.16,1.68,1.04,1.75-.24-5.52-1.17-10.81-2.47-16.05-.31-1.26-1.28-2.51-.46-4,.9,1.05,1.71.9,2.3-.4.56-1.23,1.02-2.53,1.52-3.8.52-.11.61-.31.11-.66.07-.49.14-.98.2-1.47,1.53-.8,1.37-2.66,1.75-4.18,2.55,4.68,4.38,9.74,5.44,15.22-.99-.04-1.68.43-1.51,1.75.16,1.21.32,2.61,1.62,2.84.63.11.85-.56.98-1.2,1.43-3.68.83-7.16-.67-10.56.08-.09.23-.21.22-.27-.63-3.37-.34-6.56.2-10,.44-2.78.89-4.92,2.8-6.47,1.16.71,1.54,2.13,2.07,3.4,1.68,4.09,3.33,8.21,4.99,12.32.28.7.49,1.5,1.3,2.09.06-2.27-.57-3.95-1.15-5.61-1.51-4.32-3.09-8.61-4.64-12.91.78.07,1.36-.52,2.02-.86,1.21,1.8,1.72,4.19,3.27,5.69ZM316.1,267.87c-.4-1.33-.46-2.95-1.44-4.15-.78-.96-1.48-.82-2.21.1-1.26,1.6-.92,4.24.8,5.78.51.45,1.12,1.05,1.76.71.74-.39.93-1.36,1.08-2.44ZM286.99,294.5c-.03-1.16-.43-2.39-1.65-2.73-.75-.21-1.73,1.69-1.54,3.03.18,1.26.35,2.84,1.83,2.66,1.22-.14,1.37-1.44,1.37-2.96ZM323.06,275.55c-.7.1-1.05.67-1.01,1.53.04.95-.46,2.31.59,2.68.95.33,1.57-.75,1.7-1.77.13-1.02-.28-1.98-1.29-2.44Z"/>
      <path class="cls-1" d="M372.68,194.81c13.93,3.68,27.02,9.95,39.15,19.11,2.14,1.62,4.4,3.16,5.89,5.96-8.23-2.77-16.5-5.16-24.79-7.82.05,1.72,1.21,2.22,2.02,2.92,1.59,1.35,3.26,2.57,4.98,3.68,8.79,5.72,16.08,13.69,22.88,22.43.22.28.42.61.57.95.08.2.04.48.07,1.05-5.05-1.16-9.9-2.7-14.24-6.09-1.04-.81-1.49-2.24-2.27-3.31-.7-.96-1.41-2.3-2.66-1.68-1.01.51-.35,1.9-.58,2.85-.06.23-.19.43-.36.78-1.37-.3-2.56-1.21-3.8-1.96-5.79-3.51-11.55-7.05-17.76-9.46-2.94-1.14-5.46-3.49-7.88-5.86-.6-.58-1.17-1.15-1.89-1.45-2.72-2.71-6.16-4.07-8.74-7.03-.28-2.63-1.6-4.13-3.54-5.08-1.36-.66-1.92-1.71-.61-3.21,4.55,2.17,9.1,4.32,13.63,6.54.85.42,1.88.71,2.16,2.07-.25,2.87.5,5.13,2.45,6.11,1.72.86,3.57,1.14,5.11-.78.37-.47.83-.84,1.24-1.25,2.05,1.13,4.09,2.25,6.13,3.39,2.71,1.52,5.17,3.7,8.08,4.72.22.27.44.53.67.8.27.57.73.75,1.22.86.33.55.8.73,1.34.74.22.25.45.51.67.76.22.25.45.5.67.76.24.33.41.99.87.27-.28-.1-.56-.2-.84-.3-.06-.43-.29-.68-.62-.82-.21-.27-.43-.54-.64-.8-.26-.61-.73-.8-1.24-.88-.19-.21-.38-.42-.57-.64-.31-.65-.8-.89-1.39-.93-.19-1.42-1.24-1.73-2.05-2.29-7.25-4.97-14.73-9.35-22.34-13.44-2.95-1.58-6.1-2.56-8.86-4.68.46-.9.92-1.81,1.38-2.71.95.16,1.97.08,2.83.51,4.63,2.31,9.48,3.96,13.83,7.09,1.28.92,2.57,1.87,4.04,2.3.56.64,1.35,1.28,1.83.37.63-1.2-.53-1.28-1.1-1.63-.18-.11-.4-.1-.61-.14-1.11-1.94-3.02-2.31-4.55-3.43-3.57-2.64-7.62-4.03-11.32-6.36,1.15,0,2.29,0,3.44,0,.09.11.19.22.28.32-.08-.12-.17-.24-.25-.36-.58-1.05-2.02-1.27-1.93-2.97ZM392.99,204.94c-2.29-.07-3.56.69-3.3,1.9.39,1.84,1.74,2.03,3.04,2.05,1.45.03,2.54-.97,2.38-2.31-.21-1.76-1.42-1.6-2.12-1.64ZM392.11,211.34c.06-.48-.22-.69-.5-.83-.33-.17-.72.03-.78.35-.1.52.12.97.64,1.05.37.06.55-.18.64-.57Z"/>
      <path class="cls-1" d="M371.89,218.67c1.13,1.87,2.92,2.64,4.41,3.91,5.91,5.05,11.57,10.5,17.06,16.21,1.39,1.45,2.7,3.02,3.76,4.88.76,1.34,2.09,2.36.56,4.31-.72.92.29,1.93.88,2.63,1.69,2.03,3.47,3.95,5.17,5.97,1.77,2.12,3.29,4.48,4.39,7.2-.78.97-1.51.5-2.15.17-2.59-1.32-5.07-2.89-7.45-4.73-1.15-.89-1.87-2.12-2.45-3.57-.8-2.01-1.57-4.06-2.5-5.98-.87-1.79-1.69-1.73-2.67-.01q-1.64,2.87-3.85.91c-2.45-2.17-4.81-4.42-6.49-7.6-.72-1.36-1.75-2.55-3.17-.96-.75.84-1.14.02-1.58-.47-3.48-3.94-7.65-6.68-11.55-9.89-.23-.21-.45-.42-.68-.63-.8-.59-1.5-1.72-2.6-.74,0,0-.01-.01-.01-.01.13-1.95-.65-2.23-1.94-1.58h0c.46-.97-.09-1.51-.63-1.92-.82-.63-1.7-1.15-2.55-1.71-.76-.8-1.48-1.77-2.65-1.11,0,0-.02-.02-.02-.02.18-.56.07-1.1-.33-1.37-2.04-1.41-3.79-3.46-6.14-4.2v.04c-.22-.33-.44-.67-.66-1-.56-1.44-1.39-2.63-2.31-3.74-.73-.88-1.33-1.96-.5-3.09.79-1.07,1.76-1.95,3.11-1.13.86.52,1.68,1.22,2.71,1.1.41.54.89.85,1.51.77h0c.46,1.53,1.88,1.9,2.58,3.15-.17,2.39.66,4.02,2.47,4.99,1.62.87,2.22.15,2.13-1.84,2.06.7,4.02,1.57,5.25,3.92-.27,3.81.66,7.01,3.51,8.89,2.89,1.9,4.52.7,4.86-3.31,1.23.55,2.25,1.74,3.63,1.86.24.55.45,1.17,1.08,1.1.14-.01.36-.29.36-.45-.01-.85-.63-.83-1.08-1.03-.56-1.21-1.56-1.77-2.43-2.55-5.23-4.72-11.21-7.93-16.6-12.31.16-1.37-.84-1.69-1.44-2.37-.39-.45-.88-.93-.78-1.62.15-1.04.94-.84,1.56-.92.32-.04.64-.07.97-.11.59.07,1.18.15,1.77.22l-.04-.02c.29.37.52.89.87,1.1,4.38,2.57,8.49,5.7,12.68,8.67ZM382.37,235.05c.03.11.05.24.11.32.04.05.14.04.22.05-.1-.14-.2-.27-.29-.41-.21-.66-.67-.85-1.17-.98-.15-.68-.4-1.2-1.07-1.11-.08.01-.21.18-.21.28.03.83.55,1.01,1.08,1.13.32.59.79.77,1.34.72ZM377.87,230.45c-.39,0-.66.14-.59.64.09.72.54,1.07,1.04,1.3.32.15.69-.02.7-.42.02-.92-.52-1.32-1.14-1.52Z"/>
      <path class="cls-4" d="M356.61,208.7c-.32.04-.64.07-.97.11-.62.08-1.41-.13-1.56.92-.1.69.39,1.17.78,1.62.6.68,1.6,1,1.44,2.37-2.02-.42-3.53-2.69-5.75-2.42,0,0,0,0,0,0-.32-.79-.91-.8-1.51-.78-1.03.11-1.86-.58-2.71-1.1-1.35-.82-2.33.06-3.11,1.13-.83,1.13-.23,2.21.5,3.09.92,1.11,1.75,2.3,2.31,3.75.09.47.28.84.67,1,0,0,0-.04,0-.04,0,.45,0,.9,0,1.35-.07.41-.13.82-.2,1.24-1.31.1-2.15-1.05-3.15-1.77-1-.72-1.86-1.85-3.19-1.55,0,0,.03.02.03.02-.09-.44-.33-.7-.68-.83,0,0,.03.04.03.04-.23-.28-.46-.55-.68-.83,0,0,.04.04.04.04-.23-.27-.47-.55-.7-.82-1.03-.03-1.83-.74-2.63-1.38-.73-.58-1.42-1.32-2.33-.61-1,.77-.92,2.01-.74,3.19.09.62.42,1.2.63,1.79-.53,1.47.48.78.89.95.19.09.31.26.35.51.05.52.24.92.68,1.09,0,0-.02-.04-.02-.04,0,2.65,2.2,3.14,3.19,4.82-.73.57-.52,1.47-.55,2.3-1.26-.52-1.94-1.9-2.84-2.94-1.08-1.24-2.14-2.46-3.74-2.53,0,0,.03.02.03.02-.23-.67-.46-.49-.69,0-1.67-1.56-3.34-3.11-5.25-4.88-1.05,3.72-.49,7.09-.03,10.47-.92-.16-1.4-.93-1.92-1.81-.68-1.14-1.52-2.13-2.33-3.13-.55-.69-1.11-.6-1.57.22-1.71.32-1.33,1.67-.85,2.88.55,1.4,1.32,2.66,1.86,4.06,1.28,3.32,1.99,6.79,1.41,10.5-1.6-.46-2.2-2.53-3.59-3.32-.1-.1-.2-.2-.3-.3.08.12.16.25.24.37-.35,2.06,1.61,3.21,1.39,5.23-1.06,1.71-2.43,3.25-1.96,5.74,0,.54,0,1.07,0,1.61-.66.34-1.25.93-2.02.86-1.52-2.03-2.64-4.39-3.73-6.77-.51-1.12-.79-2.47-1.98-2.91.08-1.3-.29-2.63.2-4.04.41.14.83.2,1.18.43,1,.67,2.03,2.23,3.15.97,1.01-1.13.51-2.97.32-4.51-.06-.51-.3-.99-.47-1.47-.89-2.54-1.78-5.08-2.67-7.62q2.27-1.27,1.43-4.97c.54,0,1.09.06,1.62-.01,1.98-.26,2.14-.53,1.77-2.96-.18-1.16-.39-2.31-.59-3.51.98-.94,1.88.11,2.74.27,3.28.61,3.8.02,3.05-4.43,1.73.51,3.36.92,4.96,1.48.96.34,1.91.43,2.88.38,2.6-.13,2.97-.73,2.64-4.36,2.17-.03,4.13,1.45,6.27,1.25.64-.06,1.3,0,1.94-.02,3.68-.11,4.06-.65,3.64-5.51,1.73,0,3.43-.08,5.13.03,1.45.09,2.8-.32,4.09-.97,1.41-.71,1.49-1.46.49-3-.59-.9-1.54-1.44-1.94-3.05,2.08-.04,4.01-.58,5.97-.96.92-.18,1.67-.57,2.19-1.48.72-1.25.76-2.42-.43-3.37-.89-.71-2.02-.95-2.78-2.29.7-1.09,1.82-1.16,2.76-1.64,0,0-.02.03-.02.03.81.06,1.7-.18,2.28.84.32,1.1,1.32,1.73,1.37,3.01-.65,1.25.42,1.26.82,1.41,2.49.96,5.01,1.8,7.53,2.68.57.07,1.09.26,1.32,1-.08,1.7,1.35,1.92,1.93,2.97l-.03.04c-1.15,0-2.29,0-3.43,0-2.2.27-4.18-1.5-6.51-1.35.28,1.32,1.62,1.35,1.55,2.64-.46.9-.92,1.81-1.38,2.71-1.5-.06-2.82-.87-4.21-1.4-.86-.33-1.44-.05-1.47,1.19-1.31,1.5-.75,2.55.61,3.21,1.94.94,3.26,2.45,3.54,5.08-1.68-.09-3.2-1.32-4.94-.99,0,0,.04.02.04.02-.52-.87-1.1-1.07-1.77-.22Z"/>
      <path class="cls-4" d="M271.31,282.62c-.88,1.09-.46,2.49-.59,3.76-.11,1.14.28,2.41-.63,3.32-1.38-2.03-1.27-4.67-1.88-7.01-.16-.62-.15-1.3-.3-1.93-.12-.51-.44-.92-.91-.98-.52-.07-.73.42-.94.89-.54,1.22-.45,2.56-.46,3.87-.02,3.07-.77,5.91-1.53,8.7-1.24.09-1.34-1.04-1.66-1.77-1.67-3.87-2.63-8.05-3.36-12.31-.13-.77-.24-1.55-.42-2.3-.16-.64-.45-1.25-1.08-1.29-.64-.03-.88.54-1.1,1.19-.76,2.28-1.46,4.62-3.1,6.59-3.63-6.19-2.88-13.62-4.39-20.37-2.86,2.38-2.98,2.42-4.05-1.49-1.17-4.26-2.98-7.82-6.14-10.29-4.24-3.31-5.83-8.32-5.61-14.2.16-4.22,1.09-8.29,2.51-12.17.27-.74.66-1.35,1.26-1.74.01,2.09.09,4.19.02,6.28-.11,3.06.9,5.61,2.35,7.93,1.71,2.73,3.43,2.94,5.79.92q1.69-1.45,2.36,1.36c-.13.21-.37.42-.37.62.11,4.47,3.21,8.63,6.87,9.24-.59,3.31.41,6.35,1.09,9.44-1.9-.52-1.85-3.41-3.45-4.33-.84,1.28.84,2.49-.07,3.83-1.79-1.39-2.93-3.62-4.82-6.03.35,4.01,2.21,5.93,4.05,7.56,1.31,1.16,2.57,2.29,3.65,3.77,1.64,2.25,3.47,4.03,6.4,2.19.36,3.24.4,6.12.73,8.95.68,5.9.54,5.93,1.78,7.71-.25-4.55-.84-9.06-.95-14.14,2.49,2.09,3.67,5.35,6.7,4.81.79-.14.9.88,1.02,1.69.38,2.58.8,5.14,1.2,7.71ZM255.09,271.27c.07-1.47-.14-2.4-1-2.61-.65-.16-.86.59-.85,1.29,0,.9-.07,1.97.94,2.11.6.08.91-.53.92-.79Z"/>
      <path class="cls-1" d="M359.36,185.87s.01-.03.02-.03c.11-1.83-.59-3.22-2.31-4.66,8.85.06,16.87,1.23,24.96,3.48-1.43,1.18-3.23-.38-4.52,1.7,8.26,3.28,16.81,4.98,24.65,10.14-.7.88-1.45.57-2.1.55-4.85-.13-9.71.05-14.52-.8-1.27-.22-2.54-.52-3.8-.87-2.8-.79-5.58-1.63-8.37-2.45-3.23-2.15-6.87-2.3-10.36-3.21-.06-1.28-1.05-1.91-1.37-3.01,6.69,1.37,13.33,3.24,20.46,4.15-.6-1.2-1.19-1.25-1.67-1.42-5.92-2.02-12-3.1-18.05-4.26-1-.19-2.17-.6-3.01.69Z"/>
      <path class="cls-7" d="M329.85,259.6c.88,0,1.75,0,2.63-.01.47.38.56.95.54,1.58-.91.12-1.32.75-1.2,1.84.16,1.49,1.12,1.28,1.95,1.32,1.5,4.14,1.67,8.54,1.94,12.83-1.04.73-1.26-.25-1.69-.74-4.47-5.04-7.25-11.6-10.6-17.65-.11-.2-.08-.51-.11-.77.32.06.63.14.95.19,1.85.28,4.04-.54,5.06,2.47.07.21.47-.6.54-1.07ZM330.11,263.04c.07-.05.19-.09.21-.17.03-.1.01-.27-.04-.33-.17-.2-.3-.12-.31.22,0,.09.09.19.14.28Z"/>
      <path class="cls-6" d="M329.85,259.6c-.08.47-.47,1.28-.54,1.07-1.01-3.01-3.2-2.2-5.06-2.47-.32-.05-.63-.12-.95-.19-.88-.69-1.07-2.49-2.5-2.3-1.56-1.5-2.07-3.9-3.28-5.69,0-.54,0-1.07,0-1.61,1.72,1.45,2.49,3.89,3.93,5.64.18.48.39.45.63.07.78-.53.46-1.91,1.25-2.43.33-.16.54-.45.6-.88-1.04-3.08-2.36-5.92-4.45-8.14.22-2.01-1.73-3.17-1.39-5.23l.06-.07c1.39.79,1.99,2.86,3.59,3.32.34,2.68,1.66,4.77,2.81,6.95,2.02,3.83,3.91,7.73,5.3,11.97Z"/>
      <path class="cls-2" d="M358.34,208.9c1.74-.33,3.26.9,4.94.99,2.58,2.96,6.02,4.32,8.74,7.03-.04.58-.08,1.16-.12,1.75-4.19-2.98-8.3-6.11-12.68-8.67-.35-.21-.58-.73-.87-1.1Z"/>
      <path class="cls-7" d="M340.71,262.88c1.41-.35,3.18.54,4.05-1.71,1.01,1.77,1.17,3.84,1.7,6.4-2.55-1.03-4.31-2.56-5.75-4.69Z"/>
      <path class="cls-6" d="M363.01,189.72c3.49.91,7.13,1.06,10.36,3.21-.7.2-1.54-.1-2.01.88-2.51-.88-5.03-1.72-7.53-2.68-.4-.15-1.47-.16-.82-1.41Z"/>
      <path class="cls-4" d="M278.53,287.37c.74-.48.76-2.21,1.8-1.92.99.27,1.5,1.42,1.49,2.71-.01,1.35.42,3.07-1.48,3.11-1.14-.93-1.52-2.39-1.81-3.9Z"/>
      <path class="cls-6" d="M314.27,204.09c-1.19-.77-2.39-1.54-3.58-2.31,1.82-.71,3.05.3,4.23,1.51-.21.26-.43.53-.64.79Z"/>
      <path class="cls-1" d="M333.77,264.33c-.83-.04-1.79.17-1.95-1.32-.12-1.1.29-1.73,1.2-1.84.51.96.76,2.02.75,3.16Z"/>
      <path class="cls-6" d="M341.11,249.28c-.72-.89-1.55-1.7-1.43-3.72,1.39.92,1.87,2.39,2.52,3.66-.36.02-.73.03-1.09.05Z"/>
      <path class="cls-4" d="M328.38,248.54c-.29-.37-.62-.71-.87-1.12-.19-.32-.23-.83.1-1.01.51-.28.78.15.91.72-.05.47-.1.93-.14,1.4Z"/>
      <path class="cls-2" d="M363.57,231.02c.23.21.45.42.68.63-.01.6-.03,1.21-.04,1.82-.24-.18-.48-.35-.71-.53.03-.64.05-1.28.08-1.92Z"/>
      <path class="cls-2" d="M364.14,242.23c-.24-.16-.34-.45-.17-.59.48-.37.69.05.83.55-.22.01-.44.03-.66.04Z"/>
      <path class="cls-2" d="M366.82,245.31c-.24-.25-.49-.51-.73-.77.04-.24.06-.48.05-.72.63.25.77.8.65,1.53,0,0,.04-.05.04-.05Z"/>
      <path class="cls-1" d="M384.98,265.94c.1.1.2.19.3.29-.06,0-.14.01-.17-.03-.05-.07-.08-.18-.11-.27,0,0,0,.01,0,.01Z"/>
      <path class="cls-2" d="M364.85,242.24c.37.03.56.27.59.72-.2-.24-.39-.48-.59-.72Z"/>
      <path class="cls-7" d="M332.32,258.77c-.3-.22-.46-.55-.46-.98.15.33.31.65.46.98Z"/>
      <path class="cls-2" d="M365.5,243.03c.37.03.56.27.59.72-.2-.24-.39-.48-.59-.72Z"/>
      <path class="cls-1" d="M128.72,174.66c3.74.93,7,3.19,10.36,5.62.85-1.4-.7-2.79.18-4.26,3.56,2.06,6.06,5.7,8.45,9.27,5.89,8.78,12,17.26,19.07,24.65,3.28,3.43,6.68,6.65,10.65,8.86,5.19,2.89,10.49,3.71,16.03,1.5,2.45-.98,4.96-1.8,7.48-2.45,4.08-1.05,7.46,1.17,9.16,5.8-.52,1.93-.27,3.91-.26,5.87.01,2.02-.31,3.86-1.08,5.67-.8,1.9-1.52,3.78-3.39,4.44-1.84.65-2.73-1.01-3.82-2.23-.8-.9-1.35-.5-1.72.55-.21.59-.32,1.24-.47,1.86-1.02.55-1.1,1.85-1.59,2.84-.96,1.98-1.94,4.04-4.15,4.46-.5-2.4.23-4.84-.64-7.33-2.51,2-3.96,5.27-6.55,6.07-1.18-.36-.19-1.91-1.21-2.2q-3.75,3.2-5.76,3.52c-.15-1.19.71-2.22.4-3.43.32-.1.37-.22.16-.3-.02,0-.1.2-.15.31-.19.12-.42.19-.55.38-.93,1.34-1.95,3.11-1.04,4.54,1.04,1.62,2.5.31,3.72-.56.68-.48,1.41-1.52,2.28-.49,1.68,2,3.12.71,4.59-.39.85-.63,1.27-2.06,2.63-2.15.05,2.43.11,4.79,2.66,5,.39,2.61-1.32,4.76-1.08,7.34-.85,1.86-1.35,4.02-2.97,5.22-.38.05-.76.1-1.14.15l-.2-.81c.2-.66.09-1.24-.28-1.77.1-1.73,1.05-3.49-.1-5.18-1.44-1.47.82-3.42-.35-4.85-3.03,6.33-4.71,13.59-8.88,19.14l-.05-.15c-.1-.3-.2-.6-.3-.9.21-2.36.69-4.69.41-7.09.3-.11.35-.22.16-.26-.02,0-.08.2-.13.31-1.61,1.07-2.13,3.22-3.22,4.8-2.92-.31-2.83-.33-3.53-3.8-.27-1.36-.78-.64-1.04.2-.33.39-.66.78-1,1.16-.15.04-.24.14-.29.32-2.05,2.52-4.07,5.09-6.48,7.12-1.18.99-1.68.67-1.96-1.04-.29-1.73.39-3.7-.96-5.4-2.55,2.76-3.25,7.08-5.95,10.18-2.36-7.58-1.43-14.97-1.18-22.42-2.15,5.03-1.64,11.35-5.48,15.91-2.23-7.51-1.35-14.91-.88-22.72-1.87,1.68-2.9,3.96-5.04,5.42-.08-2.42.03-4.27.37-6.2.51-2.95,1.77-5.69,1.68-8.8.26-.09.39-.31.23-.51-.14-.18-.32-.01-.39.31-1.89,1.33-2.38,4.66-4.83,5.29-1.03-3.83,1.46-6.75,1.61-10.29-1.2.24-1.56,1.41-2.31,1.88-1.01.63-2.07,2.32-3.11,1.27-1.05-1.07,0-2.7.48-3.96.93-2.43,1.97-4.79,3.13-7.59-1.73.34-2.34,1.8-3.35,2.42-2.61-.38-1.86-2.79-1.91-4.71.95-.77,2.24-1.02,2.75-2.78-1.25-.56-2.5,1.02-3.74-.09.2-3.13,2.03-5.57,2.89-8.79-2.8.22-5,2.22-7.55,2.36-.12-.15-.24-.3-.36-.44,1.06-3.19,3.45-4.75,5.5-6.73.18-.03.35-.09.51-.18,1.07-.18,1.79-.85,2.28-2.08-1.16-.61-1.72.21-2.33.84-.3.28-.59.56-.89.84-2.07.21-3.8,1.63-5.71,2.38-3.01,1.18-5.95,2.79-9.44,2.75.32-2.51,1.76-3.62,3.03-4.88,1.12-.6,2.34-1.03,3.15-2.4-.35-.15-.58-.35-.71-.28-1.05.57-2.09,1.2-3.13,1.81-3.51.72-6.81,2.46-10.38,2.91-1.44.18-2.77.19-4.25-.58,1.02-2.87,3.45-3.72,5.56-5.82-3.01-.94-5.4.53-7.84.83-2.45.31-4.85.77-7.45-.26,2.22-3.66,5.71-4.36,8.43-6.75-4.78-.04-9.61,1.64-14.77-1.01,3.59-3.14,7.4-3.9,11.32-5.36-1.87-1.65-3.64-.91-5.28-1.07-1.62-.15-3.23-.21-5.18-1.4,12.63-8.32,25.63-8.39,39.11-5.25.32-1.5-.95-2.33-.9-3.59.09-.11.19-.23.28-.34ZM164.97,235.09c0-.75.05-1.41,0-2.06-.23-2.4-1.59-3.39-3.41-2.53-2.83,1.33-5.1,6.91-4.3,10.51.22.99.67,1.56,1.49,1.83,1.96.65,3.59-.02,4.82-2,1.08-1.74,1.75-3.61,1.41-5.75ZM117.42,190.66c1.01-.01,4.83-2.41,5.13-3.66.31-1.31-2.24-3.98-4.68-4.83-.51-.18-1.06-.23-1.6-.22-2.54,0-4.56,1.99-4.54,4.43.02,2.28,1.84,4.07,4.33,4.28.22.02.43,0,1.36,0ZM162.4,255.77c.09-1.12-.06-2.79-1.54-3.73-1.22-.78-2.32-.12-3.31.69-1.72,1.4-2.76,6.24-1.93,8.55.98,2.71,3.38,3.22,4.87.9,1.05-1.65,1.82-3.55,1.91-6.4ZM157.1,218.93c-.18,1.65.4,3.1,1.93,3.19,1.7.1,3.41-.43,4.6-2.15.9-1.3,1.08-4.17.31-5.14-1.07-1.35-2.43-1.5-3.85-.94-2.08.81-2.99,2.32-2.98,5.05ZM181.16,229.99c0-1.85-1.29-3.13-2.8-2.62-1.5.51-2.65,1.72-3.4,3.36-.43.93-.5,2.07.07,2.97.62.99,1.54,1.38,2.57,1.23,1.54-.22,3.57-3.05,3.57-4.94ZM189.64,233.89c.02-.95-.13-1.84-.83-2.39-.8-.62-1.63-.58-2.4.06-1.19.97-2.05,2.31-2.43,3.99-.37,1.63.76,3.32,2.02,3.16,1.59-.2,3.64-2.9,3.65-4.81ZM124.78,191.42c-1.84-.04-3.16,1.14-3.28,2.93-.12,1.73,1.11,3.32,2.57,3.35,1.73.03,3.85-1.95,3.8-3.54-.04-1.48-1.41-2.7-3.09-2.73ZM144.7,227.02c1.88.18,4.44-3.76,3.82-5.83-.47-1.57-1.71-2.08-2.8-1.08-.77.71-1.46,1.56-2.2,2.33-.81.84-.7,1.86-.36,2.88.29.84.6,1.74,1.53,1.71ZM156.95,206.68c-2.1-.14-4.36,3.86-3.54,6.3.33.98.92,1.45,1.8,1.03,1.69-.8,2.93-2.21,3.53-4.31.39-1.36-.6-2.94-1.79-3.02ZM139.55,188.05c-.04-.32-.04-.59-.12-.82-.57-1.64-3.69-3.35-5-2.76-1.18.53-1.55,2.12-.63,3.14.96,1.07,2.14,1.88,3.44,2.05.99.13,1.9-.37,2.32-1.61ZM170.03,253.26c1.08-.1,2.55-2.39,2.46-3.82-.1-1.57-1.1-1.78-2.12-1.77-1.54.03-2.28,1.11-2.19,3.09.07,1.53.61,2.48,1.85,2.49ZM195.22,224.76c-1.44-.06-2.95,1.2-2.75,2.44.22,1.42,1.08,2.17,2.26,2.24,1.25.08,2.68-1.47,2.55-2.81-.14-1.44-1.01-1.84-2.06-1.86ZM146.07,206.02c-.12-.96-.54-1.64-1.41-1.74-1.16-.14-2.41,1.49-2.37,3.02.03,1.17.6,1.59,1.46,1.52,1.11-.09,2.32-1.57,2.31-2.8ZM151.11,242.44c-1.78,1.38-2.31,3.09-2.33,5.14,0,.66.07,1.35.73,1.53.74.2,1.31-.27,1.53-1.05.48-1.72.37-3.48.08-5.62Z"/>
      <path class="cls-1" d="M80.34,234.04c-2.39.92-4.18,3.05-6.25,4.6-1,.75-1.8,1.88-3.03,2.38-.58-1.81,1.29-3.88-.42-5.57-1.09,1.37-2.27,2.67-2.71,4.42-1.32,5.37-4.85,8.18-8.3,11.1-.53.44-1.07.86-1.39,1.13-.64.16-.84-.16-1.04-.47-2.14-3.32-2.91-3.3-4.59.19-.87,1.79-1.68,3.62-2.52,5.43-1.75-.34-3.27-1.3-4.72-2.49,1.13-1.41,2.27-2.81,3.4-4.22.64-.79,1.31-1.87.48-2.72-1.46-1.51-.51-2.52.26-3.55,2.98-4.03,6.3-7.61,9.82-10.9,4.52-4.22,8.79-8.85,13.58-12.62.28-.22.53-.44.5-1.21-.54-.67-1.23-.37-1.81.16-4.85,4.4-10.94,5.56-16.07,9.21-.57.4-1.17.8-1.5-.4-.66-2.41-1.64-1.42-2.57-.31-1.77,2.12-3.38,4.47-5.53,6.07-.55.4-1.1.8-1.29.94-.68.25-.82.12-.87-.22-.18-1.12,0-2.64-1.25-2.86-1.25-.22-1.87,1.22-2.5,2.2-4.12,6.4-10.22,6.97-16.63,8.94,1.37-2.49,2.3-4.23,3.58-5.65,6.78-7.59,13.8-14.78,22.02-20.01,2.19-1.4,3.91-3.5,5.67-5.56,0,0,0,0,0,0,1.58.55,2.69-.77,3.82-1.62,6.95-5.2,14.58-8.45,22.13-11.97.05,1.41.1,2.83.16,4.24-9.54,4.35-18.75,9.59-27.56,15.83-1.41,1-3.24,1.49-3.75,3.84-.41.02-.82.05-1.22.07-.41.17-.78.57-.55,1.02.38.71.82.27,1.17-.2l.6-.88c2.11-.32,3.73-1.96,5.53-3.11,2.67-1.7,5.18-3.77,8.07-4.95.61.48.81,1.6,1.71,1.62,1.62.04,5.28-3.29,6.06-5.5,4.96-3.92,10.5-6.11,16.12-8.08,1.15.42,1.87,1.18.53,2.24-1.59,1.26-2.72,2.76-2.98,5.11-1.96,2.6-5.05,3.35-7.04,6.2,1.08.75,1.77.07,2.51-.42,1.6-1.08,3.23-2.09,4.81-3.2,1.94-1.37,4.2-2.08,5.81-4.13.71.15,1.64-.32,2.09.61.56,1.16-.26,1.92-.84,2.68-.65.86-1.48,1.57-1.58,2.87-2.12,1.51-4.21,3.07-6.36,4.51-5.37,3.61-10.57,7.52-15.43,12.09-.68.64-1.45,1.15-1.68,2.27-.47.2-.94.4-1.15,1.03-.33.12-.57.36-.65.79-.36.11-.6.38-.71.82-.26.07-.4.28-.26.45.15.18.33.02.4-.29.35-.13.6-.38.69-.83.36-.07.59-.31.7-.73.55.02.97-.24,1.28-.79,1.56-.65,2.73-2.07,4.1-3.08,1.36-1,2.47-2.62,4.22-2.7.47.99.66,2.3,1.88,2.42,5.35.55,7.38-1.96,6.46-8.7,1.88-1.61,3.51-3.77,5.97-4.11-.06,1.55-.69,2.72-1.59,3.75-.33.38-.38.95-.04,1.41.37.5.81.24,1.16-.02,2.32-1.72,3.8-4.15,4.17-7.5.79-1.75,2.57-2.16,3.44-3.8l-.04.03c.36-.11.65-.32.68-.83l-.03.03c.42-.02.84-.04,1.26-.07,1.03-.26,2.05-.6,3.09-.77,1.05-.17,1.84.5,2.41,1.54.6,1.09-.01,2.03-.44,2.86-.5.97-1.2,1.79-1.81,2.68-.67.26-1.34.52-1.29,1.62,0,0,.02-.02.02-.02-.55-.14-1.07,0-1.54.34-6.05,4.45-11.77,9.54-17.93,13.77-.41.28-.59,1.05-.87,1.59ZM44.88,225.52c.3,0,.61.01.91-.03.43-.06.75-.32.82-.88.01-.09-.08-.26-.15-.3-.42-.26-.77-.05-1.06.32-.2.27-.34.6-.51.9-.32.14-.37.26-.15.31.03,0,.09-.21.14-.33ZM66.72,218.99c-.11-1.27-1.63-2.35-3.03-2.18-1.28.15-2.03.99-1.88,2.56.15,1.61,1.25,2.02,2.36,2.05,1.24.03,2.64-1.39,2.55-2.42Z"/>
      <path class="cls-1" d="M177.27,288.12c-1.26,5.28-2.74,10.42-6.27,15.13-1.31-7.26-1.02-13.95-.73-20.85-1.33,4.05-2.71,8.07-3.99,12.14-1.55,4.97-3.34,9.75-6.68,13.37-.38.42-.67,1.06-1.54.91-.35-2.99-.98-6-.96-9.15,0-1.46.45-3.17-1.31-3.98-.83-.38-.48-1.63-.29-2.5.49-2.19.52-4.41.4-7.25-1.45,2.45-1.91,4.83-2.6,7.05-.7,2.23-1.47,4.4-2.81,6.19-.47.63-.99,1.16-1.63.4-1.46-1.73-2.22-.47-3.05.92-.62,1.03-1.26,2.46-2.3.36-.72-1.45-1.5.33-2.4.04.39-8.84.33-17.75,2.28-26.47-2.93,5.6-3.12,12.58-6.38,17.96-2.59-2.67-2.56-2.62-4.64.75-1.12,1.81-1.85,4.11-3.89,5.36-1.4-8.16-.13-15.63,2.15-23.04-1.45.61-1.48,2.57-2.65,3.23-.15-.18-.33-.33-.46-.54-.37-.59-.54-1.65-1.32-1.41-.87.27-.87,1.34-.87,2.25-.01,1.17,0,2.34-.01,3.51-1.36,2.41-3.13,4.2-5.68,5.8-.26-3.55-.19-6.61.22-9.7.77-5.72,2.35-11.17,3.63-16.71.11-.46-.04-1.01-.06-1.52,0,0-.03.03-.03.03.5.1.69-.36.91-.77,1.46-2.09,2.45-4.48,3.03-7.13.36-.08.56-.37.66-.78.55-.35.65-.95.62-1.62.35-.11.53-.41.63-.81.59-.54,1.23-1.85,1.68.14.11.5.22,1,.33,1.5-.48,3.73-2.39,6.71-3.57,10.07-1.21,3.46-2.43,6.9-2.94,10.74,1.22-.1,1.3-1.18,1.57-1.94.64-1.8,1.1-3.71,1.79-5.48,1.85-4.71,3.26-9.74,6.3-13.63,1.68,1.68,3.37,3.35,2.01,6.46-.13.3-.14.94.03,1.14,1.83,2.25.84,5.25,1.46,7.81-.44,3.45-1.82,6.66-1.78,10.24-.56.95-.74,2.02.12,2.71.75.6,1.62.36,2.35-.41,1.26-1.31,1.05-2.09-1.13-3.98,1.08-4.3,2.72-8.29,4.59-12.16,1.11.62,1.26,1.99,1.74,3.15.54,1.32.63,3.19,2.26,3.48l.02.02c.18.27.35.55.53.82.36.7.83,1.25,1.46,1.57,0,.84-.11,1.74.63,2.28-.32,1.39-.67,2.77-.97,4.17-.67,3.18-1.59,6.29-1.69,9.61-.04,1.31-.21,2.75,1.08,3.39,1.29.64,2.3-.1,3.18-1.2,1.48-1.85,1.36-3.58-.56-5.23-.72-.62-1.66-.84-1.04-2.23,1.61-3.59,1.81-7.75,3.15-11.44.17,1.97.62,3.87,1.26,5.68.77,2.18,1.51,2.4,2.84.75,1.26-1.57,2.33-3.38,3.53-5.16.73,4.73,1.44,5.06,4.43,2.33,1.2-1.09,2-2.81,3.56-3.32.2.6.4,1.19.59,1.79,1.04,3.29,1.75,3.82,4.46,2.52,1.03-.49,1.83-.09,2.73,0-.31,2.94-.62,5.88-.93,8.82-.33.89-.78,2.14.23,2.39.68.17.78-1.25.8-2.14,0-.13-.01-.25-.02-.38.05-.5.1-1.01.14-1.51,1.48,1.39.59,3.93,1.78,5.45ZM160.38,284.25c.05,2.74,1.06,3.43,2.72,2.28,1.4-.97,2.69-4.1,2.47-5.99-.2-1.71-1.4-2.44-2.58-1.42-1.54,1.33-2.57,3.11-2.61,5.14ZM135.16,266.18c.04-1.49-.55-2.65-1.64-3.08-1.28-.5-1.56,1.02-2,2-.47,1.03-.94,2.08-1.26,3.19-.38,1.31.32,2.36,1.42,2.3,1.75-.09,3.51-2.32,3.49-4.42ZM131.52,289.68c.65-.09,1.49-.48,1.37-1.81-.07-.86-.37-1.9-1.31-1.95-1.05-.05-1.53.82-1.63,1.98-.09,1.09.32,1.75,1.57,1.79Z"/>
      <path class="cls-1" d="M105.2,248.43c-1.98,2.19-3.96,4.38-6.04,6.67.17.11-.08.05-.17-.12-.53-1.06-.37-2.98-1.71-3.01-1.32-.02-1.85,1.61-2.34,2.93-.54,1.44-1.19,2.85-1.53,4.36-1.07,4.7-3.83,7.54-7.1,9.79-1.54,1.06-2.9,2.63-5.04,3.07.13-2.48,1-4.33,1.76-6.12,3.96-9.4,8.42-18.43,14.05-26.49,2.73-3.91,5.85-7.4,8.76-11.11.5-.63,1.31-.99,1.35-2.08,0,0,.01-.01.01-.01.43.36.87.16,1.31.02.52.03.98.18,1.25.79-1.68,3.04-3.72,5.7-5.81,8.32-.81,1.02-1.79,1.9-2.14,3.36-1,1.2-2.14,2.26-2.55,4.01-.19.29-.38.58-.57.87-.5.37-.67.93-.63,1.62-.1.14-.2.27-.3.41.12-.11.24-.23.36-.34.52-.28.71-.82.75-1.47.24-.24.47-.47.71-.71,1.48-.7,2.35-2.04,2.72-3.89,1-.19,1.45-1.39,2.3-1.87.36.29.72.58,1.08.86,1.21.95,2.44,1,3.61-.03,1.22-1.07,1.37-2.58.97-4.23-.18-.75-.41-1.49-.62-2.24.04-.23.09-.46.15-.69,1.25.93,2.38,2.35,4.06.94,2.54-2.13,3.4-5.07,2.46-8.86,1.1-2.14,2.81-3.49,4.41-4.93,1.23-1.1,1.91-.63,2.02,1.27.14,2.58.02,5.15-.49,7.68-.53,2.07-1.77,3.56-2.8,5.24-2.43,3.97-5.34,7.53-7.12,12.07-.52.36-.65.94-.61,1.62-.09.04-.19.05-.25.11-.04.04-.03.16-.05.24.1-.12.2-.23.31-.35.53-.3.69-.86.71-1.51,1.77.05,3.4-.18,4.63-2.11.91-1.43,2.35-2.46,1.42-4.74-.24-.59.27-1.2.62-1.72,1.1-1.62,2.29-3.17,3.25-4.91,1.18-2.16,3.12-3.67,3.68-6.36v-.02c.38-.05.59-.33.65-.79h0c.4-.29.8-.59,1.2-.88,1.38.15,1.58,1.1,1.01,2.41-.59,1.37-1.45,2.6-1.89,4.02-1.01,3.3-2.63,6.57-1.03,10.28-1.71,3.65-3.13,7.57-5.23,10.85-1.54,2.41-2.23,4.7-2.08,7.61,1.26-.26,2.42-.5,3.58-.73,1.55-.31,1.05,1.07,1.1,1.99.02.3.04.59.05.89,0,0,.03-.03.03-.03-1.21-.3-1.4,1.01-1.79,1.83-2.11,4.44-4.61,8.55-7.26,12.52-.8,1.2-1.59,2.47-3.12,3.41-.47-3.19.45-6.02.85-8.83,1.02-7.19,3.35-13.81,6.38-20.08.21-.44.29-.97.43-1.46.16-.27.32-.53.45-.81.01-.02-.21-.21-.32-.32-.11.31-.22.62-.33.94-2.3,1.4-3.38,4.25-4.98,6.45-2.64,3.63-5.26,7.27-8.34,10.35-1.22,1.22-2.46,2.54-4.53,3.02.86-6.53,3.27-12.14,5.14-17.96.43-.38.6-.94.67-1.56.56-.76,1.38-1.42.8-2.74-.93.55-.93,1.54-1.2,2.34-.49.12-.87.42-1.09.97ZM88.34,258.98c.05.91-.01,1.93,1.03,2.04,1.21.12,2.36-1.77,2.25-3.61-.06-1.06-.4-1.72-1.35-1.74-1.34-.02-1.99,1.07-1.94,3.31ZM100.31,246.13c-1.26.08-2.22,1.51-2.15,3.27.03.7.22,1.29.97,1.16,1.28-.22,2.94-2.26,2.72-3.41-.19-1-.88-.99-1.54-1.02Z"/>
      <path class="cls-4" d="M125.98,239.8c-1.6-3.71.02-6.98,1.03-10.28.44-1.43,1.3-2.66,1.89-4.02.57-1.31.37-2.26-1.01-2.41-1.07-1.05-1.15-.12-1.2.89,0,0,0,0,0,0-.35.1-.56.37-.65.79,0,0,0,.02,0,.02-1.7-.22-2.2,2.35-3.78,2.43.5-2.53.63-5.1.49-7.68-.11-1.9-.79-2.37-2.02-1.27-1.61,1.45-3.31,2.8-4.41,4.93l-.12-.11c-.23-.48-.41-.31-.56.08h0c-1.14-.17-2.04.37-2.78,1.4-.85,1.18-1.9,1.99-3.09,2.56-.27-.62-.73-.77-1.25-.79.38-1.51,2.16-2.03,1.9-3.99h0c2.3.15,3.36-1.54,3.9-3.97v.04c.4-.2.58-.6.66-1.1,0-.51.02-1.03-.02-1.53-.26-2.83-1.3-3.59-3.31-2.34-.65.4-1.19,1.04-1.97,1.07-.18.27-.35.53-.53.8-.17.25-.34.49-.51.74-.58,0-1.14.08-1.44.82l.04-.02c-2.18.38-3.35,3.25-5.64,3.36l-.92-1.06c.02-.26.02-.52.02-.78,0,0-.02.02-.02.02.67-.25,1.82.05,1.29-1.62.61-.89,1.31-1.71,1.81-2.68.43-.83,1.04-1.76.44-2.86-.56-1.03-1.36-1.71-2.41-1.54-1.04.17-2.06.5-3.09.77-.45-.84-.86-.69-1.26.07,0,0,.03-.03.03-.03-.23.28-.45.55-.68.83,0,0,.04-.03.04-.03-2.55-.12-4.32,2.31-6.62,3,.1-1.3.93-2.01,1.58-2.87.58-.76,1.4-1.52.84-2.68-.45-.93-1.38-.45-2.09-.61-2.23-.64-3.94,1.75-6.09,1.56.26-2.35,1.39-3.85,2.98-5.11,1.34-1.06.62-1.83-.53-2.24-.1-1.66-1.06-1.39-1.88-1.13-1.44.47-2.79,1.32-4.3,1.49-.05-1.41-.1-2.83-.16-4.24.33-1.01,1.76-.67,1.78-2.3-3.05,1.07-6.01,2.12-8.97,3.16-.43-.73-1.61-1.52.07-2.12.4-.14.85-.1,1.28-.15,1.81-.23.92-1.51.65-2.54,2.39-1.78,5.23-1.88,7.77-3.09,1.28-.12,2.45-1.12,3.79-.69.36,3.01.65,3.43,2.77,3.85,1.78.35,3.56.66,5.32.98.05,1.32-.78,1.69-1.23,2.38-1.31,2.03-1.07,3.06.9,4.15,1.03.57,2.1.53,3.18.54,1.61.02,3.21,0,4.57,0,.54.49.55.84.5,1.25-.36,3.14.02,3.89,2.4,4.13,2.37.23,4.73.11,7.06-.68.88-.3,1.75-1.18,2.76-.52-.17,3.91.81,4.93,4.07,4.14,1.9-.45,3.78-1.02,5.66-1.54.11.21.33.45.3.63-.47,3.55-.27,3.86,2.56,3.67.43-.03.86-.09,1.29-.17,2.19-.41,2.46-.06,1.83,2.42q-.97,3.77,2.28,4.04c.22.02.43.04.65.06.05,1.93-.7,4.34,1.91,4.71-.3.54-.62,1.05-.89,1.61-1.61,3.3-2.72,6.78-2.36,10.72.16,1.75.84,2.25,2.15,1.69.8-.34,1.19-1.56,2.17-1.48.7,2.24-.08,4.33-.39,6.46-.55.31-.65.91-.66,1.56,0,0-.02.03-.02.03-.21.25-.41.51-.62.76l-.03.04c-.88.39-1.09,1.49-1.63,2.25-.66.93-.91,2.41-2.19,2.55-.11-.5-.21-1-.33-1.5-.45-1.99-1.09-.68-1.68-.14h0c.25-1.73-.43-3.27-.64-4.9-.18-1.38-1-1.46-1.9-1.38.57-1.83,2.51-2.82,2.23-5.31-1.48-.13-1.88,1.72-2.97,2.09Z"/>
      <path class="cls-4" d="M177.27,288.12c-1.19-1.53-.3-4.07-1.78-5.45.29-1.4.62-2.79.86-4.2.48-2.81.75-5.5,3.96-5.9,1.54-.19,2.53-2.51,3.94-3.83.9,4.84-1.09,9.28-.11,13.82,1.62-5.64,1-11.78,2.45-17.57,2.28,2.33,2.71,2.33,4.7.08,1.48-1.67,2.9-3.31,4.75-4.57,2.09-1.43,3.79-3.9,3.95-7.25.28-.11.33-.21.14-.27-.02,0-.08.19-.13.29-1.21.62-1.9,1.89-2.59,3.14-.48.87-.99,1.62-1.94,1.62l-.04-.05c-.13-.86.23-1.79-.22-2.61-.52-.08-.77.35-.98.8-.27.59-.64,1-1.16,1.23-.24-2.58,1.47-4.73,1.08-7.34,2.56-1.34,4.27-3.68,5.35-6.76.42-1.21.9-2.4-.16-3.5.15-.62.27-1.26.47-1.86.36-1.05.92-1.45,1.72-.55,1.09,1.22,1.98,2.89,3.82,2.23,1.87-.67,2.59-2.55,3.39-4.44.76-1.81,1.09-3.65,1.08-5.67-.01-1.95-.25-3.94.26-5.87,2.79,2.07,3.01,5.74,3.33,9.01.44,4.52.99,9.19-1.06,13.53-.83,1.75-1.71,3.33-3.19,4.35-3.88,2.69-6.28,6.71-7.28,12.02-.19,1.02-.55,1.98-.83,2.97-1.52.13-1.45-2.36-3.21-2.29-.57,2.73-1.02,5.63-1.08,8.61-.07,3.49-.83,6.76-1.99,9.9-.61,1.64-1.27,1.71-2.05.2-1.02-1.99-1.87-4.12-3.09-6.84-1.68,3.2-1.68,6.6-2.85,9.4-1.2,2.88-1.43,6.32-3.3,9.06-1.49-1.7-1.29-3.82-1.65-5.64-.37-1.91-.47-3.89-.68-5.85-.08-.8-.14-1.67-.98-1.74-.82-.07-1.06.81-1.26,1.54-.2.74-.24,1.54-.41,2.3-.29,1.37-.35,2.87-1.27,3.94ZM194.03,269.88c.02-.72-.11-1.34-.77-1.41-.85-.08-1.02.7-1.03,1.49,0,.7-.22,1.78.62,1.82.89.04.91-1.15,1.17-1.91Z"/>
      <path class="cls-1" d="M108.64,216.02c.17-.25.34-.49.51-.74.18-.27.35-.53.53-.8.78-.03,1.32-.67,1.97-1.07,2.01-1.25,3.05-.48,3.31,2.34.05.5.02,1.02.02,1.53-.22.37-.45.73-.67,1.1,0,0,.01-.04.01-.04-1.82.56-3.01,2.06-3.9,3.98,0,0,0,0,0,0-1.56.74-3.1,1.5-3.21,3.98,0,0-.01.01-.01.01-.94-.48-1.63.08-2.3.81-2.3,2.53-4.79,4.86-6.89,7.62-3.05,4.03-7.18,6.43-10.22,10.45-.4.53-.92,1.12-1.68,1.16-1.08-1.11.16-3.1-.99-4.19.08-1.05.17-2.1.28-3.46-1.24.73-2.11,1.44-2.79,2.42-1.27,1.84.01,1.68.96,1.77-1.68,3.22-3.33,6.44-5.03,9.64-1.01,1.91-2.49,3.24-3.96,4.59-3.78,3.47-7.84,6.33-12.58,9,.6-3.87,2.2-6.52,3.61-9.2,4.3-8.24,9.31-15.76,15.7-21.76,6.69-4.93,12.88-10.75,19.37-16.03.31.35.61.7.92,1.05-.67.85-1.3,1.76-2.02,2.54-3.71,4.01-7.46,7.96-11.16,11.98-.79.86-1.91,1.55-1.89,3.21.71.09,1.04-.22,1.38-.56,4.81-4.87,9.62-9.73,14.51-14.48,1.78-1.73,4.11-2.99,4.82-6.06,0,0-.04.02-.04.02.66.18,1.07-.26,1.44-.82Z"/>
      <path class="cls-1" d="M75.4,194.49c.26,1.03,1.15,2.31-.65,2.54-.43.06-.88,0-1.28.15-1.68.6-.5,1.39-.07,2.13-5.83,2.81-11.48,6.1-16.86,10.05-.84.61-2.21.81-1.91,2.68,0,0,0,0,0,0-1.32-.69-2.18.76-3.28,1.06-7.12,1.92-14.04,4.83-21.25,6.28-.08-.1-.15-.2-.23-.31,1.05-1.93,2.69-3.07,4.23-4.19,7.57-5.55,15.2-11,23.68-14.31,5.21-2.03,10.45-3.95,15.68-5.92.64-.06,1.29-.12,1.93-.18ZM53.75,204.9c-1.07.21-2.62.09-2.68,1.87-.04,1.28,1.12,2.12,2.35,2.05,1.16-.06,2.48-1.49,2.38-2.66-.13-1.55-1.19-1.13-2.05-1.26Z"/>
      <path class="cls-1" d="M71.43,193.78c-3.9,1.4-7.89,2.09-11.94,2.54-3.87.43-7.73.59-11.6.74-.81.03-1.67.37-2.77-.43,7.74-5.17,16.28-6.83,24.55-10.33-1.25-1.95-2.88-.6-4.16-1.63,8.04-2.15,15.99-3.66,24.72-3.49-1.13,1.31-2.11,1.89-2.63,2.98-1.11.49-2.23.83-3.41,1.05-5.08.94-10.14,2.04-15.2,3.12-.79.17-1.68.19-2.05,1.43,3.53.78,6.86-.97,10.29-.8.25-.16.49-.33.74-.49.45-.05.9-.09,1.35-.14,0,.74,0,1.48,0,2.22-2.62,1.08-5.24,2.16-7.86,3.24Z"/>
      <path class="cls-6" d="M79.3,188.32c-.45.05-.9.09-1.35.14-.25.16-.49.33-.74.49-3.43-.17-6.76,1.58-10.29.8.37-1.24,1.27-1.26,2.05-1.43,5.06-1.07,10.12-2.18,15.2-3.12,1.19-.22,2.3-.56,3.41-1.05.12,2.27,2.3,2.01,3.06,3.55-1.04,1.5-2.77,1.52-3.69,3.01-1.34-.43-2.51.57-3.79.69,0-.49,0-.98,0-1.47.8-.38,1.61-.73,2.38-1.17.4-.22.66-.69.6-1.26-.08-.69-.59-.8-.98-.71-1.97.42-4.03.36-5.87,1.54Z"/>
      <path class="cls-7" d="M45.36,254.76c1.45,1.18,2.97,2.15,4.72,2.49-2.27,3.33-7.04,6.34-11.81,7.24,2.37-3.62,3.89-7.53,7.09-9.72Z"/>
      <path class="cls-2" d="M100.67,219.13c-6.49,5.28-12.68,11.1-19.37,16.03-.32-.37-.64-.74-.97-1.12.28-.54.47-1.31.87-1.59,6.16-4.23,11.89-9.31,17.93-13.77.47-.35.99-.48,1.54-.34,0,.26,0,.52-.02.78Z"/>
      <path class="cls-2" d="M83.17,189.93c0,.49,0,.98,0,1.47-2.54,1.2-5.38,1.3-7.77,3.09-.64.06-1.29.12-1.93.18-.48-.99-1.3-.78-2.04-.88,2.62-1.08,5.24-2.16,7.86-3.24,1.35.34,2.57-.54,3.88-.62Z"/>
      <path class="cls-4" d="M125.33,282.5c0-1.17,0-2.34.01-3.51,0-.92,0-1.99.87-2.25.78-.24.95.83,1.32,1.41.13.2.3.36.46.54-.64,1.53-1.26,3.07-2.66,3.81Z"/>
      <path class="cls-2" d="M83.57,242.9c-.95-.08-2.23.07-.96-1.77.68-.98,1.54-1.7,2.79-2.42-.11,1.36-.19,2.41-.28,3.46-.52.24-1.03.49-1.55.73Z"/>
      <path class="cls-6" d="M120.07,202.36c1.04-.61,2.07-1.24,3.13-1.81.13-.07.36.14.71.28-.82,1.37-2.03,1.8-3.15,2.4-.23-.29-.46-.58-.69-.87Z"/>
      <path class="cls-6" d="M106.69,247.86c-.07.62-.24,1.17-.67,1.55-.27-.33-.55-.66-.82-.99.22-.56.6-.86,1.09-.98.14.13.27.27.4.41Z"/>
      <path class="cls-1" d="M30.11,219.39c-.18.36-.44.53-.78.45-.08-.02-.15-.16-.22-.24.26-.17.52-.34.77-.51.08.1.15.2.23.31Z"/>
      <path class="cls-1" d="M128.45,175.01c-.07-.19-.13-.39-.2-.58.16.08.32.16.48.24-.09.12-.18.23-.28.34Z"/>
      <path class="cls-1" d="M128.18,210.74c-.2.26-.43.45-.64.05-.03-.06.18-.32.28-.49.12.14.24.29.36.44Z"/>
      <path class="cls-5" d="M311.51,224.95c.89,2.54,1.78,5.08,2.67,7.62.17.49.4.97.47,1.47.18,1.54.69,3.38-.32,4.51-1.12,1.25-2.15-.3-3.15-.97-.35-.23-.78-.29-1.18-.43-.49,1.41-.11,2.74-.2,4.04-.05,1.31-.09,2.61-.14,3.92-1.15.74-1.72-1.54-3.05-.77.59,2.27.58,4.62.45,6.96-.2,3.54-1.11,4.03-3.48,2.03-.23-.19-.57-.17-1.09-.31.23,3.94-.07,7.7-.38,11.45-.07.49-.14.98-.2,1.47-.08.21-.12.43-.11.66-.5,1.27-.96,2.57-1.52,3.8-.59,1.3-1.4,1.44-2.3.4-.62-1.08-1.92-1.1-2.29-2.63-.77,2.52-.88,4.91-1.78,7.04-1.37,3.26-2.22,3.33-3.97.45-.87-1.42-1.35-3.24-2.96-4.39v5.65c-2.42.44-3.94-1.42-5.41-3.27-.73-.92-1.23-2.1-2.31-2.53.1-2.22-1.64-3.3-2.15-5.15.37-.09.73-.17,1.1-.26,2.41,1.84,3.97,4.79,6.15,6.94.11.48.3,1.01.77.84.64-.23.44-.96.42-1.55.42-2.53-.5-5.26.74-7.67.19.09.39.14.6.15,1.47,3.32,2.61,6.89,5.03,10.28,2.76-7.2,1.22-14.45,1.85-21.49,1.68,4.82,1.45,10.56,5.05,14.97,2.21-7.7,1.33-15.22.59-23.17,1.99,1.86,2.96,4.51,5.21,5.88.92-2.86-.18-5.39-.62-7.92-.44-2.53-1.13-4.99-1.86-8.15,2.22,2.01,3.13,4.75,5.46,6.15.49-1.87.03-3.51-.34-5.21-.35-1.62-1.41-2.97-1.27-5.17,2.01,1.87,3.83,3.6,6.16,4.97.21-3.4-1.04-5.98-2.23-8.5-.58-1.24-1.4-2.3-1.64-3.77.13-.13.25-.26.39-.38.95.69,1.89,1.37,2.84,2.06Z"/>
      <path class="cls-5" d="M271.31,282.62c-.4-2.57-.83-5.14-1.2-7.71-.12-.81-.24-1.83-1.02-1.69-3.03.53-4.21-2.72-6.7-4.81.11,5.08.7,9.59.95,14.14-1.24-1.79-1.1-1.81-1.78-7.71-.33-2.83-.37-5.71-.73-8.95-2.93,1.84-4.76.06-6.4-2.19-1.08-1.48-2.34-2.61-3.65-3.77-1.84-1.63-3.7-3.55-4.05-7.56,1.89,2.41,3.03,4.64,4.82,6.03.92-1.35-.77-2.55.07-3.83,1.59.92,1.54,3.81,3.45,4.33,0,0,.04,0,.04,0-.09,2.02,1.02,3.33,1.96,4.68.53.76,1.15.56,1.29-.53.08-.62,0-1.28-.01-1.92-.02-1.82-.04-3.65-.06-5.47.01-.29.02-.58.04-.86.04-.24.08-.48.13-.71,1.57,2.39,1.99,5.46,3.25,8.04,1.38,2.82,2.74,5.71,4.99,7.58,1.56,1.3,1.46-.27,1.33-1.54.46-2.2-.7-4.31-.29-7.01,1.84,1.82,2.45,4.45,4.18,5.81.21.56.45,1.11.62,1.69.16.54.74,1.16.26,1.66-.42.43-.9-.32-1.37-.46-.14-.38-.35-.66-.73-.59-.07.01-.12.2-.17.31.29.11.58.22.87.33-.16,2.42-.54,4.88.68,7.11-.41,2.99.76,5.85.59,9.26-.92-1.25-1.06-2.49-1.34-3.66Z"/>
      <path class="cls-4" d="M281.11,238.01c-.03-2.68.88-4.34,1.73-6,.36-.71,1.02-.9,1.69-.96,1.86-.16,3.74,1.44,4.72,4.05,1.16,3.09,1.05,5.02-.52,6.83-1.12,1.3-2.41,2.28-4.07,1.48-2.27-1.09-3.57-3.3-3.55-5.4Z"/>
      <path class="cls-2" d="M253.96,249.46c-3.66-.61-6.77-4.77-6.87-9.24,0-.2.24-.41.37-.62,1.14.84,1.97,1.97,2.48,3.5.28.84.66,1.66,1.1,2.4.51.84,1.13,1.77,2.12,1.3.9-.43.61-1.56.64-2.42.04-1.3.01-2.6.01-4.66,1.83,1.94,3.2,3.51,4.66,4.92,2.02,1.95,2.05,1.9,2.98-1.48,2.1.95,3.3,3.73,5.53,4.34.82-1.33-.69-2.64.26-3.89,1.01,1.3,1.54,2.84,1.58,4.58.03,1.37-.57,1.9-1.66,1.52-.84-.29-1.56-.85-2.26-1.48-.95-.85-1.79-1.74-2.99-.08-.76,1.04-2.02.54-2.93-.37-.83-.83-1.63-1.72-2.44-2.57-.21-.25-.42-.51-.64-.76-.13-.09-.25-.17-.38-.26.06.16.13.33.19.49l-.03.39c-.04.37-.09.74-.13,1.11-.49.7-.38,1.53-.35,2.35-.41.31-.83.62-1.24.93Z"/>
      <path class="cls-4" d="M331.16,190.64c-2.11.3-3.77-.77-5.1-2.67-1.24-1.78-1.05-2.9.58-4.06,3.7-2.62,6.19-2.31,8.63,1.07,1.33,1.85,1.23,3.11-.44,4.5-1.1.91-2.33,1.33-3.67,1.16Z"/>
      <path class="cls-4" d="M271.41,269.87c.47.14.95.89,1.37.46.48-.49-.1-1.11-.26-1.66-.17-.58-.41-1.13-.62-1.69,1.24-.7,1.8-2.73,3.44-2.62.59.54,1.17,1.07,1.76,1.61.5,1.85,2.25,2.93,2.15,5.15-1.47,4.86-1.58,5.02-5.63,4.85-.85-.04-1,.83-1.57,1.07-1.22-2.23-.84-4.68-.68-7.11l.03-.05Z"/>
      <path class="cls-4" d="M286.89,264.41c-.21,0-.41-.05-.6-.15-.09-2.79-1.44-5.19-1.65-7.97-.16-2.12.27-4.4,1.23-4.97.95-.55,3.12.88,3.99,2.64.22.45.39.94.56,1.43,1.82,5.08,1.46,6.12-2.79,8.3-.28.14-.5.47-.75.72Z"/>
      <path class="cls-6" d="M290.11,218.42c.05,2.88-1.56,4.4-3.76,3.44-.9-.39-1.77-.96-2.56-1.62-1.17-.98-1.64-2.44-1.25-4.12.37-1.63,1.58-2.09,2.74-2.32,2.05-.41,4.79,2.29,4.83,4.61Z"/>
      <path class="cls-4" d="M268.02,268.18c.13,1.27.23,2.83-1.33,1.54-2.26-1.88-3.61-4.76-4.99-7.58-1.26-2.58-1.69-5.66-3.25-8.04.12-1.22-.58-3.06.61-3.49,1.23-.45,1.47,1.59,2.06,2.56.76,1.27.96,2.87,1.24,4.42.79,4.39,2.77,7.87,5.66,10.61Z"/>
      <path class="cls-4" d="M269.08,235.07c-.21-.05-.81-.01-1.24-.33-1.32-.99-2.41-2.24-2.32-4.38.04-.9-.09-1.95.86-2.28,1.48-.51,2.74.2,3.9,1.25.34.31.63.72.93,1.09.75.92,1.06,2.03.64,3.24-.45,1.29-1.45,1.41-2.78,1.41Z"/>
      <path class="cls-4" d="M272.04,221.55c2.22-.04,4.27,1.75,4.32,3.78.03,1.26-1.56,2.52-3.22,2.55-1.59.03-3.52-1.93-3.66-3.72-.12-1.65.79-2.58,2.56-2.61Z"/>
      <path class="cls-4" d="M262.35,235.89c.06,1.3-.24,2.36-1.73,2.31-2-.07-3.99-2.07-4.04-4.16-.03-1.45,1.24-2.93,2.52-2.9,1.62.03,3.21,2.28,3.25,4.75Z"/>
      <path class="cls-4" d="M289.99,207.26c2.43.09,4.17,2.22,4.15,4.54-.02,1.71-.72,2.65-1.88,2.52-1.75-.2-4-3.05-4-4.99,0-1.86.98-2.11,1.73-2.07Z"/>
      <path class="cls-4" d="M325.21,194.54c.05,1.49-1.11,3.05-2.37,3.16-1.62.14-3.34-1.54-3.39-3.31-.05-1.68.92-2.78,2.47-2.84,1.62-.06,3.23,1.41,3.28,2.99Z"/>
      <path class="cls-4" d="M310,189.1c-.23-.02-.66-.03-1.08-.08-.67-.08-1.29-.4-1.51-1.21-.24-.89.29-1.51.81-1.93.89-.72,1.82-1.35,2.77-1.93.79-.48,1.65-.76,2.32.25.58.87.3,3.18-.42,3.94-.56.6-1.52.93-2.91.96Z"/>
      <path class="cls-4" d="M300.17,220.08c1.25-.02,3.7,3.1,3.54,4.55-.12,1.04-.45,2.06-1.44,2.34-.79.23-1.56-.02-1.96-.9-.58-1.24-1.17-2.52-1.48-3.87-.28-1.2.41-1.92,1.35-2.13Z"/>
      <path class="cls-4" d="M252.05,228.69c-1.83.06-3.37-1.23-3.23-2.81.15-1.66,1.19-1.93,2.34-1.95,1.79-.03,3.38,1.27,3.23,2.82-.15,1.67-1.21,1.94-2.35,1.94Z"/>
      <path class="cls-4" d="M277.41,253.23c-1.05.05-2.51-2.14-2.63-3.99-.08-1.25.42-2.05,1.43-2.19,1.44-.2,2.92,1.55,2.94,3.4.02,1.71-.62,2.73-1.74,2.78Z"/>
      <path class="cls-4" d="M302.35,204.23c1.24.46,2.14,1.49,2.64,3.05.04.12.04.26.02.39-.1,1.03-.7,1.25-1.39,1.19-1.2-.1-2.96-2.19-2.79-3.32.14-.89.71-1.26,1.51-1.31Z"/>
      <path class="cls-4" d="M296.17,242.36c2.32,1.75,1.81,3.94,1.71,5.97-.02.38-.37.71-.7.6-.28-.09-.63-.35-.75-.66-.67-1.75-.43-3.57-.26-5.91Z"/>
      <path class="cls-4" d="M258.34,261.13c0,.64.09,1.3.01,1.92-.14,1.09-.76,1.29-1.29.53-.94-1.35-2.05-2.66-1.96-4.68,1.3.26,1.74,2.4,3.24,2.23Z"/>
      <path class="cls-2" d="M277.12,265.96c-.59-.54-1.17-1.07-1.76-1.61-.14-.81-.99-1.44-.33-2.64,1.47.86,2.24,2.53,3.18,3.99-.36.08-.73.17-1.1.26Z"/>
      <path class="cls-4" d="M255.2,248.52c-.03-.82-.15-1.65.35-2.35,1.17,1.26,1.14,1.5-.35,2.35Z"/>
      <path class="cls-2" d="M285.55,271.93c.02.59.23,1.32-.42,1.55-.47.17-.65-.36-.77-.84.39-.23.79-.47,1.18-.71Z"/>
      <path class="cls-6" d="M307.64,222.37c-.34-.1-.51-.38-.56-.79l.05-.06c.57-.06,1,.19,1.28.81-.25.01-.51.02-.76.04Z"/>
      <path class="cls-5" d="M324.57,201.82c-.27-.09-.55-.19-.82-.28.08-.14.16-.38.25-.39.31-.03.55.16.66.54,0,0-.09.13-.09.13Z"/>
      <path class="cls-6" d="M307.08,221.58c-.08-.13-.17-.27-.25-.4.1.11.2.23.3.34,0,0-.05.06-.05.06Z"/>
      <path class="cls-4" d="M258.32,254.8c-.01.29-.02.58-.04.86-.06-.21-.14-.41-.17-.62,0-.07.13-.16.21-.24Z"/>
      <path class="cls-5" d="M307.64,222.37c.25-.01.51-.02.76-.04.13.16.21.34.26.55-.13.12-.26.25-.38.38-.22-.3-.43-.6-.64-.9Z"/>
      <path class="cls-4" d="M255.89,244.44c.21.25.42.51.64.76-.28-.05-.57-.09-.85-.14,0,0,.03-.39.03-.39l.19-.23Z"/>
      <path class="cls-4" d="M341.5,236.53c-.08,1.13-.35,2.29-1.44,2.13-1.38-.2-3.1-.63-3.4-2.46-.37-2.2-1.48-2.81-2.88-3.57-2.25-1.23-3.14-3.86-3.87-6.5-.32-1.15.05-2.08,1.21-2.2.48.29,1.04.48,1.43.9,3.11,3.26,5.97,6.85,8.71,10.57.19.26.16.74.24,1.12Z"/>
      <path class="cls-2" d="M340.17,217.61c1.33-.3,2.19.83,3.19,1.55,1,.72,1.84,1.86,3.15,1.77,1.11,3.01,3.61,4.31,5.43,6.44,2.46,2.86,5.15,5.44,7.71,8.17.63.67,1.33,1.34,1.5,2.45-.09.1-.17.21-.25.32-2.75-1.8-4.89-4.56-7.31-6.89-3.35-3.23-6.76-6.38-10.09-9.64-1.23-1.21-2.56-2.36-3.32-4.17Z"/>
      <path class="cls-6" d="M319.32,223.25c.45-.82,1.01-.9,1.57-.22.81,1.01,1.66,2,2.33,3.13.52.87,1,1.65,1.92,1.81,2.44,4.1,4.86,8.23,7.34,12.3.64,1.06,1.43,1.97,1.26,3.44l-.05.06c-.64-.28-1.18-.89-1.92-.79-.56-2.12-1.15-4.2-3.23-4.8-.19-1.62-.92-2.89-1.76-4.11-2.49-3.6-4.97-7.22-7.45-10.83Z"/>
      <path class="cls-2" d="M341.5,236.53c-.07-.38-.05-.87-.24-1.12-2.74-3.73-5.6-7.31-8.71-10.57-.4-.42-.95-.6-1.43-.9-.01-.52-.03-1.04-.04-1.56,1.6.07,2.66,1.29,3.74,2.53.9,1.04,1.57,2.42,2.84,2.94,2.6,3.63,5.2,7.25,7.79,10.89.66.93,1.63,1.65,1.72,3.53-2.57-1.28-3.4-4.6-5.66-5.72Z"/>
      <path class="cls-4" d="M349.3,246.86c-.52,2.91-1.27,3.69-3.05,3.14-1.01-.32-1.77-1.05-2.01-2.31-.23-1.26.5-1.88,1.3-2.42.65-.44,1.44-.63,1.83-1.54.22,0,.43,0,.65,0,0,0-.02-.02-.02-.02-.05.82.37,1.43.63,2.12.08.5.29.9.69,1.1l-.03-.06Z"/>
      <path class="cls-4" d="M358.4,258.18c0,1.14-.15,2.15-1.34,2.17-.89.01-2.55-2.19-2.37-3.25.18-1.09.78-1.9,1.73-2.02.93-.12,1.93,1.54,1.98,3.11Z"/>
      <path class="cls-4" d="M328.53,238.19c2.08.59,2.68,2.67,3.23,4.8-.92,1.31-1.98,1.03-2.71-.06-.91-1.35-1.96-2.9-.53-4.74Z"/>
      <path class="cls-2" d="M338.21,225.54c-.99-1.67-3.19-2.16-3.19-4.82,2.64,1.6,4.87,3.77,7,7.11-2.17.12-2.72-1.68-3.81-2.29Z"/>
      <path class="cls-2" d="M346.71,219.7c0-.45,0-.9,0-1.35,2.35.74,4.09,2.79,6.14,4.2.39.27.5.81.33,1.37-1.35.5-2.12-.8-3.07-1.5-1.16-.85-2.27-1.82-3.4-2.73Z"/>
      <path class="cls-5" d="M355.84,225.06c.85.57,1.73,1.08,2.55,1.71.54.42,1.09.95.63,1.91-1.42.38-2.2-1.02-3.22-1.73.01-.63.03-1.26.04-1.89Z"/>
      <path class="cls-2" d="M355.84,225.06c-.01.63-.03,1.26-.04,1.89-.96-.89-2.49-1.03-2.61-3.01,1.17-.65,1.89.32,2.65,1.11Z"/>
      <path class="cls-4" d="M334.42,244.5c1.25.87,2.04,2.08,1.93,3.95,0,0-.07.09-.07.09-1.22-.89-2.1-2.03-1.95-3.93,0,0,.09-.11.09-.11Z"/>
      <path class="cls-5" d="M363.57,231.02c-.02.64-.05,1.28-.08,1.92-.88-.84-2.31-.88-2.52-2.65,1.1-.98,1.8.14,2.6.74Z"/>
      <path class="cls-2" d="M348.63,245.82c-.26-.68-.68-1.3-.63-2.12,1.28.04,1.42,1.46,1.96,2.4,0,.3-.01.61-.02.91-.22-.05-.43-.1-.65-.16,0,0,.03.06.03.06-.23-.37-.46-.73-.69-1.1Z"/>
      <path class="cls-5" d="M359.02,228.69c1.29-.65,2.07-.38,1.94,1.58-1.1.31-1.78-.15-1.94-1.58Z"/>
      <path class="cls-2" d="M343.43,228.84c.6.26,1,.77,1.24,1.47-.23.34-.46.69-.69,1.03-.23-.02-.41-.13-.55-.35,0-.72,0-1.44,0-2.16Z"/>
      <path class="cls-5" d="M343.43,228.84c0,.72,0,1.44,0,2.16-1.13-1.34-1.13-1.65,0-2.16Z"/>
      <polygon class="cls-2" points="369.98 248.74 370.25 248.91 369.96 249.02 369.98 248.74"/>
      <path class="cls-2" d="M334.01,219.17c-.4-.17-1.42.52-.89-.95.3.32.59.63.89.95Z"/>
      <path class="cls-4" d="M350.65,247.63c.5.4.6,1.01.57,1.67l.02-.02c-.53-.29-.7-.84-.74-1.49,0,0,.15-.17.15-.17Z"/>
      <path class="cls-4" d="M349.94,247.02c0-.3.01-.61.02-.91.51.32.63.9.69,1.52,0,0-.15.17-.15.17-.19-.26-.37-.52-.56-.77Z"/>
      <path class="cls-2" d="M330.42,222.39c.23-.49.46-.66.69,0-.23,0-.46,0-.69,0Z"/>
      <path class="cls-2" d="M339.52,216.81c.35.12.59.39.68.83-.38-.09-.62-.35-.68-.83Z"/>
      <path class="cls-2" d="M338.87,216.01c.23.28.46.55.68.83-.39-.08-.62-.35-.68-.83Z"/>
      <path class="cls-5" d="M343.98,231.35c.23-.34.46-.69.69-1.03.15.12.25.29.31.49-.19.24-.38.48-.58.72-.16,0-.3-.06-.42-.18Z"/>
      <path class="cls-2" d="M338.2,215.24c.23.27.47.55.7.82-.23-.27-.47-.55-.7-.82Z"/>
      <path class="cls-2" d="M361.14,237.99c.21.2.58.37.15.73-.04.03-.27-.27-.41-.41.08-.11.17-.21.25-.32Z"/>
      <path class="cls-4" d="M326.56,243.75c-.09-.12-.17-.23-.26-.35.06.02.14.01.17.06.05.07.07.18.1.27h-.01Z"/>
      <path class="cls-2" d="M335.04,220.77c-.44-.17-.62-.56-.68-1.09.23.36.45.72.68,1.09Z"/>
      <path class="cls-2" d="M348.02,243.73c-.22,0-.43,0-.65,0,.03-.32.09-.66.43-.55.11.03.15.35.22.54Z"/>
      <path class="cls-4" d="M326.58,243.74c.09.11.18.23.27.34-.06-.02-.14-.01-.17-.06-.05-.07-.07-.18-.11-.27,0,0,.01-.01.01-.01Z"/>
      <path class="cls-6" d="M333.74,243.71c.38.07.57.38.68.79,0,0-.09.11-.09.11-.34-.14-.56-.42-.64-.84,0,0,.05-.06.05-.06Z"/>
      <path class="cls-4" d="M337.63,250.05c.09.13.18.26.27.39l-.32-.32.05-.07Z"/>
      <path class="cls-4" d="M351.22,249.3c.09.05.27.13.26.16-.04.26-.14.2-.25-.18,0,0-.02.02-.02.02Z"/>
      <path class="cls-4" d="M337.57,250.11c-.22-.26-.44-.52-.66-.79l.07-.08c.34.11.55.39.64.8,0,0-.05.07-.05.07Z"/>
      <path class="cls-4" d="M336.92,249.33c-.21-.26-.43-.52-.64-.79,0,0,.07-.09.07-.09.34.11.55.38.64.79,0,0-.07.08-.07.08Z"/>
      <path class="cls-2" d="M368.09,246.94c.11.1.22.2.33.29-.06-.01-.15,0-.18-.04-.06-.08-.08-.19-.12-.29,0,0-.04.04-.04.04Z"/>
      <path class="cls-2" d="M367.44,246.15c.4.03.6.33.65.79,0,0,.04-.04.04-.04-.22-.26-.43-.53-.65-.79l-.04.04Z"/>
      <path class="cls-2" d="M367.48,246.11c-.22-.27-.44-.53-.66-.8,0,0-.04.05-.04.05.42.01.62.3.65.8,0,0,.04-.04.04-.04Z"/>
      <path class="cls-4" d="M302.11,264.47c.31-3.76.61-7.51.38-11.45.51.14.86.12,1.09.31,2.37,1.99,3.28,1.51,3.48-2.03.13-2.33.14-4.68-.45-6.96,1.32-.78,1.9,1.51,3.05.77,2.12,1.39,3.06,3.66,3.29,6.47-1.91,1.56-2.36,3.7-2.8,6.47-.54,3.44-.84,6.64-.2,10,.01.07-.14.18-.22.27-2.37-3.8-3.8-8.31-6.1-12.5-.74,1.83.56,3.06.23,4.46-.38,1.52-.22,3.38-1.75,4.18Z"/>
      <path class="cls-6" d="M286.98,276.92v-5.65c1.61,1.15,2.1,2.97,2.96,4.39,1.76,2.88,2.61,2.81,3.97-.45.89-2.13,1.01-4.52,1.78-7.04.37,1.52,1.67,1.55,2.29,2.63-.83,1.49.15,2.74.46,4,1.3,5.23,2.23,10.52,2.47,16.05-1.19-.07-.87-1.09-1.04-1.75-.25-1.46-.49-2.91-.74-4.37-.16-.2-.32-.4-.48-.6l.03.02c-.06-2.57-1.05-4.82-1.74-7.16-.49-1.65-1.1-1.68-2.11-.43-.15.19-.29.39-.43.6-2.43,3.59-2.94,3.71-6.09,1.41-.57-.41-1.08-.88-1.35-1.64Z"/>
      <path class="cls-2" d="M312.95,251.58c-.22-2.82-1.17-5.09-3.29-6.47.05-1.31.09-2.61.14-3.92,1.19.44,1.46,1.79,1.98,2.91,1.09,2.38,2.21,4.74,3.73,6.77,1.55,4.3,3.13,8.58,4.64,12.91.58,1.66,1.21,3.34,1.15,5.61-.81-.59-1.02-1.39-1.3-2.09-1.66-4.11-3.31-8.23-4.99-12.32-.52-1.27-.91-2.69-2.07-3.4Z"/>
      <path class="cls-6" d="M303.86,260.29c.33-1.4-.97-2.63-.23-4.46,2.3,4.19,3.73,8.7,6.1,12.5,1.49,3.4,2.1,6.89.67,10.56-.06-1.28,0-2.6-1.09-3.38-1.06-5.47-2.89-10.54-5.44-15.22Z"/>
      <path class="cls-4" d="M299.13,284.72c.25,1.46.49,2.91.74,4.37-.14.19-.36.34-.41.56-.29,1.14-.6,2.44-1.77,2.36-1.42-.1-2.21-1.5-2.73-2.91-.49-1.32-.06-2.53.85-3.45.84-.85,1.81-1.33,2.89-1.5,0,0-.03-.02-.03-.02.16.2.32.4.48.6Z"/>
      <path class="cls-4" d="M316.1,267.87c-.16,1.08-.35,2.05-1.08,2.44-.64.34-1.25-.26-1.76-.71-1.73-1.55-2.06-4.19-.8-5.78.72-.92,1.42-1.05,2.21-.1.98,1.2,1.04,2.82,1.44,4.15Z"/>
      <path class="cls-4" d="M286.99,294.5c0,1.52-.14,2.82-1.37,2.96-1.47.17-1.65-1.4-1.83-2.66-.19-1.34.79-3.24,1.54-3.03,1.22.34,1.62,1.57,1.65,2.73Z"/>
      <path class="cls-4" d="M309.3,275.51c1.08.78,1.04,2.1,1.09,3.38-.13.65-.35,1.32-.98,1.2-1.3-.23-1.46-1.63-1.62-2.84-.17-1.32.52-1.79,1.51-1.75Z"/>
      <path class="cls-4" d="M323.06,275.55c1.01.46,1.41,1.42,1.29,2.44-.13,1.01-.75,2.1-1.7,1.77-1.05-.37-.55-1.73-.59-2.68-.04-.86.31-1.43,1.01-1.53Z"/>
      <path class="cls-5" d="M276.61,282.56c-.66-.45-.83-1.02-.17-1.96.05.79.09,1.4.13,2,0,0,.04-.04.04-.04Z"/>
      <path class="cls-4" d="M301.8,266.6c-.01-.23.02-.45.11-.66.5.35.42.56-.11.66Z"/>
      <path class="cls-2" d="M359.13,201.61c.03-1.24.61-1.53,1.47-1.19,1.39.54,2.71,1.35,4.21,1.4,2.75,2.12,5.91,3.1,8.86,4.68,7.61,4.09,15.09,8.47,22.34,13.44.82.56,1.86.87,2.05,2.29,0,0-.13.19-.13.19-2.91-1.02-5.36-3.2-8.08-4.72-2.04-1.14-4.09-2.26-6.13-3.39-2.92-1.38-5.47-3.99-8.8-4.08-.28-1.37-1.31-1.66-2.16-2.07-4.53-2.22-9.08-4.37-13.63-6.54Z"/>
      <path class="cls-2" d="M366.19,199.11c.07-1.29-1.26-1.32-1.55-2.64,2.33-.15,4.3,1.62,6.51,1.35,3.69,2.33,7.74,3.73,11.32,6.36,1.52,1.13,3.44,1.49,4.55,3.43-.04.47-.08.93-.13,1.4-1.47-.43-2.76-1.38-4.04-2.3-4.35-3.14-9.2-4.78-13.83-7.09-.86-.43-1.88-.36-2.83-.51Z"/>
      <path class="cls-4" d="M374.91,210.22c3.33.1,5.87,2.7,8.8,4.08-.42.41-.87.78-1.24,1.25-1.54,1.92-3.39,1.65-5.11.78-1.94-.98-2.7-3.24-2.45-6.11Z"/>
      <path class="cls-4" d="M392.99,204.94c.71.03,1.91-.13,2.12,1.64.16,1.34-.93,2.33-2.38,2.31-1.31-.02-2.66-.21-3.04-2.05-.25-1.2,1.01-1.96,3.3-1.9Z"/>
      <path class="cls-5" d="M386.89,209.02c.04-.47.08-.93.13-1.4.2.04.43.03.61.14.57.36,1.73.43,1.1,1.63-.48.91-1.28.27-1.83-.37Z"/>
      <path class="cls-2" d="M392.11,211.33c-.09.39-.27.63-.64.57-.52-.08-.74-.53-.64-1.05.06-.32.45-.52.78-.35.28.14.56.35.5.83Z"/>
      <path class="cls-4" d="M401.15,224.81c-.53-.01-1-.2-1.34-.75,0,0,.21-.28.21-.28.52.08.98.27,1.24.88,0,0-.11.14-.11.14Z"/>
      <path class="cls-4" d="M402.52,226.29c.28.1.56.2.84.31-.46.73-.63.06-.87-.27l.03-.04Z"/>
      <path class="cls-2" d="M398.58,223.21c-.22-.27-.44-.53-.67-.8,0,0,.13-.18.13-.19.59.03,1.08.28,1.39.93-.29.02-.57.04-.86.06Z"/>
      <path class="cls-4" d="M398.58,223.21c.29-.02.57-.04.86-.06.19.21.38.43.58.64,0,0-.21.27-.21.28-.49-.11-.95-.28-1.23-.86Z"/>
      <path class="cls-4" d="M401.82,225.57c-.22-.25-.45-.51-.67-.76,0,0,.11-.14.11-.14.21.27.43.53.64.8,0,0-.08.1-.08.1Z"/>
      <path class="cls-4" d="M402.49,226.33c-.22-.25-.45-.5-.67-.76,0,0,.08-.1.08-.1.33.13.56.38.62.82,0,0-.03.04-.03.04Z"/>
      <path class="cls-4" d="M374.61,197.78c.08.12.17.24.25.36-.09-.11-.19-.22-.28-.32,0,0,.03-.04.03-.04Z"/>
      <path class="cls-6" d="M350.56,211.3c2.22-.27,3.72,2,5.75,2.42,5.39,4.38,11.37,7.58,16.6,12.31.87.78,1.87,1.35,2.43,2.55-.11.13-.23.26-.35.38-1.38-.13-2.4-1.31-3.63-1.86-2.61-2.27-5.28-4.39-8.37-5.58-1.23-2.35-3.2-3.22-5.25-3.92-1.4-1.34-2.82-2.62-4.59-3.15-.69-1.25-2.11-1.62-2.58-3.15Z"/>
      <path class="cls-4" d="M362.98,221.52c3.09,1.19,5.76,3.31,8.37,5.58-.33,4.01-1.96,5.21-4.86,3.31-2.85-1.87-3.78-5.07-3.51-8.89Z"/>
      <path class="cls-4" d="M353.14,214.45c1.77.53,3.2,1.81,4.59,3.15.09,1.99-.51,2.71-2.13,1.84-1.81-.97-2.64-2.6-2.47-4.99Z"/>
      <path class="cls-6" d="M377.87,230.45c.62.21,1.17.6,1.14,1.52,0,.41-.38.58-.7.42-.5-.23-.95-.58-1.04-1.3-.06-.5.21-.64.59-.64Z"/>
      <path class="cls-6" d="M381.03,234.33c-.54-.13-1.05-.3-1.08-1.14,0-.09.13-.26.21-.28.67-.09.93.44,1.07,1.12,0,0-.2.29-.2.29Z"/>
      <path class="cls-6" d="M375.34,228.58c.46.2,1.07.18,1.08,1.03,0,.15-.22.43-.36.45-.63.07-.85-.55-1.08-1.1.12-.12.24-.24.35-.38Z"/>
      <path class="cls-2" d="M356.61,208.7c.67-.86,1.24-.65,1.77.22-.59-.07-1.18-.15-1.77-.22Z"/>
      <path class="cls-6" d="M349.05,210.52c.6-.02,1.19-.01,1.51.78-.62.08-1.11-.23-1.51-.78Z"/>
      <path class="cls-6" d="M382.37,235.05c-.55.05-1.02-.14-1.34-.72,0,0,.2-.29.2-.29.5.13.97.32,1.17.98l-.03.03Z"/>
      <path class="cls-6" d="M382.4,235.02c.1.14.2.27.29.41-.07-.02-.18,0-.22-.05-.06-.08-.07-.21-.11-.32,0,0,.03-.03.03-.03Z"/>
      <path class="cls-2" d="M346.71,218.39c-.39-.17-.59-.53-.67-1,.22.33.45.67.67,1Z"/>
      <path class="cls-1" d="M321.46,254.05c-1.44-1.75-2.21-4.19-3.93-5.64-.47-2.48.9-4.03,1.96-5.74,2.09,2.22,3.42,5.06,4.45,8.14-.2.29-.4.59-.6.88-.79.52-.47,1.9-1.25,2.43-.21-.04-.42-.06-.63-.07Z"/>
      <path class="cls-6" d="M359.36,185.87c.84-1.28,2.01-.88,3.01-.69,6.06,1.16,12.13,2.24,18.05,4.26.48.16,1.07.21,1.67,1.42-7.13-.91-13.76-2.78-20.46-4.15-.58-1.02-1.47-.78-2.28-.84Z"/>
      <path class="cls-6" d="M318.1,237.44c-.08-.12-.16-.25-.24-.37.1.1.2.2.3.3,0,0-.06.07-.06.07Z"/>
      <path class="cls-2" d="M255.09,271.27c0,.26-.32.88-.92.79-1.01-.14-.93-1.21-.94-2.11,0-.7.21-1.44.85-1.29.86.21,1.07,1.14,1,2.61Z"/>
      <path class="cls-6" d="M330.11,263.04c-.05-.09-.15-.19-.14-.28.01-.33.14-.42.31-.22.05.07.07.24.04.33-.02.08-.14.11-.21.17Z"/>
      <path class="cls-7" d="M321.46,254.05c.21,0,.42.03.63.07-.24.39-.45.41-.63-.07Z"/>
      <path class="cls-4" d="M323.34,251.69c.2-.29.4-.58.6-.88-.06.43-.27.72-.6.88Z"/>
      <path class="cls-5" d="M136.42,243.75c.31-2.13,1.09-4.23.39-6.46-.99-.08-1.38,1.14-2.17,1.48-1.3.56-1.99.07-2.15-1.69-.36-3.94.75-7.42,2.36-10.72.27-.56.59-1.07.89-1.61,1.02-.63,1.62-2.08,3.35-2.42-1.17,2.81-2.21,5.17-3.13,7.59-.48,1.26-1.52,2.89-.48,3.96,1.04,1.06,2.1-.64,3.11-1.27.76-.47,1.11-1.63,2.31-1.88-.15,3.54-2.64,6.46-1.61,10.29,2.45-.62,2.94-3.96,4.83-5.29l.16.2c.09,3.11-1.17,5.85-1.68,8.8-.34,1.93-.45,3.78-.37,6.2,2.15-1.46,3.17-3.74,5.04-5.42-.47,7.81-1.34,15.21.88,22.72,3.84-4.57,3.33-10.89,5.48-15.91-.25,7.44-1.17,14.83,1.18,22.42,2.7-3.1,3.4-7.42,5.95-10.18,1.35,1.69.67,3.67.96,5.4.28,1.71.78,2.04,1.96,1.04,2.41-2.03,4.43-4.6,6.48-7.12.22,1.67-.37,2.93-1.32,4.04-.76.88-1.48,1.81-1.36,3.25-1.56.51-2.36,2.23-3.55,3.32-2.99,2.73-3.7,2.4-4.43-2.33-1.2,1.78-2.27,3.59-3.53,5.16-1.33,1.66-2.07,1.43-2.84-.75-.64-1.8-1.09-3.7-1.26-5.68.04-.85.39-1.93-.53-2.28-.69-.26-1.05.57-1.33,1.27-.22.27-.43.54-.65.81,0,0,.01-.03.01-.03-.42.29-.85.59-1.27.88-.63-.32-1.1-.87-1.46-1.57.01-.46-.16-.73-.53-.82,0,0-.02-.02-.02-.02-.84-5.31-2.88-10.44-1.28-16.16-.53.15-.74.17-.93.27-.19.11-.34.32-.53.44-2.4,1.54-3,1.13-3.07-2.21-.05-2.45-.07-4.92.56-7.45-1.47-.09-2.56.87-3.74.36-.23-.21-.45-.42-.68-.63Z"/>
      <path class="cls-5" d="M193.09,257.41c.51-.23.89-.64,1.16-1.23.2-.44.45-.88.98-.8.45.82.09,1.74.22,2.61-.08.12-.16.24-.24.36.09-.11.19-.21.28-.32.95,0,1.46-.75,1.94-1.62.69-1.25,1.38-2.53,2.59-3.14l-.02-.02c-.17,3.35-1.87,5.83-3.95,7.25-1.85,1.26-3.26,2.9-4.75,4.57-1.99,2.25-2.42,2.24-4.7-.08-1.45,5.78-.83,11.92-2.45,17.57-.98-4.54,1.01-8.98.11-13.82-1.41,1.32-2.4,3.64-3.94,3.83-3.21.4-3.49,3.09-3.96,5.9-.24,1.41-.57,2.8-.86,4.2-.05.5-.09,1.01-.14,1.51-.34.04-.67.08-1.01.12.31-2.94.62-5.88.94-8.82.88-2.63,1.45-5.26.33-8.05-.13-.32.27-.95.42-1.44,1.09-1.58,1.62-3.73,3.22-4.8l-.03-.04c.28,2.4-.2,4.74-.41,7.09-.12.41,0,.7.31.9,0,0,.05.15.05.15.09.87.48,1.22,1.03.56.99-1.18,1.92-2.45,2.84-3.73,2.36-3.29,3.51-7.46,5.37-11.12,1.15,1.69.2,3.45.1,5.18-.17.65-.15,1.26.28,1.77.07.27.14.54.2.81.47.96.84.81,1.14-.15,1.62-1.21,2.12-3.36,2.97-5.22Z"/>
      <path class="cls-4" d="M176.03,266c-.15.49-.55,1.12-.42,1.44,1.12,2.78.55,5.41-.33,8.05-.91-.09-1.71-.49-2.73,0-2.72,1.29-3.43.77-4.46-2.52-.19-.6-.39-1.19-.59-1.79-.12-1.44.6-2.37,1.36-3.25.95-1.11,1.55-2.36,1.32-4.04.04-.18.14-.28.29-.32.55-.11.87-.51,1-1.16.26-.84.77-1.56,1.04-.2.7,3.47.61,3.5,3.53,3.8Z"/>
      <path class="cls-6" d="M199.37,239.82c1.05,1.1.58,2.29.16,3.5-1.09,3.08-2.79,5.42-5.35,6.76-2.55-.21-2.61-2.57-2.66-5-1.35.1-1.78,1.53-2.63,2.15-1.48,1.1-2.91,2.39-4.59.39-.87-1.03-1.6,0-2.28.49-1.22.87-2.68,2.18-3.72.56-.92-1.43.11-3.21,1.04-4.54.13-.18.36-.26.55-.38h0c.31,1.21-.54,2.23-.4,3.43q2.01-.32,5.76-3.52c1.02.29.03,1.85,1.21,2.2,2.58-.8,4.04-4.06,6.55-6.07.87,2.49.13,4.92.64,7.33,2.21-.41,3.18-2.47,4.15-4.46.48-1,.57-2.3,1.59-2.84Z"/>
      <path class="cls-4" d="M164.97,235.09c.33,2.15-.33,4.02-1.41,5.75-1.23,1.97-2.85,2.64-4.82,2-.81-.27-1.27-.84-1.49-1.83-.8-3.6,1.47-9.18,4.3-10.51,1.82-.86,3.18.14,3.41,2.53.06.65,0,1.31,0,2.06Z"/>
      <path class="cls-4" d="M117.42,190.66c-.92,0-1.14.02-1.36,0-2.5-.21-4.31-2-4.33-4.28-.02-2.44,2-4.43,4.54-4.43.53,0,1.09.05,1.6.22,2.44.85,4.99,3.52,4.68,4.83-.29,1.24-4.12,3.65-5.13,3.66Z"/>
      <path class="cls-4" d="M162.4,255.77c-.09,2.85-.86,4.75-1.91,6.4-1.48,2.33-3.89,1.81-4.87-.9-.83-2.31.22-7.15,1.93-8.55.99-.81,2.09-1.46,3.31-.69,1.48.94,1.63,2.61,1.54,3.73Z"/>
      <path class="cls-4" d="M157.1,218.93c0-2.72.91-4.24,2.98-5.05,1.42-.55,2.78-.41,3.85.94.77.97.59,3.84-.31,5.14-1.19,1.72-2.9,2.25-4.6,2.15-1.53-.09-2.11-1.54-1.93-3.19Z"/>
      <path class="cls-4" d="M181.16,229.99c0,1.89-2.03,4.72-3.57,4.94-1.02.15-1.95-.24-2.57-1.23-.56-.9-.5-2.04-.07-2.97.76-1.64,1.9-2.86,3.4-3.36,1.52-.51,2.81.77,2.8,2.62Z"/>
      <path class="cls-4" d="M188.4,255.02c-1.86,3.65-3.01,7.83-5.37,11.12-.91,1.28-1.85,2.54-2.84,3.73-.55.66-.94.31-1.03-.56,4.17-5.55,5.85-12.81,8.88-19.14,1.17,1.44-1.09,3.39.35,4.85Z"/>
      <path class="cls-4" d="M189.64,233.89c0,1.91-2.06,4.62-3.65,4.81-1.25.16-2.39-1.53-2.02-3.16.38-1.68,1.24-3.01,2.43-3.99.77-.63,1.6-.68,2.4-.06.71.55.85,1.44.83,2.39Z"/>
      <path class="cls-4" d="M124.78,191.42c1.67.04,3.04,1.25,3.09,2.73.05,1.6-2.07,3.57-3.8,3.54-1.46-.02-2.69-1.62-2.57-3.35.13-1.8,1.44-2.97,3.28-2.93Z"/>
      <path class="cls-4" d="M144.7,227.02c-.92.04-1.24-.86-1.53-1.71-.35-1.01-.45-2.04.36-2.88.74-.77,1.43-1.61,2.2-2.33,1.08-1,2.33-.49,2.8,1.08.61,2.07-1.95,6.01-3.82,5.83Z"/>
      <path class="cls-4" d="M156.95,206.68c1.19.08,2.19,1.66,1.79,3.02-.61,2.1-1.84,3.51-3.53,4.31-.88.42-1.47-.05-1.8-1.03-.82-2.44,1.44-6.44,3.54-6.3Z"/>
      <path class="cls-4" d="M139.55,188.05c-.42,1.24-1.32,1.74-2.32,1.61-1.3-.18-2.48-.98-3.44-2.05-.92-1.02-.54-2.61.63-3.14,1.31-.59,4.44,1.12,5,2.76.08.23.08.51.12.82Z"/>
      <path class="cls-4" d="M170.03,253.26c-1.24-.01-1.78-.96-1.85-2.49-.09-1.98.65-3.07,2.19-3.09,1.02-.02,2.02.2,2.12,1.77.09,1.43-1.38,3.72-2.46,3.82Z"/>
      <path class="cls-4" d="M195.22,224.76c1.05.02,1.92.43,2.06,1.87.13,1.34-1.3,2.89-2.55,2.81-1.18-.07-2.04-.82-2.26-2.24-.19-1.23,1.31-2.49,2.76-2.44Z"/>
      <path class="cls-4" d="M146.07,206.02c.01,1.24-1.21,2.72-2.31,2.8-.86.07-1.43-.36-1.46-1.52-.04-1.53,1.21-3.16,2.37-3.02.86.1,1.29.78,1.41,1.74Z"/>
      <path class="cls-4" d="M151.11,242.44c.29,2.14.41,3.9-.08,5.62-.22.77-.79,1.25-1.53,1.05-.66-.18-.73-.87-.73-1.53.02-2.04.55-3.76,2.33-5.14Z"/>
      <path class="cls-6" d="M133.78,202.15c.61-.63,1.17-1.45,2.33-.84-.49,1.23-1.21,1.9-2.28,2.08-.02-.41-.04-.82-.05-1.24Z"/>
      <path class="cls-4" d="M190.12,262.63c-.3.96-.67,1.11-1.14.15.38-.05.76-.1,1.14-.15Z"/>
      <path class="cls-6" d="M188.77,261.98c-.43-.51-.45-1.12-.28-1.77.37.52.48,1.11.28,1.77Z"/>
      <path class="cls-5" d="M171.46,262.4c-.12.65-.44,1.05-1,1.16.33-.39.66-.78,1-1.16Z"/>
      <path class="cls-5" d="M144.13,235.74c.07-.32.25-.49.39-.31.15.19.03.42-.23.51,0,0-.16-.2-.16-.2Z"/>
      <path class="cls-4" d="M179.12,269.15c-.3-.2-.42-.49-.31-.9.1.3.2.6.31.9Z"/>
      <path class="cls-6" d="M179.89,243.75c.05-.11.13-.32.15-.31.22.09.16.2-.16.3,0,0,0,0,0,0Z"/>
      <path class="cls-5" d="M179.25,261.2c.04-.11.1-.31.13-.31.19.05.14.15-.16.26,0,0,.03.04.03.04Z"/>
      <path class="cls-5" d="M133.78,202.15c.02.41.04.82.05,1.24-.16.09-.33.15-.51.18-.14-.19-.29-.38-.43-.58.29-.28.59-.56.88-.84Z"/>
      <path class="cls-2" d="M80.75,202.69c1.51-.18,2.86-1.03,4.3-1.49.82-.26,1.78-.54,1.88,1.13-5.62,1.97-11.16,4.16-16.12,8.08-2.88.45-5.17,2.63-7.78,3.89-2.88,1.18-5.4,3.25-8.07,4.95-1.8,1.14-3.42,2.79-5.53,3.11,0,0,0,0,0,0,.52-2.34,2.35-2.84,3.75-3.84,8.81-6.24,18.02-11.47,27.56-15.83Z"/>
      <path class="cls-2" d="M90.23,214.27c2.3-.69,4.07-3.12,6.62-3-.87,1.64-2.65,2.05-3.44,3.8-1.32.57-2.62,1.23-3.71,2.36-2.47.34-4.09,2.5-5.97,4.11-2.18,1.37-4.37,2.72-6.54,4.11-.77.49-1.44,1.15-1.8,2.16-1.76.08-2.86,1.7-4.22,2.7-1.38,1.01-2.55,2.43-4.1,3.08-.11-.15-.21-.3-.31-.45.24-1.12,1-1.63,1.69-2.27,4.86-4.57,10.06-8.49,15.43-12.09,2.15-1.44,4.24-3,6.36-4.51Z"/>
      <path class="cls-2" d="M54.64,212.04c-.3-1.87,1.07-2.07,1.91-2.68,5.38-3.95,11.02-7.24,16.86-10.05,2.96-1.04,5.92-2.09,8.97-3.16-.02,1.64-1.46,1.29-1.78,2.3-7.55,3.52-15.19,6.77-22.13,11.97-1.14.85-2.24,2.17-3.82,1.62Z"/>
      <path class="cls-4" d="M75.39,227.82c.37-1.01,1.04-1.67,1.8-2.16,2.17-1.39,4.36-2.75,6.54-4.11.91,6.75-1.11,9.25-6.46,8.7-1.21-.12-1.41-1.44-1.88-2.42Z"/>
      <path class="cls-2" d="M84.47,209.67c2.15.2,3.86-2.19,6.09-1.56-1.61,2.05-3.87,2.76-5.81,4.13-1.58,1.12-3.21,2.12-4.81,3.2-.74.5-1.43,1.18-2.51.42,1.99-2.85,5.07-3.6,7.04-6.2Z"/>
      <path class="cls-4" d="M89.7,217.43c1.09-1.12,2.38-1.78,3.71-2.36-.37,3.35-1.85,5.77-4.17,7.5-.36.27-.79.52-1.16.02-.34-.46-.29-1.04.04-1.41.9-1.03,1.53-2.21,1.59-3.75Z"/>
      <path class="cls-4" d="M66.72,218.99c.09,1.03-1.31,2.45-2.55,2.42-1.12-.03-2.21-.44-2.36-2.05-.15-1.57.6-2.4,1.88-2.56,1.4-.17,2.92.91,3.03,2.18Z"/>
      <path class="cls-4" d="M63.03,214.29c2.61-1.25,4.9-3.44,7.78-3.89-.78,2.21-4.45,5.54-6.06,5.5-.9-.02-1.1-1.14-1.71-1.62Z"/>
      <path class="cls-2" d="M101.96,216.75c.53,1.67-.62,1.37-1.29,1.62-.05-1.1.62-1.36,1.29-1.62Z"/>
      <path class="cls-4" d="M44.89,225.53c.17-.3.31-.64.51-.9.28-.37.64-.58,1.06-.32.08.05.17.21.15.3-.07.56-.39.82-.82.88-.3.04-.6.02-.91.03h0Z"/>
      <path class="cls-4" d="M48.83,223.24c-.35.47-.79.92-1.17.2-.24-.44.14-.85.55-1.02.21.27.42.54.62.81Z"/>
      <path class="cls-2" d="M97.46,210.51c.39-.75.81-.91,1.26-.07-.42.02-.84.04-1.26.07Z"/>
      <path class="cls-2" d="M48.83,223.24c-.21-.27-.42-.54-.62-.81.41-.02.82-.05,1.22-.07,0,0,0,0,0,0-.2.29-.4.59-.6.88Z"/>
      <path class="cls-2" d="M67.06,233.59c-.31.55-.74.82-1.28.79l-.18-.21c.21-.63.68-.83,1.15-1.03.1.15.2.3.3.45Z"/>
      <path class="cls-4" d="M44.88,225.52c-.05.11-.11.33-.14.33-.22-.05-.17-.18.15-.31,0,0,0-.01,0-.01Z"/>
      <path class="cls-2" d="M65.78,234.39c-.11.42-.34.66-.7.73,0,0-.12-.15-.12-.15.08-.43.32-.67.65-.79,0,0,.18.21.18.21Z"/>
      <path class="cls-2" d="M64.24,235.79c.11-.44.34-.71.71-.82,0,0,.12.15.12.15-.09.45-.34.7-.69.83l-.14-.16Z"/>
      <path class="cls-6" d="M64.38,235.94c-.07.31-.25.47-.4.29-.14-.17,0-.38.26-.45,0,0,.14.16.14.16Z"/>
      <path class="cls-2" d="M96.81,211.3c.23-.28.45-.55.68-.83-.03.51-.31.72-.68.83Z"/>
      <path class="cls-4" d="M137.1,244.38c1.18.51,2.27-.45,3.74-.36-.63,2.53-.61,4.99-.56,7.45.07,3.34.67,3.75,3.07,2.21.19-.12.34-.34.53-.44.19-.1.4-.12.93-.27-1.6,5.72.44,10.85,1.28,16.16-1.64-.29-1.72-2.16-2.26-3.48-.48-1.16-.62-2.53-1.73-3.15-.13-1.32,1.07-2.49.33-4.36-.87,1.62-1.54,2.94-2.27,4.22-.72,1.26-.82,3.07-2.22,3.73-.63-2.56.36-5.56-1.46-7.81-.16-.2-.16-.84-.03-1.14,1.36-3.12-.33-4.78-2.01-6.46-.17-1.6.87-2.94.66-4.55,0,0,.03-.04.03-.04.21-.25.41-.51.62-.76,0,0,.02-.03.02-.03.45-.31.89-.62,1.34-.93Z"/>
      <path class="cls-6" d="M125.98,239.8c1.1-.37,1.49-2.22,2.97-2.09.27,2.48-1.66,3.48-2.23,5.31-1.04,1.98-2.11,3.95-3.12,5.96-.31.62-.98,1.46-.31,2.09,1.42,1.34,1.11,3.09.72,5.24,1.55-1.27,1.88-3.24,3.27-3.88l.07.08c-.58,2.65-1.57,5.04-3.03,7.13-.32-.04-.64-.08-.96-.12-.05-.93.45-2.3-1.1-1.99-1.16.23-2.32.47-3.58.73-.15-2.91.54-5.2,2.08-7.61,2.09-3.29,3.52-7.2,5.23-10.85Z"/>
      <path class="cls-6" d="M150.02,269.87c.28-.7.64-1.53,1.33-1.27.92.35.57,1.43.53,2.28-1.34,3.7-1.54,7.85-3.15,11.44-.62,1.39.32,1.61,1.04,2.23,1.92,1.65,2.04,3.38.56,5.23-.88,1.1-1.89,1.84-3.18,1.2-1.29-.64-1.12-2.08-1.08-3.39.1-3.32,1.02-6.44,1.69-9.61.29-1.4.64-2.78.97-4.17.88-.85.6-2.06.64-3.17,0,0-.01.03-.01.03.22-.27.43-.54.65-.81Z"/>
      <path class="cls-6" d="M135.09,246.14c.22,1.61-.82,2.95-.66,4.55-3.05,3.89-4.45,8.92-6.3,13.63-.7,1.77-1.15,3.68-1.79,5.48-.27.77-.36,1.84-1.57,1.94.51-3.84,1.72-7.28,2.94-10.74,1.18-3.36,3.09-6.34,3.57-10.07,1.27-.14,1.53-1.62,2.19-2.55.54-.76.75-1.85,1.63-2.25Z"/>
      <path class="cls-4" d="M160.38,284.25c.04-2.02,1.07-3.81,2.61-5.14,1.18-1.02,2.38-.28,2.58,1.42.22,1.89-1.07,5.02-2.47,5.99-1.66,1.15-2.67.46-2.72-2.28Z"/>
      <path class="cls-2" d="M137.94,266.1c1.4-.66,1.5-2.47,2.22-3.73.72-1.28,1.4-2.59,2.27-4.22.75,1.87-.45,3.03-.33,4.36-1.86,3.86-3.5,7.85-4.59,12.15-.53.46-.64,1.43-1.35,1.68-.04-3.58,1.34-6.79,1.78-10.24Z"/>
      <path class="cls-4" d="M135.16,266.18c.02,2.1-1.74,4.33-3.49,4.42-1.1.06-1.8-.99-1.42-2.3.32-1.11.79-2.16,1.26-3.19.45-.98.73-2.5,2-2,1.1.43,1.68,1.58,1.64,3.08Z"/>
      <path class="cls-4" d="M136.16,276.34c.71-.25.82-1.22,1.35-1.68,2.18,1.89,2.39,2.67,1.13,3.98-.74.76-1.61,1.01-2.35.41-.86-.69-.68-1.76-.12-2.71Z"/>
      <path class="cls-4" d="M131.52,289.68c-1.25-.04-1.66-.7-1.57-1.79.1-1.16.58-2.03,1.63-1.98.94.05,1.24,1.09,1.31,1.95.11,1.34-.72,1.73-1.37,1.81Z"/>
      <path class="cls-7" d="M149.38,270.66c-.04,1.11.24,2.31-.64,3.17-.74-.54-.62-1.44-.63-2.28.42-.29.85-.59,1.27-.88Z"/>
      <path class="cls-4" d="M174.34,284.3c.34-.04.67-.08,1.01-.12,0,.13.02.25.02.38-.02.89-.12,2.31-.8,2.14-1-.26-.56-1.5-.23-2.39Z"/>
      <path class="cls-4" d="M128.63,250.1c.03.67-.07,1.27-.62,1.62,0,0-.11-.13-.11-.12.04-.64.19-1.2.7-1.52l.03.03Z"/>
      <path class="cls-4" d="M146.12,269.15c.36.09.54.37.53.82-.18-.27-.35-.55-.53-.82Z"/>
      <path class="cls-5" d="M123.36,259.52c.32.04.64.08.96.12-.22.4-.41.86-.91.77-.02-.3-.04-.59-.05-.89Z"/>
      <path class="cls-6" d="M128.02,251.72c-.11.4-.3.7-.66.78,0,0-.07-.08-.07-.07.21-.28.41-.55.62-.83l.11.13Z"/>
      <path class="cls-4" d="M129.26,249.29c-.1.4-.28.7-.63.81,0,0-.03-.03-.03-.03.22-.26.44-.52.66-.78h0Z"/>
      <path class="cls-6" d="M122.27,227.2c1.58-.07,2.08-2.64,3.78-2.43-.56,2.69-2.49,4.2-3.68,6.36-.96,1.74-2.15,3.29-3.25,4.91-.35.51-.87,1.12-.62,1.72.94,2.28-.51,3.31-1.42,4.74-1.22,1.93-2.86,2.16-4.63,2.11,0,0-.1-.11-.1-.11,1.78-4.54,4.69-8.09,7.12-12.07,1.02-1.68,2.27-3.17,2.8-5.24Z"/>
      <path class="cls-4" d="M116.32,223.18c.94,3.79.07,6.73-2.46,8.86-1.68,1.41-2.8-.01-4.06-.94,1.56-3.07,4.23-4.92,5.83-7.94,0,0,0,0,0,0,.19,0,.38-.03.56-.08l.12.11Z"/>
      <path class="cls-6" d="M115.63,223.15c-1.6,3.03-4.27,4.87-5.83,7.94-.06.23-.11.46-.15.69-2.25,1.12-3.62,3.42-5.04,5.64-.85.47-1.3,1.68-2.3,1.86-.17-.16-.33-.33-.49-.5.35-1.46,1.33-2.34,2.14-3.36,2.08-2.62,4.12-5.28,5.81-8.32,1.19-.57,2.24-1.38,3.09-2.56.74-1.03,1.63-1.58,2.78-1.4Z"/>
      <path class="cls-4" d="M104.61,237.42c1.42-2.23,2.79-4.52,5.04-5.64.21.75.43,1.48.62,2.24.4,1.65.25,3.16-.97,4.23-1.17,1.03-2.4.98-3.61.03-.36-.28-.72-.57-1.08-.86Z"/>
      <path class="cls-4" d="M88.34,258.98c-.05-2.24.6-3.33,1.94-3.31.95.02,1.29.68,1.35,1.74.1,1.84-1.04,3.73-2.25,3.61-1.05-.1-.99-1.13-1.03-2.04Z"/>
      <path class="cls-4" d="M100.31,246.13c.65.02,1.35.02,1.53,1.02.21,1.16-1.44,3.19-2.72,3.41-.75.13-.94-.46-.97-1.16-.06-1.76.9-3.19,2.15-3.27Z"/>
      <path class="cls-2" d="M107.21,226.3c.11-2.48,1.66-3.24,3.21-3.98.26,1.97-1.52,2.48-1.9,3.99-.44.14-.88.34-1.31-.02Z"/>
      <path class="cls-6" d="M99.27,242.8c.42-1.75,1.56-2.81,2.55-4.01.16.17.32.33.49.5-.37,1.86-1.24,3.19-2.72,3.89-.11-.13-.21-.26-.32-.38Z"/>
      <path class="cls-6" d="M106.29,247.45c.28-.8.27-1.79,1.2-2.34.58,1.33-.25,1.99-.8,2.74-.13-.14-.26-.27-.4-.4Z"/>
      <path class="cls-6" d="M126.7,223.97c.05-1.01.13-1.93,1.2-.89-.4.3-.8.59-1.2.89Z"/>
      <path class="cls-6" d="M98.07,245.29c-.04-.69.14-1.24.63-1.62,0,0,.18.22.18.22-.04.65-.23,1.18-.75,1.47l-.06-.07Z"/>
      <path class="cls-5" d="M118.73,247.56c.11-.31.22-.62.33-.94.11.11.33.29.32.32-.13.28-.3.55-.45.81,0,0-.19-.19-.19-.19Z"/>
      <path class="cls-6" d="M111.74,246.12c-.03-.67.09-1.26.61-1.62,0,0,.1.11.1.11-.02.66-.18,1.22-.71,1.52h0Z"/>
      <path class="cls-6" d="M126.04,224.75c.09-.42.3-.69.65-.79-.06.46-.26.74-.65.79Z"/>
      <path class="cls-6" d="M99.59,243.18c-.24.24-.47.47-.71.71,0,0-.18-.22-.18-.22.19-.29.38-.58.57-.87.11.12.21.25.32.38Z"/>
      <path class="cls-6" d="M111.74,246.13c-.1.12-.2.23-.31.35.01-.08,0-.2.05-.24.07-.06.17-.08.25-.11,0,0,0,0,0,0Z"/>
      <path class="cls-6" d="M98.13,245.36c-.12.11-.24.23-.36.34.1-.14.2-.27.3-.41,0,0,.06.07.06.07Z"/>
      <path class="cls-2" d="M107.23,216.82c-.71,3.07-3.04,4.33-4.82,6.06-4.89,4.75-9.7,9.61-14.51,14.48-.33.34-.67.65-1.38.56-.02-1.66,1.1-2.36,1.89-3.21,3.7-4.02,7.45-7.97,11.16-11.98.72-.78,1.35-1.69,2.02-2.54,2.29-.11,3.46-2.98,5.64-3.36Z"/>
      <path class="cls-1" d="M129.26,249.29c-.22.26-.44.52-.66.78-.51.32-.66.89-.7,1.52-.21.28-.41.55-.62.83-1.39.64-1.73,2.61-3.27,3.87.39-2.15.7-3.9-.72-5.24-.66-.63,0-1.47.31-2.09,1.01-2.01,2.07-3.98,3.12-5.96.9-.08,1.72,0,1.9,1.38.21,1.63.89,3.18.64,4.9Z"/>
      <path class="cls-2" d="M110.42,222.33c.9-1.92,2.08-3.41,3.9-3.98-.55,2.43-1.6,4.12-3.9,3.98Z"/>
      <path class="cls-6" d="M137.1,244.38c-.45.31-.89.62-1.34.93,0-.66.11-1.25.66-1.56.23.21.45.42.68.63Z"/>
      <path class="cls-2" d="M108.64,216.02c-.37.56-.79,1-1.44.82.3-.75.86-.82,1.44-.82Z"/>
      <path class="cls-2" d="M114.31,218.39c.22-.36.45-.73.67-1.1-.08.5-.26.9-.67,1.1Z"/>
      <path class="cls-2" d="M109.68,214.48c-.18.27-.35.53-.53.8.18-.27.35-.53.53-.8Z"/>
      <path class="cls-6" d="M116.2,223.07c-.19.04-.37.07-.56.08.15-.39.33-.55.56-.08Z"/>
      <path class="cls-6" d="M135.74,245.35c-.21.25-.41.51-.62.76.21-.25.41-.51.62-.76Z"/>
      <path class="cls-2" d="M194.03,269.88c-.26.75-.28,1.95-1.17,1.91-.84-.04-.62-1.12-.62-1.82,0-.79.18-1.57,1.03-1.49.65.06.78.69.77,1.41Z"/>
      <path class="cls-5" d="M200.01,253.26c.04-.1.1-.29.13-.29.19.05.14.16-.14.27,0,0,.02.02.02.02Z"/>
      <path class="cls-4" d="M53.75,204.9c.86.13,1.91-.29,2.05,1.26.1,1.16-1.22,2.6-2.38,2.66-1.23.07-2.39-.77-2.35-2.05.05-1.78,1.61-1.66,2.68-1.87Z"/>
      <path class="cls-7" d="M83.17,189.93c-1.31.08-2.53.95-3.88.62,0-.74,0-1.48,0-2.22,1.84-1.18,3.9-1.12,5.87-1.54.39-.08.9.02.98.71.06.57-.2,1.04-.6,1.26-.78.44-1.59.78-2.38,1.17Z"/>
      <path class="cls-7" d="M77.22,188.95c.25-.16.49-.33.74-.49-.25.16-.49.33-.74.49Z"/>
      <path class="cls-4" d="M271.38,269.92c-.29-.11-.58-.22-.87-.33.06-.11.1-.29.17-.31.38-.08.58.21.73.59,0,0-.03.05-.03.05Z"/>
      <path class="cls-4" d="M255.7,244.67c-.06-.16-.13-.33-.19-.49.13.09.25.17.38.26,0,0-.19.23-.19.23Z"/>
      <path class="cls-1" d="M348.63,245.82c.23.37.46.73.69,1.1-.4-.21-.6-.6-.69-1.1Z"/>
      <path class="cls-1" d="M299.13,284.72c-.16-.2-.32-.4-.48-.6.16.2.32.4.48.6Z"/>
      <path class="cls-7" d="M150.02,269.87c-.22.27-.43.54-.65.81.22-.27.43-.54.65-.81Z"/>
      <path class="cls-4" d="M195.48,258.03c-.09.11-.19.21-.28.32.08-.12.16-.24.24-.36,0,0,.04.05.04.05Z"/>
    </g>
  </g>
  <path class="cls-5" d="M241.39,405.22l2.35-.81-2.35.81Z"/>
  <polygon class="cls-4" points="243.79 404.41 241.34 405.09 241.11 404.24 243.42 403.71 243.79 404.41"/>
</svg>