<?xml version="1.0" encoding="UTF-8"?>
<svg id="Sprite_Alien" xmlns="http://www.w3.org/2000/svg" viewBox="0 0 471.47 422.46">
  <defs>
    <style>
      .cls-1 {
        fill: #452c59;
      }

      .cls-1, .cls-2, .cls-3, .cls-4, .cls-5 {
        stroke-width: 0px;
      }

      .cls-2 {
        fill: #27282b;
      }

      .cls-3 {
        fill: #754482;
      }

      .cls-4 {
        fill: #a55696;
      }

      .cls-5 {
        fill: #16191f;
      }
    </style>
  </defs>
  <g id="Wings">
    <g id="W4">
      <path class="cls-5" d="M179.37,122.04c1.61-2.97,1.49-6.24,2.08-9.63,3.35,1.15,5.54,3.44,7.44,5.93,2.33,3.05,4.27,6.39,4.98,10.22.35,1.89,1.38,2.99,2.88,4.01,7.37,5.02,14.37,10.49,20.19,17.31,5.86,6.86,9.87,14.71,12.43,23.34.68,2.3.59,4.21-1.2,6.08-4.25,4.45-6.09,10.12-7.21,15.97-.73,3.83-2.7,6.53-5.77,8.66-4.54,3.15-9.31,5.65-15.1,4.9-1.4-.18-1.93.29-2.24,1.67-1.17,5.11-3.73,9.38-8.15,12.36-1.72,1.16-2.24,2.72-2.25,4.74-.02,3.33,1.14,6.54,1.13,10.1-4.65-.28-8.3-2.38-11.87-5.07-4.63,3.67-6.19,8.79-7.02,14.22-.9,5.86.09,11.56,1.77,17.17.39,1.28.76,2.57,1.34,4.52-4.5-1.53-8.22-3.35-11.29-6.38-4.34-4.3-7.89-9.16-10.4-14.75-1.41-3.15-2.92-6.3-3.51-9.72-.26-1.54-1.05-2.23-2.31-2.43-5.68-.93-11.38-.53-14.45,5.34-1.43,2.73-2.94,5.41-4.55,8.35-3.8-4.25-5.69-9.25-6.99-14.5-.93-3.78-2.29-5.04-6.19-4.27-2.96.59-5.8.48-8.74.3-6.47-.4-12.03,2.2-17.2,5.74-4.34,2.96-7.82,6.8-10.82,11.08-1.05,1.5-2.06,3.02-3.18,4.66-1.79-4.2-2.73-12.56-1.96-18.22.78-5.76,2.04-11.4,4.24-16.82,1.59-3.91,3.54-7.58,6.14-10.93,2.16-2.78,1.51-5.32-1.67-6.92-1.87-.94-3.88-1.64-5.96-1.91-1.46-.19-2.06-.69-2.27-2.26-.72-5.25-3.04-7.04-8.24-6.76-2.39.13-4.56,1-6.72,1.9-3.31,1.38-6.29,3.39-9.41,5.14-1.37.77-2.6,1.85-4.43,2.17.81-5.85,2.18-11.43,4.33-16.83,1.18-2.96,1.12-2.99-1.92-4.1-8.14-2.96-16.44-2.84-24.82-1.24-7.04,1.34-13.77,3.67-20.43,6.34.74-7.69,13.91-22.71,27.85-31.68-2.29-3.87-6.73-5.13-10.05-8.23,4.92-1.89,9.78-2.85,14.83-2.77,1.85.03,3.93-.15,5.49.61,4.84,2.37,8.95.06,13.52-1.38-1.27-2.66-3.19-4.54-5.23-6.32-1.92-1.67-3.99-3.18-5.77-5.5,11.05-2.09,20.92-.31,29.97,5.67,1.14.75,2.13,1.61,3.67,1.35,5.39-.9,10.85-.64,16.28-.69.33,0,.67-.15,1.19-.27-.64-3.34-2.9-5.93-4.23-9.33,9.25.84,17,3.69,23.22,10.17,3.91,4.08,4.54,4.32,10.73,5.19-6.34-8.64-15.09-14.26-23.78-20.51,3.19-1.9,6.45-2.83,9.68-3.7,5.47-1.47,11.01-2.69,16.67-3.25,2.98-.3,3.17-.55,2.49-3.46-.55-2.36-1.37-4.65-2.21-7.43,7.79,1.46,14.65,3.69,19.72,9.67.62.74,1.02,1.67,2.02,2.09,4.79,2,5.92,1.24,5.83-3.95-.06-3.74-1.08-7.31-1.92-10.92-.22-.93-.63-1.83-.14-3.15,7.26,4.17,13.88,8.75,18.3,15.92,1.16,1.89,2.55,3.72,3.3,5.77,1.35,3.7,3.73,5.94,7.88,6.61ZM127.26,204.01c-.15.04-.27.12-.35.25-.5.12-.89.37-1.09.86-4.99,4.87-9.43,10.17-12.74,16.35-.97,1.21-1.94,2.41-1.84,4.4,3.53-.96,6.56.07,9.61,1.09,1.42.47,2.21,1.07,2.29,2.8.16,3.4,1.12,6.66,2.6,10.23,1.75-2.73,3.6-4.92,4.36-7.68,3.11-11.28,9.18-20.93,16.28-30.04,1.25-1.6,2.89-2.97,3.44-5.06h-.14c.8.33,1.04-.22,1.28-.8.46-.45.92-.9,1.38-1.35,3.2-2.61,6.16-5.45,8.68-8.82-3.45.12-6.8.04-9.87,1.52-6.24,3-12.3,6.34-17.76,10.62-1.91,1.49-4.33,2.48-5.46,4.87-.15.09-.25.21-.29.38-.18.07-.3.2-.37.37ZM78.97,228.86c.06-.45.12-.9.18-1.35,1.01-.34,1.68-1.12,2.07-2.01,3.31-7.57,9.36-12.92,15.05-18.55,3.52-3.48,7.47-6.41,11.98-8.54,2.68-1.26,5.33-2.58,7.98-3.9.65-.32,1.57-.67,1.41-1.51-.36-1.96-1.01-3.87-2.8-5.02-1.62-1.03-2.74.05-3.79,1.16-1.37-.16-2.27.83-3.31,1.42-6.78,3.84-12.45,9.09-18.33,14.13-6.01,5.14-9.12,11.71-11.26,18.98-.99,2.14-1.56,4.39-1.79,6.72.03,1.54-1.16,3.03-.47,4.86,1.25-.94,1.17-2.19,1.85-3.07.73-.94,1.46-1.99,1.25-3.33ZM159.27,209.68c.42.43.82.89,1.27,1.29,2.36,2.12,3.77,1.96,5.52-.62.44-.64.6-1.33.43-2.09,2.69-3.76,4.92-7.83,8.14-11.29-2.05-1.63-3.85-3.08-5.69-4.51-.98-.77-1.8-.65-2.35.55-.91,2-2.3,3.83-2.15,6.2-.59.16-1.05.36-1.33,1.05-1.13,2.81-3.17,4.85-5.65,6.53-.65.44-1.66.65-1.61,1.8,1.09.5,2.17,1.06,3.42,1.1ZM96.52,131.51c-.09.6-.26,1.19-.27,1.79-.04,2.8-.03,2.8,3.12,2.74.72.26,1.5.4,2.02,1.03.12.43.39.68.84.71.22.24.45.47.67.71-.14.89.16,1.68.51,2.48,2.58,5.87,7.56,8.58,13.42,9.86,4.35.95,8.49,2.39,12.55,4.14,1.37.59,2.74,1.6,4.97.83-2.94-3.8-5.67-7.36-8.46-10.89-.36-.45-.96-.9-1.51-.98-2.54-.37-4.89-1.67-7.53-1.5-2.51-1.36-5.59-1.64-7.6-3.96-3.27-4.51-7.64-7.46-13.09-9.38.14,1.02.23,1.72.33,2.42ZM131.36,107.15c-.26,8.86-1.38,7.77,7.36,8.91,1.3.12,2.61.47,4.12-.3-2.37-4.33-5.8-7.23-10.21-9.02-.46-.19-.96-.08-1.27.41ZM184.45,121.33c-.71,1.42-1.42,2.85-2.13,4.27-2.13,4.25-2.05,4.48,2.37,6.5.43.19.94.19,1.42.28.88.49,1.82.66,2.81.5,1.01-.16,1.49-.66,1.21-1.75-.85-3.44-2.02-6.73-4.31-9.51-.32-.39-.73-1.1-1.38-.29ZM138.54,142.93l.05.06c.03-3.91-1.55-7.07-4.47-9.61-2.31-2.01-4.73-3.85-7.42-5.32-4.67-3.58-10.01-5.61-15.63-7,3.3,3.06,6.37,6.23,9.52,9.32,5.86,5.75,9.91,12.85,14.81,19.32,6.45,8.51,12.68,17.15,20.51,24.59,7.25,6.89,14.71,13.48,22.7,19.48,5.86,4.4,12.17,8.04,19.4,9.62,5.11,1.12,10.05.63,14.06-3.32.46-1.16-.58-1.2-1.15-1.34-1.67-.4-3.39-.63-5.08-.95-8.98-1.73-17.03-5.52-24.28-11.04.29-.28.57-.57.86-.85,2.22.48,3.85,2.09,5.81,3.07,7.6,3.83,15.6,6.36,23.95,7.87,3.27.59,3.75.24,4.19-3.52,1.43-5.89,3.97-11.27,7.53-16.18,1.25-1.02,1.26-2.31.78-3.68-.61-1.74-1.22-3.48-1.91-5.19-5.45-13.46-15.46-22.91-27.16-30.86-2.2-1.5-4.26-3.4-7.35-2.04-.78.34-1.93-.14-2.9-.25-1.25-.61-2.49-1.23-3.74-1.84-.95-1.38-2.62-2.36-2.86-4.1-.27-2-1.39-2.9-3.13-3.47-1.03-.34-1.99-.87-2.98-1.32-.7-.73-1.42-.91-2.17-.07-.22.12-.46.17-.71.16-1.5,0-1.02-.99-.9-1.8.02-.21.11-.39.26-.54.93-.72.64-1.4-.07-2.07-2.43-5.53-5.32-10.75-9.93-14.82-.38-.93-1.45-1.08-2.03-1.78-.09-.37-.34-.54-.7-.58-.13-.09-.26-.19-.39-.28.09.13.18.26.27.39,0,3.9.74,7.94-.87,11.6-.92,2.09-1.32,4.11-1.43,6.28-.85.26-1.1-.37-1.39-.95-.17-.22-.35-.43-.52-.65-1.96-2.41-4.64-3.49-7.42-2.37-2.46.99-4.88,1.34-7.42,1.55-1.25-.67-2.6-.72-3.97-.65-.13-.1-.28-.14-.45-.1-1.46-1.15-3.12-2.12-4.96-2.09-5.64.08-11.21.84-16.87,2.42,1.24,1.23,2.51,1.18,3.7,1.38,6.95,2.86,13.33,6.66,19.41,11.1,3.27,2.39,5.42,5.23,6.42,9.06.28,1.07.58,2.12.85,3.19.52,2.07,1.72,3.47,3.85,3.98l-1.42,1.28c-.22.11-.44.19-.68.24-.45-.04-.77.13-.87.6l-.04.02c-1.92.3-3.12-.22-2.92-2.46.04-.48-.12-.97-.19-1.45.12-.76.32-1.54-.54-2.04ZM127.28,182.15c-3.76.33-7.47-.11-11.23-1.08.12,1.76,1.02,2.82,1.57,4.02-.18,3.48.88,5.35,3.84,6.76,1.93,1.16,3.42-.25,4.97-.93,6.84-3.02,13.63-6.17,21.06-7.55,2.61-.48,5.21-1.01,8.05-1.56-.64-1.99-2.2-2.87-3.36-4.02-4.38-4.34-4.41-4.31-9.73-.97-.09.06-.13.21-.19.31-4.07,1.15-7.94,2.82-11.83,4.44-.52.07-1.05.13-1.57.2-.59-.16-1.12-.05-1.57.39ZM97.01,181.72c-.43-.09-.71.08-.88.47-6.39,2.66-11.7,6.95-17.41,11.34,3.18,1.66,6.2,2.81,7.69,5.89.41.85,1.18.83,1.83.26.74-.64,1.39-1.38,2.07-2.08,5.12-3.8,9.76-8.42,15.52-11.1,4.4-2.04,5.97-4.8,5.58-9.24,1.03-.44,2.01-.66,3.2-.39,2.03.46,4.12.74,6.19.89,8.63.6,16.03-3.07,23.39-6.84.45-.23.78-.67.53-1.19-.14-.29-.52-.6-.82-.65-.85-.13-1.71-.16-2.57-.16-4.57.04-9.02,1.04-13.44,2.02-5.98,1.32-11.92,2.85-17.64,5.11-4.37,1.37-8.69,2.84-12.54,5.41-.23.09-.47.18-.7.26ZM191.2,206.51c-2.62-1.36-5.25-2.7-7.86-4.09-1.5-.8-2.29-.41-2.56,1.26-.37,2.3-1.49,4.45-1.35,6.85-.21,4.47-.55,8.94.56,13.35-.34.59-.68,1.17-1.21,2.1-1.04-2.06-.9-3.99-1.17-5.83.04-.09.14-.2.12-.26-.06-.17-.17-.33-.26-.49-.51-3.24-.06-6.52-.32-9.77-.22-2.28.63-4.34,1.24-6.47.33-1.13,1.7-2.66-.15-3.56-1.81-.88-2.2,1.15-2.99,2.04-2.41,2.7-3.85,6-5.34,9.25-.3.66-.38,1.44-.96,1.97-3.69,3.33-4.74,7.91-5.92,12.43-.91,3.48-.78,7.08-1.31,10.61-.28,1.84-.7,3.92.57,5.71.11,1.84.35,3.65,1.35,5.27.07.24.15.47.22.71-.1,1.08.05,2.06,1.23,2.94,0-1.65,0-2.99,0-4.33.55-2.15,1.02-4.32,1.68-6.44,1.49-4.74,4.26-8.57,8.36-11.43,1.43-1,2.58-1.76,3.89.37.78,1.28,2.19,2.27,3.87,2.43.54-1.08.27-2.07.21-3.03-.24-3.42.59-6.22,3.59-8.35,1.98-1.41,3.8-3.17,4.75-5.55,1.09-1.18,1.47-2.71,1.97-4.17.89-2.59.85-2.6-2.18-3.51ZM142.82,211.84l.11.04c-1.1.43-1.61,1.4-2.2,2.33-2.79,4.35-5.13,8.93-7.15,13.67-.56,1.31-1.34,2.6-1.23,4.45,5.36-1.87,10.73-2.69,16.1-.71.73-1.15,1.1-2.17,1.11-3.3,1.3-4.08,2.14-8.28,2.94-12.48.35-1.82.28-3.45-1.48-4.91-1.97-1.65-1.8-2.94.2-4.44,1.1-.82,1.79-1.96,2.79-2.83.46.08.75-.12.91-.55.17-.08.33-.17.49-.26,1.26-.16,1.87-1.12,2.36-2.09,1.68-3.25,3.3-6.53,4.91-9.81.25-.51.5-1.13-.39-1.63-2.82,1.65-4.91,4.24-7.22,6.54-1.01,1-2.4,1.79-2.53,3.45-3.54,3.26-6.31,7.13-8.93,11.12-.5.34-.81.78-.81,1.41ZM36.93,143.53c-3.51-.94-5.62-.85-8.07.44,2.04,1.89,3.24,4.3,4.6,6.61-.06.19-.17.35-.33.47-1.79,1.29-3.56,2.61-5.36,3.88-3.34,2.33-6.54,4.85-9.42,7.73-.43.43-1.3.79-.8,1.72,1.42.13,2.33-.78,3.36-1.41,10.45-6.44,21.57-11.39,33.42-14.6,5.48-1.48,11.14-1.9,16.74-2.71,7.98-1.15,15.88-1.76,23.73.62,1.57.48,3.18.43,4.78.4,2.6-.04,2.95-.6,2.12-3.19-1.28-3.99-4.48-5.27-8.22-5.79-1.23-.79-2.61-.55-3.95-.58-5.17-.14-10.32.13-15.45.77-1.86.23-3.22-.19-4.7-1.36-4.09-3.24-8.62-5.64-13.91-6.28-1.28-.9-2.6-.83-4.28-.33,1.31,1.67,2.47,3.06,3.53,4.53,1.5,2.08,2.99,4.19,2.87,6.95-.44-.02-.87-.04-1.31-.06-.32-.3-.62-.28-.92.03-1.16.34-2.37.56-3.46,1.05-4.87,2.17-9.77,3.53-14.97,1.11ZM162.87,256.56c.15.31.31.62.46.93.09-.08.24-.15.26-.24.06-.41-.17-.68-.5-.88-2.85-6.46-4.36-13.21-4.54-20.29-.17-6.36,1.14-12.41,3.33-18.32.99-2.67-.52-4.51-3.43-4.3-.7.05-1.25.38-1.22,1.08.1,1.99-1.06,3.79-.78,5.79-1.98,5.13-2.65,10.59-4.19,15.84-.32,1.1.26,2.18.59,3.23,1.23,3.89,3.02,7.53,5.1,11.04,1.21,2.38,2.61,4.63,4.92,6.13ZM126.07,200.84c4.23-4.26,9.67-6.94,14.24-10.8-4.05.29-7.53,2.05-10.97,3.87-1.86.99-3.73,1.92-5.8,2.36-13.92,2.99-24.42,11.3-33.48,21.71-1.88,2.16-4.1,4.27-4.94,7.22-2.13,3.08-3.83,6.36-5.05,10.01.83-.02,1.15-.34,1.33-.83,1.06-.62,2.13-1.22,3.17-1.87,6.68-4.14,13.59-7.53,21.8-6.58,1.22.14,1.81-.4,2.21-1.42.86-2.16,1.75-4.4,2.93-6.3,2.32-3.72,5.07-7.23,8.03-10.48,2.12-2.33,3.5-5.4,6.5-6.89ZM17.07,169.43c-.45.1-.85.27-1.02.75-.52.46-1.38.57-1.54,1.58.49-.04.96-.01,1.39-.12,11.26-2.81,22.4-2.98,33.34,1.5,1.35.55,2.58.39,3.86-.37,6.8-4.04,14.09-6.94,21.69-9.07.61.09,1.17.02,1.62-.46,11.36-2.28,22.8-3.77,34.42-3.4,7.77.19,15.5.99,23.29,1.35-5.87-2.91-11.73-5.77-18.17-6.95-3.32-.61-6.46-1.46-9.4-3.12-.94-.53-1.88-1.27-3.09-.99-3.49.82-7,.06-10.25-.71-8.73-2.06-17.46-1.43-26.09-.33-14.56,1.86-28.27,6.59-40.92,14.11-3.01,1.79-6.43,3.1-8.63,6.09-.17.01-.34.06-.49.14ZM105.15,174.93c.64-.08,1.26-.2,1.69-.74,2.32-.27,4.25-1.56,6.35-2.41.61-.02,1.26.08,1.82-.09,5.15-1.64,10.41-2.83,15.74-3.72,3.2-.53,6.4-1.1,9.78-1.69-2.93-2.61-12.08-3.93-20.67-3.16-6.92-.5-13.85-1-20.77.02-1.68-.24-3.35-.14-5.03.07-1.11-.21-2.2-.24-3.19.44-3.47.12-6.86.79-10.22,1.6-1.07-.11-2.1,0-2.99.67-7.81,1.52-15.13,4.36-22.06,8.24-.97.54-2.03,1.06-2.16,2.34-.21,2.16-1.47,3.9-2.2,5.86-.71,1.91-1.79,3.75-1.73,5.88,1.17.29,1.82-.36,2.57-.7,2.69-1.23,5.33-2.53,8.21-3.32,7.18-1.96,13.48,1.26,15.24,7.35.15.51.44.86,1.11,1.03.4-.33.87-.72,1.34-1.1,4.48-3.61,9.29-6.74,14.11-9.86,4.16-2.7,8.77-4.45,13.12-6.74l-.06.04Z"/>
      <path class="cls-5" d="M289.67,112.56c.61,3.18.72,6.52,1.92,9.87,3.23-.95,5.81-2.06,7.38-5.64,4.53-10.31,12.31-17.66,22.77-23.05-1.1,6.52-3.58,12.48-1.96,18.82,3.16.18,5.6-.65,7.76-3.25,3.91-4.72,9.38-7.06,15.24-8.5,1.05-.26,2.13-.39,3.4-.61.46,2.03-.87,3.59-1.18,5.33-.11.61-.29,1.2-.44,1.8-.8,3.13-.81,3.19,2.51,3.57,8.6.99,16.99,2.85,25.05,6.08.33.13.65.31,1.25.59-1.06,1.66-2.71,2.44-4.15,3.42-4.4,2.99-8.72,6.06-12.65,9.66-2.45,2.25-4.8,4.61-6.88,7.67,4.41-.72,7.97-1.88,10.99-5.31,5.44-6.18,12.8-8.99,20.89-9.94.35-.04.76-.13,1.21.55-.26,3.06-3.35,5.35-3.65,9.03,3.99,0,7.86-.44,11.58.11,5.28.78,9.6-.44,14.17-3.23,6.34-3.87,13.6-4.92,21.06-3.8,1.31.2,2.64.25,4.12.38-.12,1.63-1.41,2.11-2.28,2.86-2.62,2.26-5.26,4.5-7.43,7.22-.92,1.16-.91,1.91.69,2.38,1.77.52,3.5,1.17,5.22,1.84,1.1.43,2.15.46,3.24.05,7.93-2.96,15.68-1.66,23.67.91-.72,1.67-2.31,1.97-3.4,2.8-1.76,1.35-3.72,2.43-5.33,3.99-1.15,1.12-1.26,1.89.29,2.81,4.17,2.44,7.83,5.57,11.5,8.71,6.9,5.9,11.53,13.37,15.27,21.61-1.47.43-2.45-.5-3.53-.94-9.45-3.84-19.2-6.22-29.46-6.3-4.52-.03-8.8,1.01-13.02,2.43-2.71.91-2.74,1.04-1.76,3.64,2.09,5.54,3.72,11.19,4.56,17.3-1.7-.18-2.79-1.21-3.99-1.92-3.93-2.33-7.87-4.63-12.12-6.31-1.37-.54-2.77-.94-4.29-1.06-4.92-.36-7.99,1.65-8.24,6.68-.07,1.45-.55,2.15-2.13,2.39-1.93.29-3.83.93-5.65,1.65-2.81,1.11-4.41,4.27-2.04,7.45,7.58,10.16,10.51,21.86,10.12,34.44-.11,3.58-.49,7.14-1.14,10.69-1.19.33-1.39-.79-1.8-1.39-2.31-3.37-4.84-6.55-7.71-9.47-4.71-4.79-10.34-7.91-16.77-9.71-1.1-.31-2.19-.38-3.29-.42-4.04-.16-8.05.41-12.15-.27-3.76-.62-4.76.52-5.42,4.29-.93,5.35-3.15,10.07-6.48,14.3-1.29-.26-1.34-1.43-1.8-2.24-1.15-2.04-2.17-4.15-3.3-6.2-3.19-5.79-10.15-6.07-15.01-4.62-1.28.38-1.21,1.43-1.46,2.32-1.47,5.25-3.5,10.26-6.37,14.89-4.12,6.64-9.27,12.16-16.73,15.13-.45.18-.92.28-1.72.53.89-3.9,1.84-7.55,2.55-11.24,1.37-7.15.56-14.02-3.19-20.38-.56-.95-1.24-1.84-1.93-2.69-1.08-1.33-2.08-1.58-3.65-.31-2.72,2.2-6,3.31-9.7,3.79-.47-2.63.28-5.14.65-7.6.53-3.55-.25-6.13-3.2-8.35-3.56-2.68-5.68-6.49-6.67-10.83-.4-1.76-.98-2.35-2.97-2.15-6.76.69-12.2-2.33-16.97-6.77-1.65-1.54-2.64-3.5-3.11-5.77-1.3-6.23-3.49-12.13-7.58-17.08-1.64-1.99-1.72-3.79-1.07-6.11,3.66-13.07,11.37-23.41,21.43-32.2,3.35-2.93,6.85-5.69,10.61-8.06,1.93-1.22,2.88-2.74,3.47-4.91,1.63-6.01,4.85-11.04,10.12-14.59.6-.4,1.13-1,2.1-.75ZM456.08,165.94c.09.37.19.44.27.2,0-.02-.2-.11-.3-.16-.11-.39-.35-.64-.74-.75-1.6-2.34-3.73-4.14-5.9-5.9-3.76-3.06-7.76-5.76-11.99-8.13-.04-.5-.08-1-.11-1.51,1.66-2.1,3.92-3.73,5.25-6.26-3.75-.77-5.07-.73-8.02.15-2.62.02-4.72,1.96-7.34,2-3.28-1.25-6.58-2.47-9.85-3.76-1.2-.47-2.37-.41-3.58-.19-.5-4.97,3.18-8.03,5.89-12.04-1.55.15-2.61-.4-3.58.5-5.12.69-9.67,2.71-13.6,6.03-1.61,1.35-3.28,1.92-5.39,1.69-5.25-.57-10.52-.89-15.8-.75-1.33.04-2.72-.21-3.93.62-3.36-.12-5.54,1.76-7.2,4.37-.72,1.13-1.43,2.51-.62,3.81.78,1.25,2.25.61,3.42.71.49.04.99-.03,1.47-.1,8.13-1.21,16.24-2.72,24.52-1.35,5.32.88,10.76,1.29,15.97,2.61,12.35,3.14,24.02,8.03,34.83,14.89,1.7,1.08,3.27,2.73,5.59,2.58.07.42.34.65.74.74ZM349.91,205.28c.04.49.27.79.79.79,0,0-.09,0-.09,0,.3.52.54,1.1.92,1.56,4.33,5.23,8.43,10.6,11.04,16.94.55,1.34,1.52,1.41,2.67,1.32,3.22-.23,6.4-.03,9.51.92,5.34,1.63,10.18,4.23,14.58,7.66.51.68.92,1.73,1.95,1.26.34-.15-.17-1.02-.67-1.37-.17-.35-.34-.71-.52-1.06-.01-2.09-1.24-3.71-2.13-5.45-3.53-6.91-8.48-12.75-14.33-17.73-6.78-5.78-14.07-10.83-22.89-13.18-4.17-1.11-8.17-2.65-12.07-4.55-2.71-1.32-5.49-2.9-8.74-2.66-.21-.35-.37-.88-.89-.29.31.08.62.16.93.25.39,1.04,1.39,1.33,2.22,1.84,3.25,2.01,6.5,4.03,9.45,6.47.91.76,1.44,2.09,2.9,2.09.82,1.14,1.7,2.23,2.93,2.98.24.39.53.73,1.02.79l-.07-.06c.05.48.32.75.8.8l-.06-.06c.04.49.31.76.8.8l-.06-.05ZM388.8,190.41l-.2-.16c-.22-.29-.45-.58-.67-.87.66-1.09,1.48-.65,2.14-.1.85.7,1.51,1.62,2.35,2.34,1.83,1.58,2.46,1.44,3.45-.82,2.07-4.74,5.86-6.75,10.81-7.04,4.41-.26,8.12,1.77,11.92,3.53,1.01.47,1.89,1.38,3.23,1.25-.72-3.99-2.76-7.34-3.53-11.07-.35-1.69-1.3-2.45-2.61-3.28-3.78-2.38-8.13-3.28-12.2-4.91-2.24-.9-4.31-2.14-6.72-2.74-5.89-1.46-11.83-2.48-17.85-3.15-5.64-.85-11.34-.8-17.02-.98-1.56-.18-3.15-.54-4.61.4-1.64.15-3.27.3-4.91.45-7.46-.55-14.76.11-21.83,2.8,5.91,1.09,11.78,1.95,17.56,3.42,3.32.84,6.5,2.28,9.98,2.49,3.82,1.51,7.47,3.43,11.5,4.4.5.6,1.15.81,1.91.78l-.06-.02c2.76,2.16,6.04,3.42,8.98,5.28,2.58,1.63,5.18,3.21,7.51,5.19.76.65,1.48,1.51-.07,2.18-.99-.71-1.95-1.47-2.99-2.1-3.82-2.33-7.51-4.93-11.88-6.21-.26-.23-.48-.53-.78-.68-7.23-3.7-14.87-6.21-22.8-7.88-.41-.26-.79-.68-1.24-.77-5.52-1.09-11.05-2.16-16.58-3.15-1.19-.21-2.45-.1-3.68-.09-.64,0-1.26.2-1.5.85-.34.94.39,1.34,1.05,1.64,3,1.4,5.95,2.95,9.06,4.07,3.89,1.4,7.77,3.23,12.13,2.19,2.85-.03,5.64-.49,8.42-1.08,2.02-.43,2.76.11,3.1,2.08.17.97.18,1.97.13,2.95-.07,1.4.45,2.28,1.72,2.95,6.92,3.64,12.92,8.6,19.09,13.32.9,1.13,1.75,2.33,3.41,2.79,1.19-3.75,4.02-5.59,7.45-6.69-.54-1.46-1.88-2.05-2.7-3.11-.1-.2-.24-.35-.45-.44ZM369.86,137.66l.04-.04c1.81.11,3.11-1.25,4.73-1.7.46-.13.27-.81-.22-1.12.11-1.48.23-2.96.34-4.44.04-.23.08-.47.11-.7-.36-1.35-.81-.29-1.23-.05-4.7,1.31-8.14,4.37-11.11,8.06-1.74,1.88-3.81,3.21-6.28,3.97-.9.28-1.71.86-2.56,1.31-2.09-.02-4.16.07-6.2.67-.95.28-2,.35-2.59,1.22-2.47,3.61-5.37,6.95-7.31,10.86.55.54,1.05.59,1.51.38,6.18-2.77,12.76-4.38,19.13-6.57,4.89-1.68,8.29-5.4,10.13-10.37h.07c.88-.11,1.36-.6,1.45-1.48ZM308.42,189.7c-.1-.36-.2-.43-.28-.17,0,.02.19.11.29.17.32,3.35,1.67,6.28,3.69,8.93.3,1.26,1.16,2.14,2.01,3.05,1.61,1.74,3.64,2.93,5.54,4.3,2.38,1.73,2.48,2.45.66,4.73-.23.29-.5.56-.79.78-1.25.93-1.56,2.17-1.23,3.61,1.06,4.67,1.71,9.45,3.5,13.94.82,2.68.85,2.77,3.31,2.13,3.69-.96,7.31-.78,10.92.27.88.26,1.7.83,2.97.68-1.35-5.14-3.57-9.61-6.16-13.92-.95-1.57-1.87-3.19-3.57-4.11,0,0,.05.07.05.07-.09-.45-.18-.89-.27-1.34-.7-1.13-1.25-2.41-2.14-3.38-3.86-4.21-6.63-9.33-11.03-13.07-2.14-2.6-4.16-5.35-7.46-6.65ZM313.2,209.33c.7-.37,1.75-.16,2.2-1.56-3.22-1.78-5.84-4.38-7.73-7.66-.36-.62-.74-1.25-1.42-1.6-.38-2.5-1.41-4.75-2.55-7.15-2.28,1.57-3.53,3.91-6.06,4.63-1.02.29-1.14,1.27-.35,2.06,3.01,3.01,4.84,6.8,6.98,10.38,2.04,4.69,3.59,5.11,7.47,2.02.48-.38.97-.75,1.46-1.12ZM285.43,121.48c-2.9,2.52-3.57,6.08-4.47,9.53-.32,1.24.27,1.87,1.51,1.94.75.05,1.48-.07,2.15-.42,1.83-.08,3.13-1.3,4.56-2.18.9-.56,1.41-1.34.64-2.45-1.42-2.03-2.22-4.33-3-6.67-.39-1.16-1.03-.5-1.4.24ZM333.26,115.87c1.31.61,2.57.29,3.87-.11.93-.28,1.93-.44,2.52.69-3.98,2.02-8.06,2.6-12.35,1.05-3.44-1.24-6.26-.43-8.28,2.46-1,1.43-2.46,2.37-3.53,3.7-2.55,1.02-5.11,2.03-7.66,3.05-1.23.59-2.13-.44-3.19-.65-3.31-1.99-6.58-2.02-9.88.09-.94.6-1.73,1.15-2.21,2.26-.62,1.43-1.53,2.73-2.32,4.09-2.21,1.5-4.68,2.33-7.28,2.86-1.76-.21-3.35-1.01-5.26.26-6.18,4.09-11.95,8.64-17.13,13.93-6.5,6.62-10.75,14.58-13.89,23.22-.65,1.8-.62,3.34.84,4.7,3.13,4.3,5.44,8.96,6.61,14.19.28,1.27-.11,2.76,1.02,3.81.43,2.24,2.15,1.7,3.5,1.45,7.61-1.39,15.06-3.3,21.93-7.06,2.25-1.23,4.66-2.17,7-3.23.28.27.57.55.85.82-8.65,6.69-18.52,10.25-29.33,11.4-1.23.06-1.2.83-.52,1.38,3.25,2.61,6.97,4.54,11.18,4.03,4.65-.56,9.08-2.13,13.21-4.51,8.25-4.75,16.02-10.1,22.99-16.65,7.8-7.35,15.84-14.43,22.25-23.14,3.65-4.95,7.68-9.62,10.83-14.93,4.96-8.35,11.2-15.58,18.84-21.59.52-.41,1.3-.77,1.01-2.12-3.89,1.16-7.79,2.09-11.11,4.6-3.39,1.96-6.76,3.98-9.67,6.58-3.3,2.94-6.21,6.23-5.84,11.16-1.21,1.85-.5,4.01-1.01,6.36-1.48-1.81-3.12-2.43-5.05-1.15-1.8.75-2.97,2.09-3.73,3.87-.53,1.25-.99,2.59-1.79,3.64-1.64,2.16-2.59,5-5.52,5.98.57-2.37,1.82-4.43,3.04-6.5.89-1.52,2.21-2.91,1.89-4.91.07-.18.13-.35.2-.53,1.07-.01,1.59-.51,1.42-1.62.29-.42.58-.85.87-1.27,4.21-.81,7.78-2.36,8.45-7.29.07-.48.33-.93.44-1.41,1.14-4.93,4.48-8.05,8.59-10.58,5.87-3.6,11.99-6.7,18.23-9.59.24-.08.49-.12.7-.23.56-.3.41-.42-.12-.53-5.78-1.27-11.54-2.74-17.56-2.14-1.31-.79-1.57-2.1-1.63-3.46-.07-1.57-.09-3.12.41-4.68.48-1.5-.42-1.69-1.59-1.13-.42.2-.76.56-1.14.84-3.93,1.63-6.79,4.37-8.98,8.25,1.87.82,3.37.84,4.9.3ZM291.61,210.36l-.12-.17c.2-2.23-.51-4.33-.97-6.46-.3-1.39-.92-2.18-2.54-1.28-2.55,1.41-5.18,2.67-7.78,4-3.22,1.18-3.35,1.43-2.09,4.34.39.89.9,1.72,1.35,2.58.99,3.12,3.52,5,5.82,7.01,1.58,1.38,2.35,2.95,2.73,5.02.35,1.95-.26,3.87.09,5.92,1.93-.13,3.2-1.26,4.1-2.46,1.35-1.8,2.62-1.49,4.07-.42,3.24,2.38,5.8,5.3,7.37,9.07,1.61,3.9,2.25,7.99,2.81,12.12.11.79.26.26.36-.03.08-.23.17-.46.26-.69,2.52-6.09,2.83-12.48,1.74-18.82-1.09-6.39-2.25-12.91-7-17.94-.24-.25-.32-.67-.42-1.02-1.07-3.49-3.37-6.28-5.25-9.31-.45-.72-1.11-1.32-1.72-1.93-.46-.46-1.06-.7-1.67-.33-.63.39-.64,1.06-.38,1.63,1.12,2.54,1.3,5.25,1.52,7.95l.04,1.45c-.1,1.19-.21,2.39-.31,3.58-.5,0-.99,0-1.48-.01l-.21-2.91c.12-.38.02-.68-.31-.9ZM314.45,247.99c.81-1.62,1.65-3.22,2.41-4.85,1.69-3.65,2.71-7.26,1.02-11.35-1.71-4.16-2.94-8.53-3.63-13.01.13-1.96-.72-3.71-.96-5.57-5.36.81-5.51,1.03-3.83,5.8,3.43,9.77,3.88,19.66,1.12,29.64-.65,2.36-1.65,4.62-2.45,6.94-.2.58-.92,1.25.18,1.93,1.31-1.28,2.55-2.56,3.1-4.37,1.44-1.46,2.35-3.24,3.05-5.15ZM306.13,123.75c1.98,1.28,3.63-.1,5.38-.67.12,0,.25,0,.37-.02,2.54-.45,3.92-2.43,5.11-4.35.89-1.45-.8-2.64-1.24-3.98-.8-2.41-1.71-4.76-.88-7.43.46-1.5.41-3.17.59-4.79-1.24.02-1.61.63-1.91,1.32-4.74,4.03-8.15,9.02-10.68,14.65-1.62,3.61-1.51,3.92,2.17,5.18.33.11.72.06,1.09.08ZM353.21,185.88c.86-1.5,2-2.87,2.55-4.94-2.72.62-4.97,1.17-7.32,1.22-5.56.12-10.64-1.71-15.69-3.72-1.34-.54-2.56-1.56-4.16-1.17-.92-1.85-2.9-2.14-4.48-2.98-.82-.44-1.67-.21-2.28.62-1.33,1.8-3.04,3.2-4.81,4.53-.58.43-1.21,1.04-1.01,1.84.27,1.12,1.33.84,2.14.94.85.1,1.73.1,2.55.3,8.02,1.93,15.86,4.39,23.22,8.21,1.44.75,2.88,1.4,4.55,1.27.91.7,1.58.14,2.16-.48,1.47-1.59,2.59-3.36,2.6-5.63ZM361.8,189.65c-.53-.77-1.38-.73-2.16-.87q-3.02-2.53-4.68.63c-.4.76-.76,1.56-1.22,2.29-.75,1.21-.41,2.1.72,2.78.63.38,1.28.79,1.97,1.02,5.27,1.69,9.73,4.8,14.01,8.14,4.95,3.87,9.87,7.77,13.62,12.96,4.18,5.79,8.17,11.66,10.88,18.37.17-1.81.81-3.6-.42-5.23-.33-3.63-1.16-7.12-2.73-10.42-.56-2.29-1.85-4.25-2.85-6.34-1.98-4.14-5.49-6.87-8.79-9.79-5.71-5.06-11.43-10.11-18.35-13.54ZM344.72,204.61c-.1-.22-.15-.5-.31-.65-7.34-6.83-15.65-12.22-24.78-16.29-2.83-1.26-5.98-1.58-8.81-1.5,2.84,3.15,5.68,6.31,8.52,9.47.29.27.58.54.88.81,3.02,4.05,6.1,8.05,9.04,12.16,5.13,7.16,9.46,14.74,11.59,23.39.75,3.04,2.67,5.39,4.43,8.16,1.68-3.29,2.35-6.55,2.6-9.86.16-2.01,1.1-2.88,2.92-3.65,3.04-1.29,6.1-1.46,9.63-.87-.73-1.78-1.31-3.1-2.4-4.15-3.47-6.43-7.73-12.24-13.32-17.02ZM359.05,159.92c8.4-.05,16.75.53,25.08,1.58,11.64,1.47,22.59,5.06,32.8,10.74,2.34,1.3,4.21,1.33,6.58.44,7.52-2.81,15.29-3.73,23.26-2.47,3.4.54,6.81,1.04,10.22,1.56.05-.16.1-.32.16-.48-1.33-.83-2.67-1.67-4-2.5-2.75-2.71-6.09-4.57-9.41-6.42-13.64-7.58-28.3-12.19-43.75-13.99-5.72-.67-11.56-.65-17.36.29-5.09.82-10.13,2.28-15.39,1.67-1.16-.13-2.19.27-3.18.82-2.94,1.66-6.15,2.4-9.45,3.06-5.42,1.07-10.37,3.42-15.12,6.3,6.57-.12,13.05-.54,19.55-.6Z"/>
      <path class="cls-3" d="M223.88,177.13c-3.55,4.91-6.1,10.28-7.53,16.18-1.02-1.08-.57-2.29-.32-3.49.82-3.81,1.63-7.63,2.46-11.48-.28.02-.44-.02-.52.04-.48.37-1.01.71-1.42,1.15-3.06,3.29-6.76,4.69-11.29,4.36-3.1-.23-6.11-.67-9.07-1.6-11.98-3.77-22.2-10.56-31.82-18.4-2.96-2.41-6-4.7-8.47-7.68-1.71-2.07-2.98-4.57-5.45-5.95-1.01-1.17-2.01-2.33-3.02-3.5-.23-.56-.36-1.21-.71-1.67-2.66-3.44-.82-6.61,1.05-9.3,1.85-2.66,4.52-4.76,6.83-7.1.42,1.51,1.62,2.04,2.97,2.43,2.26.65,4.35,1.7,6.45,2.73,7.84,3.86,15.62,7.81,22.45,13.38,1.38,1.13,2.87,2.37,4.88,2.42,2.19.06,3.25-1.22,2.61-3.29-.53-1.72-1.76-2.93-3.16-3.98-8.25-6.21-17.27-10.75-27.39-13.08-1.37-.32-3.02.05-4.15-1.19,1.12-.17,2.06-.59,2.37-1.81.93.02,1.86.05,2.79.07l.04.28c.3.48.55.44.75-.07l.34-.05.35.02c2.48,1.27,5.12,2.21,7.66,3.32,2.65,1.16,5.06,2.94,8.02,3.39,1.25.61,2.49,1.23,3.74,1.84.15.64.54,1.07,1.12,1.38,5.54,2.99,10.68,6.52,15.49,10.63,7.57,6.47,14.14,13.64,18.11,22.95,1.05,2.46,1.89,5.08,3.84,7.06ZM154.89,136.4c.74,3.09,3.44,5.8,6.26,6.23.84.13.98-.47,1.06-1.1,1.78-.78,1.99-1.96.8-3.42-1.71-2.1-4.14-2.83-6.65-3.28-1.07-.19-1.48.57-1.47,1.56ZM202.21,171.94c2.35-1.17,2.66-2.07.98-3.53-2.04-1.78-4.46-3-7.05-3.78-1-.3-2.25-.57-2.65,1.02.53,4.92,4.44,7.74,8.72,6.29ZM169.77,160.59c.04.71.57,1.94,1.53,2.95,1.01,1.07,2.16,2.02,3.17,3.1,4.58,4.9,11.54,5.81,16.57,9.94.09.08.21.13.32.18,1.44.61,2.37-.21,3.13-1.23.87-1.18.21-2.17-.75-2.82-1.21-.82-2.53-1.52-3.86-2.13-.77-.36-1.66-.48-2.27-1.15-2.51-2.75-5.8-4.53-8.57-6.97-2.02-1.78-4.27-3.36-6.78-4.41-1.74-.73-2.58-.02-2.49,2.54ZM208.24,157.52c-.09-.98-.58-1.99-1.31-2.81-1.23-1.39-2.83-2.31-4.46-3.16-1.15-.6-2.1-.31-2.98.58-.92.92-.98,1.9-.37,3,1.22,2.2,2.9,3.96,5.12,5.1,2.01,1.04,4.05-.33,4-2.7ZM190.27,154.26c-.18-1.3-2.61-3.15-3.91-2.98-.99.13-1.05.92-.93,1.68.27,1.71,1.68,2.71,3.46,2.54.83-.08,1.43-.34,1.38-1.24ZM160.24,150.12c.17,1.67,1.27,2.48,2.68,2.96.41.14.75-.3.71-.64-.22-1.92-1.36-2.65-3.39-2.32Z"/>
      <path class="cls-1" d="M150.47,150.27c2.48,1.37,3.74,3.88,5.45,5.95,2.47,2.98,5.51,5.27,8.47,7.68,9.62,7.84,19.84,14.63,31.82,18.4,2.95.93,5.97,1.38,9.07,1.6,4.53.33,8.23-1.07,11.29-4.36.41-.44.93-.78,1.42-1.15.08-.06.24-.02.52-.04-.82,3.85-1.64,7.66-2.46,11.48-.26,1.2-.71,2.41.32,3.49-.44,3.76-.92,4.11-4.19,3.52-8.35-1.51-16.35-4.04-23.95-7.87-1.96-.99-3.59-2.6-5.82-3.07-2.19-2.19-4.62-4.02-7.58-5.05l.05.03c-1.23-1.81-2.52-3.53-4.82-4.33-.2,1.42.71,1.99,1.15,2.79.27.73.57,1.44,1.51,1.49l-.06-.05c-.09,1.15.74,1.77,1.45,2.43,3.8,3.5,7.72,6.85,11.97,9.8.9.63,1.91,1.11,2.89,1.61,7.25,3.7,14.98,5.38,23.09,5.47-4.01,3.95-8.94,4.44-14.06,3.32-7.23-1.58-13.54-5.23-19.4-9.62-7.99-5.99-15.44-12.59-22.7-19.48-7.83-7.44-14.06-16.09-20.51-24.59-4.9-6.47-8.95-13.57-14.81-19.32-3.15-3.09-6.22-6.26-9.52-9.32,5.63,1.39,10.97,3.41,15.64,7-1.11,1.12.25,1.46.7,1.96,3.73,4.03,8.14,7.5,10.56,12.63.08.18.41.24.62.35,0,0-.05-.06-.05-.06.02.72-.03,1.46.54,2.04.07.48.24.98.19,1.45-.19,2.24,1.01,2.76,2.92,2.46.24,1.37-.26,3.23,1.79,3.53,1.55.23,1.69,1.24,2.23,2.39,1.81,3.8,4.48,6.84,8.72,8.1l-.04.08c-.02,1.06.08,1.99,1.55,1.48.42.05.84.09,1.26.13.07.6.25,1.12.86,1.38.14.35.26.4.3.15,0-.03-.2-.1-.3-.15.07-.64-.08-1.18-.67-1.54-.66-2.94-3.38-4.71-4.31-7.48-.8-2.35-3.4-3.84-3.11-6.68Z"/>
      <path class="cls-3" d="M113.2,171.77c-2.1.85-4.03,2.14-6.35,2.41-.64.07-1.33.04-1.69.74,0,0,.06-.04.06-.04-1.76-.17-3.42.18-5.06.8-7.15,2.66-14.22,5.48-20.47,9.98-1.27.91-2.16,1.02-3.33-.46-2.94-3.72-6.99-5.24-11.71-5.2-1.26.01-2.67.44-4-.79,1.31-1.61,2.3-3.43,3.81-4.57,5.92-4.49,12.85-6.7,20.08-7.85,4.98-.8,9.85-1.86,14.55-3.65,6.92-1.02,13.85-.52,20.77-.02.24.41.39.93.74,1.22,1.2,1.04.95,1.84-.3,2.55-.64.37-1.37.62-1.9,1.11-1.59,1.46-4.25,1.45-5.21,3.77Z"/>
      <path class="cls-1" d="M17.56,169.29c2.2-2.98,5.61-4.3,8.63-6.09,12.65-7.52,26.37-12.25,40.92-14.11,8.64-1.1,17.36-1.74,26.09.33,3.24.77,6.76,1.53,10.25.71,1.2-.28,2.14.46,3.09.99,2.94,1.65,6.09,2.51,9.4,3.12,6.44,1.18,12.3,4.04,18.17,6.95-7.79-.35-15.53-1.15-23.29-1.35-.42-.16-.85-.32-1.27-.48-1.03-1.7-2.94-1.81-4.52-2.14-4.69-.97-9.42-1.8-14.18-2.35-2.92-.34-5.85-1.35-8.81-.72-5.84,1.24-11.78.53-17.67,1.12-4.92.5-9.71,1.44-14.54,2.24-7.75,1.29-14.56,5.26-21.89,7.76-.39.13-.63.7-.94,1.07-2.28.29-4.4,1.04-6.45,2.06-.93.46-1.79,1.29-2.99.88Z"/>
      <path class="cls-3" d="M152.34,195.06c-.46.45-.92.9-1.38,1.35-.54.07-1.05.21-1.28.79,0,0,.14,0,.13,0-2.06-.07-3.02,1.6-4.08,2.83-4.4,5.11-8.64,10.35-11.99,16.25-1.63,2.88-3.35,5.73-5.76,8.08q-2.14,2.09-4.54.31c-1.91-1.42-3.93-2.56-6.41-2.42-1.4.08-2.62-.65-3.96-.8,3.31-6.18,7.75-11.48,12.74-16.35.59,0,1.28.13,1.09-.86.08-.13.2-.22.35-.25.23.25.43.23.54-.08.02-.07-.11-.19-.17-.29.04-.17.14-.3.29-.38.58.4,1.12.3,1.71-.02,2.49-1.35,4.98-2.69,7.49-3.99,3.27-1.68,6.4-3.66,10-4.65,1.83-.5,3.59-.98,5.21.47Z"/>
      <path class="cls-1" d="M161.64,126.31c-.32,1.22-1.25,1.64-2.37,1.81-1.56.12-3.23-.68-4.65.57-2.31,2.34-4.98,4.44-6.83,7.1-1.87,2.69-3.71,5.86-1.05,9.3.36.46.48,1.11.71,1.67-.75,0-1.5-.01-2.25-.02-2.13-.51-3.33-1.91-3.85-3.98-.27-1.07-.57-2.13-.85-3.19-1-3.83-3.15-6.67-6.42-9.06-6.08-4.44-12.46-8.24-19.41-11.1,1.35-.09,2.69-.25,4.03-.27,4.17-.05,8.35-.05,12.52-.08,7.06.75,13.98,2.24,20.85,3.99,1.08.28,2.23,1.32,3.34,0,1.94,1.34,3.87,2.69,6.22,3.25ZM145.79,123.88c-.84.13-2.15.19-2.54,1.32-.52,1.54,1.21,1.5,1.96,2.11.54.44,1.25.8,1.93.91.94.16,2.03.24,2.44-.97.41-1.2-.02-2.16-1.11-2.76-.74-.41-1.56-.69-2.68-.61Z"/>
      <path class="cls-4" d="M99.09,163.14c-4.71,1.79-9.57,2.85-14.55,3.65-7.22,1.16-14.15,3.37-20.08,7.85-1.51,1.14-2.5,2.96-3.81,4.57,1.33,1.22,2.74.8,4,.79,4.72-.04,8.77,1.48,11.71,5.2,1.17,1.48,2.06,1.37,3.33.46,6.25-4.5,13.32-7.31,20.47-9.98,1.64-.61,3.3-.97,5.06-.8-4.35,2.29-8.96,4.04-13.12,6.74-4.82,3.13-9.63,6.25-14.11,9.86-.47.38-.94.77-1.34,1.1-.67-.17-.97-.52-1.11-1.03-1.75-6.09-8.06-9.3-15.24-7.35-2.88.79-5.53,2.09-8.21,3.32-.75.34-1.4.99-2.57.7-.06-2.13,1.02-3.97,1.73-5.88.72-1.95,1.98-3.7,2.2-5.86.13-1.29,1.19-1.8,2.16-2.34,6.93-3.88,14.25-6.71,22.06-8.24,1.06.07,2.15.23,2.99-.67,3.36-.81,6.75-1.47,10.22-1.6,1.11.16,2.22.4,3.19-.44,1.67-.21,3.35-.31,5.03-.07Z"/>
      <path class="cls-1" d="M93.48,137.71c3.73.52,6.94,1.79,8.22,5.79.83,2.59.48,3.15-2.12,3.19-1.6.03-3.21.07-4.78-.4-7.85-2.38-15.75-1.77-23.73-.62-5.6.81-11.26,1.22-16.74,2.71-11.86,3.21-22.97,8.16-33.42,14.6-1.02.63-1.94,1.54-3.36,1.41-.51-.94.36-1.29.8-1.72,2.89-2.88,6.08-5.4,9.42-7.73,1.81-1.26,3.58-2.58,5.36-3.88-.09,1.43-.02,2.66,1.96,1.68.78-.38,1.58-.71,2.33-1.13,4.88-2.69,9.98-4.85,15.4-6.2,2.84-.71,5.65-1.55,8.48-2.33,3.16.21,6.2-.26,9.05-1.71.3.19.64.57.9.53,6.42-.97,12.88-1.56,19.37-1.32,2.22.08,2.69-1.14,2.86-2.87Z"/>
      <path class="cls-3" d="M81.41,234.38c-.18.49-.5.81-1.33.83,1.22-3.65,2.92-6.93,5.05-10.01,1.39.3,2.36-.41,3.25-1.32,1.04-1.06,2.16-2.04,3.13-3.15,7.19-8.26,16.49-13.52,26.06-18.41,1.23-.63,2.5-1.04,3.91-.81-.04,1.76-1.2,3.07-2.28,4.1-4.74,4.54-8.67,9.76-12.71,14.88-.76.97-1.63,1.88-3.07,1.79-4.73-.29-8.86,1.78-13.15,3.31-4.4,1.57-7.2,4.58-8.86,8.81Z"/>
      <path class="cls-3" d="M154.02,203.66c-1,.87-1.69,2-2.79,2.83-2.01,1.49-2.17,2.79-.2,4.44,1.75,1.47,1.82,3.09,1.48,4.91-.8,4.2-1.63,8.4-2.94,12.48-2.9-1.12-5.86-1.72-9.02-1.6-2.9.11-3.29-.58-2.16-3.3,1.08-2.6,1.78-5.36,3.44-7.73.77-1.09,1.41-2.35,1.11-3.81,0,0-.11-.04-.11-.04.48.08,1.01.11,1.28-.32.31-.48-.01-.86-.47-1.09,2.62-3.99,5.39-7.86,8.94-11.12,1.85.46,3.09,1.41,2.86,3.54-.16.09-.32.18-.49.26-.3.18-.61.36-.91.55Z"/>
      <path class="cls-4" d="M109.55,159.36c.42.16.85.32,1.27.48-11.62-.37-23.06,1.12-34.42,3.4-.65-.23-1.19-.09-1.62.46-7.6,2.14-14.89,5.04-21.69,9.07-1.28.76-2.5.93-3.86.37-10.93-4.48-22.07-4.3-33.34-1.5-.43.11-.89.08-1.39.12.17-1.01,1.02-1.13,1.54-1.58.56.05,1.17.15,1.02-.75.15-.08.32-.13.49-.14,1.2.4,2.06-.42,2.99-.88,2.05-1.02,4.17-1.78,6.45-2.06,1.7-.12,3.4-.31,5.1-.36,5.86-.18,11.46,1.27,16.99,2.96,1.86.57,3.43.62,5.31-.15,6.58-2.69,13.22-5.26,20.08-7.15,8.46-2.33,17.26-2.13,25.91-3.06,3.1-.33,6.1.51,9.15.77Z"/>
      <path class="cls-1" d="M121.48,201.5c-1.41-.24-2.67.18-3.91.81-9.57,4.89-18.87,10.15-26.06,18.41-.97,1.11-2.09,2.09-3.13,3.15-.9.92-1.87,1.62-3.25,1.32.85-2.95,3.06-5.05,4.94-7.22,9.06-10.41,19.56-18.72,33.48-21.71,2.07-.44,3.93-1.37,5.8-2.36,3.44-1.82,6.92-3.59,10.97-3.87-4.58,3.86-10.01,6.54-14.25,10.8-.28-.23-.56-.46-.84-.69-1.07-.06-2.24-.54-2.98.73-.25.21-.51.41-.76.62Z"/>
      <path class="cls-3" d="M97.71,181.46c3.85-2.57,8.17-4.04,12.54-5.41.39.4.77.81,1.16,1.21.4,4.44-1.18,7.2-5.58,9.24-5.76,2.68-10.4,7.3-15.52,11.1-.34-1.37-1.68-1.73-2.61-2.46-2.25-1.78-2.34-2.19-.45-4.29,2.41-2.68,5.42-4.61,8.3-6.71.99-.72,2.25-1.14,2.16-2.69Z"/>
      <path class="cls-4" d="M113.08,221.47c1.34.15,2.56.88,3.96.8,2.48-.14,4.51,1,6.41,2.42q2.39,1.78,4.54-.31c2.41-2.35,4.13-5.2,5.76-8.08,3.35-5.91,7.59-11.14,11.99-16.25,1.06-1.24,2.03-2.9,4.08-2.83-.54,2.09-2.19,3.46-3.44,5.06-7.11,9.11-13.18,18.76-16.28,30.04-.76,2.76-2.61,4.94-4.36,7.68-1.48-3.57-2.44-6.83-2.6-10.23-.08-1.73-.87-2.33-2.29-2.8-3.05-1.02-6.09-2.04-9.61-1.09-.09-1.99.87-3.19,1.84-4.4Z"/>
      <path class="cls-4" d="M223.88,177.13c-1.96-1.98-2.79-4.6-3.84-7.06-3.96-9.3-10.54-16.47-18.11-22.95-4.8-4.11-9.95-7.63-15.49-10.63-.58-.31-.97-.74-1.12-1.38.98.1,2.12.59,2.9.25,3.1-1.36,5.15.54,7.35,2.04,11.7,7.96,21.71,17.41,27.16,30.86.69,1.71,1.3,3.45,1.91,5.19.48,1.37.47,2.66-.78,3.68Z"/>
      <path class="cls-1" d="M142.25,177.13c.06-.11.1-.25.19-.31,5.33-3.35,5.35-3.37,9.73.97,1.16,1.15,2.72,2.03,3.36,4.02-2.84.55-5.44,1.08-8.05,1.56-7.43,1.38-14.22,4.54-21.06,7.55-1.55.68-3.05,2.09-4.97.93.87-1.31,1.65-2.65,1.53-4.32.88-1.28,2.16-1.93,3.65-2.19,1.82-.31,3.53-.94,5.2-1.71,2.96-.77,5.73-2.05,8.5-3.32,1.43-.66,2.01-1.69,1.92-3.19Z"/>
      <path class="cls-4" d="M177.61,220.15c.27,1.83.14,3.76,1.17,5.83.53-.93.87-1.51,1.21-2.1.65-2.43,2.08-4.33,4.02-5.85,1.52-1.19,3.15-2.21,4.32-3.83.89-1.23,2.05-1.07,3.08,0-.96,2.39-2.77,4.15-4.75,5.55-3,2.13-3.83,4.93-3.59,8.35.07.96.33,1.95-.21,3.03-1.68-.16-3.09-1.15-3.87-2.43-1.3-2.13-2.46-1.36-3.89-.37-4.1,2.86-6.87,6.69-8.36,11.43-.66,2.11-1.13,4.29-1.68,6.43-.41.46-.82.93-1.23,1.39-.07-.24-.15-.47-.22-.71,0-2.29,0-4.58,0-6.87-.18-1.55.49-2.88,1.05-4.25,1.16-.18,1.39-1.24,1.92-2.03,2.09-3.12,3.69-6.63,7.11-8.67,1.1-.65,1.2-1.74,1.2-2.88,0-3.51-.08-7.03.36-10.52.3-.98.84-1.73,1.88-2.03.25,3.25-.2,6.53.31,9.77-.05.09-.15.2-.13.26.06.17.18.33.28.49Z"/>
      <path class="cls-1" d="M111.05,189.14c1.05-1.11,2.17-2.19,3.79-1.16,1.79,1.14,2.44,3.06,2.8,5.02.16.85-.76,1.19-1.41,1.51-2.65,1.32-5.3,2.64-7.98,3.9-4.52,2.12-8.46,5.05-11.98,8.54-5.69,5.63-11.74,10.97-15.05,18.55-.39.89-1.06,1.67-2.07,2.01-1.14-.69-.46-1.8-.63-2.71.76-1.25,1.58-2.47,2.26-3.77,3.75-7.23,9.62-12.66,15.38-18.17,4.2-4.02,9.46-6.59,14.19-9.87,2.08-1.45,2.11-1.4.7-3.85Z"/>
      <path class="cls-1" d="M116.87,142.42c2.64-.17,4.99,1.13,7.53,1.5.54.08,1.15.53,1.51.98,2.79,3.53,5.52,7.09,8.46,10.89-2.23.77-3.6-.24-4.97-.83-4.07-1.75-8.2-3.19-12.55-4.14-5.86-1.28-10.84-3.99-13.42-9.86-.35-.8-.65-1.59-.51-2.48,1.7.67,2.63,2.23,3.73,3.5,2.84,3.28,6.45,4.61,10.93,5.02-.61-1.67-.56-3.14-.71-4.59Z"/>
      <path class="cls-1" d="M164.68,235.76c-.55,1.37-1.22,2.71-1.04,4.25-.45.53-.9,1.06-1.36,1.6-1.27-1.79-.85-3.87-.57-5.71.53-3.53.41-7.13,1.31-10.61,1.18-4.53,2.24-9.1,5.92-12.43.58-.53.66-1.3.96-1.97,1.49-3.25,2.93-6.55,5.34-9.25.8-.89,1.19-2.92,2.99-2.04,1.86.9.48,2.43.15,3.56-.62,2.13-1.46,4.19-1.24,6.47-1.04.3-1.58,1.05-1.87,2.03-1.55.64-2.47,1.91-3.42,3.21-4.55,6.23-6.14,13.46-7.17,20.89Z"/>
      <path class="cls-4" d="M125.23,200.15c.28.23.56.46.84.69-3,1.5-4.38,4.57-6.5,6.89-2.96,3.24-5.71,6.76-8.03,10.48-1.19,1.9-2.08,4.14-2.93,6.3-.41,1.02-.99,1.56-2.21,1.42-8.21-.95-15.12,2.43-21.8,6.58-1.04.65-2.11,1.24-3.17,1.87,1.66-4.23,4.46-7.24,8.86-8.81,4.29-1.53,8.41-3.6,13.15-3.31,1.43.09,2.3-.82,3.07-1.79,4.05-5.12,7.97-10.34,12.71-14.88,1.08-1.03,2.24-2.33,2.28-4.1.25-.21.51-.41.76-.62,1.04-.07,2.18.28,2.98-.73Z"/>
      <path class="cls-4" d="M111.05,189.14c1.42,2.45,1.39,2.41-.7,3.85-4.73,3.29-9.99,5.85-14.19,9.87-5.76,5.51-11.64,10.94-15.38,18.17-.67,1.3-1.5,2.52-2.26,3.77-.13-.38-.25-.75-.38-1.13,2.15-7.28,5.26-13.84,11.27-18.99,5.88-5.04,11.55-10.29,18.33-14.13,1.03-.59,1.94-1.57,3.31-1.42Z"/>
      <path class="cls-1" d="M111.4,177.26c-.39-.4-.77-.81-1.16-1.21,5.72-2.26,11.66-3.79,17.64-5.11,4.42-.98,8.87-1.97,13.44-2.02.86,0,1.72.03,2.57.16.31.05.68.36.82.65.26.52-.08.96-.53,1.19-7.36,3.78-14.77,7.44-23.39,6.84-2.08-.14-4.16-.43-6.19-.89-1.19-.27-2.17-.05-3.2.39Z"/>
      <path class="cls-4" d="M93.48,137.71c-.17,1.74-.64,2.95-2.86,2.87-6.49-.24-12.95.35-19.37,1.32-.27.04-.6-.34-.91-.53.28-.6,1.32-.86.78-1.87-1.66-.23-2.89,1.25-4.51,1.25-2.06-2.8-4.63-5.02-7.58-6.84-1.46-.9-2.95-1.79-4.23-2.9-.62-.54.46-.48.68-.76,5.3.64,9.82,3.04,13.91,6.28,1.47,1.17,2.84,1.59,4.7,1.36,5.12-.63,10.28-.91,15.45-.77,1.33.04,2.72-.21,3.95.58Z"/>
      <path class="cls-1" d="M152.34,195.06c-1.62-1.45-3.38-.97-5.21-.47-3.6.99-6.73,2.97-10,4.65-2.52,1.29-5.01,2.64-7.49,3.99-.59.32-1.13.43-1.71.02,1.13-2.39,3.55-3.38,5.46-4.87,5.46-4.28,11.52-7.62,17.76-10.62,3.08-1.48,6.42-1.4,9.87-1.52-2.53,3.36-5.48,6.21-8.68,8.82Z"/>
      <path class="cls-1" d="M156.45,220.33c-.28-2,.88-3.8.78-5.79-.04-.7.52-1.03,1.22-1.08,2.91-.2,4.42,1.64,3.43,4.3-2.19,5.92-3.49,11.97-3.33,18.32.19,7.08,1.69,13.83,4.54,20.29l-.22.19c-2.31-1.51-3.7-3.75-4.92-6.13.97-.93.2-1.83-.06-2.73-1.14-3.92-1.97-7.89-2.16-11.98-.21-4.59.14-9.11,1.68-13.49.32-.89.88-2.05-.97-1.91Z"/>
      <path class="cls-3" d="M61.29,143.08c-2.82.78-5.63,1.62-8.48,2.33-5.42,1.36-10.52,3.51-15.4,6.2-.76.42-1.56.74-2.33,1.13-1.98.97-2.05-.26-1.96-1.68.16-.13.27-.28.33-.48,1.18-.33,1.72-1.09,2.02-2.31.49-1.97-1.17-2.93-1.96-4.27,1.21-.75,2.36-.19,3.41-.47,5.2,2.42,10.1,1.07,14.97-1.11,1.09-.49,2.31-.71,3.46-1.05.31,0,.61-.02.92-.03.44.02.87.04,1.31.06.36.68.96.85,1.66.82.68.29,1.36.57,2.04.86Z"/>
      <path class="cls-1" d="M113.2,171.77c.96-2.32,3.61-2.3,5.21-3.77.53-.48,1.26-.74,1.9-1.11,1.25-.72,1.5-1.51.3-2.55-.34-.3-.49-.81-.74-1.22,8.59-.78,17.74.55,20.67,3.16-3.38.58-6.58,1.15-9.78,1.69-5.33.89-10.59,2.07-15.74,3.72-.56.18-1.21.07-1.82.09Z"/>
      <path class="cls-4" d="M212.06,200.07c-8.11-.09-15.84-1.77-23.09-5.47-.98-.5-1.99-.98-2.89-1.61-4.25-2.95-8.17-6.31-11.97-9.8-.71-.65-1.54-1.28-1.45-2.43.74-.08,1.44.78,2.21.11,0,0-.05-.03-.05-.03-.22.33-.27.69.06.93,2.22,1.67,4.16,3.7,6.67,4.97,7.25,5.53,15.3,9.31,24.28,11.04,1.69.33,3.4.56,5.08.95.57.14,1.61.18,1.15,1.34Z"/>
      <path class="cls-1" d="M164.44,199.21c-.15-2.37,1.25-4.2,2.15-6.2.55-1.21,1.37-1.32,2.35-.55,1.83,1.43,3.64,2.88,5.69,4.51-3.22,3.46-5.45,7.53-8.14,11.29-1.77-.41-3.65-.6-4.76-2.35.19-.17.37-.34.56-.52,0,0,.16.09.16.09,0,0-.12-.15-.12-.15.6-.91,1.25-1.8,1.78-2.75.59-1.05,1.28-2.14.33-3.37Z"/>
      <path class="cls-4" d="M142.94,211.88c.3,1.46-.34,2.72-1.11,3.81-1.66,2.36-2.36,5.13-3.44,7.73-1.13,2.72-.73,3.41,2.16,3.3,3.16-.12,6.12.48,9.02,1.6-.02,1.13-.38,2.15-1.11,3.3-5.37-1.98-10.74-1.17-16.1.71-.12-1.85.67-3.14,1.23-4.45,2.02-4.74,4.36-9.32,7.15-13.67.59-.93,1.1-1.9,2.2-2.33Z"/>
      <path class="cls-3" d="M191.42,214.19c-1.03-1.07-2.19-1.23-3.08,0-1.17,1.62-2.81,2.64-4.32,3.83-1.94,1.53-3.37,3.43-4.02,5.85-1.11-4.41-.77-8.88-.56-13.35,2.42-.27,4.5.76,6.58,1.74,1.68.79,2.78.35,3.44-1.37.57-1.47,1.16-2.92,1.75-4.39,3.03.91,3.07.92,2.18,3.51-.5,1.46-.88,2.99-1.97,4.17Z"/>
      <path class="cls-4" d="M97.71,181.46c.08,1.55-1.17,1.97-2.16,2.69-2.88,2.09-5.89,4.03-8.3,6.71-1.89,2.1-1.81,2.51.45,4.29.93.73,2.26,1.09,2.61,2.46-.69.7-1.33,1.44-2.07,2.08-.65.56-1.42.58-1.83-.26-1.48-3.08-4.51-4.23-7.69-5.89,5.72-4.39,11.02-8.68,17.41-11.34.4.05.69-.12.88-.47.23-.09.47-.18.7-.26Z"/>
      <path class="cls-1" d="M191.2,206.51c-.58,1.46-1.18,2.92-1.75,4.39-.66,1.71-1.76,2.16-3.44,1.37-2.08-.98-4.17-2.01-6.58-1.74-.14-2.4.97-4.55,1.35-6.85.27-1.67,1.06-2.06,2.56-1.26,2.6,1.39,5.24,2.73,7.86,4.09Z"/>
      <path class="cls-3" d="M116.87,142.42c.15,1.45.09,2.92.71,4.59-4.48-.41-8.1-1.74-10.93-5.02-1.1-1.28-2.03-2.83-3.73-3.5-.22-.24-.45-.47-.67-.71-.11-.44-.4-.67-.84-.71-.53-.63-1.31-.77-2.02-1.03-.64-.84-1.14-1.7-.55-2.78,1.58.83,3.08,1.91,4.75,2.42,2.08.64,3.3,2.91,5.7,2.79,2.01,2.32,5.08,2.6,7.6,3.96Z"/>
      <path class="cls-4" d="M155.42,123.06c-1.11,1.32-2.26.28-3.34,0-6.87-1.75-13.79-3.24-20.85-3.99-.03-1.1.8-1.2,1.58-1.36.16-.03.31,0,.45.1,1.17,1.14,2.59.78,3.96.65,2.54-.21,4.96-.56,7.42-1.55,2.78-1.12,5.46-.04,7.42,2.37-.01.36.16.58.52.65.29.57.54,1.2,1.39.95,0,0,.07-.1.07-.1-.4,1.28.86,1.56,1.38,2.28Z"/>
      <path class="cls-1" d="M153.97,120.88c.11-2.18.51-4.2,1.43-6.28,1.61-3.66.87-7.7.87-11.6l.12-.12c.36.04.61.21.7.58.06,1.05.45,1.92,1.33,2.55.06.2.14.4.22.59,1.12,5.41,2,10.85,1.4,16.41-1.46,0-2.77-.34-3.82-1.46-.57-.6-1.25-1.08-2.18-.77l-.07.1Z"/>
      <path class="cls-1" d="M59.26,142.22c-.71.03-1.31-.14-1.66-.82.12-2.76-1.37-4.87-2.87-6.95-1.06-1.47-2.22-2.85-3.53-4.53,1.68-.5,3-.57,4.28.33-.22.29-1.3.22-.68.76,1.28,1.11,2.78,2,4.23,2.9,2.95,1.82,5.52,4.04,7.58,6.84-1.17,1.17-2.69.52-4.04.77-1.11.21-2.39-.44-3.31.69Z"/>
      <path class="cls-4" d="M156.45,220.33c1.85-.14,1.29,1.02.97,1.91-1.55,4.38-1.89,8.91-1.68,13.49.19,4.08,1.02,8.06,2.16,11.98.26.89,1.02,1.8.06,2.73-2.07-3.51-3.86-7.15-5.1-11.04-.33-1.04-.91-2.13-.59-3.23,1.53-5.24,2.21-10.71,4.19-15.84Z"/>
      <path class="cls-4" d="M158.64,106.6c-.09-.19-.16-.39-.22-.59.23-.26.47-.51.7-.77,4.61,4.07,7.5,9.29,9.93,14.82.02.69.04,1.38.07,2.07-.16.15-.24.32-.26.54-1.35.74-2.62,1.67-4.27,1.57-.33-4.4-1.35-8.63-3.15-12.65-.77-1.73-.89-3.86-2.78-4.98Z"/>
      <path class="cls-3" d="M132.81,117.71c-.78.16-1.61.27-1.58,1.36-4.17.02-8.35.02-12.52.08-1.35.02-2.69.17-4.03.27-1.19-.2-2.46-.15-3.7-1.38,5.66-1.57,11.22-2.34,16.87-2.42,1.84-.02,3.5.94,4.96,2.09Z"/>
      <path class="cls-4" d="M131.83,183.64c-1.67.77-3.38,1.4-5.2,1.71-1.48.26-2.77.9-3.65,2.19-2.34.4-3.72-1.31-5.37-2.45-.54-1.2-1.45-2.26-1.57-4.02,3.76.97,7.47,1.41,11.23,1.08.6.17,1.14.12,1.57-.39.52-.07,1.05-.13,1.57-.2.44.71,1.61.93,1.41,2.08Z"/>
      <path class="cls-4" d="M181.59,133.27c-2.95-.45-5.37-2.23-8.02-3.39-2.55-1.11-5.18-2.05-7.66-3.32.96-1.27,2.77-1,3.83-2.09.25.01.49-.04.71-.16.72.02,1.44.04,2.17.07.99.45,1.95.98,2.98,1.32,1.74.57,2.86,1.47,3.13,3.47.24,1.74,1.9,2.73,2.86,4.1Z"/>
      <path class="cls-1" d="M155.43,202.85c.23-2.14-1-3.09-2.86-3.54.13-1.67,1.52-2.45,2.53-3.45,2.31-2.3,4.39-4.89,7.22-6.54.89.51.63,1.13.39,1.63-1.61,3.28-3.23,6.56-4.91,9.81-.5.97-1.1,1.93-2.36,2.09Z"/>
      <path class="cls-3" d="M154.94,162.9c-4.25-1.26-6.91-4.3-8.72-8.1-.55-1.15-.68-2.16-2.23-2.39-2.05-.3-1.55-2.16-1.79-3.53,0,0,.04-.02.04-.02.42,0,.68-.24.87-.6.24-.05.47-.13.68-.24,2.21.52,3.63,1.97,4.49,3.99,1.42,3.3,3.42,6.22,5.68,8.98.46.56,1.04,1.07.97,1.9Z"/>
      <path class="cls-2" d="M154.94,162.9c.06-.83-.52-1.34-.97-1.9-2.26-2.76-4.27-5.68-5.68-8.98-.87-2.02-2.28-3.46-4.49-3.99.47-.43.95-.85,1.42-1.28.75,0,1.5.01,2.25.02,1.01,1.17,2.01,2.33,3.02,3.5-.29,2.84,2.32,4.33,3.11,6.68.94,2.77,3.65,4.53,4.31,7.48,0,0-.19.16-.19.16-.42-.05-.84-.09-1.25-.14-.38-.64-.61-1.43-1.55-1.48l.04-.08Z"/>
      <path class="cls-3" d="M138.59,142.99c-.21-.12-.54-.18-.62-.35-2.43-5.13-6.83-8.6-10.56-12.63-.46-.49-1.81-.84-.7-1.96,2.69,1.48,5.12,3.32,7.42,5.32,2.92,2.54,4.5,5.7,4.47,9.61Z"/>
      <path class="cls-4" d="M184.45,121.33c.64-.82,1.06-.1,1.38.29,2.29,2.78,3.45,6.08,4.31,9.51.27,1.1-.21,1.6-1.21,1.75-.99.16-1.93,0-2.81-.5.12-3.79-1.11-7.37-1.66-11.05Z"/>
      <path class="cls-4" d="M131.36,107.15c.31-.49.82-.59,1.27-.41,4.42,1.8,7.85,4.69,10.21,9.02-1.51.77-2.82.41-4.12.3-1.04-1.08-1.68-2.39-2.34-3.72-1.12-2.24-2.69-4.1-5.02-5.19Z"/>
      <path class="cls-1" d="M131.36,107.15c2.33,1.1,3.9,2.95,5.02,5.19.66,1.33,1.31,2.64,2.34,3.72-8.75-1.14-7.62-.05-7.36-8.91Z"/>
      <path class="cls-3" d="M184.45,121.33c.55,3.68,1.78,7.27,1.66,11.05-.48-.09-.99-.09-1.42-.28-4.42-2.02-4.5-2.25-2.37-6.5.71-1.42,1.42-2.85,2.13-4.27Z"/>
      <path class="cls-4" d="M109.28,138.46c-2.4.13-3.62-2.15-5.7-2.79-1.67-.51-3.18-1.59-4.75-2.42-.57-.85-1.24-1.56-2.3-1.74-.1-.7-.19-1.4-.33-2.42,5.44,1.92,9.81,4.87,13.09,9.38Z"/>
      <path class="cls-3" d="M161.73,205.91c1.11,1.75,2.99,1.94,4.76,2.35.17.76,0,1.45-.43,2.09-1.75,2.58-3.16,2.74-5.52.62-.45-.4-.85-.86-1.27-1.29.19-1.67,1.21-2.79,2.45-3.78Z"/>
      <path class="cls-3" d="M131.83,183.64c.2-1.15-.97-1.36-1.41-2.08,3.89-1.62,7.77-3.29,11.84-4.43.09,1.5-.49,2.54-1.92,3.19-2.77,1.27-5.54,2.55-8.5,3.32Z"/>
      <path class="cls-1" d="M36.93,143.53c-1.05.28-2.2-.28-3.41.47.8,1.34,2.45,2.3,1.96,4.27-.3,1.21-.84,1.98-2.02,2.31-1.35-2.31-2.56-4.72-4.6-6.61,2.45-1.28,4.57-1.38,8.07-.44Z"/>
      <path class="cls-4" d="M161.73,205.91c-1.24.99-2.27,2.11-2.45,3.78-1.25-.04-2.33-.6-3.42-1.1-.04-1.15.96-1.36,1.61-1.8,2.47-1.68,4.52-3.72,5.65-6.53.28-.69.74-.89,1.33-1.05.96,1.22.27,2.31-.33,3.37-.54.95-1.19,1.84-1.78,2.75,0,0-.05.06-.05.06-.19.17-.37.34-.56.52Z"/>
      <path class="cls-3" d="M117.61,185.09c1.64,1.13,3.02,2.85,5.37,2.45.12,1.66-.65,3.01-1.53,4.32-2.97-1.42-4.02-3.28-3.84-6.76Z"/>
      <path class="cls-2" d="M181.55,186.74c-2.51-1.27-4.45-3.3-6.67-4.97-.33-.25-.28-.61-.06-.93,2.96,1.03,5.39,2.87,7.58,5.05-.28.28-.57.57-.85.85Z"/>
      <path class="cls-1" d="M78.97,228.86c.21,1.34-.52,2.39-1.25,3.33-.68.88-.6,2.13-1.85,3.07-.69-1.83.5-3.32.47-4.86.96-.36,1.49-1.46,2.62-1.54Z"/>
      <path class="cls-2" d="M169.74,124.47c-1.06,1.09-2.87.82-3.83,2.09,0,0-.35-.02-.35-.02,0,0-.34.05-.34.06-.25.02-.5.05-.75.07,0,0-.04-.28-.04-.28-.22-.64-.44-1.27-.66-1.91.27-.08.53-.16.8-.24,1.66.11,2.93-.83,4.27-1.57-.12.81-.6,1.8.9,1.8Z"/>
      <path class="cls-3" d="M78.97,228.86c-1.13.08-1.66,1.17-2.62,1.54.23-2.34.8-4.59,1.79-6.72.12.38.25.75.38,1.13.17.91-.51,2.03.63,2.71-.06.45-.12.9-.18,1.35Z"/>
      <path class="cls-1" d="M96.52,131.51c1.06.19,1.74.89,2.3,1.74-.59,1.08-.09,1.94.55,2.78-3.15.06-3.16.06-3.12-2.74,0-.6.17-1.19.27-1.79Z"/>
      <path class="cls-3" d="M162.28,241.61c.45-.53.9-1.06,1.36-1.6,0,2.29,0,4.58,0,6.87-1-1.62-1.24-3.43-1.35-5.27Z"/>
      <path class="cls-3" d="M163.85,247.58c.41-.46.82-.93,1.23-1.39,0,1.34,0,2.68,0,4.33-1.18-.88-1.32-1.86-1.23-2.94Z"/>
      <path class="cls-3" d="M137.22,118.46c-1.38.13-2.79.49-3.96-.65,1.37-.07,2.72-.02,3.96.65Z"/>
      <path class="cls-3" d="M159.11,105.24c-.23.26-.47.51-.7.77-.88-.62-1.27-1.5-1.33-2.55.59.69,1.65.85,2.03,1.77Z"/>
      <path class="cls-3" d="M94.06,163.21c-.97.84-2.08.6-3.19.44.99-.68,2.08-.65,3.19-.44Z"/>
      <path class="cls-4" d="M143.63,210.43c.46.23.78.61.47,1.09-.27.43-.8.4-1.28.32,0-.63.31-1.07.81-1.41Z"/>
      <path class="cls-3" d="M80.65,165.25c-.85.9-1.93.74-2.99.67.9-.67,1.92-.78,2.99-.67Z"/>
      <path class="cls-1" d="M169.11,122.13c-.02-.69-.04-1.38-.07-2.07.71.67.99,1.35.07,2.07Z"/>
      <path class="cls-3" d="M139.08,144.97c-.57-.58-.51-1.32-.54-2.04.86.5.65,1.29.54,2.04Z"/>
      <path class="cls-1" d="M172.62,124.38c-.72-.02-1.45-.04-2.17-.07.75-.84,1.47-.67,2.17.07Z"/>
      <path class="cls-1" d="M126.91,204.26c.19.99-.51.85-1.09.86.2-.5.6-.74,1.09-.86Z"/>
      <path class="cls-4" d="M105.15,174.93c.36-.71,1.05-.68,1.69-.74-.43.55-1.05.67-1.69.74Z"/>
      <path class="cls-4" d="M149.68,197.2c.23-.58.73-.72,1.28-.79-.23.57-.48,1.12-1.28.79Z"/>
      <path class="cls-3" d="M128.84,181.76c-.43.51-.97.56-1.57.39.45-.43.97-.55,1.57-.39Z"/>
      <path class="cls-3" d="M74.77,163.7c.43-.55.98-.69,1.62-.46-.45.48-1.02.55-1.62.46Z"/>
      <path class="cls-1" d="M17.07,169.43c.14.91-.46.8-1.02.75.17-.48.57-.66,1.02-.75Z"/>
      <path class="cls-1" d="M163.09,256.38c.34.2.56.47.5.88-.01.09-.17.16-.26.24-.15-.31-.31-.62-.47-.93,0,0,.22-.19.22-.19Z"/>
      <path class="cls-2" d="M152.58,119.93c-.36-.06-.53-.28-.52-.65.17.22.35.43.52.65Z"/>
      <path class="cls-1" d="M177.61,220.15c-.1-.16-.21-.32-.28-.49-.02-.06.08-.17.13-.26.09.16.2.32.27.49.02.07-.07.17-.12.26Z"/>
      <path class="cls-1" d="M154.02,203.66c.3-.18.61-.37.91-.55-.16.43-.45.63-.91.55Z"/>
      <path class="cls-1" d="M127.63,203.63c.06.1.2.23.17.29-.11.32-.31.34-.54.08.07-.18.19-.31.37-.38Z"/>
      <path class="cls-1" d="M56.29,141.34c-.31,0-.61.02-.92.03.3-.31.6-.32.92-.03Z"/>
      <path class="cls-1" d="M156.27,103c-.09-.13-.18-.26-.27-.39.13.09.26.19.39.28,0,0-.12.12-.12.12Z"/>
      <path class="cls-1" d="M101.4,137.06c.44.05.73.27.84.71-.45-.04-.72-.29-.84-.71Z"/>
      <path class="cls-3" d="M97.01,181.72c-.19.35-.47.52-.88.47.17-.39.45-.56.88-.47Z"/>
      <path class="cls-1" d="M143.1,148.27c-.18.35-.44.59-.87.6.1-.47.41-.64.87-.6Z"/>
      <path class="cls-3" d="M282.93,135.37c2.59-.53,5.07-1.36,7.28-2.86.48-.04,1.03.05,1.43-.15,4.01-2.03,8.13-3.82,12.31-5.45.29-.11.44-.55.66-.84,1.07.21,1.96,1.24,3.19.66-.07.8-1.08,1.88.64,2.13-.57.84-1.51.73-2.33.92-9.17,2.1-17.3,6.35-24.78,11.93-1.48,1.11-2.85,2.37-3.67,4.1-.51,1.07-.75,2.15.09,3.12.86.98,1.99.91,3.06.42.89-.41,1.74-.93,2.54-1.5,8.09-5.68,16.59-10.64,25.56-14.82,2.66-1.24,5.52-2.17,7.74-4.24,2.24-.4,3.8,1.4,5.84,1.8,4.39.87,4.35,1.03,3.71,5.41-.05.36-.09.73-.06,1.1.33,4.01-.43,7.64-3.61,10.43-.29.42-.58.84-.87,1.27-1,.08-1.49.6-1.42,1.62-.07.18-.14.35-.2.53-.63.15-1.01.61-1.44,1.08-3.68,3.95-6.9,8.31-11.2,11.73-6.66,5.29-13.58,10.24-21.08,14.17-6.18,3.24-12.7,5.98-19.96,6.21-3.87.12-7.27-.88-10.41-2.98-1.11-.74-1.33-2.41-3.17-2.87.89,3.96,1.79,7.74,2.58,11.53.39,1.89.91,3.84-.26,5.68-1.13-1.05-.74-2.54-1.02-3.81-1.17-5.22-3.48-9.89-6.61-14.19,1.75-2.94,3.06-6.09,4.53-9.16,5.38-11.22,14.27-19.33,24.11-26.52,2.82-2.06,5.85-3.82,9.12-5.94-1.12-.24-1.72-.36-2.32-.49ZM308.69,141.83c.26.43.63.96,1.1.85,2.72-.66,4.89-2.2,6.38-4.55.42-.66-.4-.97-1.05-1.04.08-.63.74-1.5-.54-1.61-2.63-.23-4.75.82-6.31,2.88-.91,1.2-.93,2.47.43,3.48ZM268.44,171.18c.04.85.44,1.31,1.32,1.43,4.28.62,7.57-2.08,8.19-6.78-.13-.8-.46-1.47-1.39-1.35-3.37.43-6.29,1.8-8.46,4.48-.6.74-.54,1.6.34,2.22ZM279.43,176.34c.34-.11,1.16-.16,1.71-.58,3.49-2.61,7.73-3.73,11.41-5.94,2.87-1.72,5.5-3.79,7.57-6.43,1.11-1.42,2.42-3.5,1.14-5.01-1.42-1.67-3.13.14-4.49,1.05-3.27,2.19-7.12,3.96-9.54,6.88-2.63,3.18-6.08,4.57-9.25,6.63-.1.07-.2.15-.3.22-.81.51-1.31,1.15-.82,2.14.45.9,1.26,1.11,2.57,1.03ZM268.81,151.81c-2.04.71-3.91,2.58-5.62,4.6-.82.97-1.08,2.17.02,3.29,1.09,1.12,2.27,1.35,3.63.63,2.1-1.12,3.75-2.75,4.86-4.84,1.09-2.05.02-3.73-2.9-3.68ZM285.8,152.01c-.05-.62-.52-.79-1.01-.81-1.39-.06-3.52,1.74-3.64,3.05-.05.52.15.95.73,1.07,1.04.21,3.9-2.22,3.91-3.31ZM311.34,150.74c-.08-.51-.27-.94-.87-.99-1.17-.08-2.68,1.32-2.7,2.51,0,.4.21.72.59.81.81.19,2.88-1.46,2.98-2.33Z"/>
      <path class="cls-1" d="M255.12,195.47c1.17-1.84.65-3.79.26-5.68-.79-3.8-1.69-7.57-2.58-11.53,1.84.46,2.06,2.13,3.17,2.87,3.15,2.11,6.54,3.11,10.41,2.98,7.26-.23,13.78-2.97,19.96-6.21,7.49-3.93,14.42-8.88,21.08-14.17,4.3-3.42,7.52-7.77,11.2-11.73.43-.46.8-.92,1.44-1.08.32,2-1,3.39-1.89,4.9-1.22,2.08-2.47,4.13-3.04,6.5,0,0,.02-.07.02-.07-1.4.9-2.65,1.91-2.98,3.83,1.43-.02,1.8-1.38,2.83-1.63,1.93-.09,3.12-1.56,4.31-2.68,2.36-2.22,5.5-3.96,5.8-7.79.06-.77.64-1.28,1.48-1.44,1.09-.22,1.8-.89,1.72-2.05-.08-1.29-1.19-1.41-2.14-1.65,1.93-1.27,3.57-.66,5.05,1.15.51-2.35-.2-4.51,1.01-6.36,1.13-.46,1.6-1.54,2.09-2.49,1.71-3.35,4.3-5.94,6.92-8.55,2.18-2.17,4.46-4.2,7.01-5.95.86-.59-.26-.53-.5-.74,3.31-2.51,7.21-3.43,11.11-4.6.29,1.35-.49,1.71-1.01,2.12-7.64,6.02-13.88,13.24-18.84,21.59-3.15,5.31-7.18,9.98-10.83,14.93-6.41,8.7-14.44,15.79-22.25,23.14-6.96,6.56-14.74,11.9-22.99,16.65-4.13,2.38-8.57,3.95-13.21,4.51-4.2.5-7.92-1.42-11.18-4.03-.68-.54-.7-1.31.52-1.38,3.97,1.32,8.05.94,11.91,0,6.39-1.55,12.32-4.4,17.52-8.48,2.98-2.33,6.32-4.33,8.32-7.74.38-.16.76-.32,1.14-.48,1.57-.9,2.93-1.96,3.03-3.98-.09-.93.13-2.36-1.53-1.24-1.11.75-2.1,1.71-3.06,2.62-2.76,2.62-6.18,4.39-8.87,7.08-2.34,1.07-4.75,2.01-6.99,3.24-6.87,3.76-14.31,5.67-21.93,7.06-1.35.25-3.07.79-3.5-1.45Z"/>
      <path class="cls-3" d="M369.59,176.37c-4.02-.97-7.68-2.89-11.5-4.4-.96-1.91-2.93-2.54-4.58-3.54-3.22-1.95-3.3-2.19-1.13-5.17,1.64-.15,3.27-.3,4.91-.45,1.57.19,3.14.48,4.61-.41,5.68.17,11.38.12,17.02.98-.52.24-1.04.47-2.08.95,4.86,1.11,9.22,2.2,13.62,3.08,6.9,1.37,13.07,4.18,18.3,8.92,1,.91,1.81,1.93,1.61,3.36-.98.48-1.87.36-2.71.29-5.14-.45-9.54.95-12.75,5.16-1.27,1.67-2.56,1.57-4.07.44-4.28-3.21-9.29-5.03-14.07-7.27-1.66-.78-3.41-1.46-5.34-1.18,0,0,.06.02.06.02-.43-.76-1.19-.71-1.91-.78Z"/>
      <path class="cls-1" d="M359.05,159.92c-6.5.06-12.98.48-19.55.6,4.75-2.88,9.7-5.23,15.12-6.3,3.3-.65,6.5-1.39,9.45-3.06.98-.55,2.02-.96,3.18-.82,5.25.61,10.3-.85,15.39-1.67,5.79-.94,11.64-.96,17.36-.29,15.46,1.8,30.11,6.41,43.75,13.99,3.32,1.85,6.66,3.71,9.41,6.42-1.4.22-2.63-.28-3.88-.82-1.79-.79-3.66-1.36-5.61-1.61-.83-1.77-2.67-2.13-4.19-2.81-13.45-6.01-27.66-8.72-42.29-9.43-9.9-.48-19.62,1.51-29.42,2.43-2.55.24-5.46.54-7.47,2.72-.49.09-1,.13-1.25.65Z"/>
      <path class="cls-3" d="M320.21,196.45c-.29-.27-.58-.54-.88-.81,1.07-.65,1.15-2.91,3.32-1.81,3.71,1.88,7.66,3.27,11.29,5.38,3.47,2.02,6.88,4.2,10.78,5.4,5.59,4.78,9.85,10.59,13.32,17.02-3.92,0-7.56.86-10.58,3.53-1.33,1.18-2.71,1.29-3.88-.07-1.68-1.94-3.51-3.84-4.78-6.05-4.06-7.05-9.04-13.44-13.96-19.87-1.15-1.5-2.61-2.62-4.62-2.71Z"/>
      <path class="cls-1" d="M308.45,128.85c-1.73-.25-.72-1.33-.64-2.13,2.56-1.02,5.11-2.03,7.66-3.05,1.13.06,2.17-.25,3.22-.63,5.34-1.89,10.86-2.81,16.48-3.38,5.15-.52,10.3-.51,15.44-.49,2.58,0,5.04-1.25,7.63-.51-6.24,2.89-12.36,5.99-18.23,9.59-4.11,2.53-7.45,5.65-8.59,10.58-.11.48-.37.93-.44,1.41-.67,4.93-4.23,6.48-8.44,7.29,3.18-2.79,3.95-6.42,3.61-10.43-.03-.36,0-.74.06-1.1.64-4.37.68-4.54-3.71-5.41-2.04-.4-3.6-2.19-5.84-1.8-.66-.96-1.68-.68-2.6-.78-1.95-.21-3.71.82-5.61.85ZM327.04,124.4c-1.52-.99-3.03-.97-4.52.08-1.68.94-2.11,2.16-.84,3.75,1.04.94,2.07,1,3.1-.02,1.06-.57,2.17-1.09,2.95-2.02.77-.92.4-1.52-.69-1.79Z"/>
      <path class="cls-4" d="M371.43,177.12c1.93-.28,3.68.4,5.34,1.18,4.78,2.25,9.79,4.06,14.07,7.27,1.51,1.13,2.8,1.23,4.07-.44,3.21-4.21,7.61-5.61,12.75-5.16.84.07,1.73.2,2.71-.29.2-1.42-.61-2.45-1.61-3.36-5.24-4.74-11.4-7.54-18.3-8.92-4.4-.88-8.76-1.97-13.62-3.08,1.04-.48,1.56-.71,2.08-.95,6.02.67,11.96,1.68,17.85,3.15,2.41.6,4.48,1.85,6.72,2.74,4.07,1.63,8.42,2.53,12.2,4.91,1.31.83,2.27,1.59,2.61,3.28.76,3.73,2.81,7.08,3.53,11.07-1.35.13-2.22-.78-3.23-1.25-3.8-1.76-7.52-3.79-11.92-3.53-4.95.29-8.75,2.3-10.81,7.04-.99,2.26-1.62,2.4-3.45.82-.83-.72-1.5-1.64-2.35-2.34-.66-.55-1.48-.99-2.13.1-.15.06-.2.17-.15.33l.07.07c1.55-.67.83-1.53.07-2.18-2.32-1.98-4.93-3.56-7.51-5.19-2.94-1.86-6.22-3.11-8.98-5.28Z"/>
      <path class="cls-1" d="M437.41,151.21c4.23,2.37,8.23,5.07,11.99,8.13,2.17,1.77,4.31,3.56,5.9,5.9,0,0,.03-.03.03-.03-2.32.15-3.89-1.5-5.59-2.58-10.81-6.86-22.47-11.75-34.83-14.89-5.21-1.32-10.65-1.73-15.97-2.61-8.28-1.37-16.39.14-24.52,1.35-.49.07-.99.14-1.47.1-1.18-.1-2.64.54-3.42-.71-.81-1.3-.1-2.68.62-3.81,1.66-2.61,3.84-4.5,7.2-4.37.35,3.79.65,4.07,4.22,3.45,3.31-.57,6.6-.4,9.91-.09,3.13.3,6.28.39,9.42.58,2.94,1.03,5.82,2.44,9.07,1.28l.24.27c2.45.72,4.92,1.38,7.35,2.16,5.73,1.84,11.45,3.7,16.84,6.41,1.12.56,2.28,1.28,2.99-.52Z"/>
      <path class="cls-3" d="M315.88,196.35c4.4,3.74,7.17,8.86,11.03,13.07.89.97,1.43,2.24,2.14,3.38-.72.61-.51,1.03.27,1.34,0,0-.05-.07-.05-.07-.29,1.31.35,2.38.88,3.48.8,1.65,1.6,3.29,2.23,5.03,1.53,4.18,1.6,4.22-3.04,4.15-2.8-.04-5.33.54-7.54,2.3-1.8-4.49-2.44-9.26-3.5-13.94-.33-1.44-.02-2.68,1.23-3.61.29-.22.56-.49.79-.78,1.82-2.28,1.73-3-.66-4.73-1.89-1.37-3.92-2.56-5.54-4.3-.84-.91-1.7-1.79-2.01-3.05.84-1.45,2-2.36,3.76-2.28Z"/>
      <path class="cls-3" d="M347.47,203.06c-1.23-.74-2.1-1.83-2.93-2.98,5.22.54,10,2.34,14.5,4.98,8.97,5.25,16.9,11.78,23.96,19.38.81.88,1.97,1.58,1.78,3.05-5.77-3.08-11.63-5.85-18.47-5.21-.64.06-1.14-.29-1.45-.93-1.18-2.48-3.52-4.08-4.87-6.43-1.68-2.92-4.49-4.87-6.48-7.54-.69-.92-1.7-1.4-2.9-1.31,0,0,.09,0,.09,0-.27-.26-.53-.53-.79-.79,0,0,.06.05.06.05-.27-.27-.53-.53-.8-.8,0,0,.06.06.06.06-.27-.27-.54-.54-.8-.8,0,0,.07.06.07.06-.34-.26-.68-.53-1.02-.79Z"/>
      <path class="cls-1" d="M384.78,227.48c.19-1.47-.96-2.17-1.78-3.05-7.06-7.6-14.99-14.13-23.96-19.38-4.5-2.63-9.28-4.44-14.5-4.98-1.47,0-1.99-1.34-2.9-2.09-2.96-2.45-6.2-4.46-9.45-6.47-.83-.51-1.83-.81-2.22-1.84l-.04.04c3.25-.23,6.03,1.34,8.74,2.66,3.9,1.91,7.9,3.45,12.07,4.55,8.82,2.35,16.11,7.41,22.89,13.18,5.85,4.98,10.8,10.82,14.33,17.73.89,1.74,2.12,3.36,2.13,5.45-2.38-1.38-3.17-4.22-5.31-5.81Z"/>
      <path class="cls-3" d="M349.39,172.89c7.93,1.67,15.57,4.18,22.8,7.88.3.15.52.45.78.68-.05,1.25.93,1.64,1.8,2.08,2.77,1.4,5.04,3.52,7.37,5.48,3.3,2.77,3.22,4.06.34,7.14-.5.54-.93,1.14-1.4,1.71-6.17-4.72-12.17-9.69-19.09-13.32-1.27-.66-1.79-1.55-1.72-2.95.05-.98.04-1.99-.13-2.95-.34-1.98-1.08-2.51-3.1-2.08-2.78.59-5.57,1.05-8.42,1.08-.28-.39-.5-.84-.84-1.18-2.14-2.17-2.07-2.43.93-3.26.23-.06.45-.2.67-.3Z"/>
      <path class="cls-4" d="M359.05,159.92c.26-.53.77-.57,1.25-.65,3.31-.17,6.55-.88,9.91-.77,2.36.08,4.58.99,6.96.8,3.35-.27,6.65.46,9.9.98,8.63,1.37,16.97,3.92,25.16,6.97,2.99,1.11,6.27,2.56,9.34,1.43,4.03-1.49,8.05-1.99,12.26-2.27,1.97-.13,3.83-.55,5.81.04,1.29.38,2.69.33,4.02-.09,1.95.25,3.82.82,5.61,1.61,1.24.54,2.48,1.05,3.88.82,1.33.83,2.67,1.67,4,2.5-.05.16-.1.32-.16.48-3.41-.52-6.81-1.02-10.22-1.56-7.98-1.26-15.74-.34-23.26,2.47-2.37.89-4.24.86-6.58-.44-10.22-5.68-21.17-9.27-32.8-10.74-8.33-1.05-16.68-1.63-25.08-1.58Z"/>
      <path class="cls-4" d="M320.21,196.45c2.02.09,3.47,1.21,4.62,2.71,4.92,6.44,9.9,12.82,13.96,19.87,1.27,2.2,3.1,4.1,4.78,6.05,1.18,1.36,2.55,1.25,3.88.07,3.02-2.67,6.67-3.52,10.58-3.53,1.09,1.05,1.67,2.37,2.4,4.15-3.53-.59-6.59-.43-9.63.87-1.82.77-2.77,1.65-2.92,3.65-.26,3.32-.92,6.57-2.6,9.86-1.76-2.76-3.69-5.12-4.43-8.16-2.13-8.65-6.46-16.23-11.59-23.39-2.94-4.1-6.02-8.11-9.04-12.16Z"/>
      <path class="cls-4" d="M282.93,135.37c.6.13,1.2.25,2.32.49-3.27,2.12-6.3,3.88-9.12,5.94-9.84,7.19-18.73,15.3-24.11,26.52-1.47,3.07-2.78,6.22-4.53,9.16-1.46-1.36-1.49-2.9-.84-4.7,3.13-8.64,7.39-16.6,13.89-23.22,5.19-5.29,10.96-9.84,17.13-13.93,1.91-1.26,3.5-.46,5.26-.26Z"/>
      <path class="cls-1" d="M348.46,192c-1.67.13-3.11-.52-4.55-1.27-7.35-3.82-15.19-6.28-23.22-8.21-.83-.2-1.7-.2-2.55-.3-.81-.1-1.87.18-2.14-.94-.19-.8.43-1.41,1.01-1.84,1.78-1.33,3.48-2.73,4.81-4.53.61-.82,1.46-1.05,2.28-.62,1.58.85,3.56,1.14,4.48,2.98.66,1.51,1.72,2.49,3.21,3.31,4.78,2.64,10,3.93,15.16,5.46.24.25.48.5.71.75.06.2.12.4.19.6-.26,1.59.07,3.11.59,4.61Z"/>
      <path class="cls-1" d="M394.52,229.74c1.24,1.63.59,3.42.42,5.23-2.7-6.7-6.7-12.58-10.88-18.37-3.74-5.19-8.66-9.09-13.62-12.96-4.28-3.34-8.74-6.45-14.01-8.14-.69-.22-1.34-.64-1.97-1.02-1.13-.68-1.48-1.57-.72-2.78.46-.73.81-1.52,1.22-2.29q1.67-3.16,4.68-.63c-.02.77-.35,1.4-.82,1.99-.81.99-.63,1.94.5,2.36,2.41.88,4.26,2.89,6.87,3.32h.03c.13.4.4.6.81.64.46.3.92.6,1.39.9.75,1.07,1.61,1.97,3,2.14h.03c.12.4.38.62.79.64l.04.02c.38.99,1.1,1.49,2.15,1.52l.02.02c.09.41.35.62.77.64l.06.04c.58,1.24,1.39,2.16,2.88,2.23l.05.05c2.39,2.76,4.5,5.77,7.34,8.12l.05.07c-.02,1.03.42,1.76,1.42,2.1l.11.13c2.36,4.61,4.73,9.23,7.1,13.83.05.09.2.14.3.2Z"/>
      <path class="cls-4" d="M293.62,214.18c.1-1.19.21-2.39.31-3.58.61-.02,1.22-.05,1.83-.07.09.15.16.31.22.48-.05.49-.23,1.01-.11,1.45.8,3,.86,5.97.08,9.01-.38,1.47.18,2.88,1.5,3.88,1.57,1.18,2.69,2.8,4.02,4.2,1.65,1.74,2.1,4.49,4.63,5.44.53,3.02,1.29,6.01,1.05,9.13-.12,1.59-.05,3.18-.06,4.78-.09.23-.17.46-.26.69-.1.29-.26.81-.36.03-.56-4.13-1.19-8.23-2.81-12.12-1.56-3.77-4.13-6.69-7.37-9.07-1.45-1.07-2.72-1.38-4.07.42-.91,1.21-2.17,2.33-4.1,2.46-.35-2.04.27-3.96-.09-5.92-.38-2.07-1.15-3.64-2.73-5.02-2.31-2.01-4.84-3.88-5.82-7.01.82-.06,1.64-.12,2.46-.19.41.1.82.2,1.23.3,1.33,3.91,4.98,4.97,8.13,6.66.52,1.55-.95,3.58,1.19,4.97.86-3.74,1.63-7.26,1.13-10.93Z"/>
      <path class="cls-1" d="M295.98,211.01c-.05-.17-.12-.33-.22-.48-.24-.98-.84-1.47-1.87-1.39-.22-2.7-.4-5.41-1.52-7.95-.25-.58-.25-1.25.38-1.63.61-.37,1.21-.13,1.67.33.61.61,1.28,1.2,1.72,1.93,1.88,3.03,4.19,5.82,5.25,9.31.11.35.19.77.42,1.02,4.75,5.04,5.9,11.56,7,17.94,1.09,6.34.78,12.72-1.74,18.81.02-1.59-.05-3.19.06-4.78.23-3.12-.52-6.11-1.05-9.13.26-1.35.1-2.64-.25-3.99-1.37-5.25-3.36-10.27-5.61-15.17-.88-1.91-1.95-4-4.25-4.82Z"/>
      <path class="cls-1" d="M368.34,139.14c-1.83,4.97-5.24,8.69-10.13,10.37-6.37,2.19-12.95,3.8-19.13,6.57-.46.2-.96.15-1.51-.38,1.94-3.91,4.83-7.25,7.31-10.86.6-.87,1.64-.94,2.59-1.22,2.04-.6,4.11-.69,6.2-.67.02.61.03,1.23.06,1.84.13,2.7.57,2.99,3.07,2.02,2.55-1,4.66-2.69,6.8-4.34,1.52-1.18,2.68-2.89,4.74-3.31Z"/>
      <path class="cls-4" d="M400.92,141.62c-3.14-.18-6.29-.28-9.42-.58-3.32-.31-6.6-.48-9.91.09-3.57.62-3.87.34-4.22-3.45,1.21-.83,2.6-.58,3.93-.62,5.28-.14,10.55.17,15.8.75,2.11.23,3.78-.33,5.39-1.69,3.93-3.32,8.49-5.33,13.6-6.03-.32,1.42-1.66,1.73-2.64,2.42-3.44,2.43-6.72,5.02-8.66,8.91-1.57-.8-3.12-1.63-4.87-2.05-.34,1.24.34,1.73,1,2.24Z"/>
      <path class="cls-4" d="M384.78,227.48c2.15,1.59,2.94,4.43,5.31,5.81.17.35.34.71.52,1.06-.43.04-.85.08-1.28.12-4.4-3.43-9.23-6.03-14.58-7.66-3.11-.95-6.29-1.15-9.51-.92-1.16.08-2.12.01-2.67-1.32-2.61-6.34-6.71-11.72-11.04-16.94-.38-.46-.61-1.04-.92-1.56,1.2-.09,2.22.39,2.9,1.31,1.99,2.66,4.8,4.62,6.48,7.54,1.35,2.35,3.69,3.95,4.87,6.43.3.64.81.99,1.45.93,6.83-.64,12.69,2.13,18.47,5.21Z"/>
      <path class="cls-1" d="M344.72,204.61c-3.9-1.19-7.31-3.38-10.78-5.4-3.63-2.11-7.57-3.49-11.29-5.38-2.17-1.1-2.25,1.16-3.32,1.81-2.84-3.16-5.69-6.32-8.52-9.47,2.83-.09,5.99.24,8.81,1.5,9.13,4.06,17.45,9.45,24.78,16.29.16.15.21.43.31.65Z"/>
      <path class="cls-1" d="M311.41,253.13c-.55,1.81-1.8,3.09-3.1,4.37-1.1-.68-.38-1.35-.18-1.93.8-2.32,1.8-4.58,2.45-6.94,2.76-9.98,2.31-19.87-1.12-29.64-1.68-4.77-1.52-4.99,3.83-5.8.24,1.86,1.09,3.61.96,5.57-1.64.17-1.11,1.23-.91,2.18,1.33,6.52,2.31,13.06,1.53,19.75-.87,1.12-.61,2.45-.66,3.72l-.04.12c-1.17,2.79-2.64,5.48-2.76,8.61Z"/>
      <path class="cls-4" d="M358.26,118.65c-2.6-.74-5.05.52-7.63.51-5.14-.01-10.29-.03-15.44.49-5.63.57-11.15,1.49-16.48,3.38-1.05.37-2.1.68-3.22.63,1.08-1.32,2.53-2.26,3.53-3.7,2.02-2.9,4.85-3.7,8.28-2.46,4.29,1.55,8.38.97,12.35-1.05.63-.04,1.26-.1,1.64-.71,6.01-.59,11.77.87,17.56,2.14.52.12.68.24.12.53-.22.11-.47.16-.7.23Z"/>
      <path class="cls-1" d="M349.39,172.89c-.22.1-.44.23-.67.3-3,.83-3.07,1.09-.93,3.26.33.34.56.78.84,1.18-4.36,1.04-8.24-.79-12.13-2.19-3.11-1.12-6.06-2.67-9.06-4.07-.66-.31-1.39-.7-1.05-1.64.24-.65.86-.85,1.5-.85,1.23,0,2.48-.12,3.68.09,5.54.99,11.06,2.06,16.58,3.15.45.09.83.5,1.24.77Z"/>
      <path class="cls-1" d="M352.38,163.27c-2.17,2.98-2.09,3.22,1.13,5.17,1.65,1,3.62,1.63,4.58,3.54-3.48-.21-6.66-1.65-9.98-2.49-5.78-1.46-11.64-2.33-17.56-3.42,7.07-2.69,14.37-3.35,21.83-2.8Z"/>
      <path class="cls-4" d="M368.42,197.98c-.46-.3-.92-.6-1.39-.9-.13-.38-.39-.61-.81-.63,0,0-.03,0-.03,0,.14-1.57-1.03-2.08-2.14-2.65-.98-.51-2.1-.87-2.91-1.58-1.26-1.09-1.14-2.11.65-2.57,6.91,3.43,12.64,8.48,18.35,13.54,3.3,2.93,6.81,5.65,8.79,9.79,1,2.09,2.29,4.05,2.85,6.34-.8.95-.78.93-1.13.4-1.01-1.48-1.21-3.69-3.53-4.02,0,0-.11-.13-.11-.13.06-1.06,0-2.04-1.42-2.1,0,0-.05-.07-.05-.07-.95-3.57-3.09-6.22-6.25-8.06-.28-.16-.72-.05-1.09-.06,0,0-.05-.05-.05-.04-.12-1.83-1.34-2.23-2.88-2.23,0,0-.06-.04-.06-.04-.12-.37-.37-.59-.77-.64,0,0-.02-.02-.02-.02-.03-1.49-1.07-1.53-2.15-1.52,0,0-.04-.02-.04-.02-.13-.38-.39-.6-.79-.63,0,0-.03-.01-.03-.01-.1-1.97-1.32-2.38-3-2.14Z"/>
      <path class="cls-1" d="M304.27,208.44c-2.14-3.58-3.97-7.37-6.98-10.38-.79-.79-.67-1.77.35-2.06,2.54-.73,3.79-3.06,6.06-4.63,1.15,2.4,2.17,4.65,2.55,7.15-1.07,1.4-.12,2.55.52,3.69.83,1.49,1.92,2.84,2.42,4.51-1.64.57-3.28,1.15-4.92,1.72Z"/>
      <path class="cls-4" d="M321.81,229.02c2.21-1.77,4.74-2.35,7.54-2.3,4.64.07,4.57.03,3.04-4.15-.64-1.73-1.43-3.38-2.23-5.03-.54-1.1-1.17-2.17-.88-3.48,1.7.92,2.62,2.54,3.57,4.11,2.6,4.31,4.82,8.78,6.16,13.92-1.27.16-2.09-.42-2.97-.68-3.61-1.05-7.24-1.23-10.92-.27-2.46.64-2.48.55-3.31-2.13Z"/>
      <path class="cls-3" d="M368.34,139.14c-2.05.43-3.21,2.14-4.74,3.31-2.14,1.65-4.24,3.34-6.8,4.34-2.5.98-2.95.68-3.07-2.02-.03-.61-.04-1.23-.06-1.84.85-.44,1.66-1.03,2.56-1.31,2.47-.76,4.54-2.09,6.28-3.97,2.08.77,3.4-.66,4.61-1.84,2.28-2.22,5.03-3.72,7.62-5.47-.11,1.48-.23,2.96-.34,4.44-1.87.36-3.64.88-4.51,2.83,0,0-.04.04-.03.04-.93.05-1.43.52-1.45,1.47h-.07Z"/>
      <path class="cls-4" d="M347.86,187.4c-.07-.2-.13-.4-.19-.6-.06-.42-.3-.67-.72-.75-5.16-1.53-10.38-2.82-15.16-5.46-1.49-.82-2.55-1.81-3.21-3.31,1.61-.39,2.82.64,4.16,1.17,5.05,2.01,10.12,3.84,15.69,3.72,2.35-.05,4.6-.6,7.32-1.22-.55,2.06-1.68,3.44-2.55,4.94-1.48,1.56-3.01,2.98-5.35,1.51Z"/>
      <path class="cls-3" d="M437.41,151.21c-.71,1.8-1.87,1.08-2.99.52-5.4-2.7-11.12-4.57-16.84-6.41-2.43-.78-4.9-1.44-7.35-2.16,1.31-.21,2.56-.56,3.54-1.52,1.21-.22,2.38-.28,3.58.19,3.27,1.29,6.56,2.51,9.84,3.76,1.6,2.05,3.67,1.05,5.57.78,1.39-.2,2.64-1.12,4.12-1.08-.2.83-.39,1.66-.6,2.48-.25.97-.11,1.71,1.02,1.93.04.5.08,1,.11,1.51Z"/>
      <path class="cls-4" d="M296.82,182.63c-2,3.41-5.35,5.4-8.32,7.73-5.2,4.07-11.13,6.92-17.52,8.48-3.87.94-7.95,1.32-11.91,0,10.81-1.14,20.68-4.71,29.33-11.4,2.88-1.19,4.75-3.77,7.35-5.33.25.03.5.07.74.1.12.13.23.27.33.42Z"/>
      <path class="cls-4" d="M381.09,197.86c.46-.57.9-1.17,1.4-1.71,2.88-3.08,2.96-4.37-.34-7.14-2.33-1.96-4.6-4.08-7.37-5.48-.87-.44-1.85-.83-1.8-2.08,4.37,1.28,8.06,3.88,11.88,6.21,1.04.63,2,1.4,2.99,2.1,0,0-.07-.07-.07-.07.27.18.55.36.82.54,0,0,.2.16.2.16.03.27.18.42.45.44.82,1.06,2.17,1.65,2.7,3.11-3.43,1.1-6.25,2.93-7.45,6.69-1.67-.46-2.51-1.66-3.41-2.79Z"/>
      <path class="cls-1" d="M283.16,213.48c-.41-.1-.82-.2-1.23-.3-.13-2.36-.77-4.59-1.72-6.73,2.6-1.33,5.23-2.59,7.78-4,1.62-.89,2.24-.11,2.54,1.28.46,2.13,1.17,4.23.97,6.46-2.78,1.1-5.56,2.19-8.33,3.29Z"/>
      <path class="cls-1" d="M313.55,103.83c.3-.69.67-1.3,1.91-1.32-.18,1.62-.13,3.29-.59,4.79-.83,2.67.07,5.02.88,7.43.45,1.34,2.14,2.53,1.24,3.98-1.19,1.92-2.56,3.9-5.11,4.35-.12.02-.24.01-.37.02-.33-3.44-.95-6.85-.17-10.33.23-1.01-.07-2.15-.12-3.22.78-1.9,1.55-3.79,2.33-5.69Z"/>
      <path class="cls-1" d="M413.77,141.64c-.98.97-2.23,1.31-3.54,1.52,0,0-.24-.27-.24-.26-.01-.87-.5-1.25-1.32-1.28-1.29-.06-2.58-.12-3.87-.18,1.94-3.89,5.21-6.48,8.66-8.91.98-.69,2.32-1,2.64-2.42.96-.9,2.03-.35,3.58-.5-2.71,4.01-6.39,7.07-5.89,12.04Z"/>
      <path class="cls-4" d="M313.55,103.83c-.78,1.9-1.55,3.79-2.33,5.69-3.37,4.14-4.2,9.19-5.09,14.23-.36-.02-.75.03-1.09-.08-3.68-1.26-3.79-1.57-2.17-5.18,2.53-5.64,5.94-10.63,10.68-14.65Z"/>
      <path class="cls-4" d="M314.87,240.69c.78-6.68-.2-13.23-1.53-19.75-.19-.94-.72-2.01.91-2.18.69,4.48,1.92,8.85,3.63,13.01,1.68,4.09.67,7.7-1.02,11.35-.76,1.64-1.6,3.24-2.41,4.85-.1-1.15-.19-2.31-.29-3.46,0,0,.04-.12.05-.12,1.42-1.03.72-2.43.66-3.72Z"/>
      <path class="cls-3" d="M326.17,148.85c.95.25,2.06.37,2.14,1.65.08,1.17-.63,1.84-1.72,2.05-.84.17-1.42.67-1.48,1.44-.3,3.82-3.44,5.57-5.8,7.79-1.19,1.12-2.38,2.59-4.31,2.68-.03-.74.69-1.43.14-2.2,0,0-.02.07-.02.07,2.93-.98,3.88-3.82,5.52-5.98.81-1.06,1.26-2.4,1.79-3.64.75-1.78,1.92-3.12,3.73-3.87Z"/>
      <path class="cls-3" d="M283.16,213.48c2.78-1.1,5.56-2.19,8.33-3.29,0,0,.12.17.12.17-.16.39,0,.67.32.9.07.97.14,1.94.21,2.91-.34,1.98.1,4.07-.84,5.97-3.15-1.68-6.8-2.75-8.13-6.66Z"/>
      <path class="cls-3" d="M306.13,123.75c.89-5.03,1.72-10.08,5.09-14.23.05,1.08.35,2.21.12,3.22-.78,3.48-.16,6.89.17,10.33-1.75.58-3.4,1.96-5.38.67Z"/>
      <path class="cls-4" d="M304.62,126.06c-.22.29-.37.73-.66.84-4.19,1.63-8.3,3.42-12.31,5.45-.4.2-.95.11-1.43.15.79-1.36,1.7-2.66,2.32-4.09.48-1.11,1.27-1.66,2.21-2.26,3.3-2.11,6.56-2.08,9.88-.09Z"/>
      <path class="cls-3" d="M347.74,125.91c.25.21,1.36.15.5.74-2.54,1.75-4.83,3.78-7.01,5.95-2.62,2.6-5.21,5.2-6.92,8.55-.48.95-.96,2.03-2.09,2.49-.37-4.93,2.55-8.22,5.84-11.16,2.91-2.6,6.28-4.62,9.67-6.58Z"/>
      <path class="cls-1" d="M341.28,115.74c-.39.61-1.01.67-1.64.71-.59-1.13-1.58-.97-2.52-.69-1.3.39-2.56.72-3.87.11.68-1.45,1.31-2.91,2.04-4.33.71-1.39,2.08-2.46,2.04-4.22.38-.29.72-.64,1.14-.84,1.17-.56,2.06-.37,1.59,1.13-.49,1.56-.48,3.11-.41,4.68.06,1.36.32,2.67,1.63,3.46Z"/>
      <path class="cls-3" d="M285.43,121.48c.37-.74,1.01-1.4,1.4-.24.78,2.34,1.58,4.64,3,6.67.77,1.11.26,1.89-.64,2.45-1.44.89-2.74,2.1-4.56,2.18-.03-2.61.82-5.07,1.25-7.6.21-1.2.65-2.42-.45-3.45Z"/>
      <path class="cls-4" d="M285.43,121.48c1.1,1.03.66,2.25.45,3.45-.43,2.53-1.28,5-1.25,7.6-.68.35-1.4.47-2.15.42-1.24-.08-1.83-.71-1.51-1.94.9-3.45,1.57-7.01,4.47-9.53Z"/>
      <path class="cls-4" d="M337.34,107.32c.04,1.76-1.33,2.83-2.04,4.22-.73,1.42-1.36,2.89-2.04,4.33-1.53.54-3.03.52-4.9-.3,2.19-3.89,5.05-6.62,8.98-8.25Z"/>
      <path class="cls-3" d="M304.27,208.44c1.64-.57,3.28-1.15,4.92-1.72,1.76.22,2.56,1.92,4,2.62-.49.37-.98.74-1.46,1.12-3.88,3.09-5.43,2.67-7.47-2.02Z"/>
      <path class="cls-4" d="M313.2,209.33c-1.45-.7-2.25-2.39-4-2.62-.5-1.67-1.59-3.02-2.42-4.51-.64-1.14-1.59-2.29-.52-3.69.68.35,1.06.98,1.42,1.6,1.89,3.28,4.51,5.88,7.73,7.66-.45,1.4-1.5,1.18-2.2,1.56Z"/>
      <path class="cls-1" d="M315.88,196.35c-1.76-.08-2.92.83-3.76,2.28-2.02-2.65-3.37-5.58-3.69-8.93h0c3.3,1.31,5.31,4.06,7.46,6.66Z"/>
      <path class="cls-2" d="M295.75,182.11c-2.61,1.57-4.47,4.15-7.35,5.33-.28-.27-.57-.55-.85-.82,2.69-2.69,6.11-4.46,8.87-7.08.95-.91,1.95-1.87,3.06-2.62,1.66-1.12,1.43.31,1.53,1.24-1.46.88-2.9,1.78-3.93,3.19-.17.04-.34.09-.5.16-.4.02-.67.22-.82.59Z"/>
      <path class="cls-4" d="M374.75,130.36c-2.59,1.75-5.34,3.25-7.62,5.47-1.21,1.18-2.53,2.61-4.61,1.84,2.98-3.69,6.41-6.74,11.11-8.06.41.02.82.03,1.23.05-.04.23-.08.47-.11.7Z"/>
      <path class="cls-1" d="M437.3,149.7c-1.14-.22-1.28-.96-1.02-1.93.22-.82.4-1.65.6-2.48.64-.39,1.69-.37,1.51-1.69h-3.86c2.95-.89,4.26-.92,8.02-.15-1.33,2.53-3.6,4.15-5.25,6.26Z"/>
      <path class="cls-3" d="M387.13,215.7c2.32.33,2.52,2.54,3.53,4.02.36.53.33.55,1.13-.4,1.58,3.3,2.41,6.8,2.73,10.42-.1-.07-.25-.11-.3-.2-2.37-4.61-4.73-9.22-7.1-13.83Z"/>
      <path class="cls-3" d="M280.21,206.44c.96,2.15,1.6,4.38,1.72,6.73-.82.06-1.64.12-2.46.19-.46-.86-.97-1.69-1.35-2.58-1.27-2.91-1.13-3.16,2.09-4.34Z"/>
      <path class="cls-4" d="M434.53,143.59h3.86c.18,1.32-.87,1.31-1.51,1.69-1.48-.03-2.72.89-4.12,1.08-1.89.27-3.97,1.27-5.57-.78,2.62-.04,4.72-1.98,7.34-2Z"/>
      <path class="cls-3" d="M347.86,187.4c2.34,1.47,3.86.05,5.35-1.51,0,2.27-1.13,4.04-2.6,5.63-.58.62-1.25,1.18-2.16.48-.53-1.49-.86-3.01-.59-4.61Z"/>
      <path class="cls-2" d="M291.29,220.14c.94-1.9.51-3.99.84-5.97.5,0,.99,0,1.48.01.49,3.66-.28,7.19-1.13,10.93-2.14-1.39-.67-3.42-1.19-4.97Z"/>
      <path class="cls-3" d="M361.8,189.65c-1.79.46-1.91,1.48-.65,2.57.81.7,1.93,1.07,2.91,1.58,1.11.57,2.27,1.08,2.14,2.65-2.61-.44-4.47-2.44-6.88-3.32-1.13-.42-1.31-1.37-.5-2.36.48-.58.8-1.22.82-1.99.78.14,1.63.1,2.16.87Z"/>
      <path class="cls-3" d="M314.16,244.53c.1,1.15.19,2.31.29,3.46-.7,1.9-1.61,3.68-3.05,5.15.12-3.12,1.59-5.82,2.76-8.61Z"/>
      <path class="cls-1" d="M369.89,137.62c.88-1.94,2.65-2.46,4.51-2.83.49.31.67,1,.22,1.12-1.62.45-2.92,1.81-4.73,1.7Z"/>
      <path class="cls-1" d="M361.9,162.42c-1.47.89-3.05.6-4.61.41,1.47-.94,3.05-.58,4.61-.41Z"/>
      <path class="cls-1" d="M389.33,234.47c.43-.04.85-.08,1.28-.12.5.36,1.01,1.22.67,1.38-1.03.47-1.44-.58-1.95-1.26Z"/>
      <path class="cls-3" d="M293.89,209.14c1.03-.09,1.63.4,1.87,1.39-.61.02-1.22.05-1.83.07-.01-.48-.02-.97-.04-1.45Z"/>
      <path class="cls-1" d="M320.27,150.4c-.07-1.02.42-1.54,1.42-1.62.17,1.1-.34,1.6-1.42,1.62Z"/>
      <path class="cls-1" d="M368.41,139.13c.01-.95.52-1.42,1.45-1.47-.09.88-.57,1.37-1.45,1.47Z"/>
      <path class="cls-4" d="M329.32,214.14c-.78-.31-.99-.73-.27-1.34.09.45.18.89.27,1.34Z"/>
      <path class="cls-3" d="M374.86,129.66c-.41-.02-.82-.03-1.23-.05.42-.24.88-1.3,1.23.05Z"/>
      <path class="cls-1" d="M329.96,189.67c-.31-.08-.62-.16-.93-.25.52-.59.68-.06.89.29,0,0,.04-.04.04-.04Z"/>
      <path class="cls-4" d="M369.59,176.37c.71.07,1.48.01,1.91.78-.75.03-1.41-.17-1.91-.78Z"/>
      <path class="cls-1" d="M308.43,189.69c-.1-.06-.3-.14-.29-.17.08-.25.19-.19.28.17,0,0,0,0,0,0Z"/>
      <path class="cls-1" d="M291.93,211.25c-.31-.23-.48-.5-.32-.9.33.22.44.52.32.9Z"/>
      <path class="cls-2" d="M388.59,190.25c-.27-.18-.55-.36-.82-.54-.05-.16,0-.27.15-.33.22.29.44.59.67.88Z"/>
      <path class="cls-2" d="M389.24,190.85c-.27-.03-.42-.18-.45-.44.2.1.35.24.45.44Z"/>
      <path class="cls-4" d="M347.47,203.06c.34.26.68.53,1.02.79-.5-.06-.78-.4-1.02-.79Z"/>
      <path class="cls-4" d="M348.42,203.79c.27.27.54.54.8.8-.49-.05-.75-.32-.8-.8Z"/>
      <path class="cls-4" d="M349.16,204.53c.27.27.53.53.8.8-.49-.04-.76-.31-.8-.8Z"/>
      <path class="cls-4" d="M349.91,205.28c.26.26.53.53.79.79-.52,0-.76-.3-.79-.79Z"/>
      <path class="cls-1" d="M456.08,165.94c-.41-.09-.67-.32-.74-.74,0,0-.03.03-.03.03.39.11.63.36.74.75l.04-.04Z"/>
      <path class="cls-1" d="M456.04,165.98c.11.06.31.14.3.16-.08.24-.18.17-.27-.2,0,0-.04.04-.04.04Z"/>
      <path class="cls-4" d="M154.62,128.7c1.42-1.25,3.09-.45,4.65-.57,1.13,1.24,2.78.87,4.15,1.19,10.12,2.33,19.15,6.87,27.39,13.08,1.4,1.06,2.63,2.27,3.16,3.98.64,2.07-.42,3.35-2.61,3.29-2.01-.06-3.49-1.29-4.88-2.42-6.83-5.57-14.61-9.52-22.45-13.38-2.1-1.03-4.19-2.08-6.45-2.73-1.35-.39-2.55-.92-2.97-2.43Z"/>
      <path class="cls-1" d="M169.77,160.59c-.09-2.56.75-3.27,2.49-2.54,2.51,1.05,4.76,2.63,6.78,4.41,2.77,2.44,6.06,4.23,8.57,6.97.61.67,1.5.79,2.27,1.15,1.33.61,2.65,1.31,3.86,2.13.96.66,1.62,1.64.75,2.82-.76,1.03-1.68,1.85-3.13,1.23-.11-.05-.23-.1-.32-.18-5.03-4.13-12-5.04-16.57-9.94-1.01-1.08-2.15-2.02-3.17-3.1-.95-1.01-1.49-2.24-1.53-2.95Z"/>
      <path class="cls-4" d="M208.24,157.52c.05,2.38-1.99,3.74-4,2.7-2.22-1.15-3.9-2.9-5.12-5.1-.61-1.1-.55-2.07.37-3,.88-.89,1.84-1.17,2.98-.58,1.63.85,3.23,1.77,4.46,3.16.73.82,1.22,1.83,1.31,2.81Z"/>
      <path class="cls-1" d="M193.49,165.64c.4-1.58,1.65-1.32,2.65-1.02,2.59.77,5.01,2,7.05,3.78,1.68,1.47,1.37,2.36-.98,3.53-2.84-2.19-6.5-3.25-8.72-6.29Z"/>
      <path class="cls-1" d="M154.89,136.4c0-.99.4-1.75,1.47-1.56,2.51.45,4.94,1.18,6.65,3.28,1.19,1.46.98,2.63-.8,3.42-1.93-1.07-3.68-2.35-5.2-3.96-.57-.61-1.11-1.34-2.12-1.17Z"/>
      <path class="cls-4" d="M193.49,165.64c2.22,3.05,5.88,4.11,8.72,6.29-4.29,1.45-8.2-1.37-8.72-6.29Z"/>
      <path class="cls-5" d="M163.77,124.47c.22.64.44,1.27.66,1.91-.93-.02-1.86-.05-2.79-.07-2.35-.55-4.29-1.9-6.23-3.25-.52-.72-1.78-1-1.38-2.28.93-.31,1.61.17,2.18.77,1.05,1.11,2.36,1.45,3.82,1.46,1.08.92,2.58.76,3.74,1.46Z"/>
      <path class="cls-4" d="M154.89,136.4c1.02-.17,1.55.56,2.12,1.17,1.51,1.62,3.27,2.9,5.2,3.96-.08.63-.22,1.23-1.06,1.1-2.81-.43-5.52-3.14-6.26-6.23Z"/>
      <path class="cls-1" d="M190.27,154.26c.06.9-.55,1.16-1.38,1.24-1.78.17-3.19-.83-3.46-2.54-.12-.75-.07-1.54.93-1.68,1.29-.17,3.73,1.67,3.91,2.98Z"/>
      <path class="cls-1" d="M160.24,150.12c2.03-.33,3.17.4,3.39,2.32.04.34-.3.78-.71.64-1.42-.48-2.51-1.29-2.68-2.96Z"/>
      <path class="cls-1" d="M164.47,126.66c.25-.02.5-.05.75-.07-.2.51-.45.55-.75.07Z"/>
      <path class="cls-2" d="M174.87,180.87c-.77.67-1.47-.19-2.21-.11,0,0,.06.05.06.05-.32-.68-.88-1.13-1.51-1.49-.44-.8-1.36-1.37-1.15-2.79,2.3.8,3.6,2.53,4.82,4.33Z"/>
      <path class="cls-3" d="M154.9,162.97c.94.05,1.17.84,1.55,1.48-1.47.51-1.57-.42-1.55-1.48Z"/>
      <path class="cls-4" d="M171.2,179.32c.64.36,1.19.8,1.51,1.49-.94-.05-1.24-.75-1.51-1.49Z"/>
      <path class="cls-2" d="M158.57,165.97c-.61-.26-.79-.78-.86-1.38,0,0,.19-.16.19-.16.59.35.75.89.67,1.54h0Z"/>
      <path class="cls-2" d="M158.57,165.96c.11.05.31.12.3.15-.05.26-.16.2-.3-.15h0Z"/>
      <path class="cls-3" d="M109.55,159.36c-3.05-.26-6.05-1.1-9.15-.77-8.65.93-17.45.72-25.91,3.06-6.86,1.89-13.5,4.46-20.08,7.15-1.88.77-3.45.72-5.31.15-5.53-1.69-11.13-3.14-16.99-2.96-1.7.05-3.4.24-5.1.36.31-.37.55-.94.93-1.07,7.33-2.5,14.14-6.47,21.89-7.76,4.84-.81,9.63-1.75,14.54-2.24,5.89-.59,11.84.12,17.67-1.12,2.95-.63,5.89.38,8.81.72,4.75.55,9.49,1.38,14.18,2.35,1.58.33,3.49.43,4.52,2.14Z"/>
      <path class="cls-4" d="M145.79,123.88c1.13-.07,1.94.2,2.68.61,1.09.6,1.52,1.57,1.11,2.76-.41,1.21-1.5,1.13-2.44.97-.68-.12-1.39-.47-1.93-.91-.75-.61-2.48-.57-1.96-2.11.39-1.14,1.7-1.2,2.54-1.32Z"/>
      <path class="cls-2" d="M59.26,142.22c.91-1.13,2.2-.49,3.31-.69,1.35-.25,2.87.4,4.04-.77,1.62,0,2.85-1.48,4.51-1.25.54,1.02-.5,1.28-.78,1.87-2.85,1.45-5.88,1.92-9.05,1.7-.68-.29-1.36-.57-2.04-.86Z"/>
      <path class="cls-3" d="M125.23,200.15c-.81,1.01-1.95.66-2.98.73.74-1.28,1.91-.8,2.98-.73Z"/>
      <path class="cls-3" d="M164.68,235.76c1.03-7.43,2.63-14.66,7.17-20.89.95-1.3,1.88-2.58,3.42-3.21-.44,3.5-.36,7.01-.36,10.52,0,1.13-.1,2.22-1.2,2.88-3.42,2.03-5.02,5.55-7.11,8.67-.53.79-.76,1.85-1.92,2.03Z"/>
      <polygon class="cls-3" points="162.29 205.39 162.33 205.33 162.44 205.48 162.29 205.39"/>
      <path class="cls-3" d="M163.77,124.47c-1.16-.7-2.66-.54-3.74-1.46.6-5.56-.28-10.99-1.4-16.41,1.89,1.12,2.01,3.25,2.78,4.98,1.8,4.02,2.83,8.25,3.15,12.65-.27.08-.53.16-.8.24Z"/>
      <path class="cls-4" d="M308.45,128.85c1.91-.03,3.66-1.06,5.61-.85.93.1,1.94-.18,2.6.78-2.22,2.07-5.09,3-7.74,4.24-8.97,4.18-17.47,9.14-25.56,14.82-.8.56-1.65,1.09-2.54,1.5-1.07.49-2.21.56-3.06-.42-.84-.97-.6-2.05-.09-3.12.82-1.73,2.19-2.99,3.67-4.1,7.48-5.59,15.62-9.84,24.78-11.93.82-.19,1.76-.08,2.33-.92Z"/>
      <path class="cls-1" d="M279.43,176.34c-1.31.08-2.12-.13-2.57-1.03-.49-.99,0-1.63.82-2.14.1-.07.2-.15.3-.22,3.17-2.06,6.62-3.46,9.25-6.63,2.42-2.92,6.26-4.69,9.54-6.88,1.36-.91,3.07-2.72,4.49-1.05,1.28,1.51-.03,3.6-1.14,5.01-2.06,2.63-4.7,4.71-7.57,6.43-3.68,2.2-7.93,3.33-11.41,5.94-.55.41-1.37.47-1.71.58Z"/>
      <path class="cls-4" d="M268.81,151.81c2.92-.04,3.99,1.64,2.9,3.68-1.11,2.09-2.76,3.71-4.86,4.84-1.36.73-2.54.49-3.63-.63-1.1-1.13-.84-2.32-.02-3.29,1.7-2.02,3.58-3.9,5.62-4.6Z"/>
      <path class="cls-1" d="M268.44,171.18c-.88-.63-.94-1.48-.34-2.22,2.17-2.67,5.09-4.04,8.46-4.48.92-.12,1.26.55,1.39,1.35-2.69,2.63-5.95,4.26-9.51,5.35Z"/>
      <path class="cls-4" d="M268.44,171.18c3.56-1.09,6.82-2.72,9.51-5.35-.62,4.7-3.91,7.4-8.19,6.78-.88-.13-1.28-.59-1.32-1.43Z"/>
      <path class="cls-1" d="M308.69,141.83c-1.36-1.01-1.34-2.27-.43-3.48,1.56-2.06,3.68-3.1,6.31-2.88,1.28.11.62.99.54,1.61-2.08,1.66-4.11,3.4-6.43,4.74Z"/>
      <path class="cls-4" d="M308.69,141.83c2.32-1.34,4.35-3.08,6.43-4.74.65.06,1.47.38,1.05,1.04-1.49,2.34-3.66,3.89-6.38,4.55-.47.11-.84-.42-1.1-.85Z"/>
      <path class="cls-1" d="M285.8,152.01c-.01,1.1-2.87,3.52-3.91,3.31-.58-.12-.78-.55-.73-1.07.11-1.31,2.25-3.11,3.64-3.05.48.02.96.19,1.01.81Z"/>
      <path class="cls-1" d="M311.34,150.74c-.11.88-2.18,2.52-2.98,2.33-.38-.09-.59-.41-.59-.81.02-1.19,1.53-2.6,2.7-2.51.6.04.79.47.87.99Z"/>
      <path class="cls-5" d="M315.15,162.26c.54.77-.18,1.46-.14,2.2-1.03.25-1.4,1.6-2.83,1.63.33-1.92,1.58-2.93,2.98-3.83Z"/>
      <path class="cls-3" d="M297.07,181.37c1.02-1.41,2.46-2.32,3.93-3.19-.1,2.02-1.46,3.08-3.03,3.98-.3-.26-.6-.52-.9-.79Z"/>
      <path class="cls-4" d="M297.07,181.37c.3.26.6.52.9.79-.38.16-.76.32-1.14.48-.1-.14-.21-.28-.33-.41.02-.23.05-.46.08-.69.16-.07.33-.12.5-.16Z"/>
      <path class="cls-3" d="M443.66,166.36c-1.33.42-2.74.47-4.02.09-1.98-.59-3.84-.18-5.81-.04-4.2.28-8.23.78-12.26,2.27-3.07,1.13-6.36-.31-9.34-1.43-8.19-3.05-16.54-5.6-25.16-6.97-3.25-.52-6.55-1.25-9.9-.98-2.38.19-4.6-.72-6.96-.8-3.36-.11-6.6.59-9.91.77,2.01-2.19,4.92-2.48,7.47-2.72,9.79-.92,19.52-2.91,29.42-2.43,14.63.71,28.84,3.42,42.29,9.43,1.52.68,3.36,1.04,4.19,2.81Z"/>
      <path class="cls-4" d="M321.69,128.23c-1.28-1.6-.84-2.81.84-3.75,1.51-.03,3.01-.05,4.52-.08,1.09.26,1.46.87.69,1.79-.78.94-1.89,1.45-2.95,2.02-1.03,0-2.07.01-3.1.02Z"/>
      <path class="cls-3" d="M327.04,124.4c-1.51.03-3.01.05-4.52.08,1.49-1.05,2.99-1.06,4.52-.08Z"/>
      <path class="cls-3" d="M321.69,128.23c1.03,0,2.07-.01,3.1-.02-1.03,1.01-2.06.96-3.1.02Z"/>
      <path class="cls-2" d="M404.79,141.43c1.29.06,2.58.12,3.87.18.82.04,1.31.41,1.32,1.28-3.25,1.16-6.13-.25-9.07-1.28-.65-.51-1.34-1-1-2.24,1.75.41,3.3,1.25,4.87,2.05Z"/>
      <path class="cls-3" d="M346.96,186.05c.42.08.66.33.72.75-.24-.25-.48-.5-.72-.75Z"/>
      <path class="cls-3" d="M378.2,205.28c.37.01.81-.1,1.09.06,3.16,1.84,5.31,4.49,6.25,8.06-2.84-2.35-4.96-5.36-7.34-8.12Z"/>
      <path class="cls-3" d="M368.42,197.98c1.68-.24,2.9.17,3,2.14-1.38-.18-2.25-1.08-3-2.14Z"/>
      <path class="cls-3" d="M375.28,203c1.54,0,2.76.4,2.88,2.23-1.48-.07-2.3-.99-2.88-2.23Z"/>
      <path class="cls-3" d="M372.28,200.79c1.09-.02,2.13.03,2.15,1.52-1.05-.03-1.78-.53-2.15-1.52Z"/>
      <path class="cls-3" d="M385.6,213.47c1.42.06,1.49,1.04,1.42,2.1-1-.35-1.44-1.07-1.42-2.1Z"/>
      <path class="cls-3" d="M366.23,196.45c.42.02.67.25.81.63-.41-.04-.68-.24-.81-.63Z"/>
      <path class="cls-3" d="M371.45,200.14c.4.04.66.26.79.63-.41-.03-.67-.24-.79-.63Z"/>
      <path class="cls-3" d="M374.45,202.33c.39.05.64.27.77.64-.42-.02-.68-.23-.77-.64Z"/>
      <path class="cls-3" d="M295.98,211.01c2.3.82,3.37,2.91,4.25,4.82,2.25,4.9,4.25,9.92,5.61,15.17.35,1.35.51,2.64.25,3.99-2.53-.95-2.98-3.7-4.63-5.44-1.33-1.4-2.44-3.02-4.02-4.2-1.32-.99-1.88-2.41-1.5-3.88.78-3.04.72-6.01-.08-9.01-.12-.44.07-.96.11-1.45Z"/>
      <path class="cls-3" d="M314.87,240.69c.06,1.29.76,2.69-.66,3.72.05-1.27-.21-2.59.66-3.72Z"/>
      <path class="cls-1" d="M296.57,181.53c-.03.23-.05.46-.08.69-.25-.03-.5-.07-.74-.1.15-.37.42-.57.82-.59Z"/>
    </g>
  </g>
</svg>