<?xml version="1.0" encoding="UTF-8"?>
<svg id="Robot_Completo" data-name="Robot Completo" xmlns="http://www.w3.org/2000/svg" viewBox="0 0 431.88 432.95">
  <defs>
    <style>
      .cls-1 {
        fill: #284875;
      }

      .cls-1, .cls-2, .cls-3, .cls-4, .cls-5, .cls-6, .cls-7, .cls-8, .cls-9, .cls-10 {
        stroke-width: 0px;
      }

      .cls-2 {
        fill: #4a4945;
      }

      .cls-3 {
        fill: #8cbed6;
      }

      .cls-4 {
        fill: #e7ebf0;
      }

      .cls-5 {
        fill: #fdfdfc;
      }

      .cls-6 {
        fill: #899298;
      }

      .cls-7 {
        fill: #bfe3ee;
      }

      .cls-8 {
        fill: #b0b3b0;
      }

      .cls-9 {
        fill: #818484;
      }

      .cls-10 {
        fill: #44a9cd;
      }
    </style>
  </defs>
  <g id="Wings">
    <g id="W4">
      <path class="cls-4" d="M132.83,156.56c-.35-1.75,1.04-2.37,2.16-2.88,1.06-.48,1.88-1.2,2.68-1.94.92-.85.69-1.89-.49-2.42-1.3-.58-2.69-.78-4.14-.81-2.52-.05-5.02.05-7.57-.38-4.04-.68-7.08-2.97-9.82-5.56-3.45-3.26-6.87-6.56-10.21-9.94-2.64-2.67-4.74-5.78-7.33-8.38-3.13-3.14-5.93-6.56-8.91-9.81-2.34-2.55-4.99-3.4-8.16-3.83-1.77-.24-3.59-.72-5.14-1.77-1.88-1.27-4.16-1.63-6.22-2.17-4.36-1.15-7.96-3.37-11.38-6.09-2.29-1.82-4.47-3.8-7.03-5.29-1.29-.75-1.77-2.19-2.69-3.26-1.04-1.2-.51-2.28,1.07-2.58.79-.15,1.62-.12,2.4-.31.46-.11,1.02-.32,1.13-.9.14-.72-.43-1.1-.91-1.45-.31-.23-.73-.39-1.11-.42-1.43-.11-2.38-1.12-3.42-1.86-3.15-2.24-5.07-5.11-4.68-9.25.24-2.56-1.79-3.99-3.47-5.42-.97-.82-1.7-1.7-2.19-2.84-.24-.56-.55-1.14,0-1.67.41-.39.95-.33,1.44-.21,1.27.33,2.53.72,3.81,1.02.47.11,1.07.17,1.32-.41.27-.6-.21-.97-.65-1.2-3.55-1.83-6.59-4.31-9.43-7.1-3.6-3.52-6.4-7.5-7.91-12.32-.57-1.83-1.54-3.5-2.38-5.17-1.06-2.11-1.95-4.22-2.41-6.5-.21-1.02-.66-1.91-1.08-2.82-.85-1.86-1.44-3.79-1.39-5.85.03-1.26-.2-2.42-.84-3.5-2.07-3.47-1.56-7.01,0-10.42.53-1.16.93-2.23.81-3.45-.15-1.49.58-2.46,1.6-3.42C24.58-.02,29.56.2,34.69,1.71c3.78,1.11,7.55,2.28,11.25,3.63,4.43,1.63,8.81,3.49,13.25,4.98,3.91,1.32,7.65,3.05,11.58,4.31,4.42,1.42,8.76,3.09,13.06,4.85,1.45.6,3.02.12,4.4,1,2.55,1.63,5.45,2.55,8.19,3.8,3.29,1.5,6.83,2.36,10.15,3.72,4.76,1.94,9.93,2.78,14.48,5.11,2.69,1.38,5.49,1.82,8.24,2.72,4.39,1.43,8.75,2.98,12.84,5.18,1.25.67,2.51,1.24,3.92,1.58,2.16.52,4.34,1.14,6.25,2.34,2.62,1.65,5.72,1.87,8.52,3,3.36,1.36,6.48,3.41,10.18,3.94,1.53.22,2.06,1.85,3.32,2.55,5.78,3.21,10.23,7.8,13.8,13.33,3.72,5.76,7.28,11.59,10.56,17.64,2.38,4.38,5,8.72,7.81,12.91,1.78,2.65,3.04,5.67,4.27,8.64.38.93.83,1.83,1.28,2.7,2.42,4.67,3.71,9.72,3.38,14.87-.45,6.9.15,13.81-.39,20.67-.29,3.73-1.46,7.66-3.94,10.39-3.16,3.49-7.61,5.72-12.48,4.89-2.55-.44-5.21-.61-7.71-1.41-.95-.3-1.79.06-2.62.47-4.03,1.94-7.85,4.24-11.43,6.92-.91.68-1.84,1.24-2.84,1.74-.65.32-1.3.65-2,.18-.8-.54-.85-1.33-.66-2.17.13-.59.45-1.17.44-1.76-.02-1.99.5-4.04-.92-5.87-.37-.47-.19-1.37-.26-2.07.74.26.99.95,1.41,1.51,1.63,2.16,3.68,2.14,5.46.02.32-.39.61-.93,1.03-1.09,3.04-1.13,5.56-3.31,8.76-4.14,1.46-.38,2.78-.54,4.09.14,2.2,1.13,4.64,1.4,6.95,2.13.9.28,1.87.4,2.7.1,3.94-1.45,9.77-4.91,10.53-11.02.31-2.52.52-5.02.55-7.55.01-.91-.03-1.84.13-2.73.9-4.95.6-9.83-.46-14.74-.47-2.16-1.99-3.75-2.59-5.78-1.23-4.17-3.5-7.86-5.64-11.55-1.96-3.39-4.41-6.52-6.45-9.9-.46-.77-1.11-1.38-1.53-2.23-1.94-3.88-3.84-7.8-6.1-11.5-1.82-2.97-3.43-6.05-5.76-8.8-1.87-2.21-3.59-4.52-5.75-6.51-2.02-1.87-4.31-3.27-6.58-4.77-2.21-1.46-4.47-2.64-7.02-3.41-2.96-.9-6.04-1.57-8.73-3.23-2.05-1.27-3.98-2.67-6.62-2.52-.79.05-1.69-.54-2.52-.94-2.53-1.22-4.83-2.88-7.68-3.5-2.92-.64-5.68-1.95-8.51-2.92-4.65-1.6-9.3-3.26-13.95-4.9-6.66-2.35-13.28-4.8-19.8-7.54-6.21-2.61-12.67-4.62-18.86-7.32-1.18-.52-2.34-1.08-3.6-1.49-3.45-1.11-6.89-2.24-10.35-3.33-6.62-2.08-12.74-5.56-19.53-7.3-1.46-.37-2.67-.57-4.07-.15-.97.29-1.98.41-2.95.7-1.74.51-3.13,1.31-3.36,3.43-.11.97-.72,1.88-1.11,2.81-3.56-.39-3.85-.12-3.61,3.44.01.2.05.4.07.6-2.74,2.11-3.27,4.97-1.42,7.82,1.91,2.95,3.96,5.84,4.14,9.54.02.5.11,1,.22,1.49.79,3.63,2.53,6.67,5.47,9.01.95.75,1.74,1.65,2.47,2.65,2.99,4.11,6.81,7.04,11.78,8.52,6.49,1.93,6.99,2.89,7.21,8.66-.32.54-.63,1.09-.95,1.63-1.01-.03-2.11.18-3.02-.14-1.76-.62-3.66-.12-5.38-.88-.54-.24-1.24-.15-1.55.55-.26.6-.23,1.25.23,1.71.42.42.95.76,1.49,1.02,1.55.75,3.13,1.45,4.69,2.17,2.2,1.01,3.32,2.87,2.21,4.55-1.59,2.43-.5,3.99,1.1,5.58,1.22,1.21,2.38,2.46,3.82,3.47,1.46,1.03,1.18,2.19-.48,2.78-.28.1-.61.11-.87.25-.7.36-1.66.52-1.77,1.48-.11.96.71,1.43,1.39,1.82,2.01,1.16,4.13,2.14,6.07,3.39,2.86,1.84,5.97,2.9,9.24,3.73,2.9.73,6.04.86,8.5,2.93.29.24.75.36,1.14.38,2.78.16,5.19,1.7,7.9,2.12.56.09,1.32.44,1.54.89,1.01,2.1,3.18,2.75,4.83,4.02,1.91,1.47,2.15,1.32,2.5-1.39.16.02.32.04.48.07.48.73,1.14,1.27,1.88,1.7.01.2.01.4,0,.59-.28.11-.73.15-.81.34-.59,1.35-.69,2.84-.02,4.08.73,1.36,2.11.68,3.27.44.2-.04.4-.02.61-.03-1.64,2.25-.59,4.09.87,5.89.77.95,1.56,1.89,2.6,2.52.89.54,1.47,1.32,2.16,2.06,2.3,2.49,3.77,5.58,6.64,7.73,4.62,3.47,9.61,5.43,15.31,5.58,4.96.13,9.93.02,14.89.04.8,0,1.63.03,2.4.22.55.13,1.26.36,1.26,1.11,0,.54-.46.88-.98,1.01-1.31.34-1.64,1.37-1.78,2.52-2.56,1.8-5.36,3.17-8.07,4.71-3.24,1.84-6.62,3.42-9.58,5.73Z"/>
      <path class="cls-4" d="M311.49,163.84c2.16,1.98,4.7,3.32,7.3,4.61,1.26.63,2.41,1.5,3.55,2.33,2.56,1.88,2.4,2.66-.07,4.76-4.28,3.65-9.67,4.88-14.59,7.17-5.24,2.44-10.73,1.98-16.14,1.68-3.53-.19-6.71-2.22-9.82-3.9-2.57-1.39-5.02-2.96-7.86-3.82-2.02-.61-3.56-2.5-5.65-2.74-3.01-.35-5.29-2.09-7.52-3.68-2.54-1.82-5.13-3.6-7.65-5.47-2.01-1.49-4.3-2.58-6.15-4.32-2.47-2.34-5.35-1.57-7.93-.49-2.55,1.07-4.99,1.41-7.57.59-2.22-.71-4.4-1.52-6.56-2.39-.63-.25-1.25-.76-1.63-1.32-2.41-3.53-4.25-7.15-4.52-11.68-.32-5.36-.63-10.72-.44-16.08.17-4.84.79-9.65,2.98-14.11.53-1.07.81-2.27,1.14-3.44.75-2.67,2.53-4.79,3.79-7.19,1.33-2.55,2.98-4.94,4.14-7.56,1.29-2.89,3.24-5.36,4.87-8,2.23-3.61,3.83-7.53,6.15-11.09,2.2-3.37,4.68-6.55,6.73-9.99,3.18-5.36,8.32-8.62,12.91-12.48,2.31-1.95,5.33-2.36,8.01-3.5,5-2.14,10.27-3.67,15.16-6.1,1.66-.82,3.39-1.31,5.09-1.93,1.91-.69,3.91-1.2,5.52-2.48.98-.78,2.16-.43,3.19-.84,4.87-1.93,9.7-3.99,14.64-5.72,3.98-1.4,7.81-3.14,11.7-4.72,2.56-1.04,5.42-1.55,8.03-2.65,5.11-2.16,10.46-3.67,15.65-5.63,4.91-1.85,9.8-3.77,14.75-5.52,4.67-1.65,9.26-3.53,13.89-5.29,1.41-.54,2.85-1.01,4.28-1.51,2.47-.87,4.86-1.94,7.31-2.81,5.37-1.91,10.98-2.66,16.7-2.5,2.33.07,3.95,1.24,5.21,3.15,3.11,4.71,3.6,9.91,2.66,15.26-.4,2.26-1.19,4.49-1.93,6.67-1.97,5.78-3.61,11.75-6.72,17.02-2.01,3.41-3.68,7.24-7.21,9.59-.41.27-.79.69-.99,1.13-1.21,2.64-3.63,3.94-5.82,5.54-1.98,1.45-4.6,2.29-5.33,5.07-3.09,1.35-6.12,2.96-9.67,1.78-.26-.36-.51-.71-.77-1.07.04-1.05.37-1.93,1.15-2.72,3.82-3.85,8.26-6.77,13.13-9.1,1.18-.57,2.69-.85,3.38-1.98,1.79-2.93,4.29-5.44,5.48-8.72.94-2.58,2.29-4.95,3.4-7.44,1.51-3.4,3.6-6.58,4.3-10.3.45-2.37.64-4.79.99-7.18.38-2.54-.41-4.54-2.49-6.1-2.9-2.19-5.74-4.4-9.45-5.19-1.43-.31-2.66-.39-4.12-.03-4.06,1.01-7.62,3.3-11.65,4.36-4.69,1.23-9.29,2.82-13.66,4.88-7.18,3.39-14.86,5.35-22.21,8.29-6.04,2.41-12.14,4.82-18.64,6.21-4.22.91-8.55,2.56-12.28,5.14-.48.33-1.11.46-1.68.67-3.88,1.43-7.76,2.87-11.65,4.27-2.74.98-5.37,2.29-8.05,3.32-3.85,1.47-7.66,3.1-11.58,4.43-3.44,1.17-6.73,2.76-10.14,4.03-3.02,1.13-5.72,2.82-8.5,4.39-3.81,2.15-6.56,5.38-9.23,8.7-2.27,2.82-4.56,5.67-6.59,8.63-2.82,4.11-5.37,8.54-7.18,13.16-1.94,4.96-5.51,8.91-7.52,13.8-1.32,3.22-4.02,5.81-4.69,9.41-.09.46-.58.83-.76,1.3-1.38,3.44-2.8,6.74-2.92,10.66-.21,6.74,1.27,13.29,1.46,19.96.04,1.31.44,2.73,1.24,4,3.12,4.96,7.93,6.79,13.55,4.99.77-.25,1.63-.35,2.3-.76,2.76-1.71,5.35-1.12,8.02.27,4.63,2.41,4.65,2.36,6.6-2.45,1.27.06,2.05.98,2.96,1.68,0,.79,0,1.58,0,2.36.04,3.4.29,3.65,3.69,3.81,0,1.91-.02,3.81-.03,5.72,0,.81.03,1.59.42,2.34.54,1.03,1.21,1.2,2.18.54,1.26-.86,1.68-2.19,2.14-3.52.38-1.09.39-2.47,1.97-2.69.07,3.28.72,4.42,3.72,5.4,4.15,1.35,7.74,3.74,11.44,5.9,1.97,1.15,3.71,2.61,5.99,3.3,2.53.77,4.9,1.36,7.59.41,1.7-.6,3.44-1.14,5.11-1.81,2.05-.82,4.16-1.67,5.57-3.52,1.27-1.66,2.13-3.62,3.89-4.93.64-.48.69-1.43.59-2.27Z"/>
      <path class="cls-7" d="M32.73,16.46c.38-.94,1-1.85,1.11-2.81.23-2.12,1.62-2.92,3.36-3.43.97-.28,1.98-.41,2.95-.7,1.39-.42,2.61-.22,4.07.15,6.79,1.75,12.91,5.22,19.53,7.3,3.46,1.09,6.9,2.22,10.35,3.33,1.26.41,2.42.97,3.6,1.49,6.19,2.71,12.65,4.71,18.86,7.32,6.52,2.74,13.14,5.18,19.8,7.54,4.65,1.64,9.29,3.3,13.95,4.9,2.83.97,5.59,2.28,8.51,2.92,2.86.62,5.15,2.28,7.68,3.5.83.4,1.73.99,2.52.94,2.64-.15,4.58,1.25,6.62,2.52,2.68,1.66,5.76,2.33,8.73,3.23,2.55.77,4.81,1.95,7.02,3.41,2.27,1.5,4.56,2.9,6.58,4.77,2.16,1.99,3.88,4.3,5.75,6.51,2.32,2.75,3.94,5.83,5.76,8.8,2.26,3.7,4.17,7.61,6.1,11.5.42.85,1.07,1.46,1.53,2.23,2.04,3.37,4.48,6.5,6.45,9.9,2.14,3.69,4.42,7.38,5.64,11.55.6,2.03,2.12,3.61,2.59,5.78,1.06,4.91,1.36,9.79.46,14.74-.16.89-.12,1.82-.13,2.73-.03,2.53-.23,5.02-.55,7.55-.76,6.11-6.59,9.57-10.53,11.02-.83.31-1.81.18-2.7-.1-2.31-.73-4.75-1-6.95-2.13-1.31-.67-2.63-.52-4.09-.14-3.2.84-5.73,3.01-8.76,4.14-.42.16-.71.7-1.03,1.09-1.78,2.12-3.83,2.14-5.46-.02-.43-.56-.67-1.25-1.41-1.51-2.08-.56-3.14,1.47-4.82,1.9-.1-.57-.26-1.12-.94-1.25-.68-.13-.9-.59-.91-1.22,1.44-.22,1.85-1.16,1.73-2.47,1.02-.45,1.93-1.16,3.08-1.29.43.62.85.63,1.25-.03.61.01,1.22.03,1.83.04.02.22.04.44.07.66-.32.71-1.38,1.14-.95,2.34,2.09-.59,3.71-1.63,5.18-2.96.74-.67,2.19-.34,2.42-1.72,1.84-.03,3.13-1.3,4.56-2.15,2.47-1.47,5.26-2.5,7.17-4.81,2.7,1.68,4.76,4.08,7.13,6.14,3.56,3.1,7.46,2.03,8.48-2.53,1.64-7.34,2.78-14.76,2.53-22.33-.13-3.82-.95-7.39-2.94-10.73-8.45-14.23-16.81-28.5-25.22-42.75-2.3-3.9-5.62-6.59-9.86-8.23-12.67-4.89-25.33-9.79-37.94-14.81-2.54-1.01-4.82-1.4-7.12.32-2.82-1.05-5.65-2.09-8.47-3.14-.2-.03-.39-.05-.59-.08l-.27-.07c-11.94-4.48-23.89-8.95-35.83-13.43-9.39-3.52-18.77-7.04-28.16-10.56-1.9-.71-3.8-1.58-5.78-.2-.44,0-.87-.02-1.31-.02,0,0-.02-.02-.02-.02,0-.5,0-1-.01-1.5-.02-.61-.03-1.27-.8-1.4-.67-.11-1.14.3-1.41.88-.12.26-.12.58-.17.88-3.28-1.13-6.79-1.61-9.78-3.53Z"/>
      <path class="cls-7" d="M375.03,69.28c3.55,1.18,6.59-.43,9.67-1.78.62,0,1.24-.01,1.86-.02.23.18.45.41.7.55,1.98,1.06,2,1.15.58,2.73-1.17,1.3-2.56,2.26-4.14,3.04-1.85.92-2.06,1.56-1.65,3.66.26,1.31.58,2.65-.46,3.75-3.02,3.17-5.93,6.59-11.05,5.77-.2-.03-.41,0-.61,0-.73.03-1.49.07-1.61,1.01-.14,1.06.31,1.91,1.4,1.96,1.57.08,3.05.99,4.76.24,1.06-.47,2.29.04,2.77,1.24.42,1.04-.12,1.77-.95,2.6-2.99,2.96-7.05,4.4-10.09,7.27-.32.3-.98.19-1.45.37-3.18,1.27-6.59,1.71-9.86,2.64-4.91,1.39-9.42,3.62-13.96,5.92-2.39,1.21-4.38,2.76-5.71,4.8-1.12,1.72-2.33,3.25-3.73,4.69-2.11,2.18-4.28,4.24-5.89,6.92-1.54,2.57-3.66,4.79-6.22,6.57-1.28.89-2.67,1.8-3.64,3.16-3.35,4.67-8.6,6.08-13.69,7.07-4.07.79-8.39.21-12.56-.69-2.61-.56-5.52,1.4-6.07,3.92-1.22-.48-2.31-1.2-3.46-1.8-3.92-2.04-7.52-4.68-11.77-6.07-.67-1.19-1.81-1.6-3.07-1.81-5.23-3.83-11.29-6.33-16.97-10.05,5.01-.67,9.52-1.22,14-1.92,1.53-.24,2.62.27,3.41,1.41.92,1.32,1.71,2.75,2.5,4.17,1.42,2.56,3.49,4.16,6.47,4.43,2.82.26,5.64.49,8.47.74,3.83.34,7.66.6,11.48,1.05,6.85.81,13.18.12,18.07-5.49,3.33-3.81,6.76-7.54,10.05-11.39.74-.87,1.85-1.66,1.75-3.07h-.01c.21,0,.43.01.64.01,1.61-1.84,3.22-3.67,4.83-5.51,2.78-2.36,4.95-5.31,7.5-7.9,1.55-1.58,3.23-2.59,5.39-3.11,5.1-1.22,10.21-2.46,15.21-4,3.56-1.1,6.35-3.4,7.92-6.93v.03c.73-.29.98-.98,1.34-1.58,3.12-5.12,4.91-10.85,7.49-16.23.37-.76.26-1.59.35-2.38Z"/>
      <path class="cls-7" d="M164.46,159.49c.07,1.66.9,3.23.66,4.93.04,1.57-.15,3.11-1.56,4.06-2.59,1.75-5.13,3.61-8.19,4.54-1.65.5-3.16,1.23-4.64,2.16-4.12,2.59-8.38,4.7-13.57,3.9-2.91-.45-5.45-2.17-8.44-2.16-.08,0-.18-.09-.25-.17-2.63-2.88-6.74-3.61-9.41-6.56-.99-1.09-1.61-1.93-1.5-3.32,4.92-3.28,9.87-6.5,15.13-9.21.58.99,1.31,1.69,2.5,2.03,4.27,1.21,8.47,2.67,12.77,3.77,3.81.97,7.6.75,11.16-1.22,1.76-.97,3.58-1.83,5.37-2.74Z"/>
      <path class="cls-4" d="M283.44,146.67c.55-2.52,3.46-4.48,6.07-3.92,4.16.9,8.49,1.47,12.56.69,5.09-.99,10.35-2.4,13.69-7.07.97-1.35,2.36-2.27,3.64-3.16,2.57-1.78,4.68-4,6.22-6.57,1.61-2.68,3.78-4.74,5.89-6.92,1.4-1.45,2.62-2.98,3.73-4.69,1.33-2.04,3.32-3.6,5.71-4.8,4.54-2.29,9.05-4.53,13.96-5.92,3.27-.93,6.68-1.37,9.86-2.64.46-.18,1.13-.07,1.45-.37,3.04-2.87,7.1-4.31,10.09-7.27.83-.83,1.36-1.56.95-2.6-.48-1.2-1.72-1.7-2.77-1.24-1.71.75-3.19-.16-4.76-.24-1.09-.05-1.54-.9-1.4-1.96.13-.94.88-.98,1.61-1.01.2,0,.41-.04.61,0,5.12.82,8.03-2.6,11.05-5.77,1.04-1.1.72-2.44.46-3.75-.41-2.1-.21-2.74,1.65-3.66,1.58-.78,2.97-1.74,4.14-3.04,1.42-1.58,1.41-1.67-.58-2.73-.26-.14-.47-.36-.7-.55,1.77-1.27,3.93-.38,5.85-1.02.8-.27,1.03.97.73,1.58-.57,1.16-1.12,2.37-2.32,3.11-2.06,1.26-3.02,3.04-3.1,5.54-.08,2.79-.83,5.18-4.01,6.45-1.66.67-3.4,1.7-4.92,2.88-.97.75-1.6,1.42-.63,2.75.64.88,1.12,1.81,2,2.57,1.26,1.08,1.14,1.69-.19,2.58-2.27,1.53-4.33,3.31-6.41,5.07-2.15,1.82-4.73,3.11-7.33,4.17-3.68,1.51-7.68,2.19-11.4,3.49-4.98,1.74-10.17,3.3-14.13,7.29-2.71,2.74-5.07,5.73-7.41,8.75-.43.56-.94,1.07-1.42,1.58-3.6,3.81-7.18,7.64-10.83,11.4-3.02,3.11-6.34,5.89-9.85,8.43-.96.69-2.07,1.3-3.34,1.41-1.62.14-3.15.7-4.72,1.08-1.64.4-3.29.92-5.02.18-2.66-1.13-5.1.73-7.7.67-.29,0-.59.28-.55.6.03.27.22.69.42.74,1.44.37,2.41,1.44,3.56,2.26.48.34.56.81.52,1.33-3.83-1.53-7.25-3.83-10.9-5.71Z"/>
      <path class="cls-7" d="M311.49,163.84c.1.84.05,1.79-.59,2.27-1.76,1.31-2.62,3.27-3.89,4.93-1.41,1.85-3.52,2.7-5.57,3.52-1.67.67-3.41,1.21-5.11,1.81-2.68.95-5.05.36-7.59-.41-2.27-.69-4.01-2.15-5.99-3.3-3.7-2.16-7.29-4.55-11.44-5.9-3.01-.98-3.65-2.11-3.72-5.4.7-.44.57-1.15.59-1.81,2.28.32,4.03,1.83,6.03,2.77,3.61,1.71,7.26,2.31,11.18,1.2,3.9-1.1,7.73-2.4,11.58-3.66,1.44-.47,3.02-.57,3.72-2.22.36.01.72.02,1.08.03,1.92,2.1,4.7,2.85,6.95,4.43.89.62,1.84,1.16,2.76,1.74Z"/>
      <path class="cls-4" d="M117.54,166.87c-.1,1.39.52,2.23,1.5,3.32,2.67,2.96,6.78,3.68,9.41,6.56.07.07.16.17.25.17,2.99,0,5.53,1.71,8.44,2.16,5.19.8,9.45-1.31,13.57-3.9,1.48-.93,3-1.66,4.64-2.16,3.06-.93,5.6-2.79,8.19-4.54,1.41-.95,1.6-2.49,1.56-4.06.69.07,1.08.41,1.19,1.13.22,1.49.32,3.04.81,4.45.54,1.58-.22,2.3-1.36,2.91-1.78.94-3.52,2.08-5.43,2.64-2.84.84-5.24,2.53-7.89,3.7-2.45,1.08-4.89,2.3-7.35,3.43-1.77.82-3.67,1.11-5.5,1.71-.38.12-.83.2-1.2.11-4.39-.99-9.13-.03-13.27-2.52-1.43-.86-3.15-1.34-4.71-1.91-3.42-1.26-5.51-4.06-8.18-6.14-2.16-1.69-1.88-2.45.43-4.06,1.58-1.1,3.07-2.32,4.89-3Z"/>
      <path class="cls-3" d="M163.94,155.93c0,.62.22,1.08.91,1.22.68.13.83.68.94,1.25-.24.15-.48.31-.72.46-.91-.96-1.85-.46-2.77-.02-1.37.66-2.73,1.33-4.08,2.03-3.08,1.58-6.22,2.24-9.65,1.14-4.04-1.29-8.13-2.42-12.2-3.61-.58-.17-1.2-.26-1.42-1.04.15-.2.28-.52.52-.65,4.83-2.75,9.68-5.47,14.51-8.21,4.31-2.44,8.61-4.89,12.88-7.4.58-.34,1.61-.63,1.02-1.75.9-1.33,2.43-1.64,3.74-2.3.28.61.69,1.01,1.4.66,1.17-.58,2.33-1.17,3.47-1.8,4.47-2.47,8.92-4.96,13.39-7.44.01.6.03,1.19.04,1.79-.57.19-1.2.3-1.7.6-3.66,2.16-7.49,4.03-11.11,6.22-4.22,2.55-8.54,4.85-12.92,7.1-6.46,3.33-12.52,7.42-19.05,10.67-1.13.56-2.58,1.1-3.1,2.6,3.34,1.07,6.47,2.25,9.69,3.04,2.4.59,4.87,1.46,7.41.26,3.01-1.43,6.15-2.61,8.67-4.9l.13.08Z"/>
      <path class="cls-10" d="M300.69,157.64c-.7,1.66-2.28,1.75-3.72,2.22-3.85,1.27-7.68,2.56-11.58,3.66-3.92,1.11-7.57.51-11.18-1.2-2-.94-3.74-2.45-6.03-2.77l.05-.08c.29-1.57,1.36-1.29,2.31-.86,1.84.84,3.63,1.8,5.45,2.7,2.04,1.01,4.23,1.75,6.45,1.19,4.99-1.27,9.93-2.75,14.86-4.22,1.33-.4,1.42-1.07.38-1.86-.64-.48-1.4-.81-2.1-1.2-4.93-2.76-9.81-5.62-14.82-8.25-2.85-1.49-5.54-3.39-8.79-4.01-.25-1.24-1.43-1.55-2.26-2.16-.74-.54-1.48-.96-1.49-2,4.25,1.39,7.85,4.03,11.77,6.07,1.15.6,2.24,1.32,3.46,1.8,3.65,1.87,7.07,4.18,10.9,5.71.24.15.49.29.73.44.07.31.26.46.58.44.51.4,1.03.78,1.71.85.16.31.42.46.76.47,0,0,.06.03.06.03,0,1.25.87,1.24,1.75,1.24,0,0,.01.02.01.02-.12.74.37,1.23.74,1.77Z"/>
      <path class="cls-10" d="M163.88,139.35c.59,1.12-.45,1.41-1.02,1.75-4.27,2.5-8.58,4.95-12.88,7.4-4.83,2.74-9.68,5.46-14.51,8.21-.23.13-.36.45-.52.65.22.77.84.87,1.42,1.04,4.07,1.19,8.16,2.33,12.2,3.61,3.43,1.09,6.57.44,9.65-1.14,1.35-.69,2.71-1.37,4.08-2.03.92-.44,1.86-.93,2.77.02,0,0,.06.18.06.18-.33,0-.52.17-.58.49,0,0-.07-.04-.07-.04-1.79.91-3.61,1.77-5.37,2.74-3.56,1.97-7.35,2.2-11.16,1.22-4.3-1.1-8.5-2.56-12.77-3.77-1.19-.34-1.92-1.04-2.5-2.03.05-.36.11-.73.16-1.09,2.95-2.31,6.34-3.9,9.58-5.73,2.71-1.54,5.51-2.91,8.07-4.71,2.45-.96,4.66-2.37,6.96-3.63,2.1-1.15,4.02-2.67,6.45-3.15Z"/>
      <path class="cls-4" d="M300.69,157.64c-.37-.54-.86-1.03-.74-1.77,1.14.07,1.74.67,1.82,1.81-.36-.01-.72-.02-1.08-.03Z"/>
      <path class="cls-4" d="M299.94,155.85c-.88,0-1.76,0-1.75-1.24.86.03,1.7.07,1.75,1.24Z"/>
      <path class="cls-4" d="M295.66,153.26c-.32.03-.51-.13-.58-.44.19.15.39.29.58.44Z"/>
      <path class="cls-4" d="M298.13,154.58c-.35-.01-.6-.17-.76-.47.25.16.51.32.76.47Z"/>
      <path class="cls-4" d="M164.53,159.52c.07-.32.26-.49.58-.49-.2.16-.39.33-.58.49Z"/>
      <path class="cls-10" d="M32.73,16.46c2.99,1.92,6.5,2.41,9.78,3.53.63.72,1.45,1.07,2.4,1.14,0,0,.02.02.02.02-1.71,1.4-3.28.11-4.83-.35-2.51-.75-4.73-2.31-7.35-2.8-2.31-.44-2.72-.02-1.97,2.29,1.18,3.66,2.31,7.34,3.66,10.93,2.17,5.78,4.34,11.57,7.99,16.66,1.52,2.12,3.34,3.78,5.79,4.73,9.15,3.57,18.29,7.15,27.44,10.73,9.34,3.65,18.67,7.3,28.01,10.96,1.76.69,2.96,1.81,3.71,3.71,1.68,4.25,2.97,8.62,4.47,12.92.57,1.65,1.37,2.89,3.14,3.36,7.35,1.96,14.4,4.8,21.63,7.14,13.3,4.3,26.48,8.92,39.73,13.38,1.33.45,2.64,1.13,4.13.76l-.05-.02c.23.65.42,1.42,1.27.49,1.5,1.27,3.17,2.41,3.53,4.56-1.39-.25-2.78-.45-4.15-.77-3.31-.77-6.78-.89-9.92-2.37,1.2-1.22.79-2.15-.6-2.74-1.09-.46-2.28-.65-3.41-1.07-3.73-1.39-7.32-3.18-11.25-4.02-.49-.32-.97-.66-1.61-.56-3.32-1.22-6.79-1.97-10.08-3.3-1.86-.75-3.84-1.2-5.76-1.78-.36-.42-.84-.53-1.36-.52-.14-.14-.25-.36-.42-.42-7.14-2.44-14.23-5.05-21.57-6.87v-.04c-.09-.32-.29-.5-.63-.53-.38-.02-.75-.05-1.13-.07-1.66-1.56-2.72-3.46-3.23-5.69-.2-.88-.69-1.7-.87-2.58-.36-1.8-1.3-2.77-3.19-3.06-2.08-.32-4.11-.97-6.17-1.47-4.04-.99-8.09-1.98-12.13-2.98-7.6-2.15-15.25-4.09-23.45-6.21,2.03,4.93,3.7,9.26,6.01,13.3,1.98,3.47,5.11,5.38,8.96,6.13,3.67.72,7.27,1.7,10.83,2.83,1,.32,1.99.29,3,.35,2.81,1.08,4.96,3.02,6.91,5.23,1.53,1.74,3.12,3.45,4.69,5.15,2.26,2.43,3.98,5.37,6.76,7.33,3.62,4.06,7.25,8.12,10.87,12.18.43.42.86.84,1.29,1.26,1.15,1.42,2.55,2.56,3.92,3.75,1.52,1.31,3.08,1.72,4.98,1.64,4.03-.18,8.03-.91,12.09-.69.34.02.71-.32,1.06-.5,4.32-.12,8.59-.63,12.86-1.21,1.25-.17,2.01-.63,2.61-1.69.89-1.57,1.87-3.09,2.86-4.61.96-1.49,2.23-2.85,4.05-2.84,2.54.02,4.98-.71,7.49-.68.59.03,1.18.06,1.77.09-.07.35-.45.77.04,1.01.48.24.94.05,1.23-.45,2.36-.16,4.45,1.23,6.79,1.17.04.41.09.82.13,1.23-2.42-.08-4.83-.14-7.26-.44-2.59-.32-5.18-.83-7.83-.85-2.54-.01-4.27.92-5.46,3.08-.69,1.24-1.49,2.41-2.17,3.66-1.08,1.98-2.85,3.03-4.95,3.01-3.06-.04-6.09.4-9.06.83-3.72.53-7.46.23-11.17.94-6.81,1.3-12.13-1.19-16.48-6.61-3.28-4.09-7.14-7.72-10.74-11.55-.21-.03-.41-.06-.62-.08-.19-.21-.38-.42-.57-.63,0-.75-.29-1.31-.86-1.85-1.02-.96-1.93-2.05-2.89-3.08-.12-1.13-1.05-1.69-1.74-2.41-1.75-1.83-3.75-3.48-5.24-5.51-1.62-2.19-3.66-3.41-6.18-4.06-4.31-1.11-8.6-2.3-12.94-3.3-5.53-1.28-9.45-4.44-11.79-9.59-1.13-2.49-2.42-4.93-3.34-7.49-.66-1.82-1.97-3.5-1.8-5.89,5.29.81,10.14,2.6,15.13,3.74,5.03,1.15,9.95,2.69,15.01,3.77,4.93,1.05,9.66,3.01,15.1,3.52-.79-1.56-1.97-1.52-2.85-1.74-7.05-1.81-14.13-3.49-21.19-5.27-6.57-1.66-13.1-3.47-19.69-5.07-1.07-.26-2.44-1.41-3.38-.27-.74.9.23,2.12.63,3.11,1.54,3.85,3.14,7.69,4.81,11.49,2.33,5.32,6.2,8.95,11.91,10.44,4.11,1.07,8.22,2.13,12.34,3.16,1.79.44,3.74.8,5.03,2.04,2.54,2.45,4.79,5.2,7.12,7.86.5.57.67,1.28-.13,1.83-.16-.02-.32-.04-.48-.07-1.55-1.86-3.14-3.69-4.64-5.59-1.91-2.41-4.32-3.75-7.36-4.4-4.54-.98-9.01-2.3-13.5-3.54-4.32-1.2-7.6-3.83-9.76-7.7-3.42-6.11-5.99-12.61-8.33-19.19.32-.54.63-1.09.94-1.63,2.79-.11,5.35.92,7.99,1.61,11.56,3.02,23.19,5.76,34.68,9.08,1.37.39,2.82,1.24,4.47.51-.32-1.65-1.16-2.69-2.76-3.32-8.08-3.18-16.12-6.5-24.21-9.67-10.2-3.99-20.42-7.94-30.66-11.81-3.8-1.44-6.62-3.85-8.53-7.4-2.56-4.74-4.92-9.56-6.65-14.68-1.36-4.02-2.78-8.02-4.18-12.02-.02-.2-.06-.4-.07-.6-.24-3.56.05-3.83,3.61-3.44Z"/>
      <path class="cls-7" d="M163.88,139.35c-2.43.48-4.35,2-6.45,3.15-2.29,1.26-4.51,2.67-6.96,3.63.14-1.16.47-2.18,1.78-2.52.52-.14.98-.47.98-1.01,0-.75-.71-.98-1.26-1.11-.77-.18-1.6-.22-2.4-.22-4.96-.02-9.93.09-14.89-.04-5.7-.14-10.69-2.11-15.31-5.58-2.87-2.15-4.34-5.24-6.64-7.73-.69-.74-1.27-1.52-2.16-2.06-1.05-.63-1.83-1.58-2.6-2.52-1.46-1.8-2.5-3.64-.86-5.89.21-.19.43-.39.64-.58.19,0,.38.01.58.03,4.32,5.51,8.98,10.72,13.81,15.78.48.51,1.09.9,1.65,1.34,4.08,3.19,8.83,3.39,13.64,2.86,7.44-.83,14.93-1.22,22.35-2.22,1.64-.22,2.85-.81,3.95-1.95,1.37-1.43,2.12-3.22,2.97-4.94.87-1.75,2.1-2.51,4.11-2.45,2.95.1,5.85.61,8.74,1,1.73.24,3.54.03,5.33.5-.21.41-.26.66-.39.73-5.08,2.75-10.15,5.53-15.28,8.18-.69.35-1.05.88-1.57,1.32-1.31.66-2.84.97-3.74,2.29Z"/>
      <path class="cls-7" d="M29.19,20.5c1.39,4.01,2.81,8,4.18,12.02,1.73,5.11,4.09,9.94,6.65,14.68,1.91,3.55,4.74,5.96,8.53,7.4,10.24,3.87,20.46,7.82,30.66,11.81,8.09,3.17,16.12,6.49,24.21,9.67,1.6.63,2.44,1.67,2.76,3.32-1.64.73-3.1-.11-4.47-.51-11.49-3.31-23.12-6.06-34.68-9.08-2.64-.69-5.2-1.72-7.99-1.61-.22-5.77-.72-6.73-7.21-8.66-4.97-1.48-8.79-4.41-11.78-8.52-.73-1-1.52-1.9-2.47-2.65-2.95-2.33-4.68-5.38-5.47-9.01-.11-.49-.19-.99-.22-1.49-.18-3.7-2.23-6.59-4.14-9.54-1.84-2.86-1.32-5.72,1.42-7.82Z"/>
      <path class="cls-7" d="M58.1,69.82c2.34,6.59,4.91,13.08,8.33,19.19,2.16,3.87,5.45,6.5,9.76,7.7,4.48,1.24,8.95,2.57,13.5,3.54,3.04.65,5.45,1.99,7.36,4.4,1.51,1.9,3.09,3.73,4.64,5.59-.35,2.71-.58,2.86-2.5,1.39-1.66-1.27-3.82-1.92-4.83-4.02-.22-.45-.98-.8-1.54-.89-2.71-.42-5.12-1.95-7.9-2.12-.39-.02-.85-.14-1.14-.38-2.46-2.07-5.6-2.2-8.5-2.93-3.27-.82-6.38-1.88-9.24-3.73-1.94-1.25-4.06-2.23-6.07-3.39-.68-.4-1.5-.86-1.39-1.82.11-.96,1.07-1.12,1.77-1.48.26-.14.59-.15.87-.25,1.66-.6,1.94-1.76.48-2.78-1.44-1.01-2.6-2.27-3.82-3.47-1.6-1.58-2.69-3.15-1.1-5.58,1.1-1.68-.01-3.54-2.21-4.55-1.57-.72-3.14-1.42-4.69-2.17-.54-.26-1.07-.6-1.49-1.02-.46-.46-.49-1.11-.23-1.71.31-.7,1.01-.79,1.55-.55,1.72.76,3.62.26,5.38.88.91.32,2,.11,3.02.14Z"/>
      <path class="cls-3" d="M102.17,110.32c.8-.56.63-1.27.13-1.83-2.33-2.66-4.58-5.41-7.12-7.86-1.29-1.24-3.24-1.59-5.03-2.04-4.12-1.02-8.23-2.09-12.34-3.16-5.71-1.49-9.58-5.12-11.91-10.44-1.67-3.8-3.27-7.63-4.81-11.49-.39-.99-1.36-2.21-.63-3.11.94-1.14,2.31,0,3.38.27,6.59,1.59,13.12,3.4,19.69,5.07,7.06,1.79,14.14,3.46,21.19,5.27.88.23,2.06.18,2.85,1.74-5.44-.52-10.17-2.48-15.1-3.52-5.06-1.08-9.98-2.62-15.01-3.77-4.99-1.14-9.84-2.93-15.13-3.74-.17,2.39,1.15,4.06,1.8,5.89.92,2.57,2.21,5,3.34,7.49,2.34,5.15,6.25,8.31,11.79,9.59,4.34,1,8.63,2.18,12.94,3.3,2.52.65,4.56,1.87,6.18,4.06,1.49,2.02,3.49,3.67,5.24,5.51.69.72,1.62,1.28,1.74,2.41-.83.44-.47,1.63-1.31,2.05-.75-.44-1.4-.97-1.88-1.7Z"/>
      <path class="cls-5" d="M107.74,116.86c-.21.19-.43.39-.64.58-.2,0-.41-.01-.61.03-1.16.24-2.54.91-3.27-.44-.67-1.24-.57-2.73.02-4.08.08-.19.53-.23.81-.34.82.6,1.64,1.21,2.46,1.81-.05,1.05.92,1.58,1.22,2.44Z"/>
      <path class="cls-7" d="M106.52,114.42c-.82-.6-1.64-1.21-2.46-1.81.01-.2.01-.4,0-.59.84-.43.49-1.62,1.31-2.05.96,1.03,1.87,2.12,2.89,3.08.57.54.86,1.1.86,1.85,0,0-.15.14-.15.14-.77-.41-1.56-.7-2.45-.62Z"/>
      <path class="cls-7" d="M254.27,151.13c-1.95,4.81-1.98,4.86-6.6,2.45-2.67-1.39-5.25-1.98-8.02-.27-.67.41-1.53.52-2.3.76-5.61,1.8-10.43-.03-13.55-4.99-.8-1.27-1.2-2.69-1.24-4-.18-6.67-1.66-13.23-1.46-19.96.12-3.92,1.54-7.23,2.92-10.66.19-.46.68-.83.76-1.3.67-3.61,3.38-6.2,4.69-9.41,2-4.9,5.57-8.84,7.52-13.8,1.81-4.63,4.37-9.05,7.18-13.16,2.03-2.96,4.32-5.81,6.59-8.63,2.67-3.32,5.41-6.55,9.23-8.7,2.78-1.57,5.48-3.26,8.5-4.39,3.41-1.27,6.7-2.87,10.14-4.03,3.92-1.33,7.72-2.96,11.58-4.43,2.69-1.03,5.31-2.34,8.05-3.32,3.89-1.4,7.77-2.84,11.65-4.27.57-.21,1.19-.34,1.68-.67,3.73-2.58,8.06-4.24,12.28-5.14,6.5-1.39,12.6-3.81,18.64-6.21,7.35-2.93,15.03-4.9,22.21-8.29,4.37-2.06,8.97-3.66,13.66-4.88,4.04-1.05,7.59-3.35,11.65-4.36,1.45-.36,2.69-.28,4.12.03,3.71.79,6.54,3,9.45,5.19,2.08,1.56,2.86,3.56,2.49,6.1-.35,2.39-.55,4.81-.99,7.18-.7,3.72-2.79,6.9-4.3,10.3-1.11,2.49-2.46,4.86-3.4,7.44-1.19,3.28-3.69,5.78-5.48,8.72-.69,1.13-2.19,1.41-3.38,1.98-4.86,2.33-9.31,5.26-13.13,9.1-.78.79-1.11,1.67-1.15,2.72-.92-.12-1.8.06-2.7.29-7.96,2.01-15.93,3.94-23.89,5.95-5.01,1.26-9.98,2.68-15,3.9-1.77.43-3.38,1.78-5.58.96.62-1.71,1.7-2.76,3.46-3.43,6.63-2.53,13.21-5.21,19.82-7.81,11.52-4.54,23.03-9.08,34.57-13.57,3.34-1.3,6.04-3.31,7.83-6.45,1.05-1.85,2.08-3.71,3.04-5.6,3.5-6.92,5.57-14.37,7.99-21.69.19-.57.37-1.17.43-1.77.22-2.3-.88-3.2-3.13-2.59-.49.13-.92.44-1.41.57-4.29,1.23-8.29,3.3-12.64,4.35-1.52-.96-3.01-.74-4.63-.13-10.99,4.14-22.01,8.21-33.02,12.3-.96.31-1.92.58-2.86.93-12.89,4.75-25.79,9.51-38.68,14.27-1.91-1.69-3.91-1.59-6.21-.68-12.51,4.94-25.05,9.8-37.59,14.64-4.68,1.81-8.6,4.51-11.19,8.9-8.09,13.7-16.17,27.4-24.25,41.11-1.98,3.36-3.38,6.91-3.58,10.86-.25,4.88.01,9.74.72,14.56.52,3.5.96,7.04,2.09,10.42,1.11,3.3,4.68,4.08,7.26,1.75,2.26-2.03,4.57-4.01,6.85-6,.96-.07,1.7.39,2.49.87,3.01,1.81,6.06,3.54,9.1,5.29.23.23.47.47.7.7Z"/>
      <path class="cls-10" d="M387.05,21.32c4.35-1.05,8.35-3.13,12.64-4.35.48-.14.92-.44,1.41-.57,2.25-.61,3.35.29,3.13,2.59-.06.6-.24,1.19-.43,1.77-2.41,7.32-4.48,14.77-7.99,21.69-.96,1.9-1.99,3.76-3.04,5.6-1.79,3.13-4.49,5.14-7.83,6.45-11.54,4.49-23.05,9.04-34.57,13.57-6.61,2.6-13.18,5.28-19.82,7.81-1.76.67-2.84,1.72-3.46,3.43,2.2.83,3.81-.53,5.58-.96,5.02-1.22,9.99-2.63,15-3.9,7.96-2.01,15.93-3.95,23.89-5.95.9-.23,1.78-.41,2.7-.29.25.36.51.72.76,1.07-.09.8.01,1.62-.35,2.38-2.57,5.37-4.37,11.1-7.49,16.23-.37.6-.61,1.29-1.33,1.58-.08-.61-.05-1.21.21-1.79,1.14-2.49,2.31-4.96,3.41-7.47,1.18-2.69,2.35-5.39,3.41-8.12.63-1.62,0-2.34-1.69-2.14-.4.05-.78.2-1.17.31-14.2,3.66-28.3,7.72-42.68,10.66-.54.11-1.04.29-1.06.88-.02.82.64.92,1.28.91,1.66-.03,3.12-.83,4.69-1.23,11.56-2.96,23.1-6.02,34.68-8.94,1.37-.35,2.75-1.12,4.57-.81-2.52,5.34-4.8,10.52-7.38,15.54-1.78,3.46-4.67,5.71-8.62,6.59-4.83,1.08-9.62,2.35-14.41,3.6-1.46.38-3.05.66-4.16,1.76-1.87,1.85-3.82,3.6-5.45,5.71-1.25,1.62-2.38,3.59-4.73,3.99,3.66-5.13,7.35-10.21,13.43-12.8.51,0,1.04.08,1.51-.04,4.49-1.13,8.97-2.32,13.47-3.44,3.34-.83,5.66-2.98,7.61-5.66,2.22-3.07,3.29-6.69,4.85-10.08.42-.92,1.17-1.85.95-3.2-7.84,1.85-15.44,3.78-22.94,6.06-4.33.59-8.46,1.98-12.66,3.08-.48.14-.97.29-1.45.41-2.04.52-4.46.54-6.02,1.7-1.6,1.19-1.51,3.83-2.31,5.77-.15.37-.25.76-.4,1.14-.62,1.65-1.54,3.02-3.35,3.55-.39.25-.79.49-1.19.74-.4.02-.84-.04-1.21.08-7.38,2.48-14.83,4.78-22.04,7.74-.86.24-1.74.46-2.58.74-4.81,1.6-9.62,3.22-14.42,4.83-.21.2-.42.4-.63.6-.2,0-.41-.01-.61.03-5.67,1.19-10.9,3.69-16.37,5.47-1.16.38-1.38,1.37-1.28,2.47-3.48.76-6.89,1.98-10.55,1.64.66-1.93,2.26-3.05,3.72-4.28.34.74.87.64,1.51.42,3.16-1.05,6.36-2.03,9.52-3.07,10.29-3.39,20.49-7.05,30.75-10.55,7.86-2.68,15.75-5.28,23.63-7.89,1.47-.49,3.09-.93,3.47-2.62.78-3.49,2.77-6.56,3.55-10,.99-4.32,3.21-6.81,7.59-8.35,9.64-3.4,18.97-7.65,28.54-11.25,7.59-2.85,14.97-6.22,22.61-8.91,4.51-1.59,7.31-4.67,9.51-8.78,3.68-6.83,5.98-14.18,8.64-21.4.59-1.61,1.37-3.33,1.25-5.33-1.31-.04-2.28.5-3.31.83-3.95,1.27-7.74,2.98-11.79,3.94-.17-.21-.35-.42-.52-.62-.11-.17-.17-.36-.17-.56Z"/>
      <path class="cls-3" d="M254.27,151.13c-.23-.23-.47-.47-.7-.7,1.66-.39,1.14-1.17.19-1.72-2.34-1.37-4.74-2.63-7.13-3.92-1.15-.62-2.39-1.12-2.91-2.47.19-.17.39-.33.58-.5,3.85,1.53,6.94,4.67,11.25,5.28-.72-.88-1.55-1.59-2.51-2.04-.73-.35-1.54-.5-1.94-1.32,2.12-.1,4.21-.54,6.3-.82,2.24-.3,4.64-.39,6.67-1.71,1.45-.33.97-1.14.25-1.63-1.41-.97-2.92-1.77-4.41-2.62-4.11-2.34-8.06-4.97-12.48-6.73,0-.39,0-.79,0-1.18.98-.13,1.71.34,2.53.81,4.04,2.32,8.12,4.58,12.23,6.78.87.47,1.83,1.58,2.97.36,1.25.21,2.39.61,3.07,1.81,0,1.04.75,1.46,1.49,2,.83.61,2.01.92,2.26,2.16,0,0-.16.19-.16.19-1.47-.12-2.64-1.71-4.73-.93,1.27.86,2.29,1.45,3.18,2.19.81.66,2.08.89,2.23,2.22-2.79,1.88-6.26,2.12-9.15,3.76-1.67-.04-2.83-1.69-4.7-1.56-.05,1.37,1.3,1.77,1.62,2.77-.91.18-2.24-.47-2.42,1.19-.21,0-.42,0-.63.01-.91-.7-1.69-1.62-2.96-1.68Z"/>
      <path class="cls-5" d="M268.18,159.56c-.02.66.11,1.37-.59,1.81-1.58.22-1.59,1.6-1.97,2.69-.46,1.33-.88,2.66-2.14,3.52-.97.66-1.64.49-2.18-.54-.39-.75-.43-1.53-.42-2.34.01-1.91.02-3.81.03-5.72.03-.41.05-.82.08-1.23.75-.08,1.11-.51,1.11-1.25,0-.24,0-.48.01-.71.6,0,1.21.02,1.81.03.92.77,1.74,1.68,2.95,2.03.53.49.61,1.35,1.37,1.65l-.05.08Z"/>
      <path class="cls-7" d="M262.11,155.77c0,.24,0,.48-.01.71-.79.05-1.2.43-1.11,1.25-.03.41-.05.82-.08,1.23-3.4-.16-3.64-.41-3.69-3.81-.01-.79,0-1.58,0-2.36.21,0,.42-.01.63-.01,1.13.81,2.22,1.69,3.64,1.97.21.34.42.68.63,1.01Z"/>
      <path class="cls-1" d="M185.19,120.61c-.37-2.15-2.03-3.29-3.53-4.56-.3-.48-.81-.42-1.27-.49,0,0,.05.02.05.02-.17-.93-.76-1.5-1.6-1.85-2-2.18-4.02-4.34-6.35-6.19-.18-.17-.36-.34-.53-.5-.8-1.73-1.29-3.57-1.82-5.39-1.47-5.08-2.4-10.31-4.11-15.33-.12-.38-.24-.76-.36-1.13.08-.31.05-.59-.25-.78l-.03-.08c-.55-3.94-2.52-6.77-6.36-8.15-.57-.21-1.11-.5-1.67-.73-7.04-2.87-14.11-5.68-21.12-8.61-2.7-1.13-5.58-1.9-7.94-3.76-.19-.72-.37-1.44-.56-2.16-.1-.5-.2-.99-.3-1.49l.09-.2-.18-.15c-.29-.74-.53-1.52-1.24-2.01.06-1.28-.35-2.46-.71-3.66-.23-.99-.46-1.97-.69-2.96.2-.61.4-1.21.6-1.81,2.3-1.72,4.59-1.33,7.12-.32,12.62,5.02,25.28,9.92,37.94,14.81,4.24,1.64,7.55,4.33,9.86,8.23,8.41,14.25,16.78,28.52,25.22,42.75,1.98,3.34,2.81,6.91,2.94,10.73.25,7.57-.89,14.98-2.53,22.33-1.02,4.56-4.92,5.63-8.48,2.53-2.36-2.06-4.43-4.47-7.13-6.15-.09-.49-.32-.87-.78-1.08-.2-.19-.4-.39-.61-.58-.56-.48-1.11-.96-1.67-1.44-1.19-2.89-.42-6.05-1.24-8.99-.02-.4-.05-.8-.07-1.19-.01-.6-.03-1.19-.04-1.79.1-1.06.16-2.12-.22-3.15-.07-.59-.14-1.18-.21-1.77-.04-.41-.09-.82-.13-1.23-.04-.57-.07-1.13-.11-1.7ZM188.5,135.23c-.07.26.02.44.25.56.13,1.4.04,2.83,1.25,3.92,3.02,2.69,5.93,5.51,9.02,8.11,1.95,1.64,3.89.93,4.51-1.56,1.92-7.69,2.75-15.51,2.23-23.44-.13-2-.41-4.07-1.42-5.86-3.17-5.62-6.31-11.27-9.95-16.62-.19-.89-.59-1.68-1.18-2.38-1.68-3.82-4.18-7.17-6.34-10.7-3.18-5.19-5.8-10.71-9.33-15.7-2.18-3.08-4.95-5.31-8.52-6.59-3.14-1.12-6.26-2.32-9.37-3.53-9.55-3.71-19.08-7.44-28.62-11.17-1.06-.41-2.13-.86-3.11.1-.9.88-.94,2-.61,3.12.68,2.34,1.47,4.64,2.09,6.99.35,1.32,1.11,2.09,2.34,2.55,2.45.92,4.89,1.86,7.32,2.84,6.69,2.68,13.32,5.5,20.07,8.04,4.04,1.52,6.53,4.21,7.86,8.25,1.87,5.67,3.41,11.44,4.62,17.26.87,4.21,2.71,7.48,5.98,10.22,2.8,2.34,5.67,4.61,8.17,7.3,1.32,1.42,1.94,2.97,2,4.92.15,4.46.48,8.91.74,13.36Z"/>
      <path class="cls-6" d="M127.74,60.92c.19.72.37,1.44.56,2.16-3.98-1.39-7.97-2.78-11.95-4.17,0,0-.06,0-.06,0-1.21-1.18-2.88-1.35-4.35-1.92-7.33-2.83-14.7-5.55-22.06-8.3-3.36-1.23-6.53-2.94-10.02-3.86-2.56-1.29-5.14-2.54-8.01-3h-.08c-.08-.41-.38-.5-.74-.5-.71-.25-1.42-.5-2.14-.76-4.73-2.53-9.89-4.03-14.85-6-2.26-.89-4.14-1.93-5.16-4.29-.72-1.66-1.74-3.19-2.63-4.78-.04-.48-.09-.97-.13-1.45-.03-.96-.66-1.95.11-2.88,1.98-1.38,3.87-.52,5.78.2,9.39,3.52,18.77,7.04,28.16,10.56,11.94,4.48,23.89,8.95,35.83,13.43-.9.52-1.87.77-2.92.72-7.79-2.84-15.62-5.59-23.37-8.55-12.3-4.7-24.5-9.66-36.95-13.98-1.15-.4-2.31-.78-3.49-1.05-.88-.2-1.58.36-1.18,1.17,1.74,3.46,2.57,7.49,6.79,9.28,8.86,3.75,18,6.79,26.85,10.56,5.58,2.38,11.51,3.94,17.1,6.31,7.93,3.36,16.05,6.22,23.97,9.6,1.56.67,3.18,1.34,4.92,1.51Z"/>
      <path class="cls-3" d="M46.24,21.17c-.77.93-.14,1.91-.11,2.88-2.3.47-4.04-1.08-6.03-1.72-2.35-.75-4.6-1.85-7.18-2.19-.03.56-.12.87-.05,1.13,2.23,8.35,5.24,16.41,9.51,23.95,1.25,2.2,2.67,4.44,5.11,5.43,2.16.87,4.2,1.98,6.36,2.82,4.25,1.64,8.48,3.34,12.73,4.98,9.92,3.82,19.86,7.6,29.77,11.44,3.12,1.21,6.18,2.54,9.26,3.83,1.46.61,2.39,1.59,3,3.18,1.6,4.16,3.18,8.32,4.35,12.62.56,2.07,1.83,3.19,3.85,3.86,9.9,3.31,19.85,6.45,29.66,10.03,7.04,2.57,14.25,4.67,21.3,7.24,3.59,1.3,7.2,2.69,11.06,3.09.84.35,1.43.92,1.6,1.85-1.49.36-2.8-.32-4.13-.76-13.24-4.46-26.43-9.08-39.73-13.38-7.23-2.33-14.28-5.17-21.63-7.14-1.77-.47-2.57-1.72-3.14-3.36-1.49-4.3-2.79-8.68-4.47-12.92-.75-1.9-1.95-3.02-3.71-3.71-9.33-3.66-18.67-7.31-28.01-10.96-9.15-3.58-18.29-7.16-27.44-10.73-2.45-.96-4.27-2.61-5.79-4.73-3.64-5.09-5.82-10.88-7.99-16.66-1.35-3.6-2.48-7.28-3.66-10.93-.75-2.31-.34-2.73,1.97-2.29,2.63.5,4.84,2.05,7.35,2.8,1.55.46,3.12,1.75,4.83.35.44,0,.87.02,1.31.02Z"/>
      <path class="cls-3" d="M165.67,153.46c.13,1.31-.29,2.25-1.73,2.47,0,0-.13-.08-.13-.08-.42-.65-1.01-.62-1.59-.32-1.44.75-2.87,1.52-4.28,2.31-1.24.69-2.41,1.56-3.87,1.68-4.42.37-8.39-1.15-12.71-2.88,5.43-3.22,10.48-6.19,15.79-8.69,1.03,2.29,3.48,2.45,5.34,3.43,1.15.61,2.33,1.06,3.18,2.08Z"/>
      <path class="cls-3" d="M170,152.14c-.4.66-.82.65-1.25.03.89-1.58-.25-2.19-1.36-2.78-2.62-1.38-5.4-2.27-8.35-2.64,3.28-2.04,6.46-4.25,10.16-5.53,4.19,1.61,8.69,1.57,13.01,2.5-2.85,2.09-6.12,3.5-9.05,5.45-1.19.79-2.93,1.11-3.16,2.96Z"/>
      <path class="cls-4" d="M159.04,146.75c2.95.37,5.73,1.25,8.35,2.64,1.12.59,2.25,1.2,1.36,2.78-1.15.13-2.06.84-3.08,1.29-.86-1.02-2.04-1.48-3.18-2.08-1.86-.98-4.32-1.13-5.34-3.43.63-.4,1.26-.8,1.89-1.2Z"/>
      <path class="cls-3" d="M188.89,141.88c.2.19.4.39.61.58-.21.61-.68.94-1.22,1.25-2.68,1.53-5.33,3.1-8.02,4.61-.9.51-1.77.96-1.7,2.19-.23,1.39-1.68,1.06-2.42,1.72-.12-.82-.43-1.37-1.34-.77-.9.6-1.77,1.25-2.89,1.38-.02-.22-.04-.44-.07-.66,3.29-2.97,7.36-4.71,11.07-7,1.93-1.19,3.73-2.67,5.98-3.3Z"/>
      <path class="cls-10" d="M188.89,141.88c-2.25.64-4.05,2.11-5.98,3.3-3.72,2.29-7.79,4.03-11.07,7-.61-.01-1.22-.03-1.83-.04.23-1.85,1.97-2.17,3.16-2.96,2.93-1.95,6.19-3.36,9.05-5.45.41-.22.81-.44,1.22-.65,1.32-.8,3.05-1,3.8-2.63.56.48,1.11.96,1.67,1.44Z"/>
      <path class="cls-10" d="M113.08,46.08c1.04.06,2.01-.19,2.92-.72,0,0,.27.07.27.07.15.36.3.72.59.08,2.83,1.05,5.65,2.09,8.47,3.14-.2.61-.4,1.21-.61,1.81-3.95-1.27-7.96-2.41-11.65-4.38Z"/>
      <path class="cls-10" d="M178.55,150.51c-.07-1.23.8-1.68,1.7-2.19,2.69-1.51,5.34-3.08,8.02-4.61.53-.31,1.01-.64,1.22-1.25.46.22.69.6.78,1.08-1.9,2.32-4.69,3.35-7.16,4.81-1.43.85-2.72,2.12-4.56,2.15Z"/>
      <path class="cls-10" d="M171.9,152.85c1.12-.13,1.99-.78,2.89-1.38.91-.61,1.22-.06,1.34.77-1.47,1.32-3.09,2.37-5.18,2.96-.43-1.21.62-1.64.95-2.34Z"/>
      <path class="cls-3" d="M44.9,21.13c-.95-.07-1.76-.41-2.4-1.14.05-.29.05-.61.17-.88.27-.58.74-1,1.41-.88.77.13.79.79.8,1.4.01.5,0,1,.01,1.5Z"/>
      <path class="cls-6" d="M116.86,45.51c-.29.63-.44.28-.59-.08.19.03.39.06.59.08Z"/>
      <path class="cls-3" d="M326.75,108.91c2.35-.41,3.48-2.37,4.74-3.99,1.63-2.11,3.58-3.86,5.45-5.71,1.11-1.1,2.7-1.38,4.16-1.76,4.79-1.24,9.58-2.52,14.41-3.6,3.95-.88,6.84-3.13,8.62-6.59,2.58-5.02,4.86-10.19,7.38-15.54-1.83-.3-3.2.47-4.57.81-11.57,2.92-23.11,5.98-34.68,8.94-1.57.4-3.03,1.21-4.69,1.23-.64,0-1.3-.09-1.28-.91.01-.59.52-.77,1.06-.88,14.38-2.94,28.48-7,42.68-10.66.39-.1.78-.26,1.17-.31,1.7-.19,2.32.52,1.69,2.14-1.06,2.74-2.23,5.43-3.41,8.12-1.1,2.51-2.27,4.98-3.41,7.47-.27.58-.29,1.17-.21,1.79,0,0-.01-.03-.01-.03-1.34-.09-1.98.97-2.69,1.77-1.81,2.05-4.04,3.38-6.65,4.07-4.3,1.15-8.54,2.54-12.93,3.35-2.82.52-5.52,1.33-7.47,3.69-1.55,1.87-3.27,3.61-4.74,5.53-.77,1-1.8,2.01-1.53,3.52-1.61,1.84-3.22,3.67-4.83,5.51-.21-.37-.42-.53-.64,0,0,0,.01,0,.01,0-.79-.04-1.27.39-1.75.97-3.47,4.16-7.43,7.88-10.69,12.23-.68.91-1.57,1.58-2.83,1.4-.03-.53.14-.98.5-1.38,1.88-2.1,3.78-4.18,5.64-6.3,2.38-2.73,4.71-5.49,7.08-8.23.63-.73,1.18-1.43.38-2.37-.4.08-.66.31-.79.69-1.06,1.75-2.71,2.99-3.97,4.57-2.13,2.67-4.64,5.05-6.99,7.55-.88-.2-1.74-.49-2.63-.6-3.96-.48-7.96-.79-11.85-1.71-1.26-.3-2.14.2-2.91,1.1-1.9,2.2-3.79,4.4-5.68,6.59-3.86.45-7.64-.62-11.48-.65-2.42-.02-4.44-1.13-5.24-3.79-.4-1.34-1.51-2.37-1.97-3.74-.17-.51-.75-1.07-1.26-1.24-2.5-.79-4.71-2.93-7.73-1.55-.83.38-2,.02-3.01,0,.35-.18.68-.45,1.05-.53,5.5-1.23,11.05-2.29,16.5-3.7,2.52-.65,4.28.13,5.93,1.75.88.86,1.81,1.72,3.05,1.87,3.75.46,7.43-.42,11.15-.63.41-.02.69-.38.65-.86-.04-.54-.47-.7-.85-.58-2.54.82-5.22.05-7.8.83-1.89.58-3.81.07-5.3-1.45-.49-.5-1.01-1.03-1.62-1.35-1.16-.62-1.39-1.57-1.42-2.77-.02-1.16.5-2.44-.52-3.46,4.81-1.61,9.61-3.23,14.42-4.83.85-.28,1.72-.49,2.58-.74l.07.09c.58,2.25,2.81,3.41,3.65,5.48-1.33.08-1.13,1.18-1.39,2.01-.67,2.21-1.03,2.69-3.19,2.17-2.8-.68-5.67-.19-8.44-.97-1.16-.32-2.52-.44-3.7.49,5.25,1.08,10.46,2.21,15.74,2.73.93-2.2,1.07-4.3.97-6.44.97.43,1.56,1.28,2.26,2,.86.89,1.79,1.31,2.99.84,2.84-1.11,5.85-1.58,8.81-2.18,1.91-.39,3.07-1.37,3.61-3.22.87-3.02,2.06-5.92,3.27-8.82.41-.96.78-1.91-.23-2.75,1.81-.52,2.73-1.9,3.35-3.55.14-.38.24-.77.4-1.14.81-1.94.71-4.58,2.31-5.77,1.56-1.16,3.98-1.18,6.02-1.7.49-.13.97-.27,1.45-.41-.11.7-.12,1.43-.36,2.08-1.33,3.6-2.69,7.2-4.1,10.77-1.71,4.33-3.54,8.6-5.2,12.95-.41,1.08-1.25,2.26-.47,3.79,1.24-1.08,2.3-1.99,3.35-2.91.2-.21.4-.41.59-.62h-.02ZM295.86,108.95c-3.09-.87-6.19-1.71-9.41-.66,3.13.4,6.16,1.71,9.41.66Z"/>
      <path class="cls-10" d="M309.09,131.48c1.27.19,2.15-.49,2.83-1.4,3.25-4.35,7.22-8.07,10.69-12.23.48-.58.96-1.01,1.75-.97.1,1.4-1.01,2.2-1.75,3.07-3.28,3.85-6.72,7.58-10.05,11.39-4.89,5.6-11.22,6.3-18.07,5.49-3.81-.45-7.65-.71-11.48-1.05-2.82-.25-5.65-.48-8.47-.74-2.97-.27-5.04-1.87-6.47-4.43-.79-1.42-1.57-2.84-2.5-4.17-.79-1.14-1.88-1.65-3.41-1.41-4.49.7-8.99,1.24-14,1.92,5.69,3.72,11.74,6.22,16.97,10.05-1.14,1.21-2.09.11-2.97-.36-4.11-2.2-8.18-4.46-12.23-6.78-.82-.47-1.55-.95-2.53-.81.07-1.23.14-2.46.2-3.7,4.16.02,8.19-1,12.26-1.6,4.35-.64,6.66.3,8.67,4.22.14.27.31.54.39.82.96,3.58,3.59,4.5,6.94,4.59,3.43.09,6.86.41,10.27.71,5.23.45,10.43,1.15,15.69,1.11,3.09-.02,5.4-1.32,7.22-3.71l.02-.02Z"/>
      <path class="cls-10" d="M329.83,111.38c-.26-1.5.76-2.52,1.53-3.52,1.48-1.92,3.2-3.66,4.74-5.53,1.95-2.36,4.66-3.17,7.47-3.69,4.39-.81,8.63-2.2,12.93-3.35,2.61-.7,4.84-2.02,6.65-4.07.71-.8,1.35-1.86,2.69-1.77-1.57,3.53-4.36,5.83-7.92,6.93-5.01,1.54-10.11,2.79-15.21,4-2.16.52-3.84,1.53-5.39,3.11-2.55,2.59-4.72,5.53-7.5,7.9Z"/>
      <path class="cls-10" d="M324.35,116.88c.22-.53.43-.36.64,0-.21,0-.43,0-.64,0Z"/>
      <path class="cls-10" d="M185.65,125.32c.39,1.03.32,2.09.22,3.15-4.46,2.48-8.92,4.97-13.39,7.44-1.14.63-2.3,1.22-3.47,1.8-.71.35-1.12-.05-1.4-.66.52-.44.89-.97,1.57-1.32,5.13-2.65,10.2-5.43,15.28-8.18.14-.07.18-.32.39-.73-1.79-.47-3.6-.26-5.33-.5-2.9-.4-5.8-.9-8.74-1-2.01-.07-3.24.7-4.11,2.45-.85,1.72-1.6,3.51-2.97,4.94-1.1,1.14-2.31,1.73-3.95,1.95-7.43,1-14.91,1.4-22.35,2.22-4.81.53-9.56.33-13.64-2.86-.56-.44-1.17-.83-1.65-1.34-4.83-5.06-9.49-10.27-13.81-15.78.26-.48.71-.62,1.21-.64.22.09.44.18.66.27.96,1.91,2.32,3.52,3.8,5.03,1.56,1.6,3.22,3.12,4.58,4.88,1.63,2.11,3.51,3.96,5.48,5.68,2.43,2.12,5.3,3.25,8.66,3.11,3.24-.14,6.47-.38,9.69-.56,3.84-.21,7.65-.87,11.52-.83,1.68.02,3.38-.55,5.11-.56,1.15,0,2.13-.62,2.96-1.41,1.42-1.34,2.49-2.88,3.25-4.7,1.09-2.61,3.02-4,5.99-3.59,2.2.31,4.4.66,6.6.88,2.61.26,5.13,1.25,7.81.87Z"/>
      <path class="cls-10" d="M159.04,146.75c-.63.4-1.26.8-1.89,1.2-5.31,2.49-10.35,5.46-15.79,8.69,4.32,1.73,8.29,3.25,12.71,2.88,1.47-.12,2.64-.99,3.87-1.68,1.41-.79,2.84-1.56,4.28-2.31.58-.3,1.17-.33,1.59.32-2.52,2.29-5.66,3.47-8.67,4.9-2.54,1.2-5.01.33-7.41-.26-3.23-.79-6.36-1.97-9.69-3.04.52-1.51,1.97-2.04,3.1-2.6,6.53-3.25,12.59-7.34,19.05-10.67,4.38-2.26,8.69-4.56,12.92-7.1,3.63-2.19,7.45-4.06,11.11-6.22.51-.3,1.13-.4,1.7-.6.02.4.05.79.07,1.19-3,1.69-6.07,3.28-8.98,5.11-1.83,1.15-4.22,1.59-5.25,3.83-.38.01-.75.02-1.13.03-.27-.22-.48-.15-.65.14-.26.22-.52.44-.78.66-3.69,1.27-6.88,3.49-10.16,5.53Z"/>
      <path class="cls-3" d="M268.24,159.48c-.76-.3-.84-1.16-1.37-1.65.13-.78.52-1.3,1.36-1.36h-.01c.42.73.85.6,1.29.01,2.21,1.22,4.39,2.5,6.64,3.64,2.52,1.28,5.14,1.65,7.92.74,2.78-.9,5.61-1.65,8.43-2.45,1.03-.29,2.06-.59,3.18-1.32-3.41-2.54-6.95-4.28-10.43-6.02-4.23-2.11-8.13-4.78-12.35-6.9-.43-.21-.73-.68-1.09-1.02,0,0,.16-.19.16-.19,3.26.62,5.95,2.51,8.8,4.01,5,2.62,9.89,5.49,14.82,8.25.71.39,1.46.72,2.1,1.2,1.05.79.95,1.47-.38,1.86-4.94,1.47-9.87,2.95-14.86,4.22-2.22.56-4.41-.18-6.45-1.19-1.82-.9-3.6-1.86-5.45-2.7-.95-.43-2.02-.71-2.31.86Z"/>
      <path class="cls-3" d="M175.48,120.49c-2.52-.03-4.95.69-7.49.68-1.81-.01-3.08,1.35-4.05,2.84-.98,1.52-1.97,3.04-2.86,4.61-.6,1.06-1.36,1.52-2.61,1.69-4.27.58-8.55,1.09-12.86,1.21l-.12-.1c-1.76-2.62-4.53-4.34-6.22-7.04-.54-.86-1.51-.82-2.49-.67-2.59.4-5.25.49-7.78,1.12-2.23.56-4.67-.1-6.74,1.22-3.62-4.06-7.25-8.12-10.87-12.18-.08-.59-.03-1.23-.24-1.78-3.76-9.79-7.56-19.57-11.34-29.36,2.05.5,4.09,1.15,6.17,1.47,1.9.29,2.83,1.26,3.19,3.06.18.88.66,1.7.87,2.58.52,2.23,1.57,4.12,3.23,5.69-.1.81-.12,1.62.26,2.38,1.46,2.9,2.36,6.02,3.2,9.12.5,1.86,1.6,2.65,3.3,3.05,3.04.71,6.09,1.39,9.09,2.24,1.21.34,1.92-.1,2.67-.86,2.35-2.36,4.56-4.84,6.59-7.47,1.92.58,3.9,1.03,5.76,1.78,3.29,1.33,6.76,2.09,10.08,3.3-.1,2.22.81,4.36.51,6.59v-.03c-1.24-.23-2.21.46-2.97,1.22-2.32,2.34-5.11,2.17-7.91,1.53-2.18-.5-4.37.05-6.52-.75-.02,1.45.78,1.6,1.62,1.65,3.62.2,7.22.89,10.87.58.06.67.39,1.05,1.06,1.29,1.9.69,3.89.95,5.83,1.42,1.89.46,3.72.32,4.77-.89,1.14-1.31,3.43-1.51,3.62-3.69.42.02.83.05,1.25.07.14.31.3.38.49.03.78.18,1.57.34,2.34.55,2.1.58,4.35.66,6.28,1.83ZM134.61,109.92c0,1.15-.04,2.12,0,3.09.12,2.35.68,2.87,2.99,2.6,3.29-.39,6.6-.71,9.84-1.37,1.27-.26,2.75-.06,3.93-.86-.37-.96-1.04-.78-1.59-.78-4.04-.05-8.03.55-12.02.96-1.34.14-1.9-.02-1.94-1.39-.02-.79-.11-1.61-1.2-2.23ZM146.72,107.98c-3.12.1-6.44-1.05-9.31,1.22,3.03-.99,6.33.44,9.31-1.22Z"/>
      <path class="cls-3" d="M93.05,96.17c-1.01-.05-2.01-.03-3-.35-3.56-1.14-7.16-2.11-10.83-2.83-3.85-.76-6.98-2.67-8.96-6.13-2.31-4.04-3.98-8.37-6.01-13.3,8.2,2.12,15.85,4.06,23.45,6.21.28,2.62,1.6,4.9,2.43,7.34,1.02,3.01,2.72,5.79,2.92,9.06Z"/>
      <path class="cls-7" d="M93.05,96.17c-.2-3.27-1.9-6.06-2.92-9.06-.83-2.44-2.15-4.72-2.43-7.34,4.04.99,8.09,1.98,12.13,2.98,3.79,9.78,7.58,19.56,11.34,29.36.21.54.17,1.18.24,1.78-2.77-1.96-4.5-4.9-6.76-7.33-1.58-1.7-3.16-3.4-4.69-5.15-1.95-2.22-4.1-4.15-6.91-5.23Z"/>
      <path class="cls-3" d="M115.04,96.19c7.34,1.82,14.43,4.43,21.57,6.87.17.06.28.27.42.42-1.59,2.35-4.05,3.93-5.57,6.36-.6.96-1.64,1.04-2.72.73-1.74-.5-3.48-1.07-5.26-1.37-3.29-.55-5.41-2.15-6.19-5.54-.58-2.53-2.33-4.72-2.26-7.47Z"/>
      <path class="cls-3" d="M185.65,125.32c-2.68.38-5.2-.61-7.81-.87-2.21-.22-4.41-.57-6.6-.88-2.97-.42-4.9.98-5.99,3.59-.76,1.82-1.83,3.37-3.25,4.7-.84.79-1.81,1.4-2.96,1.41-1.74.01-3.43.58-5.11.56-3.87-.04-7.67.62-11.52.83-3.23.18-6.46.42-9.69.56-3.35.14-6.23-.99-8.66-3.11-1.98-1.72-3.86-3.57-5.48-5.68-1.36-1.76-3.02-3.28-4.58-4.88-1.48-1.52-2.84-3.12-3.8-5.04.04-.31.08-.61.12-.91,3.6,3.83,7.47,7.45,10.74,11.55,4.34,5.43,9.66,7.91,16.48,6.61,3.71-.71,7.45-.4,11.17-.94,2.97-.42,5.99-.87,9.06-.83,2.11.03,3.87-1.03,4.95-3.01.68-1.24,1.49-2.42,2.17-3.66,1.2-2.16,2.93-3.09,5.46-3.08,2.66.01,5.25.52,7.83.85,2.43.3,4.83.36,7.26.44.07.59.14,1.18.21,1.77Z"/>
      <path class="cls-3" d="M145.62,131.52c-.35.17-.72.52-1.06.5-4.06-.23-8.06.51-12.09.69-1.9.08-3.46-.33-4.98-1.64-1.38-1.19-2.78-2.33-3.92-3.75,3.57-.62,7.12-1.29,10.7-1.84,2.47-.38,4.86-.41,6.19,2.38.34.71,1.08,1.21,1.48,1.9.82,1.42,1.97,1.96,3.56,1.66l.12.1Z"/>
      <path class="cls-7" d="M115.04,96.19c-.07,2.75,1.68,4.94,2.26,7.47.78,3.39,2.9,5,6.19,5.54,1.78.3,3.52.87,5.26,1.37,1.08.31,2.12.23,2.72-.73,1.51-2.44,3.98-4.02,5.57-6.36.53-.01,1,.1,1.36.52-2.03,2.63-4.24,5.11-6.59,7.47-.75.75-1.46,1.2-2.67.86-3-.85-6.05-1.53-9.09-2.24-1.7-.4-2.79-1.18-3.3-3.05-.84-3.11-1.74-6.22-3.2-9.12-.38-.76-.36-1.56-.26-2.38.38.02.75.05,1.13.07.2.18.41.35.61.53v.04Z"/>
      <path class="cls-3" d="M155.85,109.65c3.93.84,7.52,2.63,11.25,4.02,1.13.42,2.32.61,3.41,1.07,1.39.59,1.8,1.52.6,2.74-3.55-.59-7.07-1.29-10.56-2.16-4.57-1.14-4.58-1.09-4.71-5.66Z"/>
      <path class="cls-7" d="M155.85,109.65c.13,4.57.14,4.52,4.71,5.66,3.49.87,7.01,1.57,10.56,2.16,3.14,1.48,6.61,1.6,9.92,2.37,1.37.32,2.77.52,4.15.77.04.57.07,1.13.11,1.7-2.34.06-4.43-1.33-6.79-1.17-.26-.55-.73-.63-1.26-.56-.59-.03-1.18-.06-1.77-.09-1.93-1.18-4.18-1.25-6.28-1.83-.77-.21-1.56-.37-2.34-.55-.16,0-.32-.02-.49-.03-.42-.02-.83-.05-1.25-.07-3.42-.92-6.79-2.12-10.37-2.34.3-2.23-.61-4.37-.51-6.59.64-.1,1.12.24,1.61.56Z"/>
      <path class="cls-7" d="M145.5,131.42c-1.58.29-2.74-.25-3.56-1.66-.4-.69-1.14-1.19-1.48-1.9-1.33-2.79-3.73-2.76-6.19-2.38-3.58.55-7.13,1.22-10.7,1.84-.43-.42-.86-.84-1.29-1.26,2.07-1.32,4.5-.66,6.74-1.22,2.53-.63,5.19-.72,7.78-1.12.97-.15,1.95-.19,2.49.67,1.69,2.69,4.47,4.42,6.22,7.04Z"/>
      <path class="cls-3" d="M177.25,120.58c.54-.07,1,.01,1.26.56-.28.5-.74.69-1.23.45-.48-.24-.1-.67-.04-1.01Z"/>
      <path class="cls-3" d="M180.39,115.55c.46.07.97.01,1.27.49-.85.92-1.04.16-1.27-.49Z"/>
      <path class="cls-3" d="M115.03,96.15c-.2-.18-.41-.36-.61-.53.33.03.54.21.61.53Z"/>
      <path class="cls-7" d="M109.12,114.9c.19.21.38.42.57.63,0,0-.1.12-.1.12l-.62-.6.15-.14Z"/>
      <path class="cls-7" d="M110.31,115.6c-.04.3-.08.61-.12.91-.22-.09-.44-.18-.66-.26.02-.2.04-.41.05-.61,0,0,.1-.12.1-.12.21.03.42.05.62.08Z"/>
      <path class="cls-3" d="M109.59,115.64c-.02.2-.04.41-.05.61-.51.02-.95.15-1.21.64-.19-.02-.38-.03-.58-.03-.31-.86-1.28-1.4-1.22-2.44.89-.09,1.69.21,2.45.62.2.2.41.4.62.6Z"/>
      <path class="cls-1" d="M247.64,125.35c-.07,1.23-.14,2.46-.2,3.7,0,.39,0,.79,0,1.19-.02.42-.04.84-.06,1.26-.14,1.1-.35,2.19-.4,3.3-.09,1.91.05,3.84-.87,5.62-.6.47-1.21.94-1.81,1.41-.19.17-.39.33-.58.5-.58.65-1.17,1.3-1.75,1.94-2.29,2-4.6,3.97-6.85,6-2.58,2.33-6.16,1.54-7.26-1.75-1.13-3.37-1.57-6.92-2.09-10.42-.71-4.82-.98-9.68-.72-14.56.2-3.95,1.6-7.5,3.58-10.86,8.08-13.71,16.16-27.41,24.25-41.11,2.59-4.39,6.51-7.1,11.19-8.9,12.55-4.84,25.09-9.7,37.59-14.64,2.3-.91,4.3-1.01,6.21.68.05.93.11,1.86.16,2.79-.03,2.39-.61,4.65-1.46,6.86-.19.37-.38.74-.57,1.1-.76.58-.56,1.38-.49,2.14-.29.44-.61.88-.47,1.46-3.07,2.42-6.84,3.42-10.35,4.92-6.96,2.97-13.98,5.84-21.04,8.58-2.92,1.13-4.68,3.05-5.41,6-.22.87-.77,1.67-.6,2.63-.09.12-.13.26-.13.41-.36.26-.42.64-.52,1.04-1.67,6.67-3.2,13.38-5.33,19.93-.27.34-.55.67-.82,1.01-2.52,2.17-5.19,4.18-7.28,6.81h0c-.26.19-.52.39-.77.58-.17.16-.34.32-.51.49-1.46,1.23-3.06,2.35-3.72,4.28,0,0,0,.05,0,.05-.39.12-.49.4-.44.77-.03.39-.06.78-.1,1.18-.22.81-.46,1.63-.32,2.49-.02.37-.04.75-.06,1.12ZM246.77,86.9c-1.28,1.47-2.26,3.1-2.86,4.96-2.05,2.58-3.87,5.31-5.05,8.41-3.61,5.51-6.95,11.18-9.98,17.02-1.08,2.07-1.53,4.38-1.46,6.77.11,3.85.07,7.68.46,11.53.35,3.44,1.31,6.75,1.61,10.19.25,2.83,2.89,3.69,5.09,1.79,2.84-2.45,5.66-4.93,8.41-7.48,1.13-1.05,1.86-2.36,1.84-4.02-.05-4.56.8-9.09.65-13.66-.07-2.26.84-4.06,2.33-5.74,2.85-3.2,6.11-5.91,9.45-8.56,1.51-1.2,3-2.48,3.05-4.66l-.02.02c.75-.68,1-1.53.87-2.51.07-.4.14-.81.2-1.21.61-.49.67-1.13.5-1.84.05-.4.1-.8.14-1.2.57-.4.54-1.04.7-1.62,1.31-4.89,2.49-9.82,4.22-14.6.85-2.34,2.34-4,4.61-4.97,2.61-1.12,5.21-2.27,7.84-3.35,7.13-2.92,14.27-5.82,21.43-8.69,1.38-.55,2.62-1.18,3.05-2.71.8-2.82,1.62-5.64,2.26-8.5.45-1.99-.44-2.76-2.51-2.49-1.25.16-2.26.88-3.39,1.32-11.9,4.61-23.78,9.26-35.67,13.87-2.79,1.08-5.34,2.49-7.31,4.78-2.25,2.62-4.11,5.51-5.51,8.69-1.91,2.67-3.55,5.5-4.96,8.46Z"/>
      <path class="cls-6" d="M308.02,51.49c-.05-.93-.11-1.86-.16-2.79,12.89-4.76,25.78-9.52,38.68-14.27.94-.35,1.91-.62,2.87-.93.12.31.25.63.37.94-.44.25-.85.56-1.31.74-6.02,2.32-12.04,4.63-18.07,6.91-6.69,2.53-13.4,5.03-20.11,7.51-.89.33-1.76.56-1.79,1.72v.13c-.15.08-.31.1-.47.05Z"/>
      <path class="cls-1" d="M349.78,34.44c-.12-.31-.25-.63-.37-.94,11.01-4.09,22.03-8.16,33.02-12.3,1.63-.61,3.11-.84,4.63.13,0,.2.06.39.17.56-.07,1.03-.76,1.16-1.59,1.09-.71-.77-1.58-.8-2.52-.54-2.05.55-4.12.98-6.11,1.78-9.01,3.6-18.05,7.1-27.23,10.23Z"/>
      <path class="cls-10" d="M241.97,144.26c.58-.65,1.17-1.29,1.75-1.94.52,1.35,1.76,1.85,2.91,2.47,2.39,1.29,4.79,2.55,7.13,3.92.95.55,1.47,1.33-.19,1.72-3.04-1.76-6.09-3.49-9.1-5.29-.79-.48-1.53-.94-2.49-.87Z"/>
      <path class="cls-3" d="M345.62,79.76c7.51-2.29,15.11-4.21,22.94-6.06.22,1.35-.53,2.28-.95,3.2-1.55,3.39-2.63,7.01-4.85,10.08-1.94,2.69-4.27,4.83-7.61,5.66-4.49,1.12-8.97,2.31-13.47,3.44-.48.12-1.01.03-1.51.04-.09-1.15.32-2.16.68-3.23,1.49-4.41,3.72-8.55,4.75-13.12Z"/>
      <path class="cls-3" d="M252.27,115.46c.17-.16.34-.32.52-.49.37-.05.64-.23.77-.59h0c2.48-.17,4.59-1.52,6.9-2.21,4.84-1.45,9.68-2.92,14.45-4.6,13.2-4.63,26.44-9.15,39.76-13.42,3.28-1.05,5.68-2.64,6.39-6.46.58-3.15,1.9-6.18,3.02-9.22.78-2.13,1.97-4.02,4.23-4.93,7.05-2.85,14.1-5.7,21.2-8.39,11.37-4.32,22.62-8.93,33.98-13.25,2.61-.99,4.93-2.45,6.5-4.82,1-1.52,1.9-3.12,2.71-4.75,3.29-6.55,5.4-13.54,7.75-20.45.2-.57.26-1.2-.37-1.77-4.28.64-8.12,2.89-12.34,3.94,0-.52,0-1.04,0-1.56,4.05-.96,7.85-2.67,11.79-3.94,1.03-.33,2.01-.87,3.31-.83.12,2-.66,3.73-1.25,5.33-2.65,7.22-4.96,14.57-8.64,21.4-2.21,4.1-5,7.19-9.51,8.78-7.64,2.69-15.02,6.07-22.61,8.91-9.57,3.59-18.91,7.85-28.54,11.25-4.38,1.55-6.61,4.03-7.59,8.35-.78,3.44-2.77,6.5-3.55,10-.38,1.69-2,2.13-3.47,2.62-7.88,2.62-15.77,5.21-23.63,7.89-10.26,3.5-20.46,7.16-30.75,10.55-3.16,1.04-6.36,2.02-9.52,3.07-.65.21-1.17.32-1.51-.42Z"/>
      <path class="cls-7" d="M345.62,79.76c-1.03,4.57-3.26,8.71-4.75,13.12-.36,1.07-.77,2.09-.68,3.23-6.08,2.58-9.77,7.67-13.43,12.8,0,0,.02,0,.02,0-.2.21-.4.41-.59.62-1.05.91-2.11,1.83-3.35,2.91-.77-1.53.06-2.71.47-3.79,1.66-4.35,3.48-8.62,5.2-12.95,1.41-3.57,2.77-7.17,4.1-10.77.24-.65.25-1.39.36-2.08,4.2-1.1,8.33-2.49,12.66-3.08Z"/>
      <path class="cls-3" d="M294.99,103.97c7.21-2.97,14.65-5.27,22.04-7.74.37-.12.8-.06,1.21-.08-.09,2.07-1.15,3.84-1.96,5.65-.97,2.14-.73,5.1-2.97,6.33-2.06,1.13-4.75,1.07-6.87,2.13-3.49,1.76-5.39-.15-7.29-2.47-.38-.46-.6-1.07-1.02-1.49-.91-.89-1.54-2.19-3.07-2.24l-.07-.09Z"/>
      <path class="cls-6" d="M387.75,22.51c0,.52,0,1.04,0,1.56-.08.43-.16.85-.25,1.28-1.38,1.39-2.11,3.19-3.07,4.84-1.22,2.11-2.84,3.52-5.15,4.44-4.79,1.9-9.71,3.49-14.28,5.9-.9.28-1.8.57-2.71.85-.35-.02-.63.08-.73.46h-.05c-2.82.64-5.49,1.64-8.02,3.02-3.25,1.02-6.3,2.53-9.43,3.85-.97.27-1.97.47-2.91.82-8.62,3.29-17.21,6.66-25.86,9.88-3.4,1.27-6.65,2.97-10.26,3.66-.13-.58.19-1.01.47-1.46.45-.17.99-.21,1.16-.79h0c.62.09,1.1-.15,1.48-.64h.07c1.13.09,2.23.13,2.72-1.22h0c.72.1,1.44.23,1.82-.64h0c.76.15,1.47.1,1.98-.59.17-.15.34-.29.51-.44.64-.17,1.46.08,1.8-.78h-.01c.75.12,1.46.11,1.97-.57.58,0,1.02-.3,1.43-.68.61.09,1.2.15,1.5-.57h-.01c.71.08,1.45.25,1.83-.62h0c.55.1,1.04.05,1.25-.58h0c.71.07,1.45.25,1.83-.63h0c.55.1,1.04.05,1.24-.59h-.01c.71.08,1.44.19,1.83-.65h-.03c.6.1,1.1-.07,1.44-.59l.15-.02c.6.07,1.19.1,1.48-.6h-.02c.55.09,1.04.05,1.25-.58h-.01c.71.08,1.45.22,1.83-.63h-.02c.54.08,1.04.04,1.25-.58h-.01c.71.07,1.45.23,1.83-.63h-.01c1.83-.09,3.55-.46,4.89-1.85l-.03.02c.71.06,1.45.2,1.85-.63h-.02c.54.08,1.04.05,1.26-.57h-.02c.71.09,1.45.24,1.84-.62h-.02c1.26.19,2.3-.16,3.07-1.22h-.02c.72.09,1.45.22,1.83-.64h-.02c.55.09,1.04.04,1.25-.59h-.02c1.25.17,2.3-.18,3.06-1.23h-.01c1.25.17,2.3-.17,3.07-1.22h-.02c.71.09,1.44.22,1.84-.63h-.02c.55.09,1.03.04,1.26-.58h-.02c.71.09,1.44.22,1.84-.62h-.02c1.26.19,2.3-.18,3.07-1.22h-.02c1.23.12,2.49.31,3.07-1.2h-.01c.72.11,1.44.2,1.83-.63h-.02c.62.13,1.09-.11,1.47-.59.52-.14,1.04-.28,1.57-.42.56-.14,1.12-.27,1.47-.79.52-.16,1.03-.32,1.55-.48.33-.16.61-.36.69-.75h0c.37-.03.58-.23.61-.61h0c.89.05,1.25-.41,1.18-1.25h0c2.18-1.69,2.84-4.15,3.36-6.68.83.07,1.52-.06,1.59-1.09.18.21.35.42.53.62Z"/>
      <path class="cls-7" d="M248.02,121.74c.03-.39.06-.78.1-1.18.27-.18.48-.4.44-.77,0,0,0-.05,0-.05,3.65.34,7.06-.88,10.55-1.64,5.31-1.06,10.63-2.09,15.93-3.19,1.54-.32,2.53-1.21,2.36-2.97-.06-.6-.02-1.21-.03-1.81.21-.2.42-.4.63-.6,1.02,1.02.5,2.3.52,3.46.02,1.2.26,2.15,1.42,2.77.61.33,1.13.85,1.62,1.35,1.49,1.52,3.41,2.03,5.3,1.45,2.58-.79,5.26-.02,7.8-.83.38-.12.81.04.85.58.04.48-.24.83-.65.86-3.72.22-7.41,1.1-11.15.63-1.24-.15-2.17-1.01-3.05-1.87-1.66-1.63-3.42-2.41-5.93-1.75-5.46,1.41-11,2.47-16.5,3.7-.37.08-.7.35-1.05.53-3.08.21-5.99,1.61-9.14,1.31Z"/>
      <path class="cls-3" d="M277.35,110.13c0,.6-.02,1.21.03,1.81.17,1.76-.82,2.65-2.36,2.97-5.3,1.1-10.62,2.13-15.93,3.19-.1-1.1.12-2.09,1.28-2.47,5.47-1.78,10.7-4.28,16.37-5.47.2-.04.4-.02.61-.03Z"/>
      <path class="cls-7" d="M295.06,104.06c1.53.05,2.16,1.35,3.07,2.24.42.41.64,1.02,1.02,1.49,1.91,2.32,3.8,4.22,7.29,2.47,2.11-1.06,4.81-1,6.87-2.13,2.24-1.23,2-4.19,2.97-6.33.82-1.81,1.87-3.57,1.96-5.65.4-.25.79-.49,1.19-.74,1.01.84.63,1.79.23,2.75-1.22,2.89-2.4,5.8-3.27,8.82-.53,1.85-1.69,2.83-3.61,3.22-2.96.6-5.97,1.07-8.81,2.18-1.21.47-2.14.05-2.99-.84-.7-.72-1.29-1.58-2.26-2h0c-.84-2.07-3.07-3.22-3.65-5.47Z"/>
      <path class="cls-10" d="M271.81,143.15c.36.35.66.81,1.09,1.02,4.22,2.12,8.12,4.79,12.35,6.9,3.48,1.74,7.02,3.48,10.43,6.02-1.12.72-2.14,1.02-3.18,1.32-2.81.8-5.64,1.55-8.43,2.45-2.78.9-5.4.54-7.92-.74-2.25-1.14-4.43-2.42-6.65-3.64-.43,0-.86,0-1.29-.01,0,0,.01,0,.01,0-.07-.37-.09-.76-.23-1.11-.4-1.07,0-1.23.93-.9.36.13.75.2,1.12.3,6.26,5.49,13.19,6.09,21.74,1.75-5.13-2.89-9.95-5.99-15.12-8.5-1.31-.71-2.62-1.44-4.19-1.38-.15-1.33-1.42-1.56-2.23-2.22-.9-.74-1.92-1.33-3.18-2.19,2.08-.78,3.25.81,4.73.93Z"/>
      <path class="cls-4" d="M272.5,146.63c1.57-.07,2.87.67,4.19,1.38-.18,1.58-1.64,1.65-2.66,2.11-1.54.7-3.17,1.21-4.65,2.06-1.04.87-2.1,1.43-3.41.46-.58-.43-1.28-.48-1.99-.49-.23-.18-.46-.37-.7-.55.02-.4.04-.81.06-1.21,2.89-1.64,6.35-1.88,9.15-3.76Z"/>
      <path class="cls-10" d="M247.38,131.49c.02-.42.04-.84.06-1.26,4.42,1.76,8.37,4.39,12.48,6.73,1.49.85,3,1.65,4.41,2.62.72.5,1.2,1.3-.25,1.63-.26-.21-.51-.42-.77-.63-.43-.61-1.15-.79-1.75-1.13-4.72-2.66-9.45-5.31-14.18-7.96Z"/>
      <path class="cls-7" d="M263.31,140.57c.25.21.51.42.77.63-2.02,1.32-4.43,1.42-6.67,1.71-2.09.28-4.18.72-6.3.82-.41-.22-.81-.44-1.22-.66,4.3-1.79,8.89-1.96,13.42-2.5Z"/>
      <path class="cls-10" d="M249.89,143.08c.41.22.81.44,1.22.66.4.81,1.2.97,1.94,1.32.95.46,1.79,1.16,2.51,2.04-4.31-.61-7.41-3.75-11.25-5.28.6-.47,1.21-.94,1.81-1.41.85,1.47,2.22,2.21,3.78,2.67Z"/>
      <path class="cls-10" d="M263.35,150.39c-.02.4-.04.81-.06,1.21-.74.43-1.53.65-2.39.62l-.03-.02c-.19-.19-.39-.39-.58-.58l-.02-.02c-.31-.99-1.67-1.39-1.62-2.77,1.86-.13,3.03,1.52,4.7,1.56Z"/>
      <path class="cls-10" d="M261.48,154.76c-1.42-.28-2.51-1.16-3.64-1.97.19-1.66,1.51-1,2.42-1.19,0,0,.02.02.02.02.19.19.39.39.58.58,0,0,.03.02.03.02.11.86,1.88,1.35.58,2.53Z"/>
      <path class="cls-7" d="M263.99,152.16c.7,0,1.41.06,1.99.49,1.31.97,2.37.41,3.41-.46.23.86.45,1.72.68,2.58-.37-.1-.75-.18-1.12-.3-.93-.32-1.34-.16-.93.9.13.35.15.74.23,1.11-.84.06-1.24.58-1.36,1.36-1.21-.35-2.03-1.26-2.95-2.03.12-1.21-1.01-2.45.07-3.65Z"/>
      <path class="cls-3" d="M263.99,152.16c-1.07,1.2.05,2.43-.07,3.65-.6,0-1.21-.02-1.81-.03-.21-.34-.42-.68-.63-1.02,1.3-1.19-.48-1.67-.58-2.53.86.03,1.65-.2,2.39-.62.23.18.46.37.7.55Z"/>
      <path class="cls-4" d="M260.99,157.74c-.09-.83.32-1.21,1.11-1.25,0,.74-.36,1.17-1.11,1.25Z"/>
      <path class="cls-10" d="M194.41,100.34c3.63,5.35,6.77,11,9.95,16.62,1.01,1.79,1.29,3.86,1.42,5.86.51,7.92-.31,15.74-2.23,23.44-.62,2.5-2.56,3.21-4.51,1.56-3.09-2.6-6-5.42-9.02-8.11-1.21-1.08-1.12-2.52-1.25-3.92.07-.26-.03-.44-.26-.56-.26-4.45-.59-8.91-.74-13.36-.07-1.95-.68-3.5-2-4.92-2.5-2.69-5.37-4.96-8.17-7.3-3.27-2.73-5.11-6.01-5.98-10.22-1.21-5.82-2.75-11.59-4.62-17.26-1.33-4.04-3.81-6.73-7.86-8.25-6.74-2.54-13.38-5.36-20.07-8.04-2.43-.97-4.87-1.92-7.32-2.84-1.23-.46-1.99-1.23-2.34-2.55-.62-2.35-1.41-4.65-2.09-6.99-.32-1.12-.29-2.24.61-3.12.98-.96,2.05-.52,3.11-.1,9.54,3.73,19.08,7.46,28.62,11.17,3.11,1.21,6.23,2.41,9.37,3.53,3.57,1.28,6.35,3.51,8.52,6.59,3.53,4.99,6.15,10.51,9.33,15.7,2.17,3.53,4.66,6.88,6.34,10.7-2.19.74-2.84-1.12-3.61-2.36-3.82-6.22-7.83-12.35-11.16-18.83-2.66-5.17-6.67-8.32-11.84-10.32-10.31-3.97-20.65-7.86-30.97-11.79-1.33-.51-2.59-1.19-3.92-1.66-1.39-.49-1.88-.05-1.56,1.39.39,1.78,1.1,3.5,1.31,5.3.19,1.61,1.07,2.32,2.38,2.8,5.81,2.12,11.53,4.46,17.22,6.89,3.92,1.67,8.01,2.91,11.82,4.85,2.08,1.06,3.67,2.55,4.58,4.68.71,1.68,1.36,3.38,1.9,5.12,1.78,5.81,3.32,11.69,4.55,17.64.56,2.7,1.99,4.63,4.04,6.2,2.34,1.79,4.62,3.63,6.77,5.63.41.38.81.97,1.59.43-.03-1.38-2.07-1.72-1.77-3.27,1.62.32,2.39,1.78,3.56,2.7,2.82,2.22,3.98,5.16,4.08,8.74.11,3.63.94,7.25.86,10.87-.09,4.12,2.93,5.44,5.51,7.25.87.61,1.3-.02,1.17-.94-.06-.39-.28-.76-.42-1.13,1.11-3.37.33-6.85.66-10.27.54-5.69-2.02-10.51-4.71-15.03-1.37-2.31-2.91-4.52-3.95-7.03-.02-.82.29-1.83-1.11-1.8-.6-.1-1.25-.17-1-1.06.14-.49.28-1.03-.23-1.33-2.61-1.52-3.63-4.04-4.36-6.76.14-.9-.28-1.25-1.15-1.16-1.55-3.58-2.82-7.32-5.6-10.24-.32-.34-.36-.94-.64-1.35-2.24-3.3-3.5-7.38-7.23-9.53-2.71-1.57-4.99-4.5-8.78-3.01-.21.08-.56-.19-.84-.3-1.13-.44-2.27-.86-3.39-1.34-7.74-3.33-15.69-6.14-23.52-9.86.28,2.24,2.06,2.34,3.31,2.97,1.58.8,3.54.93,4.57,2.68-2.82-.16-5.11-1.84-7.68-2.7-.32-.11-.67-.57-.73-.91-.27-1.73-1.21-3.36-1.02-5.21.38.04.6.01.77.08,11.25,4.64,22.63,8.94,34,13.27,3.89,1.48,7.16,3.67,9.16,7.55,1.95,3.78,4.22,7.4,6.46,11.01,3.39,5.45,5.72,11.43,9.52,16.72,3.63,5.05,6.64,10.63,9.35,16.3.37,3,.61,6,.58,9.03-.03,3.33-1.08,6.59-.59,9.94-.08,1.76-.3,3.47-1.1,5.17-2.4-1.96-4.59-3.76-6.79-5.54-.83-.67-1.4-1.43-1.35-2.57.18-3.55-.91-7.04-.64-10.59.16-2.16-.49-4.21-.71-6.32-.11-1.05-.42-2.34-2.22-2.66.43,1.41.97,2.52,1.08,3.67.49,5.33.92,10.67,1.23,16.01.08,1.44.43,2.62,1.61,3.4,2.13,1.42,3.8,3.34,5.67,5.05.95.86,1.91,1.74,3.37,2.17.72-2.39.79-4.71,1.23-6.95.79-4.08,1.22-8.22,1.38-12.33.14-3.48-.11-7.11-1.94-10.3-2.32-4.04-4.69-8.05-7.03-12.08-.56-.96-1.14-1.92-1.61-2.93-.46-.98.01-1.53,1.04-1.67Z"/>
      <path class="cls-3" d="M113.08,46.08c3.69,1.97,7.69,3.11,11.65,4.38.23.99.46,1.97.69,2.96-.78-.21-1.58-.36-2.33-.65-8.31-3.21-16.6-6.47-25.02-9.39-5.92-2.05-11.77-4.29-17.65-6.46-3.13-1.16-6.19-2.58-9.4-3.45-3.79-1.04-7.49-2.25-11.05-3.91-.92-.43-1.84-.84-2.8-1.18-.9-.31-2.2-1.19-2.7-.07-.55,1.22,1.04,1.53,1.87,1.88,4.19,1.77,8.41,3.48,12.65,5.13,3.96,1.55,7.98,2.93,11.92,4.51,7.03,2.82,14.08,5.61,21.13,8.38,7.34,2.88,14.76,5.53,21.99,8.69.61.27,1.39.12,2.09.16.7.49.95,1.26,1.24,2-.05.13-.02.25.08.35.1.49.2.99.3,1.49-1.74-.17-3.36-.84-4.92-1.51-7.92-3.38-16.04-6.24-23.97-9.6-5.59-2.37-11.52-3.93-17.1-6.31-8.86-3.77-17.99-6.81-26.85-10.56-4.23-1.79-5.06-5.82-6.79-9.28-.41-.81.29-1.37,1.18-1.17,1.18.27,2.34.66,3.49,1.05,12.44,4.32,24.65,9.28,36.95,13.98,7.75,2.96,15.58,5.71,23.37,8.55Z"/>
      <path class="cls-7" d="M194.41,100.34c-1.02.14-1.49.69-1.04,1.67.47,1.01,1.05,1.96,1.61,2.93,2.34,4.03,4.7,8.04,7.03,12.08,1.84,3.2,2.08,6.82,1.94,10.3-.16,4.11-.6,8.25-1.38,12.33-.43,2.25-.51,4.56-1.23,6.95-1.46-.43-2.42-1.3-3.37-2.17-1.87-1.7-3.53-3.63-5.67-5.05-1.18-.78-1.53-1.96-1.61-3.4-.31-5.34-.74-10.68-1.23-16.01-.11-1.15-.65-2.25-1.08-3.67,1.8.32,2.11,1.6,2.22,2.66.21,2.11.87,4.17.71,6.32-.27,3.56.82,7.04.64,10.59-.06,1.14.51,1.9,1.35,2.57,2.2,1.78,4.38,3.57,6.79,5.54.8-1.69,1.02-3.41,1.09-5.17.12-.16.32-.31.34-.49.79-5,.99-10.04.79-15.09-.05-1.22-.41-2.37-1.12-3.39-2.71-5.67-5.72-11.26-9.35-16.3-3.8-5.28-6.13-11.27-9.52-16.72-2.24-3.6-4.52-7.23-6.46-11.01-2-3.88-5.26-6.06-9.16-7.55-11.37-4.33-22.75-8.64-34-13.27-.18-.07-.39-.05-.77-.08-.18,1.85.75,3.48,1.02,5.21.05.34.41.8.73.91,2.57.87,4.86,2.54,7.68,2.7,0,0-.02.04-.02.04.8.94,1.84,1.3,3.05,1.22h0c.85.83,1.93,1.07,3.06,1.21h0c.44.7,1.13.67,1.82.63h0c2.19,1.62,4.76,2.34,7.34,3.04h-.01c.7.85,1.75.9,2.7,1.18h.16c.81.79,1.76,1.25,2.9,1.24h.11c.99.87,2.1,1.55,3.28,2.13.32.32.64.64.97.96.29.29.58.57.88.86l.04.11c.04.39.2.69.57.85h0c.24,1.39.79,2.65,1.83,3.67h0c1.84,7.43,3.63,14.9,5.57,22.32.42,1.61,1.59,2.82,3.54,2.72h-.01c0,.6.1,1.09.9.84l.12.17c-.23.44-.05.61.4.62.65,1.6,1.64,2.73,3.54,2.67.17.16.33.31.5.47-.3,1.55,1.74,1.89,1.77,3.27-.78.54-1.19-.05-1.59-.43-2.15-2.01-4.43-3.85-6.77-5.63-2.05-1.57-3.48-3.5-4.04-6.2-1.24-5.94-2.78-11.83-4.55-17.64-.53-1.74-1.19-3.45-1.9-5.12-.91-2.14-2.5-3.63-4.58-4.68-3.81-1.94-7.9-3.18-11.82-4.85-5.69-2.43-11.41-4.78-17.22-6.89-1.31-.48-2.19-1.19-2.38-2.8-.21-1.79-.91-3.52-1.31-5.3-.32-1.44.17-1.89,1.56-1.39,1.34.47,2.6,1.15,3.92,1.66,10.32,3.94,20.66,7.82,30.97,11.79,5.17,1.99,9.18,5.15,11.84,10.32,3.33,6.48,7.34,12.61,11.16,18.83.77,1.25,1.42,3.1,3.61,2.36.59.69.99,1.49,1.18,2.38Z"/>
      <path class="cls-10" d="M178.84,113.73c-3.86-.4-7.48-1.79-11.06-3.09-7.05-2.56-14.26-4.67-21.3-7.24-9.81-3.57-19.76-6.72-29.66-10.03-2.02-.67-3.29-1.8-3.85-3.86-1.17-4.3-2.74-8.46-4.35-12.62-.61-1.59-1.54-2.56-3-3.18-3.08-1.29-6.15-2.62-9.26-3.83-9.91-3.84-19.85-7.62-29.77-11.44-4.25-1.64-8.48-3.34-12.73-4.98-2.17-.84-4.21-1.94-6.36-2.82-2.44-.99-3.86-3.23-5.11-5.43-4.27-7.54-7.27-15.59-9.51-23.95-.07-.27.02-.58.05-1.13,2.58.34,4.83,1.43,7.18,2.19,1.99.64,3.72,2.19,6.03,1.72.04.48.09.97.13,1.45-1.72,0-3.28-.46-4.84-1.22-1.95-.95-4.01-1.71-6.21-1.98-.1-.07-.2-.14-.31-.21.07.1.14.2.21.3.05,1.11.04,2.2.46,3.28,2.65,6.76,4.96,13.65,8.69,19.95,1.27,2.14,2.91,3.48,5.16,4.36,5.64,2.21,11.21,4.6,16.86,6.77,2.34.9,4.69,1.88,7.22,2.22,0,0,.07.03.07.03.21.18.41.36.62.54,1.43.6,2.85,1.21,4.28,1.81,2.1,1.23,4.42,1.85,6.75,2.44,3.63,2.11,7.67,3.23,11.51,4.83,1.11.43,2.23.84,3.34,1.28,3.32,1.31,6.77,2.37,9.47,4.87.06.68,0,1.39.65,1.87.52,1.88,1.04,3.76,1.91,5.52-.1,1.19.33,2.17,1.18,2.99-.15,1.27.58,2.32.82,3.5.41,1.98,1.56,3.1,3.55,3.62,3.01.78,5.98,1.76,8.95,2.71,3.74,1.2,7.46,2.45,11.18,3.71.83.28,1.59.61,1.76-.69,6.16,1.59,12.24,3.45,18.26,5.54,4.3,1.49,8.63,2.88,12.95,4.33.66.22,1.34.68,1.77-.32,2.33,1.84,4.35,4,6.35,6.19Z"/>
      <path class="cls-3" d="M116.35,58.9c3.98,1.39,7.97,2.78,11.95,4.17,2.35,1.86,5.24,2.63,7.93,3.76,7.02,2.93,14.08,5.75,21.12,8.61.56.23,1.1.52,1.67.73,3.84,1.38,5.81,4.21,6.36,8.15-1.79.38-3.39-.36-4.99-.93-5.25-1.87-10.47-3.83-15.72-5.71-7.26-2.59-14.53-5.15-21.8-7.69-1.08-.38-2.19-.71-2.59-1.89-1.07-3.17-3.08-5.93-3.93-9.19Z"/>
      <path class="cls-10" d="M126.12,57.08c-.7-.04-1.49.1-2.09-.16-7.22-3.17-14.65-5.81-21.99-8.69-7.05-2.77-14.1-5.56-21.13-8.38-3.94-1.58-7.96-2.96-11.92-4.51-4.24-1.66-8.46-3.36-12.65-5.13-.83-.35-2.42-.66-1.87-1.88.5-1.12,1.79-.24,2.7.07.95.33,1.88.75,2.8,1.18,3.56,1.66,7.26,2.87,11.05,3.91,3.21.88,6.27,2.3,9.4,3.45,5.88,2.17,11.73,4.41,17.65,6.46,8.42,2.91,16.71,6.18,25.02,9.39.75.29,1.55.44,2.33.65.35,1.2.77,2.38.71,3.66Z"/>
      <path class="cls-7" d="M110.19,76.64c-.64-.47-.59-1.19-.65-1.87,1.14.09,1.88-.74,2.65-1.32,1.52-1.15,3.05-1.41,4.81-.75,4.32,1.64,8.85,2.62,13.16,4.34,2.22.89,4.47,1.89,6.93,2.04,3.49,1.3,6.95,2.68,10.47,3.88,1.55.53,2.52,1.29,3.16,2.88,1.77,4.39,3.79,8.69,5.3,13.18.8,2.37,2.21,3.74,4.75,3.86,3.66,1.58,7.38,3,11.21,4.15.18.17.36.34.53.5-.43,1-1.11.54-1.77.32-4.31-1.45-8.65-2.84-12.95-4.33-6.01-2.09-12.09-3.95-18.26-5.54-2.09-1.52-4.63-2.02-6.99-2.73-2.44-.74-3.77-2.1-4.74-4.22-.46-1.01-.87-2.23-2-2.58-4.13-1.28-8.12-3.11-12.53-3.32-.84-.82-1.27-1.8-1.18-2.99,3.53,1.22,7.01,2.6,10.61,3.6,3.18.88,5.86,2.15,6.98,5.5.61,1.82,2.12,2.33,3.72,2.75,4.32,1.14,8.51,2.62,12.69,4.19,2.46.93,4.97,1.7,7.46,2.55.48.16.99.4,1.42,0,.48-.45.1-.93-.09-1.37-1.73-4.1-3.61-8.15-5.15-12.33-.69-1.87-1.82-2.69-3.58-3.25-6.64-2.13-13.25-4.38-19.87-6.59-3.27-1.09-6.55-2.13-9.79-3.29-1.32-.47-2.36-.35-3.3.69-.83.92-1.86,1.56-2.99,2.06Z"/>
      <path class="cls-3" d="M171.96,107.04c-3.82-1.15-7.54-2.58-11.2-4.15,1.5-.22,2.23-1.12,1.75-2.55-1.07-3.22-1.45-6.63-3.38-9.62-1.44-2.24-2.5-4.8-3.11-7.47,3.48.56,6.63,2.18,10,3.07,1.71,5.02,2.64,10.24,4.11,15.33.53,1.83,1.02,3.66,1.82,5.39Z"/>
      <path class="cls-3" d="M171.75,140.39c1.04-2.24,3.43-2.68,5.25-3.83,2.91-1.83,5.98-3.42,8.98-5.11.82,2.94.05,6.1,1.24,8.99-.74,1.63-2.48,1.83-3.8,2.63-.32-.45-.8-.55-1.31-.65-3.46-.66-6.91-1.35-10.37-2.03Z"/>
      <path class="cls-7" d="M166.03,86.32c-3.38-.89-6.53-2.51-10.01-3.07-.46-.2-.91-.42-1.39-.58-5.44-1.83-10.89-3.65-16.33-5.48-.35-.55-.95-.78-1.51-.97-4.52-1.51-9.02-3.07-13.58-4.43-1.43-.43-2.92-.96-3.51-2.14-1.57-3.16-2.79-6.5-4.14-9.77-.28-.69.19-.87.72-.99,0,0,.06,0,.06,0,.85,3.26,2.86,6.02,3.93,9.19.4,1.19,1.51,1.52,2.59,1.89,7.28,2.54,14.55,5.1,21.8,7.69,5.25,1.88,10.47,3.84,15.72,5.71,1.6.57,3.2,1.31,4.99.93,0,0,.03.08.03.08-.2.35-.03.58.25.78.12.38.24.76.36,1.13Z"/>
      <path class="cls-3" d="M165.67,85.18c-.28-.2-.45-.43-.25-.78.3.19.33.47.25.78Z"/>
      <path class="cls-6" d="M127.44,59.43c-.11-.1-.14-.22-.08-.35,0,0,.18.15.18.15l-.09.2Z"/>
      <path class="cls-6" d="M188.5,135.23c.23.12.32.31.26.56-.24-.12-.33-.31-.26-.56Z"/>
      <path class="cls-3" d="M73.5,58.99c-2.53-.34-4.87-1.32-7.22-2.22-5.65-2.18-11.22-4.57-16.86-6.77-2.26-.88-3.9-2.23-5.16-4.36-3.73-6.3-6.04-13.19-8.69-19.95-.42-1.08-.41-2.17-.46-3.28l.1-.1c2.19.27,4.26,1.03,6.21,1.98,1.56.76,3.13,1.22,4.84,1.22.89,1.59,1.91,3.12,2.63,4.78,1.02,2.36,2.91,3.39,5.16,4.29,4.96,1.97,10.12,3.47,14.85,6-1.66.28-1.52,1.34-1.08,2.5,1.6,4.26,3.19,8.52,4.82,12.77.4,1.03,1.13,1.95.86,3.16Z"/>
      <path class="cls-3" d="M116.29,58.9c-.53.12-1,.3-.72.99,1.35,3.27,2.57,6.61,4.14,9.77.59,1.18,2.08,1.71,3.51,2.14,4.56,1.36,9.06,2.92,13.58,4.43.56.19,1.16.41,1.51.97-.75.42-1.23,1-1.22,1.9-2.46-.15-4.71-1.16-6.93-2.04-4.3-1.72-8.84-2.7-13.16-4.34-1.76-.67-3.29-.4-4.81.75-.77.58-1.51,1.41-2.65,1.32-2.71-2.5-6.15-3.56-9.47-4.87-1.11-.44-2.22-.85-3.34-1.28.28-1.18-.34-2.19-.72-3.21-.91-2.46-2.04-4.85-2.95-7.31-1.15-3.11-2.95-6-3.18-9.43,7.36,2.76,14.73,5.47,22.06,8.3,1.47.57,3.15.74,4.35,1.92Z"/>
      <path class="cls-7" d="M89.88,48.68c.23,3.42,2.03,6.32,3.18,9.43.91,2.46,2.04,4.85,2.95,7.31.37,1.02,1,2.03.72,3.21-3.84-1.6-7.88-2.72-11.51-4.83.12-1.35-.36-2.59-.8-3.82-1.54-4.26-3.16-8.5-4.65-12.78-.25-.71-1.15-1.65.1-2.38,3.48.92,6.65,2.63,10.02,3.86Z"/>
      <path class="cls-3" d="M79.86,44.82c-1.25.73-.35,1.67-.1,2.38,1.5,4.28,3.12,8.51,4.65,12.78.44,1.23.92,2.47.8,3.82-2.33-.59-4.65-1.2-6.75-2.44-.02-.4.05-.84-.09-1.19-1.4-3.76-2.9-7.48-4.23-11.27-.82-2.34-2.17-4.52-2.29-7.08,2.87.46,5.45,1.72,8.01,3Z"/>
      <path class="cls-7" d="M71.86,41.81c.12,2.57,1.47,4.75,2.29,7.08,1.33,3.78,2.83,7.51,4.23,11.27.13.36.06.79.09,1.19-1.43-.6-2.85-1.21-4.28-1.81-.21-.18-.41-.36-.62-.54,0,0-.07-.03-.07-.03.27-1.2-.47-2.13-.86-3.16-1.63-4.25-3.23-8.51-4.82-12.77-.44-1.17-.58-2.23,1.08-2.5.71.25,1.43.5,2.14.76.25.17.49.33.74.5h.08Z"/>
      <path class="cls-3" d="M71.77,41.82c-.25-.17-.49-.33-.74-.5.36,0,.66.09.74.5Z"/>
      <path class="cls-7" d="M171.75,140.39c3.46.68,6.91,1.37,10.37,2.03.51.1.99.2,1.31.65-.41.22-.81.44-1.22.65-4.32-.93-8.82-.89-13.01-2.5.26-.22.52-.44.78-.66.22-.05.43-.09.65-.14.38-.01.75-.02,1.13-.03Z"/>
      <path class="cls-10" d="M248.02,121.74c3.15.3,6.06-1.1,9.14-1.31,1.01.02,2.18.38,3.01,0,3.02-1.38,5.23.76,7.73,1.55.51.16,1.09.73,1.26,1.24.46,1.37,1.57,2.39,1.97,3.74.8,2.65,2.82,3.76,5.24,3.79,3.85.04,7.62,1.1,11.48.65.75.01,1.51.02,2.26.03,3.21,1.06,6.66.3,9.89,1.22.45.13,1-.06,1.49-.14,3.48-.56,6.19-2.36,8.24-5.19.55-.29.94-.74,1.19-1.3,2.35-2.5,4.86-4.87,6.99-7.55,1.27-1.59,2.91-2.83,3.97-4.58.26-.23.53-.46.79-.69.81.94.25,1.65-.38,2.37-2.37,2.74-4.7,5.51-7.08,8.23-1.85,2.12-3.75,4.2-5.64,6.3-.35.4-.53.85-.5,1.38l-.02.02c-.99-.18-1.73.31-2.5.86-1.18.83-2.57,1.42-3.95,1.47-3.34.13-6.71.18-10.04-.08-5.02-.39-10.02-1.47-15.04-1.52-3.93-.04-6.31-1.61-8-4.84-.24-.45-.44-.92-.71-1.35-1.58-2.45-3.58-4.04-6.75-3.76-4.83.43-9.61,1.14-14.39,1.95-.14-.86.1-1.67.32-2.49Z"/>
      <path class="cls-7" d="M310.92,126c-.26.56-.64,1.01-1.19,1.3-.9-.08-1.85,0-2.69-.28-2.88-.93-5.93-.86-8.85-1.56-1.02-.24-2.33-.48-3.19.37-1.76,1.74-3.97,3.11-4.91,5.58-.75,0-1.51-.02-2.26-.03,1.89-2.2,3.78-4.4,5.68-6.6.77-.89,1.65-1.39,2.91-1.1,3.9.92,7.89,1.23,11.85,1.71.89.11,1.75.39,2.63.6Z"/>
      <path class="cls-7" d="M298.71,109.53c.1,2.14-.03,4.24-.97,6.44-5.28-.52-10.49-1.66-15.74-2.73,1.18-.93,2.55-.82,3.7-.49,2.77.78,5.64.29,8.44.97,2.15.52,2.51.05,3.19-2.17.25-.83.06-1.93,1.39-2.01h0Z"/>
      <path class="cls-7" d="M295.86,108.95c-3.25,1.05-6.29-.26-9.41-.66,3.22-1.05,6.32-.21,9.41.66Z"/>
      <path class="cls-10" d="M326.18,109.53c.2-.21.4-.41.59-.62-.2.21-.4.41-.59.62Z"/>
      <path class="cls-7" d="M322.68,113.19c-.26.23-.53.46-.79.69.13-.38.4-.61.79-.69Z"/>
      <path class="cls-3" d="M247.69,124.23c4.77-.81,9.56-1.52,14.39-1.95,3.17-.28,5.18,1.3,6.75,3.76.27.43.47.9.71,1.35,1.69,3.22,4.06,4.8,8,4.84,5.02.05,10.01,1.12,15.04,1.52,3.33.26,6.7.21,10.04.08,1.39-.05,2.77-.64,3.95-1.47.77-.54,1.51-1.03,2.5-.86-1.81,2.39-4.13,3.69-7.22,3.71-5.27.03-10.47-.66-15.69-1.11-3.41-.3-6.84-.62-10.27-.71-3.34-.09-5.97-1.01-6.94-4.59-.08-.29-.25-.55-.39-.82-2.01-3.91-4.31-4.86-8.67-4.22-4.08.6-8.11,1.61-12.26,1.6.02-.37.04-.75.06-1.12Z"/>
      <path class="cls-3" d="M170.63,140.42c-.22.05-.43.09-.65.14.17-.29.38-.36.65-.14Z"/>
      <path class="cls-7" d="M268.22,156.46c.43,0,.86,0,1.29.01-.43.59-.86.72-1.29-.01Z"/>
      <path class="cls-8" d="M154.76,115.67c3.58.22,6.95,1.41,10.37,2.34-.18,2.18-2.47,2.38-3.62,3.69-1.05,1.2-2.88,1.34-4.77.89-1.94-.47-3.93-.73-5.83-1.42-.67-.24-1-.62-1.06-1.29,1.6-1.46,3.61-2.43,4.92-4.23v.03Z"/>
      <path class="cls-7" d="M134.61,109.92c1.09.63,1.18,1.44,1.2,2.23.04,1.37.6,1.53,1.94,1.39,4-.41,7.99-1.01,12.02-.96.55,0,1.22-.18,1.59.78-1.18.8-2.66.6-3.93.86-3.24.66-6.55.99-9.84,1.37-2.31.27-2.87-.25-2.99-2.6-.05-.96,0-1.93,0-3.09Z"/>
      <path class="cls-7" d="M154.77,115.65c-1.3,1.8-3.32,2.78-4.92,4.23-3.65.31-7.25-.38-10.87-.58-.84-.05-1.64-.2-1.62-1.65,2.15.79,4.35.24,6.52.75,2.8.65,5.58.81,7.91-1.53.76-.76,1.73-1.45,2.98-1.22Z"/>
      <path class="cls-7" d="M146.72,107.98c-2.98,1.65-6.27.23-9.31,1.22,2.87-2.27,6.19-1.12,9.31-1.22Z"/>
      <path class="cls-8" d="M166.38,118.08c.16.01.32.02.49.03-.18.35-.34.28-.49-.03Z"/>
      <path class="cls-3" d="M305.03,63.06c3.61-.69,6.86-2.39,10.26-3.66,8.65-3.22,17.24-6.59,25.86-9.88.94-.36,1.94-.55,2.91-.82-.16,1.2-.49,2.33-1.04,3.43-2.05,4.03-3.48,8.31-5.22,12.47-.46,1.1-.86,2.26-.64,3.51l.03-.04c-.19.18-.38.37-.57.55-1.12.42-2.26.82-3.37,1.28-3.3,1.38-6.87,2.21-9.5,4.89-1.57-.27-2.69-1.32-3.85-2.29-.68-.57-1.31-.79-2.21-.46-2.47.89-4.98,1.68-7.47,2.51-5.08,1.69-10.17,3.38-15.25,5.07.49-.83,1.05-1.66.03-2.51,3.45-1.98,7.4-2.65,11.05-4.1,2.34-.92,5.22-.98,6.97-2.73,1.82-1.81,2.35-4.62,3.33-7.05.27-.68,1.02-1.36-.02-2.37-1.31,1.6-2.23,3.42-2.76,5.26-.74,2.59-2.36,3.69-4.77,4.47-5.96,1.94-11.82,4.17-17.76,6.2-7.85,2.67-15.48,5.95-23.4,8.4-.17-.96.38-1.76.6-2.63.73-2.95,2.49-4.87,5.41-6,7.06-2.74,14.07-5.61,21.04-8.58,3.51-1.5,7.28-2.49,10.35-4.92Z"/>
      <path class="cls-3" d="M262.01,96.71c-.05.4-.1.8-.14,1.2-1.16.34-1.24.98-.5,1.84-.07.4-.14.81-.2,1.21-1.32.48-.83,1.59-.87,2.51,0,0,.02-.02.02-.02-.29.07-.71.03-.86.21-3.15,3.87-7.04,6.92-10.87,10.07-1.85,1.52-3.63,3.42-4.08,5.87-.44,2.36-.9,4.76-.75,7.22.13,2.12.18,4.27-.04,6.38-.23,2.25-.06,4.77-2.25,6.32-2.33,1.66-4.22,3.78-6.3,5.7-2.42,2.22-3.38,1.91-4.12-1.35-1.58-6.93-2.07-13.97-1.91-21.07.05-1.99.37-3.88,1.38-5.53,2.07-3.36,3.59-7,5.64-10.37,1.22-2.02,2.83-4.02,2.69-6.64,1.18-3.11,3-5.83,5.05-8.41.58,0,1.16,0,1.73,0-.45.9-.85,1.83-1.35,2.7-1.01,1.73-2.06,3.42-3.11,5.12-.34.55-.6,1.17-.05,1.63.46.38.91-.09,1.3-.41.23-.19.49-.35.74-.52.24,1.09-.51,1.98-.61,3-.21.06-.42.12-.63.18-1.67,3.43-3.75,6.61-5.68,9.88-1.73,2.93-3.79,5.87-3.94,9.43-.24,5.76-.18,11.52.61,17.25.09.68.3,1.2,1.15.84,2.05-.6,3.06-2.51,4.67-3.67,1.14-.83,1.56-1.92,1.58-3.35.03-1.99-.18-4.01.35-5.98.48-.37.91-.75.18-1.29,0-.3-.01-.6,0-.9.16-4.75.34-9.49,4.77-12.64.14-.1.16-.36.24-.54.3-.44.57-.88-.14-1.21l-.03.04c1.64.81,2.18-.42,2.8-1.51,0,0,.27-.07.27-.07,2.78-1.04,4.36-3.55,6.53-5.33,1.32-1.08,1.99-2.49,2.39-4.12,1.42-5.71,2.89-11.4,4.34-17.1.09-.1.12-.21.1-.35.11-.48.23-.96.34-1.43.81-.72.87-1.79,1.26-2.71,1.11-2.58,2.69-4.74,5.28-5.97,5.81-2.77,11.76-5.21,17.88-7.22.59.03,1.16.02,1.47-.61h0c1.13.17,2.01-.22,2.64-1.17l.18-.04c.43-.02.76-.22,1.03-.54,2.25-1.11,4.48-2.28,7.02-2.58-.19,1.33-1.43,1.18-2.26,1.63-.72.39-1.91.24-1.87,1.55,0,0,.02-.02.02-.02-.44.05-1.16-.03-1.27.18-.2.41.39.39.68.5-2.2,1-4.38,2.05-6.61,3-5.59,2.38-11.24,4.59-16.82,6.99-3.21,1.38-4.86,3.68-5.94,6.78-1.46,4.21-2.24,8.6-3.48,12.87-.24.85-.45,1.81.36,2.56Z"/>
      <path class="cls-10" d="M323.74,74.79c2.63-2.67,6.21-3.51,9.5-4.89,1.11-.46,2.24-.86,3.37-1.28.19-.18.38-.37.57-.55,0,0-.03.04-.03.04,3.66-.61,6.92-2.3,10.25-3.8,2.43-1.13,5.13-1.54,7.46-2.93,1.54-.34,2.87-1.14,4.26-1.83,6.09-1.86,11.87-4.54,17.82-6.75,1.6-.6,3.17-1.42,4.82-1.73,3.12-.59,5.26-2.42,6.91-4.9,3.8-5.68,5.99-12.1,8.2-18.5.61-1.77,1.41-3.5,1.7-5.77-2.4.85-4.56,1.6-6.72,2.38-1.42.51-2.78,1.24-4.36,1.08.08-.43.16-.85.25-1.28,4.21-1.05,8.06-3.3,12.34-3.94.63.57.56,1.2.37,1.77-2.35,6.91-4.46,13.9-7.75,20.45-.82,1.63-1.71,3.23-2.71,4.75-1.57,2.37-3.9,3.83-6.5,4.82-11.37,4.32-22.61,8.94-33.98,13.25-7.1,2.69-14.15,5.55-21.2,8.39-2.26.91-3.45,2.8-4.23,4.93-1.12,3.04-2.43,6.06-3.02,9.22-.7,3.82-3.1,5.41-6.39,6.46-13.32,4.26-26.56,8.79-39.76,13.42-4.77,1.67-9.61,3.15-14.45,4.6-2.32.69-4.42,2.05-6.9,2.22,2.09-2.63,4.76-4.64,7.28-6.81.94,1.47,2.02.34,2.92.05,11.3-3.71,22.58-7.49,33.87-11.23,1.14-.38,2.25-.92,3.5-.93,1.15.19,2.16.74,3.48.24,3.84-1.44,7.78-2.64,11.68-3.92.98-.32,1.93-.76,2.24-1.82.53-1.81,1.54-3.5,1.5-5.47.27-.61.54-1.23.82-1.84,1.32-1.8,1.61-3.99,2.28-6.03.63-.47.56-1.18.61-1.85Z"/>
      <path class="cls-7" d="M331.41,51.01s-.15.02-.15.02c-.58-.02-1.13,0-1.44.6h.03c-.69-.03-1.4-.08-1.83.64,0,0,.01,0,.01,0-.52-.02-1,.04-1.24.59,0,0,0,0,0,0-.69-.03-1.4-.08-1.83.64h0c-.52-.02-.99.05-1.25.58h0c-.69-.04-1.39-.08-1.83.62,0,0,.01,0,.01,0-.59-.06-1.08.16-1.5.57-.4.38-.84.68-1.43.68-.74-.09-1.47-.15-1.97.58h.01c-.71,0-1.47-.11-1.8.77-.17.15-.34.29-.51.44-.72-.01-1.52-.26-1.98.59h0c-.7-.07-1.41-.12-1.82.64,0,0,0,0,0,0-1.17-.18-2.03.32-2.72,1.21,0,0-.07.01-.07.02-.6-.04-1.16,0-1.48.62,0,0,0,.01,0,.01-.5-.31-.56-.84-.67-1.35.19-.37.38-.74.57-1.1.59-.15,1.18-.29,1.76-.46,6.12-1.86,11.87-4.7,17.86-6.92,16.45-6.11,32.6-12.98,49.07-19.03,1.42-.52,2.77-1.28,4.03-2.11.64-.42,1.27-1.35.9-2.1-.51-1.05-1.42-.25-2.11,0-6.3,2.26-12.6,4.53-18.89,6.83-14.19,5.2-28.38,10.43-42.57,15.63-2.29.84-4.62,1.55-6.92,2.34-1.09.37-1.21-.27-1.21-1.08,0,0,0-.13,0-.13,1.16-.38,2.33-.72,3.47-1.15,9.6-3.58,19.19-7.16,28.77-10.78,13.57-5.13,27.33-9.72,40.79-15.14.54-.22,1.12-.75,1.67-.27.61.54.45,1.36.16,2-.53,1.19-1.43,2.25-1.08,3.69h0c-.88-.05-1.21.43-1.18,1.25,0,0,0,0,0,0-.34.07-.53.29-.61.61,0,0,0,0,0,0-.39.11-.62.35-.69.75-.52.16-1.03.32-1.55.48-.65-.03-1.24.05-1.47.79-.52.14-1.04.28-1.57.42-.59-.04-1.14,0-1.46.59h.02c-.7-.06-1.41-.12-1.83.63h.01c-1.22-.1-2.27.26-3.07,1.21h.02c-1.21-.08-2.26.28-3.07,1.22h.02c-.7-.05-1.4-.09-1.84.62h.02c-.52-.04-1,.04-1.26.58,0,0,.02-.01.02-.01-.7-.03-1.41-.11-1.84.64h.02c-1.22-.1-2.28.23-3.07,1.22h.01c-1.23-.11-2.26.27-3.06,1.23,0,0,.02-.01.02-.01-.53-.03-1,.05-1.25.6,0,0,.02-.01.02-.01-.7-.05-1.41-.09-1.83.64h.02c-1.22-.09-2.27.24-3.07,1.22h.02c-.7-.05-1.41-.11-1.84.62h.02c-.53-.04-1,.04-1.26.58h.02c-.7-.05-1.4-.09-1.85.62,0,0,.03-.02.03-.02-1.8.17-3.52.55-4.89,1.86h.01c-.7-.05-1.4-.11-1.83.63,0,0,.01,0,.01,0-.52-.02-1,.05-1.25.59h.02c-.7-.04-1.41-.11-1.83.63,0,0,.01,0,.01,0-.53-.03-1,.06-1.25.6,0,0,.02-.01.02-.01-.6-.07-1.08.17-1.48.6Z"/>
      <path class="cls-10" d="M308.48,51.44c0,.81.12,1.46,1.21,1.08,2.3-.79,4.64-1.5,6.92-2.34,14.2-5.2,28.38-10.43,42.57-15.63,6.29-2.3,12.59-4.57,18.89-6.83.69-.25,1.6-1.05,2.11,0,.36.75-.26,1.67-.9,2.1-1.27.83-2.62,1.59-4.03,2.11-16.47,6.05-32.63,12.92-49.07,19.03-5.99,2.23-11.73,5.07-17.86,6.92-.58.18-1.17.31-1.76.46.84-2.21,1.43-4.48,1.45-6.86.16.05.32.03.47-.05Z"/>
      <path class="cls-7" d="M301.12,95.48c-1.24.01-2.35.55-3.5.93-11.29,3.74-22.57,7.52-33.87,11.23-.9.3-1.99,1.42-2.92-.05.28-.34.55-.67.82-1.01,3.17-.03,5.89-1.34,8.49-3.01.5-.08,1-.15,1.5-.24,2.79-.51,4.68-1.87,5.71-4.74,1.61-4.48,3.71-8.78,5.43-13.23.54-1.4,1.38-2.1,2.7-2.53,3.17-1.05,6.32-2.14,9.48-3.21,5.08-1.69,10.17-3.38,15.25-5.07,2.49-.83,5-1.62,7.47-2.51.9-.33,1.53-.11,2.21.46,1.15.97,2.27,2.02,3.85,2.29-.05.67.02,1.37-.61,1.85-.99-.69-2.09-1.27-2.96-2.09-1.22-1.13-2.44-1.18-3.9-.62-2.36.9-4.75,1.71-7.12,2.56-3.51,1.25-7.16,2.1-10.53,3.72-4.41,1.46-8.82,2.92-13.24,4.38-.75.25-1.09.81-1.34,1.52-.3.86-.72,1.67-1.07,2.51-1.26,2.98-2.55,5.95-3.74,8.95-.36.91-1.15,1.99-.49,2.87.77,1.02,1.95.1,2.77-.18,5.55-1.88,11.04-3.91,16.56-5.9,3.17-.24,5.64-1.47,6.68-4.73.62-1.93,1.99-2.93,3.94-3.37,1.28-.29,2.47-.95,3.76-1.2,2.88-.56,5.39-2.35,8.41-2.39-.27.61-.54,1.23-.82,1.84-3.95.73-7.64,2.36-11.5,3.37-1.15.3-1.87,1.14-2.26,2.24-.9,2.58-2.45,4.51-5.15,5.36Z"/>
      <path class="cls-10" d="M262.01,96.71c-.81-.75-.6-1.71-.36-2.56,1.23-4.27,2.01-8.66,3.48-12.87,1.08-3.11,2.73-5.4,5.94-6.78,5.58-2.4,11.23-4.62,16.82-6.99,2.23-.95,4.41-2,6.61-3,.2-.23.39-.46.59-.68,0,0-.02.02-.02.02,2.01.08,3.55-1.27,5.36-1.8.71-.21,1.16-.77,1.34-1.51.68-2.71,1.7-5.35,1.75-8.2-1.27-1.52-2.51-.13-3.51.28-4.4,1.79-8.95,3.14-13.29,5.09-5.89,2.65-12.07,4.55-18.09,6.88-2.54.98-5.12,2.02-7.42,3.45-2.05,1.28-4.47,2.56-4.53,5.58l-.02.03c-1.62.14-1.93,1.6-2.6,2.65-.6.93-.91,2.07-2.24,2.25l-.1-.08c1.4-3.17,3.25-6.06,5.51-8.69,1.97-2.29,4.52-3.7,7.31-4.78,11.9-4.61,23.78-9.26,35.67-13.87,1.13-.44,2.14-1.15,3.39-1.32,2.07-.27,2.96.49,2.51,2.49-.64,2.86-1.46,5.68-2.26,8.5-.43,1.52-1.67,2.15-3.05,2.71-7.16,2.86-14.3,5.77-21.43,8.69-2.63,1.08-5.23,2.23-7.84,3.35-2.27.98-3.77,2.63-4.61,4.97-1.73,4.78-2.91,9.7-4.22,14.6-.16.58-.13,1.22-.7,1.62Z"/>
      <path class="cls-10" d="M238.86,100.27c.14,2.63-1.47,4.63-2.69,6.64-2.05,3.37-3.57,7.01-5.64,10.37-1.01,1.64-1.34,3.54-1.38,5.53-.16,7.1.33,14.14,1.91,21.07.74,3.26,1.69,3.57,4.12,1.35,2.09-1.91,3.97-4.04,6.3-5.7,2.18-1.55,2.02-4.07,2.25-6.32.22-2.11.17-4.26.04-6.38-.15-2.46.31-4.86.75-7.22.46-2.46,2.23-4.35,4.08-5.87,3.83-3.15,7.72-6.19,10.87-10.07.15-.18.56-.15.86-.21-.05,2.18-1.54,3.46-3.05,4.66-3.34,2.65-6.6,5.36-9.45,8.56-1.5,1.68-2.4,3.48-2.33,5.74.15,4.57-.7,9.1-.65,13.66.02,1.66-.71,2.98-1.84,4.02-2.76,2.54-5.57,5.03-8.41,7.48-2.21,1.9-4.85,1.04-5.09-1.79-.3-3.44-1.26-6.75-1.61-10.19-.39-3.86-.35-7.69-.46-11.53-.07-2.39.38-4.7,1.46-6.77,3.04-5.84,6.38-11.51,9.98-17.02Z"/>
      <path class="cls-3" d="M270.14,103.57c-2.59,1.67-5.31,2.98-8.49,3,2.13-6.55,3.65-13.26,5.33-19.93.1-.4.17-.78.52-1.04.47.68,1.08.29,1.6.15,1.99-.56,3.97-1.17,5.95-1.76.14,2.53-1.1,4.67-2.04,6.87-1.38,3.21-2.81,6.4-3.37,9.89-.16,1.01-.38,2,.5,2.82Z"/>
      <path class="cls-3" d="M249.89,143.08c-1.56-.46-2.93-1.19-3.78-2.67.92-1.78.77-3.71.87-5.62.05-1.1.26-2.2.4-3.3,4.73,2.65,9.45,5.3,14.18,7.96.61.34,1.32.51,1.75,1.13-4.53.54-9.13.71-13.42,2.5Z"/>
      <path class="cls-7" d="M275.06,83.99c-1.98.59-3.96,1.2-5.95,1.76-.53.15-1.13.53-1.6-.15,0-.15.04-.29.13-.41,7.93-2.45,15.56-5.72,23.4-8.4,5.94-2.02,11.8-4.26,17.76-6.2,2.41-.78,4.03-1.89,4.77-4.47.53-1.84,1.45-3.67,2.76-5.26,1.05,1.01.3,1.7.02,2.37-.98,2.43-1.51,5.24-3.33,7.05-1.76,1.74-4.64,1.8-6.97,2.73-3.65,1.44-7.6,2.11-11.05,4.1-6.65,2.3-13.3,4.59-19.94,6.88Z"/>
      <path class="cls-10" d="M246.77,86.9c1.41-2.96,3.06-5.79,4.96-8.46,0,0,.1.08.1.08-.12.98-.05,2-.8,2.83-.67.74-.5,1.69-.46,2.59v.03c-1.33.02-1.28.91-1.19,1.83-.03.18-.07.36-.12.55-.18.21-.36.43-.54.64,0,0,0,.01,0,.01-.59.01-1.19.03-1.78.04l-.15-.14Z"/>
      <path class="cls-10" d="M245.64,91.86c-.58,0-1.16,0-1.73,0,.6-1.86,1.58-3.5,2.86-4.96,0,0,.15.14.15.14,0,.8-.01,1.61-.02,2.42-.04.18-.06.37-.08.55-1.2.1-1.21.96-1.19,1.85h0Z"/>
      <path class="cls-10" d="M261.37,99.75c-.74-.86-.66-1.49.5-1.84.18.7.12,1.34-.5,1.84Z"/>
      <path class="cls-10" d="M260.3,103.47c.04-.92-.45-2.03.87-2.51.13.98-.11,1.83-.87,2.51Z"/>
      <path class="cls-10" d="M305.99,59.46c.11.51.17,1.04.67,1.35-.17.58-.71.62-1.16.79-.07-.77-.27-1.56.49-2.14Z"/>
      <path class="cls-10" d="M248.55,119.8c.04.36-.17.58-.44.77-.05-.37.05-.65.44-.77Z"/>
      <path class="cls-10" d="M253.56,114.39c-.14.36-.4.54-.77.59.26-.2.52-.39.77-.59Z"/>
      <path class="cls-10" d="M382.28,29.67c-.35-1.44.55-2.5,1.08-3.69.28-.63.45-1.46-.16-2-.55-.49-1.14.05-1.67.27-13.46,5.42-27.22,10.01-40.79,15.14-9.58,3.62-19.18,7.2-28.77,10.78-1.14.43-2.31.77-3.47,1.15.04-1.16.9-1.39,1.79-1.72,6.71-2.48,13.41-4.98,20.11-7.51,6.03-2.28,12.05-4.59,18.07-6.91.46-.18.88-.49,1.31-.74,9.18-3.13,18.23-6.63,27.23-10.23,1.99-.79,4.06-1.23,6.11-1.78.93-.25,1.8-.23,2.52.54-.51,2.53-1.18,4.99-3.35,6.69Z"/>
      <path class="cls-3" d="M387.49,25.34c1.58.17,2.95-.56,4.36-1.08,2.15-.78,4.31-1.53,6.72-2.38-.29,2.27-1.09,4-1.7,5.77-2.2,6.4-4.4,12.82-8.2,18.5-1.66,2.48-3.79,4.32-6.91,4.9-1.66.31-3.22,1.13-4.82,1.73-5.96,2.21-11.74,4.89-17.82,6.75.11-.39.15-.81.32-1.16,2.56-5.31,4.35-10.91,6.37-16.43.35-.97.08-1.3-.81-1.43,4.57-2.41,9.49-4,14.28-5.9,2.31-.92,3.94-2.32,5.15-4.44.95-1.65,1.69-3.46,3.07-4.84Z"/>
      <path class="cls-7" d="M347.4,64.31c-3.33,1.51-6.58,3.2-10.25,3.8-.22-1.25.18-2.41.64-3.51,1.74-4.16,3.17-8.45,5.22-12.47.56-1.09.89-2.23,1.04-3.43,3.13-1.31,6.18-2.83,9.43-3.85.72.37.61.9.36,1.53-.92,2.35-1.88,4.69-2.67,7.09-1.2,3.64-3.16,7-3.79,10.84Z"/>
      <path class="cls-3" d="M347.4,64.31c.63-3.83,2.59-7.2,3.79-10.84.79-2.39,1.75-4.73,2.67-7.09.25-.63.35-1.16-.36-1.53,2.53-1.38,5.2-2.39,8.02-3.01.11,1.03-.07,1.99-.53,2.95-2.48,5.11-4.09,10.58-6.33,15.79-.13.3-.08.58.2.79-2.32,1.39-5.03,1.8-7.46,2.93Z"/>
      <path class="cls-7" d="M354.85,61.37c-.28-.21-.33-.49-.2-.79,2.24-5.21,3.85-10.68,6.33-15.79.46-.96.64-1.91.53-2.95,0,0,.05-.01.05-.01.24-.15.49-.31.73-.46.9-.28,1.81-.57,2.71-.85.89.12,1.16.46.81,1.43-2.02,5.52-3.81,11.12-6.37,16.43-.17.36-.22.77-.32,1.16-1.38.69-2.72,1.49-4.26,1.83Z"/>
      <path class="cls-10" d="M338.98,47.98c1.37-1.31,3.09-1.69,4.89-1.86-1.34,1.39-3.06,1.76-4.89,1.86Z"/>
      <path class="cls-10" d="M368.87,36.39c.81-.95,1.85-1.31,3.07-1.21-.59,1.51-1.85,1.32-3.07,1.21Z"/>
      <path class="cls-10" d="M365.82,37.61c.81-.94,1.86-1.29,3.07-1.23-.77,1.04-1.81,1.4-3.07,1.23Z"/>
      <path class="cls-10" d="M308.21,60.16c.69-.89,1.55-1.39,2.72-1.21-.49,1.35-1.59,1.31-2.72,1.21Z"/>
      <path class="cls-10" d="M348.74,44.33c.8-.97,1.85-1.3,3.07-1.22-.76,1.06-1.81,1.41-3.07,1.22Z"/>
      <path class="cls-10" d="M354.84,41.88c.8-.96,1.84-1.34,3.06-1.24-.76,1.05-1.81,1.39-3.06,1.24Z"/>
      <path class="cls-10" d="M357.89,40.66c.79-.99,1.84-1.32,3.07-1.23-.77,1.05-1.81,1.39-3.07,1.23Z"/>
      <path class="cls-10" d="M381.1,30.92c-.03-.82.3-1.3,1.18-1.26.06.85-.29,1.31-1.18,1.26Z"/>
      <path class="cls-10" d="M310.92,58.95c.41-.76,1.11-.7,1.82-.64-.37.87-1.1.74-1.82.64Z"/>
      <path class="cls-10" d="M346.92,44.94c.44-.73,1.14-.67,1.84-.63-.39.86-1.13.71-1.84.63Z"/>
      <path class="cls-10" d="M351.79,43.11c.43-.74,1.13-.69,1.83-.64-.39.85-1.12.73-1.83.64Z"/>
      <path class="cls-10" d="M321.91,54.7c.44-.71,1.14-.66,1.83-.63-.38.87-1.12.71-1.83.63Z"/>
      <path class="cls-10" d="M343.84,46.14c.45-.71,1.15-.66,1.85-.63-.41.83-1.15.69-1.85.63Z"/>
      <path class="cls-10" d="M317.02,56.52c.5-.73,1.23-.67,1.97-.58-.51.69-1.22.7-1.97.58Z"/>
      <path class="cls-10" d="M324.97,53.49c.43-.72,1.13-.67,1.83-.64-.38.88-1.12.7-1.83.64Z"/>
      <path class="cls-10" d="M371.93,35.18c.43-.74,1.13-.68,1.83-.64-.39.83-1.11.74-1.83.64Z"/>
      <path class="cls-10" d="M337.16,48.61c.43-.74,1.13-.68,1.83-.64-.38.86-1.13.7-1.83.64Z"/>
      <path class="cls-10" d="M315.23,57.29c.33-.88,1.09-.77,1.8-.78-.34.86-1.16.6-1.8.78Z"/>
      <path class="cls-10" d="M328.02,52.27c.43-.72,1.14-.67,1.83-.66-.38.84-1.11.73-1.83.66Z"/>
      <path class="cls-10" d="M360.94,39.44c.43-.74,1.14-.67,1.84-.64-.39.84-1.13.71-1.84.64Z"/>
      <path class="cls-10" d="M363.99,38.23c.44-.71,1.14-.67,1.84-.63-.4.84-1.13.71-1.84.63Z"/>
      <path class="cls-10" d="M334.11,49.83c.43-.74,1.14-.67,1.83-.64-.39.85-1.12.71-1.83.64Z"/>
      <path class="cls-10" d="M312.74,58.32c.46-.85,1.26-.6,1.98-.59-.51.69-1.22.74-1.98.59Z"/>
      <path class="cls-10" d="M320.42,55.26c.42-.41.91-.63,1.5-.57-.3.72-.89.66-1.5.57Z"/>
      <path class="cls-10" d="M323.73,54.07c.26-.53.73-.6,1.25-.59-.21.63-.7.68-1.25.59Z"/>
      <path class="cls-10" d="M326.78,52.86c.25-.55.73-.61,1.24-.59-.21.64-.69.68-1.24.59Z"/>
      <path class="cls-10" d="M345.67,45.52c.26-.53.74-.62,1.26-.59-.22.63-.72.66-1.26.59Z"/>
      <path class="cls-10" d="M329.82,51.63c.31-.6.87-.62,1.44-.6-.35.52-.84.69-1.44.6Z"/>
      <path class="cls-10" d="M331.41,51.01c.4-.43.88-.67,1.48-.6-.29.7-.88.67-1.48.6Z"/>
      <path class="cls-10" d="M332.87,50.42c.25-.54.72-.63,1.25-.6-.21.64-.7.67-1.25.6Z"/>
      <path class="cls-10" d="M306.66,60.8c.32-.61.88-.66,1.48-.62-.37.48-.85.73-1.48.62Z"/>
      <path class="cls-10" d="M376.78,33.54c.23-.74.82-.81,1.47-.79-.35.52-.91.65-1.47.79Z"/>
      <path class="cls-10" d="M353.61,42.48c.25-.55.72-.64,1.25-.6-.21.63-.7.68-1.25.6Z"/>
      <path class="cls-10" d="M335.92,49.2c.25-.54.73-.62,1.25-.59-.22.62-.71.66-1.25.59Z"/>
      <path class="cls-10" d="M373.75,34.56c.32-.6.88-.63,1.46-.59-.37.48-.84.72-1.46.59Z"/>
      <path class="cls-10" d="M362.76,38.81c.26-.54.73-.62,1.26-.59-.22.61-.71.66-1.26.59Z"/>
      <path class="cls-3" d="M362.29,41.37c-.24.15-.49.31-.73.46.1-.38.38-.48.73-.46Z"/>
      <path class="cls-10" d="M379.79,32.27c.07-.4.31-.64.69-.75-.08.39-.36.59-.69.75Z"/>
      <path class="cls-10" d="M380.48,31.52c.08-.33.28-.54.61-.61-.03.37-.25.57-.61.61Z"/>
      <path class="cls-3" d="M270.06,154.76c-.23-.86-.45-1.72-.68-2.58,1.48-.85,3.11-1.36,4.65-2.06,1.01-.46,2.48-.53,2.66-2.11,5.17,2.5,9.99,5.61,15.12,8.5-8.56,4.34-15.48,3.74-21.74-1.75Z"/>
      <path class="cls-3" d="M260.88,152.2c-.19-.19-.39-.39-.58-.58.19.19.39.39.58.58Z"/>
      <path class="cls-6" d="M167.61,76.35s-.04-.11-.04-.12c-.05-.53-.35-.82-.88-.86-.32-.32-.64-.64-.97-.96-.19-2.11-1.71-2.14-3.28-2.12,0,0-.11,0-.11,0-.52-1.48-1.73-1.31-2.9-1.23,0,0-.16,0-.16,0-.46-1.4-1.56-1.34-2.7-1.18,0,0,.01,0,.01,0-1.97-2.16-4.54-2.87-7.34-3.04,0,0,0,0,0,0-.39-.83-1.1-.75-1.82-.63,0,0,0,0,0,0-.59-1.5-1.83-1.33-3.06-1.21,0,0,0,0,0,0-.6-1.45-1.81-1.38-3.05-1.22,0,0,.01-.04.02-.04-1.02-1.75-2.99-1.87-4.57-2.68-1.25-.63-3.03-.73-3.31-2.97,7.84,3.72,15.79,6.53,23.52,9.86,1.11.48,2.26.89,3.39,1.34.28.11.63.38.84.3,3.79-1.48,6.07,1.45,8.78,3.01,3.72,2.15,4.98,6.23,7.23,9.53.28.41.31,1.01.64,1.35,2.78,2.92,4.05,6.66,5.6,10.24-.08.29-.06.67-.25.86-1.53,1.53-1.12,3.04-.12,4.65.91,1.45,1.71,2.97,2.53,4.48.63,1.15,1.23,2.32,1.8,3.5.37.78-.12,1.39-.62,1.88-.61.6-1.08.02-1.54-.35-2.1-1.74-4.2-3.47-6.28-5.22-.8-.67-1.31-1.54-1.63-2.51-.46-1.44-.93-2.88-1.3-4.34-1.03-4-1.98-8.01-3.02-12-.27-1.02-.37-2.26-1.73-2.6-.36-.48-.6-1.09-1.3-1.21,0,0,0,.01,0,.01.04-1.55.13-3.12-1.83-3.68,0,0,0,.01,0,.01-.02-.4-.26-.65-.57-.85Z"/>
      <path class="cls-6" d="M191.31,105.83c1.03,2.51,2.57,4.72,3.95,7.03,2.69,4.53,5.25,9.35,4.71,15.03-.32,3.41.45,6.9-.66,10.27-2.37-1.41-4.59-2.93-4.81-6.04-.05-.7-.16-1.41-.11-2.11.25-3.55-.67-7.01-.7-10.55-.02-2.08-1.19-3.79-2.44-5.42-.98-1.28-3.34-1.83-3.21-3.31.12-1.48,1.7-2.84,2.66-4.24.17-.24.4-.44.6-.66Z"/>
      <path class="cls-1" d="M191.31,105.83c-.2.22-.44.41-.6.66-.95,1.4-2.53,2.76-2.66,4.24-.12,1.48,2.23,2.03,3.21,3.31,1.25,1.63,2.42,3.34,2.44,5.42.03,3.53.95,7,.7,10.55-.05.7.06,1.41.11,2.11.22,3.11,2.44,4.63,4.81,6.04.15.38.37.74.43,1.13.13.92-.3,1.55-1.17.94-2.58-1.81-5.6-3.14-5.51-7.25.08-3.61-.75-7.24-.86-10.87-.11-3.58-1.27-6.51-4.08-8.74-1.17-.92-1.93-2.38-3.56-2.7-.17-.16-.33-.31-.5-.47-.85-1.32-1.77-2.56-3.54-2.67.06-.33-.05-.55-.39-.62,0,0-.12-.17-.12-.17-.06-.54-.34-.84-.9-.85,0,0,.01,0,.01,0-.95-1.73-2.61-2.9-3.09-5.07-1.4-6.3-3.12-12.52-4.72-18.77,1.36.34,1.46,1.57,1.73,2.6,1.05,3.99,2,8.01,3.02,12,.38,1.46.84,2.9,1.3,4.34.31.98.83,1.85,1.63,2.51,2.09,1.75,4.19,3.48,6.28,5.22.45.38.92.95,1.54.35.5-.49.99-1.1.62-1.88-.57-1.18-1.17-2.35-1.8-3.5-.82-1.51-1.63-3.02-2.53-4.48-1-1.61-1.41-3.12.12-4.65.18-.18.17-.57.25-.86.87-.09,1.28.27,1.15,1.16-1.23,1-1.27,2.14-.46,3.44,1.27,2.06,2.48,4.15,3.73,6.23.3.5.5,1.29,1.23,1.14.77-.16,1-.93,1.1-1.66,1.4-.03,1.09.99,1.11,1.8Z"/>
      <path class="cls-6" d="M190.21,104.03c-.1.73-.33,1.5-1.1,1.66-.72.15-.93-.64-1.23-1.14-1.25-2.07-2.46-4.17-3.73-6.23-.8-1.3-.76-2.44.46-3.44.73,2.72,1.75,5.24,4.36,6.76.52.3.37.83.23,1.33-.25.89.4.96,1,1.06Z"/>
      <path class="cls-3" d="M201.19,119.86c.71,1.02,1.07,2.17,1.12,3.39.2,5.05,0,10.09-.79,15.09-.03.18-.23.33-.34.49-.49-3.35.55-6.61.59-9.94.03-3.03-.21-6.03-.58-9.03Z"/>
      <path class="cls-10" d="M171.31,82.07c1.6,6.25,3.32,12.48,4.72,18.77.48,2.17,2.14,3.34,3.09,5.07-1.96.11-3.12-1.11-3.54-2.72-1.94-7.42-3.73-14.89-5.57-22.33.7.11.94.73,1.3,1.21Z"/>
      <path class="cls-10" d="M149.26,66.83c2.8.17,5.37.88,7.34,3.04-2.58-.7-5.15-1.41-7.34-3.04Z"/>
      <path class="cls-10" d="M180.52,107.54c1.77.11,2.68,1.35,3.54,2.67-1.9.06-2.89-1.07-3.54-2.67Z"/>
      <path class="cls-10" d="M168.19,77.19c1.96.56,1.87,2.13,1.83,3.68-1.03-1.02-1.58-2.28-1.83-3.68Z"/>
      <path class="cls-10" d="M162.46,72.3c1.56-.02,3.09.01,3.28,2.12-1.18-.57-2.28-1.26-3.28-2.12Z"/>
      <path class="cls-10" d="M141.34,63.78c1.24-.16,2.45-.23,3.05,1.22-1.21.08-2.25-.27-3.05-1.22Z"/>
      <path class="cls-10" d="M144.38,65c1.23-.12,2.47-.29,3.06,1.21-1.12-.14-2.21-.38-3.06-1.21Z"/>
      <path class="cls-10" d="M159.45,71.06c1.17-.08,2.38-.25,2.9,1.23-1.14.01-2.09-.45-2.9-1.23Z"/>
      <path class="cls-10" d="M156.58,69.87c1.14-.15,2.24-.22,2.7,1.18-.95-.28-2-.33-2.7-1.18Z"/>
      <path class="cls-10" d="M147.44,66.21c.72-.12,1.43-.2,1.82.63-.69.04-1.38.07-1.82-.63Z"/>
      <path class="cls-10" d="M179.11,105.9c.56,0,.84.31.9.85-.8.25-.91-.24-.9-.85Z"/>
      <path class="cls-10" d="M180.13,106.92c.35.07.45.3.39.63-.44-.01-.62-.19-.39-.63Z"/>
      <path class="cls-10" d="M166.7,75.38c.53.04.82.33.88.86-.29-.28-.58-.57-.88-.86Z"/>
      <path class="cls-10" d="M167.61,76.35c.31.2.55.45.57.85-.37-.16-.54-.46-.57-.85Z"/>
      <path class="cls-3" d="M110.19,76.64c1.13-.5,2.15-1.14,2.99-2.06.94-1.03,1.98-1.16,3.3-.69,3.24,1.16,6.53,2.21,9.79,3.29,6.62,2.21,13.23,4.45,19.87,6.59,1.77.57,2.89,1.38,3.58,3.25,1.54,4.17,3.42,8.22,5.15,12.33.19.44.57.92.09,1.37-.43.41-.94.17-1.42,0-2.49-.85-5-1.62-7.46-2.55-4.17-1.57-8.37-3.05-12.69-4.19-1.6-.42-3.11-.93-3.72-2.75-1.11-3.35-3.8-4.62-6.98-5.5-3.59-1-7.08-2.38-10.61-3.6-.86-1.76-1.38-3.64-1.91-5.52ZM142.02,89.58c1.78,1.77,5.36,3.02,8.23,2.72-2.89-1.44-5.3-2.32-8.23-2.72ZM139.98,84c2.22,1.99,4.78,2.83,7.19,2.49-2.17-1.46-4.39-2.01-7.19-2.49ZM148.23,89.54c-2.08-1.63-4.73-1.85-7.13-2.75,1.81,2.27,4.64,2.05,7.13,2.75Z"/>
      <path class="cls-3" d="M113.27,85.15c4.41.21,8.4,2.04,12.53,3.32,1.13.35,1.54,1.57,2,2.58.96,2.12,2.3,3.48,4.74,4.22,2.35.71,4.9,1.21,6.99,2.73-.17,1.3-.92.97-1.75.69-3.72-1.26-7.44-2.51-11.18-3.71-2.97-.95-5.93-1.93-8.95-2.71-2-.52-3.15-1.63-3.55-3.62-.24-1.17-.97-2.23-.82-3.5Z"/>
      <path class="cls-3" d="M35.11,22.4c-.07-.1-.14-.2-.21-.3.1.07.2.14.31.21,0,0-.1.1-.1.1Z"/>
      <path class="cls-3" d="M73.57,59.01c.21.18.41.36.62.54-.21-.18-.41-.36-.62-.54Z"/>
      <path class="cls-6" d="M137.08,79.09c-.01-.9.47-1.49,1.22-1.9,5.45,1.82,10.89,3.65,16.33,5.48.47.16.92.39,1.39.58.61,2.67,1.67,5.23,3.11,7.47,1.93,2.99,2.3,6.4,3.38,9.62.48,1.43-.25,2.33-1.75,2.55-2.54-.11-3.95-1.48-4.75-3.86-1.51-4.49-3.53-8.79-5.3-13.18-.64-1.59-1.61-2.35-3.16-2.88-3.52-1.2-6.98-2.57-10.47-3.88Z"/>
      <path class="cls-3" d="M290.1,131.42c.94-2.46,3.15-3.84,4.91-5.58.86-.84,2.17-.61,3.19-.37,2.92.7,5.96.62,8.85,1.56.84.27,1.79.19,2.69.28-2.05,2.84-4.75,4.64-8.24,5.19-.5.08-1.05.27-1.49.14-3.24-.93-6.68-.16-9.89-1.22Z"/>
      <path class="cls-6" d="M275.06,83.99c6.65-2.29,13.3-4.59,19.94-6.88,1.01.85.46,1.68-.03,2.51-3.16,1.07-6.31,2.16-9.48,3.21-1.31.43-2.15,1.13-2.7,2.53-1.72,4.44-3.82,8.75-5.43,13.23-1.03,2.87-2.92,4.23-5.71,4.74-.5.09-1,.16-1.5.24-.88-.81-.66-1.81-.5-2.82.57-3.49,1.99-6.68,3.37-9.89.95-2.2,2.19-4.34,2.04-6.87Z"/>
      <path class="cls-7" d="M337.18,68.07c-.19.18-.38.37-.57.55.19-.18.38-.37.57-.55Z"/>
      <path class="cls-10" d="M242.55,103.38c.1-1.02.85-1.91.61-3,.1-.47.25-.92.68-1.2.18-.21.36-.42.54-.64v-.02c1.44-.78,1.85-2.09,1.87-3.6l.02-.03c.18-.21.36-.41.54-.62l.02-.03c.56-.25.61-.72.52-1.24,3.42-5.73,6.94-11.41,10.24-17.22,1.96-3.45,4.68-5.73,8.37-7.11,4.84-1.81,9.59-3.87,14.42-5.72,4.25-1.63,8.56-3.11,12.84-4.66.68.01,1.41.14,1.81-.64h.01c.52.04.97-.07,1.23-.59,0,0,0,0,0,0,.58-.08,1.16-.13,1.73-.25,2-.41,2.13-.22,1.44,2.14-1.8.64-3.61,1.28-5.41,1.92-7.13,2.54-13.91,5.92-20.93,8.72-3.25,1.3-6.61,2.53-9.13,5.18-.1-1.21-.63-1.35-1.56-.66-2.56,1.9-4.13,4.63-5.71,7.26-2.47,4.1-4.6,8.41-6.88,12.62-.43-.19-1.12-.64-1.26-.51-.53.49.12.99.25,1.5.04.18.15.35.22.52-1.1.12-1.29.99-1.71,1.81-1.22,2.36-2.25,4.9-4.74,6.32-.11-.08-.11-.18-.02-.28Z"/>
      <path class="cls-6" d="M234.05,140.96c-.85.36-1.05-.17-1.15-.84-.79-5.73-.85-11.49-.61-17.25.15-3.56,2.21-6.51,3.94-9.43,1.94-3.27,4.02-6.46,5.69-9.88,0,2.11,1.07,3.78,2.31,5.34.62.78,1.39,1.43,1.42,2.52,0,0,.03-.04.03-.04-.7.1-1.07.64-1.46,1.13-3.09,2.07-4.53,5.11-4.65,8.69-.12,3.63-1.03,7.2-.7,10.85.2,2.25-.57,3.83-2.55,5.02-1.37.82-2.68,1.92-2.28,3.9Z"/>
      <path class="cls-7" d="M293.2,58.3c-4.28,1.55-8.59,3.03-12.84,4.66-4.83,1.85-9.57,3.91-14.42,5.72-3.69,1.38-6.41,3.66-8.37,7.11-3.3,5.8-6.81,11.48-10.24,17.22-.36.33-.52.76-.52,1.24,0,0-.02.03-.02.03-.18.21-.36.41-.54.62,0,0-.02.03-.02.03-1.35.82-1.79,2.12-1.86,3.6,0,0,0,.02,0,.02-.18.21-.36.42-.54.64-.43.28-.58.73-.68,1.2-.25.17-.51.33-.74.52-.39.32-.84.79-1.3.41-.55-.45-.29-1.08.05-1.63,1.05-1.7,2.11-3.4,3.11-5.12.51-.87.91-1.8,1.35-2.7,0,0,0,0,0,0,.84-.33,1.27-.92,1.19-1.85.01-.19.04-.37.08-.55.97-.55,1.71-1.26,1.8-2.45,0,0,0-.01,0-.01.18-.21.36-.43.54-.64.04-.18.08-.36.12-.55.74-.39,1.15-.99,1.18-1.83,0,0,.01-.03.01-.03,2.37-3.24,4.47-6.64,6.11-10.32,0,0,.02-.03.02-.03.89-.82,1.85-1.58,2.64-2.49,1.58-1.81,3.57-2.99,5.75-3.85,4.42-1.75,8.87-3.4,13.3-5.12,8.39-3.26,16.77-6.53,25.15-9.8-.06,2.85-1.07,5.49-1.75,8.2-.19.74-.63,1.3-1.34,1.51-1.81.53-3.35,1.88-5.36,1.8-.04-1.32,1.15-1.16,1.87-1.55.82-.45,2.07-.3,2.26-1.62,0,0,.09.04.09.04.4-.02.86,0,1.03-.43.71-1.7,1.28-3.44,1.22-5.49-2.04.47-3.82,1-5.27,2.3,0,0,0,0,0,0-.5.01-.94.12-1.23.58,0,0-.01,0-.01,0-.67.03-1.37-.03-1.81.63Z"/>
      <path class="cls-9" d="M263.96,74.79c2.52-2.65,5.87-3.88,9.13-5.18,7.02-2.8,13.8-6.18,20.93-8.72,1.8-.64,3.61-1.28,5.41-1.92-.05.58-.1,1.15-.15,1.73,0,0-.09-.04-.09-.04-2.55.3-4.77,1.47-7.02,2.58-.44,0-.77.2-1.03.54,0,0-.18.04-.18.04-1.07-.02-2,.24-2.63,1.17,0,0,0,0,0,0-.63-.13-1.1.13-1.47.61-6.12,2.01-12.07,4.45-17.88,7.22-2.59,1.23-4.18,3.39-5.28,5.97-.39.91-.45,1.99-1.26,2.71-.3-.23-.6-.46-.9-.68.81-2.01,1.62-4.03,2.43-6.04Z"/>
      <path class="cls-1" d="M234.05,140.96c-.4-1.97.91-3.08,2.28-3.9,1.98-1.19,2.75-2.77,2.55-5.02-.33-3.64.57-7.22.7-10.85.12-3.59,1.56-6.62,4.66-8.69.53.02,1.07.05,1.6.07-.08.18-.1.44-.24.54-4.43,3.15-4.61,7.89-4.77,12.64,0,.3,0,.6,0,.9-.6.36-.55.8-.18,1.29-.52,1.97-.31,3.99-.35,5.98-.02,1.43-.44,2.52-1.58,3.35-1.6,1.16-2.62,3.07-4.67,3.67Z"/>
      <path class="cls-1" d="M261.99,83.29c-1.45,5.7-2.92,11.39-4.34,17.1-.4,1.63-1.07,3.04-2.39,4.12-2.18,1.78-3.75,4.29-6.53,5.33-.04-.39-.08-.77-.13-1.15,1.92-1.79,3.62-3.82,5.78-5.36.96-.68,1.41-1.67,1.71-2.78.78-2.93,1.45-5.89,2.43-8.75,1.04-3.03.95-6.42,2.89-9.16l.15.11c.15.18.3.36.44.53Z"/>
      <path class="cls-2" d="M245.65,111.41c-.03-1.09-.81-1.74-1.42-2.52-1.24-1.56-2.32-3.23-2.31-5.34.21-.06.42-.12.63-.18-.09.1-.08.19.02.27.54.8,1,1.71,2.05,2.05,1.82-2.46,3.23-5.01,4.65-7.56.53-.96.9-1.84-.24-2.62-.08-.17-.18-.34-.22-.52-.12-.51-.78-1-.25-1.5.14-.13.82.32,1.26.51,1.53,1.91,1.41,3.69-.03,5.7-1.35,1.88-2.31,4.04-3.49,6.05-1.29,2.19-1.04,2.78,1.65,3.59.17.18.35.37.52.55-.62,1.09-1.17,2.31-2.8,1.51Z"/>
      <path class="cls-10" d="M288.32,65c.63-.94,1.57-1.2,2.63-1.17-.63.95-1.5,1.35-2.63,1.17Z"/>
      <path class="cls-6" d="M240.65,127.96c-.37-.49-.42-.94.18-1.29.73.54.3.92-.18,1.29Z"/>
      <path class="cls-2" d="M245.83,112.58c-.53-.02-1.07-.05-1.6-.07.39-.5.76-1.03,1.46-1.13.72.32.44.76.14,1.21Z"/>
      <path class="cls-1" d="M261.53,80.83c.3.23.6.46.9.69-.11.48-.23.96-.34,1.43-.17-.08-.35-.14-.54-.19,0,0-.15-.11-.15-.11.04-.6.09-1.21.13-1.81Z"/>
      <path class="cls-7" d="M295.08,63.82c-.2.23-.39.46-.59.68-.29-.11-.88-.09-.68-.5.1-.21.82-.13,1.27-.18Z"/>
      <path class="cls-10" d="M286.86,65.62c.38-.48.84-.74,1.47-.61-.31.63-.89.64-1.47.61Z"/>
      <path class="cls-2" d="M248.6,108.69c.04.38.09.76.13,1.15,0,0-.27.07-.27.07-.17-.18-.34-.37-.52-.55.22-.22.44-.45.66-.67Z"/>
      <path class="cls-10" d="M291.14,63.79c.26-.34.59-.55,1.03-.54-.27.32-.6.52-1.03.54Z"/>
      <path class="cls-9" d="M261.55,82.76c.18.05.36.11.54.19.03.14,0,.25-.1.35-.15-.18-.29-.36-.44-.54Z"/>
      <path class="cls-3" d="M320.85,82.67c-3.02.03-5.53,1.82-8.41,2.39-1.28.25-2.48.91-3.76,1.2-1.95.44-3.32,1.44-3.94,3.37-1.04,3.26-3.51,4.49-6.68,4.73.32-1.51,1.22-3.04-.26-4.48-.24-.23-.38-.83-.25-1.12.99-2.13-.22-4.83,1.93-6.71.9-.79.3-1.63-.87-1.85,3.38-1.62,7.03-2.47,10.53-3.72,2.38-.85,4.77-1.65,7.12-2.56,1.46-.56,2.68-.51,3.9.62.88.82,1.97,1.4,2.96,2.09-.67,2.04-.96,4.23-2.28,6.03Z"/>
      <path class="cls-3" d="M301.12,95.48c2.69-.85,4.25-2.78,5.15-5.36.39-1.1,1.1-1.94,2.26-2.24,3.87-1.01,7.55-2.65,11.5-3.37.03,1.97-.97,3.65-1.5,5.47-.31,1.06-1.26,1.5-2.24,1.82-3.9,1.29-7.84,2.48-11.68,3.92-1.33.5-2.34-.05-3.48-.24Z"/>
      <path class="cls-8" d="M298.61,80.2c1.16.22,1.76,1.06.87,1.85-2.14,1.88-.93,4.58-1.93,6.71-.13.28.02.89.25,1.12,1.48,1.44.58,2.97.26,4.48-5.51,1.98-11.01,4.02-16.56,5.9-.82.28-2,1.2-2.77.18-.66-.88.13-1.96.49-2.87,1.2-3.01,2.49-5.97,3.74-8.95.35-.84.77-1.65,1.07-2.51.25-.71.59-1.27,1.34-1.52,4.41-1.46,8.82-2.92,13.24-4.38ZM283.68,92.36c3.69-.09,6.26-1.12,7.72-2.97-3.03.55-5.56,1.28-7.72,2.97ZM292.24,86.83c-2.56.6-5.22.88-7.22,2.81,2.66-.27,5.22-.83,7.22-2.81ZM286.29,86.67c2.49-.35,5.1-.52,7.09-2.48-2.6.04-4.9,1.01-7.09,2.48Z"/>
      <path class="cls-3" d="M303.52,52.33c-8.38,3.27-16.76,6.55-25.15,9.8-4.43,1.72-8.88,3.38-13.3,5.12-2.18.86-4.17,2.05-5.75,3.85-.79.91-1.76,1.66-2.64,2.49.06-3.02,2.47-4.3,4.53-5.58,2.3-1.43,4.88-2.46,7.42-3.45,6.02-2.32,12.2-4.23,18.09-6.88,4.34-1.95,8.89-3.3,13.29-5.09,1-.41,2.24-1.8,3.51-.28Z"/>
      <path class="cls-3" d="M256.67,73.63c-1.63,3.68-3.73,7.08-6.11,10.32-.03-.9-.21-1.85.46-2.59.75-.83.68-1.85.8-2.83,1.33-.18,1.64-1.32,2.24-2.25.67-1.05.98-2.51,2.6-2.65Z"/>
      <path class="cls-3" d="M248.71,87.01c-.09,1.19-.83,1.9-1.8,2.45,0-.81.01-1.61.02-2.42.6-.01,1.19-.02,1.78-.04Z"/>
      <path class="cls-3" d="M250.55,83.98c-.03.84-.44,1.44-1.18,1.83-.09-.92-.14-1.81,1.18-1.83Z"/>
      <path class="cls-3" d="M249.25,86.35c-.18.21-.36.43-.54.64.18-.21.36-.43.54-.64Z"/>
      <path class="cls-3" d="M246.83,90.01c.09.93-.35,1.52-1.19,1.85-.03-.89-.01-1.75,1.19-1.85Z"/>
      <path class="cls-7" d="M142.02,89.58c2.93.4,5.34,1.28,8.23,2.72-2.87.3-6.45-.95-8.23-2.72Z"/>
      <path class="cls-7" d="M139.98,84c2.8.48,5.02,1.03,7.19,2.49-2.41.34-4.97-.5-7.19-2.49Z"/>
      <path class="cls-7" d="M148.23,89.54c-2.49-.71-5.31-.48-7.13-2.75,2.4.91,5.05,1.13,7.13,2.75Z"/>
      <path class="cls-6" d="M248.6,108.69c-.22.22-.44.45-.66.67-2.69-.82-2.94-1.4-1.65-3.6,1.18-2.01,2.14-4.17,3.49-6.05,1.45-2.01,1.56-3.79.03-5.7,2.28-4.22,4.41-8.52,6.88-12.62,1.58-2.63,3.15-5.35,5.71-7.26.93-.69,1.46-.55,1.56.66-.81,2.01-1.62,4.03-2.43,6.04-.04.6-.09,1.21-.13,1.81-1.94,2.74-1.85,6.12-2.89,9.16-.98,2.86-1.65,5.82-2.43,8.75-.29,1.11-.75,2.1-1.71,2.78-2.16,1.54-3.86,3.57-5.78,5.36Z"/>
      <path class="cls-6" d="M249.03,95.52c1.14.78.77,1.66.24,2.62-1.42,2.55-2.83,5.11-4.65,7.56-1.05-.35-1.5-1.25-2.05-2.05,2.49-1.42,3.52-3.96,4.75-6.32.43-.82.62-1.69,1.71-1.81Z"/>
      <path class="cls-3" d="M299.28,60.7c.05-.58.1-1.15.15-1.73.69-2.36.56-2.55-1.44-2.14-.57.12-1.15.17-1.73.25,1.45-1.3,3.23-1.83,5.27-2.3.06,2.04-.51,3.78-1.22,5.49-.18.42-.64.41-1.03.43Z"/>
      <path class="cls-3" d="M244.39,98.53c.07-1.49.51-2.78,1.86-3.6-.01,1.51-.43,2.82-1.86,3.6Z"/>
      <path class="cls-3" d="M293.2,58.3c.45-.67,1.14-.61,1.81-.63-.41.78-1.13.65-1.81.63Z"/>
      <path class="cls-3" d="M295.03,57.66c.28-.46.73-.57,1.23-.58-.26.52-.7.63-1.23.58Z"/>
      <path class="cls-3" d="M246.82,94.25c0-.48.16-.91.52-1.24.09.52.04.99-.52,1.24Z"/>
      <path class="cls-3" d="M246.27,94.9c.18-.21.36-.41.54-.62-.18.21-.36.41-.54.62Z"/>
      <path class="cls-3" d="M243.84,99.18c.18-.21.36-.42.54-.64-.18.21-.36.42-.54.64Z"/>
      <path class="cls-3" d="M283.68,92.36c2.17-1.69,4.69-2.43,7.72-2.97-1.46,1.85-4.03,2.88-7.72,2.97Z"/>
      <path class="cls-7" d="M292.24,86.83c-1.99,1.98-4.55,2.54-7.22,2.81,2-1.94,4.65-2.22,7.22-2.81Z"/>
      <path class="cls-7" d="M286.29,86.67c2.19-1.47,4.5-2.44,7.09-2.48-2,1.96-4.6,2.13-7.09,2.48Z"/>
    </g>
  </g>
</svg>