<?xml version="1.0" encoding="UTF-8"?>
<svg id="GRIFOS" xmlns="http://www.w3.org/2000/svg" viewBox="0 0 455.05 452.32">
  <defs>
    <style>
      .cls-1 {
        fill: #b3763c;
      }

      .cls-1, .cls-2, .cls-3, .cls-4, .cls-5, .cls-6, .cls-7, .cls-8, .cls-9 {
        stroke-width: 0px;
      }

      .cls-2 {
        fill: #3a2720;
      }

      .cls-3 {
        fill: #cf7c3c;
      }

      .cls-4 {
        fill: #85775d;
      }

      .cls-5 {
        fill: #7e4326;
      }

      .cls-6 {
        fill: #d59e5b;
      }

      .cls-7 {
        fill: #261d19;
      }

      .cls-8 {
        fill: #593b2b;
      }

      .cls-9 {
        fill: #9d6231;
      }
    </style>
  </defs>
  <g id="Wings">
    <g id="W2">
      <path class="cls-7" d="M52.42,236.29c-4.69,1.61-9.37,3.27-14.09,4.8-2.61.84-5.26,1.58-8.03,1.72-1.48.07-2.88-.03-3.76-1.51-.91-1.54-.13-2.74.72-3.93,2.69-3.75,6.4-6.42,9.86-9.36.72-.61,1.49-1.16,2.05-2.3-1.12.34-2.26.61-3.36,1.02-5.07,1.86-10.35,2.81-15.63,3.82-1.05.2-2.15.12-3.22.17-1.31.06-2.31-.43-2.99-1.59-.76-1.31-.04-2.41.67-3.28,1.2-1.48,2.57-2.84,3.99-4.12,5.89-5.3,12.33-9.84,19.25-13.7,1.12-.62,2.22-1.28,4.04-2.34-2.33-.31-3.89-.3-5.46.1-6.85,1.73-13.73,1.65-20.64.42-1.17-.21-2.36-.48-3.44-.95-2.72-1.19-3.13-3.33-.95-5.33,1.13-1.04,2.53-1.79,3.86-2.59,9.19-5.49,19.22-8.91,29.42-11.92,1.12-.33,2.23-.66,3.53-1.05-1.28-1.42-3.11-1.38-4.5-2.22-1.18-.71-2.27-1.41-2.22-2.96.05-1.4,1.1-2.03,2.17-2.62,3.19-1.74,6.71-2.48,10.2-3.24,11.67-2.56,23.5-2.71,35.36-1.87,3.81.27,7.65.13,11.29,1.09.6-.7.04-.99-.09-1.34-1.22-3.06-.5-4.29,2.75-4.35,4.57-.08,9.03.82,13.49,1.71,3.28.65,6.48,1.62,9.61,2.79.8.3,1.59.74,2.38.19,1.73-1.22,3.46-.54,5.15-.04,7.17,2.09,13.14,6.19,18.44,11.32,4.05,3.91,7.65,8.24,11.36,12.47,3.98,4.53,8.34,8.6,14.2,10.62,4,1.38,8.1,1.94,12.35,1.39,4.28-.55,8.64-1.07,12.88-.14,11.01,2.4,13.98,12.02,12.92,19.41-.93,6.54-4.47,11.55-9.95,15.09-1.7,1.1-2.57,2.53-3.61,4.17-2.13,3.35-3.07,6.84-3.08,10.75,0,3-.85,5.92-1.95,8.7-.8,2.01-1.73,4.05-4.36,4.2-1.15.07-1.26.97-1.52,1.71-.6,1.69-1.29,3.35-2.26,4.86-1.63,2.54-2.91,3.06-5.59,1.76-1.31-.64-1.65-.11-2.16.82-.69,1.25-1.36,2.54-2.23,3.67-2.48,3.25-4.73,3.18-7.07-.14-.21-.29-.41-.58-.72-1.01-1.24,1.59-2.38,3.18-3.64,4.67-3.75,4.43-6.54,4.3-9.99-.61-1.07.89-2.08,1.85-3.21,2.65-4.14,2.97-7.73,1.55-8.64-3.41-.17-.94-.2-1.9-.29-2.88-1.28-.32-1.93.72-2.81,1.2-4.74,2.6-8.1,1.12-9.32-4.15-.16-.69-.11-1.44-.78-2.18-.77,0-1.25.76-1.89,1.16-4.31,2.67-7.74,1.16-8.61-3.85-.2-1.17-.17-2.37-.25-3.56-.91-.42-1.62.11-2.38.31-3.42.87-5.55-.51-6.09-4.06-.3-1.99-.08-4.01.31-5.89-1.04-.74-1.75-.15-2.52.04-4.06.97-6.27-.75-6.17-4.95.05-1.87.46-3.73.75-5.91-3.14.84-5.88,2.31-8.91,2.73-.71.1-1.39.36-2.1.43-3.65.34-4.48-.45-4.42-4.08,0-.55.33-1.14-.17-1.66-1.09-.16-1.75.68-2.54,1.15-3.92,2.31-8.03,4.19-12.39,5.53-.34.11-.67.33-1.01.36-1.61.14-3.38.99-4.72-.54-1.3-1.49-.63-3.11-.06-4.73.73-2.09,2.04-3.92,3.32-6.58-3.4,1.51-6.06,2.73-8.76,3.88-3.96,1.69-8.1,2.81-12.34,3.58-.47.09-.95.16-1.42.16-2.85-.01-4.4-2.14-2.89-4.45,1.92-2.95,3.35-6.32,6.33-8.49,1.15-.27,1.69-1.27,2.46-2.01.53.05.95-.16.87-.72-.06-.43-.49-.28-.8-.19-.43.13-.9.22-1.07.73-1,.42-2.13.61-2.91,1.48ZM155.95,191.87c-.1-.41-.34-.68-.76-.78l.05.03c-5.3-6.72-11.58-12.13-20.01-15.37.44,1.93,2.22,2.37,2.52,4.33-5.32-2.79-10.55-5.19-16.06-6.82-5.56-1.64-11.2-2.78-17.29-3.04,2.8,4.16,3.34,4.51,7.15,5.13,2.11.34,4.23.67,6.21,1.54-.26.53-.82.48-1.28.64-1.41-.17-2.83-.34-4.24-.5-6.33-.74-12.56-.12-18.67,1.53-1.58.43-3.51.77-3.95,3.02,2.45.93,4.85,1.52,7.33,1.79,0,.37,0,.73,0,1.1-3.41.94-7.18,1.03-10.11,3.93,5.78,3.07,11.54,3.1,17.41,2.32-.02.34-.05.68-.07,1.02-2.73.76-5.7.86-8.03,2.78-.46.38-1.04.8-.96,1.43.12.91.99.87,1.67.96,4.08.57,8.09,0,12.07-.88.93-.21,1.85-.47,2.79-.58.92-.11,1.79-.99,2.95-.27-3.77,3.24-9.99,2.06-12.75,7.41.98.09,1.56.16,2.14.2,4.76.35,9.19-1.16,13.66-2.45.27.26.55.51.82.77-2.19,1.09-4.47,2.09-4.98,5.01,2.66.73,4.94-.17,7.28-.96,1.65-.56,3.03-1.86,4.9-1.82.64,1.08-.45,1.42-.88,2.02-.77,1.09-1.91,2-1.85,3.74,5.36-.32,9.28-3.77,13.97-5.26-1.9,2.33-4.38,4.05-6,6.52-1.57,2.39-3.8,4.58-2.99,8.01,2.67-.49,4.03-2.82,6.26-3.62.13.16.26.32.38.49-.35,1.18-1.18,2.06-1.85,3.04-1.68,2.43-2.29,5.23-2.64,8.08-.17,1.35.8,2.02,2.02,1.44.84-.4,1.56-1.07,2.29-1.68,1.09-.91,1.75-2.28,3.09-2.93.15.11.29.22.44.33.12,1.13-.46,2.08-.79,3.1-.82,2.52-1.35,5.09-1.35,7.74,0,1.22-.46,3.06,1.22,3.31,1.64.24,2.27-1.47,2.79-2.81.21-.55.18-1.18.35-1.75.55-1.82.87-3.73,1.99-5.34.62.3.68.89.76,1.46-1.12,4.74-1.63,9.51-.65,14.34,1.02,2.34,1.6,2.53,2.9.95.7-.84,1.27-1.81,1.23-2.9-.1-2.96,1.13-5.53,2.19-8.16.19-.32.4-.61.83-.6l-.06-.06c.38,1.57-.23,3.04-.41,4.55-.53,4.46-1.26,8.96.6,13.32,1.79,2.64,2.08,2.69,4.06.54.98-1.06,1.97-2.19,2.1-3.68.26-3.13,1.3-6.04,2.35-8.96,1.23,1.17.44,2.51.29,3.78-.56,4.57-.53,9.09,1.01,13.51.49.92.84,1.96,1.98,2.39,3.92-2.62,4.22-7.41,6.5-11.35.14,1.06.23,1.76.32,2.45-.22,2.6-.46,5.21.03,7.81.2.68.33,1.4.61,2.05.7,1.62,1.18,1.74,2.61.6,1.73-1.37,2.75-3.28,3.73-5.2.98-1.94,1.52-4.1,2.82-6.04.32,1.25-.11,2.25-.27,3.3-.3,2-1.17,3.91-1.02,5.97.06.8-.15,1.79.88,2.13.76.25,1.38-.28,1.91-.76,2.77-2.49,5.32-5.16,6.64-8.75.25-.68.39-1.47,1.28-1.83.37,2.08-.32,4.09.34,6.28,2.65-1.81,4.38-3.89,5.77-6.27,1.32-2.26,1.25-5.15,3.15-7.44.53,2.08-.22,4.05.81,6.06,3.5-3.43,3.3-8.36,5.92-11.89,1.12.86.11,2.26,1.15,2.94,7.03-4.02,9.5-12.61,7.6-19.05-1.92-6.51-8.71-10.72-17.58-8.89-1.91.09-3.82.16-5.73.29-8.87.62-16.36-2.43-22.86-8.35-3.1-2.82-5.78-6.03-8.73-8.99-.06-.38-.29-.61-.65-.74h.01c-.1-.38-.33-.64-.72-.76l.04.04ZM103.42,207.66c-.42.05-.69.24-.7.7h-.02c-.7-.15-1.22.12-1.6.71-.47,0-.92.03-1.23.46-.81.49-1.93.57-2.21,1.73l.03-.02c-.93-.22-1.61.39-2.32.78-7.51,4.17-14.55,9.1-21.82,13.66-6.2,3.89-11.75,8.65-17.08,13.64-2.8,2.62-4.42,4.91-5.15,7.1,3.18-.27,6.17-1.1,9.06-2.16,6.31-2.31,12.2-5.5,18.09-8.7.86-.47,1.6-1.05,1.98-2,2.72-1.67,4.14-4.56,6.28-6.77,5.91-6.1,12.67-11.15,19.48-16.16,1.53-1.12,3.08-2.23,4.54-3.44.56-.46.81-1.34.3-1.94-.62-.73-1.26.1-1.89.28-1.18-.73-2.24-.95-2.86.67l-.03.02c-.64-.11-1.18-.02-1.41.7h-.02c-.63-.06-1.17.04-1.42.72l-.02.02ZM126.46,265.9c-.39.06-.57.28-.55.68-.59,2.2-1.01,4.4-.36,6.68.6,2.1,1.39,2.56,3.3,1.45,2.27-1.32,4.24-3.06,6-5.01,4.44-4.91,7.49-10.7,10.4-16.57.52-1.06,1.01-2.19,1.23-3.33.42-2.22-.4-2.73-2.75-1.86-.76,0-1.53-.01-2.29-.02-.23-1.36-.99-1.86-1.66-.45-1.96,4.17-4.78,7.8-6.98,11.81h0c-2.44,1.89-4.45,4.18-6.32,6.61l-.02.02ZM135.8,241.45c-.49,0-.99,0-1.48-.01.11-.48.22-.95.34-1.43.06-.09.19-.2.17-.26-.07-.18-.19-.34-.29-.5-.43-.96-.27-2.15-1.17-3.03-.22.26-.48.48-.63.75-3.44,6.18-7.62,11.79-12.52,16.92-2.94,3.08-3.54,7.24-3.52,11.33.01,2.46,1.32,2.94,3.58,1.67,8.04-4.52,12.99-11.74,17.07-19.7,1.01-.9,1.26-2.23,1.91-3.33.92-1.58.58-3.02-.32-4.47-1.46.41-2.16,1.45-3.14,2.06ZM125.63,214.91c.98-.58.73-1.51.7-2.39.16-.44.97-1.12-.2-1.18-2.52-.12-4.94.18-6.94,2.01-1.74,1.6-3.67,3.01-5.35,4.67-2.67,2.66-5.68,5.02-7.7,8.3-5.98,6-12.08,17.68-11.95,22.92,1.43.31,2.82.08,4.21-.32,3.08-.9,6.08-1.97,8.6-4.06,1.27-.25,2.2-1.03,3.04-1.96,1.34-.21,2.16-1.07,2.76-2.2,2.67-1.86,4.34-4.81,7.16-6.51.54,1.73-.8,2.59-1.71,3.63-1.86,2.13-4.25,3.8-5.65,6.35-3.41,3.09-3.69,7.34-4.09,11.47-.18,1.87.71,2.36,2.48,1.67,2.6-1,4.8-2.62,6.79-4.57,6.02-5.89,10.91-12.65,15.28-19.81.63-1.04.97-2.11.96-3.42-1.58.08-2.65.9-3.83,1.37-.29-.08-.59-.16-.88-.24-.47-.72-.95-1.44-1.42-2.17-.21-1.74.89-3.4.35-5.16.32-.93.64-1.85,1.05-3.05-1.37.18-2.38.31-3.39.45-.65-.05-1.3-.09-1.95-.14.19-.71.37-1.41.56-2.12.89-1.03,1.25-2.22,1.12-3.57ZM159.63,260.77c-.56-.68-.71-1.82-2.19-1.74-1.45,3.66-2.94,7.4-4.42,11.13-.22.29-.44.58-.67.87-.36.02-.54.2-.49.57-3.25,3.61-3.78,7.77-2.5,12.29.61,2.18,1.35,2.44,3.28,1.16.39-.26.74-.59,1.11-.89,4.89-4.09,7.66-9.47,9.44-15.45,2.1-4.71,2.84-8.48,2.09-11.14-1.23,1.45-2.66,2.49-4.19,3.41-.49-.07-.98-.14-1.46-.21ZM89.82,176.87c1.55-.18,3.12-.31,5.18-1.9-8.74-.44-16.65-.78-24.59-.16-8.42.33-16.77,1.04-25.18,4.5,3.1,1.2,5.71,1.99,8.39,2.6,2.94.67,5.91,1.12,8.88.45,7.13-1.61,14.35-2.45,21.64-2.79,1.5-.07,3.14.06,4.25-1.35.93.03,1.33-.49,1.42-1.35ZM98.43,202.73c.84-.64,1.59-1.34,1.78-2.67-1.16.15-2.28.17-3.21.95-2.7.57-5.15,1.82-7.63,2.94-8.06,3.63-16.17,7.16-24.13,11.01-6.44,3.11-12.94,6.19-18.69,10.56-6.06,3.6-11.61,7.81-16.79,13.78,4.97-.2,8.9-1.5,12.77-2.82,4.07-1.39,8-3.17,12.02-4.69,3.92-1.48,6.86-4.48,10.11-6.84.99,1.01-.34,1.89.47,2.58.82.28,1.43-.24,1.99-.6,11.64-7.29,23.19-14.73,35.43-21.48-1.27-.78-2.26-1.38-3.25-1.99-.29-.25-.57-.49-.86-.74ZM116.27,208.83c-1.61.13-3.22-.87-4.84.35-4.67,3.52-9.7,6.56-13.89,10.7-2.5,2.21-5.13,4.29-7.48,6.66-3.26,3.29-6.7,6.46-9.11,10.5-3.56,3.96-6.13,8.51-8.09,13.55,7.82-1.9,14.81-5.07,20.48-10.77,1.43-.39,1.97-1.63,2.63-2.75,4.71-7.97,10.37-15.16,17.44-21.18,2-1.7,3.99-3.41,5.96-5.14.59-.52.87-1.3.29-1.86-.23-.22-1.08.22-1.66.36-.58-.15-1.02-.88-1.74-.41ZM93.19,192.69c-2.15.28-4.11-1.19-6.33-.55-2.86.82-5.82,1.31-8.66,2.18-12.44,3.82-24.45,8.72-35.83,15.07-1.85,1.03-4,1.59-5.44,3.29-.79-.07-1.37.43-1.95.8-5.49,3.43-10.61,7.35-15.45,11.65-.5.44-1.24.78-1.16,2.18,11.03-1.31,21.44-4.03,30.66-10.45.14,2.49.19,2.55,2.48,2.07,1.64-.35,3.19-.95,4.72-1.66,4.57-2.09,8.76-4.89,13.39-6.89,8.29-3.59,16.5-7.38,24.95-11.19-1.05-1.06-2.07-2.12-1.89-3.71.62-.85,2.26-1.51.51-2.78ZM73.28,186.95c3.62-.75,7.27-1.3,10.96-1.56,1.63-.12,3.3-.25,4.52-1.64-2.43-2.16-2.43-2.14-5.42-2.04-4.29.15-8.53.77-12.77,1.41-14.87,2.25-29.38,5.79-43.22,11.8-6.92,2.81-11.26,5.38-12.6,7.51,4.92,1.5,9.94,1.19,14.96,1.09,3.28-.06,6.38-.83,9.49-1.73,1.49-.43,3.07-3.12,4.56.06.07.16.68.13,1.03.09,4.48-.56,9.02-.62,13.32-2.44,6.05-2.56,12.17-4.97,18.51-6.75,2.85-.8,5.69-1.61,8.9-2.52-1.27-1.07.04-3.21-2.23-3.41l-.77.05c-3,.95-6.14.77-9.21,1.17-.02-.37-.03-.73-.05-1.1ZM151.58,255.79l-1.46-.68c-.95-.45-1.36-1.7-2.73-1.8-2.02,5.91-5.27,11.18-9.18,16-2.57,3.16-1.89,6.47-1.12,9.79.43,1.87,1.37,2.05,3.31,1.37,1.87-.66,3.32-1.9,4.56-3.36,5.27-6.16,8.81-13.26,11.21-20.96.4-1.29.74-2.54-.59-3.78-1.33,1.14-2.66,2.28-4,3.42ZM167.54,262.59c-1.38,6.13-3.32,11.85-6.33,17.17-.67,1.19-.42,2.59-.12,3.86.39,1.64,1.63,2.11,2.93,1.06,1.1-.89,2.12-1.94,2.96-3.09,3.98-5.47,5.38-11.82,6.1-18.39.04-.32-.16-.69-.85-.72-1.61.39-2.19,2.13-3.12,3.61-.62-1.21.21-2.51-1.58-3.5ZM177.63,265.74c-.04-.71-.08-1.42-.12-2.12-.05-.82-.53-1.42-1.29-1.49-1.14-.1-.79.9-.87,1.52-.43,3.29-.85,6.59-1.24,9.89-.21,1.77-.36,3.57.16,5.31.22.75.16,1.8,1.2,2,1.04.2,1.42-.75,1.81-1.43,2.88-5,4.75-10.34,5.25-16.12.07-.87.26-1.81-.36-2.87-1.88,1.61-4.52,2.27-4.54,5.31ZM185.4,255.51c-.56,5.93-1.02,10.78-1.45,15.63-.05.59,0,1.2.1,1.78.1.6.42,1.15,1.02,1.37.67.25,1.13-.2,1.51-.67.3-.37.61-.75.81-1.18,2.25-4.96,3.24-10.13,2.98-15.75-1.73.1-3.31,1.24-4.97-1.19ZM195.95,250.36c-1.19.04-1.5.56-1.81,1.06-2.78,4.4-1,9.18-1.12,13.82,3.01-4.53,3.63-9.49,2.93-14.88Z"/>
      <path class="cls-7" d="M355.8,251.49c-1.25,1.9-3.1,1.49-4.85,1.18-3.52-.63-6.88-1.83-10.29-3.13-.48,2.08.7,3.81.73,5.71.07,4.65-1.87,6.37-6.41,5.38-.67-.15-1.32-.41-1.97-.62-.65,1.19-.21,2.25-.02,3.26.28,1.47.03,2.88-.33,4.25-.62,2.37-2.4,3.52-4.87,3.19-1.17-.16-2.3-.56-3.53-.88-.08,1.41-.08,2.73-.23,4.03-.51,4.39-3.39,6.03-7.34,4.15-1.06-.51-2.03-1.22-3.22-1.94-.3,1.29-.54,2.52-.86,3.73-1.01,3.78-3.76,5.18-7.41,3.69-1.31-.53-2.51-1.35-3.92-2.12-.94,1.03-.72,2.4-1,3.6-.99,4.18-3.65,5.37-7.48,3.38-1.6-.83-2.96-2-4.37-3.34-.35.67-.58,1.2-.9,1.68-1.66,2.49-3.97,2.97-6.43,1.27-1.7-1.17-2.93-2.81-4.18-4.41-.65-.83-.99-1.93-2.08-2.42-.3.5-.55,1.03-.89,1.5-1.7,2.33-3.16,2.54-5.38.8-1.05-.82-1.9-1.82-2.57-2.96-.61-1.02-1.21-2.04-1.86-3.14-1.52.37-2.6,1.93-4.37,1.08-1.65-.79-2.55-2.09-3.29-3.62-.41-.86-.92-1.69-1.24-2.58-.52-1.45-.79-2.74-2.88-3.05-1.61-.24-2.5-2.03-3.18-3.63-1.61-3.81-2.41-7.79-2.28-11.88.14-4.32-3.12-7.1-4.51-10.71-.27-.71-1.57-.99-2.34-1.54-6.61-4.72-10.11-11.07-9.63-19.28.55-9.38,7.76-15.6,17.69-15.41,2.87.05,5.73.37,8.59.62,7.76.69,14.62-1.34,20.53-6.53,5.69-4.99,10.27-11,15.41-16.5,5.58-5.97,12.14-10.35,19.98-12.75,1.6-.49,3.23-.98,4.85,0,.97.59,1.8,0,2.7-.29,6.24-2.1,12.62-3.59,19.19-4.21,1.43-.13,2.87-.25,4.3-.16,2.98.2,3.61,1.38,2.37,4.19-.14.32-.26.64-.61,1.51,3.67-.8,7.06-.85,10.43-1.07,13.17-.86,26.29-.87,39.21,2.38,2.66.67,5.26,1.52,7.74,2.71,1.13.54,2.18,1.35,2.27,2.58.11,1.45-1.06,2.35-2.3,2.9-1.5.67-3.07,1.2-5.35,2.08,1.87.55,3.11.91,4.34,1.28,10.76,3.21,21.41,6.68,30.91,12.9,1.77,1.16,4.15,2.18,3.54,4.8-.55,2.35-3.1,2.43-4.98,2.91-3.25.82-6.6,1.04-9.97.95-2.27-.06-4.54-.03-6.81-.05-2.97-.74-5.92-1.55-9.13-1.16,1.83,1.24,3.41,2.83,5.58,3.5,4.39,2.99,8.95,5.75,13.04,9.16,2.56,2.13,5.22,4.16,7.4,6.71.95,1.11,1.85,2.3,1.11,3.85-.72,1.5-2.12,1.67-3.63,1.7-1.93.04-3.79-.33-5.65-.74-3.42-.74-6.84-1.48-10.26-2.22-2.08-1.09-4.25-1.89-7.41-2.19,2.28,1.48,3.6,2.97,5.43,3.81,2.15,2.52,5.11,4.17,7.24,6.74,1.3,1.57,2.95,3.05,1.76,5.27-1.13,2.1-3.3,1.43-5.15,1.35-.81-.03-1.64-.28-2.42-.54-4.82-1.65-10.08-1.81-14.63-4.37-2.27-1.31-4.71-2.15-7.66-2.9,2.15,2.21,3.95,4.06,5.75,5.91.56,1.76,2.19,2.77,3.05,4.33,1.5,2.72.61,4.42-2.48,4.5-3.51.09-6.81-1.02-10.09-2.07-3.28-1.05-6.5-2.29-9.63-3.74-.89-.41-1.75-1.23-2.93-.97-.12,1.18.79,1.75,1.17,2.56.55,1.18,1.17,2.34,1.69,3.54.67,1.55,1.41,3.35.35,4.77-1.16,1.56-3.19.84-4.7.46-2.74-.69-5.38-1.8-8.07-2.74-2.74-1.56-5.48-3.13-8.4-4.8v4.8ZM413.17,214.83l.04.02c-.36-.51-.85-.76-1.47-.77l.05.03c-.89-1.19-2.23-1.76-3.46-2.45-8.31-4.69-16.81-9.02-25.73-12.45-7.13-2.74-14.33-5.26-21.85-6.81-2.85-.59-5.36-.29-7.9.87,0,.78-.2,1.62.62,2.17.23,1.1-.68,1.88-.77,2.89-.6.02-1.25.14-1.47.72-.29.79.52.91.99,1.07.64.22,1.34.27,2.01.39,11.4,4.62,22.59,9.7,33.48,15.41,2.55,1.33,5.14,2.5,7.96,3.11.78.17,1.8.64,2.26-.31.62-1.28,1.25-.71,1.95-.26,7.6,4.87,16.26,6.7,24.89,8.57,1.12.24,2.44.79,3.93-.15-4.72-4.27-9.14-8.39-14.52-11.31-.33-.24-.65-.49-.98-.73ZM326.2,254.38c-.21-.69-.71-.88-1.37-.82l.04.03c.19-1.81-1.25-2.7-2.22-3.83-3.31-3.85-6.6-7.71-8.45-12.54.44-.04.89-.08,1.33-.12.53.79,1.13,1.54,1.59,2.37,3.22,5.81,7.93,10.31,12.89,14.58,1.73,1.49,3.73,2.59,5.94,3.16,1.65.42,2.56-.24,2.31-1.69-.7-3.97-1.46-7.97-4.19-11.2-.83-1.87-2.61-2.91-3.83-4.43-.85-1.05-2.1-1.89-1.84-3.52,1.97.53,3.07,2.21,4.43,3.5,4.5,4.27,9.47,7.64,15.6,9.08,1.39.33,2.73.76,4.26-.01-1.28-5.7-3.3-10.95-7.03-15.45-.97-1.46-1.48-3.21-2.81-4.44.54-.94,1.27-1.15,1.94-.25,1.39,1.9,2.77,3.82,3.99,5.83,1.62,2.66,3.55,4.99,5.98,6.96,4.97,4.03,10.69,6.64,16.57,8.97.7.28,1.58.68,2.36-.38-1.3-3.09-2.99-6.05-5.04-8.81-.89-1.85-2.11-3.48-3.54-4.95-.95-1.37-1.9-2.75-2.84-4.12.71-.08,1.42-.16,2.12-.24.42.31.84.62,1.26.93.24,1.29,1.26,2.03,2.23,2.55,6.17,3.34,12.3,6.82,19.06,8.89,2.77.85,5.47,2.2,9.08,1.83-2.24-2.54-4.07-4.86-6.15-6.93-6.12-6.08-12.95-11.31-20.32-15.76-4.26-2.57-8.04-6-12.94-7.45-1.87-2.87-5.01-3.8-7.88-5.12-.61-.68-1.32-1.17-2.26-1.29-.3-.52-.83-.69-1.35-.87-.6-.8-1.56-1.07-2.36-1.57-1.94-1.51-3.95-2.83-6.61-2.33-1.64.87-1.69,1.33-.33,3.04-.1.46-.21.91-.31,1.37-1.81-1.29-3.68-.62-5.55-.2-.56,0-1.12,0-1.68,0-.77.06-1.54-1.04-2.32,0-.06.07-.17.16-.16.21.05.16.15.29.23.44.12.23.24.46.36.69-.66.32-1.31.64-1.97.96-1.49.77-3.07-.91-4.61.09.1.84.8,1.16,1.17,1.7-.91.34-1.4.82-.56,1.73.05.44.04.92.53,1.16l.04.07c.26,1.47.51,2.95,1.32,4.25-.66.07-1.33.14-1.99.21-.67-.06-1.33-.12-2-.18-.71-.59-1.3-.76-1.2.49.05.57.33,1.13.51,1.69.15.25.29.5.44.75.35,2.39.97,4.81-1.06,6.83-.63-.19-1.17-.08-1.57.47-.9-.54-1.24-1.3-.91-2.32.65.1,1.26.1,1.61-.6.17-2.05-.4-3.99-.84-5.96-.45-1.99-2.48-3.37-2.38-5.82,2.26.28,3.62,2.3,5.86,2.07.44-1.3-.24-2.32-.68-3.39-1.3-3.14-3.78-5.41-5.89-7.96.12-.42.24-.84.36-1.26,2.63,1.21,5.27,2.43,7.9,3.64.88.96,1.83.92,2.82.2.68-.48.41-1.02.06-1.51-.77-1.06-1.58-2.08-2.36-3.13-.37-.51-.59-1.05.21-1.4l-.02.09c2.41,1.01,4.81,2.02,7.22,3.03.84.81,1.77.7,2.73.26.94-.32,2.35-.34,1.17-1.94-1.21-1.65-2.84-2.75-4.62-3.67.26-.25.52-.5.79-.76,1.71.46,3.41.97,5.14,1.37,3.41.8,6.83,1.47,10.7.76-1.06-2.29-2.8-3.2-4.65-3.93-2.09-.82-4.21-1.55-6.32-2.32.24-.75.93-.59,1.47-.75,4.48,1.22,9.07,1.68,13.69,1.88.79.44,1.52.44,2.15-.3,1.57-1.16.13-1.83-.53-2.36-2.34-1.89-5.23-2.41-8.09-2.97.01-.36.02-.72.04-1.08,5.9.84,11.74,1.24,17.4-2.31-2.84-2.68-6.41-2.68-9.59-3.68-.2-.41-.4-.81-.6-1.22,2.1-.34,4.22-.63,6.22-1.42,1.25-.49,1.37-1.24.32-2-1.26-.92-2.72-1.42-4.22-1.79-7.25-1.81-14.54-1.83-21.86-.54-.45-.21-1.08-.12-1.28-.75,2.28-.66,4.56-1.28,6.94-1.59,3-.4,5.03-2.2,6.86-5.09-5.03-.05-9.39,1-13.76,1.98-6.53,1.47-12.53,4.36-18.68,6.87-.11-.12-.23-.24-.34-.35.19-.98,1.61-1.31,1.45-2.94-8.17,3.23-14.35,8.52-19.5,15.16-2.82,3.08-5.55,6.24-8.48,9.21-4.95,5.02-10.61,8.95-17.73,10.17-4.5.77-9.06.27-13.6.1-5.2-1.15-9.97-.26-13.95,3.38-6.1,5.59-5.8,18.19,4.12,24.51.95-.71,0-2.05,1.1-3.03,2.34,3.71,2.66,8.41,6.27,11.94.13-2.28.22-4,.35-6.18,1.41,1.57,1.77,3.19,2.34,4.71,1.19,3.17,2.86,6.03,5.4,8.32.42.38.84.95,1.52.56.61-.34.61-.98.6-1.58-.04-1.66-1.09-3.27-.29-5.25.73,1.63,1.35,3.03,1.99,4.42,1.33,2.89,3.47,5.14,5.9,7.1,1.48,1.2,2.7.68,3.05-1.16.16-.87-.13-1.66-.44-2.43-.53-1.34-.9-2.7-.93-4.15.24-.23.49-.47.73-.7,1.03,2.54,2.22,5.01,3.98,7.13.87,1.05,1.83,2.9,3.19,2.48,1.47-.46,1.54-2.42,1.5-3.98.5-2.34.29-4.7.22-7.06-.03-.99-.64-2.17.56-2.96.64,2,1.32,3.99,1.89,6,.52,1.86,1.46,3.37,2.91,4.68,1.58,1.43,1.5,1.53,2.97-.73.43-.58.71-1.22.89-1.93,1.26-4.99.83-9.97.06-14.96,2.24,1.23,2.18,3.64,2.46,5.6.35,2.38,1.38,4.27,2.75,6.06,1.72,2.25,2.24,2.15,3.9-.51.75-1.24.91-2.64,1.05-4.05.29-2.94-.05-5.86-.3-8.78.28-.78-.22-1.66.44-2.55,1.24,1.57,1.59,3.38,1.97,5.2.27,1.26.59,2.54,1.09,3.72.31.73,1.01,1.5,1.9,1.35.95-.16,1.15-1.08,1.18-1.95,1.18-3.04.47-6.22.67-9.34-.04-.56-.09-1.12-.13-1.68.03-.34-.05-.78.13-1.01.21-.27.63-.21.83.17.77,1.46.6,3.28,1.7,4.62.6.73,1.24,1.65,2.28,1.45,1.26-.24.94-1.45,1.03-2.34.42-4.26-1.5-8.04-2.53-12,.44.04.87.07,1.31.11.14.23.28.46.42.69.07.36.28.57.64.65,1.32.9,2.64,1.8,3.96,2.71-2.71,1.6-2.94,2.34-1.48,4.9.22.39.63.68.95,1.01.43.92.85,1.85,1.27,2.77-.45.09-.89.19-1.34.28-.16,0-.29-.08-.38-.22-.22-.49-.46-.53-.72-.03.08,1.06-.32,1.98-.8,2.89-.47.51-.95,1.02-1.42,1.54-.94-.68-1.74-1.62-3.23-1.69-.29,1.51-.46,3,.2,4.45,2.99,6.66,6.62,12.92,11.82,18.13,2.11,2.11,4.51,3.91,7.17,5.26,2.43,1.24,3.58.47,3.54-2.23-.04-3.15-1.06-6.05-2.34-8.88-.06-.81-.53-1.26-1.29-1.44h-.01ZM382.32,175.25c-1.16-.79-2.45-.63-3.74-.48-13.16-.71-23.85-.36-26.26.85,2.14,1.29,4.56,1.06,6.9,1.27-.3.61-1.25.68-1.27,1.53,1.07.94,2.48.95,3.73,1.04,8,.54,15.89,1.91,23.82,3.02,5.21.73,10.13-1.1,15.6-3.22-5.73-1.86-10.75-3.32-16.02-3.77-.92-.08-1.85-.16-2.77-.25ZM348.48,202.86c-.32.22-.63.44-.95.66-1.4-.11-2.03,1.06-3,1.76.29.27.52.57.82.74,11.19,6.6,22.32,13.29,32.9,20.85.65.47,1.48.84,2.27.92,1.01.11,1.08-.66.85-1.46.12-.45.25-.89.37-1.34,1.03.8,2.1,1.56,3.09,2.42,1.54,1.34,3.09,2.62,5,3.42,7.39,3.07,14.8,6.08,22.55,8.12,1.31.34,2.63.71,4.44,0-5.57-5.43-11.23-9.93-17.34-13.89-2.44-1.51-4.8-3.17-7.32-4.51-13.71-7.26-27.69-13.94-42.24-19.36-1.17-.85-2.48-1.23-3.96-1.28.18,1.71,1.58,2.12,2.53,2.94ZM318.42,265s.05,0,.05,0c-.04-.23-.01-.53-.14-.69-4.26-5.31-8.79-10.42-11.48-16.8-.19-.46-.57-.87-1.07-.56-.57.34-.47,1.05-.58,1.63-.48.07-.95.14-1.43.2-.78-.02-1.24-.6-1.84-.98-1.19-.76-2.06-.3-2.1,1.05-.02.46.07.95.24,1.38,3.5,8.69,7.77,16.88,15.1,23.06.72.61,1.5,1.2,2.34,1.61,1.95.95,3.1.52,3.38-1.53.36-2.55.66-5.21-1.14-7.49-.22-.63-.7-.87-1.33-.86ZM361.45,186.85c.18,1.14.02,2.26-.57,3.51,3.46.81,6.65,1.56,9.84,2.31,6.99,2.44,13.89,5.1,20.77,7.82,3.73,1.47,7.77,1.74,11.69,1.36.3-.86-.63-1.27.22-2.24,4.28,2.41,9.01,3.83,14.1,3.9,4.91.06,9.84.4,14.69-1.52-5.49-3.22-10.87-6.45-16.84-8.54-.65-.29-1.29-.63-1.96-.87-10.43-3.81-21.14-6.61-32.06-8.58-6.46-1.17-12.92-2.24-19.5-2.44-1.74-.05-3,.51-4.03,1.74-.8.96.28,1.11.77,1.49.81.92,1.88.67,2.9.61.46.04.93.08,1.39.11.03.36.06.72.1,1.08-.43-.09-.86-.17-1.29-.26-.18.03-.37.06-.55.09.12.14.24.28.35.42ZM276.62,265.17c-.25-1.87-1.53-2.47-3.48-2.83.7,6.3,2.06,12.14,5.2,17.44.96,1.62,2.25,3.08,3.54,4.47,1.49,1.61,2.73,1.3,3.35-.73.53-1.74.7-3.42-.49-5.09-.96-1.35-1.66-2.88-2.37-4.39-1.42-3.03-2.47-6.18-2.94-9.51-.1-.68-.13-1.58-1.14-1.41-.9.15-.88.97-.86,1.7,0,.12.02.24.03.36-.28,0-.57-.01-.85-.02ZM285.99,262.26c-1.46-1.7-3.31-2.91-4.96-4.21-.9.5-.83,1.16-.71,1.69,1.14,5.25,2.54,10.45,4.94,15.28,2.04,4.11,4.92,7.63,8.74,10.26,1.72,1.18,2.9.84,3.16-1.06.45-3.39,1.1-6.83-.9-10.09-2.43-3.97-4.57-8.1-6.26-12.46-.36-.93-.58-2.06-1.63-2.64-1.34.74-1.84,1.83-1.51,3.3-.29-.02-.57-.04-.86-.06ZM295.31,256.54c-1.07-1.95-3.04-2.76-4.92-4.25-.09,1.04-.15,1.62-.19,2.2-.2,3.52,1.71,6.4,2.91,9.49,2.14,5.55,5.48,10.31,9.85,14.35.97.89,1.94,1.75,3.26,2.13,1.69.48,3.01.06,3.28-1.62.56-3.52,1.12-7.04-1.62-10.19-3.22-3.71-5.71-7.93-7.47-12.55-.4-1.05-.57-2.34-2.01-2.94-.68,1.13-2.56,1.46-2.05,3.39-.34,0-.68,0-1.03,0ZM263.69,260.16c.25,7.03,1.68,13.13,5.29,18.62.5.75.8,2.06,1.92,1.81,1.17-.26,1.32-1.56,1.36-2.61.07-1.54.15-3.11-.03-4.64-.44-3.76-1.04-7.5-1.6-11.47-2.58,1.44-4.54-.06-6.93-1.71ZM255.88,256.53c-.33,5.67,1.02,11.03,3.32,16.2.15.33.29.67.51.95.75.96,1.73.87,2.21-.25.55-1.25.56-2.63.26-3.88-.79-3.31-.56-6.65-.65-9.99-.03-1.04.39-2.26-.55-3.05-.87-.73-1.39.59-2.2.61-.97.03-1.68-.98-2.91-.58ZM250.6,249.96c-1.3,6.18.03,12.92,2.91,15.29.43-3.26-.04-6.45.12-9.62.12-2.37-1.04-3.98-3.03-5.68Z"/>
      <path class="cls-3" d="M157.26,193.33c2.95,2.96,5.63,6.17,8.73,8.99,6.5,5.91,13.99,8.97,22.86,8.35,1.91-.13,3.82-.2,5.73-.29,1.81.02,3.03.68,3.88,2.48,2.12,4.51,1.74,9.02.41,13.56-.29.99-1.02,1.91-1.73,2.69-1.16,1.28-2.58.96-3.47-.57-.43-.74-.07-1.85-1-2.42-1.21,1.06-.78,2.33-.83,3.47-.06,1.31.11,2.64-.03,3.94-.28,2.66-1.5,3.83-4.26,4.29-.22-.3-.44-.6-.66-.9-.05-.56-.08-1.13-.17-1.69-.06-.34-.26-.69-.66-.63-.53.07-.66.53-.71.99-1.74.25-1.38,2.03-2.15,2.99-.65.8-.92,2.18-2.25,1.95-1.39-.24-1.18-1.57-1.27-2.61-.07-.83.16-1.73-.4-2.65-1.55,1.47-1.02,3.15-1.37,4.6-2.68-.66-2.29-3.02-2.56-4.88-.23-1.59-.21-3.2-1.24-4.72-.69.77-1.23,1.38-1.77,1.98-2.19.03-2.37-1.72-2.65-3.19-.26-1.36-.18-2.78-.25-4.12-.79-.2-1,.32-1.31.64-.75.77-1.54,1.78-2.7,1.11-1.16-.66-.64-1.86-.46-2.92.21-1.21.79-2.4.49-3.8-3.11,2.13-4.06,6.61-2.17,9.34.51.74,1.16,1.29,2.06,1.17,1.66-.22,2.78.35,3.34,1.95.75,2.15,2.19,1.65,3.68.97.88.55,1.25,1.46,1.38,2.39,1.05,7.61-1.29,14.44-4.92,20.96-.1.18-.39.24-.6.36-.49-2.6-.25-5.2-.03-7.81,1.02-1.27.7-2.6.35-3.85-1.22-.63-2.05.98-3.2.16-.09-1.39-.18-2.81-.31-4.96-1.43,2.55-2.33,4.39-2.86,6.5-.74,2.93-1.21,5.99-2.78,8.67-1.54-4.41-1.57-8.93-1.01-13.51.15-1.26.95-2.61-.29-3.78-2.14-.09-2.5,2.24-4.35,3.47v-6.3c-1.01,2.36-1.73,4.7-2.33,7.09-.64,2.6.4,5.63-1.83,7.83-1.87-4.36-1.13-8.85-.6-13.32.18-1.52.79-2.99.41-4.55.49.04.58-.28.55-.66,0-.09-.15-.17-.23-.25-.09.32-.17.65-.26.97-.43-.01-.64.28-.83.6-1.35-1.44-.04-3.4-1.17-5.35-1.83,4.56-3.07,8.93-3.72,13.45-.14.97-.07,1.95-1.42,2.01-.98-4.83-.48-9.6.65-14.34.89-1.92,1.77-3.84,2.66-5.75-1.9.99-3.16,2.3-3.42,4.29-1.12,1.61-1.44,3.52-1.99,5.34-.17.57-.14,1.21-.35,1.75-.53,1.34-1.15,3.05-2.79,2.81-1.68-.25-1.21-2.09-1.22-3.31,0-2.64.53-5.22,1.35-7.74.33-1.02.91-1.97.79-3.1.66-.27.72-.95,1.03-1.46.69-.53,1.1-1.22,1.17-2.1.57-.36.71-.89.62-1.52.09-.02.2-.02.28-.07.05-.03.05-.13.08-.2-.11.1-.22.2-.33.3-.58.23-.76.73-.89,1.28-1.13.38-1.55,1.32-1.86,2.34-.18.37-.35.73-.53,1.1-1.34.66-2,2.03-3.09,2.94-.73.61-1.45,1.28-2.29,1.68-1.22.58-2.19-.09-2.02-1.44.35-2.85.96-5.64,2.64-8.08.67-.98,1.51-1.86,1.85-3.04.21-.06.38-.18.52-.34.55-.24.8-.68.86-1.26.32-.24.54-.52.47-.95.09-.02.19-.01.27-.06.05-.03.06-.12.09-.18-.11.09-.22.18-.33.27-.27.2-.54.4-.82.6-.33.09-.58.25-.64.62-.27.27-.53.55-.8.82-2.24.8-3.6,3.13-6.26,3.62-.8-3.43,1.43-5.63,2.99-8.01,1.62-2.47,4.1-4.2,6-6.52-4.7,1.48-8.61,4.94-13.97,5.26-.05-1.74,1.08-2.65,1.85-3.74.43-.61,1.52-.95.88-2.02,0,0-.05.03-.05.03,1.56.52,1.76-.77,2.22-1.69.65-1.05,1.66-1.17,2.78-1.17,1.02,0,2.16.32,2.97-.69,1.25-.33,2.52-.59,3.74-1.01.85-.29,1.89-.53,1.83-1.81,1.13-.47,1.5-1.36,1.62-2.54.24-2.4,1.21-4.6,2.11-6.8.98-2.39,1.9-2.94,3.58-.59,2.07,2.89,5.14,4.15,8.72,4.07,0,0-.05-.03-.05-.03.25.26.5.52.76.78,0,0-.04-.04-.04-.04.24.26.48.52.72.77,0,0-.01-.01-.01-.01.22.25.43.49.65.74ZM150.79,208.29c-1.14.65-1.93,1.81-1.69,2.93.37,1.71.17,3.24-.15,4.89-.34,1.79.78,3.72,2.6,4.16,1.45.35,2.61,1.06,3.87,1.7,2.85,1.43,6.36-.3,7.45-3.65-1.3-.28-2.58.5-3.85.07-1.88-.62.16-2.41-1.06-3.41-1.36.89-2.5,2.23-4.24,2.41-.77.08-1.43-.15-1.85-.8-.36-.56-.11-1.13.15-1.69.55-1.14,1.98-1.7,2.23-3.11q-3.1-.75-3.15-3.15c.4-.21,1.17-.51.91-.84-.58-.76-.87.13-1.22.48ZM149.3,201.87c-1.6,1.65-1.59,2.73-.69,3.73.88.98,2.65.89,4.64-.17-1.46-1-4.11-.32-3.95-3.57ZM181.18,217.67c-2.01,2.29-1.45,3.82-.3,5.12.95,1.08,1.86.29,2.84-.65-1.62-.79-2.94-1.77-2.54-4.47Z"/>
      <path class="cls-6" d="M155.25,191.13c-3.58.07-6.64-1.18-8.72-4.07-1.68-2.35-2.6-1.8-3.58.59-.9,2.2-1.87,4.4-2.11,6.8-.12,1.19-.49,2.07-1.62,2.54-1.06.03-2.11.05-3.17.08-.93.02-1.95.25-2.73-.37-.84-.66.73-1.71-.35-2.59-1.51.75-2.91,1.71-2.6,3.63.27,1.64,1.76,2.04,3.27,2.07-.8,1.01-1.94.69-2.97.69-1.12,0-2.13.13-2.78,1.18-.8.49-1.84.66-2.22,1.69,0,0,.05-.03.05-.03-1.87-.04-3.25,1.26-4.9,1.82-2.33.79-4.61,1.69-7.28.96.51-2.92,2.79-3.93,4.98-5.01,1.19-.33,2.31-.78,3-1.91.3-.14.61-.29.91-.43-.08-.08-.15-.22-.24-.23-.39-.07-.67.11-.84.46-1.37.02-2.55.59-3.65,1.34-4.47,1.29-8.89,2.8-13.66,2.45-.58-.04-1.16-.11-2.14-.2,2.76-5.35,8.98-4.17,12.75-7.41-1.16-.71-2.03.16-2.95.27-.94.11-1.86.38-2.79.58-3.98.88-7.98,1.45-12.07.88-.68-.09-1.55-.05-1.67-.96-.08-.62.51-1.05.96-1.43,2.33-1.92,5.3-2.02,8.03-2.78,1.77-.1,3.47-.39,5.45-1.96-2.24.39-3.81.67-5.38.94-5.87.78-11.63.75-17.41-2.32,2.93-2.91,6.7-2.99,10.11-3.93,1.6.31,3.16.04,5.29-.06-2.04-1.26-3.67-1.14-5.29-1.04-2.48-.28-4.88-.86-7.33-1.79.45-2.25,2.37-2.59,3.95-3.02,6.12-1.65,12.35-2.27,18.67-1.53,1.41.17,2.83.33,4.24.5,1.54,1,3.26.75,4.95.67,0,0,.16.21.16.21l-.19-.18c-1.05-.89-2.29-1.26-3.64-1.34-1.98-.86-4.1-1.19-6.21-1.54-3.81-.62-4.35-.97-7.15-5.13,6.09.26,11.74,1.39,17.29,3.04,5.52,1.63,10.74,4.03,16.06,6.82-.29-1.96-2.07-2.4-2.52-4.33,8.43,3.24,14.71,8.64,20.01,15.37ZM126.97,181.18c-1.12-.08-1.69-.2-2.25-.14-1.25.14-2.81-.16-3.28,1.52-.48,1.73.56,2.77,2.01,3.31,1.07.4.94.87.83,1.83-.29,2.35.63,3.34,2.95,3.4,1.64.04,3.21-.32,4.58-1.66-1.82-.82-3.82.44-5.17-1.03.11-1.56,2.03-1.37,2.24-2.69-1.76-1.09-4.07-1.11-5.57-2.72.82-1.24,2.26-.91,3.68-1.82Z"/>
      <path class="cls-9" d="M185.35,235.6c.05-.47.18-.92.71-.99.39-.05.6.3.66.63.09.56.12,1.12.17,1.69-.93,2.22-.38,4.41,1.27,5.07,1.54.62,2.68-.22,3.68-2.72.09-.03.2-.04.27-.1.05-.03.04-.13.06-.2l-.32.31c-2.48,1.51-3.13,1.76-4.3-1.47,2.76-.46,3.98-1.62,4.26-4.29.13-1.3-.04-2.63.03-3.94.05-1.14-.38-2.41.83-3.47.93.57.57,1.68,1,2.42.89,1.53,2.31,1.84,3.47.57.71-.78,1.44-1.7,1.73-2.69,1.33-4.54,1.71-9.05-.41-13.56-.85-1.8-2.06-2.47-3.88-2.48,8.87-1.84,15.66,2.38,17.58,8.89,1.9,6.44-.57,15.03-7.6,19.05-1.04-.67-.03-2.07-1.15-2.94-2.62,3.53-2.42,8.47-5.92,11.89-1.03-2.01-.28-3.98-.81-6.06-1.9,2.29-1.83,5.18-3.15,7.44-1.39,2.38-3.12,4.46-5.77,6.27-.66-2.19.03-4.2-.34-6.28-.88.36-1.02,1.14-1.28,1.83-1.32,3.59-3.87,6.26-6.64,8.75-.53.48-1.15,1-1.91.76-1.03-.34-.83-1.32-.88-2.13-.15-2.07.72-3.97,1.02-5.97.16-1.05.59-2.06.27-3.3-1.3,1.94-1.84,4.1-2.82,6.04-.97,1.92-2,3.83-3.73,5.2-1.43,1.14-1.91,1.02-2.61-.6-.28-.65-.41-1.36-.61-2.05.2-.12.5-.18.6-.36,3.63-6.52,5.96-13.35,4.92-20.96-.13-.93-.5-1.83-1.38-2.39-.01-.39-.02-.78-.03-1.16.54-.61,1.09-1.22,1.77-1.98,1.03,1.52,1.01,3.12,1.24,4.72.27,1.87-.12,4.22,2.56,4.88.35,1.23.36,2.69,2.08,2.99,1.62.29,2.72-.49,3.76-1.6,1.53-1.64,1.7-3.62,1.6-5.69Z"/>
      <path class="cls-1" d="M92.69,195.47c-.18,1.59.84,2.65,1.89,3.71-8.46,3.8-16.66,7.6-24.95,11.19-4.63,2-8.82,4.8-13.39,6.89-1.53.7-3.08,1.31-4.72,1.66-2.29.49-2.35.42-2.48-2.07-9.22,6.42-19.63,9.14-30.66,10.45-.08-1.39.66-1.73,1.16-2.18,4.84-4.29,9.96-8.22,15.45-11.65.59-.37,1.17-.87,1.95-.8,1.05.03,2.09.06,3.14.08,1.2.03,1.95.62,2.29,1.76-.09.19-.28.4-.26.58.07.52.47.35.72.2.46-.27.9-.6.98-1.21l-.03.03c.63.02,1.24.02,1.47-.74l-.03.02c.63.03,1.24.02,1.47-.74l-.03.02c.63.03,1.24.04,1.46-.74,0,0-.02.01-.02.01,1.98.18,3.47-.97,5.05-1.86,1.11-.42,2.26-.78,3.34-1.27,11.74-5.36,23.84-9.73,36.21-13.36Z"/>
      <path class="cls-1" d="M73.33,188.06c3.07-.4,6.21-.23,9.21-1.18.27.27.53.27.77-.05,2.26.2.96,2.34,2.23,3.41-3.21.91-6.06,1.72-8.9,2.52-6.34,1.78-12.46,4.18-18.51,6.75-4.3,1.82-8.84,1.88-13.32,2.44-.35.04-.95.07-1.03-.09-1.49-3.18-3.08-.49-4.56-.06-3.11.9-6.21,1.67-9.49,1.73-5.02.09-10.04.41-14.96-1.09,1.34-2.13,5.67-4.7,12.6-7.51.81.72,1.66,1.34,2.82.88.56-.22,1.26-.49,1.68-.09,1.6,1.51,3.17,1.12,4.78.12.85-.53,1.57.14,2.34.26.17-.22.34-.45.52-.67,0,0-.05.03-.05.03.8-.07,1.71.21,2.21-.75,0,0-.04.02-.04.02,5.22-.48,10.17-2.09,15.16-3.53,3.58-.65,7.17-1.24,10.73-1.96,1.94-.4,4.05,0,5.83-1.19Z"/>
      <path class="cls-1" d="M99.29,203.47c.99.6,1.98,1.21,3.25,1.98-12.24,6.75-23.79,14.2-35.43,21.48-.56.35-1.17.87-1.99.6-.81-.69.53-1.57-.47-2.58-3.25,2.36-6.19,5.36-10.11,6.84-4.02,1.52-7.96,3.3-12.02,4.69-3.87,1.32-7.79,2.62-12.77,2.82,5.17-5.97,10.73-10.18,16.79-13.78,2.61,1.63,5.24.78,7.88.09.33-.25.65-.5.98-.75,0,0,.28.03.28.03.48-.05.87-.23,1.05-.72h-.01c.62.03,1.19-.02,1.44-.72h0c.62.05,1.18-.03,1.43-.71h.01c2.33.03,4.14-1.09,5.74-2.63.34-.25.75-.45.74-.97l-.04.03c.66.08,1.3.1,1.48-.75l-.05.03c3.04.06,5.33-1.85,7.86-3.07,8.02-3.89,16.14-7.59,23.96-11.9Z"/>
      <path class="cls-1" d="M80.47,233.55c-.38.94-1.12,1.53-1.98,2-5.89,3.2-11.79,6.39-18.09,8.7-2.89,1.06-5.88,1.89-9.06,2.16.74-2.19,2.35-4.48,5.15-7.1,5.34-4.99,10.88-9.75,17.08-13.64,7.27-4.56,14.3-9.49,21.82-13.66.71-.39,1.38-1,2.32-.78-.07.99-1.33,1.19-1.44,2.16h-.01c-3.25,1.24-5.77,3.63-8.6,5.51-1.41.93-3.13,1.75-3.83,3.55-.45.3-.9.59-1.35.89-.32.18-.6.4-.61.82-.42,0-.68.22-.88.57-.56.11-1.04.32-1.25.9-.39.09-.64.31-.72.72-.41.07-.67.3-.75.71-.31.03-.5.21-.36.36.15.16.36,0,.42-.31.4-.09.69-.29.72-.74.43-.04.7-.25.73-.71.65.13,1.14-.12,1.5-.66.37-.13.57-.41.65-.79.32-.16.63-.32.95-.48.54-.13.99-.38,1.25-.9,2.69-.94,4.55-3.23,7.12-4.38.3,2.33-1.47,3.46-2.93,4.54-2.91,2.17-4.82,5.15-7.03,7.9-.64.8-.88,1.66-.81,2.65ZM71.84,232.11c-.09.04-.19.06-.26.12-.04.03-.03.12-.05.19.09-.11.19-.22.28-.33.39-.09.65-.31.73-.72.63.06,1.15-.09,1.45-.71.09-.04.2-.07.28-.13.04-.04.03-.14.05-.22-.11.11-.22.23-.33.34-.61-.02-1.13.13-1.43.73-.24.24-.48.48-.72.73ZM76.4,228.16l.17.11.03-.17-.2.06Z"/>
      <path class="cls-1" d="M134.65,240.01c-.11.48-.22.95-.33,1.43-1.76,2.67-3.53,5.33-5.29,8-.41.62-.51,1.32-.43,2.05-.4.08-.6.37-.7.74-.25.25-.89.39-.25.89.08-.3.15-.61.23-.91.4-.07.63-.33.74-.7,3.13-2.15,4.5-5.65,6.65-8.56,1.8.41,1.25,1.65.91,2.73-.37,1.16.22,1.45,1.18,1.52-4.09,7.96-9.03,15.17-17.07,19.7-2.26,1.27-3.57.8-3.58-1.67-.02-4.08.58-8.24,3.52-11.33,4.89-5.14,9.07-10.74,12.52-16.92.15-.27.41-.49.63-.75.9.88.75,2.06,1.17,3.03.04.25.08.5.12.76Z"/>
      <path class="cls-9" d="M151.58,255.79c1.33-1.14,2.67-2.28,4-3.42,1.33,1.24.99,2.49.59,3.78-2.4,7.71-5.94,14.8-11.21,20.96-1.25,1.46-2.69,2.7-4.56,3.36-1.94.68-2.88.5-3.31-1.37-.77-3.33-1.45-6.63,1.12-9.79,3.91-4.82,7.16-10.09,9.18-16,1.37.1,1.78,1.35,2.73,1.8-1.02,3.74-3.51,6.96-3.84,10.98,2.17-3.23,4.1-6.58,5.3-10.3Z"/>
      <path class="cls-6" d="M38.98,196.1c-.78-.13-1.49-.8-2.34-.26-1.62,1.01-3.18,1.39-4.78-.12-.42-.39-1.11-.13-1.68.09-1.17.46-2.01-.16-2.82-.88,13.84-6.01,28.35-9.56,43.22-11.8,4.24-.64,8.48-1.26,12.77-1.41,2.99-.1,2.99-.12,5.42,2.04-1.22,1.39-2.89,1.52-4.52,1.64-3.69.26-7.34.81-10.96,1.56-6.07.67-12.02,1.89-17.87,3.62-4.68,1.12-9.46,1.9-13.79,4.17,0,0,.04-.02.04-.02-.82,0-1.68-.12-2.21.75,0,0,.05-.03.05-.03-.32.11-.53.3-.52.67Z"/>
      <path class="cls-1" d="M130.19,230.91c1.19-.47,2.26-1.29,3.83-1.37,0,1.32-.33,2.38-.96,3.42-4.37,7.16-9.26,13.91-15.28,19.81-1.99,1.95-4.19,3.57-6.79,4.57-1.77.68-2.66.19-2.48-1.67.4-4.13.68-8.38,4.09-11.47,1.42.11,2.7-.46,3.48-1.49,3.06-4.04,6.89-7.51,9.08-12.21.53-1.13,1.36-1.96,2.72-1.99.47.72.95,1.44,1.42,2.17-2.48,1.7-4.05,4.22-5.76,6.59-1.08,1.49-2.91,2.5-3.09,4.6-1.1.42-1.88,1.12-2,2.37-.37.13-.59.38-.66.76-.1.13-.19.27-.29.4.12-.11.23-.23.35-.34.4-.05.64-.29.77-.65,1.29-.1,1.87-.99,2.28-2.06,3.52-3.47,6.91-7.04,9.28-11.44ZM116.62,246.9c-.02-.08,0-.19-.05-.22-.07-.05-.21-.08-.27-.04-.24.14-.21.28.07.35.07.02.17-.06.26-.09Z"/>
      <path class="cls-6" d="M42.36,214.52c-.33-1.14-1.09-1.74-2.29-1.76-1.05-.02-2.09-.05-3.14-.08,1.44-1.7,3.59-2.26,5.44-3.29,11.38-6.35,23.39-11.25,35.83-15.07,2.84-.87,5.8-1.36,8.66-2.18,2.23-.64,4.19.83,6.33.55-1.43,2.12-3.89,2.06-5.96,2.73-11.68,3.79-23.23,7.9-34.08,13.74-1.79.75-3.8,1.11-5.06,2.81,0,0,.02-.01.02-.01-.64-.05-1.2.05-1.46.74,0,0,.03-.02.03-.02-.62-.02-1.19.08-1.47.74,0,0,.03-.02.03-.02-.63-.02-1.17.12-1.47.74,0,0,.03-.03.03-.03-.48.14-.96.28-1.44.42Z"/>
      <path class="cls-3" d="M107,244.88c-2.52,2.08-5.52,3.15-8.6,4.06-1.39.41-2.78.63-4.21.32-.13-5.25,5.97-16.93,11.95-22.92,1.45.61,3.07,1.04,3.13,3.06.21.91-.59,1.77-.11,2.69v-.02c-1.26-.22-1.66.79-1.86,1.62-.25,1.04.66.54,1.13.56,1.65,0,2.45.41,1.75,2.36-1,2.79-2.8,5.26-3.19,8.27ZM106.09,235.46c-.39.2-.58.5-.48.96-.56,0-.84.39-1.08.8-.18.31-.35.68.1.9.1.05.43-.2.52-.38.2-.42.31-.88.46-1.32.4-.04.68-.24.83-.62.27-.15.58-.39.3-.66-.29-.27-.48.1-.64.33Z"/>
      <path class="cls-1" d="M143.73,247.93c2.35-.87,3.16-.36,2.75,1.86-.21,1.15-.7,2.28-1.23,3.33-2.91,5.87-5.96,11.66-10.4,16.57-1.76,1.95-3.73,3.69-6,5.01-1.91,1.11-2.7.65-3.3-1.45-.65-2.28-.23-4.48.36-6.68.18-.22.37-.45.55-.68,0,0,.02-.02.02-.02,3.28-.66,6.04-3.53,6.32-6.6,0,0,0-.01,0,0,.42.19.94.28,1.25.58,1.32,1.25,1.45.08,1.74-.8.38-.28.68-.6.74-1.09v.02c1.98-.95,2.7-2.95,3.69-4.67,1.08-1.86,2.13-3.72,3.51-5.38Z"/>
      <path class="cls-1" d="M93.34,239.82c-5.67,5.69-12.66,8.87-20.48,10.77,1.96-5.04,4.52-9.59,8.09-13.55.68.21,1.36.4,2.04.62,3.55,1.16,3.83,1.13,5.92-1.77,1.05-1.46,2.22-2.77,3.67-3.83.27.6.55.75.83,0l-.05.05c.69-.28,1.04-.72.75-1.49l-.03.03c.78.31,1.25.02,1.48-.75l-.04.03c.48-.03.68-.32.76-.75l-.04.04c.44-.07.69-.32.76-.76l-.04.04c.45-.06.71-.3.75-.76l-.03.03c.26,0,.53.01.79.02.26-.2.52-.41.79-.61.21-.04.41-.08.62-.12h0c.09,2.66-2.19,3.98-3.4,5.89-1.36,2.15-3.32,4-3.11,6.85Z"/>
      <path class="cls-6" d="M55.67,224.89s-.28-.03-.28-.03c-.33.25-.65.5-.98.75-2.63.69-5.27,1.54-7.88-.09,5.75-4.37,12.25-7.44,18.69-10.56,7.96-3.84,16.07-7.38,24.13-11.01,2.49-1.12,4.93-2.36,7.63-2.94.23.53.45,1.07.68,1.6-6.48,3.23-12.98,6.4-19.42,9.71-3.67,1.89-7.6,3.34-10.78,6.12,0,0,.05-.03.05-.03-.63,0-1.2.1-1.48.75,0,0,.04-.03.04-.03-.22,0-.43.04-.63.12-2.05,1-4.4,1.49-5.86,3.47,0,0-.01.01-.01.01-.64-.09-1.17.04-1.43.71,0,0,0,0,0,0-.63-.06-1.15.1-1.44.72,0,0,.01,0,.01,0-.47.07-.81.33-1.05.72Z"/>
      <path class="cls-1" d="M88.4,178.22c-1.11,1.4-2.76,1.27-4.25,1.35-7.29.34-14.51,1.18-21.64,2.79-2.98.67-5.94.22-8.88-.45-2.68-.61-5.29-1.4-8.39-2.6,8.41-3.46,16.76-4.17,25.18-4.5-.06.76-.12,1.52-.19,2.27-1.72.92-3.74.04-6.28,1.14h24.45Z"/>
      <path class="cls-1" d="M163.2,268.72c-1.78,5.99-4.55,11.37-9.44,15.45-.36.3-.71.63-1.11.89-1.93,1.28-2.67,1.01-3.28-1.16-1.27-4.52-.75-8.69,2.5-12.29.16-.19.33-.38.49-.57.22-.29.44-.58.67-.87q2.76-.56,2.79,2.08c-.3.21-.53.46-.47.85.01.09.16.15.25.22.14-.3.29-.6.43-.9.84-.54,1.39-1.25,1.3-2.31.02-.46.03-.92.05-1.38v.03c.25,0,.51.01.77.02,1.7.75,3.4,2.41,5.06-.06Z"/>
      <path class="cls-9" d="M167.54,262.59c1.79.99.95,2.29,1.58,3.5.94-1.48,1.51-3.21,3.12-3.61.69.02.88.4.85.72-.72,6.56-2.12,12.92-6.1,18.39-.83,1.14-1.86,2.2-2.96,3.09-1.3,1.05-2.54.58-2.93-1.06-.3-1.27-.55-2.67.12-3.86,3-5.32,4.95-11.03,6.33-17.17Z"/>
      <path class="cls-3" d="M92.58,232.06c-1.45,1.06-2.61,2.37-3.67,3.83-2.1,2.9-2.37,2.93-5.92,1.77-.67-.22-1.36-.41-2.04-.62,2.41-4.04,5.85-7.21,9.11-10.51,2.35-2.36,4.98-4.45,7.48-6.66,1.93-.15,3.32.8,4.47,2.22-.37.46-.74.91-1.11,1.37-.59.59-1.18,1.18-1.77,1.77-.42.53-1.26.89-.75,1.8h0c-.7-.2-.96.02-.72.74l.03-.03c-.73-.22-.98.03-.75.76,0,0,.04-.04.04-.04-.74-.23-.94.07-.76.76,0,0,.04-.04.04-.04-.69-.19-.93.08-.76.75,0,0,.04-.03.04-.03-.84-.43-1.16.16-1.48.75,0,0,.03-.03.03-.03-.6.32-.97.76-.75,1.49,0,0,.05-.05.05-.05-.28,0-.55,0-.83,0Z"/>
      <path class="cls-9" d="M177.63,265.74c.02-3.04,2.65-3.7,4.54-5.31.63,1.05.44,2,.36,2.87-.49,5.78-2.37,11.12-5.25,16.12-.39.68-.77,1.63-1.81,1.43-1.04-.2-.98-1.25-1.2-2-.51-1.75-.37-3.54-.16-5.31.39-3.3.81-6.59,1.24-9.89.08-.61-.27-1.62.87-1.52.75.07,1.23.67,1.29,1.49.05.71.08,1.42.12,2.12Z"/>
      <path class="cls-6" d="M109.28,229.4c-.06-2.02-1.68-2.46-3.13-3.06,2.01-3.28,5.02-5.64,7.7-8.3,1.67-1.67,3.6-3.07,5.35-4.67,2-1.83,4.42-2.14,6.94-2.01,1.17.06.35.74.2,1.18-4.61,2.93-8,7.15-11.67,11.06-.34.36-.54.78-.46,1.29h0c-1.44.82-2.62,1.83-2.87,3.59,0,0,0,0,0,0-.68.31-1.36.61-2.04.92Z"/>
      <path class="cls-1" d="M107,244.88c.39-3.01,2.19-5.49,3.19-8.27.7-1.95-.1-2.36-1.75-2.36.15-.76.89-1.31.74-2.17,0,0-.01.02-.01.02,1.45-.77,2.6-1.71,2.15-3.61,0,0,0,0,0,0,2.15-.24,3.12-1.42,2.87-3.58,0,0,0,0,0,0,1.38.51,1.81-.75,2.53-1.4,2.08-1.88,3.75-4.2,6.11-5.79.56.26,1.12.53,1.68.79-.19.71-.37,1.41-.56,2.11-2.12,2.34-4.09,4.82-5.81,7.46-.68,1.04-1.82,1.9-1.74,3.36v-.02c-3.66,2.99-5.92,6.75-6.36,11.53-.84.93-1.77,1.71-3.04,1.96Z"/>
      <path class="cls-9" d="M80.47,233.55c-.07-.99.17-1.85.81-2.65,2.21-2.75,4.12-5.73,7.03-7.9,1.46-1.08,3.23-2.22,2.93-4.54,1.19-.96,2.37-1.93,3.58-2.87.74-.57,1.68-.99,1.43-2.19,0,0,.01-.01.01-.01,4.65-1.11,8.25-3.9,11.57-7.16.56-.03,1.08-.14,1.36-.71.63-.18,1.27-1.01,1.89-.28.51.6.26,1.47-.3,1.94-1.46,1.21-3.01,2.32-4.54,3.44-6.81,5-13.57,10.05-19.48,16.16-2.15,2.21-3.56,5.1-6.28,6.77Z"/>
      <path class="cls-9" d="M185.4,255.51c1.66,2.42,3.24,1.29,4.97,1.19.26,5.61-.73,10.79-2.98,15.75-.19.43-.51.81-.81,1.18-.38.47-.84.91-1.51.67-.6-.22-.92-.77-1.02-1.37-.1-.58-.16-1.2-.1-1.78.43-4.85.9-9.7,1.45-15.63Z"/>
      <path class="cls-9" d="M99.13,225.24c.59-.59,1.18-1.18,1.77-1.77,1.53.51,2.48-.56,3.4-1.41,4.6-4.24,9.15-8.54,13.71-12.82.57-.14,1.43-.58,1.65-.36.59.56.3,1.35-.29,1.86-1.97,1.73-3.96,3.44-5.96,5.14-7.08,6.02-12.73,13.21-17.44,21.18-.66,1.12-1.21,2.36-2.63,2.75-.2-2.85,1.76-4.7,3.11-6.85,1.21-1.92,3.49-3.23,3.4-5.9.34-.11.4-.21.17-.27-.03,0-.11.18-.17.27-.2.04-.41.08-.62.12l-.09-.1c.13-.62.26-1.24-.03-1.85Z"/>
      <path class="cls-3" d="M125.91,220.74c1.01-.13,2.02-.27,3.39-.45-.42,1.2-.73,2.13-1.05,3.05-1.35.28-1.84,1.46-2.31,2.48-1.27,2.79-3.31,4.99-5.23,7.3-.44.25-.78.57-.77,1.12l.02-.05c-2.81,1.7-4.49,4.65-7.16,6.51-.84-.55-.45-1.21-.11-1.79.98-1.71,2-3.39,3-5.07.45-.76,1.32-1.4.72-2.46,0,0-.01.02-.01.02.7.32,1.13-.11,1.5-.58,2.67-3.36,5.34-6.73,8.01-10.1Z"/>
      <path class="cls-6" d="M102.01,222.1c-1.15-1.42-2.54-2.37-4.47-2.22,4.19-4.14,9.22-7.18,13.89-10.7,1.62-1.22,3.23-.22,4.84-.35-4.75,4.42-9.5,8.85-14.26,13.27Z"/>
      <path class="cls-8" d="M53.15,209.16c10.85-5.84,22.4-9.95,34.08-13.74,2.07-.67,4.54-.61,5.96-2.73,1.75,1.28.11,1.94-.51,2.78-12.37,3.63-24.47,8-36.21,13.36-1.08.49-2.22.85-3.33,1.27,0-.32,0-.63.01-.94Z"/>
      <path class="cls-1" d="M159.41,255.86c1.57-2.68,2.04-5.73,2.78-8.67.53-2.1,1.43-3.95,2.86-6.5.13,2.16.22,3.58.31,4.96,1.15.81,1.99-.79,3.2-.16.35,1.25.67,2.58-.35,3.85-.09-.69-.18-1.39-.32-2.45-2.28,3.95-2.57,8.73-6.5,11.35-1.14-.43-1.49-1.47-1.98-2.39Z"/>
      <path class="cls-1" d="M149.6,250.67c2.23-2.2,1.19-5.23,1.83-7.83.59-2.39,1.32-4.73,2.33-7.09v6.3c1.85-1.22,2.21-3.56,4.35-3.47-1.04,2.92-2.09,5.82-2.35,8.96-.12,1.48-1.11,2.61-2.1,3.68-1.98,2.14-2.27,2.1-4.06-.54Z"/>
      <path class="cls-2" d="M67.48,218.44c3.17-2.78,7.1-4.23,10.78-6.12,6.44-3.31,12.94-6.48,19.42-9.71.25.04.5.07.75.11.29.25.57.49.86.74-7.81,4.31-15.93,8.02-23.95,11.9-2.52,1.22-4.82,3.13-7.86,3.07Z"/>
      <path class="cls-9" d="M163.2,268.72c-1.66,2.47-3.37.81-5.06.06.94-2.62,2.4-5.03,2.96-7.79,1.53-.91,2.96-1.96,4.19-3.41.75,2.67.01,6.43-2.09,11.14Z"/>
      <path class="cls-6" d="M70.23,177.08c.06-.76.12-1.52.19-2.27,7.94-.62,15.85-.27,24.59.16-2.06,1.59-3.63,1.72-5.18,1.9-6.54-.25-13.07-.13-19.59.21Z"/>
      <path class="cls-9" d="M120.71,233.13c1.92-2.31,3.96-4.51,5.23-7.3.46-1.02.96-2.21,2.31-2.48.53,1.77-.56,3.42-.36,5.16-1.37.03-2.2.85-2.72,1.99-2.19,4.69-6.02,8.17-9.08,12.21-.78,1.03-2.06,1.6-3.48,1.49,1.4-2.55,3.78-4.22,5.65-6.35.91-1.04,2.25-1.9,1.71-3.63,0,0-.02.05-.02.05.62-.12.71-.61.77-1.12Z"/>
      <path class="cls-9" d="M195.95,250.36c.71,5.39.08,10.35-2.93,14.88.12-4.65-1.67-9.42,1.12-13.82.31-.5.62-1.02,1.81-1.06Z"/>
      <path class="cls-9" d="M142.32,243.56c1.35-.06,1.28-1.04,1.42-2.01.66-4.53,1.9-8.89,3.72-13.45,1.14,1.95-.17,3.92,1.17,5.35-1.06,2.63-2.28,5.2-2.19,8.16.04,1.09-.53,2.05-1.23,2.9-1.31,1.58-1.88,1.39-2.9-.95Z"/>
      <path class="cls-9" d="M157.32,270.11c.09,1.06-.46,1.77-1.3,2.31l-.21-.18q-.03-2.65-2.79-2.08c1.48-3.73,2.96-7.47,4.42-11.13,1.48-.08,1.63,1.06,2.19,1.74-.71,2.68-2.08,5.16-2.27,7.99,0,0,.01-.03.01-.03-.67.44-.81.9-.05,1.38Z"/>
      <path class="cls-8" d="M70.23,177.08c6.53-.34,13.06-.46,19.59-.21-.09.86-.49,1.38-1.42,1.35-7.88,0-15.77,0-24.45,0,2.54-1.1,4.56-.22,6.28-1.14Z"/>
      <path class="cls-2" d="M102.01,222.1c4.75-4.42,9.5-8.85,14.26-13.27.72-.47,1.16.26,1.74.41-4.56,4.28-9.11,8.58-13.71,12.82-.92.84-1.87,1.91-3.4,1.41.37-.46.74-.91,1.11-1.37Z"/>
      <path class="cls-9" d="M135.79,259.06c-.29.88-.42,2.05-1.74.8-.31-.3-.83-.39-1.25-.58,2.2-4.01,5.02-7.65,6.98-11.81.67-1.41,1.42-.91,1.66.45-1.69,2.17-2.5,4.83-3.97,7.13-.58.91-1.24,1.76-.96,2.94,0,0,0-.02,0-.02-.54.16-.71.58-.74,1.09Z"/>
      <path class="cls-2" d="M55.41,190.57c5.85-1.72,11.81-2.95,17.87-3.62.02.37.03.73.05,1.1-1.78,1.19-3.88.79-5.83,1.19-3.56.73-7.15,1.32-10.73,1.96-.5-.12-1.06-.09-1.37-.64Z"/>
      <path class="cls-8" d="M122.84,217.69c-2.36,1.59-4.02,3.91-6.11,5.79-.72.65-1.15,1.91-2.53,1.4-.08-.51.12-.93.46-1.29,3.67-3.92,7.07-8.13,11.67-11.06.03.87.28,1.81-.7,2.39-1.09.77-2.13,1.59-2.79,2.78Z"/>
      <path class="cls-5" d="M130.19,230.91c-2.37,4.4-5.76,7.97-9.28,11.44-.16-.15-.31-.31-.45-.48.18-2.1,2.01-3.11,3.09-4.6,1.71-2.37,3.28-4.89,5.76-6.59.29.08.59.16.88.24Z"/>
      <path class="cls-8" d="M125.91,220.74c-2.67,3.37-5.33,6.74-8.01,10.1-.37.47-.8.9-1.5.58-.08-1.45,1.06-2.31,1.74-3.36,1.73-2.64,3.7-5.11,5.81-7.46.65.05,1.3.09,1.95.14Z"/>
      <path class="cls-9" d="M137.35,247.19c-.96-.07-1.55-.36-1.18-1.52.34-1.08.89-2.32-.91-2.73.18-.5.36-.99.55-1.49.98-.62,1.68-1.66,3.14-2.06.89,1.45,1.24,2.89.32,4.47-.64,1.11-.9,2.44-1.91,3.33Z"/>
      <path class="cls-8" d="M116.42,231.39c.6,1.06-.26,1.7-.72,2.46-1.01,1.69-2.03,3.37-3,5.07-.34.59-.73,1.25.11,1.79-.6,1.13-1.42,1.99-2.76,2.2.43-4.78,2.7-8.54,6.37-11.53Z"/>
      <path class="cls-8" d="M107.82,206.24c-3.32,3.26-6.92,6.05-11.57,7.16.11-.97,1.37-1.17,1.44-2.16,0,0-.03.02-.03.02,1.16-.03,1.96-.53,2.21-1.73.31-.42.77-.45,1.23-.46.66.06,1.27,0,1.59-.69,0,0,.02-.01.02-.01.38-.09.62-.31.7-.7,0,0,.02-.02.02-.02.61.03,1.14-.08,1.42-.71,0,0,.02-.01.02-.01.6.03,1.13-.07,1.41-.7l.03-.02c.5.01,1,.02,1.5.04Z"/>
      <path class="cls-8" d="M136.52,257.98c-.28-1.18.37-2.03.96-2.94,1.47-2.29,2.27-4.96,3.97-7.13.76,0,1.53.01,2.29.02-1.38,1.66-2.43,3.52-3.51,5.38-.99,1.71-1.71,3.72-3.7,4.67Z"/>
      <path class="cls-8" d="M135.8,241.45c-.18.5-.37.99-.55,1.49-2.14,2.91-3.51,6.42-6.65,8.57h-.01c-.08-.74.02-1.44.43-2.06,1.76-2.67,3.53-5.33,5.29-8,.49,0,.99,0,1.48.01Z"/>
      <path class="cls-8" d="M151.58,255.79c-1.21,3.72-3.13,7.06-5.3,10.3.33-4.02,2.82-7.24,3.84-10.98.49.23.97.45,1.46.68Z"/>
      <path class="cls-9" d="M132.8,259.29c-.28,3.07-3.03,5.94-6.32,6.6,1.87-2.42,3.88-4.71,6.32-6.6Z"/>
      <path class="cls-8" d="M157.35,268.76c.2-2.82,1.57-5.31,2.27-7.99.49.07.98.14,1.47.21-.56,2.76-2.02,5.18-2.96,7.79-.26,0-.52-.01-.78-.02Z"/>
      <path class="cls-8" d="M142.21,227.76c.26-1.99,1.52-3.3,3.42-4.29-.89,1.92-1.77,3.84-2.66,5.75-.08-.58-.14-1.17-.76-1.46Z"/>
      <path class="cls-5" d="M96.95,183.37c1.62-.1,3.24-.23,5.29,1.04-2.12.1-3.68.37-5.29.06,0-.37,0-.73,0-1.1Z"/>
      <path class="cls-5" d="M104.25,190.72c1.57-.27,3.14-.55,5.38-.94-1.98,1.57-3.68,1.86-5.45,1.96.02-.34.05-.68.07-1.02Z"/>
      <path class="cls-1" d="M98.43,202.73c-.25-.04-.5-.07-.75-.11-.23-.53-.45-1.07-.68-1.6.94-.78,2.05-.8,3.21-.95-.18,1.32-.93,2.03-1.78,2.67Z"/>
      <path class="cls-9" d="M122.84,217.69c.67-1.2,1.71-2.01,2.79-2.78.13,1.35-.23,2.54-1.12,3.57-.56-.26-1.12-.53-1.68-.79Z"/>
      <path class="cls-5" d="M117.76,176.9c1.35.07,2.59.45,3.64,1.34l.03-.03c-1.69.08-3.41.34-4.95-.67.45-.16,1.01-.1,1.28-.64Z"/>
      <path class="cls-5" d="M117.72,200.33c1.1-.75,2.28-1.32,3.65-1.34l.17.2c-.69,1.13-1.8,1.58-3,1.91-.27-.26-.55-.51-.82-.77Z"/>
      <path class="cls-5" d="M107.82,206.24c-.5-.01-1-.02-1.5-.04.62-1.62,1.68-1.4,2.86-.67-.28.57-.8.68-1.36.71Z"/>
      <path class="cls-1" d="M99.88,209.53c-.24,1.2-1.04,1.7-2.21,1.73.27-1.17,1.4-1.24,2.21-1.73Z"/>
      <path class="cls-5" d="M102.7,208.38c-.33.7-.94.75-1.59.69.37-.59.89-.85,1.59-.69Z"/>
      <path class="cls-5" d="M104.86,206.94c-.28.63-.81.74-1.42.71.25-.68.79-.78,1.42-.71Z"/>
      <path class="cls-5" d="M106.29,206.22c-.27.63-.81.73-1.41.7.23-.72.77-.8,1.41-.7Z"/>
      <path class="cls-8" d="M134.65,240.01c-.04-.25-.08-.5-.12-.76.1.17.22.32.29.5.02.06-.11.17-.17.26Z"/>
      <path class="cls-5" d="M103.42,207.66c-.08.39-.32.61-.7.7,0-.46.29-.65.7-.7Z"/>
      <path class="cls-9" d="M126.46,265.9c-.18.23-.37.45-.55.68-.02-.39.17-.62.55-.68Z"/>
      <path class="cls-6" d="M157.26,193.33c-.22-.25-.43-.49-.65-.74.35.13.59.36.65.74Z"/>
      <path class="cls-6" d="M156.63,192.6c-.24-.26-.48-.52-.72-.77.39.12.62.38.72.77Z"/>
      <path class="cls-6" d="M155.95,191.87c-.25-.26-.5-.52-.76-.78.42.1.66.37.76.78Z"/>
      <path class="cls-2" d="M83.31,186.84c-.24.32-.49.32-.77.05.26-.01.51-.03.77-.05Z"/>
      <path class="cls-9" d="M152.36,271.04c-.16.19-.33.38-.49.57-.05-.37.13-.55.49-.57Z"/>
      <path class="cls-3" d="M314.27,227.65c-1.32-.9-2.64-1.8-3.97-2.7-.21-.22-.42-.43-.64-.65-.14-.23-.28-.46-.42-.69-.72-1.49-1.49-2.96-2.97-3.86-.13-.76-.33-1.47-1.3-1.68-.18,1.01.43,1.45,1.08,1.86.35,1.34.98,2.53,1.88,3.57,1.03,3.96,2.95,7.74,2.53,12-.09.89.24,2.1-1.03,2.34-1.05.2-1.68-.72-2.28-1.45-1.1-1.34-.93-3.16-1.7-4.62-.2-.38-.62-.44-.83-.17-.18.23-.1.66-.13,1.01-.4.59-.33,1.15.13,1.68-.21,3.11.51,6.29-.67,9.34-1.84-1.53-1.61-3.86-2.16-5.86-1.14-4.12-2.15-6.83-3.62-8.58v3.67c-1.35-.03-.99-2.05-2.72-1.7.64,2.25,1.28,4.48,1.92,6.7.26,2.92.59,5.83.3,8.78-.14,1.41-.29,2.8-1.05,4.05-1.11-1.49-1.28-3.22-1.36-5.01-.17-3.85-1.25-7.48-2.9-10.98-.76,2.85.62,5.56.58,8.53-1.2-.44-1.43-1.44-1.83-2.23-.55-1.09-1.29-2.06-2.31-2.64-1.25-.71-1.36.22-1.29,1.17.77,4.99,1.2,9.98-.06,14.96-.18.72-.46,1.35-.89,1.93-1.91-4.45-1.98-9.63-5.41-14.04-.48,1.85.58,4.35-2.36,4.08-1.2.79-.59,1.97-.56,2.96.07,2.36.28,4.72-.22,7.06-2.84-3.93-4.76-8.31-5.56-13.04-.51-3.03-1.05-6.56.31-9.18,1.29-2.48.31-3.22-1.04-4.66-1.23,1.46-.63,2.96-.81,4.33-.27,1.99-.22,4.09-2.21,5.36-.57-1.45-.45-3.23-2.19-4.64,0,1.72.02,3.02,0,4.32-.02.74-.25,1.45-1.07,1.63-.85.19-1.27-.47-1.65-1.08-.68-1.1-1.08-2.39-2.25-3.14,0,0,.01.02.01.02-.24-.22-.47-.43-.71-.65-.15-.45-.38-.92-.88-.95-.73-.05-.54.61-.59,1.01-.08.57-.06,1.16-.08,1.74-.24.31-.48.63-.72.94-2.92-.65-3.98-2.8-4.22-5.46-.16-1.78,0-3.59-.05-5.38-.02-.65.19-1.5-.89-1.62-.71.43-.63,1.25-.9,1.88-1.01,2.37-1.72,2.54-3.47.69-.49-.51-.87-1.13-1.26-1.73-2.92-4.51-2.3-9.04-.2-13.65.82-1.8,1.85-3.02,3.99-2.84,4.54.17,9.09.67,13.6-.1,7.12-1.22,12.78-5.15,17.73-10.17,2.93-2.97,5.66-6.14,8.49-9.21,1.66,1.3,3.42,2.11,5.58,1.24,1.41-.57,2.31.27,2.97,1.32.43.69.68,1.53.87,2.33,1.04,4.48,4.49,6.31,8.37,7.69.03.33.21.54.54.61l-.05-.05c.07,1.62,1.45,2.03,2.53,2.71,2.11,2.54,4.59,4.81,5.89,7.95.44,1.06,1.13,2.09.68,3.39-2.24.23-3.6-1.79-5.86-2.07-.1,2.45,1.93,3.83,2.38,5.82.44,1.97,1.01,3.91.84,5.96-.49-.01-.97-.02-1.46-.04-.12-.11-.26-.15-.42-.12ZM308.24,212.01c-.06-.06-.12-.12-.18-.17.07.05.14.1.21.14.19.57.67.82,1.17,1.04.09.57.37,1.01.9,1.26.08.14.2.23.36.28.23.52.52.99,1.08,1.21.95.29,1.09-.11.78-.9-.22-.53-.65-.8-1.17-.95-.05-.2-.17-.34-.35-.44-.29-.49-.69-.8-1.27-.86-.36-.58-.89-.71-1.52-.61ZM301.79,224.21c-.12-.15-.02-.77-.48-.23.17.07.33.14.5.21.33,2.53,1.29,4.76,3.02,6.64-.05-2.65-.94-4.92-3.04-6.62ZM294.63,207.65c-.12-.09-.23-.17-.35-.26.09.11.18.23.27.34-.21,1.07,1.22,1.92.48,3.03-.69,1.04-2.31.14-3.07,1.1.36,1.19,1.24,1.68,1.83,2.41.55.68,1.12,1.44.59,2.24-.63.96-1.71.62-2.62.4-1.23-.3-1.99-1.67-3.42-1.61q-.47,3.54-3.93,2.82c-.34-.07-.67-.2-.76.51,1.32,1.34,3.17,2.79,4.85,1.52,1.8-1.36,3.31-1.11,5.17-.92,3.17.32,4.09-.79,3.46-4-.19-.95-.33-1.78-.06-2.77.62-2.27-.26-3.91-2.46-4.8ZM276.81,224.84q-.19,5.32-1.93,8.55c.84.59,1.66.32,2.27-.29.8-.8,1.78-1.12,2.77-1.53,4.69-1.94,5.41-7.81,1.36-11.06-.62.92-.15,1.83.05,2.72.19.83.28,1.65.01,2.47-.35,1.1-.88,1.69-2.07.84-.75-.53-1.09-1.6-2.46-1.7ZM293.01,205.54c3.14.88,4.24.82,4.86-.33.6-1.09.64-2.19-1.02-3.38.57,3.18-1.97,2.63-3.84,3.71ZM262.36,222.13c1.02.82,1.83,1.64,3.11.68,1.34-1.01,1.39-2.3.19-4.55q-1.14,2.97-3.3,3.87Z"/>
      <path class="cls-6" d="M309.19,203.49c-3.88-1.38-7.32-3.21-8.37-7.69-.19-.8-.44-1.64-.87-2.33-.65-1.05-1.56-1.89-2.97-1.32-2.16.87-3.92.06-5.58-1.24,5.15-6.64,11.33-11.92,19.5-15.16.16,1.63-1.26,1.96-1.45,2.94-.36.24-.74.47-.44,1-.33-.14-.61-.12-.76.26,0,.01.19.14.22.12.17-.13.32-.29.47-.43.42,0,.72-.17.85-.59,6.14-2.51,12.15-5.41,18.68-6.87,4.37-.98,8.73-2.02,13.76-1.98-1.83,2.9-3.86,4.7-6.86,5.09-2.37.31-4.65.92-6.93,1.59-1.55.34-3.21.41-4.35,1.94,1.78-1.03,3.9.03,5.64-1.19,7.32-1.29,14.61-1.27,21.86.54,1.5.38,2.97.88,4.22,1.79,1.05.76.93,1.51-.32,2-2,.78-4.12,1.08-6.22,1.42-1.61,0-3.23,0-5.19,0,2.01,1.33,3.9,1.3,5.78,1.22,3.17,1,6.75,1.01,9.59,3.68-5.66,3.56-11.5,3.16-17.4,2.32-1.46-.14-2.83-.97-4.62-.66,1.44,1.28,2.99,1.57,4.58,1.75,2.86.56,5.75,1.08,8.09,2.97.66.53,2.1,1.19.53,2.36-.74-.08-1.47-.05-2.15.3-4.62-.21-9.21-.66-13.69-1.88-1.35-.88-2.83-1.1-4.7-1.18,1.01,1.3,2.05,1.74,3.23,1.94,2.11.77,4.24,1.49,6.32,2.32,1.85.73,3.6,1.65,4.65,3.93-3.86.7-7.29.03-10.7-.76-1.72-.4-3.42-.91-5.13-1.37-1.3-1.13-2.8-1.66-4.96-1.77,1.4,1.47,2.77,2.03,4.18,2.53,1.78.92,3.41,2.03,4.62,3.67,1.18,1.6-.23,1.63-1.17,1.94-.91-.09-1.82-.17-2.73-.26-2.41-1.01-4.81-2.02-7.22-3.03-.75-.5-1.27-1.59-2.64-.84.87.62,1.33,1.99,2.66.75-.8.36-.59.89-.21,1.4.77,1.05,1.59,2.07,2.36,3.13.35.49.63,1.03-.06,1.51-.94-.07-1.88-.13-2.82-.2-2.63-1.21-5.27-2.43-7.9-3.64-.79-.84-1.7-1.42-2.89-1.44,0,0,.05.05.05.05-.18-.2-.36-.41-.54-.61ZM314.19,189.34c1.62,1.41,3.09,1.75,4.61,1.77,2.1.02,3.43-1.26,3.08-3.33-.21-1.23.03-1.61,1.06-2.06,1.35-.59,2.63-1.58,2.19-3.24-.43-1.62-2.07-1.81-3.48-1.96-.72-.07-1.64-.38-2.26.6.73,1.13,2.77.2,3.03,2.02-1.3,1.57-3.75,1.16-5.05,2.68.33,1.29,2.33,1.02,2.18,2.79-1.42.96-3.14.33-5.35.73ZM313.07,194.19c.15,3.35-.2,3.66-3.47,3.1-.79-.14-1.56-.58-2.43.04,1.11,1.7,3.03,1.75,4.67,2.22,1.41.4,2.97.43,3.73-1.2.67-1.43-.22-2.51-1.22-3.42-.33-.3-.8-.47-1.27-.73Z"/>
      <path class="cls-9" d="M268.72,239.29c1.99-1.27,1.95-3.37,2.21-5.36.18-1.37-.42-2.88.81-4.33,1.35,1.44,2.33,2.18,1.04,4.66-1.36,2.62-.83,6.15-.31,9.18.8,4.73,2.71,9.12,5.56,13.04.04,1.56-.03,3.52-1.5,3.98-1.36.42-2.32-1.42-3.19-2.48-1.75-2.11-2.95-4.59-3.98-7.13-.22-.88-.48-1.74-1.31-2.27-.16-.26.27-1.03-.52-.69-.17.07.15.57.47.73.03,1.01-.26,2.1.64,2.93.02,1.45.39,2.81.93,4.15.31.77.6,1.56.44,2.43-.35,1.84-1.56,2.36-3.05,1.16-2.43-1.97-4.57-4.21-5.9-7.1-.64-1.39-1.26-2.8-1.99-4.42-.81,1.98.25,3.59.29,5.25.01.59,0,1.24-.6,1.58-.68.38-1.1-.19-1.52-.56-2.54-2.29-4.21-5.15-5.4-8.32-.57-1.52-.93-3.14-2.34-4.71-.12,2.18-.22,3.9-.35,6.18-3.61-3.53-3.93-8.23-6.27-11.94-1.09.98-.15,2.31-1.1,3.03-9.92-6.32-10.22-18.92-4.12-24.51,3.98-3.64,8.74-4.53,13.95-3.38-2.14-.18-3.17,1.03-3.99,2.84-2.09,4.61-2.72,9.14.2,13.65.39.6.77,1.22,1.26,1.73,1.75,1.85,2.47,1.67,3.47-.69.27-.64.19-1.45.9-1.88,1.08.12.87.97.89,1.62.04,1.79-.11,3.6.05,5.38.24,2.66,1.3,4.81,4.22,5.46-.54,1.95-1.8,2.18-3.46,1.45-.13-.1-.26-.2-.4-.3.1.14.19.28.29.41.36,2,1.62,2.47,3.34,1.81,1.65-.63,1.9-2.01.96-4.32.02-.58,0-1.16.08-1.74.05-.4-.13-1.06.59-1.01.5.04.73.5.88.95.24.22.47.43.71.65,0,0-.01-.02-.01-.02.04,1.17-.12,2.36.33,3.51.74,1.9,2.71,3.66,4.14,3.4,2.17-.4,2.65-2.09,2.7-4Z"/>
      <path class="cls-1" d="M414.15,215.57c5.38,2.92,9.81,7.04,14.52,11.31-1.5.94-2.81.39-3.93.15-8.63-1.87-17.29-3.7-24.89-8.57-.7-.45-1.33-1.02-1.95.26-.45.95-1.47.48-2.26.31-2.82-.6-5.41-1.77-7.96-3.11-10.9-5.71-22.08-10.79-33.48-15.41-.49-.74-.68-1.69-1.53-2.18.09-1.01,1.01-1.8.77-2.89,3.07.96,6.13,1.92,9.2,2.87,11.08,3.41,21.79,7.76,32.26,12.71,1.69.8,3.28,2.07,5.36,1.66l-.03-.02c.21.81.85.75,1.47.75l-.04-.03c.05.46.37.65.76.76v-.03c.26.65.81.75,1.42.71h0c.27.67.84.73,1.45.73l-.03-.02c.3.68.9.72,1.52.73,1.73-.57,2.88-2.46,4.99-2.16,0,0-.05-.03-.05-.03.27.68.87.73,1.47.77,0,0-.04-.02-.04-.02.33.24.65.49.98.73Z"/>
      <path class="cls-1" d="M399.48,225.07c6.11,3.95,11.77,8.46,17.34,13.89-1.82.7-3.13.34-4.44,0-7.76-2.04-15.16-5.05-22.55-8.12-1.92-.8-3.47-2.07-5-3.42-.98-.86-2.06-1.62-3.09-2.42-.93.22-.94.7-.37,1.34.23.8.15,1.57-.85,1.46-.78-.09-1.62-.46-2.27-.92-10.58-7.55-21.71-14.25-32.9-20.85-.3-.18-.52-.47-.82-.74.97-.7,1.6-1.87,3-1.76,8.8,5.23,18.27,9.11,27.44,13.61,2.14,1.22,4.31,2.4,6.42,3.67.99.59,2.02.51,3.07.53l-.04-.02c.22.78.88.71,1.48.75l-.05-.04c.16.46.34.76.64.08,1.16.57,2.46.95,3.45,1.74,1.74,1.38,3.78,1.88,5.82,2.37,1.38.33,2.85.51,3.71-1.11Z"/>
      <path class="cls-3" d="M415.34,193.45c5.97,2.09,11.36,5.31,16.84,8.54-4.85,1.93-9.78,1.59-14.69,1.52-5.08-.07-9.81-1.49-14.1-3.9-.85.96.08,1.37-.22,2.24-3.91.38-7.96.12-11.69-1.36-6.88-2.72-13.78-5.38-20.77-7.82.67-1.79,1.98-2.95,3.68-3.73,8.02.71,15.76,2.93,23.62,4.46,2.8,1.15,5.67,1.97,8.71,2.07l-.05-.02c.62.96,1.62.65,2.5.75.57-.06,1.54.07,1.66-.2.9-1.99,3-1.72,4.49-2.55Z"/>
      <path class="cls-1" d="M318.32,220.5c.67.06,1.33.12,2,.18,4.16,5.29,9.06,10.02,12.13,16.13.11.21.65.2.98.29.03.59.15,1.13.71,1.46.07.33.08.69.21,1,.16.38.39.99.88.65.46-.33.04-.82-.27-1.12-.23-.22-.57-.33-.86-.49.06-.63.07-1.24-.71-1.45.42-1.79-.34-3.23-1.37-4.58-.93-1.22-1.83-2.46-2.83-3.62-2.38-2.75-4.07-6.07-6.87-8.47-.81-1.3-1.06-2.78-1.31-4.25,1.9-.22,2.83,1.25,4.09,2.24,1.55,1.22,2.24,3.63,4.76,3.55,0,0,0,0,0,0-.45.72-.19,1.43.28,1.92,2.57,2.69,4.47,5.95,7.25,8.45.21.5.41,1.01.92,1.3.26.29.52.58.78.87.2.21.39.42.59.64.24.24.48.48.71.72.12.55.31,1.04.88,1.27.11.37.33.63.74.69,0,.6.19,1.11.76,1.39.04.08.06.18.12.24.03.04.12.03.18.05-.11-.09-.21-.18-.32-.27.03-.61-.05-1.17-.67-1.48-.06-.39-.28-.65-.67-.76.05-.62-.13-1.14-.63-1.53-.24-.24-.47-.48-.71-.73-.2-.21-.4-.41-.6-.62-.26-.29-.52-.58-.78-.87-.08-.56-.31-1.03-.76-1.38-.07-.41-.14-.83-.22-1.24,2.77.6,4.95,2.89,7.96,2.82,3.73,4.5,5.75,9.75,7.03,15.45-1.54.78-2.88.34-4.26.01-6.13-1.44-11.11-4.81-15.6-9.08-1.35-1.29-2.45-2.97-4.43-3.5,0,0,.02.03.02.03-.15-.88-.88-1.29-1.47-1.83-.05-.17-.15-.27-.32-.31-.38-.37-.75-.74-1.13-1.12-3.04-3.85-5.93-7.78-7.17-12.65Z"/>
      <path class="cls-1" d="M356.61,216.14c4.9,1.46,8.69,4.88,12.94,7.45,7.37,4.45,14.2,9.67,20.32,15.76,2.08,2.07,3.91,4.39,6.15,6.93-3.61.37-6.31-.98-9.08-1.83-6.76-2.07-12.89-5.54-19.06-8.89-.98-.53-1.99-1.27-2.23-2.56-.08-.82-.58-1.31-1.28-1.65l-.04-.05c.15-1.48-.71-2.43-1.67-3.38-2.96-2.93-5.88-5.89-8.83-8.83-.61-.61-1.11-1.25-.96-2.19,2.62.73,4.18,3.27,6.8,3.99,1.4,1.62,3,2.96,5.14,3.5.27.21.53.43.79.64.27.21.53.43.8.64.15.25.25.63.61.2-.15-.12-.31-.23-.46-.35-.24-.24-.48-.48-.72-.72-.24-.23-.48-.47-.72-.7-1.33-1.65-3.11-2.7-4.92-3.72-1.59-1.36-3.19-2.73-4.78-4.09.4-.06.79-.11,1.19-.17ZM371.32,229.09c-.07-.08-.13-.16-.2-.24-.08.07-.21.13-.22.21-.03.29.11.41.32.31.06-.03.07-.18.1-.27ZM369.88,228.15l-.19-.11-.02.18.21-.07ZM368.19,226.87l.13-.17-.21-.03.08.2Z"/>
      <path class="cls-9" d="M296.34,256.54c-.51-1.92,1.37-2.25,2.05-3.39,1.44.6,1.61,1.89,2.01,2.94,1.76,4.62,4.25,8.84,7.47,12.55,2.74,3.15,2.17,6.67,1.62,10.19-.27,1.68-1.58,2.1-3.28,1.62-1.33-.38-2.3-1.23-3.26-2.13-4.37-4.04-7.7-8.8-9.85-14.35-1.19-3.09-3.11-5.97-2.91-9.49.03-.58.1-1.16.19-2.2,1.88,1.5,3.85,2.3,4.92,4.25,1.02,2.86,1.93,5.78,4.33,7.89-.04.62.08,1.16.71,1.44,0,.6.12,1.14.73,1.43.08.29-.06.67.35.81.03-.1.12-.23.09-.28-.13-.19-.3-.34-.46-.51-.04-.58-.1-1.15-.7-1.46,0-.6-.12-1.14-.72-1.43-.45-2.9-1.68-5.48-3.29-7.89Z"/>
      <path class="cls-6" d="M411.8,214.11c-2.1-.3-3.26,1.59-4.99,2.16-.36-.54-.89-.76-1.52-.74,0,0,.03.02.03.02-.28-.64-.81-.8-1.45-.72,0,0,0,0,0,0-.23-.74-.75-.87-1.43-.71,0,0,0,.03,0,.03.01-.52-.32-.69-.76-.76,0,0,.04.03.04.03-.28-.67-.82-.82-1.47-.75,0,0,.03.02.03.02-.45-.98-1.48-1.12-2.29-1.55-9.75-5.1-19.91-9.27-30.3-12.87-4.93-1.71-9.89-3.33-14.84-5,2.54-1.16,5.05-1.46,7.9-.87,7.53,1.55,14.72,4.07,21.85,6.81,8.92,3.43,17.42,7.76,25.73,12.45,1.23.69,2.58,1.26,3.46,2.45Z"/>
      <path class="cls-1" d="M315.01,236.33c-.43-.92-.85-1.85-1.27-2.77,1.54.02,1.77-.98,1.71-2.2.47,0,.94.02,1.41.03l.02.02c1.78,3.35,3.75,6.56,6.93,8.81.18.52.38,1.03.88,1.34.24.23.48.47.71.7.24.23.49.47.73.7.24.24.48.48.72.72.1.29.31.44.47.28.16-.16.01-.38-.28-.47-.23-.25-.45-.5-.68-.75-.23-.25-.45-.51-.68-.76-.23-.24-.46-.49-.69-.74-.05-.57-.3-1.03-.75-1.39-1.05-2.63-3.66-4.25-4.53-7,1.39-.08,2.09.98,2.92,1.79,2.7,2.66,5.4,5.33,8.07,8.03.94.96,1.89,1.81,3.36,1.65,2.73,3.23,3.48,7.23,4.19,11.2.26,1.45-.66,2.11-2.31,1.69-2.21-.56-4.21-1.67-5.94-3.16-4.96-4.27-9.66-8.77-12.89-14.58-.46-.83-1.06-1.58-1.59-2.37-.17-.26-.35-.52-.52-.77Z"/>
      <path class="cls-9" d="M286.85,262.31c-.33-1.47.18-2.56,1.51-3.3,1.05.58,1.27,1.71,1.63,2.64,1.69,4.36,3.83,8.49,6.26,12.46,2,3.26,1.35,6.71.9,10.09-.26,1.9-1.44,2.25-3.16,1.06-3.82-2.62-6.7-6.15-8.74-10.26-2.4-4.83-3.8-10.03-4.94-15.28-.12-.53-.18-1.2.71-1.69,1.65,1.3,3.5,2.51,4.96,4.21.76,2.59,1.16,5.33,3.24,7.33-.45-2.56-.7-5.16-2.38-7.27ZM290.84,272.98c-.05-.08-.11-.15-.16-.23-.07.06-.18.12-.19.19-.04.26.07.37.26.28.06-.03.07-.16.1-.25Z"/>
      <path class="cls-6" d="M415.34,193.45c-1.49.83-3.59.56-4.49,2.55-.12.26-1.09.14-1.66.2-.69-.73-1.57-.82-2.49-.75,0,0,.05.02.05.02-2.08-1.86-4.85-1.88-7.3-2.75-6.55-2.15-13.31-3.48-20.04-4.92-5.45-1.16-10.94-2.22-16.55-2.29-.46-.04-.93-.08-1.39-.11-.86-.7-1.88-.65-2.9-.61-.49-.38-1.57-.53-.77-1.49,1.03-1.23,2.29-1.79,4.03-1.74,6.59.19,13.05,1.27,19.5,2.44,10.92,1.98,21.63,4.77,32.06,8.58.67.24,1.31.58,1.96.87Z"/>
      <path class="cls-1" d="M327.5,255.84c1.28,2.83,2.3,5.74,2.34,8.88.04,2.7-1.11,3.47-3.54,2.23-2.66-1.35-5.06-3.15-7.17-5.26-5.2-5.21-8.83-11.47-11.82-18.13-.65-1.45-.48-2.94-.2-4.45,1.49.07,2.29,1.01,3.23,1.69,1.92,3.42,3.44,7.1,6.49,9.77.04.45.27.78.65,1.02.14.96.61,1.69,1.5,2.13.25.23.49.46.73.69.11.31.22.62.33.93.09-.07.25-.12.26-.2.05-.4-.2-.62-.52-.8-.23-.25-.45-.5-.68-.75,0-1.01-.07-1.98-1.34-2.24-.14-.37-.27-.75-.4-1.12-.41-1.01-.82-2.02-1.24-3.03,1.18-.13,1.83.5,2.61,1.35,1.78,1.97,3.37,4.24,6.13,5.05,0,0-.04-.03-.04-.03.2.7.75.82,1.37.82,0,0,.01.01.01.01-.02.88.41,1.36,1.29,1.44Z"/>
      <path class="cls-6" d="M329.95,209.17c1.87-.42,3.75-1.09,5.55.2.5.46,1.04.97,1.75.54.61-.37.35-.97.16-1.51-.17.44-.34,1.19,0,1.27,2.07.49,2.2,2.79,3.69,3.78,1.03.46,1.58,1.91,3.05,1.45h0c.51,1.81,1.66,2.83,3.59,2.88h0c-.21.32-.25.67.06.91,2.28,1.83,4.23,4.05,6.79,5.54h-.01c.27.88.68,1.6,1.8,1.44h0c-.3.8.4,1.11.77,1.58.74.76,1.2,1.87,2.46,1.99.17.56.54.93,1.1,1.1-.12.97.6,1.36,1.23,1.81.09.1.2.16.34.16.95,1.37,1.9,2.75,2.84,4.12-1.45,1.37-3.64.12-5.11,1.43l-1.06-.02c-.28-.39-.58-.73-1.11-.74l.04.03c0-.5-.23-.77-.75-.75l.03.03c.02-.52-.21-.78-.75-.75l.03.03c.04-.53-.19-.81-.74-.75l.02.02c.06-.55-.19-.8-.74-.74l.02.02c.06-.56-.18-.81-.74-.74l.02.02c.07-.56-.17-.82-.74-.74l.02.02c.08-.57-.11-.87-.73-.74l.02.02c.38-.78-.11-1.17-.69-1.53-.15-.35-.37-.6-.78-.65l.03.03c-.42-.76-.81-1.58-1.87-.73,0-.69-.33-1.03-1.02-1.02.99-1.06.01-1.75-.57-2.33-1.67-1.69-3.45-3.28-5.19-4.91-.49-.66-1.04-1.06-1.82-.39.15-.4.05-.71-.32-.94.24-.1.33-.28.27-.55-2.6-2.52-4.83-5.46-8.18-7.11h0c-.64-1.14-1.55-1.94-2.89-2.16l.02.02c.17-.19.2-.41.09-.64Z"/>
      <path class="cls-1" d="M340.95,220.54c.78-.66,1.33-.27,1.82.39-.87,1.72.31,2.79,1.44,3.55,1.61,1.07,2.91,2.43,4.31,3.7.69,0,1.03.34,1.02,1.02.53.47,1.04,1.01,1.87.73,0,0-.03-.03-.03-.03-.24.73.13,1.18.71,1.52.11.38.37.59.76.65,0,0-.02-.02-.02-.02.08.41.33.65.73.74,0,0-.02-.02-.02-.02.1.4.34.64.74.74,0,0-.02-.02-.02-.02.1.4.35.64.74.74,0,0-.02-.02-.02-.02.1.39.35.64.74.74,0,0-.02-.02-.02-.02.1.39.35.64.74.75,0,0-.03-.03-.03-.03.11.39.36.63.75.75,0,0-.03-.03-.03-.03.11.39.36.63.75.75,0,0-.04-.03-.04-.03.22.47.63.67,1.11.74.35,0,.7.02,1.06.02,2.34,4.16,4.5,5.04,8.65,3.52,2.05,2.76,3.73,5.72,5.04,8.81-.78,1.06-1.66.66-2.36.38-5.88-2.33-11.6-4.93-16.57-8.97-2.43-1.97-4.37-4.3-5.98-6.96-1.22-2.01-2.6-3.93-3.99-5.83-.66-.9-1.4-.69-1.93.25-.04-.3-.08-.59-.13-.89.85-.76.45-1.53-.07-2.19-.88-1.11-1.85-2.15-2.78-3.22-.81-1.01-1.61-1.78-2.35.05-.19,0-.37,0-.56-.03,0-.38,0-.75,0-1.13.85.42,1.42.21,1.69-.72.17-.11.34-.22.51-.33.6-.02,1.19-.04,1.79-.06Z"/>
      <path class="cls-1" d="M319.75,265.86c1.8,2.28,1.49,4.94,1.14,7.49-.29,2.05-1.43,2.49-3.38,1.53-.84-.41-1.62-1.01-2.34-1.61-7.33-6.18-11.6-14.37-15.1-23.06-.17-.42-.26-.92-.24-1.38.05-1.35.91-1.81,2.1-1.05.59.38,1.06.96,1.84.98,1.12,2.63,2.74,4.97,4.28,7.36.39.6.77,1.22,1.63,1.14v-.02c-.13.67.04,1.2.72,1.46l-.02-.03c.08.42.31.69.75.75l-.03-.03c.08.41.36.63.73.77,1.76,2.22,3.55,4.42,6.63,4.83,0,0-.05,0-.05.01.15.75.7.86,1.33.86Z"/>
      <path class="cls-6" d="M399.48,225.07c-.86,1.62-2.34,1.45-3.71,1.11-2.04-.49-4.08-.98-5.82-2.37-.99-.78-2.29-1.17-3.45-1.74-.21-.04-.42-.07-.64-.08,0,0,.05.04.05.04-.33-.58-.85-.77-1.48-.75,0,0,.04.02.04.02-2.53-2.29-5.68-3.49-8.69-4.94-1.25-.7-2.47-1.44-3.75-2.08-7.34-3.7-14.7-7.38-22.05-11.06-.02-.68-.04-1.36-.06-2.03,14.55,5.43,28.53,12.1,42.24,19.36,2.53,1.34,4.89,3,7.32,4.51Z"/>
      <path class="cls-1" d="M385.09,175.5c5.27.45,10.29,1.9,16.02,3.77-5.47,2.13-10.39,3.95-15.6,3.22-7.93-1.11-15.81-2.48-23.82-3.02-1.25-.08-2.66-.1-3.73-1.04,1.3-.07,2.59-.18,3.89-.19,5.91-.03,11.83,0,17.74-.08.64,0,1.66.66,1.98-.6-.64-1-1.63-.75-2.55-.73,0,0-.02.1-.02.1.03-.36.05-.72.08-1.08.47.07.93.13,1.4.2,1.54-.14,3.19.57,4.61-.55Z"/>
      <path class="cls-9" d="M277.48,265.18c-.01-.12-.03-.24-.03-.36-.03-.73-.05-1.56.86-1.7,1.01-.16,1.05.73,1.14,1.41.47,3.33,1.52,6.48,2.94,9.51.71,1.5,1.41,3.04,2.37,4.39,1.19,1.67,1.02,3.34.49,5.09-.62,2.04-1.86,2.35-3.35.73-1.29-1.39-2.58-2.85-3.54-4.47-3.14-5.29-4.5-11.14-5.2-17.44,1.95.36,3.23.96,3.48,2.83.54,3.46,1.29,5.39,2.94,7.27-.42-2.68-1.19-4.98-2.09-7.25Z"/>
      <path class="cls-9" d="M263.69,260.16c2.39,1.65,4.35,3.15,6.93,1.71.57,3.98,1.16,7.72,1.6,11.47.18,1.53.1,3.09.03,4.64-.05,1.06-.19,2.35-1.36,2.61-1.12.25-1.42-1.06-1.92-1.81-3.61-5.5-5.04-11.59-5.29-18.62Z"/>
      <path class="cls-9" d="M359.6,229.25c-1.26-.12-1.72-1.22-2.46-1.99-.06-.15-.07-.31-.04-.47.26.15.5.13.57-.11.13-.41-.18-.57-.49-.71-.16-.42-.41-.56-.82-.29,0,0,0,0,0,0,.26-1.55-.48-1.85-1.8-1.45,0,0,.01,0,.01,0-.46-3.09-3.74-6.19-6.85-6.46,0,0,0,0,0,0-.56-2.41-1.02-2.77-3.59-2.88,0,0,0,0,0,0-.46-2.46-1.29-2.85-3.05-1.45-1.49-.99-1.62-3.29-3.69-3.78-.33-.08-.17-.83,0-1.27-.53-.14-1.07-.27-1.6-.41-1.36-1.72-1.31-2.17.33-3.04,2.09,1.56,3.98,3.44,6.61,4.14,0,0,0,0,0,0,.28.9,1.14,1.14,1.8,1.63,2.49,1.83,5.29,3.23,7.55,5.38.08.43.3.74.73.88l.03-.08c-.14.94.35,1.58.96,2.19,2.95,2.94,5.87,5.91,8.83,8.83.96.95,1.82,1.91,1.67,3.38-1.05-.43-2.34-1.57-2.4.83-.63-.45-1.35-.85-1.23-1.81.07-.8-.3-1.16-1.1-1.1Z"/>
      <path class="cls-9" d="M255.88,256.53c1.23-.4,1.94.61,2.91.58.8-.02,1.33-1.34,2.2-.61.94.79.52,2.01.55,3.05.09,3.34-.14,6.68.65,9.99.3,1.25.29,2.63-.26,3.88-.49,1.12-1.47,1.21-2.21.25-.22-.28-.36-.62-.51-.95-2.3-5.18-3.66-10.54-3.32-16.2Z"/>
      <path class="cls-8" d="M352.84,193.27c4.95,1.66,9.91,3.29,14.84,5,10.39,3.6,20.55,7.77,30.3,12.87.82.43,1.84.57,2.29,1.55-2.08.41-3.67-.86-5.36-1.66-10.47-4.95-21.18-9.3-32.26-12.71-3.07-.95-6.13-1.91-9.2-2.87-.82-.55-.62-1.39-.62-2.17Z"/>
      <path class="cls-6" d="M336.96,221.65c0,.38,0,.75,0,1.13-1.87.9-3.72.27-5.58-.04-.51-.24-1.03-.49-1.54-.73,0,0,0,0,0,0-2.05-3.83-5.38-6.37-8.86-8.76-.37-.54-1.07-.86-1.17-1.7,1.54-1,3.12.68,4.61-.1.78.37,1.46,1.17,2.47.59,0,0,0,0,0,0-.06.2-.24.53-.17.59,3,2.81,5.98,5.65,9.09,8.34.97.84,1.38-.18,1.59-1.04v.22s.22.04.22.04c0,0,.08.04.08.04-1.04.07-1.5.43-.74,1.43Z"/>
      <path class="cls-9" d="M334.06,244.33c-1.47.16-2.42-.7-3.36-1.65-2.67-2.7-5.37-5.37-8.07-8.03-.83-.82-1.53-1.88-2.92-1.79,0,0,.03,0,.03,0-.16-.33.37-1.35-.73-.73-.69-.31-1.28-.91-2.13-.72,0,0-.02-.02-.02-.02.05-.38.11-.75.16-1.13,2.02-2.02,1.41-4.44,1.06-6.83-.15-.25-.29-.5-.44-.75-.18-.56-.46-1.12-.51-1.69-.1-1.25.49-1.08,1.2-.49,1.24,4.86,4.13,8.8,7.17,12.65.04.71.4,1.1,1.13,1.12.17.04.28.15.32.31-.21,1.17.05,1.97,1.47,1.83,0,0-.02-.03-.02-.03-.26,1.63,1,2.47,1.84,3.52,1.23,1.52,3.01,2.56,3.83,4.43Z"/>
      <path class="cls-1" d="M287.53,239.52c-.08-.95.03-1.88,1.29-1.17,1.03.58,1.76,1.54,2.31,2.64.4.79.62,1.79,1.83,2.23.04-2.97-1.34-5.68-.58-8.53,1.65,3.5,2.73,7.13,2.9,10.98.08,1.8.25,3.52,1.36,5.01-1.66,2.66-2.18,2.76-3.9.51-1.37-1.8-2.4-3.68-2.75-6.06-.29-1.97-.23-4.37-2.46-5.6Z"/>
      <path class="cls-3" d="M331.39,222.75c1.86.3,3.71.94,5.58.04.18.03.37.04.56.03.78.72,1.56,1.45,2.35,2.17.8,1.2,1.49,2.49,2.85,3.19.04.3.09.59.13.89,1.32,1.23,1.84,2.98,2.8,4.44-3.01.07-5.19-2.21-7.96-2.82,0,0,.01,0,.01,0l-.64-.77-.03-.04c-.19-.22-.38-.45-.57-.67-1.69-2.15-3.38-4.31-5.07-6.46Z"/>
      <path class="cls-8" d="M362.85,185.51c5.61.07,11.1,1.13,16.55,2.29,6.73,1.43,13.48,2.77,20.04,4.92-.32.55-.89.56-1.41.68-7.87-1.53-15.6-3.75-23.62-4.46-.73-.78-1.74-.48-2.61-.69-2.92-.7-6.06-.24-8.84-1.65-.03-.36-.06-.72-.1-1.08Z"/>
      <path class="cls-6" d="M379.08,175.85c-.03.36-.05.72-.08,1.08-1.32.9-2.78.5-4.15.33-5.2-.64-10.41-.48-15.63-.35-2.34-.21-4.76.01-6.9-1.28,2.41-1.21,13.1-1.56,26.26-.85.17.36.33.72.5,1.07Z"/>
      <path class="cls-1" d="M278.8,246.47c2.95.27,1.88-2.23,2.36-4.08,3.43,4.4,3.49,9.58,5.41,14.04-1.47,2.25-1.39,2.16-2.97.73-1.45-1.31-2.38-2.82-2.91-4.68-.57-2.02-1.26-4-1.89-6Z"/>
      <path class="cls-9" d="M324.88,253.6c-2.76-.81-4.35-3.08-6.13-5.05-.77-.85-1.43-1.49-2.61-1.35,0,0,.02.01.02.01-.02-.63-.15-1.2-.83-1.46-1.88-1.79-2.71-4.14-3.56-6.49.48-.9.88-1.83.8-2.89.24,0,.48.02.72.03.09.14.22.21.38.22.18.2.35.41.53.61,1.85,4.83,5.14,8.69,8.45,12.54.97,1.13,2.41,2.02,2.22,3.83Z"/>
      <path class="cls-9" d="M297.38,237.86c-.64-2.22-1.27-4.45-1.92-6.7,1.73-.36,1.37,1.67,2.72,1.7v-3.67c1.47,1.75,2.48,4.47,3.62,8.58.55,2,.32,4.33,2.16,5.86-.03.88-.23,1.8-1.18,1.95-.9.15-1.59-.62-1.9-1.35-.5-1.18-.83-2.45-1.09-3.72-.38-1.82-.73-3.63-1.97-5.2-.67.88-.16,1.77-.44,2.55Z"/>
      <path class="cls-9" d="M362.94,186.59c2.78,1.41,5.92.95,8.84,1.65.88.21,1.88-.09,2.61.69-1.7.78-3.01,1.94-3.68,3.73-3.19-.75-6.38-1.5-9.84-2.31.59-1.25.75-2.37.57-3.51.08-.17.14-.34.2-.51.43.09.86.17,1.29.26Z"/>
      <path class="cls-9" d="M318.47,264.99c-3.09-.41-4.87-2.61-6.63-4.83-.24-.26-.49-.51-.73-.77,0,0,.03.03.03.03-.11-.38-.34-.65-.75-.75l.02.03c.03-.62-.1-1.17-.74-1.46v.02c-.9-3.2-3-5.79-4.47-8.71.1-.58.01-1.29.58-1.63.51-.3.88.1,1.07.56,2.69,6.38,7.22,11.49,11.48,16.8.13.16.1.46.14.69Z"/>
      <path class="cls-2" d="M349.97,203.24c7.35,3.69,14.71,7.36,22.05,11.06,1.27.64,2.5,1.38,3.75,2.08-.27.25-.54.5-.81.75-9.16-4.5-18.64-8.37-27.44-13.61.32-.22.63-.44.95-.66.5.13,1,.25,1.49.38Z"/>
      <path class="cls-9" d="M250.6,249.96c1.99,1.7,3.16,3.31,3.03,5.68-.16,3.17.3,6.35-.12,9.62-2.88-2.38-4.21-9.12-2.91-15.29Z"/>
      <path class="cls-2" d="M322.32,220.47c2.8,2.41,4.49,5.72,6.87,8.47,1,1.16,1.9,2.4,2.83,3.62,1.03,1.35,1.79,2.79,1.37,4.58,0,0,.05-.04.05-.04-.34-.09-.88-.08-.98-.29-3.07-6.11-7.97-10.84-12.13-16.13.66-.07,1.33-.14,1.99-.21Z"/>
      <path class="cls-3" d="M368.66,241.39c-4.15,1.52-6.31.64-8.65-3.52,1.47-1.31,3.66-.06,5.11-1.43,1.43,1.47,2.65,3.09,3.54,4.95Z"/>
      <path class="cls-9" d="M337.62,220.19l-.22-.04s0-.22,0-.22c-2.28-2.06-4.53-4.16-6.86-6.18-1.03-.9-1.92-2.24-3.65-1.72,0,0,0,0,0,0,.37-.69.03-1.15-.5-1.54-.12-.23-.24-.46-.36-.69.04-.22.02-.44-.07-.65.78-1.03,1.54.07,2.32,0,.39.56.89.85,1.59.64,0,0-.02-.02-.02-.02.19,1.75,1.2,2.41,2.89,2.17,0,0,0,0,0,0-.22.64.04,1.14.48,1.56,1.75,1.7,3.51,3.39,5.27,5.09-.05.66-.38,1.16-.85,1.59Z"/>
      <path class="cls-8" d="M359.23,176.9c5.21-.13,10.43-.29,15.63.35,1.37.17,2.83.57,4.15-.33,0,0,.02-.1.02-.1.63,1.02,1.67.59,2.55.73-.32,1.27-1.34.6-1.98.6-5.91.07-11.83.05-17.74.08-1.3,0-2.6.12-3.89.19.01-.85.97-.91,1.27-1.53Z"/>
      <path class="cls-8" d="M320.99,213.25c3.47,2.4,6.81,4.93,8.86,8.76-2.52.08-3.2-2.33-4.76-3.55-1.26-.99-2.19-2.46-4.09-2.24,0,0-.04-.07-.04-.07.14-.53,0-.94-.54-1.16-.84-.91-.35-1.39.56-1.73Z"/>
      <path class="cls-8" d="M311.77,239.26c.85,2.35,1.68,4.7,3.56,6.49.16.55.26,1.14.83,1.46,0,0-.02-.01-.02-.01.41,1.01.82,2.02,1.23,3.03-.29-.06-.47.05-.53.34-3.05-2.67-4.57-6.35-6.49-9.77.47-.51.95-1.02,1.42-1.54Z"/>
      <path class="cls-9" d="M315.45,231.36c.06,1.22-.17,2.22-1.71,2.2-.32-.33-.73-.62-.95-1.01-1.46-2.57-1.23-3.3,1.48-4.9.16-.03.3,0,.42.12-.07.21-.12.42-.15.64-.33,1.02.01,1.78.91,2.32.01.21.01.42,0,.63Z"/>
      <path class="cls-8" d="M305.2,248.56c1.47,2.91,3.58,5.5,4.49,8.71-.87.08-1.24-.54-1.63-1.14-1.54-2.39-3.16-4.73-4.28-7.36.48-.07.95-.14,1.43-.2Z"/>
      <path class="cls-8" d="M342.76,209.1c-2.63-.7-4.52-2.58-6.61-4.14,2.65-.49,4.66.82,6.6,2.34,0,.6,0,1.2,0,1.81Z"/>
      <path class="cls-9" d="M356.61,216.14c-.4.06-.79.11-1.19.17-2.41-1.53-4.89-2.96-7.02-4.91.11-.13.22-.26.33-.38,2.87,1.33,6.01,2.25,7.88,5.12Z"/>
      <path class="cls-8" d="M296.34,256.54c1.62,2.41,2.85,4.99,3.29,7.89,0,0,0,0,0,0-2.4-2.1-3.3-5.03-4.33-7.89.34,0,.68,0,1.03,0Z"/>
      <path class="cls-5" d="M286.85,262.31c1.68,2.11,1.93,4.71,2.38,7.27-2.07-1.99-2.48-4.74-3.24-7.33.29.02.57.04.86.05Z"/>
      <path class="cls-5" d="M277.48,265.18c.9,2.27,1.67,4.57,2.09,7.25-1.64-1.88-2.4-3.81-2.94-7.27.28,0,.57.01.85.02Z"/>
      <path class="cls-1" d="M349.97,203.24c-.5-.13-.99-.25-1.49-.38-.95-.82-2.35-1.23-2.53-2.94,1.49.06,2.79.44,3.96,1.28.02.68.04,1.36.06,2.03Z"/>
      <path class="cls-5" d="M349.87,184.61c-1.89.07-3.77.11-5.78-1.22,1.96,0,3.58,0,5.19,0,.2.41.4.81.6,1.22Z"/>
      <path class="cls-5" d="M327.69,201.05c-1.41-.5-2.78-1.05-4.18-2.53,2.16.11,3.66.64,4.96,1.77-.26.25-.52.5-.79.76Z"/>
      <path class="cls-9" d="M329.73,177.63c-1.73,1.23-3.86.16-5.64,1.19,1.14-1.54,2.8-1.6,4.35-1.94.21.63.83.54,1.28.75Z"/>
      <path class="cls-8" d="M307.94,223.5c-.9-1.05-1.54-2.24-1.88-3.57l.22-.19c1.48.91,2.25,2.37,2.97,3.87-.44-.03-.87-.07-1.31-.11Z"/>
      <path class="cls-5" d="M342.02,191.69c-1.59-.18-3.15-.46-4.58-1.75,1.79-.3,3.15.52,4.62.66-.01.36-.03.72-.04,1.08Z"/>
      <path class="cls-9" d="M333.33,196.18c-1.18-.19-2.23-.63-3.23-1.94,1.87.08,3.36.31,4.7,1.18-.54.16-1.23,0-1.47.75Z"/>
      <path class="cls-8" d="M352.69,198.34c.85.49,1.04,1.44,1.53,2.18-.67-.12-1.37-.16-2.01-.39-.46-.16-1.28-.29-.99-1.07.21-.57.87-.7,1.47-.72Z"/>
      <path class="cls-2" d="M309.68,204.05c1.19.02,2.11.6,2.89,1.44-.12.42-.24.84-.36,1.27-1.08-.68-2.46-1.08-2.53-2.71Z"/>
      <path class="cls-4" d="M379.08,175.85c-.17-.36-.33-.72-.5-1.07,1.28-.15,2.57-.31,3.74.48-.63.23-1.37.2-1.84.8-.47-.07-.93-.13-1.4-.2Z"/>
      <path class="cls-6" d="M380.48,176.05c.47-.59,1.21-.57,1.84-.8.92.08,1.85.16,2.77.25-1.43,1.12-3.07.41-4.61.55Z"/>
      <path class="cls-2" d="M326.39,210.5c.54.39.88.85.5,1.54-1.01.59-1.69-.22-2.47-.59.65-.32,1.31-.64,1.97-.96Z"/>
      <path class="cls-4" d="M342.76,209.1c0-.6,0-1.2,0-1.81.8.5,1.76.77,2.36,1.57-.07.1-.15.19-.23.28-.71-.01-1.41-.03-2.12-.04h0Z"/>
      <path class="cls-2" d="M361.93,232.16c.06-2.41,1.36-1.26,2.4-.83,0,0,.04.05.04.04-.02.24-.01.48.02.71-.71.08-1.42.16-2.12.24-.14,0-.25-.06-.34-.16Z"/>
      <path class="cls-8" d="M268.63,251.56c-.89-.83-.6-1.91-.64-2.93l.05-.04c.84.52,1.09,1.39,1.31,2.27-.24.23-.49.47-.73.7Z"/>
      <path class="cls-2" d="M328.41,206.41c.91.08,1.82.17,2.73.26-.96.45-1.89.56-2.73-.26Z"/>
      <path class="cls-2" d="M335.82,208c.53.14,1.07.27,1.6.41.19.53.45,1.14-.16,1.51-.71.42-1.25-.08-1.75-.54.1-.46.21-.91.31-1.37Z"/>
      <path class="cls-2" d="M320.48,209.14c.94.07,1.88.13,2.82.2-1,.72-1.95.76-2.82-.2Z"/>
      <path class="cls-9" d="M346.47,209.73c.93.12,1.64.61,2.26,1.29-.11.13-.22.25-.33.38-.91-.21-1.71-.55-2.04-1.53l.11-.14Z"/>
      <path class="cls-5" d="M315.45,231.36c0-.21,0-.42,0-.63.4-.56.94-.67,1.57-.47-.05.38-.1.75-.16,1.13-.47,0-.94-.02-1.41-.03Z"/>
      <path class="cls-8" d="M358.56,184.78c1.02-.03,2.04-.09,2.9.61-1.02.06-2.08.3-2.9-.61Z"/>
      <path class="cls-9" d="M327.5,255.84c-.88-.08-1.3-.57-1.29-1.44.76.19,1.23.63,1.29,1.44Z"/>
      <path class="cls-9" d="M364.39,232.08c-.04-.24-.04-.47-.02-.71.7.34,1.2.83,1.28,1.65-.42-.31-.84-.62-1.26-.93Z"/>
      <path class="cls-5" d="M348.49,197.31c.68-.35,1.41-.38,2.15-.3-.63.73-1.36.73-2.15.3Z"/>
      <path class="cls-9" d="M319.75,265.86c-.63,0-1.19-.11-1.33-.86.64,0,1.11.24,1.33.86Z"/>
      <path class="cls-9" d="M326.2,254.38c-.62,0-1.17-.11-1.37-.82.66-.07,1.16.13,1.37.82Z"/>
      <path class="cls-2" d="M314.2,237.23c-.18-.2-.35-.41-.53-.61.45-.09.89-.19,1.34-.28.17.26.35.52.52.77-.44.04-.89.08-1.33.12Z"/>
      <path class="cls-8" d="M304.64,234.29c-.46-.53-.53-1.08-.13-1.68.04.56.09,1.12.13,1.68Z"/>
      <path class="cls-2" d="M314.53,228.41c.03-.22.08-.43.15-.64.49.01.97.02,1.46.04-.35.7-.96.71-1.61.6Z"/>
      <path class="cls-9" d="M381.37,226.33c-.57-.64-.56-1.11.37-1.34-.12.45-.24.89-.37,1.34Z"/>
      <path class="cls-2" d="M320.43,214.99c.54.22.67.63.54,1.16-.49-.24-.48-.72-.54-1.16Z"/>
      <path class="cls-6" d="M413.21,214.86c-.6-.04-1.2-.09-1.47-.77.62.01,1.11.26,1.47.77Z"/>
      <path class="cls-4" d="M345.12,208.86c.52.18,1.05.35,1.35.87,0,0-.11.14-.11.13-.6-.03-1.15-.13-1.47-.72.08-.09.15-.19.23-.28Z"/>
      <path class="cls-2" d="M329.87,209.81c-.7.21-1.2-.08-1.59-.64.56,0,1.12,0,1.68,0,.11.23.08.44-.09.64Z"/>
      <path class="cls-2" d="M313.29,236.4c-.24,0-.48-.02-.72-.03.26-.51.5-.46.72.03Z"/>
      <path class="cls-8" d="M309.67,224.3c.21.22.42.43.64.65-.36-.07-.57-.29-.64-.65Z"/>
      <path class="cls-2" d="M317.63,222.69c.15.25.3.5.44.75-.15-.25-.3-.5-.44-.75Z"/>
      <path class="cls-6" d="M414.15,215.57c-.33-.24-.65-.49-.98-.73.33.24.65.49.98.73Z"/>
      <path class="cls-2" d="M325.96,209.16c.09.21.12.43.07.65-.08-.15-.18-.29-.23-.44-.02-.05.1-.14.16-.21Z"/>
      <path class="cls-8" d="M361.65,186.33c-.06.17-.13.34-.2.51-.12-.14-.24-.28-.35-.42.18-.03.37-.06.55-.09Z"/>
      <path class="cls-5" d="M151.1,208.66q.04,2.39,3.14,3.14c-.24,1.41-1.68,1.97-2.23,3.11-.26.55-.51,1.13-.15,1.69.42.65,1.08.88,1.85.8,1.74-.18,2.88-1.52,4.24-2.41,1.22,1.01-.81,2.79,1.06,3.41,1.28.42,2.55-.36,3.85-.07-1.08,3.35-4.6,5.07-7.45,3.65-1.27-.63-2.43-1.35-3.87-1.7-1.82-.44-2.94-2.37-2.6-4.16.31-1.65.51-3.19.15-4.89-.24-1.12.55-2.28,1.69-2.93.11.12.21.24.31.37Z"/>
      <path class="cls-5" d="M172.34,232.28c.01.39.02.78.03,1.16-1.49.68-2.94,1.18-3.69-.97-.56-1.6-1.68-2.17-3.34-1.95-.9.12-1.55-.43-2.06-1.17-1.89-2.74-.94-7.21,2.17-9.34.3,1.4-.28,2.59-.49,3.8-.18,1.06-.7,2.25.46,2.92,1.16.66,1.95-.35,2.7-1.11.32-.32.52-.84,1.31-.64.07,1.34,0,2.76.25,4.12.28,1.47.46,3.22,2.65,3.19Z"/>
      <path class="cls-8" d="M185.35,235.6c.09,2.07-.07,4.05-1.6,5.69-1.04,1.11-2.14,1.88-3.76,1.6-1.72-.31-1.73-1.76-2.08-2.99.35-1.45-.18-3.14,1.37-4.6.56.91.33,1.82.4,2.65.09,1.04-.12,2.37,1.27,2.61,1.33.23,1.6-1.15,2.25-1.95.78-.96.41-2.74,2.15-2.99Z"/>
      <path class="cls-5" d="M133.65,199.8c-1.51-.03-3-.42-3.27-2.07-.32-1.92,1.09-2.88,2.6-3.63,1.08.88-.5,1.93.35,2.59.78.62,1.8.39,2.73.37,1.06-.02,2.11-.05,3.17-.08.06,1.28-.98,1.52-1.83,1.81-1.22.42-2.49.68-3.74,1.01Z"/>
      <path class="cls-8" d="M191.83,239.28c-1,2.5-2.13,3.34-3.68,2.72-1.65-.66-2.2-2.86-1.27-5.07.22.3.44.6.66.9,1.17,3.22,1.81,2.97,4.3,1.47h-.01Z"/>
      <path class="cls-9" d="M149.3,201.87c-.16,3.25,2.5,2.56,3.95,3.57-1.99,1.06-3.76,1.15-4.64.17-.9-1.01-.91-2.08.69-3.73Z"/>
      <path class="cls-9" d="M181.18,217.67c-.4,2.7.92,3.67,2.54,4.47-.99.95-1.89,1.73-2.84.65-1.15-1.3-1.71-2.83.3-5.12Z"/>
      <path class="cls-5" d="M138.08,222.09c.31-1.03.73-1.96,1.86-2.34l.25.21c-.07.88-.48,1.56-1.17,2.1-.31.01-.63.02-.94.04Z"/>
      <path class="cls-7" d="M125.69,203.36c.39-1.03,1.43-1.2,2.22-1.69-.47.92-.66,2.21-2.22,1.69Z"/>
      <path class="cls-5" d="M150.79,208.29c.35-.35.64-1.24,1.22-.48.26.34-.51.64-.91.85-.1-.12-.2-.25-.31-.37Z"/>
      <path class="cls-7" d="M149.47,232.85c.09-.32.17-.65.26-.97.08.08.22.16.23.25.03.38-.05.7-.55.66,0,0,.06.06.06.06Z"/>
      <path class="cls-7" d="M138.08,222.09c.31-.01.63-.02.94-.04-.31.51-.37,1.2-1.03,1.46-.15-.11-.29-.22-.44-.33.17-.37.35-.73.53-1.1Z"/>
      <path class="cls-5" d="M139.93,219.74c.13-.54.31-1.05.89-1.28l-.03-.03c.09.63-.05,1.16-.62,1.52,0,0-.25-.21-.25-.21Z"/>
      <path class="cls-5" d="M136.02,213.65c-.06.57-.31,1.02-.86,1.25-.03-.32-.06-.64-.1-.96.06-.36.31-.53.64-.62.1.11.21.22.32.32Z"/>
      <path class="cls-5" d="M140.83,218.47c.11-.1.22-.2.33-.3-.02.07-.03.17-.08.2-.08.05-.18.05-.28.07,0,0,.03.03.03.03Z"/>
      <path class="cls-7" d="M135.06,213.94c.03.32.06.64.1.96-.14.17-.31.28-.51.34-.12-.16-.25-.32-.38-.49.27-.27.53-.55.8-.82Z"/>
      <path class="cls-5" d="M135.7,213.32c.27-.2.54-.4.82-.6l-.03-.03c.07.43-.15.72-.47.95-.11-.1-.21-.21-.31-.32Z"/>
      <path class="cls-5" d="M136.52,212.72c.11-.09.22-.18.33-.27-.03.06-.04.16-.09.18-.08.04-.18.04-.27.06,0,0,.03.03.03.03Z"/>
      <path class="cls-5" d="M126.97,181.18c-1.42.91-2.86.58-3.68,1.82,1.49,1.6,3.81,1.62,5.57,2.72-.2,1.32-2.12,1.13-2.24,2.69,1.35,1.46,3.35.21,5.17,1.03-1.38,1.34-2.94,1.7-4.58,1.66-2.32-.06-3.24-1.04-2.95-3.4.12-.96.25-1.43-.83-1.83-1.45-.54-2.49-1.58-2.01-3.31.47-1.68,2.03-1.38,3.28-1.52.56-.06,1.13.06,2.25.14Z"/>
      <path class="cls-5" d="M121.37,199c.17-.35.45-.53.84-.46.09.02.16.15.24.23-.3.14-.61.28-.91.43,0,0-.17-.2-.17-.2Z"/>
      <polygon class="cls-5" points="121.4 178.23 121.59 178.41 121.43 178.2 121.4 178.23"/>
      <path class="cls-8" d="M191.85,239.29l.32-.31c-.02.07-.02.17-.06.2-.07.05-.18.07-.27.1,0,0,.01.01.01.01Z"/>
      <path class="cls-5" d="M53.15,209.16c0,.31,0,.63-.01.94-1.58.9-3.07,2.04-5.05,1.86,1.26-1.7,3.27-2.06,5.06-2.81Z"/>
      <path class="cls-5" d="M42.36,214.52c.48-.14.96-.28,1.44-.42-.07.6-.51.93-.98,1.21-.26.15-.65.32-.72-.2-.02-.18.17-.39.26-.58Z"/>
      <path class="cls-5" d="M43.77,214.13c.3-.62.85-.76,1.47-.74-.23.76-.85.77-1.47.74Z"/>
      <path class="cls-5" d="M45.21,213.41c.28-.66.84-.76,1.47-.74-.23.76-.84.77-1.47.74Z"/>
      <path class="cls-5" d="M46.65,212.69c.26-.69.82-.79,1.46-.74-.22.78-.83.77-1.46.74Z"/>
      <path class="cls-5" d="M55.41,190.57c.3.54.87.52,1.37.64-4.99,1.44-9.94,3.05-15.16,3.53,4.33-2.26,9.11-3.05,13.79-4.17Z"/>
      <path class="cls-5" d="M39.45,195.46c.53-.87,1.39-.74,2.21-.75-.5.95-1.41.68-2.21.75Z"/>
      <path class="cls-5" d="M38.98,196.1c-.01-.37.2-.56.52-.67-.17.22-.34.45-.52.67Z"/>
      <path class="cls-9" d="M59.6,222.72c1.46-1.99,3.81-2.48,5.86-3.47-.04.28-.08.57-.11.85-1.61,1.54-3.41,2.66-5.74,2.62Z"/>
      <path class="cls-9" d="M56.71,224.17c.29-.62.81-.78,1.44-.72-.25.7-.83.75-1.44.72Z"/>
      <path class="cls-9" d="M58.16,223.45c.26-.68.79-.8,1.43-.71-.25.69-.81.76-1.43.71Z"/>
      <path class="cls-2" d="M66.04,219.17c.29-.66.86-.76,1.48-.75-.19.86-.82.83-1.48.75Z"/>
      <path class="cls-9" d="M54.42,225.61c.33-.25.65-.5.98-.75-.32.25-.65.5-.98.75Z"/>
      <path class="cls-9" d="M55.67,224.89c.24-.39.58-.65,1.05-.72-.18.49-.57.67-1.05.72Z"/>
      <path class="cls-2" d="M65.34,220.1c.04-.28.08-.57.11-.85.2-.08.41-.12.63-.12.01.52-.4.72-.74.97Z"/>
      <path class="cls-8" d="M96.24,213.41c.25,1.2-.69,1.62-1.43,2.19-1.21.94-2.39,1.91-3.58,2.87-2.57,1.14-4.42,3.44-7.12,4.38-.11-.13-.21-.26-.31-.4.7-1.79,2.42-2.61,3.83-3.54,2.83-1.88,5.35-4.27,8.6-5.5Z"/>
      <path class="cls-5" d="M73.99,230.67c-.3.62-.82.77-1.45.71h.01c.3-.58.82-.74,1.43-.72h0Z"/>
      <path class="cls-8" d="M79.72,225.62c.21-.58.7-.79,1.26-.9.1.09.19.19.29.28-.36.54-.85.79-1.5.66,0,0-.04-.04-.04-.04Z"/>
      <path class="cls-8" d="M82.46,223.34c.45-.29.91-.59,1.36-.89.1.13.2.27.31.39-.26.51-.72.76-1.26.89-.13-.14-.27-.27-.41-.4Z"/>
      <path class="cls-5" d="M71.82,232.09c-.09.11-.19.22-.28.33.01-.07,0-.16.05-.19.07-.06.17-.08.26-.12,0,0-.02-.02-.02-.02Z"/>
      <path class="cls-5" d="M72.54,231.38c-.08.41-.33.63-.73.72,0,0,.02.02.02.02.24-.24.48-.48.72-.73,0,0-.01-.01-.01-.01Z"/>
      <path class="cls-5" d="M73.98,230.66c.11-.11.22-.23.33-.34-.01.07,0,.18-.05.22-.07.07-.18.09-.28.13,0,0,0,0,0,0Z"/>
      <polygon class="cls-5" points="76.4 228.16 76.59 228.1 76.57 228.27 76.4 228.16"/>
      <path class="cls-5" d="M78.32,227.11c-.06.31-.26.47-.42.31-.14-.15.04-.34.36-.36l.06.06Z"/>
      <path class="cls-8" d="M78.26,227.05c.08-.42.34-.64.75-.71l.03.03c-.04.45-.33.64-.72.74,0,0-.06-.06-.06-.06Z"/>
      <path class="cls-8" d="M79,226.34c.07-.41.33-.63.72-.72,0,0,.04.04.04.04-.02.46-.29.67-.72.71,0,0-.03-.03-.03-.03Z"/>
      <path class="cls-8" d="M81.91,224.21c-.08.38-.27.65-.65.79-.1-.09-.19-.18-.29-.28.19-.35.46-.57.87-.57l.06.06Z"/>
      <path class="cls-8" d="M81.85,224.16c.01-.41.28-.64.61-.82.14.13.27.26.4.4-.32.16-.63.32-.95.48,0,0-.06-.06-.06-.06Z"/>
      <path class="cls-8" d="M127.87,252.2c-.08.3-.15.61-.23.91-.64-.5,0-.64.25-.89,0,0-.02-.02-.02-.02Z"/>
      <path class="cls-8" d="M128.61,251.5c-.11.38-.34.63-.74.7,0,0,.02.02.02.02.11-.37.3-.65.7-.74,0,0,.01.01.01.01Z"/>
      <path class="cls-5" d="M118.46,244.24c.12-1.25.91-1.94,2-2.37.14.17.29.33.45.48-.42,1.07-.99,1.96-2.28,2.06,0,0-.17-.17-.17-.17Z"/>
      <path class="cls-5" d="M116.62,246.9c-.09.03-.18.11-.26.09-.28-.07-.31-.22-.07-.35.06-.04.2,0,.27.04.05.03.04.14.05.22Z"/>
      <path class="cls-5" d="M117.86,245.06c-.12.11-.23.23-.35.34.1-.13.19-.27.29-.4l.06.06Z"/>
      <path class="cls-5" d="M117.8,245c.07-.39.3-.63.66-.76,0,0,.16.16.17.17-.13.37-.37.61-.77.66,0,0-.06-.06-.06-.06Z"/>
      <path class="cls-8" d="M111.32,228.48c.45,1.9-.7,2.84-2.15,3.61-.48-.92.32-1.78.11-2.69.68-.31,1.36-.61,2.04-.92Z"/>
      <path class="cls-8" d="M109.18,232.07c.15.86-.58,1.42-.74,2.17-.48-.01-1.38.48-1.13-.56.2-.82.59-1.84,1.87-1.62Z"/>
      <path class="cls-8" d="M105.6,236.41c-.15.44-.26.9-.46,1.32-.09.18-.42.43-.52.38-.45-.21-.28-.59-.1-.9.24-.41.53-.8,1.08-.8,0,0,0,0,0,0Z"/>
      <path class="cls-8" d="M106.43,235.79c-.14.38-.43.58-.83.62,0,0,0,0,0,0-.11-.45.09-.75.48-.96.11.11.23.22.34.33Z"/>
      <path class="cls-8" d="M106.09,235.46c.16-.23.36-.6.64-.33.28.27-.03.51-.3.66-.11-.11-.23-.22-.34-.33Z"/>
      <path class="cls-8" d="M135.79,259.06c.03-.51.19-.93.74-1.09-.06.49-.36.82-.74,1.09Z"/>
      <path class="cls-2" d="M93.36,232.12c-.22-.73.14-1.17.75-1.49.29.77-.06,1.21-.75,1.49Z"/>
      <path class="cls-2" d="M94.07,230.66c.32-.59.64-1.18,1.48-.75-.23.77-.7,1.06-1.48.75Z"/>
      <path class="cls-2" d="M92.58,232.06c.28,0,.55,0,.83,0-.28.75-.56.6-.83,0Z"/>
      <path class="cls-2" d="M95.51,229.95c-.17-.68.07-.94.76-.75-.08.43-.28.73-.76.75Z"/>
      <path class="cls-2" d="M96.23,229.23c-.19-.69.02-.99.76-.76-.06.44-.32.69-.76.76Z"/>
      <path class="cls-2" d="M96.95,228.51c-.23-.73.03-.98.75-.76-.05.46-.31.7-.75.76Z"/>
      <path class="cls-9" d="M99.24,227.19c-.26.2-.52.41-.79.61-.02-.26-.04-.51-.07-.77,0,0,0,0,0,0,.26.02.52.03.77.05l.09.1Z"/>
      <path class="cls-2" d="M98.39,227.03c.02.26.04.51.07.77-.26,0-.52-.01-.79-.02-.24-.72.02-.94.72-.75Z"/>
      <path class="cls-8" d="M157.32,270.11c-.77-.49-.62-.95.05-1.38-.02.46-.03.92-.05,1.38Z"/>
      <path class="cls-9" d="M156.02,272.43c-.14.3-.29.6-.43.9-.09-.07-.23-.14-.25-.22-.06-.39.17-.64.47-.85,0,0,.21.18.21.18Z"/>
      <path class="cls-2" d="M99.15,227.09c-.26-.02-.52-.03-.77-.05-.51-.92.33-1.27.75-1.8.28.61.15,1.23.03,1.85Z"/>
      <path class="cls-8" d="M114.19,224.89c.25,2.16-.72,3.35-2.87,3.58.25-1.76,1.43-2.77,2.87-3.58Z"/>
      <path class="cls-1" d="M99.86,227.07c.06-.1.14-.28.17-.27.23.06.17.17-.17.27,0,0,0,0,0,0Z"/>
      <path class="cls-7" d="M120.71,233.13c-.06.51-.15,1-.77,1.12,0-.55.33-.87.77-1.12Z"/>
      <path class="cls-5" d="M294.63,207.64c2.2.89,3.08,2.53,2.46,4.8-.27.98-.13,1.82.06,2.77.63,3.21-.3,4.32-3.46,4-1.86-.19-3.37-.43-5.17.92-1.68,1.27-3.53-.18-4.85-1.52.09-.71.43-.58.76-.51q3.46.73,3.93-2.82c1.43-.06,2.19,1.31,3.42,1.61.91.22,1.99.56,2.62-.4.52-.8-.05-1.57-.59-2.24-.59-.73-1.48-1.22-1.83-2.41.76-.96,2.38-.06,3.07-1.1.74-1.11-.69-1.95-.48-3.03l.08-.08Z"/>
      <path class="cls-8" d="M276.81,224.84c1.37.1,1.71,1.17,2.46,1.7,1.19.84,1.72.25,2.07-.84.26-.82.18-1.64-.01-2.47-.2-.89-.68-1.79-.05-2.72,4.05,3.25,3.33,9.12-1.36,11.06-1,.41-1.97.73-2.77,1.53-.61.61-1.42.88-2.27.29q1.75-3.23,1.93-8.55Z"/>
      <path class="cls-8" d="M268.72,239.29c-.05,1.91-.53,3.61-2.7,4-1.44.26-3.4-1.5-4.14-3.4-.45-1.15-.29-2.33-.33-3.51,1.17.74,1.57,2.04,2.25,3.14.37.6.8,1.27,1.65,1.08.82-.18,1.05-.89,1.07-1.63.03-1.3,0-2.59,0-4.32,1.73,1.41,1.61,3.19,2.19,4.64Z"/>
      <path class="cls-8" d="M259.31,237.55c.94,2.32.7,3.69-.96,4.32-1.72.66-2.99.18-3.34-1.81l.11-.11c1.66.72,2.92.49,3.46-1.45.24-.31.48-.63.72-.94Z"/>
      <path class="cls-5" d="M293.01,205.54c1.87-1.08,4.41-.52,3.84-3.71,1.66,1.19,1.61,2.29,1.02,3.38-.63,1.14-1.72,1.21-4.86.33Z"/>
      <path class="cls-9" d="M262.36,222.13q2.16-.9,3.3-3.87c1.19,2.25,1.15,3.54-.19,4.55-1.28.96-2.09.14-3.11-.68Z"/>
      <path class="cls-8" d="M301.79,224.21c2.1,1.7,2.99,3.97,3.04,6.62-1.73-1.88-2.69-4.12-3.02-6.64l-.02.02Z"/>
      <path class="cls-8" d="M306.05,219.93c-.66-.41-1.27-.86-1.08-1.86.97.21,1.17.92,1.3,1.68,0,0-.22.18-.22.18Z"/>
      <path class="cls-2" d="M311.78,215.77c-.56-.23-.85-.69-1.08-1.21.23-.22.46-.43.68-.64.53.15.95.43,1.17.95-.26.3-.52.6-.78.9Z"/>
      <path class="cls-8" d="M310.35,214.28c-.54-.25-.82-.69-.9-1.26.11-.13.21-.27.32-.4.57.06.98.37,1.27.86-.23.27-.46.54-.69.8Z"/>
      <path class="cls-8" d="M309.44,213.02c-.5-.22-.98-.47-1.17-1.04l-.03.03c.63-.1,1.16.03,1.52.61-.11.13-.22.26-.32.4Z"/>
      <path class="cls-8" d="M261.57,236.41c-.24-.22-.47-.44-.71-.65.24.22.47.43.71.65Z"/>
      <path class="cls-8" d="M301.81,224.19c-.17-.07-.33-.14-.5-.21.45-.54.35.07.48.23,0,0,.02-.02.02-.02Z"/>
      <path class="cls-7" d="M311.78,215.77c.26-.3.52-.6.78-.9.32.8.17,1.2-.78.9Z"/>
      <path class="cls-2" d="M310.35,214.28c.23-.27.46-.54.69-.8.18.09.3.24.35.44-.23.21-.45.43-.68.64-.16-.04-.28-.13-.36-.28Z"/>
      <path class="cls-8" d="M308.27,211.98c-.07-.05-.14-.1-.21-.14.06.06.12.12.18.17,0,0,.03-.03.03-.03Z"/>
      <path class="cls-5" d="M294.55,207.73c-.09-.11-.18-.23-.27-.34.12.09.23.17.35.26,0,0-.08.08-.08.08Z"/>
      <path class="cls-2" d="M309.19,203.49c.18.2.36.41.54.61-.33-.07-.51-.28-.54-.61Z"/>
      <path class="cls-5" d="M314.19,189.34c2.2-.39,3.93.24,5.35-.73.15-1.77-1.85-1.5-2.18-2.79,1.3-1.53,3.75-1.11,5.05-2.68-.26-1.82-2.3-.89-3.03-2.02.62-.98,1.54-.68,2.26-.6,1.41.14,3.06.34,3.48,1.96.44,1.66-.84,2.65-2.19,3.24-1.04.45-1.27.83-1.06,2.06.35,2.06-.98,3.35-3.08,3.33-1.52-.02-2.98-.36-4.61-1.77Z"/>
      <path class="cls-5" d="M313.07,194.19c.47.26.93.42,1.27.73,1.01.91,1.9,1.99,1.22,3.42-.76,1.63-2.32,1.6-3.73,1.2-1.64-.47-3.55-.51-4.67-2.22.87-.62,1.64-.17,2.43-.04,3.27.56,3.62.25,3.47-3.1Z"/>
      <path class="cls-8" d="M321.22,203.29c-1.33,1.23-1.79-.13-2.66-.75,1.37-.75,1.89.34,2.64.84,0,0,.02-.09.02-.09Z"/>
      <path class="cls-7" d="M308.95,179.64c-.16.15-.3.31-.47.43-.03.02-.23-.11-.22-.12.15-.38.43-.39.76-.26,0,0-.07-.05-.07-.05Z"/>
      <path class="cls-7" d="M309.8,179.05c-.13.41-.43.59-.85.59,0,0,.07.05.07.05-.29-.53.08-.76.44-1,.11.12.22.24.34.35Z"/>
      <path class="cls-8" d="M267.99,248.64c-.32-.16-.64-.66-.47-.73.79-.33.36.43.52.69,0,0-.05.04-.05.04Z"/>
      <path class="cls-8" d="M255.01,240.06c-.1-.14-.19-.28-.29-.41.13.1.26.2.4.3,0,0-.11.11-.11.11Z"/>
      <path class="cls-9" d="M405.28,215.54c.64-.02,1.16.19,1.52.74-.62-.01-1.23-.05-1.52-.74Z"/>
      <path class="cls-9" d="M403.86,214.83c.64-.08,1.17.08,1.45.72-.61,0-1.18-.06-1.45-.72Z"/>
      <path class="cls-9" d="M402.43,214.12c.67-.16,1.2-.03,1.43.71-.61.04-1.16-.06-1.43-.71Z"/>
      <path class="cls-8" d="M400.24,212.67c.66-.08,1.2.08,1.47.75-.62,0-1.27.06-1.47-.75Z"/>
      <path class="cls-8" d="M401.68,213.39c.44.07.77.24.76.76-.39-.11-.71-.3-.76-.76Z"/>
      <path class="cls-8" d="M374.97,217.12c.27-.25.54-.5.81-.75,3.01,1.45,6.16,2.65,8.69,4.94-1.05-.02-2.09.06-3.07-.53-2.12-1.26-4.28-2.45-6.42-3.67Z"/>
      <path class="cls-8" d="M384.43,221.29c.63-.02,1.15.17,1.48.75-.6-.04-1.26.04-1.48-.75Z"/>
      <path class="cls-8" d="M385.86,222c.22,0,.43.03.64.08-.3.68-.48.38-.64-.08Z"/>
      <path class="cls-5" d="M398.02,193.4c.52-.12,1.1-.14,1.41-.68,2.45.88,5.22.89,7.3,2.75-3.05-.1-5.92-.92-8.71-2.07Z"/>
      <path class="cls-5" d="M406.69,195.44c.93-.07,1.81.02,2.49.75-.87-.1-1.87.21-2.49-.75Z"/>
      <path class="cls-8" d="M331.39,222.75c1.69,2.15,3.38,4.31,5.07,6.46,0,.39.2.6.57.67,0,0,.03.04.03.04.05.39.25.66.64.77,0,0-.01,0-.01,0,.07.42.14.83.22,1.24-.18.15-.36.31-.53.46-2.78-2.51-4.68-5.77-7.25-8.45-.47-.49-.73-1.2-.28-1.92.51.24,1.03.49,1.54.73Z"/>
      <path class="cls-2" d="M334.1,238.6c.29.16.63.27.86.49.32.3.74.8.27,1.12-.49.35-.72-.27-.88-.65-.13-.31-.14-.66-.21-1,0,0-.05.04-.05.04Z"/>
      <path class="cls-7" d="M328.41,236.4c-1.42.14-1.68-.65-1.47-1.83.59.53,1.32.94,1.47,1.83Z"/>
      <path class="cls-2" d="M334.14,238.56c-.55-.33-.68-.87-.71-1.46,0,0-.05.04-.05.04.79.22.78.82.71,1.45,0,0,.05-.04.05-.04Z"/>
      <path class="cls-8" d="M337.91,231.93c.45.35.68.82.76,1.38-.13.13-.25.25-.37.38-.51-.29-.72-.79-.92-1.3.18-.15.35-.3.53-.46Z"/>
      <path class="cls-5" d="M340.76,235.52c.5.39.68.92.63,1.54,0,0-.13.13-.13.13-.57-.24-.76-.73-.88-1.27.13-.13.25-.26.38-.39Z"/>
      <path class="cls-5" d="M342.76,239.27c-.58-.29-.77-.79-.76-1.39l.07-.07c.62.32.7.87.67,1.48l.03-.03Z"/>
      <path class="cls-5" d="M342.74,239.3c.11.09.21.18.32.27-.06-.02-.14-.01-.18-.05-.06-.07-.08-.16-.12-.24,0,0-.03.03-.03.03Z"/>
      <path class="cls-5" d="M342,237.88c-.41-.06-.63-.32-.74-.69,0,0,.13-.13.13-.13.39.1.61.36.67.76,0,0-.06.06-.06.06Z"/>
      <path class="cls-5" d="M340.38,235.92c-.24-.24-.48-.48-.71-.72.13-.13.26-.27.39-.4.23.24.47.49.71.73-.13.13-.25.26-.38.39Z"/>
      <path class="cls-5" d="M339.46,234.17c.2.21.4.42.59.62-.13.13-.26.26-.39.4-.2-.21-.39-.42-.59-.64.06-.2.19-.32.38-.38Z"/>
      <path class="cls-8" d="M338.67,233.31c.26.29.52.58.78.87-.19.06-.32.18-.38.38-.26-.29-.52-.58-.77-.87.12-.13.25-.25.37-.38Z"/>
      <path class="cls-7" d="M326.62,234.27c-.73-.01-1.09-.41-1.13-1.12.38.37.75.74,1.13,1.12Z"/>
      <path class="cls-8" d="M344.89,209.15c.32.59.87.7,1.47.72.33.98,1.14,1.32,2.04,1.53,2.12,1.95,4.61,3.38,7.02,4.91,1.59,1.36,3.18,2.73,4.78,4.09-.17.17-.35.34-.52.51-2.62-.73-4.17-3.27-6.8-4,0,0-.03.08-.03.08-.24-.29-.49-.59-.73-.88-2.26-2.15-5.06-3.55-7.55-5.38-.66-.49-1.52-.73-1.8-1.63.71.01,1.41.03,2.12.04Z"/>
      <path class="cls-8" d="M364.81,224.42c-2.14-.54-3.74-1.88-5.14-3.5.17-.17.35-.34.52-.51,1.81,1.02,3.59,2.07,4.92,3.72-.1.1-.21.2-.31.29Z"/>
      <path class="cls-5" d="M371.32,229.09c-.03.09-.04.24-.1.27-.21.1-.34-.02-.32-.31,0-.08.14-.14.22-.21.07.08.13.16.2.24Z"/>
      <polygon class="cls-5" points="369.88 228.15 369.68 228.21 369.7 228.04 369.88 228.15"/>
      <polygon class="cls-8" points="368.19 226.87 368.11 226.68 368.32 226.71 368.19 226.87"/>
      <path class="cls-8" d="M366.55,225.54c.15.12.31.23.46.35-.37.43-.47.05-.61-.2,0,0,.15-.15.15-.15Z"/>
      <path class="cls-8" d="M365.84,224.82c.24.24.48.48.72.72,0,0-.15.15-.15.15-.27-.21-.53-.42-.8-.64,0,0,.23-.23.23-.23Z"/>
      <path class="cls-8" d="M365.61,225.06c-.26-.21-.53-.43-.79-.64.1-.1.2-.19.3-.29.24.23.48.47.72.7,0,0-.23.23-.23.23Z"/>
      <path class="cls-8" d="M301.06,267.31c.16.17.33.32.46.51.03.05-.05.18-.09.28-.41-.14-.27-.52-.35-.81,0,0-.03.02-.03.02Z"/>
      <path class="cls-8" d="M300.36,265.86c.6.31.67.87.7,1.46,0,0,.03-.02.03-.02-.61-.29-.73-.83-.73-1.43h0Z"/>
      <path class="cls-8" d="M300.35,265.86c-.64-.28-.76-.82-.71-1.44,0,0,0,0,0,0,.6.29.72.84.72,1.43,0,0,0,0,0,0Z"/>
      <path class="cls-5" d="M316.87,231.41c.86-.19,1.45.4,2.13.72.24.24.49.48.73.73,0,0-.03,0-.03,0,.87,2.75,3.49,4.36,4.53,7-.14.13-.29.25-.44.37-3.18-2.25-5.15-5.46-6.93-8.81Z"/>
      <path class="cls-5" d="M324.69,241.55c-.51-.31-.7-.82-.88-1.34.15-.12.3-.24.44-.37.45.36.7.82.75,1.39-.1.1-.21.21-.31.32Z"/>
      <path class="cls-5" d="M327.05,243.48c.29.1.44.31.28.47-.15.16-.37,0-.47-.28,0,0,.19-.19.19-.19Z"/>
      <path class="cls-5" d="M326.36,242.73c.23.25.45.5.68.75,0,0-.19.19-.19.19-.24-.24-.48-.48-.72-.72,0,0,.23-.23.23-.23Z"/>
      <path class="cls-5" d="M326.13,242.96c-.24-.23-.49-.47-.73-.7.1-.09.19-.19.29-.28.22.25.45.51.67.76,0,0-.23.22-.23.22Z"/>
      <path class="cls-5" d="M325.4,242.25c-.24-.23-.48-.47-.71-.7.1-.11.2-.21.3-.31.23.24.46.49.7.74-.09.09-.19.19-.29.28Z"/>
      <path class="cls-5" d="M290.84,272.98c-.03.08-.04.22-.1.25-.19.09-.3-.02-.26-.28.01-.07.13-.13.19-.19.06.08.11.15.16.23Z"/>
      <path class="cls-9" d="M317.77,251.35c1.27.26,1.34,1.22,1.34,2.24,0,0-.13.13-.13.13-.88-.44-1.36-1.17-1.49-2.13.09-.08.19-.16.29-.23Z"/>
      <path class="cls-9" d="M319.79,254.33c.31.18.57.4.52.8-.01.08-.17.14-.26.2-.11-.31-.22-.62-.33-.93,0,0,.07-.07.07-.07Z"/>
      <path class="cls-9" d="M317.49,251.59c-.38-.24-.61-.57-.65-1.02.06-.29.23-.4.53-.34.14.38.27.75.41,1.12-.09.08-.19.15-.28.23Z"/>
      <path class="cls-9" d="M319.72,254.4c-.24-.23-.49-.46-.73-.69,0,0,.12-.12.13-.12.23.25.45.5.68.74,0,0-.07.07-.07.07Z"/>
      <path class="cls-2" d="M338.47,218.59c-1.76-1.69-3.52-3.38-5.27-5.09-.44-.42-.7-.93-.48-1.56,3.35,1.65,5.58,4.59,8.18,7.1-.81-.16-1.62-.3-2.42-.45Z"/>
      <path class="cls-7" d="M347.73,217.78c3.11.27,6.39,3.37,6.85,6.46-2.56-1.49-4.51-3.71-6.79-5.54-.3-.25-.27-.6-.06-.92Z"/>
      <path class="cls-2" d="M348.53,228.18c-1.41-1.27-2.71-2.63-4.31-3.7-1.14-.76-2.31-1.82-1.44-3.55,1.74,1.63,3.52,3.22,5.19,4.91.58.59,1.56,1.28.57,2.33Z"/>
      <path class="cls-7" d="M344.14,214.91c2.57.1,3.03.47,3.59,2.88-1.93-.05-3.08-1.07-3.59-2.88Z"/>
      <path class="cls-2" d="M332.73,211.96c-1.69.25-2.69-.42-2.89-2.17,1.34.22,2.25,1.01,2.89,2.17Z"/>
      <path class="cls-1" d="M338.47,218.59c.81.15,1.61.29,2.42.45.06.28-.03.46-.26.56-.64.12-1.15.42-1.47,1-.17.11-.34.22-.51.33-.32-.24-.64-.48-.96-.71,0,0-.08-.04-.08-.04.48-.43.8-.93.85-1.59Z"/>
      <path class="cls-7" d="M341.1,213.46c1.76-1.4,2.58-1,3.05,1.45-1.47.46-2.02-1-3.05-1.45Z"/>
      <path class="cls-7" d="M354.57,224.24c1.31-.41,2.06-.11,1.8,1.45-1.12.16-1.52-.56-1.8-1.45Z"/>
      <path class="cls-5" d="M352.85,232.08c-.39-.06-.64-.27-.76-.65.02-.29.05-.58.07-.87.57.35,1.06.75.69,1.53Z"/>
      <path class="cls-2" d="M352.16,230.56c-.02.29-.05.58-.07.87-.58-.35-.94-.8-.71-1.52.4.05.63.3.78.65Z"/>
      <path class="cls-2" d="M351.42,229.94c-.83.27-1.33-.26-1.87-.73,1.05-.85,1.45-.02,1.87.73Z"/>
      <path class="cls-2" d="M356.37,225.69c.4-.27.66-.14.82.29-.03.27-.05.54-.08.82-.03.16-.02.32.04.47-.37-.47-1.08-.77-.77-1.57Z"/>
      <path class="cls-9" d="M339.17,220.6c.32-.58.83-.88,1.47-1,.37.22.47.54.32.94-.6.02-1.19.04-1.79.06Z"/>
      <path class="cls-5" d="M358.95,237.84c-.48-.08-.89-.27-1.11-.74.53.02.83.36,1.11.74Z"/>
      <path class="cls-5" d="M357.88,237.13c-.39-.11-.64-.36-.75-.75.52-.02.75.25.75.75Z"/>
      <path class="cls-5" d="M357.16,236.41c-.39-.11-.63-.36-.75-.75.53-.03.77.23.75.75Z"/>
      <path class="cls-5" d="M356.44,235.69c-.39-.11-.64-.35-.74-.75.56-.06.78.21.74.75Z"/>
      <path class="cls-5" d="M355.72,234.97c-.39-.1-.64-.35-.74-.74.56-.06.8.19.74.74Z"/>
      <path class="cls-5" d="M355,234.25c-.4-.1-.64-.35-.74-.74.56-.07.81.18.74.74Z"/>
      <path class="cls-5" d="M354.28,233.53c-.4-.1-.64-.34-.74-.74.57-.08.81.18.74.74Z"/>
      <path class="cls-5" d="M353.56,232.81c-.41-.09-.65-.33-.73-.74.62-.13.82.17.73.74Z"/>
      <path class="cls-2" d="M359.6,229.25c.8-.07,1.17.3,1.1,1.1-.56-.17-.93-.54-1.1-1.1Z"/>
      <path class="cls-7" d="M342.73,228.17c-1.36-.69-2.06-1.99-2.85-3.19,0-.74,0-1.48,0-2.22.93,1.07,1.9,2.11,2.78,3.22.52.66.92,1.44.07,2.19Z"/>
      <path class="cls-2" d="M339.88,222.76c0,.74,0,1.48,0,2.22-.78-.72-1.56-1.45-2.34-2.17.75-1.83,1.55-1.06,2.35-.05Z"/>
      <path class="cls-2" d="M337.7,220.22c.32.24.64.47.96.71-.28.93-.85,1.14-1.7.72-.76-1-.3-1.36.74-1.43Z"/>
      <path class="cls-8" d="M309.67,257.24c.64.29.76.84.74,1.46-.69-.27-.86-.79-.74-1.46Z"/>
      <path class="cls-8" d="M311.11,259.39c.24.26.49.51.73.77-.37-.13-.65-.35-.73-.77Z"/>
      <path class="cls-8" d="M310.39,258.68c.4.1.63.36.75.75-.44-.06-.66-.33-.75-.75Z"/>
      <path class="cls-6" d="M381.57,177.55c-.88-.14-1.93.29-2.55-.73.93-.02,1.92-.27,2.55.73Z"/>
      <path class="cls-7" d="M357.1,226.79c.03-.27.05-.54.08-.82.31.14.62.3.49.71-.07.24-.32.26-.57.11Z"/>
      <path class="cls-1" d="M352.12,216.12c.24.29.49.59.73.88-.43-.14-.65-.45-.73-.88Z"/>
      <path class="cls-2" d="M326.89,212.03c1.73-.52,2.62.82,3.65,1.72,2.32,2.02,4.58,4.11,6.86,6.18-.21.86-.62,1.87-1.59,1.04-3.11-2.69-6.08-5.53-9.09-8.34-.07-.06.11-.39.17-.59Z"/>
      <path class="cls-1" d="M319.74,232.85c-.24-.24-.49-.48-.73-.73,1.11-.63.57.4.73.73Z"/>
      <path class="cls-1" d="M337.71,230.69c-.39-.11-.59-.38-.64-.77.21.26.43.51.64.77Z"/>
      <path class="cls-1" d="M337.04,229.88c-.37-.07-.57-.29-.57-.67.19.22.38.45.57.67Z"/>
      <path class="cls-1" d="M316.16,247.21c-.57-.32-.67-.91-.83-1.46.68.26.81.83.83,1.46Z"/>
    </g>
  </g>
  <path class="cls-7" d="M241.39,405.22l2.35-.81-2.35.81Z"/>
  <polygon class="cls-5" points="243.79 404.41 241.34 405.09 241.11 404.24 243.42 403.71 243.79 404.41"/>
</svg>