<?xml version="1.0" encoding="UTF-8"?>
<svg id="GRIFOS" xmlns="http://www.w3.org/2000/svg" viewBox="0 0 455.05 452.32">
  <defs>
    <style>
      .cls-1 {
        fill: #b3763c;
      }

      .cls-1, .cls-2, .cls-3, .cls-4, .cls-5, .cls-6, .cls-7, .cls-8 {
        stroke-width: 0px;
      }

      .cls-2 {
        fill: #ad5b3c;
      }

      .cls-3 {
        fill: #3a2720;
      }

      .cls-4 {
        fill: #cf7c3c;
      }

      .cls-5 {
        fill: #7e4326;
      }

      .cls-6 {
        fill: #261d19;
      }

      .cls-7 {
        fill: #593b2b;
      }

      .cls-8 {
        fill: #9d6231;
      }
    </style>
  </defs>
  <g id="Wings">
    <g id="W1">
      <path class="cls-6" d="M325.45,265.46c-.02,1.19.08,2.39-.09,3.56-.51,3.55-2.92,5.26-6.47,4.75-2.08-.3-3.89-1.26-5.83-2.35-.76.89-.51,1.92-.68,2.79-.9,4.45-3.72,6.2-8.13,4.98-2.44-.68-4.53-2.02-6.74-3.65-.35.87-.63,1.62-.95,2.36-1.46,3.45-4.14,4.57-7.66,3.14-2.25-.91-4.14-2.35-5.77-4.15-.65-.71-1.04-1.68-1.98-2.12-3.57,4.15-7.42,4.45-11.76.9-.67-.55-1.35-1.13-1.88-1.81-1.18-1.52-2.19-2.67-4.45-1.36-1.47.85-3.16-.25-4.53-1.11-2.44-1.53-4.26-3.68-5.66-6.19-.34-.6-.42-1.67-1.51-1.32-3.73,1.22-5.67-1.23-7.44-3.73-2.17-3.08-3.04-6.69-3.72-10.34-.04-.21-.04-.43-.07-.65-.44-3.97-1.13-7.68-3.55-11.21-2.84-4.14-3.6-9.26-4.25-14.24-.28-2.16-.41-4.33-.58-6.5-.27-3.35.55-6.45,2.12-9.4,2.58-4.84,7.72-6.46,12.11-5.83,3.02.44,5.87,1.51,8.74,2.47,9.01,3.02,16.88.86,23.99-5.01,4.47-3.69,8.36-7.94,12.08-12.35,2.52-3,5.11-5.93,7.93-8.66,5.91-5.73,13.03-8.87,21.09-10.03,2.71-.39,5.24-1.37,7.81-2.18,4.29-1.36,8.7-1.82,13.13-2.23,2.85-.27,5.66.15,8.29,1.32.96.43,1.85.52,2.84.4,11.27-1.37,22.58-1.7,33.87-.48,6.25.68,12.47,1.66,18.27,4.38,1,.47,1.93,1.01,2.78,1.68,2.93,2.29,3.09,5.5.34,8.08-2.1,1.96-4.72,3.07-7.38,4.05-1.01.37-2.05.64-3.48,1.09,3.96.92,7.54,1.67,11,2.88,2.06.72,4.04,1.61,5.79,2.93,2.5,1.89,2.92,4.57,1.23,7.18-.97,1.5-2.34,2.56-3.8,3.53-3.87,2.55-8.16,3.98-12.68,4.83.12,1.03,1.04.92,1.68,1.22,2.56,1.19,5.14,2.34,7.32,4.19,4.23,3.59,4.04,7.5-.61,10.64-3.29,2.22-6.93,3.57-10.88,4.05-2.15.26-4.27.72-7,.61,1.34,1.36,2.39,2.36,3.36,3.43,3.26,3.59,2.8,6.77-1.27,9.46-3.03,2-6.46,2.45-9.94,2.68-2.5.16-5,.1-7.66-.56-.07,1.38.82,2.08,1.3,2.94,3.17,5.59.78,10.16-5.72,10.77-4.38.41-8.67-.19-12.86-1.51-.61-.19-1.22-.38-1.74-.54-.47.23-.5.54-.48.87.28,4.59-2.18,6.84-6.69,6.17-3.57-.53-6.91-1.77-10.39-3.48,0,1.42.05,2.65,0,3.88-.17,3.46-1.9,5.01-5.34,5.22-1.8.1-3.37-.8-5.11-.76-.11-.14-.22-.27-.32-.41-.22.25-.24.51-.02.77ZM342.13,246.16h0c-.26-.52-.72-.69-1.26-.71,0,0,0,0,0,0-.3-.62-.86-.93-1.41-1.3-4.6-3.05-8.89-6.47-12.78-10.42-2.12-2.15-4.45-4.1-6.69-6.12-1.01-.91-2.04-1.68-3.32-.41-.35.86-1.17,1.7-.12,2.62.31,1.26.81,2.46.75,3.81-.04.93-.33,1.98.54,2.76,3.77,5.45,9.08,9.3,14.09,13.45,2.09,1.74,4.41,3.19,6.84,4.41,2.92,1.47,5.91,2.8,9.25,2.92,2.34.09,2.83-.74,2.18-3.02-.93-3.25-2.83-5.56-6.07-6.69-.13-.33-.36-.53-.72-.55-.16-.07-.33-.12-.5-.16l-.76-.58ZM307.42,212.28l-.72.69c-1.64,3.7-1.58,3.28,1.43,5.89,2.73,2.36,5.92,4.04,9.26,5.4,1.61.66,3.28,1.16,5.07.99,2.55-.25,3.31-1.5,2.11-3.72-1.26-2.34-2.97-4.25-5.51-5.33-2.96-1.27-5.85-2.7-8.52-4.53q-2.19-1.66-5.1-.32c.67.32,1.33.63,1.98.94ZM293.35,228.56c-.32.02-.64.04-.95.06-1.53-2.11-4.04-2.01-6.39-3.05.24,1.9-.69,3.7,1.09,4.99.9,2.12,2.33,3.89,3.79,5.62,2.23,2.64,4.43,5.37,7.72,6.79,1.82.78,3.82,2.31,5.7.54,1.9-1.78.97-4.02.13-6.03-1.48-3.55-3.91-6.43-6.52-9.19-.27-.45-.48-.93-.81-1.33-.46-.56-.97-1.23-1.83-.72-.9.53-2.45.59-1.92,2.32ZM331.62,172.91l.06.13c-1.63-.05-2.86.27-3.35,2.2-.27,1.08-1.25,1.98-1.91,2.97-.73.46-.57,1.22-.66,1.9-1.12.25-2.18.62-2.95,1.6.74.78,1.58,1.4,2.03,2.37.29.62.88.88,1.59.65.63.05,1.26.1,1.88.14,0,.37,0,.73,0,1.1-1.01.19-2.58-.47-2.92.7-.49,1.72-1.76,2.87-2.61,4.32.85.45,1.6.33,2.35.25,6.64,1.3,13.17.73,19.64-1.11,1.69-.48,3.25-1.26,4.6-2.38,3.24-2.67,2.89-5.52-.87-7.27-1.18-.55-2.45-.83-3.75-1.04-3.23-.52-6.48-.6-9.74-.54-.22.03-.44.06-.65.1-1.94.68-4.08.24-5.98,1.12-.41-.04-.82-.09-1.23-.13-.02-.38-.04-.77-.06-1.15.19-.04.39-.06.59-.05.73.11,1.46.19,2.03-.45,5.35-1.01,10.51-2.56,15.1-5.57,1.46-.96,3.79-1.91,3.09-4.02-.58-1.77-2.91-1.55-4.61-1.6-4.48-.13-8.82.77-13.15,1.8-.8.19-1.77.06-2.18,1.03.7,1.76,1.79,2.71,3.75,1.87-.03.35-.06.69-.09,1.04ZM268.87,236.44h0c-1.21-1.94-3.3-2.81-4.89-4.41-1.03,1.57-1.44,2.92-.34,4.36.91,3.27,2.38,6.27,4.41,8.97,1.64,2.18,3.55,4.1,6.2,5.07,2.9,1.06,4.41-.02,4.32-3.06-.01-.53-.23-1.05-.3-1.59-.39-2.98-2.1-5.43-3.25-8.09-1.31-3.04-1.41-2.99-4.8-1.37-.45.04-.9.07-1.35.11ZM308.77,240.97h-.06c1.66,4.3,4.59,7.79,7.24,11.47,2.52,3.49,5.77,6.12,9.29,8.48,1.75,1.17,3.64,1.85,5.8,1.73,1.33-.07,1.96-.59,2-1.95.09-2.76-.49-5.37-1.58-7.88-.42-.96-1.11-1.59-2.23-1.59-.25-.18-.51-.36-.76-.54v-.05c-.02-.57-.23-1.06-.69-1.39-3.79-2.71-6.75-6.29-10-9.57-2.11-2.13-2.05-2.19-5-.77-.24.24-.48.48-.71.72-1.36-1.53-3.03-2.43-5.09-2.84-.11,1.28.36,2.09.96,2.85.21.49.25,1.09.85,1.33ZM318.62,197.19c-.5,1.32-1.58,2.28-2.5,3.48,1.06.71,1.99,1.16,3.12,1.08,5.87,2.53,11.97,3.74,18.38,3.39,2.02-.11,3.83-.77,5.51-1.78,1.59-.95,1.78-1.9.92-3.56-.56-1.08-1.33-2.01-2.42-2.57-1.05-.55-2.16-1.01-3.26-1.46-5.85-2.35-12.1-2.32-18.23-3.01-1.98-.22-2.16.31-1.44,2.92-.03.5-.06,1.01-.09,1.51ZM340.1,218.11c-1.38.04-2.43-1.81-3.9-.84-1.63,1.08-3.49,1.34-6.02,1.79,2.15,1.22,3.71,2.11,5.26,2.99,1.91,1.23,3.78,2.55,5.75,3.67,10.22,5.82,20.65,11.14,32.46,12.95,4.99.77,9.99.72,14.66-1.59,2.71-1.34,2.94-2.92.92-5.1-2.23-2.41-4.88-4.22-7.95-5.4-1.33-1.47-3.17-1.68-4.96-1.98-1.92-.31-3.87-.48-5.76-.91-10.58-2.39-20.79-5.87-30.59-10.56-.79-.38-1.59-1.2-2.63-.62.08,1.68.54,2.96,2.21,3.65.87.36,1.56,1.14,2.33,1.73-.59.07-1.19.14-1.78.21ZM304.88,261.18h0c-2.77-5.03-5.55-10.05-7.18-15.61-.38-1.29-1.51-2.05-3.19-2.35-.05,2.43-.28,4.66.6,6.83-.23.23-.46.46-.69.69-.31-.37-.77-.6-1.12-.29-.87.76-1.82,1.02-2.97,1.09-1.84.12-2.11.49-1.57,2.19,2.01,6.35,4.52,12.48,9.04,17.52,1.82,2.03,3.98,3.74,6.59,4.65,3.48,1.22,5.5-.32,4.93-3.89-.57-3.62-.99-7.36-3.87-10.13-.02-.37-.21-.6-.57-.69ZM331.68,225.9c0,.47-.02.94-.03,1.41-.57-.07-1.15-.14-1.72-.21-.56-1.31-1.29-3.01-2.92-1.88-1.3.9-2.85,1.34-4.1,2.28.51.99,1.17,1.49,2.05,1.74.12.54.37.96.82,1.34,2.81,2.4,5.55,4.88,8.39,7.24,6.65,5.53,13.89,10.06,22.1,12.95,4.09,1.44,8.29,1.73,12.54,1.29,3.24-.34,4.43-2.5,2.88-5.29-1.53-2.75-3.29-5.39-6.06-7.13-.57-.91-1.57-1.06-2.46-1.44-3.89-1.65-7.93-2.9-11.76-4.71-7.57-3.58-14.6-8.07-21.63-12.57-.95-.61-1.78-1.51-3.18-1.26.19,1.98,1.5,2.99,2.64,4.13.77.76,1.93,1.05,2.44,2.1ZM349.97,191.96c0,.4-.02.81-.03,1.21-.65.05-1.29.09-1.94.14-2.88-1.1-5.7-.87-8.96.35,3.5,1.53,6.05,3.55,7.77,6.5.08.14.38.14.58.2,1.84.74,3.83.75,5.74,1.12,14.16,2.76,28.39,3.9,42.72,1.53,4.61-.76,9.17-1.86,13.09-4.61,1.41-.99,3.14-2.11,3.01-3.99-.14-1.95-2.13-2.58-3.71-3.23-5.26-2.15-10.75-3.37-16.4-3.88-5.53-1.47-11.16-1.64-16.79-1.04-2.28.24-4.54.47-6.82.49-4.25.03-8.49,0-12.74,0-.86,0-2-.37-2.51.32-1.41,1.92-3.51,2.94-5.48,4.28.93.66,1.73.47,2.47.61ZM257.21,249.38l-.34-.25.24.34c-.42,2.34.6,4.62.45,6.96-1.18-2.96-1.94-5.98-2.5-9.06-.16-.88-.46-2.25-1.6-2.12-1.14.13-1.64,1.29-1.62,2.5,0,.33,0,.65,0,.98.07,4.61,1.12,9.06,2.92,13.22,1.22,2.83,2.92,5.62,6.21,6.75,1.78.62,2.72.01,2.71-1.9,0-.74-.27-1.48-.43-2.21-.67-2.95-1.71-5.87-1.93-8.85-.22-3.08-1.45-5.09-4.12-6.38ZM275.47,234.4c1.54,4.23,3.97,7.9,7.09,11.11,1.68,1.73,3.68,2.99,6.1,3.56,2.93.69,4.39-.42,4.2-3.47-.14-2.18-.77-4.28-2.14-6.05-1.6-2.06-3.03-4.22-4.31-6.49-1.08-1.91-1.14-1.87-3.57-.98-.4-.14-.72-.19-.39.39.09.43.18.85.27,1.28-.49.04-.98.08-1.47.12-.18-.06-.36-.11-.54-.15-.64-2.79-3.31-1.98-4.91-3.1-.82,1.41-1.41,2.55-.33,3.79ZM300.05,219.96c-1.23-.67-2.13-1.01-2.33,1.05-.29,2.91.52,5.3,2.57,7.32,1.39,1.37,2.74,2.79,4.18,4.1,1.96,1.77,4.31,2.96,6.81,3.71,2.81.85,4.51-.84,3.82-3.67-.38-1.57-.98-3.08-1.79-4.52-1.67-2.99-4.05-5.36-6.5-7.66-3.07-2.89-2.23-2.35-5.81-.85-.32.17-.64.35-.96.52ZM313.01,206.41c-.63.98-1.26,1.96-1.96,3.06,4.93,3.47,10.08,6.19,15.99,7.17,2.03.34,4.14.49,6.16-.11,2.27-.68,2.79-1.84,1.65-3.92-1.65-3-4.46-4.77-7.48-6.02-3-1.24-6.18-2.06-9.28-3.06-1.91-1.11-3.78-2.41-6.29-1.42.76,1.38,1.32,2.75,1.21,4.29ZM269.48,251.99c-.38,0-.76.01-1.14.02-.21-.73-.44-1.45-.62-2.18-.18-.72-.03-1.77-.89-1.92-1.24-.22-.99,1.11-1.41,1.76-.29.45-.57,1.03-1.01,1.23-1.71.79-1.56,2.25-1.32,3.62.86,5.04,2.32,9.91,4.83,14.38,1.17,2.08,2.67,3.98,4.72,5.28,3.21,2.02,5.87.67,6.13-3.06.15-2.09-.18-4.1-1.02-6.02-1.47-3.38-2.55-6.9-3.52-10.45-.57-2.07-2.23-3.42-4.35-3.45-.13,0-.27.52-.4.79ZM281.92,249.41c-.39,0-.78,0-1.18,0-1.38,1.09-1.62,3.34-3.97,3.5-.94.06-.7,1.22-.49,1.93.54,1.77,1.08,3.54,1.75,5.26,1.7,4.34,3.13,8.8,5.79,12.73,1.52,2.25,3.56,3.82,5.91,4.99,2.06,1.04,3.24.47,4-1.69.95-2.68.85-5.12-.68-7.77-2.98-5.16-6.16-10.31-6.98-16.39-.31-2.33-2.2-2.62-3.77-3.4-.13.28-.27.56-.4.83ZM305.4,246.16c-.21.33-.42.66-.62.99-.62-.67-1.35-.98-2.29-1-2.22-.06-2.48.28-1.66,2.38,2.61,6.63,6.33,12.59,11.13,17.84,1.67,1.83,3.66,3.37,6.16,4.09,2.93.84,4.51-.17,4.28-3.26-.24-3.12-.93-6.19-3.4-8.54-2.27-2.17-4.52-4.35-6.4-6.92-1.99-2.71-3.36-5.78-5.3-8.63-1.1.86-1.67,1.84-1.9,3.04ZM350.06,208.82c-5.29-2.94-10.89-2.29-16.95-1.53,2.14,1.85,4.29,2.73,6.52,3.47.8.83,1.97.84,2.94,1.3,10.44,4.96,21.45,8.14,32.76,10.37,5.48,1.08,11,1.28,16.53.79,3.66-.32,7.32-1.05,10.66-2.71,1.74-.86,3.68-1.8,3.79-4.08.11-2.34-1.9-3.27-3.54-4.25-3.19-1.89-6.68-3.07-10.26-4-2.51-.99-5.08-1.86-7.79-1.9-5.2-.08-10.39-.03-15.58-.59-6.02-.65-12.05-1.14-17.99-2.42-1.27-.27-2.56-.5-3.85-.59-1.12-.07-1.7.88-2.19,1.69-.35.59.21,1,.75,1.15,4.04,1.17,7.87,3.07,12.13,3.48,1.24.43,2.49.85,3.73,1.28,0,.39,0,.77,0,1.16-.43-.1-.86-.2-1.29-.3-.24-.08-.48-.15-.72-.23-3.25-.54-6.46-1.22-9.63-2.11ZM361.07,176.17c-5.19.27-10.38.53-15.57.8.52.47,1.06.49,1.54.68,2.62,1.06,5.72,1.92,6.43,4.96.55,2.35,1.81,2.2,3.46,2.23,9.37.17,18.71-.26,28-1.47,5.37-.7,10.75-1.53,15.83-3.62,1.63-.67,3.19-1.43,4.37-2.76,1.32-1.49,1.2-2.31-.4-3.46-1.7-1.22-3.66-1.89-5.64-2.49-6.39-1.94-12.97-2.66-19.6-3.01-9.04-.48-18.05-.17-27.02.98-.7.09-1.6-.19-1.91.83-.71,2.36-2.86,3.47-4.44,5.07-.27.07-.54.14-.82.21l.22.32c.2-.18.39-.36.59-.55,4.99.05,9.98.1,14.97.16,0,.38,0,.75,0,1.13ZM234.99,218.72c-.08,1.39-.27,2.78.54,4.05-.04.18-.02.35.07.52.11,3.73,1.04,7.28,2.5,10.68.59,1.38,1.46,2.66,2.26,3.94.34.55.87,1.13,1.59.87.66-.24.85-.97.85-1.64,0-1.73-.06-3.47-.11-5.2-.04-1.11-.6-1.67-1.69-2.06-2.92-1.05-4.05-4.13-2.8-7.21.33,1.74.98,3.35,2.23,4.62,1.72,1.74,3.04,1.33,3.71-1.02.3-1.07-.12-2.36.99-3.34.51,1.93.86,3.74,1.65,5.42.57,1.21,1.34,2.23,2.54,2.87,1.52.81,2.53.45,2.96-1.21.3-1.14.32-2.35.54-4.19.8,1.74,1.28,2.82,1.78,3.88.71,1.51,1.75,2.74,3.23,3.55,2.25,1.24,3.7.56,4.3-1.97.21-.87.09-1.71-.07-2.57-.15-.8-.57-1.62.04-2.73.78,1.18,1.5,2.21,2.18,3.28,1.27,1.99,2.96,3.45,5.24,4.14,2.17.66,3.65-.25,3.97-2.46.14-.98-.05-1.92-.32-2.88-.27-.98-1.01-1.87-.66-3.27,1.95,2.32,3.85,4.39,6.7,5.21,1.67.48,3.29.61,4.55-.73,1.16-1.23.87-2.77.52-4.31-.28-1.23-1.45-2.24-.94-3.66l-.03.05c2.25,1.74,4.65,3.16,7.48,3.75,1.86.39,3.62,0,4.66-1.54,1.07-1.58.55-3.31-.46-4.89-.57-.9-1.76-1.34-1.86-2.57,0,0-.04.05-.04.05.43.04.88,0,1.28.14,1.77.58,3.58.96,5.43,1.04,2.12.09,3.99-1.12,4.43-2.66.44-1.55-.33-2.8-2.48-4.11-.94-.57-2.16-.76-2.89-2.06.9.13,1.53.24,2.18.31,2.17.22,4.35.42,6.49-.08,2.02-.47,3.41-1.88,3.42-3.44.02-1.83-1.35-2.59-2.71-3.32-.68-.37-1.74-.15-2.1-1.33,1.23-.06,2.32-.1,3.4-.17,1.75-.12,3.44-.52,5.01-1.31,1.34-.68,2.36-1.61,2.12-3.3-.22-1.57-1.5-2.01-2.72-2.47-.86-.32-1.97.06-2.85-1.24,2.09-.2,4-.24,5.82-.79,1.9-.57,3.7-1.34,5.12-2.74.98-.97,1.44-2.23.94-3.59-.48-1.31-1.7-1.59-2.94-1.63-1.34-.04-2.68,0-4.02,0,1.25-1.1,2.57-1.78,3.92-2.4,2.6-1.21,4.78-2.93,6.39-5.32.61-.91,1.21-1.82.64-3-.58-1.19-1.66-1.25-2.77-1.26-5.09-.07-9.91.95-14.49,3.22-6.7,3.32-11.66,8.61-16.35,14.24-4.39,5.26-8.91,10.41-14.56,14.42-7.33,5.2-15.2,7.31-24.01,4.48-2.69-.86-5.37-1.76-8.1-2.46-4.73-1.2-8.22.6-10.57,4.85-1.54,2.78-1.22,5.64-1.12,8.55ZM258.17,238.51c-1.12-3.11-2.96-4.62-4.57-6.35-1.55,1.63-1.64,1.65-1.36,2.76,1.19,4.81,2.9,9.37,6.72,12.8,1.13,1.02,2.42,2.3,4,1.56,1.77-.84,1.44-2.78,1.28-4.37-.28-2.73-1.66-5.16-2.42-7.76-.3-1.03-.9-1.29-1.91-1.33-1.51-.07-1.4,1.02-1.75,2.7ZM246.4,248.18c-1.24-2.53-.49-5.56-2.75-7.49-.98.58-.85,1.38-.89,2.12-.2,3.4.63,6.67,1.44,9.91.52,2.09,1.19,4.16,2.51,5.95,1.22,1.65,2.94,2.79,3.6,2.18,1.14-1.07,1.14-2.5.8-3.93-.03-.11-.08-.2-.1-.31-.56-2.53-1.22-5.06-1.05-7.68.13-2.02-.88-2.98-2.71-3.23-.9.66-.21,1.75-.85,2.49ZM252.03,241.39c-.16-2.34-.93-4.59-1.55-6.88-.22-.8-1.25-1.45-1.72-1.14-1.35.9-1.55.02-1.92-.88-.32-.8-.67-1.59-1.04-2.36-.19-.4-.54-.76-.99-.7-.66.1-.73.71-.76,1.25-.15,2.66.87,5.09,1.58,7.56.56,1.97,1.38,3.87,2.84,5.4.52.55,1.05,1.27,1.88,1.03.88-.25,1.35-1.05,1.54-1.94.09-.42.09-.86.14-1.34Z"/>
      <path class="cls-6" d="M43.61,181.44c-.91-.76-1.88-1.45-2.72-2.29-2.44-2.46-2.3-5.39.32-7.62,2.29-1.95,5.06-2.91,7.88-3.73,7.25-2.11,14.69-2.95,22.2-3.21,8.17-.28,16.32.09,24.43,1.14,1.05.14,2.1.26,3.18-.28,3.22-1.62,6.69-1.67,10.19-1.31,4.11.42,8.18,1.05,12.13,2.29,3.73,1.17,7.6,1.74,11.38,2.7,7.23,1.84,13.44,5.5,18.49,11.02,4.26,4.66,8.46,9.37,12.71,14.03,2.5,2.74,5.27,5.2,8.33,7.3,6.3,4.32,13.11,5.47,20.47,3.33,2.81-.81,5.51-1.91,8.4-2.52,8.83-1.88,13.75,3.98,15.12,10.16.8,3.62.16,7.16-.19,10.72-.54,5.57-1.77,11.06-4.85,15.75-1.7,2.59-2.39,5.15-2.68,8.07-.43,4.46-1.54,8.77-3.75,12.73-.97,1.74-2.23,3.21-4.07,4.09-.69.33-1.49.88-2.16.54-2.11-1.07-2.75.33-3.63,1.77-1.32,2.14-2.95,4.07-5.14,5.38-1.72,1.03-3.57,1.81-5.5.58-1.29-.83-1.93-.25-2.64.76-1.06,1.53-2.35,2.85-3.95,3.84-4.15,2.57-7.45,1.89-10.33-2.14-1.18.68-1.66,1.98-2.57,2.91-1.62,1.67-3.47,2.98-5.64,3.77-3.02,1.1-5.63.06-7.15-2.79-.45-.84-.74-1.76-1.21-2.89-1.69,1.16-3.16,2.43-4.97,3.12-1.33.51-2.66.89-4.12.84-2.8-.09-4.68-1.54-5.32-4.34-.26-1.14-.32-2.34-.48-3.54-1.2-.34-1.85.6-2.65,1-1.08.54-2.14,1-3.36,1.14-4.01.48-5.85-.83-6.91-4.72-.35-1.27.01-2.56-.27-3.82-9.59,1.93-10.89-.81-10.53-8.3-1.04-.13-1.77.6-2.63.95-2.21.89-4.41,1.77-6.81,2.15-5.81.93-8.27-1.14-7.85-6.82-1.35-.19-2.48.56-3.67.94-3.7,1.18-7.46,1.44-11.28,1.13-1.07-.09-2.16-.36-3.15-.76-3.39-1.4-4.61-4.17-3.5-7.69.53-1.67,1.48-3.12,2.62-4.9-4.15.37-7.96.42-11.74-.28-2.59-.48-5.1-1.16-7.15-2.91-2.93-2.5-3.19-5.27-.8-8.26,1.01-1.27,2.07-2.49,3.09-3.71-1.77-.23-3.97-.47-6.15-.81-3.78-.59-7.4-1.67-10.65-3.79-.92-.6-1.77-1.26-2.46-2.12-1.81-2.28-1.93-4.47-.3-6.9.53-.8,1.24-1.49,1.86-2.22,3.01-1.81,6.2-3.28,9.76-4.94-2.74-.58-4.95-1.04-7.15-1.5-3.54-1.72-7.16-3.36-9.76-6.44-2.33-2.76-1.72-6.11,1.34-8.1,2.61-1.69,5.56-2.69,8.44-3.84,2.56-.32,5.1-.75,8.02-1.64-3.25-.73-5.85-2.02-8.55-3.01ZM116.85,178.13h.24s.23.08.23.08l-.02,1.19c-5.02-.8-10.02-.61-15.02.14-.18,0-.35.05-.51.15-.61.22-1.22.41-1.82.66-1.63.68-3.25,1.48-3.46,3.47-.21,1.99,1.27,3.07,2.61,4.18,1.71,1.41,3.81,1.96,5.81,2.75.38.51.92.54,1.49.45.6.08,1.2.16,1.8.24.79.77,1.76.47,2.68.46,3.91-.1,7.86.54,11.73-.54.94-.02,1.91.15,3.01-.44-1.25-1.41-2.27-2.91-2.64-4.73.29-.69.85-1.3.64-2.14.63-.72,1.27-1.44,1.9-2.17-1.09-1.45-2.65-1.75-4.24-2.01.12-.47.23-.93.35-1.4-.47-.56-.95-1.13-1.42-1.69-.36-1.15-.72-2.3-1.07-3.45.03-.37.07-.73.1-1.1.36-.78.73-1.55,1.18-2.52-5.29-1.59-10.54-2.67-16-2.47-.85.03-1.72.24-2.54.48-1.69.5-2,1.4-.96,2.86.83,1.17,2,1.96,3.23,2.67,3.33,1.94,6.67,3.84,10.58,4.37.57.75,1.36.6,2.14.51ZM110,244.1c-.54,0-.98.19-1.24.7-.98.23-1.66.95-2.47,1.46-.82.17-1.58.44-2.04,1.21h0c-.93-.02-1.56.46-2.06,1.19-2.28,1.04-3.17,3.15-3.91,5.3-.74,2.16.2,3.33,2.54,3.19,1.62-.1,3.18-.56,4.71-1.16,9.02-3.5,15.92-9.89,22.58-16.6,2.05-2.06,3.45-4.4,2.94-7.5-.08-.49.2-1.05.31-1.57,1.18-.7,1.78-1.7,1.66-3.1.31-.12.36-.23.13-.28-.03,0-.11.16-.17.25-.53-.03-.97-.2-1.3-.67-.34-.49-.79-.6-1.26-.13-2.71,1.24-4.68,3.44-6.8,5.41-3.57,3.31-6.84,6.94-10.94,9.63-.54.35-1.03.8-1.23,1.46h-.01c-.8-.02-1.28.33-1.4,1.14l-.04.06ZM129.73,195.86c1.27-2.69.95-3.27-1.84-3.3-.53,0-1.04.07-1.46.45-2.31.41-4.64.44-6.97.32l-.75.17c-3.29.72-6.59,1.39-9.79,2.44-.88.29-1.67,1.09-2.72.57-1-.74-.27-1.31.31-1.61.9-.47,1.91-.71,2.87-1.04.52-.16.59-.35.04-.58-1.15-.09-2.33,0-3.39-.57-.15-.07-.31-.11-.48-.11-1.08.02-2.17.04-3.25.06-.48-.88-.68-2.04-2.06-1.99-2.68-.79-4.42-2.77-6.1-4.83.09-.37.19-.73.28-1.1,0-2.94,1.4-4.87,4.14-5.88.12-.03.22-.08.32-.15,1.24-.75,2.58-1.16,4.03-1.15,1.11-.04,2.23.21,3.71-.28-1.33-.87-2.3-1.5-3.59-.6-2.48.34-4.96.3-7.42-.13-1.27-.57-2.59-.25-3.9-.24-2.2-.12-4.52.51-6.58-.58.01-.26.03-.51.04-.77h11.88c1.74.42,3.48.81,5.81.18-2.67-1.56-3.96-3.87-5.55-5.92-.04-.06-.21-.02-.31-.03-14.09-1.88-28.16-2.04-42.2.52-3.64.66-7.23,1.59-10.43,3.53-2.49,1.51-2.5,2.97-.11,4.69,1.42,1.02,3.03,1.68,4.68,2.26,7.03,2.48,14.35,3.42,21.73,3.92,5.53.38,11.07.59,16.6.88.2.25.4.26.61.01,1.75,0,3.49,0,5.24,0,.1.28.2.56.31.84-.26,1.01-1.11.89-1.83.89-5.39.01-10.78.2-16.16-.18-.8-.74-1.76-.44-2.68-.42-1.3-.03-2.6-.04-3.9-.09-4.01-.15-7.98.05-11.87,1.12-3.6.17-7.09.97-10.54,1.93-3.02.84-6.12,1.55-8.76,3.38-1.83,1.26-1.96,2.33-.51,4,1.15,1.33,2.6,2.3,4.17,3.07,3.84,1.87,7.91,2.97,12.13,3.54,8.09,1.1,16.19,1.69,24.35.75,3.87-.45,7.78-.63,11.67-.93.62.11,1.21.14,1.66-.41,3.45-.7,6.89-1.4,10.34-2.09.41-.09.66-.34.74-.75.35-1.56,1.33-2.66,2.65-3.46.49-.3,1.01-.31,1.31.33.1,1.62-1.62,2.07-2.12,3.3-.62.53-.63,1.14-.22,1.8,1.58,2.65,4.28,3.06,6.96,3.39,5.36.67,10.51-.58,15.63-1.9,0,.45.01.9.02,1.35-1.56.76-3.2,1.34-4.85,1.88-3.61,1.2-6.6,3.28-8.69,6.52-1.28,1.98-.59,3.62,1.77,3.84,2.59.25,5.19.29,7.79-.29,4.87-1.07,9.18-3.27,13.24-6.08,1.03-.27,1.83-.64,1.2-1.97-.37-.79-.2-1.45.74-1.73,1.52,1.82,3.52,2.3,5.81,2.34,2.11.04,4.16-.57,6.31-.37-1.35.96-2.81,1.64-4.14,2.52-1.12.74-1.93,1.85-1.63,3.3.29,1.39,1.25,2.2,2.64,2.57,1.18.32,2.34.38,3.53.07,1.76-.46,3.54-.88,5.53-1.37-1.17,1.68-2.81,2.72-3.42,4.55-.73,2.2-.01,3.87,2.14,4.67,1.07.4,2.12.26,3.21.08,2.2-.35,4.03-1.55,5.94-2.57.3.3.61.6.91.9-.25.93-.6,1.85-.73,2.79-.4,3.11,1.29,4.64,4.42,4.06.95-.18,1.86-.49,2.69-1.01,1.47-.91,2.71-2.1,3.94-3.29.23.22.47.44.7.66-.28,1.36-.87,2.64-.78,4.08.15,2.47,1.43,3.35,3.85,2.67,3.27-.92,5.1-3.38,6.69-6.1,1.06.65.36,1.74.64,2.58,0,.32-.03.65,0,.97.41,3.05,2.07,3.91,4.69,2.4,1.66-.96,2.7-2.43,3.42-4.19.41-1.01.5-2.21,1.68-3.18,0,1.18,0,2.04,0,2.9,0,1.22,0,2.54,1.41,2.96,1.29.38,2.25-.5,3.09-1.38.76-.8,1.24-1.77,1.61-2.8.5-1.38.96-2.78,1.51-4.41.24.94.43,1.67.61,2.39.25,1.04.29,2.31,1.6,2.57,1.49.29,2.44-.7,3.1-1.87.66-1.16,1.17-2.4,2.04-4.21v3.95c-1.3,1.41-.81,4.47-3.92,4.24-.18-.01-.5.42-.59.69-.72,2.2-.93,4.46-.73,6.76.05.56.32,1.09.87,1.28.57.2,1.05-.12,1.41-.56.34-.42.74-.83.95-1.31,1.39-3.17,2.95-6.29,3.34-9.81,1-4.02,1.58-8.11,1.33-12.25-.46-7.51-5.8-11.33-13.01-9.35-1.67.46-3.3,1.06-4.94,1.65-8.18,2.96-15.97,2.23-23.44-2.29-4.71-2.85-8.64-6.54-12.27-10.62-3.68-4.14-7.18-8.44-11.14-12.34-6.68-6.59-14.39-10.77-24.05-10.53-.22-.26-.45-.28-.68-.02-2.82.58-3.38,1.62-2.01,3.9.91,1.5,2.06,2.82,3.56,3.76,1.65,1.04,3.33,2.04,5,3.05,0,.4,0,.8,0,1.2-1.08.06-2.18-.01-3.23.2-1.88.38-2.63,2.03-1.67,3.71.82,1.44,2.07,2.49,3.58,3.19,1.68.78,3.45,1.26,5.27,1.57.21.39.42.78.63,1.16-.49.22-.99.41-1.46.67-2.26,1.26-2.44,3.24-.43,4.78.59.45,1.26.8,1.9,1.19.4.57.98.6,1.59.5.79.08,1.57.16,2.36.24.42.37.84.73,1.26,1.1-1.35.66-2.42,1.62-3.13,2.96,0,.62-.02,1.24-.03,1.86-.5.19-.95.05-1.39-.2-.21-.39-.41-.79-.62-1.18,1-.77,1.34-1.85,1.5-3.02-1.16-.81-2.35-.35-3.5-.34-.24-.22-.48-.45-.72-.67-.48-1.54-1.92-2.44-2.55-3.88,0-.44,0-.88,0-1.31ZM142.8,211.52c.04-.1.13-.2.12-.29-.01-.09-.11-.2-.19-.23-2.39-1.01-4.52-.63-6.36,1.23-2.59,1.57-5.07,3.34-8,4.28-1.53.49-2.57,1.63-3.45,2.87-1.04,1.47-2.61,3.11-1.22,4.94,1.19,1.57,3.15,1.03,4.86.59,3.96-1.01,7.4-2.97,10.68-5.36,2.11-1.53,3.47-3.19,2.82-5.92.25-.7.49-1.41.74-2.11ZM156.59,227.36c-.68-.05-1.35-.09-2.03-.14q-2.59-1.22-4.21.76c-.82,1-1.66,2-2.48,3-2.09,2.53-3.6,5.38-4.66,8.49-.51,1.49-.34,2.8.72,3.91,1.04,1.09,2.31.89,3.63.46,2.41-.79,4.52-2.05,6.37-3.78,2.95-2.77,5.35-5.94,7.24-9.51,1.36-1.3,1.36-2.82.8-4.6-1.89.33-3.67.7-5.36,1.42ZM111.13,210.91c.26-2.09,3.2-1.65,3.62-3.7-5.56-.38-11.04-1.19-16.34.99.81-2.33,3.5-1.83,4.99-3.12-1.63-2.62-1.62-2.55-4.23-2.15-11.65,1.79-23.25,3.96-35.13,3.37-1.96-.1-3.84.26-5.54,1.3-4.6.58-8.75,2.48-12.81,4.55-1.82.93-4.03,2.04-3.86,4.38.17,2.24,2.37,3.26,4.25,4.12,3.38,1.55,6.97,2.41,10.68,2.64,6.21.39,12.35-.02,18.47-1.28,11.62-2.4,22.8-6.07,33.49-11.23.72.13,1.5,0,2.15.46-.04.24-.08.49-.12.73-4.36,1.92-8.71,3.88-13.1,5.73-4.2,1.77-8.55,3.13-12.94,4.35-3.98.9-7.95,1.89-11.98,2.59-1.99.34-4.06.6-5.8,1.81-3.08,1.42-5.85,3.29-8.1,5.85-1.46,1.66-1.32,2.7.37,4.11.5.41,1.05.81,1.64,1.04,4.33,1.67,8.77,2.12,13.32,1.01,4.51-.14,8.7-1.62,12.88-3.1,9.36-3.3,17.91-8.2,26.27-13.47,1.44-.64,2.79-1.39,3.75-2.9-1.59-.47-3.22-.58-4.33-1.39-1.23-.9-2.17-.37-3.26-.2-.02-.47-.04-.94-.07-1.42,1.52-.66,1.24-2.62,2.5-3.48.17-.74.11-1.37-.78-1.61ZM195.69,233.21q-1.21-1.36-2.53.63c-.89.37-1.61.9-1.81,1.92-.71-.24-.25,3.25-1.88.53-.5-.84-2.13-.99-2.7.28-1.42,3.17-2.84,6.39-2.8,9.95.04,2.84,1.68,3.64,4.1,2.17.37-.22.72-.49,1.03-.79,4.01-3.83,6.3-8.48,6.71-14.04.34-.31.36-.54-.15-.67ZM146.14,219.15c-.2-.3-.47-.39-.81-.31-.95-.67-1.78-.48-2.57.32-1.83,1.85-3.85,3.53-5.47,5.53-1.9,2.35-3.46,4.99-4.16,8-.52,2.25.65,3.59,2.96,3.42.74-.06,1.5-.27,2.19-.56,4.97-2.06,8.64-5.64,11.69-9.97.39-.55.71-1.16.46-1.81-.4-1.08-.23-2.09,0-3.17.32-1.49-.77-1.18-1.63-1.1-.68-.05-1.36-.1-2.03-.16-.21-.07-.42-.14-.63-.21ZM165.7,232.41c-1.09-.35-2.2-1.88-3.28-.07-1.51,2.53-3.42,4.76-5.08,7.18-1.5,2.17-2.41,4.65-1.77,7.39.52,2.24,1.29,2.72,3.48,2.27,1.72-.35,3.29-1.05,4.71-2.11,4.23-3.16,6.81-7.54,9.06-12.16.69-1.42.66-2.83-.51-4.34-1.59,1.48-3.85,1.06-5.34,2.48-.42-.21-.85-.43-1.27-.64ZM179.31,252.03c-.05-.81-.03-2.39-1.06-1.69-1.63,1.09-3.91,1.52-4.38,4.29-.52,3.06-1.53,6.09-2.8,9-1.04,2.38-1.79,4.89-1.5,7.6.37,3.49,2.56,4.73,5.72,3.17,1.51-.74,2.66-1.95,3.59-3.27,3.73-5.27,5.17-11.41,6.36-17.62.1-.54.1-1.23-.35-1.53-1.77-1.13-2.17-3.14-3.18-5.07-.97,1.79-1.56,3.37-1.71,5.11-.23,0-.46,0-.69,0ZM143.42,247.46c-.3-.02-.61-.03-.91-.05.08-.64.3-1.31.19-1.92-.13-.77-.76-1.44-1.49-1.58-.69-.14-1.03.66-1.4,1.18-.19.26-.33.56-.5.84-2.99,4.94-6.45,9.48-10.65,13.47-2.25,2.14-2.82,5.1-2.8,8.06.02,2.81,1.99,4.01,4.71,3.04,2.29-.82,4.19-2.28,5.8-4.08,4.75-5.3,8.26-11.38,11.12-17.86.89-2.02.49-2.52-1.64-2.46-1.1.03-1.85.49-2.43,1.35ZM166.88,251.33c-.49-.3-.54-.79-.59-1.28-.07-.72-.36-1.44-1.17-1.12-1.28.51-2.51,1.08-2.88,2.75-.49,2.21-1.28,4.36-1.96,6.53-1.21,3.88-3.59,7.17-5.45,10.72-1.14,2.17-1.24,4.38-.57,6.62.87,2.88,2.61,3.52,5.18,1.99,1.69-1,3.12-2.29,4.34-3.88,4.35-5.66,5.87-12.51,8.13-19.05.31-.9,0-1.59-.88-1.77-1.35-.28-1.98-1.21-2.55-2.3-.23-.44-.44-1.13-1.14-.71-.51.31-.34.98-.47,1.5ZM144.86,258.63c-1.93,1.97-3.19,4.44-4.34,6.84-1.29,2.7-2.05,5.71-1.09,8.83.42,1.38,1.23,1.89,2.62,1.89,2.51,0,4.32-1.46,5.99-2.97,5.9-5.35,9.07-12.35,11.56-19.72.41-1.22.21-2.15-1.44-2.08-.97.05-1.96.14-2.89-.29-1.1-.51-1.62.07-1.93,1.02-.83,2.48-2.18,4.71-3.36,7.03-.3.03-.6.06-.91.1.62-3.48,2.32-6.55,3.7-9.74,1.83-1.92.02-4.16.94-6.39-3.02,1.59-3.05,1.58-3.88,4.02-1.22,3.57-2.58,7.07-4.67,10.24-.22.33-.2.81-.3,1.22ZM136.3,239c-.44-.23-.88-.46-1.32-.69-2.08-.69-3.42.12-4.86,1.74-3.09,3.49-6.23,7.01-10.2,9.52-4.36,2.76-4.69,6.94-4.63,11.39.02,1.06.61,1.54,1.63,1.63,1.89.16,3.63-.23,5.31-1.16,2.79-1.55,5.25-3.6,7.35-5.86,4.51-4.86,7.99-10.51,11.18-16.32.32-.59.98-1.27.18-2.16-1.74.08-3.15,1.13-4.65,1.92ZM123.44,229.22q1.95-1.39.27-2.39c-.46-.28-.96-.5-1.4-.81-1.9-1.36-1.9-1.37-3.79.39-2.84,1.95-5.67,3.89-8.5,5.85-.98.68-1.93,1.42-3.23,1,1.23-1.07,2.42-2.18,3.7-3.19,3.22-2.55,6.5-5.04,9.72-7.6,1.08-.86,1.87-1.94,2.26-3.79-2.66,1.17-4.68,2.54-6.71,3.89-8.41,5.6-17.14,10.6-26.63,14.21-2.19.84-4.69,1.06-6.52,2.78-2.58,1.77-4.4,4.2-5.79,6.94-1.62,3.19-.42,5.27,3.18,5.61,4.17.39,8.24-.15,12.21-1.53,12.34-4.31,22.14-12.31,31.23-21.37ZM178.38,237.63c-.37-2.2-1.9-2.24-3.07-2.41-1.26-.19-1.3,1.21-1.73,2.02-.7,1.34-1.32,2.74-2.05,4.07-1.12,2.04-1.74,4.23-1.79,6.52-.05,2.42,1.17,3.36,3.53,2.88,1.41-.29,2.68-1,3.71-1.95,3.92-3.62,6.61-7.98,7.84-13.22.28-1.2.08-2.07-.91-3.05-1.7,1.65-4.05,2.46-5.54,5.15ZM190.76,249.52c-2.35.96-3.93,2.18-3.59,4.85.06.51-.19,1.06-.27,1.59-.48,3.32-1.32,6.56-2.13,9.81-.25.99-.59,2.31.48,3.01,1.12.73,2.29.21,3.29-.58.59-.47,1.27-.87,1.75-1.43,1.82-2.17,3.24-4.57,4.21-7.26,1.3-3.59,1.75-7.33,2.25-11.08.23-1.69-.53-2.76-1.68-3.05-1.48-.37-1.68,1.18-2.05,2.31-.6,1.83-.32,3.94-1.61,5.74-.42-1.33.24-2.59-.64-3.91ZM201.2,250.98c-.42-1.93.21-3.58-.47-5.14-2.2,1.18-2.31,1.18-2.34,2.81-.04,2.63-.58,5.16-1.19,7.7-.28,1.18-.35,2.39-.01,3.55.28.99.95,1.39,2,.91,1.37-.62,2.21-1.71,2.87-3,2.22-4.33,3.26-8.96,3.45-13.78.05-1.15.75-3.12-.99-3.21-1.19-.06-1.37,1.87-1.69,3.15-.55,2.18-.36,4.53-1.63,7ZM203.54,229.66c-.1.02-.22,0-.29.06-.17.13-.33.27-.46.44q-1.4,1.88-4.27,3.54c-.39.22-.77.44-.88.89-.64,2.62-1.56,5.21-1.21,7.97.11.89.57,1.71,1.43,2.05,1.01.39,1.64-.45,2.13-1.12,2.89-3.99,4.16-8.48,3.99-13.39,0-.15-.29-.29-.44-.43Z"/>
      <path class="cls-4" d="M283.35,221.3c-.51,1.42.66,2.43.94,3.66.35,1.55.63,3.08-.52,4.31-1.26,1.34-2.88,1.21-4.55.73-2.86-.82-4.76-2.88-6.7-5.21-.35,1.39.39,2.29.66,3.27.27.96.46,1.9.32,2.88-.32,2.22-1.8,3.12-3.97,2.46-2.29-.7-3.97-2.15-5.24-4.14-.68-1.06-1.4-2.1-2.18-3.28-.61,1.12-.2,1.93-.04,2.73.16.86.28,1.7.07,2.57-.6,2.53-2.04,3.21-4.3,1.97-1.48-.81-2.52-2.04-3.23-3.55-.5-1.06-.98-2.14-1.78-3.88-.22,1.84-.24,3.05-.54,4.19-.43,1.66-1.45,2.02-2.96,1.21-1.2-.64-1.97-1.66-2.54-2.87-.79-1.68-1.14-3.49-1.65-5.42-1.11.98-.69,2.28-.99,3.34-.67,2.34-1.99,2.75-3.71,1.02-1.25-1.26-1.9-2.88-2.23-4.62-.03-.53,0-1.2-.83-.71-.63.37-1.18.88-1.77,1.33-.08-.16-.11-.34-.07-.52-.02-1.37.48-2.81-.54-4.05-.1-2.91-.42-5.77,1.12-8.55,2.36-4.26,5.84-6.05,10.57-4.85,2.73.69,5.42,1.59,8.1,2.46,8.82,2.83,16.69.71,24.01-4.48,5.65-4.01,10.17-9.16,14.56-14.42,4.7-5.62,9.65-10.91,16.35-14.24,4.58-2.27,9.4-3.29,14.49-3.22,1.12.02,2.19.08,2.77,1.26.58,1.17-.02,2.09-.64,3-1.62,2.39-3.79,4.11-6.39,5.32-1.35.63-2.67,1.3-3.92,2.4,1.34,0,2.68-.03,4.02,0,1.25.03,2.46.32,2.94,1.63.5,1.35.04,2.62-.94,3.59-1.42,1.4-3.22,2.16-5.12,2.74-1.82.55-3.73.59-5.82.79.88,1.3,1.99.92,2.85,1.24,1.22.46,2.5.91,2.72,2.47.24,1.69-.78,2.63-2.12,3.3-1.57.79-3.26,1.19-5.01,1.31-1.08.07-2.16.11-3.4.17.35,1.17,1.41.96,2.1,1.33,1.37.73,2.73,1.49,2.71,3.32-.02,1.56-1.4,2.97-3.42,3.44-2.15.5-4.33.3-6.49.08-.64-.07-1.28-.18-2.18-.31.72,1.3,1.95,1.49,2.89,2.06,2.15,1.3,2.92,2.55,2.48,4.11-.44,1.55-2.31,2.75-4.43,2.66-1.85-.08-3.66-.46-5.43-1.04-.4-.13-.85-.1-1.28-.14-.03-.08-.05-.18-.1-.24-.03-.04-.12-.02-.18-.03.11.08.22.15.33.23.1,1.23,1.29,1.67,1.86,2.57,1,1.58,1.52,3.32.46,4.89-1.04,1.54-2.8,1.93-4.66,1.54-2.83-.59-5.24-2-7.48-3.75-.2-.27-.3-.29-.25-.05,0,.02.18,0,.28,0Z"/>
      <path class="cls-4" d="M348,193.3c.65-.05,1.29-.09,1.94-.14.23.07.46.15.69.22.63.63,1.38.52,2.15.36,5.3.36,10.6.65,15.9,1.09,7.18.6,14.35.52,21.53.14-12.76-.88-25.53-1.53-38.21-3.18,1.72-1.5,3.73-1.9,5.99-1.9,2.71,0,5.31.76,8.04.76,2.72,0,5.32-.86,8.04-.71,3.24.17,6.44-.52,9.64-.86,2.72-.28,5.55-.68,8.15-1.8,5.65.51,11.14,1.73,16.4,3.88,1.58.65,3.57,1.28,3.71,3.23.14,1.88-1.59,2.99-3.01,3.99-3.92,2.76-8.48,3.85-13.09,4.61-14.33,2.38-28.56,1.23-42.72-1.53-1.91-.37-3.9-.38-5.74-1.12.83-1.47.79-2.79-.54-4.01-1.04-.96-.7-1.59.56-1.99.43-.13.52-.63.58-1.06Z"/>
      <path class="cls-4" d="M346.1,174.91c1.58-1.6,3.73-2.7,4.44-5.07.31-1.02,1.21-.74,1.91-.83,8.98-1.15,17.98-1.46,27.02-.98,6.64.35,13.21,1.07,19.6,3.01,1.98.6,3.94,1.27,5.64,2.49,1.61,1.16,1.72,1.98.4,3.46-1.18,1.33-2.74,2.1-4.37,2.76-5.08,2.09-10.46,2.92-15.83,3.62-9.28,1.21-18.63,1.64-28,1.47-1.65-.03-2.91.12-3.46-2.23-.71-3.05-3.81-3.91-6.43-4.96-.48-.19-1.02-.21-1.54-.68,5.19-.27,10.38-.53,15.57-.8,6.32.27,12.61-.33,18.91-.65,1.92.16,3.84.23,5.72-.51h-5.71c-6.31-.14-12.61-.23-18.92.04-4.99-.05-9.98-.1-14.97-.16v.02Z"/>
      <path class="cls-4" d="M360.41,211.16c.43.1.86.2,1.29.3,6.89,1.93,13.86,3.34,20.96,4.12.05-.25.11-.5.16-.75-7.04-1.51-14.07-3.02-21.11-4.53-1.24-.43-2.49-.85-3.73-1.28,5.64-.09,11.26-.3,16.9.15,1.88.15,3.83.36,5.72.24,3.98-.25,7.94-.79,11.9-1.22,3.58.93,7.07,2.11,10.26,4,1.64.97,3.65,1.9,3.54,4.25-.11,2.28-2.05,3.22-3.79,4.08-3.35,1.66-7,2.39-10.66,2.71-5.52.48-11.05.29-16.53-.79-11.31-2.23-22.32-5.4-32.76-10.37-.97-.46-2.14-.47-2.94-1.3,1.32-1.05,3.23-.08,4.53-1.42.87-.9,2.04-.97,3.32-.53.77.26,1.71.02,2.58,0,3.17.88,6.39,1.57,9.63,2.11.19.23.4.4.72.23ZM385.28,215.71c-.18-.03-.36-.1-.54-.09-.33.03-.35.18-.03.27.17.05.37,0,.55-.03.01,0,.02-.1.02-.16Z"/>
      <path class="cls-1" d="M381.28,226.59c3.07,1.17,5.72,2.99,7.95,5.4,2.02,2.19,1.79,3.76-.92,5.1-4.66,2.31-9.67,2.36-14.66,1.59-11.8-1.81-22.24-7.13-32.46-12.95-1.97-1.12-3.84-2.44-5.75-3.67,2.09-.87,3.96-2.23,6.19-2.8,2.97,1.33,5.93,2.71,8.93,3.99,5.4,2.3,10.81,4.58,16.45,6.23,1.12.87,2.41,1.15,3.79,1.11.25.16.49.38.76.48.28.1.62.1.8-.26-.26-.12-.51-.26-.78-.34-.19-.06-.41-.05-.62-.07-1.15-1.08-2.68-1.29-4.09-1.79-2.79-1.17-5.57-2.34-8.36-3.51.99-.76,2.04-.46,3.11-.2,1.47.36,2.93.76,4.42,1.02,5.05.87,10.15.64,15.24.68Z"/>
      <path class="cls-2" d="M365.63,239.65c2.77,1.74,4.53,4.37,6.06,7.13,1.55,2.79.36,4.95-2.88,5.29-4.25.44-8.46.15-12.54-1.29-8.21-2.89-15.45-7.43-22.1-12.95-2.84-2.36-5.58-4.84-8.39-7.24-.45-.38-.7-.8-.82-1.34,1.06,0,2.06-.19,2.81-1.05.57-.65,1.31-1,2.16-1.09.57.07,1.15.14,1.72.21,5.45,4.56,11.41,8.34,17.62,11.75.27.45.73.6,1.2.73.67.86,1.56,1.26,2.64,1.27.16.07.31.14.47.21-.08-.15-.16-.29-.25-.44-.57-.96-1.47-1.32-2.53-1.4-.17-.15-.34-.3-.51-.45-.89-1.11-2.16-1.75-3.26-2.6-1.43-1.1-3.27-1.67-4.3-3.28,2.22-.12,3.84,1.36,5.7,2.16,5.5,2.38,11.24,3.78,17.2,4.37Z"/>
      <path class="cls-8" d="M305.45,261.88c2.88,2.77,3.29,6.52,3.87,10.13.57,3.57-1.45,5.11-4.93,3.89-2.61-.92-4.77-2.63-6.59-4.65-4.52-5.04-7.03-11.17-9.04-17.52-.54-1.71-.26-2.07,1.57-2.19,1.14-.08,2.1-.33,2.97-1.09.35-.31.81-.07,1.12.29.98,4.2,3.23,7.76,5.56,11.32-.47-3.1-2.43-5.64-2.94-8.69,1.24.02,1.35,1.17,1.94,1.87,1.8,2.14,2.76,5.13,5.9,5.94,0,0,0,0,0,0,.19.23.38.46.57.69Z"/>
      <path class="cls-8" d="M305.4,246.16c.23-1.2.79-2.19,1.9-3.04,1.94,2.84,3.31,5.92,5.3,8.63,1.88,2.56,4.13,4.75,6.4,6.92,2.46,2.35,3.16,5.42,3.4,8.54.23,3.09-1.34,4.1-4.28,3.26-2.5-.71-4.49-2.25-6.16-4.09-4.79-5.25-8.52-11.21-11.13-17.84-.83-2.1-.56-2.44,1.66-2.38.95.02,1.68.33,2.3,1,1.04,3.76,3.03,6.79,5.45,7.91-1.71-3.15-3.27-6.03-4.83-8.9ZM312.05,258.59c.11.09.21.18.32.27-.09-.1-.18-.21-.28-.31,0-.55-.14-1.02-.63-1.32-.09-.52-.18-1.04-.88-1.04-.07,0-.21.13-.21.21-.06.68.41.86.95.95.06.52.21.99.73,1.24Z"/>
      <path class="cls-5" d="M281.92,249.41c.13-.28.27-.56.4-.83,1.57.78,3.46,1.07,3.77,3.4.82,6.08,4,11.23,6.98,16.39,1.53,2.65,1.63,5.09.68,7.77-.76,2.16-1.94,2.72-4,1.69-2.34-1.18-4.39-2.75-5.91-4.99-2.66-3.93-4.09-8.39-5.79-12.73-.67-1.72-1.22-3.49-1.75-5.26-.21-.71-.45-1.87.49-1.93,2.34-.16,2.59-2.42,3.97-3.5,1.27,5.74,3.44,11.13,6.26,16.28-1.25-5.57-3.04-10.97-5.08-16.28Z"/>
      <path class="cls-4" d="M328.38,180.14c1.9-.88,4.04-.44,5.98-1.12.25.21.46.1.65-.1,3.26-.06,6.51.02,9.74.54,1.3.21,2.57.49,3.75,1.04,3.76,1.75,4.11,4.6.87,7.27-1.35,1.11-2.9,1.89-4.6,2.38-6.46,1.84-13,2.41-19.64,1.11.56-1.08,1.37-1.97,2.42-2.52,1.11-.59,1.45-1.49,1.56-2.61,3.87-.39,7.8-.42,11.52-1.86-4.09.96-8.24.12-12.34.6-.63-.05-1.26-.1-1.88-.15-.07-1.02.18-1.92.98-2.63.58-.52.98-1.15.97-1.97Z"/>
      <path class="cls-8" d="M342.88,246.74c.17.04.34.09.51.16.24.18.48.37.72.55,3.24,1.13,5.14,3.45,6.07,6.69.65,2.28.15,3.11-2.18,3.02-3.33-.12-6.33-1.46-9.25-2.92-2.43-1.22-4.74-2.67-6.84-4.41-5.01-4.15-10.32-8-14.09-13.45,1.02-.38,1.39-1.16,1.45-2.2.05-1.03.85-1.02,1.6-1.06,1.14,1.63,2.07,3.54,4.57,3.27.73,1,1.89,1.67,2.29,2.93.09.8.54,1.11,1.32.98h-.02c-.1,1.34.84,1.74,1.88,2.05.23.2.46.4.69.61.15.23.27.58.58.16.01-.02-.25-.24-.38-.36-.21-.23-.41-.45-.62-.68-.08-.37-.16-.74-.24-1.11,1.85-.36,2.87,1.15,4.25,1.87,1.85.96,3.26,2.85,5.67,2.6,0,0,0,0,0,0,.23.57.7.72,1.26.71,0,0,0,0,0,0,.14.34.39.54.76.58ZM333.63,244.2c-.05-.09-.07-.2-.14-.27-.04-.04-.21-.03-.22-.02-.04.2.09.3.37.28.02.09.02.2.07.28.03.05.14.04.22.06-.1-.11-.19-.22-.29-.33ZM336.24,246.16c.03.08.04.18.08.24.03.04.12.04.18.06-.09-.1-.18-.2-.27-.3l-.63-.5c-.06.11-.12.22-.18.34.27.05.54.11.81.16Z"/>
      <path class="cls-5" d="M269.48,251.99c.13-.28.27-.8.4-.79,2.12.03,3.79,1.39,4.35,3.45.97,3.55,2.04,7.07,3.52,10.45.84,1.93,1.16,3.94,1.02,6.02-.26,3.73-2.92,5.08-6.13,3.06-2.06-1.3-3.56-3.19-4.72-5.28-2.51-4.48-3.97-9.35-4.83-14.38-.23-1.37-.39-2.83,1.32-3.62.44-.2.72-.78,1.01-1.23.42-.65.17-1.98,1.41-1.76.87.16.72,1.21.89,1.92.18.73.41,1.45.62,2.18.5,3.46,1.32,6.82,2.92,9.99-.39-3.39-1.53-6.63-1.78-10.01ZM271.95,263.98c.03-.09.09-.19.08-.28,0-.03-.14-.06-.22-.09-.03.09-.09.19-.08.28,0,.03.14.06.22.09Z"/>
      <path class="cls-4" d="M318.71,195.69c-.72-2.62-.55-3.15,1.44-2.92,6.12.69,12.38.66,18.23,3.01,1.1.44,2.21.91,3.26,1.46,1.09.57,1.86,1.5,2.42,2.57.87,1.66.67,2.61-.92,3.56-1.68,1.01-3.49,1.67-5.51,1.78-6.41.35-12.51-.85-18.38-3.39.71-1.28,1.83-2.35,1.99-3.91.63.04,1.26.07,1.89.11.23.25.49.38.84.25,2.96.5,5.93,1,8.89,1.5.05-.21.1-.42.14-.63-4.76-1.13-9.52-2.26-14.28-3.39Z"/>
      <path class="cls-8" d="M329.23,251.23c1.12,0,1.82.63,2.23,1.59,1.09,2.51,1.67,5.12,1.58,7.88-.04,1.36-.67,1.88-2,1.95-2.16.11-4.05-.56-5.8-1.73-3.52-2.36-6.77-5-9.29-8.48-2.65-3.67-5.58-7.16-7.24-11.46,1.34-.16,2.67,1.43,4.02.04,2.06,1.82,2.97,4.71,5.59,6.01.28,1.2.75,2.23,2.11,2.54.25.28.5.56.75.84.16,1.1.87,1.59,1.9,1.74.13.07.26.14.39.22-.07-.13-.14-.26-.22-.39-.15-1.02-.62-1.75-1.73-1.91-.28-.25-.56-.51-.83-.76-.21-1.21-1.1-1.9-2-2.57-.26-.62-.53-1.23-.79-1.85,1.36-.24,2.16.65,3.12,1.4,2.28,1.76,4.31,4.02,7.43,4.37,0,0,0,.05,0,.05.1.39.36.57.76.54Z"/>
      <path class="cls-4" d="M318.09,203.53c3.1,1,6.28,1.82,9.28,3.06,3.02,1.25,5.83,3.02,7.48,6.02,1.14,2.07.62,3.24-1.65,3.92-2.02.6-4.13.45-6.16.11-5.91-.99-11.06-3.7-15.99-7.17.7-1.1,1.33-2.08,1.96-3.06,0,0,.01-.06.01-.06.76.02,1.68.54,2.02-.68.48-1.48,1.6-2.05,3.05-2.13ZM322.53,209.56c-.17-.45-.49-.64-.96-.51-.08.02-.19.21-.17.24.28.39.68.38,1.1.32.08.36.33.53.67.51.1,0,.18-.23.26-.35-.3-.07-.6-.14-.9-.21ZM315.3,206.69c1.53,1,2.92,2.34,5.3,2.04-2.64-2.08-2.94-2.2-5.3-2.04Z"/>
      <path class="cls-1" d="M301.01,219.43c3.57-1.5,2.73-2.04,5.81.85,2.45,2.3,4.82,4.68,6.5,7.66.81,1.44,1.4,2.94,1.79,4.52.69,2.83-1,4.52-3.82,3.67-2.5-.75-4.85-1.94-6.81-3.71-1.45-1.31-2.79-2.73-4.18-4.1-2.05-2.02-2.86-4.41-2.57-7.32.2-2.06,1.1-1.72,2.33-1.05.72,1.97,2.23,3.19,3.98,4.19.22.21.45.42.67.63.23.2.46.41.7.61.05.53.24.97.75,1.22.13.09.25.19.37.28-.09-.12-.19-.25-.28-.37,0-.55-.17-1.01-.66-1.32-.21-.23-.41-.46-.62-.69-.2-.23-.4-.46-.59-.69-.61-1.85-2.58-2.65-3.36-4.38Z"/>
      <path class="cls-4" d="M282.72,233.74c-.09-.43-.18-.85-.27-1.28.2-.06.33-.2.39-.39,2.42-.89,2.49-.93,3.57.98,1.28,2.27,2.72,4.43,4.31,6.49,1.37,1.77,2,3.87,2.14,6.05.19,3.05-1.27,4.16-4.2,3.47-2.41-.57-4.42-1.83-6.1-3.56-3.12-3.21-5.55-6.88-7.09-11.11,1.74-.3,3.64.66,5.24-.69.18.04.36.1.54.15,1.22,1.66,1.88,3.76,4.19,5.56-.63-2.57-1.61-4.15-2.72-5.68ZM286.57,241.6c.04.08.06.18.12.25.04.04.13.02.2.03-.1-.1-.2-.2-.29-.3,0-.32.04-.64,0-.95-.07-.45-.44-.97-.78-.83-.74.3-.31.87,0,1.26.19.24.5.37.76.55Z"/>
      <path class="cls-4" d="M297.91,228.29c2.61,2.76,5.05,5.64,6.52,9.19.84,2.02,1.77,4.25-.13,6.03-1.88,1.76-3.89.24-5.7-.54-3.28-1.42-5.49-4.14-7.72-6.79-1.46-1.73-2.89-3.5-3.79-5.62,1.56-1.23,3.6-.51,5.26-1.3.47.5.79,1.29,1.62,1.16.62-.1.43-.78.53-1.24,1.14-.3,2.27-.6,3.41-.9ZM297.21,234.23c-.19-.24-.39-.48-.58-.72-.08-.5-.29-.93-.7-1.25-.25-.52-.51-1.46-1.18-.9-.66.54.18,1.01.66,1.35.26.41.52.82.79,1.23.21.23.41.46.62.69.12.5.33.92.88,1.08.04.09.06.19.12.25.03.04.13.02.2.03-.11-.09-.21-.19-.32-.28.14-.59.03-1.1-.48-1.48Z"/>
      <path class="cls-8" d="M392.51,208.2c-3.97.42-7.93.96-11.9,1.22-1.89.12-3.83-.09-5.72-.24-5.64-.45-11.27-.24-16.9-.15-4.26-.42-8.09-2.32-12.13-3.48-.54-.16-1.11-.56-.75-1.15.49-.81,1.07-1.77,2.19-1.69,1.29.08,2.58.31,3.85.59,5.93,1.28,11.97,1.77,17.99,2.42,5.19.56,10.38.51,15.58.59,2.71.04,5.28.91,7.79,1.9Z"/>
      <path class="cls-5" d="M257.21,249.38c2.67,1.29,3.89,3.3,4.12,6.38.22,2.98,1.26,5.9,1.93,8.85.17.73.43,1.47.43,2.21.01,1.91-.93,2.51-2.71,1.9-3.28-1.14-4.99-3.93-6.21-6.75-1.8-4.16-2.85-8.61-2.92-13.22,0-.33,0-.65,0-.98-.02-1.21.48-2.37,1.62-2.5,1.14-.13,1.44,1.24,1.6,2.12.55,3.08,1.32,6.1,2.5,9.06.15-2.34-.86-4.62-.45-6.96l.1-.1Z"/>
      <path class="cls-8" d="M381.28,226.59c-5.09-.04-10.19.19-15.24-.68-1.49-.26-2.95-.65-4.42-1.02-1.06-.26-2.11-.56-3.11.2-2.09-.88-4.2-1.71-6.26-2.64-3.44-1.55-6.73-3.46-10.37-4.56-.77-.59-1.47-1.37-2.33-1.73-1.67-.69-2.13-1.97-2.21-3.65,1.04-.57,1.84.25,2.63.62,9.8,4.69,20.01,8.17,30.59,10.56,1.89.43,3.84.6,5.76.91,1.8.29,3.63.51,4.96,1.98Z"/>
      <path class="cls-1" d="M270.22,236.33c3.39-1.62,3.49-1.67,4.8,1.37,1.15,2.66,2.87,5.11,3.25,8.09.07.53.29,1.06.3,1.59.09,3.04-1.43,4.12-4.32,3.06-2.64-.97-4.55-2.89-6.2-5.07-2.04-2.7-3.5-5.71-4.41-8.97.57-.85,1.42-.84,2.21-.55.99.36,1.99.51,3.02.59,0,0,0,.01,0,.01.18,1.07.69,1.87,1.75,2.34.55-1.04-.08-1.71-.4-2.45ZM272.15,242.3l.39.28c-.08-.14-.17-.28-.25-.42-.09-.27-.18-.55-.27-.82-.11.09-.33.23-.32.25.13.25.3.47.46.7ZM271.09,239.93l.16.12.02-.2-.18.08Z"/>
      <path class="cls-4" d="M310.55,211.65c2.67,1.83,5.56,3.27,8.52,4.53,2.54,1.09,4.25,3,5.51,5.33,1.2,2.22.44,3.47-2.11,3.72-1.79.18-3.46-.33-5.07-.99-3.34-1.36-6.53-3.04-9.26-5.4-3.01-2.61-3.08-2.18-1.43-5.89.56.67,1.22.98,2.08.57h-.02c-.3,1.03.52,1.18,1.16,1.47.3.42.72.64,1.23.7.25.19.5.38.75.57.34.48.79.7,1.39.57.05.35.15.59.53.25-.15-.11-.29-.23-.44-.34-.17-.53-.59-.76-1.1-.86-.26-.17-.53-.34-.79-.52-.19-.5-.63-.72-1.09-.91-.3-.36-.59-.73-.89-1.09-.01-.78-.18-1.66,1.02-1.72Z"/>
      <path class="cls-2" d="M391.84,187.29c-2.6,1.12-5.43,1.52-8.15,1.8-3.2.33-6.4,1.03-9.64.86-2.72-.15-5.32.72-8.04.71-2.72,0-5.32-.77-8.04-.76-2.26,0-4.27.41-5.99,1.9-.67.05-1.34.1-2.02.15-.74-.14-1.54.05-2.47-.61,1.97-1.34,4.07-2.36,5.48-4.28.51-.69,1.65-.32,2.51-.32,4.25,0,8.49.04,12.74,0,2.28-.02,4.55-.25,6.82-.49,5.63-.6,11.26-.43,16.79,1.04Z"/>
      <path class="cls-4" d="M331.71,171.87c-1.96.83-3.05-.12-3.75-1.87.41-.96,1.38-.84,2.18-1.03,4.32-1.03,8.67-1.93,13.15-1.8,1.71.05,4.03-.17,4.61,1.6.7,2.11-1.64,3.07-3.09,4.02-4.59,3.01-9.75,4.56-15.1,5.57-.65-.03-1.3-.05-1.95-.08,1.61-.83,2.83-1.96,3.2-3.85.1-.49.47-.93.72-1.39,0,0-.06-.13-.06-.13,2.04-.42,4.06-.89,5.91-1.88,0,0,.14-.12.14-.12l-.11.14c-2-.07-3.98-.04-5.85.81Z"/>
      <path class="cls-5" d="M365.63,239.65c-5.95-.59-11.69-1.99-17.2-4.37-1.86-.81-3.49-2.28-5.7-2.16,0,0,.05.02.05.02-.16-.36-.35-.47-.61-.08-3.69-2.1-6.98-4.79-10.49-7.15-.51-1.05-1.68-1.34-2.44-2.1-1.14-1.13-2.45-2.15-2.64-4.13,1.39-.24,2.23.65,3.18,1.26,7.03,4.49,14.06,8.99,21.63,12.57,3.83,1.81,7.87,3.06,11.76,4.71.89.38,1.89.53,2.46,1.44Z"/>
      <path class="cls-1" d="M258.17,238.51c.36-1.68.24-2.77,1.75-2.7,1.01.05,1.6.3,1.91,1.33.76,2.6,2.14,5.03,2.42,7.76.16,1.59.49,3.53-1.28,4.37-1.58.75-2.87-.54-4-1.56-3.82-3.43-5.54-7.98-6.72-12.8-.27-1.11-.19-1.13,1.36-2.76,1.6,1.73,3.44,3.24,4.57,6.35Z"/>
      <path class="cls-5" d="M246.4,248.18c.64-.74-.06-1.82.85-2.49,1.83.25,2.84,1.21,2.71,3.23-.17,2.63.49,5.15,1.05,7.68.02.11.07.2.1.31.34,1.44.34,2.86-.8,3.93-.66.62-2.38-.52-3.6-2.18-1.32-1.79-1.99-3.86-2.51-5.95-.81-3.24-1.64-6.51-1.44-9.91.04-.74-.09-1.55.89-2.12,2.26,1.93,1.51,4.96,2.75,7.49ZM247.12,250.02c-.07.01-.19.02-.2.04-.03.19-.1.4-.05.57.08.28.26.26.33-.04.04-.17-.05-.38-.08-.57Z"/>
      <path class="cls-5" d="M320.88,233.13c-.75.03-1.55.02-1.6,1.06-.05,1.04-.42,1.82-1.45,2.2-.87-.78-.59-1.83-.55-2.76.06-1.35-.44-2.55-.75-3.81.92-1.01,1.52,1.33,2.55.14-.36-1.28-1.4-2.01-2.43-2.76,1.28-1.27,2.32-.5,3.32.41,2.24,2.03,4.58,3.97,6.69,6.12,3.88,3.95,8.17,7.37,12.78,10.42.54.36,1.11.68,1.41,1.29-2.4.25-3.82-1.64-5.67-2.6-1.37-.71-2.4-2.23-4.25-1.87,0,0,.06,0,.06,0-.09-.36-.31-.58-.67-.67v.02c-.17-.53-.39-.51-.63-.04-.23,0-.45,0-.68.01,0,0,.02,0,.02,0-.24-.59-.81-.75-1.32-.98-.4-1.26-1.56-1.92-2.29-2.92-1.06-1.08-2.12-2.15-3.19-3.23-.44-.45-.91-.52-1.38-.04Z"/>
      <path class="cls-2" d="M252.03,241.39c-.05.49-.05.92-.14,1.34-.19.89-.66,1.68-1.54,1.94-.83.24-1.36-.48-1.88-1.03-1.45-1.53-2.28-3.43-2.84-5.4-.7-2.48-1.73-4.9-1.58-7.56.03-.54.09-1.15.76-1.25.45-.07.8.3.99.7.37.77.72,1.56,1.04,2.36.36.9.56,1.78,1.92.88.47-.31,1.5.35,1.72,1.14.62,2.28,1.39,4.54,1.55,6.88Z"/>
      <path class="cls-1" d="M235.6,223.29c.59-.45,1.14-.96,1.77-1.33.82-.48.8.18.83.71-1.26,3.08-.12,6.16,2.8,7.21,1.09.39,1.65.96,1.69,2.06.06,1.73.1,3.47.11,5.2,0,.67-.18,1.39-.85,1.64-.72.26-1.24-.32-1.59-.87-.8-1.28-1.67-2.56-2.26-3.94-1.46-3.4-2.4-6.95-2.5-10.68Z"/>
      <path class="cls-5" d="M304.88,261.18c-3.14-.81-4.11-3.8-5.9-5.94-.59-.7-.7-1.85-1.94-1.87-.32-1.29-1.12-2.3-1.93-3.32-.87-2.17-.65-4.4-.6-6.83,1.68.31,2.81,1.07,3.19,2.35,1.63,5.56,4.41,10.58,7.18,15.61Z"/>
      <path class="cls-7" d="M349.97,191.96c.67-.05,1.34-.1,2.02-.15,12.69,1.64,25.46,2.3,38.21,3.18-7.18.38-14.35.46-21.53-.14-5.29-.44-10.6-.73-15.9-1.09-.65-.49-1.39-.49-2.14-.36-.23-.07-.46-.15-.69-.22,0-.4.02-.81.03-1.21Z"/>
      <path class="cls-5" d="M328.46,250.65c-3.12-.35-5.15-2.6-7.43-4.37-.96-.74-1.76-1.63-3.12-1.4,0,0,.03.01.03.01-.15-.29.37-1.26-.67-.66-1.5-1.77-2.99-3.55-4.49-5.32,2.96-1.41,2.9-1.35,5,.77,3.25,3.28,6.2,6.86,10,9.57.46.33.67.83.68,1.39Z"/>
      <path class="cls-3" d="M341.88,217.89c3.64,1.1,6.93,3.01,10.37,4.56,2.06.93,4.17,1.77,6.26,2.64,2.79,1.17,5.57,2.34,8.36,3.51.05.29.09.58.14.87-5.64-1.65-11.05-3.93-16.45-6.23-3-1.28-5.95-2.66-8.93-3.99-.51-.38-1.03-.76-1.54-1.15.59-.07,1.19-.14,1.78-.21Z"/>
      <path class="cls-8" d="M350.06,208.82c-.87.01-1.81.26-2.58,0-1.28-.44-2.45-.37-3.32.53-1.3,1.35-3.21.37-4.53,1.42-2.23-.74-4.38-1.62-6.52-3.47,6.06-.76,11.66-1.41,16.95,1.53Z"/>
      <path class="cls-1" d="M348,193.3c-.06.43-.14.92-.58,1.06-1.26.39-1.61,1.03-.56,1.99,1.32,1.21,1.37,2.54.54,4.01-.2-.07-.5-.07-.58-.2-1.73-2.95-4.27-4.97-7.77-6.5,3.26-1.21,6.08-1.45,8.96-.35Z"/>
      <path class="cls-3" d="M331.68,225.9c3.51,2.37,6.8,5.05,10.49,7.15.2.08.4.1.61.08,0,0-.05-.02-.05-.02,1.03,1.62,2.88,2.18,4.3,3.28,1.1.85,2.37,1.48,3.26,2.6-.34.02-.68.04-1.02.06-6.21-3.41-12.18-7.19-17.62-11.75,0-.47.02-.94.03-1.41Z"/>
      <path class="cls-8" d="M340.1,218.11c.51.38,1.02.76,1.54,1.15-2.23.57-4.1,1.93-6.19,2.8-1.56-.88-3.11-1.77-5.26-2.99,2.53-.45,4.4-.71,6.02-1.79,1.47-.98,2.52.88,3.9.84Z"/>
      <path class="cls-7" d="M361.71,210.3c7.04,1.51,14.07,3.02,21.11,4.53-.05.25-.11.5-.16.75-7.09-.78-14.07-2.19-20.96-4.12,0-.39,0-.77,0-1.16Z"/>
      <path class="cls-3" d="M281.92,249.41c2.04,5.31,3.83,10.71,5.08,16.28-2.82-5.15-4.99-10.55-6.26-16.28.39,0,.79,0,1.18,0Z"/>
      <path class="cls-3" d="M379.98,175.52c-6.3.33-12.59.93-18.91.65,0-.38,0-.75,0-1.13,6.31-.27,12.61-.18,18.92-.04.01.17.01.34-.01.51Z"/>
      <path class="cls-8" d="M292.36,229.27c-1.66.79-3.7.07-5.26,1.3-1.78-1.29-.86-3.09-1.09-4.99,2.35,1.03,4.86.93,6.39,3.05,0,.22,0,.43-.04.65Z"/>
      <path class="cls-8" d="M329.93,227.1c-.86.09-1.59.44-2.16,1.09-.75.86-1.74,1.04-2.81,1.05-.87-.24-1.53-.75-2.05-1.74,1.25-.94,2.8-1.38,4.1-2.28,1.63-1.13,2.35.57,2.92,1.88Z"/>
      <path class="cls-7" d="M323.12,197.95c-.63-.04-1.26-.07-1.89-.11-.79-.55-1.67-.73-2.61-.65.03-.5.06-1.01.09-1.51,4.76,1.13,9.52,2.26,14.28,3.39-.05.21-.1.42-.14.63-2.96-.5-5.93-1-8.89-1.5-.28-.08-.56-.17-.84-.25Z"/>
      <path class="cls-3" d="M295.11,250.05c.8,1.01,1.6,2.02,1.93,3.32.51,3.05,2.47,5.6,2.94,8.69-2.32-3.56-4.58-7.12-5.56-11.32.23-.23.46-.46.69-.69Z"/>
      <path class="cls-2" d="M280.71,233.71c-1.6,1.35-3.5.39-5.24.69-1.08-1.24-.49-2.38.33-3.79,1.61,1.12,4.27.31,4.91,3.1Z"/>
      <path class="cls-8" d="M329.13,186.14c-.11,1.11-.45,2.02-1.56,2.61-1.04.55-1.86,1.44-2.42,2.52-.75.07-1.5.2-2.35-.25.84-1.46,2.11-2.6,2.61-4.32.33-1.17,1.91-.51,2.92-.7.27.05.54.1.81.15Z"/>
      <path class="cls-5" d="M312.73,241.01c-1.35,1.39-2.68-.19-4.02-.04,0,0,.06,0,.06,0,.02-.64-.15-1.15-.85-1.33-.6-.76-1.07-1.57-.96-2.85,2.06.41,3.74,1.32,5.09,2.84.22.46.45.92.67,1.38Z"/>
      <path class="cls-8" d="M318.09,203.53c-1.46.08-2.57.65-3.05,2.13-.8-.15-1.54-.11-2.02.68,0,0-.01.06-.01.06.11-1.54-.45-2.92-1.21-4.29,2.51-1,4.38.31,6.29,1.42Z"/>
      <path class="cls-1" d="M328.38,180.14c.01.82-.39,1.45-.97,1.97-.8.71-1.05,1.6-.98,2.63-.71.23-1.3-.03-1.59-.65-.46-.97-1.29-1.59-2.03-2.37.78-.98,1.83-1.35,2.95-1.6.46-.03.92-.07,1.39-.1.41.04.82.09,1.23.13Z"/>
      <path class="cls-8" d="M318.62,197.19c.94-.08,1.82.1,2.61.65-.16,1.56-1.28,2.63-1.99,3.91-1.13.08-2.06-.37-3.12-1.08.92-1.21,1.99-2.16,2.5-3.48Z"/>
      <path class="cls-5" d="M329.13,186.14c-.27-.05-.54-.1-.81-.15,0-.37,0-.73,0-1.1,4.09-.48,8.25.36,12.34-.6-3.73,1.44-7.65,1.47-11.52,1.86Z"/>
      <path class="cls-5" d="M268.87,236.43c-1.03-.08-2.03-.22-3.02-.59-.79-.29-1.64-.31-2.21.55-1.1-1.44-.69-2.79.34-4.36,1.59,1.6,3.68,2.48,4.89,4.4Z"/>
      <path class="cls-7" d="M305.4,246.16c1.56,2.87,3.12,5.75,4.83,8.9-2.42-1.12-4.41-4.15-5.45-7.91.21-.33.42-.66.62-.99Z"/>
      <path class="cls-1" d="M331.68,173.04c-.25.46-.62.9-.72,1.39-.37,1.89-1.6,3.02-3.2,3.85,0,.18-.03.36-.08.53-.2-.01-.4,0-.59.05-.22-.22-.45-.43-.67-.65.66-.98,1.63-1.89,1.91-2.97.49-1.94,1.73-2.25,3.35-2.2Z"/>
      <path class="cls-3" d="M312.73,241.01c-.22-.46-.45-.92-.67-1.38.24-.24.48-.48.71-.72,1.5,1.77,2.99,3.55,4.49,5.32.22.22.44.44.67.66,0,0-.03-.01-.03-.01.26.62.53,1.23.79,1.85-.12.1-.24.2-.37.29-2.62-1.3-3.53-4.19-5.59-6.01Z"/>
      <path class="cls-7" d="M269.48,251.99c.26,3.39,1.4,6.63,1.78,10.01-1.6-3.17-2.42-6.54-2.92-9.99.38,0,.76-.01,1.14-.02Z"/>
      <path class="cls-8" d="M297.91,228.29c-1.14.3-2.27.6-3.41.9-.38-.21-.77-.42-1.15-.63-.54-1.74,1.01-1.79,1.92-2.32.86-.51,1.37.16,1.83.72.33.4.55.88.81,1.33Z"/>
      <path class="cls-8" d="M310.55,211.65c-1.2.06-1.04.94-1.02,1.72-.25.05-.51.1-.76.15,0,0,.02,0,.02,0-.19-.71-.66-1.1-1.36-1.26-.65-.31-1.31-.62-1.98-.94q2.91-1.34,5.1.32Z"/>
      <path class="cls-5" d="M282.72,233.74c1.11,1.53,2.09,3.11,2.72,5.68-2.31-1.81-2.97-3.9-4.19-5.56.49-.04.98-.08,1.47-.12Z"/>
      <path class="cls-5" d="M301.01,219.43c.77,1.73,2.75,2.53,3.36,4.38-.11.11-.23.22-.34.33-1.74-1-3.26-2.23-3.98-4.19.32-.17.64-.34.96-.52Z"/>
      <path class="cls-7" d="M331.71,171.87c1.87-.85,3.85-.88,5.85-.81l-.02-.02c-1.86.98-3.88,1.46-5.91,1.87.03-.35.06-.69.09-1.04Z"/>
      <path class="cls-3" d="M316.66,227.19c1.03.74,2.08,1.48,2.43,2.76-1.03,1.19-1.63-1.14-2.55-.14-1.05-.92-.23-1.76.12-2.62Z"/>
      <path class="cls-5" d="M270.22,236.33c.32.74.95,1.41.4,2.45-1.06-.47-1.57-1.27-1.75-2.34.45-.04.9-.07,1.35-.11Z"/>
      <path class="cls-5" d="M293.35,228.56c.38.21.77.42,1.15.63-.09.46.1,1.14-.53,1.24-.82.13-1.15-.66-1.62-1.16.03-.21.04-.43.04-.65.32-.02.64-.04.95-.06Z"/>
      <path class="cls-1" d="M234.99,218.72c1.02,1.24.52,2.68.54,4.05-.81-1.27-.62-2.67-.54-4.05Z"/>
      <path class="cls-7" d="M326.42,178.22c.22.22.45.43.67.65.02.38.04.77.06,1.15-.46.03-.92.07-1.39.1.09-.68-.07-1.44.66-1.9Z"/>
      <path class="cls-7" d="M307.42,212.28c.7.15,1.17.55,1.36,1.26-.86.41-1.52.1-2.08-.57.24-.23.48-.46.72-.69Z"/>
      <path class="cls-7" d="M327.68,178.81c.05-.17.07-.35.08-.53.65.03,1.3.05,1.95.08-.57.63-1.29.56-2.03.45Z"/>
      <path class="cls-8" d="M307.93,239.64c.69.18.87.7.85,1.33-.59-.25-.64-.84-.85-1.33Z"/>
      <path class="cls-5" d="M342.13,246.16c-.56,0-1.03-.14-1.26-.71.54.02,1,.19,1.26.71Z"/>
      <path class="cls-7" d="M346.1,174.89c-.2.18-.39.36-.59.55-.07-.11-.15-.21-.22-.32.27-.07.54-.14.82-.21,0,0,0-.02,0-.02Z"/>
      <path class="cls-5" d="M282.84,232.07c-.06.2-.19.33-.39.39-.33-.59-.02-.53.39-.39Z"/>
      <path class="cls-7" d="M360.41,211.16c-.32.17-.53,0-.72-.23.24.08.48.15.72.23Z"/>
      <path class="cls-5" d="M329.23,251.23c-.4.03-.66-.14-.76-.54.25.18.51.36.76.54Z"/>
      <path class="cls-5" d="M257.11,249.48l-.24-.34c.11.08.22.16.34.25,0,0-.1.1-.1.1Z"/>
      <path class="cls-5" d="M344.11,247.46c-.24-.18-.48-.37-.72-.55.36.02.59.22.72.55Z"/>
      <path class="cls-5" d="M342.88,246.74c-.37-.04-.61-.25-.76-.58.25.19.5.39.76.58Z"/>
      <path class="cls-7" d="M335.01,178.93c-.19.19-.4.31-.65.1.22-.03.44-.07.65-.1Z"/>
      <path class="cls-5" d="M305.45,261.88c-.19-.23-.38-.46-.57-.69.36.1.54.33.57.69Z"/>
      <path class="cls-4" d="M185.3,227.22c-1.6,2.73-3.43,5.18-6.69,6.1-2.42.68-3.7-.2-3.85-2.67-.09-1.44.51-2.72.78-4.08.7-.76,1.16-1.59.95-2.96-.87.82-1.38,1.48-1.65,2.31-1.23,1.19-2.47,2.37-3.94,3.29-.84.52-1.74.83-2.69,1.01-3.13.58-4.81-.95-4.42-4.06.12-.95.48-1.86.72-2.79.64-.5.71-1.18.62-1.92.07-.13.15-.26.22-.39-.12.08-.25.16-.37.25-.61.2-1.03.64-1.38,1.16-1.91,1.02-3.73,2.22-5.94,2.57-1.08.17-2.14.32-3.21-.08-2.16-.81-2.88-2.47-2.14-4.67.61-1.83,2.25-2.88,3.42-4.55-1.99.49-3.77.91-5.53,1.37-1.19.31-2.35.25-3.53-.07-1.39-.37-2.35-1.18-2.64-2.57-.3-1.46.52-2.56,1.63-3.3,1.33-.88,2.79-1.56,4.14-2.52-2.15-.19-4.2.41-6.31.37-2.29-.04-4.29-.53-5.81-2.34,0-.14-.04-.26-.14-.36-.17-.56-.35-1.11-.52-1.67.71-1.34,1.78-2.3,3.13-2.96.77-.03,1.58,0,2.08-1.1h-3.34c-.79-.08-1.57-.16-2.36-.24-.44-.45-1-.51-1.59-.5-.64-.39-1.31-.74-1.9-1.19-2.02-1.54-1.83-3.52.43-4.78.47-.26.97-.45,1.46-.67.82,0,1.67.06,2.23-1.16h-2.86c-1.82-.31-3.59-.79-5.27-1.57-1.51-.7-2.76-1.75-3.58-3.19-.95-1.67-.21-3.33,1.67-3.71,1.05-.21,2.15-.14,3.23-.2.72.11,1.44.33,2.17-.1-.53-.77-1.31-1-2.16-1.1-1.67-1.01-3.35-2.01-5-3.05-1.5-.95-2.65-2.26-3.56-3.76-1.37-2.28-.81-3.31,2.01-3.89.23,0,.46.02.68.02,9.66-.24,17.37,3.94,24.05,10.53,3.95,3.9,7.45,8.2,11.14,12.34,3.63,4.08,7.56,7.77,12.27,10.62,7.47,4.52,15.26,5.25,23.44,2.29,1.63-.59,3.26-1.19,4.94-1.65,7.21-1.97,12.56,1.84,13.01,9.35.25,4.14-.32,8.23-1.33,12.25-.45-.43-.89-.86-1.34-1.3v-3.95c-.87,1.81-1.38,3.05-2.04,4.21-.66,1.17-1.62,2.16-3.1,1.87-1.3-.26-1.35-1.53-1.6-2.57-.17-.73-.37-1.45-.61-2.39-.56,1.63-1.02,3.02-1.51,4.41-.37,1.02-.84,2-1.61,2.8-.84.88-1.8,1.76-3.09,1.38-1.41-.41-1.41-1.74-1.41-2.96,0-.86,0-1.72,0-2.9-1.18.97-1.27,2.17-1.68,3.18-.72,1.76-1.76,3.23-3.42,4.19-2.62,1.51-4.29.65-4.69-2.4-.04-.32,0-.65,0-.97.8-1.65.87-3.42,1.2-5.63-1.27,1.02-1.59,2.01-1.84,3.05Z"/>
      <path class="cls-4" d="M106.21,196.51c-.3-.64-.82-.64-1.31-.33-1.32.81-2.3,1.9-2.65,3.46-.25.25-.49.5-.74.75-3.45.7-6.89,1.4-10.34,2.09-.61-.07-1.2-.08-1.66.41-3.89.3-7.8.48-11.67.93-8.16.94-16.26.34-24.35-.75-4.21-.57-8.29-1.67-12.13-3.54-1.57-.77-3.02-1.73-4.17-3.07-1.45-1.68-1.32-2.74.51-4,2.64-1.83,5.74-2.53,8.76-3.38,3.45-.96,6.94-1.76,10.54-1.93,5.59,1.69,11.36,2.5,17.16,2.73,5.03.2,10.08.55,15.12.11.86-.08,1.74-.09,2.59.01,1.2.14,2.39.42,2.58,1.95-.84.19-1.67.48-2.52.55-9.36.74-18.71,1.45-28.07,2.16h-8.53c2.41,1.27,11.02,1.38,14.3.59,9.35-.02,18.65-.81,27.93-1.88,1.59-.18,3.28.24,4.76-.72,1.08-.02,2.17-.04,3.25-.06,0,0,.22.19.22.19l.26-.08c1.06.58,2.24.49,3.39.57.06.2.04.39-.04.58-.96.34-1.98.58-2.87,1.04-.57.3-1.31.87-.31,1.61Z"/>
      <path class="cls-4" d="M98.57,178.86c-2.73,1.01-4.15,2.94-4.14,5.88-.44.08-.87.17-1.31.25-1.75,0-3.49,0-5.24,0-.2-.1-.4-.1-.61-.01-5.53-.29-11.07-.5-16.6-.88-7.38-.5-14.7-1.44-21.73-3.92-1.65-.58-3.26-1.24-4.68-2.26-2.39-1.72-2.38-3.17.11-4.69,3.2-1.94,6.79-2.87,10.43-3.53,14.03-2.55,28.11-2.39,42.2-.52-.66.59-1,1.19-.58,2.15.5,1.13.88,2.34.64,3.63h-11.88c-.01.26-.03.51-.04.77,2.06,1.1,4.38.46,6.58.58,1.27.53,2.58.52,3.9.24,2.47.44,4.94.48,7.42.13-.04.29-.08.59-.12.88-1.46,0-2.79.41-4.03,1.15,0,0-.21-.06-.21-.06l-.11.21ZM81.4,175.03c-6.24-.27-12.48-.14-18.73.29,6.27-.08,12.48,1.07,18.75.74.52.04,1.34.19,1.38-.38.08-1.03-.88-.52-1.41-.64Z"/>
      <path class="cls-4" d="M108.73,210.78c-10.69,5.16-21.87,8.83-33.49,11.23-6.12,1.26-12.26,1.67-18.47,1.28-3.72-.23-7.3-1.1-10.68-2.64-1.88-.86-4.09-1.89-4.25-4.12-.17-2.33,2.04-3.45,3.86-4.38,4.06-2.07,8.21-3.97,12.81-4.55,2.28,1.02,4.7,1.29,7.14,1.31,6.81.04,13.63,0,20.44.04,1.04,0,2.18-.33,3.1.53-.64.25-1.28.51-1.93.76-1.03.03-2.1-.05-2.64,1.19.91.66,1.78.17,2.65,0,.47-.11.94-.22,1.4-.33.28.17.45.01.61-.19,1.55-.29,3.13-.48,4.6-1.09.28.15.45,0,.6-.21h.3c.26.02.52.03.78.04.71.01,1.37-.08,1.84-.69l.17.02c3.93-.68,7.59.28,11.16,1.8ZM79.48,213.08c.29.16.48,0,.67-.19.89,0,1.77-.03,2.59-.44.3.16.5,0,.69-.21.89-.68.47-1.09-.34-.98-1.67.24-3.31.67-4.96,1.03-4.36.88-8.72,1.76-13.08,2.65,4.52.39,8.8-.58,13.09-1.54l1.35-.32ZM63.19,215.81c-.08-.06-.17-.16-.25-.16-.21,0-.41.06-.62.09.09.06.17.16.26.16.21,0,.41-.06.61-.09Z"/>
      <path class="cls-8" d="M106.77,233.27c1.31.41,2.26-.33,3.24-1.01,2.83-1.95,5.67-3.9,8.5-5.85,1.67.88,2.55,3.16,4.92,2.81-9.08,9.06-18.88,17.06-31.23,21.37-3.97,1.38-8.03,1.92-12.21,1.53-3.61-.34-4.8-2.42-3.18-5.61,1.39-2.74,3.21-5.17,5.79-6.94,1.19.04,2.35-.05,3.54-.34,5.07-1.24,9.96-2.96,14.81-4.85,1.02-.4,2-1.07,2.86.21-1.84,1.7-4.37,2.53-5.83,4.75,3.02-1.22,5.87-2.7,8.29-4.91-.02-.34-.04-.68-.07-1.02.18-.03.36-.08.54-.15ZM95.1,240.94c.32-.02.66,0,.97-.07.42-.1.94-.35.68-.82-.28-.52-.76-.12-1.07.14-.24.19-.4.5-.59.75-.09.03-.2.05-.28.11-.04.03-.06.19-.04.2.2.07.31-.03.33-.3Z"/>
      <path class="cls-4" d="M113.31,221.89c-8.36,5.27-16.91,10.17-26.27,13.48-4.18,1.47-8.37,2.96-12.88,3.1.05-.58.85-1.09,0-1.88-1.01.93-2.28,1.41-3.63,1.66-.52.1-1.1.03-1.37-.56-.25-.56,0-1.03.34-1.48.72-.98,1.76-1.02,2.85-1.2,1.9-.32,2.26-1.07,1.83-3.08.65-.05,1.31-.11,1.96-.16.5.05.96-.04,1.29-.46.25-.04.5-.08.75-.12.48,0,.91-.12,1.22-.52.91-.44,1.82-.88,2.72-1.32.57-.08,1.14-.16,1.71-.24.36.04.62-.12.8-.42,7.59-3.08,15.23-6.05,22.59-9.68.28-.14.62-.16.94-.24.58,1.35,1.83,1.7,3.08,1.92.89.15,1.65.35,2.06,1.23Z"/>
      <path class="cls-5" d="M136.3,239c1.51-.79,2.91-1.84,4.65-1.92.8.89.15,1.57-.18,2.16-3.19,5.81-6.67,11.46-11.18,16.32-2.1,2.27-4.56,4.31-7.35,5.86-1.68.93-3.42,1.32-5.31,1.16-1.02-.08-1.62-.57-1.63-1.63-.06-4.44.27-8.63,4.63-11.39,3.97-2.51,7.12-6.04,10.2-9.52,1.43-1.62,2.78-2.43,4.86-1.74-.04.62-.09,1.23-.13,1.85-2.05,1.37-5.52,5.93-6.03,8.46,2.54-2.94,5.19-4.94,6.26-8.23.78-.13,1.14-.64,1.21-1.39ZM127.77,249.43c-.35.09-.56.32-.65.66-.22.22-.43.44-.65.66-.32.1-.38.19-.16.25.02,0,.09-.17.14-.27.22-.22.44-.43.66-.65.22-.22.44-.43.66-.65.08-.04.17-.06.23-.12.04-.03.02-.12.03-.18-.09.1-.17.2-.26.3Z"/>
      <path class="cls-8" d="M149.97,259.18c1.17-2.32,2.53-4.54,3.36-7.03.31-.95.84-1.52,1.93-1.02.93.43,1.92.33,2.89.29,1.66-.08,1.86.86,1.44,2.08-2.49,7.37-5.66,14.37-11.56,19.72-1.67,1.51-3.48,2.96-5.99,2.97-1.39,0-2.2-.5-2.62-1.89-.95-3.13-.2-6.13,1.09-8.83,1.15-2.4,2.41-4.87,4.34-6.84,1.64-.33,2.49-1.5,3.2-2.9.92-1.82,1.89-3.6,2.6-5.52.34-.93.96-1.87,2.11-.67-1.38,3.19-3.09,6.26-3.7,9.74-.72.6-1.41,1.21-.6,2.4.9-.75,1.59-1.38,1.5-2.49Z"/>
      <path class="cls-4" d="M102.28,179.54c5-.75,10.01-.95,15.02-.14,1.1.26,2.2.51,3.3.77-.02.89.14,1.72.77,2.41.56.61.63,1.35.5,2.13h-12.27c0,.19,0,.39,0,.58l10.93.9c.26,1.9.95,3.62,2.08,5.17-3.87,1.08-7.81.44-11.73.54-.82-.57-1.75-.49-2.68-.46-.6-.08-1.2-.16-1.8-.24-.41-.42-.93-.51-1.48-.45-2-.79-4.1-1.35-5.81-2.75-1.34-1.11-2.83-2.19-2.61-4.18.21-1.99,1.84-2.79,3.46-3.47.59-.25,1.21-.44,1.81-.66,0,0,.28.04.28.04l.23-.2Z"/>
      <path class="cls-5" d="M166.88,251.32c.13-.51-.05-1.19.47-1.5.7-.42.91.27,1.14.71.57,1.08,1.2,2.02,2.55,2.3.87.18,1.19.87.88,1.77-2.26,6.54-3.78,13.39-8.13,19.05-1.22,1.58-2.64,2.87-4.34,3.88-2.57,1.52-4.32.88-5.18-1.99-.67-2.24-.57-4.45.57-6.62,1.87-3.55,4.24-6.84,5.45-10.72.68-2.17,1.46-4.32,1.96-6.53.37-1.68,1.6-2.25,2.88-2.75.81-.32,1.1.41,1.17,1.12-1.66,3.4-2.46,7.11-3.8,10.63-.46,1.21-.89,2.45-.73,3.78-.54.28-.61.78-.65,1.31-.14.15-.29.3-.41.47-.03.05.05.17.08.25.37-.13.24-.48.32-.73.54-.28.62-.78.65-1.31,2.89-3.91,3.72-8.63,5.13-13.12Z"/>
      <path class="cls-8" d="M143.42,247.46c.58-.86,1.32-1.32,2.43-1.35,2.13-.06,2.53.44,1.64,2.46-2.86,6.48-6.37,12.56-11.12,17.86-1.61,1.8-3.51,3.26-5.8,4.08-2.72.97-4.69-.23-4.71-3.04-.02-2.97.56-5.93,2.8-8.06,4.2-4,7.67-8.54,10.65-13.47.17-.28.31-.57.5-.84.37-.52.71-1.32,1.4-1.18.73.15,1.35.81,1.49,1.58.11.61-.12,1.28-.19,1.92-1.5,2.23-3.2,4.34-3.79,7.06-1.03.35-1.3,1.12-1.18,2.11-.39.05-.58.3-.64.66-.59.26-.69.76-.64,1.33-.09.03-.19.03-.25.08-.04.03-.04.13-.05.2.1-.09.2-.19.31-.28.55-.26.71-.72.68-1.29.39-.05.58-.29.65-.65.84-.36,1.22-1.04,1.38-1.89,1.88-2.18,3.63-4.45,4.44-7.28Z"/>
      <path class="cls-2" d="M106.29,246.26c.81-.51,1.5-1.23,2.47-1.46.57.04,1.09,0,1.24-.7,0,0,.04-.06.04-.06.93.19,1.36-.23,1.4-1.13,0,0,.01-.01.01-.01,1.93.28,3.24-1.93,5.25-1.3-.67.86-2.19,1.08-2,2.6-.29.21-.58.42-.88.63-.2.17-.4.35-.59.52-.07.16-.15.32-.22.48.16-.07.33-.14.49-.21.52-.09.95-.31,1.15-.83.09-.2.1-.41.03-.62,2.84-.92,4.69-3.16,6.76-5.08.4-.37.66-.83.46-1.42h-.01c.5.06.72-.16.67-.66h0c1.31.38,1.94-.65,2.75-1.32,2.09-1.71,3.66-4.02,6.05-5.39-.11.53-.4,1.08-.32,1.58.51,3.1-.89,5.44-2.94,7.5-6.66,6.7-13.56,13.09-22.58,16.6-1.52.59-3.09,1.06-4.71,1.16-2.34.14-3.28-1.03-2.54-3.19.74-2.15,1.63-4.26,3.91-5.3.99.12,1.93.18,2.06-1.18,0,0,0,0,0,0,.95.06,1.84,0,2.04-1.21ZM111.33,246.7c-.21.23-.41.46-.62.69-.54.02-1.01.18-1.28.69-.08.12-.17.23-.25.35.12-.08.23-.17.35-.25.55,0,1.02-.15,1.32-.66.24-.2.47-.4.71-.6.08-.15.16-.29.24-.44-.15.07-.31.15-.46.22Z"/>
      <path class="cls-5" d="M180,252.03c.15-1.74.74-3.33,1.71-5.11,1.02,1.93,1.41,3.94,3.18,5.07.46.29.46.99.35,1.53-1.2,6.21-2.63,12.34-6.36,17.62-.93,1.32-2.08,2.53-3.59,3.27-3.17,1.56-5.35.32-5.72-3.17-.29-2.7.46-5.21,1.5-7.6,1.27-2.91,2.28-5.94,2.8-9,.47-2.78,2.75-3.2,4.38-4.29,1.04-.69,1.02.88,1.06,1.69-1.42,3.31-2.36,8.09-1.81,10.38,1.24-3.67,2.25-6.93,2.5-10.39ZM176.53,263.98c.03-.09.08-.19.08-.28,0-.03-.14-.06-.22-.09-.03.09-.08.19-.08.28,0,.03.14.06.22.09Z"/>
      <path class="cls-4" d="M126.46,203.11c-5.13,1.32-10.27,2.57-15.63,1.9-2.68-.34-5.38-.74-6.96-3.39.07-.6.14-1.2.21-1.8.5-1.23,2.23-1.68,2.12-3.3,1.05.52,1.84-.29,2.72-.57,3.21-1.05,6.51-1.72,9.79-2.44.3.17.53.04.75-.17,2.33.12,4.66.09,6.97-.32,1.85.11,2.21,1.25,1.95,2.82-.9.18-1.86.26-2.28,1.29-.17-.54-.61-.55-1.03-.43-3.01.87-6.04,1.63-9.15,2.07-.38.05-.97.16-1.04.91,4.19-.17,8.17-1.27,12.23-1.74.21,1.5,1.62,2.38,1.97,3.81-.88.45-1.75.91-2.63,1.36Z"/>
      <path class="cls-1" d="M74.19,231.91c.43,2.01.07,2.77-1.83,3.08-1.09.18-2.13.22-2.85,1.2-.33.45-.59.92-.34,1.48.27.6.85.66,1.37.56,1.35-.25,2.62-.73,3.63-1.66.84.79.04,1.3,0,1.88-4.55,1.11-8.99.66-13.32-1.01-.59-.23-1.15-.63-1.64-1.04-1.7-1.4-1.83-2.45-.37-4.11,2.25-2.56,5.02-4.43,8.1-5.85,6.83.06,13.59-.6,20.29-1.92,1.83-.16,3.44-1.03,5.17-1.53.74-.22,1.41-.52,2.02.21-4.3,1.79-8.61,3.59-12.91,5.38-2.12.7-4.26,1.36-6.35,2.14-.41.15-1.47.12-.95,1.17Z"/>
      <path class="cls-4" d="M135.74,210.34c-4.05,2.81-8.37,5.01-13.24,6.08-2.6.57-5.2.53-7.79.29-2.36-.22-3.05-1.86-1.77-3.84,2.09-3.24,5.08-5.33,8.69-6.52,1.65-.55,3.28-1.12,4.85-1.88,1.78-.26,3.38-1.07,5.06-1.65,1.07.62,1.65,1.48,1.39,2.77-1.98,1.06-3.97,2.13-5.95,3.19-.48.12-.99.2-1.24.72-.2.02-.41,0-.59.06-.26.09-.51.23-.76.35.18.34.5.33.77.23.26-.09.49-.31.72-.47.54,0,1.04-.1,1.42-.53,2.37.14,4.04-1.89,6.32-2.03.16,1.43,1.17,2.31,2.11,3.24Z"/>
      <path class="cls-1" d="M166.97,233.05c1.5-1.42,3.75-1,5.34-2.48,1.17,1.51,1.2,2.91.51,4.34-2.25,4.62-4.83,9-9.06,12.16-1.42,1.06-2.99,1.76-4.71,2.11-2.19.45-2.96-.03-3.48-2.27-.64-2.74.28-5.21,1.77-7.39,1.66-2.41,3.58-4.65,5.08-7.18,1.08-1.81,2.19-.28,3.28.07-.49,1.18-.94,2.38-1.49,3.53-.53,1.11-1.77,1.95-1.36,4.21,1.78-2.68,3.39-4.61,4.12-7.09ZM162.06,240.72l.1-.15-.14-.02.05.18Z"/>
      <path class="cls-4" d="M148.81,219.52c.85-.08,1.95-.39,1.63,1.09-.23,1.08-.4,2.09,0,3.17.24.65-.08,1.27-.46,1.81-3.04,4.32-6.72,7.9-11.69,9.97-.69.29-1.45.5-2.19.56-2.31.17-3.48-1.17-2.96-3.42.7-3.01,2.25-5.65,4.16-8,1.62-2,3.65-3.69,5.47-5.53.79-.8,1.62-.99,2.58-.32.2.28.44.47.81.31.21.07.42.14.63.21-.23,1.27-1.21,2.02-2,2.9-.79.88-1.8,1.6-2.14,2.83-.19.24-.38.48-.57.72-.24.21-.51.39-.71.63-.25.31-.67.68-.11,1.03.1.06.54-.28.72-.51.19-.24.27-.57.39-.86.22-.21.45-.43.67-.64,2.26-1.66,4.41-3.43,5.79-5.95Z"/>
      <path class="cls-1" d="M161.15,230.53c-1.88,3.57-4.29,6.75-7.24,9.51-1.84,1.73-3.95,3-6.37,3.78-1.32.43-2.59.63-3.63-.46-1.06-1.11-1.22-2.42-.72-3.91,1.06-3.11,2.56-5.95,4.66-8.49.83-1,1.66-2,2.48-3q1.62-1.98,4.21-.76c-.49,1.21-1.24,2.37-1.02,3.8,1.46-.04,1.47-1.42,2.32-1.85.93.54,1.94.71,3.02.67.82-.03,1.7-.12,2.28.71ZM153.08,232.35c-.1-.14-.18-.39-.3-.41-.36-.06-.57.2-.58.53,0,.14.16.39.28.41.36.06.53-.19.6-.53ZM151.63,233.92l-.1.16.15.02-.06-.18Z"/>
      <path class="cls-2" d="M178.38,237.63c1.49-2.69,3.84-3.5,5.54-5.15.99.98,1.19,1.85.91,3.05-1.23,5.25-3.92,9.61-7.84,13.22-1.03.95-2.3,1.66-3.71,1.95-2.37.48-3.59-.46-3.53-2.88.05-2.3.67-4.48,1.79-6.52.73-1.33,1.35-2.72,2.05-4.07.42-.81.46-2.21,1.73-2.02,1.17.18,2.7.21,3.07,2.41Z"/>
      <path class="cls-2" d="M89.18,209.47c-.91-.86-2.05-.53-3.1-.53-6.81-.03-13.63,0-20.44-.04-2.45-.01-4.87-.29-7.14-1.31,1.7-1.05,3.58-1.4,5.54-1.3,11.88.59,23.49-1.58,35.13-3.37,2.6-.4,2.59-.47,4.23,2.15-1.5,1.29-4.18.79-4.98,3.11-.27.26-.56.52-.85.78,0,0-.17-.02-.17-.02-.21-.52-.51-.96-1.14-.8-.8.2-.79.84-.7,1.49-.26-.01-.52-.02-.78-.03.09-1.28-.69-1.39-1.64-1.15-1.32.32-2.55,1.03-3.96,1.02Z"/>
      <path class="cls-5" d="M190.76,249.52c.88,1.32.21,2.58.64,3.91,1.3-1.8,1.01-3.91,1.61-5.74.37-1.13.58-2.68,2.05-2.31,1.16.29,1.91,1.37,1.68,3.05-.5,3.75-.95,7.49-2.25,11.08-.97,2.69-2.4,5.08-4.21,7.26-.47.57-1.16.96-1.75,1.43-.99.79-2.17,1.31-3.29.58-1.06-.7-.73-2.01-.48-3.01.82-3.25,1.65-6.49,2.13-9.81.08-.53.33-1.08.27-1.59-.34-2.68,1.24-3.9,3.59-4.85ZM190.86,256.68c.08-.19.23-.38.21-.55-.03-.28.23-.92-.32-.73-.3.1-.34.87.11,1.28Z"/>
      <path class="cls-4" d="M114.71,177.62c-3.91-.53-7.25-2.43-10.58-4.37-1.23-.71-2.4-1.51-3.23-2.67-1.04-1.46-.73-2.37.96-2.86.83-.24,1.69-.45,2.54-.48,5.46-.2,10.71.88,16,2.47-.46.97-.82,1.75-1.18,2.52-2.61-.21-5.1-1.41-8.14-1.01,2.08.68,3.82,1.25,5.55,1.82.23.59.62,1.16.67,1.76.18,1.89,1.28,2.26,2.89,1.98.47.56.95,1.13,1.42,1.68-1.01-.12-2.01-.23-3.01-.34-.59-.66-1.34-.55-2.09-.44-.61-.02-1.21-.04-1.82-.05Z"/>
      <path class="cls-2" d="M94.45,191.95c-.19-1.53-1.38-1.8-2.58-1.95-.85-.1-1.73-.09-2.59-.01-5.04.44-10.1.09-15.12-.11-5.79-.23-11.56-1.04-17.16-2.73,3.89-1.07,7.86-1.27,11.87-1.12,1.3.05,2.6.06,3.9.09.82.64,1.74.58,2.68.42,5.38.39,10.77.2,16.16.18.72,0,1.57.12,1.82-.89.24,0,.48,0,.73,0,1.68,2.05,3.41,4.04,6.1,4.83-.18.91-.88,1.14-1.66,1.18-1.38.07-2.76.08-4.14.11Z"/>
      <path class="cls-1" d="M142.05,213.63c.64,2.73-.71,4.39-2.82,5.92-3.29,2.39-6.73,4.35-10.68,5.36-1.71.44-3.67.98-4.86-.59-1.39-1.84.18-3.47,1.22-4.94.88-1.24,1.92-2.38,3.45-2.87,2.93-.94,5.41-2.71,8-4.28.93,0,1.54.47,1.9,1.3-.66.84-1.91,1.13-2.19,2.33-.46.18-.92.35-1.15.85-.75.15-1.28.5-1.27,1.36-.08.03-.17.04-.23.08-.04.03-.04.11-.06.17l.29-.25c.79-.01,1.29-.37,1.41-1.18.53-.03.99-.2,1.31-.65,2.02-.6,3.38-2.62,5.68-2.61Z"/>
      <path class="cls-1" d="M195.84,233.88c-.41,5.55-2.71,10.21-6.71,14.04-.31.3-.66.56-1.03.79-2.43,1.47-4.07.67-4.1-2.17-.05-3.56,1.38-6.79,2.8-9.95.57-1.27,2.19-1.13,2.7-.28,1.62,2.72,1.17-.78,1.88-.53,1.33.05,1.9-.62,1.81-1.92q1.32-1.99,2.53-.63c.05.22.1.45.14.67Z"/>
      <path class="cls-5" d="M103.83,234.59c-.87-1.29-1.85-.61-2.86-.21-4.85,1.89-9.74,3.61-14.81,4.85-1.19.29-2.34.38-3.54.34,1.83-1.72,4.32-1.95,6.52-2.78,9.49-3.62,18.21-8.61,26.63-14.21,2.03-1.35,4.05-2.73,6.71-3.89-.39,1.85-1.18,2.93-2.26,3.79-3.22,2.56-6.5,5.05-9.72,7.6-1.27,1.01-2.47,2.12-3.71,3.19-.19.07-.37.12-.55.15-.21.13-.43.27-.64.4-.59.26-1.17.52-1.76.77Z"/>
      <path class="cls-5" d="M201.2,250.98c1.27-2.47,1.09-4.82,1.63-7,.32-1.28.5-3.21,1.69-3.15,1.74.09,1.04,2.06.99,3.21-.19,4.82-1.23,9.45-3.45,13.78-.66,1.29-1.5,2.38-2.87,3-1.05.48-1.72.08-2-.91-.33-1.16-.27-2.37.01-3.55.61-2.53,1.15-5.07,1.19-7.7.02-1.63.13-1.63,2.34-2.81.68,1.56.05,3.21.47,5.14Z"/>
      <path class="cls-8" d="M94.41,223.21c-.61-.73-1.28-.43-2.02-.21-1.72.51-3.34,1.37-5.17,1.53.1-1.08-.14-1.88-1.45-1.9-.44,0-.8-.22-1.06-.58,4.39-1.23,8.74-2.58,12.94-4.35,4.39-1.85,8.74-3.82,13.1-5.73.38.18.77.36,1.15.54-1.26.85-.98,2.81-2.5,3.47-5,2.41-10,4.82-15,7.22Z"/>
      <path class="cls-1" d="M203.54,229.66c.15.14.44.28.44.43.16,4.9-1.1,9.4-3.99,13.39-.48.67-1.11,1.51-2.13,1.12-.85-.33-1.31-1.15-1.43-2.05-.35-2.76.58-5.35,1.21-7.97.11-.45.49-.67.88-.89q2.87-1.64,4.27-3.54c.12-.17.29-.31.46-.44.07-.05.19-.04.29-.06Z"/>
      <path class="cls-3" d="M94.45,191.95c1.38-.03,2.76-.05,4.14-.11.78-.04,1.48-.26,1.66-1.18,1.38-.05,1.58,1.11,2.06,1.99-1.47.96-3.17.54-4.76.72-9.28,1.07-18.58,1.86-27.93,1.88-1.9-.44-3.93.45-5.77-.59,9.36-.71,18.72-1.42,28.07-2.16.85-.07,1.68-.36,2.52-.55Z"/>
      <path class="cls-5" d="M116.71,241.61c-2.02-.64-3.33,1.57-5.25,1.3.2-.66.7-1.11,1.23-1.46,4.11-2.69,7.38-6.33,10.94-9.63,2.12-1.97,4.08-4.17,6.8-5.41,1.07,1.42-.2,2.08-.96,2.86-1.79,1.83-3.63,3.61-5.44,5.42-.67.67-1.49,1.26-1.47,2.36,0,0,0-.01,0-.01-.36.09-.58.31-.67.66,0,0,.01,0,.01,0-.69-.08-1.19.37-1.75.64-.41.09-.72.29-.89.69l.04-.04c-.23.23-.46.46-.69.69l.04-.04c-.23.23-.46.46-.69.69l.04-.04c-.23.23-.46.46-.7.69l.04-.04c-.23.23-.46.46-.7.69l.05-.02Z"/>
      <path class="cls-1" d="M210.7,225.9c.45.43.89.86,1.34,1.3-.39,3.51-1.95,6.63-3.34,9.81-.21.48-.61.89-.95,1.31-.36.44-.84.76-1.41.56-.55-.2-.82-.72-.87-1.28-.2-2.3.02-4.56.73-6.76.09-.28.4-.71.59-.69,3.11.22,2.62-2.83,3.92-4.24Z"/>
      <path class="cls-3" d="M94.41,223.21c5-2.41,10-4.81,15-7.22.02.47.04.94.07,1.42-.44.45-.87.89-1.31,1.34-.31.08-.65.1-.94.24-7.36,3.63-15,6.6-22.59,9.68-.36-.04-.63.09-.8.42-.57.08-1.14.16-1.71.24-.21-.24-.42-.49-.64-.73,4.3-1.79,8.61-3.59,12.91-5.38Z"/>
      <path class="cls-8" d="M97.57,208.97c.29-.26.57-.52.85-.78,5.29-2.17,10.77-1.37,16.33-.98-.42,2.05-3.36,1.6-3.62,3.69-.05.14-.14.25-.26.34-.65-.47-1.42-.34-2.15-.46-3.57-1.52-7.23-2.48-11.16-1.8Z"/>
      <path class="cls-5" d="M84.71,222.06c.26.36.61.57,1.06.58,1.3.02,1.55.82,1.45,1.9-6.7,1.32-13.46,1.98-20.29,1.92,1.74-1.21,3.82-1.47,5.8-1.81,4.03-.7,8-1.69,11.98-2.59Z"/>
      <path class="cls-5" d="M152.77,249.54c-1.15-1.2-1.77-.26-2.11.67-.7,1.93-1.68,3.71-2.6,5.52-.71,1.4-1.56,2.57-3.2,2.9.09-.41.08-.89.3-1.22,2.09-3.17,3.46-6.67,4.67-10.24.83-2.44.87-2.43,3.88-4.02-.92,2.23.88,4.48-.94,6.39Z"/>
      <path class="cls-3" d="M122.56,237.04c-.02-1.11.8-1.69,1.47-2.36,1.8-1.81,3.64-3.59,5.44-5.42.76-.78,2.03-1.44.96-2.86.47-.47.92-.37,1.26.13.33.47.77.64,1.3.67l.03.03c.12,1.39-.48,2.4-1.65,3.1-2.39,1.37-3.96,3.67-6.05,5.38-.82.67-1.44,1.7-2.75,1.33Z"/>
      <path class="cls-8" d="M108.17,218.74c.44-.45.87-.89,1.31-1.34,1.09-.18,2.03-.7,3.26.2,1.11.81,2.75.92,4.33,1.39-.95,1.51-2.3,2.26-3.75,2.9-.41-.88-1.17-1.07-2.06-1.23-1.25-.22-2.5-.57-3.08-1.92Z"/>
      <path class="cls-8" d="M161.15,230.53c-.57-.82-1.45-.73-2.28-.71-1.07.04-2.08-.13-3.02-.67.24-.6.49-1.2.73-1.8,1.69-.72,3.47-1.09,5.36-1.42.56,1.79.56,3.31-.8,4.6Z"/>
      <path class="cls-2" d="M97.06,174.96c.24-1.29-.14-2.5-.64-3.63-.43-.96-.09-1.56.58-2.15.11,0,.27-.03.31.03,1.6,2.05,2.88,4.36,5.55,5.92-2.32.63-4.06.24-5.81-.18Z"/>
      <path class="cls-3" d="M161.76,264.46c-.16-1.34.27-2.58.73-3.78,1.34-3.52,2.14-7.23,3.8-10.63.05.49.1.99.59,1.28-1.41,4.49-2.24,9.21-5.14,13.12h.01Z"/>
      <path class="cls-5" d="M123.44,229.22c-2.37.35-3.25-1.92-4.92-2.81,1.89-1.76,1.88-1.75,3.79-.39.44.31.94.53,1.4.81q1.68,1-.27,2.39Z"/>
      <path class="cls-5" d="M120.52,186.19c-3.64-.3-7.28-.6-10.93-.9,0-.19,0-.39,0-.58,4.09,0,8.18,0,12.27,0,.72.13,1.23-.28,1.74-.67.21.84-.35,1.45-.64,2.14-.82,0-1.63,0-2.45,0Z"/>
      <path class="cls-2" d="M120.52,186.19c.82,0,1.64,0,2.45,0,.37,1.83,1.39,3.33,2.64,4.73-1.1.59-2.07.42-3.01.44-1.13-1.55-1.82-3.27-2.08-5.17Z"/>
      <path class="cls-8" d="M129.09,201.75c-.35-1.43-1.77-2.31-1.97-3.81.04-.22.09-.43.13-.65.6-.06,1.21-.11,1.81-.17.22.02.45.04.67.05.63,1.44,2.07,2.34,2.55,3.88-1.06.23-2.13.46-3.19.69Z"/>
      <path class="cls-2" d="M123.61,184.03c-.52.39-1.02.8-1.74.67.13-.78.07-1.52-.5-2.13-.63-.69-.79-1.52-.77-2.41.22-.1.45-.2.67-.3,1.58.26,3.15.56,4.24,2.01-.64.73-1.27,1.45-1.9,2.17Z"/>
      <path class="cls-3" d="M180,252.03c-.25,3.46-1.26,6.71-2.5,10.39-.55-2.29.39-7.08,1.81-10.38.23,0,.46,0,.69,0Z"/>
      <path class="cls-8" d="M132.93,205.57c.27-1.29-.31-2.15-1.39-2.77.48-.36.97-.72,1.45-1.08,1.15,0,2.34-.47,3.5.34-.16,1.17-.51,2.25-1.5,3.02-.45.19-.89.38-1.34.57-.24-.03-.49-.05-.73-.08Z"/>
      <path class="cls-8" d="M135.74,210.34c-.94-.92-1.95-1.8-2.11-3.24.03-.21.04-.42.03-.62.65-.07,1.3-.14,1.95-.21.44.26.89.4,1.39.2.19-.03.37-.09.54-.19.1.1.14.22.14.36-.94.28-1.11.94-.74,1.73.63,1.32-.17,1.7-1.2,1.97Z"/>
      <path class="cls-5" d="M142.63,225.09c.34-1.23,1.34-1.95,2.14-2.83.8-.88,1.77-1.63,2-2.9.68.05,1.36.1,2.04.16-1.38,2.52-3.53,4.29-5.8,5.95-.13-.13-.25-.25-.38-.37Z"/>
      <path class="cls-3" d="M133,201.73c-.48.36-.97.72-1.45,1.08-1.68.58-3.28,1.39-5.06,1.65,0-.45-.01-.9-.02-1.35.88-.45,1.75-.91,2.63-1.36,1.06-.23,2.13-.46,3.19-.69.24.22.48.45.72.67Z"/>
      <path class="cls-7" d="M136.06,215.86c.28-1.2,1.53-1.49,2.19-2.33,1.43-.85,2.59-2.33,4.54-2.01-.25.7-.49,1.41-.74,2.11-2.3-.02-3.66,2.01-5.68,2.61-.11-.12-.21-.25-.31-.38Z"/>
      <path class="cls-8" d="M142.8,211.52c-1.95-.32-3.1,1.16-4.54,2.01-.36-.83-.97-1.3-1.9-1.3,1.84-1.86,3.97-2.25,6.36-1.23.09.04.18.15.19.23.01.09-.08.19-.12.29Z"/>
      <path class="cls-3" d="M143.42,247.46c-.81,2.84-2.55,5.1-4.44,7.28-.09-.09-.18-.18-.26-.28.59-2.72,2.29-4.83,3.79-7.06.3.02.6.03.91.05Z"/>
      <path class="cls-5" d="M166.97,233.05c-.73,2.48-2.34,4.41-4.12,7.09-.41-2.25.83-3.09,1.36-4.21.55-1.15,1-2.35,1.49-3.53.42.21.85.43,1.27.64Z"/>
      <path class="cls-1" d="M120.2,176.77c-1.6.28-2.71-.09-2.89-1.98-.06-.6-.44-1.17-.67-1.76.83.1,1.66.19,2.48.29.36,1.15.72,2.3,1.07,3.45Z"/>
      <path class="cls-3" d="M119.13,173.32c-.83-.1-1.66-.19-2.48-.29-1.74-.57-3.47-1.14-5.55-1.82,3.04-.4,5.53.8,8.14,1.01-.03.37-.07.73-.1,1.1Z"/>
      <path class="cls-5" d="M128.38,195.83c.26-1.57-.1-2.71-1.95-2.82.42-.38.93-.46,1.46-.45,2.79.03,3.11.61,1.84,3.3-.23.04-.47.08-.7.11-.21-.05-.43-.09-.64-.14Z"/>
      <path class="cls-5" d="M156.59,227.36c-.24.6-.49,1.2-.73,1.8-.85.43-.86,1.82-2.32,1.85-.22-1.43.53-2.59,1.02-3.8.68.05,1.35.09,2.03.14Z"/>
      <path class="cls-3" d="M121.28,179.86c-.22.1-.45.2-.67.3-1.1-.26-2.2-.51-3.3-.77,0-.4.01-.79.02-1.19.43-.03.86-.06,1.29-.1,1,.11,2.01.23,3.01.34-.11.47-.23.94-.35,1.4Z"/>
      <path class="cls-5" d="M185.3,227.22c.25-1.04.57-2.03,1.84-3.05-.33,2.2-.4,3.98-1.2,5.63-.28-.84.42-1.93-.64-2.58Z"/>
      <path class="cls-3" d="M102.93,177.56c.04-.29.08-.59.12-.88,1.28-.9,2.26-.27,3.59.6-1.48.49-2.6.24-3.71.28Z"/>
      <path class="cls-3" d="M138.9,200.56h3.34c-.5,1.09-1.3,1.06-2.08,1.1-.42-.37-.84-.73-1.26-1.1Z"/>
      <path class="cls-5" d="M149.97,259.18c.09,1.12-.61,1.75-1.5,2.49-.81-1.19-.12-1.8.6-2.4.3-.03.6-.06.9-.1Z"/>
      <path class="cls-3" d="M134.31,192.02h2.86c-.56,1.22-1.41,1.16-2.23,1.16-.21-.39-.42-.78-.63-1.16Z"/>
      <path class="cls-5" d="M174.84,225.91c.28-.83.79-1.49,1.65-2.31.21,1.37-.25,2.2-.95,2.96-.23-.22-.47-.44-.7-.66Z"/>
      <path class="cls-3" d="M95.62,176.55c-1.32.28-2.63.29-3.9-.24,1.3,0,2.63-.33,3.9.24Z"/>
      <path class="cls-8" d="M193.17,233.84c.09,1.3-.48,1.97-1.81,1.92.2-1.02.92-1.55,1.81-1.92Z"/>
      <path class="cls-3" d="M130.38,182.15c.85.1,1.63.33,2.16,1.1-.74.42-1.46.21-2.17.1,0-.4,0-.8,0-1.2Z"/>
      <path class="cls-5" d="M104.25,247.48c-.13,1.36-1.07,1.31-2.06,1.18.5-.72,1.13-1.21,2.06-1.18Z"/>
      <path class="cls-3" d="M136.3,239c-.07.76-.43,1.26-1.21,1.39-.08-.07-.16-.15-.23-.23.04-.62.09-1.23.13-1.85.44.23.88.46,1.32.69Z"/>
      <path class="cls-3" d="M135.61,206.27c-.65.07-1.3.14-1.95.21,0-.28,0-.55,0-.83.45-.19.89-.38,1.34-.57.21.4.41.79.62,1.18Z"/>
      <path class="cls-5" d="M165.13,221.44c.09.74.02,1.42-.62,1.92-.3-.3-.6-.6-.91-.91.35-.52.76-.96,1.38-1.16l.15.15Z"/>
      <path class="cls-5" d="M111.44,242.92c-.04.9-.47,1.32-1.4,1.13.12-.81.6-1.17,1.4-1.13Z"/>
      <path class="cls-5" d="M106.29,246.26c-.2,1.21-1.08,1.27-2.04,1.21.46-.77,1.22-1.05,2.04-1.21Z"/>
      <path class="cls-3" d="M75.44,186.54c-.94.17-1.86.22-2.68-.42.92-.02,1.88-.33,2.68.42Z"/>
      <path class="cls-3" d="M108.2,191.44c.92-.03,1.86-.11,2.68.46-.92.01-1.89.31-2.68-.46Z"/>
      <path class="cls-3" d="M110.88,211.24c.12-.09.21-.2.26-.34.88.23.94.87.77,1.61-.39-.18-.77-.36-1.15-.54.04-.25.08-.49.12-.73Z"/>
      <path class="cls-3" d="M137.54,206.29c-.17.1-.35.16-.54.19.01-.62.02-1.24.03-1.86.17.56.34,1.12.52,1.67Z"/>
      <path class="cls-3" d="M104.08,199.81c-.07.6-.14,1.2-.21,1.8-.41-.66-.41-1.27.21-1.8Z"/>
      <path class="cls-1" d="M118.61,178.11c-.43.03-.86.06-1.29.1,0,0-.23-.09-.23-.09,0,0-.24,0-.24,0-.09-.17-.19-.32-.32-.46.75-.11,1.5-.21,2.09.44Z"/>
      <path class="cls-3" d="M116.53,177.67c.13.14.23.29.32.46-.77.09-1.56.24-2.14-.51.61.02,1.21.04,1.82.05Z"/>
      <path class="cls-5" d="M110,244.1c-.15.69-.67.74-1.24.7.25-.51.7-.69,1.24-.7Z"/>
      <path class="cls-3" d="M89.5,202.9c.46-.5,1.06-.48,1.66-.41-.45.55-1.05.52-1.66.41Z"/>
      <path class="cls-3" d="M134.95,199.82c.58-.01,1.15.05,1.59.5-.61.1-1.18.07-1.59-.5Z"/>
      <path class="cls-7" d="M129.02,195.97c.23-.04.47-.08.7-.11,0,.44,0,.88,0,1.31-.22-.02-.45-.04-.67-.05-.01-.38-.02-.77-.04-1.15Z"/>
      <path class="cls-3" d="M104.92,190.75c.56-.05,1.07.04,1.48.45-.57.09-1.1.06-1.48-.45Z"/>
      <path class="cls-3" d="M94.15,185.84c-.24,0-.49,0-.73,0-.1-.28-.2-.56-.3-.84.44-.08.87-.17,1.31-.25-.09.37-.19.73-.28,1.1Z"/>
      <path class="cls-8" d="M195.84,233.88c-.05-.22-.1-.45-.14-.67.5.12.48.36.14.67Z"/>
      <path class="cls-3" d="M132.99,227.2c.06-.09.13-.26.17-.25.23.05.18.16-.13.28,0,0-.03-.03-.03-.03Z"/>
      <path class="cls-5" d="M146.14,219.15c-.37.17-.61-.02-.81-.31.34-.08.62.01.81.31Z"/>
      <path class="cls-3" d="M101.5,200.39c.25-.25.49-.5.74-.75-.08.41-.33.66-.74.75Z"/>
      <path class="cls-3" d="M119.47,193.33c-.21.21-.45.34-.75.17.25-.06.5-.12.75-.17Z"/>
      <path class="cls-3" d="M109.39,193.86c.08-.19.1-.38.04-.58.55.23.47.42-.04.58Z"/>
      <path class="cls-3" d="M106.04,192.7l-.26.08s-.22-.19-.22-.19c.17,0,.33.04.48.11Z"/>
      <path class="cls-3" d="M87.28,184.98c.2-.09.41-.09.61.01-.21.25-.41.24-.61-.01Z"/>
      <path class="cls-3" d="M102.28,179.54l-.23.2s-.28-.04-.28-.04c.16-.1.33-.15.51-.15Z"/>
      <path class="cls-3" d="M98.57,178.86l.11-.21s.21.06.21.06c-.1.07-.21.12-.32.15Z"/>
      <path class="cls-7" d="M124.52,171.46c-.23,0-.46-.02-.68-.02.24-.25.47-.24.68.02Z"/>
      <path class="cls-6" d="M283.35,221.3c-.1,0-.28.02-.28,0-.05-.23.04-.22.25.05,0,0,.03-.05.03-.05Z"/>
      <path class="cls-6" d="M293.14,216.09c-.11-.08-.22-.15-.33-.23.06,0,.15,0,.18.03.05.07.07.16.1.24,0,0,.04-.05.04-.05Z"/>
      <path class="cls-1" d="M350.63,193.38c.76-.13,1.49-.13,2.14.36-.76.16-1.52.27-2.14-.36Z"/>
      <path class="cls-5" d="M379.98,175.52c.02-.17.03-.34.01-.51,1.9,0,3.81,0,5.71,0-1.89.74-3.8.67-5.72.51Z"/>
      <path class="cls-7" d="M385.28,215.71c0,.06-.01.15-.02.16-.18.02-.38.08-.55.03-.31-.1-.3-.24.03-.27.18-.02.36.05.54.09Z"/>
      <path class="cls-5" d="M367.01,229.47c-.05-.29-.09-.58-.14-.87,1.41.5,2.94.71,4.09,1.79l-.16.19c-1.38.04-2.67-.24-3.79-1.11Z"/>
      <path class="cls-5" d="M370.96,230.39c.21.02.42,0,.62.07.27.09.52.22.78.34-.17.36-.51.36-.8.26-.28-.1-.51-.32-.76-.48,0,0,.16-.19.16-.19Z"/>
      <path class="cls-5" d="M353.11,241.07c-1.08-.01-1.97-.41-2.64-1.28.11-.12.22-.24.33-.35,1.06.07,1.96.44,2.53,1.4l-.22.23Z"/>
      <path class="cls-5" d="M349.27,239.06c.34-.02.68-.04,1.02-.06.17.15.34.3.51.45-.11.11-.22.23-.33.35-.47-.13-.93-.28-1.2-.73Z"/>
      <path class="cls-5" d="M353.34,240.84c.08.15.16.29.25.44-.16-.07-.31-.14-.47-.21,0,0,.22-.23.22-.23Z"/>
      <path class="cls-7" d="M311.32,257.35c-.54-.09-1.01-.27-.95-.95,0-.08.14-.21.21-.21.69,0,.78.52.88,1.04l-.14.12Z"/>
      <path class="cls-7" d="M311.46,257.23c.5.3.64.77.63,1.32l-.04.04c-.52-.25-.67-.72-.73-1.24,0,0,.14-.12.14-.12Z"/>
      <path class="cls-7" d="M312.09,258.55c.09.1.18.21.28.31-.11-.09-.21-.18-.32-.27,0,0,.04-.04.04-.04Z"/>
      <path class="cls-3" d="M320.88,233.13c.48-.48.94-.41,1.38.04,1.06,1.07,2.12,2.15,3.19,3.23-2.5.27-3.43-1.64-4.57-3.27Z"/>
      <path class="cls-3" d="M329.03,240.3c.23,0,.45,0,.68-.01,0,0,.31.07.31.07l.32-.03s-.01-.02-.01-.02c.05.4.29.6.67.67,0,0-.06,0-.06,0,.08.37.16.74.24,1.11-.09.09-.18.18-.27.27-1.04-.31-1.98-.71-1.88-2.06Z"/>
      <path class="cls-3" d="M327.73,239.32c.51.23,1.08.39,1.32.98-.78.13-1.23-.18-1.32-.98Z"/>
      <path class="cls-7" d="M336.24,246.16c-.27-.05-.54-.11-.81-.16.06-.11.12-.22.18-.34l.63.5s0,0,0,0Z"/>
      <path class="cls-7" d="M336.25,246.16c.09.1.18.2.27.3-.06-.02-.15-.02-.18-.06-.05-.07-.06-.16-.08-.24,0,0,0,0,0,0Z"/>
      <path class="cls-3" d="M333.63,244.2c.1.11.19.22.29.33-.07-.02-.18-.01-.22-.06-.05-.07-.05-.18-.07-.28h0Z"/>
      <path class="cls-3" d="M333.63,244.2c-.28.02-.41-.08-.37-.28,0-.01.17-.03.22.02.07.07.1.18.14.27,0,0,0,0,0,0Z"/>
      <path class="cls-3" d="M331.8,242.76c.13.13.39.35.38.36-.31.42-.43.07-.58-.16,0,0,.2-.2.2-.2Z"/>
      <path class="cls-3" d="M331.18,242.08c.21.23.41.45.62.68,0,0-.2.2-.2.2-.23-.2-.46-.4-.69-.61.09-.09.18-.18.27-.27Z"/>
      <path class="cls-7" d="M271.95,263.98c-.08-.03-.22-.06-.22-.09,0-.09.05-.18.08-.28.08.03.22.06.22.09,0,.09-.05.18-.08.28Z"/>
      <path class="cls-8" d="M323.12,197.95c.28.09.56.17.84.25-.34.13-.61,0-.84-.25Z"/>
      <path class="cls-3" d="M320.44,249.56c-1.36-.3-1.83-1.34-2.11-2.54.12-.09.25-.19.37-.29.91.67,1.79,1.35,2,2.57-.09.09-.17.17-.26.26Z"/>
      <path class="cls-5" d="M323.09,252.14c-1.03-.15-1.74-.64-1.9-1.74.03-.2.15-.31.34-.35,1.1.16,1.58.89,1.73,1.91l-.17.17Z"/>
      <path class="cls-5" d="M323.26,251.97c.07.13.14.26.22.39-.13-.07-.26-.15-.39-.22,0,0,.17-.17.17-.17Z"/>
      <path class="cls-3" d="M321.19,250.4c-.25-.28-.5-.56-.75-.84.08-.09.17-.17.26-.26.28.25.56.5.84.76-.19.04-.31.15-.34.35Z"/>
      <path class="cls-7" d="M315.3,206.69c2.36-.16,2.65-.04,5.3,2.04-2.38.3-3.77-1.04-5.3-2.04Z"/>
      <path class="cls-7" d="M322.53,209.56c.3.07.6.14.9.21-.09.12-.17.34-.26.35-.34.03-.59-.15-.67-.51l.04-.05Z"/>
      <path class="cls-7" d="M322.49,209.61c-.42.06-.82.07-1.1-.32-.02-.03.1-.22.17-.24.47-.12.79.06.96.51,0,0-.04.05-.04.05Z"/>
      <path class="cls-6" d="M313.02,206.34c.48-.79,1.22-.83,2.02-.68-.34,1.22-1.26.71-2.02.68Z"/>
      <path class="cls-5" d="M305.59,225.19c.48.31.66.77.66,1.32l-.09.09c-.51-.24-.7-.69-.75-1.22l.19-.2Z"/>
      <path class="cls-5" d="M306.24,226.51c.09.12.19.25.28.37-.12-.09-.25-.19-.37-.28,0,0,.09-.09.09-.09Z"/>
      <path class="cls-5" d="M305.4,225.39c-.23-.2-.46-.41-.7-.61.09-.09.18-.18.26-.27.21.23.41.46.62.69,0,0-.19.19-.19.19Z"/>
      <path class="cls-5" d="M304.37,223.81c.2.23.4.46.59.69-.09.09-.17.18-.26.27-.22-.21-.45-.42-.67-.63.11-.11.22-.22.34-.33Z"/>
      <path class="cls-5" d="M286.57,241.6c-.26-.18-.58-.31-.76-.55-.31-.4-.75-.97,0-1.26.35-.14.71.38.78.83.05.31,0,.63,0,.95,0,0-.03.03-.03.03Z"/>
      <path class="cls-5" d="M286.59,241.57c.1.1.2.2.29.3-.07,0-.16,0-.2-.03-.06-.06-.08-.16-.12-.25,0,0,.03-.03.03-.03Z"/>
      <path class="cls-5" d="M295.4,232.71c-.48-.35-1.32-.81-.66-1.35.68-.56.93.38,1.18.9-.17.15-.35.3-.52.45Z"/>
      <path class="cls-5" d="M295.93,232.26c.41.32.62.75.7,1.25-.14.14-.29.29-.43.43-.26-.41-.52-.82-.79-1.23.17-.15.35-.3.52-.45Z"/>
      <path class="cls-5" d="M297.21,234.23c.5.39.61.89.48,1.49h0c-.54-.16-.76-.59-.88-1.09.13-.13.26-.27.4-.4Z"/>
      <path class="cls-5" d="M297.68,235.71c.11.09.21.19.32.28-.07,0-.16,0-.2-.03-.06-.07-.08-.17-.12-.25,0,0,0,0,0,0Z"/>
      <path class="cls-5" d="M296.62,233.51c.19.24.39.48.58.72-.13.13-.26.26-.39.4-.21-.23-.41-.46-.62-.69.14-.14.29-.29.43-.43Z"/>
      <path class="cls-5" d="M272.15,242.3c-.16-.23-.33-.46-.46-.7-.01-.02.21-.16.32-.25.09.27.18.55.27.82l-.14.13Z"/>
      <polygon class="cls-5" points="271.09 239.93 271.27 239.85 271.25 240.05 271.09 239.93"/>
      <path class="cls-5" d="M272.28,242.17c.08.14.17.28.25.42-.13-.09-.26-.19-.39-.28,0,0,.13-.13.13-.13Z"/>
      <path class="cls-7" d="M308.77,213.52c.25-.05.51-.1.76-.15.3.36.59.72.89,1.09-.16.18-.33.36-.49.54-.64-.29-1.46-.44-1.16-1.48Z"/>
      <path class="cls-7" d="M312.29,215.89c.51.1.93.33,1.1.86l-.1.09c-.59.13-1.05-.09-1.39-.57.13-.13.26-.25.38-.38Z"/>
      <path class="cls-7" d="M310.41,214.46c.45.2.89.41,1.09.91-.12.11-.23.22-.34.33-.51-.07-.92-.28-1.23-.7.16-.18.32-.36.49-.54Z"/>
      <path class="cls-7" d="M313.39,216.75c.15.11.29.23.44.34-.38.34-.48.09-.53-.25,0,0,.1-.09.1-.09Z"/>
      <path class="cls-7" d="M311.5,215.37c.26.17.53.34.79.52-.13.12-.25.25-.38.38-.25-.19-.5-.38-.75-.57.11-.11.23-.22.34-.33Z"/>
      <polygon class="cls-7" points="337.56 171.06 337.67 170.91 337.54 171.03 337.56 171.06"/>
      <path class="cls-2" d="M342.78,233.14c-.21.02-.42,0-.61-.08.26-.39.45-.28.61.08Z"/>
      <path class="cls-6" d="M247.12,250.02c.03.19.12.39.08.57-.07.3-.25.32-.33.04-.05-.17.02-.38.05-.57,0-.02.13-.03.2-.04Z"/>
      <path class="cls-8" d="M330.35,240.32l-.32.03s-.31-.07-.31-.07c.24-.47.45-.5.64.04Z"/>
      <path class="cls-8" d="M331,240.97c-.38-.07-.62-.27-.67-.67.36.09.58.31.67.67Z"/>
      <path class="cls-8" d="M317.93,244.89c-.22-.22-.44-.44-.67-.66,1.03-.59.52.37.67.66Z"/>
      <path class="cls-5" d="M164.98,221.29c.12-.08.25-.16.37-.25-.08.13-.15.26-.22.39,0,0-.15-.14-.15-.14Z"/>
      <path class="cls-5" d="M63.85,194.66c1.84,1.04,3.87.15,5.77.59-3.28.79-11.89.68-14.3-.59h8.53Z"/>
      <path class="cls-7" d="M81.43,176.05c-6.27.33-12.49-.82-18.75-.74,6.24-.42,12.48-.55,18.73-.29,0,.34.02.68.03,1.02Z"/>
      <path class="cls-6" d="M81.43,176.05c0-.34-.02-.68-.03-1.02.53.12,1.49-.38,1.41.64-.05.58-.86.42-1.38.38Z"/>
      <path class="cls-7" d="M78.13,213.4c-4.28.97-8.56,1.93-13.09,1.54,4.36-.88,8.72-1.76,13.08-2.65,0,.37,0,.74,0,1.1Z"/>
      <path class="cls-6" d="M89.18,209.47c1.41.01,2.64-.69,3.96-1.02.94-.23,1.72-.13,1.64,1.15,0,0-.3,0-.3,0-.22,0-.42.07-.6.21-1.47.62-3.05.81-4.6,1.09-.2.06-.41.12-.61.19-.47.11-.94.22-1.4.33,0-.4,0-.79-.01-1.19.64-.25,1.28-.51,1.93-.76Z"/>
      <path class="cls-3" d="M78.13,213.4c0-.37,0-.74,0-1.1,1.65-.36,3.29-.79,4.96-1.03.81-.12,1.23.3.34.98-.23.07-.46.14-.69.21-.82.41-1.7.43-2.59.44-.22.06-.45.13-.67.19l-1.35.32Z"/>
      <path class="cls-3" d="M87.26,210.24c0,.4,0,.79.01,1.19-.87.17-1.74.66-2.65,0,.53-1.24,1.61-1.16,2.64-1.19Z"/>
      <path class="cls-6" d="M95.56,209.64c-.09-.65-.1-1.29.7-1.49.63-.16.93.28,1.14.8-.47.61-1.14.71-1.84.69Z"/>
      <path class="cls-7" d="M63.19,215.81c-.2.03-.41.09-.61.09-.08,0-.17-.11-.26-.16.21-.03.41-.08.62-.09.08,0,.17.1.25.16Z"/>
      <path class="cls-3" d="M88.67,211.1c.2-.06.41-.12.61-.19-.16.2-.34.36-.61.19Z"/>
      <path class="cls-7" d="M79.48,213.08c.22-.06.44-.13.67-.19-.18.2-.38.35-.67.19Z"/>
      <path class="cls-7" d="M82.74,212.45c.23-.07.46-.14.69-.21-.19.2-.39.37-.69.21Z"/>
      <path class="cls-3" d="M93.89,209.82c.17-.14.37-.22.6-.21-.15.21-.32.36-.6.21Z"/>
      <path class="cls-3" d="M103.83,234.59c.59-.26,1.17-.52,1.76-.78.23.21.47.41.71.62-2.43,2.21-5.28,3.69-8.29,4.91,1.46-2.22,3.99-3.06,5.83-4.75Z"/>
      <path class="cls-3" d="M95.09,240.93c.19-.25.35-.56.59-.75.31-.25.79-.65,1.07-.14.26.48-.26.73-.68.82-.31.07-.64.05-.97.07h0Z"/>
      <path class="cls-6" d="M106.3,234.44c-.24-.21-.47-.41-.71-.62.21-.13.43-.27.64-.4.02.34.04.68.07,1.02Z"/>
      <path class="cls-3" d="M95.1,240.94c-.02.27-.13.37-.33.3-.01,0,0-.16.04-.2.07-.06.18-.08.28-.11,0,0,0,0,0,0Z"/>
      <path class="cls-5" d="M81.49,228.6c.21.24.42.49.64.73-.91.44-1.82.88-2.72,1.32-.52-.09-.97-.03-1.22.52-.25.04-.5.08-.75.12-.52-.1-.99-.05-1.29.46-.65.05-1.31.11-1.96.16-.52-1.05.54-1.02.95-1.17,2.09-.78,4.23-1.44,6.35-2.14Z"/>
      <path class="cls-1" d="M76.15,231.75c.3-.52.77-.56,1.29-.46-.33.43-.79.52-1.29.46Z"/>
      <path class="cls-1" d="M78.19,231.17c.25-.55.7-.6,1.22-.52-.31.4-.74.51-1.22.52Z"/>
      <path class="cls-1" d="M83.84,229.08c.16-.33.43-.47.8-.42-.18.31-.44.46-.8.42Z"/>
      <path class="cls-3" d="M135.09,240.39c-1.07,3.29-3.72,5.29-6.26,8.23.51-2.53,3.98-7.09,6.03-8.46.07.08.15.15.23.23Z"/>
      <path class="cls-3" d="M126.45,250.73c-.05.09-.12.27-.14.27-.22-.05-.16-.15.16-.25,0,0-.02-.02-.02-.02Z"/>
      <path class="cls-3" d="M127.11,250.08c-.22.22-.44.43-.66.65,0,0,.02.02.02.02.22-.22.43-.44.65-.66,0,0,0,0,0,0Z"/>
      <path class="cls-3" d="M127.77,249.43c-.22.22-.44.43-.66.65,0,0,0,0,0,0,.09-.34.3-.57.65-.66h0Z"/>
      <path class="cls-3" d="M127.77,249.43c.09-.1.17-.2.26-.3,0,.06,0,.15-.03.18-.06.06-.15.08-.23.12,0,0,0,0,0,0Z"/>
      <path class="cls-3" d="M161.1,265.75c-.08.26.06.6-.32.73-.03-.09-.11-.21-.08-.25.12-.17.27-.32.41-.47,0,0-.01-.01-.01-.01Z"/>
      <path class="cls-3" d="M161.75,264.44c-.03.53-.12,1.03-.65,1.31,0,0,.01.01.01.01.04-.52.12-1.03.65-1.31,0,0-.01-.01-.01-.01Z"/>
      <path class="cls-3" d="M138.98,254.75c-.16.85-.55,1.54-1.38,1.89l-.05-.05c-.12-.99.15-1.76,1.18-2.11.08.09.17.19.26.27Z"/>
      <path class="cls-3" d="M136.27,258.57c-.05-.57.04-1.07.64-1.33,0,0,.04.04.04.04.04.57-.13,1.03-.68,1.29h0Z"/>
      <path class="cls-3" d="M136.27,258.57c-.1.09-.2.19-.31.28.02-.07.01-.16.05-.2.07-.05.17-.06.25-.08h0Z"/>
      <path class="cls-3" d="M137.6,256.64c-.08.36-.27.6-.65.65,0,0-.04-.04-.04-.04.06-.37.25-.61.64-.66,0,0,.05.05.05.05Z"/>
      <path class="cls-3" d="M120.17,238.33c.56-.27,1.06-.72,1.75-.64.2.59-.06,1.05-.46,1.42-2.08,1.93-3.93,4.17-6.76,5.08,0,0,.02.02.02.02-.19-1.52,1.32-1.74,2-2.6,0,0-.05.02-.05.02.23-.23.46-.46.7-.69,0,0-.04.04-.04.04.35-.11.59-.34.7-.69,0,0-.04.04-.04.04.36-.11.59-.34.69-.69,0,0-.04.04-.04.04.36-.11.59-.34.69-.69,0,0-.04.04-.04.04.3-.23.6-.46.89-.69Z"/>
      <path class="cls-5" d="M109.43,248.08c.28-.51.74-.67,1.29-.69,0,0,.13.13.13.13-.3.51-.77.65-1.32.66l-.1-.1Z"/>
      <path class="cls-5" d="M113.24,245.36c.2-.17.4-.35.6-.52.28-.01.55-.02.83-.03-.21.53-.64.74-1.15.83-.09-.09-.18-.19-.27-.27Z"/>
      <path class="cls-3" d="M121.91,237.69c.09-.36.31-.58.67-.66.06.5-.17.72-.67.66Z"/>
      <path class="cls-5" d="M109.52,248.18c-.12.08-.23.17-.35.25.08-.12.17-.23.25-.35,0,0,.1.1.1.1Z"/>
      <path class="cls-5" d="M111.55,246.92c-.24.2-.47.4-.71.6,0,0-.13-.13-.13-.13.21-.23.41-.46.62-.69l.22.22Z"/>
      <path class="cls-5" d="M111.33,246.7c.15-.07.31-.15.46-.22-.08.15-.16.29-.24.44,0,0-.22-.22-.22-.22Z"/>
      <path class="cls-5" d="M113.51,245.64c-.16.07-.33.14-.49.21.07-.16.15-.32.22-.48.09.09.18.18.27.27Z"/>
      <path class="cls-3" d="M114.66,244.81c-.27.01-.55.02-.83.03.29-.21.58-.42.87-.63,0,0-.02-.02-.02-.02.08.21.07.41-.03.62Z"/>
      <path class="cls-3" d="M176.53,263.98c-.08-.03-.22-.06-.22-.09,0-.09.05-.19.08-.28.08.03.22.06.22.09,0,.09-.05.19-.08.28Z"/>
      <path class="cls-7" d="M127.25,197.29c-.04.22-.09.43-.13.65-4.06.47-8.03,1.57-12.23,1.74.07-.76.66-.86,1.04-.91,3.11-.44,6.14-1.2,9.15-2.07.42-.12.85-.11,1.03.43.38.06.76.11,1.14.17Z"/>
      <path class="cls-3" d="M127.25,197.29c-.38-.06-.76-.11-1.14-.17.42-1.03,1.38-1.11,2.28-1.29.21.05.43.09.64.14.01.38.02.77.03,1.15-.6.06-1.21.11-1.81.17Z"/>
      <path class="cls-5" d="M133.66,205.65c0,.27,0,.55,0,.83,0,.21,0,.42-.03.62-2.28.14-3.95,2.17-6.32,2.03-.11-.12-.22-.24-.32-.36,1.98-1.06,3.97-2.13,5.95-3.19.24.03.49.05.73.08Z"/>
      <path class="cls-5" d="M125.89,209.66c-.24.16-.46.38-.73.47-.27.1-.6.11-.77-.23.25-.12.5-.26.76-.35.19-.06.39-.05.59-.06,0,0,.14.17.14.17Z"/>
      <path class="cls-5" d="M127.3,209.13c-.38.43-.88.52-1.42.53,0,0-.14-.17-.14-.17.25-.53.76-.6,1.24-.72.11.12.21.24.32.36Z"/>
      <polygon class="cls-5" points="162.06 240.72 162.02 240.55 162.16 240.57 162.06 240.72"/>
      <path class="cls-5" d="M142.34,226.11c-.13.29-.2.62-.39.86-.18.23-.62.57-.72.51-.55-.35-.14-.72.11-1.03.2-.24.47-.42.71-.63.09.1.19.2.28.3Z"/>
      <path class="cls-5" d="M142.06,225.81c.19-.24.38-.48.57-.72.13.12.25.25.38.37-.22.21-.45.43-.67.64-.09-.1-.19-.2-.28-.29Z"/>
      <path class="cls-5" d="M153.08,232.35c-.06.33-.24.59-.6.53-.12-.02-.29-.27-.28-.41.01-.33.22-.58.58-.53.12.02.2.27.3.41Z"/>
      <polygon class="cls-5" points="151.63 233.92 151.69 234.1 151.53 234.08 151.63 233.92"/>
      <path class="cls-6" d="M190.86,256.68c-.45-.42-.41-1.18-.11-1.28.55-.19.29.45.32.73.02.17-.13.36-.21.55Z"/>
      <path class="cls-7" d="M135.07,216.89c-.13.81-.63,1.17-1.42,1.18h0c-.01-.86.52-1.21,1.27-1.36,0,0,.15.18.15.18Z"/>
      <path class="cls-7" d="M136.38,216.24c-.32.45-.78.62-1.31.65,0,0-.15-.18-.15-.18.22-.5.69-.67,1.15-.85.1.13.2.25.31.37Z"/>
      <path class="cls-7" d="M133.66,218.07l-.29.25c.02-.06.02-.14.06-.17.06-.05.15-.06.23-.08,0,0,0,0,0,0Z"/>
      <path class="cls-2" d="M118.01,240.28c-.1.36-.34.59-.7.69.23-.23.46-.46.7-.69Z"/>
      <path class="cls-2" d="M118.66,239.63c-.11.36-.34.59-.69.69.23-.23.46-.46.69-.69Z"/>
      <path class="cls-2" d="M119.32,238.97c-.11.36-.34.59-.69.69.23-.23.46-.46.69-.69Z"/>
      <path class="cls-2" d="M120.17,238.33c-.3.23-.6.46-.89.69.17-.39.48-.6.89-.69Z"/>
      <path class="cls-2" d="M117.36,240.93c-.23.23-.46.46-.7.69.23-.23.46-.46.7-.69Z"/>
    </g>
  </g>
  <path class="cls-6" d="M241.39,405.22l2.35-.81-2.35.81Z"/>
  <polygon class="cls-5" points="243.79 404.41 241.34 405.09 241.11 404.24 243.42 403.71 243.79 404.41"/>
</svg>