<?xml version="1.0" encoding="UTF-8"?>
<svg id="Sprite_Alien" xmlns="http://www.w3.org/2000/svg" viewBox="0 0 471.47 422.46">
  <defs>
    <style>
      .cls-1 {
        fill: #452c59;
      }

      .cls-1, .cls-2, .cls-3, .cls-4, .cls-5, .cls-6, .cls-7 {
        stroke-width: 0px;
      }

      .cls-2 {
        fill: #4e7da2;
      }

      .cls-3 {
        fill: #27282b;
      }

      .cls-4 {
        fill: #7fc3de;
      }

      .cls-5 {
        fill: #5289b2;
      }

      .cls-6 {
        fill: #16191f;
      }

      .cls-7 {
        fill: #3b5986;
      }
    </style>
  </defs>
  <g id="Wings">
    <g id="W3">
      <path class="cls-6" d="M339.42,224.22c7.86,3.79,15.26,8.38,22.71,12.89,3.31,2,3.16,6.23-.05,8.43-.48.33-1,.63-1.54.82-5.85,1.97-11.46,4.58-17.42,6.27-3.24.92-6.19.62-9.04-1.19-3.06-1.94-6.06-4.01-9.3-5.6-3.7-1.82-6.84-4.52-10.55-6.29-.71-.88-1.61-1.43-2.91-1.72.53,1.06,1.16,1.78,2.02,2.3,3.71,4.2,7.43,8.38,11.11,12.6.84.96,1.68,1.98,2.26,3.11,1.66,3.21.23,6.51-3.31,6.82-5.69.49-11.4,1.23-17.15.73-2.89-.25-4.93-1.93-6.82-3.9-6.71-7.01-13.43-14.02-20.15-21.03-1.45-1.52-2.86-3.09-4.71-4.43-1.2.84-2.39,1.76-3.66,2.53-2.19,1.32-3.63,2.99-4.08,5.69-.58,3.53-2.94,5.63-6.37,6.74-4.24,1.37-8.46,1.59-12.76.49-4.17-1.07-6.77-3.61-7.23-7.98-1.5-14.26-.67-28.24,5.01-41.64,1.01-2.38,2.26-4.62,3.92-6.6,4.36-5.19,9.93-5.25,14.33-.12,1.2,1.4,2.15,3.01,3.22,4.53,1.26-.2,2.03-1.16,2.93-1.86,4.05-3.17,8-6.47,12.11-9.56,2.15-1.62,3.68-3.51,4.44-6.08.33-1.11.81-2.19,1.3-3.25.66-1.41,1.13-2.67-.16-4.09-1-1.1-.89-2.65-.61-4.04.84-4.12,1.85-8.22,3.66-12.03,2.69-5.67,6.85-9.51,13.26-10.88,18.91-4.06,37.79-8.25,56.66-12.5,2.71-.61,4.74.15,5.97,2.36.77,1.39,1.49,1.42,2.75,1.15,14.7-3.13,29.41-6.22,44.11-9.32,15.84-3.34,31.69-6.68,47.53-10.01.68-.14,1.39-.21,2.08-.3,4.65-.59,7.41,2.84,5.7,7.21-.76,1.95-1.81,3.79-2.7,5.69-2.34,4.96-4.87,9.82-7.58,14.6-2.99,5.29-6.95,8.98-13.36,9.48-2.3.18-4.56.91-6.85,1.4.42.84,1.2.4,1.81.55,2.87.74,4.25,2.88,3.61,5.78-.22,1.02-.56,2.03-1.02,2.97-2.74,5.54-5.49,11.08-8.34,16.56-.8,1.54-1.94,2.91-2.99,4.31-2.15,2.88-5.02,4.45-8.62,4.73-1.39.11-2.76.46-4.5.76,2.64,3.3,1.01,6.09-.85,8.8-2.18,3.18-4.42,6.32-6.67,9.45-1.78,2.49-3.94,4.64-6.38,6.48-2.09,1.57-4.38,2.46-7.08,2.68-12.93,1.06-25.87,1.97-38.78,3.23-4.17.41-8.35,1.17-12.58.87-2.63-.02-5.26-.01-7.89-.06-.87-.02-1.54-.47-1.75-1.36-.27-1.14.68-1.25,1.4-1.54.2-.08.37-.25.56-.38,1.14-.08,2.28-.21,3.42-.23,3.33-.05,5.75-1.24,6.34-4.84.4-.46.79-.91,1.19-1.37.66.47,1.06,1.07.99,1.91-.93.94-1.23,2.15-1.65,3.34.95.3,1.69.24,2.39-.23,3.25-.08,6.49-.3,9.73-.55,5.9-.46,11.78-1.12,17.67-1.68,6.92-.65,13.86-1.08,20.8-1.6,2.38-1.1,4.25-2.83,5.96-4.77,3.17-3.6,5.9-7.52,8.52-11.52.48-.73,1.4-1.32,1-2.5-3.5-.3-6.91.89-10.41.77-.66-.26-2.1.03-1.77-1.01.79-2.47.68-5.59,3.89-6.68,5.38-.73,10.76-1.46,16.14-2.2,1.39-.19,2.72-.54,3.72-1.65,2.6-1.78,3.53-4.72,5.19-7.17,2.82-4.17,4.77-8.71,6.98-13.16.5-1,1.26-1.98.93-3.42-2.78-.42-5.39,1.09-8.16.89-.93-.2-2.69-.07-1.97-1.49.82-1.61.81-3.61,2.21-4.92.83-.77,1.12-1.71,1.01-2.8h.03c.75.02,1.51.14,2.07-.54,1.47-.3,2.96-.51,4.4-.91,3.43-.95,7.1-.83,10.4-2.34,2.25-1.01,3.56-2.95,4.86-4.89,3.96-5.94,6.63-12.56,9.81-18.91.46-.91,1.42-1.96.8-2.89-.75-1.12-2.17-.48-3.22-.26-6.5,1.32-12.98,2.74-19.47,4.13-1.07.24-2.14.48-3.21.73-5.24,1.04-10.5,2.04-15.73,3.13-11.74,2.44-23.46,4.91-35.19,7.39-6.49,1.37-12.97,2.78-19.45,4.18q-3.31.49-4.01,3.52c-1.19,2.52-2.44,5.02-3.54,7.58-1.19,2.78-3.14,4.34-6.11,5.13-7.3,1.94-14.46,4.45-21.81,6.12-4.26.97-6.8,3.04-8.01,7.05-.99.09-1.98.18-2.97.28.09-.46.17-.92.28-1.37.79-3.24.78-3.29-2.31-2.53-5.19,1.28-10.41,2.5-15.53,4-2.76.81-5.68,1.16-8.28,2.53-1.97-.27-2.98.64-3.14,2.57-.97,2.24-2.04,4.44-2.89,6.72-.85,2.26-2.18,4.04-4.1,5.51-4.44,3.41-8.82,6.9-13.15,10.44-1.49,1.22-3.32,2.16-4,4.17-.21.6-.07,1.13.29,1.63.15,1.62.26,3.23.46,4.84.15,1.24.04,2.59,1.25,3.45-.04.89-.08,1.78-.11,2.67-.2.21-.41.43-.61.64-.05.51-.1,1.03-.14,1.54-1.31.07-1.93-1.49-3.25-1.39-.21-.59-.23-1.29-.89-1.64-.91-.69-1.8-.72-2.66.1-.68.27-1.39.42-2.13.3-.25-.7-.49-1.4-.74-2.09.24-.09.48-.18.72-.26.53.12,1.02.07,1.45-.28.42-.05.84-.11,1.27-.16.74.48,1.45.72,2.02-.24.65-2.17-.42-4.19-.54-6.29-.14-1.07-.51-2.02-1.37-2.73-.59-3.68-1.77-6.98-5.59-8.55-1.82-1.37-3.46-.8-4.9.59-2.12,2.05-3.44,4.59-4.25,7.36.89.8,1.83.68,2.74.7,2.01,1.12,4.23.38,6.33.72.03,1.15-.29,1.95-1.66,1.93-.89-.02-1.77.06-2.66.1-1.47-.14-2.97.23-4.4-.53-1.08-.57-1.68,0-1.98,1.11-.87,3.22-1.96,6.4-1.87,9.81-.78,2.06-.83,4.21-.75,6.37-.91,6.02-1.02,12.04-.1,18.08.39,2.57,1.71,4.15,4.39,4.73,1.98.42,3.93.43,5.9.38,3.94-.1,7.04-1.5,8.23-5.64.14-.31.27-.63.41-.94,0-.34.02-.68.03-1.01,1.52-2.18,3.39-4,5.62-5.46,8-6.01,15.85-12.23,24.11-17.89,2.19-1.51,4.5-2.89,6.27-4.94.89-.41.63-.91.15-1.47-.35-.4-.64-.84-.96-1.26-.2-.26-.39-.51-.59-.77-.05-.85.37-1.26,1.2-1.3.54.43,1.24.76,1.6,1.31,1.15,1.8,2.22,1.36,3.71.33,3.5-2.4,5.94-5.47,7.39-9.48,1.86-5.13,3.2-10.45,5.51-15.43,1.24-.12,2.11.5,2.83,1.42-.01.59-.18,1.11-.65,1.5-.72.5-1.7.9-.74,2.01-.07,1.76-.92,3.29-1.46,4.9-.52,1.54-.76,2.68.92,3.8,1.49.99.23,1.62-.75,2.05-1.01.45-1.29,1.12-.62,2.07-.11.63.09,1.91-.68,1.67-2.51-.79-2.95,1.04-3.77,2.52-.98,1.77-2.44,3.1-3.96,4.4-.64.55-1.58.87-1.97,1.93,4.48,2.17,8.77,4.25,13.05,6.33-1.11,2.12-3.19,1-4.8,1.44-3.04-2.45-6.72-3.66-10.17-5.31-1.05-.5-1.77-.04-2.55.52-2.85,2.03-5.72,4.03-8.56,6.07-1.67,1.2-1.56,1.25-.11,2.89,1.44,1.63,3.8,1.76,5.18,3.4-.14,1.22-.93,1.5-1.97,1.29-.9-.17-1.78-.42-2.67-.63-.94-.68-1.95-1.28-2.82-2.04-1.34-1.17-2.52-1.28-4.01-.13-2.3,1.79-4.79,3.33-7.13,5.08-2.31,1.73-2.25,1.83-.22,3.93,6.96,7.23,13.89,14.48,20.84,21.72.8.84,1.66,1.61,2.5,2.42.2.38.46.68.91.75.95,1.04,2.22,1.2,3.51,1.22,1.64.03,3.28.09,4.91-.03,3.43-.26,6.9-.19,10.95-1.04-4.49-5.15-8.51-9.94-12.91-14.42-.22-.24-.44-.49-.66-.73-1.56-3.62-1.56-7.42-1.38-11.25.24.11.47.22.71.33.24.17.48.34.72.52,1.36.64,2.78,1.18,4.07,1.94,4.23,2.49,8.36,5.15,12.62,7.58,3.73,2.13,7.23,4.73,11.39,6.05,1.09,1.09,2.39.61,3.59.37,1.36-.27,2.7-.69,4-1.17,4.93-1.83,10.01-3.29,15.14-6.28-6.94-3.98-13.45-7.7-19.96-11.43-.27-.47-.53-.4-.79,0-.17.03-.34.06-.51.07-.06-.21-.1-.43-.12-.65.07-1.04-.83-1.63-1.15-2.48-.39-1.06-.48-2.11,1.04-2.39ZM293.08,170.13c1.18.24,2.31,0,3.45-.31,4.97-1.29,9.97-2.46,14.92-3.84,14.05-3.93,28.31-7.07,42.28-11.27,1.12-.34,2.49-.47,2.98-1.61,1.36-3.19,3.48-6.09,3.85-9.67.56-.78,1.02-1.6,1.07-2.6.5-1.01,1.25-1.97.79-3.28-1.22-.27-2.36.16-3.44.39-17.87,3.92-35.73,7.91-53.59,11.86-3.92.87-7.22,2.7-9.5,6.05-2.82,4.14-4.08,8.89-4.67,13.78-.19,1.56,1.01,1.13,1.87.5Z"/>
      <path class="cls-6" d="M25.77,154.65c-.56-.17-1.11-.44-1.68-.48-5.8-.37-9.68-3.61-12.62-8.31-4.16-6.64-7.65-13.64-10.82-20.79-.53-1.19-.77-2.44-.6-3.75.29-2.18,1.64-3.58,3.83-3.94,1.53-.25,3.05-.02,4.53.29,18.36,3.82,36.72,7.67,55.07,11.54,12.08,2.55,24.15,5.12,36.22,7.7,1.19.25,2.02.47,2.73-1.11,1.1-2.46,3.41-2.99,5.93-2.44,6.26,1.36,12.52,2.72,18.77,4.12,12.28,2.74,24.52,5.62,36.83,8.2,8.12,1.71,13.32,6.3,15.57,14.27.85,3.03,1.84,6.02,2.31,9.15.18,1.21.36,2.54-.41,3.37-1.52,1.65-.73,3.03-.22,4.74,1.35,4.55,3.91,8,7.81,10.77,4.46,3.17,8.62,6.76,13.08,10.29.83-1.47,1.49-2.92,2.39-4.21,4.04-5.84,9.85-6.26,14.74-1.16,3.35,3.49,4.97,7.91,6.33,12.35,3.63,11.78,4.34,23.87,2.99,36.08-.52,4.66-3.07,7.12-7.76,8.27-4,.98-7.92.65-11.78-.38-3.77-1.01-6.45-3.42-7.16-7.38-.75-4.17-4.49-5.35-7.17-7.58-.83-.69-1.41.48-1.93,1.01-3.6,3.68-7.18,7.37-10.74,11.08-4.45,4.64-8.93,9.25-13.29,13.98-1.99,2.16-4.44,2.92-7.19,3.09-5.16.32-10.29-.13-15.41-.66-4.16-.43-5.89-4.29-3.48-7.72,1.53-2.19,3.39-4.18,5.27-6.1,2.11-2.15,3.12-5.2,5.81-6.84,1.03-.83,1.93-1.76,2.73-3.43-1.93.51-3.05,1.41-4.15,2.34-5.49,2.49-10.46,5.89-15.45,9.19-4.5,2.98-8.9,3.53-13.85,1.57-4.64-1.84-9.36-3.47-14.05-5.2-.54-.2-1.07-.46-1.58-.74-3.89-2.22-4.13-6.63-.32-8.98,4.75-2.93,9.65-5.62,14.51-8.36,2.62-1.48,5.31-2.86,7.96-4.28.11,2.15.25,4.32-2.09,5.55-5.33,3.1-10.68,6.17-15.99,9.31-1.03.61-2.46.86-2.86,2.56,6.02,3.1,12.44,5.12,18.9,7.03.93.28,2.09.47,2.91-.52,2.34-.08,4.12-1.5,6-2.6,7.33-4.28,14.42-8.97,21.93-12.94l.66-.46c.25-.1.49-.2.74-.3,0,1.47-.04,2.94.03,4.4.06,1.19-.43,2.53.8,3.45-.02.43-.05.86-.07,1.3-.25.66-.5,1.32-.75,1.97-.48.2-1.1.12-1.38.71-4.38,4.53-8.72,9.08-12.95,14.84,6.06.21,11.22,1.1,16.45.52.95-.11,2.13-.09,2.81-1.11.63-.1.99-.58,1.36-1.01,4.57-5.44,9.72-10.32,14.72-15.36,2.87-2.89,5.7-5.81,8.48-8.78,1.57-1.67,1.5-1.79-.33-3.12-2.07-1.51-4.13-3.01-6.22-4.5q-2.86-2.04-6.09-.25c-.96-.41-1.38-1.18-1.45-2.18.45-.93,2.59-1.52.57-2.95-3.04-2.14-6.05-4.33-9.1-6.46-.76-.53-1.57-.95-2.59-.47-3.65,1.71-7.56,2.96-10.63,5.74-.24.02-.48.04-.72.05-.19.01-.39.03-.58.04-.06-1.39-1.22-1.7-2.18-2.2,3.8-2.73,8.37-4.02,12.54-6.56-3.11-2.48-6.08-4.75-7.65-8.26-1.47-2.38-1.5-5.33-3.02-7.7-1.13-3.29-2.27-6.59-3.4-9.88-.03-1.66.73-2.83,2.24-3.53,1.46,4.04,2.87,8.09,4.38,12.1,1.14,3.05,2.2,6.15,4.02,8.88,1.96,2.95,4.5,5.26,7.81,6.65.39.54.99.6,1.58.66-.25.93.18,1.34,1.06,1.43.4.91,1.26,1.35,2.01,1.89,4.56,3.26,9.17,6.44,13.67,9.78,4.95,3.68,10.14,7.07,14.66,11.31-.08,1.07,0,2.1,1.06,2.69,1.48.81,2.68,2.19,4.52,2.3.07,3.94,1.53,5.91,5.28,7.06,3.2.98,6.43.95,9.65.12,2.66-.68,3.89-1.82,3.99-4.55.2-5.56,1.13-11.14,0-16.71.16-2.64-.06-5.24-.79-7.79-.55-3.22-.8-6.49-1.92-9.6-.29-.8-.5-1.51-1.47-1.63-.22-1.37.56-2.9-.63-4.12-1.14-1.87-1.99-3.92-3.58-5.5-1.38-1.37-2.87-2.36-4.93-1.48-.93-.02-1.36.67-1.84,1.29-1.95,1.44-2.45,3.85-3.8,5.69-1.21,1.2-.46,2.73-.68,4.09-1.22,1.38-.63,3.34-1.57,4.81-1.22,1.89-.01,2.38,1.56,2.63.47,1.75-1.54,1.59-2.02,2.61l-.19,1.33c-.08.06-.24.15-.23.18.05.16.15.31.23.47.09.22.19.44.28.66-.15.25-.29.5-.44.76-1.3-.16-.8,1.86-2.04,1.78-.91-.9-.01-2.34-1.08-3.11-.47-1.16-1.61-1.75-2.3-2.72.09-.67.18-1.35.27-2.02.85.34,1.8.86,1.97-.68.25-2.35.94-4.65.82-7.05,1.06-1.47.53-2.47-.8-3.5-5.25-4.09-10.39-8.33-15.66-12.39-2.51-1.93-4.18-4.32-5.2-7.27-.6-1.75-1.03-3.59-2.16-5.13-.09-1.94-1.11-2.86-3.04-2.8-5.82-1.62-11.63-3.27-17.46-4.87-2.36-.65-4.73-1.22-7.11-1.8-2.61-.64-2.72-.52-2.21,2.17.02.11.03.23.05.35-1.04-.04-2.08-.08-3.13-.12-.88-1.94-1.11-4.22-3.89-4.84-4.64-1.04-9.22-2.36-13.81-3.62-3.92-1.07-7.81-2.26-11.73-3.33-2.4-.65-4.07-1.96-5.09-4.31-1.24-2.88-2.76-5.64-4.15-8.45-.33-1.45-.49-3.04-2.47-3.22-18.93-4.03-37.85-8.12-56.8-12.03-5.12-1.06-10.19-2.47-15.44-2.89-.71,0-1.43,0-2.14,0-.93-1.07-2.32-1.05-3.53-1.36-2.37-.6-4.8-1-7.19-1.5-3.54-.74-7.06-1.59-10.62-2.2-2.34-.4-2.79.13-1.81,2.09,3.5,6.99,6.55,14.23,10.9,20.77,1.18,1.77,2.46,3.42,4.49,4.29,6.2,1.72,12.6,2.51,18.87,3.91.73,1.94.21,4.06,1.18,6.03,1.2,2.46.78,2.84-2.32,3.09-1.94-.33-3.88-.68-5.82-1-2.25-.38-2.67-.03-1.77,1.95,1.72,3.8,3.55,7.55,5.48,11.24,1.61,3.06,2.94,6.31,5.45,8.83,1.4,2.53,3.93,3.02,6.44,3.42,5.12.82,10.25,1.53,15.37,2.29,1.14,2.39,1.9,4.88,2.06,7.54-.47-.03-.93-.06-1.4-.1-1.12-.98-2.44-.5-3.69-.47-1.89.2-3.79-.58-6.11-.01,3.4,4.64,6.19,9.28,9.85,13.31,1.65,2.43,3.74,4.32,6.52,5.38,3.35.28,6.71.53,10.06.83,6.96.62,13.91,1.36,20.87,1.86,5.57.4,11.11,1.38,16.73.96.38.11.76.22,1.14.33.27.29.61.37.93.17.21-.14.11-.36-.17-.47-.5-1.17-1-2.34-1.49-3.51.15-.68.36-1.31,1.02-1.68.48.68.85,1.46,1.61,1.91.75,2.54,1.8,4.64,5.1,4.25.97-.12,2,.33,3,.53.6.71,1.45.56,2.22.65.62.07,1.1.33,1.15,1.02.04.63-.3,1.08-.8,1.41-.61.39-1.31.34-1.99.34-1.83.01-3.65.01-5.48.02-5.04.15-10-.68-14.99-1.11-6.74-.58-13.48-1.17-20.23-1.72-5.93-.49-11.87-.94-17.8-1.39-1.67-.13-3.16-.76-4.56-1.64-3-1.89-5.57-4.25-7.63-7.13-2.51-3.51-4.99-7.05-7.4-10.63-2.27-3.36-2.27-3.97-.66-7.8-1.13-.25-2.24-.67-3.37-.73-5.16-.29-8.68-3.12-11.31-7.24-4.09-6.41-7.06-13.4-10.19-20.29-1.47-3.23-.47-5.05,2.99-7.04,1.81-.07,3.57,1.02,5.43.36-2.83-.59-5.47-1.95-8.43-1.82ZM107.61,140.83v.04c-.12,1.79,1.09,3.08,1.74,4.58.41,5.29,2.99,8.57,7.63,9.8,15.63,4.15,31.26,8.33,46.9,12.46,3.93,1.04,7.83,2.26,11.92,2.63,1.48.91,2.28.61,1.9-1.22-.74-3.54-1.52-7.09-2.97-10.4-1.87-4.26-4.89-7.27-9.66-8.32-7.5-1.65-14.98-3.45-22.46-5.19-11.34-2.64-22.72-5.13-34.15-7.38-.64-.13-1.46-.7-1.94-.02-.52.75-.08,1.55.53,2.18,0,.4.08.76.56.84Z"/>
      <path class="cls-3" d="M339.42,224.22c-1.52.28-1.44,1.33-1.04,2.39.31.85,1.22,1.44,1.15,2.48-.84.19-1.39-.48-2.1-.68-.99-1.68-3.02-1.95-4.32-3.21l-.05-.19-.19-.03c-.95-.35-1.86-.76-2.53-1.57.34-1.07-.79-2.51.82-3.26,2.34-.12,4.59-1.11,6.98-.69-.19.13-.36.3-.56.38-.72.3-1.67.4-1.4,1.54.21.89.88,1.35,1.75,1.36,2.63.05,5.26.05,7.89.06-1.39.59-2.87.53-4.33.65-.75.06-1.63-.19-2.07.75Z"/>
      <path class="cls-3" d="M127.43,229.78c2.34-1.23,2.2-3.39,2.09-5.55-.29-1.15-1.26-.67-1.95-.77-1.23-.17-2.48-.17-3.65-.64,1.83,0,3.65,0,5.48-.02.68,0,1.39.05,1.99-.34.5-.32.85-.78.8-1.41-.05-.69-.53-.95-1.15-1.02-.78-.09-1.63.06-2.22-.65,2.83-.33,5.56.37,8.32.77-1.08,1.73-2.15,3.47-3.74,4.81-.62.52-1.14,1.14-.93,2.05-.26.27-.52.53-.79.8-1,.39-1.06,1.86-2.29,1.98-.66-.01-1.31-.02-1.97-.03Z"/>
      <path class="cls-5" d="M25.77,154.65c2.95-.13,5.6,1.23,8.43,1.82-1.86.66-3.62-.43-5.43-.36-.72-1.05-2.07-.81-2.99-1.46Z"/>
      <path class="cls-4" d="M152.29,241.04c1.1-.93,2.22-1.82,4.15-2.34-.81,1.67-1.71,2.6-2.73,3.43-.23-.68-.68-1.07-1.42-1.09Z"/>
      <path class="cls-2" d="M313.33,240.14c-.85-.53-1.48-1.24-2.02-2.3,1.3.29,2.2.83,2.91,1.72-.3.19-.6.39-.89.59Z"/>
      <path class="cls-5" d="M449.13,148.8c-3.3,1.51-6.97,1.39-10.4,2.34-1.44.4-2.93.61-4.4.91-.77-.12-1.49-.06-2.07.54,0,0-.03,0-.03,0-.46.04-.92.07-1.38.11-2.11.3-4.25.45-6.21,1.42-1.29-.17-2.52.1-3.79.32-5.82,1-11.57,2.44-17.47,3.02-.39-.73-1.47-1.04-.82-2.33,1.78-3.51,3.39-7.12,5.01-10.71.59-1.31,1.63-1.95,2.92-2.23,2.49-.55,4.99-1.06,7.49-1.53,5.7-1.07,11.31-2.48,16.89-4.07,1.24-.35,2.92-.31,2.97-2.29h-.02c1.91.13,2.18-1.52,2.75-2.7.83-1.73,2-2.63,3.95-2.97,3.89-.69,7.71-1.72,11.58-2.54.98-.21,2.05-.48,3.22.26-1.88,5.5-4.41,10.72-7.21,15.82-1.17,2.13-2.4,4.23-2.99,6.62Z"/>
      <path class="cls-2" d="M292.87,176.26c.16-1.94,1.17-2.84,3.14-2.57.25,2.98.26,3,2.98,2.34,2.82-.68,5.62-1.49,8.46-2.08,2.89-.61,5.61-2.03,8.81-2.11.12,1.57-.41,2.77-.94,3.87-2.2,4.52-3.75,9.29-5.27,14.04-1.95,6.06-4.67,11.39-10.43,14.65-.09.05-.13.19-.2.29-1.19-.55-2.02-1.55-2.94-2.41-5.75-5.41-3.99-5.25-10.59-.57-4.33,3.08-8.45,6.47-13.02,9.21-.05-1.69.03-3.38-.65-5.01-.82-1.98-.76-2-3.22-1.17-.35-.5-.5-1.03-.29-1.63,2.32.5,4.04-.73,5.71-2.02,4.89-3.77,9.74-7.59,14.63-11.35,1.05-.8,1.9-1.7,2.4-2.93,1.05-2.59,2.15-5.16,3.18-7.75.84-2.11.81-2.12-1.77-2.79Z"/>
      <path class="cls-5" d="M361.63,140.84c-.04.99-.51,1.82-1.07,2.6-1.52.95-2.59,2.3-3.62,3.74-1.87,2.6-4.08,4.56-7.43,5.36-7.92,1.89-15.78,4.05-23.63,6.2-10.44,2.86-20.77,6.13-31.32,8.61.59-8.46,4.23-12.95,12.22-14.74,15.65-3.52,31.31-7.02,47-10.36,2.58-.55,5.1-1.73,7.85-1.4ZM305.16,155.41c-1.77.09-3.33,1.82-3.17,3.51.16,1.73,1.57,2.9,3.39,2.82,1.91-.08,3.28-1.6,3.13-3.46-.14-1.74-1.56-2.95-3.34-2.87ZM351.27,150.46c1.58.08,2.93-1.11,3.05-2.68.15-1.89-1.23-3.51-3.01-3.54-1.65-.03-2.99,1.12-3.11,2.65-.14,1.78,1.31,3.47,3.06,3.57Z"/>
      <path class="cls-7" d="M338.14,219.47c-2.39-.42-4.65.57-6.98.69-3.1.26-5.92-.52-8.54-2.2-.86-.55-1.86-.9-2.8-1.34-4.29-2.08-8.57-4.16-13.05-6.33.39-1.07,1.33-1.38,1.97-1.93,1.52-1.3,2.98-2.63,3.96-4.4.82-1.48,1.25-3.32,3.77-2.52.76.24.56-1.04.68-1.67,1.94,1.06,3.89,2.12,5.82,3.19,1.15.64,2.33,1.04,3.68.85,2.66-.37,5.33-.69,7.99-1.02,8.58-1.06,17.16-2.09,25.73-3.17,8.11-1.03,16.21-2.13,24.32-3.16,4.39-.56,8.79-1.06,13.19-1.58.08,1.07-1.09,1.2-1.46,1.94-1.12.27-2.49-.53-3.38.77-3.85,1.23-7.9,1.38-11.86,1.87-3.75.46-6.9,1.36-8.46,5.17-.79-.07-1.58-.15-2.37-.22.69-1.1,1.85-1.97,1.81-3.48-3.26-.18-6.26.74-9.34.95-3.62.03-7.16.86-10.74,1.23-6.95.71-13.87,1.63-20.78,2.63-3.25.47-6.58,1.41-9.86-.55-3.97-2.38-4.05-2.25-5.8,2.18-1.33,1.49-.32,2.26.94,2.86,2.82,1.35,5.79,2.44,8.47,4.02,3.14,1.84,6.4,1.75,9.77,1.38,4.36-.47,8.67-1.38,13.08-1.23-.59,3.6-3.01,4.8-6.34,4.84-1.14.02-2.28.15-3.42.23Z"/>
      <path class="cls-7" d="M403.38,157.46c5.89-.58,11.64-2.02,17.47-3.02,1.27-.22,2.5-.49,3.79-.32,0,.6,0,1.2,0,1.8-.66.23-1.3.56-1.98.66-9.44,1.46-18.79,3.36-28.2,4.98-18.82,3.24-37.53,7.07-56.33,10.39-4.46.79-8.93,1.5-13.4,2.25.25-.88.51-1.76.76-2.64.8-.31,1.97.39,2.57-.86-1.03-.68-1.77.33-2.61.18-.21-.02-.42-.05-.63-.09,1.22-4.01,3.76-6.08,8.02-7.05,7.36-1.67,14.51-4.18,21.81-6.12,2.97-.79,4.92-2.36,6.11-5.13,1.1-2.56,2.35-5.05,3.54-7.58.9-.03,1.8-.05,2.7-.08,0,0,0,0,0,0-1.21,2.78-2.51,5.52-3.6,8.34-1.35,3.52-3.05,6.56-7.26,7.16-.41.06-.77.46-1.15.71-.35.02-.73-.03-1.05.08-7.28,2.48-14.43,5.34-21.96,7.04-1.17.26-2.11.93-2.01,2.42.97.41,1.88.28,2.8.06,11.1-2.62,22.41-4.1,33.61-6.16,2.43-.45,5.21-.3,6.97-2.66.46.69,1.21.47,1.85.59.7-.04,1.41-.09,2.11-.13,4.23-.84,8.45-1.68,12.68-2.52,4.47-.76,8.93-1.53,13.4-2.29Z"/>
      <path class="cls-4" d="M430.97,161.8c2.76.2,5.38-1.31,8.16-.89.33,1.43-.43,2.41-.93,3.42-2.21,4.44-4.16,8.99-6.98,13.16-1.66,2.45-2.59,5.39-5.19,7.17.57-1.47,1.64-2.76,1.6-4.45,2.28-3.19,3.75-6.8,5.29-10.37.71-1.66,1.75-3.27,1.52-5.23.07-.13.15-.25.22-.38-.13.07-.25.15-.38.22-6.49.66-12.78,2.48-19.21,3.46-4.51.68-7.89,2.37-9.84,6.57-.58,1.25-1.55,1.81-2.98,2.06-4.7.81-9.35,1.84-14.04,2.73-.83.16-1.66.24-2.07,1.06-1.64,3.26-3.64,6.36-4.68,9.86,1.28.67,2.63-.2,3.54.87-1.4.12-2.82.12-4.19.37-4.6.85-9.24,1.27-13.88,1.82-.03-1.47.92-2.55,1.56-3.73.69-1.29,1.76-2.39,1.95-3.94.92-.9,1.47-1.97,1.65-3.31-.49-.05-.84-.17-1.16-.12-4.07.7-8.15,1.4-12.21,2.15-1.72.32-3.34.9-4.48,2.36-.03-.6-.05-1.19-.08-1.79.65-1.49,2.02-1.82,3.41-2.08,13.84-2.6,27.67-5.25,41.54-7.73,2.74-.49,4.8-1.43,5.72-4.17,1.54-3.79,4.65-4.96,8.44-5.48,3.54-.49,7.1-1.06,10.5-2.3,1.14-.11,2.35.17,3.39-.59,1.28-.21,2.66.14,3.8-.73Z"/>
      <path class="cls-7" d="M338.17,248.19c-4.17-1.32-7.66-3.92-11.39-6.05-4.26-2.43-8.39-5.09-12.62-7.58-1.29-.76-2.71-1.3-4.07-1.94-.12-.33-.35-.52-.72-.52-.24-.11-.47-.22-.71-.32-3.07-2.39-6.39-4.38-9.85-6.14-1.38-1.65-3.74-1.77-5.18-3.4-1.45-1.64-1.56-1.69.11-2.89,2.83-2.05,5.71-4.05,8.56-6.07.78-.55,1.5-1.02,2.55-.52,3.45,1.66,7.13,2.86,10.16,5.31-.04.66-.08,1.33-.12,2-.9-.06-1.79-.13-2.69-.19-.69-.41-1.36-.86-2.07-1.21-3.82-1.92-3.82-1.83-6.7,1.2-1.31,1.38-.89,2.06.47,2.87,1.58.94,3.1,1.97,4.65,2.96.16.17.29.39.48.49,10.72,5.69,20.36,13.16,31.14,18.74.73.38,1.49.74,1.45,1.76-1.16.5-2.12,1.46-3.47,1.52Z"/>
      <path class="cls-7" d="M299.42,204.68c.06-.1.11-.24.2-.29,5.77-3.26,8.48-8.59,10.43-14.65,1.53-4.75,3.07-9.52,5.27-14.04.54-1.1,1.06-2.3.94-3.87-3.2.08-5.92,1.51-8.81,2.11-2.84.6-5.64,1.4-8.46,2.08-2.73.66-2.73.64-2.98-2.34,2.59-1.37,5.51-1.72,8.28-2.53,5.13-1.5,10.34-2.72,15.53-4,3.09-.76,3.1-.71,2.31,2.53-.11.45-.19.91-.28,1.37-1.14,1.6-1.78,3.38-1.93,5.34-1.03,1.76-1.74,3.66-2.31,5.61-2.31,4.97-3.64,10.29-5.51,15.43-1.45,4.01-3.89,7.08-7.39,9.48-1.5,1.03-2.56,1.47-3.71-.33-.35-.55-1.05-.88-1.59-1.31.02-.2.03-.4.02-.6Z"/>
      <path class="cls-4" d="M372.71,204.63c1.56-3.8,4.71-4.71,8.46-5.17,3.96-.49,8-.64,11.86-1.87,1.11-.09,2.23-.18,3.34-.27.79.17,1.54.15,2.18-.43,1.83-.26,3.76.24,5.51-.7,3.5.12,6.91-1.08,10.41-.78.4,1.18-.52,1.77-1,2.5-2.61,4.01-5.35,7.93-8.52,11.52-1.71,1.94-3.58,3.67-5.95,4.77.85-1.72,2.49-2.92,3.15-4.76,3.66-4.03,6.6-8.74,6.95-11.16-1.04,0-2.1-.15-3.11.03-4.91.87-9.87,1.36-14.77,2.23-2.86.51-5.81.16-8.61,1.13-.81.28-1.55.47-1.91,1.3-1.19,2.76-3.14,5.2-3.44,8.33-.97.69-2.08.88-3.25.94-4.47.25-8.93.54-13.4.82-1.05-1.11.82-2.33-.21-3.59-2,.08-3.97.58-5.9,1.3-.63.23-1.24.71-1.85-.01.89-1.75,2.61-1.75,4.2-1.98,4.26-.63,8.52-1.26,12.78-1.85,1.49-.2,2.74-.61,3.06-2.31Z"/>
      <path class="cls-2" d="M260.89,212.89c-.24.09-.48.18-.72.26-2.56.39-3.73,2.12-4.12,4.47-1,6.16-1.94,12.33-2.9,18.5-1.64.27-2.7-.58-3.41-1.89-.61-1.12-.99-2.36-1.6-3.48-1.38-2.55-1.54-5.62-3.41-7.95-.07-2.16-.03-4.31.75-6.37,1.23.1,1.94-.37,2.2-1.66.34-1.7.84-3.37,1.28-5.06.4-1.55,1-2.12,2.93-1.85,3.16.43,6.48,1.01,9.58-.58.05,1.68.1,3.36.16,5.05-.25.19-.49.38-.74.57Z"/>
      <path class="cls-4" d="M361.63,140.84c-2.75-.34-5.27.85-7.85,1.4-15.69,3.34-31.35,6.84-47,10.36-7.98,1.79-11.63,6.28-12.22,14.75-.53.92-1.56,1.57-1.49,2.8-.86.62-2.05,1.06-1.87-.5.59-4.89,1.85-9.63,4.67-13.78,2.28-3.35,5.58-5.18,9.5-6.05,17.86-3.95,35.72-7.94,53.59-11.86,1.09-.24,2.23-.67,3.44-.39.46,1.31-.29,2.27-.79,3.28Z"/>
      <path class="cls-4" d="M397.87,194.87c-4.4.53-8.79,1.02-13.19,1.58-8.11,1.04-16.21,2.14-24.32,3.16-8.57,1.09-17.16,2.11-25.73,3.17-2.67.33-5.33.65-7.99,1.02-1.35.19-2.53-.22-3.68-.85-1.94-1.07-3.88-2.13-5.82-3.19-.67-.95-.39-1.62.62-2.07,1.89,1.52,4.16,2.3,6.34,3.26.23-.02.46-.04.69-.06.48-.01.96-.02,1.44-.03.97.17,1.93.34,2.73-.48.73-.08,1.46-.17,2.19-.25,1.16.15,2.35.46,3.35-.49.76-.06,1.51-.11,2.27-.17,1.2.17,2.41.37,3.49-.43,4.07-.18,8.06-1.02,12.09-1.52,10.25-1.27,20.53-2.32,30.76-3.7,2.37-.32,4.9,0,7.13-1.2.9-.06,1.8-.11,2.69-.17,1.45.18,2.89.33,4.22-.48,1.56.02,3.14-.37,4.87,0-.82,2.1-2.35,2.68-4.15,2.88Z"/>
      <path class="cls-4" d="M368.31,141.39c6.48-1.39,12.96-2.81,19.45-4.18,11.73-2.48,23.46-4.95,35.19-7.39,5.23-1.09,10.49-2.09,15.73-3.13-.3,1.61-1.17,2.93-2.17,4.19-2.25-.23-4.42.48-6.54.94-17.72,3.81-35.58,6.96-53.24,11.08-3.24.64-6.49,1.28-9.73,1.93,0,0,0,0,0,0,.07-1.29.74-2.34,1.32-3.43Z"/>
      <path class="cls-7" d="M326.22,200.88c-.48.01-.96.02-1.44.03-.26-.34-.48-.27-.69.06-2.18-.96-4.45-1.74-6.34-3.26.98-.43,2.24-1.06.76-2.05-1.68-1.12-1.45-2.27-.92-3.8.55-1.61,1.4-3.14,1.46-4.9.62-.53.75-1.25.74-2.01.48-.39.64-.91.65-1.5.25-.05.5-.1.75-.15.87.02,1.74.04,2.61.06.11.5.23,1,.34,1.5.05,1.43-.26,2.76-.98,4.01-.99,1.73-1.51,3.64-2.12,5.52-.23.7-.5,1.49.23,1.88,1.77.96,3.27,2.48,5.66,2.13,5.84-.85,11.71-1.54,17.58-2.24,1.03-.12,1.71-.53,2.16-1.47.35-.72.53-1.56,1.26-2.05.74.15,1.35.46,1.59,1.24-.16,2.33,1.5,1.58,2.61,1.44,4.95-.63,9.88-1.34,14.82-2.02,4.63-.54,9.28-.97,13.88-1.82,1.37-.25,2.79-.26,4.19-.37,1.77.41,3.4-.94,5.18-.42.01.66.03,1.32.04,1.98-2.24,1.2-4.76.88-7.13,1.2-10.24,1.38-20.51,2.43-30.76,3.7-4.03.5-8.02,1.34-12.09,1.52-1.2-.11-2.42-.46-3.49.43-.76.06-1.51.11-2.27.17-1.15-.05-2.34-.4-3.36.49-.73.08-1.46.17-2.19.25-.95-.1-1.93-.32-2.73.48Z"/>
      <path class="cls-7" d="M293.08,170.13c-.07-1.23.96-1.88,1.49-2.8,10.55-2.47,20.88-5.75,31.32-8.61,7.85-2.15,15.71-4.31,23.63-6.2,3.34-.8,5.56-2.76,7.43-5.36,1.03-1.43,2.1-2.79,3.62-3.74-.37,3.58-2.49,6.48-3.85,9.67-.49,1.14-1.86,1.28-2.98,1.61-13.98,4.2-28.23,7.34-42.28,11.27-4.94,1.38-9.95,2.55-14.92,3.84-1.14.3-2.27.55-3.45.31Z"/>
      <path class="cls-7" d="M303.34,257.27c-.83-.81-1.7-1.58-2.5-2.42-6.95-7.23-13.88-14.49-20.84-21.72-2.02-2.1-2.09-2.2.22-3.93,2.33-1.75,4.83-3.29,7.13-5.08,1.49-1.16,2.66-1.04,4.01.13.87.76,1.87,1.37,2.81,2.04-.03.23-.09.44-.19.65-2.66.31-4.03,2.69-6.15,3.87-1.51.84-1.29,1.65-.27,3,4.54,6.08,9.5,11.78,15.02,17,1.9,1.8,3.71,3.69,4.95,6.45h-4.19Z"/>
      <path class="cls-7" d="M299.6,210.09c-1.77,2.05-4.07,3.44-6.27,4.94-8.26,5.67-16.11,11.88-24.11,17.89-1.23-1.05-.6-2.36-.48-3.59.37-3.82,1.47-7.56,1.11-11.45.05-.51.1-1.03.14-1.54.13.04.26.09.4.13h2.93c.66,2.06-.42,4.24.85,6.32,6.28-4.86,12.64-9.25,19.01-13.64,1.16-.8,2.24-1.64,3.65-1.93.44.04.89.09,1.33.13l-.04-.05c-.28,1.35,1.2,1.75,1.5,2.78Z"/>
      <path class="cls-5" d="M303.34,257.27h4.19c-1.24-2.77-3.05-4.66-4.95-6.45-5.52-5.22-10.47-10.91-15.02-17-1.01-1.36-1.24-2.17.27-3,2.12-1.18,3.49-3.56,6.15-3.87.23,1.21.09,2.41-.15,3.6-.71.85-.68,1.91-.86,2.91-.58,1.51.19,2.72,1.04,3.77,1.76,2.16,3.5,4.34,5.48,6.32,1.24,1.25,2.49,2.05,4.28,1.78,3.63-.54,6.45.42,8.52,3.75,1.42,2.29,3.43,4.21,5.4,6.57-4.76,1.02-8.99,2.24-13.43,2.37-.45-.07-.71-.37-.91-.75Z"/>
      <path class="cls-2" d="M427.64,180.21c.03,1.69-1.03,2.98-1.61,4.45-.99,1.1-2.33,1.45-3.72,1.65-5.38.74-10.76,1.47-16.14,2.2-.68-.03-1.36-.06-2.04-.09-.05-2.26,1.93-3.57,2.64-5.54.61-1.71,1.08-3.95,3.82-4.29,1.19-.15,2.51-1.4,3.25-2.49,1.15-1.68,2.84-2.02,4.48-2.29,2.5-.41,5.14.15,7.47-1.37.49-.32,1.14-.06,1.59.38.63.62.42,1.22,0,1.86-1.25,1.89-1,3.74.26,5.53ZM422.21,183.48c1.66-.07,3.06-1.59,2.97-3.24-.09-1.6-1.72-3.02-3.33-2.89-1.38.11-2.78,1.65-2.82,3.1-.04,1.58,1.55,3.1,3.18,3.03Z"/>
      <path class="cls-2" d="M347.89,214.4c-4.41-.15-8.73.76-13.08,1.23-3.36.36-6.63.45-9.77-1.38-2.69-1.57-5.65-2.67-8.47-4.02-1.26-.6-2.27-1.37-.94-2.86,1.3-.09,2.5.21,3.71.74,1.68.73,3.44,1.53,5.33,1.05,6.12-1.56,12.47-.59,18.63-1.74,1.6-.3,2.99.1,3.39,2.1.28,1.38,1.18,2.24,2.72,2.13-.11.46-.22.92-.33,1.38-.4.46-.79.91-1.19,1.37Z"/>
      <path class="cls-7" d="M360.62,213.07c4.47-.28,8.93-.58,13.4-.82,1.17-.06,2.28-.25,3.25-.94,1.14.4,2.31.19,3.47.27,3.63.26,7.14-1.1,10.78-.73,3.05,2.07,3.73,1.99,6.48-.76,1.39-.21,2.77-.42,4.16-.63-.66,1.84-2.3,3.04-3.15,4.76-6.93.53-13.88.96-20.8,1.6-5.89.55-11.77,1.21-17.67,1.68-3.24.25-6.48.47-9.73.55,1.38-4,1.81-4.3,5.8-4.41,1.35-.04,2.79.37,4.02-.57Z"/>
      <path class="cls-7" d="M244.74,222.8c1.87,2.33,2.03,5.4,3.41,7.95.61,1.12.99,2.37,1.6,3.48.71,1.31,1.77,2.17,3.41,1.89.22,1.72,1.31,2.15,2.91,2.16,2.51.02,5.03-.37,7.54.1,0,.34-.02.68-.03,1.02-.14.32-.27.63-.41.94-1.19,4.14-4.29,5.54-8.23,5.64-1.97.05-3.93.04-5.9-.38-2.68-.57-4-2.16-4.39-4.73-.92-6.03-.81-12.06.1-18.08Z"/>
      <path class="cls-1" d="M436.52,130.88c1-1.25,1.87-2.57,2.17-4.19,1.07-.24,2.14-.48,3.22-.73-1.65,2.64-3.37,5.25-4.08,8.35,0,0,.02-.01.02-.01-7.76,1.65-15.51,3.28-23.26,4.94-9.24,1.99-18.46,4.04-27.7,5.99-1.45.31-2.57.78-3.33,2.17-2.73,5.02-5.56,9.99-8.34,14.98-.64-.12-1.39.1-1.85-.59,2.61-4.96,5.28-9.9,7.82-14.89,1.15-2.25,2.8-3.55,5.32-3.98,2.41-.41,4.77-1.11,7.16-1.61,13.46-2.83,26.93-5.64,40.4-8.48,1.11-.23,2.41-.36,2.47-1.97Z"/>
      <path class="cls-4" d="M338.17,248.19c1.35-.06,2.31-1.02,3.47-1.52,3.93-2.07,8.11-3.71,12.21-6.19-3.97-3.1-7.9-5.1-11.77-7.2-1.66-.9-3.48-1.02-5,0-3.68,2.49-6.68,2.07-10.23-.74-3.23-2.55-6.98-4.61-10.79-6.37-1.49-.69-2.72-1.62-1.06-3.37.07.79.34,1.41,1.25,1.51,3.11,1.82,6.21,3.65,9.32,5.47q6.73,3.94,13.84.21c.1-.05.17-.16.25-.24.17-.02.34-.04.51-.07.26,0,.53,0,.79,0,6.51,3.73,13.01,7.45,19.96,11.43-5.13,2.99-10.21,4.46-15.14,6.28-1.3.48-2.64.9-4,1.17-1.2.24-2.5.72-3.59-.37Z"/>
      <path class="cls-4" d="M437.82,134.32c.71-3.1,2.44-5.7,4.08-8.35,6.49-1.39,12.97-2.81,19.47-4.13,1.06-.21,2.47-.86,3.22.26.63.93-.34,1.98-.8,2.89-3.18,6.35-5.85,12.96-9.81,18.91-1.3,1.95-2.61,3.89-4.86,4.89.58-2.39,1.81-4.48,2.99-6.62,2.8-5.1,5.33-10.32,7.21-15.82-1.17-.74-2.24-.47-3.22-.26-3.87.81-7.69,1.84-11.58,2.54-1.95.35-3.12,1.25-3.95,2.97-.57,1.17-.83,2.83-2.75,2.71Z"/>
      <path class="cls-3" d="M263.61,238.38c-2.51-.47-5.03-.08-7.54-.1-1.6-.01-2.68-.44-2.91-2.16.96-6.17,1.9-12.34,2.9-18.5.38-2.35,1.56-4.07,4.12-4.47.25.7.49,1.4.74,2.09-1.11.55-2.75.68-2.08,2.63-.63.81-.92,1.71-.74,2.74-.14.51-.27,1.03-.41,1.54-.92,1.25-.11,2.7-.45,4.02-.98,1.33-.64,2.79-.42,4.23-.04.74-.07,1.47-.11,2.21-1.23,3.17-.88,3.78,2.18,3.66.91-.03,1.85-.07,2.73-.29,2.69-.69,2.98-.02,3.12-3.43.58-.92.93-1.91.76-3.02.4-1.03.48-2.1.45-3.18,1.67-1.51,1.68-1.72.18-2.95-.13-1.15.76-2.4-.31-3.47-.05-.72-.09-1.44-.14-2.16.31-.42.62-.85.93-1.27,1.32-.1,1.94,1.45,3.25,1.39.36,3.89-.74,7.63-1.11,11.45-.12,1.23-.75,2.54.48,3.59-2.23,1.45-4.1,3.28-5.62,5.46Z"/>
      <path class="cls-4" d="M304.25,258.02c4.44-.13,8.67-1.35,13.43-2.37-1.97-2.35-3.98-4.28-5.4-6.57-2.07-3.33-4.89-4.29-8.52-3.75-1.79.27-3.04-.54-4.28-1.78-1.98-1.99-3.72-4.16-5.48-6.32-.85-1.04-1.63-2.26-1.04-3.77,1.4,2.47,3.81,4.1,5.39,6.43,2.05,3.02,4.63,4.76,8.51,3.93,1.23-.26,2.56-.06,3.84-.07,4.4,4.47,8.42,9.27,12.91,14.42-4.05.85-7.52.78-10.95,1.04-1.63.12-3.28.06-4.91.03-1.29-.02-2.56-.18-3.51-1.22Z"/>
      <path class="cls-4" d="M292.87,176.26c2.58.66,2.61.68,1.77,2.79-1.03,2.6-2.13,5.17-3.18,7.75-.5,1.23-1.35,2.13-2.4,2.93-4.89,3.76-9.74,7.58-14.63,11.35-1.67,1.29-3.39,2.52-5.71,2.02.68-2.01,2.52-2.96,4-4.17,4.33-3.54,8.72-7.02,13.15-10.44,1.92-1.48,3.25-3.25,4.1-5.51.86-2.28,1.92-4.48,2.89-6.72Z"/>
      <path class="cls-3" d="M293.82,230.55c.24-1.19.39-2.39.15-3.6.1-.21.16-.42.19-.65.89.21,1.77.46,2.67.63,1.05.2,1.84-.07,1.97-1.29,3.46,1.76,6.78,3.75,9.85,6.14-.17,3.83-.18,7.63,1.38,11.25-1.92,0-3.84,0-6.32,0,1.04-.89,1.56-1.33,2.08-1.77.67-.12,1.4.04,2.19-.53-2.9-4.33-6.34-8.17-10.28-11.56-1.62-1.39-1.41.59-1.87,1.28l-2.02.11Z"/>
      <path class="cls-3" d="M299.42,204.68c.01.2,0,.4-.02.6-.83.03-1.25.44-1.2,1.3,0,0-.1.08-.1.08-1.63-1.64-3.29-3.25-4.89-4.91-1.15-1.2-2.19-1.23-3.54-.18-3.19,2.51-6.52,4.84-9.73,7.33-2.56,1.98-5.43,3.58-7.46,6.19-.73-.1-1.18.49-1.79.69l-.09-.08c.04-.89.08-1.78.11-2.67.55-.88,1.79-1.05,2.16-2.11,4.58-2.74,8.69-6.13,13.02-9.21,6.6-4.69,4.84-4.84,10.59.57.92.87,1.75,1.86,2.94,2.41Z"/>
      <path class="cls-1" d="M349.08,213.03c.11-.46.22-.92.33-1.38,0,0,0-.04,0-.04.41-.08.58-.34.59-.74,1.05-2.96,3.26-3.97,6.27-4.37,2.11-.28,4.38-.07,6.36-1.19,2.62.12,5.14-.64,7.71-.9.79.07,1.58.14,2.37.22-.32,1.7-1.58,2.1-3.06,2.31-4.27.59-8.52,1.22-12.78,1.85-1.59.24-3.32.24-4.2,1.98-1.31,1.12-1.15,3.14-2.6,4.17.07-.84-.33-1.45-.99-1.91Z"/>
      <path class="cls-7" d="M339.64,229.75c-.08.08-.15.19-.25.24q-7.11,3.72-13.84-.21c-3.11-1.82-6.21-3.64-9.32-5.47.69-.39.85-1.11,1.07-1.78,3.04,1.66,6.29,3.04,9.08,5.06,3.66,2.65,7.14,3.41,11.03.82.71.2,1.27.87,2.1.68.02.22.06.44.12.65Z"/>
      <path class="cls-1" d="M404.15,188.41c.68.03,1.36.06,2.04.09-3.21,1.09-3.1,4.22-3.89,6.68-.33,1.04,1.11.75,1.77,1.01-1.75.94-3.68.44-5.51.7-.7-.01-1.4-.03-2.11-.04l-.03-.04c.37-.74,1.54-.87,1.46-1.94,1.8-.2,3.33-.79,4.15-2.88-1.73-.36-3.31.02-4.87,0-1.44-.11-2.91-.5-4.22.48-.9.06-1.8.11-2.69.17-.01-.66-.03-1.32-.04-1.98,4.62-.94,9.38-1,13.95-2.24Z"/>
      <path class="cls-1" d="M317.31,222.54c-.22.67-.38,1.39-1.07,1.78-.91-.1-1.18-.72-1.25-1.51.21-.93.09-1.84-.09-2.75.04-.67.08-1.33.12-2,1.61-.44,3.69.68,4.8-1.44.94.44,1.93.79,2.8,1.34,2.62,1.68,5.44,2.46,8.54,2.2-1.62.75-.48,2.19-.82,3.26-1.64.34-2.8-.78-4.14-1.38-.2-1.57-.89-1.86-2.1-.81-2.4-.1-4.39-1.78-6.89-2.02-.25,1.28-.24,2.31.11,3.32Z"/>
      <path class="cls-7" d="M305.8,241.25c-.52.44-1.04.88-2.08,1.77,2.48,0,4.4,0,6.32,0,.22.24.44.49.66.73-1.28,0-2.61-.2-3.84.07-3.88.82-6.46-.91-8.51-3.93-1.58-2.32-3.99-3.95-5.39-6.43.18-1,.15-2.06.86-2.91.67-.04,1.35-.08,2.02-.11.06,4.95,5.05,10.37,9.96,10.81Z"/>
      <path class="cls-4" d="M261.48,207.27c-3.1,1.6-6.42,1.01-9.58.58-1.93-.26-2.54.31-2.93,1.85-.43,1.68-.93,3.35-1.28,5.06-.26,1.29-.97,1.76-2.2,1.66-.09-3.41,1-6.59,1.87-9.81.3-1.1.9-1.68,1.98-1.11,1.43.76,2.93.39,4.4.53,1.82.89,3.76.39,5.64.45.69.29,1.62-.06,2.1.79Z"/>
      <path class="cls-5" d="M350.07,214.94c1.44-1.03,1.29-3.06,2.6-4.17.61.72,1.23.25,1.85.01,1.93-.72,3.9-1.22,5.9-1.3,1.02,1.27-.84,2.48.21,3.59-1.23.94-2.67.53-4.02.57-3.99.11-4.42.4-5.8,4.41-.7.47-1.44.53-2.39.23.42-1.19.72-2.4,1.65-3.34Z"/>
      <path class="cls-5" d="M258.06,204.01c-2.1-.34-4.32.39-6.33-.72.95-2.26,2.05-4.43,3.49-6.42.56-.78,1.1-1.53,2.23-1.31.38,2.74,2.04,5.28,1.28,8.19-.22.09-.44.18-.66.26Z"/>
      <path class="cls-7" d="M258.72,203.75c.76-2.92-.9-5.45-1.28-8.19.23-.31.46-.61.7-.92,3.82,1.57,5,4.87,5.59,8.55-1.71-.14-3.27.95-5.01.57Z"/>
      <path class="cls-4" d="M258.14,194.64c-.23.31-.46.61-.7.92-1.13-.22-1.66.53-2.23,1.31-1.44,2-2.54,4.16-3.49,6.42-.91-.02-1.85.1-2.74-.7.81-2.77,2.12-5.3,4.25-7.36,1.44-1.4,3.08-1.96,4.9-.59Z"/>
      <path class="cls-1" d="M319.92,176.4c.16-1.96.79-3.74,1.93-5.34.99-.09,1.98-.18,2.97-.27.21.04.42.07.63.09-.08.23-.07.46.04.68-.25.88-.51,1.76-.76,2.64-1.99,1.41-2.39,3.76-3.38,5.77-1.41-.81-.19-2.68-1.43-3.57Z"/>
      <path class="cls-7" d="M261.48,207.27c-.48-.85-1.41-.5-2.09-.79,1.84-.79,3.77-.77,5.71-.57.12,2.1,1.19,4.12.54,6.29-.67.08-1.35.16-2.02.24-.42.05-.84.11-1.27.16-.24-.1-.47-.19-.71-.29-.05-1.68-.1-3.36-.16-5.05Z"/>
      <path class="cls-7" d="M272.88,210.91c-.37,1.06-1.62,1.23-2.16,2.11-1.2-.86-1.1-2.22-1.25-3.45-.19-1.61-.31-3.23-.46-4.84,2.45-.83,2.39-.8,3.22,1.17.68,1.63.6,3.32.65,5.01Z"/>
      <path class="cls-3" d="M430.97,161.8c-1.15.88-2.53.53-3.8.73-1.35-.41-1.54-1.23-.75-2.31.6-.82,1.44-1.45,1.64-2.55.36-1.97,1.48-3.53,2.79-4.97.46-.04.92-.07,1.38-.11.11,1.09-.18,2.03-1.01,2.8-1.41,1.31-1.39,3.3-2.21,4.92-.72,1.42,1.04,1.29,1.97,1.49Z"/>
      <path class="cls-3" d="M265.1,205.92c-1.94-.2-3.87-.22-5.71.57-1.89-.05-3.82.45-5.65-.45.89-.04,1.77-.11,2.66-.1,1.37.03,1.69-.78,1.66-1.93.22-.09.44-.18.66-.26,1.73.39,3.3-.7,5.01-.57.86.71,1.23,1.66,1.37,2.73Z"/>
      <path class="cls-4" d="M258.83,217.88c-.67-1.96.97-2.09,2.08-2.63.74.12,1.44-.03,2.12-.3.9.19,1.78.11,2.66-.1.66.35.68,1.05.89,1.64-.31.42-.62.85-.93,1.27-2.28.03-4.55.4-6.83.11Z"/>
      <path class="cls-3" d="M319.92,176.4c1.24.89.01,2.75,1.43,3.57.01.23.03.47.04.7-.06.87-.13,1.74-.19,2.61-.25.05-.5.1-.75.15-.72-.92-1.59-1.54-2.83-1.42.57-1.95,1.27-3.85,2.31-5.61Z"/>
      <path class="cls-2" d="M368.31,141.39c-.57,1.09-1.25,2.15-1.32,3.43-.9.03-1.8.05-2.7.08q.7-3.02,4.01-3.51Z"/>
      <path class="cls-4" d="M299.6,210.09c-.3-1.03-1.78-1.44-1.5-2.78.23,0,.46.02.69.05.32.42.62.86.96,1.26.48.56.75,1.07-.15,1.47Z"/>
      <path class="cls-3" d="M319.79,184.94c.01.77-.12,1.48-.74,2.01-.96-1.11.02-1.51.74-2.01Z"/>
      <path class="cls-3" d="M265.71,214.86c-.88.21-1.77.28-2.66.1.86-.82,1.75-.78,2.66-.1Z"/>
      <path class="cls-3" d="M432.26,152.59c.58-.6,1.31-.65,2.07-.54-.56.68-1.33.57-2.07.54Z"/>
      <path class="cls-1" d="M263.61,212.45c.68-.08,1.35-.16,2.02-.24-.57.96-1.28.72-2.02.24Z"/>
      <path class="cls-1" d="M261.64,212.32c.24.1.47.19.71.29-.43.36-.93.41-1.45.28.25-.19.49-.38.74-.58Z"/>
      <path class="cls-7" d="M340.94,229.67c-.26,0-.53,0-.79,0,.26-.4.52-.47.79,0Z"/>
      <path class="cls-3" d="M270.39,216.47c-.13-.04-.26-.08-.4-.13.2-.21.41-.43.61-.64,0,0,.09.08.09.08-.1.23-.2.46-.31.69Z"/>
      <path class="cls-3" d="M309.37,232.1c.37,0,.6.18.72.52-.24-.17-.48-.34-.72-.52Z"/>
      <path class="cls-3" d="M263.17,240.34c.14-.31.27-.63.41-.94-.14.31-.27.63-.41.94Z"/>
      <path class="cls-3" d="M298.79,207.35c-.23-.02-.46-.04-.69-.05,0,0,.04.05.04.05,0-.23-.01-.46-.04-.69,0,0,.1-.08.1-.08.2.26.39.51.59.77Z"/>
      <path class="cls-5" d="M38.8,152.71c-6.27-1.4-12.67-2.18-18.87-3.91.08-1.25-.58-2.23-1.17-3.24-3.08-5.23-6.05-10.51-8.28-16.17-.4-1.01-1.14-2.02-.72-3.18,1.05-.51,2.01-.36,2.9-.18,3.54.71,7.04,1.56,10.59,2.22,2.22.41,3.77,1.35,4.7,3.56,1.2,2.86,3.44,4.38,6.63,5.01,7.76,1.54,15.43,3.48,23.17,5.14,1.79.38,2.94,1.19,3.63,2.85.8,1.93,1.53,3.92,2.6,5.71,1.33,2.23,2.29,4.56,2.95,7.04-1.04-.08-2.1-.07-3.13-.26-8.34-1.52-16.67-3.07-25-4.61Z"/>
      <path class="cls-5" d="M109.35,145.44c-.65-1.5-1.86-2.79-1.75-4.58,1.28-.41,2.51-.18,3.77.15,3.26.86,6.5,1.8,9.8,2.44,14.7,2.85,29.2,6.59,43.83,9.77,2.5.54,4.35,1.79,5.61,3.78,2,3.15,3.41,6.6,3.84,10.37-1.57-.41-3.15-.81-4.71-1.24-17.13-4.77-34.2-9.77-51.45-14.05-2.72-.68-4.65-2-6.18-4.15-.75-1.05-1.34-2.22-2.76-2.48ZM167,158.68c.09-1.71-1.28-3.19-2.98-3.22-1.62-.03-3.26,1.41-3.37,2.96-.14,1.78,1.36,3.31,3.28,3.34,1.81.03,2.97-1.14,3.07-3.09ZM120.94,147.52c.09-1.73-1.18-3.24-2.81-3.34-1.91-.12-3.36,1.23-3.37,3.13,0,1.8,1.21,3.08,2.99,3.16,1.75.08,3.1-1.17,3.19-2.96Z"/>
      <path class="cls-7" d="M38.8,152.71c8.33,1.54,16.66,3.09,25,4.61,1.02.19,2.08.18,3.13.26,3.95,1.12,8,1.67,12.06,2.2,4.13,1.32,8.44,1.8,12.69,2.56.56,0,1.15.29,1.79-.23-.59-1.31-1.19-2.64-1.79-3.98.66.02,1.31.03,1.97.05.55.29.86.81,1.04,1.36.96,2.86,2.87,4,5.93,4.49,9.75,1.56,19.43,3.59,29.16,5.31,4.57.81,9.07,2.11,13.77,2.18.49,1.14,1.37,2.12,1.48,3.43-1.81-.44-3.61-.94-5.43-1.32-14.84-3.14-29.83-5.46-44.71-8.41-15.1-3-30.34-5.3-45.46-8.22-2.18-.42-4.46-1.34-6.93-.65.7,3.75,3.31,4.92,6.51,5.41,14.2,2.18,28.15,5.61,42.25,8.25,13.76,2.58,27.49,5.34,41.21,8.16,4.2.86,8.49,1.29,12.6,2.61,0,.64.02,1.27.03,1.91-.3.07-.6.14-.9.22-7.45-1.46-14.88-2.96-22.35-4.35-2.85-.53-5.61-1.72-8.6-1.33-.65-.18-1.29-1.03-1.95-.02-.83-.63-1.65-1.19-2.75-1.41-13.15-2.57-26.28-5.2-39.42-7.77-1.46-.29-2.9-1-4.47-.49-.16,1.26.83,2.15,1.03,3.28-.58.04-1.16.08-1.74.11-.75-.77-1.24-1.67-1.28-2.77,1.18-1.05.55-1.38-.6-1.49l.03.02c-.14-.33-.31-.53-.61-.13-4.33-.82-8.66-1.6-12.97-2.49-3.61-.74-7.33-1-10.84-2.25,3.1-.25,3.52-.63,2.32-3.09-.97-1.98-.45-4.1-1.18-6.03Z"/>
      <path class="cls-4" d="M78.99,159.79c-4.06-.54-8.11-1.08-12.06-2.2-.66-2.48-1.63-4.81-2.95-7.04-1.06-1.79-1.79-3.78-2.6-5.71-.69-1.66-1.84-2.47-3.63-2.85-7.74-1.66-15.41-3.59-23.17-5.14-3.19-.63-5.43-2.15-6.63-5.01-.93-2.22-2.47-3.15-4.7-3.56-3.54-.66-7.05-1.52-10.59-2.22-.89-.18-1.85-.33-2.9.18-.43,1.15.32,2.16.72,3.18,2.23,5.66,5.2,10.94,8.28,16.17.59,1.01,1.24,1.99,1.17,3.24-2.03-.87-3.32-2.53-4.49-4.29-4.35-6.54-7.4-13.78-10.9-20.77-.98-1.96-.53-2.5,1.81-2.09,3.56.61,7.08,1.47,10.62,2.2,2.4.5,4.82.9,7.19,1.5,1.21.3,2.59.29,3.53,1.35.46,2.09,2.02,3.64,2.72,5.61.58,1.63,1.87,2.29,3.46,2.56,8.05,1.35,15.97,3.32,23.93,5.08,7.74,1.72,15.5,3.28,23.24,5,1.42.31,3.21.15,4.02,1.74,1.09,2.16,2.57,4.15,3.16,6.55-1.77.08-1.86-1.52-2.45-2.54-.77-1.32-1.41-2.95-2.89-3.38-3.49-1.02-7.07-1.83-10.88-2.08.06,1.51.77,2.44,1.3,3.46,1.9,3.69,4.34,7.11,5.7,11.08Z"/>
      <path class="cls-4" d="M62.65,168.18c.04,1.1.53,1.99,1.28,2.76.53,2.54,2.25,3.63,4.68,3.95,1.61.21,3.22.52,4.82.83,12.58,2.39,25.15,4.79,37.73,7.18,1.63.31,3.15.77,3.71,2.6-.02.27-.05.54-.07.81-2.3-1.42-4.84-2.05-7.48-2.39-3.75-.48-7.36-1.81-11.45-2.04,1.16,2.12,2.06,4.01,3.18,5.76,1.3,2.03,2.24,4.38,4.5,5.66-4.94-.02-9.76-1.1-14.65-1.53-1.96-3.58-3.92-7.16-5.88-10.73-.6-1.09-1.52-1.62-2.78-1.86-3.77-.73-7.48-1.92-11.28-2.33-3.61-.39-5.74-2.2-7.13-5.26-.8-1.77-2.19-2.55-4.07-2.9-4.81-.88-9.6-1.87-14.38-2.87-3-.63-5.98-1.42-9.24-1.47.51,1.72.79,3.21,1.77,4.43.14,1.16.62,2.21,1.11,3.25,1.37,2.92,2.73,5.83,4.07,8.77.3.66,1.07,1.4-.07,2.04-2.5-2.52-3.84-5.77-5.45-8.83-1.94-3.69-3.77-7.44-5.48-11.24-.89-1.97-.48-2.32,1.77-1.95,1.94.33,3.88.67,5.82,1,3.51,1.25,7.23,1.51,10.84,2.25,4.31.88,8.65,1.66,12.97,2.49,0,0,.29.13.29.13h.32s-.03-.02-.03-.02c.02.57.22,1.07.6,1.49Z"/>
      <path class="cls-5" d="M173.07,173.67c1.93-.06,2.95.86,3.04,2.8-2.61.44-2.83.6-1.93,2.61,1.5,3.34,2.65,6.85,4.6,9.99-3.12-.33-5.4.84-6.79,3.72-1.35,2.8-1.4,2.8-4.19,1.59-.62-.27-1.48-.25-1.47.24.07,2.32-2.22,2.81-3.1,4.34-1.25-.66-1.63-1.89-2.1-3.09-2.81-7.15-4.95-14.55-8.06-21.6-.33-.74-.66-1.52.1-2.23,5.54,1.39,11.06,2.8,16.59,4.16,2.84.7,3.03.52,3.31-2.53Z"/>
      <path class="cls-2" d="M40.99,182.85c1.13-.64.37-1.39.07-2.04-1.33-2.93-2.7-5.85-4.07-8.77-.49-1.05-.97-2.09-1.11-3.25.94-.02,1.85-.06,2.65-.7,1.9-1.49,3.77-1.43,5.65.13.7.58,1.43,1.34,2.46,1.2,2.16-.31,3.34,1.13,4.82,2.31,2.53,2,4.7,4.97,8.07,5.27,3.37.3,5.74,2.38,8.55,3.65,2.16.98,2.05,2.75.24,4.34-1.26,1.11-3.19,1.63-3.52,3.66-.67-.02-1.34-.05-2.01-.07-5.12-.76-10.26-1.48-15.37-2.29-2.51-.4-5.04-.89-6.44-3.42ZM50.03,180.5c.05-1.41-1.68-3.18-3.14-3.2-1.44-.02-3.23,1.56-3.4,3.02-.17,1.47,1.7,3.28,3.38,3.29,1.62,0,3.09-1.44,3.16-3.1Z"/>
      <path class="cls-7" d="M158.33,232.63c-7.51,3.97-14.6,8.66-21.93,12.94-1.88,1.1-3.66,2.52-6,2.6-1.41-.04-2.42-.96-3.57-1.58,3.59-3.02,7.98-4.77,11.79-7.39,8.17-5.62,17.02-10.1,25.24-15.61,1.13-.76,2.64-1.02,3.31-2.6-.95-.79-2.03-1.49-2.85-2.43-1.43-1.63-2.91-1.58-4.68-.64-1.85.98-3.72,1.94-5.87,2.12-.15.03-.3.02-.44-.02.01-.47.03-.94.04-1.41,3.08-2.78,6.98-4.02,10.63-5.74,1.02-.48,1.83-.06,2.59.47,3.05,2.13,6.06,4.31,9.1,6.46,2.02,1.42-.11,2.02-.57,2.95-5.31,2.74-10.46,5.76-15.4,9.12-.25.1-.49.2-.74.3-.22.15-.44.31-.66.47Z"/>
      <path class="cls-7" d="M173.07,173.67c-.28,3.05-.47,3.23-3.31,2.53-5.53-1.36-11.05-2.77-16.59-4.16-.75.71-.43,1.48-.1,2.23,3.1,7.04,5.25,14.44,8.06,21.6.47,1.2.85,2.44,2.1,3.09.7,1.27,1.8,2.11,2.99,2.88,1.08.7,2.12,1.47,2.62,2.74.28,1.74-1.6,2.28-2.03,3.63-3.31-1.39-5.85-3.7-7.81-6.65-1.82-2.74-2.88-5.84-4.02-8.88-1.51-4.02-2.93-8.07-4.38-12.1-1.42-3.69-2.84-7.37-4.26-11.06-.02-.12-.03-.23-.05-.35-.51-2.69-.4-2.8,2.21-2.17,2.37.58,4.75,1.15,7.11,1.8,5.83,1.6,11.64,3.24,17.46,4.87Z"/>
      <path class="cls-5" d="M70.04,214.21c-2.78-1.06-4.88-2.95-6.52-5.39,1.29,0,2.67.09,1.29-1.81-1.94-2.69-4.09-5.27-5.29-8.53,1.62-.42,2.86-.14,4.13.08,2.52.43,5.05.88,7.6,1.05,5.12.33,10.11,1.51,15.19,2.15.73.09,1.46.21,1.71.97.99,2.98,3.11,5.49,3.58,8.69-4.92.69-9.75-.72-14.64-.65-.02-.58.05-1.19-.09-1.74-.62-2.57-3.11-3.26-5.04-1.47-.76.7-.93,1.57-1.04,2.51-1.19.41-2.35-1.09-3.62-.08.3,1.84,2.39,2.48,2.75,4.23Z"/>
      <path class="cls-4" d="M91.72,211.43c-.47-3.19-2.59-5.71-3.58-8.69-.25-.76-.98-.88-1.71-.97-5.07-.64-10.06-1.83-15.19-2.15-2.55-.16-5.08-.61-7.6-1.05-1.27-.22-2.51-.51-4.13-.08,1.2,3.26,3.35,5.84,5.29,8.53,1.37,1.9,0,1.82-1.29,1.81-3.65-4.03-6.44-8.67-9.84-13.31,2.32-.57,4.22.22,6.11.01,1.16.68,2.43.55,3.69.47.47.03.93.06,1.4.1,0,0,0,.15,0,.15.91.72,1.94.65,2.99.47.84.05,1.68.09,2.52.14.56.47,1.25.56,1.95.64,5.98.72,11.97,1.46,17.95,2.19,1.63.2,3.19.51,4.07,2.12.91,3.78,3.27,5.5,7.19,5.58,2.53.05,5.06.66,7.58,1.08,1.99.33,4.08.33,5.77,1.69-2.29.57-4.51-.95-6.87-.35.17,1.15.32,2.17.47,3.19-4.83-.26-9.67-.53-14.5-.78-.84-.04-1.57-.32-2.25-.78Z"/>
      <path class="cls-4" d="M29.84,126.71c5.25.43,10.32,1.84,15.44,2.89,18.95,3.91,37.87,8,56.8,12.03,0,1.07,0,2.13,0,3.2,0,0,0,0,0,0-3.94-.72-7.8-1.94-11.84-2.09-3.29-1.13-6.76-1.49-10.1-2.32-12.52-3.1-25.25-5.15-37.83-7.94-3.24-.72-6.49-1.95-9.94-1.46-.97-1.36-1.98-2.7-2.54-4.31Z"/>
      <path class="cls-7" d="M109.35,145.44c1.43.27,2.02,1.44,2.76,2.48,1.53,2.15,3.46,3.48,6.18,4.15,17.26,4.29,34.33,9.28,51.45,14.05,1.56.44,3.14.83,4.71,1.24,0,0,0,0,0,0,.2.26.4.51.6.77.39.68,1.01,1.29.74,2.2-4.08-.37-7.99-1.59-11.92-2.63-15.64-4.12-31.27-8.31-46.9-12.46-4.65-1.23-7.23-4.52-7.63-9.8Z"/>
      <path class="cls-2" d="M120.73,214.62c-.76-.45-1.13-1.23-1.61-1.91-.09-1.49-1.29-2.53-1.55-3.96,2.42-.05,4.88.37,7.12-1.03.83-.52,1.76-.19,2.7-.06,3.43.45,6.88.7,10.31,1.12,2.94.36,5.72-.72,8.62-.75,2.21-.02,2.24-.21,1.41-2.84,1.24-1.05,2.4-2.28,4.25-2.09-.33,2.45,2.24,3.69,2.57,5.97-2.95,1.91-6.3,2.97-9.32,4.66-4.42,2.47-8.98,2.13-13.82,1.63-3.52-.36-7.07-1.57-10.69-.74Z"/>
      <path class="cls-4" d="M175.8,170.34c.27-.9-.35-1.51-.74-2.2-.02-.39-.2-.66-.6-.77,0,0,0,0,0,0-.43-3.77-1.84-7.21-3.84-10.37-1.26-1.99-3.11-3.23-5.61-3.78-14.63-3.18-29.13-6.92-43.83-9.77-3.3-.64-6.55-1.58-9.8-2.44-1.26-.34-2.49-.57-3.77-.15,0,0,0-.04,0-.04.08-.46-.18-.69-.56-.84-.61-.63-1.05-1.43-.53-2.18.48-.68,1.3-.11,1.94.02,11.43,2.25,22.8,4.74,34.15,7.38,7.48,1.74,14.95,3.54,22.46,5.19,4.78,1.05,7.8,4.06,9.66,8.32,1.45,3.31,2.24,6.87,2.97,10.4.38,1.83-.42,2.13-1.9,1.22Z"/>
      <path class="cls-7" d="M196.88,214.52c.69.97,1.83,1.57,2.3,2.72-.28,4.15.48,8.21,1.17,12.27.22,1.28.92,2.7-.55,3.76-4.52-4.24-9.7-7.63-14.66-11.31-4.5-3.34-9.11-6.52-13.67-9.78-.75-.54-1.6-.98-2.01-1.89.59-1.36,1.75-2.17,2.86-3.03,1.48.19,2.53,1.21,3.64,2.01,6.11,4.42,12.58,8.3,18.76,13.35v-7.68c.08-.23.16-.46.24-.69.64.09,1.27.17,1.91.26Z"/>
      <path class="cls-7" d="M176.57,224.92q3.22-1.78,6.09.25c2.08,1.48,4.15,2.99,6.22,4.5,1.83,1.33,1.89,1.45.33,3.12-2.78,2.97-5.62,5.89-8.48,8.78-5,5.03-10.15,9.92-14.72,15.36-.37.44-.73.91-1.36,1.01-1.45-.23-3.02.39-4.35-.64,2.61-3.26,5.28-6.46,8.31-9.36,3.19-3.05,6.25-6.22,9.02-9.67,1.63-2.04,3.31-4.04,5.13-6.27-1.82-.89-3-2.17-4.26-3.35-1.04-.97-2.2-1.73-3.74-1.49-.12-1.34,1.43-1.31,1.82-2.24Z"/>
      <path class="cls-7" d="M120.73,214.62c3.62-.82,7.17.38,10.69.74,4.84.5,9.4.85,13.82-1.63,3.02-1.69,6.37-2.75,9.32-4.66-.33-2.28-2.89-3.52-2.57-5.97.7-.92,1.68-1.31,2.79-1.44,1.57,3.52,4.54,5.78,7.65,8.26-4.17,2.54-8.75,3.83-12.54,6.56-1.32.14-2.33.97-3.48,1.5-1.64.8-3.28,1.61-4.92,2.41.04.13.08.26.12.38h4.81c-2.15,2.1-5.02,2.15-7.72,2.71,1.69-2.88,1.59-3.08-1.56-3.33-2.76-.4-5.49-1.09-8.32-.77-1-.19-2.04-.64-3-.52-3.29.39-4.34-1.71-5.1-4.25Z"/>
      <path class="cls-7" d="M88.88,191.78c4.89.44,9.72,1.51,14.65,1.53,4.93,1.31,10.03,1.33,15.03,2.11.49.08.86-.25,1.09-.7.54,0,1.09-.01,1.63-.02,1.01.78,2.05,1.27,3.38,1.57,2.74.62,5.53.74,8.27,1.07,3.32.4,6.63,1.28,10.04.95,4.58-.45,5.93-3.22,3.43-7.16.01-1.76-.73-3.3-1.46-4.84.09-.45.18-.89.28-1.34.91-.26,1.82-.53,2.73-.79.14-.01.28-.04.42-.07,1.13,3.29,2.27,6.59,3.4,9.88-.91,1.01-2.43,1.83-1.07,3.52-.77,1-2.04,1.06-3.04,1.62-2.41,1.37-4.85,1.95-7.67,1.3-2.37-.55-4.86-.55-7.29-.83-7.07-.81-14.14-1.62-21.21-2.47-6.72-.81-13.45-1.56-20.15-2.54-4.37-.64-8.81-.77-13.1-1.9,2.31-.23,4.61-.46,6.82-1.24,1.33-.46,2.53.56,3.83.34Z"/>
      <path class="cls-7" d="M91.72,211.43c.68.46,1.41.74,2.25.78,4.83.24,9.67.51,14.5.78,1.45.28,2.85.67,4.37.68,3.69.02,3.99.34,4.86,4.2-5.62.42-11.16-.56-16.73-.96-6.97-.5-13.91-1.24-20.87-1.86-3.35-.3-6.71-.56-10.06-.83-.35-1.75-2.45-2.39-2.75-4.22,1.27-1.01,2.43.49,3.62.08,2.14,3.44,3.25,3.57,6.17.71,4.89-.07,9.72,1.34,14.64.65Z"/>
      <path class="cls-7" d="M224.31,224.19c1.13,5.57.2,11.14,0,16.71-.1,2.73-1.33,3.87-3.99,4.55-3.23.82-6.45.86-9.65-.12-3.75-1.15-5.21-3.12-5.28-7.06,2.32-.01,4.64-.09,6.95-.02,1.37.04,2.5-.25,3.33-1.38,1.76-.64,2.69-2.07,3.5-3.63,1.32-2.54,2.83-5,3.74-7.74.25-.75.65-1.18,1.41-1.3Z"/>
      <path class="cls-2" d="M224.31,224.19c-.76.12-1.16.55-1.41,1.3-.91,2.74-2.42,5.19-3.74,7.74-.81,1.56-1.74,2.99-3.5,3.63-.16-2.14-.4-4.28-1.11-6.33,1.74.11,3.11-.64,3.34-2.33.35-2.48.31-5.02.45-7.54.16-2.87-2.55-3.97-3.65-6.04-.94-1.76-2.06-1.48-3.42-.83-.79-.3-1.58-.6-2.37-.9-1.11-1.45-.66-3.14-.74-4.75,3.02-.05,6.04-.02,9.05-.17,1.67-.08,2.64.47,3.04,2.12.35,1.46.87,2.89,1.21,4.35.27,1.15.79,1.91,2.06,1.94.73,2.55.95,5.15.79,7.8Z"/>
      <path class="cls-1" d="M29.84,126.71c.56,1.61,1.57,2.94,2.54,4.31.41,1.79,1.94,1.72,3.28,2,16,3.4,32.04,6.6,47.97,10.33,1.19.28,2.17.67,2.93,1.6,1.55,2.84,2.98,5.75,4.87,8.39.74,1.62,1.49,3.24,2.23,4.86-.66-.02-1.31-.03-1.97-.05-.54-.4-.51-1.39-1.44-1.38h.01c-.09-1.53-.77-2.72-2.12-3.51h.09c-.59-2.42-2.07-4.4-3.16-6.57-.8-1.59-2.6-1.42-4.02-1.74-7.74-1.72-15.5-3.28-23.24-5-7.96-1.77-15.88-3.73-23.93-5.08-1.59-.27-2.88-.93-3.46-2.56-.7-1.97-2.26-3.53-2.72-5.61.71,0,1.43,0,2.14,0Z"/>
      <path class="cls-7" d="M104.55,144.85c1.4,2.81,2.91,5.57,4.15,8.45,1.02,2.36,2.69,3.66,5.09,4.31,3.92,1.07,7.81,2.25,11.73,3.33,4.59,1.26,9.17,2.59,13.81,3.62,2.78.62,3.01,2.9,3.89,4.84-.13.19-.22.4-.28.63-1.39.12-2.65.1-4.01-.62-5.59-2.93-11.75-4.14-17.82-5.62-2.97-1.64-6.33-2.21-9.46-3.41-1.32-.51-2.5-1.02-3.32-2.34-2.57-4.18-4.46-8.66-6.25-13.2,0,0,0,0,0,0,.82,0,1.65.01,2.47.02Z"/>
      <path class="cls-4" d="M126.83,246.58c1.15.63,2.16,1.54,3.57,1.58-.82.99-1.98.8-2.91.52-6.46-1.92-12.88-3.94-18.9-7.03.4-1.7,1.83-1.95,2.86-2.56,5.3-3.14,10.65-6.21,15.99-9.31.66.01,1.31.02,1.97.03,2,1.43,4.42,2.01,6.55,3.17.82.44,1.5.35,2.28-.12,4.37-2.64,8.76-5.25,13.14-7.86,2.52-.4,2.09-2.69,2.74-4.29,1.17,3.4,1.08,3.99-1.73,5.74-3.67,2.28-7.44,4.37-11.15,6.57-4.19,2.5-4.27,2.69-8.85.53-2.81-1.32-5.13-.92-7.57.59-2.68,1.65-5.41,3.22-8.1,4.86-.65.39-1.62.5-1.67,1.83,3.88,1.89,7.84,3.82,11.8,5.75Z"/>
      <path class="cls-4" d="M160.3,257.31c1.33,1.03,2.9.42,4.35.64-.68,1.01-1.86,1-2.81,1.11-5.23.58-10.39-.32-16.45-.52,4.23-5.76,8.58-10.31,12.95-14.84,2.07.05,4.15.1,6.22.14.8.01,1.8.22,2.28-.5,1.63-2.47,4.42-3.96,5.59-6.79.21-.14.42-.28.63-.43.43-.05.65-.26.58-.71l1.74-2c1.76.46,1.03,1.45.49,2.38-1.31,2.26-3.63,3.72-4.95,5.87-1.93,3.15-4.52,4.09-7.97,3.67-1.24-.15-2.61-.37-3.67.67-2.89,2.83-5.49,5.91-8.08,9.36,3.16,1.18,6.09,1.73,9.09,1.94Z"/>
      <path class="cls-3" d="M214.55,230.53c.71,2.05.95,4.18,1.11,6.33-.83,1.14-1.96,1.43-3.33,1.38-2.31-.08-4.63,0-6.95.02-1.84-.11-3.04-1.48-4.52-2.3-1.07-.59-1.14-1.62-1.06-2.69,1.47-1.06.76-2.48.55-3.76-.69-4.06-1.45-8.12-1.17-12.27,1.07.77.17,2.21,1.08,3.12,1.24.09.74-1.94,2.05-1.78.15.5.3.99.45,1.49-.13,1.19-.27,2.37.46,3.44.45.86.51,1.75.2,2.67-.25,1.31-.31,2.59.54,3.74-.15.87-.24,1.74.08,2.6-.29,1.71.06,2.96,2.11,3.16,1.14.11,2.26.44,3.41.52,3.34.23,3.69-.37,2.26-3.68.17-.69.34-1.38.51-2.08.15-.18.27-.37.36-.58.55-.51.72-1.44,1.68-1.49.07.72.14,1.44.2,2.16Z"/>
      <path class="cls-4" d="M178.78,189.07c-1.95-3.14-3.1-6.64-4.6-9.99-.9-2.01-.68-2.17,1.93-2.61,1.13,1.54,1.55,3.38,2.16,5.13,1.02,2.96,2.7,5.34,5.2,7.27,5.27,4.06,10.41,8.3,15.66,12.39,1.32,1.03,1.85,2.03.8,3.5-.81-.87-1.99-1.01-2.97-1.54-.19-.29-.32-.65-.58-.85-5.83-4.48-11.47-9.21-17.59-13.31Z"/>
      <path class="cls-3" d="M196.88,214.52c-.64-.09-1.27-.17-1.91-.26-.09-1.23-1.14-1.69-1.94-2.3-5.08-3.86-10.18-7.69-15.23-11.49-1.48.6-2.34,1.74-3.41,2.62-2.15,1.77-3.7,4.16-5.99,5.78-.59-.06-1.19-.12-1.58-.66.43-1.35,2.31-1.89,2.03-3.63.92.06,1.5-.54,2.09-1.1,1.53-1.43,3.08-2.84,4.56-4.33,1.21-1.22,2.39-1.25,3.69-.2.63.51,1.3.98,1.96,1.46,4.79,3.49,9.57,6.98,14.36,10.47.55.54,1.09,1.07,1.64,1.61-.09.67-.18,1.35-.27,2.02Z"/>
      <path class="cls-3" d="M176.57,224.92c-.39.93-1.94.9-1.82,2.24-.13.18-.23.38-.29.59-.85,0-1.72-.05-2.13.94-.48.19-.96.38-1.43.57-2.63.08-4.45,2.04-6.7,3-.61.26-1.1,1.23-1.27,1.95-.36,1.53-1.13,2.99-.98,4.64-.21.7-.74.87-1.39.87-1.23-.93-.74-2.27-.8-3.45-.07-1.46-.02-2.93-.03-4.4,4.94-3.36,10.09-6.39,15.4-9.12.07,1,.49,1.77,1.45,2.18Z"/>
      <path class="cls-1" d="M117.57,208.76c.26,1.42,1.46,2.47,1.55,3.96-.66.36-.87,1-1.02,1.68-1.13-.96-.93-2.82-2.41-3.54-.3-.24-.6-.49-.91-.73,0,0,.09.03.09.03-1.69-1.36-3.79-1.36-5.77-1.69-2.52-.42-5.04-1.03-7.58-1.08-3.92-.08-6.28-1.8-7.19-5.58.52-.03,1.04-.06,1.56-.1,1.28,1.93,2.9,3.26,5.39,3.09.24.29.52.36.87.2l4.19.36c2.35,1.08,4.96.75,7.41,1.33,1.51.36,2.93.68,3.82,2.08Z"/>
      <path class="cls-4" d="M170.89,229.26c.48-.19.96-.38,1.43-.57.64,2.32,1.19,4.64-.68,6.71-.96.32-1.45,1.17-2.01,1.89-2.14,2.71-4.65,4.53-8.33,3.84-.28-.03-.55-.07-.83-.1.02-.43.05-.86.07-1.3.65,0,1.19-.17,1.39-.87,2.98-3.2,5.97-6.39,8.96-9.59Z"/>
      <path class="cls-4" d="M168.41,208.87c2.29-1.62,3.84-4.01,5.99-5.78,1.07-.88,1.93-2.02,3.41-2.62,5.04,3.8,10.15,7.62,15.23,11.49.8.61,1.85,1.07,1.94,2.3-.08.23-.16.46-.24.69-2.29-1.55-4.57-3.09-6.72-4.87-2.84-2.34-5.79-4.58-8.91-6.56-1.23-.78-1.95-.73-2.92.28-1.19,1.24-2.56,2.32-3.85,3.46-1.12.86-2.28,1.67-2.86,3.03-.88-.09-1.32-.5-1.06-1.43Z"/>
      <path class="cls-1" d="M142.94,170.02c.05-.23.15-.43.28-.63,1.04.04,2.09.08,3.13.12,1.42,3.69,2.84,7.37,4.26,11.06-1.51.69-2.27,1.86-2.24,3.52-.14.03-.28.06-.42.07-.74-.92-1.82-1.17-2.87-1.48,0-.64-.02-1.27-.03-1.91,1.07-.13,2.45.1,1.67-1.82-.54-1.35-.9-2.77-1.7-4-.1-1.31-.99-2.28-1.48-3.43.02-.21,0-.42-.06-.62.01-.37-.12-.65-.5-.77l-.05-.11Z"/>
      <path class="cls-1" d="M202.75,220.07c-.15-.5-.3-.99-.45-1.49.14-.25.29-.5.43-.76,1.46.07,2.93.2,4.39.18,1.06-.01,2.29.55,3.09-.69.78-.67,1.58-.58,2.4-.07,1.1,3.63,1.54,7.35,1.73,11.12-.95.06-1.13.98-1.68,1.49-.3-.74-.02-1.66-.73-2.26-.09-.42-.17-.85-.26-1.27.08-.78.21-1.59-.58-2.13.07-.46.13-.93.2-1.39.08-.07.23-.17.21-.2-.07-.17-.18-.32-.27-.48-.11-1.48-1.14-1.83-2.37-1.88-2.04-.08-4.09-.12-6.13-.18Z"/>
      <path class="cls-3" d="M204.68,205.13c.22-1.37-.53-2.89.68-4.09-.04,1.04-.11,2.04,1.34,2.24,1.43.2,2.8.88,4.3.57,2.14.02,4.32.41,6.37-.6,1.51.03,2.67-.26,2.13-2.21,1.19,1.22.41,2.75.63,4.12-3.57,1.51-7.32,1.54-11.09,1.31-1.31-.92-3.04-.46-4.36-1.34Z"/>
      <path class="cls-5" d="M217.37,203.25c-2.05,1.01-4.23.62-6.37.6-.73-2.01-1.15-4.07-.49-6.16.44-1.39-.29-1.93-1.36-2.35.48-.62.91-1.31,1.84-1.29,3.03,2.44,4.72,5.8,6.38,9.19Z"/>
      <path class="cls-4" d="M209.04,206.47c3.78.23,7.52.2,11.09-1.31.97.12,1.19.83,1.47,1.63,1.11,3.11,1.37,6.38,1.92,9.6-1.27-.03-1.8-.79-2.06-1.94-.34-1.46-.85-2.89-1.21-4.35-.4-1.65-1.37-2.2-3.04-2.12-3.01.15-6.04.12-9.05.17-1.06-1.27.17-1.34.88-1.67Z"/>
      <path class="cls-5" d="M115.69,210.85c1.48.72,1.28,2.58,2.41,3.54.5,1.17.99,2.34,1.49,3.51-.25.1-.5.2-.76.3-.38-.11-.76-.22-1.14-.33-.86-3.86-1.16-4.18-4.86-4.2-1.51,0-2.92-.4-4.37-.68-.15-1.02-.3-2.03-.47-3.19,2.36-.6,4.58.92,6.87.35,0,0-.09-.03-.09-.03.12.47.47.65.91.73Z"/>
      <path class="cls-1" d="M150.7,197.5c-1.36-1.69.16-2.52,1.07-3.52,1.52,2.37,1.55,5.32,3.02,7.7-1.11.13-2.09.52-2.79,1.44-1.85-.19-3.01,1.04-4.25,2.09-.81-.07-1.39.43-2.03.79-.51-.15-1.14.1-1.55-.45.63-.9,2.32-.83,2.21-2.4,1.73-1.11,3.53-2.13,5.16-3.36,1.37-1.04,1.18-1.42-.83-2.27Z"/>
      <path class="cls-7" d="M161.3,241.12c3.69.69,6.2-1.13,8.33-3.84.56-.72,1.05-1.57,2.01-1.89.47.24.72.63.77,1.15-1.16,2.83-3.96,4.32-5.59,6.79-.47.72-1.47.51-2.28.5-2.07-.04-4.15-.09-6.22-.14.28-.59.9-.51,1.39-.71,2.27.05,2.3,0,1.58-1.87Z"/>
      <path class="cls-7" d="M209.04,206.47c-.71.34-1.94.4-.88,1.67.08,1.61-.37,3.3.74,4.75-1.44.34-2.78-.75-4.23-.32-1.57-.25-2.78-.74-1.56-2.63.94-1.47.35-3.44,1.57-4.81,1.32.88,3.05.42,4.36,1.34Z"/>
      <path class="cls-7" d="M209.15,195.35c1.07.42,1.8.96,1.36,2.35-.66,2.09-.24,4.15.49,6.16-1.5.31-2.87-.37-4.3-.57-1.46-.2-1.39-1.2-1.34-2.24,1.35-1.84,1.85-4.25,3.8-5.69Z"/>
      <path class="cls-7" d="M197.14,212.5c-.55-.54-1.09-1.07-1.64-1.61-.07-2.66.96-5.11,1.46-7.66.98.54,2.16.68,2.97,1.54.12,2.4-.57,4.7-.82,7.05-.16,1.54-1.12,1.01-1.97.68Z"/>
      <path class="cls-3" d="M70.36,196.85c-.84-.05-1.68-.09-2.52-.14-.91-.68-1.93-.69-2.98-.47,0,0,0-.15,0-.15-.16-2.66-.93-5.15-2.06-7.54.67.02,1.34.05,2.01.07.83.83,1.95.32,2.89.62.51.64,1.46.93,1.51,1.93-.68,0-1.37-.02-2.05.01-.54.02-1.27-.09-1.38.64-.14.89.76.98,1.3,1.33.38,2.01,2.09,1.42,3.34,1.72.12.31.14.74.37.91,1.24.94-.08.79-.42,1.06Z"/>
      <path class="cls-4" d="M217.37,203.25c-1.66-3.38-3.35-6.75-6.38-9.19,2.06-.88,3.55.12,4.93,1.48,1.59,1.58,2.44,3.63,3.58,5.5.54,1.94-.62,2.24-2.13,2.21Z"/>
      <path class="cls-3" d="M204.66,212.58c1.45-.43,2.79.65,4.23.32.79.3,1.58.6,2.37.9.14.2.29.4.43.59.06.41.28.69.65.87.09.67.18,1.33.27,2-.82-.51-1.62-.6-2.4.07-.67-.65-.92-1.65-2.21-1.72-1.78-.1-3.53-.74-5.35-.41.48-1.02,2.48-.86,2.02-2.61Z"/>
      <path class="cls-4" d="M202.65,215.19c1.83-.33,3.57.31,5.35.41,1.3.07,1.54,1.07,2.21,1.72-.8,1.24-2.03.68-3.09.69-1.46.02-2.93-.11-4.39-.18-.09-.22-.19-.44-.28-.66.16-.22.15-.44,0-.65l.19-1.33Z"/>
      <path class="cls-3" d="M146.41,218c1.15-.53,2.16-1.36,3.48-1.5.96.5,2.11.81,2.18,2.2-.01.26-.03.51-.04.77-.3-.12-.61-.24-.91-.36-.43-.66-.78-.44-1.1.1-.29.08-.59.15-.88.23-.98-.33-2.57.49-2.73-1.42Z"/>
      <path class="cls-1" d="M152.03,219.46c.01-.26.03-.51.04-.77.19-.01.39-.03.58-.04.04.54.12,1.07.68,1.35.15.05.29.05.45.02.12.23.23.46.34.69-.65,1.6-.22,3.89-2.74,4.29-.06-.74-.11-1.47-.17-2.21.84-.97.66-2.2.82-3.34Z"/>
      <path class="cls-2" d="M104.55,144.85c-.82,0-1.65-.01-2.47-.02,0-1.07,0-2.13,0-3.2,1.99.18,2.14,1.77,2.48,3.22Z"/>
      <path class="cls-3" d="M161.3,241.12c.72,1.88.69,1.92-1.58,1.87.25-.66.5-1.32.75-1.97.28.03.55.07.83.1Z"/>
      <path class="cls-3" d="M63.47,196c-1.26.08-2.53.2-3.69-.47,1.25-.02,2.56-.51,3.69.47Z"/>
      <path class="cls-7" d="M118.83,218.2c.25-.1.5-.2.76-.3.28.11.38.34.17.47-.32.21-.66.12-.93-.17Z"/>
      <path class="cls-3" d="M153.32,220c-.56-.29-.64-.81-.68-1.35.24-.02.48-.04.72-.05-.01.47-.03.94-.04,1.41Z"/>
      <path class="cls-3" d="M202.45,216.52c.16.22.16.43,0,.65-.08-.16-.18-.31-.23-.47-.01-.03.15-.12.23-.18Z"/>
      <path class="cls-5" d="M107.05,139.99c.38.15.64.38.56.84-.48-.08-.56-.44-.56-.84Z"/>
      <path class="cls-3" d="M158.33,232.63c.22-.16.44-.31.66-.47-.22.16-.44.31-.66.47Z"/>
      <path class="cls-4" d="M326.19,222.04c1.33.6,2.49,1.72,4.14,1.38.66.81,1.58,1.22,2.53,1.57,0,0,0,.25,0,.25l.25-.03c1.3,1.26,3.34,1.53,4.32,3.21-3.89,2.6-7.37,1.84-11.03-.82-2.78-2.02-6.04-3.4-9.08-5.06-.35-1.02-.36-2.04-.11-3.32,2.5.24,4.5,1.91,6.89,2.02.44.94,1.24.95,2.1.81Z"/>
      <polygon class="cls-1" points="333.09 225.21 332.85 225.23 332.85 224.99 333.05 225.02 333.09 225.21"/>
      <path class="cls-4" d="M152.03,219.46c-.16,1.14.02,2.37-.82,3.34-3.94,1.76-7.53,4.15-11.27,6.26-3.52,1.98-4.92,1.81-8.24-1.23.26-.27.52-.53.79-.8,1.86-.53,3.15-1.98,4.75-2.93.64.26,1.11.1,1.38-.56l.1-.05c2.7-.55,5.57-.61,7.72-2.71.99-.29,2.02-.5,2.72-1.37.29-.08.59-.15.88-.23.37-.03.73-.07,1.1-.1.3.12.61.24.91.36Z"/>
      <path class="cls-7" d="M131.69,227.83c3.33,3.03,4.73,3.21,8.24,1.23,3.74-2.11,7.33-4.5,11.27-6.26.05.74.11,1.47.17,2.21-4.38,2.62-8.77,5.22-13.14,7.86-.77.47-1.46.56-2.28.12-2.13-1.16-4.55-1.73-6.55-3.17,1.23-.13,1.29-1.59,2.29-1.99Z"/>
      <path class="cls-1" d="M137.23,224.1c-1.6.95-2.9,2.4-4.75,2.93-.21-.92.31-1.53.93-2.05,1.59-1.35,2.66-3.08,3.74-4.81,3.15.25,3.25.46,1.56,3.33,0,0-.1.05-.1.05-.59-.14-1.06.02-1.38.56Z"/>
      <path class="cls-4" d="M375.2,162.4c2.79-4.99,5.61-9.96,8.34-14.98.76-1.39,1.88-1.87,3.33-2.17,9.24-1.96,18.47-4,27.7-5.99,7.75-1.67,15.51-3.3,23.26-4.94-.05,1.98-1.73,1.93-2.97,2.29-5.57,1.59-11.19,3-16.89,4.07-2.5.47-5,.98-7.49,1.53-1.29.29-2.33.92-2.92,2.23-1.62,3.59-3.23,7.19-5.01,10.71-.65,1.29.43,1.6.82,2.33-4.47.76-8.93,1.53-13.4,2.29.96-2.18,1.73-4.41,3.08-6.45,1.62-2.45,3.09-5.07,3.98-8.3-3.3.37-6.15,1.23-9.06,1.8-2.2.43-3.53,1.59-4.43,3.47-1.32,2.72-2.88,5.3-4.51,7.85-.81,1.26-1.55,2.6-1.74,4.15-.7.04-1.41.09-2.11.13Z"/>
      <path class="cls-1" d="M430.86,152.7c-1.32,1.44-2.44,3-2.79,4.97-.2,1.1-1.04,1.73-1.64,2.55-.79,1.09-.6,1.9.75,2.31-1.04.75-2.25.48-3.39.59-.71-.46-.55-1.2-.59-1.88,1.99-1.28,3.34-3.07,4.1-5.31-.41-.85-.89-.63-1.39-.09-.42.02-.85.05-1.27.07,0-.6,0-1.2,0-1.8,1.96-.97,4.1-1.12,6.21-1.42Z"/>
      <path class="cls-1" d="M305.16,155.41c1.79-.09,3.2,1.12,3.34,2.87.15,1.86-1.22,3.38-3.13,3.46-1.82.08-3.22-1.09-3.39-2.82-.16-1.69,1.4-3.42,3.17-3.51ZM305.2,160.27c1.06-.01,1.51-.62,1.51-1.54,0-.88-.42-1.61-1.35-1.74-.94-.12-1.55.42-1.64,1.36-.1,1.08.45,1.73,1.48,1.91Z"/>
      <path class="cls-3" d="M351.27,150.46c-1.75-.09-3.21-1.78-3.06-3.57.12-1.54,1.46-2.68,3.11-2.65,1.78.03,3.15,1.65,3.01,3.54-.12,1.57-1.48,2.77-3.05,2.68ZM351.45,146.19c-.77.07-1.34.37-1.3,1.23.05.97.71,1.46,1.58,1.36.71-.08,1.16-.69,1.12-1.48-.04-.88-.67-1.08-1.4-1.12Z"/>
      <path class="cls-5" d="M362.63,205.31c-1.98,1.11-4.25.91-6.36,1.19-3,.4-5.22,1.41-6.27,4.37-.2.25-.39.49-.59.74,0,0,0,.04,0,.04-1.55.1-2.44-.75-2.72-2.13-.4-2-1.8-2.4-3.39-2.1-6.16,1.15-12.51.18-18.63,1.74-1.89.48-3.66-.32-5.33-1.05-1.21-.53-2.4-.83-3.71-.74,1.75-4.43,1.83-4.56,5.8-2.18,3.27,1.96,6.61,1.02,9.86.55,6.91-1,13.83-1.92,20.78-2.63,3.58-.37,7.12-1.2,10.74-1.23-.06,1.14-.12,2.28-.18,3.43Z"/>
      <path class="cls-4" d="M362.63,205.31c.06-1.14.12-2.28.18-3.43,3.08-.22,6.08-1.14,9.34-.95.04,1.51-1.12,2.38-1.81,3.48-2.58.26-5.09,1.02-7.71.9Z"/>
      <path class="cls-1" d="M396.37,197.32c-1.12.09-2.23.18-3.34.27.89-1.3,2.26-.5,3.39-.77,0,0,.03.04.03.04-.07.15-.09.31-.08.47Z"/>
      <path class="cls-4" d="M424.64,155.92c.42-.02.85-.05,1.27-.07.46.03.92.06,1.39.09-.75,2.24-2.1,4.02-4.1,5.31-2.15-.14-4.1.78-6.15,1.17-17.89,3.41-35.77,6.87-53.67,10.25-10.33,1.95-20.54,4.45-30.91,6.21-2.82.48-5.77.63-8.44,1.87-.88-.03-1.76-.05-2.65-.08-.01-.23-.03-.47-.04-.7.99-2,1.39-4.35,3.38-5.77,4.47-.75,8.94-1.47,13.4-2.25,18.8-3.32,37.51-7.15,56.33-10.39,9.4-1.62,18.76-3.52,28.2-4.98.68-.1,1.32-.44,1.98-.66Z"/>
      <path class="cls-5" d="M436.52,130.88c-.06,1.61-1.36,1.74-2.47,1.97-13.46,2.84-26.93,5.64-40.4,8.48-2.39.5-4.75,1.2-7.16,1.61-2.51.43-4.17,1.72-5.32,3.98-2.54,5-5.21,9.93-7.82,14.89-1.75,2.36-4.54,2.21-6.97,2.66-11.2,2.06-22.51,3.54-33.61,6.16-.92.22-1.83.35-2.8-.06-.1-1.49.84-2.16,2.01-2.42,7.53-1.7,14.68-4.56,21.96-7.04.32-.11.7-.05,1.05-.08.83,1.61,2.11,1.65,3.57,1,3.9-1.73,7.41-4.25,11.54-5.51.58-.18.87-.75,1.11-1.29,1.84-4.11,3.68-8.22,5.52-12.33,17.66-4.12,35.52-7.27,53.24-11.08,2.12-.46,4.28-1.17,6.54-.94Z"/>
      <path class="cls-5" d="M377.31,162.27c.19-1.55.93-2.89,1.74-4.15,1.63-2.55,3.19-5.12,4.51-7.85.91-1.88,2.23-3.03,4.43-3.47,2.91-.57,5.77-1.43,9.06-1.8-.89,3.22-2.36,5.85-3.98,8.3-1.35,2.04-2.12,4.27-3.08,6.45-4.23.84-8.45,1.68-12.68,2.52Z"/>
      <path class="cls-2" d="M376.74,142.9c-1.84,4.11-3.68,8.22-5.52,12.33-.24.54-.54,1.12-1.11,1.29-4.12,1.26-7.64,3.78-11.54,5.51-1.45.65-2.74.61-3.57-1,.38-.24.74-.65,1.15-.71,4.21-.6,5.91-3.64,7.26-7.16,1.09-2.82,2.39-5.56,3.6-8.34,3.24-.64,6.49-1.28,9.73-1.93Z"/>
      <path class="cls-5" d="M325.49,171.56c-.11-.22-.12-.45-.04-.68.84.15,1.58-.85,2.61-.18-.6,1.25-1.77.55-2.57.86Z"/>
      <path class="cls-5" d="M404.15,188.41c-4.57,1.24-9.33,1.3-13.95,2.24-1.78-.52-3.41.83-5.18.42-.91-1.07-2.25-.2-3.54-.87,1.04-3.5,3.04-6.6,4.68-9.86.41-.82,1.24-.9,2.07-1.06,4.68-.89,9.34-1.92,14.04-2.73,1.43-.25,2.4-.81,2.98-2.06,1.95-4.2,5.33-5.89,9.84-6.57,6.42-.98,12.71-2.8,19.21-3.46l.16.16c.23,1.95-.81,3.57-1.52,5.22-1.53,3.57-3.01,7.17-5.29,10.37-1.25-1.79-1.5-3.63-.25-5.53.42-.64.64-1.24,0-1.86-.46-.45-1.11-.7-1.59-.38-2.32,1.51-4.97.95-7.47,1.37-1.64.27-3.33.61-4.48,2.29-.75,1.1-2.06,2.35-3.25,2.49-2.75.34-3.21,2.57-3.82,4.29-.7,1.97-2.68,3.28-2.64,5.54Z"/>
      <path class="cls-7" d="M324.03,180.75c2.67-1.24,5.62-1.38,8.44-1.87,10.37-1.77,20.58-4.26,30.91-6.21,17.89-3.38,35.78-6.84,53.67-10.25,2.05-.39,4-1.31,6.15-1.17.04.67-.12,1.41.59,1.88-3.39,1.24-6.96,1.81-10.5,2.3-3.79.52-6.89,1.69-8.44,5.48-.26-.56-.52-1.13-.78-1.69,0-.84.54-2.04-1.21-1.66-1.48.32-2.98.55-4.47.84-9.17,1.77-18.36,3.44-27.5,5.35-4.33.91-8.77,1.36-12.98,2.82-.77,0-1.55-.09-2.18.51-1.4-.11-2.77.12-4.14.4-8.74,1.77-17.43,3.77-26.24,5.17-.44-.63-.88-1.27-1.32-1.9Z"/>
      <path class="cls-1" d="M355.73,177.08c.62-.6,1.41-.51,2.18-.51-.1.39-.19.78-.29,1.18-.76.77-1.27,1.61-.97,2.71.62.34,1.18.19,1.76.08,5.84-1.11,11.69-2.19,17.53-3.29,7.67-1.45,15.36-2.87,23.01-4.44,1.33-.27,3.21.03,3.75-1.96.45-.54.91-1.08,1.36-1.62.26.56.52,1.13.78,1.69-.92,2.74-2.99,3.68-5.72,4.17-13.86,2.48-27.69,5.13-41.54,7.73-1.39.26-2.76.59-3.41,2.08-.83,1.27-1.49,2.61-1.35,4.19h.01c-.57-.11-.65.28-.71.7h0c-1.19,1.16-1.85,2.65-2.62,4.07-.24-.78-.85-1.09-1.59-1.24.04-.45.08-.89.13-1.34,1.57-2.14,2.55-4.58,3.58-7,.68-1.37,1.94-2.44,2.15-4.07.97-.84,1.48-1.98,1.95-3.13Z"/>
      <path class="cls-2" d="M354.26,186.68c1.14-1.46,2.76-2.04,4.48-2.36,4.06-.75,8.14-1.45,12.21-2.15.32-.05.67.06,1.16.12-.19,1.34-.73,2.41-1.65,3.31-1.17-.16-1.84.43-2.56,1.34-1.8,2.27-4.16,3.6-7.15,3.57-.94-.01-1.83.08-2.61.71-1.31,1.06-2.87.62-4.34.68-1.48.05-1.59-1.02-1.67-2.1,0,0,0,0,0-.01.24-.24.47-.47.71-.71,0,0-.01.01-.01.01.91-.55,1.26-1.42,1.43-2.4Z"/>
      <path class="cls-5" d="M352.13,189.79c.07,1.08.19,2.15,1.67,2.1,1.47-.05,3.03.38,4.34-.68.77-.63,1.67-.72,2.61-.71,2.99.04,5.35-1.3,7.15-3.57.71-.9,1.39-1.49,2.56-1.34-.19,1.54-1.26,2.64-1.95,3.94-.63,1.18-1.59,2.26-1.56,3.73-4.94.68-9.87,1.4-14.82,2.02-1.11.14-2.78.89-2.61-1.44.76-1.42,1.43-2.91,2.62-4.06Z"/>
      <path class="cls-5" d="M354.26,186.68c-.17.98-.52,1.86-1.43,2.4-.14-1.59.52-2.92,1.35-4.19.03.6.05,1.19.08,1.79Z"/>
      <path class="cls-5" d="M434.29,164.46c.13-.07.25-.15.38-.22-.07.13-.15.25-.22.38,0,0-.16-.16-.16-.16Z"/>
      <path class="cls-5" d="M314.9,220.06c.18.91.3,1.83.09,2.75-1.66,1.75-.43,2.68,1.06,3.37,3.81,1.77,7.56,3.83,10.79,6.37,3.56,2.81,6.55,3.22,10.23.74,1.53-1.03,3.34-.91,5,0,3.87,2.1,7.8,4.1,11.77,7.2-4.1,2.47-8.28,4.11-12.21,6.19.04-1.02-.72-1.38-1.45-1.76-10.78-5.58-20.42-13.05-31.14-18.74-.19-.1-.32-.33-.48-.49.14-2.61,2.35-3.93,3.65-5.81.9.06,1.79.13,2.69.19Z"/>
      <path class="cls-2" d="M312.21,219.86c-1.3,1.89-3.51,3.2-3.65,5.81-1.55-.99-3.07-2.02-4.65-2.96-1.35-.81-1.77-1.49-.47-2.87,2.88-3.03,2.88-3.12,6.7-1.2.71.36,1.38.81,2.07,1.21Z"/>
      <path class="cls-5" d="M391.52,210.85c-3.63-.37-7.15.99-10.78.73-1.16-.08-2.34.12-3.47-.27.3-3.13,2.25-5.57,3.43-8.33.36-.83,1.1-1.01,1.91-1.3,2.8-.98,5.75-.63,8.61-1.13,4.89-.87,9.86-1.36,14.77-2.23,1.01-.18,2.07-.03,3.11-.03-.35,2.42-3.29,7.13-6.95,11.16-1.39.21-2.77.42-4.16.63-.09-1.62-.75-2.88-2.37-3.41-2.5-.81-3.98.72-4.11,4.17Z"/>
      <path class="cls-7" d="M396.37,197.32c-.02-.16,0-.32.08-.47.7.01,1.4.03,2.11.04-.64.58-1.39.6-2.18.43Z"/>
      <path class="cls-7" d="M392.93,192.47c1.31-.98,2.79-.59,4.22-.48-1.33.81-2.78.66-4.22.48Z"/>
      <path class="cls-2" d="M331.14,200.15c1.01-.89,2.21-.54,3.36-.49-1,.95-2.19.64-3.36.49Z"/>
      <path class="cls-2" d="M336.76,199.48c1.07-.89,2.3-.54,3.49-.43-1.09.8-2.29.6-3.49.43Z"/>
      <path class="cls-2" d="M326.22,200.88c.8-.8,1.77-.58,2.73-.48-.79.82-1.76.65-2.73.48Z"/>
      <path class="cls-2" d="M324.09,200.96c.21-.33.43-.4.69-.06-.23.02-.46.04-.69.06Z"/>
      <path class="cls-5" d="M353.78,180.21c-.2,1.63-1.47,2.69-2.15,4.07-2.19.3-4.4.89-6.58.81-1.38-.05-2.45-.01-3.53.85-2.59,2.06-5.61,2.92-8.84,2.42-2.84-.44-5.1,1.3-7.72,1.61-.51.06-.72.53-.81,1.01-.23,1.25.95,3.47,2.16,3.62,2.64.32,5.39.95,7.92.48,3.23-.6,6.68-1.19,9.34-3.48,1.48-1.28,2.91-1.28,4.47-.32-.04.45-.08.89-.13,1.34-.73.49-.91,1.34-1.26,2.05-.46.94-1.13,1.35-2.16,1.47-5.86.7-11.73,1.39-17.58,2.24-2.38.35-3.88-1.17-5.66-2.13-.73-.39-.46-1.18-.23-1.88.61-1.88,1.13-3.79,2.12-5.52.72-1.25,1.04-2.58.98-4.01.92-.04,1.87.03,2.76-.15,6.34-1.21,12.65-2.61,19.01-3.64,2.58-.42,5.14-1.53,7.85-.84Z"/>
      <path class="cls-4" d="M353.78,180.21c-2.71-.69-5.27.42-7.85.84-6.37,1.04-12.67,2.43-19.01,3.64-.9.17-1.84.1-2.76.15-.11-.5-.23-1-.34-1.5,0,0,.22-.2.22-.2.41.21.59-.07.76-.35.2-.01.39-.06.57-.15,8.81-1.4,17.5-3.4,26.24-5.17,1.37-.28,2.74-.51,4.14-.4-.47,1.16-.98,2.29-1.95,3.13Z"/>
      <path class="cls-1" d="M325.36,182.65c-.18.08-.37.13-.57.15-.33-.05-.6.04-.76.35,0,0-.22.2-.22.2-.87-.02-1.74-.04-2.61-.06.06-.87.13-1.74.19-2.61.88.03,1.77.05,2.65.08.44.63.88,1.27,1.32,1.9Z"/>
      <path class="cls-2" d="M270.39,216.47c.1-.23.2-.46.31-.69.61-.2,1.07-.79,1.79-.69,1.26-.12,2.36-.43,3.45-1.28,3.74-2.92,7.6-5.7,11.48-8.45,1.3-.92,2.5-2.44,4.09-2.43,1.33.01,2.08,1.71,3.17,2.57.72.57,1.65.88,2.15,1.72-1.41.29-2.49,1.13-3.65,1.93-6.36,4.39-12.73,8.78-19.01,13.64-1.26-2.08-.19-4.25-.85-6.32h-2.93Z"/>
      <path class="cls-4" d="M296.82,207.22c-.51-.84-1.43-1.16-2.15-1.72-1.09-.86-1.84-2.56-3.17-2.57-1.58-.01-2.78,1.5-4.09,2.43-3.88,2.75-7.73,5.53-11.48,8.45-1.09.85-2.18,1.17-3.45,1.28,2.03-2.61,4.9-4.21,7.46-6.19,3.21-2.48,6.54-4.82,9.73-7.33,1.34-1.05,2.38-1.02,3.54.18,1.6,1.66,3.26,3.28,4.89,4.91.03.23.05.46.04.69-.44-.04-.89-.09-1.33-.13Z"/>
      <path class="cls-3" d="M422.21,183.48c-1.63.07-3.22-1.45-3.18-3.03.04-1.45,1.44-2.99,2.82-3.1,1.61-.12,3.24,1.29,3.33,2.89.09,1.65-1.31,3.17-2.97,3.24ZM423.66,180.67c0-.82-.48-1.28-1.23-1.39-.8-.13-1.35.31-1.52,1.07-.16.73.02,1.46.89,1.55.85.08,1.54-.34,1.85-1.22Z"/>
      <path class="cls-1" d="M391.52,210.85c.13-3.45,1.61-4.98,4.11-4.17,1.62.52,2.28,1.79,2.37,3.41-2.76,2.76-3.43,2.84-6.48.76ZM393.2,209.54c.17.75.66,1.22,1.41,1.07.53-.1,1.04-.51.99-1.18-.07-.82-.67-1.17-1.4-1.07-.56.08-.98.5-1,1.17Z"/>
      <path class="cls-4" d="M265.94,226.35c.03,1.09-.05,2.16-.45,3.18-2.84.8-5.82.21-8.68.88-.22-1.45-.56-2.91.42-4.23,2.9.34,5.81-.36,8.71.17Z"/>
      <path class="cls-4" d="M257.68,222.16c.14-.51.27-1.03.41-1.54,2.57-.23,5.14-.46,7.72-.69,1.08,1.07.19,2.31.31,3.47-2.07.26-4.15.49-6.22.79-1.61.23-1.93-.86-2.22-2.02Z"/>
      <path class="cls-4" d="M264.73,232.55c-.14,3.41-.44,2.75-3.12,3.43-.88.22-1.81.26-2.73.29-3.06.11-3.4-.49-2.18-3.66,2.68-.02,5.35-.04,8.03-.06Z"/>
      <path class="cls-7" d="M257.68,222.16c.29,1.16.61,2.26,2.22,2.02,2.07-.3,4.14-.53,6.22-.79,1.5,1.24,1.49,1.44-.18,2.95-2.89-.53-5.81.16-8.71-.17.34-1.32-.47-2.76.45-4.02Z"/>
      <path class="cls-7" d="M264.73,232.55c-2.68.02-5.35.04-8.03.06.04-.74.07-1.47.11-2.21,2.86-.67,5.84-.08,8.68-.88.17,1.11-.18,2.1-.76,3.02Z"/>
      <path class="cls-7" d="M265.81,219.93c-2.57.23-5.14.46-7.72.69-.18-1.03.12-1.93.74-2.74,2.28.29,4.55-.08,6.83-.11.05.72.09,1.44.14,2.16Z"/>
      <path class="cls-4" d="M305.8,241.25c-4.91-.44-9.9-5.86-9.96-10.81.46-.68.25-2.67,1.87-1.28,3.93,3.39,7.38,7.23,10.28,11.56-.79.57-1.52.41-2.19.53Z"/>
      <path class="cls-2" d="M349.42,211.6c.2-.25.39-.49.59-.74,0,.39-.18.66-.59.74Z"/>
      <path class="cls-7" d="M326.19,222.04c-.86.14-1.66.13-2.1-.81,1.21-1.05,1.91-.76,2.1.81Z"/>
      <path class="cls-1" d="M167,158.68c-.1,1.95-1.27,3.12-3.07,3.09-1.92-.03-3.42-1.56-3.28-3.34.12-1.56,1.75-2.99,3.37-2.96,1.7.03,3.06,1.5,2.98,3.22ZM165.43,158.39c-.21-.9-.77-1.44-1.67-1.37-.9.08-1.46.71-1.4,1.61.06.84.52,1.58,1.47,1.56,1.11-.01,1.51-.81,1.6-1.81Z"/>
      <path class="cls-1" d="M120.94,147.52c-.09,1.79-1.44,3.04-3.19,2.96-1.79-.09-3-1.37-2.99-3.16,0-1.91,1.45-3.25,3.37-3.13,1.63.1,2.9,1.61,2.81,3.34ZM117.61,146.16c-.82.05-1.31.43-1.37,1.26-.06.85.45,1.32,1.19,1.37.94.07,1.51-.48,1.52-1.44,0-.88-.6-1.14-1.35-1.19Z"/>
      <path class="cls-4" d="M145.02,174.96c.8,1.23,1.16,2.65,1.7,4,.77,1.92-.6,1.7-1.67,1.82-4.11-1.31-8.4-1.74-12.6-2.61-13.72-2.82-27.44-5.58-41.21-8.16-14.11-2.64-28.06-6.07-42.25-8.25-3.2-.49-5.8-1.67-6.51-5.41,2.47-.69,4.75.23,6.93.65,15.12,2.92,30.36,5.22,45.46,8.22,14.88,2.95,29.87,5.27,44.71,8.41,1.82.39,3.62.88,5.43,1.32Z"/>
      <path class="cls-4" d="M65.67,170.83c-.2-1.14-1.19-2.02-1.03-3.28,1.57-.51,3.01.2,4.47.49,13.14,2.57,26.28,5.21,39.42,7.77,1.1.21,1.92.78,2.75,1.41.12,1.08.24,2.15.37,3.34-14.4-2.68-28.56-5.32-42.73-7.96-1.27-.24-2.48-.59-3.25-1.76Z"/>
      <path class="cls-1" d="M65.67,170.83c.77,1.17,1.98,1.52,3.25,1.76,14.16,2.64,28.33,5.28,42.73,7.96-.13-1.19-.25-2.27-.37-3.34.66-1.01,1.3-.16,1.95.02.11,1.35,1.22,2.07,1.94,3.03.24,1.47.99,2.71,1.81,3.91,1.28,2.61,2.57,5.23,3.85,7.84.15.9.3,1.8.46,2.7-.54,0-1.09.01-1.63.02-1.26-2.34-2.51-4.69-3.77-7.03-.18-.44-.36-.88-.54-1.31.06-.42-.12-.7-.48-.88-.56-1.83-2.08-2.29-3.71-2.6-12.58-2.39-25.15-4.79-37.73-7.18-1.6-.3-3.2-.61-4.82-.83-2.43-.32-4.15-1.41-4.68-3.95.58-.04,1.16-.08,1.74-.11Z"/>
      <path class="cls-5" d="M78.99,159.79c-1.36-3.97-3.8-7.38-5.7-11.08-.53-1.03-1.24-1.95-1.3-3.46,3.82.25,7.39,1.06,10.88,2.08,1.48.43,2.12,2.06,2.89,3.38.6,1.02.68,2.63,2.45,2.54,0,0-.09.01-.09.01-.07,1.64.01,3.19,2.12,3.52,0,0-.01-.01-.01-.01-.48,2.11,1.54,3.57,1.44,5.58-4.25-.76-8.55-1.24-12.69-2.56Z"/>
      <path class="cls-5" d="M143.49,170.91c.05.2.07.41.06.62-4.69-.07-9.19-1.38-13.77-2.18-9.73-1.71-19.41-3.75-29.16-5.31-3.06-.49-4.96-1.64-5.93-4.49-.18-.55-.49-1.06-1.04-1.36-.74-1.62-1.49-3.24-2.23-4.86,2.93.2,5.82.65,7.78,3.1,1.09,1.36,2.55,2.34,3.44,3.9.44.76,1.24,1.58,2.04,1.82,4.86,1.45,9.74,2.9,14.92,2.38.61-.06,1.13-.24,1.5-.75,6.07,1.48,12.23,2.69,17.82,5.62,1.37.72,2.63.74,4.01.62,0,0,.05.11.05.11-.02.38.2.6.5.77Z"/>
      <path class="cls-4" d="M115.18,180.26c-.72-.96-1.83-1.67-1.94-3.03,2.99-.39,5.75.8,8.6,1.33,7.46,1.39,14.9,2.89,22.34,4.35.08.67.16,1.34.23,2.01-4.76-.48-9.41-1.6-14.1-2.45-5.02-.91-10.01-2-15.14-2.21Z"/>
      <path class="cls-4" d="M91.68,162.35c.1-2.01-1.92-3.47-1.44-5.58.93-.01.91.98,1.44,1.38.6,1.33,1.2,2.67,1.79,3.98-.64.52-1.22.23-1.79.23Z"/>
      <path class="cls-2" d="M144.41,184.91c-.08-.67-.16-1.34-.23-2.01.3-.07.6-.14.9-.22,1.05.31,2.14.56,2.87,1.48-.91.26-1.82.53-2.73.79-.27-.02-.54-.03-.8-.05Z"/>
      <path class="cls-1" d="M62.65,168.18c-.38-.43-.58-.93-.6-1.49,1.15.12,1.78.44.6,1.49Z"/>
      <path class="cls-1" d="M62.08,166.7h-.32s-.29-.13-.29-.13c.3-.4.47-.2.61.13Z"/>
      <path class="cls-5" d="M67.7,189.26c-.94-.3-2.06.2-2.89-.62.33-2.02,2.26-2.54,3.52-3.66,1.8-1.59,1.92-3.36-.24-4.34-2.8-1.27-5.18-3.34-8.55-3.65-3.38-.3-5.54-3.27-8.07-5.27-1.48-1.17-2.66-2.61-4.82-2.31-1.02.14-1.75-.61-2.46-1.2-1.88-1.56-3.75-1.62-5.65-.13-.8.63-1.71.68-2.65.7-.98-1.22-1.26-2.71-1.77-4.43,3.26.06,6.23.85,9.24,1.47,4.79,1,9.58,1.99,14.38,2.87,1.88.34,3.26,1.13,4.07,2.9,1.39,3.07,3.52,4.88,7.13,5.26,3.8.41,7.51,1.6,11.28,2.33,1.27.24,2.18.77,2.78,1.86,1.97,3.57,3.92,7.15,5.88,10.73-1.31.22-2.5-.8-3.83-.34-1.13-.16-2.26-.34-3.4-.48-4.65-.57-9.3-1.14-13.95-1.7Z"/>
      <path class="cls-5" d="M115.89,187.7c1.26,2.34,2.51,4.69,3.77,7.03-.23.44-.6.77-1.09.69-5-.78-10.11-.8-15.03-2.11-2.26-1.28-3.2-3.63-4.5-5.66-1.12-1.75-2.02-3.64-3.18-5.76,4.09.23,7.7,1.56,11.45,2.04,2.65.34,5.19.97,7.48,2.39,0,0-.03-.03-.03-.03.02.76.34,1.27,1.13,1.41Z"/>
      <path class="cls-5" d="M114.86,185.5c.36.19.54.47.48.88-.2,0-.39-.04-.58-.1,0,0,.03.03.03.03.02-.27.05-.54.07-.81Z"/>
      <path class="cls-2" d="M196.96,203.23c-.5,2.55-1.52,5-1.46,7.66-4.79-3.49-9.57-6.98-14.36-10.47-.66-.48-1.33-.95-1.96-1.46-1.3-1.05-2.47-1.03-3.69.2-1.47,1.49-3.03,2.89-4.56,4.33-.59.56-1.17,1.16-2.09,1.1-.5-1.27-1.54-2.04-2.62-2.74-1.19-.77-2.29-1.61-2.99-2.88.89-1.53,3.18-2.03,3.1-4.34-.02-.49.85-.5,1.47-.24,2.78,1.21,2.83,1.21,4.19-1.59,1.39-2.88,3.67-4.05,6.79-3.72,6.12,4.09,11.76,8.83,17.59,13.31.26.2.39.57.58.85ZM168.32,199.38c.56-.13,1-.44.96-1.09-.02-.37-.36-.56-.7-.46-.44.12-.75.45-.84.92-.07.4.17.59.57.63Z"/>
      <path class="cls-1" d="M50.03,180.5c-.06,1.66-1.54,3.11-3.16,3.1-1.69,0-3.55-1.82-3.38-3.29.17-1.45,1.95-3.04,3.4-3.02,1.46.02,3.2,1.79,3.14,3.2ZM46.75,181.84c.78-.17,1.25-.6,1.23-1.4-.02-.88-.62-1.14-1.38-1.09-.77.04-1.34.38-1.21,1.25.11.75.58,1.2,1.35,1.24Z"/>
      <path class="cls-5" d="M154.11,220.72c-.11-.23-.23-.46-.34-.69,2.15-.17,4.02-1.14,5.87-2.12,1.77-.94,3.25-.98,4.68.64.82.93,1.91,1.64,2.85,2.43-.67,1.58-2.18,1.84-3.31,2.6-8.22,5.52-17.07,10-25.24,15.61-3.81,2.62-8.21,4.37-11.79,7.39-3.96-1.93-7.92-3.86-11.8-5.75.06-1.32,1.02-1.43,1.67-1.83,2.69-1.64,5.42-3.21,8.1-4.86,2.44-1.51,4.77-1.91,7.57-.59,4.59,2.15,4.66,1.96,8.85-.53,3.71-2.21,7.49-4.3,11.15-6.57,2.82-1.75,2.91-2.33,1.73-5.74Z"/>
      <path class="cls-1" d="M77.08,210.78c-2.92,2.86-4.03,2.73-6.17-.71.11-.93.28-1.81,1.04-2.5,1.94-1.79,4.42-1.09,5.04,1.47.13.55.06,1.16.09,1.74ZM74.15,208.29c-.71.15-1.29.54-1.23,1.34.05.59.53,1.03,1.17,1.02.8-.02,1.27-.53,1.22-1.31-.03-.62-.48-.99-1.16-1.04Z"/>
      <path class="cls-7" d="M70.36,196.85c.35-.26,1.67-.12.42-1.06-.22-.17-.25-.6-.36-.91,1.05-.26,2.09-.08,3.13.08,10.03,1.57,20.11,2.75,30.18,3.99,9.96,1.22,19.88,2.73,29.85,3.86,4.22.48,8.49,1.94,12.79.32.11,1.57-1.58,1.5-2.21,2.4.41.55,1.04.3,1.55.45-.83,1.03-1.91.58-2.91.46-1.27-.15-2.53-.34-3.79-.51-6.32-.85-12.62-1.75-18.95-2.52-4.83-.59-9.67-1.01-14.51-1.51-2.86-.37-5.73-.72-8.58-1.14-.83-.12-.99.31-1.07.93-.52.03-1.04.06-1.56.1-.89-1.61-2.44-1.92-4.07-2.12-5.98-.72-11.97-1.46-17.95-2.19-.7-.08-1.38-.17-1.95-.64Z"/>
      <path class="cls-7" d="M64.86,196.25c1.05-.22,2.07-.21,2.98.47-1.05.18-2.08.25-2.98-.47Z"/>
      <path class="cls-2" d="M121.11,163.78c-.37.51-.89.69-1.5.75-5.18.52-10.06-.93-14.92-2.38-.8-.24-1.61-1.06-2.04-1.82-.89-1.56-2.36-2.54-3.44-3.9-1.96-2.45-4.85-2.89-7.78-3.1-1.88-2.65-3.32-5.55-4.87-8.39,1.7.04,2.37-1.63,3.69-2.21,4.04.16,7.9,1.37,11.84,2.09,1.79,4.54,3.68,9.02,6.25,13.2.82,1.32,2,1.83,3.32,2.34,3.13,1.21,6.49,1.77,9.46,3.41Z"/>
      <path class="cls-5" d="M90.25,142.74c-1.32.58-1.99,2.25-3.69,2.21-.76-.93-1.74-1.32-2.93-1.6-15.93-3.73-31.97-6.93-47.97-10.33-1.33-.28-2.87-.21-3.28-2,3.45-.49,6.7.74,9.94,1.46,12.58,2.79,25.31,4.85,37.83,7.94,3.35.83,6.81,1.19,10.1,2.32Z"/>
      <path class="cls-5" d="M174.46,167.37c.39.1.58.37.6.77-.2-.26-.4-.51-.6-.77Z"/>
      <path class="cls-5" d="M105.54,201.91c4.84.5,9.69.92,14.51,1.51,6.32.77,12.63,1.68,18.95,2.52,1.26.17,2.53.36,3.79.51,1.01.12,2.08.57,2.91-.46.64-.36,1.22-.86,2.03-.79.83,2.63.8,2.82-1.41,2.84-2.9.02-5.69,1.11-8.62.75-3.43-.42-6.89-.67-10.31-1.12-.94-.12-1.87-.45-2.7.06-2.24,1.4-4.71.98-7.12,1.03-.89-1.4-2.31-1.72-3.82-2.08-2.45-.59-5.06-.26-7.41-1.33-.27-1.15-.53-2.29-.8-3.44Z"/>
      <path class="cls-5" d="M172.33,207.27c1.29-1.15,2.65-2.22,3.85-3.46.97-1.01,1.69-1.06,2.92-.28,3.13,1.99,6.07,4.22,8.91,6.56,2.15,1.77,4.43,3.32,6.72,4.87,0,2.41,0,4.81,0,7.68-6.18-5.05-12.66-8.93-18.76-13.35-1.11-.8-2.16-1.82-3.64-2.01Z"/>
      <path class="cls-5" d="M174.46,227.75c.06-.21.16-.41.29-.59,1.54-.23,2.7.52,3.74,1.49,1.27,1.18,2.44,2.46,4.26,3.35-1.82,2.22-3.5,4.23-5.13,6.27-2.77,3.45-5.83,6.62-9.02,9.67-3.03,2.9-5.7,6.1-8.31,9.36-3.01-.21-5.94-.76-9.1-1.94,2.59-3.46,5.19-6.53,8.08-9.36,1.06-1.04,2.43-.82,3.67-.67,3.46.42,6.04-.52,7.97-3.67,1.32-2.15,3.64-3.62,4.95-5.87.54-.93,1.27-1.92-.5-2.38.08-1.95-.73-3.75-.92-5.66Z"/>
      <path class="cls-1" d="M149.14,219.42c-.7.87-1.73,1.07-2.72,1.37-1.6,0-3.21,0-4.81,0-.04-.13-.08-.26-.12-.38,1.64-.8,3.28-1.61,4.92-2.41.16,1.91,1.74,1.1,2.73,1.43Z"/>
      <path class="cls-4" d="M146.37,203.13c-4.3,1.62-8.56.16-12.79-.32-9.97-1.13-19.89-2.64-29.85-3.86-10.07-1.23-20.15-2.42-30.18-3.99-1.04-.16-2.08-.34-3.13-.08-1.26-.3-2.97.29-3.34-1.72.21-1.96,1.89-.83,2.8-1.34,2.78.28,5.57.57,8.35.85,4.29,1.13,8.74,1.26,13.1,1.9,6.7.98,13.43,1.73,20.15,2.54,7.07.85,14.14,1.66,21.21,2.47,2.43.28,4.92.29,7.29.83,2.83.65,5.27.07,7.67-1.3,1-.57,2.27-.62,3.04-1.62,2.01.85,2.2,1.23.83,2.27-1.63,1.24-3.43,2.25-5.16,3.36Z"/>
      <path class="cls-2" d="M120.83,192.01c-1.28-2.61-2.57-5.23-3.85-7.84,1.01.22,2.01.53,3.04.64,1.13.12,2.54.47,3.27-.58,1.24-1.78,2.61-1.19,4.27-.91,1.69.29,3.11.69,4.22,2.03.54.65,1.28,1.02,2.16.9,3.67-.51,7.34.41,11.01.05.73,1.54,1.47,3.08,1.46,4.84.11,1.71-.57,2.96-2.23,3.5-5.35,1.74-10.44-.29-15.62-1.11-2.22-2.28-4.96-1.94-7.72-1.51Z"/>
      <path class="cls-5" d="M120.83,192.01c2.76-.43,5.49-.77,7.72,1.51,5.18.82,10.27,2.85,15.62,1.11,1.66-.54,2.34-1.79,2.23-3.5,2.5,3.94,1.15,6.71-3.43,7.16-3.41.33-6.72-.55-10.04-.95-2.74-.33-5.53-.45-8.27-1.07-1.32-.3-2.37-.79-3.38-1.57-.15-.9-.3-1.8-.46-2.7Z"/>
      <path class="cls-5" d="M144.94,186.3c-3.67.36-7.33-.56-11.01-.05-.88.12-1.62-.25-2.16-.9-1.11-1.34-2.53-1.75-4.22-2.03-1.66-.28-3.03-.87-4.27.91-.73,1.05-2.14.71-3.27.58-1.02-.11-2.03-.42-3.04-.64-.82-1.21-1.56-2.44-1.81-3.91,5.12.2,10.12,1.3,15.14,2.21,4.69.85,9.34,1.97,14.1,2.45.27.02.54.03.8.05-.09.45-.18.89-.28,1.34Z"/>
      <path class="cls-1" d="M78.23,192.68c-2.78-.28-5.57-.57-8.35-.85-.22-.21-.44-.43-.66-.64-.05-1-1-1.29-1.51-1.93,4.65.57,9.3,1.13,13.95,1.7,1.14.14,2.27.32,3.4.48-2.21.78-4.52,1.01-6.82,1.24Z"/>
      <path class="cls-5" d="M211.7,214.39c-.14-.2-.28-.4-.43-.59,1.36-.65,2.48-.94,3.42.83,1.1,2.07,3.82,3.17,3.65,6.04-.14,2.51-.1,5.05-.45,7.54-.24,1.69-1.61,2.44-3.34,2.33-.07-.72-.14-1.44-.2-2.16-.19-3.77-.64-7.5-1.73-11.13-.09-.66-.18-1.33-.27-2-.04-.42-.26-.71-.65-.86Z"/>
      <path class="cls-4" d="M90.25,156.78c-2.11-.33-2.19-1.88-2.12-3.52,1.35.78,2.03,1.98,2.12,3.52Z"/>
      <path class="cls-1" d="M174.46,227.75c.19,1.91,1,3.71.92,5.66-.58.67-1.16,1.33-1.74,2-.19.24-.39.47-.58.71-.21.14-.42.28-.63.43-.06-.52-.3-.91-.77-1.15,1.87-2.07,1.32-4.39.68-6.71.42-.98,1.29-.93,2.13-.94Z"/>
      <path class="cls-7" d="M173.05,236.12c.19-.24.39-.47.58-.71.07.45-.15.67-.58.71Z"/>
      <path class="cls-4" d="M202.75,220.07c2.04.06,4.09.1,6.13.18,1.23.05,2.26.4,2.37,1.87.02.23.04.45.06.68-.07.46-.13.93-.2,1.39-2.66.05-5.29-.19-7.89-.69-.72-1.07-.59-2.26-.46-3.44Z"/>
      <path class="cls-4" d="M211.68,226.33c.09.42.17.85.26,1.27-.14.91-.29,1.83-.43,2.74-2.52-.14-5.04-.27-7.56-.41-.84-1.15-.78-2.43-.54-3.74,2.76.05,5.52.09,8.28.14Z"/>
      <path class="cls-4" d="M211.8,232.52c1.43,3.32,1.08,3.91-2.26,3.68-1.14-.08-2.26-.41-3.41-.52-2.04-.2-2.39-1.45-2.11-3.16,2.59,0,5.18,0,7.78-.01Z"/>
      <path class="cls-7" d="M211.8,232.52c-2.59,0-5.18,0-7.78.01-.32-.86-.23-1.73-.08-2.6,2.52.14,5.04.27,7.56.41.27.04.53.07.8.1-.17.69-.34,1.38-.51,2.08Z"/>
      <path class="cls-7" d="M211.68,226.33c-2.76-.05-5.52-.09-8.28-.14.31-.92.25-1.81-.2-2.67,2.61.49,5.24.74,7.89.68.8.54.66,1.35.58,2.13Z"/>
      <path class="cls-2" d="M212.31,230.45c-.27-.03-.53-.07-.8-.1.14-.91.29-1.83.43-2.74.71.61.43,1.53.73,2.26-.09.21-.21.4-.36.58Z"/>
      <path class="cls-1" d="M170.89,229.26c-2.99,3.2-5.97,6.4-8.96,9.59-.15-1.64.62-3.1.99-4.64.17-.73.67-1.7,1.27-1.95,2.25-.96,4.07-2.92,6.7-3Z"/>
      <path class="cls-4" d="M105.54,201.91c.27,1.15.53,2.29.8,3.44-1.4-.12-2.8-.24-4.19-.36-.23-.31-.52-.38-.87-.2-2.48.17-4.11-1.15-5.39-3.09.08-.62.23-1.05,1.07-.93,2.85.42,5.72.77,8.58,1.14Z"/>
      <path class="cls-4" d="M115.69,210.85c-.44-.08-.79-.26-.91-.73.3.24.6.49.91.73Z"/>
      <path class="cls-5" d="M101.28,204.79c.35-.18.63-.11.87.2-.34.16-.63.09-.87-.2Z"/>
      <path class="cls-7" d="M143.49,170.91c-.3-.17-.52-.4-.5-.77.38.12.51.4.5.77Z"/>
      <path class="cls-7" d="M211.3,222.81c-.02-.23-.04-.45-.06-.68.09.16.2.31.27.48.01.03-.14.13-.21.2Z"/>
      <path class="cls-2" d="M69.21,191.19c.22.21.44.43.66.64-.9.51-2.59-.62-2.8,1.34-.54-.35-1.43-.44-1.3-1.33.11-.73.84-.61,1.38-.64.68-.03,1.37-.01,2.05-.01Z"/>
      <path class="cls-2" d="M211.7,214.39c.39.16.61.44.65.86-.37-.17-.59-.46-.65-.86Z"/>
      <path class="cls-1" d="M151.12,219.09c-.37.03-.74.07-1.1.1.32-.54.67-.76,1.1-.1Z"/>
      <path class="cls-7" d="M137.23,224.1c.32-.54.78-.71,1.38-.56-.27.66-.74.82-1.38.56Z"/>
      <path class="cls-7" d="M427.29,155.94c-.46-.03-.92-.06-1.39-.09.5-.54.98-.76,1.39.09Z"/>
      <path class="cls-5" d="M305.2,160.27c-1.03-.19-1.58-.83-1.48-1.91.09-.95.71-1.48,1.64-1.36.93.12,1.35.85,1.35,1.74,0,.92-.45,1.52-1.51,1.54Z"/>
      <path class="cls-2" d="M351.45,146.19c.73.04,1.36.24,1.4,1.12.04.79-.41,1.39-1.12,1.48-.87.1-1.54-.39-1.58-1.36-.04-.86.53-1.16,1.3-1.23Z"/>
      <path class="cls-4" d="M404.07,169.22c-.45.54-.91,1.08-1.36,1.62-7.63.9-15,3.22-22.64,4.16-7.15.88-14.24,2.29-21.36,3.45-.56.09-.82-.32-1.09-.71.1-.39.19-.79.29-1.18,4.21-1.46,8.65-1.91,12.98-2.82,9.14-1.92,18.33-3.59,27.5-5.35,1.49-.29,2.99-.51,4.47-.84,1.75-.38,1.2.82,1.21,1.66Z"/>
      <path class="cls-2" d="M348.05,191.27c-1.57-.96-3-.96-4.47.32-2.66,2.3-6.11,2.88-9.34,3.48-2.53.47-5.29-.16-7.92-.48-1.21-.15-2.39-2.37-2.16-3.62.09-.48.3-.95.81-1.01,2.62-.3,4.88-2.05,7.72-1.61,3.23.5,6.25-.35,8.84-2.42,1.08-.86,2.16-.9,3.53-.85,2.18.08,4.38-.51,6.58-.81-1.03,2.42-2.01,4.86-3.58,7Z"/>
      <path class="cls-5" d="M357.62,177.75c.27.39.53.8,1.09.71,7.12-1.17,14.21-2.58,21.36-3.45,7.64-.94,15.01-3.26,22.64-4.16-.54,1.99-2.42,1.69-3.75,1.96-7.65,1.57-15.33,2.98-23.01,4.44-5.84,1.11-11.69,2.19-17.53,3.29-.58.11-1.14.26-1.76-.08-.3-1.1.21-1.94.97-2.71Z"/>
      <path class="cls-5" d="M352.85,189.07c-.24.24-.47.47-.71.71.06-.41.14-.81.71-.71Z"/>
      <path class="cls-7" d="M324.02,183.15c.17-.31.43-.4.76-.35-.18.28-.36.57-.76.35Z"/>
      <path class="cls-7" d="M423.66,180.67c-.32.89-1,1.3-1.85,1.22-.87-.09-1.05-.82-.89-1.55.17-.76.72-1.19,1.52-1.07.75.12,1.23.57,1.23,1.39Z"/>
      <path class="cls-2" d="M393.2,209.54c.02-.67.44-1.09,1-1.17.73-.1,1.33.25,1.4,1.07.06.67-.45,1.08-.99,1.18-.76.14-1.24-.32-1.41-1.07Z"/>
      <path class="cls-5" d="M165.43,158.39c-.09,1-.49,1.8-1.6,1.81-.96.01-1.42-.73-1.47-1.56-.06-.9.5-1.53,1.4-1.61.9-.08,1.46.47,1.67,1.37Z"/>
      <path class="cls-2" d="M117.61,146.16c.74.04,1.36.31,1.35,1.19,0,.96-.58,1.51-1.52,1.44-.75-.06-1.26-.53-1.19-1.37.06-.82.55-1.2,1.37-1.26Z"/>
      <path class="cls-4" d="M114.76,186.29c.19.06.38.09.58.1.18.44.36.88.54,1.31-.79-.14-1.11-.66-1.13-1.41Z"/>
      <path class="cls-5" d="M168.32,199.38c-.41-.04-.65-.23-.57-.63.08-.47.4-.8.84-.92.34-.09.68.09.7.46.04.66-.4.96-.96,1.09Z"/>
      <path class="cls-7" d="M46.75,181.84c-.78-.04-1.24-.49-1.35-1.24-.13-.87.43-1.21,1.21-1.25.76-.04,1.36.21,1.38,1.09.02.8-.46,1.23-1.23,1.4Z"/>
      <path class="cls-2" d="M74.15,208.29c.68.06,1.12.43,1.16,1.04.04.78-.42,1.29-1.22,1.31-.64.01-1.12-.42-1.17-1.02-.06-.8.52-1.19,1.23-1.34Z"/>
    </g>
  </g>
</svg>