<?xml version="1.0" encoding="UTF-8"?>
<svg id="GRIFOS" xmlns="http://www.w3.org/2000/svg" viewBox="0 0 455.05 452.32">
  <defs>
    <style>
      .cls-1 {
        fill: #3a2720;
      }

      .cls-1, .cls-2, .cls-3, .cls-4 {
        stroke-width: 0px;
      }

      .cls-2 {
        fill: #7e4326;
      }

      .cls-3 {
        fill: #261d19;
      }

      .cls-4 {
        fill: #593b2b;
      }
    </style>
  </defs>
  <g id="Wings">
    <g id="W5">
      <path class="cls-3" d="M433.64,155.72c.51.06.99,0,1.38-.37.27.15.48.06.63-.19,4.87-.48,9.5-2.11,14.3-2.93.53-.09,1.05-.3,1.59-.33,2.72-.18,4.32,2.07,3.08,4.49-.89,1.74-2.24,3.18-3.7,4.52-3.88,3.56-8.27,6.34-12.97,8.65-3.21,1.58-6.48,3.02-9.73,4.53-.55.26-1.09.53-2.24,1.1,4.45.51,8.03-.44,11.64-.71,2.16-.16,4.29-.66,6.43-.96.75-.11,1.53-.15,2.28-.09,2.77.25,3.98,2.51,2.52,4.87-1.15,1.87-2.76,3.36-4.48,4.7-3.27,2.55-6.88,4.53-10.7,6.15-.98.42-2.09.58-3.22,1.6,2.75.1,5.22.21,7.69.28,1.44.04,2.81.31,4.02,1.12,2.07,1.38,2.31,3.06.66,4.9-1.03,1.15-2.36,1.9-3.69,2.64-5.85,3.24-12.1,5.27-18.67,6.37-1.39.23-2.78.49-4.16.73-1.07-.16-2.12-.2-3.24.31.76.87,1.43,1.03,2.22.84,3.11.45,6.16,1.19,9.16,2.09.72.22,1.47.46,2.1.86,2.28,1.46,2.41,3.6.34,5.37-.83.71-1.82,1.15-2.8,1.62-6.11,2.93-12.68,3.54-19.84,3.85,2.52,1.51,4.66,2.76,6.75,4.07.91.57,1.83,1.19,2.58,1.96,1.7,1.74,1.56,3.16-.48,4.57-1.82,1.26-3.93,1.71-6.12,1.92-3.79.37-7.57.56-11.51.12,1.26,1.17,2.56,2.31,3.78,3.53.99.99,2.08,2,1.45,3.67-.68,1.8-2.29,1.92-3.78,1.94-3.58.03-7.16-.14-10.65-1.1-.83-.23-1.7-.33-2.55-.49-.42-.59-1.02-.76-1.49-.24-.14.16.41.83.97.95,1.03,1.12,2.09,2.23,2.76,3.61.87,1.81.31,3.08-1.61,3.86-1.9.77-3.88.47-5.79.21-2.66-.37-5.29-1.01-7.95-1.53-1.26,2.86-2.77,3.66-6.15,2.91-2.09-.47-4.11-1.21-6.48-1.93.23,2.02,1.14,3.91.12,5.55-1.01,1.62-2.82,1.7-4.59,1.55.9,6.16-.12,8.33-7.68,6.87.16,1.18.34,2.3.45,3.42.38,4-2.03,5.97-5.85,4.7-1.42-.47-2.77-1.17-4.15-1.76-.06-.26-.2-.36-.43-.27-.03.01-.03.22.02.28.18.23.34.19.46-.09-.61.37-.4.91-.29,1.43.28,1.41.21,2.8-.24,4.18-.79,2.44-2.53,3.45-5.01,2.76-.93-.26-1.82-.66-2.74-1-.49,5.63-1.98,8.41-9.81,4.18-.41,2.21-.6,4.69-3.55,4.94-2.32.2-3.87-1.63-5.79-2.54-.65,1.01-.46,2.04-.7,2.97-.68,2.6-2.82,3.61-5.28,2.51-1.62-.72-2.74-2.09-4.18-3.51-.76,2.55-1.37,5.16-4.27,5.52-2.86.35-4.33-2.03-6.18-4-.53,1.14-.87,2.12-1.41,2.98-1.88,3.02-4.64,3.43-7.45,1.2-1.47-1.17-2.42-2.77-3.5-4.3-3.39,4.95-6.35,4.34-9.98-1.92-3.3,1.93-5.13,1.57-6.93-1.65-.76-1.36-1.39-2.2-3.15-1.9-1.73.3-2.77-.97-3.59-2.32-1.69-2.79-2.15-5.9-2.26-9.08-.16-4.63-.98-5.81-5.35-7.3-2.15-.73-4.35-1.34-6.39-2.38-2.28-1.16-3.29-3.05-3.3-5.52,0-1.19-.03-2.42.24-3.57.92-3.98.43-7.73-1.3-11.42-1.85-3.96-2.45-8.08-1.05-12.36.79-2.42,2.04-4.58,3.85-6.35.85-.83,1.61-2.24,3.28-1.34.25.13.85-.15,1.15-.4,5.29-4.52,11.32-4.32,17.58-2.84.63.15,1.3.15,1.94.28,2.62.53,4.83-.11,6.98-1.78,3.99-3.09,8.54-5.16,13.49-6.19,4.74-.98,8.58-3.46,12.04-6.69,4.87-4.54,9.35-9.4,13.12-14.92,1.28-1.88,2.74-3.66,4.23-5.38,1.27-1.45,2.53-3.03,4.87-2.72.69.09,1.11-.59,1.59-1,2.55-2.21,5.06-4.44,8.66-4.83.98-.11,1.68-.94,2.41-1.61,5.75-5.22,12.57-8.43,19.95-10.59,1.33-.39,2.65-.68,3.58.54.92,1.19.36,2.49-.25,3.67-.63,1.2-1.31,2.37-2,3.61.42.07.65.19.8.13,16.43-6.9,33.64-11.47,50.57-16.86,8.57-2.73,17.2-5.29,25.57-8.61.81-.32,1.67-.49,2.46-.84,1.5-.68,2.79-.42,3.76.86.97,1.28.32,2.5-.45,3.59-.94,1.33-1.96,2.6-2.94,3.9-2.99,2.62-6.18,5-9.42,7.37,3.62-.76,7.26-1.12,10.65-2.5.46-.06.93-.13,1.39-.19.72.09,1.33-.21,1.95-.51ZM251.37,219.25c-1.15,0-2.38-.49-3.35.57-3.37.6-5.71,2.72-7.81,5.23-1-.82-1.77-1.26-2.69.32-2.02,3.46-3.39,6.88-1.25,10.78-.19,1.58.47,2.98.92,4.41,1.21,3.83,1.92,7.56,1.23,11.74-.78,4.76-.68,5.21,4.1,7.1,2.88,1.14,5.94,1.81,8.41,3.96.82-2.26.95-4.34,1.92-6.2.56-1.06,1.17-1.5,2.31-.88.37.2.83.23,1.24.38.83.3,1.78.74,2.38-.13.64-.93.58-2.08-.03-3.07-.27-.44-.82-.7-1.18-1.1-.31-.34-.39-.81-.18-1.21.23-.43.66-.49,1.11-.3,2.06.87,3.54-.05,4.85-1.56.27-.31.7-.49,1.06-.74.43,2.2,1.27,3.02,3.14,3.25,1.86.22,2.38-.97,2.75-2.41.18-.72.42-1.42.64-2.13.22,0,.44,0,.67-.01,0,.65,0,1.31,0,1.96-.02,1.3.23,2.37,1.81,2.6,1.92.29,2.71-.2,3.51-1.97.42-.94.26-2.12,1.01-2.96,1.7.95.86,3.13,2.42,4.26,1.73-1.96,2.52-4.1,2.39-6.9,1.42,1.26,1.32,2.81,1.92,4.03.41.83.91.88,1.47.27.36-.39.52-.96.86-1.37,1.09-1.34.65-3.18,1.23-4.74.75.39.91.78.97,1.22.07.54.01,1.13.22,1.6.33.73,1.02,1.16,1.84,1.08.75-.07,1.05-.69,1.17-1.37.13-.74.16-1.52.4-2.23.2-.58.11-1.37.82-1.67.93-.39.57,1.5,1.27,1.15,2.05-1.66,1.12-3.9,1.83-5.68,3.45,1.46,3.95,1.18,4.24-2.4.09-1.1.1-1.89,1.65-1.55,1.32.28,1.63-.83,1.61-1.88-.02-1.34-.16-2.69-.24-3.97.68-.26.96.14,1.32.37.7.45.85,1.85,1.89,1.5,1.11-.37,1.35-1.61,1.57-2.68.25-1.25-.33-2.61.52-3.9.4.07.81.17,1.23.22,2.63.36,2.7.31,2.58-2.37-.02-.43-.22-1.06.21-1.14,2.25-.41.63-2.36,1.22-3.34.5-.08.81-.16,1.13-.17q3.81-.12,2.69-3.59c1.22-.68,2.55-.22,3.81-.36.66-.07,1.36-.06,1.57-.86.22-.8-.01-1.49-.67-2.04-.7-.58-1.84-.64-2.22-2.09,2.9-.58,6.16.51,8.81-1.95-1.81-1.39-3.87-1.45-5.8-1.97,1.77-.21,3.51-.14,5.23-.24,1.69-.1,3.37-.34,4.98-1.39-2-1.61-4.38-.92-6.55-1.41.67-1.23,1.5-1.02,2.22-1.11,2.48-.32,4.89-.92,7.18-1.96.48-.22,1.02-.53.83-1.19-.13-.46-.61-.64-1.04-.67-1.08-.07-2.17-.05-3.26-.09q-1.67-.05-3.6-1.14c4.92-1.36,9.94-2.52,13.35-6.93-3.47-.05-6.7,1.36-10.1,1.34,10.09-4.45,10.25-4.56,11.34-7.42-3.22.83-6.33,1.62-9.44,2.42l-.05-.06c.8-1.49,2.44-1.74,3.74-2.44,1.63-.87,3.21-1.82,4.62-3.01.32-.27.67-.63.49-1.11-.27-.71-.86-.44-1.37-.38-2.74.33-5.16,1.53-7.58,2.77-1.09.55-2.12,1.42-3.75,1.31.78-1.93,2.38-2.52,3.74-3.2,4.75-2.36,8.63-5.79,12.19-9.62.39-.42,1.13-.82.44-1.72-1.43.29-2.89.58-4.04,1.66-.5.1-1.02.18-1.28.72,0,0-.01,0-.01,0-.53.08-1.11.03-1.57.24-5.78,2.7-10.87,6.39-15.42,10.84q-2.69-1.29-4.57,1.27c-2.55,1.1-4.1,3.31-5.86,5.29-.43,0-.86,0-1.28-.01-.98-1.04-1.61-.11-2.01.52-.96,1.51-2.06,2.97-2.61,4.71h0c-1.74.25-1.75,2.02-2.62,3.03-4.75,5.57-9.67,10.96-15.63,15.28-1.5,1.22-3.29,1.85-5.07,2.53-1.35.52-2.94.38-4.09,1.46-1.37.21-2.65.67-3.86,1.32-1.11-.02-2.02.37-2.68,1.28-.51.02-.99.11-1.29.59-1.12.05-1.94.75-2.88,1.23-2.24,1.13-3.6,3.27-5.59,4.68-.25-.02-.51-.03-.76-.05-.06-.56-.25-1.2-.86-1.17-2.59.14-5.06-.75-7.63-.73-1.51-.05-2.91-.88-4.46-.61ZM304.25,239.42c2,1.72,2.86,4.25,4.42,6.29,1.18,1.55,2.26,3.13,4.47,3.87.3-1.23,1.09-2.19.82-3.43-1.02-4.67-3.51-8.51-6.78-11.9-.36-.37-.87-.78-1.36-.18-.3.36-.21.81.01,1.21.55.98,1.58,1.76,1.34,3.28-1.57-.43-1.64-2.32-3.04-2.72-1.27,1.25.22,2.4.11,3.58-.97.1-1.8-.94-2.81-.35-.29.17-1.32,4.34-1.19,4.71.71,2.05,1.43,4.1,2.14,6.15.48,1.37,1.27,2.54,2.46,3.38,1.08.76,1.92.4,1.97-.93.06-1.72.07-3.44-.25-5.19-.5-2.69-2.32-4.95-2.31-7.75ZM408.8,153.78c-.86.12-1.74.15-2.56.38-10.46,2.9-20.7,6.49-31.01,9.87-1.78.58-2.09,1.5-1.36,3.22,5.65-2.37,11.32-4.22,17.01-5.99,2.66-.83,5.22-2.13,8.1-2.22-.3.78-.92,1.11-1.69,1.37-3.19,1.08-6.34,2.25-9.52,3.34-4.52,1.54-9.05,3.01-13.57,4.54-1.14.39-2.27.87-2.89,1.99-.35.62-.04,1.11.65,1.06.63-.04,1.24-.34,1.87-.51,5.22-1.45,10.43-2.88,15.73-4.04,9.13-1.98,18.17-4.32,26.13-9.54,4.07-2.67,8.48-4.89,11.74-8.65.38-.44,1.13-.82.39-1.77-.94.31-1.97.58-2.95.98-3.21,1.31-6.41,2.6-9.73,3.65-2.12.68-4.55.67-6.33,2.33ZM351.94,216.56c-1.13-.07-2.02-.75-3-1.2-.49-.22-.98-.49-1.5-.63-.69-.19-1.31.05-1.66.7-.35.66.18.95.61,1.28.6.47,1.12,1.04,1.75,1.46,5.9,4.01,11.91,7.87,17.7,12.02,7.01,5.02,14.74,8.24,23.18,9.63,2.42.4,4.94.97,7.84.7-2.16-2.89-4.73-4.69-7.29-6.43-9.43-6.41-19.55-11.63-29.69-16.8-2.38-1.21-5.2-1.59-7.03-3.83-.18-.22-.57-.3-.88-.4-.65-.22-1,.23-1.36.63-.5.56-.23,1.02.28,1.33.59.37,1.03.78,1.06,1.52l-.02.03ZM431.68,178.64c-5.43-.37-10.8.83-16.22.68-2.96-.08-5.8.57-8.68,1.01-5.56.86-10.78,3.2-16.42,3.79-1.61.17-3.16,1-4.74,1.52,1.55,1.09,3.18.99,4.69.77,3.96-.59,7.99-.6,11.9-1.33,2.38-.44,4.76-.28,7.1-.67,3.52-.58,7.03-1.12,10.6-1.24-.24.21-.46.54-.74.6-6.99,1.48-14.09,2.22-21.21,2.71-3.38.23-6.55,1.75-10,1.47-.55-.04-.96.47-1.27.93-.4.61-.96.95-1.64.86-2.21-.29-4,.46-5.62,1.93-.54.49-1.34.67-2.13.74-.61.06-1.37.11-1.18,1.1,7.94.72,15.86,0,23.74-.63,4.82-.39,9.66-1.1,14.47-1.71,9.65-1.21,18.54-4.37,26.75-9.46,1.82-1.13,3.52-2.66,4.52-4.88-3.55-.48-6.74.34-9.91.91-1.32.24-2.9-.31-4.01.9ZM416.65,166.83c-.67,1-1.72,1.19-2.8,1.43-2.11.47-4.21,1.03-6.3,1.58-10.06,2.61-20.07,5.44-30.26,7.53-1.19.24-2.02.96-2.56,1.85-1.03,1.7-2.06,3.4-3.59,4.72.89.79,1.7.66,2.41.54,5.43-.92,10.88-1.8,16.27-2.9,6.68-1.36,13.27-3.12,19.9-4.74,12.23-2.99,23.87-7.18,34.25-14.45,2.31-1.62,4.59-3.29,6.47-5.43.35-.4.84-.84.47-1.4-.33-.51-.95-.43-1.49-.32-.42.09-.82.3-1.24.4-4.52,1.13-9.04,2.23-13.55,3.39-1.44.37-3.01.36-4.25,1.35-19.77,3.75-39.41,8.08-58.95,13.07,3.77,3.26,7.57,2.4,11.41.92.4-.15.84-.2,1.26-.3,8.83-2.12,17.64-4.29,26.48-6.3,1.98-.45,3.99-1.06,6.08-.94ZM414.9,197.81c.03.77-.09.94-.35.96-6.13.64-12.23,1.68-18.43,1.47-1.3-.04-2.61.02-3.9.19-5.3.71-10.59.76-15.88-.03-3.11-.47-6.3.22-9.39-.74-.69-.21-1.65.17-1.55,1.17.09.89.99.6,1.59.69,3.85.58,7.74.87,11.57,1.47,5.35.84,10.74,1.3,16.11,1.69,10.88.79,21.67-.21,32.2-3.24,3.85-1.11,7.64-2.42,11.06-4.57.59-.37,1.52-.65,1.43-1.6-.1-1.06-1.11-.79-1.77-1.05-1.25-.49-2.53-.55-3.84-.54-5.66.02-11.32,0-16.98,0-1.09,0-2.21-.11-3.26.12-5.2,1.12-10.52,1.34-15.78,1.71-7.35.51-14.72,1.19-22.12.81-2.28-.12-4.57-.02-6.86,0-.65,0-1.42-.02-1.56.81-.16.88.57.99,1.22,1.16,1.37.34,2.71.68,4.16.65,3.26-.07,6.53-.01,9.8-.02,10.83,0,21.66.25,32.53-1.11ZM357.62,208.92c-.19.68.1.9.55,1.08,3.53,1.39,7.04,2.82,10.59,4.18,6.37,2.45,12.76,4.85,19.14,7.31.61.24,1.4.43,1.52,1.77-3.93-1.42-7.58-2.69-11.2-4.05-6.49-2.44-12.87-5.21-19.51-7.23-.82-.25-1.96-1.32-2.55,0-.57,1.28.92,1.48,1.69,1.92,1.32.75,2.71,1.38,4.08,2.05,6.32,3.14,12.49,6.53,18.54,10.18,3.13,1.88,6.26,3.85,10.02,4.5,1.85.32,3.75-.13,5.5.38,4.35,1.27,8.61.17,12.9-.12.69-.05,1.36-.27,1.58-.94.3-.94-.47-1.29-1.14-1.7-4.63-2.86-9.44-5.47-14.47-7.45-10.38-4.1-20.85-8.02-31.63-11-1.81-.5-3.67-1.19-5.6-.88ZM365.52,207.42c.59.91,1.41.95,2.08,1.18,7.31,2.47,14.7,4.67,21.88,7.49,4.63,1.82,9.45,2.19,14.33,2.45,3.5.18,6.94-.34,10.37-.76,3.25-.4,6.25-1.77,9.25-3.03.38-.16.8-.39.76-.94-.04-.49-.36-.81-.78-.94-.62-.2-1.26-.33-1.9-.43-8.54-1.37-16.69-4.49-25.41-5.17-5.81-.45-11.63-1.06-17.39-1.92-3-.45-6.03-.55-9.02-.95-3.22-.43-6.5-1.41-9.87-.47,15.19,3.81,30.69,6.14,45.99,9.44-13.51-1.04-26.68-4.4-40.29-5.94ZM382.35,247.22c-.65-1.47-1.17-2.54-2.09-3.32-3.72-3.13-7.32-6.41-11.4-9.1-5.06-3.34-10.07-6.76-15.06-10.19-3.03-2.09-5.98-4.28-8.97-6.42-.5-.36-1.04-.99-1.64-.21-.51.67-.03,1.22.44,1.68.77.76,1.53,1.51,2.44,2.15,5.24,3.65,10.43,7.38,15.65,11.05.62.44,1.29.76.98,1.64-.78.21-1.14-.25-1.58-.54-3.59-2.43-7.32-4.64-10.73-7.33-.7-.55-1.62-1.27-2.6-.25-1,1.04-1.23,2.48-.42,3.5.54.68,1.16,1.3,1.83,1.86,6.17,5.15,12.6,9.96,20.1,13.02,4.01,1.64,8.22,2.66,13.04,2.46ZM323.32,260.55c-.6-.44-1.16-1-1.83-1.3-.79-.36-1.76-.5-2.45.17-.69.67-.48,1.61-.2,2.45.1.3.35.54.51.82,2.28,3.84,5.02,7.31,8.35,10.32,1,.9,2.17,1.43,3.34,1.97,1.19.55,1.84.16,1.94-1.19.2-2.55-.27-4.95-1.43-7.23-3.64-7.15-8.4-13.61-12.58-20.43-.27-.45-.71-.82-1.14-1.14-.35-.26-.8-.36-1.23-.13-.57.31-.65.88-.52,1.4.13.51.42.98.69,1.44,1.33,2.23,2.75,4.41,3.99,6.69,1.05,1.93,2.38,3.75,2.55,6.17ZM315.71,222.12c-.81,1.57-.18,2.76.96,3.95.88.93,2.27,1.59,2.43,3.78-3.18-1.79-4.64-5.6-8.63-5.23.19.52.22.91.43,1.1,2.87,2.61,5.84,5.12,8.37,8.09.72.85,1.74,1.28,2.78,1.63,2.22.73,2.73.33,2.41-2.02-.34-2.43-1.61-4.46-2.97-6.44-.45-.65-1.28-1.24-.48-2.21,1.94.29,2.68,2.24,4.28,2.92.68.29,1.39.87,2.09.21.62-.59.59-1.55.26-2.15-1.71-3.02-3.43-6.07-6.53-7.94-.98-.59-3.86.05-4.53.98-.39.55-.62,1.15.15,1.67.87.59,1.8,1.16,2.12,2.34-1.29.75-1.9-1.01-3.13-.69ZM353.55,183.34c-.42,1.34-1.49,1.46-2.35,1.79-1.31.51-2.66.93-4.01,1.34-1.26.39-2.18,1.07-2.72,2.74,9.16-1.74,17.55-4.46,25.37-8.8,1.36-.76,2.48-1.95,3.52-3.66-5.57-.22-10.53.38-15.29,2.44-3.38,1.47-6.84,2.73-10.2,4.23-.82.37-2.74.16-2.13,1.74.44,1.14,1.7-.1,2.58-.21,1.76-.23,3.22-1.65,5.23-1.61ZM370.44,167.1c-1.38-.29-2.63-.18-3.92.06-6.04,1.13-11.55,3.7-17.07,6.25-.98.45-2.01.86-2.74,1.73-.43.51-.83,1.1-.34,1.74.45.58.99.11,1.45-.1,2.97-1.35,5.92-2.73,8.89-4.07.61-.28,1.24-.96,2-.13-.52.99-1.55,1.19-2.4,1.59-2.84,1.37-5.7,2.69-8.58,3.97-1.11.49-1.45,1.14-.95,2.27.55,1.22,1.36.63,2.18.41,2.24-.59,4.17-1.85,6.25-2.77,4.47-1.97,8.75-4.34,12.66-7.28,1.16-.87,2.46-1.84,2.55-3.67ZM299.38,273.53c-.22.09-.43.19-.65.28-.91-2.37-1.8-4.75-2.75-7.1-.22-.55-.11-1.49-.96-1.49-1,0-1.5.83-1.76,1.66-.45,1.45.26,2.77.73,4.08.32.89.99,1.6,1.17,2.63.87,4.81,4.31,8.13,7.09,11.81.53.7,1.29,1.27,2.26.83.92-.42.98-1.31,1.04-2.21.15-2.32-.15-4.56-1.28-6.61-2.56-4.66-4.26-9.71-6.5-14.51-.21-.46-.23-1.11-1.2-.73.23,3.93,2.49,7.44,2.81,11.37ZM339.41,240.74c-1.83-1.7-3.45-3.64-5.48-4.98-2.03-1.34-3.22-3.85-5.87-4.62-.11,1.14.49,1.52.93,1.97,2.52,2.54,5.05,5.08,7.59,7.6,3.07,3.05,6.03,6.23,9.5,8.85,2.17,1.64,4.41,3.14,7.08,3.86,1.64.44,2.2-.02,2.02-1.71-.29-2.7-1.93-4.6-4-6.04-3.62-2.52-7.48-4.67-10.82-7.41-1.22.61.06,1.5-.95,2.48ZM306.76,269c-3.1.13-3.78,1.13-2.79,3.77.11.3.25.6.42.88,1.64,2.83,3.55,5.44,6.18,7.45.77.59,1.51,1.25,2.35,1.73,1.35.77,2.29.25,2.42-1.33.17-2.09-.13-4.1-1.34-5.9-.78-1.17-1.55-2.35-2.25-3.57-2.04-3.57-4.04-7.17-6.06-10.76-.36-.64-.69-1.67-1.58-1.22-.89.45-.24,1.34.01,2.01.84,2.22,1.69,4.44,2.65,6.94ZM341.27,200.74c4.39,1.86,8.95,1.54,13.44,1.3,3.17-.17,5.98-1.81,8.69-3.39,1.07-.63,1-1.44-.14-1.86-1.72-.63-3.49-1.05-5.35-1.15-4.58-.25-8.9,1.79-13.5,1.45-.62-.05-1.33.35-1.19,1.18.12.71.82.6,1.32.6,2.69.02,5.37.01,8.06.01-3.64,1.69-7.53,1.25-11.33,1.87ZM343.95,194.66c2.36.83,4.2-.35,6.14-.32,4.63.08,8.98-1.22,13.32-2.63,1.99-.65,3.7-1.81,5.39-2.98.34-.23.69-.63.36-1.09-.16-.22-.51-.37-.8-.41-.53-.07-1.09,0-1.63-.07-4.69-.66-9,.97-13.35,2.28-2.71.81-5.64.88-8.64,2.32,2.92,1.46,5.43-.32,8.25.13-2.92,1.73-6.13,1.41-9.05,2.77ZM276.47,255.53c-2.08,1.1-2.24,1.1-2.22,2.17.03,1.86-.4,3.64-.67,5.45-.17,1.17-.13,2.38.5,3.48.55.96,1.1,2,2.32,2.05,1.25.06,1.76-1.03,2.4-1.92,2.29-3.15,1.99-6.76,1.89-10.33-.03-.98.45-2.44-1.22-2.51-1.72-.08-1.24,1.39-1.36,2.38-.15,1.2.35,2.52-.65,3.96-1.15-1.58-.27-3.22-.99-4.74ZM310.47,228.66c-.41,2.35,2.45,3.08,2.76,5.4-1.95-.34-2.55-1.97-3.77-2.73-.48-.3-1.02-.55-1.48-.09-.54.54-.08,1.04.3,1.37,2.4,2.07,4.01,4.85,6.31,7,1.23,1.15,2.21,2.71,4.18,2.78,1.24-4.8-2.78-11.45-8.3-13.74ZM356.36,205.83c-7.13-3.11-14.38-1.93-21.84-3.22,1.9,1.9,4.23,1.18,5.78,2.65-2.41.7-4.49-1.23-7.05-.8,5.78,3.22,17.61,3.97,23.12,1.38ZM291.27,252.94c-1.21-1.04-.46-2.28-.94-3.21-.25-.49-.55-.99-1.22-.78-.49.15-.62.68-.5,1.06.95,3.13.23,6.47,1.21,9.61.46,1.47.84,2.88,2.42,3.71,3.4-3.25,2.04-7.29,1.97-11.05-.02-1.04-.49-2.1-.84-3.11-.21-.6-.56-1.27-1.39-1.07-.88.21-.78.91-.56,1.56.36,1.04.7,2.05-.15,3.29ZM284.77,259.55c-.98-.9-.76-1.79-.78-2.58-.04-1.3-.03-2.6-.05-3.9,0-.47-.2-.88-.71-.91-.46-.03-.82.3-.95.72-.13.4-.28.89-.16,1.26,1.01,3.07.44,6.23.55,9.34.05,1.41.34,2.8,1.81,3.04,1.4.23,1.92-1.18,2.39-2.26,1.74-3.98,1.1-8.03.3-12.08-.09-.47-.34-.81-.84-.83-.68-.03-.95.44-.98,1.02-.05.86,0,1.73-.07,2.59-.11,1.41.34,2.92-.51,4.56ZM329.44,207.15c.82,1.14,2,1.27,2.91,1.71,4.07,1.99,8.28,3.7,12.92,3.75,1.11.01,2.74.48,3.02-1.06.24-1.3-1.38-1.46-2.29-1.85-4.3-1.81-8.95-2.36-13.43-3.55-1.08-.28-2.15.02-3.14.99ZM325.53,208.39c.47.81.83,1.47,1.22,2.11,1.05,1.72,1.82,3.71,3.91,4.47,2.75,1,5.54,1.84,8.53,1.57.53-.05,1.18.02,1.31-.65.12-.61-.4-.92-.85-1.23-3.74-2.62-8.1-4.09-11.97-6.47-.5-.31-1.26-.25-2.16.2ZM315.73,251.84c-1.4,0-2.04.82-1.5,2.08.48,1.11,1.38,1.9,2.44,2.46.65.34,1.38.91,2.08.38.79-.6.59-1.57.36-2.38-.36-1.28-2.12-2.53-3.39-2.53ZM302.01,265.65c-.45.03-.7.2-.72.54-.01.35.22.55.57.54.42,0,.86-.12.72-.66-.05-.2-.43-.32-.57-.42ZM256.04,262.68c.08-.18.25-.4.2-.53-.05-.13-.33-.17-.51-.24-.08.18-.25.4-.2.52.05.13.33.17.51.24Z"/>
      <path class="cls-3" d="M33.93,157.88c-3.88-2.63-7.8-5.21-10.45-9.22-.42-.63-.88-1.26-1.17-1.95-.87-2.01.59-4.06,2.79-3.88.84.07,1.69.38,2.49.71,13.48,5.48,27.55,9.19,41.37,13.64,11.97,3.85,24.18,6.99,35.65,12.3.18.08.41.04.98.08-.72-1.41-1.42-2.66-2-3.95-.54-1.2-1.1-2.52-.12-3.7,1.01-1.22,2.32-.72,3.61-.35,6.87,2,13.11,5.2,18.7,9.65,1.45,1.15,2.88,1.99,4.8,2.45,2.74.66,4.94,2.65,7.01,4.61.77.73,1.35,1.43,2.72,1.24,1.32-.18,2.31,1.07,3.23,1.97,2.03,1.99,3.75,4.23,5.38,6.55,4.47,6.36,9.66,12.04,15.71,16.94,2.32,1.88,4.79,3.19,7.76,3.82,5.35,1.13,10.5,3.02,14.77,6.51,2.68,2.2,5.48,2.32,8.57,1.84,1.5-.23,3.01-.42,4.49-.77,4.8-1.14,9,.3,12.95,2.9.36.24.76.82,1.01.76,2.66-.72,3.88,1.19,5.19,2.82,1.87,2.32,3.18,4.93,3.57,7.93.39,3-.25,5.83-1.49,8.56-1.89,4.16-2.56,8.38-1.68,12.99,1.01,5.29-.75,7.81-5.86,9.66-1.63.59-3.21,1.35-4.89,1.78-2.89.73-3.98,2.69-4.2,5.43-.14,1.74-.31,3.47-.48,5.2-.18,1.87-.82,3.61-1.76,5.21-.85,1.46-2,2.72-3.91,2.35-1.48-.28-2.04.36-2.7,1.57-1.52,2.78-3.27,3.64-5.47,2.92-.59-.19-1.08-.69-1.69-1.09-1.34,1.93-1.96,4.68-4.9,5.09-2.3.32-3.6-1.16-4.77-2.81-1.04.41-1.29,1.44-1.85,2.21-3.16,4.39-7.47,4.02-9.88-.84-.24-.49-.45-.99-.67-1.48-6.11,5.7-8.43,5.41-10.4-1.33-1.29.24-1.7,1.54-2.65,2.21-3.74,2.64-6.43,1.66-7.3-2.77-.1-.52-.18-1.05-.3-1.77-1.27.72-2.34,1.41-3.49,1.96-3.08,1.48-4.87.7-5.99-2.57-.17-.5-.29-1.03-.43-1.57-6.28,3.64-8.91,2.32-9.42-4.21-.86-.34-1.42.36-2.1.62-3.12,1.19-5.42-.04-5.9-3.37-.22-1.48-.04-3.03-.04-4.7-1.52.62-2.87,1.29-4.29,1.73-4.06,1.26-6.69-1.16-5.84-5.31.17-.85.39-1.7.62-2.73-2.22-.02-4.49,1.41-6.56-.23-2.19-1.74-1.82-3.95-.98-6.29-1.83-.47-3.94-.05-5.06-1.84-1-1.61-.03-3.4-.18-5.37-1.78.47-3.49.94-5.2,1.38-.73.19-1.47.42-2.21.47-2.87.22-3.7-.35-4.8-3.12-3.69.86-7.35,1.94-11.21,1.8-1.57-.06-3.14-.12-4-1.64-.9-1.6.11-2.87.98-4.17.58-.87,1.69-1.44,1.68-2.73-2.11-.24-4.06.58-6.04.96-2.6.51-5.2.48-7.8.48-1.44,0-2.89-.28-3.6-1.74-.77-1.58.28-2.74,1.25-3.74,1.19-1.22,2.53-2.29,4.35-3.91-4.6.81-8.56.7-12.52.23-1.97-.23-3.87-.67-5.51-1.82-2-1.4-2.21-2.83-.58-4.62,2.01-2.2,4.65-3.54,7.22-4.96.45-.25.89-.51,1.96-1.12-2.49-.22-4.35-.44-6.22-.53-4.74-.22-9.17-1.63-13.51-3.39-.1-.04-.22-.04-.31-.1-1.56-1.09-3.63-1.79-3.4-4.3.22-2.35,2.13-2.82,3.87-3.4,2.78-.93,5.62-1.61,8.53-2.01.61-.08,1.33.05,1.84-.96-4.22-.44-8.27-1.29-12.31-2.2-4.7-1.06-9.08-2.93-13.27-5.26-.95-.53-1.87-1.13-2.7-1.81-3.48-2.85-1.68-5.19,1.13-6.3,1.06-.42,2.13-.4,3.2-.47,1.09-.06,2.18-.08,3.27-.1,1.09-.02,2.18,0,3.32,0-.07-1.06-.96-.97-1.6-1.23-4.26-1.72-8.23-3.95-11.81-6.83-1.71-1.37-3.28-2.88-4.27-4.87-1.24-2.48-.2-4.3,2.56-4.56,2.2-.21,4.31.52,6.46.79,3.99.51,7.97,1.03,11.98,1.36.98.68,1.97.79,3.05.1-.5-.59-.97-.96-1.67-.89-8-2.88-15.43-6.82-22.31-11.82-1.95-1.42-3.61-3.12-5-5.09-1.42-2.01-1.57-3.38-.6-4.75,1.17-1.66,2.83-1.43,4.43-1.06,6.64,1.55,13.24,3.23,19.89,4.75,2.53.58,4.99,1.46,7.6,1.64,1.1.89,2.47.7,4.07,1.27-.99-1.03-1.72-1.62-2.68-1.85ZM112.77,167.54c-.29-.5-.77-.63-1.3-.66-1.19-1.21-2.7-1.42-4.42-1.31,2.44,2.78,4.76,5.55,7.75,7.76,2.88,2.13,6.59,3.08,9.45,6.48-2.28-.11-3.5-1.08-4.79-1.73-2.25-1.13-4.6-1.94-7.01-2.59-.47-.13-1.14-.18-1.33.55-.12.49.22.83.59,1.06,1.56.97,2.87,2.3,4.61,3.05,1.77.75,3.44,1.73,5.15,2.6-3.8.17-7.06-2.09-11.32-1.92,3.44,3.43,7.5,4.71,11.75,6.75-3.57.62-6.31-1.45-9.64-.82,3.2,3.85,7.48,5.13,11.63,6.53-2.08,1.86-4.86.21-7.04,1.91,2.8,3.22,7.13,2.28,10.78,4.23-2.71.35-5.1-.28-7.27,1.19,2.91,1.86,6.19,1.45,9.45,1.65-1.15,1.51-3.28.64-4.23,2.16,2.87,2.42,6.45,1.17,9.6,2.01-.41.85-.95.92-1.49,1-1.54.23-2.62,1.11-2.95,2.59-.18.8,1.82,1.41,3.68,1.28,1.09-.07,2.13-1.16,3.28-.26,0,.58-.38.84-.71,1.1-.77.61-1.72,1.15-1.19,2.36.46,1.05,1.48.67,2.3.76.22.02.44,0,.65.01,1.17.02,1.56.59,1.2,1.69-.13.41-.31.82.06,1.2.77.43,1.66-.8,2.39.17-1.46,4.1-1.26,4.34,2.93,3.76.15-.02.34.2.64.39.03.44.09.97.11,1.51.02.65-.03,1.31.02,1.96.19,2.38,1.16,2.86,3.11,1.53.51-.35.86-1.03,1.77-.73-.1,1.24-.24,2.5-.31,3.77-.03.65.04,1.55.82,1.55,2.36-.01,2.56,1.43,2.48,3.22-.04.8.19,1.55.97,1.92.89.43,1.4-.15,1.87-.81.33-.47.78-.76,1.44-.39.39.77.22,1.65.28,2.51.17,2.69.34,2.81,3.09,2.19.33,1.36.58,2.75,1.03,4.08.27.82.84,1.64,1.86,1.54.92-.09,1.1-.91,1.19-1.7.09-.76.27-1.48,1.2-2.13.1,2.06.63,3.88,1.52,5.57.25.47.57.97,1.23.86.53-.09.52-.6.71-.97.58-1.1.43-2.56,1.84-3.61-.04,2.14.55,3.88,1.36,5.54.29.6.69,1.18,1.47,1.05.57-.09.86-.59,1.05-1.13.3-.89.63-1.76,1.12-3.11.43,2.62,1.22,4.43,3.35,5.39,1.73.78,2.16-.03,2.16-1.54.21-.23.41-.46.62-.69.13-.68-.33-1.47.42-2.05.71.64.76,1.51.98,2.35.62,2.38,1.75,3.59,3.19,3.59,1.46,0,2.07-.88,2.63-3.86,1.98.77,3.82,1.84,6.16.98,1.07-.4,1.16.84.66,1.48-2.09,2.7-1.51,5.44-.32,8.24.37.87.45,2.19,1.61,2.16,1.43-.04,1.16-1.6,1.55-2.51.47-1.09-.39-2.56.76-3.56,2.46,1.7,1.48,4.62,2.57,6.89,1.34-.73,2.15-1.85,3.41-2.27,1.34-.44,2.67-.89,4-1.35.82-.28,1.62-.61,2.44-.89,2.49-.86,3.71-2.5,3.3-5.2-.11-.75-.02-1.54-.22-2.25-.76-2.69-.5-5.32.14-8,.5-2.12,1.84-3.94,2.01-6.14,2.69-4.25.67-10.08-1.79-12.83-.9-1.01-1.47-.39-2.2-.04-1.1-.3-1.8-1.14-2.59-1.87-3.34-3.05-7.23-4.09-11.66-3.21-1.05.21-2.13.28-3.19.42-1.68.29-3.35.75-5.09.61-.87-.07-1.45.31-1.53,1.25,0,.23-.01.45-.02.68-.64-.45-1.29-.9-1.93-1.34-2.53-3.28-5.99-5.14-9.83-6.41-.29-.61-.8-.71-1.4-.6-.81-.08-1.62-.15-2.43-.23-.23-.77-.47-1.53-1.42-.61-.4-.01-.8-.03-1.2-.04-.14-.4-.22-.86-.68-1.01-2.19-.74-4.39-1.45-6.59-2.18-.22-.22-.43-.43-.65-.65h0c-1.04-2.04-3.24-2.79-4.74-4.33-2.48-2.54-5.11-4.95-7.67-7.41-2.15-3.32-4.95-6.18-6.84-9.69-.19-.35-.63-.56-.95-.84l-2.09-2.47c-.15-.54-.34-.56-.57-.04-1,1.1-1.48-.04-2.05-.53-2.26-1.95-4.04-4.51-7.12-5.37-.09-.31-.19-.37-.25-.15,0,.02.16.1.25.15-.22.94.96,1.51.89,2.41-1.28.41-1.57-.74-2.31-1.02-.59-1.46-2.11-1.83-3.19-2.72-3.41-4.13-8.01-6.67-12.47-9.4-.77-.47-1.67-.32-2.52-.39h0ZM104.95,176.66c.77-.02,1.5.13,2.21.44.53.23,1.13.26,1.44-.29.34-.6.3-1.31-.21-1.8-.54-.52-1.16-1.03-1.85-1.31-5.98-2.48-11.85-5.31-18.27-6.57-1.26-.25-2.49-.33-3.78,0,1.94,4.64,17.04,13.62,23.5,14.1.68-1.67.41-2.88-1.52-3.43-.59-.17-1.22-.47-1.59-1.07l.06-.07ZM52.03,155.19c-8.33-2.89-16.94-4.9-25.08-8.49-.39,1.48.55,1.91,1.12,2.46,7.03,6.92,15.56,11.41,24.82,14.33,8.96,2.82,18.14,4.95,27.24,7.28.88.23,2.3,1.45,2.8.07.43-1.17-1.15-1.88-2.1-2.55-.43-.3-.97-.5-1.49-.64-6.31-1.61-12.23-4.39-18.49-6.19-.38-.11-1.52-.04-.99-1.14.86.07,1.74,0,2.55.4,3.14,1.54,6.59,2.14,9.87,3.24,2.56.86,5.14,1.69,7.69,2.57.77.27,1.22.06,1.55-.66.37-.83-.1-1.22-.76-1.47-1.82-.69-3.63-1.44-5.49-2.02-7.74-2.42-15.49-4.79-23.24-7.18ZM66.37,222.44l-.02-.02,1.32-1.31c10.05-3.51,19.99-7.33,30.33-11.72-2.07-1.01-3.44-.5-4.87-.12-7.24,1.91-14.12,4.87-21.24,7.13-1.22.39-2.53.59-3.55,1.47-.64.1-1.32.09-1.9.32-5.74,2.29-11.31,4.97-16.91,7.59-1.79.84-3.29,2.04-4.9,3.1-.43.28-.89.69-.63,1.33.18.44.64.65,1.06.64,2.4-.04,4.66.85,7.09.77,2.93-.1,5.82-.45,8.73-.64,4.1-.27,7.81-1.25,11.32-3.48,3.01-1.91,5.95-3.98,9.23-5.47,1.87-.85,3.61-1.98,5.4-3.01.7-.41,1.2-.99.94-1.87-.3-1.01-1.11-1.31-2.05-1.18-.64.08-1.26.33-1.87.55-3.05,1.11-6.07,2.34-9.16,3.34-2.76.9-5.28,2.59-8.32,2.58ZM89.9,236.16l-.03-.04c0-1.34,1.09-1.73,1.98-2.35,4.8-3.33,9.61-6.66,14.37-10.06,1.76-1.26,3.38-2.69,5.05-4.07.32-.26.66-.66.35-1.12-.35-.5-.85-.65-1.4-.29-.45.3-.9.61-1.34.92-2.73,1.96-5.43,3.94-8.18,5.87-8.15,5.71-16.59,11.03-24.33,17.32-1.51,1.23-3.24,2.41-3.94,4.68,2.09.32,3.87.33,5.7-.08,8.22-1.82,15.37-5.83,21.94-10.9,4.96-3.83,9.78-7.86,14.54-11.93,1.58-1.35,3.24-2.74,4.33-4.71-3.43-.77-6.04.1-8.09,2.66-.68.85-1.62,1.41-2.53,2.02-2.51,1.69-4.87,3.61-7.45,5.19-3.67,2.26-6.94,5.18-10.96,6.89ZM35.65,183.16c1.3.06,2.63-.03,3.9.2,4.89.91,9.87,1.11,14.77,1.86,2.9.45,5.84.39,8.72.77,4.18.56,8.39.64,12.58,1.12.97.11,1.96.02,2.93.09.93.07,1.81.94,3.16.07-.93-.31-1.51-.63-2.13-.69-6.47-.58-12.8-2.02-19.12-3.39-6.12-1.32-12.12-3.47-18.4-3.67-6.5-.2-12.97-1.11-19.48-.9-.38-.45-.88-.64-1.44-.61-1.96.1-3.87-.4-5.79-.55-1.97-.14-3.88-1.43-6.32-.34,1.05,1.05,1.87,2.03,2.84,2.84,6.23,5.18,13.52,8.12,21.35,9.75,4.43.93,8.88,1.75,13.41,2.18,4.08.38,8.11,1.25,12.24,1.14.86-.02,1.74.05,2.58.21,5.29.94,10.61.21,15.92.41.57.02,1.12-.18,1.25-.8.15-.73-.24-1.3-.89-1.56-1.1-.45-2.46-.54-3.32-1.25-2.46-2.01-5.31-2.17-8.23-2.24-1.41-.03-2.86.14-4.23-.13-7.31-1.45-14.72-2.11-22.08-3.18-1.45-.21-3.01-.28-4.21-1.35ZM40.89,167.53c1.09.05,2.22-.09,3.25.16,10.82,2.7,21.77,4.86,32.49,7.95.85.25,1.75.67,2.51.15,1.87-1.28,4.05-.96,6.14-1.39-.9-.46-1.8-.78-2.72-.99-14.14-3.23-28.13-7.1-42.38-9.81-4.56-.87-8.97-2.52-13.68-2.63-.29-.34-.67-.48-1.11-.61-6.33-1.92-12.91-2.82-19.19-4.92-.74-.25-1.64-.6-2.13.07-.59.81.34,1.35.84,1.86,5.01,5.13,11.11,8.67,17.51,11.66,7.58,3.54,15.46,6.3,23.63,8.17,12.64,2.9,25.18,6.4,38.19,7.37,1.23.09,2.38,1.05,4,.17-2.6-1.05-4.88-2.32-6.56-4.25-2.09-2.4-4.82-3.17-7.7-3.8-.53-.11-1.07-.16-1.59-.29-7.97-2.08-15.95-4.09-23.87-6.33-2.56-.73-5.34-.94-7.62-2.56ZM38.37,198.02c1.17-.5,2.26-.51,3.32-.25,3.39.82,6.9.94,10.31,1.04,10.45.29,20.9.09,31.36.12,1.22,0,2.37-.21,3.5-.65.54-.21,1.01-.47.89-1.14-.12-.68-.71-.9-1.23-.78-3.34.8-6.65-.34-9.98-.07-6.52.53-13.02-.43-19.51-.77-2.78-.15-5.65-.15-8.4-.71-3.1-.63-6.25-.81-9.34-.99-6.29-.38-12.63-.16-18.94-.08-2,.03-4.01.39-5.94,1.29.77,1.15,1.89,1.39,2.84,1.87,3.1,1.56,6.17,3.12,9.58,4.03,8.29,2.21,16.6,3.95,25.27,3.96,5.12,0,10.19-.48,15.27-.82,5.71-.38,11.4-1.15,17.05-2.04,1.39-.22,3.25.13,4.82-1.99-17.44,1.06-34.23.51-50.85-2ZM51.58,213.48c-.08-.25-.16-.51-.24-.76,7.41-1.38,14.86-2.56,22.21-4.18,7.4-1.64,14.99-2.39,22.25-4.76-1.76-.29-3.49-.27-5.21-.29-.89-.01-1.7.37-2.54.48-5.56.76-11.14,1.48-16.72,2.11-4.83.54-9.78.48-14.5,1.5-8.03,1.74-16.23,2.63-24.1,5.08-.81.25-1.7.36-2,1.31.24.63.78.82,1.25,1.05.68.33,1.39.61,2.1.88,6.74,2.49,13.79,2.91,20.83,2.48,3.49-.21,6.99-.78,10.42-2.14,5.52-2.18,11.13-4.24,16.89-5.8,2.41-.65,4.96-1.2,7.02-2.89-12.6,1.81-25.07,4.31-37.67,5.93ZM87.73,224.89c.09-.81.53-.96.9-1.18,4.65-2.79,9.35-5.5,14.23-7.88,1.02-.5,1.71-1.13,1.12-2.25-.7-1.35-1.53-.51-2.41-.03-5.9,3.23-11.84,6.38-17.74,9.61-7.81,4.28-15.54,8.68-22.88,13.74-1.22.84-2.36,1.79-2.95,3.29,2.29,1.2,4.26.12,6.22-.16,7.7-1.11,14.99-3.41,21.49-7.86,1.97-1.35,4.13-2.44,6.02-3.88,2.19-1.67,4.58-2.98,6.19-5.53,1.52-2.41,3.83-4.44,7.21-4.35,1.2.03,2.28-.7,3.07-1.66.19-.23.33-.58.31-.86-.04-.57-.56-.58-.98-.63-1.53-.2-2.74.64-3.95,1.33-4.15,2.34-8.24,4.78-12.4,7.11-.99.56-1.96,1.37-3.45,1.19ZM141.46,252.3c-.56-.26-.86-.38-1.14-.52-2.51-1.26-2.45-1.22-3.87.99-1.05,1.64-2.07,3.33-3.92,5.16.15-1.72.32-2.81,1.03-3.6,1.91-2.13,2.72-4.93,4.47-7.15.45-.57,1.15-1.17.13-1.88-.87-.6-1.44-.52-2.14.42-1.63,2.19-2.8,4.64-4.2,6.95-2.59,4.25-5.28,8.45-7.84,12.72-1.47,2.46-2.36,5.11-2.07,8.06.19,1.86.51,2.11,2.23,1.41,3.25-1.34,5.47-3.93,7.47-6.61,3.68-4.94,6.74-10.29,9.85-15.95ZM87.96,248.16c.67.18,1,.39,1.28.34,4.06-.81,8.01-1.99,11.58-4.15,4.26-2.58,8.55-5.12,12.52-8.16,3.44-2.63,7.01-5.11,9.97-8.31.63-.68,1.79-1.49.79-2.41-.79-.74-2.03-1.37-3.29-.75-.47.23-.88.65-1.23,1.06-2.43,2.81-5.59,4.82-8.16,7.46-.41.43-.86,1.07-1.78.37.98-1.97,2.63-3.32,4.35-4.57,2.31-1.68,4.12-3.86,6.11-5.85.49-.49.71-1.23.06-1.7-.5-.36-1.02.14-1.38.54-3.91,4.25-8.64,7.58-12.78,11.55-3.95,3.78-8.14,7.13-12.87,9.85-1.93,1.11-3.94,2.26-5.16,4.75ZM100.5,183.48c.88-.25,1.37-.11,1.88.08,1.62.61,3.27,1.17,4.89,1.78.52.19,1.07.49,1.36-.2.25-.6-.16-1.01-.68-1.29-.1-.05-.19-.11-.29-.16-6.67-3.17-13.36-6.29-20.87-6.91-1.63-.14-3.33-.32-5.44.32,8.17,7.78,18.32,9.37,28.2,11.68-1.93-3.36-6.2-2.66-9.06-5.3ZM119.53,234.42c-.35.06-.62.02-.76.14-4.64,4.08-9.6,7.7-14.84,10.97-1.17.73-2.12,1.86-3.05,2.91-.73.81-1.13,1.82-1.19,2.96-.11,2.12.38,2.56,2.38,1.86,2.7-.95,4.81-2.83,7.08-4.49,1.65-1.21,2.86-2.6,2.96-4.74.05-1.06.5-1.85,1.55-2.21,1.53,2.51,1.52,2.49,3.42.78,3.07-2.77,5.34-6.27,8.33-9.1.25-.23.23-.58-.11-1.05-2.5.57-3.25,4.1-6.17,4.2-.08-.89.84-1.26.4-2.24ZM164.7,267.88c-1.1.03-1.23.79-1.42,1.34-1.21,3.47-2.27,6.98-3.81,10.35-.59,1.28-1.35,2.88-.78,4.37.55,1.45.03,3.77,1.87,4.19,1.91.44,2.93-1.64,3.92-2.92,3.31-4.32,3.2-9.88,5.06-14.74.04-.1.01-.22,0-.32-.04-1.25-.96-1.64-1.94-1.82-1.06-.2-1.13.67-1.31,1.43-.27,1.16-.65,2.27-.65,3.49,0,1.04-.23,2.08-1.78,2.49-.34-2.79,1.48-5.25.82-7.86ZM90.58,197.37c4.84,5.91,18.82,5.87,25.36,3.06-1.31-.37-2.62-.74-4.01-1.13.58-.52,1.16-.37,1.68-.46.61-.11,1.02-.42.9-1.08-.09-.46-.48-.69-.96-.72-.65-.03-1.31-.11-1.95-.05-3.39.3-6.75-.24-9.99-.9-3.83-.79-7.25-.12-11.02,1.29ZM136.01,223.4c-.33.47-.47.78-.71.98-3.02,2.65-4.1,6.33-5.25,9.95-.41,1.29.16,1.91,1.39,1.75,1.94-.26,2.88-1.34,2.49-3.23-.2-.96-.2-1.74.54-2.36,1.53-1.27,2.32-3.17,3.8-4.44,1.53-1.32,2-2.66.86-4.41-.67-.13-1.22,1.18-2,.13.12-.28.2-.6.38-.85.68-.94,1.3-2.09.08-2.81-1.14-.67-2.65-1.58-3.95-.4-2.71,2.48-5.71,4.79-6.59,8.68-.14.6-.7,1.28.09,1.73.58.34,1.34.28,1.85-.18,1.36-1.25,3.06-2.07,4.31-3.46.6-.67,1.19-1.65,2.7-1.07ZM115.6,192.88c-.62-.78-1.28-1.05-2.06-1.13-5.5-.56-10.89-1.74-16.13-3.42-2.53-.81-5-1.43-7.61-1.15-1.4.15-3.62-.95-4,.76-.28,1.27,2.06,1.87,3.29,2.69.26.18.6.25.9.38,3.8,1.63,7.79,2.66,11.86,3.19,3.81.49,7.65,1.36,12.26.42-4.47-.61-8.36-.74-12.44-2.84,5.04-.12,9.29,1.75,13.93,1.09ZM147.46,231.55c-1.73-.75-1.71-.76-2.21-2.67-.19-.72-.69-1.19-1.4-.55-2.49,2.21-5.39,3.98-7.08,7.03-.85,1.53-1.56,3.1-1.73,4.83-.16,1.54.86,2.25,2.23,1.55,1.05-.53,2.02-1.26,2.92-2.03,2.71-2.33,4.68-5.31,7.28-8.17ZM177.88,260.48c-.32.04-.63.08-.95.12-.05-1.78-.1-3.56-.16-5.34-.02-.71-.26-1.28-1.07-1.39-.83-.1-1.53.14-1.89.94-.17.38-.31.87-.23,1.26.74,3.37.52,6.92,2,10.14,1.29,2.8,2.55,3.06,4.87,1.06.88-.75,1.12-1.69.83-2.63-.51-1.7-.52-3.41-.64-5.14-.06-.96-.45-1.89-.69-2.84-.16-.63-.64-.84-1.22-.83-.79,0-1.12.46-1.25,1.2-.2,1.17.25,2.29.39,3.44ZM140.82,246.88c.12.88-.09,1.63.58,2.03.79.48,1.55.03,2.09-.45,3.45-3.09,5.28-7.34,7.69-11.16.8-1.27-.33-2.35-1.51-3.16-1.41-.97-1.61.39-2.23.98-.55.53-1.09,1.06-1.6,1.63-2.65,2.98-4.26,6.47-5.01,10.14ZM167.93,251.46c-1.56,4.2-1.17,8.46-.16,12.7.23.99.55,2.44,1.82,2.38,1.37-.07,2.2-1.28,2.56-2.6.17-.61.07-1.29.07-1.95,0-1.95,0-3.91,0-5.86q0-3.98-4.29-4.67ZM159.79,256.74c.25,1.15.36,2.37.8,3.45.46,1.11.15,2.78,1.84,3.12.72.15,2.5-2.08,2.53-3.44.08-3.25.55-6.42,1.3-9.57.21-.88,0-1.77-1.01-2.13-1.19-.42-3.78.19-3.96.97-.56,2.52-1.01,5.06-1.51,7.61ZM152.28,238.47c-2.89,3.79-4.66,8.04-4.22,13.05.06.72-.25,1.62.64,2.02,1.02.45,1.56-.42,2.2-.97.69-.6.95-1.4,1.23-2.24.58-1.74,1.23-3.47,1.95-5.16.54-1.26,1.98-2.23,1.64-3.76-.32-1.46-2.19-1.67-2.88-2.93-.02-.05-.21,0-.56,0ZM156.93,242.8c-2.49,4.18-3.91,8.36-3.63,13.02.08,1.38.08,3.3,1.52,3.59,1.76.35,2.31-1.58,2.92-2.94.18-.39.29-.82.37-1.25.49-2.55,1.16-5.05,2.08-7.48.11-.3.18-.62.21-.94.05-.44,0-.95-.42-1.13-.61-.26-1.02.16-1.27.68-.5,1.08-.48,2.44-1.9,3.52-.11-2.51,2.14-4.58.12-7.07ZM128.5,208.18c-1.21-.2-2.23-.26-2.95.56-.85.96-2.11,1.09-3.08,1.72-2.44,1.59-5.32,2.42-7.52,4.41-.33.3-.65.59-.53,1.08.14.53.63.54,1.05.57,4.18.32,7.95-.89,11.31-3.29,1.07-.76,2.8-1.52,1.31-3.45-.23-.3.62-.85.42-1.6ZM120.25,202.76c-.23-.24-.31-.38-.36-.37-4.46.73-8.93,1.09-13.46,1.22-2.43.07-5.08.58-7.19,2.4,3.01,2.18,12.87,1.92,17.45-.34-2.4-1-4.74,1.05-7.26.17,1.8-.89,3.67-.8,5.41-1.25,1.79-.46,3.72-.8,5.42-1.83ZM124,222.18c1.78.06,9.22-5.13,9.44-7.14.06-.55.27-1.1-.21-1.5-.67-.56-1.5-1.17-2.36-.7-3.45,1.86-6.01,4.59-7.5,8.24-.23.56.05,1.05.63,1.1ZM121.03,206.38c-2.96,1.38-5.59,1.92-8.21,2.21-1.79.2-3.3.89-4.92,1.41-.75.24-1.52.53-1.38,1.47.14.91.95,1.07,1.73,1.13,2.83.21,5.57-.33,8.25-1.16,1.27-.4,2.69-.52,3.67-1.54-.36-.85-1.35-.2-1.61-.98.54-.8,1.84-.67,2.46-2.55ZM96.18,214.34c1.8-1.17,4.26-1.51,6.21-2.94.19-.14.31-.63.22-.85-.09-.22-.56-.47-.77-.4-2.28.7-4.63,1.24-6.68,2.54-.39.25-.6.64-.31,1.1.24.38.57.66,1.33.56ZM137.04,230.19c.15.18.3.36.45.54,1.55-.61,2.74-1.81,4.04-2.81.67-.52,1.24-1.19,1.82-1.82.35-.38.81-.83.33-1.37-.43-.47-.99-.22-1.49-.01-.91.37-1.73.9-2.33,1.67-.97,1.24-1.89,2.53-2.83,3.8ZM80.31,190.27c.55.03.76-.18.76-.51,0-.34-.25-.53-.58-.53-.43,0-.84.16-.71.68.05.19.44.3.53.36ZM92.01,207.1c-.15-.1-.3-.27-.46-.27-.16,0-.33.14-.5.22.15.1.3.27.46.28.16,0,.33-.14.5-.23ZM94.14,206.15c-.16.09-.32.19-.47.28.16.09.33.24.48.24.16,0,.32-.17.48-.26-.16-.09-.32-.17-.49-.26ZM123.69,230.67c.09.03.18.08.27.08.03,0,.06-.14.08-.22-.09-.03-.18-.08-.27-.08-.03,0-.06.14-.08.22Z"/>
      <path class="cls-4" d="M265.07,221.81c1.98-1.41,3.35-3.55,5.59-4.68.94-.48,1.77-1.18,2.88-1.23-.19,1.58-1.69,1.83-2.66,2.6-2.25,1.79-4.37,3.65-4.9,6.78,6.62-6.49,14.85-9.96,24.08-12.71-2.69-1.19-4.47.01-6.31.27-.83.12-1.62.74-2.37-.13,1.14-1.09,2.73-.94,4.09-1.46,1.78-.69,3.57-1.31,5.07-2.53.56.84,1.25.7,1.97.25,3.66-2.32,7.22-4.76,10.4-7.73,2.65-2.47,3.98-5.77,5.75-9.18.12,1.67.22,2.97.32,4.26,2.09-3.6,2.34-7.71,4.44-11.14.43,0,.86,0,1.28.01.66.83,1.67.95,2.31.36,1.27-1.15,2.77-1.35,4.27-1.88,2.15-.76,4.4-2.09,5.76-4.07,1.35-1.97,3.23-3.11,5.05-4.45,3.38-2.49,7.07-4.56,10.04-7.6,0,0,.01,0,.01,0,.56,0,1.05-.12,1.28-.72,1.16-1.09,2.61-1.37,4.04-1.66.69.9-.05,1.3-.44,1.72-3.57,3.83-7.44,7.26-12.19,9.62-1.37.68-2.97,1.27-3.74,3.2,1.63.11,2.66-.76,3.75-1.31,2.42-1.23,4.84-2.43,7.58-2.77.52-.06,1.11-.32,1.37.38.18.48-.17.84-.49,1.11-1.41,1.19-2.99,2.13-4.62,3.01-1.31.7-2.94.96-3.74,2.44-.22.17-.96-.24-.62.49.07.16.52-.15.67-.44,3.11-.8,6.22-1.59,9.44-2.42-1.09,2.87-1.26,2.97-11.34,7.42,3.4.02,6.63-1.4,10.1-1.34-3.41,4.4-8.42,5.56-13.35,6.93q1.92,1.08,3.6,1.14c1.09.03,2.18.02,3.26.09.43.03.91.21,1.04.67.19.67-.34.97-.83,1.19-2.28,1.04-4.69,1.65-7.18,1.96-.72.09-1.55-.12-2.22,1.11,2.17.49,4.55-.19,6.55,1.41-1.6,1.06-3.29,1.29-4.98,1.39-1.72.1-3.46.02-5.23.24,1.93.52,4,.59,5.8,1.97-2.65,2.46-5.91,1.36-8.81,1.95.37,1.44,1.52,1.5,2.22,2.09.65.55.88,1.24.67,2.04-.21.79-.92.78-1.57.86-1.27.14-2.6-.32-3.81.36q1.12,3.47-2.69,3.59c-.32.01-.63.09-1.13.17-.59.98,1.03,2.93-1.22,3.34-.43.08-.23.71-.21,1.14.13,2.68.06,2.73-2.58,2.37-.42-.06-.83-.15-1.23-.22-.85,1.29-.27,2.65-.52,3.9-.22,1.07-.46,2.31-1.57,2.68-1.04.35-1.19-1.05-1.89-1.5-.35-.23-.63-.63-1.32-.37.08,1.28.22,2.62.24,3.97.02,1.05-.29,2.16-1.61,1.88-1.55-.33-1.56.45-1.65,1.55-.29,3.58-.79,3.85-4.24,2.4-.71,1.78.22,4.02-1.83,5.68-.7.35-.34-1.54-1.27-1.15-.71.3-.61,1.1-.82,1.67-.25.7-.27,1.48-.4,2.23-.12.68-.42,1.3-1.17,1.37-.82.08-1.51-.35-1.84-1.08-.21-.47-.15-1.07-.22-1.6-.06-.44-.22-.83-.97-1.22-.58,1.56-.14,3.4-1.23,4.74-.34.42-.5.98-.86,1.37-.56.61-1.06.56-1.47-.27-.6-1.22-.51-2.77-1.92-4.03.13,2.8-.66,4.95-2.39,6.9-1.56-1.13-.72-3.32-2.42-4.26-.75.84-.59,2.02-1.01,2.96-.8,1.78-1.59,2.26-3.51,1.97-1.58-.24-1.83-1.3-1.81-2.6,0-.65,0-1.3,0-1.96,1.01-1.56,2.44-2.47,4.17-3.18,1.37-.56,3.19-.79,3.68-2.66,1.38-.95,3.31-1.19,4.4-3.31-2.72.34-4.74,1.66-7.04,1.36-1.79.22-3.58,1.21-5.9.03,3.27-1.48,5.65-3.59,8.63-4.59,3.34-1.11,6.14-3.14,9-5.07,1.17-.79,2.18-1.83,1.99-3.47.43-.22.86-.45,1.28-.67,1.76-1.04,2.67-2.69,3.25-4.57,0,0,.01,0,.01,0,.43-.22.86-.44,1.29-.65.15,1.05-.35,2.43,1.37,2.67.33,1.53-1.24,2.69-1.06,4.33,1.64-.15,2.7-.8,3.16-2.16,1.08-3.16,3.3-5.55,5.37-8.03.66-.8,1.12-1.58,1.05-2.62,1.92-.45,2.92-1.81,3.99-4.07-2.28,1.05-3.6,2.09-4.08,3.98-1.88.4-2.69,2.02-3.88,3.26-1.61,1.69-2.22,4.23-4.53,5.3,0-1.16.72-2,1.22-2.96,1.53-2.92,3.93-5.16,5.85-7.78.6-.82,1.32-1.59.96-2.77-1.41.09-1.8,1.47-2.91,1.68,1.61-4.13,4.46-7.2,8.69-8.37,4.1-1.13,6.98-3.3,8.64-7.16,1.07-2.49,2.08-4.99,3.11-7.49.2-.48.58-.95.06-1.5-1.46-.03-1.54,1.31-2.03,2.16-1.06,1.86-1.63,4.06-3.83,5.08-.43.2-.64.72-.02.93,1.32.46.62,1.25.24,1.76-1.73,2.29-3.8,4.36-6.74,4.73-2.25.28-3.7,1.46-5.29,2.83-3.66,3.14-6.08,7.44-9.94,10.37-1.26-.04-1.91.92-2.67,1.67-2.24,2.22-4.56,4.38-6.67,6.72-2.6,2.88-5.89,4.4-9.53,5.29-3.68.9-7.37,1.72-11.08,2.47-1.24.25-2.77.68-3.6-.65-.75-1.21.43-2.27,1-3.22.97-1.59,2.08-3.07,1.87-5.07ZM325.13,185.16c-.29.1-.58.2-.86.3.06.08.11.23.18.24.37.05.58-.18.74-.48.22-.18,1,.23.63-.52-.08-.17-.53.16-.68.45Z"/>
      <path class="cls-1" d="M265.07,221.81c.21,2-.91,3.48-1.87,5.07-.57.95-1.75,2.01-1,3.22.83,1.33,2.36.9,3.6.65,3.71-.75,7.4-1.57,11.08-2.47,3.64-.89,6.93-2.42,9.53-5.29,2.11-2.34,4.43-4.5,6.67-6.72.76-.75,1.41-1.71,2.67-1.67.08,1.47-.7,2.59-1.44,3.77-.8,1.27-1.84,2.52-1.69,4.26,1.2-.13,1.24-1.71,2.44-1.53-.58,1.88-1.49,3.53-3.25,4.57-.46-2.01-.78-2.26-1.7-1.14-3.67,4.45-8.58,5.95-14.05,6.56-1.9.21-3.69,1.13-5.11,2.66-3.1,3.33-7.22,4.71-11.53,5.57-1.28.25-2.62.19-3.81-.94.98-1.74,1.96-3.53,2.98-5.31q2.18-3.83,1.97-5.75c-4.67,5.96-7.35,13.49-14.82,16.92,2.39-.19,4.45-.95,6.39-2.09,1.25-.73,1.9-.42,2.27.96.18.65.21,1.31-.09,1.91-1.1,2.21-1.49,4.81-3.62,6.46-.42.32-.72.84-.02,1.51,2.61-1.62,3.9-4.15,4.84-6.95,1.41-4.23,1.14-4.16,6.4-3.98.42.01.83.25,1.26.31,2.13.29,4.32.97,6.4.74,3.31-.37,6.67-.65,9.88-1.72-.5,1.88-2.31,2.1-3.68,2.66-1.73.71-3.16,1.61-4.17,3.18-.22,0-.44,0-.67.01-.11-.71-.44-1.16-1.22-1.29-2.55-.42-3.75.15-5.31,2.59-.36.24-.79.42-1.06.74-1.31,1.51-2.78,2.43-4.85,1.56-.45-.19-.88-.13-1.11.3-.21.4-.13.88.18,1.21.36.4.9.66,1.18,1.1.61.98.67,2.14.03,3.07-.6.87-1.56.42-2.38.13-.41-.15-.87-.18-1.24-.38-1.14-.62-1.75-.19-2.31.88-.97,1.85-1.09,3.94-1.92,6.2-2.47-2.14-5.53-2.82-8.41-3.96-4.78-1.89-4.87-2.34-4.1-7.1.68-4.18-.02-7.91-1.23-11.74-.45-1.44-1.12-2.84-.92-4.41.19.11.4.18.56.32,4.54,3.94,7.34,3.9,12.13.48,3.62-2.58,6.08-6.14,8.94-9.38,1.91-2.17,3.55-4.67,6.4-5.81.25.02.51.03.76.05Z"/>
      <path class="cls-1" d="M430.36,160.39c1.25-.98,2.81-.98,4.25-1.35,4.51-1.15,9.03-2.26,13.55-3.39.42-.11.82-.31,1.24-.4.53-.11,1.15-.19,1.49.32.37.57-.12,1-.47,1.4-1.88,2.14-4.15,3.8-6.47,5.43-10.38,7.28-22.02,11.47-34.25,14.45-6.62,1.62-13.22,3.38-19.9,4.74-5.4,1.1-10.84,1.97-16.27,2.9-.71.12-1.51.25-2.41-.54,1.53-1.33,2.56-3.02,3.59-4.72.54-.9,1.37-1.61,2.56-1.85,10.19-2.09,20.2-4.93,30.26-7.53,2.1-.54,4.19-1.11,6.3-1.58,1.08-.24,2.13-.43,2.8-1.43,1.73-1.24,3.86-1.23,5.78-1.88,2.95-.99,5.52-2.65,7.94-4.57Z"/>
      <path class="cls-1" d="M414.9,197.81c-10.87,1.36-21.71,1.1-32.53,1.11-3.27,0-6.53-.05-9.8.02-1.45.03-2.79-.31-4.16-.65-.65-.16-1.38-.28-1.22-1.16.15-.83.92-.81,1.56-.81,2.29-.02,4.58-.11,6.86,0,7.4.38,14.77-.3,22.12-.81,5.25-.37,10.58-.59,15.78-1.71,1.05-.22,2.17-.11,3.26-.12,5.66,0,11.32.01,16.98,0,1.31,0,2.6.06,3.84.54.66.26,1.67-.01,1.77,1.05.09.95-.84,1.23-1.43,1.6-3.42,2.15-7.21,3.47-11.06,4.57-10.53,3.03-21.33,4.03-32.2,3.24-5.37-.39-10.76-.85-16.11-1.69-3.83-.6-7.72-.9-11.57-1.47-.6-.09-1.5.2-1.59-.69-.1-1,.86-1.38,1.55-1.17,3.09.95,6.28.27,9.39.74,5.29.79,10.58.74,15.88.03,1.29-.17,2.6-.23,3.9-.19,6.2.21,12.3-.83,18.43-1.47.26-.03.39-.2.35-.96ZM418.11,197.96c-.15-.1-.3-.27-.46-.27-.16,0-.33.14-.5.22.15.1.3.27.46.28.16,0,.33-.14.5-.23Z"/>
      <path class="cls-1" d="M357.62,208.92c1.93-.31,3.79.38,5.6.88,10.78,2.98,21.25,6.9,31.63,11,5.03,1.99,9.84,4.6,14.47,7.45.66.41,1.44.77,1.14,1.7-.22.67-.89.89-1.58.94-4.29.29-8.56,1.39-12.9.12-1.74-.51-3.64-.06-5.5-.38-3.76-.65-6.9-2.62-10.02-4.5-6.05-3.64-12.22-7.04-18.54-10.18-1.36-.68-2.75-1.31-4.08-2.05-.77-.43-2.25-.64-1.69-1.92.59-1.32,1.73-.25,2.55,0,6.65,2.02,13.02,4.78,19.51,7.23,3.62,1.36,7.27,2.63,11.2,4.05-.12-1.34-.9-1.54-1.52-1.77-6.37-2.45-12.77-4.85-19.14-7.31-3.54-1.36-7.05-2.79-10.59-4.18-.45-.18-.74-.41-.55-1.08ZM391.41,223.43c-.14-.23-.3-.25-.49-.04.08.06.15.17.23.17.08,0,.17-.08.26-.13Z"/>
      <path class="cls-1" d="M431.68,178.64c1.12-1.21,2.69-.66,4.01-.9,3.17-.57,6.36-1.4,9.91-.91-1,2.22-2.7,3.75-4.52,4.88-8.21,5.08-17.1,8.25-26.75,9.46-4.82.6-9.65,1.32-14.47,1.71-7.88.64-15.8,1.36-23.74.63-.19-.99.57-1.04,1.18-1.1.79-.07,1.58-.25,2.13-.74,1.62-1.47,3.41-2.23,5.62-1.93.69.09,1.25-.25,1.64-.86.3-.46.71-.98,1.27-.93,3.45.28,6.62-1.24,10-1.47,7.12-.49,14.22-1.23,21.21-2.71.28-.06.49-.39.74-.6.44-.59,1.14-.47,1.73-.67,3.41-1.1,7.14-1.4,10.03-3.85Z"/>
      <path class="cls-1" d="M365.52,207.42c13.61,1.54,26.78,4.9,40.29,5.94-15.3-3.3-30.8-5.63-45.99-9.44,3.37-.93,6.65.04,9.87.47,3,.4,6.02.5,9.02.95,5.76.86,11.59,1.47,17.39,1.92,8.71.68,16.87,3.8,25.41,5.17.64.1,1.28.23,1.9.43.42.13.73.45.78.94.05.55-.38.78-.76.94-3,1.26-6,2.63-9.25,3.03-3.43.43-6.86.95-10.37.76-4.89-.25-9.7-.62-14.33-2.45-7.18-2.83-14.58-5.03-21.88-7.49-.67-.23-1.49-.26-2.08-1.18Z"/>
      <path class="cls-1" d="M351.96,216.53c-.03-.73-.47-1.15-1.06-1.52-.5-.31-.78-.78-.28-1.33.36-.4.72-.85,1.36-.63.31.11.7.18.88.4,1.83,2.24,4.65,2.62,7.03,3.83,10.13,5.17,20.25,10.4,29.69,16.8,2.56,1.74,5.13,3.54,7.29,6.43-2.9.27-5.42-.3-7.84-.7-8.44-1.39-16.17-4.61-23.18-9.63-5.8-4.15-11.8-8.01-17.7-12.02-.62-.42-1.15-.99-1.75-1.46-.43-.34-.97-.62-.61-1.28.35-.65.96-.88,1.66-.7.52.14,1,.41,1.5.63.98.44,1.87,1.13,3,1.2.47.75,1.24.63,1.95.66.22,1.52,1.44,1.71,2.61,1.96,1.11,1.6,2.83,2.13,4.58,2.61.47.75,1.24.63,1.95.66,1.68,2.63,4.43,3.28,7.19,3.91,1.27,1.85,5.49,4.12,8.82,4.48-3.28-1.7-5.69-3.76-8.81-4.5-2.27-1.53-4.43-3.27-7.19-3.92-.47-.74-1.24-.63-1.95-.66-.85-2.04-2.66-2.42-4.57-2.62-.23-1.51-1.44-1.71-2.62-1.96-.47-.74-1.24-.63-1.95-.65ZM380.03,232.06c.09-.05.17-.09.26-.14-.08-.06-.15-.17-.23-.17-.08,0-.17.08-.26.13.08.06.15.12.23.19Z"/>
      <path class="cls-4" d="M264.31,221.76c-2.86,1.14-4.49,3.64-6.4,5.81-2.86,3.24-5.32,6.79-8.94,9.38-4.79,3.42-7.58,3.46-12.13-.48-.16-.14-.38-.21-.56-.32-2.14-3.89-.77-7.32,1.25-10.78.92-1.58,1.68-1.14,2.69-.32.09.76-.23,2.17,1.25,1.25,3.81-2.36,8-3.67,12.27-4.82.83-.22,2.08-.21,2.08-1.62,2.57-.02,5.04.87,7.63.73.61-.03.79.61.86,1.17Z"/>
      <path class="cls-1" d="M382.35,247.22c-4.82.19-9.03-.83-13.04-2.46-7.51-3.06-13.93-7.86-20.1-13.02-.66-.55-1.29-1.18-1.83-1.86-.81-1.02-.58-2.47.42-3.5.98-1.02,1.9-.3,2.6.25,3.41,2.69,7.15,4.9,10.73,7.33.43.29.79.76,1.58.54.31-.88-.36-1.21-.98-1.64-5.22-3.68-10.41-7.4-15.65-11.05-.91-.63-1.66-1.39-2.44-2.15-.47-.47-.96-1.01-.44-1.68.6-.79,1.13-.15,1.64.21,2.99,2.14,5.94,4.34,8.97,6.42,4.99,3.44,10,6.85,15.06,10.19,4.08,2.69,7.68,5.97,11.4,9.1.92.77,1.43,1.85,2.09,3.32ZM365.01,236.16c.12.31.24.36.28.13,0-.03-.17-.11-.25-.16-.09-.48-.09-1.03-.8-.98-.07,0-.2.13-.2.2-.05.71.51.71.98.8Z"/>
      <path class="cls-1" d="M408.8,153.78c1.77-1.66,4.2-1.65,6.33-2.33,3.31-1.06,6.52-2.34,9.73-3.65.98-.4,2.01-.67,2.95-.98.74.95-.01,1.34-.39,1.77-3.26,3.76-7.67,5.98-11.74,8.65-7.96,5.23-17,7.56-26.13,9.54-5.3,1.15-10.51,2.59-15.73,4.04-.62.17-1.24.47-1.87.51-.69.05-.99-.45-.65-1.06.63-1.11,1.75-1.6,2.89-1.99,4.52-1.53,9.05-3,13.57-4.54,3.18-1.08,6.34-2.26,9.52-3.34.77-.26,1.39-.59,1.69-1.37,0,0,0,0,0,0,.74,0,1.52.14,1.97-.69,1.63-1.45,3.8-1.72,5.7-2.58.95-.43,2.08-.63,2.14-1.99Z"/>
      <path class="cls-4" d="M430.36,160.39c-2.42,1.91-4.99,3.57-7.94,4.57-1.92.65-4.05.64-5.78,1.88-2.09-.12-4.09.49-6.08.94-8.85,2.02-17.66,4.19-26.48,6.3-.42.1-.86.15-1.26.3-3.84,1.48-7.64,2.34-11.41-.92,19.54-4.99,39.18-9.32,58.95-13.07Z"/>
      <path class="cls-1" d="M323.32,260.55c-.16-2.42-1.5-4.23-2.55-6.17-1.24-2.28-2.66-4.46-3.99-6.69-.27-.46-.56-.93-.69-1.44-.13-.52-.05-1.1.52-1.4.42-.23.88-.13,1.23.13.43.32.86.69,1.14,1.14,4.19,6.81,8.94,13.28,12.58,20.43,1.16,2.28,1.63,4.68,1.43,7.23-.1,1.35-.75,1.74-1.94,1.19-1.18-.55-2.35-1.07-3.34-1.97-3.33-3.01-6.06-6.48-8.35-10.32-.17-.28-.41-.52-.51-.82-.28-.84-.49-1.77.2-2.45.68-.67,1.65-.54,2.45-.17.67.31,1.22.86,1.83,1.3Z"/>
      <path class="cls-4" d="M431.68,178.64c-2.89,2.45-6.62,2.76-10.03,3.85-.59.19-1.29.08-1.73.67-3.57.12-7.09.66-10.6,1.24-2.34.39-4.72.22-7.1.67-3.91.73-7.94.74-11.9,1.33-1.5.22-3.14.33-4.69-.77,1.58-.52,3.12-1.35,4.74-1.52,5.64-.59,10.85-2.93,16.42-3.79,2.88-.44,5.72-1.09,8.68-1.01,5.42.15,10.79-1.05,16.22-.68Z"/>
      <path class="cls-1" d="M315.71,222.12c1.23-.32,1.84,1.44,3.13.69-.31-1.18-1.25-1.74-2.12-2.34-.77-.53-.54-1.12-.15-1.67.66-.93,3.55-1.57,4.53-.98,3.1,1.88,4.82,4.93,6.53,7.94.34.6.37,1.56-.26,2.15-.7.67-1.41.08-2.09-.21-1.6-.68-2.34-2.63-4.28-2.92-.8.97.04,1.56.48,2.21,1.36,1.98,2.63,4,2.97,6.44.32,2.35-.19,2.75-2.41,2.02-1.04-.35-2.06-.78-2.78-1.63-2.53-2.97-5.5-5.48-8.37-8.09-.21-.19-.23-.58-.43-1.1,3.99-.37,5.45,3.44,8.63,5.23-.16-2.19-1.54-2.85-2.43-3.78-1.14-1.2-1.77-2.38-.96-3.95Z"/>
      <path class="cls-4" d="M353.55,183.34c-2.01-.03-3.47,1.38-5.23,1.61-.88.12-2.14,1.36-2.58.21-.62-1.58,1.31-1.37,2.13-1.74,3.36-1.5,6.82-2.77,10.2-4.23,4.76-2.06,9.71-2.66,15.29-2.44-1.04,1.72-2.16,2.91-3.52,3.66-7.82,4.34-16.21,7.06-25.37,8.8.55-1.67,1.46-2.36,2.72-2.74,1.35-.41,2.7-.83,4.01-1.34.86-.34,1.93-.45,2.35-1.79ZM355.2,182.73c-.07.05-.18.08-.2.15-.02.05.06.19.11.2.24.05.37-.05.31-.24-.01-.05-.15-.07-.22-.11Z"/>
      <path class="cls-4" d="M370.44,167.1c-.09,1.83-1.39,2.8-2.55,3.67-3.92,2.94-8.19,5.31-12.66,7.28-2.09.92-4.02,2.18-6.25,2.77-.82.22-1.63.81-2.18-.41-.5-1.12-.16-1.77.95-2.27,2.88-1.28,5.74-2.6,8.58-3.97.85-.41,1.88-.6,2.4-1.59-.75-.83-1.39-.14-2,.13-2.97,1.34-5.92,2.72-8.89,4.07-.46.21-1,.68-1.45.1-.49-.63-.08-1.23.34-1.74.72-.87,1.75-1.27,2.74-1.73,5.52-2.55,11.02-5.12,17.07-6.25,1.29-.24,2.54-.35,3.92-.06Z"/>
      <path class="cls-1" d="M299.38,273.53c-.32-3.94-2.58-7.44-2.81-11.37.97-.38.99.27,1.2.73,2.24,4.8,3.94,9.85,6.5,14.51,1.12,2.05,1.43,4.29,1.28,6.61-.06.9-.12,1.79-1.04,2.21-.97.44-1.73-.13-2.26-.83-2.79-3.68-6.23-7-7.09-11.81-.19-1.03-.85-1.73-1.17-2.63-.47-1.31-1.18-2.63-.73-4.08.26-.83.77-1.67,1.76-1.66.86,0,.74.94.96,1.49.95,2.35,1.84,4.73,2.75,7.1.22-.09.43-.19.65-.28Z"/>
      <path class="cls-1" d="M339.41,240.74c1.01-.98-.26-1.87.95-2.48,3.34,2.74,7.2,4.89,10.82,7.41,2.07,1.44,3.71,3.34,4,6.04.18,1.69-.37,2.15-2.02,1.71-2.67-.71-4.91-2.21-7.08-3.86-3.47-2.63-6.43-5.8-9.5-8.85-2.54-2.52-5.07-5.06-7.59-7.6-.44-.45-1.04-.83-.93-1.97,2.65.77,3.84,3.28,5.87,4.62,2.02,1.34,3.65,3.28,5.48,4.98Z"/>
      <path class="cls-1" d="M306.76,269c-.96-2.5-1.82-4.72-2.65-6.94-.25-.67-.91-1.56-.01-2.01.9-.45,1.22.58,1.58,1.22,2.02,3.59,4.02,7.18,6.06,10.76.7,1.22,1.47,2.4,2.25,3.57,1.21,1.8,1.51,3.81,1.34,5.9-.13,1.58-1.07,2.1-2.42,1.33-.84-.48-1.57-1.14-2.35-1.73-2.63-2.01-4.54-4.61-6.18-7.45-.16-.28-.3-.58-.42-.88-.99-2.63-.31-3.64,2.79-3.77Z"/>
      <path class="cls-4" d="M341.27,200.74c3.8-.62,7.69-.18,11.33-1.87-2.69,0-5.38.01-8.06-.01-.5,0-1.2.11-1.32-.6-.14-.84.57-1.23,1.19-1.18,4.59.35,8.91-1.69,13.5-1.45,1.86.1,3.64.52,5.35,1.15,1.15.42,1.22,1.24.14,1.86-2.71,1.58-5.52,3.23-8.69,3.39-4.49.23-9.05.56-13.44-1.3Z"/>
      <path class="cls-4" d="M343.95,194.66c2.92-1.37,6.13-1.04,9.05-2.77-2.82-.45-5.33,1.33-8.25-.13,2.99-1.44,5.92-1.51,8.64-2.32,4.34-1.3,8.66-2.93,13.35-2.28.53.07,1.09,0,1.63.07.29.04.64.19.8.41.33.45-.02.85-.36,1.09-1.7,1.17-3.4,2.33-5.39,2.98-4.33,1.42-8.69,2.71-13.32,2.63-1.94-.03-3.78,1.15-6.14.32ZM355.39,191.42c-.16-.1-.32-.27-.49-.28-.17,0-.35.15-.52.23.16.1.32.27.49.28.17,0,.35-.15.52-.23Z"/>
      <path class="cls-4" d="M408.8,153.78c-.06,1.37-1.19,1.56-2.14,1.99-1.9.86-4.07,1.13-5.7,2.58-.71.09-1.5-.07-1.97.69,0,0,0,0,0,0-2.88.09-5.43,1.39-8.1,2.22-5.69,1.77-11.36,3.62-17.01,5.99-.73-1.71-.42-2.63,1.36-3.22,10.31-3.38,20.55-6.97,31.01-9.87.83-.23,1.71-.26,2.56-.38Z"/>
      <path class="cls-1" d="M276.47,255.53c.72,1.51-.16,3.15.99,4.74,1-1.44.5-2.76.65-3.96.12-.99-.36-2.46,1.36-2.38,1.67.08,1.2,1.53,1.22,2.51.1,3.57.4,7.18-1.89,10.33-.64.89-1.16,1.98-2.4,1.92-1.21-.05-1.77-1.1-2.32-2.05-.64-1.1-.68-2.31-.5-3.48.27-1.81.7-3.59.67-5.45-.02-1.07.14-1.08,2.22-2.17Z"/>
      <path class="cls-2" d="M313.41,185.15c-2.1,3.43-2.35,7.55-4.44,11.14-.1-1.29-.19-2.59-.32-4.26-1.76,3.41-3.1,6.71-5.75,9.18-3.18,2.97-6.74,5.41-10.4,7.73-.72.45-1.41.59-1.97-.25,5.96-4.33,10.88-9.71,15.63-15.28.86-1.01.88-2.78,2.62-3.03.04.07.06.16.11.22.03.04.11.04.16.05l-.27-.27c.55-1.74,1.65-3.2,2.61-4.71.4-.63,1.03-1.56,2.01-.52Z"/>
      <path class="cls-1" d="M304.24,239.41c.11-1.19-1.38-2.34-.11-3.58,1.4.4,1.47,2.29,3.04,2.72.24-1.52-.79-2.3-1.34-3.28-.22-.4-.31-.85-.01-1.21.5-.6,1.01-.19,1.36.18,3.26,3.39,5.76,7.23,6.78,11.9.27,1.24-.53,2.2-.82,3.43-2.21-.73-3.29-2.31-4.47-3.87-1.56-2.04-2.41-4.57-4.42-6.29h-.01Z"/>
      <path class="cls-1" d="M310.47,228.66c5.51,2.29,9.54,8.93,8.3,13.74-1.96-.07-2.95-1.63-4.18-2.78-2.3-2.15-3.91-4.93-6.31-7-.39-.33-.85-.84-.3-1.37.46-.46,1.01-.21,1.48.09,1.22.76,1.82,2.39,3.77,2.73-.31-2.32-3.17-3.05-2.76-5.4Z"/>
      <path class="cls-1" d="M356.36,205.83c-5.51,2.59-17.34,1.84-23.12-1.38,2.56-.42,4.65,1.51,7.05.8-1.55-1.47-3.88-.75-5.78-2.65,7.46,1.29,14.71.12,21.84,3.22Z"/>
      <path class="cls-1" d="M291.27,252.94c.85-1.24.5-2.26.15-3.29-.22-.64-.31-1.34.56-1.56.82-.2,1.18.47,1.39,1.07.36,1.01.83,2.07.84,3.11.07,3.76,1.43,7.79-1.97,11.05-1.58-.82-1.96-2.23-2.42-3.71-.98-3.14-.26-6.47-1.21-9.61-.12-.38.02-.91.5-1.06.66-.21.96.29,1.22.78.48.94-.27,2.18.94,3.21Z"/>
      <path class="cls-1" d="M304.25,239.42c-.01,2.81,1.81,5.07,2.31,7.75.32,1.75.31,3.46.25,5.19-.05,1.34-.89,1.69-1.97.93-1.19-.84-1.98-2-2.46-3.38-.71-2.05-1.43-4.1-2.14-6.15-.13-.37.89-4.54,1.19-4.71,1.02-.59,1.85.45,2.81.35,0,0,.01.01.01.01Z"/>
      <path class="cls-2" d="M342.12,167.53c-2.96,3.03-6.66,5.11-10.04,7.6-1.82,1.34-3.7,2.49-5.05,4.45-1.36,1.98-3.62,3.31-5.76,4.07-1.5.53-3,.73-4.27,1.88-.64.59-1.65.47-2.31-.36,1.76-1.97,3.31-4.18,5.86-5.28.12.57-.24,1.44.59,1.6,1.45.27,3.21-1.08,3.98-2.87,4.55-4.45,9.65-8.13,15.42-10.84.46-.22,1.05-.17,1.57-.24Z"/>
      <path class="cls-1" d="M284.77,259.55c.85-1.64.4-3.15.51-4.56.07-.86.01-1.73.07-2.59.04-.58.31-1.05.98-1.02.49.02.74.36.84.83.8,4.05,1.44,8.1-.3,12.08-.47,1.08-.99,2.49-2.39,2.26-1.48-.24-1.76-1.63-1.81-3.04-.11-3.12.47-6.27-.55-9.34-.12-.36.03-.86.16-1.26.13-.43.49-.75.95-.72.5.03.7.45.71.91.03,1.3,0,2.6.05,3.9.03.79-.2,1.67.78,2.58Z"/>
      <path class="cls-1" d="M329.44,207.15c.99-.97,2.07-1.27,3.14-.99,4.48,1.18,9.13,1.73,13.43,3.55.91.38,2.53.55,2.29,1.85-.28,1.54-1.91,1.07-3.02,1.06-4.64-.05-8.85-1.76-12.92-3.75-.91-.44-2.09-.57-2.91-1.71Z"/>
      <path class="cls-2" d="M281.37,212.7c.75.87,1.54.25,2.37.13,1.84-.26,3.62-1.46,6.31-.27-9.23,2.75-17.46,6.22-24.08,12.71.53-3.13,2.65-4.99,4.9-6.78.97-.77,2.47-1.02,2.66-2.6.3-.48.77-.58,1.29-.59,1.53.91,2.2.01,2.68-1.28,1.22-.65,2.5-1.11,3.86-1.32Z"/>
      <path class="cls-1" d="M325.53,208.39c.89-.45,1.66-.51,2.16-.2,3.87,2.39,8.23,3.85,11.97,6.47.45.31.97.62.85,1.23-.14.67-.79.6-1.31.65-2.99.27-5.78-.57-8.53-1.57-2.09-.76-2.87-2.75-3.91-4.47-.39-.64-.75-1.29-1.22-2.11Z"/>
      <path class="cls-2" d="M255.83,219.86c0,1.41-1.26,1.39-2.08,1.62-4.27,1.16-8.46,2.46-12.27,4.82-1.49.92-1.16-.5-1.25-1.25,2.09-2.5,4.44-4.62,7.81-5.23,1.3.89,2.51,1.23,3.35-.57,1.55-.26,2.95.57,4.46.61Z"/>
      <path class="cls-4" d="M264.4,248.56c1.56-2.44,2.76-3,5.31-2.59.78.13,1.11.58,1.22,1.29-.21.71-.45,1.41-.64,2.13-.37,1.44-.9,2.63-2.75,2.41-1.88-.23-2.71-1.05-3.14-3.25Z"/>
      <path class="cls-1" d="M315.73,251.84c1.27,0,3.03,1.25,3.39,2.53.23.81.43,1.78-.36,2.38-.71.53-1.44-.04-2.08-.38-1.06-.56-1.96-1.35-2.44-2.46-.54-1.26.09-2.08,1.5-2.08Z"/>
      <path class="cls-4" d="M325.12,178.61c-.76,1.79-2.53,3.14-3.98,2.87-.83-.16-.47-1.03-.59-1.6q1.88-2.56,4.57-1.27Z"/>
      <path class="cls-4" d="M251.37,219.25c-.84,1.8-2.05,1.47-3.35.57.97-1.06,2.2-.57,3.35-.57Z"/>
      <path class="cls-4" d="M277.51,214.02c-.48,1.29-1.15,2.19-2.68,1.28.67-.91,1.58-1.3,2.68-1.28Z"/>
      <path class="cls-1" d="M302.01,265.65c.15.1.52.22.57.42.14.54-.3.65-.72.66-.34,0-.58-.2-.57-.54.01-.34.26-.5.72-.54Z"/>
      <path class="cls-1" d="M256.04,262.69c-.18-.08-.45-.12-.51-.24-.05-.13.13-.35.2-.52.18.08.46.12.51.24.05.13-.12.35-.2.53Z"/>
      <path class="cls-2" d="M343.42,166.81c-.23.59-.73.71-1.28.72.26-.54.78-.61,1.28-.72Z"/>
      <path class="cls-4" d="M127.76,177.33c1.08.89,2.6,1.25,3.19,2.71-.68.09-1.48-.42-2.11.49,1.98,2.62,4.82,3.75,7.81,4.74,6.31,2.09,5.25.66,7.46,7.53.2.61.3,1.26.52,1.86.24.65.07,1.6,1.2,1.73.69-2.1,0-4.03-.72-5.93-.42-1.11-1.13-2.12-.92-3.39.32.28.76.49.95.84,1.89,3.51,4.69,6.37,6.84,9.69-2.03.46-2.18.64-1.18,1.7,2.02,2.13,3.96,4.38,6.26,6.17,2.17,1.68,4.4,3.52,7.34,3.86,0,0,0,0,0,0,.22.22.43.43.65.65,2.2.72,4.4,1.44,6.59,2.18.46.15.54.61.68,1.01-1.61.42-3.08-1.14-4.91-.24,1.58,1.15,3.36,1.58,5.01,2.22,5.67,2.19,10.95,4.96,15.28,9.32.62.62,1.24,1.22,2.2,1.2.11.01.23,0,.32.04,1.69.92,3.02,2.94,2.64,4.01-.31.88-2.34,1.48-4.16,1.08-3.17-.7-6.31-1.51-9.47-2.24-1.91-.44-3.78-.94-5.55-1.81-4.95-2.41-8.07-6.85-11.72-10.67-1.03-1.09-1.99-1.93-3.45-2.16-.21-.22-.43-.44-.64-.66-.11-1.69-1.23-2-2.63-1.95-.2-.01-.41-.03-.61-.05-2.54-4.61-5.65-8.44-11.12-9.97-3.24-.91-6.18-2.71-6.63-6.68-.03-.29-.24-.63-.48-.8-1.85-1.36-2.49-3.45-3.4-5.4-.53-1.15-.93-2.51-2.56-2.63-.22-.21-.44-.42-.66-.63-.28-.52-.77-.64-1.31-.66-.16-.29-.37-.52-.73-.46-.07.01-.13.15-.19.23.28.1.57.2.85.31.29.51.78.64,1.32.65.21.22.42.44.64.66,1.45,3.45,3.18,6.79,4.31,10.39.9,2.86,2.96,4.72,5.78,5.68,1.11.38,2.33.51,3.4.97,3.24,1.4,5.87,3.44,6.86,7.06-1-.24-1.8-1.15-2.88-1.02-.11.27-.2.39-.17.45,2.08,4.1,5.55,7.11,8.41,10.6.61.74,1-.26,1.17-.89,1.11.5,1.32,1.66,1.91,2.55,3.29,4.94,7.1,9.62,12.82,11.51,4.87,1.61,8.93,4.77,13.8,6.24.08.02.07.34.1.53-3.05.34-6.05.11-8.97-.86-.76-.25-1.46-.46-2.08.24-.4,0-.81,0-1.21,0-.66-1.91-2.38-1.06-3.65-1.45.57,1.32,1.9,1.54,2.91,2.2.52.04,1.01.15,1.3.66.07.71.46,1.16,1.09,1.48,3.17,1.6,6.23,3.26,10.02,3.15,3.81-.1,4.98,1.15,5.26,4.5-.56,2.98-1.17,3.86-2.63,3.86-1.45,0-2.57-1.21-3.19-3.59-.22-.84-.27-1.7-.98-2.35-.74.58-.29,1.38-.42,2.05-.21.23-.41.46-.62.69,0,1.52-.43,2.32-2.16,1.54-2.13-.96-2.92-2.76-3.35-5.39-.49,1.34-.81,2.22-1.12,3.11-.19.54-.47,1.04-1.05,1.13-.77.13-1.17-.46-1.47-1.05-.81-1.66-1.41-3.39-1.36-5.54-1.41,1.05-1.27,2.51-1.84,3.61-.19.37-.19.89-.71.97-.66.11-.98-.39-1.23-.86-.89-1.69-1.43-3.51-1.52-5.57-.93.65-1.12,1.37-1.2,2.13-.09.79-.27,1.61-1.19,1.7-1.02.1-1.59-.72-1.86-1.54-.44-1.33-.69-2.72-1.03-4.08-2.74.63-2.92.5-3.09-2.19-.05-.86.12-1.74-.28-2.51-.66-.37-1.1-.08-1.44.39-.47.66-.97,1.24-1.87.81-.78-.38-1.01-1.12-.97-1.92.09-1.78-.12-3.23-2.48-3.22-.77,0-.85-.9-.82-1.55.06-1.27.2-2.54.31-3.77-.9-.3-1.25.38-1.77.73-1.94,1.32-2.91.85-3.11-1.53-.05-.65,0-1.31-.02-1.96-.02-.53-.07-1.06-.11-1.51-.3-.19-.49-.41-.64-.39-4.2.59-4.4.34-2.93-3.76-.73-.97-1.62.26-2.39-.17-.37-.38-.19-.79-.06-1.2.36-1.1-.03-1.67-1.2-1.69-.22,0-.44.01-.65-.01-.82-.1-1.84.28-2.3-.76-.53-1.21.42-1.75,1.19-2.36.33-.26.7-.53.71-1.1-1.15-.91-2.19.19-3.28.26-1.86.12-3.86-.48-3.68-1.28.33-1.48,1.41-2.37,2.95-2.59.54-.08,1.08-.15,1.49-1-3.15-.84-6.73.42-9.6-2.01.95-1.52,3.08-.66,4.23-2.16-3.26-.21-6.54.21-9.45-1.65,2.17-1.47,4.55-.84,7.27-1.19-3.65-1.94-7.98-1-10.78-4.23,2.18-1.7,4.95-.05,7.04-1.91-4.15-1.4-8.43-2.68-11.63-6.53,3.33-.63,6.07,1.43,9.64.82-4.25-2.04-8.32-3.32-11.75-6.75,4.26-.18,7.52,2.09,11.32,1.92-1.71-.88-3.39-1.85-5.15-2.6-1.74-.74-3.05-2.07-4.61-3.05-.37-.23-.71-.57-.59-1.06.18-.72.86-.67,1.33-.55,2.41.65,4.77,1.46,7.01,2.59,1.29.65,2.5,1.62,4.79,1.73-2.86-3.41-6.57-4.35-9.45-6.48-2.99-2.21-5.31-4.98-7.75-7.76,1.72-.11,3.23.1,4.42,1.31.27.54.75.66,1.3.66,0,0,0,0,0,0-.03.91.65,1.28,1.27,1.71,2.12,1.46,4.11,3.16,6.37,4.37,2.41,1.29,4.46,3.36,7.34,3.72ZM144.81,211.29c-.13-.31-.25-.36-.31-.12,0,.04.16.12.25.18.74,3.42,3.29,5.76,5.04,8.57,1.87,3,4.36,5.04,7.97,6.28-2.45-5.1-8.26-12.15-12.02-14.69-.25-.17-.62-.15-.94-.22ZM165.37,212.04c-.16.09-.31.18-.47.27.16.08.32.24.48.23.16,0,.31-.16.47-.25-.16-.08-.32-.17-.48-.25ZM138.47,195.35c-.04-.07-.06-.18-.12-.2-.07-.03-.21-.02-.25.03-.15.16-.08.29.16.31.07,0,.14-.09.21-.14Z"/>
      <path class="cls-1" d="M190.54,249.87c-.28-3.35-1.46-4.61-5.26-4.5-3.79.1-6.86-1.55-10.02-3.15-.63-.32-1.02-.77-1.09-1.48,3.28,1.1,6.52,2.11,10.1,2.01,4.01-.11,7.97-.48,11.91-1.22,1.3-.24,2.01.03,2.27,1.49.3,1.7.78,3.38,1.38,5,.84,2.25,2.39,3.89,4.62,4.93.48-1.06-.16-1.49-.62-1.85-2.2-1.73-2.89-4.24-3.69-6.73-.3-.95-.29-1.76.35-2.41.85-.87,1.64-.03,2.3.39,1.91,1.22,3.96,1.85,6.28,1.9-2.68-2.32-6.05-3.66-7.99-6.91-1.81-3.03-3.7-6.09-6.3-8.62.57,3.7,2.82,6.61,4.51,9.71-1.01.93-2.1,1.15-3.18.95-3.41-.63-6.75-1.38-9.61-3.62-1.94-1.52-3.79-3.51-6.17-4.06-3.99-.93-7.98-1.84-11.98-2.76-.17-.36-.27-.79-.54-1.06-.14-.14-.69-.14-.82,0-.39.47.07.71.41.88.27.13.6.15.9.22,2.27,2.72,5.64,3.17,8.75,3.72,2.65.47,4.62,1.75,6.5,3.36,1.5,1.28,3.14,2.28,4.82,3.28,1.48.88,3.39.56,5.07,2.02-4.65,0-8.94.14-13.22-.07-1.88-.09-3.79-.74-5.38-1.95.62-.7,1.31-.49,2.08-.24,2.92.97,5.92,1.19,8.97.86-.03-.19-.02-.51-.1-.53-4.86-1.47-8.92-4.63-13.8-6.24-5.72-1.89-9.53-6.57-12.82-11.51-.59-.89-.8-2.05-1.91-2.55-.23-.86-.46-1.72-.69-2.58,1.35-.03,1.72,1.04,2.32,1.96,1.39,2.11,2.38,4.53,4.61,6.29.45-1.24-.29-1.82-.73-2.52-1.68-2.65-3.39-5.29-4.23-8.36,1.46.23,2.41,1.07,3.45,2.16,3.64,3.83,6.76,8.26,11.72,10.67,1.77.86,3.64,1.37,5.55,1.81,3.16.73,6.3,1.54,9.47,2.24,1.82.4,3.85-.2,4.16-1.08.38-1.07-.95-3.09-2.64-4.01-.09-.05-.21-.03-.32-.04,0-.43-.02-.86-.03-1.28.77-.47.64-1.25.67-1.97,0-.23.01-.45.02-.68.41.13.92.14,1.21.4,2.29,2.14,4.68,4.2,6.55,6.73,2.72,3.66,5.63,7.05,9.67,9.38,2.72,1.57,5.31,1.65,7.95.11.86-.5,1.65-1.01,2.68-.95-.18,2.2-1.51,4.03-2.01,6.14-.64,2.68-.9,5.31-.14,8,.2.71.11,1.51.22,2.25.41,2.7-.81,4.35-3.3,5.2-.82.28-1.62.61-2.44.89-1.33.46-2.66.91-4,1.35-1.26.41-2.06,1.54-3.41,2.27-1.09-2.27-.1-5.18-2.57-6.89-1.14,1.01-.28,2.47-.76,3.56-.39.91-.12,2.48-1.55,2.51-1.17.03-1.24-1.29-1.61-2.16-1.19-2.8-1.77-5.53.32-8.24.5-.64.41-1.88-.66-1.48-2.35.87-4.19-.21-6.16-.98Z"/>
      <path class="cls-1" d="M40.89,167.53c2.27,1.63,5.05,1.84,7.62,2.56,7.92,2.24,15.91,4.24,23.87,6.33.52.14,1.07.18,1.59.29,2.88.62,5.61,1.39,7.7,3.8,1.68,1.93,3.97,3.2,6.56,4.25-1.62.88-2.78-.08-4-.17-13.02-.97-25.55-4.47-38.19-7.37-8.16-1.87-16.05-4.63-23.63-8.17-6.41-2.99-12.51-6.53-17.51-11.66-.5-.51-1.43-1.05-.84-1.86.49-.67,1.39-.32,2.13-.07,6.28,2.1,12.87,3,19.19,4.92.43.13.81.27,1.11.61.67,1.43,2.09,1.62,3.35,2.14,1.12.46,2.6.38,3.19,1.8.21,1.78,1.58,1.21,2.63,1.31h0c.68.99,1.71.59,2.62.65h0c.68.99,1.71.59,2.62.65h0Z"/>
      <path class="cls-1" d="M38.37,198.02c16.62,2.51,33.41,3.07,50.85,2-1.57,2.11-3.43,1.77-4.82,1.99-5.65.89-11.34,1.66-17.05,2.04-5.08.34-10.15.82-15.27.82-8.66,0-16.97-1.75-25.27-3.96-3.41-.91-6.48-2.47-9.58-4.03-.94-.48-2.07-.72-2.84-1.87,1.93-.9,3.93-1.26,5.94-1.29,6.31-.08,12.65-.3,18.94.08,3.09.18,6.24.36,9.34.99,2.74.56,5.62.56,8.4.71,6.5.34,12.99,1.3,19.51.77,3.34-.27,6.64.87,9.98.07.52-.12,1.11.1,1.23.78.12.67-.34.93-.89,1.14-1.13.44-2.27.66-3.5.65-10.45-.02-20.91.17-31.36-.12-3.41-.09-6.92-.22-10.31-1.04-1.06-.25-2.15-.25-3.32.25Z"/>
      <path class="cls-1" d="M35.65,183.16c1.2,1.07,2.76,1.13,4.21,1.35,7.36,1.07,14.77,1.73,22.08,3.18,1.36.27,2.82.09,4.23.13,2.93.07,5.78.22,8.23,2.24.87.71,2.22.8,3.32,1.25.65.26,1.04.83.89,1.56-.13.62-.68.82-1.25.8-5.3-.19-10.63.53-15.92-.41-.85-.15-1.72-.23-2.58-.21-4.13.11-8.16-.76-12.24-1.14-4.54-.43-8.98-1.25-13.41-2.18-7.83-1.64-15.13-4.57-21.35-9.75-.97-.81-1.79-1.78-2.84-2.84,2.44-1.08,4.36.2,6.32.34,1.92.14,3.83.65,5.79.55.56-.03,1.07.16,1.44.61.68.95,1.79,1.04,2.75,1.49,3.3,1.53,7.02,1.57,10.33,3.04Z"/>
      <path class="cls-1" d="M51.58,213.48c12.6-1.61,25.07-4.12,37.67-5.93-2.06,1.69-4.61,2.24-7.02,2.89-5.77,1.56-11.37,3.61-16.89,5.8-3.43,1.36-6.94,1.92-10.42,2.14-7.04.43-14.09.01-20.83-2.48-.71-.26-1.42-.55-2.1-.88-.47-.23-1.01-.42-1.25-1.05.3-.95,1.19-1.06,2-1.31,7.87-2.46,16.08-3.34,24.1-5.08,4.72-1.02,9.67-.96,14.5-1.5,5.58-.63,11.15-1.35,16.72-2.11.84-.11,1.65-.5,2.54-.48,1.72.02,3.45,0,5.21.29-7.26,2.38-14.85,3.13-22.25,4.76-7.35,1.63-14.8,2.81-22.21,4.18.08.25.16.51.24.76Z"/>
      <path class="cls-1" d="M87.73,224.89c1.49.19,2.46-.63,3.45-1.19,4.16-2.33,8.25-4.77,12.4-7.11,1.21-.68,2.43-1.52,3.95-1.33.42.05.94.07.98.63.02.28-.12.64-.31.86-.79.96-1.87,1.7-3.07,1.66-3.39-.09-5.69,1.94-7.21,4.35-1.61,2.55-4,3.86-6.19,5.53-1.89,1.44-4.05,2.53-6.02,3.88-6.5,4.45-13.78,6.75-21.49,7.86-1.96.28-3.93,1.36-6.22.16.59-1.5,1.73-2.45,2.95-3.29,7.34-5.05,15.08-9.46,22.88-13.74,5.9-3.23,11.84-6.38,17.74-9.61.88-.48,1.7-1.32,2.41.03.59,1.13-.1,1.75-1.12,2.25-4.88,2.38-9.58,5.09-14.23,7.88-.37.22-.81.37-.9,1.18ZM84.65,226.33c-2.19.53-4.07,1.56-5.46,3.38,1.92-.97,4.46-.92,5.48-3.35.32-.02.64-.02.96-.05.33-.04.78-.18.7-.49-.17-.68-.67-.23-.98-.1-.27.12-.47.4-.71.61ZM77.08,230.32c-.18.11-.5.22-.62.43-.18.34.09.61.42.58.25-.03.58-.21.71-.43.25-.4-.12-.48-.52-.58Z"/>
      <path class="cls-1" d="M89.9,236.16c4.02-1.71,7.29-4.63,10.96-6.89,2.57-1.59,4.94-3.5,7.45-5.19.91-.61,1.85-1.17,2.53-2.02,2.04-2.56,4.65-3.43,8.09-2.66-1.08,1.97-2.75,3.36-4.33,4.71-4.77,4.07-9.58,8.1-14.54,11.93-6.57,5.08-13.72,9.08-21.94,10.9-1.83.41-3.61.39-5.7.08.7-2.27,2.43-3.45,3.94-4.68,7.74-6.29,16.18-11.6,24.33-17.32,2.75-1.92,5.45-3.91,8.18-5.87.44-.32.89-.63,1.34-.92.55-.36,1.05-.22,1.4.29.32.46-.03.86-.35,1.12-1.66,1.38-3.29,2.82-5.05,4.07-4.76,3.4-9.56,6.73-14.37,10.06-.89.61-1.98,1.01-1.98,2.35-1.26,0-2.37.22-2.81,1.93,1.32-.46,2.34-.79,2.84-1.89Z"/>
      <path class="cls-4" d="M218.61,237.42c-1.03-.06-1.82.45-2.68.95-2.63,1.54-5.23,1.46-7.95-.11-4.04-2.33-6.95-5.72-9.67-9.38-1.88-2.53-4.26-4.59-6.55-6.73-.28-.26-.8-.27-1.21-.4.08-.94.67-1.32,1.53-1.25,1.74.14,3.4-.32,5.09-.61.35.49.9.48,1.41.62,5.56,1.55,11.28,2.76,15.75,6.83.1.09.39-.02.65-.05.37-.97-.51-1.81-.38-2.75.73-.35,1.3-.97,2.2.04,2.46,2.75,4.48,8.58,1.79,12.83Z"/>
      <path class="cls-1" d="M67.67,221.11c-.44.44-.88.87-1.32,1.31-.22.18-.96-.25-.63.48.07.15.5-.18.65-.46,3.04.01,5.56-1.68,8.32-2.58,3.09-1.01,6.11-2.23,9.16-3.34.61-.22,1.23-.47,1.87-.55.94-.12,1.75.18,2.05,1.18.26.88-.23,1.47-.94,1.87-1.78,1.03-3.53,2.16-5.4,3.01-3.28,1.49-6.22,3.56-9.23,5.47-3.51,2.23-7.22,3.21-11.32,3.48-2.91.19-5.8.54-8.73.64-2.43.08-4.7-.81-7.09-.77-.42,0-.88-.2-1.06-.64-.26-.64.2-1.05.63-1.33,1.62-1.06,3.11-2.27,4.9-3.1,5.6-2.61,11.17-5.29,16.91-7.59.58-.23,1.27-.22,1.9-.32-.09,1.11-.85,2.08-.67,3.24Z"/>
      <path class="cls-1" d="M59.86,160.32c-.53,1.1.61,1.03.99,1.14,6.25,1.8,12.17,4.57,18.49,6.19.52.13,1.06.33,1.49.64.95.67,2.53,1.38,2.1,2.55-.51,1.39-1.92.16-2.8-.07-9.11-2.33-18.29-4.46-27.24-7.28-9.26-2.91-17.79-7.41-24.82-14.33-.56-.55-1.51-.98-1.12-2.46,8.15,3.59,16.76,5.6,25.08,8.49-.2,1.55.58,2.21,2.01,2.72,1.97.71,4.19.88,5.82,2.41Z"/>
      <path class="cls-1" d="M141.46,252.3c-3.11,5.66-6.17,11.01-9.85,15.95-2,2.68-4.22,5.27-7.47,6.61-1.71.7-2.04.45-2.23-1.41-.29-2.95.6-5.6,2.07-8.06,2.56-4.27,5.25-8.47,7.84-12.72,1.41-2.31,2.57-4.76,4.2-6.95.7-.93,1.27-1.01,2.14-.42,1.03.71.32,1.31-.13,1.88-1.75,2.22-2.56,5.02-4.47,7.15-.71.79-.89,1.88-1.03,3.6,1.85-1.84,2.87-3.53,3.92-5.16,1.42-2.21,1.36-2.25,3.87-.99.28.14.58.27,1.14.52Z"/>
      <path class="cls-1" d="M87.96,248.16c1.21-2.49,3.22-3.64,5.16-4.75,4.74-2.72,8.93-6.07,12.87-9.85,4.14-3.97,8.88-7.3,12.78-11.55.37-.4.88-.9,1.38-.54.65.47.43,1.21-.06,1.7-1.99,1.99-3.8,4.17-6.11,5.85-1.71,1.25-3.37,2.6-4.35,4.57.92.69,1.37.05,1.78-.37,2.58-2.65,5.74-4.65,8.16-7.46.35-.41.76-.82,1.23-1.06,1.26-.62,2.49.01,3.29.75,1,.93-.16,1.73-.79,2.41-2.96,3.2-6.53,5.68-9.97,8.31-3.97,3.04-8.26,5.57-12.52,8.16-3.57,2.16-7.52,3.34-11.58,4.15-.28.06-.61-.15-1.28-.34ZM108.49,234.64c-1.52.14-2.41.92-2.76,2.68,1.72-.38,2.4-1.35,2.76-2.68ZM104.02,238.58c-.18-.08-.41-.26-.54-.21-.13.05-.17.34-.25.52.18.08.41.26.53.21.13-.05.17-.33.26-.52Z"/>
      <path class="cls-4" d="M33.03,164.92c-.6-1.42-2.07-1.34-3.19-1.8-1.26-.52-2.68-.71-3.35-2.14,4.71.1,9.12,1.76,13.68,2.63,14.26,2.71,28.25,6.58,42.38,9.81.93.21,1.83.53,2.72.99-2.09.42-4.27.1-6.14,1.39-.76.52-1.66.09-2.51-.15-10.72-3.09-21.67-5.25-32.49-7.95-1.03-.26-2.16-.12-3.25-.16,0,0,0,0,0,0-.69-.96-1.72-.55-2.62-.66,0,0,0,0,0,0-.69-.97-1.72-.56-2.62-.66,0,0,0,0,0,0-.64-.91-1.84-.7-2.63-1.31Z"/>
      <path class="cls-4" d="M35.65,183.16c-3.3-1.47-7.03-1.51-10.33-3.04-.95-.44-2.07-.54-2.75-1.49,6.52-.21,12.98.69,19.48.9,6.28.2,12.28,2.35,18.4,3.67,6.32,1.37,12.65,2.8,19.12,3.39.61.06,1.2.38,2.13.69-1.34.87-2.23,0-3.16-.07-.97-.08-1.96.02-2.93-.09-4.18-.47-8.39-.55-12.58-1.12-2.88-.39-5.82-.33-8.72-.77-4.9-.75-9.88-.96-14.77-1.86-1.27-.23-2.6-.14-3.9-.2Z"/>
      <path class="cls-4" d="M104.88,176.74c.37.6.99.9,1.59,1.07,1.93.55,2.21,1.76,1.52,3.43-6.46-.48-21.56-9.46-23.5-14.1,1.29-.33,2.52-.25,3.78,0,6.42,1.27,12.28,4.1,18.27,6.57.68.28,1.3.8,1.85,1.31.51.49.55,1.2.21,1.8-.32.55-.91.52-1.44.29-.71-.31-1.44-.46-2.21-.44-.29-.51-.77-.64-1.31-.65-.29-.52-.77-.64-1.31-.65-.28-.52-.76-.65-1.3-.66-.24-.3-.43-.82-.9-.23l.85.29c.29.52.78.63,1.31.65.28.52.77.63,1.3.66.28.52.77.63,1.3.66Z"/>
      <path class="cls-4" d="M100.5,183.48c2.86,2.64,7.13,1.95,9.06,5.3-9.88-2.31-20.03-3.9-28.2-11.68,2.11-.64,3.81-.45,5.44-.32,7.5.62,14.2,3.74,20.87,6.91.1.05.19.11.29.16.52.28.93.69.68,1.29-.29.69-.84.4-1.36.2-1.63-.61-3.27-1.17-4.89-1.78-.52-.19-1-.33-1.88-.08ZM99.24,182.99c-.02-.07,0-.17-.05-.2-.06-.05-.19-.08-.25-.05-.21.13-.18.27.07.34.07.02.15-.05.23-.08Z"/>
      <path class="cls-1" d="M119.53,234.42c.44.98-.49,1.35-.4,2.24,2.92-.1,3.67-3.63,6.17-4.2.35.48.36.82.11,1.05-2.99,2.84-5.26,6.33-8.33,9.1-1.89,1.71-1.89,1.73-3.42-.78-1.05.37-1.5,1.15-1.55,2.21-.1,2.14-1.31,3.53-2.96,4.74-2.27,1.65-4.38,3.54-7.08,4.49-2,.7-2.49.26-2.38-1.86.06-1.14.46-2.15,1.19-2.96.94-1.05,1.88-2.18,3.05-2.91,5.24-3.27,10.2-6.89,14.84-10.97.13-.12.41-.08.76-.14Z"/>
      <path class="cls-1" d="M164.7,267.88c.66,2.62-1.16,5.07-.82,7.86,1.55-.4,1.78-1.45,1.78-2.49,0-1.22.38-2.34.65-3.49.18-.77.25-1.63,1.31-1.43.97.18,1.9.57,1.94,1.82,0,.11.03.23,0,.32-1.86,4.86-1.75,10.42-5.06,14.74-.99,1.29-2.01,3.36-3.92,2.92-1.84-.42-1.32-2.74-1.87-4.19-.57-1.49.19-3.09.78-4.37,1.54-3.37,2.59-6.88,3.81-10.35.19-.55.32-1.31,1.42-1.34Z"/>
      <path class="cls-4" d="M90.58,197.37c3.77-1.4,7.2-2.07,11.02-1.29,3.24.67,6.6,1.2,9.99.9.64-.06,1.3.02,1.95.05.47.02.87.25.96.72.12.66-.29.97-.9,1.08-.52.1-1.1-.06-1.68.46,1.39.39,2.7.76,4.01,1.14-6.54,2.81-20.52,2.85-25.36-3.06Z"/>
      <path class="cls-1" d="M136.01,223.4c-1.51-.58-2.1.4-2.7,1.07-1.25,1.4-2.95,2.21-4.31,3.46-.5.47-1.27.52-1.85.18-.78-.46-.22-1.14-.09-1.73.88-3.89,3.88-6.2,6.59-8.68,1.3-1.18,2.81-.27,3.95.4,1.22.72.59,1.87-.08,2.81-.18.25-.26.57-.38.85.78,1.06,1.33-.26,2.01-.13,1.14,1.75.67,3.09-.86,4.41-1.48,1.27-2.27,3.17-3.8,4.44-.74.62-.74,1.4-.54,2.36.39,1.89-.55,2.98-2.49,3.23-1.23.16-1.8-.45-1.39-1.75,1.15-3.63,2.23-7.3,5.25-9.95.23-.2.37-.51.71-.98Z"/>
      <path class="cls-1" d="M115.6,192.88c-4.65.66-8.9-1.21-13.93-1.09,4.08,2.09,7.97,2.22,12.44,2.84-4.61.94-8.45.07-12.26-.42-4.07-.53-8.06-1.56-11.86-3.19-.3-.13-.63-.2-.9-.38-1.23-.82-3.58-1.42-3.29-2.69.38-1.72,2.6-.61,4-.76,2.61-.28,5.08.34,7.61,1.15,5.24,1.67,10.63,2.86,16.13,3.42.77.08,1.43.35,2.06,1.13ZM97.4,190.48c-.16.09-.32.18-.48.27.16.09.32.25.48.25.16,0,.32-.16.48-.25-.16-.09-.32-.18-.48-.27ZM100.5,191.42c-.15-.1-.3-.27-.46-.27-.16,0-.33.14-.5.22.15.1.3.27.46.28.16,0,.33-.14.5-.22Z"/>
      <path class="cls-4" d="M67.67,221.11c-.18-1.16.58-2.13.67-3.24,1.02-.88,2.33-1.08,3.55-1.47,7.12-2.26,14-5.22,21.24-7.13,1.44-.38,2.8-.89,4.87.12-10.35,4.39-20.28,8.21-30.33,11.72Z"/>
      <path class="cls-1" d="M147.46,231.55c-2.6,2.86-4.58,5.84-7.28,8.17-.89.77-1.87,1.5-2.92,2.03-1.37.7-2.39-.02-2.23-1.55.18-1.73.88-3.3,1.73-4.83,1.69-3.04,4.59-4.82,7.08-7.03.72-.64,1.21-.17,1.4.55.51,1.91.48,1.92,2.21,2.67Z"/>
      <path class="cls-1" d="M177.88,260.48c-.13-1.14-.59-2.27-.39-3.44.13-.75.46-1.2,1.25-1.2.59,0,1.06.2,1.22.83.24.94.63,1.88.69,2.84.12,1.73.13,3.45.64,5.14.28.94.04,1.88-.83,2.63-2.32,1.99-3.59,1.73-4.87-1.06-1.48-3.22-1.26-6.78-2-10.14-.08-.39.06-.88.23-1.26.36-.79,1.06-1.04,1.89-.94.81.1,1.05.68,1.07,1.39.06,1.78.11,3.56.16,5.34.32-.04.63-.08.95-.12Z"/>
      <path class="cls-1" d="M140.82,246.88c.75-3.66,2.36-7.15,5.01-10.14.51-.57,1.05-1.1,1.6-1.63.61-.59.82-1.94,2.23-.98,1.18.81,2.31,1.9,1.51,3.16-2.41,3.82-4.23,8.07-7.69,11.16-.54.48-1.3.93-2.09.45-.66-.4-.46-1.15-.58-2.03Z"/>
      <path class="cls-4" d="M59.86,160.32c-1.63-1.54-3.85-1.71-5.82-2.41-1.43-.52-2.21-1.17-2.01-2.72,7.75,2.39,15.5,4.76,23.24,7.19,1.86.58,3.66,1.33,5.49,2.02.66.25,1.14.64.76,1.47-.32.72-.77.93-1.55.66-2.55-.88-5.13-1.7-7.69-2.57-3.28-1.1-6.73-1.71-9.87-3.24-.81-.4-1.69-.32-2.55-.4Z"/>
      <path class="cls-1" d="M167.93,251.46q4.29.68,4.29,4.67c0,1.95,0,3.91,0,5.86,0,.65.09,1.34-.07,1.95-.36,1.32-1.19,2.53-2.56,2.6-1.28.06-1.59-1.38-1.82-2.38-1-4.24-1.4-8.49.16-12.7Z"/>
      <path class="cls-1" d="M159.79,256.74c.5-2.55.95-5.09,1.51-7.61.18-.79,2.77-1.39,3.96-.97,1.01.35,1.22,1.25,1.01,2.13-.75,3.15-1.22,6.32-1.3,9.57-.03,1.37-1.81,3.59-2.53,3.44-1.68-.34-1.38-2.01-1.84-3.12-.44-1.08-.55-2.29-.8-3.45Z"/>
      <path class="cls-1" d="M152.28,238.47c.35,0,.53-.04.56,0,.69,1.26,2.56,1.47,2.88,2.93.33,1.53-1.11,2.49-1.64,3.76-.72,1.69-1.37,3.42-1.95,5.16-.28.84-.54,1.64-1.23,2.24-.64.55-1.18,1.42-2.2.97-.9-.39-.58-1.3-.64-2.02-.44-5.01,1.34-9.26,4.22-13.05Z"/>
      <path class="cls-1" d="M156.93,242.8c2.02,2.49-.22,4.56-.12,7.07,1.43-1.09,1.4-2.45,1.9-3.52.24-.52.65-.95,1.27-.68.42.18.47.69.42,1.13-.04.32-.1.64-.21.94-.93,2.43-1.6,4.93-2.08,7.48-.08.42-.19.85-.37,1.25-.62,1.37-1.17,3.3-2.92,2.94-1.44-.29-1.43-2.21-1.52-3.59-.28-4.67,1.14-8.84,3.63-13.02ZM156.19,255.12c.27-1.44,1.18-2.12.38-3.11-.89.78-.69,1.56-.38,3.11Z"/>
      <path class="cls-2" d="M189.86,224.4c0,.43.02.86.03,1.28-.96.02-1.58-.58-2.2-1.2-4.33-4.36-9.61-7.13-15.28-9.32-1.65-.64-3.44-1.07-5.01-2.22,1.83-.9,3.3.66,4.91.24.4.01.8.03,1.2.04.3.61.82.7,1.42.61.81.08,1.62.15,2.43.23.23.75.46,1.5,1.4.6,3.84,1.28,7.3,3.13,9.83,6.41-.06,1.29-.24,2.62,1.26,3.32Z"/>
      <path class="cls-1" d="M128.5,208.18c.2.75-.65,1.3-.42,1.6,1.49,1.93-.24,2.68-1.31,3.45-3.36,2.4-7.13,3.61-11.31,3.29-.42-.03-.91-.04-1.05-.57-.13-.48.2-.78.53-1.08,2.2-1.99,5.08-2.83,7.52-4.41.97-.63,2.23-.76,3.08-1.72.72-.82,1.74-.76,2.95-.56Z"/>
      <path class="cls-2" d="M144.19,187.08c-.21,1.27.5,2.28.92,3.39.72,1.9,1.41,3.83.72,5.93-1.13-.14-.96-1.08-1.2-1.73-.22-.6-.32-1.25-.52-1.86-2.21-6.86-1.14-5.44-7.46-7.53-2.99-.99-5.83-2.11-7.81-4.74.63-.92,1.43-.4,2.11-.49.74.28,1.02,1.43,2.3,1.02.07-.89-1.11-1.46-.89-2.41h0c3.08.87,4.86,3.43,7.12,5.38.57.49,1.04,1.62,2.04.53.19,0,.38.01.57.04l2.09,2.47Z"/>
      <path class="cls-1" d="M120.25,202.76c-1.71,1.03-3.63,1.36-5.42,1.83-1.74.45-3.61.37-5.41,1.25,2.52.88,4.87-1.18,7.26-.17-4.58,2.26-14.44,2.52-17.45.34,2.11-1.82,4.77-2.33,7.19-2.4,4.53-.13,9-.49,13.46-1.22.05,0,.13.13.36.37Z"/>
      <path class="cls-1" d="M124,222.18c-.58-.05-.86-.54-.63-1.1,1.49-3.65,4.05-6.38,7.5-8.24.86-.47,1.69.14,2.36.7.48.4.27.95.21,1.5-.22,2.01-7.65,7.2-9.44,7.14Z"/>
      <path class="cls-1" d="M121.03,206.38c-.62,1.88-1.92,1.75-2.46,2.55.26.78,1.25.13,1.61.98-.99,1.02-2.4,1.14-3.67,1.54-2.68.83-5.42,1.37-8.25,1.16-.78-.06-1.59-.22-1.73-1.13-.14-.95.63-1.23,1.38-1.47,1.62-.52,3.14-1.22,4.92-1.41,2.62-.29,5.25-.84,8.21-2.21Z"/>
      <path class="cls-2" d="M214.61,224.55c-.13.94.75,1.78.38,2.75-.27.02-.55.14-.65.05-4.47-4.07-10.19-5.28-15.75-6.83-.51-.14-1.07-.13-1.41-.62,1.07-.14,2.14-.21,3.19-.42,4.43-.88,8.32.16,11.66,3.21.79.73,1.49,1.57,2.59,1.87Z"/>
      <path class="cls-2" d="M164.4,209.34c-2.94-.34-5.17-2.18-7.34-3.86-2.3-1.79-4.24-4.04-6.26-6.17-1-1.06-.85-1.25,1.18-1.7,2.57,2.46,5.19,4.87,7.67,7.41,1.5,1.54,3.71,2.29,4.74,4.32Z"/>
      <path class="cls-2" d="M127.76,177.33c-2.88-.36-4.93-2.43-7.34-3.72-2.26-1.21-4.25-2.9-6.37-4.37-.62-.43-1.31-.8-1.27-1.71.85.07,1.75-.08,2.52.39,4.46,2.73,9.06,5.28,12.47,9.4Z"/>
      <path class="cls-1" d="M96.18,214.34c-.76.1-1.09-.18-1.33-.56-.3-.46-.08-.85.31-1.1,2.05-1.3,4.4-1.84,6.68-2.54.21-.06.68.19.77.4.1.22-.02.71-.22.85-1.95,1.44-4.41,1.77-6.21,2.94Z"/>
      <path class="cls-1" d="M137.04,230.19c.94-1.27,1.85-2.56,2.83-3.8.6-.77,1.42-1.3,2.33-1.67.5-.2,1.06-.46,1.49.01.48.53.03.98-.33,1.37-.58.63-1.15,1.3-1.82,1.82-1.3,1-2.49,2.2-4.04,2.81-.15-.18-.3-.36-.45-.54Z"/>
      <path class="cls-4" d="M189.86,224.4c-1.5-.69-1.32-2.03-1.26-3.32.64.45,1.29.9,1.93,1.34-.03.72.1,1.5-.67,1.97Z"/>
      <path class="cls-1" d="M80.31,190.27c-.09-.05-.48-.16-.53-.36-.13-.51.27-.67.71-.68.33,0,.58.19.58.53,0,.33-.21.54-.76.51Z"/>
      <path class="cls-4" d="M178.77,214.67c-.94.9-1.17.15-1.4-.6.6-.11,1.11-.01,1.4.6Z"/>
      <path class="cls-4" d="M174.94,213.84c-.6.09-1.12,0-1.42-.61.95-.92,1.19-.16,1.42.61Z"/>
      <path class="cls-1" d="M92.01,207.1c-.17.08-.34.23-.5.22-.16,0-.31-.18-.46-.28.17-.08.34-.23.5-.22.16,0,.31.18.46.27Z"/>
      <path class="cls-1" d="M94.14,206.15c.16.09.33.17.49.26-.16.09-.32.26-.48.26-.16,0-.32-.15-.48-.24.16-.09.32-.19.47-.28Z"/>
      <path class="cls-2" d="M112.77,167.54c-.54,0-1.03-.12-1.3-.66.53.04,1.01.16,1.3.66Z"/>
      <path class="cls-1" d="M123.69,230.67c.03-.08.05-.22.08-.22.09,0,.18.05.27.08-.03.08-.05.22-.08.22-.09,0-.18-.05-.27-.08Z"/>
      <path class="cls-2" d="M165.05,210c-.22-.22-.43-.43-.65-.65.22.22.43.43.65.65Z"/>
      <path class="cls-4" d="M142.1,184.61c-.19-.03-.38-.04-.57-.04.23-.51.42-.5.57.04Z"/>
      <path class="cls-2" d="M132.37,178.66c-.09-.05-.26-.12-.25-.15.06-.21.15-.16.25.15,0,0,0,0,0,0Z"/>
      <path class="cls-1" d="M182.7,250.52c.21-.23.41-.46.62-.69-.21.23-.41.46-.62.69Z"/>
      <path class="cls-3" d="M279.45,241.41c-3.2,1.07-6.57,1.35-9.88,1.72-2.08.23-4.26-.45-6.4-.74-.43-.06-.84-.3-1.26-.31-5.26-.18-4.99-.24-6.4,3.98-.94,2.8-2.23,5.33-4.84,6.95-.7-.67-.4-1.19.02-1.51,2.13-1.65,2.52-4.25,3.62-6.46.3-.61.27-1.26.09-1.91-.38-1.39-1.02-1.7-2.27-.96-1.94,1.14-4,1.9-6.39,2.09,7.46-3.44,10.15-10.97,14.82-16.92q.21,1.93-1.97,5.75c-1.01,1.78-2,3.57-2.98,5.31,1.19,1.13,2.53,1.19,3.81.94,4.31-.86,8.43-2.24,11.53-5.57,1.42-1.53,3.21-2.45,5.11-2.66,5.47-.61,10.38-2.11,14.05-6.56.92-1.11,1.23-.87,1.7,1.14-.43.22-.86.45-1.28.67-3.66,3.15-7.66,5.52-12.6,6.08-1.12.13-2.24.66-3.23,1.41-2.06,1.56-4.19,3.05-6.36,4.45-1.37.88-2.88,1.56-4.33,2.32.05.24.1.48.15.73,3.5-.11,7.01.38,10.5-.29.86-.17,2.04-.25,2.15-1.59,2.31.3,4.32-1.03,7.04-1.36-1.09,2.12-3.03,2.36-4.4,3.31Z"/>
      <path class="cls-3" d="M295.07,221.11c-1.2-.18-1.24,1.4-2.44,1.53-.15-1.74.89-2.99,1.69-4.26.74-1.19,1.51-2.3,1.44-3.77,3.85-2.93,6.27-7.23,9.94-10.37,1.59-1.37,3.04-2.55,5.29-2.83,2.95-.37,5.01-2.44,6.74-4.73.38-.5,1.07-1.3-.24-1.76-.61-.21-.4-.73.02-.93,2.2-1.02,2.77-3.22,3.83-5.08.49-.85.58-2.19,2.03-2.16.52.55.14,1.02-.06,1.5-1.03,2.5-2.04,5.01-3.11,7.49-1.65,3.85-4.54,6.03-8.64,7.16-4.24,1.17-7.08,4.24-8.69,8.37-.5.99-1.29,1.67-2.26,2.15-1.03.51-1.67,1.26-1.73,2.44-1.44-.09-1.97.65-1.83,2-.03.53-.12,1.03-.65,1.3-1.32.04-1.33.99-1.33,1.93h-.01Z"/>
      <path class="cls-1" d="M276.81,239.46c-.11,1.34-1.29,1.43-2.15,1.59-3.5.67-7,.19-10.5.29-.05-.24-.1-.48-.15-.73,1.45-.77,2.96-1.44,4.33-2.32,2.18-1.4,4.3-2.89,6.36-4.45.99-.75,2.11-1.29,3.23-1.41,4.94-.56,8.94-2.93,12.6-6.08.19,1.65-.82,2.68-1.99,3.47-2.86,1.93-5.66,3.96-9,5.07-2.99,1-5.37,3.11-8.63,4.59,2.32,1.18,4.11.19,5.9-.03Z"/>
      <path class="cls-2" d="M296.41,219.17c.53-.28.62-.77.65-1.3.85-.45,1.54-1.04,1.83-2,.05-1.18.69-1.93,1.73-2.44.97-.47,1.76-1.16,2.26-2.15,1.11-.21,1.5-1.59,2.91-1.68.36,1.18-.36,1.95-.96,2.77-1.92,2.62-4.32,4.86-5.85,7.78-.5.96-1.22,1.8-1.22,2.96h-.01c-1.72-.24-1.22-1.61-1.37-2.66.01-.43.03-.85.04-1.28Z"/>
      <path class="cls-3" d="M297.75,223.11c2.32-1.07,2.92-3.62,4.53-5.3,1.18-1.24,2-2.86,3.88-3.26l.09.1c.07,1.04-.39,1.83-1.05,2.62-2.07,2.48-4.29,4.87-5.37,8.03-.46,1.35-1.53,2.01-3.16,2.16-.17-1.64,1.39-2.79,1.06-4.33,0,0,.01-.01.01-.01Z"/>
      <path class="cls-3" d="M306.16,214.55c.49-1.89,1.8-2.93,4.08-3.98-1.07,2.27-2.06,3.62-3.99,4.07,0,0-.09-.09-.09-.09Z"/>
      <path class="cls-1" d="M296.41,219.17c-.01.43-.03.85-.04,1.28-.43.22-.86.44-1.29.65,0-.95.01-1.89,1.33-1.93Z"/>
      <path class="cls-3" d="M325.19,185.23c-.16.3-.37.53-.74.48-.07,0-.12-.16-.18-.24.29-.1.58-.2.86-.3l.06.07Z"/>
      <path class="cls-3" d="M325.13,185.16c.15-.29.6-.62.68-.45.37.75-.4.34-.63.52,0,0-.06-.07-.06-.07Z"/>
      <path class="cls-3" d="M334.98,182.61c-.15.28-.6.6-.67.44-.33-.73.4-.32.62-.49,0,0,.05.06.05.06Z"/>
      <path class="cls-3" d="M418.11,197.96c-.17.08-.34.23-.5.23-.16,0-.31-.18-.46-.28.17-.08.34-.23.5-.22.16,0,.31.18.46.28Z"/>
      <path class="cls-3" d="M391.41,223.43c-.09.05-.18.14-.26.13-.08,0-.15-.11-.23-.17.19-.2.35-.19.49.04Z"/>
      <path class="cls-3" d="M370.25,226.34c3.12.74,5.53,2.79,8.81,4.5-3.33-.36-7.55-2.63-8.82-4.48v-.02Z"/>
      <path class="cls-3" d="M370.24,226.36c-2.76-.63-5.52-1.28-7.19-3.91,0,0,.02-.03.02-.03,2.75.65,4.91,2.4,7.19,3.92,0,0-.01.02-.01.02Z"/>
      <path class="cls-3" d="M356.54,219.14c1.91.19,3.72.57,4.57,2.62l-.02.03c-1.75-.48-3.47-1.01-4.58-2.61l.04-.04Z"/>
      <path class="cls-3" d="M356.51,219.18c-1.17-.25-2.4-.44-2.61-1.96,0,0,.03-.03.03-.03,1.18.24,2.39.44,2.62,1.96,0,0-.04.04-.04.04Z"/>
      <path class="cls-3" d="M361.11,221.76c.72.03,1.48-.09,1.95.66,0,0-.02.03-.02.03-.72-.03-1.48.09-1.95-.66,0,0,.02-.03.02-.03Z"/>
      <path class="cls-3" d="M351.96,216.53c.72.03,1.48-.09,1.95.65,0,0-.03.03-.03.03-.71-.03-1.48.09-1.95-.66,0,0,.02-.03.02-.03Z"/>
      <path class="cls-3" d="M380.03,232.06c-.08-.06-.15-.12-.23-.19.09-.05.18-.14.26-.13.08,0,.15.11.23.17-.09.05-.17.09-.26.14Z"/>
      <path class="cls-3" d="M365.01,236.16c-.47-.09-1.03-.09-.98-.8,0-.07.13-.2.2-.2.71-.05.72.5.8.98l-.03.03Z"/>
      <path class="cls-3" d="M365.03,236.13c.09.05.26.13.25.16-.05.22-.16.18-.28-.13,0,0,.03-.03.03-.03Z"/>
      <path class="cls-3" d="M398.99,159.05c.47-.76,1.26-.6,1.97-.69-.45.83-1.24.69-1.97.69Z"/>
      <path class="cls-3" d="M355.2,182.73c.08.04.21.06.22.11.05.2-.07.3-.31.24-.05-.01-.13-.15-.11-.2.02-.07.13-.1.2-.15Z"/>
      <path class="cls-3" d="M355.39,191.42c-.17.09-.35.24-.52.23-.17,0-.32-.18-.49-.28.17-.08.35-.24.52-.23.17,0,.32.18.49.28Z"/>
      <path class="cls-4" d="M308.79,190.39l.27.27c-.06-.02-.13-.02-.16-.05-.05-.06-.08-.14-.11-.22,0,0,0,0,0,0Z"/>
      <path class="cls-3" d="M174.81,239.34c1.59,1.21,3.5,1.86,5.38,1.95,4.28.21,8.57.07,13.22.07-1.68-1.45-3.59-1.14-5.07-2.02-1.68-1-3.32-2-4.82-3.28-1.88-1.61-3.85-2.89-6.5-3.36-3.1-.55-6.47-1-8.75-3.72l.04-.05c3.99.92,7.99,1.83,11.98,2.76,2.38.55,4.23,2.54,6.17,4.06,2.86,2.24,6.2,3,9.61,3.62,1.08.2,2.17-.03,3.18-.95-1.68-3.1-3.93-6-4.51-9.71,2.61,2.54,4.49,5.59,6.3,8.62,1.94,3.24,5.32,4.58,7.99,6.91-2.32-.05-4.38-.68-6.28-1.9-.66-.42-1.45-1.27-2.3-.39-.63.65-.65,1.46-.35,2.41.8,2.49,1.48,5,3.69,6.73.46.36,1.1.79.62,1.85-2.23-1.04-3.78-2.68-4.62-4.93-.6-1.62-1.07-3.3-1.38-5-.26-1.46-.98-1.73-2.27-1.49-3.93.73-7.89,1.1-11.91,1.22-3.58.1-6.82-.92-10.1-2.01-.29-.51-.77-.62-1.3-.66.25-.25.49-.5.74-.75.4,0,.81,0,1.21,0Z"/>
      <path class="cls-3" d="M150.71,209.98c-.99-3.61-3.62-5.66-6.86-7.06-1.07-.46-2.29-.59-3.4-.97-2.82-.97-4.88-2.82-5.78-5.68-1.13-3.6-2.86-6.93-4.31-10.39,0,0,.09-.09.09-.09,1.63.11,2.03,1.48,2.56,2.63.9,1.95,1.55,4.04,3.4,5.4.23.17.44.52.48.8.46,3.97,3.39,5.78,6.63,6.68,5.47,1.53,8.57,5.35,11.12,9.97,0,0-.05.05-.05.05-.68-.22-1.36-.43-2.04-.65-.45-.65-1.16-.63-1.83-.7Z"/>
      <path class="cls-1" d="M144.81,211.29c.32.07.69.05.94.22,3.76,2.54,9.57,9.59,12.02,14.69-3.61-1.24-6.1-3.28-7.97-6.28-1.76-2.82-4.3-5.16-5.04-8.57l.06-.06Z"/>
      <path class="cls-2" d="M150.71,209.98c.67.07,1.38.05,1.83.7,0,1.38.39,2.48,2,2.64h0c-.09,1.53.69,2.54,1.99,3.23h0c.23.86.46,1.72.69,2.58-.16.63-.56,1.63-1.17.89-2.86-3.49-6.33-6.5-8.41-10.6-.03-.06.07-.18.17-.45,1.08-.14,1.89.78,2.88,1.02Z"/>
      <path class="cls-3" d="M158.51,213.93c.84,3.08,2.55,5.71,4.23,8.36.44.7,1.18,1.28.73,2.52-2.23-1.77-3.22-4.19-4.61-6.29-.6-.91-.96-1.99-2.32-1.96,0,0,0,0,0,0,.16-1.59-.6-2.61-1.99-3.25,0,0,0,.01,0,.01.01-.66.02-1.33.03-1.99,0,0,.05-.05.05-.05.2.02.41.03.61.04.58,1.05,1.29,1.92,2.63,1.95.21.22.43.44.64.66Z"/>
      <path class="cls-1" d="M173.6,239.33c-.25.25-.49.5-.74.75-1.01-.65-2.34-.88-2.91-2.2,1.27.39,2.99-.46,3.65,1.45Z"/>
      <path class="cls-1" d="M157.87,213.27c-1.34-.03-2.05-.89-2.63-1.95,1.4-.06,2.52.26,2.63,1.95Z"/>
      <path class="cls-2" d="M165.37,212.04c.16.08.32.17.48.25-.16.09-.31.25-.47.25-.16,0-.32-.15-.48-.23.16-.09.31-.18.47-.27Z"/>
      <path class="cls-3" d="M138.47,195.35c-.07.05-.14.14-.21.14-.25-.02-.31-.14-.16-.31.04-.05.18-.06.25-.03.06.02.08.13.12.2Z"/>
      <path class="cls-3" d="M128.47,184.5c.54.02,1.03.14,1.31.66l-.07.07c-.54,0-1.03-.13-1.32-.65l.07-.08Z"/>
      <path class="cls-3" d="M128.4,184.58c-.28-.1-.57-.2-.85-.31.06-.08.11-.22.19-.23.36-.06.57.17.73.46,0,0-.07.08-.07.08Z"/>
      <path class="cls-1" d="M144.75,211.35c-.09-.06-.26-.14-.25-.18.05-.23.17-.19.31.12,0,0-.06.06-.06.06Z"/>
      <path class="cls-3" d="M129.79,185.17c.22.21.44.42.66.63,0,0-.09.09-.09.09-.21-.22-.42-.44-.64-.66,0,0,.06-.07.06-.07Z"/>
      <path class="cls-3" d="M168.29,228.98c-.3-.07-.63-.08-.9-.22-.34-.17-.8-.41-.41-.88.12-.14.68-.15.82,0,.26.27.37.7.54,1.06,0,0-.04.05-.04.05Z"/>
      <path class="cls-3" d="M33.03,164.92c.79.61,1.98.4,2.63,1.31-1.05-.09-2.42.47-2.63-1.31Z"/>
      <path class="cls-3" d="M38.27,166.88c.9.1,1.93-.31,2.62.66-.91-.07-1.94.34-2.62-.66Z"/>
      <path class="cls-3" d="M35.65,166.23c.9.1,1.94-.31,2.62.66-.91-.06-1.94.34-2.62-.66Z"/>
      <path class="cls-3" d="M84.68,226.36c-1.02,2.44-3.57,2.38-5.48,3.35,1.39-1.83,3.27-2.86,5.46-3.38l.03.03Z"/>
      <path class="cls-3" d="M77.08,230.32c.4.1.76.18.52.58-.13.21-.46.4-.71.43-.33.03-.6-.24-.42-.58.11-.21.44-.32.62-.43Z"/>
      <path class="cls-3" d="M84.65,226.33c.23-.21.43-.49.71-.61.32-.14.81-.58.98.1.08.31-.38.46-.7.49-.32.04-.64.04-.96.05,0,0-.03-.03-.03-.03Z"/>
      <path class="cls-3" d="M89.9,236.16c-.5,1.1-1.53,1.43-2.84,1.89.44-1.71,1.54-1.93,2.81-1.93,0,0,.03.04.03.04Z"/>
      <path class="cls-3" d="M66.37,222.44c-.15.28-.59.61-.65.46-.33-.74.41-.31.63-.48,0,0,.02.02.02.02Z"/>
      <path class="cls-3" d="M108.49,234.64c-.36,1.33-1.04,2.31-2.76,2.68.35-1.77,1.24-2.54,2.76-2.68Z"/>
      <path class="cls-3" d="M104.02,238.58c-.08.18-.12.46-.26.52-.13.05-.35-.13-.53-.21.08-.18.12-.46.25-.52.13-.05.35.13.54.21Z"/>
      <path class="cls-3" d="M104.88,176.74c-.53-.03-1.02-.14-1.3-.66,0,0,.05-.06.05-.06.54,0,1.02.13,1.31.65,0,0-.06.07-.06.07Z"/>
      <path class="cls-3" d="M102.32,175.37c.54,0,1.02.13,1.31.65,0,0-.05.06-.05.06-.53-.03-1.02-.14-1.3-.66,0,0,.04-.05.04-.05Z"/>
      <path class="cls-3" d="M101.02,174.71c.54.01,1.02.13,1.3.66,0,0-.04.05-.04.05-.53-.02-1.03-.13-1.31-.65l.05-.06Z"/>
      <path class="cls-3" d="M100.97,174.77l-.85-.29c.47-.59.66-.06.9.23,0,0-.05.06-.05.06Z"/>
      <path class="cls-3" d="M99.24,182.99c-.08.03-.17.1-.23.08-.25-.07-.28-.21-.07-.34.05-.03.18,0,.25.05.04.03.04.13.05.2Z"/>
      <path class="cls-3" d="M97.4,190.48c.16.09.32.18.48.27-.16.09-.32.25-.48.25-.16,0-.32-.16-.48-.25.16-.09.32-.18.48-.27Z"/>
      <path class="cls-3" d="M100.5,191.42c-.17.08-.34.23-.5.22-.16,0-.31-.18-.46-.28.17-.08.34-.23.5-.22.16,0,.31.18.46.27Z"/>
      <path class="cls-3" d="M156.19,255.12c-.31-1.54-.51-2.33.38-3.11.8.99-.11,1.67-.38,3.11Z"/>
      <path class="cls-1" d="M298.89,215.86c-.29.96-.98,1.55-1.83,2-.14-1.35.39-2.09,1.83-2Z"/>
      <path class="cls-1" d="M154.58,211.33c-.01.66-.02,1.33-.03,1.99-1.61-.16-2-1.26-2.01-2.64.68.22,1.36.43,2.04.65Z"/>
      <path class="cls-1" d="M154.55,213.31c1.39.63,2.15,1.66,1.99,3.25-1.3-.69-2.08-1.7-1.99-3.25Z"/>
    </g>
  </g>
  <path class="cls-3" d="M241.39,405.22l2.35-.81-2.35.81Z"/>
  <polygon class="cls-2" points="243.79 404.41 241.34 405.09 241.11 404.24 243.42 403.71 243.79 404.41"/>
</svg>