<?xml version="1.0" encoding="UTF-8"?>
<svg id="GRIFOS" xmlns="http://www.w3.org/2000/svg" viewBox="0 0 1569.5 813.8">
  <defs>
    <style>
      .cls-1 {
        fill: #131314;
      }

      .cls-1, .cls-2, .cls-3, .cls-4, .cls-5, .cls-6, .cls-7, .cls-8, .cls-9 {
        stroke-width: 0px;
      }

      .cls-2 {
        fill: #d5d4d0;
      }

      .cls-3 {
        fill: #b1cc7c;
      }

      .cls-4 {
        fill: #fdfdfc;
      }

      .cls-5 {
        fill: #91bc51;
      }

      .cls-6 {
        fill: #22211f;
      }

      .cls-7 {
        fill: #729243;
      }

      .cls-8 {
        fill: #4f5357;
      }

      .cls-9 {
        fill: #f9f7eb;
      }
    </style>
  </defs>
  <g id="FX">
    <g id="F1">
      <path class="cls-1" d="M1410.78,263.79c-3.22,2.3-6.55,3.83-10.21,4.59-6.34,1.33-12.53.66-18.38-1.95-11.85-5.29-18.73-14.6-20.47-27.33-1.96-14.34,3.34-25.91,14.8-34.62,3.76-2.85,8.06-4.73,12.77-5.49,1.13-.18,1.29-.64,1.12-1.66-1.93-11.6,6.12-22.75,18.43-25.4,6-1.29,11.7-.31,17,2.84.26.15.51.32.77.47.25.15.51.29.74.42.7-.26.8-.93,1.12-1.42,5.34-8.35,12.91-13.04,22.85-13.38,10.57-.36,18.81,4.13,24.78,12.81.91,1.33.89,1.34,2.41.73,7.13-2.9,14.78-.13,18.37,6.65.86,1.62,1.15,3.4,1.56,5.22,5.62.08,10.95,1.37,15.91,3.92,11.13,5.73,17.87,14.84,20.28,27.08,1.75,8.86.81,17.49-3.2,25.61-5.77,11.69-15.12,18.87-28.06,20.86-6.38.98-12.67.19-18.36-3.25-1.09,1.94-.91,3.42.57,4.92.7.71,1.54,1.21,2.42,1.65,1.68.85,3.35,1.72,5.01,2.61,9.83,5.28,12.06,17.65,4.53,26.5-4.25,5-9.79,7.94-15.93,9.91-3.3,1.06-6.64,1.98-9.78,3.47-3.24,1.53-6.26,3.3-8.14,6.56-1.38,2.38-1.85,4.88-1.59,7.67.45-.06.83-.06,1.17-.17,3.1-1.03,7.63.84,9.47,4.89,1.7,3.73.49,8.43-2.72,10.8-.24.18-.48.39-.75.5-1.04.39-1.28.93-.92,2.08.67,2.16.99,4.43.94,6.71-.03,1.37.72,2.44,1.17,3.62,1.55,4.04,1.25,7.86-1.34,11.38-2.02,2.74-4.71,4.65-7.81,6.03-6.35,2.82-13.03,3.62-19.91,3.28-3.94-.2-7.82-.73-11.57-1.98-4.29-1.43-8.21-3.47-10.99-7.21-2.3-3.09-3.33-6.53-1.99-10.23.99-2.73,1.79-5.42,1.77-8.34,0-.52.12-1.07.31-1.55.85-2.16.33-3.47-1.71-4.93-3.76-2.69-3.94-8.74-.79-12.37,3.22-3.72,8.39-3.95,12.1-.6.51.46.76,1.47,1.73,1.2,1.05-.29,1.53-1.1,1.75-2.14.47-2.23,1.6-4.05,3.48-5.38.79-.57,1.72-.92,2.53-.41.95.59,1.49.22,2.17-.35,1.94-1.65,4.19-2.66,6.72-3.01.56-.08.99-.14,1.13-.83,1.39-6.49,5.81-10.96,10.27-15.4,1.07-1.07,2.17-2.11,3.17-3.24,2.51-2.81,3.83-5.98,2.54-9.77-1.33-3.93-4.44-5.71-8.24-6.6-3.58-.84-7.06-.04-10.54.65-5.63,1.11-11.27,1.42-16.81-.25-7.86-2.37-13.72-7.13-16.95-14.84-.17-.41-.36-.82-.66-1.51ZM1454.42,322.32c-.17-.28-.45-.35-.76-.39-1.93-.28-3.71.15-5.44,1.02-1.06.53-1.47.22-1.61-.92-.14-1.17.54-2.12.98-3.41-2.74.31-4.91,1.24-6.56,3.25-.57.28-.83.84-1.16,1.33-1.53,2.2-2.1,2.17-3.24-.21-.08-.17-.05-.43-.44-.37-1.09,1.06-1.64,2.47-1.72,3.97-.06,1.17-.5,1.81-1.56,2.12-.71.41-1.44.8-2.13,1.25-5.75,3.7-8.55,9.09-9.22,15.79-.25,2.44-.29,4.94-1.43,7.25-2.25,4.56.45,9.75,3.55,11.71,4.61,2.92,9.61,4.84,15,5.19,6.23.41,12.53.51,18.54-1.77,3.48-1.32,6.77-2.96,9.22-5.92,1.99-2.4,2.72-5.19,1.52-8.02-1.39-3.26-1.82-6.66-2.23-10.08-.85-6.99-4.52-11.97-10.58-15.32-1.58-.5-3.05-1.09-2.66-3.22.5-.78.86-1.65,1.56-2.32.22-.21.9-.36.37-.92ZM1531.94,225.76c.14-2.42.06-4.82-.36-7.22-1.69-9.61-6.33-17.35-14.41-22.93-5.96-4.11-12.55-6.16-19.81-6.07-2.19.03-2.19-.04-2.19-2.07,0-7.14-6.93-12.51-13.84-10.74-1.49.38-2.78,1.13-4.04,1.99-1.5,1.03-1.64.97-2.52-.68-.14-.27-.26-.54-.4-.81-5.67-10.78-18.18-15.8-29.75-11.94-6.85,2.28-11.61,6.85-14.63,13.33-1.05,2.25-1.29,2.29-3.24.72-4.59-3.68-9.77-5.28-15.64-4.45-8.05,1.14-13.58,5.59-16.57,13.05-1.21,3.02-1.64,6.26-.59,9.51-.26.74,0,1.44.21,2.11.3.9,0,1.54-.66,2.1-2.89.06-5.67.7-8.33,1.78-10.73,4.36-17.03,12.48-19.81,23.54-.38,1.53-.74,3.07-.53,4.67-.33.4-.21.86-.16,1.31-.44,4.14.57,8.05,1.77,11.95,3.61,11.79,16.19,21.98,30.05,20.83,6.36-.53,11.57-3.05,15.7-7.87,1.58-1.84,2.62-3.95,3.51-6.22,1.48-3.79,1.91-7.51.53-11.37-1.55-6.12-5.26-10.06-11.53-11.39-5.89-1.25-11.1.94-14,5.89-3.47,5.91-.86,13.17,5.46,15.14,3.05.95,6.32-.11,8.36-2.56,1.88-2.26,2.03-7.49-1.77-9.16-.28-.12-.56-.24-.8-.41-.54-.39-.8-.92-.58-1.58.24-.72.78-1.13,1.53-1.1.44.02.92.14,1.31.34,2.8,1.48,4.55,3.72,4.77,6.95.46,6.71-5.44,11.91-12.19,10.9-5.92-.89-11.15-6.58-10.78-13.67.46-8.96,8.27-13.83,14.49-14.31,10.89-.84,20.89,8.94,19.55,21.72-.39,3.73-1.65,7.19-3.41,10.48-.75.94-1.41,1.96-2.27,2.79-.86.83-.79,1.6-.46,2.62,2.7,8.18,11.6,14.68,20.53,15.01,4.02.15,7.97-.29,11.89-1.15,5.07-1.11,9.94-.91,14.74,1.48,7.2,3.59,8.35,13.61,4.09,18.65-2.25,2.66-4.79,5.02-7.17,7.55-2.29,2.42-4.44,4.94-5.83,8.02-.64,1.43-1.42,2.83-.7,4.52.2.46-.06,1.11-.11,1.7,1.06.14,2.02.27,2.98.4.74.24,1.48.47,2.23.71.89.85,1.66,1.75,1.55,3.11-.11,1.4-1.78,1.55-2.23,2.83.72.34,1.2,1.38,2.1.92.89-.46.94-1.47.8-2.41-.04-.3-.07-.6-.08-.9-.1-4.22,1.01-8.02,3.79-11.31,2.16-2.56,4.85-4.32,7.91-5.48,4.16-1.59,8.37-3.03,12.57-4.5,2.66-.93,5.13-2.21,7.4-3.86,3.5-2.53,6.31-5.57,7.75-9.76,1.77-5.16-.31-12.65-6.14-15.49-.76-.48-1.51-.99-2.3-1.44-1.71-.96-3.54-1.69-5.14-2.86-3.1-2.3-4.17-5.27-2.98-8.94.31-.96.17-1.51-.52-2.16-.77-.72-1.5-1.5-2.13-2.35-5.31-7.09-6.75-14.69-2.94-22.95,3.9-8.45,14.55-13.06,23.45-7.76,6.83,4.06,8.83,13.31,4.11,19.7-3.82,5.17-11,6.13-15.82,2.13-4.17-3.47-4.46-9.59-.62-13.18.72-.68,1.51-1.28,2.51-1.46.82-.15,1.53.1,1.82.96.23.71.07,1.34-.64,1.74-.26.15-.53.3-.78.46-1.3.81-2,2-2.27,3.49-.52,2.86,1.28,5.79,4.27,6.93,3.99,1.51,8.93-1.07,10.42-5.57,2.58-7.83-4.34-15.21-12.35-14.2-5.36.68-9.1,3.74-11.38,8.61-.45.95-.96,1.88-.83,2.98-.81,1.67-.97,3.46-.81,5.26.53,6.14,3.32,11.05,8.34,14.62,4.08,2.9,8.69,3.92,13.68,3.82,10.27-.2,18.32-4.73,24.89-12.29,1.38-1.59,2.52-3.39,3.54-5.24,2.71-4.89,4.22-10.11,4.31-15.72.02-.29.03-.59.05-.88.14-.3.17-.6.05-.91ZM1467.34,337.14c.45.07.68-.15.89-.35.33-.31.68-.61.95-.96,3.22-4.23.66-8.98-3.29-9.71-1.92-.35-3.54.33-4.92,1.65-.28.27-.41.64-.2,1.02.21.38.61.46.98.37.51-.13.98-.36,1.47-.54,2.87-1.05,5.4.52,5.66,3.54.13,1.53.11,3.03-1.31,4.08-.23.17-.41.43-.24.9ZM1419.41,336.1c-.59-1.65-.61-2.91-.52-4.17.21-2.86,2.63-4.35,5.32-3.3.49.19.94.47,1.43.66.56.22,1.07.03,1.35-.47.26-.46-.07-.85-.39-1.18-2.06-2.1-5.57-2.09-7.74-.04-2.05,1.94-2.59,6.44.54,8.49ZM1465.94,335.52c1.48-1.12,1.78-2.43,1.27-3.92-.56-1.66-2.15-2.22-3.63-1.32-.58.35-.88.72-.33,1.43.92,1.18,1.73,2.45,2.68,3.82ZM1424.92,331.33c-1.67-1.8-2.59-1.99-3.74-.83-1.34,1.34-1.11,3.15.67,4.87.95-1.42,1.81-2.9,3.08-4.04Z"/>
      <path class="cls-6" d="M1396.14,287.88c1.92-1.57,4.05-2.51,6.62-2.37,4,.22,7.38,2.79,8.45,6.67.28,1.01.64,1.65,1.68,2.13,7.25,3.34,9.05,13.22,3.51,19.03-.99,1.04-2.08,1.98-3.09,2.99-3.29,3.29-3.56,5.46-1.14,9.42.61,1,1.13,1.96.67,3.17-.62,1.65-1.82,2.54-3.74,2.2-8.35-1.47-13.7-8.98-8.78-17,.51-.83,1.19-1.55,1.49-2.51.2-.64.16-1.31-.28-1.69-.49-.43-.96.16-1.36.46-4.73,3.59-11.68.78-13.38-4.67-.4-1.27-1.01-1.94-2.2-2.52-4.72-2.31-6.52-8.06-4.21-12.99,2.2-4.68,7.6-6.71,12.43-4.72,1.29.53,2.21,1.52,3.33,2.4ZM1410.14,328.43c-.19-1.45-.97-2.24-1.45-3.16-1.57-2.96-1.36-5.79.52-8.54.65-.94,1.44-1.75,2.22-2.56,1.25-1.31,2.65-2.49,3.68-3.99,2.86-4.14,2.5-11.38-4.37-13.65-1.53-.51-1.92-1.36-2.08-2.75-.31-2.7-2.02-4.34-4.48-5.16-2.46-.82-4.61-.07-6.4,1.74-1.82,1.85-1.77,1.83-3.45-.16-1.78-2.1-4.01-3.2-6.82-2.5-3,.74-5.13,3.3-5.34,6.3-.21,3.03,1.43,5.89,4.36,6.97,1.6.59,2.54,1.41,2.77,3.11.62,4.51,6.38,6.73,9.95,3.3,1.56-1.5,3.67-.97,4.71.93.99,1.8.92,3.63-.05,5.41-.43.79-.96,1.54-1.43,2.31-1.59,2.63-1.7,5.33-.06,7.92,1.71,2.7,4.27,4.1,7.7,4.47Z"/>
      <path class="cls-7" d="M1505.92,180.19c-4.59-3.11-4.67-8.06-3.43-11.32.54-1.42,1.34-2.7,2.2-3.94,2.88-4.15,2.62-7.81-.91-11.36-2.55-2.57-4.17-5.52-4.22-9.21-.03-2.58.67-4.92,2.21-6.99.45-.6.9-1.22,1.42-1.76,2.58-2.66,4.58-5.6,4.7-9.83,1.76,2.32,1.64,4.53,1.14,6.77-.28,1.26-.88,2.4-1.54,3.51-.58.97-1.18,1.94-1.68,2.95-1.47,2.98-1.26,5.84.82,8.48.7.89,1.54,1.66,2.26,2.54,3.01,3.65,4.39,7.7,2.98,12.41-.48,1.62-1.37,3.01-2.45,4.3-1.06,1.27-2.15,2.51-2.99,3.97-1.42,2.44-1.72,4.93-.92,7.62.17.56.6,1.07.39,1.87Z"/>
      <path class="cls-6" d="M1519.28,263.84c1.74,0,3.35.46,4.58,1.65.93.9,2,1.23,3.18,1.5,4.72,1.05,7.81,5.19,7.44,9.93-.36,4.62-4.02,8.36-8.66,8.62-1.2.07-1.64.46-1.99,1.53-2.16,6.5-10.3,7.77-14.51,2.63-1.44-1.76-2.21-3.81-1.71-6.1.22-.98.09-1.67-.49-2.48-3.28-4.55-.25-10.04,3.77-10.87,1.07-.22,1.4-.88,1.78-1.76,1.23-2.89,3.47-4.45,6.62-4.63ZM1531.51,276.23c.26-2.9-2.66-6.81-6.1-6.56-1.13.08-1.99-.33-2.72-1.26-1.09-1.39-2.55-2.16-4.38-1.57-1.99.64-3.16,1.99-3.26,4.14-.09,1.91-.41,2.01-1.96,1.91-1.92-.13-3.42.75-4.11,2.57-.65,1.69-.29,3.35,1.06,4.56.93.84,1.09,1.61.76,2.77-.4,1.39-.46,2.85.26,4.19.97,1.8,2.45,2.77,4.54,2.86,2.28.09,3.93-.85,5.05-2.79.66-1.14.91-2.37.82-3.7-.07-.93.27-1.5,1.35-1.07.21.08.43.14.65.19,4.07,1.01,8-2.05,8.05-6.26Z"/>
      <path class="cls-7" d="M1380.36,195.21c-2.92-2.14-3.97-5.18-3.07-8.29.43-1.47,1.24-2.74,2.07-4.01,1.67-2.54,1.61-4.4-.2-6.86-.49-.67-1.04-1.29-1.56-1.95-3.14-3.98-2.99-8.62.39-12.37.61-.67,1.24-1.33,1.79-2.05,1.19-1.56,1.4-2.22,1.93-5.52,1.1,1.44,1.24,2.86,1.1,4.34-.12,1.38-.69,2.62-1.37,3.81-.34.59-.69,1.18-.99,1.78-1.48,2.93-1.2,4.8,1.06,7.2.52.55,1.11,1.05,1.54,1.66,2.35,3.28,2.88,6.75.92,10.42-.61,1.14-1.32,2.2-2.19,3.16-2.05,2.28-2.69,4.83-1.52,7.75.08.19.05.43.09.92Z"/>
      <path class="cls-7" d="M1522.23,155.17c1.17,1.25,1.18,2.62.82,4.05-.26,1.04-.78,1.96-1.3,2.88-1.09,1.94-.86,3.76.49,5.48.37.47.77.93,1.15,1.4,2.05,2.61,2.22,5.35.5,8.19-.31.51-.65,1.03-1.07,1.45-1.76,1.79-2.55,3.86-1.88,6.42-2.29-1.4-2.99-3.8-1.89-6.42.32-.76.8-1.45,1.23-2.15,1.17-1.88,1.13-3.7-.22-5.47-.37-.48-.76-.94-1.13-1.41-1.86-2.39-2.06-5.22-.48-7.81.51-.83,1.12-1.61,1.75-2.36,1.05-1.23,1.91-2.53,2.03-4.24Z"/>
      <path class="cls-7" d="M1491.63,137.34c1.28,1.53,1,3.03.61,4.46-.23.86-.74,1.65-1.15,2.45-1.14,2.19-.98,3.75.7,5.58,1.14,1.24,2.13,2.52,2.41,4.26.39,2.42-.23,4.61-1.94,6.25-1.96,1.87-2.51,3.96-1.81,6.61-2.45-1.76-3.27-4.94-1.63-7.2,2.11-2.9,2.14-5.26-.38-8.02-2.31-2.53-2.06-6.07.16-8.72,1.37-1.63,2.66-3.26,3.03-5.66Z"/>
      <path class="cls-6" d="M1443.43,310.59c-1.59-1.86-1.76-3.91-.77-6.09.25-.55.5-1.09.77-1.63.82-1.7.44-3.22-.7-4.61-.38-.46-.85-.86-1.27-1.28-2.48-2.51-2.95-5.86-1.17-8.89.75-1.27,1.54-2.56,2.99-3.4.02,1.32-.51,2.33-.89,3.37-.9,2.48-.38,4.58,1.47,6.39.48.47.99.93,1.45,1.43,2.44,2.68,2.69,6.16.46,9.05-1.45,1.89-2.09,3.8-1.16,6.07-.39-.13-.79-.27-1.18-.4Z"/>
      <path class="cls-6" d="M1498.49,311.59c-1.04.47-1.88.26-2.68.33-2.87.24-4.22,1.28-5.1,3.99-.14.43-.26.86-.42,1.29-1.28,3.56-3.33,5.11-7.01,4.64-2.61-.33-4.9-.36-6.67,2.3-.02-3.09,1.79-5.2,4.34-5.38.83-.06,1.66-.02,2.49,0,1.72.03,2.84-.84,3.5-2.36.39-.9.63-1.86,1.06-2.74,1.85-3.85,6.83-4.91,10.49-2.07Z"/>
      <path class="cls-6" d="M1430.89,293.96c-.07.95-.13,1.91-.2,2.86-.16,2.08.63,3.65,2.43,4.74.7.43,1.45.8,2,1.46,1.57,1.88,1.76,4.01.83,6.15-.81,1.86-1.26,3.62.23,5.63-2.26-.9-3.18-2.29-3.02-4.24.06-.75.18-1.5.38-2.23.47-1.77-.19-3.03-1.56-4.13-4.12-3.29-4.47-5.97-1.08-10.24Z"/>
      <path class="cls-6" d="M1476.32,336.32c.56-2.24,1.72-3.38,3.72-3.08,3,.45,4.64-.56,5.61-3.46.76-2.28,2.81-3.29,5.2-3.28,1.51,0,2.94.44,4.28,1.45-.74.66-1.52.33-2.22.35-2.39.07-4.12.9-5.05,3.36-1.4,3.66-3.42,4.69-7.28,3.84-1.59-.35-2.95-.29-4.25.82Z"/>
      <path class="cls-8" d="M1443.43,310.59c.39.13.79.27,1.18.4.31.3.5.68-.15.62-.49-.05-.92-.45-1.04-1.02Z"/>
      <path class="cls-5" d="M1393.51,201.66c.66-.56.96-1.2.66-2.1-.22-.67-.47-1.38-.21-2.11,0-1.82.87-3.29,1.8-4.79,2.23-3.59,4.97-6.69,8.74-8.62,4.25-2.18,8.89-2.28,13.49-1.56,2.85.45,5.47,1.68,7.7,3.59.4.34.79.7,1.22,1.01,1.97,1.42,2.1,1.46,2.9-.82,1.61-4.54,4.7-7.92,8.53-10.54,5.48-3.75,11.55-5.28,18.26-4.02,4.52.85,8.42,2.75,11.82,5.76,2.56,2.27,4.69,4.9,6.19,8.01.69,1.43.83,1.44,2.13.43.99-.77,2.16-1.07,3.3-1.43,6.24-1.97,12.88,2.88,12.9,9.4,0,.6,0,1.21.02,1.81.02.78.48,1.16,1.18.95,3.32-.98,6.68-.34,9.87.23,10.64,1.88,18.61,7.73,23.93,17.17,1.58,2.8,2.15,5.92,3.18,8.9.33.95.42,1.91.4,2.9.04.32.09.64.39.84-.02.29-.03.59-.05.88-.67.12-.66.65-.81,1.17-1.5,5.07-3.26,10.01-7.33,13.73-.94.86-1.91,1.71-2.62,2.8-.62.96-1.49,1.66-2.37,2.38-2.54,2.11-5.49,3.4-8.49,4.64-5.77,2.39-11.63,3.4-17.8,1.56-6.57-1.96-13.68-8.43-14.06-16-.02-.32-.2-.55-.46-.74-.13-1.11.39-2.03.83-2.98,2.28-4.87,6.02-7.94,11.38-8.61,8.01-1.01,14.94,6.37,12.35,14.2-1.48,4.49-6.43,7.08-10.42,5.57-2.99-1.14-4.78-4.07-4.27-6.93.27-1.49.97-2.68,2.27-3.49.26-.16.52-.31.78-.46.71-.4.88-1.03.64-1.74-.28-.86-1-1.11-1.82-.96-1,.18-1.79.78-2.51,1.46-3.84,3.59-3.55,9.71.62,13.18,4.82,4.01,12,3.04,15.82-2.13,4.72-6.38,2.72-15.63-4.11-19.7-8.91-5.3-19.55-.69-23.45,7.76-3.81,8.25-2.37,15.86,2.94,22.95.63.84,1.36,1.63,2.13,2.35.69.64.83,1.2.52,2.16-1.19,3.67-.12,6.64,2.98,8.94,1.59,1.18,3.43,1.9,5.14,2.86.79.44,1.53.96,2.3,1.44,0,.45-.02.92.26,1.31,2.07,2.8,2.3,6.02,1.94,9.28-.32,2.97-1.4,5.66-3.6,7.85-3.16,3.13-6.81,5.49-10.99,6.92-5.24,1.79-10.2,4.17-15.07,6.75-3.81,2.02-6.13,5.33-7.29,9.39-.49,1.71-.25,3.59-.67,5.36-.74-.24-1.48-.47-2.23-.71-.02-1.36-.15-2.73-.04-4.08.22-2.75.91-5.4,2.85-7.45,2.53-2.68,5.03-5.42,8.14-7.5,2.84-1.9,4.95-4.38,5.9-7.73.1-.36.33-.68.44-1.04,1.63-5.02,1.18-9.91-1.66-14.29-3.81-5.86-9.81-7.47-16.37-7.12-3.42.18-6.8,1.3-10.22,1.55-3.88.28-7.85.68-11.66-.71-1.13-.41-2.23-.92-3.34-1.38-4.48-1.84-8.05-4.67-10.16-9.16-.44-.94-.76-1.98-1.59-2.69,1.76-3.29,3.02-6.75,3.41-10.48,1.33-12.78-8.66-22.56-19.55-21.72-6.22.48-14.03,5.35-14.49,14.31-.37,7.09,4.86,12.77,10.78,13.67,6.75,1.01,12.64-4.19,12.19-10.9-.22-3.23-1.97-5.47-4.77-6.95-.39-.21-.86-.33-1.31-.34-.76-.03-1.3.38-1.53,1.1-.22.66.04,1.19.58,1.58.24.17.53.29.8.41,3.8,1.67,3.65,6.9,1.77,9.16-2.04,2.45-5.31,3.51-8.36,2.56-6.31-1.97-8.93-9.23-5.46-15.14,2.91-4.95,8.11-7.14,14-5.89,6.28,1.33,9.99,5.27,11.53,11.39-.6.42-.49,1.06-.48,1.65.03.92-.17,1.78-.44,2.65-1.23,3.98-3.36,7.3-6.69,9.92-4.62,3.64-9.77,5.83-15.64,5.17-4.8-.55-9.34-2.34-13.44-4.98-4.98-3.21-8.76-7.51-11.36-12.85-1.25-2.58-2.39-5.19-2.84-8.05-.06-.41-.27-.69-.66-.82-.05-.45-.17-.9.16-1.31.26-.17.44-.38.51-.7,1.4-6.89,5.83-11.79,10.9-16.18,2.21-1.91,4.74-3.42,7.58-4.38,3.07-1.04,6.23-1.57,9.53-2.06-.26-1.2-.34-2.3-.63-3.39-.32-1.18-.33-2.4.78-3.29ZM1456.14,203.98c.53-.31.46-.84.48-1.34.69.02,1.04-.54,1.54-.85,1.02-.63,1.85-1.49,2.99-2,4.4-1.96,9.67.3,11.71,4.42.88,1.76.96,1.86,2.75,1.33,3.59-1.05,7.67,1.97,8.33,5.15.25,1.22.23,2.46.43,3.91,1.13-2.4,1.34-3.16,1.24-4.28-.39-4.46-4.06-8.01-8.53-8.14-1.15-.03-1.87-.33-2.62-1.31-2.35-3.08-5.29-5-9.48-4.67-3.92.31-7.11,2.54-8.41,6.4-.51.34-.43.87-.44,1.37-.2.07-.24.13-.1.16.02,0,.06-.11.09-.17ZM1404.05,215.55c.73-.24.82-.83,1.09-1.25,3.23-4.95,8.42-6.95,14.14-5.29,3.23.93,5.41,3.15,6.99,6.04,1.01,1.84,1.23,1.93,3.2,1.36.87-.25,1.71-.55,2.63-.63,5.51-.45,10.08,4.61,10,9.23,0,.56-.2,1.19.24,1.71.6-.14.6-.64.61-1.08.03-1.36.12-2.72.02-4.08-.29-4.02-2.29-6.84-5.94-8.63-2.03-1-4.12-.91-6.2-.74-1.39.12-2.1-.33-2.89-1.43-4.16-5.84-11.59-7.62-17.63-4.3-3.55,1.95-5.9,4.75-6.26,9.07ZM1466.44,241.68c-2.87-3.89-10.77-4.13-13.09,1.61-.63,1.57-1.63,2.1-3.11,2.46-6.62,1.58-10.67,10-4.66,16.38.32.34.63.9,1.4.46-.6-1.52-1.21-3.01-1.43-4.67-.41-3.07,1.23-7.37,4.46-8.87,1.34-.62,2.76-.74,4.2-.63,1.04.08,1.43-.32,1.54-1.4.39-3.95,4.36-6.77,8.17-5.91.72.16,1.44.32,2.54.57Z"/>
      <path class="cls-8" d="M1455.15,328.77c6.06,3.36,9.74,8.34,10.59,15.32.42,3.42.85,6.81,2.23,10.08,1.2,2.83.47,5.61-1.52,8.02-2.45,2.96-5.74,4.6-9.22,5.92-6.01,2.28-12.31,2.18-18.54,1.77-5.39-.35-10.39-2.27-15-5.19-3.1-1.96-5.8-7.15-3.55-11.71,1.14-2.31,1.19-4.81,1.43-7.25.67-6.69,3.47-12.09,9.22-15.79.69-.44,1.42-.83,2.13-1.25-.21.7.39.93.78,1.2,1.89,1.33,3.23,3.12,4.34,5.12,3.14,5.65,4.38,11.78,4.56,18.17-.58.16-1.17.3-1.74.48-1.39.44-1.73,1.24-1.16,2.56.42.98,1.3,1.43,2.09,1.99.89.63.95,1.52.61,2.42-.34.89-1.19.76-1.94.78-.88.02-1.35-.51-1.75-1.2-.29-.5-.77-.81-1.32-.48-.43.26-.35.79-.31,1.24.04.48.29.84.59,1.19,1.16,1.37,3,1.82,4.68.86,1.13-.64,2.05-.74,3.09.02.3.22.68.35,1.04.43,1.85.45,4.05-1.02,4.22-2.81.04-.38.01-.78-.37-.99-.37-.19-.74-.07-1.02.23-.2.22-.35.49-.52.73-.7,1-1.71.86-2.66.64-.69-.16-1.12-.72-1.25-1.46-.2-1.11.73-1.4,1.39-1.81,1.13-.72,2.28-1.57,2-2.98-.29-1.48-1.75-1.69-3.05-1.85-.08-2.19.18-4.35.54-6.5.98-5.96,2.93-11.48,7.15-15.99.79-.6,1.8-.94,2.26-1.92ZM1452.48,350.94c.03.53,0,1.06.1,1.57.3,1.6,1.78,3.06,3.28,3.38,1.57.33,2.61-.46,3.45-1.62,1.47-2.03,1.15-5.6-.63-7.3-1.46-1.39-3.32-1.34-4.8.07-1.13,1.08-1.5,2.39-1.4,3.89ZM1427.52,350.93c.03.53,0,1.06.09,1.58.29,1.63,1.76,3.11,3.28,3.37,1.3.22,2.85-.57,3.64-1.83,1.19-1.91.92-5.06-.57-6.8-1.22-1.42-2.91-1.67-4.45-.61-1.51,1.03-2.13,2.49-1.99,4.3Z"/>
      <path class="cls-3" d="M1531.5,225.83c.02-.99-.06-1.94-.4-2.9-1.04-2.97-1.61-6.1-3.18-8.9-5.32-9.45-13.28-15.3-23.93-17.17-3.19-.56-6.55-1.21-9.87-.23-.7.21-1.17-.17-1.18-.95-.01-.6-.02-1.21-.02-1.81-.02-6.52-6.66-11.37-12.9-9.4-1.14.36-2.31.66-3.3,1.43-1.29,1.01-1.44,1-2.13-.43-1.5-3.11-3.63-5.74-6.19-8.01-3.4-3.01-7.3-4.92-11.82-5.76-6.71-1.26-12.78.27-18.26,4.02-3.83,2.62-6.92,6-8.53,10.54-.8,2.27-.93,2.24-2.9.82-.43-.31-.82-.67-1.22-1.01-2.23-1.91-4.85-3.15-7.7-3.59-4.6-.72-9.24-.62-13.49,1.56-3.77,1.94-6.51,5.04-8.74,8.62-.93,1.5-1.79,2.97-1.8,4.79-1.05-3.24-.62-6.49.59-9.51,2.99-7.46,8.52-11.91,16.57-13.05,5.87-.83,11.05.77,15.64,4.45,1.95,1.57,2.19,1.53,3.24-.72,3.02-6.48,7.77-11.05,14.63-13.33,11.56-3.85,24.08,1.16,29.75,11.94.14.27.26.54.4.81.88,1.65,1.02,1.71,2.52.68,1.25-.86,2.55-1.61,4.04-1.99,6.92-1.77,13.84,3.6,13.84,10.74,0,2.03,0,2.1,2.19,2.07,7.26-.09,13.85,1.96,19.81,6.07,8.08,5.58,12.72,13.32,14.41,22.93.42,2.4.5,4.8.36,7.22-.15.01-.3.04-.44.07Z"/>
      <path class="cls-7" d="M1416.65,257.51c.84.72,1.15,1.76,1.59,2.69,2.11,4.48,5.69,7.31,10.16,9.16,1.11.46,2.21.96,3.34,1.38,3.81,1.4,7.77,1,11.66.71,3.43-.25,6.8-1.36,10.22-1.55,6.55-.35,12.56,1.26,16.37,7.12,2.84,4.38,3.29,9.27,1.66,14.29-.12.36-.34.68-.44,1.04-.95,3.35-3.06,5.83-5.9,7.73-3.1,2.07-5.6,4.81-8.14,7.5-1.94,2.06-2.63,4.7-2.85,7.45-.11,1.35.02,2.72.04,4.08-.96-.13-1.93-.26-2.99-.4.05-.59.3-1.24.11-1.7-.73-1.69.05-3.09.7-4.52,1.38-3.08,3.54-5.59,5.83-8.02,2.38-2.52,4.92-4.89,7.17-7.55,4.26-5.04,3.11-15.06-4.09-18.65-4.8-2.4-9.67-2.59-14.74-1.48-3.92.85-7.87,1.3-11.89,1.15-8.93-.33-17.82-6.83-20.53-15.01-.34-1.02-.4-1.79.46-2.62.86-.83,1.52-1.85,2.27-2.79Z"/>
      <path class="cls-7" d="M1364.68,232.96c.39.14.59.41.66.82.45,2.86,1.58,5.47,2.84,8.05,2.6,5.34,6.38,9.64,11.36,12.85,4.1,2.64,8.64,4.44,13.44,4.98,5.87.67,11.02-1.53,15.64-5.17,3.33-2.62,5.46-5.94,6.69-9.92.27-.87.47-1.73.44-2.65-.02-.59-.12-1.23.48-1.65,1.39,3.86.96,7.58-.53,11.37-.89,2.27-1.93,4.38-3.51,6.22-4.13,4.83-9.34,7.35-15.7,7.87-13.86,1.15-26.44-9.04-30.05-20.83-1.2-3.91-2.21-7.82-1.77-11.95Z"/>
      <path class="cls-7" d="M1477.89,237.1c.25.18.44.41.46.74.38,7.57,7.49,14.04,14.06,16,6.17,1.84,12.03.83,17.8-1.56,3-1.24,5.95-2.54,8.49-4.64.88-.73,1.75-1.42,2.37-2.38.71-1.09,1.68-1.94,2.62-2.8,4.07-3.72,5.83-8.66,7.33-13.73.15-.52.15-1.05.81-1.17-.09,5.61-1.61,10.83-4.31,15.72-1.02,1.85-2.16,3.65-3.54,5.24-6.56,7.57-14.62,12.1-24.89,12.29-4.99.1-9.6-.93-13.68-3.82-5.02-3.56-7.81-8.47-8.34-14.62-.15-1.8,0-3.59.81-5.26Z"/>
      <path class="cls-4" d="M1442.6,353.18c-.18-6.39-1.42-12.52-4.56-18.17-1.11-2-2.44-3.78-4.34-5.12-.39-.27-.98-.5-.78-1.2,1.06-.31,1.5-.95,1.56-2.12.07-1.5.63-2.91,1.72-3.97.39-.06.36.2.44.37,1.14,2.39,1.7,2.42,3.24.21.34-.48.59-1.05,1.16-1.33,1.4-.05,2.67.2,3.58,1.44.25.34.84.85,1.04.76,1.42-.63,2.92.24,4.35-.39,1.41-.62,2.74-1.6,4.42-1.35.53.56-.15.71-.37.92-.7.66-1.06,1.53-1.56,2.32-2.26.18-2.65.7-1.57,2.51.55.92.81,2.13,1.97,2.63-4.22,4.51-6.17,10.03-7.15,15.99-.35,2.15-.61,4.32-.54,6.5-.59.05-1.17.1-1.76.15-.16,0-.31-.02-.47-.03-.11-.07-.24-.12-.37-.13Z"/>
      <path class="cls-7" d="M1456.59,319.82c.43-1.77.19-3.65.67-5.36,1.16-4.06,3.49-7.37,7.29-9.39,4.87-2.58,9.84-4.96,15.07-6.75,4.19-1.43,7.84-3.78,10.99-6.92,2.2-2.19,3.28-4.88,3.6-7.85.35-3.26.13-6.49-1.94-9.28-.29-.39-.26-.86-.26-1.31,5.83,2.84,7.91,10.33,6.14,15.49-1.44,4.2-4.25,7.24-7.75,9.76-2.28,1.65-4.75,2.93-7.4,3.86-4.2,1.47-8.41,2.92-12.57,4.5-3.06,1.17-5.75,2.93-7.91,5.48-2.78,3.29-3.88,7.09-3.79,11.31,0,.3.03.6.08.9.13.95.08,1.96-.8,2.41-.9.46-1.38-.57-2.1-.92.45-1.28,2.12-1.43,2.23-2.83.11-1.36-.66-2.26-1.55-3.11Z"/>
      <path class="cls-3" d="M1393.51,201.66c-1.11.89-1.1,2.11-.78,3.29.3,1.09.38,2.19.63,3.39-3.29.48-6.46,1.02-9.53,2.06-2.83.96-5.37,2.47-7.58,4.38-5.07,4.39-9.49,9.29-10.9,16.18-.07.32-.25.54-.51.7-.21-1.6.15-3.15.53-4.67,2.77-11.06,9.08-19.17,19.81-23.54,2.66-1.08,5.44-1.73,8.33-1.78Z"/>
      <path class="cls-8" d="M1467.34,337.14c-.17-.47,0-.73.24-.9,1.41-1.05,1.44-2.55,1.31-4.08-.26-3.02-2.79-4.59-5.66-3.54-.49.18-.97.42-1.47.54-.36.09-.77.01-.98-.37-.21-.38-.08-.75.2-1.02,1.38-1.32,3-2,4.92-1.65,3.95.72,6.51,5.47,3.29,9.71-.27.36-.62.65-.95.96-.22.2-.44.42-.89.35Z"/>
      <path class="cls-8" d="M1419.41,336.1c-3.13-2.04-2.6-6.54-.54-8.49,2.17-2.06,5.68-2.07,7.74.04.33.33.66.72.39,1.18-.28.5-.79.69-1.35.47-.49-.19-.94-.47-1.43-.66-2.7-1.05-5.12.44-5.32,3.3-.09,1.26-.07,2.52.52,4.17Z"/>
      <path class="cls-9" d="M1454.42,322.32c-1.68-.24-3.01.74-4.42,1.35-1.43.63-2.93-.25-4.35.39-.2.09-.79-.41-1.04-.76-.91-1.24-2.17-1.49-3.58-1.44,1.65-2.01,3.82-2.94,6.56-3.25-.44,1.29-1.12,2.25-.98,3.41.13,1.14.55,1.45,1.61.92,1.73-.86,3.51-1.29,5.44-1.02.31.04.58.11.76.39Z"/>
      <path class="cls-2" d="M1465.94,335.52c-.96-1.37-1.76-2.64-2.68-3.82-.55-.71-.25-1.07.33-1.43,1.48-.89,3.07-.34,3.63,1.32.5,1.49.2,2.8-1.27,3.92Z"/>
      <path class="cls-2" d="M1424.92,331.33c-1.27,1.14-2.12,2.62-3.08,4.04-1.78-1.72-2-3.52-.67-4.87,1.16-1.16,2.08-.98,3.74.83Z"/>
      <path class="cls-9" d="M1452.89,330.7c-1.16-.49-1.42-1.71-1.97-2.63-1.08-1.82-.69-2.33,1.57-2.51-.39,2.12,1.08,2.72,2.66,3.22-.46.98-1.47,1.33-2.26,1.92Z"/>
      <path class="cls-7" d="M1531.5,225.83c.15-.03.29-.06.44-.07.12.31.1.61-.05.91-.3-.2-.35-.52-.39-.84Z"/>
      <path class="cls-5" d="M1410.14,328.43c-3.43-.38-5.99-1.78-7.7-4.47-1.64-2.59-1.53-5.29.06-7.92.47-.77,1-1.52,1.43-2.31.97-1.78,1.04-3.6.05-5.41-1.04-1.9-3.15-2.43-4.71-.93-3.57,3.43-9.33,1.21-9.95-3.3-.23-1.7-1.18-2.52-2.77-3.11-2.93-1.09-4.57-3.94-4.36-6.97.21-3.01,2.34-5.56,5.34-6.3,2.81-.69,5.04.4,6.82,2.5,1.68,1.99,1.62,2.01,3.45.16,1.79-1.81,3.93-2.56,6.4-1.74,2.46.82,4.17,2.46,4.48,5.16.16,1.39.55,2.24,2.08,2.75,6.88,2.27,7.24,9.51,4.37,13.65-1.04,1.5-2.43,2.69-3.68,3.99-.78.82-1.58,1.62-2.22,2.56-1.89,2.75-2.09,5.57-.52,8.54.49.92,1.26,1.7,1.45,3.16Z"/>
      <path class="cls-5" d="M1531.51,276.23c-.04,4.21-3.97,7.26-8.05,6.26-.22-.05-.44-.11-.65-.19-1.08-.43-1.42.14-1.35,1.07.1,1.33-.16,2.55-.82,3.7-1.12,1.94-2.77,2.88-5.05,2.79-2.09-.08-3.57-1.06-4.54-2.86-.72-1.34-.66-2.8-.26-4.19.33-1.16.18-1.93-.76-2.77-1.35-1.21-1.71-2.87-1.06-4.56.69-1.82,2.19-2.7,4.11-2.57,1.55.1,1.87,0,1.96-1.91.1-2.15,1.27-3.5,3.26-4.14,1.83-.59,3.29.18,4.38,1.57.74.94,1.6,1.35,2.72,1.26,3.44-.25,6.35,3.66,6.1,6.56Z"/>
      <path class="cls-7" d="M1404.05,215.55c.36-4.33,2.71-7.12,6.26-9.07,6.04-3.33,13.47-1.54,17.63,4.3.78,1.1,1.49,1.55,2.89,1.43,2.08-.17,4.17-.26,6.2.74,3.65,1.79,5.65,4.61,5.94,8.63.1,1.35.01,2.72-.02,4.08-.01.44,0,.93-.61,1.08-.44-.52-.25-1.14-.24-1.71.08-4.62-4.49-9.68-10-9.23-.92.08-1.76.38-2.63.63-1.98.57-2.2.48-3.2-1.36-1.58-2.88-3.76-5.1-6.99-6.04-5.72-1.66-10.91.34-14.14,5.29-.27.42-.36,1-1.09,1.25Z"/>
      <path class="cls-7" d="M1466.44,241.68c-1.1-.25-1.82-.41-2.54-.57-3.81-.87-7.78,1.96-8.17,5.91-.11,1.07-.5,1.48-1.54,1.4-1.44-.11-2.85.01-4.2.63-3.23,1.49-4.87,5.8-4.46,8.87.22,1.66.83,3.15,1.43,4.67-.77.44-1.08-.12-1.4-.46-6.01-6.37-1.96-14.79,4.66-16.38,1.48-.35,2.48-.89,3.11-2.46,2.32-5.74,10.22-5.5,13.09-1.61Z"/>
      <path class="cls-7" d="M1456.58,202.62c1.3-3.86,4.49-6.09,8.41-6.4,4.18-.33,7.12,1.59,9.48,4.67.75.98,1.48,1.27,2.62,1.31,4.47.14,8.13,3.68,8.53,8.14.1,1.12-.12,1.88-1.24,4.28-.21-1.45-.18-2.69-.43-3.91-.66-3.18-4.74-6.21-8.33-5.15-1.79.52-1.87.43-2.75-1.33-2.05-4.12-7.32-6.38-11.71-4.42-1.14.51-1.97,1.37-2.99,2-.5.31-.85.87-1.54.85l-.04-.03Z"/>
      <path class="cls-7" d="M1456.62,202.65c-.02.49.05,1.02-.48,1.34h0c0-.49-.08-1.03.44-1.37,0,0,.04.03.04.03Z"/>
      <path class="cls-7" d="M1456.14,203.98c-.03.06-.07.17-.09.17-.14-.03-.1-.09.1-.16,0,0,0,0,0,0Z"/>
      <path class="cls-1" d="M1443.44,353.34c.59-.05,1.17-.1,1.76-.15,1.3.16,2.77.37,3.05,1.85.28,1.42-.87,2.27-2,2.98-.66.42-1.59.7-1.39,1.81.13.74.56,1.3,1.25,1.46.95.22,1.97.37,2.66-.64.17-.25.32-.51.52-.73.27-.3.65-.42,1.02-.23.39.2.41.61.37.99-.17,1.78-2.36,3.25-4.22,2.81-.36-.09-.74-.22-1.04-.43-1.04-.76-1.96-.66-3.09-.02-1.68.95-3.51.5-4.68-.86-.3-.35-.55-.72-.59-1.19-.04-.45-.12-.98.31-1.24.56-.33,1.03-.02,1.32.48.4.69.87,1.23,1.75,1.2.75-.02,1.61.11,1.94-.78.34-.9.28-1.79-.61-2.42-.8-.56-1.67-1.01-2.09-1.99-.57-1.31-.23-2.12,1.16-2.56.57-.18,1.16-.32,1.74-.48.14.01.26.06.37.13.14.3.29.33.47.03Z"/>
      <path class="cls-1" d="M1452.48,350.94c-.1-1.5.27-2.81,1.4-3.89,1.48-1.41,3.34-1.47,4.8-.07,1.78,1.7,2.1,5.27.63,7.3-.84,1.15-1.88,1.95-3.45,1.62-1.5-.32-2.98-1.78-3.28-3.38-.1-.51-.07-1.05-.1-1.57ZM1455.17,347.89c-.8.2-1.18.8-1.22,1.61-.05.87.71,1.69,1.48,1.61.92-.09,1.23-.73,1.25-1.56.01-.87-.73-1.71-1.51-1.66Z"/>
      <path class="cls-1" d="M1427.52,350.93c-.14-1.81.48-3.27,1.99-4.3,1.54-1.05,3.24-.8,4.45.61,1.49,1.74,1.75,4.89.57,6.8-.79,1.27-2.34,2.05-3.64,1.83-1.52-.26-3-1.74-3.28-3.37-.09-.52-.06-1.05-.09-1.58ZM1432.33,347.88c-.78.23-1.24.72-1.23,1.59.01.96.64,1.71,1.42,1.63.91-.1,1.23-.77,1.29-1.55.06-.8-.79-1.71-1.48-1.67Z"/>
      <path class="cls-8" d="M1443.44,353.34c-.17.3-.33.28-.47-.03.16,0,.31.02.47.03Z"/>
      <path class="cls-2" d="M1455.17,347.89c.77-.04,1.52.8,1.51,1.66-.01.83-.33,1.46-1.25,1.56-.77.08-1.53-.74-1.48-1.61.05-.81.43-1.41,1.22-1.61Z"/>
      <path class="cls-2" d="M1432.33,347.88c.7-.04,1.55.87,1.48,1.67-.06.78-.38,1.46-1.29,1.55-.78.08-1.41-.67-1.42-1.63-.01-.87.45-1.37,1.23-1.59Z"/>
    </g>
  </g>
</svg>