<?xml version="1.0" encoding="UTF-8"?>
<svg id="GRIFOS" xmlns="http://www.w3.org/2000/svg" viewBox="0 0 1569.5 840.16">
  <defs>
    <style>
      .cls-1 {
        fill: #131314;
      }

      .cls-1, .cls-2, .cls-3, .cls-4 {
        stroke-width: 0px;
      }

      .cls-2 {
        fill: #faed88;
      }

      .cls-3 {
        fill: #b0d5e0;
      }

      .cls-4 {
        fill: #22211f;
      }
    </style>
  </defs>
  <g id="F2">
    <path class="cls-1" d="M1517.24,35.03c.3.36.71.18,1.06.18,2.9.01,5.8,0,8.71,0,.55,0,1.1,0,1.64.05,2.03.23,3.11,1.48,3.07,3.53-.04,1.89-1.37,3.33-3.26,3.44-1.26.07-2.52.02-3.78.02-4.87,0-9.75-.14-14.62.06-3.01.12-4.97-2.75-3.22-5.67,1.04-1.73,2.36-3.29,3.59-4.89,2.85-3.68,5.72-7.33,8.58-11,.49-.63.94-1.29,1.58-2.17-1.72,0-3.17,0-4.63,0-1.92,0-3.83,0-5.75-.01-1.38,0-2.43-.58-3.06-1.83-.65-1.28-.53-2.55.21-3.75.66-1.08,1.73-1.51,2.93-1.51,5.86,0,11.72-.03,17.58.06,2.88.04,4.44,2.79,3.13,5.36-.37.72-.87,1.39-1.37,2.04-3.94,5.05-7.89,10.08-11.84,15.12-.22.28-.57.52-.54.96Z"/>
    <path class="cls-1" d="M1492.53,45.92c3.12,0,5.91-.03,8.7.01,2.09.03,3.27,1.8,2.57,3.73-.4,1.1-1.26,1.62-2.37,1.74-.65.07-1.31.02-1.97.02-3.94,0-7.88,0-11.82.01-.44,0-.88.03-1.31-.05-1.73-.3-2.66-1.92-2.07-3.58.29-.84.8-1.55,1.33-2.25,2.67-3.47,5.34-6.93,8.01-10.39.53-.69,1.11-1.34,1.51-2.13-.4-.4-.85-.2-1.25-.21-2.19-.03-4.38.01-6.57-.04-1.71-.04-2.63-1.04-2.61-2.69.02-1.69.91-2.65,2.63-2.66,4.54-.03,9.09-.05,13.63,0,2.46.03,3.64,2.3,2.28,4.38-1.08,1.64-2.29,3.2-3.49,4.76-2.32,3.03-4.66,6.04-7.2,9.33Z"/>
    <path class="cls-4" d="M1446.85,20.28c-.15-6.82,4.87-13.23,11.38-14.61.76-.16,1.52-.24,2.27-.26,1.24-.02,1.72.95,1.04,2.01-.21.32-.49.59-.73.89-5.46,6.73-1.32,15.72,6.13,17.38,2.1.47,4.12.12,6.09-.69.74-.31,1.5-.86,2.26-.12.85.82.24,1.65-.15,2.39-4.54,8.61-16.4,11.27-24.03,3.53-2.88-2.92-4.17-6.47-4.26-10.51ZM1472.36,27.49c-5.5,1.2-10.04-.28-13.34-4.54-3.66-4.72-3.51-9.86-.66-15.04-6.21,1.35-9.15,7.1-9.45,11.84-.36,5.63,3.65,11.38,9.33,13,5.98,1.7,12.04-1.32,14.12-5.25Z"/>
    <path class="cls-1" d="M1473.49,55.47c2.01,0,3.64,0,5.27,0,.38,0,.77-.03,1.15.01,1.16.15,1.88,1.01,1.81,2.13-.07,1.05-.81,1.79-1.93,1.81-2.35.03-4.71,0-7.06,0-1.15,0-2.3.05-3.45,0-1.41-.05-2.15-1.06-1.83-2.44.18-.77.63-1.38,1.1-1.99,1.99-2.54,3.99-5.07,5.97-7.62.25-.32.67-.57.6-1.25-1.24,0-2.47,0-3.71,0-.55,0-1.1,0-1.64-.04-1.45-.13-2.13-.78-2.11-1.98.02-1.19.78-1.85,2.2-1.87,1.7-.03,3.39-.01,5.09-.01,1.48,0,2.96-.01,4.43.02,1.8.04,2.6,1.36,1.84,3.04-.34.75-.89,1.37-1.4,2.02-2.04,2.62-4.07,5.26-6.34,8.18Z"/>
    <path class="cls-1" d="M1457.97,64.61c1.86,0,3.33-.02,4.81,0,1.21.02,1.83.57,1.88,1.58.05,1.02-.54,1.62-1.8,1.65-2.63.05-5.25.05-7.88.01-1.58-.02-2.24-1.11-1.6-2.57.24-.54.6-1.04.96-1.52,1.66-2.16,3.35-4.3,5.19-6.67-1.35-.13-2.52-.04-3.68-.06-.55-.01-1.09.03-1.59-.27-.68-.41-1.06-.97-.88-1.77.18-.78.7-1.21,1.52-1.22,2.68,0,5.36-.04,8.05.01,1.23.03,1.87,1.19,1.43,2.35-.2.52-.58.92-.91,1.36-1.76,2.28-3.52,4.57-5.49,7.11Z"/>
    <path class="cls-4" d="M1483.89,16.98c-.72-.02-1.25-.37-1.53-1.03-.31-.76-.61-1.52-.86-2.3-.28-.89-.79-1.5-1.71-1.8-.82-.27-1.63-.62-2.39-1.04-1.26-.69-1.26-1.97,0-2.65.76-.41,1.6-.69,2.42-.97.78-.26,1.28-.73,1.53-1.53.26-.83.61-1.63.95-2.43.28-.64.71-1.09,1.49-1.07.78.02,1.17.52,1.44,1.15.3.7.59,1.41.8,2.14.27.94.85,1.46,1.76,1.73.68.2,1.34.46,1.98.75.71.31,1.44.68,1.4,1.61-.03.88-.61,1.33-1.4,1.61-.77.27-1.5.66-2.28.88-.78.22-1.18.71-1.41,1.43-.25.78-.5,1.56-.79,2.32-.24.63-.61,1.17-1.4,1.19ZM1488.72,9.71c-.68-.62-1.23-.75-1.74-.89-1.15-.32-1.91-.96-2.28-2.11-.22-.67-.57-1.3-.95-2.16-.36.89-.66,1.52-.88,2.19-.32.95-.87,1.58-1.87,1.86-.72.21-1.45.48-2.13,1.02.75.3,1.42.63,2.14.85.98.3,1.52.94,1.86,1.88.25.71.38,1.51,1.16,2.29.3-2.96,1.89-4.51,4.69-4.95Z"/>
    <path class="cls-4" d="M1516.62,50.5c.89,0,1.3.41,1.55,1,.32.75.7,1.49.92,2.28.29,1.06.94,1.64,1.96,1.95.78.24,1.55.54,2.26.93,1.19.65,1.21,1.91.02,2.57-.85.47-1.79.8-2.72,1.11-.74.25-1.19.67-1.43,1.42-.26.83-.62,1.63-.94,2.44-.24.59-.59,1.03-1.3,1.09-.79.06-1.25-.42-1.54-1.01-.4-.83-.7-1.72-1-2.6-.23-.67-.61-1.11-1.31-1.33-.78-.25-1.52-.6-2.29-.89-.72-.27-1.26-.71-1.29-1.52-.03-.84.49-1.34,1.25-1.51,2.5-.54,3.92-2.08,4.47-4.54.18-.8.65-1.38,1.39-1.41ZM1511.82,57.76c1.17.87,2.47.93,3.42,1.66,1.03.79.93,2.2,1.55,3.27.46-.47.56-1.03.7-1.53.34-1.27,1.06-2.08,2.35-2.44.64-.18,1.32-.36,1.87-.86-1.13-.49-2.37-.69-3.29-1.47-.94-.79-.8-2.23-1.78-3.34-.34,2.88-2.07,4.27-4.81,4.71Z"/>
    <path class="cls-4" d="M1441.36,67.9c.02-1.61.25-1.9,1.69-1.91,1.86-.02,3.72,0,5.58-.02.69,0,1.29.07,1.64.8.34.73,0,1.26-.41,1.79-1.3,1.68-2.62,3.36-3.92,5.04-.23.29-.53.55-.61,1.17.86,0,1.7,0,2.54,0,.49,0,.99-.02,1.47.03.68.08,1.07.52,1.15,1.18.08.67-.37,1.22-1.12,1.39-.21.05-.44.04-.65.04-1.97,0-3.94.03-5.91,0-1.63-.02-2.22-1.12-1.33-2.53.58-.92,1.29-1.76,1.95-2.63.99-1.11,1.9-2.28,2.77-3.66-1.16,0-2.14-.05-3.11.02-.73.05-1.26-.21-1.73-.71Z"/>
    <path class="cls-4" d="M1450.04,42.81c-.01,1.47-1.28,2.75-2.71,2.72-1.44-.02-2.71-1.3-2.72-2.73,0-1.42,1.28-2.72,2.73-2.73,1.43-.01,2.71,1.28,2.7,2.74Z"/>
    <path class="cls-4" d="M1501.7,0c1.53-.05,2.69,1.09,2.72,2.67.03,1.47-1.07,2.64-2.53,2.66-1.55.02-2.74-1.12-2.76-2.64-.01-1.44,1.13-2.64,2.56-2.68Z"/>
    <path class="cls-1" d="M1479.62,73.21c-1.53-.03-2.6-1.2-2.56-2.78.05-1.44,1.2-2.53,2.65-2.51,1.51.02,2.72,1.24,2.68,2.69-.05,1.52-1.23,2.63-2.78,2.59Z"/>
    <path class="cls-2" d="M1472.36,27.49c-2.08,3.93-8.14,6.96-14.12,5.25-5.68-1.62-9.69-7.37-9.33-13,.3-4.73,3.24-10.49,9.45-11.84-2.85,5.17-2.99,10.31.66,15.04,3.3,4.26,7.83,5.74,13.34,4.54Z"/>
    <path class="cls-3" d="M1488.72,9.71c-2.81.44-4.4,1.99-4.69,4.95-.78-.78-.9-1.58-1.16-2.29-.34-.94-.88-1.58-1.86-1.88-.71-.22-1.39-.55-2.14-.85.68-.55,1.4-.82,2.13-1.02,1-.28,1.55-.92,1.87-1.86.22-.66.52-1.3.88-2.19.38.86.73,1.49.95,2.16.38,1.15,1.14,1.79,2.28,2.11.51.14,1.06.26,1.74.89Z"/>
    <path class="cls-2" d="M1511.82,57.76c2.74-.43,4.47-1.82,4.81-4.71.98,1.11.85,2.54,1.78,3.34.92.78,2.16.98,3.29,1.47-.55.49-1.23.68-1.87.86-1.29.36-2.01,1.17-2.35,2.44-.13.5-.23,1.06-.7,1.53-.62-1.07-.52-2.47-1.55-3.27-.95-.73-2.25-.79-3.42-1.66Z"/>
  </g>
</svg>